<?xml version="1.0" encoding="us-ascii" standalone="no"?><svg xmlns="http://www.w3.org/2000/svg" xmlns:xlink="http://www.w3.org/1999/xlink" contentStyleType="text/css" height="839.4px" preserveAspectRatio="none" style="width:1080px;height:839px;background:#FFFFFF;" version="1.1" viewBox="0 0 1080 839" width="1080.6px" zoomAndPan="magnify"><defs/><g><text fill="#000000" font-family="sans-serif" font-size="8.4" font-weight="bold" lengthAdjust="spacing" textLength="110.4" x="485.7" y="18.0645">Delete Supplier Sequence</text><rect fill="#FFFFFF" height="698.884" style="stroke:#181818;stroke-width:0.6;" width="6" x="26.7" y="79.9453"/><rect fill="#FFFFFF" height="232.6934" style="stroke:#181818;stroke-width:0.6;" width="6" x="281.1" y="93.9199"/><rect fill="#FFFFFF" height="18.7746" style="stroke:#181818;stroke-width:0.6;" width="6" x="281.1" y="345.3879"/><rect fill="#FFFFFF" height="395.8922" style="stroke:#181818;stroke-width:0.6;" width="6" x="281.1" y="382.9371"/><rect fill="#FFFFFF" height="168.9715" style="stroke:#181818;stroke-width:0.6;" width="6" x="469.5" y="138.8672"/><rect fill="#FFFFFF" height="349.943" style="stroke:#181818;stroke-width:0.6;" width="6" x="469.5" y="401.7117"/><rect fill="#FFFFFF" height="131.4223" style="stroke:#181818;stroke-width:0.6;" width="6" x="657.9" y="157.6418"/><rect fill="#FFFFFF" height="312.3938" style="stroke:#181818;stroke-width:0.6;" width="6" x="657.9" y="420.4863"/><rect fill="#FFFFFF" height="154.9969" style="stroke:#181818;stroke-width:0.6;" width="6" x="660.9" y="444.0609"/><rect fill="#FFFFFF" height="18.7746" style="stroke:#181818;stroke-width:0.6;" width="6" x="809.7" y="519.1594"/><rect fill="#FFFFFF" height="18.7746" style="stroke:#181818;stroke-width:0.6;" width="6" x="881.7" y="176.4164"/><rect fill="#FFFFFF" height="18.7746" style="stroke:#181818;stroke-width:0.6;" width="6" x="944.7" y="213.9656"/><rect fill="#FFFFFF" height="18.7746" style="stroke:#181818;stroke-width:0.6;" width="6" x="1020.6" y="251.5148"/><rect fill="#FFFFFF" height="18.7746" style="stroke:#181818;stroke-width:0.6;" width="6" x="1020.6" y="465.8355"/><rect fill="#FFFFFF" height="92.073" style="stroke:#181818;stroke-width:0.6;" width="6" x="1020.6" y="622.0324"/><rect fill="none" height="267.0445" style="stroke:#000000;stroke-width:0.8999999999999999;" width="841.2" x="235.2" y="493.6102"/><rect fill="none" height="125.4223" style="stroke:#000000;stroke-width:0.8999999999999999;" width="829.2" x="241.2" y="631.0324"/><line style="stroke:#181818;stroke-width:0.3;stroke-dasharray:5.0,5.0;" x1="29.4" x2="29.4" y1="73.9453" y2="789.6293"/><line style="stroke:#181818;stroke-width:0.3;stroke-dasharray:5.0,5.0;" x1="283.8" x2="283.8" y1="73.9453" y2="789.6293"/><line style="stroke:#181818;stroke-width:0.3;stroke-dasharray:5.0,5.0;" x1="472.5" x2="472.5" y1="117.8062" y2="789.6293"/><line style="stroke:#181818;stroke-width:0.3;stroke-dasharray:5.0,5.0;" x1="660.6" x2="660.6" y1="73.9453" y2="789.6293"/><line style="stroke:#181818;stroke-width:0.3;stroke-dasharray:5.0,5.0;" x1="812.4" x2="812.4" y1="73.9453" y2="789.6293"/><line style="stroke:#181818;stroke-width:0.3;stroke-dasharray:5.0,5.0;" x1="884.4" x2="884.4" y1="73.9453" y2="789.6293"/><line style="stroke:#181818;stroke-width:0.3;stroke-dasharray:5.0,5.0;" x1="947.4" x2="947.4" y1="73.9453" y2="789.6293"/><line style="stroke:#181818;stroke-width:0.3;stroke-dasharray:5.0,5.0;" x1="1023.6" x2="1023.6" y1="73.9453" y2="789.6293"/><text fill="#000000" font-family="sans-serif" font-size="8.4" lengthAdjust="spacing" textLength="49.8" x="3" y="71.8371">Administrator</text><ellipse cx="29.7" cy="31.8727" fill="#E3E3E3" rx="4.8" ry="4.8" style="stroke:#181818;stroke-width:0.3;"/><path d="M29.7,36.6727 L29.7,52.8727 M21.9,41.4727 L37.5,41.4727 M29.7,52.8727 L21.9,61.8727 M29.7,52.8727 L37.5,61.8727 " fill="none" style="stroke:#181818;stroke-width:0.3;"/><text fill="#000000" font-family="sans-serif" font-size="8.4" lengthAdjust="spacing" textLength="49.8" x="3" y="798.0938">Administrator</text><ellipse cx="29.7" cy="805.302" fill="#E3E3E3" rx="4.8" ry="4.8" style="stroke:#181818;stroke-width:0.3;"/><path d="M29.7,810.102 L29.7,826.302 M21.9,814.902 L37.5,814.902 M29.7,826.302 L21.9,835.302 M29.7,826.302 L37.5,835.302 " fill="none" style="stroke:#181818;stroke-width:0.3;"/><rect fill="#E3E3E3" height="19.5727" rx="1.5" ry="1.5" style="stroke:#181818;stroke-width:0.3;" width="73.8" x="247.2" y="53.7727"/><text fill="#000000" font-family="sans-serif" font-size="8.4" lengthAdjust="spacing" textLength="65.4" x="251.4" y="67.0371">:DeleteSupplierUI</text><rect fill="#E3E3E3" height="19.5727" rx="1.5" ry="1.5" style="stroke:#181818;stroke-width:0.3;" width="73.8" x="247.2" y="789.0293"/><text fill="#000000" font-family="sans-serif" font-size="8.4" lengthAdjust="spacing" textLength="65.4" x="251.4" y="802.2937">:DeleteSupplierUI</text><rect fill="#E3E3E3" height="19.5727" rx="1.5" ry="1.5" style="stroke:#181818;stroke-width:0.3;" width="79.2" x="432.9" y="789.0293"/><text fill="#000000" font-family="sans-serif" font-size="8.4" lengthAdjust="spacing" textLength="70.8" x="437.1" y="802.2937">:SupplierController</text><rect fill="#E3E3E3" height="19.5727" rx="1.5" ry="1.5" style="stroke:#181818;stroke-width:0.3;" width="70.2" x="625.8" y="53.7727"/><text fill="#000000" font-family="sans-serif" font-size="8.4" lengthAdjust="spacing" textLength="61.8" x="630" y="67.0371">:SupplierService</text><rect fill="#E3E3E3" height="19.5727" rx="1.5" ry="1.5" style="stroke:#181818;stroke-width:0.3;" width="70.2" x="625.8" y="789.0293"/><text fill="#000000" font-family="sans-serif" font-size="8.4" lengthAdjust="spacing" textLength="61.8" x="630" y="802.2937">:SupplierService</text><rect fill="#E3E3E3" height="19.5727" rx="1.5" ry="1.5" style="stroke:#181818;stroke-width:0.3;" width="76.2" x="774.6" y="53.7727"/><text fill="#000000" font-family="sans-serif" font-size="8.4" lengthAdjust="spacing" textLength="67.8" x="778.8" y="67.0371">SupplierException</text><rect fill="#E3E3E3" height="19.5727" rx="1.5" ry="1.5" style="stroke:#181818;stroke-width:0.3;" width="76.2" x="774.6" y="789.0293"/><text fill="#000000" font-family="sans-serif" font-size="8.4" lengthAdjust="spacing" textLength="67.8" x="778.8" y="802.2937">SupplierException</text><rect fill="#E3E3E3" height="19.5727" rx="1.5" ry="1.5" style="stroke:#181818;stroke-width:0.3;" width="55.8" x="856.8" y="53.7727"/><text fill="#000000" font-family="sans-serif" font-size="8.4" lengthAdjust="spacing" textLength="47.4" x="861" y="67.0371">Repositories</text><rect fill="#E3E3E3" height="19.5727" rx="1.5" ry="1.5" style="stroke:#181818;stroke-width:0.3;" width="55.8" x="856.8" y="789.0293"/><text fill="#000000" font-family="sans-serif" font-size="8.4" lengthAdjust="spacing" textLength="47.4" x="861" y="802.2937">Repositories</text><rect fill="#E3E3E3" height="30.7453" rx="1.5" ry="1.5" style="stroke:#181818;stroke-width:0.3;" width="58.2" x="918.6" y="42.6"/><text fill="#000000" font-family="sans-serif" font-size="8.4" lengthAdjust="spacing" textLength="44.4" x="925.5" y="55.8645">repositories</text><text fill="#000000" font-family="sans-serif" font-size="8.4" lengthAdjust="spacing" textLength="49.8" x="922.8" y="67.0371">:Repositories</text><rect fill="#E3E3E3" height="30.7453" rx="1.5" ry="1.5" style="stroke:#181818;stroke-width:0.3;" width="58.2" x="918.6" y="789.0293"/><text fill="#000000" font-family="sans-serif" font-size="8.4" lengthAdjust="spacing" textLength="44.4" x="925.5" y="802.2937">repositories</text><text fill="#000000" font-family="sans-serif" font-size="8.4" lengthAdjust="spacing" textLength="49.8" x="922.8" y="813.4664">:Repositories</text><rect fill="#E3E3E3" height="30.7453" rx="1.5" ry="1.5" style="stroke:#181818;stroke-width:0.3;" width="81.6" x="982.8" y="42.6"/><text fill="#000000" font-family="sans-serif" font-size="8.4" lengthAdjust="spacing" textLength="73.2" x="987" y="55.8645">supplierRepository:</text><text fill="#000000" font-family="sans-serif" font-size="8.4" lengthAdjust="spacing" textLength="72" x="987.6" y="67.0371">SupplierRepository</text><rect fill="#E3E3E3" height="30.7453" rx="1.5" ry="1.5" style="stroke:#181818;stroke-width:0.3;" width="81.6" x="982.8" y="789.0293"/><text fill="#000000" font-family="sans-serif" font-size="8.4" lengthAdjust="spacing" textLength="73.2" x="987" y="802.2937">supplierRepository:</text><text fill="#000000" font-family="sans-serif" font-size="8.4" lengthAdjust="spacing" textLength="72" x="987.6" y="813.4664">SupplierRepository</text><rect fill="#FFFFFF" height="698.884" style="stroke:#181818;stroke-width:0.6;" width="6" x="26.7" y="79.9453"/><rect fill="#FFFFFF" height="232.6934" style="stroke:#181818;stroke-width:0.6;" width="6" x="281.1" y="93.9199"/><rect fill="#FFFFFF" height="18.7746" style="stroke:#181818;stroke-width:0.6;" width="6" x="281.1" y="345.3879"/><rect fill="#FFFFFF" height="395.8922" style="stroke:#181818;stroke-width:0.6;" width="6" x="281.1" y="382.9371"/><rect fill="#FFFFFF" height="168.9715" style="stroke:#181818;stroke-width:0.6;" width="6" x="469.5" y="138.8672"/><rect fill="#FFFFFF" height="349.943" style="stroke:#181818;stroke-width:0.6;" width="6" x="469.5" y="401.7117"/><rect fill="#FFFFFF" height="131.4223" style="stroke:#181818;stroke-width:0.6;" width="6" x="657.9" y="157.6418"/><rect fill="#FFFFFF" height="312.3938" style="stroke:#181818;stroke-width:0.6;" width="6" x="657.9" y="420.4863"/><rect fill="#FFFFFF" height="154.9969" style="stroke:#181818;stroke-width:0.6;" width="6" x="660.9" y="444.0609"/><rect fill="#FFFFFF" height="18.7746" style="stroke:#181818;stroke-width:0.6;" width="6" x="809.7" y="519.1594"/><rect fill="#FFFFFF" height="18.7746" style="stroke:#181818;stroke-width:0.6;" width="6" x="881.7" y="176.4164"/><rect fill="#FFFFFF" height="18.7746" style="stroke:#181818;stroke-width:0.6;" width="6" x="944.7" y="213.9656"/><rect fill="#FFFFFF" height="18.7746" style="stroke:#181818;stroke-width:0.6;" width="6" x="1020.6" y="251.5148"/><rect fill="#FFFFFF" height="18.7746" style="stroke:#181818;stroke-width:0.6;" width="6" x="1020.6" y="465.8355"/><rect fill="#FFFFFF" height="92.073" style="stroke:#181818;stroke-width:0.6;" width="6" x="1020.6" y="622.0324"/><polygon fill="#181818" points="273.9,91.5199,279.9,93.9199,273.9,96.3199,276.3,93.9199" style="stroke:#181818;stroke-width:0.6;"/><line style="stroke:#181818;stroke-width:0.6;" x1="32.7" x2="277.5" y1="93.9199" y2="93.9199"/><text fill="#000000" font-family="sans-serif" font-size="7.8" font-weight="bold" lengthAdjust="spacing" textLength="4.2" x="36.9" y="90.7623">1</text><text fill="#000000" font-family="sans-serif" font-size="7.8" lengthAdjust="spacing" textLength="85.2" x="43.5" y="90.7623">asks to delete a supplier</text><polygon fill="#181818" points="425.7,110.2945,431.7,112.6945,425.7,115.0945,428.1,112.6945" style="stroke:#181818;stroke-width:0.6;"/><line style="stroke:#181818;stroke-width:0.6;" x1="287.1" x2="429.3" y1="112.6945" y2="112.6945"/><text fill="#000000" font-family="sans-serif" font-size="7.8" font-weight="bold" lengthAdjust="spacing" textLength="4.2" x="291.3" y="109.5369">2</text><text fill="#000000" font-family="sans-serif" font-size="7.8" lengthAdjust="spacing" textLength="21.6" x="297.9" y="109.5369">create</text><rect fill="#E3E3E3" height="19.5727" rx="1.5" ry="1.5" style="stroke:#181818;stroke-width:0.3;" width="79.2" x="432.9" y="98.7199"/><text fill="#000000" font-family="sans-serif" font-size="8.4" lengthAdjust="spacing" textLength="70.8" x="437.1" y="111.9844">:SupplierController</text><polygon fill="#181818" points="462.3,136.4672,468.3,138.8672,462.3,141.2672,464.7,138.8672" style="stroke:#181818;stroke-width:0.6;"/><line style="stroke:#181818;stroke-width:0.6;" x1="287.1" x2="465.9" y1="138.8672" y2="138.8672"/><text fill="#000000" font-family="sans-serif" font-size="7.8" font-weight="bold" lengthAdjust="spacing" textLength="4.2" x="291.3" y="135.7096">3</text><text fill="#000000" font-family="sans-serif" font-size="7.8" lengthAdjust="spacing" textLength="48" x="297.9" y="135.7096">getSuppliers()</text><polygon fill="#181818" points="650.7,155.2418,656.7,157.6418,650.7,160.0418,653.1,157.6418" style="stroke:#181818;stroke-width:0.6;"/><line style="stroke:#181818;stroke-width:0.6;" x1="475.5" x2="654.3" y1="157.6418" y2="157.6418"/><text fill="#000000" font-family="sans-serif" font-size="7.8" font-weight="bold" lengthAdjust="spacing" textLength="4.2" x="479.7" y="154.4842">4</text><text fill="#000000" font-family="sans-serif" font-size="7.8" lengthAdjust="spacing" textLength="48" x="486.3" y="154.4842">getSuppliers()</text><polygon fill="#181818" points="874.5,174.0164,880.5,176.4164,874.5,178.8164,876.9,176.4164" style="stroke:#181818;stroke-width:0.6;"/><line style="stroke:#181818;stroke-width:0.6;" x1="663.9" x2="878.1" y1="176.4164" y2="176.4164"/><text fill="#000000" font-family="sans-serif" font-size="7.8" font-weight="bold" lengthAdjust="spacing" textLength="4.2" x="668.1" y="173.2588">5</text><text fill="#000000" font-family="sans-serif" font-size="7.8" lengthAdjust="spacing" textLength="45" x="674.7" y="173.2588">getInstance()</text><polygon fill="#181818" points="670.5,192.791,664.5,195.191,670.5,197.591,668.1,195.191" style="stroke:#181818;stroke-width:0.6;"/><line style="stroke:#181818;stroke-width:0.6;stroke-dasharray:2.0,2.0;" x1="666.9" x2="884.1" y1="195.191" y2="195.191"/><text fill="#000000" font-family="sans-serif" font-size="7.8" font-weight="bold" lengthAdjust="spacing" textLength="4.2" x="674.1" y="192.0334">6</text><text fill="#000000" font-family="sans-serif" font-size="7.8" lengthAdjust="spacing" textLength="40.2" x="680.7" y="192.0334">repositories</text><polygon fill="#181818" points="937.5,211.5656,943.5,213.9656,937.5,216.3656,939.9,213.9656" style="stroke:#181818;stroke-width:0.6;"/><line style="stroke:#181818;stroke-width:0.6;" x1="663.9" x2="941.1" y1="213.9656" y2="213.9656"/><text fill="#000000" font-family="sans-serif" font-size="7.8" font-weight="bold" lengthAdjust="spacing" textLength="4.2" x="668.1" y="210.808">7</text><text fill="#000000" font-family="sans-serif" font-size="7.8" lengthAdjust="spacing" textLength="81" x="674.7" y="210.808">getSupplierRepository()</text><polygon fill="#181818" points="670.5,230.3402,664.5,232.7402,670.5,235.1402,668.1,232.7402" style="stroke:#181818;stroke-width:0.6;"/><line style="stroke:#181818;stroke-width:0.6;stroke-dasharray:2.0,2.0;" x1="666.9" x2="947.1" y1="232.7402" y2="232.7402"/><text fill="#000000" font-family="sans-serif" font-size="7.8" font-weight="bold" lengthAdjust="spacing" textLength="4.2" x="674.1" y="229.5826">8</text><text fill="#000000" font-family="sans-serif" font-size="7.8" lengthAdjust="spacing" textLength="64.2" x="680.7" y="229.5826">supplierRepository</text><polygon fill="#181818" points="1013.4,249.1148,1019.4,251.5148,1013.4,253.9148,1015.8,251.5148" style="stroke:#181818;stroke-width:0.6;"/><line style="stroke:#181818;stroke-width:0.6;" x1="663.9" x2="1017" y1="251.5148" y2="251.5148"/><text fill="#000000" font-family="sans-serif" font-size="7.8" font-weight="bold" lengthAdjust="spacing" textLength="4.2" x="668.1" y="248.3572">9</text><text fill="#000000" font-family="sans-serif" font-size="7.8" lengthAdjust="spacing" textLength="24.6" x="674.7" y="248.3572">getAll()</text><polygon fill="#181818" points="670.5,267.8895,664.5,270.2895,670.5,272.6895,668.1,270.2895" style="stroke:#181818;stroke-width:0.6;"/><line style="stroke:#181818;stroke-width:0.6;stroke-dasharray:2.0,2.0;" x1="666.9" x2="1023" y1="270.2895" y2="270.2895"/><text fill="#000000" font-family="sans-serif" font-size="7.8" font-weight="bold" lengthAdjust="spacing" textLength="8.4" x="674.1" y="267.1318">10</text><text fill="#000000" font-family="sans-serif" font-size="7.8" lengthAdjust="spacing" textLength="31.2" x="684.9" y="267.1318">suppliers</text><polygon fill="#181818" points="482.1,286.6641,476.1,289.0641,482.1,291.4641,479.7,289.0641" style="stroke:#181818;stroke-width:0.6;"/><line style="stroke:#181818;stroke-width:0.6;stroke-dasharray:2.0,2.0;" x1="478.5" x2="660.3" y1="289.0641" y2="289.0641"/><text fill="#000000" font-family="sans-serif" font-size="7.8" font-weight="bold" lengthAdjust="spacing" textLength="8.4" x="485.7" y="285.9064">11</text><text fill="#000000" font-family="sans-serif" font-size="7.8" lengthAdjust="spacing" textLength="31.2" x="496.5" y="285.9064">suppliers</text><polygon fill="#181818" points="293.7,305.4387,287.7,307.8387,293.7,310.2387,291.3,307.8387" style="stroke:#181818;stroke-width:0.6;"/><line style="stroke:#181818;stroke-width:0.6;stroke-dasharray:2.0,2.0;" x1="290.1" x2="471.9" y1="307.8387" y2="307.8387"/><text fill="#000000" font-family="sans-serif" font-size="7.8" font-weight="bold" lengthAdjust="spacing" textLength="8.4" x="297.3" y="304.6811">12</text><text fill="#000000" font-family="sans-serif" font-size="7.8" lengthAdjust="spacing" textLength="31.2" x="308.1" y="304.6811">suppliers</text><polygon fill="#181818" points="39.3,324.2133,33.3,326.6133,39.3,329.0133,36.9,326.6133" style="stroke:#181818;stroke-width:0.6;"/><line style="stroke:#181818;stroke-width:0.6;stroke-dasharray:2.0,2.0;" x1="35.7" x2="283.5" y1="326.6133" y2="326.6133"/><text fill="#000000" font-family="sans-serif" font-size="7.8" font-weight="bold" lengthAdjust="spacing" textLength="8.4" x="42.9" y="323.4557">13</text><text fill="#000000" font-family="sans-serif" font-size="7.8" lengthAdjust="spacing" textLength="181.8" x="53.7" y="323.4557">shows the list of suppliers and requests confirmation</text><polygon fill="#181818" points="273.9,342.9879,279.9,345.3879,273.9,347.7879,276.3,345.3879" style="stroke:#181818;stroke-width:0.6;"/><line style="stroke:#181818;stroke-width:0.6;" x1="32.7" x2="277.5" y1="345.3879" y2="345.3879"/><text fill="#000000" font-family="sans-serif" font-size="7.8" font-weight="bold" lengthAdjust="spacing" textLength="8.4" x="36.9" y="342.2303">14</text><text fill="#000000" font-family="sans-serif" font-size="7.8" lengthAdjust="spacing" textLength="147" x="47.7" y="342.2303">confirms that he wants to delete a supplier</text><polygon fill="#181818" points="39.3,361.7625,33.3,364.1625,39.3,366.5625,36.9,364.1625" style="stroke:#181818;stroke-width:0.6;"/><line style="stroke:#181818;stroke-width:0.6;stroke-dasharray:2.0,2.0;" x1="35.7" x2="283.5" y1="364.1625" y2="364.1625"/><text fill="#000000" font-family="sans-serif" font-size="7.8" font-weight="bold" lengthAdjust="spacing" textLength="8.4" x="42.9" y="361.0049">15</text><text fill="#000000" font-family="sans-serif" font-size="7.8" lengthAdjust="spacing" textLength="39.6" x="53.7" y="361.0049">requests ID</text><polygon fill="#181818" points="273.9,380.5371,279.9,382.9371,273.9,385.3371,276.3,382.9371" style="stroke:#181818;stroke-width:0.6;"/><line style="stroke:#181818;stroke-width:0.6;" x1="32.7" x2="277.5" y1="382.9371" y2="382.9371"/><text fill="#000000" font-family="sans-serif" font-size="7.8" font-weight="bold" lengthAdjust="spacing" textLength="8.4" x="36.9" y="379.7795">16</text><text fill="#000000" font-family="sans-serif" font-size="7.8" lengthAdjust="spacing" textLength="74.4" x="47.7" y="379.7795">provides requested ID</text><polygon fill="#181818" points="462.3,399.3117,468.3,401.7117,462.3,404.1117,464.7,401.7117" style="stroke:#181818;stroke-width:0.6;"/><line style="stroke:#181818;stroke-width:0.6;" x1="287.1" x2="465.9" y1="401.7117" y2="401.7117"/><text fill="#000000" font-family="sans-serif" font-size="7.8" font-weight="bold" lengthAdjust="spacing" textLength="8.4" x="291.3" y="398.5541">17</text><text fill="#000000" font-family="sans-serif" font-size="7.8" lengthAdjust="spacing" textLength="88.2" x="302.1" y="398.5541">deleteSupplier(supplierID)</text><polygon fill="#181818" points="650.7,418.0863,656.7,420.4863,650.7,422.8863,653.1,420.4863" style="stroke:#181818;stroke-width:0.6;"/><line style="stroke:#181818;stroke-width:0.6;" x1="475.5" x2="654.3" y1="420.4863" y2="420.4863"/><text fill="#000000" font-family="sans-serif" font-size="7.8" font-weight="bold" lengthAdjust="spacing" textLength="8.4" x="479.7" y="417.3287">18</text><text fill="#000000" font-family="sans-serif" font-size="7.8" lengthAdjust="spacing" textLength="88.2" x="490.5" y="417.3287">deleteSupplier(supplierID)</text><line style="stroke:#181818;stroke-width:0.6;" x1="663.9" x2="692.1" y1="436.2609" y2="436.2609"/><line style="stroke:#181818;stroke-width:0.6;" x1="692.1" x2="692.1" y1="436.2609" y2="444.0609"/><line style="stroke:#181818;stroke-width:0.6;" x1="667.5" x2="692.1" y1="444.0609" y2="444.0609"/><polygon fill="#181818" points="673.5,441.6609,667.5,444.0609,673.5,446.4609,671.1,444.0609" style="stroke:#181818;stroke-width:0.6;"/><text fill="#000000" font-family="sans-serif" font-size="7.8" font-weight="bold" lengthAdjust="spacing" textLength="8.4" x="671.1" y="433.1033">19</text><text fill="#000000" font-family="sans-serif" font-size="7.8" lengthAdjust="spacing" textLength="94.8" x="681.9" y="433.1033">getSupplierByID(supplierID)</text><polygon fill="#181818" points="1013.4,463.4355,1019.4,465.8355,1013.4,468.2355,1015.8,465.8355" style="stroke:#181818;stroke-width:0.6;"/><line style="stroke:#181818;stroke-width:0.6;" x1="666.9" x2="1017" y1="465.8355" y2="465.8355"/><text fill="#000000" font-family="sans-serif" font-size="7.8" font-weight="bold" lengthAdjust="spacing" textLength="8.4" x="671.1" y="462.6779">20</text><text fill="#000000" font-family="sans-serif" font-size="7.8" lengthAdjust="spacing" textLength="65.4" x="681.9" y="462.6779">getById(supplierID)</text><polygon fill="#181818" points="673.5,482.2102,667.5,484.6102,673.5,487.0102,671.1,484.6102" style="stroke:#181818;stroke-width:0.6;"/><line style="stroke:#181818;stroke-width:0.6;stroke-dasharray:2.0,2.0;" x1="669.9" x2="1023" y1="484.6102" y2="484.6102"/><text fill="#000000" font-family="sans-serif" font-size="7.8" font-weight="bold" lengthAdjust="spacing" textLength="8.4" x="677.1" y="481.4525">21</text><text fill="#000000" font-family="sans-serif" font-size="7.8" lengthAdjust="spacing" textLength="27" x="687.9" y="481.4525">supplier</text><path d="M235.2,493.6102 L271.8,493.6102 L271.8,499.1848 L265.8,505.1848 L235.2,505.1848 L235.2,493.6102 " fill="#EEEEEE" style="stroke:#000000;stroke-width:0.8999999999999999;"/><rect fill="none" height="267.0445" style="stroke:#000000;stroke-width:0.8999999999999999;" width="841.2" x="235.2" y="493.6102"/><text fill="#000000" font-family="sans-serif" font-size="7.8" font-weight="bold" lengthAdjust="spacing" textLength="9.6" x="244.2" y="502.6271">alt</text><text fill="#000000" font-family="sans-serif" font-size="6.6" font-weight="bold" lengthAdjust="spacing" textLength="55.2" x="280.8" y="501.9322">[supplier == null]</text><polygon fill="#181818" points="802.5,516.7594,808.5,519.1594,802.5,521.5594,804.9,519.1594" style="stroke:#181818;stroke-width:0.6;"/><line style="stroke:#181818;stroke-width:0.6;" x1="666.9" x2="806.1" y1="519.1594" y2="519.1594"/><text fill="#000000" font-family="sans-serif" font-size="7.8" font-weight="bold" lengthAdjust="spacing" textLength="8.4" x="671.1" y="516.0018">22</text><text fill="#000000" font-family="sans-serif" font-size="7.8" lengthAdjust="spacing" textLength="120.6" x="681.9" y="516.0018">throw supplierNotFound(supplierID)</text><polygon fill="#181818" points="673.5,535.534,667.5,537.934,673.5,540.334,671.1,537.934" style="stroke:#181818;stroke-width:0.6;"/><line style="stroke:#181818;stroke-width:0.6;stroke-dasharray:2.0,2.0;" x1="669.9" x2="812.1" y1="537.934" y2="537.934"/><text fill="#000000" font-family="sans-serif" font-size="7.8" font-weight="bold" lengthAdjust="spacing" textLength="8.4" x="677.1" y="534.7764">23</text><text fill="#000000" font-family="sans-serif" font-size="7.8" lengthAdjust="spacing" textLength="61.8" x="687.9" y="534.7764">Exception Thrown</text><polygon fill="#181818" points="482.1,554.3086,476.1,556.7086,482.1,559.1086,479.7,556.7086" style="stroke:#181818;stroke-width:0.6;"/><line style="stroke:#181818;stroke-width:0.6;stroke-dasharray:2.0,2.0;" x1="478.5" x2="660.3" y1="556.7086" y2="556.7086"/><text fill="#000000" font-family="sans-serif" font-size="7.8" font-weight="bold" lengthAdjust="spacing" textLength="8.4" x="485.7" y="553.551">24</text><text fill="#000000" font-family="sans-serif" font-size="7.8" lengthAdjust="spacing" textLength="157.2" x="496.5" y="553.551">show error message (Supplier does not exist)</text><polygon fill="#181818" points="293.7,573.0832,287.7,575.4832,293.7,577.8832,291.3,575.4832" style="stroke:#181818;stroke-width:0.6;"/><line style="stroke:#181818;stroke-width:0.6;stroke-dasharray:2.0,2.0;" x1="290.1" x2="468.9" y1="575.4832" y2="575.4832"/><text fill="#000000" font-family="sans-serif" font-size="7.8" font-weight="bold" lengthAdjust="spacing" textLength="8.4" x="297.3" y="572.3256">25</text><text fill="#000000" font-family="sans-serif" font-size="7.8" lengthAdjust="spacing" textLength="157.2" x="308.1" y="572.3256">show error message (Supplier does not exist)</text><line style="stroke:#000000;stroke-width:0.6;stroke-dasharray:2.0,2.0;" x1="235.2" x2="1076.4" y1="580.8832" y2="580.8832"/><line style="stroke:#181818;stroke-width:0.6;stroke-dasharray:2.0,2.0;" x1="666.9" x2="692.1" y1="598.4578" y2="598.4578"/><line style="stroke:#181818;stroke-width:0.6;stroke-dasharray:2.0,2.0;" x1="692.1" x2="692.1" y1="598.4578" y2="606.2578"/><line style="stroke:#181818;stroke-width:0.6;stroke-dasharray:2.0,2.0;" x1="663.9" x2="692.1" y1="606.2578" y2="606.2578"/><polygon fill="#181818" points="669.9,603.8578,663.9,606.2578,669.9,608.6578,667.5,606.2578" style="stroke:#181818;stroke-width:0.6;"/><text fill="#000000" font-family="sans-serif" font-size="7.8" font-weight="bold" lengthAdjust="spacing" textLength="8.4" x="671.1" y="595.3002">26</text><text fill="#000000" font-family="sans-serif" font-size="7.8" lengthAdjust="spacing" textLength="27" x="681.9" y="595.3002">supplier</text><polygon fill="#181818" points="1013.4,619.6324,1019.4,622.0324,1013.4,624.4324,1015.8,622.0324" style="stroke:#181818;stroke-width:0.6;"/><line style="stroke:#181818;stroke-width:0.6;" x1="663.9" x2="1017" y1="622.0324" y2="622.0324"/><text fill="#000000" font-family="sans-serif" font-size="7.8" font-weight="bold" lengthAdjust="spacing" textLength="8.4" x="668.1" y="618.8748">27</text><text fill="#000000" font-family="sans-serif" font-size="7.8" lengthAdjust="spacing" textLength="52.8" x="678.9" y="618.8748">delete(supplier)</text><path d="M241.2,631.0324 L277.8,631.0324 L277.8,636.607 L271.8,642.607 L241.2,642.607 L241.2,631.0324 " fill="#EEEEEE" style="stroke:#000000;stroke-width:0.8999999999999999;"/><rect fill="none" height="125.4223" style="stroke:#000000;stroke-width:0.8999999999999999;" width="829.2" x="241.2" y="631.0324"/><text fill="#000000" font-family="sans-serif" font-size="7.8" font-weight="bold" lengthAdjust="spacing" textLength="9.6" x="250.2" y="640.0494">alt</text><text fill="#000000" font-family="sans-serif" font-size="6.6" font-weight="bold" lengthAdjust="spacing" textLength="49.2" x="286.8" y="639.3545">[system error]</text><polygon fill="#181818" points="670.5,654.1816,664.5,656.5816,670.5,658.9816,668.1,656.5816" style="stroke:#181818;stroke-width:0.6;"/><line style="stroke:#181818;stroke-width:0.6;stroke-dasharray:2.0,2.0;" x1="666.9" x2="1020" y1="656.5816" y2="656.5816"/><text fill="#000000" font-family="sans-serif" font-size="7.8" font-weight="bold" lengthAdjust="spacing" textLength="8.4" x="674.1" y="653.424">28</text><text fill="#000000" font-family="sans-serif" font-size="7.8" lengthAdjust="spacing" textLength="51" x="684.9" y="653.424">Database error</text><polygon fill="#181818" points="482.1,672.9563,476.1,675.3562,482.1,677.7563,479.7,675.3562" style="stroke:#181818;stroke-width:0.6;"/><line style="stroke:#181818;stroke-width:0.6;stroke-dasharray:2.0,2.0;" x1="478.5" x2="657.3" y1="675.3562" y2="675.3562"/><text fill="#000000" font-family="sans-serif" font-size="7.8" font-weight="bold" lengthAdjust="spacing" textLength="8.4" x="485.7" y="672.1986">29</text><text fill="#000000" font-family="sans-serif" font-size="7.8" lengthAdjust="spacing" textLength="128.4" x="496.5" y="672.1986">show error message (Database error)</text><polygon fill="#181818" points="293.7,691.7309,287.7,694.1309,293.7,696.5309,291.3,694.1309" style="stroke:#181818;stroke-width:0.6;"/><line style="stroke:#181818;stroke-width:0.6;stroke-dasharray:2.0,2.0;" x1="290.1" x2="468.9" y1="694.1309" y2="694.1309"/><text fill="#000000" font-family="sans-serif" font-size="7.8" font-weight="bold" lengthAdjust="spacing" textLength="8.4" x="297.3" y="690.9732">30</text><text fill="#000000" font-family="sans-serif" font-size="7.8" lengthAdjust="spacing" textLength="128.4" x="308.1" y="690.9732">show error message (Database error)</text><line style="stroke:#000000;stroke-width:0.6;stroke-dasharray:2.0,2.0;" x1="241.2" x2="1070.4" y1="699.5309" y2="699.5309"/><polygon fill="#181818" points="670.5,711.7055,664.5,714.1055,670.5,716.5055,668.1,714.1055" style="stroke:#181818;stroke-width:0.6;"/><line style="stroke:#181818;stroke-width:0.6;stroke-dasharray:2.0,2.0;" x1="666.9" x2="1023" y1="714.1055" y2="714.1055"/><text fill="#000000" font-family="sans-serif" font-size="7.8" font-weight="bold" lengthAdjust="spacing" textLength="8.4" x="674.1" y="710.9479">31</text><text fill="#000000" font-family="sans-serif" font-size="7.8" lengthAdjust="spacing" textLength="27" x="684.9" y="710.9479">supplier</text><polygon fill="#181818" points="482.1,730.4801,476.1,732.8801,482.1,735.2801,479.7,732.8801" style="stroke:#181818;stroke-width:0.6;"/><line style="stroke:#181818;stroke-width:0.6;stroke-dasharray:2.0,2.0;" x1="478.5" x2="660.3" y1="732.8801" y2="732.8801"/><text fill="#000000" font-family="sans-serif" font-size="7.8" font-weight="bold" lengthAdjust="spacing" textLength="8.4" x="485.7" y="729.7225">32</text><text fill="#000000" font-family="sans-serif" font-size="7.8" lengthAdjust="spacing" textLength="27" x="496.5" y="729.7225">supplier</text><polygon fill="#181818" points="293.7,749.2547,287.7,751.6547,293.7,754.0547,291.3,751.6547" style="stroke:#181818;stroke-width:0.6;"/><line style="stroke:#181818;stroke-width:0.6;stroke-dasharray:2.0,2.0;" x1="290.1" x2="471.9" y1="751.6547" y2="751.6547"/><text fill="#000000" font-family="sans-serif" font-size="7.8" font-weight="bold" lengthAdjust="spacing" textLength="8.4" x="297.3" y="748.4971">33</text><text fill="#000000" font-family="sans-serif" font-size="7.8" lengthAdjust="spacing" textLength="27" x="308.1" y="748.4971">supplier</text><polygon fill="#181818" points="36.3,776.4293,30.3,778.8293,36.3,781.2293,33.9,778.8293" style="stroke:#181818;stroke-width:0.6;"/><line style="stroke:#181818;stroke-width:0.6;stroke-dasharray:2.0,2.0;" x1="32.7" x2="283.5" y1="778.8293" y2="778.8293"/><text fill="#000000" font-family="sans-serif" font-size="7.8" font-weight="bold" lengthAdjust="spacing" textLength="8.4" x="39.9" y="775.6717">34</text><text fill="#000000" font-family="sans-serif" font-size="7.8" lengthAdjust="spacing" textLength="223.2" x="50.7" y="775.6717">shows all data and displays operation success or error message</text><!--SRC=[fLPDRzim3BtxLn0zDGNs1mnqG5TtG81j6E9ssA4NrMOJeRBaIKhJ_FjHSgpOiUmucozjhCT7YeyVDczSraop2YebLR7HgaAmUek92ISrAzxO6dEx5mWQ2ylaMdG1PiDAjUDo3QzC64mIoor1yxsnM46EVxOe2uICixM3N-TvjaWIjhLARgiNrFH_OPM6gxkouf8Rgndzl09cu2xxdf0JomjUCsdXAirGeCLyMzU2etvQUjZJyWJLdjyhQRKI0Xkw-yVLjn5aZlgT5-XX-UfN7zM27ZuAh2rNqiCUVj_tOIkibU4KEqVZ4Qk7dtaVeZkGPvd6BFe6vk0w8FVfiym7Bxtn4DjgqMGDMhiWYayzVsTqvb8DzD1V-FIPKWefSRuPi0hAnfm53nuPJ2dz_eLxo8wiNQ9lReYXq4Y8s34Thj6s4PdhHS04NYyNT1vlH_OaqBXvZy99sJjnZpCd5gTEGxEKXggwm1EM7fFNylJKKtng8agXA-u0Mk8qrJ6e_jMEOfw9BXPS6njHHefZEiJHl0sPceZlX9WASKO04URX1IPJUyQ9ly6n0EEK7JfNFltYQrjZQDen2uNhofqiN4-HoKRjg9qs28A67AZN8mamMLBvK5CQQw1GyfNhYhb9avnGjxtMRTC3td4p2yI_ez4nit6xZHaY3P4iipd-QwtUUOccjSEoDHppr2YG7k9hI_swZNAPNJWDPZ7D7Wo3yV9blyn6AMVJHaQvSqBavJpo_-gWj5y3y_jd68-m0GUtjo2tGWn0dNlJdaofDBNQ1RCVodvLMpbzxzxTtRAD0UZzyOPXFyEZSoUZ5ftRZf5snqJJju1QqoTAXSRGjn1zmxJtBnNLlLGMy8EQUf54-JgZuqAwKoPq7rXJ8Kyh7HblKyh5AhPfj23S6Tbcb6megUPxqMSc2ZfNtncpx8KPF52CSfnNjy-q6ASwA-mfKunaLDD_RkZB5-D4VYvmqbsNqwcwW7GmzqFUP9d4tfritdRnCY6W93dyhYsvgGNR6r0rQhzeAQQY8Dc0vEk96Dk0dP_auIy0]--></g></svg>