<?xml version="1.0" encoding="us-ascii" standalone="no"?><svg xmlns="http://www.w3.org/2000/svg" xmlns:xlink="http://www.w3.org/1999/xlink" contentStyleType="text/css" height="688.2px" preserveAspectRatio="none" style="width:544px;height:688px;background:#FFFFFF;" version="1.1" viewBox="0 0 544 688" width="544.8px" zoomAndPan="magnify"><defs/><g><!--cluster UI--><g id="cluster_UI"><rect fill="none" height="60.6" rx="1.5" ry="1.5" style="stroke:#000000;stroke-width:0.8999999999999999;" width="102" x="261" y="4.2"/><text fill="#000000" font-family="sans-serif" font-size="8.4" font-weight="bold" lengthAdjust="spacing" textLength="8.4" x="307.8" y="14.4645">UI</text></g><!--cluster Controller--><g id="cluster_Controller"><rect fill="none" height="82.8" rx="1.5" ry="1.5" style="stroke:#000000;stroke-width:0.8999999999999999;" width="168" x="228" y="84.6"/><text fill="#000000" font-family="sans-serif" font-size="8.4" font-weight="bold" lengthAdjust="spacing" textLength="42.6" x="290.7" y="94.8645">Controller</text></g><!--cluster Service--><g id="cluster_Service"><rect fill="none" height="94.2" rx="1.5" ry="1.5" style="stroke:#000000;stroke-width:0.8999999999999999;" width="172.8" x="105" y="198"/><text fill="#000000" font-family="sans-serif" font-size="8.4" font-weight="bold" lengthAdjust="spacing" textLength="32.4" x="175.2" y="208.2645">Service</text></g><!--cluster Repository--><g id="cluster_Repository"><rect fill="none" height="207.9" rx="1.5" ry="1.5" style="stroke:#000000;stroke-width:0.8999999999999999;" width="247.8" x="292.2" y="198"/><text fill="#000000" font-family="sans-serif" font-size="8.4" font-weight="bold" lengthAdjust="spacing" textLength="45.6" x="393.3" y="208.2645">Repository</text></g><!--cluster Model--><g id="cluster_Model"><rect fill="none" height="248.4" rx="1.5" ry="1.5" style="stroke:#000000;stroke-width:0.8999999999999999;" width="214.8" x="246" y="436.5"/><text fill="#000000" font-family="sans-serif" font-size="8.4" font-weight="bold" lengthAdjust="spacing" textLength="26.4" x="340.2" y="446.7645">Model</text></g><!--cluster Exception--><g id="cluster_Exception"><rect fill="none" height="219" rx="1.5" ry="1.5" style="stroke:#000000;stroke-width:0.8999999999999999;" width="217.2" x="4.2" y="322.8"/><text fill="#000000" font-family="sans-serif" font-size="8.4" font-weight="bold" lengthAdjust="spacing" textLength="42" x="91.8" y="333.0645">Exception</text></g><!--class DeleteSupplierUI--><g id="elem_DeleteSupplierUI"><rect codeLine="7" fill="#F1F1F1" height="28.8" id="DeleteSupplierUI" rx="1.5" ry="1.5" style="stroke:#181818;stroke-width:0.3;" width="82.2" x="270.9" y="26.4"/><ellipse cx="279.9" cy="36" fill="#ADD1B2" rx="6.6" ry="6.6" style="stroke:#181818;stroke-width:0.6;"/><path d="M281.5594,33.525 Q281.6531,33.3938 281.7656,33.3281 Q281.8781,33.2625 282.0094,33.2625 Q282.2344,33.2625 282.375,33.4219 Q282.5156,33.5719 282.5156,33.9375 L282.5156,34.8094 Q282.5156,35.175 282.375,35.3344 Q282.2344,35.4938 282.0094,35.4938 Q281.8031,35.4938 281.6813,35.3719 Q281.5594,35.2594 281.4938,34.95 Q281.4656,34.7344 281.3531,34.6219 Q281.1563,34.3969 280.7906,34.2656 Q280.425,34.1344 280.05,34.1344 Q279.5906,34.1344 279.2063,34.3313 Q278.8313,34.5281 278.5313,34.9781 Q278.2406,35.4281 278.2406,36.0469 L278.2406,36.7031 Q278.2406,37.4438 278.775,37.9406 Q279.3094,38.4281 280.2656,38.4281 Q280.8281,38.4281 281.2219,38.2781 Q281.4563,38.1844 281.7094,37.9219 Q281.8688,37.7625 281.9531,37.7156 Q282.0469,37.6687 282.1688,37.6687 Q282.3656,37.6687 282.5156,37.8281 Q282.675,37.9781 282.675,38.1844 Q282.675,38.3906 282.4688,38.6344 Q282.1688,38.9812 281.6906,39.1781 Q281.0438,39.45 280.2656,39.45 Q279.3563,39.45 278.6344,39.075 Q278.0438,38.775 277.6312,38.1375 Q277.2188,37.4906 277.2188,36.7219 L277.2188,36.0281 Q277.2188,35.2312 277.5844,34.5469 Q277.9594,33.8531 278.6156,33.4875 Q279.2719,33.1125 280.0125,33.1125 Q280.4531,33.1125 280.8375,33.2156 Q281.2313,33.3094 281.5594,33.525 Z " fill="#000000"/><text fill="#000000" font-family="sans-serif" font-size="8.4" lengthAdjust="spacing" textLength="63" x="288.3" y="39.4781">DeleteSupplierUI</text><line style="stroke:#181818;stroke-width:0.3;" x1="271.5" x2="352.5" y1="45.6" y2="45.6"/><line style="stroke:#181818;stroke-width:0.3;" x1="271.5" x2="352.5" y1="50.4" y2="50.4"/></g><!--class SupplierController--><g id="elem_SupplierController"><rect codeLine="12" fill="#F1F1F1" height="51.1453" id="SupplierController" rx="1.5" ry="1.5" style="stroke:#181818;stroke-width:0.3;" width="148.8" x="237.6" y="106.8"/><ellipse cx="275.25" cy="116.4" fill="#ADD1B2" rx="6.6" ry="6.6" style="stroke:#181818;stroke-width:0.6;"/><path d="M276.9094,113.925 Q277.0031,113.7938 277.1156,113.7281 Q277.2281,113.6625 277.3594,113.6625 Q277.5844,113.6625 277.725,113.8219 Q277.8656,113.9719 277.8656,114.3375 L277.8656,115.2094 Q277.8656,115.575 277.725,115.7344 Q277.5844,115.8938 277.3594,115.8938 Q277.1531,115.8938 277.0313,115.7719 Q276.9094,115.6594 276.8438,115.35 Q276.8156,115.1344 276.7031,115.0219 Q276.5062,114.7969 276.1406,114.6656 Q275.775,114.5344 275.4,114.5344 Q274.9406,114.5344 274.5563,114.7313 Q274.1813,114.9281 273.8812,115.3781 Q273.5906,115.8281 273.5906,116.4469 L273.5906,117.1031 Q273.5906,117.8438 274.125,118.3406 Q274.6594,118.8281 275.6156,118.8281 Q276.1781,118.8281 276.5719,118.6781 Q276.8063,118.5844 277.0594,118.3219 Q277.2188,118.1625 277.3031,118.1156 Q277.3969,118.0688 277.5188,118.0688 Q277.7156,118.0688 277.8656,118.2281 Q278.025,118.3781 278.025,118.5844 Q278.025,118.7906 277.8187,119.0344 Q277.5188,119.3813 277.0406,119.5781 Q276.3938,119.85 275.6156,119.85 Q274.7063,119.85 273.9844,119.475 Q273.3938,119.175 272.9813,118.5375 Q272.5687,117.8906 272.5687,117.1219 L272.5687,116.4281 Q272.5687,115.6313 272.9344,114.9469 Q273.3094,114.2531 273.9656,113.8875 Q274.6219,113.5125 275.3625,113.5125 Q275.8031,113.5125 276.1875,113.6156 Q276.5813,113.7094 276.9094,113.925 Z " fill="#000000"/><text fill="#000000" font-family="sans-serif" font-size="8.4" lengthAdjust="spacing" textLength="68.4" x="287.55" y="119.8781">SupplierController</text><line style="stroke:#181818;stroke-width:0.3;" x1="238.2" x2="385.8" y1="126" y2="126"/><line style="stroke:#181818;stroke-width:0.3;" x1="238.2" x2="385.8" y1="130.8" y2="130.8"/><text fill="#000000" font-family="sans-serif" font-size="8.4" lengthAdjust="spacing" textLength="119.4" x="241.2" y="142.2645">+getSuppliers() : List&lt;Supplier&gt;</text><text fill="#000000" font-family="sans-serif" font-size="8.4" lengthAdjust="spacing" textLength="141.6" x="241.2" y="153.4371">+deleteSupplier(supplierID) : Supplier</text></g><!--class SupplierService--><g id="elem_SupplierService"><rect codeLine="19" fill="#F1F1F1" height="62.318" id="SupplierService" rx="1.5" ry="1.5" style="stroke:#181818;stroke-width:0.3;" width="153" x="114.9" y="220.2"/><ellipse cx="159.15" cy="229.8" fill="#ADD1B2" rx="6.6" ry="6.6" style="stroke:#181818;stroke-width:0.6;"/><path d="M160.8094,227.325 Q160.9031,227.1938 161.0156,227.1281 Q161.1281,227.0625 161.2594,227.0625 Q161.4844,227.0625 161.625,227.2219 Q161.7656,227.3719 161.7656,227.7375 L161.7656,228.6094 Q161.7656,228.975 161.625,229.1344 Q161.4844,229.2938 161.2594,229.2938 Q161.0531,229.2938 160.9313,229.1719 Q160.8094,229.0594 160.7438,228.75 Q160.7156,228.5344 160.6031,228.4219 Q160.4063,228.1969 160.0406,228.0656 Q159.675,227.9344 159.3,227.9344 Q158.8406,227.9344 158.4562,228.1313 Q158.0812,228.3281 157.7813,228.7781 Q157.4906,229.2281 157.4906,229.8469 L157.4906,230.5031 Q157.4906,231.2437 158.025,231.7406 Q158.5594,232.2281 159.5156,232.2281 Q160.0781,232.2281 160.4719,232.0781 Q160.7062,231.9844 160.9594,231.7219 Q161.1188,231.5625 161.2031,231.5156 Q161.2969,231.4688 161.4188,231.4688 Q161.6156,231.4688 161.7656,231.6281 Q161.925,231.7781 161.925,231.9844 Q161.925,232.1906 161.7188,232.4344 Q161.4188,232.7813 160.9406,232.9781 Q160.2938,233.25 159.5156,233.25 Q158.6063,233.25 157.8844,232.875 Q157.2938,232.575 156.8813,231.9375 Q156.4688,231.2906 156.4688,230.5219 L156.4688,229.8281 Q156.4688,229.0313 156.8344,228.3469 Q157.2094,227.6531 157.8656,227.2875 Q158.5219,226.9125 159.2625,226.9125 Q159.7031,226.9125 160.0875,227.0156 Q160.4813,227.1094 160.8094,227.325 Z " fill="#000000"/><text fill="#000000" font-family="sans-serif" font-size="8.4" lengthAdjust="spacing" textLength="59.4" x="171.45" y="233.2781">SupplierService</text><line style="stroke:#181818;stroke-width:0.3;" x1="115.5" x2="267.3" y1="239.4" y2="239.4"/><line style="stroke:#181818;stroke-width:0.3;" x1="115.5" x2="267.3" y1="244.2" y2="244.2"/><text fill="#000000" font-family="sans-serif" font-size="8.4" lengthAdjust="spacing" textLength="119.4" x="118.5" y="255.6645">+getSuppliers() : List&lt;Supplier&gt;</text><text fill="#000000" font-family="sans-serif" font-size="8.4" lengthAdjust="spacing" textLength="145.8" x="118.5" y="266.8371">-getSupplierByID(supplierID) : Supplier</text><text fill="#000000" font-family="sans-serif" font-size="8.4" lengthAdjust="spacing" textLength="141.6" x="118.5" y="278.0098">+deleteSupplier(supplierID) : Supplier</text></g><!--class Repositories--><g id="elem_Repositories"><rect codeLine="27" fill="#F1F1F1" height="62.318" id="Repositories" rx="1.5" ry="1.5" style="stroke:#181818;stroke-width:0.3;" width="181.2" x="301.8" y="220.2"/><ellipse cx="366.15" cy="229.8" fill="#ADD1B2" rx="6.6" ry="6.6" style="stroke:#181818;stroke-width:0.6;"/><path d="M367.8094,227.325 Q367.9031,227.1938 368.0156,227.1281 Q368.1281,227.0625 368.2594,227.0625 Q368.4844,227.0625 368.625,227.2219 Q368.7656,227.3719 368.7656,227.7375 L368.7656,228.6094 Q368.7656,228.975 368.625,229.1344 Q368.4844,229.2938 368.2594,229.2938 Q368.0531,229.2938 367.9313,229.1719 Q367.8094,229.0594 367.7438,228.75 Q367.7156,228.5344 367.6031,228.4219 Q367.4063,228.1969 367.0406,228.0656 Q366.675,227.9344 366.3,227.9344 Q365.8406,227.9344 365.4563,228.1313 Q365.0813,228.3281 364.7813,228.7781 Q364.4906,229.2281 364.4906,229.8469 L364.4906,230.5031 Q364.4906,231.2437 365.025,231.7406 Q365.5594,232.2281 366.5156,232.2281 Q367.0781,232.2281 367.4719,232.0781 Q367.7063,231.9844 367.9594,231.7219 Q368.1188,231.5625 368.2031,231.5156 Q368.2969,231.4688 368.4188,231.4688 Q368.6156,231.4688 368.7656,231.6281 Q368.925,231.7781 368.925,231.9844 Q368.925,232.1906 368.7188,232.4344 Q368.4188,232.7813 367.9406,232.9781 Q367.2938,233.25 366.5156,233.25 Q365.6063,233.25 364.8844,232.875 Q364.2938,232.575 363.8812,231.9375 Q363.4688,231.2906 363.4688,230.5219 L363.4688,229.8281 Q363.4688,229.0313 363.8344,228.3469 Q364.2094,227.6531 364.8656,227.2875 Q365.5219,226.9125 366.2625,226.9125 Q366.7031,226.9125 367.0875,227.0156 Q367.4813,227.1094 367.8094,227.325 Z " fill="#000000"/><text fill="#000000" font-family="sans-serif" font-size="8.4" lengthAdjust="spacing" textLength="47.4" x="378.45" y="233.2781">Repositories</text><line style="stroke:#181818;stroke-width:0.3;" x1="302.4" x2="482.4" y1="239.4" y2="239.4"/><line style="stroke:#181818;stroke-width:0.3;" x1="302.4" x2="482.4" y1="244.2" y2="244.2"/><text fill="#000000" font-family="sans-serif" font-size="8.4" lengthAdjust="spacing" textLength="56.4" x="305.4" y="255.6645">-Repositories()</text><text fill="#000000" font-family="sans-serif" font-size="8.4" lengthAdjust="spacing" textLength="109.2" x="305.4" y="266.8371">+getInstance() : Repositories</text><text fill="#000000" font-family="sans-serif" font-size="8.4" lengthAdjust="spacing" textLength="174" x="305.4" y="278.0098">+getSupplierRepository() : SupplierRepository</text></g><!--class SupplierRepository--><g id="elem_SupplierRepository"><rect codeLine="33" fill="#F1F1F1" height="62.318" id="SupplierRepository" rx="1.5" ry="1.5" style="stroke:#181818;stroke-width:0.3;" width="122.4" x="303" y="333.9"/><ellipse cx="326.04" cy="343.5" fill="#ADD1B2" rx="6.6" ry="6.6" style="stroke:#181818;stroke-width:0.6;"/><path d="M327.6994,341.025 Q327.7931,340.8938 327.9056,340.8281 Q328.0181,340.7625 328.1494,340.7625 Q328.3744,340.7625 328.515,340.9219 Q328.6556,341.0719 328.6556,341.4375 L328.6556,342.3094 Q328.6556,342.675 328.515,342.8344 Q328.3744,342.9938 328.1494,342.9938 Q327.9431,342.9938 327.8212,342.8719 Q327.6994,342.7594 327.6337,342.45 Q327.6056,342.2344 327.4931,342.1219 Q327.2963,341.8969 326.9306,341.7656 Q326.565,341.6344 326.19,341.6344 Q325.7306,341.6344 325.3463,341.8313 Q324.9713,342.0281 324.6713,342.4781 Q324.3806,342.9281 324.3806,343.5469 L324.3806,344.2031 Q324.3806,344.9437 324.915,345.4406 Q325.4494,345.9281 326.4056,345.9281 Q326.9681,345.9281 327.3619,345.7781 Q327.5963,345.6844 327.8494,345.4219 Q328.0087,345.2625 328.0931,345.2156 Q328.1869,345.1688 328.3088,345.1688 Q328.5056,345.1688 328.6556,345.3281 Q328.815,345.4781 328.815,345.6844 Q328.815,345.8906 328.6088,346.1344 Q328.3088,346.4813 327.8306,346.6781 Q327.1838,346.95 326.4056,346.95 Q325.4963,346.95 324.7744,346.575 Q324.1838,346.275 323.7712,345.6375 Q323.3588,344.9906 323.3588,344.2219 L323.3588,343.5281 Q323.3588,342.7313 323.7244,342.0469 Q324.0994,341.3531 324.7556,340.9875 Q325.4119,340.6125 326.1525,340.6125 Q326.5931,340.6125 326.9775,340.7156 Q327.3713,340.8094 327.6994,341.025 Z " fill="#000000"/><text fill="#000000" font-family="sans-serif" font-size="8.4" lengthAdjust="spacing" textLength="72" x="337.56" y="346.9781">SupplierRepository</text><line style="stroke:#181818;stroke-width:0.3;" x1="303.6" x2="424.8" y1="353.1" y2="353.1"/><line style="stroke:#181818;stroke-width:0.3;" x1="303.6" x2="424.8" y1="357.9" y2="357.9"/><text fill="#000000" font-family="sans-serif" font-size="8.4" lengthAdjust="spacing" textLength="93" x="306.6" y="369.3645">+getAll() : List&lt;Supplier&gt;</text><text fill="#000000" font-family="sans-serif" font-size="8.4" lengthAdjust="spacing" textLength="115.2" x="306.6" y="380.5371">+getById(supplierID) : Supplier</text><text fill="#000000" font-family="sans-serif" font-size="8.4" lengthAdjust="spacing" textLength="102" x="306.6" y="391.7098">+delete(supplier) : boolean</text></g><!--class Supplier--><g id="elem_Supplier"><rect codeLine="41" fill="#F1F1F1" height="118.1812" id="Supplier" rx="1.5" ry="1.5" style="stroke:#181818;stroke-width:0.3;" width="195.6" x="255.6" y="458.7"/><ellipse cx="335.25" cy="468.3" fill="#ADD1B2" rx="6.6" ry="6.6" style="stroke:#181818;stroke-width:0.6;"/><path d="M336.9094,465.825 Q337.0031,465.6937 337.1156,465.6281 Q337.2281,465.5625 337.3594,465.5625 Q337.5844,465.5625 337.725,465.7219 Q337.8656,465.8719 337.8656,466.2375 L337.8656,467.1094 Q337.8656,467.475 337.725,467.6344 Q337.5844,467.7938 337.3594,467.7938 Q337.1531,467.7938 337.0313,467.6719 Q336.9094,467.5594 336.8438,467.25 Q336.8156,467.0344 336.7031,466.9219 Q336.5062,466.6969 336.1406,466.5656 Q335.775,466.4344 335.4,466.4344 Q334.9406,466.4344 334.5563,466.6312 Q334.1813,466.8281 333.8812,467.2781 Q333.5906,467.7281 333.5906,468.3469 L333.5906,469.0031 Q333.5906,469.7438 334.125,470.2406 Q334.6594,470.7281 335.6156,470.7281 Q336.1781,470.7281 336.5719,470.5781 Q336.8063,470.4844 337.0594,470.2219 Q337.2188,470.0625 337.3031,470.0156 Q337.3969,469.9688 337.5188,469.9688 Q337.7156,469.9688 337.8656,470.1281 Q338.025,470.2781 338.025,470.4844 Q338.025,470.6906 337.8187,470.9344 Q337.5188,471.2813 337.0406,471.4781 Q336.3938,471.75 335.6156,471.75 Q334.7063,471.75 333.9844,471.375 Q333.3938,471.075 332.9813,470.4375 Q332.5687,469.7906 332.5687,469.0219 L332.5687,468.3281 Q332.5687,467.5313 332.9344,466.8469 Q333.3094,466.1531 333.9656,465.7875 Q334.6219,465.4125 335.3625,465.4125 Q335.8031,465.4125 336.1875,465.5156 Q336.5813,465.6094 336.9094,465.825 Z " fill="#000000"/><text fill="#000000" font-family="sans-serif" font-size="8.4" lengthAdjust="spacing" textLength="31.2" x="347.55" y="471.7781">Supplier</text><line style="stroke:#181818;stroke-width:0.3;" x1="256.2" x2="450.6" y1="477.9" y2="477.9"/><text fill="#000000" font-family="sans-serif" font-size="8.4" lengthAdjust="spacing" textLength="57" x="259.2" y="489.3645">-supplierID : int</text><text fill="#000000" font-family="sans-serif" font-size="8.4" lengthAdjust="spacing" textLength="53.4" x="259.2" y="500.5371">-name : String</text><text fill="#000000" font-family="sans-serif" font-size="8.4" lengthAdjust="spacing" textLength="72.6" x="259.2" y="511.7098">-phoneNumber : int</text><text fill="#000000" font-family="sans-serif" font-size="8.4" lengthAdjust="spacing" textLength="52.2" x="259.2" y="522.8824">-email : String</text><text fill="#000000" font-family="sans-serif" font-size="8.4" lengthAdjust="spacing" textLength="81.6" x="259.2" y="534.0551">-type : CompanyType</text><text fill="#000000" font-family="sans-serif" font-size="8.4" lengthAdjust="spacing" textLength="69.6" x="259.2" y="545.2277">-state : EntityState</text><text fill="#000000" font-family="sans-serif" font-size="8.4" lengthAdjust="spacing" textLength="126" x="259.2" y="556.4004">-supplyOffers : List&lt;SupplyOffer&gt;</text><line style="stroke:#181818;stroke-width:0.3;" x1="256.2" x2="450.6" y1="560.9086" y2="560.9086"/><text fill="#000000" font-family="sans-serif" font-size="8.4" lengthAdjust="spacing" textLength="188.4" x="259.2" y="572.373">+Supplier(supplierID, name, phoneNumber, email)</text></g><!--class EntityState--><g id="elem_EntityState"><rect codeLine="52" fill="#F1F1F1" height="51.1453" id="EntityState" rx="1.5" ry="1.5" style="stroke:#181818;stroke-width:0.3;" width="60" x="323.4" y="624.3"/><ellipse cx="332.4" cy="633.9" fill="#EB937F" rx="6.6" ry="6.6" style="stroke:#181818;stroke-width:0.6;"/><path d="M331.7156,634.3781 L331.7156,635.8781 L334.3125,635.8781 L334.3125,635.325 Q334.3125,634.9594 334.4531,634.8 Q334.6031,634.6406 334.8281,634.6406 Q335.0531,634.6406 335.1937,634.8 Q335.3344,634.9594 335.3344,635.325 L335.3344,636.9 L330.5344,636.9 Q330.1594,636.9 330,636.7594 Q329.85,636.6188 329.85,636.3844 Q329.85,636.1594 330.0094,636.0188 Q330.1688,635.8781 330.5344,635.8781 L330.6937,635.8781 L330.6937,631.8844 L330.5344,631.8844 Q330.1594,631.8844 330,631.7438 Q329.85,631.6031 329.85,631.3688 Q329.85,631.1438 330,631.0031 Q330.1594,630.8625 330.5344,630.8625 L335.1094,630.8625 L335.1094,632.4187 Q335.1094,632.7844 334.9688,632.9438 Q334.8375,633.0938 334.6031,633.0938 Q334.3781,633.0938 334.2375,632.9438 Q334.0969,632.7844 334.0969,632.4187 L334.0969,631.8844 L331.7156,631.8844 L331.7156,633.3562 L332.6063,633.3562 Q332.6063,632.9625 332.6813,632.85 Q332.8406,632.6062 333.1219,632.6062 Q333.3469,632.6062 333.4875,632.7656 Q333.6281,632.9156 333.6281,633.2813 L333.6281,634.4625 Q333.6281,634.7906 333.5531,634.9031 Q333.3938,635.1375 333.1219,635.1375 Q332.8406,635.1375 332.6813,634.8938 Q332.6063,634.7813 332.6063,634.3781 L331.7156,634.3781 Z " fill="#000000"/><text fill="#000000" font-family="sans-serif" font-size="8.4" lengthAdjust="spacing" textLength="40.8" x="340.8" y="637.3781">EntityState</text><line style="stroke:#181818;stroke-width:0.3;" x1="324" x2="382.8" y1="643.5" y2="643.5"/><text fill="#000000" font-family="sans-serif" font-size="8.4" lengthAdjust="spacing" textLength="29.4" x="327" y="654.9645">ACTIVE</text><text fill="#000000" font-family="sans-serif" font-size="8.4" lengthAdjust="spacing" textLength="36.6" x="327" y="666.1371">INACTIVE</text><line style="stroke:#181818;stroke-width:0.3;" x1="324" x2="382.8" y1="670.6453" y2="670.6453"/></g><!--class SupplierException--><g id="elem_SupplierException"><rect codeLine="59" fill="#F1F1F1" height="39.9727" id="SupplierException" rx="1.5" ry="1.5" style="stroke:#181818;stroke-width:0.3;" width="198" x="13.8" y="345"/><ellipse cx="76.35" cy="354.6" fill="#ADD1B2" rx="6.6" ry="6.6" style="stroke:#181818;stroke-width:0.6;"/><path d="M78.0094,352.125 Q78.1031,351.9938 78.2156,351.9281 Q78.3281,351.8625 78.4594,351.8625 Q78.6844,351.8625 78.825,352.0219 Q78.9656,352.1719 78.9656,352.5375 L78.9656,353.4094 Q78.9656,353.775 78.825,353.9344 Q78.6844,354.0938 78.4594,354.0938 Q78.2531,354.0938 78.1313,353.9719 Q78.0094,353.8594 77.9438,353.55 Q77.9156,353.3344 77.8031,353.2219 Q77.6063,352.9969 77.2406,352.8656 Q76.875,352.7344 76.5,352.7344 Q76.0406,352.7344 75.6563,352.9313 Q75.2813,353.1281 74.9813,353.5781 Q74.6906,354.0281 74.6906,354.6469 L74.6906,355.3031 Q74.6906,356.0438 75.225,356.5406 Q75.7594,357.0281 76.7156,357.0281 Q77.2781,357.0281 77.6719,356.8781 Q77.9063,356.7844 78.1594,356.5219 Q78.3188,356.3625 78.4031,356.3156 Q78.4969,356.2688 78.6187,356.2688 Q78.8156,356.2688 78.9656,356.4281 Q79.125,356.5781 79.125,356.7844 Q79.125,356.9906 78.9188,357.2344 Q78.6187,357.5813 78.1406,357.7781 Q77.4937,358.05 76.7156,358.05 Q75.8062,358.05 75.0844,357.675 Q74.4937,357.375 74.0813,356.7375 Q73.6688,356.0906 73.6688,355.3219 L73.6688,354.6281 Q73.6688,353.8313 74.0344,353.1469 Q74.4094,352.4531 75.0656,352.0875 Q75.7219,351.7125 76.4625,351.7125 Q76.9031,351.7125 77.2875,351.8156 Q77.6812,351.9094 78.0094,352.125 Z " fill="#000000"/><text fill="#000000" font-family="sans-serif" font-size="8.4" lengthAdjust="spacing" textLength="67.8" x="88.65" y="358.0781">SupplierException</text><line style="stroke:#181818;stroke-width:0.3;" x1="14.4" x2="211.2" y1="364.2" y2="364.2"/><line style="stroke:#181818;stroke-width:0.3;" x1="14.4" x2="211.2" y1="369" y2="369"/><text fill="#000000" font-family="sans-serif" font-size="8.4" lengthAdjust="spacing" textLength="190.8" x="17.4" y="380.4645">+supplierNotFound(supplierID) : SupplierException</text></g><!--class RuntimeException--><g id="elem_RuntimeException"><rect codeLine="63" fill="#F1F1F1" height="28.8" id="RuntimeException" rx="1.5" ry="1.5" style="stroke:#181818;stroke-width:0.3;" width="87" x="69.3" y="503.4"/><ellipse cx="78.3" cy="513" fill="#ADD1B2" rx="6.6" ry="6.6" style="stroke:#181818;stroke-width:0.6;"/><path d="M79.9594,510.525 Q80.0531,510.3937 80.1656,510.3281 Q80.2781,510.2625 80.4094,510.2625 Q80.6344,510.2625 80.775,510.4219 Q80.9156,510.5719 80.9156,510.9375 L80.9156,511.8094 Q80.9156,512.175 80.775,512.3344 Q80.6344,512.4938 80.4094,512.4938 Q80.2031,512.4938 80.0813,512.3719 Q79.9594,512.2594 79.8938,511.95 Q79.8656,511.7344 79.7531,511.6219 Q79.5562,511.3969 79.1906,511.2656 Q78.825,511.1344 78.45,511.1344 Q77.9906,511.1344 77.6063,511.3312 Q77.2313,511.5281 76.9312,511.9781 Q76.6406,512.4281 76.6406,513.0469 L76.6406,513.7031 Q76.6406,514.4438 77.175,514.9406 Q77.7094,515.4281 78.6656,515.4281 Q79.2281,515.4281 79.6219,515.2781 Q79.8563,515.1844 80.1094,514.9219 Q80.2688,514.7625 80.3531,514.7156 Q80.4469,514.6687 80.5688,514.6687 Q80.7656,514.6687 80.9156,514.8281 Q81.075,514.9781 81.075,515.1844 Q81.075,515.3906 80.8687,515.6344 Q80.5688,515.9812 80.0906,516.1781 Q79.4438,516.45 78.6656,516.45 Q77.7563,516.45 77.0344,516.075 Q76.4438,515.775 76.0313,515.1375 Q75.6187,514.4906 75.6187,513.7219 L75.6187,513.0281 Q75.6187,512.2312 75.9844,511.5469 Q76.3594,510.8531 77.0156,510.4875 Q77.6719,510.1125 78.4125,510.1125 Q78.8531,510.1125 79.2375,510.2156 Q79.6313,510.3094 79.9594,510.525 Z " fill="#000000"/><text fill="#000000" font-family="sans-serif" font-size="8.4" lengthAdjust="spacing" textLength="67.8" x="86.7" y="516.4781">RuntimeException</text><line style="stroke:#181818;stroke-width:0.3;" x1="69.9" x2="155.7" y1="522.6" y2="522.6"/><line style="stroke:#181818;stroke-width:0.3;" x1="69.9" x2="155.7" y1="527.4" y2="527.4"/></g><!--link DeleteSupplierUI to SupplierController--><g id="link_DeleteSupplierUI_SupplierController"><path codeLine="66" d="M312,55.314 C312,68.964 312,86.496 312,103.074 " fill="none" id="DeleteSupplierUI-to-SupplierController" style="stroke:#181818;stroke-width:0.6;stroke-dasharray:7.0,7.0;"/><polygon fill="#181818" points="312,106.674,314.4,101.274,312,103.674,309.6,101.274,312,106.674" style="stroke:#181818;stroke-width:0.6;"/></g><!--link SupplierController to SupplierService--><g id="link_SupplierController_SupplierService"><path codeLine="67" d="M286.422,157.902 C267.822,176.088 245.1123,198.2914 225.3003,217.6594 " fill="none" id="SupplierController-to-SupplierService" style="stroke:#181818;stroke-width:0.6;stroke-dasharray:7.0,7.0;"/><polygon fill="#181818" points="222.726,220.176,228.2651,218.1173,224.8712,218.0789,224.9097,214.685,222.726,220.176" style="stroke:#181818;stroke-width:0.6;"/></g><!--link SupplierController to Repositories--><g id="link_SupplierController_Repositories"><path codeLine="68" d="M329.052,157.902 C341.448,176.088 356.2799,197.8336 369.4859,217.2016 " fill="none" id="SupplierController-to-Repositories" style="stroke:#181818;stroke-width:0.6;stroke-dasharray:7.0,7.0;"/><polygon fill="#181818" points="371.514,220.176,370.4548,214.3624,369.8239,217.6974,366.489,217.0665,371.514,220.176" style="stroke:#181818;stroke-width:0.6;"/><text fill="#000000" font-family="sans-serif" font-size="7.8" lengthAdjust="spacing" textLength="40.2" x="349.8" y="186.017">repositories</text></g><!--link SupplierService to SupplierRepository--><g id="link_SupplierService_SupplierRepository"><path codeLine="69" d="M239.466,282.69 C255.516,292.938 269.4,301.8 269.4,301.8 C269.4,301.8 290.841,315.9845 314.907,331.8965 " fill="none" id="SupplierService-to-SupplierRepository" style="stroke:#181818;stroke-width:0.6;stroke-dasharray:7.0,7.0;"/><polygon fill="#181818" points="317.91,333.882,314.7292,328.9018,315.4075,332.2274,312.0819,332.9057,317.91,333.882" style="stroke:#181818;stroke-width:0.6;"/><text fill="#000000" font-family="sans-serif" font-size="7.8" lengthAdjust="spacing" textLength="64.2" x="285.6" y="310.817">supplierRepository</text></g><!--link SupplierService to Supplier--><g id="link_SupplierService_Supplier"><path codeLine="70" d="M205.482,282.786 C226.596,328.938 264,410.7 264,410.7 C264,410.7 281.1674,431.1508 301.9394,455.8948 " fill="none" id="SupplierService-to-Supplier" style="stroke:#181818;stroke-width:0.6;stroke-dasharray:7.0,7.0;"/><polygon fill="#181818" points="304.254,458.652,302.6202,452.973,302.3251,456.3543,298.9439,456.0592,304.254,458.652" style="stroke:#181818;stroke-width:0.6;"/><text fill="#000000" font-family="sans-serif" font-size="7.8" lengthAdjust="spacing" textLength="27" x="264.6" y="368.417">supplier</text></g><!--link Repositories to Repositories--><g id="link_Repositories_Repositories"><path codeLine="71" d="M483.042,242.166 C495.606,243.684 504,246.762 504,251.4 C504,256.038 499.18,258.6842 486.616,260.2022 " fill="none" id="Repositories-to-Repositories" style="stroke:#181818;stroke-width:0.6;"/><polygon fill="#181818" points="483.042,260.634,488.6909,262.3689,486.0203,260.2742,488.1151,257.6036,483.042,260.634" style="stroke:#181818;stroke-width:0.6;"/><text fill="#000000" font-family="sans-serif" font-size="7.8" lengthAdjust="spacing" textLength="29.4" x="507.6" y="254.717">instance</text></g><!--link Repositories to SupplierRepository--><g id="link_Repositories_SupplierRepository"><path codeLine="72" d="M384.696,282.744 C380.718,298.614 376.7513,314.436 372.7733,330.306 " fill="none" id="Repositories-to-SupplierRepository" style="stroke:#181818;stroke-width:0.6;"/><polygon fill="#181818" points="371.898,333.798,375.5389,329.1436,372.6274,330.888,370.883,327.9765,371.898,333.798" style="stroke:#181818;stroke-width:0.6;"/><text fill="#000000" font-family="sans-serif" font-size="7.8" lengthAdjust="spacing" textLength="64.2" x="379.2" y="310.817">supplierRepository</text><text fill="#000000" font-family="sans-serif" font-size="7.8" lengthAdjust="spacing" textLength="4.2" x="379.2399" y="295.8468">1</text><text fill="#000000" font-family="sans-serif" font-size="7.8" lengthAdjust="spacing" textLength="4.2" x="368.4502" y="327.1407">1</text></g><!--link SupplierRepository to Supplier--><g id="link_SupplierRepository_Supplier"><path codeLine="73" d="M362.016,396.36 C360.738,414.258 359.3443,433.8451 357.8263,455.1091 " fill="none" id="SupplierRepository-to-Supplier" style="stroke:#181818;stroke-width:0.6;"/><polygon fill="#181818" points="357.57,458.7,360.3484,453.4846,357.7836,455.7076,355.5606,453.1428,357.57,458.7" style="stroke:#181818;stroke-width:0.6;"/><text fill="#000000" font-family="sans-serif" font-size="7.8" lengthAdjust="spacing" textLength="36" x="360.6" y="424.517">categories</text><text fill="#000000" font-family="sans-serif" font-size="7.8" lengthAdjust="spacing" textLength="4.2" x="357.2671" y="409.4521">1</text><text fill="#000000" font-family="sans-serif" font-size="7.8" lengthAdjust="spacing" textLength="3" x="354.7744" y="452.0091">*</text></g><!--link Supplier to EntityState--><g id="link_Supplier_EntityState"><path codeLine="74" d="M353.4,576.912 C353.4,593.508 353.4,607.104 353.4,620.562 " fill="none" id="Supplier-to-EntityState" style="stroke:#181818;stroke-width:0.6;"/><polygon fill="#181818" points="353.4,624.162,355.8,618.762,353.4,621.162,351,618.762,353.4,624.162" style="stroke:#181818;stroke-width:0.6;"/><text fill="#000000" font-family="sans-serif" font-size="7.8" lengthAdjust="spacing" textLength="12.6" x="354" y="603.917">has</text><text fill="#000000" font-family="sans-serif" font-size="7.8" lengthAdjust="spacing" textLength="3" x="350.2898" y="590.0517">*</text><text fill="#000000" font-family="sans-serif" font-size="7.8" lengthAdjust="spacing" textLength="4.2" x="348.8653" y="617.4825">1</text></g><!--link SupplierService to SupplierException--><g id="link_SupplierService_SupplierException"><path codeLine="75" d="M169.92,282.744 C156.06,302.586 140.506,324.847 128.524,341.995 " fill="none" id="SupplierService-to-SupplierException" style="stroke:#181818;stroke-width:0.6;stroke-dasharray:7.0,7.0;"/><polygon fill="#181818" points="126.462,344.946,131.5223,341.8942,128.1803,342.4868,127.5876,339.1449,126.462,344.946" style="stroke:#181818;stroke-width:0.6;"/><text fill="#000000" font-family="sans-serif" font-size="7.8" lengthAdjust="spacing" textLength="22.8" x="154.8" y="310.817">throws</text></g><!--link SupplierException to RuntimeException--><g id="link_SupplierException_RuntimeException"><path codeLine="76" d="M112.8,385.35 C112.8,416.418 112.8,465.318 112.8,492.414 " fill="none" id="SupplierException-to-RuntimeException" style="stroke:#181818;stroke-width:0.6;"/><polygon fill="none" points="112.8,503.214,116.4,492.414,109.2,492.414,112.8,503.214" style="stroke:#181818;stroke-width:0.6;"/></g><!--SRC=[fLJ1Rjim3BtxAuISaYqkjgin1CYI532mPK3TxguuZ2DKbWHBNkTj_VV9dcrHiHfigo-9o4VnyOcaVcH2qOgMHD7yaHQGcOO3gI0tL1GS8Zq2z9aUvHCJ1JbHhh67Cm6cKK2Kv4rxGBwSKwtNnbJiK1j8SoaozWF8koZg4vBPGpeZFoDYlmvCji31G5OhnHbK3sdlV8wUKT162bD9pg7oWuSmv-_TxVUs03C0z7n14lA9QVDXCAqSyEXncEl-JxfjWmPpW5O6rJUMGvXJx_mVGZ42VcpIxJL6hohW3fJKpCYgyMiOxGmqAY36zld2AomLsZPH3brT61SitoMUOuhEt9CDwEem5zAkER_woXPYnJp-fPWZh0KTfEH0HK31pzB2mms0XNCvxMrC6ESHj8IMXfqPKJYpEai1-xeys7ik8g2aZ0T2kg5Co4QMYehctfvGVaDDwzm9mqoJjQSBSisNqycsfQVV7nkICD1XIz9Mi2I8y99q51Vu3K7K9SwEn5blxjElk_6Oxf715tltFGTbc1HXmKStReo1wLwQMrcBbvv_Z9qstbrjQPVW4DOxsLetDwl0Dee22meZ-ntn4imRmyJkQJHLbsi6Nuj6925wEblNOb54vEMFumaXri-y3vozdtNWzlTV6I7SUCsR6IQNs-OfV0awo90HzrX2plIwKgvb4cBEbNnoSEUAur-hQHVy1W00]--></g></svg>