<?xml version="1.0" encoding="us-ascii" standalone="no"?><svg xmlns="http://www.w3.org/2000/svg" xmlns:xlink="http://www.w3.org/1999/xlink" contentStyleType="text/css" height="646px" preserveAspectRatio="none" style="width:1203px;height:646px;background:#FFFFFF;" version="1.1" viewBox="0 0 1203 646" width="1203px" zoomAndPan="magnify"><defs/><g><!--cluster UI--><g id="cluster_UI"><rect fill="none" height="50.5" rx="1.25" ry="1.25" style="stroke:#000000;stroke-width:0.75;" width="166" x="447" y="3.5"/><text fill="#000000" font-family="sans-serif" font-size="7" font-weight="bold" lengthAdjust="spacing" textLength="7" x="526.5" y="12.0537">UI</text></g><!--cluster Controller--><g id="cluster_Controller"><rect fill="none" height="69" rx="1.25" ry="1.25" style="stroke:#000000;stroke-width:0.75;" width="402.5" x="324" y="70.5"/><text fill="#000000" font-family="sans-serif" font-size="7" font-weight="bold" lengthAdjust="spacing" textLength="35.5" x="507.5" y="79.0537">Controller</text></g><!--cluster Service--><g id="cluster_Service"><rect fill="none" height="69" rx="1.25" ry="1.25" style="stroke:#000000;stroke-width:0.75;" width="402.5" x="324" y="156"/><text fill="#000000" font-family="sans-serif" font-size="7" font-weight="bold" lengthAdjust="spacing" textLength="27" x="511.75" y="164.5537">Service</text></g><!--cluster Repository--><g id="cluster_Repository"><rect fill="none" height="188" rx="1.25" ry="1.25" style="stroke:#000000;stroke-width:0.75;" width="476" x="3.5" y="250.5"/><text fill="#000000" font-family="sans-serif" font-size="7" font-weight="bold" lengthAdjust="spacing" textLength="38" x="222.5" y="259.0537">Repository</text></g><!--cluster Model--><g id="cluster_Model"><rect fill="none" height="179" rx="1.25" ry="1.25" style="stroke:#000000;stroke-width:0.75;" width="201" x="391.5" y="464"/><text fill="#000000" font-family="sans-serif" font-size="7" font-weight="bold" lengthAdjust="spacing" textLength="22" x="481" y="472.5537">Model</text></g><!--cluster Exception--><g id="cluster_Exception"><rect fill="none" height="160.25" rx="1.25" ry="1.25" style="stroke:#000000;stroke-width:0.75;" width="498" x="702" y="259.75"/><text fill="#000000" font-family="sans-serif" font-size="7" font-weight="bold" lengthAdjust="spacing" textLength="35" x="933.5" y="268.3037">Exception</text></g><!--class ChangeOperationWorkstationSetupTimeUI--><g id="elem_ChangeOperationWorkstationSetupTimeUI"><rect codeLine="7" fill="#F1F1F1" height="24" id="ChangeOperationWorkstationSetupTimeUI" rx="1.25" ry="1.25" style="stroke:#181818;stroke-width:0.25;" width="150" x="455" y="22"/><ellipse cx="462.5" cy="30" fill="#ADD1B2" rx="5.5" ry="5.5" style="stroke:#181818;stroke-width:0.5;"/><path d="M463.8828,27.9375 Q463.9609,27.8281 464.0547,27.7734 Q464.1484,27.7188 464.2578,27.7188 Q464.4453,27.7188 464.5625,27.8516 Q464.6797,27.9766 464.6797,28.2813 L464.6797,29.0078 Q464.6797,29.3125 464.5625,29.4453 Q464.4453,29.5781 464.2578,29.5781 Q464.0859,29.5781 463.9844,29.4766 Q463.8828,29.3828 463.8281,29.125 Q463.8047,28.9453 463.7109,28.8516 Q463.5469,28.6641 463.2422,28.5547 Q462.9375,28.4453 462.625,28.4453 Q462.2422,28.4453 461.9219,28.6094 Q461.6094,28.7734 461.3594,29.1484 Q461.1172,29.5234 461.1172,30.0391 L461.1172,30.5859 Q461.1172,31.2031 461.5625,31.6172 Q462.0078,32.0234 462.8047,32.0234 Q463.2734,32.0234 463.6016,31.8984 Q463.7969,31.8203 464.0078,31.6016 Q464.1406,31.4688 464.2109,31.4297 Q464.2891,31.3906 464.3906,31.3906 Q464.5547,31.3906 464.6797,31.5234 Q464.8125,31.6484 464.8125,31.8203 Q464.8125,31.9922 464.6406,32.1953 Q464.3906,32.4844 463.9922,32.6484 Q463.4531,32.875 462.8047,32.875 Q462.0469,32.875 461.4453,32.5625 Q460.9531,32.3125 460.6094,31.7813 Q460.2656,31.2422 460.2656,30.6016 L460.2656,30.0234 Q460.2656,29.3594 460.5703,28.7891 Q460.8828,28.2109 461.4297,27.9063 Q461.9766,27.5938 462.5938,27.5938 Q462.9609,27.5938 463.2813,27.6797 Q463.6094,27.7578 463.8828,27.9375 Z " fill="#000000"/><text fill="#000000" font-family="sans-serif" font-size="7" lengthAdjust="spacing" textLength="134" x="469.5" y="32.8984">ChangeOperationWorkstationSetupTimeUI</text><line style="stroke:#181818;stroke-width:0.25;" x1="455.5" x2="604.5" y1="38" y2="38"/><line style="stroke:#181818;stroke-width:0.25;" x1="455.5" x2="604.5" y1="42" y2="42"/></g><!--class WorkstationController--><g id="elem_WorkstationController"><rect codeLine="12" fill="#F1F1F1" height="42.6211" id="WorkstationController" rx="1.25" ry="1.25" style="stroke:#181818;stroke-width:0.25;" width="220" x="498.5" y="89"/><ellipse cx="572.125" cy="97" fill="#ADD1B2" rx="5.5" ry="5.5" style="stroke:#181818;stroke-width:0.5;"/><path d="M573.5078,94.9375 Q573.5859,94.8281 573.6797,94.7734 Q573.7734,94.7188 573.8828,94.7188 Q574.0703,94.7188 574.1875,94.8516 Q574.3047,94.9766 574.3047,95.2813 L574.3047,96.0078 Q574.3047,96.3125 574.1875,96.4453 Q574.0703,96.5781 573.8828,96.5781 Q573.7109,96.5781 573.6094,96.4766 Q573.5078,96.3828 573.4531,96.125 Q573.4297,95.9453 573.3359,95.8516 Q573.1719,95.6641 572.8672,95.5547 Q572.5625,95.4453 572.25,95.4453 Q571.8672,95.4453 571.5469,95.6094 Q571.2344,95.7734 570.9844,96.1484 Q570.7422,96.5234 570.7422,97.0391 L570.7422,97.5859 Q570.7422,98.2031 571.1875,98.6172 Q571.6328,99.0234 572.4297,99.0234 Q572.8984,99.0234 573.2266,98.8984 Q573.4219,98.8203 573.6328,98.6016 Q573.7656,98.4688 573.8359,98.4297 Q573.9141,98.3906 574.0156,98.3906 Q574.1797,98.3906 574.3047,98.5234 Q574.4375,98.6484 574.4375,98.8203 Q574.4375,98.9922 574.2656,99.1953 Q574.0156,99.4844 573.6172,99.6484 Q573.0781,99.875 572.4297,99.875 Q571.6719,99.875 571.0703,99.5625 Q570.5781,99.3125 570.2344,98.7813 Q569.8906,98.2422 569.8906,97.6016 L569.8906,97.0234 Q569.8906,96.3594 570.1953,95.7891 Q570.5078,95.2109 571.0547,94.9063 Q571.6016,94.5938 572.2188,94.5938 Q572.5859,94.5938 572.9063,94.6797 Q573.2344,94.7578 573.5078,94.9375 Z " fill="#000000"/><text fill="#000000" font-family="sans-serif" font-size="7" lengthAdjust="spacing" textLength="68.5" x="582.375" y="99.8984">WorkstationController</text><line style="stroke:#181818;stroke-width:0.25;" x1="499" x2="718" y1="105" y2="105"/><line style="stroke:#181818;stroke-width:0.25;" x1="499" x2="718" y1="109" y2="109"/><text fill="#000000" font-family="sans-serif" font-size="7" lengthAdjust="spacing" textLength="154.5" x="501.5" y="118.5537">+getWorkstationTypes() : List&lt;WorkstationType&gt;</text><text fill="#000000" font-family="sans-serif" font-size="7" lengthAdjust="spacing" textLength="214" x="501.5" y="127.8643">+changeSetupTime(operationID, workstationID, setupTime) : Integer</text></g><!--class OperationController--><g id="elem_OperationController"><rect codeLine="17" fill="#F1F1F1" height="33.3105" id="OperationController" rx="1.25" ry="1.25" style="stroke:#181818;stroke-width:0.25;" width="148.5" x="332.25" y="93.5"/><ellipse cx="373.125" cy="101.5" fill="#ADD1B2" rx="5.5" ry="5.5" style="stroke:#181818;stroke-width:0.5;"/><path d="M374.5078,99.4375 Q374.5859,99.3281 374.6797,99.2734 Q374.7734,99.2188 374.8828,99.2188 Q375.0703,99.2188 375.1875,99.3516 Q375.3047,99.4766 375.3047,99.7813 L375.3047,100.5078 Q375.3047,100.8125 375.1875,100.9453 Q375.0703,101.0781 374.8828,101.0781 Q374.7109,101.0781 374.6094,100.9766 Q374.5078,100.8828 374.4531,100.625 Q374.4297,100.4453 374.3359,100.3516 Q374.1719,100.1641 373.8672,100.0547 Q373.5625,99.9453 373.25,99.9453 Q372.8672,99.9453 372.5469,100.1094 Q372.2344,100.2734 371.9844,100.6484 Q371.7422,101.0234 371.7422,101.5391 L371.7422,102.0859 Q371.7422,102.7031 372.1875,103.1172 Q372.6328,103.5234 373.4297,103.5234 Q373.8984,103.5234 374.2266,103.3984 Q374.4219,103.3203 374.6328,103.1016 Q374.7656,102.9688 374.8359,102.9297 Q374.9141,102.8906 375.0156,102.8906 Q375.1797,102.8906 375.3047,103.0234 Q375.4375,103.1484 375.4375,103.3203 Q375.4375,103.4922 375.2656,103.6953 Q375.0156,103.9844 374.6172,104.1484 Q374.0781,104.375 373.4297,104.375 Q372.6719,104.375 372.0703,104.0625 Q371.5781,103.8125 371.2344,103.2813 Q370.8906,102.7422 370.8906,102.1016 L370.8906,101.5234 Q370.8906,100.8594 371.1953,100.2891 Q371.5078,99.7109 372.0547,99.4063 Q372.6016,99.0938 373.2188,99.0938 Q373.5859,99.0938 373.9063,99.1797 Q374.2344,99.2578 374.5078,99.4375 Z " fill="#000000"/><text fill="#000000" font-family="sans-serif" font-size="7" lengthAdjust="spacing" textLength="62.5" x="383.375" y="104.3984">OperationController</text><line style="stroke:#181818;stroke-width:0.25;" x1="332.75" x2="480.25" y1="109.5" y2="109.5"/><line style="stroke:#181818;stroke-width:0.25;" x1="332.75" x2="480.25" y1="113.5" y2="113.5"/><text fill="#000000" font-family="sans-serif" font-size="7" lengthAdjust="spacing" textLength="142.5" x="335.25" y="123.0537">+getOperationTypes() : List&lt;OperationType&gt;</text></g><!--class WorkstationService--><g id="elem_WorkstationService"><rect codeLine="23" fill="#F1F1F1" height="42.6211" id="WorkstationService" rx="1.25" ry="1.25" style="stroke:#181818;stroke-width:0.25;" width="220" x="498.5" y="174.5"/><ellipse cx="575.875" cy="182.5" fill="#ADD1B2" rx="5.5" ry="5.5" style="stroke:#181818;stroke-width:0.5;"/><path d="M577.2578,180.4375 Q577.3359,180.3281 577.4297,180.2734 Q577.5234,180.2188 577.6328,180.2188 Q577.8203,180.2188 577.9375,180.3516 Q578.0547,180.4766 578.0547,180.7813 L578.0547,181.5078 Q578.0547,181.8125 577.9375,181.9453 Q577.8203,182.0781 577.6328,182.0781 Q577.4609,182.0781 577.3594,181.9766 Q577.2578,181.8828 577.2031,181.625 Q577.1797,181.4453 577.0859,181.3516 Q576.9219,181.1641 576.6172,181.0547 Q576.3125,180.9453 576,180.9453 Q575.6172,180.9453 575.2969,181.1094 Q574.9844,181.2734 574.7344,181.6484 Q574.4922,182.0234 574.4922,182.5391 L574.4922,183.0859 Q574.4922,183.7031 574.9375,184.1172 Q575.3828,184.5234 576.1797,184.5234 Q576.6484,184.5234 576.9766,184.3984 Q577.1719,184.3203 577.3828,184.1016 Q577.5156,183.9688 577.5859,183.9297 Q577.6641,183.8906 577.7656,183.8906 Q577.9297,183.8906 578.0547,184.0234 Q578.1875,184.1484 578.1875,184.3203 Q578.1875,184.4922 578.0156,184.6953 Q577.7656,184.9844 577.3672,185.1484 Q576.8281,185.375 576.1797,185.375 Q575.4219,185.375 574.8203,185.0625 Q574.3281,184.8125 573.9844,184.2813 Q573.6406,183.7422 573.6406,183.1016 L573.6406,182.5234 Q573.6406,181.8594 573.9453,181.2891 Q574.2578,180.7109 574.8047,180.4063 Q575.3516,180.0938 575.9688,180.0938 Q576.3359,180.0938 576.6563,180.1797 Q576.9844,180.2578 577.2578,180.4375 Z " fill="#000000"/><text fill="#000000" font-family="sans-serif" font-size="7" lengthAdjust="spacing" textLength="61" x="586.125" y="185.3984">WorkstationService</text><line style="stroke:#181818;stroke-width:0.25;" x1="499" x2="718" y1="190.5" y2="190.5"/><line style="stroke:#181818;stroke-width:0.25;" x1="499" x2="718" y1="194.5" y2="194.5"/><text fill="#000000" font-family="sans-serif" font-size="7" lengthAdjust="spacing" textLength="154.5" x="501.5" y="204.0537">+getWorkstationTypes() : List&lt;WorkstationType&gt;</text><text fill="#000000" font-family="sans-serif" font-size="7" lengthAdjust="spacing" textLength="214" x="501.5" y="213.3643">+changeSetupTime(operationID, workstationID, setupTime) : Integer</text></g><!--class OperationService--><g id="elem_OperationService"><rect codeLine="28" fill="#F1F1F1" height="33.3105" id="OperationService" rx="1.25" ry="1.25" style="stroke:#181818;stroke-width:0.25;" width="148.5" x="332.25" y="179"/><ellipse cx="376.875" cy="187" fill="#ADD1B2" rx="5.5" ry="5.5" style="stroke:#181818;stroke-width:0.5;"/><path d="M378.2578,184.9375 Q378.3359,184.8281 378.4297,184.7734 Q378.5234,184.7188 378.6328,184.7188 Q378.8203,184.7188 378.9375,184.8516 Q379.0547,184.9766 379.0547,185.2813 L379.0547,186.0078 Q379.0547,186.3125 378.9375,186.4453 Q378.8203,186.5781 378.6328,186.5781 Q378.4609,186.5781 378.3594,186.4766 Q378.2578,186.3828 378.2031,186.125 Q378.1797,185.9453 378.0859,185.8516 Q377.9219,185.6641 377.6172,185.5547 Q377.3125,185.4453 377,185.4453 Q376.6172,185.4453 376.2969,185.6094 Q375.9844,185.7734 375.7344,186.1484 Q375.4922,186.5234 375.4922,187.0391 L375.4922,187.5859 Q375.4922,188.2031 375.9375,188.6172 Q376.3828,189.0234 377.1797,189.0234 Q377.6484,189.0234 377.9766,188.8984 Q378.1719,188.8203 378.3828,188.6016 Q378.5156,188.4688 378.5859,188.4297 Q378.6641,188.3906 378.7656,188.3906 Q378.9297,188.3906 379.0547,188.5234 Q379.1875,188.6484 379.1875,188.8203 Q379.1875,188.9922 379.0156,189.1953 Q378.7656,189.4844 378.3672,189.6484 Q377.8281,189.875 377.1797,189.875 Q376.4219,189.875 375.8203,189.5625 Q375.3281,189.3125 374.9844,188.7813 Q374.6406,188.2422 374.6406,187.6016 L374.6406,187.0234 Q374.6406,186.3594 374.9453,185.7891 Q375.2578,185.2109 375.8047,184.9063 Q376.3516,184.5938 376.9688,184.5938 Q377.3359,184.5938 377.6563,184.6797 Q377.9844,184.7578 378.2578,184.9375 Z " fill="#000000"/><text fill="#000000" font-family="sans-serif" font-size="7" lengthAdjust="spacing" textLength="55" x="387.125" y="189.8984">OperationService</text><line style="stroke:#181818;stroke-width:0.25;" x1="332.75" x2="480.25" y1="195" y2="195"/><line style="stroke:#181818;stroke-width:0.25;" x1="332.75" x2="480.25" y1="199" y2="199"/><text fill="#000000" font-family="sans-serif" font-size="7" lengthAdjust="spacing" textLength="142.5" x="335.25" y="208.5537">+getOperationTypes() : List&lt;OperationType&gt;</text></g><!--class Repositories--><g id="elem_Repositories"><rect codeLine="34" fill="#F1F1F1" height="61.2422" id="Repositories" rx="1.25" ry="1.25" style="stroke:#181818;stroke-width:0.25;" width="206" x="224.5" y="269"/><ellipse cx="305.625" cy="277" fill="#ADD1B2" rx="5.5" ry="5.5" style="stroke:#181818;stroke-width:0.5;"/><path d="M307.0078,274.9375 Q307.0859,274.8281 307.1797,274.7734 Q307.2734,274.7188 307.3828,274.7188 Q307.5703,274.7188 307.6875,274.8516 Q307.8047,274.9766 307.8047,275.2813 L307.8047,276.0078 Q307.8047,276.3125 307.6875,276.4453 Q307.5703,276.5781 307.3828,276.5781 Q307.2109,276.5781 307.1094,276.4766 Q307.0078,276.3828 306.9531,276.125 Q306.9297,275.9453 306.8359,275.8516 Q306.6719,275.6641 306.3672,275.5547 Q306.0625,275.4453 305.75,275.4453 Q305.3672,275.4453 305.0469,275.6094 Q304.7344,275.7734 304.4844,276.1484 Q304.2422,276.5234 304.2422,277.0391 L304.2422,277.5859 Q304.2422,278.2031 304.6875,278.6172 Q305.1328,279.0234 305.9297,279.0234 Q306.3984,279.0234 306.7266,278.8984 Q306.9219,278.8203 307.1328,278.6016 Q307.2656,278.4688 307.3359,278.4297 Q307.4141,278.3906 307.5156,278.3906 Q307.6797,278.3906 307.8047,278.5234 Q307.9375,278.6484 307.9375,278.8203 Q307.9375,278.9922 307.7656,279.1953 Q307.5156,279.4844 307.1172,279.6484 Q306.5781,279.875 305.9297,279.875 Q305.1719,279.875 304.5703,279.5625 Q304.0781,279.3125 303.7344,278.7813 Q303.3906,278.2422 303.3906,277.6016 L303.3906,277.0234 Q303.3906,276.3594 303.6953,275.7891 Q304.0078,275.2109 304.5547,274.9063 Q305.1016,274.5938 305.7188,274.5938 Q306.0859,274.5938 306.4063,274.6797 Q306.7344,274.7578 307.0078,274.9375 Z " fill="#000000"/><text fill="#000000" font-family="sans-serif" font-size="7" lengthAdjust="spacing" textLength="39.5" x="315.875" y="279.8984">Repositories</text><line style="stroke:#181818;stroke-width:0.25;" x1="225" x2="430" y1="285" y2="285"/><line style="stroke:#181818;stroke-width:0.25;" x1="225" x2="430" y1="289" y2="289"/><text fill="#000000" font-family="sans-serif" font-size="7" lengthAdjust="spacing" textLength="47" x="227.5" y="298.5537">-Repositories()</text><text fill="#000000" font-family="sans-serif" font-size="7" lengthAdjust="spacing" textLength="91" x="227.5" y="307.8643">+getInstance() : Repositories</text><text fill="#000000" font-family="sans-serif" font-size="7" lengthAdjust="spacing" textLength="200" x="227.5" y="317.1748">+getWorkstationTypeRepository() : WorkstationTypeRepository</text><text fill="#000000" font-family="sans-serif" font-size="7" lengthAdjust="spacing" textLength="188" x="227.5" y="326.4854">+getOperationTypeRepository() : OperationTypeRepository</text></g><!--class WorkstationTypeRepository--><g id="elem_WorkstationTypeRepository"><rect codeLine="41" fill="#F1F1F1" height="61.2422" id="WorkstationTypeRepository" rx="1.25" ry="1.25" style="stroke:#181818;stroke-width:0.25;" width="267.5" x="203.75" y="369.5"/><ellipse cx="291.625" cy="377.5" fill="#ADD1B2" rx="5.5" ry="5.5" style="stroke:#181818;stroke-width:0.5;"/><path d="M293.0078,375.4375 Q293.0859,375.3281 293.1797,375.2734 Q293.2734,375.2188 293.3828,375.2188 Q293.5703,375.2188 293.6875,375.3516 Q293.8047,375.4766 293.8047,375.7813 L293.8047,376.5078 Q293.8047,376.8125 293.6875,376.9453 Q293.5703,377.0781 293.3828,377.0781 Q293.2109,377.0781 293.1094,376.9766 Q293.0078,376.8828 292.9531,376.625 Q292.9297,376.4453 292.8359,376.3516 Q292.6719,376.1641 292.3672,376.0547 Q292.0625,375.9453 291.75,375.9453 Q291.3672,375.9453 291.0469,376.1094 Q290.7344,376.2734 290.4844,376.6484 Q290.2422,377.0234 290.2422,377.5391 L290.2422,378.0859 Q290.2422,378.7031 290.6875,379.1172 Q291.1328,379.5234 291.9297,379.5234 Q292.3984,379.5234 292.7266,379.3984 Q292.9219,379.3203 293.1328,379.1016 Q293.2656,378.9688 293.3359,378.9297 Q293.4141,378.8906 293.5156,378.8906 Q293.6797,378.8906 293.8047,379.0234 Q293.9375,379.1484 293.9375,379.3203 Q293.9375,379.4922 293.7656,379.6953 Q293.5156,379.9844 293.1172,380.1484 Q292.5781,380.375 291.9297,380.375 Q291.1719,380.375 290.5703,380.0625 Q290.0781,379.8125 289.7344,379.2813 Q289.3906,378.7422 289.3906,378.1016 L289.3906,377.5234 Q289.3906,376.8594 289.6953,376.2891 Q290.0078,375.7109 290.5547,375.4063 Q291.1016,375.0938 291.7188,375.0938 Q292.0859,375.0938 292.4063,375.1797 Q292.7344,375.2578 293.0078,375.4375 Z " fill="#000000"/><text fill="#000000" font-family="sans-serif" font-size="7" lengthAdjust="spacing" textLength="87.5" x="301.875" y="380.3984">WorkstationTypeRepository</text><line style="stroke:#181818;stroke-width:0.25;" x1="204.25" x2="470.75" y1="385.5" y2="385.5"/><line style="stroke:#181818;stroke-width:0.25;" x1="204.25" x2="470.75" y1="389.5" y2="389.5"/><text fill="#000000" font-family="sans-serif" font-size="7" lengthAdjust="spacing" textLength="105" x="206.75" y="399.0537">+getAll() : List&lt;WorkstationType&gt;</text><text fill="#000000" font-family="sans-serif" font-size="7" lengthAdjust="spacing" textLength="151" x="206.75" y="408.3643">+getByID(workstationTypeID) : WorkstationType</text><text fill="#000000" font-family="sans-serif" font-size="7" lengthAdjust="spacing" textLength="180" x="206.75" y="417.6748">+getWorkstationTypeExists(workstationTypeID) : boolean</text><text fill="#000000" font-family="sans-serif" font-size="7" lengthAdjust="spacing" textLength="261.5" x="206.75" y="426.9854">+updateOperationWorkstationTime(workstationTypeID, operationTypeID) : boolean</text></g><!--class OperationTypeRepository--><g id="elem_OperationTypeRepository"><rect codeLine="48" fill="#F1F1F1" height="51.9316" id="OperationTypeRepository" rx="1.25" ry="1.25" style="stroke:#181818;stroke-width:0.25;" width="174.5" x="11.75" y="374"/><ellipse cx="56.125" cy="382" fill="#ADD1B2" rx="5.5" ry="5.5" style="stroke:#181818;stroke-width:0.5;"/><path d="M57.5078,379.9375 Q57.5859,379.8281 57.6797,379.7734 Q57.7734,379.7188 57.8828,379.7188 Q58.0703,379.7188 58.1875,379.8516 Q58.3047,379.9766 58.3047,380.2813 L58.3047,381.0078 Q58.3047,381.3125 58.1875,381.4453 Q58.0703,381.5781 57.8828,381.5781 Q57.7109,381.5781 57.6094,381.4766 Q57.5078,381.3828 57.4531,381.125 Q57.4297,380.9453 57.3359,380.8516 Q57.1719,380.6641 56.8672,380.5547 Q56.5625,380.4453 56.25,380.4453 Q55.8672,380.4453 55.5469,380.6094 Q55.2344,380.7734 54.9844,381.1484 Q54.7422,381.5234 54.7422,382.0391 L54.7422,382.5859 Q54.7422,383.2031 55.1875,383.6172 Q55.6328,384.0234 56.4297,384.0234 Q56.8984,384.0234 57.2266,383.8984 Q57.4219,383.8203 57.6328,383.6016 Q57.7656,383.4688 57.8359,383.4297 Q57.9141,383.3906 58.0156,383.3906 Q58.1797,383.3906 58.3047,383.5234 Q58.4375,383.6484 58.4375,383.8203 Q58.4375,383.9922 58.2656,384.1953 Q58.0156,384.4844 57.6172,384.6484 Q57.0781,384.875 56.4297,384.875 Q55.6719,384.875 55.0703,384.5625 Q54.5781,384.3125 54.2344,383.7813 Q53.8906,383.2422 53.8906,382.6016 L53.8906,382.0234 Q53.8906,381.3594 54.1953,380.7891 Q54.5078,380.2109 55.0547,379.9063 Q55.6016,379.5938 56.2188,379.5938 Q56.5859,379.5938 56.9063,379.6797 Q57.2344,379.7578 57.5078,379.9375 Z " fill="#000000"/><text fill="#000000" font-family="sans-serif" font-size="7" lengthAdjust="spacing" textLength="81.5" x="66.375" y="384.8984">OperationTypeRepository</text><line style="stroke:#181818;stroke-width:0.25;" x1="12.25" x2="185.75" y1="390" y2="390"/><line style="stroke:#181818;stroke-width:0.25;" x1="12.25" x2="185.75" y1="394" y2="394"/><text fill="#000000" font-family="sans-serif" font-size="7" lengthAdjust="spacing" textLength="99" x="14.75" y="403.5537">+getAll() : List&lt;OperationType&gt;</text><text fill="#000000" font-family="sans-serif" font-size="7" lengthAdjust="spacing" textLength="139.5" x="14.75" y="412.8643">+getByID(operationTypeID) : OperationType</text><text fill="#000000" font-family="sans-serif" font-size="7" lengthAdjust="spacing" textLength="168.5" x="14.75" y="422.1748">+getOperationTypeExists(operationTypeID) : boolean</text></g><!--class WorkstationType--><g id="elem_WorkstationType"><rect codeLine="57" fill="#F1F1F1" height="61.2422" id="WorkstationType" rx="1.25" ry="1.25" style="stroke:#181818;stroke-width:0.25;" width="110" x="437" y="574"/><ellipse cx="463.125" cy="582" fill="#ADD1B2" rx="5.5" ry="5.5" style="stroke:#181818;stroke-width:0.5;"/><path d="M464.5078,579.9375 Q464.5859,579.8281 464.6797,579.7734 Q464.7734,579.7188 464.8828,579.7188 Q465.0703,579.7188 465.1875,579.8516 Q465.3047,579.9766 465.3047,580.2813 L465.3047,581.0078 Q465.3047,581.3125 465.1875,581.4453 Q465.0703,581.5781 464.8828,581.5781 Q464.7109,581.5781 464.6094,581.4766 Q464.5078,581.3828 464.4531,581.125 Q464.4297,580.9453 464.3359,580.8516 Q464.1719,580.6641 463.8672,580.5547 Q463.5625,580.4453 463.25,580.4453 Q462.8672,580.4453 462.5469,580.6094 Q462.2344,580.7734 461.9844,581.1484 Q461.7422,581.5234 461.7422,582.0391 L461.7422,582.5859 Q461.7422,583.2031 462.1875,583.6172 Q462.6328,584.0234 463.4297,584.0234 Q463.8984,584.0234 464.2266,583.8984 Q464.4219,583.8203 464.6328,583.6016 Q464.7656,583.4688 464.8359,583.4297 Q464.9141,583.3906 465.0156,583.3906 Q465.1797,583.3906 465.3047,583.5234 Q465.4375,583.6484 465.4375,583.8203 Q465.4375,583.9922 465.2656,584.1953 Q465.0156,584.4844 464.6172,584.6484 Q464.0781,584.875 463.4297,584.875 Q462.6719,584.875 462.0703,584.5625 Q461.5781,584.3125 461.2344,583.7813 Q460.8906,583.2422 460.8906,582.6016 L460.8906,582.0234 Q460.8906,581.3594 461.1953,580.7891 Q461.5078,580.2109 462.0547,579.9063 Q462.6016,579.5938 463.2188,579.5938 Q463.5859,579.5938 463.9063,579.6797 Q464.2344,579.7578 464.5078,579.9375 Z " fill="#000000"/><text fill="#000000" font-family="sans-serif" font-size="7" lengthAdjust="spacing" textLength="53.5" x="473.375" y="584.8984">WorkstationType</text><line style="stroke:#181818;stroke-width:0.25;" x1="437.5" x2="546.5" y1="590" y2="590"/><text fill="#000000" font-family="sans-serif" font-size="7" lengthAdjust="spacing" textLength="21.5" x="440" y="599.5537">-id : int</text><text fill="#000000" font-family="sans-serif" font-size="7" lengthAdjust="spacing" textLength="44.5" x="440" y="608.8643">-name : String</text><text fill="#000000" font-family="sans-serif" font-size="7" lengthAdjust="spacing" textLength="104" x="440" y="618.1748">-workstations : List&lt;Workstation&gt;</text><line style="stroke:#181818;stroke-width:0.25;" x1="437.5" x2="546.5" y1="621.9316" y2="621.9316"/><text fill="#000000" font-family="sans-serif" font-size="7" lengthAdjust="spacing" textLength="89.5" x="440" y="631.4854">+WorkstationType(id, name)</text></g><!--class OperationType--><g id="elem_OperationType"><rect codeLine="64" fill="#F1F1F1" height="61.2422" id="OperationType" rx="1.25" ry="1.25" style="stroke:#181818;stroke-width:0.25;" width="185" x="399.5" y="482.5"/><ellipse cx="466.125" cy="490.5" fill="#ADD1B2" rx="5.5" ry="5.5" style="stroke:#181818;stroke-width:0.5;"/><path d="M467.5078,488.4375 Q467.5859,488.3281 467.6797,488.2734 Q467.7734,488.2188 467.8828,488.2188 Q468.0703,488.2188 468.1875,488.3516 Q468.3047,488.4766 468.3047,488.7813 L468.3047,489.5078 Q468.3047,489.8125 468.1875,489.9453 Q468.0703,490.0781 467.8828,490.0781 Q467.7109,490.0781 467.6094,489.9766 Q467.5078,489.8828 467.4531,489.625 Q467.4297,489.4453 467.3359,489.3516 Q467.1719,489.1641 466.8672,489.0547 Q466.5625,488.9453 466.25,488.9453 Q465.8672,488.9453 465.5469,489.1094 Q465.2344,489.2734 464.9844,489.6484 Q464.7422,490.0234 464.7422,490.5391 L464.7422,491.0859 Q464.7422,491.7031 465.1875,492.1172 Q465.6328,492.5234 466.4297,492.5234 Q466.8984,492.5234 467.2266,492.3984 Q467.4219,492.3203 467.6328,492.1016 Q467.7656,491.9688 467.8359,491.9297 Q467.9141,491.8906 468.0156,491.8906 Q468.1797,491.8906 468.3047,492.0234 Q468.4375,492.1484 468.4375,492.3203 Q468.4375,492.4922 468.2656,492.6953 Q468.0156,492.9844 467.6172,493.1484 Q467.0781,493.375 466.4297,493.375 Q465.6719,493.375 465.0703,493.0625 Q464.5781,492.8125 464.2344,492.2813 Q463.8906,491.7422 463.8906,491.1016 L463.8906,490.5234 Q463.8906,489.8594 464.1953,489.2891 Q464.5078,488.7109 465.0547,488.4063 Q465.6016,488.0938 466.2188,488.0938 Q466.5859,488.0938 466.9063,488.1797 Q467.2344,488.2578 467.5078,488.4375 Z " fill="#000000"/><text fill="#000000" font-family="sans-serif" font-size="7" lengthAdjust="spacing" textLength="47.5" x="476.375" y="493.3984">OperationType</text><line style="stroke:#181818;stroke-width:0.25;" x1="400" x2="584" y1="498.5" y2="498.5"/><text fill="#000000" font-family="sans-serif" font-size="7" lengthAdjust="spacing" textLength="21.5" x="402.5" y="508.0537">-id : int</text><text fill="#000000" font-family="sans-serif" font-size="7" lengthAdjust="spacing" textLength="44.5" x="402.5" y="517.3643">-name : String</text><text fill="#000000" font-family="sans-serif" font-size="7" lengthAdjust="spacing" textLength="179" x="402.5" y="526.6748">-workstationSetupTime : Map&lt;WorkstationType, Integer&gt;</text><line style="stroke:#181818;stroke-width:0.25;" x1="400" x2="584" y1="530.4316" y2="530.4316"/><text fill="#000000" font-family="sans-serif" font-size="7" lengthAdjust="spacing" textLength="83.5" x="402.5" y="539.9854">+OperationType(id, name)</text></g><!--class WorkstationException--><g id="elem_WorkstationException"><rect codeLine="73" fill="#F1F1F1" height="42.6211" id="WorkstationException" rx="1.25" ry="1.25" style="stroke:#181818;stroke-width:0.25;" width="240.5" x="951.25" y="278.25"/><ellipse cx="1035.375" cy="286.25" fill="#ADD1B2" rx="5.5" ry="5.5" style="stroke:#181818;stroke-width:0.5;"/><path d="M1036.7578,284.1875 Q1036.8359,284.0781 1036.9297,284.0234 Q1037.0234,283.9688 1037.1328,283.9688 Q1037.3203,283.9688 1037.4375,284.1016 Q1037.5547,284.2266 1037.5547,284.5313 L1037.5547,285.2578 Q1037.5547,285.5625 1037.4375,285.6953 Q1037.3203,285.8281 1037.1328,285.8281 Q1036.9609,285.8281 1036.8594,285.7266 Q1036.7578,285.6328 1036.7031,285.375 Q1036.6797,285.1953 1036.5859,285.1016 Q1036.4219,284.9141 1036.1172,284.8047 Q1035.8125,284.6953 1035.5,284.6953 Q1035.1172,284.6953 1034.7969,284.8594 Q1034.4844,285.0234 1034.2344,285.3984 Q1033.9922,285.7734 1033.9922,286.2891 L1033.9922,286.8359 Q1033.9922,287.4531 1034.4375,287.8672 Q1034.8828,288.2734 1035.6797,288.2734 Q1036.1484,288.2734 1036.4766,288.1484 Q1036.6719,288.0703 1036.8828,287.8516 Q1037.0156,287.7188 1037.0859,287.6797 Q1037.1641,287.6406 1037.2656,287.6406 Q1037.4297,287.6406 1037.5547,287.7734 Q1037.6875,287.8984 1037.6875,288.0703 Q1037.6875,288.2422 1037.5156,288.4453 Q1037.2656,288.7344 1036.8672,288.8984 Q1036.3281,289.125 1035.6797,289.125 Q1034.9219,289.125 1034.3203,288.8125 Q1033.8281,288.5625 1033.4844,288.0313 Q1033.1406,287.4922 1033.1406,286.8516 L1033.1406,286.2734 Q1033.1406,285.6094 1033.4453,285.0391 Q1033.7578,284.4609 1034.3047,284.1563 Q1034.8516,283.8438 1035.4688,283.8438 Q1035.8359,283.8438 1036.1563,283.9297 Q1036.4844,284.0078 1036.7578,284.1875 Z " fill="#000000"/><text fill="#000000" font-family="sans-serif" font-size="7" lengthAdjust="spacing" textLength="68" x="1045.625" y="289.1484">WorkstationException</text><line style="stroke:#181818;stroke-width:0.25;" x1="951.75" x2="1191.25" y1="294.25" y2="294.25"/><line style="stroke:#181818;stroke-width:0.25;" x1="951.75" x2="1191.25" y1="298.25" y2="298.25"/><text fill="#000000" font-family="sans-serif" font-size="7" lengthAdjust="spacing" textLength="234.5" x="954.25" y="307.8037">+workstationTypeAlreadyExists(workstationTypeID) : WorkstationException</text><text fill="#000000" font-family="sans-serif" font-size="7" lengthAdjust="spacing" textLength="223.5" x="954.25" y="317.1143">+workstationTypeNotFound(workstationTypeID) : WorkstationException</text></g><!--class OperationException--><g id="elem_OperationException"><rect codeLine="78" fill="#F1F1F1" height="42.6211" id="OperationException" rx="1.25" ry="1.25" style="stroke:#181818;stroke-width:0.25;" width="223.5" x="710.25" y="278.25"/><ellipse cx="788.875" cy="286.25" fill="#ADD1B2" rx="5.5" ry="5.5" style="stroke:#181818;stroke-width:0.5;"/><path d="M790.2578,284.1875 Q790.3359,284.0781 790.4297,284.0234 Q790.5234,283.9688 790.6328,283.9688 Q790.8203,283.9688 790.9375,284.1016 Q791.0547,284.2266 791.0547,284.5313 L791.0547,285.2578 Q791.0547,285.5625 790.9375,285.6953 Q790.8203,285.8281 790.6328,285.8281 Q790.4609,285.8281 790.3594,285.7266 Q790.2578,285.6328 790.2031,285.375 Q790.1797,285.1953 790.0859,285.1016 Q789.9219,284.9141 789.6172,284.8047 Q789.3125,284.6953 789,284.6953 Q788.6172,284.6953 788.2969,284.8594 Q787.9844,285.0234 787.7344,285.3984 Q787.4922,285.7734 787.4922,286.2891 L787.4922,286.8359 Q787.4922,287.4531 787.9375,287.8672 Q788.3828,288.2734 789.1797,288.2734 Q789.6484,288.2734 789.9766,288.1484 Q790.1719,288.0703 790.3828,287.8516 Q790.5156,287.7188 790.5859,287.6797 Q790.6641,287.6406 790.7656,287.6406 Q790.9297,287.6406 791.0547,287.7734 Q791.1875,287.8984 791.1875,288.0703 Q791.1875,288.2422 791.0156,288.4453 Q790.7656,288.7344 790.3672,288.8984 Q789.8281,289.125 789.1797,289.125 Q788.4219,289.125 787.8203,288.8125 Q787.3281,288.5625 786.9844,288.0313 Q786.6406,287.4922 786.6406,286.8516 L786.6406,286.2734 Q786.6406,285.6094 786.9453,285.0391 Q787.2578,284.4609 787.8047,284.1563 Q788.3516,283.8438 788.9688,283.8438 Q789.3359,283.8438 789.6563,283.9297 Q789.9844,284.0078 790.2578,284.1875 Z " fill="#000000"/><text fill="#000000" font-family="sans-serif" font-size="7" lengthAdjust="spacing" textLength="62" x="799.125" y="289.1484">OperationException</text><line style="stroke:#181818;stroke-width:0.25;" x1="710.75" x2="933.25" y1="294.25" y2="294.25"/><line style="stroke:#181818;stroke-width:0.25;" x1="710.75" x2="933.25" y1="298.25" y2="298.25"/><text fill="#000000" font-family="sans-serif" font-size="7" lengthAdjust="spacing" textLength="217.5" x="713.25" y="307.8037">+operationTypeAlreadyExists(operationTypeID) : OperationException</text><text fill="#000000" font-family="sans-serif" font-size="7" lengthAdjust="spacing" textLength="206.5" x="713.25" y="317.1143">+operationTypeNotFound(operationTypeID) : OperationException</text></g><!--class RuntimeException--><g id="elem_RuntimeException"><rect codeLine="83" fill="#F1F1F1" height="24" id="RuntimeException" rx="1.25" ry="1.25" style="stroke:#181818;stroke-width:0.25;" width="72.5" x="910.75" y="388"/><ellipse cx="918.25" cy="396" fill="#ADD1B2" rx="5.5" ry="5.5" style="stroke:#181818;stroke-width:0.5;"/><path d="M919.6328,393.9375 Q919.7109,393.8281 919.8047,393.7734 Q919.8984,393.7188 920.0078,393.7188 Q920.1953,393.7188 920.3125,393.8516 Q920.4297,393.9766 920.4297,394.2813 L920.4297,395.0078 Q920.4297,395.3125 920.3125,395.4453 Q920.1953,395.5781 920.0078,395.5781 Q919.8359,395.5781 919.7344,395.4766 Q919.6328,395.3828 919.5781,395.125 Q919.5547,394.9453 919.4609,394.8516 Q919.2969,394.6641 918.9922,394.5547 Q918.6875,394.4453 918.375,394.4453 Q917.9922,394.4453 917.6719,394.6094 Q917.3594,394.7734 917.1094,395.1484 Q916.8672,395.5234 916.8672,396.0391 L916.8672,396.5859 Q916.8672,397.2031 917.3125,397.6172 Q917.7578,398.0234 918.5547,398.0234 Q919.0234,398.0234 919.3516,397.8984 Q919.5469,397.8203 919.7578,397.6016 Q919.8906,397.4688 919.9609,397.4297 Q920.0391,397.3906 920.1406,397.3906 Q920.3047,397.3906 920.4297,397.5234 Q920.5625,397.6484 920.5625,397.8203 Q920.5625,397.9922 920.3906,398.1953 Q920.1406,398.4844 919.7422,398.6484 Q919.2031,398.875 918.5547,398.875 Q917.7969,398.875 917.1953,398.5625 Q916.7031,398.3125 916.3594,397.7813 Q916.0156,397.2422 916.0156,396.6016 L916.0156,396.0234 Q916.0156,395.3594 916.3203,394.7891 Q916.6328,394.2109 917.1797,393.9063 Q917.7266,393.5938 918.3438,393.5938 Q918.7109,393.5938 919.0313,393.6797 Q919.3594,393.7578 919.6328,393.9375 Z " fill="#000000"/><text fill="#000000" font-family="sans-serif" font-size="7" lengthAdjust="spacing" textLength="56.5" x="925.25" y="398.8984">RuntimeException</text><line style="stroke:#181818;stroke-width:0.25;" x1="911.25" x2="982.75" y1="404" y2="404"/><line style="stroke:#181818;stroke-width:0.25;" x1="911.25" x2="982.75" y1="408" y2="408"/></g><!--link ChangeOperationWorkstationSetupTimeUI to WorkstationController--><g id="link_ChangeOperationWorkstationSetupTimeUI_WorkstationController"><path codeLine="86" d="M542.095,46.095 C553.965,57.47 570.1694,73.0039 584.5794,86.8189 " fill="none" id="ChangeOperationWorkstationSetupTimeUI-to-WorkstationController" style="stroke:#181818;stroke-width:0.5;stroke-dasharray:7.0,7.0;"/><polygon fill="#181818" points="586.745,88.895,584.8808,84.3371,584.9404,87.1649,582.1126,87.2245,586.745,88.895" style="stroke:#181818;stroke-width:0.5;"/></g><!--link ChangeOperationWorkstationSetupTimeUI to OperationController--><g id="link_ChangeOperationWorkstationSetupTimeUI_OperationController"><path codeLine="87" d="M511.11,46.01 C490.295,58.69 459.2319,77.6191 435.7369,91.9341 " fill="none" id="ChangeOperationWorkstationSetupTimeUI-to-OperationController" style="stroke:#181818;stroke-width:0.5;stroke-dasharray:7.0,7.0;"/><polygon fill="#181818" points="433.175,93.495,438.0585,92.8616,435.3099,92.1942,435.9773,89.4456,433.175,93.495" style="stroke:#181818;stroke-width:0.5;"/></g><!--link WorkstationController to WorkstationService--><g id="link_WorkstationController_WorkstationService"><path codeLine="88" d="M608.5,131.64 C608.5,144.685 608.5,158.425 608.5,171.455 " fill="none" id="WorkstationController-to-WorkstationService" style="stroke:#181818;stroke-width:0.5;stroke-dasharray:7.0,7.0;"/><polygon fill="#181818" points="608.5,174.455,610.5,169.955,608.5,171.955,606.5,169.955,608.5,174.455" style="stroke:#181818;stroke-width:0.5;"/></g><!--link OperationController to OperationService--><g id="link_OperationController_OperationService"><path codeLine="89" d="M406.5,127.04 C406.5,141.96 406.5,160.92 406.5,175.865 " fill="none" id="OperationController-to-OperationService" style="stroke:#181818;stroke-width:0.5;stroke-dasharray:7.0,7.0;"/><polygon fill="#181818" points="406.5,178.865,408.5,174.365,406.5,176.365,404.5,174.365,406.5,178.865" style="stroke:#181818;stroke-width:0.5;"/></g><!--link WorkstationService to Repositories--><g id="link_WorkstationService_Repositories"><path codeLine="90" d="M551.635,217.045 C510.82,231.965 458.0226,251.2749 412.3976,267.9549 " fill="none" id="WorkstationService-to-Repositories" style="stroke:#181818;stroke-width:0.5;stroke-dasharray:7.0,7.0;"/><polygon fill="#181818" points="409.58,268.985,414.4931,269.3183,411.928,268.1266,413.1197,265.5615,409.58,268.985" style="stroke:#181818;stroke-width:0.5;"/><text fill="#000000" font-family="sans-serif" font-size="6.5" lengthAdjust="spacing" textLength="33.5" x="501.5" y="240.5142">repositories</text></g><!--link WorkstationService to WorkstationTypeRepository--><g id="link_WorkstationService_WorkstationTypeRepository"><path codeLine="91" d="M585.86,217.125 C570.885,230.93 554,246.5 554,246.5 C554,246.5 479,330 479,330 C479,330 439.6777,349.3124 401.4327,368.0974 " fill="none" id="WorkstationService-to-WorkstationTypeRepository" style="stroke:#181818;stroke-width:0.5;stroke-dasharray:7.0,7.0;"/><polygon fill="#181818" points="398.74,369.42,403.6608,369.2313,400.9839,368.3178,401.8973,365.641,398.74,369.42" style="stroke:#181818;stroke-width:0.5;"/><text fill="#000000" font-family="sans-serif" font-size="6.5" lengthAdjust="spacing" textLength="78" x="554.5" y="302.2642">workstationTypeRepository</text></g><!--link WorkstationService to WorkstationType--><g id="link_WorkstationService_WorkstationType"><path codeLine="92" d="M619.51,217.125 C626.79,230.93 635,246.5 635,246.5 C635,246.5 646,299 646,299 C646,299 646,299 646,513.5 C646,513.5 590.4814,546.125 545.6514,572.47 " fill="none" id="WorkstationService-to-WorkstationType" style="stroke:#181818;stroke-width:0.5;stroke-dasharray:7.0,7.0;"/><polygon fill="#181818" points="543.065,573.99,547.958,573.4344,545.2204,572.7234,545.9314,569.9858,543.065,573.99" style="stroke:#181818;stroke-width:0.5;"/><text fill="#000000" font-family="sans-serif" font-size="6.5" lengthAdjust="spacing" textLength="47" x="646.5" y="402.7642">workstationType</text></g><!--link OperationService to Repositories--><g id="link_OperationService_Repositories"><path codeLine="93" d="M393.98,212.53 C382.365,227.64 366.6135,248.1266 352.4485,266.5516 " fill="none" id="OperationService-to-Repositories" style="stroke:#181818;stroke-width:0.5;stroke-dasharray:7.0,7.0;"/><polygon fill="#181818" points="350.62,268.93,354.9483,266.5814,352.1437,266.948,351.7771,264.1435,350.62,268.93" style="stroke:#181818;stroke-width:0.5;"/><text fill="#000000" font-family="sans-serif" font-size="6.5" lengthAdjust="spacing" textLength="33.5" x="376.5" y="240.5142">repositories</text></g><!--link OperationService to OperationTypeRepository--><g id="link_OperationService_OperationTypeRepository"><path codeLine="94" d="M332.19,210.45 C254.415,225.31 143.5,246.5 143.5,246.5 C143.5,246.5 119.9527,327.4543 107.2877,371.0093 " fill="none" id="OperationService-to-OperationTypeRepository" style="stroke:#181818;stroke-width:0.5;stroke-dasharray:7.0,7.0;"/><polygon fill="#181818" points="106.45,373.89,109.6269,370.1274,107.148,371.4894,105.786,369.0105,106.45,373.89" style="stroke:#181818;stroke-width:0.5;"/><text fill="#000000" font-family="sans-serif" font-size="6.5" lengthAdjust="spacing" textLength="71.5" x="144" y="302.2642">operationTypeRepository</text></g><!--link OperationService to OperationType--><g id="link_OperationService_OperationType"><path codeLine="95" d="M430.2,212.565 C451.515,227.235 479.5,246.5 479.5,246.5 C479.5,246.5 487.1691,409.7333 490.4441,479.3783 " fill="none" id="OperationService-to-OperationType" style="stroke:#181818;stroke-width:0.5;stroke-dasharray:7.0,7.0;"/><polygon fill="#181818" points="490.585,482.375,492.3714,477.786,490.4676,479.8778,488.3758,477.9739,490.585,482.375" style="stroke:#181818;stroke-width:0.5;"/><text fill="#000000" font-family="sans-serif" font-size="6.5" lengthAdjust="spacing" textLength="40.5" x="484.5" y="352.5142">operationType</text></g><!--link Repositories to Repositories--><g id="link_Repositories_Repositories"><path codeLine="96" d="M430.56,291.765 C441.195,293.285 448,295.86 448,299.5 C448,303.14 444.1648,305.2905 433.5298,306.8105 " fill="none" id="Repositories-to-Repositories" style="stroke:#181818;stroke-width:0.5;"/><polygon fill="#181818" points="430.56,307.235,435.2977,308.5782,433.0349,306.8813,434.7318,304.6184,430.56,307.235" style="stroke:#181818;stroke-width:0.5;"/><text fill="#000000" font-family="sans-serif" font-size="6.5" lengthAdjust="spacing" textLength="24.5" x="451" y="302.2642">instance</text></g><!--link Repositories to OperationTypeRepository--><g id="link_Repositories_OperationTypeRepository"><path codeLine="97" d="M258.48,330.055 C226.29,344.07 191.1406,359.3774 160.3656,372.7774 " fill="none" id="Repositories-to-OperationTypeRepository" style="stroke:#181818;stroke-width:0.5;"/><polygon fill="#181818" points="157.615,373.975,162.5393,374.0122,159.9071,372.977,160.9424,370.3448,157.615,373.975" style="stroke:#181818;stroke-width:0.5;"/><text fill="#000000" font-family="sans-serif" font-size="6.5" lengthAdjust="spacing" textLength="71.5" x="220.5" y="352.5142">operationTypeRepository</text><text fill="#000000" font-family="sans-serif" font-size="6.5" lengthAdjust="spacing" textLength="3.5" x="246.3549" y="341.3051">1</text><text fill="#000000" font-family="sans-serif" font-size="6.5" lengthAdjust="spacing" textLength="3.5" x="161.7562" y="368.4353">1</text></g><!--link Repositories to WorkstationTypeRepository--><g id="link_Repositories_WorkstationTypeRepository"><path codeLine="98" d="M330.525,330.125 C331.78,342.59 332.9294,354.0351 334.1844,366.4951 " fill="none" id="Repositories-to-WorkstationTypeRepository" style="stroke:#181818;stroke-width:0.5;"/><polygon fill="#181818" points="334.485,369.48,336.024,364.8022,334.2345,366.9926,332.0441,365.2031,334.485,369.48" style="stroke:#181818;stroke-width:0.5;"/><text fill="#000000" font-family="sans-serif" font-size="6.5" lengthAdjust="spacing" textLength="78" x="333" y="352.5142">workstationTypeRepository</text><text fill="#000000" font-family="sans-serif" font-size="6.5" lengthAdjust="spacing" textLength="3.5" x="327.1724" y="341.166">1</text><text fill="#000000" font-family="sans-serif" font-size="6.5" lengthAdjust="spacing" textLength="3.5" x="330.434" y="363.9683">1</text></g><!--link OperationTypeRepository to OperationType--><g id="link_OperationTypeRepository_OperationType"><path codeLine="99" d="M157.335,426.02 C177.435,434.815 195,442.5 195,442.5 C195,442.5 379,460 379,460 C379,460 399.3792,469.4711 424.6942,481.2311 " fill="none" id="OperationTypeRepository-to-OperationType" style="stroke:#181818;stroke-width:0.5;"/><polygon fill="#181818" points="427.415,482.495,424.1765,478.7853,425.1477,481.4417,422.4913,482.413,427.415,482.495" style="stroke:#181818;stroke-width:0.5;"/><text fill="#000000" font-family="sans-serif" font-size="6.5" lengthAdjust="spacing" textLength="30" x="335" y="454.0142">categories</text><text fill="#000000" font-family="sans-serif" font-size="6.5" lengthAdjust="spacing" textLength="3.5" x="161.085" y="436.9262">1</text><text fill="#000000" font-family="sans-serif" font-size="6.5" lengthAdjust="spacing" textLength="2.5" x="416.8914" y="476.7675">*</text></g><!--link WorkstationTypeRepository to WorkstationType--><g id="link_WorkstationTypeRepository_WorkstationType"><path codeLine="100" d="M342.245,430.65 C348.845,472.605 360,543.5 360,543.5 C360,543.5 398.0278,560.9301 434.2478,577.5301 " fill="none" id="WorkstationTypeRepository-to-WorkstationType" style="stroke:#181818;stroke-width:0.5;"/><polygon fill="#181818" points="436.975,578.78,433.7174,575.087,434.7023,577.7384,432.0509,578.7233,436.975,578.78" style="stroke:#181818;stroke-width:0.5;"/><text fill="#000000" font-family="sans-serif" font-size="6.5" lengthAdjust="spacing" textLength="30" x="360.5" y="515.7642">categories</text><text fill="#000000" font-family="sans-serif" font-size="6.5" lengthAdjust="spacing" textLength="3.5" x="339.0913" y="441.6939">1</text><text fill="#000000" font-family="sans-serif" font-size="6.5" lengthAdjust="spacing" textLength="2.5" x="430.5182" y="575.1835">*</text></g><!--link OperationType to WorkstationType--><g id="link_OperationType_WorkstationType"><path codeLine="101" d="M492,543.51 C492,553.285 492,561.135 492,570.915 " fill="none" id="OperationType-to-WorkstationType" style="stroke:#181818;stroke-width:0.5;"/><polygon fill="#181818" points="492,573.915,494,569.415,492,571.415,490,569.415,492,573.915" style="stroke:#181818;stroke-width:0.5;"/><text fill="#000000" font-family="sans-serif" font-size="6.5" lengthAdjust="spacing" textLength="2.5" x="489.3477" y="554.7546">*</text><text fill="#000000" font-family="sans-serif" font-size="6.5" lengthAdjust="spacing" textLength="2.5" x="489.3555" y="568.3958">*</text></g><!--link WorkstationService to WorkstationException--><g id="link_WorkstationService_WorkstationException"><path codeLine="102" d="M718.56,212.81 C815.875,227.45 942.5,246.5 942.5,246.5 C942.5,246.5 981.5362,262.3893 1017.5512,277.0443 " fill="none" id="WorkstationService-to-WorkstationException" style="stroke:#181818;stroke-width:0.5;stroke-dasharray:7.0,7.0;"/><polygon fill="#181818" points="1020.33,278.175,1016.9157,274.6264,1018.0144,277.2327,1015.4081,278.3314,1020.33,278.175" style="stroke:#181818;stroke-width:0.5;"/><text fill="#000000" font-family="sans-serif" font-size="6.5" lengthAdjust="spacing" textLength="19" x="914" y="240.5142">throws</text></g><!--link WorkstationException to RuntimeException--><g id="link_WorkstationException_RuntimeException"><path codeLine="103" d="M1045.4,320.86 C1019.875,341.26 988.965,365.9605 968.455,382.3555 " fill="none" id="WorkstationException-to-RuntimeException" style="stroke:#181818;stroke-width:0.5;"/><polygon fill="none" points="961.425,387.975,970.3282,384.6988,966.5818,380.0121,961.425,387.975" style="stroke:#181818;stroke-width:0.5;"/></g><!--link OperationService to OperationException--><g id="link_OperationService_OperationException"><path codeLine="104" d="M448.005,212.53 C468.96,220.75 490,229 490,229 C490,229 539.5,233 539.5,233 C539.5,233 623.5,246.5 623.5,246.5 C623.5,246.5 685.0548,262.7777 740.5048,277.4477 " fill="none" id="OperationService-to-OperationException" style="stroke:#181818;stroke-width:0.5;stroke-dasharray:7.0,7.0;"/><polygon fill="#181818" points="743.405,278.215,739.5662,275.1306,740.9882,277.5756,738.5431,278.9975,743.405,278.215" style="stroke:#181818;stroke-width:0.5;"/><text fill="#000000" font-family="sans-serif" font-size="6.5" lengthAdjust="spacing" textLength="19" x="596.5" y="240.5142">throws</text></g><!--link OperationException to RuntimeException--><g id="link_OperationException_RuntimeException"><path codeLine="105" d="M848.205,320.86 C873.835,341.26 904.8837,365.9746 925.4787,382.3696 " fill="none" id="OperationException-to-RuntimeException" style="stroke:#181818;stroke-width:0.5;"/><polygon fill="none" points="932.52,387.975,927.3471,380.0225,923.6102,384.7167,932.52,387.975" style="stroke:#181818;stroke-width:0.5;"/></g><!--SRC=[pLPDZzem4BtdLrYSe8LLUqKL4ljHALAtbPPTzUnDfi72s95jogRj_lSwKKZiP1p2zb8k4FlDc-VdOIPwnqHE5TsJd2Oxci7651o8WiHGaN68T0FGMvhA8nCP-K6vTdSu4s2A74WkUL4-E7i9frglZL7i-M0WJgJOi5z0FaHHdP1Cdk89-HqH-wd0v6PhKyEt71GrJ8hlKksqgNvkm1poHxQ7fxYEU8rU7QORAOoId8Fo6HsA5b8Zoi_x38o3URHdqTCPMP8lJ9jFdPrL6vPKIXjLKtdI7D_EoR4DAn_r2LNoni901ge-WgEqENLGPuFegFJMLuWv6r0_MG91P-hz_ziMNEIRFNc0N6fcf2fyMvfr1jh9jN3NfpDFGopigKG2LNONDsHdcxyA2-w6JzjX2Epr7GscwbYxvdpCbLlaTH7VJey-8hv5ZZLaoDsBpQDnccSfEL3HXX_ob1gqKLHbroEP4-dQqsV5QswyFqYzUUuWwRsGy3NNlfpNxrRtlKo11__l9OLRsoorR4oOTaNGFTYrZMtU8ckN7LyrKXdEkJlPfYoTav9qTiRjVvNLj1uBkwTvjsxdfqRZIFNozuIwhjwz992NoA2p3SAjbKurhha2cXP3zOun1lc-IlDP7aHw8HL-1-W1lDhpvG_LDIBTWpV2nvDueXyEmjYRRX5sTzmRnDNL2dypk20UcTSH_hRHoLOFiWWR-1xn2OXCwXBdJQgbVN5p1ayW9Dpwb-GOd43ZoFeKKMzsdvED1eIwyTBlwOxWypJTuCXJjLZqPB9wnll0oST91Iw_BvSPf7hRDOK4DCpl9ZqJ4Zj5irx9313qBzsXyDbBU21iH4crZMX9p5R9ewUmtLqi_gpwdM2u0X1kP0zd_Wi0]--></g></svg>