<?xml version="1.0" encoding="us-ascii" standalone="no"?><svg xmlns="http://www.w3.org/2000/svg" xmlns:xlink="http://www.w3.org/1999/xlink" contentStyleType="text/css" height="1105px" preserveAspectRatio="none" style="width:679px;height:1105px;background:#FFFFFF;" version="1.1" viewBox="0 0 679 1105" width="679px" zoomAndPan="magnify"><defs/><g><text fill="#000000" font-family="sans-serif" font-size="14" font-weight="bold" lengthAdjust="spacing" textLength="228" x="226.5" y="30.1074">System Sequence Diagram (SSD)</text><rect fill="#FFFFFF" height="880.5371" style="stroke:#181818;stroke-width:1.0;" width="10" x="92" y="133.2422"/><rect fill="#FFFFFF" height="31.291" style="stroke:#181818;stroke-width:1.0;" width="10" x="434" y="156.5332"/><rect fill="#FFFFFF" height="31.291" style="stroke:#181818;stroke-width:1.0;" width="10" x="434" y="219.1152"/><rect fill="#FFFFFF" height="57.582" style="stroke:#181818;stroke-width:1.0;" width="10" x="434" y="281.6973"/><rect fill="#FFFFFF" height="101.873" style="stroke:#181818;stroke-width:1.0;" width="10" x="434" y="370.5703"/><rect fill="#FFFFFF" height="101.873" style="stroke:#181818;stroke-width:1.0;" width="10" x="434" y="558.6563"/><rect fill="#FFFFFF" height="101.873" style="stroke:#181818;stroke-width:1.0;" width="10" x="434" y="737.1113"/><rect fill="none" height="378.832" style="stroke:#000000;stroke-width:1.5;" width="662" x="10" y="296.6973"/><rect fill="none" height="50.582" style="stroke:#000000;stroke-width:1.5;" width="461" x="20" y="429.8613"/><rect fill="none" height="50.582" style="stroke:#000000;stroke-width:1.5;" width="461" x="20" y="617.9473"/><rect fill="none" height="209.377" style="stroke:#000000;stroke-width:1.5;" width="656" x="10" y="796.4023"/><rect fill="none" height="98.5039" style="stroke:#000000;stroke-width:1.5;" width="461" x="20" y="900.2754"/><line style="stroke:#181818;stroke-width:0.5;stroke-dasharray:5.0,5.0;" x1="97" x2="97" y1="123.2422" y2="1022.7793"/><line style="stroke:#181818;stroke-width:0.5;stroke-dasharray:5.0,5.0;" x1="439" x2="439" y1="123.2422" y2="1022.7793"/><text fill="#000000" font-family="sans-serif" font-size="14" lengthAdjust="spacing" textLength="128" x="30" y="119.7285">Production Manager</text><ellipse cx="97" cy="53.1211" fill="#E3E3E3" rx="8" ry="8" style="stroke:#181818;stroke-width:0.5;"/><path d="M97,61.1211 L97,88.1211 M84,69.1211 L110,69.1211 M97,88.1211 L84,103.1211 M97,88.1211 L110,103.1211 " fill="none" style="stroke:#181818;stroke-width:0.5;"/><text fill="#000000" font-family="sans-serif" font-size="14" lengthAdjust="spacing" textLength="128" x="30" y="1036.8867">Production Manager</text><ellipse cx="97" cy="1048.9004" fill="#E3E3E3" rx="8" ry="8" style="stroke:#181818;stroke-width:0.5;"/><path d="M97,1056.9004 L97,1083.9004 M84,1064.9004 L110,1064.9004 M97,1083.9004 L84,1098.9004 M97,1083.9004 L110,1098.9004 " fill="none" style="stroke:#181818;stroke-width:0.5;"/><rect fill="#E3E3E3" height="32.6211" rx="2.5" ry="2.5" style="stroke:#181818;stroke-width:0.5;" width="64" x="407" y="89.6211"/><text fill="#000000" font-family="sans-serif" font-size="14" lengthAdjust="spacing" textLength="50" x="414" y="111.7285">:System</text><rect fill="#E3E3E3" height="32.6211" rx="2.5" ry="2.5" style="stroke:#181818;stroke-width:0.5;" width="64" x="407" y="1021.7793"/><text fill="#000000" font-family="sans-serif" font-size="14" lengthAdjust="spacing" textLength="50" x="414" y="1043.8867">:System</text><rect fill="#FFFFFF" height="880.5371" style="stroke:#181818;stroke-width:1.0;" width="10" x="92" y="133.2422"/><rect fill="#FFFFFF" height="31.291" style="stroke:#181818;stroke-width:1.0;" width="10" x="434" y="156.5332"/><rect fill="#FFFFFF" height="31.291" style="stroke:#181818;stroke-width:1.0;" width="10" x="434" y="219.1152"/><rect fill="#FFFFFF" height="57.582" style="stroke:#181818;stroke-width:1.0;" width="10" x="434" y="281.6973"/><rect fill="#FFFFFF" height="101.873" style="stroke:#181818;stroke-width:1.0;" width="10" x="434" y="370.5703"/><rect fill="#FFFFFF" height="101.873" style="stroke:#181818;stroke-width:1.0;" width="10" x="434" y="558.6563"/><rect fill="#FFFFFF" height="101.873" style="stroke:#181818;stroke-width:1.0;" width="10" x="434" y="737.1113"/><polygon fill="#181818" points="422,152.5332,432,156.5332,422,160.5332,426,156.5332" style="stroke:#181818;stroke-width:1.0;"/><line style="stroke:#181818;stroke-width:1.0;" x1="102" x2="428" y1="156.5332" y2="156.5332"/><text fill="#000000" font-family="sans-serif" font-size="13" font-weight="bold" lengthAdjust="spacing" textLength="7" x="109" y="151.2705">1</text><text fill="#000000" font-family="sans-serif" font-size="13" lengthAdjust="spacing" textLength="237" x="120" y="151.2705">asks to change the category of a product</text><polygon fill="#181818" points="113,183.8242,103,187.8242,113,191.8242,109,187.8242" style="stroke:#181818;stroke-width:1.0;"/><line style="stroke:#181818;stroke-width:1.0;stroke-dasharray:2.0,2.0;" x1="107" x2="438" y1="187.8242" y2="187.8242"/><text fill="#000000" font-family="sans-serif" font-size="13" font-weight="bold" lengthAdjust="spacing" textLength="7" x="119" y="182.5615">2</text><text fill="#000000" font-family="sans-serif" font-size="13" lengthAdjust="spacing" textLength="297" x="130" y="182.5615">shows the list of products and asks for confirmation</text><polygon fill="#181818" points="422,215.1152,432,219.1152,422,223.1152,426,219.1152" style="stroke:#181818;stroke-width:1.0;"/><line style="stroke:#181818;stroke-width:1.0;" x1="102" x2="428" y1="219.1152" y2="219.1152"/><text fill="#000000" font-family="sans-serif" font-size="13" font-weight="bold" lengthAdjust="spacing" textLength="7" x="109" y="213.8525">3</text><text fill="#000000" font-family="sans-serif" font-size="13" lengthAdjust="spacing" textLength="294" x="120" y="213.8525">confirms that he changes the category of a product</text><polygon fill="#181818" points="113,246.4063,103,250.4063,113,254.4063,109,250.4063" style="stroke:#181818;stroke-width:1.0;"/><line style="stroke:#181818;stroke-width:1.0;stroke-dasharray:2.0,2.0;" x1="107" x2="438" y1="250.4063" y2="250.4063"/><text fill="#000000" font-family="sans-serif" font-size="13" font-weight="bold" lengthAdjust="spacing" textLength="7" x="119" y="245.1436">4</text><text fill="#000000" font-family="sans-serif" font-size="13" lengthAdjust="spacing" textLength="158" x="130" y="245.1436">shows the list of categories</text><polygon fill="#181818" points="422,277.6973,432,281.6973,422,285.6973,426,281.6973" style="stroke:#181818;stroke-width:1.0;"/><line style="stroke:#181818;stroke-width:1.0;" x1="102" x2="428" y1="281.6973" y2="281.6973"/><text fill="#000000" font-family="sans-serif" font-size="13" font-weight="bold" lengthAdjust="spacing" textLength="7" x="109" y="276.4346">5</text><text fill="#000000" font-family="sans-serif" font-size="13" lengthAdjust="spacing" textLength="237" x="120" y="276.4346">selects an option (new/existing category)</text><path d="M10,296.6973 L71,296.6973 L71,305.9883 L61,315.9883 L10,315.9883 L10,296.6973 " fill="#EEEEEE" style="stroke:#000000;stroke-width:1.5;"/><rect fill="none" height="378.832" style="stroke:#000000;stroke-width:1.5;" width="662" x="10" y="296.6973"/><text fill="#000000" font-family="sans-serif" font-size="13" font-weight="bold" lengthAdjust="spacing" textLength="16" x="25" y="311.7256">alt</text><text fill="#000000" font-family="sans-serif" font-size="11" font-weight="bold" lengthAdjust="spacing" textLength="83" x="86" y="310.5674">[new category]</text><polygon fill="#181818" points="113,335.2793,103,339.2793,113,343.2793,109,339.2793" style="stroke:#181818;stroke-width:1.0;"/><line style="stroke:#181818;stroke-width:1.0;stroke-dasharray:2.0,2.0;" x1="107" x2="438" y1="339.2793" y2="339.2793"/><text fill="#000000" font-family="sans-serif" font-size="13" font-weight="bold" lengthAdjust="spacing" textLength="7" x="119" y="334.0166">6</text><text fill="#000000" font-family="sans-serif" font-size="13" lengthAdjust="spacing" textLength="140" x="130" y="334.0166">requests category name</text><polygon fill="#181818" points="422,366.5703,432,370.5703,422,374.5703,426,370.5703" style="stroke:#181818;stroke-width:1.0;"/><line style="stroke:#181818;stroke-width:1.0;" x1="102" x2="428" y1="370.5703" y2="370.5703"/><text fill="#000000" font-family="sans-serif" font-size="13" font-weight="bold" lengthAdjust="spacing" textLength="7" x="109" y="365.3076">7</text><text fill="#000000" font-family="sans-serif" font-size="13" lengthAdjust="spacing" textLength="137" x="120" y="365.3076">provides category name</text><line style="stroke:#181818;stroke-width:1.0;" x1="444" x2="486" y1="401.8613" y2="401.8613"/><line style="stroke:#181818;stroke-width:1.0;" x1="486" x2="486" y1="401.8613" y2="414.8613"/><line style="stroke:#181818;stroke-width:1.0;" x1="445" x2="486" y1="414.8613" y2="414.8613"/><polygon fill="#181818" points="455,410.8613,445,414.8613,455,418.8613,451,414.8613" style="stroke:#181818;stroke-width:1.0;"/><text fill="#000000" font-family="sans-serif" font-size="13" font-weight="bold" lengthAdjust="spacing" textLength="7" x="451" y="396.5986">8</text><text fill="#000000" font-family="sans-serif" font-size="13" lengthAdjust="spacing" textLength="87" x="462" y="396.5986">saves category</text><path d="M20,429.8613 L81,429.8613 L81,439.1523 L71,449.1523 L20,449.1523 L20,429.8613 " fill="#EEEEEE" style="stroke:#000000;stroke-width:1.5;"/><rect fill="none" height="50.582" style="stroke:#000000;stroke-width:1.5;" width="461" x="20" y="429.8613"/><text fill="#000000" font-family="sans-serif" font-size="13" font-weight="bold" lengthAdjust="spacing" textLength="16" x="35" y="444.8896">alt</text><text fill="#000000" font-family="sans-serif" font-size="11" font-weight="bold" lengthAdjust="spacing" textLength="82" x="96" y="443.7314">[system error]</text><polygon fill="#181818" points="113,468.4434,103,472.4434,113,476.4434,109,472.4434" style="stroke:#181818;stroke-width:1.0;"/><line style="stroke:#181818;stroke-width:1.0;stroke-dasharray:2.0,2.0;" x1="107" x2="438" y1="472.4434" y2="472.4434"/><text fill="#000000" font-family="sans-serif" font-size="13" font-weight="bold" lengthAdjust="spacing" textLength="7" x="119" y="467.1807">9</text><text fill="#000000" font-family="sans-serif" font-size="13" lengthAdjust="spacing" textLength="221" x="130" y="467.1807">shows error message (Database error)</text><line style="stroke:#000000;stroke-width:1.0;stroke-dasharray:2.0,2.0;" x1="10" x2="672" y1="488.4434" y2="488.4434"/><text fill="#000000" font-family="sans-serif" font-size="11" font-weight="bold" lengthAdjust="spacing" textLength="103" x="15" y="500.3135">[existing category]</text><polygon fill="#181818" points="113,523.3652,103,527.3652,113,531.3652,109,527.3652" style="stroke:#181818;stroke-width:1.0;"/><line style="stroke:#181818;stroke-width:1.0;stroke-dasharray:2.0,2.0;" x1="107" x2="438" y1="527.3652" y2="527.3652"/><text fill="#000000" font-family="sans-serif" font-size="13" font-weight="bold" lengthAdjust="spacing" textLength="14" x="119" y="522.1025">10</text><text fill="#000000" font-family="sans-serif" font-size="13" lengthAdjust="spacing" textLength="120" x="137" y="522.1025">requests category ID</text><polygon fill="#181818" points="422,554.6563,432,558.6563,422,562.6563,426,558.6563" style="stroke:#181818;stroke-width:1.0;"/><line style="stroke:#181818;stroke-width:1.0;" x1="102" x2="428" y1="558.6563" y2="558.6563"/><text fill="#000000" font-family="sans-serif" font-size="13" font-weight="bold" lengthAdjust="spacing" textLength="14" x="109" y="553.3936">11</text><text fill="#000000" font-family="sans-serif" font-size="13" lengthAdjust="spacing" textLength="117" x="127" y="553.3936">provides category ID</text><line style="stroke:#181818;stroke-width:1.0;" x1="444" x2="486" y1="589.9473" y2="589.9473"/><line style="stroke:#181818;stroke-width:1.0;" x1="486" x2="486" y1="589.9473" y2="602.9473"/><line style="stroke:#181818;stroke-width:1.0;" x1="445" x2="486" y1="602.9473" y2="602.9473"/><polygon fill="#181818" points="455,598.9473,445,602.9473,455,606.9473,451,602.9473" style="stroke:#181818;stroke-width:1.0;"/><text fill="#000000" font-family="sans-serif" font-size="13" font-weight="bold" lengthAdjust="spacing" textLength="14" x="451" y="584.6846">12</text><text fill="#000000" font-family="sans-serif" font-size="13" lengthAdjust="spacing" textLength="191" x="469" y="584.6846">checks if category already exists</text><path d="M20,617.9473 L81,617.9473 L81,627.2383 L71,637.2383 L20,637.2383 L20,617.9473 " fill="#EEEEEE" style="stroke:#000000;stroke-width:1.5;"/><rect fill="none" height="50.582" style="stroke:#000000;stroke-width:1.5;" width="461" x="20" y="617.9473"/><text fill="#000000" font-family="sans-serif" font-size="13" font-weight="bold" lengthAdjust="spacing" textLength="16" x="35" y="632.9756">alt</text><text fill="#000000" font-family="sans-serif" font-size="11" font-weight="bold" lengthAdjust="spacing" textLength="138" x="96" y="631.8174">[category does not exist]</text><polygon fill="#181818" points="113,656.5293,103,660.5293,113,664.5293,109,660.5293" style="stroke:#181818;stroke-width:1.0;"/><line style="stroke:#181818;stroke-width:1.0;stroke-dasharray:2.0,2.0;" x1="107" x2="438" y1="660.5293" y2="660.5293"/><text fill="#000000" font-family="sans-serif" font-size="13" font-weight="bold" lengthAdjust="spacing" textLength="14" x="119" y="655.2666">13</text><text fill="#000000" font-family="sans-serif" font-size="13" lengthAdjust="spacing" textLength="274" x="137" y="655.2666">shows error message (Category does not exist)</text><polygon fill="#181818" points="113,701.8203,103,705.8203,113,709.8203,109,705.8203" style="stroke:#181818;stroke-width:1.0;"/><line style="stroke:#181818;stroke-width:1.0;stroke-dasharray:2.0,2.0;" x1="107" x2="438" y1="705.8203" y2="705.8203"/><text fill="#000000" font-family="sans-serif" font-size="13" font-weight="bold" lengthAdjust="spacing" textLength="14" x="119" y="700.5576">14</text><text fill="#000000" font-family="sans-serif" font-size="13" lengthAdjust="spacing" textLength="111" x="137" y="700.5576">requests product id</text><polygon fill="#181818" points="422,733.1113,432,737.1113,422,741.1113,426,737.1113" style="stroke:#181818;stroke-width:1.0;"/><line style="stroke:#181818;stroke-width:1.0;" x1="102" x2="428" y1="737.1113" y2="737.1113"/><text fill="#000000" font-family="sans-serif" font-size="13" font-weight="bold" lengthAdjust="spacing" textLength="14" x="109" y="731.8486">15</text><text fill="#000000" font-family="sans-serif" font-size="13" lengthAdjust="spacing" textLength="107" x="127" y="731.8486">types requested id</text><line style="stroke:#181818;stroke-width:1.0;" x1="444" x2="486" y1="768.4023" y2="768.4023"/><line style="stroke:#181818;stroke-width:1.0;" x1="486" x2="486" y1="768.4023" y2="781.4023"/><line style="stroke:#181818;stroke-width:1.0;" x1="445" x2="486" y1="781.4023" y2="781.4023"/><polygon fill="#181818" points="455,777.4023,445,781.4023,455,785.4023,451,781.4023" style="stroke:#181818;stroke-width:1.0;"/><text fill="#000000" font-family="sans-serif" font-size="13" font-weight="bold" lengthAdjust="spacing" textLength="14" x="451" y="763.1396">16</text><text fill="#000000" font-family="sans-serif" font-size="13" lengthAdjust="spacing" textLength="184" x="469" y="763.1396">checks if product already exists</text><path d="M10,796.4023 L71,796.4023 L71,805.6934 L61,815.6934 L10,815.6934 L10,796.4023 " fill="#EEEEEE" style="stroke:#000000;stroke-width:1.5;"/><rect fill="none" height="209.377" style="stroke:#000000;stroke-width:1.5;" width="656" x="10" y="796.4023"/><text fill="#000000" font-family="sans-serif" font-size="13" font-weight="bold" lengthAdjust="spacing" textLength="16" x="25" y="811.4307">alt</text><text fill="#000000" font-family="sans-serif" font-size="11" font-weight="bold" lengthAdjust="spacing" textLength="133" x="86" y="810.2725">[product does not exist]</text><polygon fill="#181818" points="113,834.9844,103,838.9844,113,842.9844,109,838.9844" style="stroke:#181818;stroke-width:1.0;"/><line style="stroke:#181818;stroke-width:1.0;stroke-dasharray:2.0,2.0;" x1="107" x2="438" y1="838.9844" y2="838.9844"/><text fill="#000000" font-family="sans-serif" font-size="13" font-weight="bold" lengthAdjust="spacing" textLength="14" x="119" y="833.7217">17</text><text fill="#000000" font-family="sans-serif" font-size="13" lengthAdjust="spacing" textLength="267" x="137" y="833.7217">shows error message (Product does not exist)</text><line style="stroke:#000000;stroke-width:1.0;stroke-dasharray:2.0,2.0;" x1="10" x2="666" y1="847.9844" y2="847.9844"/><line style="stroke:#181818;stroke-width:1.0;" x1="439" x2="481" y1="872.2754" y2="872.2754"/><line style="stroke:#181818;stroke-width:1.0;" x1="481" x2="481" y1="872.2754" y2="885.2754"/><line style="stroke:#181818;stroke-width:1.0;" x1="440" x2="481" y1="885.2754" y2="885.2754"/><polygon fill="#181818" points="450,881.2754,440,885.2754,450,889.2754,446,885.2754" style="stroke:#181818;stroke-width:1.0;"/><text fill="#000000" font-family="sans-serif" font-size="13" font-weight="bold" lengthAdjust="spacing" textLength="14" x="446" y="867.0127">18</text><text fill="#000000" font-family="sans-serif" font-size="13" lengthAdjust="spacing" textLength="190" x="464" y="867.0127">change the category of a product</text><path d="M20,900.2754 L81,900.2754 L81,909.5664 L71,919.5664 L20,919.5664 L20,900.2754 " fill="#EEEEEE" style="stroke:#000000;stroke-width:1.5;"/><rect fill="none" height="98.5039" style="stroke:#000000;stroke-width:1.5;" width="461" x="20" y="900.2754"/><text fill="#000000" font-family="sans-serif" font-size="13" font-weight="bold" lengthAdjust="spacing" textLength="16" x="35" y="915.3037">alt</text><text fill="#000000" font-family="sans-serif" font-size="11" font-weight="bold" lengthAdjust="spacing" textLength="82" x="96" y="914.1455">[system error]</text><polygon fill="#181818" points="113,938.8574,103,942.8574,113,946.8574,109,942.8574" style="stroke:#181818;stroke-width:1.0;"/><line style="stroke:#181818;stroke-width:1.0;stroke-dasharray:2.0,2.0;" x1="107" x2="438" y1="942.8574" y2="942.8574"/><text fill="#000000" font-family="sans-serif" font-size="13" font-weight="bold" lengthAdjust="spacing" textLength="14" x="119" y="937.5947">19</text><text fill="#000000" font-family="sans-serif" font-size="13" lengthAdjust="spacing" textLength="221" x="137" y="937.5947">shows error message (Database error)</text><line style="stroke:#000000;stroke-width:1.0;stroke-dasharray:2.0,2.0;" x1="20" x2="481" y1="951.8574" y2="951.8574"/><text fill="#000000" font-family="sans-serif" font-size="11" font-weight="bold" lengthAdjust="spacing" textLength="55" x="25" y="963.7275">[success]</text><polygon fill="#181818" points="113,986.7793,103,990.7793,113,994.7793,109,990.7793" style="stroke:#181818;stroke-width:1.0;"/><line style="stroke:#181818;stroke-width:1.0;stroke-dasharray:2.0,2.0;" x1="107" x2="438" y1="990.7793" y2="990.7793"/><text fill="#000000" font-family="sans-serif" font-size="13" font-weight="bold" lengthAdjust="spacing" textLength="14" x="119" y="985.5166">20</text><text fill="#000000" font-family="sans-serif" font-size="13" lengthAdjust="spacing" textLength="270" x="137" y="985.5166">shows all data and displays operation success</text><!--SRC=[pPNDhjem48NtUOeHArXSTS-YcxBf0Wc99vXh3s2HsAd7WURjEtOIRe0aX4gLwfML77zpPiO_V3QsH8y55CuwTVAk80Y-eenlVqfKPppIFjGvWISLq1xple1FgDtLs2CSC6VAic22IFSr1ofWJxygiefWO_0OvSlzVhFACgo2irNnILxcAZWFYvrtkbB1E0jRj1BJBm0PTjjC0WMZJ8asm6BTaDE_Pfe8veA1eZW36RijV7plFAn5UcO83jH9t4kA9m8bygFpDRW389HDxBJs1kleq8uMzo5auQybStVb1CiDXmXgCGneTHFq89afPm_65nXJIp1DWp4UJBVBOWGC42qdz_plxBTGG_o6JQQScfJ1bQbxIqlNR_HRe75NT4vNu-um3o1hRj8lpqE-VTnIB15lDR1OqDsI4UVTUCX0gdSncgQ0axZEOByeUEdnxjHTmjneoNlddmJZ_KfwA8XPJWWiDnZm4vcQxwj1q7Cr7XLaTPCIvH7rsBhnFVJSYv-RR4ONNdQWXtcveVjdvaHAJfqvV94mzuIwRhBYxB4DDvrs4j-wq0Z_lYC_Xe7FhPbkIsp9NMicozzU063q6oStrAKuR1cakyM3IoThtKKVANKiSoTvKULP5TuDibRPlE9IUgJ60j_bD-En-AzFTJpCN2abs3UyO9w35WFf4TE6onnhbhkTV7h19edphfhU_0y0]--></g></svg>