<?xml version="1.0" encoding="us-ascii" standalone="no"?><svg xmlns="http://www.w3.org/2000/svg" xmlns:xlink="http://www.w3.org/1999/xlink" contentStyleType="text/css" height="1164.6px" preserveAspectRatio="none" style="width:1662px;height:1164px;background:#FFFFFF;" version="1.1" viewBox="0 0 1662 1164" width="1662.3px" zoomAndPan="magnify"><defs/><g><!--cluster UI--><g id="cluster_UI"><rect fill="none" height="90.9" rx="2.25" ry="2.25" style="stroke:#000000;stroke-width:1.35;" width="253.8" x="676.8" y="6.3"/><text fill="#000000" font-family="sans-serif" font-size="12.6" font-weight="bold" lengthAdjust="spacing" textLength="12.6" x="797.4" y="21.6967">UI</text></g><!--cluster Controller--><g id="cluster_Controller"><rect fill="none" height="108" rx="2.25" ry="2.25" style="stroke:#000000;stroke-width:1.35;" width="684.9" x="525.6" y="126.9"/><text fill="#000000" font-family="sans-serif" font-size="12.6" font-weight="bold" lengthAdjust="spacing" textLength="63.9" x="836.1" y="142.2967">Controller</text></g><!--cluster Service--><g id="cluster_Service"><rect fill="none" height="124.2" rx="2.25" ry="2.25" style="stroke:#000000;stroke-width:1.35;" width="724.5" x="491.4" y="264.6"/><text fill="#000000" font-family="sans-serif" font-size="12.6" font-weight="bold" lengthAdjust="spacing" textLength="48.6" x="829.35" y="279.9967">Service</text></g><!--cluster Repository--><g id="cluster_Repository"><rect fill="none" height="288.9" rx="2.25" ry="2.25" style="stroke:#000000;stroke-width:1.35;" width="656.1" x="6.3" y="434.7"/><text fill="#000000" font-family="sans-serif" font-size="12.6" font-weight="bold" lengthAdjust="spacing" textLength="68.4" x="300.15" y="450.0967">Repository</text></g><!--cluster Model--><g id="cluster_Model"><rect fill="none" height="389.7" rx="2.25" ry="2.25" style="stroke:#000000;stroke-width:1.35;" width="975.6" x="681.3" y="769.5"/><text fill="#000000" font-family="sans-serif" font-size="12.6" font-weight="bold" lengthAdjust="spacing" textLength="39.6" x="1149.3" y="784.8967">Model</text></g><!--cluster Exception--><g id="cluster_Exception"><rect fill="none" height="263.7" rx="2.25" ry="2.25" style="stroke:#000000;stroke-width:1.35;" width="363.6" x="800.1" y="451.35"/><text fill="#000000" font-family="sans-serif" font-size="12.6" font-weight="bold" lengthAdjust="spacing" textLength="63" x="950.4" y="466.7467">Exception</text></g><!--class CheckHasSufficientStockProductUI--><g id="elem_CheckHasSufficientStockProductUI"><rect codeLine="7" fill="#F1F1F1" height="43.2" id="CheckHasSufficientStockProductUI" rx="2.25" ry="2.25" style="stroke:#181818;stroke-width:0.45;" width="225" x="691.2" y="39.6"/><ellipse cx="704.7" cy="54" fill="#ADD1B2" rx="9.9" ry="9.9" style="stroke:#181818;stroke-width:0.9;"/><path d="M707.1891,50.2875 Q707.3297,50.0906 707.4984,49.9922 Q707.6672,49.8938 707.8641,49.8938 Q708.2016,49.8938 708.4125,50.1328 Q708.6234,50.3578 708.6234,50.9063 L708.6234,52.2141 Q708.6234,52.7625 708.4125,53.0016 Q708.2016,53.2406 707.8641,53.2406 Q707.5547,53.2406 707.3719,53.0578 Q707.1891,52.8891 707.0906,52.425 Q707.0484,52.1016 706.8797,51.9328 Q706.5844,51.5953 706.0359,51.3984 Q705.4875,51.2016 704.925,51.2016 Q704.2359,51.2016 703.6594,51.4969 Q703.0969,51.7922 702.6469,52.4672 Q702.2109,53.1422 702.2109,54.0703 L702.2109,55.0547 Q702.2109,56.1656 703.0125,56.9109 Q703.8141,57.6422 705.2484,57.6422 Q706.0922,57.6422 706.6828,57.4172 Q707.0344,57.2766 707.4141,56.8828 Q707.6531,56.6438 707.7797,56.5734 Q707.9203,56.5031 708.1031,56.5031 Q708.3984,56.5031 708.6234,56.7422 Q708.8625,56.9672 708.8625,57.2766 Q708.8625,57.5859 708.5531,57.9516 Q708.1031,58.4719 707.3859,58.7672 Q706.4156,59.175 705.2484,59.175 Q703.8844,59.175 702.8016,58.6125 Q701.9156,58.1625 701.2969,57.2063 Q700.6781,56.2359 700.6781,55.0828 L700.6781,54.0422 Q700.6781,52.8469 701.2266,51.8203 Q701.7891,50.7797 702.7734,50.2313 Q703.7578,49.6688 704.8688,49.6688 Q705.5297,49.6688 706.1063,49.8234 Q706.6969,49.9641 707.1891,50.2875 Z " fill="#000000"/><text fill="#000000" font-family="sans-serif" font-size="12.6" lengthAdjust="spacing" textLength="196.2" x="717.3" y="59.2172">CheckHasSufficientStockProductUI</text><line style="stroke:#181818;stroke-width:0.45;" x1="692.1" x2="915.3" y1="68.4" y2="68.4"/><line style="stroke:#181818;stroke-width:0.45;" x1="692.1" x2="915.3" y1="75.6" y2="75.6"/></g><!--class ProductController--><g id="elem_ProductController"><rect codeLine="12" fill="#F1F1F1" height="59.959" id="ProductController" rx="2.25" ry="2.25" style="stroke:#181818;stroke-width:0.45;" width="184.5" x="540.45" y="160.2"/><ellipse cx="579.06" cy="174.6" fill="#ADD1B2" rx="9.9" ry="9.9" style="stroke:#181818;stroke-width:0.9;"/><path d="M581.5491,170.8875 Q581.6897,170.6906 581.8584,170.5922 Q582.0272,170.4938 582.2241,170.4938 Q582.5616,170.4938 582.7725,170.7328 Q582.9834,170.9578 582.9834,171.5063 L582.9834,172.8141 Q582.9834,173.3625 582.7725,173.6016 Q582.5616,173.8406 582.2241,173.8406 Q581.9147,173.8406 581.7319,173.6578 Q581.5491,173.4891 581.4506,173.025 Q581.4084,172.7016 581.2397,172.5328 Q580.9444,172.1953 580.3959,171.9984 Q579.8475,171.8016 579.285,171.8016 Q578.5959,171.8016 578.0194,172.0969 Q577.4569,172.3922 577.0069,173.0672 Q576.5709,173.7422 576.5709,174.6703 L576.5709,175.6547 Q576.5709,176.7656 577.3725,177.5109 Q578.1741,178.2422 579.6084,178.2422 Q580.4522,178.2422 581.0428,178.0172 Q581.3944,177.8766 581.7741,177.4828 Q582.0131,177.2438 582.1397,177.1734 Q582.2803,177.1031 582.4631,177.1031 Q582.7584,177.1031 582.9834,177.3422 Q583.2225,177.5672 583.2225,177.8766 Q583.2225,178.1859 582.9131,178.5516 Q582.4631,179.0719 581.7459,179.3672 Q580.7756,179.775 579.6084,179.775 Q578.2444,179.775 577.1616,179.2125 Q576.2756,178.7625 575.6569,177.8063 Q575.0381,176.8359 575.0381,175.6828 L575.0381,174.6422 Q575.0381,173.4469 575.5866,172.4203 Q576.1491,171.3797 577.1334,170.8313 Q578.1178,170.2688 579.2288,170.2688 Q579.8897,170.2688 580.4663,170.4234 Q581.0569,170.5641 581.5491,170.8875 Z " fill="#000000"/><text fill="#000000" font-family="sans-serif" font-size="12.6" lengthAdjust="spacing" textLength="99.9" x="597.24" y="179.8172">ProductController</text><line style="stroke:#181818;stroke-width:0.45;" x1="541.35" x2="724.05" y1="189" y2="189"/><line style="stroke:#181818;stroke-width:0.45;" x1="541.35" x2="724.05" y1="196.2" y2="196.2"/><text fill="#000000" font-family="sans-serif" font-size="12.6" lengthAdjust="spacing" textLength="173.7" x="545.85" y="213.3967">+getProducts() : List&lt;Product&gt;</text></g><!--class ProductionController--><g id="elem_ProductionController"><rect codeLine="16" fill="#F1F1F1" height="59.959" id="ProductionController" rx="2.25" ry="2.25" style="stroke:#181818;stroke-width:0.45;" width="439.2" x="756.9" y="160.2"/><ellipse cx="914.175" cy="174.6" fill="#ADD1B2" rx="9.9" ry="9.9" style="stroke:#181818;stroke-width:0.9;"/><path d="M916.6641,170.8875 Q916.8047,170.6906 916.9734,170.5922 Q917.1422,170.4938 917.3391,170.4938 Q917.6766,170.4938 917.8875,170.7328 Q918.0984,170.9578 918.0984,171.5063 L918.0984,172.8141 Q918.0984,173.3625 917.8875,173.6016 Q917.6766,173.8406 917.3391,173.8406 Q917.0297,173.8406 916.8469,173.6578 Q916.6641,173.4891 916.5656,173.025 Q916.5234,172.7016 916.3547,172.5328 Q916.0594,172.1953 915.5109,171.9984 Q914.9625,171.8016 914.4,171.8016 Q913.7109,171.8016 913.1344,172.0969 Q912.5719,172.3922 912.1219,173.0672 Q911.6859,173.7422 911.6859,174.6703 L911.6859,175.6547 Q911.6859,176.7656 912.4875,177.5109 Q913.2891,178.2422 914.7234,178.2422 Q915.5672,178.2422 916.1578,178.0172 Q916.5094,177.8766 916.8891,177.4828 Q917.1281,177.2438 917.2547,177.1734 Q917.3953,177.1031 917.5781,177.1031 Q917.8734,177.1031 918.0984,177.3422 Q918.3375,177.5672 918.3375,177.8766 Q918.3375,178.1859 918.0281,178.5516 Q917.5781,179.0719 916.8609,179.3672 Q915.8906,179.775 914.7234,179.775 Q913.3594,179.775 912.2766,179.2125 Q911.3906,178.7625 910.7719,177.8063 Q910.1531,176.8359 910.1531,175.6828 L910.1531,174.6422 Q910.1531,173.4469 910.7016,172.4203 Q911.2641,171.3797 912.2484,170.8313 Q913.2328,170.2688 914.3438,170.2688 Q915.0047,170.2688 915.5813,170.4234 Q916.1719,170.5641 916.6641,170.8875 Z " fill="#000000"/><text fill="#000000" font-family="sans-serif" font-size="12.6" lengthAdjust="spacing" textLength="117" x="932.625" y="179.8172">ProductionController</text><line style="stroke:#181818;stroke-width:0.45;" x1="757.8" x2="1195.2" y1="189" y2="189"/><line style="stroke:#181818;stroke-width:0.45;" x1="757.8" x2="1195.2" y1="196.2" y2="196.2"/><text fill="#000000" font-family="sans-serif" font-size="12.6" lengthAdjust="spacing" textLength="428.4" x="762.3" y="213.3967">+getInsufficientRawMaterialStockForProduct(productID) : List&lt;RawMaterial&gt;</text></g><!--class ProductService--><g id="elem_ProductService"><rect codeLine="22" fill="#F1F1F1" height="76.718" id="ProductService" rx="2.25" ry="2.25" style="stroke:#181818;stroke-width:0.45;" width="225" x="505.8" y="297.9"/><ellipse cx="571.275" cy="312.3" fill="#ADD1B2" rx="9.9" ry="9.9" style="stroke:#181818;stroke-width:0.9;"/><path d="M573.7641,308.5875 Q573.9047,308.3906 574.0734,308.2922 Q574.2422,308.1938 574.4391,308.1938 Q574.7766,308.1938 574.9875,308.4328 Q575.1984,308.6578 575.1984,309.2063 L575.1984,310.5141 Q575.1984,311.0625 574.9875,311.3016 Q574.7766,311.5406 574.4391,311.5406 Q574.1297,311.5406 573.9469,311.3578 Q573.7641,311.1891 573.6656,310.725 Q573.6234,310.4016 573.4547,310.2328 Q573.1594,309.8953 572.6109,309.6984 Q572.0625,309.5016 571.5,309.5016 Q570.8109,309.5016 570.2344,309.7969 Q569.6719,310.0922 569.2219,310.7672 Q568.7859,311.4422 568.7859,312.3703 L568.7859,313.3547 Q568.7859,314.4656 569.5875,315.2109 Q570.3891,315.9422 571.8234,315.9422 Q572.6672,315.9422 573.2578,315.7172 Q573.6094,315.5766 573.9891,315.1828 Q574.2281,314.9438 574.3547,314.8734 Q574.4953,314.8031 574.6781,314.8031 Q574.9734,314.8031 575.1984,315.0422 Q575.4375,315.2672 575.4375,315.5766 Q575.4375,315.8859 575.1281,316.2516 Q574.6781,316.7719 573.9609,317.0672 Q572.9906,317.475 571.8234,317.475 Q570.4594,317.475 569.3766,316.9125 Q568.4906,316.4625 567.8719,315.5063 Q567.2531,314.5359 567.2531,313.3828 L567.2531,312.3422 Q567.2531,311.1469 567.8016,310.1203 Q568.3641,309.0797 569.3484,308.5313 Q570.3328,307.9688 571.4438,307.9688 Q572.1047,307.9688 572.6813,308.1234 Q573.2719,308.2641 573.7641,308.5875 Z " fill="#000000"/><text fill="#000000" font-family="sans-serif" font-size="12.6" lengthAdjust="spacing" textLength="86.4" x="589.725" y="317.5172">ProductService</text><line style="stroke:#181818;stroke-width:0.45;" x1="506.7" x2="729.9" y1="326.7" y2="326.7"/><line style="stroke:#181818;stroke-width:0.45;" x1="506.7" x2="729.9" y1="333.9" y2="333.9"/><text fill="#000000" font-family="sans-serif" font-size="12.6" lengthAdjust="spacing" textLength="173.7" x="511.2" y="351.0967">+getProducts() : List&lt;Product&gt;</text><text fill="#000000" font-family="sans-serif" font-size="12.6" lengthAdjust="spacing" textLength="214.2" x="511.2" y="367.8557">+getProductByID(productID) : Product</text></g><!--class ProductionService--><g id="elem_ProductionService"><rect codeLine="27" fill="#F1F1F1" height="59.959" id="ProductionService" rx="2.25" ry="2.25" style="stroke:#181818;stroke-width:0.45;" width="439.2" x="762.3" y="306"/><ellipse cx="926.325" cy="320.4" fill="#ADD1B2" rx="9.9" ry="9.9" style="stroke:#181818;stroke-width:0.9;"/><path d="M928.8141,316.6875 Q928.9547,316.4906 929.1234,316.3922 Q929.2922,316.2938 929.4891,316.2938 Q929.8266,316.2938 930.0375,316.5328 Q930.2484,316.7578 930.2484,317.3063 L930.2484,318.6141 Q930.2484,319.1625 930.0375,319.4016 Q929.8266,319.6406 929.4891,319.6406 Q929.1797,319.6406 928.9969,319.4578 Q928.8141,319.2891 928.7156,318.825 Q928.6734,318.5016 928.5047,318.3328 Q928.2094,317.9953 927.6609,317.7984 Q927.1125,317.6016 926.55,317.6016 Q925.8609,317.6016 925.2844,317.8969 Q924.7219,318.1922 924.2719,318.8672 Q923.8359,319.5422 923.8359,320.4703 L923.8359,321.4547 Q923.8359,322.5656 924.6375,323.3109 Q925.4391,324.0422 926.8734,324.0422 Q927.7172,324.0422 928.3078,323.8172 Q928.6594,323.6766 929.0391,323.2828 Q929.2781,323.0438 929.4047,322.9734 Q929.5453,322.9031 929.7281,322.9031 Q930.0234,322.9031 930.2484,323.1422 Q930.4875,323.3672 930.4875,323.6766 Q930.4875,323.9859 930.1781,324.3516 Q929.7281,324.8719 929.0109,325.1672 Q928.0406,325.575 926.8734,325.575 Q925.5094,325.575 924.4266,325.0125 Q923.5406,324.5625 922.9219,323.6063 Q922.3031,322.6359 922.3031,321.4828 L922.3031,320.4422 Q922.3031,319.2469 922.8516,318.2203 Q923.4141,317.1797 924.3984,316.6313 Q925.3828,316.0688 926.4938,316.0688 Q927.1547,316.0688 927.7313,316.2234 Q928.3219,316.3641 928.8141,316.6875 Z " fill="#000000"/><text fill="#000000" font-family="sans-serif" font-size="12.6" lengthAdjust="spacing" textLength="103.5" x="944.775" y="325.6172">ProductionService</text><line style="stroke:#181818;stroke-width:0.45;" x1="763.2" x2="1200.6" y1="334.8" y2="334.8"/><line style="stroke:#181818;stroke-width:0.45;" x1="763.2" x2="1200.6" y1="342" y2="342"/><text fill="#000000" font-family="sans-serif" font-size="12.6" lengthAdjust="spacing" textLength="428.4" x="767.7" y="359.1967">+getInsufficientRawMaterialStockForProduct(productID) : List&lt;RawMaterial&gt;</text></g><!--class Repositories--><g id="elem_Repositories"><rect codeLine="33" fill="#F1F1F1" height="110.2359" id="Repositories" rx="2.25" ry="2.25" style="stroke:#181818;stroke-width:0.45;" width="293.4" x="62.1" y="468"/><ellipse cx="169.425" cy="482.4" fill="#ADD1B2" rx="9.9" ry="9.9" style="stroke:#181818;stroke-width:0.9;"/><path d="M171.9141,478.6875 Q172.0547,478.4906 172.2234,478.3922 Q172.3922,478.2938 172.5891,478.2938 Q172.9266,478.2938 173.1375,478.5328 Q173.3484,478.7578 173.3484,479.3063 L173.3484,480.6141 Q173.3484,481.1625 173.1375,481.4016 Q172.9266,481.6406 172.5891,481.6406 Q172.2797,481.6406 172.0969,481.4578 Q171.9141,481.2891 171.8156,480.825 Q171.7734,480.5016 171.6047,480.3328 Q171.3094,479.9953 170.7609,479.7984 Q170.2125,479.6016 169.65,479.6016 Q168.9609,479.6016 168.3844,479.8969 Q167.8219,480.1922 167.3719,480.8672 Q166.9359,481.5422 166.9359,482.4703 L166.9359,483.4547 Q166.9359,484.5656 167.7375,485.3109 Q168.5391,486.0422 169.9734,486.0422 Q170.8172,486.0422 171.4078,485.8172 Q171.7594,485.6766 172.1391,485.2828 Q172.3781,485.0438 172.5047,484.9734 Q172.6453,484.9031 172.8281,484.9031 Q173.1234,484.9031 173.3484,485.1422 Q173.5875,485.3672 173.5875,485.6766 Q173.5875,485.9859 173.2781,486.3516 Q172.8281,486.8719 172.1109,487.1672 Q171.1406,487.575 169.9734,487.575 Q168.6094,487.575 167.5266,487.0125 Q166.6406,486.5625 166.0219,485.6063 Q165.4031,484.6359 165.4031,483.4828 L165.4031,482.4422 Q165.4031,481.2469 165.9516,480.2203 Q166.5141,479.1797 167.4984,478.6313 Q168.4828,478.0688 169.5938,478.0688 Q170.2547,478.0688 170.8313,478.2234 Q171.4219,478.3641 171.9141,478.6875 Z " fill="#000000"/><text fill="#000000" font-family="sans-serif" font-size="12.6" lengthAdjust="spacing" textLength="71.1" x="187.875" y="487.6172">Repositories</text><line style="stroke:#181818;stroke-width:0.45;" x1="63" x2="354.6" y1="496.8" y2="496.8"/><line style="stroke:#181818;stroke-width:0.45;" x1="63" x2="354.6" y1="504" y2="504"/><text fill="#000000" font-family="sans-serif" font-size="12.6" lengthAdjust="spacing" textLength="84.6" x="67.5" y="521.1967">-Repositories()</text><text fill="#000000" font-family="sans-serif" font-size="12.6" lengthAdjust="spacing" textLength="163.8" x="67.5" y="537.9557">+getInstance() : Repositories</text><text fill="#000000" font-family="sans-serif" font-size="12.6" lengthAdjust="spacing" textLength="255.6" x="67.5" y="554.7146">+getProductRepository() : ProductRepository</text><text fill="#000000" font-family="sans-serif" font-size="12.6" lengthAdjust="spacing" textLength="282.6" x="67.5" y="571.4736">+getProductionTree() : ProductionTreeRepository</text></g><!--class ProductRepository--><g id="elem_ProductRepository"><rect codeLine="40" fill="#F1F1F1" height="59.959" id="ProductRepository" rx="2.25" ry="2.25" style="stroke:#181818;stroke-width:0.45;" width="147.6" x="500.4" y="648.9"/><ellipse cx="519.975" cy="663.3" fill="#ADD1B2" rx="9.9" ry="9.9" style="stroke:#181818;stroke-width:0.9;"/><path d="M522.4641,659.5875 Q522.6047,659.3906 522.7734,659.2922 Q522.9422,659.1938 523.1391,659.1938 Q523.4766,659.1938 523.6875,659.4328 Q523.8984,659.6578 523.8984,660.2063 L523.8984,661.5141 Q523.8984,662.0625 523.6875,662.3016 Q523.4766,662.5406 523.1391,662.5406 Q522.8297,662.5406 522.6469,662.3578 Q522.4641,662.1891 522.3656,661.725 Q522.3234,661.4016 522.1547,661.2328 Q521.8594,660.8953 521.3109,660.6984 Q520.7625,660.5016 520.2,660.5016 Q519.5109,660.5016 518.9344,660.7969 Q518.3719,661.0922 517.9219,661.7672 Q517.4859,662.4422 517.4859,663.3703 L517.4859,664.3547 Q517.4859,665.4656 518.2875,666.2109 Q519.0891,666.9422 520.5234,666.9422 Q521.3672,666.9422 521.9578,666.7172 Q522.3094,666.5766 522.6891,666.1828 Q522.9281,665.9438 523.0547,665.8734 Q523.1953,665.8031 523.3781,665.8031 Q523.6734,665.8031 523.8984,666.0422 Q524.1375,666.2672 524.1375,666.5766 Q524.1375,666.8859 523.8281,667.2516 Q523.3781,667.7719 522.6609,668.0672 Q521.6906,668.475 520.5234,668.475 Q519.1594,668.475 518.0766,667.9125 Q517.1906,667.4625 516.5719,666.5063 Q515.9531,665.5359 515.9531,664.3828 L515.9531,663.3422 Q515.9531,662.1469 516.5016,661.1203 Q517.0641,660.0797 518.0484,659.5313 Q519.0328,658.9688 520.1438,658.9688 Q520.8047,658.9688 521.3813,659.1234 Q521.9719,659.2641 522.4641,659.5875 Z " fill="#000000"/><text fill="#000000" font-family="sans-serif" font-size="12.6" lengthAdjust="spacing" textLength="105.3" x="533.925" y="668.5172">ProductRepository</text><line style="stroke:#181818;stroke-width:0.45;" x1="501.3" x2="647.1" y1="677.7" y2="677.7"/><line style="stroke:#181818;stroke-width:0.45;" x1="501.3" x2="647.1" y1="684.9" y2="684.9"/><text fill="#000000" font-family="sans-serif" font-size="12.6" lengthAdjust="spacing" textLength="136.8" x="505.8" y="702.0967">+getAll() : List&lt;Product&gt;</text></g><!--class ProductionTreeRepository--><g id="elem_ProductionTreeRepository"><rect codeLine="44" fill="#F1F1F1" height="59.959" id="ProductionTreeRepository" rx="2.25" ry="2.25" style="stroke:#181818;stroke-width:0.45;" width="447.3" x="21.15" y="648.9"/><ellipse cx="166.275" cy="663.3" fill="#ADD1B2" rx="9.9" ry="9.9" style="stroke:#181818;stroke-width:0.9;"/><path d="M168.7641,659.5875 Q168.9047,659.3906 169.0734,659.2922 Q169.2422,659.1938 169.4391,659.1938 Q169.7766,659.1938 169.9875,659.4328 Q170.1984,659.6578 170.1984,660.2063 L170.1984,661.5141 Q170.1984,662.0625 169.9875,662.3016 Q169.7766,662.5406 169.4391,662.5406 Q169.1297,662.5406 168.9469,662.3578 Q168.7641,662.1891 168.6656,661.725 Q168.6234,661.4016 168.4547,661.2328 Q168.1594,660.8953 167.6109,660.6984 Q167.0625,660.5016 166.5,660.5016 Q165.8109,660.5016 165.2344,660.7969 Q164.6719,661.0922 164.2219,661.7672 Q163.7859,662.4422 163.7859,663.3703 L163.7859,664.3547 Q163.7859,665.4656 164.5875,666.2109 Q165.3891,666.9422 166.8234,666.9422 Q167.6672,666.9422 168.2578,666.7172 Q168.6094,666.5766 168.9891,666.1828 Q169.2281,665.9438 169.3547,665.8734 Q169.4953,665.8031 169.6781,665.8031 Q169.9734,665.8031 170.1984,666.0422 Q170.4375,666.2672 170.4375,666.5766 Q170.4375,666.8859 170.1281,667.2516 Q169.6781,667.7719 168.9609,668.0672 Q167.9906,668.475 166.8234,668.475 Q165.4594,668.475 164.3766,667.9125 Q163.4906,667.4625 162.8719,666.5063 Q162.2531,665.5359 162.2531,664.3828 L162.2531,663.3422 Q162.2531,662.1469 162.8016,661.1203 Q163.3641,660.0797 164.3484,659.5313 Q165.3328,658.9688 166.4438,658.9688 Q167.1047,658.9688 167.6813,659.1234 Q168.2719,659.2641 168.7641,659.5875 Z " fill="#000000"/><text fill="#000000" font-family="sans-serif" font-size="12.6" lengthAdjust="spacing" textLength="149.4" x="184.725" y="668.5172">ProductionTreeRepository</text><line style="stroke:#181818;stroke-width:0.45;" x1="22.05" x2="467.55" y1="677.7" y2="677.7"/><line style="stroke:#181818;stroke-width:0.45;" x1="22.05" x2="467.55" y1="684.9" y2="684.9"/><text fill="#000000" font-family="sans-serif" font-size="12.6" lengthAdjust="spacing" textLength="436.5" x="26.55" y="702.0967">+getProductionHierarchy(productID) : HashMap&lt;ProductionElement, Integer&gt;</text></g><!--class Part--><g id="elem_Part"><rect codeLine="50" fill="#F1F1F1" height="110.2359" id="Part" rx="2.25" ry="2.25" style="stroke:#181818;stroke-width:0.45;" width="168.3" x="1112.85" y="1026.45"/><ellipse cx="1181.475" cy="1040.85" fill="#ADD1B2" rx="9.9" ry="9.9" style="stroke:#181818;stroke-width:0.9;"/><path d="M1183.9641,1037.1375 Q1184.1047,1036.9406 1184.2734,1036.8422 Q1184.4422,1036.7438 1184.6391,1036.7438 Q1184.9766,1036.7438 1185.1875,1036.9828 Q1185.3984,1037.2078 1185.3984,1037.7563 L1185.3984,1039.0641 Q1185.3984,1039.6125 1185.1875,1039.8516 Q1184.9766,1040.0906 1184.6391,1040.0906 Q1184.3297,1040.0906 1184.1469,1039.9078 Q1183.9641,1039.7391 1183.8656,1039.275 Q1183.8234,1038.9516 1183.6547,1038.7828 Q1183.3594,1038.4453 1182.8109,1038.2484 Q1182.2625,1038.0516 1181.7,1038.0516 Q1181.0109,1038.0516 1180.4344,1038.3469 Q1179.8719,1038.6422 1179.4219,1039.3172 Q1178.9859,1039.9922 1178.9859,1040.9203 L1178.9859,1041.9047 Q1178.9859,1043.0156 1179.7875,1043.7609 Q1180.5891,1044.4922 1182.0234,1044.4922 Q1182.8672,1044.4922 1183.4578,1044.2672 Q1183.8094,1044.1266 1184.1891,1043.7328 Q1184.4281,1043.4938 1184.5547,1043.4234 Q1184.6953,1043.3531 1184.8781,1043.3531 Q1185.1734,1043.3531 1185.3984,1043.5922 Q1185.6375,1043.8172 1185.6375,1044.1266 Q1185.6375,1044.4359 1185.3281,1044.8016 Q1184.8781,1045.3219 1184.1609,1045.6172 Q1183.1906,1046.025 1182.0234,1046.025 Q1180.6594,1046.025 1179.5766,1045.4625 Q1178.6906,1045.0125 1178.0719,1044.0563 Q1177.4531,1043.0859 1177.4531,1041.9328 L1177.4531,1040.8922 Q1177.4531,1039.6969 1178.0016,1038.6703 Q1178.5641,1037.6297 1179.5484,1037.0813 Q1180.5328,1036.5188 1181.6438,1036.5188 Q1182.3047,1036.5188 1182.8813,1036.6734 Q1183.4719,1036.8141 1183.9641,1037.1375 Z " fill="#000000"/><text fill="#000000" font-family="sans-serif" font-size="12.6" lengthAdjust="spacing" textLength="23.4" x="1199.925" y="1046.0672">Part</text><line style="stroke:#181818;stroke-width:0.45;" x1="1113.75" x2="1280.25" y1="1055.25" y2="1055.25"/><text fill="#000000" font-family="sans-serif" font-size="12.6" lengthAdjust="spacing" textLength="58.5" x="1118.25" y="1072.4467">-id : String</text><text fill="#000000" font-family="sans-serif" font-size="12.6" lengthAdjust="spacing" textLength="80.1" x="1118.25" y="1089.2057">-name : String</text><text fill="#000000" font-family="sans-serif" font-size="12.6" lengthAdjust="spacing" textLength="110.7" x="1118.25" y="1105.9646">-description : String</text><line style="stroke:#181818;stroke-width:0.45;" x1="1113.75" x2="1280.25" y1="1112.727" y2="1112.727"/><text fill="#000000" font-family="sans-serif" font-size="12.6" lengthAdjust="spacing" textLength="157.5" x="1118.25" y="1129.9236">+Part(id, name, description)</text></g><!--class RawMaterial--><g id="elem_RawMaterial"><rect codeLine="57" fill="#F1F1F1" height="93.477" id="RawMaterial" rx="2.25" ry="2.25" style="stroke:#181818;stroke-width:0.45;" width="214.2" x="1428.3" y="828"/><ellipse cx="1496.925" cy="842.4" fill="#ADD1B2" rx="9.9" ry="9.9" style="stroke:#181818;stroke-width:0.9;"/><path d="M1499.4141,838.6875 Q1499.5547,838.4906 1499.7234,838.3922 Q1499.8922,838.2938 1500.0891,838.2938 Q1500.4266,838.2938 1500.6375,838.5328 Q1500.8484,838.7578 1500.8484,839.3063 L1500.8484,840.6141 Q1500.8484,841.1625 1500.6375,841.4016 Q1500.4266,841.6406 1500.0891,841.6406 Q1499.7797,841.6406 1499.5969,841.4578 Q1499.4141,841.2891 1499.3156,840.825 Q1499.2734,840.5016 1499.1047,840.3328 Q1498.8094,839.9953 1498.2609,839.7984 Q1497.7125,839.6016 1497.15,839.6016 Q1496.4609,839.6016 1495.8844,839.8969 Q1495.3219,840.1922 1494.8719,840.8672 Q1494.4359,841.5422 1494.4359,842.4703 L1494.4359,843.4547 Q1494.4359,844.5656 1495.2375,845.3109 Q1496.0391,846.0422 1497.4734,846.0422 Q1498.3172,846.0422 1498.9078,845.8172 Q1499.2594,845.6766 1499.6391,845.2828 Q1499.8781,845.0438 1500.0047,844.9734 Q1500.1453,844.9031 1500.3281,844.9031 Q1500.6234,844.9031 1500.8484,845.1422 Q1501.0875,845.3672 1501.0875,845.6766 Q1501.0875,845.9859 1500.7781,846.3516 Q1500.3281,846.8719 1499.6109,847.1672 Q1498.6406,847.575 1497.4734,847.575 Q1496.1094,847.575 1495.0266,847.0125 Q1494.1406,846.5625 1493.5219,845.6063 Q1492.9031,844.6359 1492.9031,843.4828 L1492.9031,842.4422 Q1492.9031,841.2469 1493.4516,840.2203 Q1494.0141,839.1797 1494.9984,838.6313 Q1495.9828,838.0688 1497.0938,838.0688 Q1497.7547,838.0688 1498.3313,838.2234 Q1498.9219,838.3641 1499.4141,838.6875 Z " fill="#000000"/><text fill="#000000" font-family="sans-serif" font-size="12.6" lengthAdjust="spacing" textLength="69.3" x="1515.375" y="847.6172">RawMaterial</text><line style="stroke:#181818;stroke-width:0.45;" x1="1429.2" x2="1641.6" y1="856.8" y2="856.8"/><text fill="#000000" font-family="sans-serif" font-size="12.6" lengthAdjust="spacing" textLength="100.8" x="1433.7" y="873.9967">-currentStock : int</text><text fill="#000000" font-family="sans-serif" font-size="12.6" lengthAdjust="spacing" textLength="109.8" x="1433.7" y="890.7557">-minimumStock : int</text><line style="stroke:#181818;stroke-width:0.45;" x1="1429.2" x2="1641.6" y1="897.518" y2="897.518"/><text fill="#000000" font-family="sans-serif" font-size="12.6" lengthAdjust="spacing" textLength="203.4" x="1433.7" y="914.7146">+RawMaterial(id, name, description)</text></g><!--class Product--><g id="elem_Product"><rect codeLine="63" fill="#F1F1F1" height="143.7539" id="Product" rx="2.25" ry="2.25" style="stroke:#181818;stroke-width:0.45;" width="398.7" x="997.65" y="802.8"/><ellipse cx="1171.125" cy="817.2" fill="#ADD1B2" rx="9.9" ry="9.9" style="stroke:#181818;stroke-width:0.9;"/><path d="M1173.6141,813.4875 Q1173.7547,813.2906 1173.9234,813.1922 Q1174.0922,813.0938 1174.2891,813.0938 Q1174.6266,813.0938 1174.8375,813.3328 Q1175.0484,813.5578 1175.0484,814.1063 L1175.0484,815.4141 Q1175.0484,815.9625 1174.8375,816.2016 Q1174.6266,816.4406 1174.2891,816.4406 Q1173.9797,816.4406 1173.7969,816.2578 Q1173.6141,816.0891 1173.5156,815.625 Q1173.4734,815.3016 1173.3047,815.1328 Q1173.0094,814.7953 1172.4609,814.5984 Q1171.9125,814.4016 1171.35,814.4016 Q1170.6609,814.4016 1170.0844,814.6969 Q1169.5219,814.9922 1169.0719,815.6672 Q1168.6359,816.3422 1168.6359,817.2703 L1168.6359,818.2547 Q1168.6359,819.3656 1169.4375,820.1109 Q1170.2391,820.8422 1171.6734,820.8422 Q1172.5172,820.8422 1173.1078,820.6172 Q1173.4594,820.4766 1173.8391,820.0828 Q1174.0781,819.8438 1174.2047,819.7734 Q1174.3453,819.7031 1174.5281,819.7031 Q1174.8234,819.7031 1175.0484,819.9422 Q1175.2875,820.1672 1175.2875,820.4766 Q1175.2875,820.7859 1174.9781,821.1516 Q1174.5281,821.6719 1173.8109,821.9672 Q1172.8406,822.375 1171.6734,822.375 Q1170.3094,822.375 1169.2266,821.8125 Q1168.3406,821.3625 1167.7219,820.4063 Q1167.1031,819.4359 1167.1031,818.2828 L1167.1031,817.2422 Q1167.1031,816.0469 1167.6516,815.0203 Q1168.2141,813.9797 1169.1984,813.4313 Q1170.1828,812.8688 1171.2938,812.8688 Q1171.9547,812.8688 1172.5313,813.0234 Q1173.1219,813.1641 1173.6141,813.4875 Z " fill="#000000"/><text fill="#000000" font-family="sans-serif" font-size="12.6" lengthAdjust="spacing" textLength="44.1" x="1189.575" y="822.4172">Product</text><line style="stroke:#181818;stroke-width:0.45;" x1="998.55" x2="1395.45" y1="831.6" y2="831.6"/><text fill="#000000" font-family="sans-serif" font-size="12.6" lengthAdjust="spacing" textLength="161.1" x="1003.05" y="848.7967">-category : ProductCategory</text><text fill="#000000" font-family="sans-serif" font-size="12.6" lengthAdjust="spacing" textLength="75.6" x="1003.05" y="865.5557">-capacity : int</text><text fill="#000000" font-family="sans-serif" font-size="12.6" lengthAdjust="spacing" textLength="50.4" x="1003.05" y="882.3146">-size : int</text><text fill="#000000" font-family="sans-serif" font-size="12.6" lengthAdjust="spacing" textLength="76.5" x="1003.05" y="899.0736">-color : String</text><text fill="#000000" font-family="sans-serif" font-size="12.6" lengthAdjust="spacing" textLength="81.9" x="1003.05" y="915.8326">-price : double</text><line style="stroke:#181818;stroke-width:0.45;" x1="998.55" x2="1395.45" y1="922.5949" y2="922.5949"/><text fill="#000000" font-family="sans-serif" font-size="12.6" lengthAdjust="spacing" textLength="387.9" x="1003.05" y="939.7916">+Product(id, name, description, category, capacity, size, color, price)</text></g><!--class ProductionElement--><g id="elem_ProductionElement"><rect codeLine="72" fill="#F1F1F1" height="110.2359" id="ProductionElement" rx="2.25" ry="2.25" style="stroke:#181818;stroke-width:0.45;" width="270" x="695.7" y="819.9"/><ellipse cx="773.325" cy="834.3" fill="#ADD1B2" rx="9.9" ry="9.9" style="stroke:#181818;stroke-width:0.9;"/><path d="M775.8141,830.5875 Q775.9547,830.3906 776.1234,830.2922 Q776.2922,830.1938 776.4891,830.1938 Q776.8266,830.1938 777.0375,830.4328 Q777.2484,830.6578 777.2484,831.2063 L777.2484,832.5141 Q777.2484,833.0625 777.0375,833.3016 Q776.8266,833.5406 776.4891,833.5406 Q776.1797,833.5406 775.9969,833.3578 Q775.8141,833.1891 775.7156,832.725 Q775.6734,832.4016 775.5047,832.2328 Q775.2094,831.8953 774.6609,831.6984 Q774.1125,831.5016 773.55,831.5016 Q772.8609,831.5016 772.2844,831.7969 Q771.7219,832.0922 771.2719,832.7672 Q770.8359,833.4422 770.8359,834.3703 L770.8359,835.3547 Q770.8359,836.4656 771.6375,837.2109 Q772.4391,837.9422 773.8734,837.9422 Q774.7172,837.9422 775.3078,837.7172 Q775.6594,837.5766 776.0391,837.1828 Q776.2781,836.9438 776.4047,836.8734 Q776.5453,836.8031 776.7281,836.8031 Q777.0234,836.8031 777.2484,837.0422 Q777.4875,837.2672 777.4875,837.5766 Q777.4875,837.8859 777.1781,838.2516 Q776.7281,838.7719 776.0109,839.0672 Q775.0406,839.475 773.8734,839.475 Q772.5094,839.475 771.4266,838.9125 Q770.5406,838.4625 769.9219,837.5063 Q769.3031,836.5359 769.3031,835.3828 L769.3031,834.3422 Q769.3031,833.1469 769.8516,832.1203 Q770.4141,831.0797 771.3984,830.5313 Q772.3828,829.9688 773.4938,829.9688 Q774.1547,829.9688 774.7313,830.1234 Q775.3219,830.2641 775.8141,830.5875 Z " fill="#000000"/><text fill="#000000" font-family="sans-serif" font-size="12.6" lengthAdjust="spacing" textLength="107.1" x="791.775" y="839.5172">ProductionElement</text><line style="stroke:#181818;stroke-width:0.45;" x1="696.6" x2="964.8" y1="848.7" y2="848.7"/><text fill="#000000" font-family="sans-serif" font-size="12.6" lengthAdjust="spacing" textLength="61.2" x="701.1" y="865.8967">-part : Part</text><text fill="#000000" font-family="sans-serif" font-size="12.6" lengthAdjust="spacing" textLength="126" x="701.1" y="882.6557">-operation : Operation</text><text fill="#000000" font-family="sans-serif" font-size="12.6" lengthAdjust="spacing" textLength="100.8" x="701.1" y="899.4146">-quantity : Double</text><line style="stroke:#181818;stroke-width:0.45;" x1="696.6" x2="964.8" y1="906.177" y2="906.177"/><text fill="#000000" font-family="sans-serif" font-size="12.6" lengthAdjust="spacing" textLength="259.2" x="701.1" y="923.3736">+ProductionElement(part, operation, quantity)</text></g><!--class Operation--><g id="elem_Operation"><rect codeLine="79" fill="#F1F1F1" height="126.9949" id="Operation" rx="2.25" ry="2.25" style="stroke:#181818;stroke-width:0.45;" width="252.9" x="704.25" y="1017.9"/><ellipse cx="798.525" cy="1032.3" fill="#ADD1B2" rx="9.9" ry="9.9" style="stroke:#181818;stroke-width:0.9;"/><path d="M801.0141,1028.5875 Q801.1547,1028.3906 801.3234,1028.2922 Q801.4922,1028.1938 801.6891,1028.1938 Q802.0266,1028.1938 802.2375,1028.4328 Q802.4484,1028.6578 802.4484,1029.2063 L802.4484,1030.5141 Q802.4484,1031.0625 802.2375,1031.3016 Q802.0266,1031.5406 801.6891,1031.5406 Q801.3797,1031.5406 801.1969,1031.3578 Q801.0141,1031.1891 800.9156,1030.725 Q800.8734,1030.4016 800.7047,1030.2328 Q800.4094,1029.8953 799.8609,1029.6984 Q799.3125,1029.5016 798.75,1029.5016 Q798.0609,1029.5016 797.4844,1029.7969 Q796.9219,1030.0922 796.4719,1030.7672 Q796.0359,1031.4422 796.0359,1032.3703 L796.0359,1033.3547 Q796.0359,1034.4656 796.8375,1035.2109 Q797.6391,1035.9422 799.0734,1035.9422 Q799.9172,1035.9422 800.5078,1035.7172 Q800.8594,1035.5766 801.2391,1035.1828 Q801.4781,1034.9438 801.6047,1034.8734 Q801.7453,1034.8031 801.9281,1034.8031 Q802.2234,1034.8031 802.4484,1035.0422 Q802.6875,1035.2672 802.6875,1035.5766 Q802.6875,1035.8859 802.3781,1036.2516 Q801.9281,1036.7719 801.2109,1037.0672 Q800.2406,1037.475 799.0734,1037.475 Q797.7094,1037.475 796.6266,1036.9125 Q795.7406,1036.4625 795.1219,1035.5063 Q794.5031,1034.5359 794.5031,1033.3828 L794.5031,1032.3422 Q794.5031,1031.1469 795.0516,1030.1203 Q795.6141,1029.0797 796.5984,1028.5313 Q797.5828,1027.9688 798.6938,1027.9688 Q799.3547,1027.9688 799.9313,1028.1234 Q800.5219,1028.2641 801.0141,1028.5875 Z " fill="#000000"/><text fill="#000000" font-family="sans-serif" font-size="12.6" lengthAdjust="spacing" textLength="56.7" x="816.975" y="1037.5172">Operation</text><line style="stroke:#181818;stroke-width:0.45;" x1="705.15" x2="956.25" y1="1046.7" y2="1046.7"/><text fill="#000000" font-family="sans-serif" font-size="12.6" lengthAdjust="spacing" textLength="38.7" x="709.65" y="1063.8967">-id : int</text><text fill="#000000" font-family="sans-serif" font-size="12.6" lengthAdjust="spacing" textLength="125.1" x="709.65" y="1080.6557">-type : OperationType</text><text fill="#000000" font-family="sans-serif" font-size="12.6" lengthAdjust="spacing" textLength="80.1" x="709.65" y="1097.4146">-name : String</text><text fill="#000000" font-family="sans-serif" font-size="12.6" lengthAdjust="spacing" textLength="110.7" x="709.65" y="1114.1736">-executionTime : int</text><line style="stroke:#181818;stroke-width:0.45;" x1="705.15" x2="956.25" y1="1120.9359" y2="1120.9359"/><text fill="#000000" font-family="sans-serif" font-size="12.6" lengthAdjust="spacing" textLength="242.1" x="709.65" y="1138.1326">+Operation(id, type, name, executionTime)</text></g><!--class ProductException--><g id="elem_ProductException"><rect codeLine="89" fill="#F1F1F1" height="76.718" id="ProductException" rx="2.25" ry="2.25" style="stroke:#181818;stroke-width:0.45;" width="334.8" x="814.5" y="484.65"/><ellipse cx="928.575" cy="499.05" fill="#ADD1B2" rx="9.9" ry="9.9" style="stroke:#181818;stroke-width:0.9;"/><path d="M931.0641,495.3375 Q931.2047,495.1406 931.3734,495.0422 Q931.5422,494.9438 931.7391,494.9438 Q932.0766,494.9438 932.2875,495.1828 Q932.4984,495.4078 932.4984,495.9563 L932.4984,497.2641 Q932.4984,497.8125 932.2875,498.0516 Q932.0766,498.2906 931.7391,498.2906 Q931.4297,498.2906 931.2469,498.1078 Q931.0641,497.9391 930.9656,497.475 Q930.9234,497.1516 930.7547,496.9828 Q930.4594,496.6453 929.9109,496.4484 Q929.3625,496.2516 928.8,496.2516 Q928.1109,496.2516 927.5344,496.5469 Q926.9719,496.8422 926.5219,497.5172 Q926.0859,498.1922 926.0859,499.1203 L926.0859,500.1047 Q926.0859,501.2156 926.8875,501.9609 Q927.6891,502.6922 929.1234,502.6922 Q929.9672,502.6922 930.5578,502.4672 Q930.9094,502.3266 931.2891,501.9328 Q931.5281,501.6938 931.6547,501.6234 Q931.7953,501.5531 931.9781,501.5531 Q932.2734,501.5531 932.4984,501.7922 Q932.7375,502.0172 932.7375,502.3266 Q932.7375,502.6359 932.4281,503.0016 Q931.9781,503.5219 931.2609,503.8172 Q930.2906,504.225 929.1234,504.225 Q927.7594,504.225 926.6766,503.6625 Q925.7906,503.2125 925.1719,502.2563 Q924.5531,501.2859 924.5531,500.1328 L924.5531,499.0922 Q924.5531,497.8969 925.1016,496.8703 Q925.6641,495.8297 926.6484,495.2813 Q927.6328,494.7188 928.7438,494.7188 Q929.4047,494.7188 929.9813,494.8734 Q930.5719,495.0141 931.0641,495.3375 Z " fill="#000000"/><text fill="#000000" font-family="sans-serif" font-size="12.6" lengthAdjust="spacing" textLength="99" x="947.025" y="504.2672">ProductException</text><line style="stroke:#181818;stroke-width:0.45;" x1="815.4" x2="1148.4" y1="513.45" y2="513.45"/><line style="stroke:#181818;stroke-width:0.45;" x1="815.4" x2="1148.4" y1="520.65" y2="520.65"/><text fill="#000000" font-family="sans-serif" font-size="12.6" lengthAdjust="spacing" textLength="324" x="819.9" y="537.8467">+productionTreeNotFound(productID) : ProductException</text><text fill="#000000" font-family="sans-serif" font-size="12.6" lengthAdjust="spacing" textLength="279.9" x="819.9" y="554.6057">+productNotFound(productID) : ProductException</text></g><!--class RuntimeException--><g id="elem_RuntimeException"><rect codeLine="94" fill="#F1F1F1" height="43.2" id="RuntimeException" rx="2.25" ry="2.25" style="stroke:#181818;stroke-width:0.45;" width="130.5" x="916.65" y="657.45"/><ellipse cx="930.15" cy="671.85" fill="#ADD1B2" rx="9.9" ry="9.9" style="stroke:#181818;stroke-width:0.9;"/><path d="M932.6391,668.1375 Q932.7797,667.9406 932.9484,667.8422 Q933.1172,667.7438 933.3141,667.7438 Q933.6516,667.7438 933.8625,667.9828 Q934.0734,668.2078 934.0734,668.7563 L934.0734,670.0641 Q934.0734,670.6125 933.8625,670.8516 Q933.6516,671.0906 933.3141,671.0906 Q933.0047,671.0906 932.8219,670.9078 Q932.6391,670.7391 932.5406,670.275 Q932.4984,669.9516 932.3297,669.7828 Q932.0344,669.4453 931.4859,669.2484 Q930.9375,669.0516 930.375,669.0516 Q929.6859,669.0516 929.1094,669.3469 Q928.5469,669.6422 928.0969,670.3172 Q927.6609,670.9922 927.6609,671.9203 L927.6609,672.9047 Q927.6609,674.0156 928.4625,674.7609 Q929.2641,675.4922 930.6984,675.4922 Q931.5422,675.4922 932.1328,675.2672 Q932.4844,675.1266 932.8641,674.7328 Q933.1031,674.4938 933.2297,674.4234 Q933.3703,674.3531 933.5531,674.3531 Q933.8484,674.3531 934.0734,674.5922 Q934.3125,674.8172 934.3125,675.1266 Q934.3125,675.4359 934.0031,675.8016 Q933.5531,676.3219 932.8359,676.6172 Q931.8656,677.025 930.6984,677.025 Q929.3344,677.025 928.2516,676.4625 Q927.3656,676.0125 926.7469,675.0563 Q926.1281,674.0859 926.1281,672.9328 L926.1281,671.8922 Q926.1281,670.6969 926.6766,669.6703 Q927.2391,668.6297 928.2234,668.0813 Q929.2078,667.5188 930.3188,667.5188 Q930.9797,667.5188 931.5563,667.6734 Q932.1469,667.8141 932.6391,668.1375 Z " fill="#000000"/><text fill="#000000" font-family="sans-serif" font-size="12.6" lengthAdjust="spacing" textLength="101.7" x="942.75" y="677.0672">RuntimeException</text><line style="stroke:#181818;stroke-width:0.45;" x1="917.55" x2="1046.25" y1="686.25" y2="686.25"/><line style="stroke:#181818;stroke-width:0.45;" x1="917.55" x2="1046.25" y1="693.45" y2="693.45"/></g><!--link CheckHasSufficientStockProductUI to ProductController--><g id="link_CheckHasSufficientStockProductUI_ProductController"><path codeLine="97" d="M775.845,82.845 C747.639,103.851 708.1127,133.2864 676.3697,156.9294 " fill="none" id="CheckHasSufficientStockProductUI-to-ProductController" style="stroke:#181818;stroke-width:0.9;stroke-dasharray:7.0,7.0;"/><polygon fill="#181818" points="672.039,160.155,680.6855,158.2037,675.6479,157.467,676.3847,152.4294,672.039,160.155" style="stroke:#181818;stroke-width:0.9;"/></g><!--link CheckHasSufficientStockProductUI to ProductionController--><g id="link_CheckHasSufficientStockProductUI_ProductionController"><path codeLine="98" d="M831.852,82.845 C860.346,103.851 900.3242,133.308 932.4002,156.951 " fill="none" id="CheckHasSufficientStockProductUI-to-ProductionController" style="stroke:#181818;stroke-width:0.9;stroke-dasharray:7.0,7.0;"/><polygon fill="#181818" points="936.747,160.155,932.3628,152.4512,933.1247,157.485,928.0908,158.2469,936.747,160.155" style="stroke:#181818;stroke-width:0.9;"/></g><!--link ProductController to ProductService--><g id="link_ProductController_ProductService"><path codeLine="99" d="M629.748,220.734 C627.525,243.036 624.9841,268.4338 622.5811,292.4728 " fill="none" id="ProductController-to-ProductService" style="stroke:#181818;stroke-width:0.9;stroke-dasharray:7.0,7.0;"/><polygon fill="#181818" points="622.044,297.846,626.4318,290.1442,622.4916,293.3683,619.2675,289.4281,622.044,297.846" style="stroke:#181818;stroke-width:0.9;"/></g><!--link ProductionController to ProductionService--><g id="link_ProductionController_ProductionService"><path codeLine="100" d="M977.607,220.734 C978.534,245.592 979.6646,275.5658 980.5916,300.4058 " fill="none" id="ProductionController-to-ProductionService" style="stroke:#181818;stroke-width:0.9;stroke-dasharray:7.0,7.0;"/><polygon fill="#181818" points="980.793,305.802,984.0884,297.5734,980.6252,301.3051,976.8934,297.8419,980.793,305.802" style="stroke:#181818;stroke-width:0.9;"/></g><!--link ProductService to Repositories--><g id="link_ProductService_Repositories"><path codeLine="101" d="M505.557,357.66 C399.375,377.073 256.5,403.2 256.5,403.2 C256.5,403.2 245.1475,431.471 232.5655,462.8 " fill="none" id="ProductService-to-Repositories" style="stroke:#181818;stroke-width:0.9;stroke-dasharray:7.0,7.0;"/><polygon fill="#181818" points="230.553,467.811,236.9123,461.6362,232.23,463.6352,230.231,458.9529,230.553,467.811" style="stroke:#181818;stroke-width:0.9;"/><text fill="#000000" font-family="sans-serif" font-size="11.7" lengthAdjust="spacing" textLength="60.3" x="257.4" y="416.7255">repositories</text></g><!--link ProductService to ProductRepository--><g id="link_ProductService_ProductRepository"><path codeLine="102" d="M574.929,374.625 C546.246,399.474 513.9,427.5 513.9,427.5 C513.9,427.5 513.9,577.8 513.9,577.8 C513.9,577.8 536.0122,614.6076 553.8142,644.2266 " fill="none" id="ProductService-to-ProductRepository" style="stroke:#181818;stroke-width:0.9;stroke-dasharray:7.0,7.0;"/><polygon fill="#181818" points="556.596,648.855,555.5089,640.0579,554.2778,644.998,549.3377,643.767,556.596,648.855" style="stroke:#181818;stroke-width:0.9;"/><text fill="#000000" font-family="sans-serif" font-size="11.7" lengthAdjust="spacing" textLength="94.5" x="514.8" y="527.8755">productRepository</text></g><!--link ProductService to Product--><g id="link_ProductService_Product"><path codeLine="103" d="M700.173,374.553 C725.553,386.181 747,396 747,396 C747,396 1025.1,403.2 1025.1,403.2 C1025.1,403.2 1163.7,427.5 1163.7,427.5 C1163.7,427.5 1181.8832,671.253 1191.2882,797.289 " fill="none" id="ProductService-to-Product" style="stroke:#181818;stroke-width:0.9;stroke-dasharray:7.0,7.0;"/><polygon fill="#181818" points="1191.69,802.674,1194.6773,794.3286,1191.3551,798.1865,1187.4972,794.8644,1191.69,802.674" style="stroke:#181818;stroke-width:0.9;"/><text fill="#000000" font-family="sans-serif" font-size="11.7" lengthAdjust="spacing" textLength="38.7" x="1178.1" y="618.3255">product</text></g><!--link ProductionService to Repositories--><g id="link_ProductionService_Repositories"><path codeLine="104" d="M865.134,366.354 C806.184,381.15 747,396 747,396 C747,396 563.4,403.2 563.4,403.2 C563.4,403.2 450.9,427.5 450.9,427.5 C450.9,427.5 406.4394,444.8596 352.2054,466.0276 " fill="none" id="ProductionService-to-Repositories" style="stroke:#181818;stroke-width:0.9;stroke-dasharray:7.0,7.0;"/><polygon fill="#181818" points="347.175,467.991,356.0296,468.3995,351.367,466.3548,353.4117,461.6923,347.175,467.991" style="stroke:#181818;stroke-width:0.9;"/><text fill="#000000" font-family="sans-serif" font-size="11.7" lengthAdjust="spacing" textLength="60.3" x="564.3" y="416.7255">repositories</text></g><!--link ProductionService to ProductionTreeRepository--><g id="link_ProductionService_ProductionTreeRepository"><path codeLine="105" d="M879.336,366.417 C787.095,392.823 666,427.5 666,427.5 C666,427.5 613.8,577.8 613.8,577.8 C613.8,577.8 473.4,621.9 473.4,621.9 C473.4,621.9 424.5805,633.9115 369.0325,647.5825 " fill="none" id="ProductionService-to-ProductionTreeRepository" style="stroke:#181818;stroke-width:0.9;stroke-dasharray:7.0,7.0;"/><polygon fill="#181818" points="363.789,648.873,372.5146,650.4329,368.1586,647.7976,370.794,643.4416,363.789,648.873" style="stroke:#181818;stroke-width:0.9;"/><text fill="#000000" font-family="sans-serif" font-size="11.7" lengthAdjust="spacing" textLength="132.3" x="666.9" y="527.8755">productionTreeRepository</text></g><!--link ProductionService to Product--><g id="link_ProductionService_Product"><path codeLine="106" d="M1103.499,366.354 C1176.921,384.048 1256.4,403.2 1256.4,403.2 C1256.4,403.2 1357.2,604.8 1357.2,604.8 C1357.2,604.8 1357.2,621.9 1357.2,621.9 C1357.2,621.9 1292.5341,723.624 1245.1581,798.144 " fill="none" id="ProductionService-to-Product" style="stroke:#181818;stroke-width:0.9;stroke-dasharray:7.0,7.0;"/><polygon fill="#181818" points="1242.261,802.701,1249.6447,797.7969,1244.6753,798.9035,1243.5687,793.934,1242.261,802.701" style="stroke:#181818;stroke-width:0.9;"/><text fill="#000000" font-family="sans-serif" font-size="11.7" lengthAdjust="spacing" textLength="38.7" x="1358.1" y="618.3255">product</text></g><!--link ProductionService to ProductionElement--><g id="link_ProductionService_ProductionElement"><path codeLine="107" d="M1093.131,366.354 C1160.298,384.048 1233,403.2 1233,403.2 C1233,403.2 1251,604.8 1251,604.8 C1251,604.8 1251,621.9 1251,621.9 C1251,621.9 1163.7,730.8 1163.7,730.8 C1163.7,730.8 981.9,762.3 981.9,762.3 C981.9,762.3 946.9502,788.0906 908.4302,816.5306 " fill="none" id="ProductionService-to-ProductionElement" style="stroke:#181818;stroke-width:0.9;stroke-dasharray:7.0,7.0;"/><polygon fill="#181818" points="904.086,819.738,912.7406,817.823,907.7062,817.0651,908.4641,812.0307,904.086,819.738" style="stroke:#181818;stroke-width:0.9;"/><text fill="#000000" font-family="sans-serif" font-size="11.7" lengthAdjust="spacing" textLength="97.2" x="1251.9" y="618.3255">productionElement</text></g><!--link ProductionService to RawMaterial--><g id="link_ProductionService_RawMaterial"><path codeLine="108" d="M1115.46,366.354 C1196.109,384.048 1283.4,403.2 1283.4,403.2 C1283.4,403.2 1329.3,427.5 1329.3,427.5 C1329.3,427.5 1459.2015,708.8513 1511.8605,822.9083 " fill="none" id="ProductionService-to-RawMaterial" style="stroke:#181818;stroke-width:0.9;stroke-dasharray:7.0,7.0;"/><polygon fill="#181818" points="1514.124,827.811,1513.9972,818.9479,1512.2377,823.7254,1507.4602,821.966,1514.124,827.811" style="stroke:#181818;stroke-width:0.9;"/><text fill="#000000" font-family="sans-serif" font-size="11.7" lengthAdjust="spacing" textLength="59.4" x="1418.4" y="618.3255">rawMaterial</text></g><!--link Repositories to Repositories--><g id="link_Repositories_Repositories"><path codeLine="109" d="M355.608,508.113 C374.508,510.678 387,515.601 387,522.9 C387,530.199 379.8589,534.3958 360.9589,536.9608 " fill="none" id="Repositories-to-Repositories" style="stroke:#181818;stroke-width:0.9;"/><polygon fill="#181818" points="355.608,537.687,364.1186,540.165,360.0671,537.0818,363.1503,533.0304,355.608,537.687" style="stroke:#181818;stroke-width:0.9;"/><text fill="#000000" font-family="sans-serif" font-size="11.7" lengthAdjust="spacing" textLength="44.1" x="392.4" y="527.8755">instance</text></g><!--link Repositories to ProductRepository--><g id="link_Repositories_ProductRepository"><path codeLine="110" d="M297.594,577.872 C334.944,600.615 369.9,621.9 369.9,621.9 C369.9,621.9 484.2,648.9 484.2,648.9 C484.2,648.9 485.5982,649.3556 495.1562,652.4606 " fill="none" id="Repositories-to-ProductRepository" style="stroke:#181818;stroke-width:0.9;"/><polygon fill="#181818" points="500.292,654.129,493.7006,648.2025,496.0122,652.7387,491.476,655.0503,500.292,654.129" style="stroke:#181818;stroke-width:0.9;"/><text fill="#000000" font-family="sans-serif" font-size="11.7" lengthAdjust="spacing" textLength="94.5" x="370.8" y="618.3255">productRepository</text><text fill="#000000" font-family="sans-serif" font-size="11.7" lengthAdjust="spacing" textLength="6.3" x="301.7319" y="598.1189">1</text><text fill="#000000" font-family="sans-serif" font-size="11.7" lengthAdjust="spacing" textLength="6.3" x="486.8882" y="648.4796">1</text></g><!--link Repositories to ProductionTreeRepository--><g id="link_Repositories_ProductionTreeRepository"><path codeLine="111" d="M202.797,577.827 C201.15,592.686 199.8,604.8 199.8,604.8 C199.8,604.8 199.8,621.9 199.8,621.9 C199.8,621.9 206.9843,630.8768 217.8743,644.4938 " fill="none" id="Repositories-to-ProductionTreeRepository" style="stroke:#181818;stroke-width:0.9;"/><polygon fill="#181818" points="221.247,648.711,218.9995,640.1367,218.4364,645.1966,213.3765,644.6336,221.247,648.711" style="stroke:#181818;stroke-width:0.9;"/><text fill="#000000" font-family="sans-serif" font-size="11.7" lengthAdjust="spacing" textLength="132.3" x="200.7" y="618.3255">productionTreeRepository</text><text fill="#000000" font-family="sans-serif" font-size="11.7" lengthAdjust="spacing" textLength="6.3" x="195.3815" y="598.0685">1</text><text fill="#000000" font-family="sans-serif" font-size="11.7" lengthAdjust="spacing" textLength="6.3" x="209.8567" y="638.8523">1</text></g><!--link ProductRepository to Product--><g id="link_ProductRepository_Product"><path codeLine="112" d="M648.171,696.6 C714.051,711.432 800.1,730.8 800.1,730.8 C800.1,730.8 981.9,762.3 981.9,762.3 C981.9,762.3 1012.7737,778.3171 1055.0647,800.2591 " fill="none" id="ProductRepository-to-Product" style="stroke:#181818;stroke-width:0.9;"/><polygon fill="#181818" points="1059.858,802.746,1054.3261,795.8201,1055.8636,800.6736,1051.0102,802.2111,1059.858,802.746" style="stroke:#181818;stroke-width:0.9;"/><text fill="#000000" font-family="sans-serif" font-size="11.7" lengthAdjust="spacing" textLength="54" x="938.7" y="751.5255">categories</text><text fill="#000000" font-family="sans-serif" font-size="11.7" lengthAdjust="spacing" textLength="6.3" x="655.2806" y="694.8659">1</text><text fill="#000000" font-family="sans-serif" font-size="11.7" lengthAdjust="spacing" textLength="4.5" x="1042.5078" y="792.7472">*</text></g><!--link ProductionTreeRepository to ProductionElement--><g id="link_ProductionTreeRepository_ProductionElement"><path codeLine="113" d="M333.468,709.299 C429.597,741.123 579.0456,790.5908 690.3396,827.4368 " fill="none" id="ProductionTreeRepository-to-ProductionElement" style="stroke:#181818;stroke-width:0.9;"/><polygon fill="#181818" points="695.466,829.134,688.9079,823.1707,691.194,827.7197,686.645,830.0058,695.466,829.134" style="stroke:#181818;stroke-width:0.9;"/><text fill="#000000" font-family="sans-serif" font-size="11.7" lengthAdjust="spacing" textLength="54" x="469.8" y="751.5255">categories</text><text fill="#000000" font-family="sans-serif" font-size="11.7" lengthAdjust="spacing" textLength="6.3" x="342.4009" y="728.7289">1</text><text fill="#000000" font-family="sans-serif" font-size="11.7" lengthAdjust="spacing" textLength="4.5" x="683.877" y="823.7059">*</text></g><!--link Product to Part--><g id="link_Product_Part"><path codeLine="114" d="M1197,947.025 C1197,972.99 1197,985.707 1197,1009.953 " fill="none" id="Product-to-Part" style="stroke:#181818;stroke-width:0.9;"/><polygon fill="none" points="1197,1026.153,1202.4,1009.953,1191.6,1009.953,1197,1026.153" style="stroke:#181818;stroke-width:0.9;"/></g><!--link RawMaterial to Part--><g id="link_RawMaterial_Part"><path codeLine="115" d="M1459.458,921.654 C1406.547,953.658 1349.8113,987.9855 1295.1633,1021.0515 " fill="none" id="RawMaterial-to-Part" style="stroke:#181818;stroke-width:0.9;"/><polygon fill="none" points="1281.303,1029.438,1297.9588,1025.6716,1292.3678,1016.4314,1281.303,1029.438" style="stroke:#181818;stroke-width:0.9;"/></g><!--link ProductionElement to Part--><g id="link_ProductionElement_Part"><path codeLine="116" d="M927.423,929.763 C985.077,961.992 1052.8407,999.8658 1108.1187,1030.7718 " fill="none" id="ProductionElement-to-Part" style="stroke:#181818;stroke-width:0.9;"/><polygon fill="#181818" points="1112.832,1033.407,1107.5188,1026.3119,1108.9042,1031.211,1104.0052,1032.5964,1112.832,1033.407" style="stroke:#181818;stroke-width:0.9;"/><text fill="#000000" font-family="sans-serif" font-size="11.7" lengthAdjust="spacing" textLength="18.9" x="1035.9" y="987.3255">has</text></g><!--link ProductionElement to Operation--><g id="link_ProductionElement_Operation"><path codeLine="117" d="M830.7,929.763 C830.7,956.781 830.7,984.213 830.7,1012.329 " fill="none" id="ProductionElement-to-Operation" style="stroke:#181818;stroke-width:0.9;"/><polygon fill="#181818" points="830.7,1017.729,834.3,1009.629,830.7,1013.229,827.1,1009.629,830.7,1017.729" style="stroke:#181818;stroke-width:0.9;"/><text fill="#000000" font-family="sans-serif" font-size="11.7" lengthAdjust="spacing" textLength="18.9" x="831.6" y="987.3255">has</text></g><!--link ProductionService to ProductException--><g id="link_ProductionService_ProductException"><path codeLine="118" d="M981.9,366.354 C981.9,398.34 981.9,444.231 981.9,479.124 " fill="none" id="ProductionService-to-ProductException" style="stroke:#181818;stroke-width:0.9;stroke-dasharray:7.0,7.0;"/><polygon fill="#181818" points="981.9,484.524,985.5,476.424,981.9,480.024,978.3,476.424,981.9,484.524" style="stroke:#181818;stroke-width:0.9;"/><text fill="#000000" font-family="sans-serif" font-size="11.7" lengthAdjust="spacing" textLength="34.2" x="982.8" y="416.7255">throws</text></g><!--link ProductException to RuntimeException--><g id="link_ProductException_RuntimeException"><path codeLine="119" d="M981.9,561.168 C981.9,591.318 981.9,616.446 981.9,641.052 " fill="none" id="ProductException-to-RuntimeException" style="stroke:#181818;stroke-width:0.9;"/><polygon fill="none" points="981.9,657.252,987.3,641.052,976.5,641.052,981.9,657.252" style="stroke:#181818;stroke-width:0.9;"/></g><!--SRC=[jLPVJzim47_Ffx3wrAu1RQyLgiGAY4fZ80eVm3X7QpMnCziPT1lVVNRgndRiKZffVKbpzxi__jtvBd9DMOq5hb2DoHelOQ4s9I01H66sB26J7K2kSC5VA5kYPrnANrDI1cfJ0wfvkJ4ldewKMCfpfGHzQXJC2MSB-WlGvoop0T7WSJv0lpEaVoqOpLP0rjTOBfhdPqeeCBLGdApl12yQeXxd5loMlNbEPfmfmSiIHEZCMZcrrPhVU0dAwkLmX2Re6vNgp4gcDaZiYtAsrzsSoIxhU_noWnK8Yils05TSM0_3UlkSNtHHFV0qSRm5Y9-KGF9iLdVSmNgmhvlvHPYLLRp7GZhm_wBW7cekgU9Y4xBGoIb8BvKJNpuSzLFKxKsWvSR7fQXnSOSUBqwQij7aF0W0ty2AUdOfPXsan-nvMHxNfc70T8Des3K5WGLPRSAYw2kuki7rcGDUbb3fgkPepXGiGQJATCCBA7jzYeNoAqCBxNsXHm9REY735IJ41KWYQ6sYnzgnyJoaHOwCTOuyy2ZcnUilFnlI2B6RCJe4PShfAiferLGftTXpz-4KB9L1UErZQQhJTShCIdoCffUgJJyzQKPfJqPuoKM2o5gOgpf11M-Uz5nt5Dhxc3n2ZdRfcN_R979amkft4oX7hT_HUrrekyO_T6qwOj8sXXFoMhUXBVJjxhzJ_sWmKriIBj9dSB669a2EEeyvsbadCkrYHJqQ4DjkE2-p1_r-i7tX5KZJecdLBzMuSzMIR_plIX2OZHAtxFALG5kXv4RejFwLhuEny9shAzwm8ZdqE_l8-WYpyEurclqA749h3-xvqzDflB-FCWjMTHP_2tXGkyoov98FNVQWkpLeGC4ockZlA6-t9E3nn9-WEbem-mqTF8lNyWVpwLditHvTg7YJlUlfO8xnfF13MTc-ytapNH_FlMN1oKzE8Yge_GO8WOClWnPidXyhpY7pVo7I0tSUFmqyGkrK3glO2vEm32YEVMZud-bsAFkyEcdinWIusmxp5PPx0BVUO0zHYJPmisk2r4hmbmxlD6r6qKZv2m00]--></g></svg>