<?xml version="1.0" encoding="us-ascii" standalone="no"?><svg xmlns="http://www.w3.org/2000/svg" xmlns:xlink="http://www.w3.org/1999/xlink" contentStyleType="text/css" height="905.8px" preserveAspectRatio="none" style="width:1292px;height:905px;background:#FFFFFF;" version="1.1" viewBox="0 0 1292 905" width="1292.9px" zoomAndPan="magnify"><defs/><g><!--cluster UI--><g id="cluster_UI"><rect fill="none" height="70.7" rx="1.75" ry="1.75" style="stroke:#000000;stroke-width:1.0499999999999998;" width="155.4" x="739.2" y="4.9"/><text fill="#000000" font-family="sans-serif" font-size="9.8" font-weight="bold" lengthAdjust="spacing" textLength="9.8" x="812" y="16.8752">UI</text></g><!--cluster Controller--><g id="cluster_Controller"><rect fill="none" height="84" rx="1.75" ry="1.75" style="stroke:#000000;stroke-width:1.0499999999999998;" width="532.7" x="570.5" y="98.7"/><text fill="#000000" font-family="sans-serif" font-size="9.8" font-weight="bold" lengthAdjust="spacing" textLength="49.7" x="812" y="110.6752">Controller</text></g><!--cluster Service--><g id="cluster_Service"><rect fill="none" height="96.6" rx="1.75" ry="1.75" style="stroke:#000000;stroke-width:1.0499999999999998;" width="563.5" x="382.2" y="205.8"/><text fill="#000000" font-family="sans-serif" font-size="9.8" font-weight="bold" lengthAdjust="spacing" textLength="37.8" x="645.05" y="217.7752">Service</text></g><!--cluster Repository--><g id="cluster_Repository"><rect fill="none" height="224.7" rx="1.75" ry="1.75" style="stroke:#000000;stroke-width:1.0499999999999998;" width="510.3" x="4.9" y="338.1"/><text fill="#000000" font-family="sans-serif" font-size="9.8" font-weight="bold" lengthAdjust="spacing" textLength="53.2" x="233.45" y="350.0752">Repository</text></g><!--cluster Model--><g id="cluster_Model"><rect fill="none" height="303.1" rx="1.75" ry="1.75" style="stroke:#000000;stroke-width:1.0499999999999998;" width="758.8" x="529.9" y="598.5"/><text fill="#000000" font-family="sans-serif" font-size="9.8" font-weight="bold" lengthAdjust="spacing" textLength="30.8" x="893.9" y="610.4752">Model</text></g><!--cluster Exception--><g id="cluster_Exception"><rect fill="none" height="205.1" rx="1.75" ry="1.75" style="stroke:#000000;stroke-width:1.0499999999999998;" width="282.8" x="622.3" y="351.05"/><text fill="#000000" font-family="sans-serif" font-size="9.8" font-weight="bold" lengthAdjust="spacing" textLength="49" x="739.2" y="363.0252">Exception</text></g><!--class ConsultProductionTreeUI--><g id="elem_ConsultProductionTreeUI"><rect codeLine="7" fill="#F1F1F1" height="33.6" id="ConsultProductionTreeUI" rx="1.75" ry="1.75" style="stroke:#181818;stroke-width:0.3499999999999999;" width="133" x="750.4" y="30.8"/><ellipse cx="760.9" cy="42" fill="#ADD1B2" rx="7.7" ry="7.7" style="stroke:#181818;stroke-width:0.6999999999999998;"/><path d="M762.8359,39.1125 Q762.9453,38.9594 763.0766,38.8828 Q763.2078,38.8062 763.3609,38.8062 Q763.6234,38.8062 763.7875,38.9922 Q763.9516,39.1672 763.9516,39.5937 L763.9516,40.6109 Q763.9516,41.0375 763.7875,41.2234 Q763.6234,41.4094 763.3609,41.4094 Q763.1203,41.4094 762.9781,41.2672 Q762.8359,41.1359 762.7594,40.775 Q762.7266,40.5234 762.5953,40.3922 Q762.3656,40.1297 761.9391,39.9766 Q761.5125,39.8234 761.075,39.8234 Q760.5391,39.8234 760.0906,40.0531 Q759.6531,40.2828 759.3031,40.8078 Q758.9641,41.3328 758.9641,42.0547 L758.9641,42.8203 Q758.9641,43.6844 759.5875,44.2641 Q760.2109,44.8328 761.3266,44.8328 Q761.9828,44.8328 762.4422,44.6578 Q762.7156,44.5484 763.0109,44.2422 Q763.1969,44.0562 763.2953,44.0016 Q763.4047,43.9469 763.5469,43.9469 Q763.7766,43.9469 763.9516,44.1328 Q764.1375,44.3078 764.1375,44.5484 Q764.1375,44.7891 763.8969,45.0734 Q763.5469,45.4781 762.9891,45.7078 Q762.2344,46.025 761.3266,46.025 Q760.2656,46.025 759.4234,45.5875 Q758.7344,45.2375 758.2531,44.4937 Q757.7719,43.7391 757.7719,42.8422 L757.7719,42.0328 Q757.7719,41.1031 758.1984,40.3047 Q758.6359,39.4953 759.4016,39.0687 Q760.1672,38.6312 761.0312,38.6312 Q761.5453,38.6312 761.9937,38.7516 Q762.4531,38.8609 762.8359,39.1125 Z " fill="#000000"/><text fill="#000000" font-family="sans-serif" font-size="9.8" lengthAdjust="spacing" textLength="110.6" x="770.7" y="46.0578">ConsultProductionTreeUI</text><line style="stroke:#181818;stroke-width:0.3499999999999999;" x1="751.1" x2="882.7" y1="53.2" y2="53.2"/><line style="stroke:#181818;stroke-width:0.3499999999999999;" x1="751.1" x2="882.7" y1="58.8" y2="58.8"/></g><!--class ProductController--><g id="elem_ProductController"><rect codeLine="12" fill="#F1F1F1" height="46.6348" id="ProductController" rx="1.75" ry="1.75" style="stroke:#181818;stroke-width:0.3499999999999999;" width="143.5" x="582.05" y="124.6"/><ellipse cx="612.08" cy="135.8" fill="#ADD1B2" rx="7.7" ry="7.7" style="stroke:#181818;stroke-width:0.6999999999999998;"/><path d="M614.0159,132.9125 Q614.1253,132.7594 614.2566,132.6828 Q614.3878,132.6062 614.5409,132.6062 Q614.8034,132.6062 614.9675,132.7922 Q615.1316,132.9672 615.1316,133.3937 L615.1316,134.4109 Q615.1316,134.8375 614.9675,135.0234 Q614.8034,135.2094 614.5409,135.2094 Q614.3003,135.2094 614.1581,135.0672 Q614.0159,134.9359 613.9394,134.575 Q613.9066,134.3234 613.7753,134.1922 Q613.5456,133.9297 613.1191,133.7766 Q612.6925,133.6234 612.255,133.6234 Q611.7191,133.6234 611.2706,133.8531 Q610.8331,134.0828 610.4831,134.6078 Q610.1441,135.1328 610.1441,135.8547 L610.1441,136.6203 Q610.1441,137.4844 610.7675,138.0641 Q611.3909,138.6328 612.5066,138.6328 Q613.1628,138.6328 613.6222,138.4578 Q613.8956,138.3484 614.1909,138.0422 Q614.3769,137.8562 614.4753,137.8016 Q614.5847,137.7469 614.7269,137.7469 Q614.9566,137.7469 615.1316,137.9328 Q615.3175,138.1078 615.3175,138.3484 Q615.3175,138.5891 615.0769,138.8734 Q614.7269,139.2781 614.1691,139.5078 Q613.4144,139.825 612.5066,139.825 Q611.4456,139.825 610.6034,139.3875 Q609.9144,139.0375 609.4331,138.2937 Q608.9519,137.5391 608.9519,136.6422 L608.9519,135.8328 Q608.9519,134.9031 609.3784,134.1047 Q609.8159,133.2953 610.5816,132.8687 Q611.3472,132.4312 612.2112,132.4312 Q612.7253,132.4312 613.1737,132.5516 Q613.6331,132.6609 614.0159,132.9125 Z " fill="#000000"/><text fill="#000000" font-family="sans-serif" font-size="9.8" lengthAdjust="spacing" textLength="77.7" x="626.22" y="139.8578">ProductController</text><line style="stroke:#181818;stroke-width:0.3499999999999999;" x1="582.75" x2="724.85" y1="147" y2="147"/><line style="stroke:#181818;stroke-width:0.3499999999999999;" x1="582.75" x2="724.85" y1="152.6" y2="152.6"/><text fill="#000000" font-family="sans-serif" font-size="9.8" lengthAdjust="spacing" textLength="135.1" x="586.25" y="165.9752">+getProducts() : List&lt;Product&gt;</text></g><!--class ProductionController--><g id="elem_ProductionController"><rect codeLine="16" fill="#F1F1F1" height="46.6348" id="ProductionController" rx="1.75" ry="1.75" style="stroke:#181818;stroke-width:0.3499999999999999;" width="341.6" x="750.4" y="124.6"/><ellipse cx="872.725" cy="135.8" fill="#ADD1B2" rx="7.7" ry="7.7" style="stroke:#181818;stroke-width:0.6999999999999998;"/><path d="M874.6609,132.9125 Q874.7703,132.7594 874.9016,132.6828 Q875.0328,132.6062 875.1859,132.6062 Q875.4484,132.6062 875.6125,132.7922 Q875.7766,132.9672 875.7766,133.3937 L875.7766,134.4109 Q875.7766,134.8375 875.6125,135.0234 Q875.4484,135.2094 875.1859,135.2094 Q874.9453,135.2094 874.8031,135.0672 Q874.6609,134.9359 874.5844,134.575 Q874.5516,134.3234 874.4203,134.1922 Q874.1906,133.9297 873.7641,133.7766 Q873.3375,133.6234 872.9,133.6234 Q872.3641,133.6234 871.9156,133.8531 Q871.4781,134.0828 871.1281,134.6078 Q870.7891,135.1328 870.7891,135.8547 L870.7891,136.6203 Q870.7891,137.4844 871.4125,138.0641 Q872.0359,138.6328 873.1516,138.6328 Q873.8078,138.6328 874.2672,138.4578 Q874.5406,138.3484 874.8359,138.0422 Q875.0219,137.8562 875.1203,137.8016 Q875.2297,137.7469 875.3719,137.7469 Q875.6016,137.7469 875.7766,137.9328 Q875.9625,138.1078 875.9625,138.3484 Q875.9625,138.5891 875.7219,138.8734 Q875.3719,139.2781 874.8141,139.5078 Q874.0594,139.825 873.1516,139.825 Q872.0906,139.825 871.2484,139.3875 Q870.5594,139.0375 870.0781,138.2937 Q869.5969,137.5391 869.5969,136.6422 L869.5969,135.8328 Q869.5969,134.9031 870.0234,134.1047 Q870.4609,133.2953 871.2266,132.8687 Q871.9922,132.4312 872.8562,132.4312 Q873.3703,132.4312 873.8187,132.5516 Q874.2781,132.6609 874.6609,132.9125 Z " fill="#000000"/><text fill="#000000" font-family="sans-serif" font-size="9.8" lengthAdjust="spacing" textLength="91" x="887.075" y="139.8578">ProductionController</text><line style="stroke:#181818;stroke-width:0.3499999999999999;" x1="751.1" x2="1091.3" y1="147" y2="147"/><line style="stroke:#181818;stroke-width:0.3499999999999999;" x1="751.1" x2="1091.3" y1="152.6" y2="152.6"/><text fill="#000000" font-family="sans-serif" font-size="9.8" lengthAdjust="spacing" textLength="333.2" x="754.6" y="165.9752">+getInsufficientRawMaterialStockForProduct(productID) : List&lt;RawMaterial&gt;</text></g><!--class ProductService--><g id="elem_ProductService"><rect codeLine="22" fill="#F1F1F1" height="59.6695" id="ProductService" rx="1.75" ry="1.75" style="stroke:#181818;stroke-width:0.3499999999999999;" width="175" x="393.4" y="231.7"/><ellipse cx="444.325" cy="242.9" fill="#ADD1B2" rx="7.7" ry="7.7" style="stroke:#181818;stroke-width:0.6999999999999998;"/><path d="M446.2609,240.0125 Q446.3703,239.8594 446.5016,239.7828 Q446.6328,239.7062 446.7859,239.7062 Q447.0484,239.7062 447.2125,239.8922 Q447.3766,240.0672 447.3766,240.4937 L447.3766,241.5109 Q447.3766,241.9375 447.2125,242.1234 Q447.0484,242.3094 446.7859,242.3094 Q446.5453,242.3094 446.4031,242.1672 Q446.2609,242.0359 446.1844,241.675 Q446.1516,241.4234 446.0203,241.2922 Q445.7906,241.0297 445.3641,240.8766 Q444.9375,240.7234 444.5,240.7234 Q443.9641,240.7234 443.5156,240.9531 Q443.0781,241.1828 442.7281,241.7078 Q442.3891,242.2328 442.3891,242.9547 L442.3891,243.7203 Q442.3891,244.5844 443.0125,245.1641 Q443.6359,245.7328 444.7516,245.7328 Q445.4078,245.7328 445.8672,245.5578 Q446.1406,245.4484 446.4359,245.1422 Q446.6219,244.9562 446.7203,244.9016 Q446.8297,244.8469 446.9719,244.8469 Q447.2016,244.8469 447.3766,245.0328 Q447.5625,245.2078 447.5625,245.4484 Q447.5625,245.6891 447.3219,245.9734 Q446.9719,246.3781 446.4141,246.6078 Q445.6594,246.925 444.7516,246.925 Q443.6906,246.925 442.8484,246.4875 Q442.1594,246.1375 441.6781,245.3937 Q441.1969,244.6391 441.1969,243.7422 L441.1969,242.9328 Q441.1969,242.0031 441.6234,241.2047 Q442.0609,240.3953 442.8266,239.9687 Q443.5922,239.5312 444.4562,239.5312 Q444.9703,239.5312 445.4187,239.6516 Q445.8781,239.7609 446.2609,240.0125 Z " fill="#000000"/><text fill="#000000" font-family="sans-serif" font-size="9.8" lengthAdjust="spacing" textLength="67.2" x="458.675" y="246.9578">ProductService</text><line style="stroke:#181818;stroke-width:0.3499999999999999;" x1="394.1" x2="567.7" y1="254.1" y2="254.1"/><line style="stroke:#181818;stroke-width:0.3499999999999999;" x1="394.1" x2="567.7" y1="259.7" y2="259.7"/><text fill="#000000" font-family="sans-serif" font-size="9.8" lengthAdjust="spacing" textLength="135.1" x="397.6" y="273.0752">+getProducts() : List&lt;Product&gt;</text><text fill="#000000" font-family="sans-serif" font-size="9.8" lengthAdjust="spacing" textLength="166.6" x="397.6" y="286.11">+getProductByID(productID) : Product</text></g><!--class ProductionService--><g id="elem_ProductionService"><rect codeLine="27" fill="#F1F1F1" height="46.6348" id="ProductionService" rx="1.75" ry="1.75" style="stroke:#181818;stroke-width:0.3499999999999999;" width="341.6" x="592.9" y="238"/><ellipse cx="720.475" cy="249.2" fill="#ADD1B2" rx="7.7" ry="7.7" style="stroke:#181818;stroke-width:0.6999999999999998;"/><path d="M722.4109,246.3125 Q722.5203,246.1594 722.6516,246.0828 Q722.7828,246.0062 722.9359,246.0062 Q723.1984,246.0062 723.3625,246.1922 Q723.5266,246.3672 723.5266,246.7937 L723.5266,247.8109 Q723.5266,248.2375 723.3625,248.4234 Q723.1984,248.6094 722.9359,248.6094 Q722.6953,248.6094 722.5531,248.4672 Q722.4109,248.3359 722.3344,247.975 Q722.3016,247.7234 722.1703,247.5922 Q721.9406,247.3297 721.5141,247.1766 Q721.0875,247.0234 720.65,247.0234 Q720.1141,247.0234 719.6656,247.2531 Q719.2281,247.4828 718.8781,248.0078 Q718.5391,248.5328 718.5391,249.2547 L718.5391,250.0203 Q718.5391,250.8844 719.1625,251.4641 Q719.7859,252.0328 720.9016,252.0328 Q721.5578,252.0328 722.0172,251.8578 Q722.2906,251.7484 722.5859,251.4422 Q722.7719,251.2562 722.8703,251.2016 Q722.9797,251.1469 723.1219,251.1469 Q723.3516,251.1469 723.5266,251.3328 Q723.7125,251.5078 723.7125,251.7484 Q723.7125,251.9891 723.4719,252.2734 Q723.1219,252.6781 722.5641,252.9078 Q721.8094,253.225 720.9016,253.225 Q719.8406,253.225 718.9984,252.7875 Q718.3094,252.4375 717.8281,251.6937 Q717.3469,250.9391 717.3469,250.0422 L717.3469,249.2328 Q717.3469,248.3031 717.7734,247.5047 Q718.2109,246.6953 718.9766,246.2687 Q719.7422,245.8312 720.6062,245.8312 Q721.1203,245.8312 721.5687,245.9516 Q722.0281,246.0609 722.4109,246.3125 Z " fill="#000000"/><text fill="#000000" font-family="sans-serif" font-size="9.8" lengthAdjust="spacing" textLength="80.5" x="734.825" y="253.2578">ProductionService</text><line style="stroke:#181818;stroke-width:0.3499999999999999;" x1="593.6" x2="933.8" y1="260.4" y2="260.4"/><line style="stroke:#181818;stroke-width:0.3499999999999999;" x1="593.6" x2="933.8" y1="266" y2="266"/><text fill="#000000" font-family="sans-serif" font-size="9.8" lengthAdjust="spacing" textLength="333.2" x="597.1" y="279.3752">+getInsufficientRawMaterialStockForProduct(productID) : List&lt;RawMaterial&gt;</text></g><!--class Repositories--><g id="elem_Repositories"><rect codeLine="33" fill="#F1F1F1" height="85.7391" id="Repositories" rx="1.75" ry="1.75" style="stroke:#181818;stroke-width:0.3499999999999999;" width="228.2" x="48.3" y="364"/><ellipse cx="131.775" cy="375.2" fill="#ADD1B2" rx="7.7" ry="7.7" style="stroke:#181818;stroke-width:0.6999999999999998;"/><path d="M133.7109,372.3125 Q133.8203,372.1594 133.9516,372.0828 Q134.0828,372.0062 134.2359,372.0062 Q134.4984,372.0062 134.6625,372.1922 Q134.8266,372.3672 134.8266,372.7937 L134.8266,373.8109 Q134.8266,374.2375 134.6625,374.4234 Q134.4984,374.6094 134.2359,374.6094 Q133.9953,374.6094 133.8531,374.4672 Q133.7109,374.3359 133.6344,373.975 Q133.6016,373.7234 133.4703,373.5922 Q133.2406,373.3297 132.8141,373.1766 Q132.3875,373.0234 131.95,373.0234 Q131.4141,373.0234 130.9656,373.2531 Q130.5281,373.4828 130.1781,374.0078 Q129.8391,374.5328 129.8391,375.2547 L129.8391,376.0203 Q129.8391,376.8844 130.4625,377.4641 Q131.0859,378.0328 132.2016,378.0328 Q132.8578,378.0328 133.3172,377.8578 Q133.5906,377.7484 133.8859,377.4422 Q134.0719,377.2562 134.1703,377.2016 Q134.2797,377.1469 134.4219,377.1469 Q134.6516,377.1469 134.8266,377.3328 Q135.0125,377.5078 135.0125,377.7484 Q135.0125,377.9891 134.7719,378.2734 Q134.4219,378.6781 133.8641,378.9078 Q133.1094,379.225 132.2016,379.225 Q131.1406,379.225 130.2984,378.7875 Q129.6094,378.4375 129.1281,377.6937 Q128.6469,376.9391 128.6469,376.0422 L128.6469,375.2328 Q128.6469,374.3031 129.0734,373.5047 Q129.5109,372.6953 130.2766,372.2687 Q131.0422,371.8312 131.9062,371.8312 Q132.4203,371.8312 132.8687,371.9516 Q133.3281,372.0609 133.7109,372.3125 Z " fill="#000000"/><text fill="#000000" font-family="sans-serif" font-size="9.8" lengthAdjust="spacing" textLength="55.3" x="146.125" y="379.2578">Repositories</text><line style="stroke:#181818;stroke-width:0.3499999999999999;" x1="49" x2="275.8" y1="386.4" y2="386.4"/><line style="stroke:#181818;stroke-width:0.3499999999999999;" x1="49" x2="275.8" y1="392" y2="392"/><text fill="#000000" font-family="sans-serif" font-size="9.8" lengthAdjust="spacing" textLength="65.8" x="52.5" y="405.3752">-Repositories()</text><text fill="#000000" font-family="sans-serif" font-size="9.8" lengthAdjust="spacing" textLength="127.4" x="52.5" y="418.41">+getInstance() : Repositories</text><text fill="#000000" font-family="sans-serif" font-size="9.8" lengthAdjust="spacing" textLength="198.8" x="52.5" y="431.4447">+getProductRepository() : ProductRepository</text><text fill="#000000" font-family="sans-serif" font-size="9.8" lengthAdjust="spacing" textLength="219.8" x="52.5" y="444.4795">+getProductionTree() : ProductionTreeRepository</text></g><!--class ProductRepository--><g id="elem_ProductRepository"><rect codeLine="40" fill="#F1F1F1" height="46.6348" id="ProductRepository" rx="1.75" ry="1.75" style="stroke:#181818;stroke-width:0.3499999999999999;" width="114.8" x="389.2" y="504.7"/><ellipse cx="404.425" cy="515.9" fill="#ADD1B2" rx="7.7" ry="7.7" style="stroke:#181818;stroke-width:0.6999999999999998;"/><path d="M406.3609,513.0125 Q406.4703,512.8594 406.6016,512.7828 Q406.7328,512.7062 406.8859,512.7062 Q407.1484,512.7062 407.3125,512.8922 Q407.4766,513.0672 407.4766,513.4937 L407.4766,514.5109 Q407.4766,514.9375 407.3125,515.1234 Q407.1484,515.3094 406.8859,515.3094 Q406.6453,515.3094 406.5031,515.1672 Q406.3609,515.0359 406.2844,514.675 Q406.2516,514.4234 406.1203,514.2922 Q405.8906,514.0297 405.4641,513.8766 Q405.0375,513.7234 404.6,513.7234 Q404.0641,513.7234 403.6156,513.9531 Q403.1781,514.1828 402.8281,514.7078 Q402.4891,515.2328 402.4891,515.9547 L402.4891,516.7203 Q402.4891,517.5844 403.1125,518.1641 Q403.7359,518.7328 404.8516,518.7328 Q405.5078,518.7328 405.9672,518.5578 Q406.2406,518.4484 406.5359,518.1422 Q406.7219,517.9562 406.8203,517.9016 Q406.9297,517.8469 407.0719,517.8469 Q407.3016,517.8469 407.4766,518.0328 Q407.6625,518.2078 407.6625,518.4484 Q407.6625,518.6891 407.4219,518.9734 Q407.0719,519.3781 406.5141,519.6078 Q405.7594,519.925 404.8516,519.925 Q403.7906,519.925 402.9484,519.4875 Q402.2594,519.1375 401.7781,518.3937 Q401.2969,517.6391 401.2969,516.7422 L401.2969,515.9328 Q401.2969,515.0031 401.7234,514.2047 Q402.1609,513.3953 402.9266,512.9687 Q403.6922,512.5312 404.5562,512.5312 Q405.0703,512.5312 405.5187,512.6516 Q405.9781,512.7609 406.3609,513.0125 Z " fill="#000000"/><text fill="#000000" font-family="sans-serif" font-size="9.8" lengthAdjust="spacing" textLength="81.9" x="415.275" y="519.9578">ProductRepository</text><line style="stroke:#181818;stroke-width:0.3499999999999999;" x1="389.9" x2="503.3" y1="527.1" y2="527.1"/><line style="stroke:#181818;stroke-width:0.3499999999999999;" x1="389.9" x2="503.3" y1="532.7" y2="532.7"/><text fill="#000000" font-family="sans-serif" font-size="9.8" lengthAdjust="spacing" textLength="106.4" x="393.4" y="546.0752">+getAll() : List&lt;Product&gt;</text></g><!--class ProductionTreeRepository--><g id="elem_ProductionTreeRepository"><rect codeLine="44" fill="#F1F1F1" height="46.6348" id="ProductionTreeRepository" rx="1.75" ry="1.75" style="stroke:#181818;stroke-width:0.3499999999999999;" width="347.9" x="16.45" y="504.7"/><ellipse cx="129.325" cy="515.9" fill="#ADD1B2" rx="7.7" ry="7.7" style="stroke:#181818;stroke-width:0.6999999999999998;"/><path d="M131.2609,513.0125 Q131.3703,512.8594 131.5016,512.7828 Q131.6328,512.7062 131.7859,512.7062 Q132.0484,512.7062 132.2125,512.8922 Q132.3766,513.0672 132.3766,513.4937 L132.3766,514.5109 Q132.3766,514.9375 132.2125,515.1234 Q132.0484,515.3094 131.7859,515.3094 Q131.5453,515.3094 131.4031,515.1672 Q131.2609,515.0359 131.1844,514.675 Q131.1516,514.4234 131.0203,514.2922 Q130.7906,514.0297 130.3641,513.8766 Q129.9375,513.7234 129.5,513.7234 Q128.9641,513.7234 128.5156,513.9531 Q128.0781,514.1828 127.7281,514.7078 Q127.3891,515.2328 127.3891,515.9547 L127.3891,516.7203 Q127.3891,517.5844 128.0125,518.1641 Q128.6359,518.7328 129.7516,518.7328 Q130.4078,518.7328 130.8672,518.5578 Q131.1406,518.4484 131.4359,518.1422 Q131.6219,517.9562 131.7203,517.9016 Q131.8297,517.8469 131.9719,517.8469 Q132.2016,517.8469 132.3766,518.0328 Q132.5625,518.2078 132.5625,518.4484 Q132.5625,518.6891 132.3219,518.9734 Q131.9719,519.3781 131.4141,519.6078 Q130.6594,519.925 129.7516,519.925 Q128.6906,519.925 127.8484,519.4875 Q127.1594,519.1375 126.6781,518.3937 Q126.1969,517.6391 126.1969,516.7422 L126.1969,515.9328 Q126.1969,515.0031 126.6234,514.2047 Q127.0609,513.3953 127.8266,512.9687 Q128.5922,512.5312 129.4562,512.5312 Q129.9703,512.5312 130.4187,512.6516 Q130.8781,512.7609 131.2609,513.0125 Z " fill="#000000"/><text fill="#000000" font-family="sans-serif" font-size="9.8" lengthAdjust="spacing" textLength="116.2" x="143.675" y="519.9578">ProductionTreeRepository</text><line style="stroke:#181818;stroke-width:0.3499999999999999;" x1="17.15" x2="363.65" y1="527.1" y2="527.1"/><line style="stroke:#181818;stroke-width:0.3499999999999999;" x1="17.15" x2="363.65" y1="532.7" y2="532.7"/><text fill="#000000" font-family="sans-serif" font-size="9.8" lengthAdjust="spacing" textLength="339.5" x="20.65" y="546.0752">+getProductionHierarchy(productID) : HashMap&lt;ProductionElement, Integer&gt;</text></g><!--class Part--><g id="elem_Part"><rect codeLine="50" fill="#F1F1F1" height="85.7391" id="Part" rx="1.75" ry="1.75" style="stroke:#181818;stroke-width:0.3499999999999999;" width="130.9" x="865.55" y="798.35"/><ellipse cx="918.925" cy="809.55" fill="#ADD1B2" rx="7.7" ry="7.7" style="stroke:#181818;stroke-width:0.6999999999999998;"/><path d="M920.8609,806.6625 Q920.9703,806.5094 921.1016,806.4328 Q921.2328,806.3562 921.3859,806.3562 Q921.6484,806.3562 921.8125,806.5422 Q921.9766,806.7172 921.9766,807.1437 L921.9766,808.1609 Q921.9766,808.5875 921.8125,808.7734 Q921.6484,808.9594 921.3859,808.9594 Q921.1453,808.9594 921.0031,808.8172 Q920.8609,808.6859 920.7844,808.325 Q920.7516,808.0734 920.6203,807.9422 Q920.3906,807.6797 919.9641,807.5266 Q919.5375,807.3734 919.1,807.3734 Q918.5641,807.3734 918.1156,807.6031 Q917.6781,807.8328 917.3281,808.3578 Q916.9891,808.8828 916.9891,809.6047 L916.9891,810.3703 Q916.9891,811.2344 917.6125,811.8141 Q918.2359,812.3828 919.3516,812.3828 Q920.0078,812.3828 920.4672,812.2078 Q920.7406,812.0984 921.0359,811.7922 Q921.2219,811.6062 921.3203,811.5516 Q921.4297,811.4969 921.5719,811.4969 Q921.8016,811.4969 921.9766,811.6828 Q922.1625,811.8578 922.1625,812.0984 Q922.1625,812.3391 921.9219,812.6234 Q921.5719,813.0281 921.0141,813.2578 Q920.2594,813.575 919.3516,813.575 Q918.2906,813.575 917.4484,813.1375 Q916.7594,812.7875 916.2781,812.0437 Q915.7969,811.2891 915.7969,810.3922 L915.7969,809.5828 Q915.7969,808.6531 916.2234,807.8547 Q916.6609,807.0453 917.4266,806.6187 Q918.1922,806.1812 919.0562,806.1812 Q919.5703,806.1812 920.0187,806.3016 Q920.4781,806.4109 920.8609,806.6625 Z " fill="#000000"/><text fill="#000000" font-family="sans-serif" font-size="9.8" lengthAdjust="spacing" textLength="18.2" x="933.275" y="813.6078">Part</text><line style="stroke:#181818;stroke-width:0.3499999999999999;" x1="866.25" x2="995.75" y1="820.75" y2="820.75"/><text fill="#000000" font-family="sans-serif" font-size="9.8" lengthAdjust="spacing" textLength="45.5" x="869.75" y="834.1252">-id : String</text><text fill="#000000" font-family="sans-serif" font-size="9.8" lengthAdjust="spacing" textLength="62.3" x="869.75" y="847.16">-name : String</text><text fill="#000000" font-family="sans-serif" font-size="9.8" lengthAdjust="spacing" textLength="86.1" x="869.75" y="860.1947">-description : String</text><line style="stroke:#181818;stroke-width:0.3499999999999999;" x1="866.25" x2="995.75" y1="865.4543" y2="865.4543"/><text fill="#000000" font-family="sans-serif" font-size="9.8" lengthAdjust="spacing" textLength="122.5" x="869.75" y="878.8295">+Part(id, name, description)</text></g><!--class RawMaterial--><g id="elem_RawMaterial"><rect codeLine="57" fill="#F1F1F1" height="72.7043" id="RawMaterial" rx="1.75" ry="1.75" style="stroke:#181818;stroke-width:0.3499999999999999;" width="166.6" x="1110.9" y="644"/><ellipse cx="1164.275" cy="655.2" fill="#ADD1B2" rx="7.7" ry="7.7" style="stroke:#181818;stroke-width:0.6999999999999998;"/><path d="M1166.2109,652.3125 Q1166.3203,652.1594 1166.4516,652.0828 Q1166.5828,652.0062 1166.7359,652.0062 Q1166.9984,652.0062 1167.1625,652.1922 Q1167.3266,652.3672 1167.3266,652.7937 L1167.3266,653.8109 Q1167.3266,654.2375 1167.1625,654.4234 Q1166.9984,654.6094 1166.7359,654.6094 Q1166.4953,654.6094 1166.3531,654.4672 Q1166.2109,654.3359 1166.1344,653.975 Q1166.1016,653.7234 1165.9703,653.5922 Q1165.7406,653.3297 1165.3141,653.1766 Q1164.8875,653.0234 1164.45,653.0234 Q1163.9141,653.0234 1163.4656,653.2531 Q1163.0281,653.4828 1162.6781,654.0078 Q1162.3391,654.5328 1162.3391,655.2547 L1162.3391,656.0203 Q1162.3391,656.8844 1162.9625,657.4641 Q1163.5859,658.0328 1164.7016,658.0328 Q1165.3578,658.0328 1165.8172,657.8578 Q1166.0906,657.7484 1166.3859,657.4422 Q1166.5719,657.2562 1166.6703,657.2016 Q1166.7797,657.1469 1166.9219,657.1469 Q1167.1516,657.1469 1167.3266,657.3328 Q1167.5125,657.5078 1167.5125,657.7484 Q1167.5125,657.9891 1167.2719,658.2734 Q1166.9219,658.6781 1166.3641,658.9078 Q1165.6094,659.225 1164.7016,659.225 Q1163.6406,659.225 1162.7984,658.7875 Q1162.1094,658.4375 1161.6281,657.6937 Q1161.1469,656.9391 1161.1469,656.0422 L1161.1469,655.2328 Q1161.1469,654.3031 1161.5734,653.5047 Q1162.0109,652.6953 1162.7766,652.2687 Q1163.5422,651.8312 1164.4062,651.8312 Q1164.9203,651.8312 1165.3687,651.9516 Q1165.8281,652.0609 1166.2109,652.3125 Z " fill="#000000"/><text fill="#000000" font-family="sans-serif" font-size="9.8" lengthAdjust="spacing" textLength="53.9" x="1178.625" y="659.2578">RawMaterial</text><line style="stroke:#181818;stroke-width:0.3499999999999999;" x1="1111.6" x2="1276.8" y1="666.4" y2="666.4"/><text fill="#000000" font-family="sans-serif" font-size="9.8" lengthAdjust="spacing" textLength="78.4" x="1115.1" y="679.7752">-currentStock : int</text><text fill="#000000" font-family="sans-serif" font-size="9.8" lengthAdjust="spacing" textLength="85.4" x="1115.1" y="692.81">-minimumStock : int</text><line style="stroke:#181818;stroke-width:0.3499999999999999;" x1="1111.6" x2="1276.8" y1="698.0695" y2="698.0695"/><text fill="#000000" font-family="sans-serif" font-size="9.8" lengthAdjust="spacing" textLength="158.2" x="1115.1" y="711.4447">+RawMaterial(id, name, description)</text></g><!--class Product--><g id="elem_Product"><rect codeLine="63" fill="#F1F1F1" height="111.8086" id="Product" rx="1.75" ry="1.75" style="stroke:#181818;stroke-width:0.3499999999999999;" width="310.1" x="775.95" y="624.4"/><ellipse cx="910.875" cy="635.6" fill="#ADD1B2" rx="7.7" ry="7.7" style="stroke:#181818;stroke-width:0.6999999999999998;"/><path d="M912.8109,632.7125 Q912.9203,632.5594 913.0516,632.4828 Q913.1828,632.4062 913.3359,632.4062 Q913.5984,632.4062 913.7625,632.5922 Q913.9266,632.7672 913.9266,633.1937 L913.9266,634.2109 Q913.9266,634.6375 913.7625,634.8234 Q913.5984,635.0094 913.3359,635.0094 Q913.0953,635.0094 912.9531,634.8672 Q912.8109,634.7359 912.7344,634.375 Q912.7016,634.1234 912.5703,633.9922 Q912.3406,633.7297 911.9141,633.5766 Q911.4875,633.4234 911.05,633.4234 Q910.5141,633.4234 910.0656,633.6531 Q909.6281,633.8828 909.2781,634.4078 Q908.9391,634.9328 908.9391,635.6547 L908.9391,636.4203 Q908.9391,637.2844 909.5625,637.8641 Q910.1859,638.4328 911.3016,638.4328 Q911.9578,638.4328 912.4172,638.2578 Q912.6906,638.1484 912.9859,637.8422 Q913.1719,637.6562 913.2703,637.6016 Q913.3797,637.5469 913.5219,637.5469 Q913.7516,637.5469 913.9266,637.7328 Q914.1125,637.9078 914.1125,638.1484 Q914.1125,638.3891 913.8719,638.6734 Q913.5219,639.0781 912.9641,639.3078 Q912.2094,639.625 911.3016,639.625 Q910.2406,639.625 909.3984,639.1875 Q908.7094,638.8375 908.2281,638.0937 Q907.7469,637.3391 907.7469,636.4422 L907.7469,635.6328 Q907.7469,634.7031 908.1734,633.9047 Q908.6109,633.0953 909.3766,632.6687 Q910.1422,632.2312 911.0062,632.2312 Q911.5203,632.2312 911.9687,632.3516 Q912.4281,632.4609 912.8109,632.7125 Z " fill="#000000"/><text fill="#000000" font-family="sans-serif" font-size="9.8" lengthAdjust="spacing" textLength="34.3" x="925.225" y="639.6578">Product</text><line style="stroke:#181818;stroke-width:0.3499999999999999;" x1="776.65" x2="1085.35" y1="646.8" y2="646.8"/><text fill="#000000" font-family="sans-serif" font-size="9.8" lengthAdjust="spacing" textLength="125.3" x="780.15" y="660.1752">-category : ProductCategory</text><text fill="#000000" font-family="sans-serif" font-size="9.8" lengthAdjust="spacing" textLength="58.8" x="780.15" y="673.21">-capacity : int</text><text fill="#000000" font-family="sans-serif" font-size="9.8" lengthAdjust="spacing" textLength="39.2" x="780.15" y="686.2447">-size : int</text><text fill="#000000" font-family="sans-serif" font-size="9.8" lengthAdjust="spacing" textLength="59.5" x="780.15" y="699.2795">-color : String</text><text fill="#000000" font-family="sans-serif" font-size="9.8" lengthAdjust="spacing" textLength="63.7" x="780.15" y="712.3143">-price : double</text><line style="stroke:#181818;stroke-width:0.3499999999999999;" x1="776.65" x2="1085.35" y1="717.5738" y2="717.5738"/><text fill="#000000" font-family="sans-serif" font-size="9.8" lengthAdjust="spacing" textLength="301.7" x="780.15" y="730.949">+Product(id, name, description, category, capacity, size, color, price)</text></g><!--class ProductionElement--><g id="elem_ProductionElement"><rect codeLine="72" fill="#F1F1F1" height="85.7391" id="ProductionElement" rx="1.75" ry="1.75" style="stroke:#181818;stroke-width:0.3499999999999999;" width="210" x="541.1" y="637.7"/><ellipse cx="601.475" cy="648.9" fill="#ADD1B2" rx="7.7" ry="7.7" style="stroke:#181818;stroke-width:0.6999999999999998;"/><path d="M603.4109,646.0125 Q603.5203,645.8594 603.6516,645.7828 Q603.7828,645.7062 603.9359,645.7062 Q604.1984,645.7062 604.3625,645.8922 Q604.5266,646.0672 604.5266,646.4937 L604.5266,647.5109 Q604.5266,647.9375 604.3625,648.1234 Q604.1984,648.3094 603.9359,648.3094 Q603.6953,648.3094 603.5531,648.1672 Q603.4109,648.0359 603.3344,647.675 Q603.3016,647.4234 603.1703,647.2922 Q602.9406,647.0297 602.5141,646.8766 Q602.0875,646.7234 601.65,646.7234 Q601.1141,646.7234 600.6656,646.9531 Q600.2281,647.1828 599.8781,647.7078 Q599.5391,648.2328 599.5391,648.9547 L599.5391,649.7203 Q599.5391,650.5844 600.1625,651.1641 Q600.7859,651.7328 601.9016,651.7328 Q602.5578,651.7328 603.0172,651.5578 Q603.2906,651.4484 603.5859,651.1422 Q603.7719,650.9562 603.8703,650.9016 Q603.9797,650.8469 604.1219,650.8469 Q604.3516,650.8469 604.5266,651.0328 Q604.7125,651.2078 604.7125,651.4484 Q604.7125,651.6891 604.4719,651.9734 Q604.1219,652.3781 603.5641,652.6078 Q602.8094,652.925 601.9016,652.925 Q600.8406,652.925 599.9984,652.4875 Q599.3094,652.1375 598.8281,651.3937 Q598.3469,650.6391 598.3469,649.7422 L598.3469,648.9328 Q598.3469,648.0031 598.7734,647.2047 Q599.2109,646.3953 599.9766,645.9687 Q600.7422,645.5312 601.6062,645.5312 Q602.1203,645.5312 602.5687,645.6516 Q603.0281,645.7609 603.4109,646.0125 Z " fill="#000000"/><text fill="#000000" font-family="sans-serif" font-size="9.8" lengthAdjust="spacing" textLength="83.3" x="615.825" y="652.9578">ProductionElement</text><line style="stroke:#181818;stroke-width:0.3499999999999999;" x1="541.8" x2="750.4" y1="660.1" y2="660.1"/><text fill="#000000" font-family="sans-serif" font-size="9.8" lengthAdjust="spacing" textLength="47.6" x="545.3" y="673.4752">-part : Part</text><text fill="#000000" font-family="sans-serif" font-size="9.8" lengthAdjust="spacing" textLength="98" x="545.3" y="686.51">-operation : Operation</text><text fill="#000000" font-family="sans-serif" font-size="9.8" lengthAdjust="spacing" textLength="78.4" x="545.3" y="699.5447">-quantity : Double</text><line style="stroke:#181818;stroke-width:0.3499999999999999;" x1="541.8" x2="750.4" y1="704.8043" y2="704.8043"/><text fill="#000000" font-family="sans-serif" font-size="9.8" lengthAdjust="spacing" textLength="201.6" x="545.3" y="718.1795">+ProductionElement(part, operation, quantity)</text></g><!--class Operation--><g id="elem_Operation"><rect codeLine="79" fill="#F1F1F1" height="98.7738" id="Operation" rx="1.75" ry="1.75" style="stroke:#181818;stroke-width:0.3499999999999999;" width="196.7" x="547.75" y="791.7"/><ellipse cx="621.075" cy="802.9" fill="#ADD1B2" rx="7.7" ry="7.7" style="stroke:#181818;stroke-width:0.6999999999999998;"/><path d="M623.0109,800.0125 Q623.1203,799.8594 623.2516,799.7828 Q623.3828,799.7062 623.5359,799.7062 Q623.7984,799.7062 623.9625,799.8922 Q624.1266,800.0672 624.1266,800.4937 L624.1266,801.5109 Q624.1266,801.9375 623.9625,802.1234 Q623.7984,802.3094 623.5359,802.3094 Q623.2953,802.3094 623.1531,802.1672 Q623.0109,802.0359 622.9344,801.675 Q622.9016,801.4234 622.7703,801.2922 Q622.5406,801.0297 622.1141,800.8766 Q621.6875,800.7234 621.25,800.7234 Q620.7141,800.7234 620.2656,800.9531 Q619.8281,801.1828 619.4781,801.7078 Q619.1391,802.2328 619.1391,802.9547 L619.1391,803.7203 Q619.1391,804.5844 619.7625,805.1641 Q620.3859,805.7328 621.5016,805.7328 Q622.1578,805.7328 622.6172,805.5578 Q622.8906,805.4484 623.1859,805.1422 Q623.3719,804.9562 623.4703,804.9016 Q623.5797,804.8469 623.7219,804.8469 Q623.9516,804.8469 624.1266,805.0328 Q624.3125,805.2078 624.3125,805.4484 Q624.3125,805.6891 624.0719,805.9734 Q623.7219,806.3781 623.1641,806.6078 Q622.4094,806.925 621.5016,806.925 Q620.4406,806.925 619.5984,806.4875 Q618.9094,806.1375 618.4281,805.3937 Q617.9469,804.6391 617.9469,803.7422 L617.9469,802.9328 Q617.9469,802.0031 618.3734,801.2047 Q618.8109,800.3953 619.5766,799.9687 Q620.3422,799.5312 621.2062,799.5312 Q621.7203,799.5312 622.1687,799.6516 Q622.6281,799.7609 623.0109,800.0125 Z " fill="#000000"/><text fill="#000000" font-family="sans-serif" font-size="9.8" lengthAdjust="spacing" textLength="44.1" x="635.425" y="806.9578">Operation</text><line style="stroke:#181818;stroke-width:0.3499999999999999;" x1="548.45" x2="743.75" y1="814.1" y2="814.1"/><text fill="#000000" font-family="sans-serif" font-size="9.8" lengthAdjust="spacing" textLength="30.1" x="551.95" y="827.4752">-id : int</text><text fill="#000000" font-family="sans-serif" font-size="9.8" lengthAdjust="spacing" textLength="97.3" x="551.95" y="840.51">-type : OperationType</text><text fill="#000000" font-family="sans-serif" font-size="9.8" lengthAdjust="spacing" textLength="62.3" x="551.95" y="853.5447">-name : String</text><text fill="#000000" font-family="sans-serif" font-size="9.8" lengthAdjust="spacing" textLength="86.1" x="551.95" y="866.5795">-executionTime : int</text><line style="stroke:#181818;stroke-width:0.3499999999999999;" x1="548.45" x2="743.75" y1="871.8391" y2="871.8391"/><text fill="#000000" font-family="sans-serif" font-size="9.8" lengthAdjust="spacing" textLength="188.3" x="551.95" y="885.2143">+Operation(id, type, name, executionTime)</text></g><!--class ProductException--><g id="elem_ProductException"><rect codeLine="89" fill="#F1F1F1" height="59.6695" id="ProductException" rx="1.75" ry="1.75" style="stroke:#181818;stroke-width:0.3499999999999999;" width="260.4" x="633.5" y="376.95"/><ellipse cx="722.225" cy="388.15" fill="#ADD1B2" rx="7.7" ry="7.7" style="stroke:#181818;stroke-width:0.6999999999999998;"/><path d="M724.1609,385.2625 Q724.2703,385.1094 724.4016,385.0328 Q724.5328,384.9562 724.6859,384.9562 Q724.9484,384.9562 725.1125,385.1422 Q725.2766,385.3172 725.2766,385.7437 L725.2766,386.7609 Q725.2766,387.1875 725.1125,387.3734 Q724.9484,387.5594 724.6859,387.5594 Q724.4453,387.5594 724.3031,387.4172 Q724.1609,387.2859 724.0844,386.925 Q724.0516,386.6734 723.9203,386.5422 Q723.6906,386.2797 723.2641,386.1266 Q722.8375,385.9734 722.4,385.9734 Q721.8641,385.9734 721.4156,386.2031 Q720.9781,386.4328 720.6281,386.9578 Q720.2891,387.4828 720.2891,388.2047 L720.2891,388.9703 Q720.2891,389.8344 720.9125,390.4141 Q721.5359,390.9828 722.6516,390.9828 Q723.3078,390.9828 723.7672,390.8078 Q724.0406,390.6984 724.3359,390.3922 Q724.5219,390.2062 724.6203,390.1516 Q724.7297,390.0969 724.8719,390.0969 Q725.1016,390.0969 725.2766,390.2828 Q725.4625,390.4578 725.4625,390.6984 Q725.4625,390.9391 725.2219,391.2234 Q724.8719,391.6281 724.3141,391.8578 Q723.5594,392.175 722.6516,392.175 Q721.5906,392.175 720.7484,391.7375 Q720.0594,391.3875 719.5781,390.6437 Q719.0969,389.8891 719.0969,388.9922 L719.0969,388.1828 Q719.0969,387.2531 719.5234,386.4547 Q719.9609,385.6453 720.7266,385.2187 Q721.4922,384.7812 722.3562,384.7812 Q722.8703,384.7812 723.3187,384.9016 Q723.7781,385.0109 724.1609,385.2625 Z " fill="#000000"/><text fill="#000000" font-family="sans-serif" font-size="9.8" lengthAdjust="spacing" textLength="77" x="736.575" y="392.2078">ProductException</text><line style="stroke:#181818;stroke-width:0.3499999999999999;" x1="634.2" x2="893.2" y1="399.35" y2="399.35"/><line style="stroke:#181818;stroke-width:0.3499999999999999;" x1="634.2" x2="893.2" y1="404.95" y2="404.95"/><text fill="#000000" font-family="sans-serif" font-size="9.8" lengthAdjust="spacing" textLength="252" x="637.7" y="418.3252">+productionTreeNotFound(productID) : ProductException</text><text fill="#000000" font-family="sans-serif" font-size="9.8" lengthAdjust="spacing" textLength="217.7" x="637.7" y="431.36">+productNotFound(productID) : ProductException</text></g><!--class RuntimeException--><g id="elem_RuntimeException"><rect codeLine="94" fill="#F1F1F1" height="33.6" id="RuntimeException" rx="1.75" ry="1.75" style="stroke:#181818;stroke-width:0.3499999999999999;" width="101.5" x="712.95" y="511.35"/><ellipse cx="723.45" cy="522.55" fill="#ADD1B2" rx="7.7" ry="7.7" style="stroke:#181818;stroke-width:0.6999999999999998;"/><path d="M725.3859,519.6625 Q725.4953,519.5094 725.6266,519.4328 Q725.7578,519.3562 725.9109,519.3562 Q726.1734,519.3562 726.3375,519.5422 Q726.5016,519.7172 726.5016,520.1437 L726.5016,521.1609 Q726.5016,521.5875 726.3375,521.7734 Q726.1734,521.9594 725.9109,521.9594 Q725.6703,521.9594 725.5281,521.8172 Q725.3859,521.6859 725.3094,521.325 Q725.2766,521.0734 725.1453,520.9422 Q724.9156,520.6797 724.4891,520.5266 Q724.0625,520.3734 723.625,520.3734 Q723.0891,520.3734 722.6406,520.6031 Q722.2031,520.8328 721.8531,521.3578 Q721.5141,521.8828 721.5141,522.6047 L721.5141,523.3703 Q721.5141,524.2344 722.1375,524.8141 Q722.7609,525.3828 723.8766,525.3828 Q724.5328,525.3828 724.9922,525.2078 Q725.2656,525.0984 725.5609,524.7922 Q725.7469,524.6062 725.8453,524.5516 Q725.9547,524.4969 726.0969,524.4969 Q726.3266,524.4969 726.5016,524.6828 Q726.6875,524.8578 726.6875,525.0984 Q726.6875,525.3391 726.4469,525.6234 Q726.0969,526.0281 725.5391,526.2578 Q724.7844,526.575 723.8766,526.575 Q722.8156,526.575 721.9734,526.1375 Q721.2844,525.7875 720.8031,525.0437 Q720.3219,524.2891 720.3219,523.3922 L720.3219,522.5828 Q720.3219,521.6531 720.7484,520.8547 Q721.1859,520.0453 721.9516,519.6187 Q722.7172,519.1812 723.5812,519.1812 Q724.0953,519.1812 724.5437,519.3016 Q725.0031,519.4109 725.3859,519.6625 Z " fill="#000000"/><text fill="#000000" font-family="sans-serif" font-size="9.8" lengthAdjust="spacing" textLength="79.1" x="733.25" y="526.6078">RuntimeException</text><line style="stroke:#181818;stroke-width:0.3499999999999999;" x1="713.65" x2="813.75" y1="533.75" y2="533.75"/><line style="stroke:#181818;stroke-width:0.3499999999999999;" x1="713.65" x2="813.75" y1="539.35" y2="539.35"/></g><!--link ConsultProductionTreeUI to ProductController--><g id="link_ConsultProductionTreeUI_ProductController"><path codeLine="97" d="M788.599,64.477 C766.136,77.308 738.5,93.1 738.5,93.1 C738.5,93.1 716.1578,107.4108 693.0088,122.2368 " fill="none" id="ConsultProductionTreeUI-to-ProductController" style="stroke:#181818;stroke-width:0.6999999999999998;stroke-dasharray:7.0,7.0;"/><polygon fill="#181818" points="689.472,124.502,696.2873,123.4621,692.4193,122.6144,693.2671,118.7464,689.472,124.502" style="stroke:#181818;stroke-width:0.6999999999999998;"/></g><!--link ConsultProductionTreeUI to ProductionController--><g id="link_ConsultProductionTreeUI_ProductionController"><path codeLine="98" d="M833.889,64.435 C851.088,80.773 874.8041,103.2831 894.1591,121.6721 " fill="none" id="ConsultProductionTreeUI-to-ProductionController" style="stroke:#181818;stroke-width:0.6999999999999998;stroke-dasharray:7.0,7.0;"/><polygon fill="#181818" points="897.204,124.565,894.5653,118.1958,894.6666,122.1543,890.7081,122.2556,897.204,124.565" style="stroke:#181818;stroke-width:0.6999999999999998;"/></g><!--link ProductController to ProductService--><g id="link_ProductController_ProductService"><path codeLine="99" d="M618.604,171.549 C591.843,188.881 558.3588,210.5722 529.4488,229.3042 " fill="none" id="ProductController-to-ProductService" style="stroke:#181818;stroke-width:0.6999999999999998;stroke-dasharray:7.0,7.0;"/><polygon fill="#181818" points="525.924,231.588,532.7337,230.5121,528.8613,229.6848,529.6886,225.8124,525.924,231.588" style="stroke:#181818;stroke-width:0.6999999999999998;"/></g><!--link ProductController to ProductionService--><g id="link_ProductController_ProductionService"><path codeLine="100" d="M676.305,171.682 C695.268,191.016 719.3255,215.528 738.2815,234.848 " fill="none" id="ProductController-to-ProductionService" style="stroke:#181818;stroke-width:0.6999999999999998;stroke-dasharray:7.0,7.0;"/><polygon fill="#181818" points="741.223,237.846,738.8094,231.3881,738.7718,235.3477,734.8122,235.31,741.223,237.846" style="stroke:#181818;stroke-width:0.6999999999999998;"/></g><!--link ProductService to Repositories--><g id="link_ProductService_Repositories"><path codeLine="101" d="M393.211,278.18 C310.625,293.279 199.5,313.6 199.5,313.6 C199.5,313.6 190.6702,335.5886 180.8842,359.9556 " fill="none" id="ProductService-to-Repositories" style="stroke:#181818;stroke-width:0.6999999999999998;stroke-dasharray:7.0,7.0;"/><polygon fill="#181818" points="179.319,363.853,184.2652,359.0503,180.6234,360.6051,179.0686,356.9633,179.319,363.853" style="stroke:#181818;stroke-width:0.6999999999999998;"/><text fill="#000000" font-family="sans-serif" font-size="9.1" lengthAdjust="spacing" textLength="46.9" x="200.2" y="324.1198">repositories</text></g><!--link ProductService to ProductRepository--><g id="link_ProductService_ProductRepository"><path codeLine="102" d="M447.167,291.375 C424.858,310.702 399.7,332.5 399.7,332.5 C399.7,332.5 399.7,449.4 399.7,449.4 C399.7,449.4 416.8984,478.0282 430.7444,501.0652 " fill="none" id="ProductService-to-ProductRepository" style="stroke:#181818;stroke-width:0.6999999999999998;stroke-dasharray:7.0,7.0;"/><polygon fill="#181818" points="432.908,504.665,432.0625,497.8228,431.105,501.6651,427.2627,500.7077,432.908,504.665" style="stroke:#181818;stroke-width:0.6999999999999998;"/><text fill="#000000" font-family="sans-serif" font-size="9.1" lengthAdjust="spacing" textLength="73.5" x="400.4" y="410.5698">productRepository</text></g><!--link ProductService to Product--><g id="link_ProductService_Product"><path codeLine="103" d="M544.579,291.319 C564.319,300.363 581,308 581,308 C581,308 797.3,313.6 797.3,313.6 C797.3,313.6 905.1,332.5 905.1,332.5 C905.1,332.5 919.2425,522.0856 926.5575,620.1136 " fill="none" id="ProductService-to-Product" style="stroke:#181818;stroke-width:0.6999999999999998;stroke-dasharray:7.0,7.0;"/><polygon fill="#181818" points="926.87,624.302,929.1934,617.8111,926.6095,620.8117,923.609,618.2278,926.87,624.302" style="stroke:#181818;stroke-width:0.6999999999999998;"/><text fill="#000000" font-family="sans-serif" font-size="9.1" lengthAdjust="spacing" textLength="30.1" x="916.3" y="480.9198">product</text></g><!--link ProductionService to Repositories--><g id="link_ProductionService_Repositories"><path codeLine="104" d="M672.882,284.942 C627.032,296.45 581,308 581,308 C581,308 438.2,313.6 438.2,313.6 C438.2,313.6 350.7,332.5 350.7,332.5 C350.7,332.5 316.1195,346.0019 273.9375,362.4659 " fill="none" id="ProductionService-to-Repositories" style="stroke:#181818;stroke-width:0.6999999999999998;stroke-dasharray:7.0,7.0;"/><polygon fill="#181818" points="270.025,363.993,276.9119,364.3107,273.2855,362.7204,274.8757,359.094,270.025,363.993" style="stroke:#181818;stroke-width:0.6999999999999998;"/><text fill="#000000" font-family="sans-serif" font-size="9.1" lengthAdjust="spacing" textLength="46.9" x="438.9" y="324.1198">repositories</text></g><!--link ProductionService to ProductionTreeRepository--><g id="link_ProductionService_ProductionTreeRepository"><path codeLine="105" d="M683.928,284.991 C612.185,305.529 518,332.5 518,332.5 C518,332.5 477.4,449.4 477.4,449.4 C477.4,449.4 368.2,483.7 368.2,483.7 C368.2,483.7 330.2293,493.0423 287.0253,503.6753 " fill="none" id="ProductionService-to-ProductionTreeRepository" style="stroke:#181818;stroke-width:0.6999999999999998;stroke-dasharray:7.0,7.0;"/><polygon fill="#181818" points="282.947,504.679,289.7336,505.8923,286.3456,503.8426,288.3953,500.4546,282.947,504.679" style="stroke:#181818;stroke-width:0.6999999999999998;"/><text fill="#000000" font-family="sans-serif" font-size="9.1" lengthAdjust="spacing" textLength="102.9" x="518.7" y="410.5698">productionTreeRepository</text></g><!--link ProductionService to Product--><g id="link_ProductionService_Product"><path codeLine="106" d="M858.277,284.942 C915.383,298.704 977.2,313.6 977.2,313.6 C977.2,313.6 1055.6,470.4 1055.6,470.4 C1055.6,470.4 1055.6,483.7 1055.6,483.7 C1055.6,483.7 1005.3043,562.8186 968.4563,620.7786 " fill="none" id="ProductionService-to-Product" style="stroke:#181818;stroke-width:0.6999999999999998;stroke-dasharray:7.0,7.0;"/><polygon fill="#181818" points="966.203,624.323,971.9459,620.5087,968.0808,621.3694,967.2201,617.5042,966.203,624.323" style="stroke:#181818;stroke-width:0.6999999999999998;"/><text fill="#000000" font-family="sans-serif" font-size="9.1" lengthAdjust="spacing" textLength="30.1" x="1056.3" y="480.9198">product</text></g><!--link ProductionService to ProductionElement--><g id="link_ProductionService_ProductionElement"><path codeLine="107" d="M850.213,284.942 C902.454,298.704 959,313.6 959,313.6 C959,313.6 973,470.4 973,470.4 C973,470.4 973,483.7 973,483.7 C973,483.7 905.1,568.4 905.1,568.4 C905.1,568.4 763.7,592.9 763.7,592.9 C763.7,592.9 736.5169,612.9593 706.5569,635.0793 " fill="none" id="ProductionService-to-ProductionElement" style="stroke:#181818;stroke-width:0.6999999999999998;stroke-dasharray:7.0,7.0;"/><polygon fill="#181818" points="703.178,637.574,709.9094,636.0846,705.9937,635.4951,706.5832,631.5794,703.178,637.574" style="stroke:#181818;stroke-width:0.6999999999999998;"/><text fill="#000000" font-family="sans-serif" font-size="9.1" lengthAdjust="spacing" textLength="75.6" x="973.7" y="480.9198">productionElement</text></g><!--link ProductionService to RawMaterial--><g id="link_ProductionService_RawMaterial"><path codeLine="108" d="M867.58,284.942 C930.307,298.704 998.2,313.6 998.2,313.6 C998.2,313.6 1033.9,332.5 1033.9,332.5 C1033.9,332.5 1134.9345,551.3288 1175.8915,640.0398 " fill="none" id="ProductionService-to-RawMaterial" style="stroke:#181818;stroke-width:0.6999999999999998;stroke-dasharray:7.0,7.0;"/><polygon fill="#181818" points="1177.652,643.853,1177.5534,636.9595,1176.1849,640.6753,1172.4691,639.3069,1177.652,643.853" style="stroke:#181818;stroke-width:0.6999999999999998;"/><text fill="#000000" font-family="sans-serif" font-size="9.1" lengthAdjust="spacing" textLength="46.2" x="1103.2" y="480.9198">rawMaterial</text></g><!--link Repositories to Repositories--><g id="link_Repositories_Repositories"><path codeLine="109" d="M276.584,395.199 C291.284,397.194 301,401.023 301,406.7 C301,412.377 295.4458,415.6412 280.7458,417.6362 " fill="none" id="Repositories-to-Repositories" style="stroke:#181818;stroke-width:0.6999999999999998;"/><polygon fill="#181818" points="276.584,418.201,283.2033,420.1283,280.0522,417.7303,282.4502,414.5792,276.584,418.201" style="stroke:#181818;stroke-width:0.6999999999999998;"/><text fill="#000000" font-family="sans-serif" font-size="9.1" lengthAdjust="spacing" textLength="34.3" x="305.2" y="410.5698">instance</text></g><!--link Repositories to ProductRepository--><g id="link_Repositories_ProductRepository"><path codeLine="110" d="M231.462,449.456 C260.512,467.145 287.7,483.7 287.7,483.7 C287.7,483.7 376.6,504.7 376.6,504.7 C376.6,504.7 377.6875,505.0543 385.1215,507.4693 " fill="none" id="Repositories-to-ProductRepository" style="stroke:#181818;stroke-width:0.6999999999999998;"/><polygon fill="#181818" points="389.116,508.767,383.9893,504.1575,385.7872,507.6856,382.2591,509.4835,389.116,508.767" style="stroke:#181818;stroke-width:0.6999999999999998;"/><text fill="#000000" font-family="sans-serif" font-size="9.1" lengthAdjust="spacing" textLength="73.5" x="288.4" y="480.9198">productRepository</text><text fill="#000000" font-family="sans-serif" font-size="9.1" lengthAdjust="spacing" textLength="4.9" x="234.6803" y="465.2036">1</text><text fill="#000000" font-family="sans-serif" font-size="9.1" lengthAdjust="spacing" textLength="4.9" x="378.6908" y="504.3731">1</text></g><!--link Repositories to ProductionTreeRepository--><g id="link_Repositories_ProductionTreeRepository"><path codeLine="111" d="M157.731,449.421 C156.45,460.978 155.4,470.4 155.4,470.4 C155.4,470.4 155.4,483.7 155.4,483.7 C155.4,483.7 160.9878,490.6819 169.4578,501.2729 " fill="none" id="Repositories-to-ProductionTreeRepository" style="stroke:#181818;stroke-width:0.6999999999999998;"/><polygon fill="#181818" points="172.081,504.553,170.3329,497.8841,169.895,501.8196,165.9595,501.3817,172.081,504.553" style="stroke:#181818;stroke-width:0.6999999999999998;"/><text fill="#000000" font-family="sans-serif" font-size="9.1" lengthAdjust="spacing" textLength="102.9" x="156.1" y="480.9198">productionTreeRepository</text><text fill="#000000" font-family="sans-serif" font-size="9.1" lengthAdjust="spacing" textLength="4.9" x="151.9634" y="465.1644">1</text><text fill="#000000" font-family="sans-serif" font-size="9.1" lengthAdjust="spacing" textLength="4.9" x="163.2219" y="496.8851">1</text></g><!--link ProductRepository to Product--><g id="link_ProductRepository_Product"><path codeLine="112" d="M504.133,541.8 C555.373,553.336 622.3,568.4 622.3,568.4 C622.3,568.4 763.7,592.9 763.7,592.9 C763.7,592.9 787.7129,605.3577 820.6059,622.4237 " fill="none" id="ProductRepository-to-Product" style="stroke:#181818;stroke-width:0.6999999999999998;"/><polygon fill="#181818" points="824.334,624.358,820.0314,618.9712,821.2273,622.7461,817.4524,623.942,824.334,624.358" style="stroke:#181818;stroke-width:0.6999999999999998;"/><text fill="#000000" font-family="sans-serif" font-size="9.1" lengthAdjust="spacing" textLength="42" x="730.1" y="584.5198">categories</text><text fill="#000000" font-family="sans-serif" font-size="9.1" lengthAdjust="spacing" textLength="4.9" x="509.6627" y="540.4513">1</text><text fill="#000000" font-family="sans-serif" font-size="9.1" lengthAdjust="spacing" textLength="3.5" x="810.8394" y="616.5811">*</text></g><!--link ProductionTreeRepository to ProductionElement--><g id="link_ProductionTreeRepository_ProductionElement"><path codeLine="113" d="M259.364,551.677 C334.131,576.429 450.3688,614.904 536.9308,643.562 " fill="none" id="ProductionTreeRepository-to-ProductionElement" style="stroke:#181818;stroke-width:0.6999999999999998;"/><polygon fill="#181818" points="540.918,644.882,535.8173,640.2438,537.5954,643.782,534.0572,645.5601,540.918,644.882" style="stroke:#181818;stroke-width:0.6999999999999998;"/><text fill="#000000" font-family="sans-serif" font-size="9.1" lengthAdjust="spacing" textLength="42" x="365.4" y="584.5198">categories</text><text fill="#000000" font-family="sans-serif" font-size="9.1" lengthAdjust="spacing" textLength="4.9" x="266.3118" y="566.7892">1</text><text fill="#000000" font-family="sans-serif" font-size="9.1" lengthAdjust="spacing" textLength="3.5" x="531.9043" y="640.6601">*</text></g><!--link Product to Part--><g id="link_Product_Part"><path codeLine="114" d="M931,736.575 C931,756.77 931,766.661 931,785.519 " fill="none" id="Product-to-Part" style="stroke:#181818;stroke-width:0.6999999999999998;"/><polygon fill="none" points="931,798.119,935.2,785.519,926.8,785.519,931,798.119" style="stroke:#181818;stroke-width:0.6999999999999998;"/></g><!--link RawMaterial to Part--><g id="link_RawMaterial_Part"><path codeLine="115" d="M1135.134,716.842 C1093.981,741.734 1049.8532,768.4332 1007.3492,794.1512 " fill="none" id="RawMaterial-to-Part" style="stroke:#181818;stroke-width:0.6999999999999998;"/><polygon fill="none" points="996.569,800.674,1009.5235,797.7446,1005.1749,790.5578,996.569,800.674" style="stroke:#181818;stroke-width:0.6999999999999998;"/></g><!--link ProductionElement to Part--><g id="link_ProductionElement_Part"><path codeLine="116" d="M721.329,723.149 C766.171,748.216 818.8761,777.6734 861.8701,801.7114 " fill="none" id="ProductionElement-to-Part" style="stroke:#181818;stroke-width:0.6999999999999998;"/><polygon fill="#181818" points="865.536,803.761,861.4035,798.2426,862.4811,802.053,858.6707,803.1305,865.536,803.761" style="stroke:#181818;stroke-width:0.6999999999999998;"/><text fill="#000000" font-family="sans-serif" font-size="9.1" lengthAdjust="spacing" textLength="14.7" x="805.7" y="767.9198">has</text></g><!--link ProductionElement to Operation--><g id="link_ProductionElement_Operation"><path codeLine="117" d="M646.1,723.149 C646.1,744.163 646.1,765.499 646.1,787.367 " fill="none" id="ProductionElement-to-Operation" style="stroke:#181818;stroke-width:0.6999999999999998;"/><polygon fill="#181818" points="646.1,791.567,648.9,785.267,646.1,788.067,643.3,785.267,646.1,791.567" style="stroke:#181818;stroke-width:0.6999999999999998;"/><text fill="#000000" font-family="sans-serif" font-size="9.1" lengthAdjust="spacing" textLength="14.7" x="646.8" y="767.9198">has</text></g><!--link ProductionService to ProductException--><g id="link_ProductionService_ProductException"><path codeLine="118" d="M763.7,284.942 C763.7,309.82 763.7,345.513 763.7,372.652 " fill="none" id="ProductionService-to-ProductException" style="stroke:#181818;stroke-width:0.6999999999999998;stroke-dasharray:7.0,7.0;"/><polygon fill="#181818" points="763.7,376.852,766.5,370.552,763.7,373.352,760.9,370.552,763.7,376.852" style="stroke:#181818;stroke-width:0.6999999999999998;"/><text fill="#000000" font-family="sans-serif" font-size="9.1" lengthAdjust="spacing" textLength="26.6" x="764.4" y="324.1198">throws</text></g><!--link ProductException to RuntimeException--><g id="link_ProductException_RuntimeException"><path codeLine="119" d="M763.7,436.464 C763.7,459.914 763.7,479.458 763.7,498.596 " fill="none" id="ProductException-to-RuntimeException" style="stroke:#181818;stroke-width:0.6999999999999998;"/><polygon fill="none" points="763.7,511.196,767.9,498.596,759.5,498.596,763.7,511.196" style="stroke:#181818;stroke-width:0.6999999999999998;"/></g><!--SRC=[jLPjJzim4FwUNs7rKxi6j7sjK2N6YuWq1gBm0unpj1PEdDdEeDluxxDJDxPZjvH9wvSsTy-zFNUvgtocTOC5hb23oJDUmaAj6I01HE5woI2JFK2kSCbVQBr4JvX9NyDe3MhT06euMvi7JqSObl9KAK4VMmK5uVM2_WBqESjiG3HwA4ReTuRqfmEZCrxBbgbRmSkMAChhUm7mK5ZCM_RcsMgi4fmn4A4FQ-pKLci-qoLidSln1CtGDohLYPNCRP3Obqvafxj2P_pqH0c5MjtXbskiG53C5egJvqikh8Tni_akplke7dYUA6y1uYSbaApDwZvMs03sTLsSXrbPnJuMqe7_5mLtq7195HVha8LUJa5wgHpvyl5acAAUQW8TDpukHOsBE_PuSTAKZPrLty2A1dOfPXramEmfOnyRqp1WUa0qx8g2m8Airc5Jhh1SNUFcn04l65IwgpagQWLB4AasNVCIs61EiL1-PsYflI_q9gYNJbZZ2XBY4YGHj37HO-tKU1xJCaV6EaSUU1BpuisNdmrfXT15TVEfGz1QELr5QrgrLKetzTmTd8AbCWYlVInDT_f9ERCI7wFffMezJ4-Q3JgG4SwuI13P2FEgpb39sqUzpXs5zdrCbf2ZRNhcroQ979cm-ja4ob7dTx9l2ktK-4KtPY9ctM0u8M_q6Df6tsn_E_MF5jTgGy9vkWONQsm2vAZtcAEjTIBJFbOqem6ntM7pChlNp- -EBxm2QJiqhOQjclQkElAD_sqB0hD9uYsxU2NGTIXv4Ngj_yetmLhupjKbR-iokVHx-yZw0sRXkzTgzYjm2AtTTTwFZ-VnsJu47HpcBBxy7jIUhlqWT-AomQareE3kpFG_9U-C9E3nSf-X9hebkmqTF8ily87v32ns7ee-L7oqzdfwDyTuAVYXh6nNVTxwrkMvfooe_EWeeeBQSny2Hrz67TXy7zQSzyp_XKWFt7lyDF88jGiuxE8WJC8oe3ZseU5_vflzw_FgfB4R4-1sixTNMEu0t7WxF4Gbni2jgHbIAy5VUhpJT1b5s-Cl]--></g></svg>