<?xml version="1.0" encoding="us-ascii" standalone="no"?><svg xmlns="http://www.w3.org/2000/svg" xmlns:xlink="http://www.w3.org/1999/xlink" contentStyleType="text/css" height="632px" preserveAspectRatio="none" style="width:664px;height:632px;background:#FFFFFF;" version="1.1" viewBox="0 0 664 632" width="664.8px" zoomAndPan="magnify"><defs/><g><text fill="#000000" font-family="sans-serif" font-size="11.2" font-weight="bold" lengthAdjust="spacing" textLength="182.4" x="242.2" y="24.0859">System Sequence Diagram (SSD)</text><rect fill="#FFFFFF" height="452.2063" style="stroke:#181818;stroke-width:0.8000000000000002;" width="8" x="63.6" y="106.5938"/><rect fill="#FFFFFF" height="25.0328" style="stroke:#181818;stroke-width:0.8000000000000002;" width="8" x="494" y="125.2266"/><rect fill="#FFFFFF" height="25.0328" style="stroke:#181818;stroke-width:0.8000000000000002;" width="8" x="494" y="175.2922"/><rect fill="#FFFFFF" height="81.4984" style="stroke:#181818;stroke-width:0.8000000000000002;" width="8" x="494" y="225.3578"/><rect fill="none" height="279.6094" style="stroke:#000000;stroke-width:1.2000000000000002;" width="651.6" x="8" y="272.7906"/><rect fill="none" height="179.2063" style="stroke:#000000;stroke-width:1.2000000000000002;" width="589.2" x="16" y="367.5938"/><rect fill="none" height="78.8031" style="stroke:#000000;stroke-width:1.2000000000000002;" width="507.6" x="24" y="462.3969"/><line style="stroke:#181818;stroke-width:0.4000000000000001;stroke-dasharray:5.0,5.0;" x1="67.2" x2="67.2" y1="98.5938" y2="566"/><line style="stroke:#181818;stroke-width:0.4000000000000001;stroke-dasharray:5.0,5.0;" x1="498" x2="498" y1="98.5938" y2="566"/><text fill="#000000" font-family="sans-serif" font-size="11.2" lengthAdjust="spacing" textLength="66.4" x="32" y="95.7828">Administrator</text><ellipse cx="67.6" cy="42.4969" fill="#E3E3E3" rx="6.4" ry="6.4" style="stroke:#181818;stroke-width:0.4000000000000001;"/><path d="M67.6,48.8969 L67.6,70.4969 M57.2,55.2969 L78,55.2969 M67.6,70.4969 L57.2,82.4969 M67.6,70.4969 L78,82.4969 " fill="none" style="stroke:#181818;stroke-width:0.4000000000000001;"/><text fill="#000000" font-family="sans-serif" font-size="11.2" lengthAdjust="spacing" textLength="66.4" x="32" y="577.2859">Administrator</text><ellipse cx="67.6" cy="586.8969" fill="#E3E3E3" rx="6.4" ry="6.4" style="stroke:#181818;stroke-width:0.4000000000000001;"/><path d="M67.6,593.2969 L67.6,614.8969 M57.2,599.6969 L78,599.6969 M67.6,614.8969 L57.2,626.8969 M67.6,614.8969 L78,626.8969 " fill="none" style="stroke:#181818;stroke-width:0.4000000000000001;"/><rect fill="#E3E3E3" height="26.0969" rx="2" ry="2" style="stroke:#181818;stroke-width:0.4000000000000001;" width="51.2" x="472.4" y="71.6969"/><text fill="#000000" font-family="sans-serif" font-size="11.2" lengthAdjust="spacing" textLength="40" x="478" y="89.3828">:System</text><rect fill="#E3E3E3" height="26.0969" rx="2" ry="2" style="stroke:#181818;stroke-width:0.4000000000000001;" width="51.2" x="472.4" y="565.2"/><text fill="#000000" font-family="sans-serif" font-size="11.2" lengthAdjust="spacing" textLength="40" x="478" y="582.8859">:System</text><rect fill="#FFFFFF" height="452.2063" style="stroke:#181818;stroke-width:0.8000000000000002;" width="8" x="63.6" y="106.5938"/><rect fill="#FFFFFF" height="25.0328" style="stroke:#181818;stroke-width:0.8000000000000002;" width="8" x="494" y="125.2266"/><rect fill="#FFFFFF" height="25.0328" style="stroke:#181818;stroke-width:0.8000000000000002;" width="8" x="494" y="175.2922"/><rect fill="#FFFFFF" height="81.4984" style="stroke:#181818;stroke-width:0.8000000000000002;" width="8" x="494" y="225.3578"/><polygon fill="#181818" points="484.4,122.0266,492.4,125.2266,484.4,128.4266,487.6,125.2266" style="stroke:#181818;stroke-width:0.8000000000000002;"/><line style="stroke:#181818;stroke-width:0.8000000000000002;" x1="71.6" x2="489.2" y1="125.2266" y2="125.2266"/><text fill="#000000" font-family="sans-serif" font-size="10.4" font-weight="bold" lengthAdjust="spacing" textLength="5.6" x="77.2" y="121.0164">1</text><text fill="#000000" font-family="sans-serif" font-size="10.4" lengthAdjust="spacing" textLength="130.4" x="86" y="121.0164">asks to register a new client</text><polygon fill="#181818" points="80.4,147.0594,72.4,150.2594,80.4,153.4594,77.2,150.2594" style="stroke:#181818;stroke-width:0.8000000000000002;"/><line style="stroke:#181818;stroke-width:0.8000000000000002;stroke-dasharray:2.0,2.0;" x1="75.6" x2="497.2" y1="150.2594" y2="150.2594"/><text fill="#000000" font-family="sans-serif" font-size="10.4" font-weight="bold" lengthAdjust="spacing" textLength="5.6" x="85.2" y="146.0492">2</text><text fill="#000000" font-family="sans-serif" font-size="10.4" lengthAdjust="spacing" textLength="231.2" x="94" y="146.0492">shows the list of clients and requests confirmation</text><polygon fill="#181818" points="484.4,172.0922,492.4,175.2922,484.4,178.4922,487.6,175.2922" style="stroke:#181818;stroke-width:0.8000000000000002;"/><line style="stroke:#181818;stroke-width:0.8000000000000002;" x1="71.6" x2="489.2" y1="175.2922" y2="175.2922"/><text fill="#000000" font-family="sans-serif" font-size="10.4" font-weight="bold" lengthAdjust="spacing" textLength="5.6" x="77.2" y="171.082">3</text><text fill="#000000" font-family="sans-serif" font-size="10.4" lengthAdjust="spacing" textLength="212.8" x="86" y="171.082">confirms that he wants to register a new client</text><polygon fill="#181818" points="80.4,197.125,72.4,200.325,80.4,203.525,77.2,200.325" style="stroke:#181818;stroke-width:0.8000000000000002;"/><line style="stroke:#181818;stroke-width:0.8000000000000002;stroke-dasharray:2.0,2.0;" x1="75.6" x2="497.2" y1="200.325" y2="200.325"/><text fill="#000000" font-family="sans-serif" font-size="10.4" font-weight="bold" lengthAdjust="spacing" textLength="5.6" x="85.2" y="196.1148">4</text><text fill="#000000" font-family="sans-serif" font-size="10.4" lengthAdjust="spacing" textLength="394.4" x="94" y="196.1148">requests data (i.e. Name, Vatin, Address, Contact Info (Phone Number, Email), Type)</text><polygon fill="#181818" points="484.4,222.1578,492.4,225.3578,484.4,228.5578,487.6,225.3578" style="stroke:#181818;stroke-width:0.8000000000000002;"/><line style="stroke:#181818;stroke-width:0.8000000000000002;" x1="71.6" x2="489.2" y1="225.3578" y2="225.3578"/><text fill="#000000" font-family="sans-serif" font-size="10.4" font-weight="bold" lengthAdjust="spacing" textLength="5.6" x="77.2" y="221.1477">5</text><text fill="#000000" font-family="sans-serif" font-size="10.4" lengthAdjust="spacing" textLength="134.4" x="86" y="221.1477">types/selects requested data</text><line style="stroke:#181818;stroke-width:0.8000000000000002;" x1="502" x2="535.6" y1="250.3906" y2="250.3906"/><line style="stroke:#181818;stroke-width:0.8000000000000002;" x1="535.6" x2="535.6" y1="250.3906" y2="260.7906"/><line style="stroke:#181818;stroke-width:0.8000000000000002;" x1="502.8" x2="535.6" y1="260.7906" y2="260.7906"/><polygon fill="#181818" points="510.8,257.5906,502.8,260.7906,510.8,263.9906,507.6,260.7906" style="stroke:#181818;stroke-width:0.8000000000000002;"/><text fill="#000000" font-family="sans-serif" font-size="10.4" font-weight="bold" lengthAdjust="spacing" textLength="5.6" x="507.6" y="246.1805">6</text><text fill="#000000" font-family="sans-serif" font-size="10.4" lengthAdjust="spacing" textLength="80.8" x="516.4" y="246.1805">validates the data</text><path d="M8,272.7906 L56.8,272.7906 L56.8,280.2234 L48.8,288.2234 L8,288.2234 L8,272.7906 " fill="#EEEEEE" style="stroke:#000000;stroke-width:1.2000000000000002;"/><rect fill="none" height="279.6094" style="stroke:#000000;stroke-width:1.2000000000000002;" width="651.6" x="8" y="272.7906"/><text fill="#000000" font-family="sans-serif" font-size="10.4" font-weight="bold" lengthAdjust="spacing" textLength="12.8" x="20" y="284.8133">alt</text><text fill="#000000" font-family="sans-serif" font-size="8.8" font-weight="bold" lengthAdjust="spacing" textLength="55.2" x="68.8" y="283.8867">[invalid data]</text><polygon fill="#181818" points="80.4,303.6563,72.4,306.8563,80.4,310.0563,77.2,306.8563" style="stroke:#181818;stroke-width:0.8000000000000002;"/><line style="stroke:#181818;stroke-width:0.8000000000000002;stroke-dasharray:2.0,2.0;" x1="75.6" x2="497.2" y1="306.8563" y2="306.8563"/><text fill="#000000" font-family="sans-serif" font-size="10.4" font-weight="bold" lengthAdjust="spacing" textLength="5.6" x="85.2" y="302.6461">7</text><text fill="#000000" font-family="sans-serif" font-size="10.4" lengthAdjust="spacing" textLength="160" x="94" y="302.6461">shows error message (Invalid data)</text><line style="stroke:#000000;stroke-width:0.8000000000000002;stroke-dasharray:2.0,2.0;" x1="8" x2="659.6" y1="314.0563" y2="314.0563"/><text fill="#000000" font-family="sans-serif" font-size="8.8" font-weight="bold" lengthAdjust="spacing" textLength="47.2" x="12" y="323.5523">[valid data]</text><line style="stroke:#181818;stroke-width:0.8000000000000002;" x1="498" x2="531.6" y1="345.1938" y2="345.1938"/><line style="stroke:#181818;stroke-width:0.8000000000000002;" x1="531.6" x2="531.6" y1="345.1938" y2="355.5938"/><line style="stroke:#181818;stroke-width:0.8000000000000002;" x1="498.8" x2="531.6" y1="355.5938" y2="355.5938"/><polygon fill="#181818" points="506.8,352.3938,498.8,355.5938,506.8,358.7938,503.6,355.5938" style="stroke:#181818;stroke-width:0.8000000000000002;"/><text fill="#000000" font-family="sans-serif" font-size="10.4" font-weight="bold" lengthAdjust="spacing" textLength="5.6" x="503.6" y="340.9836">8</text><text fill="#000000" font-family="sans-serif" font-size="10.4" lengthAdjust="spacing" textLength="137.6" x="512.4" y="340.9836">checks if client already exists</text><path d="M16,367.5938 L64.8,367.5938 L64.8,375.0266 L56.8,383.0266 L16,383.0266 L16,367.5938 " fill="#EEEEEE" style="stroke:#000000;stroke-width:1.2000000000000002;"/><rect fill="none" height="179.2063" style="stroke:#000000;stroke-width:1.2000000000000002;" width="589.2" x="16" y="367.5938"/><text fill="#000000" font-family="sans-serif" font-size="10.4" font-weight="bold" lengthAdjust="spacing" textLength="12.8" x="28" y="379.6164">alt</text><text fill="#000000" font-family="sans-serif" font-size="8.8" font-weight="bold" lengthAdjust="spacing" textLength="60" x="76.8" y="378.6898">[client exists]</text><polygon fill="#181818" points="80.4,398.4594,72.4,401.6594,80.4,404.8594,77.2,401.6594" style="stroke:#181818;stroke-width:0.8000000000000002;"/><line style="stroke:#181818;stroke-width:0.8000000000000002;stroke-dasharray:2.0,2.0;" x1="75.6" x2="497.2" y1="401.6594" y2="401.6594"/><text fill="#000000" font-family="sans-serif" font-size="10.4" font-weight="bold" lengthAdjust="spacing" textLength="5.6" x="85.2" y="397.4492">9</text><text fill="#000000" font-family="sans-serif" font-size="10.4" lengthAdjust="spacing" textLength="220.8" x="94" y="397.4492">shows error message (Client already registered)</text><line style="stroke:#000000;stroke-width:0.8000000000000002;stroke-dasharray:2.0,2.0;" x1="16" x2="605.2" y1="408.8594" y2="408.8594"/><text fill="#000000" font-family="sans-serif" font-size="8.8" font-weight="bold" lengthAdjust="spacing" textLength="96" x="20" y="418.3555">[client does not exist]</text><line style="stroke:#181818;stroke-width:0.8000000000000002;" x1="498" x2="531.6" y1="439.9969" y2="439.9969"/><line style="stroke:#181818;stroke-width:0.8000000000000002;" x1="531.6" x2="531.6" y1="439.9969" y2="450.3969"/><line style="stroke:#181818;stroke-width:0.8000000000000002;" x1="498.8" x2="531.6" y1="450.3969" y2="450.3969"/><polygon fill="#181818" points="506.8,447.1969,498.8,450.3969,506.8,453.5969,503.6,450.3969" style="stroke:#181818;stroke-width:0.8000000000000002;"/><text fill="#000000" font-family="sans-serif" font-size="10.4" font-weight="bold" lengthAdjust="spacing" textLength="11.2" x="503.6" y="435.7867">10</text><text fill="#000000" font-family="sans-serif" font-size="10.4" lengthAdjust="spacing" textLength="77.6" x="518" y="435.7867">saves client data</text><path d="M24,462.3969 L72.8,462.3969 L72.8,469.8297 L64.8,477.8297 L24,477.8297 L24,462.3969 " fill="#EEEEEE" style="stroke:#000000;stroke-width:1.2000000000000002;"/><rect fill="none" height="78.8031" style="stroke:#000000;stroke-width:1.2000000000000002;" width="507.6" x="24" y="462.3969"/><text fill="#000000" font-family="sans-serif" font-size="10.4" font-weight="bold" lengthAdjust="spacing" textLength="12.8" x="36" y="474.4195">alt</text><text fill="#000000" font-family="sans-serif" font-size="8.8" font-weight="bold" lengthAdjust="spacing" textLength="65.6" x="84.8" y="473.493">[system error]</text><polygon fill="#181818" points="80.4,493.2625,72.4,496.4625,80.4,499.6625,77.2,496.4625" style="stroke:#181818;stroke-width:0.8000000000000002;"/><line style="stroke:#181818;stroke-width:0.8000000000000002;stroke-dasharray:2.0,2.0;" x1="75.6" x2="497.2" y1="496.4625" y2="496.4625"/><text fill="#000000" font-family="sans-serif" font-size="10.4" font-weight="bold" lengthAdjust="spacing" textLength="11.2" x="85.2" y="492.2523">11</text><text fill="#000000" font-family="sans-serif" font-size="10.4" lengthAdjust="spacing" textLength="176.8" x="99.6" y="492.2523">shows error message (Database error)</text><line style="stroke:#000000;stroke-width:0.8000000000000002;stroke-dasharray:2.0,2.0;" x1="24" x2="531.6" y1="503.6625" y2="503.6625"/><text fill="#000000" font-family="sans-serif" font-size="8.8" font-weight="bold" lengthAdjust="spacing" textLength="44" x="28" y="513.1586">[success]</text><polygon fill="#181818" points="80.4,531.6,72.4,534.8,80.4,538,77.2,534.8" style="stroke:#181818;stroke-width:0.8000000000000002;"/><line style="stroke:#181818;stroke-width:0.8000000000000002;stroke-dasharray:2.0,2.0;" x1="75.6" x2="497.2" y1="534.8" y2="534.8"/><text fill="#000000" font-family="sans-serif" font-size="10.4" font-weight="bold" lengthAdjust="spacing" textLength="11.2" x="85.2" y="530.5898">12</text><text fill="#000000" font-family="sans-serif" font-size="10.4" lengthAdjust="spacing" textLength="216" x="99.6" y="530.5898">shows all data and displays operation success</text><!--SRC=[hPHDRzim38Rl_XL4JZ6GTlSS1WJD3Zsi6E1XTrPYR26ov8boCl_xqV87akPZAJ2V99Dy-BuXOzuRrs306chllAg2hmbYQ2dZETAWscD9HUmiGI0LqPNsD84hrFveN0axj4nP5asKrABZI3KKzBibfmYs1ii-VLaKsppBi8tUjVKx1Jchw0CiDhespd0CADS58CDc-psJ9j4eqw2Bi5WFr1GSZgdQ731Ioiv07Zd0qzT9mLgIzmpHY_fIy1G0mT4Hb3NaOggO6HCKncTaF0ckfwx5hJyAh2AmmWA_6p4CwBHq4BSi5-NTpeGQe_4kmJHTxV5HwbZNTy08qkM8FVi_YP_bQOm8I_DCp_26DQtWboXrAzXe7OXv1I_UHU72gzjvMFwel2DuI-DQmRSQZSrNyBDhAF-CkIW5_8N9oXRn98PqKlEOanFO0QsHGXg6CICInaOmBYMS1-vCb4AG7Qp5l2mxB5zFolEp-aklKuHa- -4VNKz7NP6IlJJJ1ediGAWxe3yoQ3uhxnsDMLUYZzjwEUyqxHJf_09us-ViTLIalGp1-L7QJMKdrXaFKZALV_oj9iCyf2SB5mcFUzuA_nr5RdgVNoNTDpiRvbOfmNv635ex_DlwpuCst5Zi67n38NqRxY8VKELqTkikvxy0]--></g></svg>