<?xml version="1.0" encoding="us-ascii" standalone="no"?><svg xmlns="http://www.w3.org/2000/svg" xmlns:xlink="http://www.w3.org/1999/xlink" contentStyleType="text/css" height="616.8px" preserveAspectRatio="none" style="width:921px;height:616px;background:#FFFFFF;" version="1.1" viewBox="0 0 921 616" width="921px" zoomAndPan="magnify"><defs/><g><text fill="#000000" font-family="sans-serif" font-size="8.4" font-weight="bold" lengthAdjust="spacing" textLength="98.4" x="412.05" y="18.0645">Client Status Sequence</text><rect fill="#FFFFFF" height="476.5594" style="stroke:#181818;stroke-width:0.6;" width="6" x="40.2" y="79.9453"/><rect fill="#FFFFFF" height="462.5848" style="stroke:#181818;stroke-width:0.6;" width="6" x="235.2" y="93.9199"/><rect fill="#FFFFFF" height="398.8629" style="stroke:#181818;stroke-width:0.6;" width="6" x="394.8" y="138.8672"/><rect fill="#FFFFFF" height="366.1137" style="stroke:#181818;stroke-width:0.6;" width="6" x="554.4" y="157.6418"/><rect fill="#FFFFFF" height="18.7746" style="stroke:#181818;stroke-width:0.6;" width="6" x="623.4" y="176.4164"/><rect fill="#FFFFFF" height="18.7746" style="stroke:#181818;stroke-width:0.6;" width="6" x="686.4" y="213.9656"/><rect fill="#FFFFFF" height="92.073" style="stroke:#181818;stroke-width:0.6;" width="6" x="757.5" y="251.5148"/><rect fill="#FFFFFF" height="18.7746" style="stroke:#181818;stroke-width:0.6;" width="6" x="815.1" y="415.4824"/><rect fill="#FFFFFF" height="18.7746" style="stroke:#181818;stroke-width:0.6;" width="6" x="866.4" y="468.8063"/><rect fill="none" height="259.0406" style="stroke:#000000;stroke-width:0.8999999999999999;" width="732.9" x="184.2" y="260.5148"/><rect fill="none" height="106.6477" style="stroke:#000000;stroke-width:0.8999999999999999;" width="396.3" x="514.8" y="389.9332"/><rect fill="none" height="49.1238" style="stroke:#000000;stroke-width:0.8999999999999999;" width="384.3" x="520.8" y="443.257"/><line style="stroke:#181818;stroke-width:0.3;stroke-dasharray:5.0,5.0;" x1="43.2" x2="43.2" y1="73.9453" y2="567.3047"/><line style="stroke:#181818;stroke-width:0.3;stroke-dasharray:5.0,5.0;" x1="238.2" x2="238.2" y1="73.9453" y2="567.3047"/><line style="stroke:#181818;stroke-width:0.3;stroke-dasharray:5.0,5.0;" x1="397.5" x2="397.5" y1="117.8062" y2="567.3047"/><line style="stroke:#181818;stroke-width:0.3;stroke-dasharray:5.0,5.0;" x1="557.4" x2="557.4" y1="73.9453" y2="567.3047"/><line style="stroke:#181818;stroke-width:0.3;stroke-dasharray:5.0,5.0;" x1="626.1" x2="626.1" y1="73.9453" y2="567.3047"/><line style="stroke:#181818;stroke-width:0.3;stroke-dasharray:5.0,5.0;" x1="689.1" x2="689.1" y1="73.9453" y2="567.3047"/><line style="stroke:#181818;stroke-width:0.3;stroke-dasharray:5.0,5.0;" x1="760.5" x2="760.5" y1="73.9453" y2="567.3047"/><line style="stroke:#181818;stroke-width:0.3;stroke-dasharray:5.0,5.0;" x1="818.1" x2="818.1" y1="73.9453" y2="567.3047"/><line style="stroke:#181818;stroke-width:0.3;stroke-dasharray:5.0,5.0;" x1="869.1" x2="869.1" y1="373.0605" y2="567.3047"/><text fill="#000000" font-family="sans-serif" font-size="8.4" lengthAdjust="spacing" textLength="76.8" x="3" y="71.8371">Production Manager</text><ellipse cx="43.2" cy="31.8727" fill="#E3E3E3" rx="4.8" ry="4.8" style="stroke:#181818;stroke-width:0.3;"/><path d="M43.2,36.6727 L43.2,52.8727 M35.4,41.4727 L51,41.4727 M43.2,52.8727 L35.4,61.8727 M43.2,52.8727 L51,61.8727 " fill="none" style="stroke:#181818;stroke-width:0.3;"/><text fill="#000000" font-family="sans-serif" font-size="8.4" lengthAdjust="spacing" textLength="76.8" x="3" y="575.7691">Production Manager</text><ellipse cx="43.2" cy="582.9773" fill="#E3E3E3" rx="4.8" ry="4.8" style="stroke:#181818;stroke-width:0.3;"/><path d="M43.2,587.7773 L43.2,603.9773 M35.4,592.5773 L51,592.5773 M43.2,603.9773 L35.4,612.9773 M43.2,603.9773 L51,612.9773 " fill="none" style="stroke:#181818;stroke-width:0.3;"/><rect fill="#E3E3E3" height="19.5727" rx="1.5" ry="1.5" style="stroke:#181818;stroke-width:0.3;" width="96" x="190.2" y="53.7727"/><text fill="#000000" font-family="sans-serif" font-size="8.4" lengthAdjust="spacing" textLength="87.6" x="194.4" y="67.0371">:ConsultActiveOrdersUI</text><rect fill="#E3E3E3" height="19.5727" rx="1.5" ry="1.5" style="stroke:#181818;stroke-width:0.3;" width="96" x="190.2" y="566.7047"/><text fill="#000000" font-family="sans-serif" font-size="8.4" lengthAdjust="spacing" textLength="87.6" x="194.4" y="579.9691">:ConsultActiveOrdersUI</text><rect fill="#E3E3E3" height="19.5727" rx="1.5" ry="1.5" style="stroke:#181818;stroke-width:0.3;" width="70.2" x="362.7" y="566.7047"/><text fill="#000000" font-family="sans-serif" font-size="8.4" lengthAdjust="spacing" textLength="61.8" x="366.9" y="579.9691">:OrderController</text><rect fill="#E3E3E3" height="19.5727" rx="1.5" ry="1.5" style="stroke:#181818;stroke-width:0.3;" width="61.2" x="526.8" y="53.7727"/><text fill="#000000" font-family="sans-serif" font-size="8.4" lengthAdjust="spacing" textLength="52.8" x="531" y="67.0371">:OrderService</text><rect fill="#E3E3E3" height="19.5727" rx="1.5" ry="1.5" style="stroke:#181818;stroke-width:0.3;" width="61.2" x="526.8" y="566.7047"/><text fill="#000000" font-family="sans-serif" font-size="8.4" lengthAdjust="spacing" textLength="52.8" x="531" y="579.9691">:OrderService</text><rect fill="#E3E3E3" height="19.5727" rx="1.5" ry="1.5" style="stroke:#181818;stroke-width:0.3;" width="55.8" x="598.5" y="53.7727"/><text fill="#000000" font-family="sans-serif" font-size="8.4" lengthAdjust="spacing" textLength="47.4" x="602.7" y="67.0371">Repositories</text><rect fill="#E3E3E3" height="19.5727" rx="1.5" ry="1.5" style="stroke:#181818;stroke-width:0.3;" width="55.8" x="598.5" y="566.7047"/><text fill="#000000" font-family="sans-serif" font-size="8.4" lengthAdjust="spacing" textLength="47.4" x="602.7" y="579.9691">Repositories</text><rect fill="#E3E3E3" height="30.7453" rx="1.5" ry="1.5" style="stroke:#181818;stroke-width:0.3;" width="58.2" x="660.3" y="42.6"/><text fill="#000000" font-family="sans-serif" font-size="8.4" lengthAdjust="spacing" textLength="44.4" x="667.2" y="55.8645">repositories</text><text fill="#000000" font-family="sans-serif" font-size="8.4" lengthAdjust="spacing" textLength="49.8" x="664.5" y="67.0371">:Repositories</text><rect fill="#E3E3E3" height="30.7453" rx="1.5" ry="1.5" style="stroke:#181818;stroke-width:0.3;" width="58.2" x="660.3" y="566.7047"/><text fill="#000000" font-family="sans-serif" font-size="8.4" lengthAdjust="spacing" textLength="44.4" x="667.2" y="579.9691">repositories</text><text fill="#000000" font-family="sans-serif" font-size="8.4" lengthAdjust="spacing" textLength="49.8" x="664.5" y="591.1418">:Repositories</text><rect fill="#E3E3E3" height="30.7453" rx="1.5" ry="1.5" style="stroke:#181818;stroke-width:0.3;" width="72" x="724.5" y="42.6"/><text fill="#000000" font-family="sans-serif" font-size="8.4" lengthAdjust="spacing" textLength="63.6" x="728.7" y="55.8645">orderRepository:</text><text fill="#000000" font-family="sans-serif" font-size="8.4" lengthAdjust="spacing" textLength="63" x="729" y="67.0371">OrderRepository</text><rect fill="#E3E3E3" height="30.7453" rx="1.5" ry="1.5" style="stroke:#181818;stroke-width:0.3;" width="72" x="724.5" y="566.7047"/><text fill="#000000" font-family="sans-serif" font-size="8.4" lengthAdjust="spacing" textLength="63.6" x="728.7" y="579.9691">orderRepository:</text><text fill="#000000" font-family="sans-serif" font-size="8.4" lengthAdjust="spacing" textLength="63" x="729" y="591.1418">OrderRepository</text><rect fill="#E3E3E3" height="30.7453" rx="1.5" ry="1.5" style="stroke:#181818;stroke-width:0.3;" width="31.2" x="802.5" y="42.6"/><text fill="#000000" font-family="sans-serif" font-size="8.4" lengthAdjust="spacing" textLength="22.8" x="806.7" y="55.8645">order:</text><text fill="#000000" font-family="sans-serif" font-size="8.4" lengthAdjust="spacing" textLength="22.2" x="807" y="67.0371">Order</text><rect fill="#E3E3E3" height="30.7453" rx="1.5" ry="1.5" style="stroke:#181818;stroke-width:0.3;" width="31.2" x="802.5" y="566.7047"/><text fill="#000000" font-family="sans-serif" font-size="8.4" lengthAdjust="spacing" textLength="22.8" x="806.7" y="579.9691">order:</text><text fill="#000000" font-family="sans-serif" font-size="8.4" lengthAdjust="spacing" textLength="22.2" x="807" y="591.1418">Order</text><rect fill="#E3E3E3" height="30.7453" rx="1.5" ry="1.5" style="stroke:#181818;stroke-width:0.3;" width="59.4" x="839.7" y="566.7047"/><text fill="#000000" font-family="sans-serif" font-size="8.4" lengthAdjust="spacing" textLength="51" x="843.9" y="579.9691">activeOrders:</text><text fill="#000000" font-family="sans-serif" font-size="8.4" lengthAdjust="spacing" textLength="45" x="846.9" y="591.1418">List&lt;Order&gt;</text><rect fill="#FFFFFF" height="476.5594" style="stroke:#181818;stroke-width:0.6;" width="6" x="40.2" y="79.9453"/><rect fill="#FFFFFF" height="462.5848" style="stroke:#181818;stroke-width:0.6;" width="6" x="235.2" y="93.9199"/><rect fill="#FFFFFF" height="398.8629" style="stroke:#181818;stroke-width:0.6;" width="6" x="394.8" y="138.8672"/><rect fill="#FFFFFF" height="366.1137" style="stroke:#181818;stroke-width:0.6;" width="6" x="554.4" y="157.6418"/><rect fill="#FFFFFF" height="18.7746" style="stroke:#181818;stroke-width:0.6;" width="6" x="623.4" y="176.4164"/><rect fill="#FFFFFF" height="18.7746" style="stroke:#181818;stroke-width:0.6;" width="6" x="686.4" y="213.9656"/><rect fill="#FFFFFF" height="92.073" style="stroke:#181818;stroke-width:0.6;" width="6" x="757.5" y="251.5148"/><rect fill="#FFFFFF" height="18.7746" style="stroke:#181818;stroke-width:0.6;" width="6" x="815.1" y="415.4824"/><rect fill="#FFFFFF" height="18.7746" style="stroke:#181818;stroke-width:0.6;" width="6" x="866.4" y="468.8063"/><polygon fill="#181818" points="228,91.5199,234,93.9199,228,96.3199,230.4,93.9199" style="stroke:#181818;stroke-width:0.6;"/><line style="stroke:#181818;stroke-width:0.6;" x1="46.2" x2="231.6" y1="93.9199" y2="93.9199"/><text fill="#000000" font-family="sans-serif" font-size="7.8" font-weight="bold" lengthAdjust="spacing" textLength="4.2" x="50.4" y="90.7623">1</text><text fill="#000000" font-family="sans-serif" font-size="7.8" lengthAdjust="spacing" textLength="76.2" x="57" y="90.7623">requests active orders</text><polygon fill="#181818" points="355.5,110.2945,361.5,112.6945,355.5,115.0945,357.9,112.6945" style="stroke:#181818;stroke-width:0.6;"/><line style="stroke:#181818;stroke-width:0.6;" x1="241.2" x2="359.1" y1="112.6945" y2="112.6945"/><text fill="#000000" font-family="sans-serif" font-size="7.8" font-weight="bold" lengthAdjust="spacing" textLength="4.2" x="245.4" y="109.5369">2</text><text fill="#000000" font-family="sans-serif" font-size="7.8" lengthAdjust="spacing" textLength="21.6" x="252" y="109.5369">create</text><rect fill="#E3E3E3" height="19.5727" rx="1.5" ry="1.5" style="stroke:#181818;stroke-width:0.3;" width="70.2" x="362.7" y="98.7199"/><text fill="#000000" font-family="sans-serif" font-size="8.4" lengthAdjust="spacing" textLength="61.8" x="366.9" y="111.9844">:OrderController</text><polygon fill="#181818" points="387.6,136.4672,393.6,138.8672,387.6,141.2672,390,138.8672" style="stroke:#181818;stroke-width:0.6;"/><line style="stroke:#181818;stroke-width:0.6;" x1="241.2" x2="391.2" y1="138.8672" y2="138.8672"/><text fill="#000000" font-family="sans-serif" font-size="7.8" font-weight="bold" lengthAdjust="spacing" textLength="4.2" x="245.4" y="135.7096">3</text><text fill="#000000" font-family="sans-serif" font-size="7.8" lengthAdjust="spacing" textLength="74.4" x="252" y="135.7096">consultActiveOrders()</text><polygon fill="#181818" points="547.2,155.2418,553.2,157.6418,547.2,160.0418,549.6,157.6418" style="stroke:#181818;stroke-width:0.6;"/><line style="stroke:#181818;stroke-width:0.6;" x1="400.8" x2="550.8" y1="157.6418" y2="157.6418"/><text fill="#000000" font-family="sans-serif" font-size="7.8" font-weight="bold" lengthAdjust="spacing" textLength="4.2" x="405" y="154.4842">4</text><text fill="#000000" font-family="sans-serif" font-size="7.8" lengthAdjust="spacing" textLength="48" x="411.6" y="154.4842">activeOrders()</text><polygon fill="#181818" points="616.2,174.0164,622.2,176.4164,616.2,178.8164,618.6,176.4164" style="stroke:#181818;stroke-width:0.6;"/><line style="stroke:#181818;stroke-width:0.6;" x1="560.4" x2="619.8" y1="176.4164" y2="176.4164"/><text fill="#000000" font-family="sans-serif" font-size="7.8" font-weight="bold" lengthAdjust="spacing" textLength="4.2" x="564.6" y="173.2588">5</text><text fill="#000000" font-family="sans-serif" font-size="7.8" lengthAdjust="spacing" textLength="45" x="571.2" y="173.2588">getInstance()</text><polygon fill="#181818" points="567,192.791,561,195.191,567,197.591,564.6,195.191" style="stroke:#181818;stroke-width:0.6;"/><line style="stroke:#181818;stroke-width:0.6;stroke-dasharray:2.0,2.0;" x1="563.4" x2="625.8" y1="195.191" y2="195.191"/><text fill="#000000" font-family="sans-serif" font-size="7.8" font-weight="bold" lengthAdjust="spacing" textLength="4.2" x="570.6" y="192.0334">6</text><text fill="#000000" font-family="sans-serif" font-size="7.8" lengthAdjust="spacing" textLength="40.2" x="577.2" y="192.0334">repositories</text><polygon fill="#181818" points="679.2,211.5656,685.2,213.9656,679.2,216.3656,681.6,213.9656" style="stroke:#181818;stroke-width:0.6;"/><line style="stroke:#181818;stroke-width:0.6;" x1="560.4" x2="682.8" y1="213.9656" y2="213.9656"/><text fill="#000000" font-family="sans-serif" font-size="7.8" font-weight="bold" lengthAdjust="spacing" textLength="4.2" x="564.6" y="210.808">7</text><text fill="#000000" font-family="sans-serif" font-size="7.8" lengthAdjust="spacing" textLength="72" x="571.2" y="210.808">getOrderRepository()</text><polygon fill="#181818" points="567,230.3402,561,232.7402,567,235.1402,564.6,232.7402" style="stroke:#181818;stroke-width:0.6;"/><line style="stroke:#181818;stroke-width:0.6;stroke-dasharray:2.0,2.0;" x1="563.4" x2="688.8" y1="232.7402" y2="232.7402"/><text fill="#000000" font-family="sans-serif" font-size="7.8" font-weight="bold" lengthAdjust="spacing" textLength="4.2" x="570.6" y="229.5826">8</text><text fill="#000000" font-family="sans-serif" font-size="7.8" lengthAdjust="spacing" textLength="54.6" x="577.2" y="229.5826">orderRepository</text><polygon fill="#181818" points="750.3,249.1148,756.3,251.5148,750.3,253.9148,752.7,251.5148" style="stroke:#181818;stroke-width:0.6;"/><line style="stroke:#181818;stroke-width:0.6;" x1="560.4" x2="753.9" y1="251.5148" y2="251.5148"/><text fill="#000000" font-family="sans-serif" font-size="7.8" font-weight="bold" lengthAdjust="spacing" textLength="4.2" x="564.6" y="248.3572">9</text><text fill="#000000" font-family="sans-serif" font-size="7.8" lengthAdjust="spacing" textLength="24.6" x="571.2" y="248.3572">getAll()</text><path d="M184.2,260.5148 L220.8,260.5148 L220.8,266.0895 L214.8,272.0895 L184.2,272.0895 L184.2,260.5148 " fill="#EEEEEE" style="stroke:#000000;stroke-width:0.8999999999999999;"/><rect fill="none" height="259.0406" style="stroke:#000000;stroke-width:0.8999999999999999;" width="732.9" x="184.2" y="260.5148"/><text fill="#000000" font-family="sans-serif" font-size="7.8" font-weight="bold" lengthAdjust="spacing" textLength="9.6" x="193.2" y="269.5318">alt</text><text fill="#000000" font-family="sans-serif" font-size="6.6" font-weight="bold" lengthAdjust="spacing" textLength="49.2" x="229.8" y="268.8369">[system error]</text><polygon fill="#181818" points="567,283.6641,561,286.0641,567,288.4641,564.6,286.0641" style="stroke:#181818;stroke-width:0.6;"/><line style="stroke:#181818;stroke-width:0.6;stroke-dasharray:2.0,2.0;" x1="563.4" x2="756.9" y1="286.0641" y2="286.0641"/><text fill="#000000" font-family="sans-serif" font-size="7.8" font-weight="bold" lengthAdjust="spacing" textLength="8.4" x="570.6" y="282.9064">10</text><text fill="#000000" font-family="sans-serif" font-size="7.8" lengthAdjust="spacing" textLength="51" x="581.4" y="282.9064">Database error</text><polygon fill="#181818" points="407.4,302.4387,401.4,304.8387,407.4,307.2387,405,304.8387" style="stroke:#181818;stroke-width:0.6;"/><line style="stroke:#181818;stroke-width:0.6;stroke-dasharray:2.0,2.0;" x1="403.8" x2="553.8" y1="304.8387" y2="304.8387"/><text fill="#000000" font-family="sans-serif" font-size="7.8" font-weight="bold" lengthAdjust="spacing" textLength="8.4" x="411" y="301.6811">11</text><text fill="#000000" font-family="sans-serif" font-size="7.8" lengthAdjust="spacing" textLength="128.4" x="421.8" y="301.6811">show error message (Database error)</text><polygon fill="#181818" points="247.8,321.2133,241.8,323.6133,247.8,326.0133,245.4,323.6133" style="stroke:#181818;stroke-width:0.6;"/><line style="stroke:#181818;stroke-width:0.6;stroke-dasharray:2.0,2.0;" x1="244.2" x2="394.2" y1="323.6133" y2="323.6133"/><text fill="#000000" font-family="sans-serif" font-size="7.8" font-weight="bold" lengthAdjust="spacing" textLength="8.4" x="251.4" y="320.4557">12</text><text fill="#000000" font-family="sans-serif" font-size="7.8" lengthAdjust="spacing" textLength="128.4" x="262.2" y="320.4557">show error message (Database error)</text><line style="stroke:#000000;stroke-width:0.6;stroke-dasharray:2.0,2.0;" x1="184.2" x2="917.1" y1="329.0133" y2="329.0133"/><polygon fill="#181818" points="567,341.1879,561,343.5879,567,345.9879,564.6,343.5879" style="stroke:#181818;stroke-width:0.6;"/><line style="stroke:#181818;stroke-width:0.6;stroke-dasharray:2.0,2.0;" x1="563.4" x2="759.9" y1="343.5879" y2="343.5879"/><text fill="#000000" font-family="sans-serif" font-size="7.8" font-weight="bold" lengthAdjust="spacing" textLength="8.4" x="570.6" y="340.4303">13</text><text fill="#000000" font-family="sans-serif" font-size="7.8" lengthAdjust="spacing" textLength="21.6" x="581.4" y="340.4303">orders</text><polygon fill="#181818" points="832.5,359.9625,838.5,362.3625,832.5,364.7625,834.9,362.3625" style="stroke:#181818;stroke-width:0.6;"/><line style="stroke:#181818;stroke-width:0.6;" x1="560.4" x2="836.1" y1="362.3625" y2="362.3625"/><text fill="#000000" font-family="sans-serif" font-size="7.8" font-weight="bold" lengthAdjust="spacing" textLength="8.4" x="564.6" y="359.2049">14</text><text fill="#000000" font-family="sans-serif" font-size="7.8" lengthAdjust="spacing" textLength="21.6" x="575.4" y="359.2049">create</text><rect fill="#E3E3E3" height="30.7453" rx="1.5" ry="1.5" style="stroke:#181818;stroke-width:0.3;" width="59.4" x="839.7" y="348.3879"/><text fill="#000000" font-family="sans-serif" font-size="8.4" lengthAdjust="spacing" textLength="51" x="843.9" y="361.6523">activeOrders:</text><text fill="#000000" font-family="sans-serif" font-size="8.4" lengthAdjust="spacing" textLength="45" x="846.9" y="372.825">List&lt;Order&gt;</text><path d="M514.8,389.9332 L558.6,389.9332 L558.6,395.5078 L552.6,401.5078 L514.8,401.5078 L514.8,389.9332 " fill="#EEEEEE" style="stroke:#000000;stroke-width:0.8999999999999999;"/><rect fill="none" height="106.6477" style="stroke:#000000;stroke-width:0.8999999999999999;" width="396.3" x="514.8" y="389.9332"/><text fill="#000000" font-family="sans-serif" font-size="7.8" font-weight="bold" lengthAdjust="spacing" textLength="16.8" x="523.8" y="398.9502">loop</text><text fill="#000000" font-family="sans-serif" font-size="6.6" font-weight="bold" lengthAdjust="spacing" textLength="85.8" x="567.6" y="398.2553">[For each order in orders]</text><polygon fill="#181818" points="807.9,413.0824,813.9,415.4824,807.9,417.8824,810.3,415.4824" style="stroke:#181818;stroke-width:0.6;"/><line style="stroke:#181818;stroke-width:0.6;" x1="560.4" x2="811.5" y1="415.4824" y2="415.4824"/><text fill="#000000" font-family="sans-serif" font-size="7.8" font-weight="bold" lengthAdjust="spacing" textLength="8.4" x="564.6" y="412.3248">15</text><text fill="#000000" font-family="sans-serif" font-size="7.8" lengthAdjust="spacing" textLength="58.8" x="575.4" y="412.3248">getDeliveryDate()</text><polygon fill="#181818" points="567,431.857,561,434.257,567,436.657,564.6,434.257" style="stroke:#181818;stroke-width:0.6;"/><line style="stroke:#181818;stroke-width:0.6;stroke-dasharray:2.0,2.0;" x1="563.4" x2="817.5" y1="434.257" y2="434.257"/><text fill="#000000" font-family="sans-serif" font-size="7.8" font-weight="bold" lengthAdjust="spacing" textLength="8.4" x="570.6" y="431.0994">16</text><text fill="#000000" font-family="sans-serif" font-size="7.8" lengthAdjust="spacing" textLength="42" x="581.4" y="431.0994">deliveryDate</text><path d="M520.8,443.257 L557.4,443.257 L557.4,448.8316 L551.4,454.8316 L520.8,454.8316 L520.8,443.257 " fill="#EEEEEE" style="stroke:#000000;stroke-width:0.8999999999999999;"/><rect fill="none" height="49.1238" style="stroke:#000000;stroke-width:0.8999999999999999;" width="384.3" x="520.8" y="443.257"/><text fill="#000000" font-family="sans-serif" font-size="7.8" font-weight="bold" lengthAdjust="spacing" textLength="9.6" x="529.8" y="452.274">alt</text><text fill="#000000" font-family="sans-serif" font-size="6.6" font-weight="bold" lengthAdjust="spacing" textLength="107.4" x="566.4" y="451.5791">[delivery date after current date]</text><polygon fill="#181818" points="859.2,466.4063,865.2,468.8063,859.2,471.2062,861.6,468.8063" style="stroke:#181818;stroke-width:0.6;"/><line style="stroke:#181818;stroke-width:0.6;" x1="560.4" x2="862.8" y1="468.8063" y2="468.8063"/><text fill="#000000" font-family="sans-serif" font-size="7.8" font-weight="bold" lengthAdjust="spacing" textLength="8.4" x="564.6" y="465.6486">17</text><text fill="#000000" font-family="sans-serif" font-size="7.8" lengthAdjust="spacing" textLength="34.8" x="575.4" y="465.6486">add(order)</text><polygon fill="#181818" points="567,485.1809,561,487.5809,567,489.9809,564.6,487.5809" style="stroke:#181818;stroke-width:0.6;"/><line style="stroke:#181818;stroke-width:0.6;stroke-dasharray:2.0,2.0;" x1="563.4" x2="868.8" y1="487.5809" y2="487.5809"/><text fill="#000000" font-family="sans-serif" font-size="7.8" font-weight="bold" lengthAdjust="spacing" textLength="8.4" x="570.6" y="484.4232">18</text><text fill="#000000" font-family="sans-serif" font-size="7.8" lengthAdjust="spacing" textLength="2.4" x="581.4" y="484.4232">&#160;</text><polygon fill="#181818" points="407.4,512.3555,401.4,514.7555,407.4,517.1555,405,514.7555" style="stroke:#181818;stroke-width:0.6;"/><line style="stroke:#181818;stroke-width:0.6;stroke-dasharray:2.0,2.0;" x1="403.8" x2="553.8" y1="514.7555" y2="514.7555"/><text fill="#000000" font-family="sans-serif" font-size="7.8" font-weight="bold" lengthAdjust="spacing" textLength="8.4" x="411" y="511.5979">19</text><text fill="#000000" font-family="sans-serif" font-size="7.8" lengthAdjust="spacing" textLength="43.2" x="421.8" y="511.5979">activeOrders</text><polygon fill="#181818" points="247.8,535.3301,241.8,537.7301,247.8,540.1301,245.4,537.7301" style="stroke:#181818;stroke-width:0.6;"/><line style="stroke:#181818;stroke-width:0.6;stroke-dasharray:2.0,2.0;" x1="244.2" x2="397.2" y1="537.7301" y2="537.7301"/><text fill="#000000" font-family="sans-serif" font-size="7.8" font-weight="bold" lengthAdjust="spacing" textLength="8.4" x="251.4" y="534.5725">20</text><text fill="#000000" font-family="sans-serif" font-size="7.8" lengthAdjust="spacing" textLength="43.2" x="262.2" y="534.5725">activeOrders</text><polygon fill="#181818" points="49.8,554.1047,43.8,556.5047,49.8,558.9047,47.4,556.5047" style="stroke:#181818;stroke-width:0.6;"/><line style="stroke:#181818;stroke-width:0.6;stroke-dasharray:2.0,2.0;" x1="46.2" x2="237.6" y1="556.5047" y2="556.5047"/><text fill="#000000" font-family="sans-serif" font-size="7.8" font-weight="bold" lengthAdjust="spacing" textLength="8.4" x="53.4" y="553.3471">21</text><text fill="#000000" font-family="sans-serif" font-size="7.8" lengthAdjust="spacing" textLength="163.8" x="64.2" y="553.3471">shows the list of active orders or error message</text><!--SRC=[bLLDR-8m4BtdLumuGQN-0RIgL45NgbHKHBPxwiLD1h3gsApjjEBVxzWcmGv9e3v1vhqtu_co-UJom3Ihe59I5NkjAWIhQynCQpcmufFjCBT7WQ2ni4pkH0mmUrQgRovti6N2O9PPRWcQ7ut52dByLwCi49QSxHnyckVBMPQnsYfPLn-ewNTXbOR9MgkoBYnN4bPCaayz0MPWlSh8aUK5Fp1fOJ9VA6bgOHy9-eMlkaHjtfuzzEsv0_LMmbkjX3ZfBVviNlfWEUelNg37v9k_AMI31sKuXSdHUCJcQPsd41r1tkMyZv4IbFFQmexpT_cQVl6q3gf7eY5w-Ejc-RH9GInA565VkB6__By7puZDJV4MWYDHSyjiRTeQ-ahnBsRH5GNeh5Tm_q1fXpcr1e6CRVH2tCQZMXRLntzmXqX4TSMukoDweP4GVMPdlApuTDP2MtbVMOYEfvCCbPDKM3yzaN25JopkE3gfk9AJp0xjipGq1WLsL18bto1TgvUu3n6vb9rRv09QuhZKEQWGKwTtheJM5raJ6EbrcsuykC6CTMH2e8z2Z0Ktvfe92oRi5THQwGkLvdGTjobVCii-cC4JVr30N-3KW7DQSUexCA12OsWrmJHLcWrBXIRqOtARKan6jr5_VCjezlfELBrhXMvErbFTU9wY6Kve2KyeTO3VT7Nolm-kWSicsl5QF8JD5bfeYO8ywoDbhcy6BtegBCKXM10-DtyPgT-Imw0-70KrRIC9fIEmhQMR5xNMRicMOsu6qkssMLbEVUPce-GsocJDNsKqVjgiZ5AYPDpa1cNfqf8DsLoZz2SqdilEIizkzH95Ux7kes4Tauya_AEJF5l4fdSnpBe1kqSGzEI2sgPF8xX1Y3T1rgFkNipexthr7m00]--></g></svg>