<?xml version="1.0" encoding="us-ascii" standalone="no"?><svg xmlns="http://www.w3.org/2000/svg" xmlns:xlink="http://www.w3.org/1999/xlink" contentStyleType="text/css" height="1028px" preserveAspectRatio="none" style="width:1535px;height:1028px;background:#FFFFFF;" version="1.1" viewBox="0 0 1535 1028" width="1535px" zoomAndPan="magnify"><defs/><g><text fill="#000000" font-family="sans-serif" font-size="14" font-weight="bold" lengthAdjust="spacing" textLength="172" x="682.75" y="30.1074">Active Orders Sequence</text><rect fill="#FFFFFF" height="794.2656" style="stroke:#181818;stroke-width:1.0;" width="10" x="67" y="133.2422"/><rect fill="#FFFFFF" height="770.9746" style="stroke:#181818;stroke-width:1.0;" width="10" x="392" y="156.5332"/><rect fill="#FFFFFF" height="664.7715" style="stroke:#181818;stroke-width:1.0;" width="10" x="658" y="231.4453"/><rect fill="#FFFFFF" height="610.1895" style="stroke:#181818;stroke-width:1.0;" width="10" x="924" y="262.7363"/><rect fill="#FFFFFF" height="31.291" style="stroke:#181818;stroke-width:1.0;" width="10" x="1039" y="294.0273"/><rect fill="#FFFFFF" height="31.291" style="stroke:#181818;stroke-width:1.0;" width="10" x="1144" y="356.6094"/><rect fill="#FFFFFF" height="153.4551" style="stroke:#181818;stroke-width:1.0;" width="10" x="1262.5" y="419.1914"/><rect fill="#FFFFFF" height="31.291" style="stroke:#181818;stroke-width:1.0;" width="10" x="1358.5" y="692.4707"/><rect fill="#FFFFFF" height="31.291" style="stroke:#181818;stroke-width:1.0;" width="10" x="1444" y="781.3438"/><rect fill="none" height="431.7344" style="stroke:#000000;stroke-width:1.5;" width="1221.5" x="307" y="434.1914"/><rect fill="none" height="177.7461" style="stroke:#000000;stroke-width:1.5;" width="660.5" x="858" y="649.8887"/><rect fill="none" height="81.873" style="stroke:#000000;stroke-width:1.5;" width="640.5" x="868" y="738.7617"/><line style="stroke:#181818;stroke-width:0.5;stroke-dasharray:5.0,5.0;" x1="72" x2="72" y1="123.2422" y2="945.5078"/><line style="stroke:#181818;stroke-width:0.5;stroke-dasharray:5.0,5.0;" x1="397" x2="397" y1="123.2422" y2="945.5078"/><line style="stroke:#181818;stroke-width:0.5;stroke-dasharray:5.0,5.0;" x1="662.5" x2="662.5" y1="196.3438" y2="945.5078"/><line style="stroke:#181818;stroke-width:0.5;stroke-dasharray:5.0,5.0;" x1="929" x2="929" y1="123.2422" y2="945.5078"/><line style="stroke:#181818;stroke-width:0.5;stroke-dasharray:5.0,5.0;" x1="1043.5" x2="1043.5" y1="123.2422" y2="945.5078"/><line style="stroke:#181818;stroke-width:0.5;stroke-dasharray:5.0,5.0;" x1="1148.5" x2="1148.5" y1="123.2422" y2="945.5078"/><line style="stroke:#181818;stroke-width:0.5;stroke-dasharray:5.0,5.0;" x1="1267.5" x2="1267.5" y1="123.2422" y2="945.5078"/><line style="stroke:#181818;stroke-width:0.5;stroke-dasharray:5.0,5.0;" x1="1363.5" x2="1363.5" y1="123.2422" y2="945.5078"/><line style="stroke:#181818;stroke-width:0.5;stroke-dasharray:5.0,5.0;" x1="1448.5" x2="1448.5" y1="621.7676" y2="945.5078"/><text fill="#000000" font-family="sans-serif" font-size="14" lengthAdjust="spacing" textLength="128" x="5" y="119.7285">Production Manager</text><ellipse cx="72" cy="53.1211" fill="#E3E3E3" rx="8" ry="8" style="stroke:#181818;stroke-width:0.5;"/><path d="M72,61.1211 L72,88.1211 M59,69.1211 L85,69.1211 M72,88.1211 L59,103.1211 M72,88.1211 L85,103.1211 " fill="none" style="stroke:#181818;stroke-width:0.5;"/><text fill="#000000" font-family="sans-serif" font-size="14" lengthAdjust="spacing" textLength="128" x="5" y="959.6152">Production Manager</text><ellipse cx="72" cy="971.6289" fill="#E3E3E3" rx="8" ry="8" style="stroke:#181818;stroke-width:0.5;"/><path d="M72,979.6289 L72,1006.6289 M59,987.6289 L85,987.6289 M72,1006.6289 L59,1021.6289 M72,1006.6289 L85,1021.6289 " fill="none" style="stroke:#181818;stroke-width:0.5;"/><rect fill="#E3E3E3" height="32.6211" rx="2.5" ry="2.5" style="stroke:#181818;stroke-width:0.5;" width="160" x="317" y="89.6211"/><text fill="#000000" font-family="sans-serif" font-size="14" lengthAdjust="spacing" textLength="146" x="324" y="111.7285">:ConsultActiveOrdersUI</text><rect fill="#E3E3E3" height="32.6211" rx="2.5" ry="2.5" style="stroke:#181818;stroke-width:0.5;" width="160" x="317" y="944.5078"/><text fill="#000000" font-family="sans-serif" font-size="14" lengthAdjust="spacing" textLength="146" x="324" y="966.6152">:ConsultActiveOrdersUI</text><rect fill="#E3E3E3" height="32.6211" rx="2.5" ry="2.5" style="stroke:#181818;stroke-width:0.5;" width="117" x="604.5" y="944.5078"/><text fill="#000000" font-family="sans-serif" font-size="14" lengthAdjust="spacing" textLength="103" x="611.5" y="966.6152">:OrderController</text><rect fill="#E3E3E3" height="32.6211" rx="2.5" ry="2.5" style="stroke:#181818;stroke-width:0.5;" width="102" x="878" y="89.6211"/><text fill="#000000" font-family="sans-serif" font-size="14" lengthAdjust="spacing" textLength="88" x="885" y="111.7285">:OrderService</text><rect fill="#E3E3E3" height="32.6211" rx="2.5" ry="2.5" style="stroke:#181818;stroke-width:0.5;" width="102" x="878" y="944.5078"/><text fill="#000000" font-family="sans-serif" font-size="14" lengthAdjust="spacing" textLength="88" x="885" y="966.6152">:OrderService</text><rect fill="#E3E3E3" height="32.6211" rx="2.5" ry="2.5" style="stroke:#181818;stroke-width:0.5;" width="93" x="997.5" y="89.6211"/><text fill="#000000" font-family="sans-serif" font-size="14" lengthAdjust="spacing" textLength="79" x="1004.5" y="111.7285">Repositories</text><rect fill="#E3E3E3" height="32.6211" rx="2.5" ry="2.5" style="stroke:#181818;stroke-width:0.5;" width="93" x="997.5" y="944.5078"/><text fill="#000000" font-family="sans-serif" font-size="14" lengthAdjust="spacing" textLength="79" x="1004.5" y="966.6152">Repositories</text><rect fill="#E3E3E3" height="51.2422" rx="2.5" ry="2.5" style="stroke:#181818;stroke-width:0.5;" width="97" x="1100.5" y="71"/><text fill="#000000" font-family="sans-serif" font-size="14" lengthAdjust="spacing" textLength="74" x="1112" y="93.1074">repositories</text><text fill="#000000" font-family="sans-serif" font-size="14" lengthAdjust="spacing" textLength="83" x="1107.5" y="111.7285">:Repositories</text><rect fill="#E3E3E3" height="51.2422" rx="2.5" ry="2.5" style="stroke:#181818;stroke-width:0.5;" width="97" x="1100.5" y="944.5078"/><text fill="#000000" font-family="sans-serif" font-size="14" lengthAdjust="spacing" textLength="74" x="1112" y="966.6152">repositories</text><text fill="#000000" font-family="sans-serif" font-size="14" lengthAdjust="spacing" textLength="83" x="1107.5" y="985.2363">:Repositories</text><rect fill="#E3E3E3" height="51.2422" rx="2.5" ry="2.5" style="stroke:#181818;stroke-width:0.5;" width="120" x="1207.5" y="71"/><text fill="#000000" font-family="sans-serif" font-size="14" lengthAdjust="spacing" textLength="106" x="1214.5" y="93.1074">orderRepository:</text><text fill="#000000" font-family="sans-serif" font-size="14" lengthAdjust="spacing" textLength="105" x="1215" y="111.7285">OrderRepository</text><rect fill="#E3E3E3" height="51.2422" rx="2.5" ry="2.5" style="stroke:#181818;stroke-width:0.5;" width="120" x="1207.5" y="944.5078"/><text fill="#000000" font-family="sans-serif" font-size="14" lengthAdjust="spacing" textLength="106" x="1214.5" y="966.6152">orderRepository:</text><text fill="#000000" font-family="sans-serif" font-size="14" lengthAdjust="spacing" textLength="105" x="1215" y="985.2363">OrderRepository</text><rect fill="#E3E3E3" height="51.2422" rx="2.5" ry="2.5" style="stroke:#181818;stroke-width:0.5;" width="52" x="1337.5" y="71"/><text fill="#000000" font-family="sans-serif" font-size="14" lengthAdjust="spacing" textLength="38" x="1344.5" y="93.1074">order:</text><text fill="#000000" font-family="sans-serif" font-size="14" lengthAdjust="spacing" textLength="37" x="1345" y="111.7285">Order</text><rect fill="#E3E3E3" height="51.2422" rx="2.5" ry="2.5" style="stroke:#181818;stroke-width:0.5;" width="52" x="1337.5" y="944.5078"/><text fill="#000000" font-family="sans-serif" font-size="14" lengthAdjust="spacing" textLength="38" x="1344.5" y="966.6152">order:</text><text fill="#000000" font-family="sans-serif" font-size="14" lengthAdjust="spacing" textLength="37" x="1345" y="985.2363">Order</text><rect fill="#E3E3E3" height="51.2422" rx="2.5" ry="2.5" style="stroke:#181818;stroke-width:0.5;" width="99" x="1399.5" y="944.5078"/><text fill="#000000" font-family="sans-serif" font-size="14" lengthAdjust="spacing" textLength="85" x="1406.5" y="966.6152">activeOrders:</text><text fill="#000000" font-family="sans-serif" font-size="14" lengthAdjust="spacing" textLength="75" x="1411.5" y="985.2363">List&lt;Order&gt;</text><rect fill="#FFFFFF" height="794.2656" style="stroke:#181818;stroke-width:1.0;" width="10" x="67" y="133.2422"/><rect fill="#FFFFFF" height="770.9746" style="stroke:#181818;stroke-width:1.0;" width="10" x="392" y="156.5332"/><rect fill="#FFFFFF" height="664.7715" style="stroke:#181818;stroke-width:1.0;" width="10" x="658" y="231.4453"/><rect fill="#FFFFFF" height="610.1895" style="stroke:#181818;stroke-width:1.0;" width="10" x="924" y="262.7363"/><rect fill="#FFFFFF" height="31.291" style="stroke:#181818;stroke-width:1.0;" width="10" x="1039" y="294.0273"/><rect fill="#FFFFFF" height="31.291" style="stroke:#181818;stroke-width:1.0;" width="10" x="1144" y="356.6094"/><rect fill="#FFFFFF" height="153.4551" style="stroke:#181818;stroke-width:1.0;" width="10" x="1262.5" y="419.1914"/><rect fill="#FFFFFF" height="31.291" style="stroke:#181818;stroke-width:1.0;" width="10" x="1358.5" y="692.4707"/><rect fill="#FFFFFF" height="31.291" style="stroke:#181818;stroke-width:1.0;" width="10" x="1444" y="781.3438"/><polygon fill="#181818" points="380,152.5332,390,156.5332,380,160.5332,384,156.5332" style="stroke:#181818;stroke-width:1.0;"/><line style="stroke:#181818;stroke-width:1.0;" x1="77" x2="386" y1="156.5332" y2="156.5332"/><text fill="#000000" font-family="sans-serif" font-size="13" font-weight="bold" lengthAdjust="spacing" textLength="7" x="84" y="151.2705">1</text><text fill="#000000" font-family="sans-serif" font-size="13" lengthAdjust="spacing" textLength="127" x="95" y="151.2705">requests active orders</text><polygon fill="#181818" points="592.5,183.8242,602.5,187.8242,592.5,191.8242,596.5,187.8242" style="stroke:#181818;stroke-width:1.0;"/><line style="stroke:#181818;stroke-width:1.0;" x1="402" x2="598.5" y1="187.8242" y2="187.8242"/><text fill="#000000" font-family="sans-serif" font-size="13" font-weight="bold" lengthAdjust="spacing" textLength="7" x="409" y="182.5615">2</text><text fill="#000000" font-family="sans-serif" font-size="13" lengthAdjust="spacing" textLength="36" x="420" y="182.5615">create</text><rect fill="#E3E3E3" height="32.6211" rx="2.5" ry="2.5" style="stroke:#181818;stroke-width:0.5;" width="117" x="604.5" y="164.5332"/><text fill="#000000" font-family="sans-serif" font-size="14" lengthAdjust="spacing" textLength="103" x="611.5" y="186.6406">:OrderController</text><polygon fill="#181818" points="646,227.4453,656,231.4453,646,235.4453,650,231.4453" style="stroke:#181818;stroke-width:1.0;"/><line style="stroke:#181818;stroke-width:1.0;" x1="402" x2="652" y1="231.4453" y2="231.4453"/><text fill="#000000" font-family="sans-serif" font-size="13" font-weight="bold" lengthAdjust="spacing" textLength="7" x="409" y="226.1826">3</text><text fill="#000000" font-family="sans-serif" font-size="13" lengthAdjust="spacing" textLength="124" x="420" y="226.1826">consultActiveOrders()</text><polygon fill="#181818" points="912,258.7363,922,262.7363,912,266.7363,916,262.7363" style="stroke:#181818;stroke-width:1.0;"/><line style="stroke:#181818;stroke-width:1.0;" x1="668" x2="918" y1="262.7363" y2="262.7363"/><text fill="#000000" font-family="sans-serif" font-size="13" font-weight="bold" lengthAdjust="spacing" textLength="7" x="675" y="257.4736">4</text><text fill="#000000" font-family="sans-serif" font-size="13" lengthAdjust="spacing" textLength="80" x="686" y="257.4736">activeOrders()</text><polygon fill="#181818" points="1027,290.0273,1037,294.0273,1027,298.0273,1031,294.0273" style="stroke:#181818;stroke-width:1.0;"/><line style="stroke:#181818;stroke-width:1.0;" x1="934" x2="1033" y1="294.0273" y2="294.0273"/><text fill="#000000" font-family="sans-serif" font-size="13" font-weight="bold" lengthAdjust="spacing" textLength="7" x="941" y="288.7646">5</text><text fill="#000000" font-family="sans-serif" font-size="13" lengthAdjust="spacing" textLength="75" x="952" y="288.7646">getInstance()</text><polygon fill="#181818" points="945,321.3184,935,325.3184,945,329.3184,941,325.3184" style="stroke:#181818;stroke-width:1.0;"/><line style="stroke:#181818;stroke-width:1.0;stroke-dasharray:2.0,2.0;" x1="939" x2="1043" y1="325.3184" y2="325.3184"/><text fill="#000000" font-family="sans-serif" font-size="13" font-weight="bold" lengthAdjust="spacing" textLength="7" x="951" y="320.0557">6</text><text fill="#000000" font-family="sans-serif" font-size="13" lengthAdjust="spacing" textLength="67" x="962" y="320.0557">repositories</text><polygon fill="#181818" points="1132,352.6094,1142,356.6094,1132,360.6094,1136,356.6094" style="stroke:#181818;stroke-width:1.0;"/><line style="stroke:#181818;stroke-width:1.0;" x1="934" x2="1138" y1="356.6094" y2="356.6094"/><text fill="#000000" font-family="sans-serif" font-size="13" font-weight="bold" lengthAdjust="spacing" textLength="7" x="941" y="351.3467">7</text><text fill="#000000" font-family="sans-serif" font-size="13" lengthAdjust="spacing" textLength="120" x="952" y="351.3467">getOrderRepository()</text><polygon fill="#181818" points="945,383.9004,935,387.9004,945,391.9004,941,387.9004" style="stroke:#181818;stroke-width:1.0;"/><line style="stroke:#181818;stroke-width:1.0;stroke-dasharray:2.0,2.0;" x1="939" x2="1148" y1="387.9004" y2="387.9004"/><text fill="#000000" font-family="sans-serif" font-size="13" font-weight="bold" lengthAdjust="spacing" textLength="7" x="951" y="382.6377">8</text><text fill="#000000" font-family="sans-serif" font-size="13" lengthAdjust="spacing" textLength="91" x="962" y="382.6377">orderRepository</text><polygon fill="#181818" points="1250.5,415.1914,1260.5,419.1914,1250.5,423.1914,1254.5,419.1914" style="stroke:#181818;stroke-width:1.0;"/><line style="stroke:#181818;stroke-width:1.0;" x1="934" x2="1256.5" y1="419.1914" y2="419.1914"/><text fill="#000000" font-family="sans-serif" font-size="13" font-weight="bold" lengthAdjust="spacing" textLength="7" x="941" y="413.9287">9</text><text fill="#000000" font-family="sans-serif" font-size="13" lengthAdjust="spacing" textLength="41" x="952" y="413.9287">getAll()</text><path d="M307,434.1914 L368,434.1914 L368,443.4824 L358,453.4824 L307,453.4824 L307,434.1914 " fill="#EEEEEE" style="stroke:#000000;stroke-width:1.5;"/><rect fill="none" height="431.7344" style="stroke:#000000;stroke-width:1.5;" width="1221.5" x="307" y="434.1914"/><text fill="#000000" font-family="sans-serif" font-size="13" font-weight="bold" lengthAdjust="spacing" textLength="16" x="322" y="449.2197">alt</text><text fill="#000000" font-family="sans-serif" font-size="11" font-weight="bold" lengthAdjust="spacing" textLength="82" x="383" y="448.0615">[system error]</text><polygon fill="#181818" points="945,472.7734,935,476.7734,945,480.7734,941,476.7734" style="stroke:#181818;stroke-width:1.0;"/><line style="stroke:#181818;stroke-width:1.0;stroke-dasharray:2.0,2.0;" x1="939" x2="1261.5" y1="476.7734" y2="476.7734"/><text fill="#000000" font-family="sans-serif" font-size="13" font-weight="bold" lengthAdjust="spacing" textLength="14" x="951" y="471.5107">10</text><text fill="#000000" font-family="sans-serif" font-size="13" lengthAdjust="spacing" textLength="85" x="969" y="471.5107">Database error</text><polygon fill="#181818" points="679,504.0645,669,508.0645,679,512.0645,675,508.0645" style="stroke:#181818;stroke-width:1.0;"/><line style="stroke:#181818;stroke-width:1.0;stroke-dasharray:2.0,2.0;" x1="673" x2="923" y1="508.0645" y2="508.0645"/><text fill="#000000" font-family="sans-serif" font-size="13" font-weight="bold" lengthAdjust="spacing" textLength="14" x="685" y="502.8018">11</text><text fill="#000000" font-family="sans-serif" font-size="13" lengthAdjust="spacing" textLength="214" x="703" y="502.8018">show error message (Database error)</text><polygon fill="#181818" points="413,535.3555,403,539.3555,413,543.3555,409,539.3555" style="stroke:#181818;stroke-width:1.0;"/><line style="stroke:#181818;stroke-width:1.0;stroke-dasharray:2.0,2.0;" x1="407" x2="657" y1="539.3555" y2="539.3555"/><text fill="#000000" font-family="sans-serif" font-size="13" font-weight="bold" lengthAdjust="spacing" textLength="14" x="419" y="534.0928">12</text><text fill="#000000" font-family="sans-serif" font-size="13" lengthAdjust="spacing" textLength="214" x="437" y="534.0928">show error message (Database error)</text><line style="stroke:#000000;stroke-width:1.0;stroke-dasharray:2.0,2.0;" x1="307" x2="1528.5" y1="548.3555" y2="548.3555"/><polygon fill="#181818" points="945,568.6465,935,572.6465,945,576.6465,941,572.6465" style="stroke:#181818;stroke-width:1.0;"/><line style="stroke:#181818;stroke-width:1.0;stroke-dasharray:2.0,2.0;" x1="939" x2="1266.5" y1="572.6465" y2="572.6465"/><text fill="#000000" font-family="sans-serif" font-size="13" font-weight="bold" lengthAdjust="spacing" textLength="14" x="951" y="567.3838">13</text><text fill="#000000" font-family="sans-serif" font-size="13" lengthAdjust="spacing" textLength="36" x="969" y="567.3838">orders</text><polygon fill="#181818" points="1387.5,599.9375,1397.5,603.9375,1387.5,607.9375,1391.5,603.9375" style="stroke:#181818;stroke-width:1.0;"/><line style="stroke:#181818;stroke-width:1.0;" x1="934" x2="1393.5" y1="603.9375" y2="603.9375"/><text fill="#000000" font-family="sans-serif" font-size="13" font-weight="bold" lengthAdjust="spacing" textLength="14" x="941" y="598.6748">14</text><text fill="#000000" font-family="sans-serif" font-size="13" lengthAdjust="spacing" textLength="36" x="959" y="598.6748">create</text><rect fill="#E3E3E3" height="51.2422" rx="2.5" ry="2.5" style="stroke:#181818;stroke-width:0.5;" width="99" x="1399.5" y="580.6465"/><text fill="#000000" font-family="sans-serif" font-size="14" lengthAdjust="spacing" textLength="85" x="1406.5" y="602.7539">activeOrders:</text><text fill="#000000" font-family="sans-serif" font-size="14" lengthAdjust="spacing" textLength="75" x="1411.5" y="621.375">List&lt;Order&gt;</text><path d="M858,649.8887 L931,649.8887 L931,659.1797 L921,669.1797 L858,669.1797 L858,649.8887 " fill="#EEEEEE" style="stroke:#000000;stroke-width:1.5;"/><rect fill="none" height="177.7461" style="stroke:#000000;stroke-width:1.5;" width="660.5" x="858" y="649.8887"/><text fill="#000000" font-family="sans-serif" font-size="13" font-weight="bold" lengthAdjust="spacing" textLength="28" x="873" y="664.917">loop</text><text fill="#000000" font-family="sans-serif" font-size="11" font-weight="bold" lengthAdjust="spacing" textLength="143" x="946" y="663.7588">[For each order in orders]</text><polygon fill="#181818" points="1346.5,688.4707,1356.5,692.4707,1346.5,696.4707,1350.5,692.4707" style="stroke:#181818;stroke-width:1.0;"/><line style="stroke:#181818;stroke-width:1.0;" x1="934" x2="1352.5" y1="692.4707" y2="692.4707"/><text fill="#000000" font-family="sans-serif" font-size="13" font-weight="bold" lengthAdjust="spacing" textLength="14" x="941" y="687.208">15</text><text fill="#000000" font-family="sans-serif" font-size="13" lengthAdjust="spacing" textLength="98" x="959" y="687.208">getDeliveryDate()</text><polygon fill="#181818" points="945,719.7617,935,723.7617,945,727.7617,941,723.7617" style="stroke:#181818;stroke-width:1.0;"/><line style="stroke:#181818;stroke-width:1.0;stroke-dasharray:2.0,2.0;" x1="939" x2="1362.5" y1="723.7617" y2="723.7617"/><text fill="#000000" font-family="sans-serif" font-size="13" font-weight="bold" lengthAdjust="spacing" textLength="14" x="951" y="718.499">16</text><text fill="#000000" font-family="sans-serif" font-size="13" lengthAdjust="spacing" textLength="70" x="969" y="718.499">deliveryDate</text><path d="M868,738.7617 L929,738.7617 L929,748.0527 L919,758.0527 L868,758.0527 L868,738.7617 " fill="#EEEEEE" style="stroke:#000000;stroke-width:1.5;"/><rect fill="none" height="81.873" style="stroke:#000000;stroke-width:1.5;" width="640.5" x="868" y="738.7617"/><text fill="#000000" font-family="sans-serif" font-size="13" font-weight="bold" lengthAdjust="spacing" textLength="16" x="883" y="753.79">alt</text><text fill="#000000" font-family="sans-serif" font-size="11" font-weight="bold" lengthAdjust="spacing" textLength="179" x="944" y="752.6318">[delivery date after current date]</text><polygon fill="#181818" points="1432,777.3438,1442,781.3438,1432,785.3438,1436,781.3438" style="stroke:#181818;stroke-width:1.0;"/><line style="stroke:#181818;stroke-width:1.0;" x1="934" x2="1438" y1="781.3438" y2="781.3438"/><text fill="#000000" font-family="sans-serif" font-size="13" font-weight="bold" lengthAdjust="spacing" textLength="14" x="941" y="776.0811">17</text><text fill="#000000" font-family="sans-serif" font-size="13" lengthAdjust="spacing" textLength="58" x="959" y="776.0811">add(order)</text><polygon fill="#181818" points="945,808.6348,935,812.6348,945,816.6348,941,812.6348" style="stroke:#181818;stroke-width:1.0;"/><line style="stroke:#181818;stroke-width:1.0;stroke-dasharray:2.0,2.0;" x1="939" x2="1448" y1="812.6348" y2="812.6348"/><text fill="#000000" font-family="sans-serif" font-size="13" font-weight="bold" lengthAdjust="spacing" textLength="14" x="951" y="807.3721">18</text><text fill="#000000" font-family="sans-serif" font-size="13" lengthAdjust="spacing" textLength="4" x="969" y="807.3721">&#160;</text><polygon fill="#181818" points="679,853.9258,669,857.9258,679,861.9258,675,857.9258" style="stroke:#181818;stroke-width:1.0;"/><line style="stroke:#181818;stroke-width:1.0;stroke-dasharray:2.0,2.0;" x1="673" x2="923" y1="857.9258" y2="857.9258"/><text fill="#000000" font-family="sans-serif" font-size="13" font-weight="bold" lengthAdjust="spacing" textLength="14" x="685" y="852.6631">19</text><text fill="#000000" font-family="sans-serif" font-size="13" lengthAdjust="spacing" textLength="72" x="703" y="852.6631">activeOrders</text><polygon fill="#181818" points="413,892.2168,403,896.2168,413,900.2168,409,896.2168" style="stroke:#181818;stroke-width:1.0;"/><line style="stroke:#181818;stroke-width:1.0;stroke-dasharray:2.0,2.0;" x1="407" x2="662" y1="896.2168" y2="896.2168"/><text fill="#000000" font-family="sans-serif" font-size="13" font-weight="bold" lengthAdjust="spacing" textLength="14" x="419" y="890.9541">20</text><text fill="#000000" font-family="sans-serif" font-size="13" lengthAdjust="spacing" textLength="72" x="437" y="890.9541">activeOrders</text><polygon fill="#181818" points="83,923.5078,73,927.5078,83,931.5078,79,927.5078" style="stroke:#181818;stroke-width:1.0;"/><line style="stroke:#181818;stroke-width:1.0;stroke-dasharray:2.0,2.0;" x1="77" x2="396" y1="927.5078" y2="927.5078"/><text fill="#000000" font-family="sans-serif" font-size="13" font-weight="bold" lengthAdjust="spacing" textLength="14" x="89" y="922.2451">21</text><text fill="#000000" font-family="sans-serif" font-size="13" lengthAdjust="spacing" textLength="273" x="107" y="922.2451">shows the list of active orders or error message</text><!--SRC=[bLLDR-8m4BtdLumuGQN-0RH2gafNGYe29TizzU8c0rXDRDPsgFZtExP9i4EIKfyWyzwRyNnPVt9nP8fLK4aXyuEI5O9HDIQwjHnP_idsc9bpYQ0mDqpion2W3woGNrpiOSTAZKbYk25eTjO6AyZmNuqYHrXojhVmQPOjPqd2QYD5NNsWej-vaGecMoMBEZTS2bWpGJxL19Y6xJeXHuRd_CY4WSdyMGfTb-Q9e2VSg0ALVbivwDkg0tLMmXibo_AYz_mdVUs3PQXEF4U7oTA_CIJ5ezISmkIe7I9zsMOnH0MGTp7lOyG4QRssiFFyNMpYBuxMGVL8D4G7twJBbpG6iI1HX7tbslno_nQE4PgRuldSWl_Orj1LYf-OGLiKeBDTm-E2qWvpQWq2QTFe-RYrGxKige_xO0-HY6gByV10z5mX8VhCrdXRyUciXRRohh8G74Sd6IedgR1-UYHX2nzPxB5qKh4b9vazcfNGD0OvTbGY9TSWNQkJUFGHsPHTM-G6Mk2ur3Ke7rEdTxu9hI-o9Z3IwpRTU7236Ul8-42Vod8ik37Nh3IW_Lv1fQIwKMbErt6RyYKpx8DflF071Tm5BWqufnKdlpm3AjIQLXDCOwNPi9HlGZSczoc5PBGRzSUt36QlxmJLwsOxwQbYE3UzisfFAUKHVjErIFlWPO6B9fBnF2_yrlBjiSIIlAapPQLllcxwnI-y8PWNlZPs4QZVan-lFXm5DMGZ2OKbi9sXc-UrKaYxjnXpCv1YkwcAOkeoDnibjr56A_nRHkEdpSee9KZ6NMvG53OjoP3DDaf_GiEPwwphv5ulGRGtgpmOn37vGC8zAD6JH6nwy_mSQp07X9AUKv2x-Da3EmZXb2SzwlOr3Fvkr_y1]--></g></svg>