<?xml version="1.0" encoding="us-ascii" standalone="no"?><svg xmlns="http://www.w3.org/2000/svg" xmlns:xlink="http://www.w3.org/1999/xlink" contentStyleType="text/css" height="1075px" preserveAspectRatio="none" style="width:775px;height:1075px;background:#FFFFFF;" version="1.1" viewBox="0 0 775 1075" width="775px" zoomAndPan="magnify"><defs/><g><!--cluster UI--><g id="cluster_UI"><rect fill="none" height="101" rx="2.5" ry="2.5" style="stroke:#000000;stroke-width:1.5;" width="206" x="341" y="7"/><text fill="#000000" font-family="sans-serif" font-size="14" font-weight="bold" lengthAdjust="spacing" textLength="14" x="437" y="24.1074">UI</text></g><!--cluster Controller--><g id="cluster_Controller"><rect fill="none" height="120" rx="2.5" ry="2.5" style="stroke:#000000;stroke-width:1.5;" width="276" x="306" y="141"/><text fill="#000000" font-family="sans-serif" font-size="14" font-weight="bold" lengthAdjust="spacing" textLength="71" x="408.5" y="158.1074">Controller</text></g><!--cluster Service--><g id="cluster_Service"><rect fill="none" height="120" rx="2.5" ry="2.5" style="stroke:#000000;stroke-width:1.5;" width="230" x="329" y="294"/><text fill="#000000" font-family="sans-serif" font-size="14" font-weight="bold" lengthAdjust="spacing" textLength="54" x="417" y="311.1074">Service</text></g><!--cluster Repository--><g id="cluster_Repository"><rect fill="none" height="303" rx="2.5" ry="2.5" style="stroke:#000000;stroke-width:1.5;" width="383" x="7" y="465"/><text fill="#000000" font-family="sans-serif" font-size="14" font-weight="bold" lengthAdjust="spacing" textLength="76" x="160.5" y="482.1074">Repository</text></g><!--cluster Model--><g id="cluster_Model"><rect fill="none" height="250" rx="2.5" ry="2.5" style="stroke:#000000;stroke-width:1.5;" width="546" x="223" y="819"/><text fill="#000000" font-family="sans-serif" font-size="14" font-weight="bold" lengthAdjust="spacing" textLength="44" x="474" y="836.1074">Model</text></g><!--class ConsultActiveOrdersUI--><g id="elem_ConsultActiveOrdersUI"><rect codeLine="7" fill="#F1F1F1" height="48" id="ConsultActiveOrdersUI" rx="2.5" ry="2.5" style="stroke:#181818;stroke-width:0.5;" width="174" x="357" y="44"/><ellipse cx="372" cy="60" fill="#ADD1B2" rx="11" ry="11" style="stroke:#181818;stroke-width:1.0;"/><path d="M374.7656,55.875 Q374.9219,55.6563 375.1094,55.5469 Q375.2969,55.4375 375.5156,55.4375 Q375.8906,55.4375 376.125,55.7031 Q376.3594,55.9531 376.3594,56.5625 L376.3594,58.0156 Q376.3594,58.625 376.125,58.8906 Q375.8906,59.1563 375.5156,59.1563 Q375.1719,59.1563 374.9688,58.9531 Q374.7656,58.7656 374.6563,58.25 Q374.6094,57.8906 374.4219,57.7031 Q374.0938,57.3281 373.4844,57.1094 Q372.875,56.8906 372.25,56.8906 Q371.4844,56.8906 370.8438,57.2188 Q370.2188,57.5469 369.7188,58.2969 Q369.2344,59.0469 369.2344,60.0781 L369.2344,61.1719 Q369.2344,62.4063 370.125,63.2344 Q371.0156,64.0469 372.6094,64.0469 Q373.5469,64.0469 374.2031,63.7969 Q374.5938,63.6406 375.0156,63.2031 Q375.2813,62.9375 375.4219,62.8594 Q375.5781,62.7813 375.7813,62.7813 Q376.1094,62.7813 376.3594,63.0469 Q376.625,63.2969 376.625,63.6406 Q376.625,63.9844 376.2813,64.3906 Q375.7813,64.9688 374.9844,65.2969 Q373.9063,65.75 372.6094,65.75 Q371.0938,65.75 369.8906,65.125 Q368.9063,64.625 368.2188,63.5625 Q367.5313,62.4844 367.5313,61.2031 L367.5313,60.0469 Q367.5313,58.7188 368.1406,57.5781 Q368.7656,56.4219 369.8594,55.8125 Q370.9531,55.1875 372.1875,55.1875 Q372.9219,55.1875 373.5625,55.3594 Q374.2188,55.5156 374.7656,55.875 Z " fill="#000000"/><text fill="#000000" font-family="sans-serif" font-size="14" lengthAdjust="spacing" textLength="142" x="386" y="65.7969">ConsultActiveOrdersUI</text><line style="stroke:#181818;stroke-width:0.5;" x1="358" x2="530" y1="76" y2="76"/><line style="stroke:#181818;stroke-width:0.5;" x1="358" x2="530" y1="84" y2="84"/></g><!--class OrderController--><g id="elem_OrderController"><rect codeLine="12" fill="#F1F1F1" height="66.6211" id="OrderController" rx="2.5" ry="2.5" style="stroke:#181818;stroke-width:0.5;" width="244" x="322" y="178"/><ellipse cx="390.25" cy="194" fill="#ADD1B2" rx="11" ry="11" style="stroke:#181818;stroke-width:1.0;"/><path d="M393.0156,189.875 Q393.1719,189.6563 393.3594,189.5469 Q393.5469,189.4375 393.7656,189.4375 Q394.1406,189.4375 394.375,189.7031 Q394.6094,189.9531 394.6094,190.5625 L394.6094,192.0156 Q394.6094,192.625 394.375,192.8906 Q394.1406,193.1563 393.7656,193.1563 Q393.4219,193.1563 393.2188,192.9531 Q393.0156,192.7656 392.9063,192.25 Q392.8594,191.8906 392.6719,191.7031 Q392.3438,191.3281 391.7344,191.1094 Q391.125,190.8906 390.5,190.8906 Q389.7344,190.8906 389.0938,191.2188 Q388.4688,191.5469 387.9688,192.2969 Q387.4844,193.0469 387.4844,194.0781 L387.4844,195.1719 Q387.4844,196.4063 388.375,197.2344 Q389.2656,198.0469 390.8594,198.0469 Q391.7969,198.0469 392.4531,197.7969 Q392.8438,197.6406 393.2656,197.2031 Q393.5313,196.9375 393.6719,196.8594 Q393.8281,196.7813 394.0313,196.7813 Q394.3594,196.7813 394.6094,197.0469 Q394.875,197.2969 394.875,197.6406 Q394.875,197.9844 394.5313,198.3906 Q394.0313,198.9688 393.2344,199.2969 Q392.1563,199.75 390.8594,199.75 Q389.3438,199.75 388.1406,199.125 Q387.1563,198.625 386.4688,197.5625 Q385.7813,196.4844 385.7813,195.2031 L385.7813,194.0469 Q385.7813,192.7188 386.3906,191.5781 Q387.0156,190.4219 388.1094,189.8125 Q389.2031,189.1875 390.4375,189.1875 Q391.1719,189.1875 391.8125,189.3594 Q392.4688,189.5156 393.0156,189.875 Z " fill="#000000"/><text fill="#000000" font-family="sans-serif" font-size="14" lengthAdjust="spacing" textLength="99" x="410.75" y="199.7969">OrderController</text><line style="stroke:#181818;stroke-width:0.5;" x1="323" x2="565" y1="210" y2="210"/><line style="stroke:#181818;stroke-width:0.5;" x1="323" x2="565" y1="218" y2="218"/><text fill="#000000" font-family="sans-serif" font-size="14" lengthAdjust="spacing" textLength="232" x="328" y="237.1074">+consultActiveOrders() : List&lt;Order&gt;</text></g><!--class OrderService--><g id="elem_OrderService"><rect codeLine="18" fill="#F1F1F1" height="66.6211" id="OrderService" rx="2.5" ry="2.5" style="stroke:#181818;stroke-width:0.5;" width="198" x="345" y="331"/><ellipse cx="397.75" cy="347" fill="#ADD1B2" rx="11" ry="11" style="stroke:#181818;stroke-width:1.0;"/><path d="M400.5156,342.875 Q400.6719,342.6563 400.8594,342.5469 Q401.0469,342.4375 401.2656,342.4375 Q401.6406,342.4375 401.875,342.7031 Q402.1094,342.9531 402.1094,343.5625 L402.1094,345.0156 Q402.1094,345.625 401.875,345.8906 Q401.6406,346.1563 401.2656,346.1563 Q400.9219,346.1563 400.7188,345.9531 Q400.5156,345.7656 400.4063,345.25 Q400.3594,344.8906 400.1719,344.7031 Q399.8438,344.3281 399.2344,344.1094 Q398.625,343.8906 398,343.8906 Q397.2344,343.8906 396.5938,344.2188 Q395.9688,344.5469 395.4688,345.2969 Q394.9844,346.0469 394.9844,347.0781 L394.9844,348.1719 Q394.9844,349.4063 395.875,350.2344 Q396.7656,351.0469 398.3594,351.0469 Q399.2969,351.0469 399.9531,350.7969 Q400.3438,350.6406 400.7656,350.2031 Q401.0313,349.9375 401.1719,349.8594 Q401.3281,349.7813 401.5313,349.7813 Q401.8594,349.7813 402.1094,350.0469 Q402.375,350.2969 402.375,350.6406 Q402.375,350.9844 402.0313,351.3906 Q401.5313,351.9688 400.7344,352.2969 Q399.6563,352.75 398.3594,352.75 Q396.8438,352.75 395.6406,352.125 Q394.6563,351.625 393.9688,350.5625 Q393.2813,349.4844 393.2813,348.2031 L393.2813,347.0469 Q393.2813,345.7188 393.8906,344.5781 Q394.5156,343.4219 395.6094,342.8125 Q396.7031,342.1875 397.9375,342.1875 Q398.6719,342.1875 399.3125,342.3594 Q399.9688,342.5156 400.5156,342.875 Z " fill="#000000"/><text fill="#000000" font-family="sans-serif" font-size="14" lengthAdjust="spacing" textLength="84" x="418.25" y="352.7969">OrderService</text><line style="stroke:#181818;stroke-width:0.5;" x1="346" x2="542" y1="363" y2="363"/><line style="stroke:#181818;stroke-width:0.5;" x1="346" x2="542" y1="371" y2="371"/><text fill="#000000" font-family="sans-serif" font-size="14" lengthAdjust="spacing" textLength="186" x="351" y="390.1074">+activeOrders() : List&lt;Order&gt;</text></g><!--class Repositories--><g id="elem_Repositories"><rect codeLine="24" fill="#F1F1F1" height="103.8633" id="Repositories" rx="2.5" ry="2.5" style="stroke:#181818;stroke-width:0.5;" width="272" x="23" y="502"/><ellipse cx="115.25" cy="518" fill="#ADD1B2" rx="11" ry="11" style="stroke:#181818;stroke-width:1.0;"/><path d="M118.0156,513.875 Q118.1719,513.6563 118.3594,513.5469 Q118.5469,513.4375 118.7656,513.4375 Q119.1406,513.4375 119.375,513.7031 Q119.6094,513.9531 119.6094,514.5625 L119.6094,516.0156 Q119.6094,516.625 119.375,516.8906 Q119.1406,517.1563 118.7656,517.1563 Q118.4219,517.1563 118.2188,516.9531 Q118.0156,516.7656 117.9063,516.25 Q117.8594,515.8906 117.6719,515.7031 Q117.3438,515.3281 116.7344,515.1094 Q116.125,514.8906 115.5,514.8906 Q114.7344,514.8906 114.0938,515.2188 Q113.4688,515.5469 112.9688,516.2969 Q112.4844,517.0469 112.4844,518.0781 L112.4844,519.1719 Q112.4844,520.4063 113.375,521.2344 Q114.2656,522.0469 115.8594,522.0469 Q116.7969,522.0469 117.4531,521.7969 Q117.8438,521.6406 118.2656,521.2031 Q118.5313,520.9375 118.6719,520.8594 Q118.8281,520.7813 119.0313,520.7813 Q119.3594,520.7813 119.6094,521.0469 Q119.875,521.2969 119.875,521.6406 Q119.875,521.9844 119.5313,522.3906 Q119.0313,522.9688 118.2344,523.2969 Q117.1563,523.75 115.8594,523.75 Q114.3438,523.75 113.1406,523.125 Q112.1563,522.625 111.4688,521.5625 Q110.7813,520.4844 110.7813,519.2031 L110.7813,518.0469 Q110.7813,516.7188 111.3906,515.5781 Q112.0156,514.4219 113.1094,513.8125 Q114.2031,513.1875 115.4375,513.1875 Q116.1719,513.1875 116.8125,513.3594 Q117.4688,513.5156 118.0156,513.875 Z " fill="#000000"/><text fill="#000000" font-family="sans-serif" font-size="14" lengthAdjust="spacing" textLength="79" x="135.75" y="523.7969">Repositories</text><line style="stroke:#181818;stroke-width:0.5;" x1="24" x2="294" y1="534" y2="534"/><line style="stroke:#181818;stroke-width:0.5;" x1="24" x2="294" y1="542" y2="542"/><text fill="#000000" font-family="sans-serif" font-size="14" lengthAdjust="spacing" textLength="94" x="29" y="561.1074">-Repositories()</text><text fill="#000000" font-family="sans-serif" font-size="14" lengthAdjust="spacing" textLength="182" x="29" y="579.7285">+getInstance() : Repositories</text><text fill="#000000" font-family="sans-serif" font-size="14" lengthAdjust="spacing" textLength="260" x="29" y="598.3496">+getOrderRepository() : OrderRepository</text></g><!--class OrderRepository--><g id="elem_OrderRepository"><rect codeLine="30" fill="#F1F1F1" height="66.6211" id="OrderRepository" rx="2.5" ry="2.5" style="stroke:#181818;stroke-width:0.5;" width="152" x="222" y="685"/><ellipse cx="243.75" cy="701" fill="#ADD1B2" rx="11" ry="11" style="stroke:#181818;stroke-width:1.0;"/><path d="M246.5156,696.875 Q246.6719,696.6563 246.8594,696.5469 Q247.0469,696.4375 247.2656,696.4375 Q247.6406,696.4375 247.875,696.7031 Q248.1094,696.9531 248.1094,697.5625 L248.1094,699.0156 Q248.1094,699.625 247.875,699.8906 Q247.6406,700.1563 247.2656,700.1563 Q246.9219,700.1563 246.7188,699.9531 Q246.5156,699.7656 246.4063,699.25 Q246.3594,698.8906 246.1719,698.7031 Q245.8438,698.3281 245.2344,698.1094 Q244.625,697.8906 244,697.8906 Q243.2344,697.8906 242.5938,698.2188 Q241.9688,698.5469 241.4688,699.2969 Q240.9844,700.0469 240.9844,701.0781 L240.9844,702.1719 Q240.9844,703.4063 241.875,704.2344 Q242.7656,705.0469 244.3594,705.0469 Q245.2969,705.0469 245.9531,704.7969 Q246.3438,704.6406 246.7656,704.2031 Q247.0313,703.9375 247.1719,703.8594 Q247.3281,703.7813 247.5313,703.7813 Q247.8594,703.7813 248.1094,704.0469 Q248.375,704.2969 248.375,704.6406 Q248.375,704.9844 248.0313,705.3906 Q247.5313,705.9688 246.7344,706.2969 Q245.6563,706.75 244.3594,706.75 Q242.8438,706.75 241.6406,706.125 Q240.6563,705.625 239.9688,704.5625 Q239.2813,703.4844 239.2813,702.2031 L239.2813,701.0469 Q239.2813,699.7188 239.8906,698.5781 Q240.5156,697.4219 241.6094,696.8125 Q242.7031,696.1875 243.9375,696.1875 Q244.6719,696.1875 245.3125,696.3594 Q245.9688,696.5156 246.5156,696.875 Z " fill="#000000"/><text fill="#000000" font-family="sans-serif" font-size="14" lengthAdjust="spacing" textLength="105" x="259.25" y="706.7969">OrderRepository</text><line style="stroke:#181818;stroke-width:0.5;" x1="223" x2="373" y1="717" y2="717"/><line style="stroke:#181818;stroke-width:0.5;" x1="223" x2="373" y1="725" y2="725"/><text fill="#000000" font-family="sans-serif" font-size="14" lengthAdjust="spacing" textLength="140" x="228" y="744.1074">+getAll() : List&lt;Order&gt;</text></g><!--class Order--><g id="elem_Order"><rect codeLine="37" fill="#F1F1F1" height="196.9688" id="Order" rx="2.5" ry="2.5" style="stroke:#181818;stroke-width:0.5;" width="513" x="239.5" y="856"/><ellipse cx="473.25" cy="872" fill="#ADD1B2" rx="11" ry="11" style="stroke:#181818;stroke-width:1.0;"/><path d="M476.0156,867.875 Q476.1719,867.6563 476.3594,867.5469 Q476.5469,867.4375 476.7656,867.4375 Q477.1406,867.4375 477.375,867.7031 Q477.6094,867.9531 477.6094,868.5625 L477.6094,870.0156 Q477.6094,870.625 477.375,870.8906 Q477.1406,871.1563 476.7656,871.1563 Q476.4219,871.1563 476.2188,870.9531 Q476.0156,870.7656 475.9063,870.25 Q475.8594,869.8906 475.6719,869.7031 Q475.3438,869.3281 474.7344,869.1094 Q474.125,868.8906 473.5,868.8906 Q472.7344,868.8906 472.0938,869.2188 Q471.4688,869.5469 470.9688,870.2969 Q470.4844,871.0469 470.4844,872.0781 L470.4844,873.1719 Q470.4844,874.4063 471.375,875.2344 Q472.2656,876.0469 473.8594,876.0469 Q474.7969,876.0469 475.4531,875.7969 Q475.8438,875.6406 476.2656,875.2031 Q476.5313,874.9375 476.6719,874.8594 Q476.8281,874.7813 477.0313,874.7813 Q477.3594,874.7813 477.6094,875.0469 Q477.875,875.2969 477.875,875.6406 Q477.875,875.9844 477.5313,876.3906 Q477.0313,876.9688 476.2344,877.2969 Q475.1563,877.75 473.8594,877.75 Q472.3438,877.75 471.1406,877.125 Q470.1563,876.625 469.4688,875.5625 Q468.7813,874.4844 468.7813,873.2031 L468.7813,872.0469 Q468.7813,870.7188 469.3906,869.5781 Q470.0156,868.4219 471.1094,867.8125 Q472.2031,867.1875 473.4375,867.1875 Q474.1719,867.1875 474.8125,867.3594 Q475.4688,867.5156 476.0156,867.875 Z " fill="#000000"/><text fill="#000000" font-family="sans-serif" font-size="14" lengthAdjust="spacing" textLength="37" x="493.75" y="877.7969">Order</text><line style="stroke:#181818;stroke-width:0.5;" x1="240.5" x2="751.5" y1="888" y2="888"/><text fill="#000000" font-family="sans-serif" font-size="14" lengthAdjust="spacing" textLength="79" x="245.5" y="907.1074">-orderID : int</text><text fill="#000000" font-family="sans-serif" font-size="14" lengthAdjust="spacing" textLength="170" x="245.5" y="925.7285">-deliveryAddress : Address</text><text fill="#000000" font-family="sans-serif" font-size="14" lengthAdjust="spacing" textLength="111" x="245.5" y="944.3496">-orderDate : Date</text><text fill="#000000" font-family="sans-serif" font-size="14" lengthAdjust="spacing" textLength="126" x="245.5" y="962.9707">-deliveryDate : Date</text><text fill="#000000" font-family="sans-serif" font-size="14" lengthAdjust="spacing" textLength="91" x="245.5" y="981.5918">-price : double</text><text fill="#000000" font-family="sans-serif" font-size="14" lengthAdjust="spacing" textLength="132" x="245.5" y="1000.2129">-state : ProcessState</text><text fill="#000000" font-family="sans-serif" font-size="14" lengthAdjust="spacing" textLength="262" x="245.5" y="1018.834">-productQuantity : Map&lt;Product, Integer&gt;</text><line style="stroke:#181818;stroke-width:0.5;" x1="240.5" x2="751.5" y1="1026.3477" y2="1026.3477"/><text fill="#000000" font-family="sans-serif" font-size="14" lengthAdjust="spacing" textLength="501" x="245.5" y="1045.4551">+Order(orderID, deliveryAddress, orderID, deliveryDate, price, productQuantity)</text></g><!--link ConsultActiveOrdersUI to OrderController--><g id="link_ConsultActiveOrdersUI_OrderController"><path codeLine="50" d="M444,92.05 C444,115.39 444,145.68 444,171.95 " fill="none" id="ConsultActiveOrdersUI-to-OrderController" style="stroke:#181818;stroke-width:1.0;stroke-dasharray:7.0,7.0;"/><polygon fill="#181818" points="444,177.95,448,168.95,444,172.95,440,168.95,444,177.95" style="stroke:#181818;stroke-width:1.0;"/></g><!--link OrderController to OrderService--><g id="link_OrderController_OrderService"><path codeLine="51" d="M444,245.26 C444,270.59 444,299.49 444,324.8 " fill="none" id="OrderController-to-OrderService" style="stroke:#181818;stroke-width:1.0;stroke-dasharray:7.0,7.0;"/><polygon fill="#181818" points="444,330.8,448,321.8,444,325.8,440,321.8,444,330.8" style="stroke:#181818;stroke-width:1.0;"/></g><!--link OrderService to Repositories--><g id="link_OrderService_Repositories"><path codeLine="52" d="M394.36,398.16 C350.9,426.75 292.0426,465.4725 241.8026,498.5225 " fill="none" id="OrderService-to-Repositories" style="stroke:#181818;stroke-width:1.0;stroke-dasharray:7.0,7.0;"/><polygon fill="#181818" points="236.79,501.82,246.5073,500.2155,240.9672,499.0721,242.1106,493.532,236.79,501.82" style="stroke:#181818;stroke-width:1.0;"/><text fill="#000000" font-family="sans-serif" font-size="13" lengthAdjust="spacing" textLength="67" x="345" y="445.0283">repositories</text></g><!--link OrderService to OrderRepository--><g id="link_OrderService_OrderRepository"><path codeLine="53" d="M436.8,398.19 C422.31,463.94 391,606 391,606 C391,606 356.4432,647.4324 328.9932,680.3424 " fill="none" id="OrderService-to-OrderRepository" style="stroke:#181818;stroke-width:1.0;stroke-dasharray:7.0,7.0;"/><polygon fill="#181818" points="325.15,684.95,333.9865,680.6007,328.3526,681.1103,327.843,675.4765,325.15,684.95" style="stroke:#181818;stroke-width:1.0;"/><text fill="#000000" font-family="sans-serif" font-size="13" lengthAdjust="spacing" textLength="91" x="425" y="559.5283">orderRepository</text></g><!--link OrderService to Order--><g id="link_OrderService_Order"><path codeLine="54" d="M472.79,398.02 C496.07,424.32 525,457 525,457 C525,457 525,606 525,606 C525,606 513.2286,747.0207 504.6586,849.8007 " fill="none" id="OrderService-to-Order" style="stroke:#181818;stroke-width:1.0;stroke-dasharray:7.0,7.0;"/><polygon fill="#181818" points="504.16,855.78,508.894,847.1435,504.5755,850.7973,500.9217,846.4787,504.16,855.78" style="stroke:#181818;stroke-width:1.0;"/><text fill="#000000" font-family="sans-serif" font-size="13" lengthAdjust="spacing" textLength="29" x="523" y="651.0283">order</text></g><!--link Repositories to Repositories--><g id="link_Repositories_Repositories"><path codeLine="55" d="M295.16,538.61 C315.91,540.96 330,546.09 330,554 C330,561.91 321.8719,566.3648 301.1219,568.7148 " fill="none" id="Repositories-to-Repositories" style="stroke:#181818;stroke-width:1.0;"/><polygon fill="#181818" points="295.16,569.39,304.553,572.3518,300.1282,568.8273,303.6527,564.4026,295.16,569.39" style="stroke:#181818;stroke-width:1.0;"/><text fill="#000000" font-family="sans-serif" font-size="13" lengthAdjust="spacing" textLength="49" x="336" y="559.5283">instance</text></g><!--link Repositories to OrderRepository--><g id="link_Repositories_OrderRepository"><path codeLine="56" d="M202.98,606.42 C224.93,632.08 246.9301,657.7903 266.1401,680.2503 " fill="none" id="Repositories-to-OrderRepository" style="stroke:#181818;stroke-width:1.0;"/><polygon fill="#181818" points="270.04,684.81,267.2299,675.3705,266.7901,681.0103,261.1504,680.5704,270.04,684.81" style="stroke:#181818;stroke-width:1.0;"/><text fill="#000000" font-family="sans-serif" font-size="13" lengthAdjust="spacing" textLength="91" x="242" y="651.0283">orderRepository</text><text fill="#000000" font-family="sans-serif" font-size="13" lengthAdjust="spacing" textLength="7" x="200.9135" y="627.899">1</text><text fill="#000000" font-family="sans-serif" font-size="13" lengthAdjust="spacing" textLength="7" x="257.0429" y="673.8597">1</text></g><!--link OrderRepository to Order--><g id="link_OrderRepository_Order"><path codeLine="57" d="M325.53,752.04 C348.32,778.97 378.0641,814.1199 409.4341,851.1899 " fill="none" id="OrderRepository-to-Order" style="stroke:#181818;stroke-width:1.0;"/><polygon fill="#181818" points="413.31,855.77,410.5496,846.3159,410.0801,851.9532,404.4428,851.4837,413.31,855.77" style="stroke:#181818;stroke-width:1.0;"/><text fill="#000000" font-family="sans-serif" font-size="13" lengthAdjust="spacing" textLength="60" x="369" y="799.0283">categories</text><text fill="#000000" font-family="sans-serif" font-size="13" lengthAdjust="spacing" textLength="7" x="322.8103" y="773.6164">1</text><text fill="#000000" font-family="sans-serif" font-size="13" lengthAdjust="spacing" textLength="5" x="401.7876" y="844.6009">*</text></g><!--SRC=[bLJ1Rjim3BthAmYVaYqfjgjH50ZMYu4LwnRq0rIPyuHgaY7H7RoX_pv9KMt9Te7D5yLyZtnyD1Nt97NFBVy9FHTFlCCpZGh1eY2kEuNCJGJtWxVcbzGTVEVAvOYI6cdi4NgZnl2IOK9nvqv4LZuEX8qm-Yn_8tnWB0b2zT1Ky8U1Vo8PFXdj1aKdGV8PlzWMhNje4kE5lMIPdadMA8Msh12JPZ1XuNalriLtUwZXitHq7TzlDeJEQ9-bm0sLXEGI_FzgVyFUE4d6ZcNvAIxHPUMFUNotdsKxf4Ox_za4HjMSLx1Y9xDg92zYgSsbsPcG-_KbJqgzuRImUcTQL1j3pEsP46XkVJ6fQGxxH3zKEvxQrgBFgo7zMcJUSa8FXcETl0dsDdo_6bepFAeixaSPsVVM2AzpfaMMQGT1NmUkITBeUNUylxw_H0_GQCBkTGfnIj7eBhaxmCBF0LP8wF80iRjm57BxUO_OzdMvkhfPNWEsl1OJ9oqnApOweCKErlvl8Lkf5Ncv8lN5KxPLsoclH5Qe7OyhUPdMkoHM7wj83kS_jf0nfkntrTIDy9FlBYR_0W00]--></g></svg>