<?xml version="1.0" encoding="us-ascii" standalone="no"?><svg xmlns="http://www.w3.org/2000/svg" xmlns:xlink="http://www.w3.org/1999/xlink" contentStyleType="text/css" height="898.8px" preserveAspectRatio="none" style="width:1387px;height:898px;background:#FFFFFF;" version="1.1" viewBox="0 0 1387 898" width="1387.8px" zoomAndPan="magnify"><defs/><g><!--cluster UI--><g id="cluster_UI"><rect fill="none" height="60.6" rx="1.5" ry="1.5" style="stroke:#000000;stroke-width:0.8999999999999999;" width="94.8" x="538.8" y="4.2"/><text fill="#000000" font-family="sans-serif" font-size="8.4" font-weight="bold" lengthAdjust="spacing" textLength="8.4" x="582" y="14.4645">UI</text></g><!--cluster Controller--><g id="cluster_Controller"><rect fill="none" height="82.8" rx="1.5" ry="1.5" style="stroke:#000000;stroke-width:0.8999999999999999;" width="642" x="316.2" y="84.6"/><text fill="#000000" font-family="sans-serif" font-size="8.4" font-weight="bold" lengthAdjust="spacing" textLength="42.6" x="615.9" y="94.8645">Controller</text></g><!--cluster Service--><g id="cluster_Service"><rect fill="none" height="82.8" rx="1.5" ry="1.5" style="stroke:#000000;stroke-width:0.8999999999999999;" width="612.6" x="327" y="187.2"/><text fill="#000000" font-family="sans-serif" font-size="8.4" font-weight="bold" lengthAdjust="spacing" textLength="32.4" x="617.1" y="197.4645">Service</text></g><!--cluster Repository--><g id="cluster_Repository"><rect fill="none" height="226.2" rx="1.5" ry="1.5" style="stroke:#000000;stroke-width:0.8999999999999999;" width="608.4" x="160.2" y="300.6"/><text fill="#000000" font-family="sans-serif" font-size="8.4" font-weight="bold" lengthAdjust="spacing" textLength="45.6" x="441.6" y="310.8645">Repository</text></g><!--cluster Model--><g id="cluster_Model"><rect fill="none" height="337.8" rx="1.5" ry="1.5" style="stroke:#000000;stroke-width:0.8999999999999999;" width="468.6" x="4.2" y="557.4"/><text fill="#000000" font-family="sans-serif" font-size="8.4" font-weight="bold" lengthAdjust="spacing" textLength="26.4" x="225.3" y="567.6645">Model</text></g><!--cluster Exception--><g id="cluster_Exception"><rect fill="none" height="198.3" rx="1.5" ry="1.5" style="stroke:#000000;stroke-width:0.8999999999999999;" width="378.6" x="829.2" y="311.7"/><text fill="#000000" font-family="sans-serif" font-size="8.4" font-weight="bold" lengthAdjust="spacing" textLength="42" x="997.5" y="321.9645">Exception</text></g><!--cluster Commom--><g id="cluster_Commom"><rect fill="none" height="72" rx="1.5" ry="1.5" style="stroke:#000000;stroke-width:0.8999999999999999;" width="162" x="1222.2" y="322.8"/><text fill="#000000" font-family="sans-serif" font-size="8.4" font-weight="bold" lengthAdjust="spacing" textLength="38.4" x="1284" y="333.0645">Commom</text></g><!--class UpdateOrderUI--><g id="elem_UpdateOrderUI"><rect codeLine="7" fill="#F1F1F1" height="28.8" id="UpdateOrderUI" rx="1.5" ry="1.5" style="stroke:#181818;stroke-width:0.3;" width="75.6" x="548.4" y="26.4"/><ellipse cx="557.4" cy="36" fill="#ADD1B2" rx="6.6" ry="6.6" style="stroke:#181818;stroke-width:0.6;"/><path d="M559.0594,33.525 Q559.1531,33.3938 559.2656,33.3281 Q559.3781,33.2625 559.5094,33.2625 Q559.7344,33.2625 559.875,33.4219 Q560.0156,33.5719 560.0156,33.9375 L560.0156,34.8094 Q560.0156,35.175 559.875,35.3344 Q559.7344,35.4938 559.5094,35.4938 Q559.3031,35.4938 559.1813,35.3719 Q559.0594,35.2594 558.9938,34.95 Q558.9656,34.7344 558.8531,34.6219 Q558.6563,34.3969 558.2906,34.2656 Q557.925,34.1344 557.55,34.1344 Q557.0906,34.1344 556.7063,34.3313 Q556.3313,34.5281 556.0313,34.9781 Q555.7406,35.4281 555.7406,36.0469 L555.7406,36.7031 Q555.7406,37.4438 556.275,37.9406 Q556.8094,38.4281 557.7656,38.4281 Q558.3281,38.4281 558.7219,38.2781 Q558.9563,38.1844 559.2094,37.9219 Q559.3688,37.7625 559.4531,37.7156 Q559.5469,37.6687 559.6687,37.6687 Q559.8656,37.6687 560.0156,37.8281 Q560.175,37.9781 560.175,38.1844 Q560.175,38.3906 559.9688,38.6344 Q559.6687,38.9812 559.1906,39.1781 Q558.5437,39.45 557.7656,39.45 Q556.8562,39.45 556.1344,39.075 Q555.5437,38.775 555.1313,38.1375 Q554.7188,37.4906 554.7188,36.7219 L554.7188,36.0281 Q554.7188,35.2312 555.0844,34.5469 Q555.4594,33.8531 556.1156,33.4875 Q556.7719,33.1125 557.5125,33.1125 Q557.9531,33.1125 558.3375,33.2156 Q558.7312,33.3094 559.0594,33.525 Z " fill="#000000"/><text fill="#000000" font-family="sans-serif" font-size="8.4" lengthAdjust="spacing" textLength="56.4" x="565.8" y="39.4781">UpdateOrderUI</text><line style="stroke:#181818;stroke-width:0.3;" x1="549" x2="623.4" y1="45.6" y2="45.6"/><line style="stroke:#181818;stroke-width:0.3;" x1="549" x2="623.4" y1="50.4" y2="50.4"/></g><!--class ClientController--><g id="elem_ClientController"><rect codeLine="12" fill="#F1F1F1" height="51.1453" id="ClientController" rx="1.5" ry="1.5" style="stroke:#181818;stroke-width:0.3;" width="124.2" x="326.1" y="106.8"/><ellipse cx="356.25" cy="116.4" fill="#ADD1B2" rx="6.6" ry="6.6" style="stroke:#181818;stroke-width:0.6;"/><path d="M357.9094,113.925 Q358.0031,113.7938 358.1156,113.7281 Q358.2281,113.6625 358.3594,113.6625 Q358.5844,113.6625 358.725,113.8219 Q358.8656,113.9719 358.8656,114.3375 L358.8656,115.2094 Q358.8656,115.575 358.725,115.7344 Q358.5844,115.8938 358.3594,115.8938 Q358.1531,115.8938 358.0313,115.7719 Q357.9094,115.6594 357.8438,115.35 Q357.8156,115.1344 357.7031,115.0219 Q357.5062,114.7969 357.1406,114.6656 Q356.775,114.5344 356.4,114.5344 Q355.9406,114.5344 355.5563,114.7313 Q355.1813,114.9281 354.8812,115.3781 Q354.5906,115.8281 354.5906,116.4469 L354.5906,117.1031 Q354.5906,117.8438 355.125,118.3406 Q355.6594,118.8281 356.6156,118.8281 Q357.1781,118.8281 357.5719,118.6781 Q357.8063,118.5844 358.0594,118.3219 Q358.2188,118.1625 358.3031,118.1156 Q358.3969,118.0688 358.5188,118.0688 Q358.7156,118.0688 358.8656,118.2281 Q359.025,118.3781 359.025,118.5844 Q359.025,118.7906 358.8187,119.0344 Q358.5188,119.3813 358.0406,119.5781 Q357.3938,119.85 356.6156,119.85 Q355.7063,119.85 354.9844,119.475 Q354.3938,119.175 353.9813,118.5375 Q353.5687,117.8906 353.5687,117.1219 L353.5687,116.4281 Q353.5687,115.6313 353.9344,114.9469 Q354.3094,114.2531 354.9656,113.8875 Q355.6219,113.5125 356.3625,113.5125 Q356.8031,113.5125 357.1875,113.6156 Q357.5813,113.7094 357.9094,113.925 Z " fill="#000000"/><text fill="#000000" font-family="sans-serif" font-size="8.4" lengthAdjust="spacing" textLength="58.8" x="368.55" y="119.8781">ClientController</text><line style="stroke:#181818;stroke-width:0.3;" x1="326.7" x2="449.7" y1="126" y2="126"/><line style="stroke:#181818;stroke-width:0.3;" x1="326.7" x2="449.7" y1="130.8" y2="130.8"/><text fill="#000000" font-family="sans-serif" font-size="8.4" lengthAdjust="spacing" textLength="109.2" x="329.7" y="142.2645">+getAllClients() : List&lt;Client&gt;</text><text fill="#000000" font-family="sans-serif" font-size="8.4" lengthAdjust="spacing" textLength="117" x="329.7" y="153.4371">+getClientById(clientID) : Client</text></g><!--class OrderController--><g id="elem_OrderController"><rect codeLine="17" fill="#F1F1F1" height="51.1453" id="OrderController" rx="1.5" ry="1.5" style="stroke:#181818;stroke-width:0.3;" width="477" x="471.3" y="106.8"/><ellipse cx="677.55" cy="116.4" fill="#ADD1B2" rx="6.6" ry="6.6" style="stroke:#181818;stroke-width:0.6;"/><path d="M679.2094,113.925 Q679.3031,113.7938 679.4156,113.7281 Q679.5281,113.6625 679.6594,113.6625 Q679.8844,113.6625 680.025,113.8219 Q680.1656,113.9719 680.1656,114.3375 L680.1656,115.2094 Q680.1656,115.575 680.025,115.7344 Q679.8844,115.8938 679.6594,115.8938 Q679.4531,115.8938 679.3313,115.7719 Q679.2094,115.6594 679.1438,115.35 Q679.1156,115.1344 679.0031,115.0219 Q678.8063,114.7969 678.4406,114.6656 Q678.075,114.5344 677.7,114.5344 Q677.2406,114.5344 676.8562,114.7313 Q676.4812,114.9281 676.1813,115.3781 Q675.8906,115.8281 675.8906,116.4469 L675.8906,117.1031 Q675.8906,117.8438 676.425,118.3406 Q676.9594,118.8281 677.9156,118.8281 Q678.4781,118.8281 678.8719,118.6781 Q679.1062,118.5844 679.3594,118.3219 Q679.5188,118.1625 679.6031,118.1156 Q679.6969,118.0688 679.8188,118.0688 Q680.0156,118.0688 680.1656,118.2281 Q680.325,118.3781 680.325,118.5844 Q680.325,118.7906 680.1188,119.0344 Q679.8188,119.3813 679.3406,119.5781 Q678.6938,119.85 677.9156,119.85 Q677.0063,119.85 676.2844,119.475 Q675.6938,119.175 675.2813,118.5375 Q674.8688,117.8906 674.8688,117.1219 L674.8688,116.4281 Q674.8688,115.6313 675.2344,114.9469 Q675.6094,114.2531 676.2656,113.8875 Q676.9219,113.5125 677.6625,113.5125 Q678.1031,113.5125 678.4875,113.6156 Q678.8813,113.7094 679.2094,113.925 Z " fill="#000000"/><text fill="#000000" font-family="sans-serif" font-size="8.4" lengthAdjust="spacing" textLength="59.4" x="689.85" y="119.8781">OrderController</text><line style="stroke:#181818;stroke-width:0.3;" x1="471.9" x2="947.7" y1="126" y2="126"/><line style="stroke:#181818;stroke-width:0.3;" x1="471.9" x2="947.7" y1="130.8" y2="130.8"/><text fill="#000000" font-family="sans-serif" font-size="8.4" lengthAdjust="spacing" textLength="120" x="474.9" y="142.2645">+getOrderByID(orderID) : Order</text><text fill="#000000" font-family="sans-serif" font-size="8.4" lengthAdjust="spacing" textLength="469.8" x="474.9" y="153.4371">+updateOrder(order, deliveryStreet, deliveryZipCode, deliveryTown, deliveryCountry, orderDate, deliveryDate, price) : Order</text></g><!--class ClientService--><g id="elem_ClientService"><rect codeLine="24" fill="#F1F1F1" height="51.1453" id="ClientService" rx="1.5" ry="1.5" style="stroke:#181818;stroke-width:0.3;" width="124.2" x="336.9" y="209.4"/><ellipse cx="371.55" cy="219" fill="#ADD1B2" rx="6.6" ry="6.6" style="stroke:#181818;stroke-width:0.6;"/><path d="M373.2094,216.525 Q373.3031,216.3937 373.4156,216.3281 Q373.5281,216.2625 373.6594,216.2625 Q373.8844,216.2625 374.025,216.4219 Q374.1656,216.5719 374.1656,216.9375 L374.1656,217.8094 Q374.1656,218.175 374.025,218.3344 Q373.8844,218.4938 373.6594,218.4938 Q373.4531,218.4938 373.3313,218.3719 Q373.2094,218.2594 373.1438,217.95 Q373.1156,217.7344 373.0031,217.6219 Q372.8063,217.3969 372.4406,217.2656 Q372.075,217.1344 371.7,217.1344 Q371.2406,217.1344 370.8563,217.3312 Q370.4813,217.5281 370.1813,217.9781 Q369.8906,218.4281 369.8906,219.0469 L369.8906,219.7031 Q369.8906,220.4438 370.425,220.9406 Q370.9594,221.4281 371.9156,221.4281 Q372.4781,221.4281 372.8719,221.2781 Q373.1063,221.1844 373.3594,220.9219 Q373.5188,220.7625 373.6031,220.7156 Q373.6969,220.6688 373.8187,220.6688 Q374.0156,220.6688 374.1656,220.8281 Q374.325,220.9781 374.325,221.1844 Q374.325,221.3906 374.1188,221.6344 Q373.8187,221.9813 373.3406,222.1781 Q372.6937,222.45 371.9156,222.45 Q371.0062,222.45 370.2844,222.075 Q369.6937,221.775 369.2813,221.1375 Q368.8688,220.4906 368.8688,219.7219 L368.8688,219.0281 Q368.8688,218.2313 369.2344,217.5469 Q369.6094,216.8531 370.2656,216.4875 Q370.9219,216.1125 371.6625,216.1125 Q372.1031,216.1125 372.4875,216.2156 Q372.8812,216.3094 373.2094,216.525 Z " fill="#000000"/><text fill="#000000" font-family="sans-serif" font-size="8.4" lengthAdjust="spacing" textLength="49.8" x="383.85" y="222.4781">ClientService</text><line style="stroke:#181818;stroke-width:0.3;" x1="337.5" x2="460.5" y1="228.6" y2="228.6"/><line style="stroke:#181818;stroke-width:0.3;" x1="337.5" x2="460.5" y1="233.4" y2="233.4"/><text fill="#000000" font-family="sans-serif" font-size="8.4" lengthAdjust="spacing" textLength="100.2" x="340.5" y="244.8645">+getClients() : List&lt;Client&gt;</text><text fill="#000000" font-family="sans-serif" font-size="8.4" lengthAdjust="spacing" textLength="117" x="340.5" y="256.0371">+getClientById(clientID) : Client</text></g><!--class OrderService--><g id="elem_OrderService"><rect codeLine="29" fill="#F1F1F1" height="51.1453" id="OrderService" rx="1.5" ry="1.5" style="stroke:#181818;stroke-width:0.3;" width="447.6" x="482.4" y="209.4"/><ellipse cx="678.45" cy="219" fill="#ADD1B2" rx="6.6" ry="6.6" style="stroke:#181818;stroke-width:0.6;"/><path d="M680.1094,216.525 Q680.2031,216.3937 680.3156,216.3281 Q680.4281,216.2625 680.5594,216.2625 Q680.7844,216.2625 680.925,216.4219 Q681.0656,216.5719 681.0656,216.9375 L681.0656,217.8094 Q681.0656,218.175 680.925,218.3344 Q680.7844,218.4938 680.5594,218.4938 Q680.3531,218.4938 680.2312,218.3719 Q680.1094,218.2594 680.0437,217.95 Q680.0156,217.7344 679.9031,217.6219 Q679.7063,217.3969 679.3406,217.2656 Q678.975,217.1344 678.6,217.1344 Q678.1406,217.1344 677.7563,217.3312 Q677.3813,217.5281 677.0813,217.9781 Q676.7906,218.4281 676.7906,219.0469 L676.7906,219.7031 Q676.7906,220.4438 677.325,220.9406 Q677.8594,221.4281 678.8156,221.4281 Q679.3781,221.4281 679.7719,221.2781 Q680.0063,221.1844 680.2594,220.9219 Q680.4187,220.7625 680.5031,220.7156 Q680.5969,220.6688 680.7188,220.6688 Q680.9156,220.6688 681.0656,220.8281 Q681.225,220.9781 681.225,221.1844 Q681.225,221.3906 681.0188,221.6344 Q680.7188,221.9813 680.2406,222.1781 Q679.5938,222.45 678.8156,222.45 Q677.9063,222.45 677.1844,222.075 Q676.5938,221.775 676.1813,221.1375 Q675.7688,220.4906 675.7688,219.7219 L675.7688,219.0281 Q675.7688,218.2313 676.1344,217.5469 Q676.5094,216.8531 677.1656,216.4875 Q677.8219,216.1125 678.5625,216.1125 Q679.0031,216.1125 679.3875,216.2156 Q679.7813,216.3094 680.1094,216.525 Z " fill="#000000"/><text fill="#000000" font-family="sans-serif" font-size="8.4" lengthAdjust="spacing" textLength="50.4" x="690.75" y="222.4781">OrderService</text><line style="stroke:#181818;stroke-width:0.3;" x1="483" x2="929.4" y1="228.6" y2="228.6"/><line style="stroke:#181818;stroke-width:0.3;" x1="483" x2="929.4" y1="233.4" y2="233.4"/><text fill="#000000" font-family="sans-serif" font-size="8.4" lengthAdjust="spacing" textLength="120" x="486" y="244.8645">+getOrderByID(orderID) : Order</text><text fill="#000000" font-family="sans-serif" font-size="8.4" lengthAdjust="spacing" textLength="440.4" x="486" y="256.0371">+updateOrder(order, deliveryStreet, deliveryZipCode, deliveryTown, deliveryCountry, orderDate, deliveryDate, price)</text></g><!--class Repositories--><g id="elem_Repositories"><rect codeLine="36" fill="#F1F1F1" height="84.6633" id="Repositories" rx="1.5" ry="1.5" style="stroke:#181818;stroke-width:0.3;" width="181.2" x="180.6" y="322.8"/><ellipse cx="244.95" cy="332.4" fill="#ADD1B2" rx="6.6" ry="6.6" style="stroke:#181818;stroke-width:0.6;"/><path d="M246.6094,329.925 Q246.7031,329.7938 246.8156,329.7281 Q246.9281,329.6625 247.0594,329.6625 Q247.2844,329.6625 247.425,329.8219 Q247.5656,329.9719 247.5656,330.3375 L247.5656,331.2094 Q247.5656,331.575 247.425,331.7344 Q247.2844,331.8938 247.0594,331.8938 Q246.8531,331.8938 246.7313,331.7719 Q246.6094,331.6594 246.5438,331.35 Q246.5156,331.1344 246.4031,331.0219 Q246.2062,330.7969 245.8406,330.6656 Q245.475,330.5344 245.1,330.5344 Q244.6406,330.5344 244.2563,330.7313 Q243.8813,330.9281 243.5812,331.3781 Q243.2906,331.8281 243.2906,332.4469 L243.2906,333.1031 Q243.2906,333.8438 243.825,334.3406 Q244.3594,334.8281 245.3156,334.8281 Q245.8781,334.8281 246.2719,334.6781 Q246.5063,334.5844 246.7594,334.3219 Q246.9188,334.1625 247.0031,334.1156 Q247.0969,334.0687 247.2188,334.0687 Q247.4156,334.0687 247.5656,334.2281 Q247.725,334.3781 247.725,334.5844 Q247.725,334.7906 247.5187,335.0344 Q247.2188,335.3812 246.7406,335.5781 Q246.0938,335.85 245.3156,335.85 Q244.4063,335.85 243.6844,335.475 Q243.0938,335.175 242.6812,334.5375 Q242.2687,333.8906 242.2687,333.1219 L242.2687,332.4281 Q242.2687,331.6312 242.6344,330.9469 Q243.0094,330.2531 243.6656,329.8875 Q244.3219,329.5125 245.0625,329.5125 Q245.5031,329.5125 245.8875,329.6156 Q246.2813,329.7094 246.6094,329.925 Z " fill="#000000"/><text fill="#000000" font-family="sans-serif" font-size="8.4" lengthAdjust="spacing" textLength="47.4" x="257.25" y="335.8781">Repositories</text><line style="stroke:#181818;stroke-width:0.3;" x1="181.2" x2="361.2" y1="342" y2="342"/><line style="stroke:#181818;stroke-width:0.3;" x1="181.2" x2="361.2" y1="346.8" y2="346.8"/><text fill="#000000" font-family="sans-serif" font-size="8.4" lengthAdjust="spacing" textLength="56.4" x="184.2" y="358.2645">-Repositories()</text><text fill="#000000" font-family="sans-serif" font-size="8.4" lengthAdjust="spacing" textLength="109.2" x="184.2" y="369.4371">+getInstance() : Repositories</text><text fill="#000000" font-family="sans-serif" font-size="8.4" lengthAdjust="spacing" textLength="154.8" x="184.2" y="380.6098">+getClientRepository() : ClientRepository</text><text fill="#000000" font-family="sans-serif" font-size="8.4" lengthAdjust="spacing" textLength="156" x="184.2" y="391.7824">+getOrderRepository() : OrderRepository</text><text fill="#000000" font-family="sans-serif" font-size="8.4" lengthAdjust="spacing" textLength="174" x="184.2" y="402.9551">+getAddressRepository() : AddressRepository</text></g><!--class ClientRepository--><g id="elem_ClientRepository"><rect codeLine="44" fill="#F1F1F1" height="51.1453" id="ClientRepository" rx="1.5" ry="1.5" style="stroke:#181818;stroke-width:0.3;" width="102.6" x="170.1" y="460.5"/><ellipse cx="188.55" cy="470.1" fill="#ADD1B2" rx="6.6" ry="6.6" style="stroke:#181818;stroke-width:0.6;"/><path d="M190.2094,467.625 Q190.3031,467.4938 190.4156,467.4281 Q190.5281,467.3625 190.6594,467.3625 Q190.8844,467.3625 191.025,467.5219 Q191.1656,467.6719 191.1656,468.0375 L191.1656,468.9094 Q191.1656,469.275 191.025,469.4344 Q190.8844,469.5938 190.6594,469.5938 Q190.4531,469.5938 190.3312,469.4719 Q190.2094,469.3594 190.1437,469.05 Q190.1156,468.8344 190.0031,468.7219 Q189.8063,468.4969 189.4406,468.3656 Q189.075,468.2344 188.7,468.2344 Q188.2406,468.2344 187.8563,468.4313 Q187.4813,468.6281 187.1813,469.0781 Q186.8906,469.5281 186.8906,470.1469 L186.8906,470.8031 Q186.8906,471.5438 187.425,472.0406 Q187.9594,472.5281 188.9156,472.5281 Q189.4781,472.5281 189.8719,472.3781 Q190.1063,472.2844 190.3594,472.0219 Q190.5187,471.8625 190.6031,471.8156 Q190.6969,471.7687 190.8188,471.7687 Q191.0156,471.7687 191.1656,471.9281 Q191.325,472.0781 191.325,472.2844 Q191.325,472.4906 191.1188,472.7344 Q190.8188,473.0812 190.3406,473.2781 Q189.6938,473.55 188.9156,473.55 Q188.0063,473.55 187.2844,473.175 Q186.6938,472.875 186.2813,472.2375 Q185.8688,471.5906 185.8688,470.8219 L185.8688,470.1281 Q185.8688,469.3312 186.2344,468.6469 Q186.6094,467.9531 187.2656,467.5875 Q187.9219,467.2125 188.6625,467.2125 Q189.1031,467.2125 189.4875,467.3156 Q189.8813,467.4094 190.2094,467.625 Z " fill="#000000"/><text fill="#000000" font-family="sans-serif" font-size="8.4" lengthAdjust="spacing" textLength="62.4" x="199.05" y="473.5781">ClientRepository</text><line style="stroke:#181818;stroke-width:0.3;" x1="170.7" x2="272.1" y1="479.7" y2="479.7"/><line style="stroke:#181818;stroke-width:0.3;" x1="170.7" x2="272.1" y1="484.5" y2="484.5"/><text fill="#000000" font-family="sans-serif" font-size="8.4" lengthAdjust="spacing" textLength="83.4" x="173.7" y="495.9645">+getAll() : List&lt;Client&gt;</text><text fill="#000000" font-family="sans-serif" font-size="8.4" lengthAdjust="spacing" textLength="95.4" x="173.7" y="507.1371">+getById(clientID) : Client</text></g><!--class OrderRepository--><g id="elem_OrderRepository"><rect codeLine="49" fill="#F1F1F1" height="51.1453" id="OrderRepository" rx="1.5" ry="1.5" style="stroke:#181818;stroke-width:0.3;" width="105" x="653.7" y="460.5"/><ellipse cx="672.96" cy="470.1" fill="#ADD1B2" rx="6.6" ry="6.6" style="stroke:#181818;stroke-width:0.6;"/><path d="M674.6194,467.625 Q674.7131,467.4938 674.8256,467.4281 Q674.9381,467.3625 675.0694,467.3625 Q675.2944,467.3625 675.435,467.5219 Q675.5756,467.6719 675.5756,468.0375 L675.5756,468.9094 Q675.5756,469.275 675.435,469.4344 Q675.2944,469.5938 675.0694,469.5938 Q674.8631,469.5938 674.7412,469.4719 Q674.6194,469.3594 674.5537,469.05 Q674.5256,468.8344 674.4131,468.7219 Q674.2163,468.4969 673.8506,468.3656 Q673.485,468.2344 673.11,468.2344 Q672.6506,468.2344 672.2662,468.4313 Q671.8912,468.6281 671.5913,469.0781 Q671.3006,469.5281 671.3006,470.1469 L671.3006,470.8031 Q671.3006,471.5438 671.835,472.0406 Q672.3694,472.5281 673.3256,472.5281 Q673.8881,472.5281 674.2819,472.3781 Q674.5162,472.2844 674.7694,472.0219 Q674.9287,471.8625 675.0131,471.8156 Q675.1069,471.7687 675.2287,471.7687 Q675.4256,471.7687 675.5756,471.9281 Q675.735,472.0781 675.735,472.2844 Q675.735,472.4906 675.5288,472.7344 Q675.2287,473.0812 674.7506,473.2781 Q674.1037,473.55 673.3256,473.55 Q672.4162,473.55 671.6944,473.175 Q671.1037,472.875 670.6913,472.2375 Q670.2788,471.5906 670.2788,470.8219 L670.2788,470.1281 Q670.2788,469.3312 670.6444,468.6469 Q671.0194,467.9531 671.6756,467.5875 Q672.3319,467.2125 673.0725,467.2125 Q673.5131,467.2125 673.8975,467.3156 Q674.2912,467.4094 674.6194,467.625 Z " fill="#000000"/><text fill="#000000" font-family="sans-serif" font-size="8.4" lengthAdjust="spacing" textLength="63" x="683.64" y="473.5781">OrderRepository</text><line style="stroke:#181818;stroke-width:0.3;" x1="654.3" x2="758.1" y1="479.7" y2="479.7"/><line style="stroke:#181818;stroke-width:0.3;" x1="654.3" x2="758.1" y1="484.5" y2="484.5"/><text fill="#000000" font-family="sans-serif" font-size="8.4" lengthAdjust="spacing" textLength="97.8" x="657.3" y="495.9645">+getByID(orderID) : Order</text><text fill="#000000" font-family="sans-serif" font-size="8.4" lengthAdjust="spacing" textLength="95.4" x="657.3" y="507.1371">+update(order) : boolean</text></g><!--class AddressRepository--><g id="elem_AddressRepository"><rect codeLine="54" fill="#F1F1F1" height="62.318" id="AddressRepository" rx="1.5" ry="1.5" style="stroke:#181818;stroke-width:0.3;" width="338.4" x="294" y="454.8"/><ellipse cx="424.65" cy="464.4" fill="#ADD1B2" rx="6.6" ry="6.6" style="stroke:#181818;stroke-width:0.6;"/><path d="M426.3094,461.925 Q426.4031,461.7938 426.5156,461.7281 Q426.6281,461.6625 426.7594,461.6625 Q426.9844,461.6625 427.125,461.8219 Q427.2656,461.9719 427.2656,462.3375 L427.2656,463.2094 Q427.2656,463.575 427.125,463.7344 Q426.9844,463.8937 426.7594,463.8937 Q426.5531,463.8937 426.4313,463.7719 Q426.3094,463.6594 426.2438,463.35 Q426.2156,463.1344 426.1031,463.0219 Q425.9063,462.7969 425.5406,462.6656 Q425.175,462.5344 424.8,462.5344 Q424.3406,462.5344 423.9563,462.7313 Q423.5813,462.9281 423.2813,463.3781 Q422.9906,463.8281 422.9906,464.4469 L422.9906,465.1031 Q422.9906,465.8438 423.525,466.3406 Q424.0594,466.8281 425.0156,466.8281 Q425.5781,466.8281 425.9719,466.6781 Q426.2063,466.5844 426.4594,466.3219 Q426.6188,466.1625 426.7031,466.1156 Q426.7969,466.0687 426.9188,466.0687 Q427.1156,466.0687 427.2656,466.2281 Q427.425,466.3781 427.425,466.5844 Q427.425,466.7906 427.2188,467.0344 Q426.9188,467.3812 426.4406,467.5781 Q425.7938,467.85 425.0156,467.85 Q424.1063,467.85 423.3844,467.475 Q422.7938,467.175 422.3812,466.5375 Q421.9688,465.8906 421.9688,465.1219 L421.9688,464.4281 Q421.9688,463.6312 422.3344,462.9469 Q422.7094,462.2531 423.3656,461.8875 Q424.0219,461.5125 424.7625,461.5125 Q425.2031,461.5125 425.5875,461.6156 Q425.9813,461.7094 426.3094,461.925 Z " fill="#000000"/><text fill="#000000" font-family="sans-serif" font-size="8.4" lengthAdjust="spacing" textLength="72" x="436.95" y="467.8781">AddressRepository</text><line style="stroke:#181818;stroke-width:0.3;" x1="294.6" x2="631.8" y1="474" y2="474"/><line style="stroke:#181818;stroke-width:0.3;" x1="294.6" x2="631.8" y1="478.8" y2="478.8"/><text fill="#000000" font-family="sans-serif" font-size="8.4" lengthAdjust="spacing" textLength="331.2" x="297.6" y="490.2645">+findAddress(deliveryStreet, deliveryZipCode, deliveryTown, deliveryCountry) : Address</text><text fill="#000000" font-family="sans-serif" font-size="8.4" lengthAdjust="spacing" textLength="93" x="297.6" y="501.4371">+getAddressCount() : int</text><text fill="#000000" font-family="sans-serif" font-size="8.4" lengthAdjust="spacing" textLength="97.2" x="297.6" y="512.6098">+save(address) : boolean</text></g><!--class Client--><g id="elem_Client"><rect codeLine="62" fill="#F1F1F1" height="140.5266" id="Client" rx="1.5" ry="1.5" style="stroke:#181818;stroke-width:0.3;" width="255" x="14.1" y="579.6"/><ellipse cx="128.25" cy="589.2" fill="#ADD1B2" rx="6.6" ry="6.6" style="stroke:#181818;stroke-width:0.6;"/><path d="M129.9094,586.725 Q130.0031,586.5938 130.1156,586.5281 Q130.2281,586.4625 130.3594,586.4625 Q130.5844,586.4625 130.725,586.6219 Q130.8656,586.7719 130.8656,587.1375 L130.8656,588.0094 Q130.8656,588.375 130.725,588.5344 Q130.5844,588.6938 130.3594,588.6938 Q130.1531,588.6938 130.0313,588.5719 Q129.9094,588.4594 129.8438,588.15 Q129.8156,587.9344 129.7031,587.8219 Q129.5063,587.5969 129.1406,587.4656 Q128.775,587.3344 128.4,587.3344 Q127.9406,587.3344 127.5562,587.5313 Q127.1812,587.7281 126.8813,588.1781 Q126.5906,588.6281 126.5906,589.2469 L126.5906,589.9031 Q126.5906,590.6438 127.125,591.1406 Q127.6594,591.6281 128.6156,591.6281 Q129.1781,591.6281 129.5719,591.4781 Q129.8063,591.3844 130.0594,591.1219 Q130.2188,590.9625 130.3031,590.9156 Q130.3969,590.8688 130.5187,590.8688 Q130.7156,590.8688 130.8656,591.0281 Q131.025,591.1781 131.025,591.3844 Q131.025,591.5906 130.8188,591.8344 Q130.5187,592.1813 130.0406,592.3781 Q129.3937,592.65 128.6156,592.65 Q127.7063,592.65 126.9844,592.275 Q126.3938,591.975 125.9812,591.3375 Q125.5688,590.6906 125.5688,589.9219 L125.5688,589.2281 Q125.5688,588.4313 125.9344,587.7469 Q126.3094,587.0531 126.9656,586.6875 Q127.6219,586.3125 128.3625,586.3125 Q128.8031,586.3125 129.1875,586.4156 Q129.5812,586.5094 129.9094,586.725 Z " fill="#000000"/><text fill="#000000" font-family="sans-serif" font-size="8.4" lengthAdjust="spacing" textLength="21.6" x="140.55" y="592.6781">Client</text><line style="stroke:#181818;stroke-width:0.3;" x1="14.7" x2="268.5" y1="598.8" y2="598.8"/><text fill="#000000" font-family="sans-serif" font-size="8.4" lengthAdjust="spacing" textLength="46.8" x="17.7" y="610.2645">-clientID : int</text><text fill="#000000" font-family="sans-serif" font-size="8.4" lengthAdjust="spacing" textLength="72" x="17.7" y="621.4371">-address : Address</text><text fill="#000000" font-family="sans-serif" font-size="8.4" lengthAdjust="spacing" textLength="53.4" x="17.7" y="632.6098">-name : String</text><text fill="#000000" font-family="sans-serif" font-size="8.4" lengthAdjust="spacing" textLength="50.4" x="17.7" y="643.7824">-vatin : String</text><text fill="#000000" font-family="sans-serif" font-size="8.4" lengthAdjust="spacing" textLength="72.6" x="17.7" y="654.9551">-phoneNumber : int</text><text fill="#000000" font-family="sans-serif" font-size="8.4" lengthAdjust="spacing" textLength="52.2" x="17.7" y="666.1277">-email : String</text><text fill="#000000" font-family="sans-serif" font-size="8.4" lengthAdjust="spacing" textLength="81.6" x="17.7" y="677.3004">-type : CompanyType</text><text fill="#000000" font-family="sans-serif" font-size="8.4" lengthAdjust="spacing" textLength="69.6" x="17.7" y="688.473">-state : EntityState</text><text fill="#000000" font-family="sans-serif" font-size="8.4" lengthAdjust="spacing" textLength="79.8" x="17.7" y="699.6457">-orders : List&lt;Order&gt;</text><line style="stroke:#181818;stroke-width:0.3;" x1="14.7" x2="268.5" y1="704.1539" y2="704.1539"/><text fill="#000000" font-family="sans-serif" font-size="8.4" lengthAdjust="spacing" textLength="247.8" x="17.7" y="715.6184">+Client(clientID, name, address, vatin, phoneNumber, email, type)</text></g><!--class Order--><g id="elem_Order"><rect codeLine="75" fill="#F1F1F1" height="118.1812" id="Order" rx="1.5" ry="1.5" style="stroke:#181818;stroke-width:0.3;" width="318" x="145.2" y="767.4"/><ellipse cx="290.55" cy="777" fill="#ADD1B2" rx="6.6" ry="6.6" style="stroke:#181818;stroke-width:0.6;"/><path d="M292.2094,774.525 Q292.3031,774.3938 292.4156,774.3281 Q292.5281,774.2625 292.6594,774.2625 Q292.8844,774.2625 293.025,774.4219 Q293.1656,774.5719 293.1656,774.9375 L293.1656,775.8094 Q293.1656,776.175 293.025,776.3344 Q292.8844,776.4938 292.6594,776.4938 Q292.4531,776.4938 292.3313,776.3719 Q292.2094,776.2594 292.1438,775.95 Q292.1156,775.7344 292.0031,775.6219 Q291.8063,775.3969 291.4406,775.2656 Q291.075,775.1344 290.7,775.1344 Q290.2406,775.1344 289.8563,775.3313 Q289.4813,775.5281 289.1813,775.9781 Q288.8906,776.4281 288.8906,777.0469 L288.8906,777.7031 Q288.8906,778.4438 289.425,778.9406 Q289.9594,779.4281 290.9156,779.4281 Q291.4781,779.4281 291.8719,779.2781 Q292.1063,779.1844 292.3594,778.9219 Q292.5188,778.7625 292.6031,778.7156 Q292.6969,778.6687 292.8187,778.6687 Q293.0156,778.6687 293.1656,778.8281 Q293.325,778.9781 293.325,779.1844 Q293.325,779.3906 293.1188,779.6344 Q292.8187,779.9812 292.3406,780.1781 Q291.6937,780.45 290.9156,780.45 Q290.0062,780.45 289.2844,780.075 Q288.6937,779.775 288.2813,779.1375 Q287.8688,778.4906 287.8688,777.7219 L287.8688,777.0281 Q287.8688,776.2312 288.2344,775.5469 Q288.6094,774.8531 289.2656,774.4875 Q289.9219,774.1125 290.6625,774.1125 Q291.1031,774.1125 291.4875,774.2156 Q291.8812,774.3094 292.2094,774.525 Z " fill="#000000"/><text fill="#000000" font-family="sans-serif" font-size="8.4" lengthAdjust="spacing" textLength="22.2" x="302.85" y="780.4781">Order</text><line style="stroke:#181818;stroke-width:0.3;" x1="145.8" x2="462.6" y1="786.6" y2="786.6"/><text fill="#000000" font-family="sans-serif" font-size="8.4" lengthAdjust="spacing" textLength="47.4" x="148.8" y="798.0645">-orderID : int</text><text fill="#000000" font-family="sans-serif" font-size="8.4" lengthAdjust="spacing" textLength="102" x="148.8" y="809.2371">-deliveryAddress : Address</text><text fill="#000000" font-family="sans-serif" font-size="8.4" lengthAdjust="spacing" textLength="66.6" x="148.8" y="820.4098">-orderDate : Date</text><text fill="#000000" font-family="sans-serif" font-size="8.4" lengthAdjust="spacing" textLength="75.6" x="148.8" y="831.5824">-deliveryDate : Date</text><text fill="#000000" font-family="sans-serif" font-size="8.4" lengthAdjust="spacing" textLength="54.6" x="148.8" y="842.7551">-price : double</text><text fill="#000000" font-family="sans-serif" font-size="8.4" lengthAdjust="spacing" textLength="79.2" x="148.8" y="853.9277">-state : ProcessState</text><text fill="#000000" font-family="sans-serif" font-size="8.4" lengthAdjust="spacing" textLength="157.2" x="148.8" y="865.1004">-productQuantity : Map&lt;Product, Integer&gt;</text><line style="stroke:#181818;stroke-width:0.3;" x1="145.8" x2="462.6" y1="869.6086" y2="869.6086"/><text fill="#000000" font-family="sans-serif" font-size="8.4" lengthAdjust="spacing" textLength="310.8" x="148.8" y="881.073">+Order(orderID, deliveryAddress, orderDate, deliveryDate, price, productQuantity)</text></g><!--class Address--><g id="elem_Address"><rect codeLine="86" fill="#F1F1F1" height="95.8359" id="Address" rx="1.5" ry="1.5" style="stroke:#181818;stroke-width:0.3;" width="172.8" x="290.4" y="601.8"/><ellipse cx="358.65" cy="611.4" fill="#ADD1B2" rx="6.6" ry="6.6" style="stroke:#181818;stroke-width:0.6;"/><path d="M360.3094,608.925 Q360.4031,608.7937 360.5156,608.7281 Q360.6281,608.6625 360.7594,608.6625 Q360.9844,608.6625 361.125,608.8219 Q361.2656,608.9719 361.2656,609.3375 L361.2656,610.2094 Q361.2656,610.575 361.125,610.7344 Q360.9844,610.8938 360.7594,610.8938 Q360.5531,610.8938 360.4313,610.7719 Q360.3094,610.6594 360.2438,610.35 Q360.2156,610.1344 360.1031,610.0219 Q359.9063,609.7969 359.5406,609.6656 Q359.175,609.5344 358.8,609.5344 Q358.3406,609.5344 357.9563,609.7312 Q357.5813,609.9281 357.2813,610.3781 Q356.9906,610.8281 356.9906,611.4469 L356.9906,612.1031 Q356.9906,612.8438 357.525,613.3406 Q358.0594,613.8281 359.0156,613.8281 Q359.5781,613.8281 359.9719,613.6781 Q360.2063,613.5844 360.4594,613.3219 Q360.6188,613.1625 360.7031,613.1156 Q360.7969,613.0688 360.9188,613.0688 Q361.1156,613.0688 361.2656,613.2281 Q361.425,613.3781 361.425,613.5844 Q361.425,613.7906 361.2188,614.0344 Q360.9188,614.3813 360.4406,614.5781 Q359.7938,614.85 359.0156,614.85 Q358.1063,614.85 357.3844,614.475 Q356.7938,614.175 356.3812,613.5375 Q355.9688,612.8906 355.9688,612.1219 L355.9688,611.4281 Q355.9688,610.6313 356.3344,609.9469 Q356.7094,609.2531 357.3656,608.8875 Q358.0219,608.5125 358.7625,608.5125 Q359.2031,608.5125 359.5875,608.6156 Q359.9813,608.7094 360.3094,608.925 Z " fill="#000000"/><text fill="#000000" font-family="sans-serif" font-size="8.4" lengthAdjust="spacing" textLength="31.2" x="370.95" y="614.8781">Address</text><line style="stroke:#181818;stroke-width:0.3;" x1="291" x2="462.6" y1="621" y2="621"/><text fill="#000000" font-family="sans-serif" font-size="8.4" lengthAdjust="spacing" textLength="25.8" x="294" y="632.4645">-id : int</text><text fill="#000000" font-family="sans-serif" font-size="8.4" lengthAdjust="spacing" textLength="54" x="294" y="643.6371">-street : String</text><text fill="#000000" font-family="sans-serif" font-size="8.4" lengthAdjust="spacing" textLength="63" x="294" y="654.8098">-zipCode : String</text><text fill="#000000" font-family="sans-serif" font-size="8.4" lengthAdjust="spacing" textLength="49.8" x="294" y="665.9824">-town : String</text><text fill="#000000" font-family="sans-serif" font-size="8.4" lengthAdjust="spacing" textLength="60.6" x="294" y="677.1551">-country : String</text><line style="stroke:#181818;stroke-width:0.3;" x1="291" x2="462.6" y1="681.6633" y2="681.6633"/><text fill="#000000" font-family="sans-serif" font-size="8.4" lengthAdjust="spacing" textLength="165.6" x="294" y="693.1277">+Address(id, street, zipCode, town, country)</text></g><!--class ClientException--><g id="elem_ClientException"><rect codeLine="98" fill="#F1F1F1" height="39.9727" id="ClientException" rx="1.5" ry="1.5" style="stroke:#181818;stroke-width:0.3;" width="168" x="838.8" y="345"/><ellipse cx="891.15" cy="354.6" fill="#ADD1B2" rx="6.6" ry="6.6" style="stroke:#181818;stroke-width:0.6;"/><path d="M892.8094,352.125 Q892.9031,351.9938 893.0156,351.9281 Q893.1281,351.8625 893.2594,351.8625 Q893.4844,351.8625 893.625,352.0219 Q893.7656,352.1719 893.7656,352.5375 L893.7656,353.4094 Q893.7656,353.775 893.625,353.9344 Q893.4844,354.0938 893.2594,354.0938 Q893.0531,354.0938 892.9313,353.9719 Q892.8094,353.8594 892.7438,353.55 Q892.7156,353.3344 892.6031,353.2219 Q892.4063,352.9969 892.0406,352.8656 Q891.675,352.7344 891.3,352.7344 Q890.8406,352.7344 890.4563,352.9313 Q890.0813,353.1281 889.7813,353.5781 Q889.4906,354.0281 889.4906,354.6469 L889.4906,355.3031 Q889.4906,356.0438 890.025,356.5406 Q890.5594,357.0281 891.5156,357.0281 Q892.0781,357.0281 892.4719,356.8781 Q892.7063,356.7844 892.9594,356.5219 Q893.1188,356.3625 893.2031,356.3156 Q893.2969,356.2688 893.4187,356.2688 Q893.6156,356.2688 893.7656,356.4281 Q893.925,356.5781 893.925,356.7844 Q893.925,356.9906 893.7188,357.2344 Q893.4187,357.5813 892.9406,357.7781 Q892.2937,358.05 891.5156,358.05 Q890.6062,358.05 889.8844,357.675 Q889.2937,357.375 888.8813,356.7375 Q888.4688,356.0906 888.4688,355.3219 L888.4688,354.6281 Q888.4688,353.8313 888.8344,353.1469 Q889.2094,352.4531 889.8656,352.0875 Q890.5219,351.7125 891.2625,351.7125 Q891.7031,351.7125 892.0875,351.8156 Q892.4812,351.9094 892.8094,352.125 Z " fill="#000000"/><text fill="#000000" font-family="sans-serif" font-size="8.4" lengthAdjust="spacing" textLength="58.2" x="903.45" y="358.0781">ClientException</text><line style="stroke:#181818;stroke-width:0.3;" x1="839.4" x2="1006.2" y1="364.2" y2="364.2"/><line style="stroke:#181818;stroke-width:0.3;" x1="839.4" x2="1006.2" y1="369" y2="369"/><text fill="#000000" font-family="sans-serif" font-size="8.4" lengthAdjust="spacing" textLength="160.8" x="842.4" y="380.4645">+clientNotFound(clientID) : ClientException</text></g><!--class OrderException--><g id="elem_OrderException"><rect codeLine="102" fill="#F1F1F1" height="62.318" id="OrderException" rx="1.5" ry="1.5" style="stroke:#181818;stroke-width:0.3;" width="169.8" x="1028.1" y="333.9"/><ellipse cx="1081.05" cy="343.5" fill="#ADD1B2" rx="6.6" ry="6.6" style="stroke:#181818;stroke-width:0.6;"/><path d="M1082.7094,341.025 Q1082.8031,340.8938 1082.9156,340.8281 Q1083.0281,340.7625 1083.1594,340.7625 Q1083.3844,340.7625 1083.525,340.9219 Q1083.6656,341.0719 1083.6656,341.4375 L1083.6656,342.3094 Q1083.6656,342.675 1083.525,342.8344 Q1083.3844,342.9938 1083.1594,342.9938 Q1082.9531,342.9938 1082.8313,342.8719 Q1082.7094,342.7594 1082.6438,342.45 Q1082.6156,342.2344 1082.5031,342.1219 Q1082.3062,341.8969 1081.9406,341.7656 Q1081.575,341.6344 1081.2,341.6344 Q1080.7406,341.6344 1080.3563,341.8313 Q1079.9813,342.0281 1079.6812,342.4781 Q1079.3906,342.9281 1079.3906,343.5469 L1079.3906,344.2031 Q1079.3906,344.9437 1079.925,345.4406 Q1080.4594,345.9281 1081.4156,345.9281 Q1081.9781,345.9281 1082.3719,345.7781 Q1082.6063,345.6844 1082.8594,345.4219 Q1083.0188,345.2625 1083.1031,345.2156 Q1083.1969,345.1688 1083.3188,345.1688 Q1083.5156,345.1688 1083.6656,345.3281 Q1083.825,345.4781 1083.825,345.6844 Q1083.825,345.8906 1083.6187,346.1344 Q1083.3188,346.4813 1082.8406,346.6781 Q1082.1938,346.95 1081.4156,346.95 Q1080.5063,346.95 1079.7844,346.575 Q1079.1938,346.275 1078.7813,345.6375 Q1078.3687,344.9906 1078.3687,344.2219 L1078.3687,343.5281 Q1078.3687,342.7313 1078.7344,342.0469 Q1079.1094,341.3531 1079.7656,340.9875 Q1080.4219,340.6125 1081.1625,340.6125 Q1081.6031,340.6125 1081.9875,340.7156 Q1082.3813,340.8094 1082.7094,341.025 Z " fill="#000000"/><text fill="#000000" font-family="sans-serif" font-size="8.4" lengthAdjust="spacing" textLength="58.8" x="1093.35" y="346.9781">OrderException</text><line style="stroke:#181818;stroke-width:0.3;" x1="1028.7" x2="1197.3" y1="353.1" y2="353.1"/><line style="stroke:#181818;stroke-width:0.3;" x1="1028.7" x2="1197.3" y1="357.9" y2="357.9"/><text fill="#000000" font-family="sans-serif" font-size="8.4" lengthAdjust="spacing" textLength="162.6" x="1031.7" y="369.3645">+orderNotFound(orderID) : OrderException</text><text fill="#000000" font-family="sans-serif" font-size="8.4" lengthAdjust="spacing" textLength="149.4" x="1031.7" y="380.5371">+invalidDeliveryDate() : OrderException</text><text fill="#000000" font-family="sans-serif" font-size="8.4" lengthAdjust="spacing" textLength="132.6" x="1031.7" y="391.7098">+invalidZipCode() : OrderException</text></g><!--class RuntimeException--><g id="elem_RuntimeException"><rect codeLine="108" fill="#F1F1F1" height="28.8" id="RuntimeException" rx="1.5" ry="1.5" style="stroke:#181818;stroke-width:0.3;" width="87" x="974.1" y="471.6"/><ellipse cx="983.1" cy="481.2" fill="#ADD1B2" rx="6.6" ry="6.6" style="stroke:#181818;stroke-width:0.6;"/><path d="M984.7594,478.725 Q984.8531,478.5938 984.9656,478.5281 Q985.0781,478.4625 985.2094,478.4625 Q985.4344,478.4625 985.575,478.6219 Q985.7156,478.7719 985.7156,479.1375 L985.7156,480.0094 Q985.7156,480.375 985.575,480.5344 Q985.4344,480.6937 985.2094,480.6937 Q985.0031,480.6937 984.8812,480.5719 Q984.7594,480.4594 984.6937,480.15 Q984.6656,479.9344 984.5531,479.8219 Q984.3562,479.5969 983.9906,479.4656 Q983.625,479.3344 983.25,479.3344 Q982.7906,479.3344 982.4063,479.5313 Q982.0313,479.7281 981.7312,480.1781 Q981.4406,480.6281 981.4406,481.2469 L981.4406,481.9031 Q981.4406,482.6437 981.975,483.1406 Q982.5094,483.6281 983.4656,483.6281 Q984.0281,483.6281 984.4219,483.4781 Q984.6563,483.3844 984.9094,483.1219 Q985.0687,482.9625 985.1531,482.9156 Q985.2469,482.8688 985.3688,482.8688 Q985.5656,482.8688 985.7156,483.0281 Q985.875,483.1781 985.875,483.3844 Q985.875,483.5906 985.6687,483.8344 Q985.3688,484.1813 984.8906,484.3781 Q984.2438,484.65 983.4656,484.65 Q982.5563,484.65 981.8344,484.275 Q981.2438,483.975 980.8313,483.3375 Q980.4187,482.6906 980.4187,481.9219 L980.4187,481.2281 Q980.4187,480.4313 980.7844,479.7469 Q981.1594,479.0531 981.8156,478.6875 Q982.4719,478.3125 983.2125,478.3125 Q983.6531,478.3125 984.0375,478.4156 Q984.4313,478.5094 984.7594,478.725 Z " fill="#000000"/><text fill="#000000" font-family="sans-serif" font-size="8.4" lengthAdjust="spacing" textLength="67.8" x="991.5" y="484.6781">RuntimeException</text><line style="stroke:#181818;stroke-width:0.3;" x1="974.7" x2="1060.5" y1="490.8" y2="490.8"/><line style="stroke:#181818;stroke-width:0.3;" x1="974.7" x2="1060.5" y1="495.6" y2="495.6"/></g><!--class Validator--><g id="elem_Validator"><rect codeLine="112" fill="#F1F1F1" height="39.9727" id="Validator" rx="1.5" ry="1.5" style="stroke:#181818;stroke-width:0.3;" width="142.8" x="1231.8" y="345"/><ellipse cx="1283.85" cy="354.6" fill="#ADD1B2" rx="6.6" ry="6.6" style="stroke:#181818;stroke-width:0.6;"/><path d="M1285.5094,352.125 Q1285.6031,351.9938 1285.7156,351.9281 Q1285.8281,351.8625 1285.9594,351.8625 Q1286.1844,351.8625 1286.325,352.0219 Q1286.4656,352.1719 1286.4656,352.5375 L1286.4656,353.4094 Q1286.4656,353.775 1286.325,353.9344 Q1286.1844,354.0938 1285.9594,354.0938 Q1285.7531,354.0938 1285.6313,353.9719 Q1285.5094,353.8594 1285.4438,353.55 Q1285.4156,353.3344 1285.3031,353.2219 Q1285.1063,352.9969 1284.7406,352.8656 Q1284.375,352.7344 1284,352.7344 Q1283.5406,352.7344 1283.1563,352.9313 Q1282.7813,353.1281 1282.4813,353.5781 Q1282.1906,354.0281 1282.1906,354.6469 L1282.1906,355.3031 Q1282.1906,356.0438 1282.725,356.5406 Q1283.2594,357.0281 1284.2156,357.0281 Q1284.7781,357.0281 1285.1719,356.8781 Q1285.4063,356.7844 1285.6594,356.5219 Q1285.8188,356.3625 1285.9031,356.3156 Q1285.9969,356.2688 1286.1187,356.2688 Q1286.3156,356.2688 1286.4656,356.4281 Q1286.625,356.5781 1286.625,356.7844 Q1286.625,356.9906 1286.4188,357.2344 Q1286.1187,357.5813 1285.6406,357.7781 Q1284.9937,358.05 1284.2156,358.05 Q1283.3062,358.05 1282.5844,357.675 Q1281.9937,357.375 1281.5813,356.7375 Q1281.1688,356.0906 1281.1688,355.3219 L1281.1688,354.6281 Q1281.1688,353.8313 1281.5344,353.1469 Q1281.9094,352.4531 1282.5656,352.0875 Q1283.2219,351.7125 1283.9625,351.7125 Q1284.4031,351.7125 1284.7875,351.8156 Q1285.1812,351.9094 1285.5094,352.125 Z " fill="#000000"/><text fill="#000000" font-family="sans-serif" font-size="8.4" lengthAdjust="spacing" textLength="33.6" x="1296.15" y="358.0781">Validator</text><line style="stroke:#181818;stroke-width:0.3;" x1="1232.4" x2="1374" y1="364.2" y2="364.2"/><line style="stroke:#181818;stroke-width:0.3;" x1="1232.4" x2="1374" y1="369" y2="369"/><text fill="#000000" font-family="sans-serif" font-size="8.4" lengthAdjust="spacing" textLength="135.6" x="1235.4" y="380.4645">+isValidZipCode(zipCode) : boolean</text></g><!--link UpdateOrderUI to ClientController--><g id="link_UpdateOrderUI_ClientController"><path codeLine="117" d="M548.238,53.028 C511.326,64.326 460.8,79.8 460.8,79.8 C460.8,79.8 444.7209,91.2967 426.1509,104.5687 " fill="none" id="UpdateOrderUI-to-ClientController" style="stroke:#181818;stroke-width:0.6;stroke-dasharray:7.0,7.0;"/><polygon fill="#181818" points="423.222,106.662,429.0108,105.4747,425.6627,104.9176,426.2198,101.5695,423.222,106.662" style="stroke:#181818;stroke-width:0.6;"/></g><!--link UpdateOrderUI to OrderController--><g id="link_UpdateOrderUI_OrderController"><path codeLine="118" d="M605.244,55.314 C623.934,68.964 649.9471,87.9723 672.6391,104.5503 " fill="none" id="UpdateOrderUI-to-OrderController" style="stroke:#181818;stroke-width:0.6;stroke-dasharray:7.0,7.0;"/><polygon fill="#181818" points="675.546,106.674,672.6014,101.5506,673.1236,104.9043,669.7699,105.4264,675.546,106.674" style="stroke:#181818;stroke-width:0.6;"/></g><!--link ClientController to ClientService--><g id="link_ClientController_ClientService"><path codeLine="119" d="M390.87,157.968 C392.538,173.622 394.2921,190.1303 395.9601,205.7663 " fill="none" id="ClientController-to-ClientService" style="stroke:#181818;stroke-width:0.6;stroke-dasharray:7.0,7.0;"/><polygon fill="#181818" points="396.342,209.346,398.1557,203.7219,396.0238,206.3629,393.3827,204.231,396.342,209.346" style="stroke:#181818;stroke-width:0.6;"/></g><!--link OrderController to OrderService--><g id="link_OrderController_OrderService"><path codeLine="120" d="M708.912,157.968 C708.354,173.622 707.767,190.1122 707.215,205.7482 " fill="none" id="OrderController-to-OrderService" style="stroke:#181818;stroke-width:0.6;stroke-dasharray:7.0,7.0;"/><polygon fill="#181818" points="707.088,209.346,709.677,204.034,707.1938,206.3479,704.88,203.8647,707.088,209.346" style="stroke:#181818;stroke-width:0.6;"/></g><!--link ClientService to Repositories--><g id="link_ClientService_Repositories"><path codeLine="121" d="M369.39,260.514 C357.612,270.468 346.8,279.6 346.8,279.6 C346.8,279.6 329.8505,298.6378 310.7285,320.1058 " fill="none" id="ClientService-to-Repositories" style="stroke:#181818;stroke-width:0.6;stroke-dasharray:7.0,7.0;"/><polygon fill="#181818" points="308.334,322.794,313.7178,320.358,310.3294,320.5538,310.1335,317.1654,308.334,322.794" style="stroke:#181818;stroke-width:0.6;"/><text fill="#000000" font-family="sans-serif" font-size="7.8" lengthAdjust="spacing" textLength="40.2" x="347.4" y="288.617">repositories</text></g><!--link OrderService to Repositories--><g id="link_OrderService_Repositories"><path codeLine="122" d="M607.758,260.448 C568.392,270.426 532.2,279.6 532.2,279.6 C532.2,279.6 492,291 492,291 C492,291 425.4,295.8 425.4,295.8 C425.4,295.8 398.7783,307.6607 365.3043,322.5767 " fill="none" id="OrderService-to-Repositories" style="stroke:#181818;stroke-width:0.6;stroke-dasharray:7.0,7.0;"/><polygon fill="#181818" points="362.016,324.042,367.9253,324.0363,364.7563,322.8209,365.9716,319.6519,362.016,324.042" style="stroke:#181818;stroke-width:0.6;"/><text fill="#000000" font-family="sans-serif" font-size="7.8" lengthAdjust="spacing" textLength="40.2" x="532.8" y="288.617">repositories</text></g><!--link ClientService to ClientRepository--><g id="link_ClientService_ClientRepository"><path codeLine="123" d="M407.472,260.55 C413.082,277.116 419.4,295.8 419.4,295.8 C419.4,295.8 438,425.4 438,425.4 C438,425.4 438,436.8 438,436.8 C438,436.8 283.2,454.8 283.2,454.8 C283.2,454.8 281.8063,455.4887 275.0923,458.8127 " fill="none" id="ClientService-to-ClientRepository" style="stroke:#181818;stroke-width:0.6;stroke-dasharray:7.0,7.0;"/><polygon fill="#181818" points="271.866,460.41,277.7702,460.1649,274.5545,459.0789,275.6405,455.8633,271.866,460.41" style="stroke:#181818;stroke-width:0.6;"/><text fill="#000000" font-family="sans-serif" font-size="7.8" lengthAdjust="spacing" textLength="55.8" x="436.2" y="368.417">clientRepository</text></g><!--link OrderService to OrderRepository--><g id="link_OrderService_OrderRepository"><path codeLine="124" d="M706.2,260.604 C706.2,308.568 706.2,409.092 706.2,456.894 " fill="none" id="OrderService-to-OrderRepository" style="stroke:#181818;stroke-width:0.6;stroke-dasharray:7.0,7.0;"/><polygon fill="#181818" points="706.2,460.494,708.6,455.094,706.2,457.494,703.8,455.094,706.2,460.494" style="stroke:#181818;stroke-width:0.6;"/><text fill="#000000" font-family="sans-serif" font-size="7.8" lengthAdjust="spacing" textLength="54.6" x="706.8" y="368.417">orderRepository</text></g><!--link OrderService to AddressRepository--><g id="link_OrderService_AddressRepository"><path codeLine="125" d="M676.788,260.55 C657.336,277.116 635.4,295.8 635.4,295.8 C635.4,295.8 542.2163,398.399 493.4783,452.063 " fill="none" id="OrderService-to-AddressRepository" style="stroke:#181818;stroke-width:0.6;stroke-dasharray:7.0,7.0;"/><polygon fill="#181818" points="491.058,454.728,496.4651,452.3441,493.0749,452.5072,492.9119,449.117,491.058,454.728" style="stroke:#181818;stroke-width:0.6;"/><text fill="#000000" font-family="sans-serif" font-size="7.8" lengthAdjust="spacing" textLength="64.8" x="636" y="368.417">addressRepository</text></g><!--link ClientService to Client--><g id="link_ClientService_Client"><path codeLine="126" d="M336.894,248.694 C253.374,266.442 115.2,295.8 115.2,295.8 C115.2,295.8 76.2,425.4 76.2,425.4 C76.2,425.4 76.2,436.8 76.2,436.8 C76.2,436.8 99.9746,514.0114 119.0366,575.9194 " fill="none" id="ClientService-to-Client" style="stroke:#181818;stroke-width:0.6;stroke-dasharray:7.0,7.0;"/><polygon fill="#181818" points="120.096,579.36,120.8006,573.4928,119.2132,576.4928,116.2132,574.9054,120.096,579.36" style="stroke:#181818;stroke-width:0.6;"/><text fill="#000000" font-family="sans-serif" font-size="7.8" lengthAdjust="spacing" textLength="18.6" x="76.8" y="434.417">client</text></g><!--link OrderService to Order--><g id="link_OrderService_Order"><path codeLine="127" d="M732.12,260.55 C749.268,277.116 768.6,295.8 768.6,295.8 C768.6,295.8 801,364.5 801,364.5 C801,364.5 801,364.5 801,650.4 C801,650.4 681,720 681,720 C681,720 569.7517,751.2639 466.9177,780.1659 " fill="none" id="OrderService-to-Order" style="stroke:#181818;stroke-width:0.6;stroke-dasharray:7.0,7.0;"/><polygon fill="#181818" points="463.452,781.14,469.3,781.9894,466.3401,780.3283,468.0012,777.3684,463.452,781.14" style="stroke:#181818;stroke-width:0.6;"/><text fill="#000000" font-family="sans-serif" font-size="7.8" lengthAdjust="spacing" textLength="17.4" x="801.6" y="489.317">order</text></g><!--link OrderService to Address--><g id="link_OrderService_Address"><path codeLine="128" d="M583.818,260.418 C534.744,270.408 489.6,279.6 489.6,279.6 C489.6,279.6 463.2,291 463.2,291 C463.2,291 160.2,295.8 160.2,295.8 C160.2,295.8 131.4,425.4 131.4,425.4 C131.4,425.4 131.4,436.8 131.4,436.8 C131.4,436.8 160.2,531.6 160.2,531.6 C160.2,531.6 279.6,552.6 279.6,552.6 C279.6,552.6 301.9163,574.7825 326.4983,599.2085 " fill="none" id="OrderService-to-Address" style="stroke:#181818;stroke-width:0.6;stroke-dasharray:7.0,7.0;"/><polygon fill="#181818" points="329.052,601.746,326.9131,596.2373,326.9239,599.6314,323.5298,599.6422,329.052,601.746" style="stroke:#181818;stroke-width:0.6;"/><text fill="#000000" font-family="sans-serif" font-size="7.8" lengthAdjust="spacing" textLength="27.6" x="132" y="434.417">address</text></g><!--link Repositories to Repositories--><g id="link_Repositories_Repositories"><path codeLine="129" d="M361.842,354.06 C374.406,355.878 382.8,359.556 382.8,365.1 C382.8,370.644 377.9689,373.8065 365.4049,375.6245 " fill="none" id="Repositories-to-Repositories" style="stroke:#181818;stroke-width:0.6;"/><polygon fill="#181818" points="361.842,376.14,367.53,377.7419,364.8111,375.7104,366.8426,372.9914,361.842,376.14" style="stroke:#181818;stroke-width:0.6;"/><text fill="#000000" font-family="sans-serif" font-size="7.8" lengthAdjust="spacing" textLength="29.4" x="386.4" y="368.417">instance</text></g><!--link Repositories to ClientRepository--><g id="link_Repositories_ClientRepository"><path codeLine="130" d="M227.52,407.49 C217.038,417.522 208.8,425.4 208.8,425.4 C208.8,425.4 208.8,436.8 208.8,436.8 C208.8,436.8 210.9035,444.901 213.9755,456.763 " fill="none" id="Repositories-to-ClientRepository" style="stroke:#181818;stroke-width:0.6;"/><polygon fill="#181818" points="214.878,460.248,215.8475,454.4188,214.1259,457.3438,211.2008,455.6222,214.878,460.248" style="stroke:#181818;stroke-width:0.6;"/><text fill="#000000" font-family="sans-serif" font-size="7.8" lengthAdjust="spacing" textLength="55.8" x="209.4" y="434.417">clientRepository</text><text fill="#000000" font-family="sans-serif" font-size="7.8" lengthAdjust="spacing" textLength="4.2" x="218.5989" y="420.8101">1</text><text fill="#000000" font-family="sans-serif" font-size="7.8" lengthAdjust="spacing" textLength="4.2" x="209.3578" y="453.743">1</text></g><!--link Repositories to OrderRepository--><g id="link_Repositories_OrderRepository"><path codeLine="131" d="M362.016,390.258 C395.49,399.312 425.4,407.4 425.4,407.4 C425.4,407.4 643.2,454.8 643.2,454.8 C643.2,454.8 644.6715,455.5136 651.5175,458.8376 " fill="none" id="Repositories-to-OrderRepository" style="stroke:#181818;stroke-width:0.6;"/><polygon fill="#181818" points="654.756,460.41,650.9466,455.8924,652.0573,459.0997,648.8501,460.2104,654.756,460.41" style="stroke:#181818;stroke-width:0.6;"/><text fill="#000000" font-family="sans-serif" font-size="7.8" lengthAdjust="spacing" textLength="54.6" x="560.4" y="434.417">orderRepository</text><text fill="#000000" font-family="sans-serif" font-size="7.8" lengthAdjust="spacing" textLength="4.2" x="366.5166" y="389.4492">1</text><text fill="#000000" font-family="sans-serif" font-size="7.8" lengthAdjust="spacing" textLength="4.2" x="644.6996" y="455.2719">1</text></g><!--link Repositories to AddressRepository--><g id="link_Repositories_AddressRepository"><path codeLine="132" d="M282.126,407.472 C286.176,422.946 289.8,436.8 289.8,436.8 C289.8,436.8 315.7815,444.0847 350.4075,453.7867 " fill="none" id="Repositories-to-AddressRepository" style="stroke:#181818;stroke-width:0.6;"/><polygon fill="#181818" points="353.874,454.758,349.3218,450.9901,350.9853,453.9486,348.0267,455.6121,353.874,454.758" style="stroke:#181818;stroke-width:0.6;"/><text fill="#000000" font-family="sans-serif" font-size="7.8" lengthAdjust="spacing" textLength="64.8" x="290.4" y="434.417">addressRepository</text><text fill="#000000" font-family="sans-serif" font-size="7.8" lengthAdjust="spacing" textLength="4.2" x="278.8362" y="420.7903">1</text><text fill="#000000" font-family="sans-serif" font-size="7.8" lengthAdjust="spacing" textLength="4.2" x="334.7011" y="448.1088">1</text></g><!--link ClientRepository to Client--><g id="link_ClientRepository_Client"><path codeLine="133" d="M209.106,511.65 C200.19,529.824 189.2418,552.1161 177.3978,576.2541 " fill="none" id="ClientRepository-to-Client" style="stroke:#181818;stroke-width:0.6;"/><polygon fill="#181818" points="175.812,579.486,180.3453,575.6954,177.1335,576.7928,176.0361,573.5809,175.812,579.486" style="stroke:#181818;stroke-width:0.6;"/><text fill="#000000" font-family="sans-serif" font-size="7.8" lengthAdjust="spacing" textLength="36" x="196.2" y="545.417">categories</text><text fill="#000000" font-family="sans-serif" font-size="7.8" lengthAdjust="spacing" textLength="4.2" x="202.7019" y="524.7778">1</text><text fill="#000000" font-family="sans-serif" font-size="7.8" lengthAdjust="spacing" textLength="3" x="174.9076" y="572.8733">*</text></g><!--link OrderRepository to Order--><g id="link_OrderRepository_Order"><path codeLine="134" d="M681.348,511.578 C621.45,571.788 474,720 474,720 C474,720 440.3646,740.9789 401.0946,765.4709 " fill="none" id="OrderRepository-to-Order" style="stroke:#181818;stroke-width:0.6;"/><polygon fill="#181818" points="398.04,767.376,403.892,766.5548,400.5855,765.7884,401.3518,762.4819,398.04,767.376" style="stroke:#181818;stroke-width:0.6;"/><text fill="#000000" font-family="sans-serif" font-size="7.8" lengthAdjust="spacing" textLength="36" x="639.6" y="653.117">categories</text><text fill="#000000" font-family="sans-serif" font-size="7.8" lengthAdjust="spacing" textLength="4.2" x="672.8525" y="524.8866">1</text><text fill="#000000" font-family="sans-serif" font-size="7.8" lengthAdjust="spacing" textLength="3" x="402.1098" y="760.6832">*</text></g><!--link AddressRepository to Address--><g id="link_AddressRepository_Address"><path codeLine="135" d="M446.85,517.374 C434.202,541.176 418.1548,571.3687 403.7008,598.5787 " fill="none" id="AddressRepository-to-Address" style="stroke:#181818;stroke-width:0.6;"/><polygon fill="#181818" points="402.012,601.758,406.6648,598.115,403.4194,599.1086,402.4257,595.8632,402.012,601.758" style="stroke:#181818;stroke-width:0.6;"/><text fill="#000000" font-family="sans-serif" font-size="7.8" lengthAdjust="spacing" textLength="36" x="436.2" y="545.417">categories</text><text fill="#000000" font-family="sans-serif" font-size="7.8" lengthAdjust="spacing" textLength="4.2" x="440.4014" y="530.2519">1</text><text fill="#000000" font-family="sans-serif" font-size="7.8" lengthAdjust="spacing" textLength="3" x="401.1979" y="595.0916">*</text></g><!--link Client to Order--><g id="link_Client_Order"><path codeLine="136" d="M206.1,720.012 C220.638,735.708 233.4859,749.5727 247.5499,764.7587 " fill="none" id="Client-to-Order" style="stroke:#181818;stroke-width:0.6;"/><polygon fill="#181818" points="249.996,767.4,248.0876,761.8073,247.9576,765.1989,244.5659,765.0688,249.996,767.4" style="stroke:#181818;stroke-width:0.6;"/><text fill="#000000" font-family="sans-serif" font-size="7.8" lengthAdjust="spacing" textLength="12.6" x="233.4" y="747.017">has</text><text fill="#000000" font-family="sans-serif" font-size="7.8" lengthAdjust="spacing" textLength="4.2" x="205.8975" y="733.2552">1</text><text fill="#000000" font-family="sans-serif" font-size="7.8" lengthAdjust="spacing" textLength="3" x="242.7312" y="760.7091">*</text></g><!--link ClientService to ClientException--><g id="link_ClientService_ClientException"><path codeLine="137" d="M427.908,260.49 C444.948,275.22 463.2,291 463.2,291 C463.2,291 768.6,295.8 768.6,295.8 C768.6,295.8 830.1477,323.2186 875.7357,343.5346 " fill="none" id="ClientService-to-ClientException" style="stroke:#181818;stroke-width:0.6;stroke-dasharray:7.0,7.0;"/><polygon fill="#181818" points="879.024,345,875.0685,340.6097,876.2838,343.7788,873.1147,344.9941,879.024,345" style="stroke:#181818;stroke-width:0.6;"/><text fill="#000000" font-family="sans-serif" font-size="7.8" lengthAdjust="spacing" textLength="22.8" x="463.8" y="288.617">throws</text></g><!--link ClientException to RuntimeException--><g id="link_ClientException_RuntimeException"><path codeLine="138" d="M938.454,385.464 C957.702,409.77 983.1692,441.9233 999.9512,463.1153 " fill="none" id="ClientException-to-RuntimeException" style="stroke:#181818;stroke-width:0.6;"/><polygon fill="none" points="1006.656,471.582,1002.7734,460.8803,997.1289,465.3502,1006.656,471.582" style="stroke:#181818;stroke-width:0.6;"/></g><!--link OrderService to OrderException--><g id="link_OrderService_OrderException"><path codeLine="139" d="M834.882,260.418 C920.604,277.02 1017.6,295.8 1017.6,295.8 C1017.6,295.8 1042.0029,313.3699 1067.4009,331.6639 " fill="none" id="OrderService-to-OrderException" style="stroke:#181818;stroke-width:0.6;stroke-dasharray:7.0,7.0;"/><polygon fill="#181818" points="1070.322,333.768,1067.343,328.6645,1067.8877,332.0146,1064.5376,332.5593,1070.322,333.768" style="stroke:#181818;stroke-width:0.6;"/><text fill="#000000" font-family="sans-serif" font-size="7.8" lengthAdjust="spacing" textLength="22.8" x="991.2" y="288.617">throws</text></g><!--link OrderException to RuntimeException--><g id="link_OrderException_RuntimeException"><path codeLine="140" d="M1088.556,396.372 C1069.236,420.612 1049.9048,444.8735 1035.3428,463.1375 " fill="none" id="OrderException-to-RuntimeException" style="stroke:#181818;stroke-width:0.6;"/><polygon fill="none" points="1028.61,471.582,1038.1576,465.3818,1032.528,460.8933,1028.61,471.582" style="stroke:#181818;stroke-width:0.6;"/></g><!--link ClientService to Validator--><g id="link_ClientService_Validator"><path codeLine="141" d="M445.566,260.502 C460.002,268.254 472.2,274.8 472.2,274.8 C472.2,274.8 1019.4,279.6 1019.4,279.6 C1019.4,279.6 1207.8,295.8 1207.8,295.8 C1207.8,295.8 1244.9889,322.58 1273.1949,342.896 " fill="none" id="ClientService-to-Validator" style="stroke:#181818;stroke-width:0.6;stroke-dasharray:7.0,7.0;"/><polygon fill="#181818" points="1276.116,345,1273.137,339.8965,1273.6817,343.2466,1270.3316,343.7914,1276.116,345" style="stroke:#181818;stroke-width:0.6;"/><text fill="#000000" font-family="sans-serif" font-size="7.8" lengthAdjust="spacing" textLength="16.8" x="1147.2" y="288.617">uses</text></g><!--SRC=[pLR9Rjim4BtxAmYVv4OEsgiH14Zj533Gf6cSvD0RBJ4s4OeKHCgfqkRVIr6Kk2eBYWBrHTRCc-rnPaJ-W6a9ArY04cOFS8SseY48L2WJaEu8cl01mFSmPu-Oxi0z9DpM44oHQ4e4IaQQziNIPGHoVYP4XRUrGEkCqGr-Gk3ZPA83WkdjUWf-JO3yAJ2uBNCeqBSgHzNjMckU9y-MnP9HKJ52KELQBWb6L1YjLhQ_enqIPuHq29xCm09ynLoST89J1zV9FZVhFCdKt_MgnNTYdOuLLMKw6bHffQzLmjf_dIibDB3QLDoXKf0ZWW-eQZQYGaYOzn-uNB8S6S4DUwJcRSbgcKUJ0kLc9RqQNVTMLZX3RWukkHjK7IGangnMUHN-CqxZuVvFGYD4NgEISInOrRXS3dACk5NRt9OdCwVcDULo7ZEaEBPn4OvDsCGmR8GXbvw19tCdACyhnBbd4KZ3y_Ip22VpvVPvN-ECndbJstI0LhrbZ218moX1nNQSUqnp3KZ-hkiiScF7e52ADwofK00E3oY17IIimkxG2va2YGswtPOzwrwOkOuGIN5EOO6aN1OjFnT6V802quYyt3EABkjYAvUd5mGL49E8YVhSo2vWHGbfSoFVZ4wEYcYLvrHW8PcNRqQfpfRthQREt-gqhlgXqLBGLf82NMeAL0Lov4t2AL0ffg3DQ3RIZpQTkllyGlkJFnjdTTX0KhboYh8NKg1K-qbASrPlIOIcgufbCex7KrcnlCx4zneg5YNk0fOdLvqq1MigqCwXpbgsBN5UFQ_jp_RX19oD3frD9ivz7haQj4Z7F7KJ5-ibENeHSTRDOAWvweSRvodWUh2V-e4MQf2ryL25FNNdFpDK2ineRF86fRrHkdwyPEABT1lRWuFLI0D6lQeJ6PpwMz5rgGmmFK22yvLrVCaRy7hNZK6TRAybRRX01k5U-ug25IvhTsq4A5UmNHdcTtPWVJRHNUXUDe-FJuDBP0JYtVWcmRtJ-D5tc8b_IHpSz03tXjMgdNl2Gjx9hS- -Spzw3How3Zx72v3vzuGWXFzfNNGp_P99-9rSzClKCXlBRyXg99S-Wz6u9jh4uMS-3mZ3-eRb0gUVfWhSFj_2sQZnwzoDchw7GmiqkFWmjUYKZRopEcW4txDhmSCiR0F3jsMYeyOSx-5uLvfTjG1YNx777ceKy_dlqt1Ln9iauiwJnxs5wPbLim0rbmN-0G00]--></g></svg>