<?xml version="1.0" encoding="us-ascii" standalone="no"?><svg xmlns="http://www.w3.org/2000/svg" xmlns:xlink="http://www.w3.org/1999/xlink" contentStyleType="text/css" height="1405px" preserveAspectRatio="none" style="width:1621px;height:1405px;background:#FFFFFF;" version="1.1" viewBox="0 0 1621 1405" width="1621px" zoomAndPan="magnify"><defs/><g><!--cluster UI--><g id="cluster_UI"><rect fill="none" height="101" rx="2.5" ry="2.5" style="stroke:#000000;stroke-width:1.5;" width="166" x="852" y="7"/><text fill="#000000" font-family="sans-serif" font-size="14" font-weight="bold" lengthAdjust="spacing" textLength="14" x="928" y="24.1074">UI</text></g><!--cluster Controller--><g id="cluster_Controller"><rect fill="none" height="138" rx="2.5" ry="2.5" style="stroke:#000000;stroke-width:1.5;" width="690" x="590" y="141"/><text fill="#000000" font-family="sans-serif" font-size="14" font-weight="bold" lengthAdjust="spacing" textLength="71" x="899.5" y="158.1074">Controller</text></g><!--cluster Service--><g id="cluster_Service"><rect fill="none" height="138" rx="2.5" ry="2.5" style="stroke:#000000;stroke-width:1.5;" width="690" x="590" y="312"/><text fill="#000000" font-family="sans-serif" font-size="14" font-weight="bold" lengthAdjust="spacing" textLength="54" x="908" y="329.1074">Service</text></g><!--cluster Repository--><g id="cluster_Repository"><rect fill="none" height="358" rx="2.5" ry="2.5" style="stroke:#000000;stroke-width:1.5;" width="655" x="7" y="501"/><text fill="#000000" font-family="sans-serif" font-size="14" font-weight="bold" lengthAdjust="spacing" textLength="76" x="296.5" y="518.1074">Repository</text></g><!--cluster Model--><g id="cluster_Model"><rect fill="none" height="489" rx="2.5" ry="2.5" style="stroke:#000000;stroke-width:1.5;" width="479" x="612" y="910"/><text fill="#000000" font-family="sans-serif" font-size="14" font-weight="bold" lengthAdjust="spacing" textLength="44" x="829.5" y="927.1074">Model</text></g><!--cluster Exception--><g id="cluster_Exception"><rect fill="none" height="330" rx="2.5" ry="2.5" style="stroke:#000000;stroke-width:1.5;" width="334" x="768" y="501"/><text fill="#000000" font-family="sans-serif" font-size="14" font-weight="bold" lengthAdjust="spacing" textLength="70" x="900" y="518.1074">Exception</text></g><!--cluster Commom--><g id="cluster_Commom"><rect fill="none" height="157" rx="2.5" ry="2.5" style="stroke:#000000;stroke-width:1.5;" width="346" x="1269" y="510"/><text fill="#000000" font-family="sans-serif" font-size="14" font-weight="bold" lengthAdjust="spacing" textLength="64" x="1410" y="527.1074">Commom</text></g><!--class RegisterClientUI--><g id="elem_RegisterClientUI"><rect codeLine="7" fill="#F1F1F1" height="48" id="RegisterClientUI" rx="2.5" ry="2.5" style="stroke:#181818;stroke-width:0.5;" width="133" x="868.5" y="44"/><ellipse cx="883.5" cy="60" fill="#ADD1B2" rx="11" ry="11" style="stroke:#181818;stroke-width:1.0;"/><path d="M886.2656,55.875 Q886.4219,55.6563 886.6094,55.5469 Q886.7969,55.4375 887.0156,55.4375 Q887.3906,55.4375 887.625,55.7031 Q887.8594,55.9531 887.8594,56.5625 L887.8594,58.0156 Q887.8594,58.625 887.625,58.8906 Q887.3906,59.1563 887.0156,59.1563 Q886.6719,59.1563 886.4688,58.9531 Q886.2656,58.7656 886.1563,58.25 Q886.1094,57.8906 885.9219,57.7031 Q885.5938,57.3281 884.9844,57.1094 Q884.375,56.8906 883.75,56.8906 Q882.9844,56.8906 882.3438,57.2188 Q881.7188,57.5469 881.2188,58.2969 Q880.7344,59.0469 880.7344,60.0781 L880.7344,61.1719 Q880.7344,62.4063 881.625,63.2344 Q882.5156,64.0469 884.1094,64.0469 Q885.0469,64.0469 885.7031,63.7969 Q886.0938,63.6406 886.5156,63.2031 Q886.7813,62.9375 886.9219,62.8594 Q887.0781,62.7813 887.2813,62.7813 Q887.6094,62.7813 887.8594,63.0469 Q888.125,63.2969 888.125,63.6406 Q888.125,63.9844 887.7813,64.3906 Q887.2813,64.9688 886.4844,65.2969 Q885.4063,65.75 884.1094,65.75 Q882.5938,65.75 881.3906,65.125 Q880.4063,64.625 879.7188,63.5625 Q879.0313,62.4844 879.0313,61.2031 L879.0313,60.0469 Q879.0313,58.7188 879.6406,57.5781 Q880.2656,56.4219 881.3594,55.8125 Q882.4531,55.1875 883.6875,55.1875 Q884.4219,55.1875 885.0625,55.3594 Q885.7188,55.5156 886.2656,55.875 Z " fill="#000000"/><text fill="#000000" font-family="sans-serif" font-size="14" lengthAdjust="spacing" textLength="101" x="897.5" y="65.7969">RegisterClientUI</text><line style="stroke:#181818;stroke-width:0.5;" x1="869.5" x2="1000.5" y1="76" y2="76"/><line style="stroke:#181818;stroke-width:0.5;" x1="869.5" x2="1000.5" y1="84" y2="84"/></g><!--class ClientController--><g id="elem_ClientController"><rect codeLine="12" fill="#F1F1F1" height="85.2422" id="ClientController" rx="2.5" ry="2.5" style="stroke:#181818;stroke-width:0.5;" width="657" x="606.5" y="178"/><ellipse cx="881.75" cy="194" fill="#ADD1B2" rx="11" ry="11" style="stroke:#181818;stroke-width:1.0;"/><path d="M884.5156,189.875 Q884.6719,189.6563 884.8594,189.5469 Q885.0469,189.4375 885.2656,189.4375 Q885.6406,189.4375 885.875,189.7031 Q886.1094,189.9531 886.1094,190.5625 L886.1094,192.0156 Q886.1094,192.625 885.875,192.8906 Q885.6406,193.1563 885.2656,193.1563 Q884.9219,193.1563 884.7188,192.9531 Q884.5156,192.7656 884.4063,192.25 Q884.3594,191.8906 884.1719,191.7031 Q883.8438,191.3281 883.2344,191.1094 Q882.625,190.8906 882,190.8906 Q881.2344,190.8906 880.5938,191.2188 Q879.9688,191.5469 879.4688,192.2969 Q878.9844,193.0469 878.9844,194.0781 L878.9844,195.1719 Q878.9844,196.4063 879.875,197.2344 Q880.7656,198.0469 882.3594,198.0469 Q883.2969,198.0469 883.9531,197.7969 Q884.3438,197.6406 884.7656,197.2031 Q885.0313,196.9375 885.1719,196.8594 Q885.3281,196.7813 885.5313,196.7813 Q885.8594,196.7813 886.1094,197.0469 Q886.375,197.2969 886.375,197.6406 Q886.375,197.9844 886.0313,198.3906 Q885.5313,198.9688 884.7344,199.2969 Q883.6563,199.75 882.3594,199.75 Q880.8438,199.75 879.6406,199.125 Q878.6563,198.625 877.9688,197.5625 Q877.2813,196.4844 877.2813,195.2031 L877.2813,194.0469 Q877.2813,192.7188 877.8906,191.5781 Q878.5156,190.4219 879.6094,189.8125 Q880.7031,189.1875 881.9375,189.1875 Q882.6719,189.1875 883.3125,189.3594 Q883.9688,189.5156 884.5156,189.875 Z " fill="#000000"/><text fill="#000000" font-family="sans-serif" font-size="14" lengthAdjust="spacing" textLength="98" x="902.25" y="199.7969">ClientController</text><line style="stroke:#181818;stroke-width:0.5;" x1="607.5" x2="1262.5" y1="210" y2="210"/><line style="stroke:#181818;stroke-width:0.5;" x1="607.5" x2="1262.5" y1="218" y2="218"/><text fill="#000000" font-family="sans-serif" font-size="14" lengthAdjust="spacing" textLength="182" x="612.5" y="237.1074">+getAllClients() : List&lt;Client&gt;</text><text fill="#000000" font-family="sans-serif" font-size="14" lengthAdjust="spacing" textLength="645" x="612.5" y="255.7285">+registerClient(clientID, name, vatin, street, zipCode, town, country, phoneNumber, email, type) : Client</text></g><!--class ClientService--><g id="elem_ClientService"><rect codeLine="19" fill="#F1F1F1" height="85.2422" id="ClientService" rx="2.5" ry="2.5" style="stroke:#181818;stroke-width:0.5;" width="657" x="606.5" y="349"/><ellipse cx="889.25" cy="365" fill="#ADD1B2" rx="11" ry="11" style="stroke:#181818;stroke-width:1.0;"/><path d="M892.0156,360.875 Q892.1719,360.6563 892.3594,360.5469 Q892.5469,360.4375 892.7656,360.4375 Q893.1406,360.4375 893.375,360.7031 Q893.6094,360.9531 893.6094,361.5625 L893.6094,363.0156 Q893.6094,363.625 893.375,363.8906 Q893.1406,364.1563 892.7656,364.1563 Q892.4219,364.1563 892.2188,363.9531 Q892.0156,363.7656 891.9063,363.25 Q891.8594,362.8906 891.6719,362.7031 Q891.3438,362.3281 890.7344,362.1094 Q890.125,361.8906 889.5,361.8906 Q888.7344,361.8906 888.0938,362.2188 Q887.4688,362.5469 886.9688,363.2969 Q886.4844,364.0469 886.4844,365.0781 L886.4844,366.1719 Q886.4844,367.4063 887.375,368.2344 Q888.2656,369.0469 889.8594,369.0469 Q890.7969,369.0469 891.4531,368.7969 Q891.8438,368.6406 892.2656,368.2031 Q892.5313,367.9375 892.6719,367.8594 Q892.8281,367.7813 893.0313,367.7813 Q893.3594,367.7813 893.6094,368.0469 Q893.875,368.2969 893.875,368.6406 Q893.875,368.9844 893.5313,369.3906 Q893.0313,369.9688 892.2344,370.2969 Q891.1563,370.75 889.8594,370.75 Q888.3438,370.75 887.1406,370.125 Q886.1563,369.625 885.4688,368.5625 Q884.7813,367.4844 884.7813,366.2031 L884.7813,365.0469 Q884.7813,363.7188 885.3906,362.5781 Q886.0156,361.4219 887.1094,360.8125 Q888.2031,360.1875 889.4375,360.1875 Q890.1719,360.1875 890.8125,360.3594 Q891.4688,360.5156 892.0156,360.875 Z " fill="#000000"/><text fill="#000000" font-family="sans-serif" font-size="14" lengthAdjust="spacing" textLength="83" x="909.75" y="370.7969">ClientService</text><line style="stroke:#181818;stroke-width:0.5;" x1="607.5" x2="1262.5" y1="381" y2="381"/><line style="stroke:#181818;stroke-width:0.5;" x1="607.5" x2="1262.5" y1="389" y2="389"/><text fill="#000000" font-family="sans-serif" font-size="14" lengthAdjust="spacing" textLength="167" x="612.5" y="408.1074">+getClients() : List&lt;Client&gt;</text><text fill="#000000" font-family="sans-serif" font-size="14" lengthAdjust="spacing" textLength="645" x="612.5" y="426.7285">+registerClient(clientID, name, vatin, street, zipCode, town, country, phoneNumber, email, type) : Client</text></g><!--class Repositories--><g id="elem_Repositories"><rect codeLine="26" fill="#F1F1F1" height="122.4844" id="Repositories" rx="2.5" ry="2.5" style="stroke:#181818;stroke-width:0.5;" width="302" x="23" y="538"/><ellipse cx="130.25" cy="554" fill="#ADD1B2" rx="11" ry="11" style="stroke:#181818;stroke-width:1.0;"/><path d="M133.0156,549.875 Q133.1719,549.6563 133.3594,549.5469 Q133.5469,549.4375 133.7656,549.4375 Q134.1406,549.4375 134.375,549.7031 Q134.6094,549.9531 134.6094,550.5625 L134.6094,552.0156 Q134.6094,552.625 134.375,552.8906 Q134.1406,553.1563 133.7656,553.1563 Q133.4219,553.1563 133.2188,552.9531 Q133.0156,552.7656 132.9063,552.25 Q132.8594,551.8906 132.6719,551.7031 Q132.3438,551.3281 131.7344,551.1094 Q131.125,550.8906 130.5,550.8906 Q129.7344,550.8906 129.0938,551.2188 Q128.4688,551.5469 127.9688,552.2969 Q127.4844,553.0469 127.4844,554.0781 L127.4844,555.1719 Q127.4844,556.4063 128.375,557.2344 Q129.2656,558.0469 130.8594,558.0469 Q131.7969,558.0469 132.4531,557.7969 Q132.8438,557.6406 133.2656,557.2031 Q133.5313,556.9375 133.6719,556.8594 Q133.8281,556.7813 134.0313,556.7813 Q134.3594,556.7813 134.6094,557.0469 Q134.875,557.2969 134.875,557.6406 Q134.875,557.9844 134.5313,558.3906 Q134.0313,558.9688 133.2344,559.2969 Q132.1563,559.75 130.8594,559.75 Q129.3438,559.75 128.1406,559.125 Q127.1563,558.625 126.4688,557.5625 Q125.7813,556.4844 125.7813,555.2031 L125.7813,554.0469 Q125.7813,552.7188 126.3906,551.5781 Q127.0156,550.4219 128.1094,549.8125 Q129.2031,549.1875 130.4375,549.1875 Q131.1719,549.1875 131.8125,549.3594 Q132.4688,549.5156 133.0156,549.875 Z " fill="#000000"/><text fill="#000000" font-family="sans-serif" font-size="14" lengthAdjust="spacing" textLength="79" x="150.75" y="559.7969">Repositories</text><line style="stroke:#181818;stroke-width:0.5;" x1="24" x2="324" y1="570" y2="570"/><line style="stroke:#181818;stroke-width:0.5;" x1="24" x2="324" y1="578" y2="578"/><text fill="#000000" font-family="sans-serif" font-size="14" lengthAdjust="spacing" textLength="94" x="29" y="597.1074">-Repositories()</text><text fill="#000000" font-family="sans-serif" font-size="14" lengthAdjust="spacing" textLength="182" x="29" y="615.7285">+getInstance() : Repositories</text><text fill="#000000" font-family="sans-serif" font-size="14" lengthAdjust="spacing" textLength="258" x="29" y="634.3496">+getClientRepository() : ClientRepository</text><text fill="#000000" font-family="sans-serif" font-size="14" lengthAdjust="spacing" textLength="290" x="29" y="652.9707">+getAddressRepository() : AddressRepository</text></g><!--class ClientRepository--><g id="elem_ClientRepository"><rect codeLine="33" fill="#F1F1F1" height="103.8633" id="ClientRepository" rx="2.5" ry="2.5" style="stroke:#181818;stroke-width:0.5;" width="231" x="414.5" y="739"/><ellipse cx="473.75" cy="755" fill="#ADD1B2" rx="11" ry="11" style="stroke:#181818;stroke-width:1.0;"/><path d="M476.5156,750.875 Q476.6719,750.6563 476.8594,750.5469 Q477.0469,750.4375 477.2656,750.4375 Q477.6406,750.4375 477.875,750.7031 Q478.1094,750.9531 478.1094,751.5625 L478.1094,753.0156 Q478.1094,753.625 477.875,753.8906 Q477.6406,754.1563 477.2656,754.1563 Q476.9219,754.1563 476.7188,753.9531 Q476.5156,753.7656 476.4063,753.25 Q476.3594,752.8906 476.1719,752.7031 Q475.8438,752.3281 475.2344,752.1094 Q474.625,751.8906 474,751.8906 Q473.2344,751.8906 472.5938,752.2188 Q471.9688,752.5469 471.4688,753.2969 Q470.9844,754.0469 470.9844,755.0781 L470.9844,756.1719 Q470.9844,757.4063 471.875,758.2344 Q472.7656,759.0469 474.3594,759.0469 Q475.2969,759.0469 475.9531,758.7969 Q476.3438,758.6406 476.7656,758.2031 Q477.0313,757.9375 477.1719,757.8594 Q477.3281,757.7813 477.5313,757.7813 Q477.8594,757.7813 478.1094,758.0469 Q478.375,758.2969 478.375,758.6406 Q478.375,758.9844 478.0313,759.3906 Q477.5313,759.9688 476.7344,760.2969 Q475.6563,760.75 474.3594,760.75 Q472.8438,760.75 471.6406,760.125 Q470.6563,759.625 469.9688,758.5625 Q469.2813,757.4844 469.2813,756.2031 L469.2813,755.0469 Q469.2813,753.7188 469.8906,752.5781 Q470.5156,751.4219 471.6094,750.8125 Q472.7031,750.1875 473.9375,750.1875 Q474.6719,750.1875 475.3125,750.3594 Q475.9688,750.5156 476.5156,750.875 Z " fill="#000000"/><text fill="#000000" font-family="sans-serif" font-size="14" lengthAdjust="spacing" textLength="104" x="494.25" y="760.7969">ClientRepository</text><line style="stroke:#181818;stroke-width:0.5;" x1="415.5" x2="644.5" y1="771" y2="771"/><line style="stroke:#181818;stroke-width:0.5;" x1="415.5" x2="644.5" y1="779" y2="779"/><text fill="#000000" font-family="sans-serif" font-size="14" lengthAdjust="spacing" textLength="139" x="420.5" y="798.1074">+getAll() : List&lt;Client&gt;</text><text fill="#000000" font-family="sans-serif" font-size="14" lengthAdjust="spacing" textLength="219" x="420.5" y="816.7285">+getClientExists(clientID) : boolean</text><text fill="#000000" font-family="sans-serif" font-size="14" lengthAdjust="spacing" textLength="144" x="420.5" y="835.3496">+save(client) : boolean</text></g><!--class AddressRepository--><g id="elem_AddressRepository"><rect codeLine="39" fill="#F1F1F1" height="103.8633" id="AddressRepository" rx="2.5" ry="2.5" style="stroke:#181818;stroke-width:0.5;" width="356" x="23" y="739"/><ellipse cx="136.75" cy="755" fill="#ADD1B2" rx="11" ry="11" style="stroke:#181818;stroke-width:1.0;"/><path d="M139.5156,750.875 Q139.6719,750.6563 139.8594,750.5469 Q140.0469,750.4375 140.2656,750.4375 Q140.6406,750.4375 140.875,750.7031 Q141.1094,750.9531 141.1094,751.5625 L141.1094,753.0156 Q141.1094,753.625 140.875,753.8906 Q140.6406,754.1563 140.2656,754.1563 Q139.9219,754.1563 139.7188,753.9531 Q139.5156,753.7656 139.4063,753.25 Q139.3594,752.8906 139.1719,752.7031 Q138.8438,752.3281 138.2344,752.1094 Q137.625,751.8906 137,751.8906 Q136.2344,751.8906 135.5938,752.2188 Q134.9688,752.5469 134.4688,753.2969 Q133.9844,754.0469 133.9844,755.0781 L133.9844,756.1719 Q133.9844,757.4063 134.875,758.2344 Q135.7656,759.0469 137.3594,759.0469 Q138.2969,759.0469 138.9531,758.7969 Q139.3438,758.6406 139.7656,758.2031 Q140.0313,757.9375 140.1719,757.8594 Q140.3281,757.7813 140.5313,757.7813 Q140.8594,757.7813 141.1094,758.0469 Q141.375,758.2969 141.375,758.6406 Q141.375,758.9844 141.0313,759.3906 Q140.5313,759.9688 139.7344,760.2969 Q138.6563,760.75 137.3594,760.75 Q135.8438,760.75 134.6406,760.125 Q133.6563,759.625 132.9688,758.5625 Q132.2813,757.4844 132.2813,756.2031 L132.2813,755.0469 Q132.2813,753.7188 132.8906,752.5781 Q133.5156,751.4219 134.6094,750.8125 Q135.7031,750.1875 136.9375,750.1875 Q137.6719,750.1875 138.3125,750.3594 Q138.9688,750.5156 139.5156,750.875 Z " fill="#000000"/><text fill="#000000" font-family="sans-serif" font-size="14" lengthAdjust="spacing" textLength="120" x="157.25" y="760.7969">AddressRepository</text><line style="stroke:#181818;stroke-width:0.5;" x1="24" x2="378" y1="771" y2="771"/><line style="stroke:#181818;stroke-width:0.5;" x1="24" x2="378" y1="779" y2="779"/><text fill="#000000" font-family="sans-serif" font-size="14" lengthAdjust="spacing" textLength="344" x="29" y="798.1074">+findAddress(street, zipCode, town, country) : Address</text><text fill="#000000" font-family="sans-serif" font-size="14" lengthAdjust="spacing" textLength="155" x="29" y="816.7285">+getAddressCount() : int</text><text fill="#000000" font-family="sans-serif" font-size="14" lengthAdjust="spacing" textLength="162" x="29" y="835.3496">+save(address) : boolean</text></g><!--class Client--><g id="elem_Client"><rect codeLine="47" fill="#F1F1F1" height="196.9688" id="Client" rx="2.5" ry="2.5" style="stroke:#181818;stroke-width:0.5;" width="425" x="639.5" y="947"/><ellipse cx="829.75" cy="963" fill="#ADD1B2" rx="11" ry="11" style="stroke:#181818;stroke-width:1.0;"/><path d="M832.5156,958.875 Q832.6719,958.6563 832.8594,958.5469 Q833.0469,958.4375 833.2656,958.4375 Q833.6406,958.4375 833.875,958.7031 Q834.1094,958.9531 834.1094,959.5625 L834.1094,961.0156 Q834.1094,961.625 833.875,961.8906 Q833.6406,962.1563 833.2656,962.1563 Q832.9219,962.1563 832.7188,961.9531 Q832.5156,961.7656 832.4063,961.25 Q832.3594,960.8906 832.1719,960.7031 Q831.8438,960.3281 831.2344,960.1094 Q830.625,959.8906 830,959.8906 Q829.2344,959.8906 828.5938,960.2188 Q827.9688,960.5469 827.4688,961.2969 Q826.9844,962.0469 826.9844,963.0781 L826.9844,964.1719 Q826.9844,965.4063 827.875,966.2344 Q828.7656,967.0469 830.3594,967.0469 Q831.2969,967.0469 831.9531,966.7969 Q832.3438,966.6406 832.7656,966.2031 Q833.0313,965.9375 833.1719,965.8594 Q833.3281,965.7813 833.5313,965.7813 Q833.8594,965.7813 834.1094,966.0469 Q834.375,966.2969 834.375,966.6406 Q834.375,966.9844 834.0313,967.3906 Q833.5313,967.9688 832.7344,968.2969 Q831.6563,968.75 830.3594,968.75 Q828.8438,968.75 827.6406,968.125 Q826.6563,967.625 825.9688,966.5625 Q825.2813,965.4844 825.2813,964.2031 L825.2813,963.0469 Q825.2813,961.7188 825.8906,960.5781 Q826.5156,959.4219 827.6094,958.8125 Q828.7031,958.1875 829.9375,958.1875 Q830.6719,958.1875 831.3125,958.3594 Q831.9688,958.5156 832.5156,958.875 Z " fill="#000000"/><text fill="#000000" font-family="sans-serif" font-size="14" lengthAdjust="spacing" textLength="36" x="850.25" y="968.7969">Client</text><line style="stroke:#181818;stroke-width:0.5;" x1="640.5" x2="1063.5" y1="979" y2="979"/><text fill="#000000" font-family="sans-serif" font-size="14" lengthAdjust="spacing" textLength="78" x="645.5" y="998.1074">-clientID : int</text><text fill="#000000" font-family="sans-serif" font-size="14" lengthAdjust="spacing" textLength="120" x="645.5" y="1016.7285">-address : Address</text><text fill="#000000" font-family="sans-serif" font-size="14" lengthAdjust="spacing" textLength="89" x="645.5" y="1035.3496">-name : String</text><text fill="#000000" font-family="sans-serif" font-size="14" lengthAdjust="spacing" textLength="84" x="645.5" y="1053.9707">-vatin : String</text><text fill="#000000" font-family="sans-serif" font-size="14" lengthAdjust="spacing" textLength="121" x="645.5" y="1072.5918">-phoneNumber : int</text><text fill="#000000" font-family="sans-serif" font-size="14" lengthAdjust="spacing" textLength="87" x="645.5" y="1091.2129">-email : String</text><text fill="#000000" font-family="sans-serif" font-size="14" lengthAdjust="spacing" textLength="136" x="645.5" y="1109.834">-type : CompanyType</text><line style="stroke:#181818;stroke-width:0.5;" x1="640.5" x2="1063.5" y1="1117.3477" y2="1117.3477"/><text fill="#000000" font-family="sans-serif" font-size="14" lengthAdjust="spacing" textLength="413" x="645.5" y="1136.4551">+Client(clientID, name, address, vatin, phoneNumber, email, type)</text></g><!--class Address--><g id="elem_Address"><rect codeLine="58" fill="#F1F1F1" height="159.7266" id="Address" rx="2.5" ry="2.5" style="stroke:#181818;stroke-width:0.5;" width="288" x="628" y="1223"/><ellipse cx="741.75" cy="1239" fill="#ADD1B2" rx="11" ry="11" style="stroke:#181818;stroke-width:1.0;"/><path d="M744.5156,1234.875 Q744.6719,1234.6563 744.8594,1234.5469 Q745.0469,1234.4375 745.2656,1234.4375 Q745.6406,1234.4375 745.875,1234.7031 Q746.1094,1234.9531 746.1094,1235.5625 L746.1094,1237.0156 Q746.1094,1237.625 745.875,1237.8906 Q745.6406,1238.1563 745.2656,1238.1563 Q744.9219,1238.1563 744.7188,1237.9531 Q744.5156,1237.7656 744.4063,1237.25 Q744.3594,1236.8906 744.1719,1236.7031 Q743.8438,1236.3281 743.2344,1236.1094 Q742.625,1235.8906 742,1235.8906 Q741.2344,1235.8906 740.5938,1236.2188 Q739.9688,1236.5469 739.4688,1237.2969 Q738.9844,1238.0469 738.9844,1239.0781 L738.9844,1240.1719 Q738.9844,1241.4063 739.875,1242.2344 Q740.7656,1243.0469 742.3594,1243.0469 Q743.2969,1243.0469 743.9531,1242.7969 Q744.3438,1242.6406 744.7656,1242.2031 Q745.0313,1241.9375 745.1719,1241.8594 Q745.3281,1241.7813 745.5313,1241.7813 Q745.8594,1241.7813 746.1094,1242.0469 Q746.375,1242.2969 746.375,1242.6406 Q746.375,1242.9844 746.0313,1243.3906 Q745.5313,1243.9688 744.7344,1244.2969 Q743.6563,1244.75 742.3594,1244.75 Q740.8438,1244.75 739.6406,1244.125 Q738.6563,1243.625 737.9688,1242.5625 Q737.2813,1241.4844 737.2813,1240.2031 L737.2813,1239.0469 Q737.2813,1237.7188 737.8906,1236.5781 Q738.5156,1235.4219 739.6094,1234.8125 Q740.7031,1234.1875 741.9375,1234.1875 Q742.6719,1234.1875 743.3125,1234.3594 Q743.9688,1234.5156 744.5156,1234.875 Z " fill="#000000"/><text fill="#000000" font-family="sans-serif" font-size="14" lengthAdjust="spacing" textLength="52" x="762.25" y="1244.7969">Address</text><line style="stroke:#181818;stroke-width:0.5;" x1="629" x2="915" y1="1255" y2="1255"/><text fill="#000000" font-family="sans-serif" font-size="14" lengthAdjust="spacing" textLength="43" x="634" y="1274.1074">-id : int</text><text fill="#000000" font-family="sans-serif" font-size="14" lengthAdjust="spacing" textLength="90" x="634" y="1292.7285">-street : String</text><text fill="#000000" font-family="sans-serif" font-size="14" lengthAdjust="spacing" textLength="105" x="634" y="1311.3496">-zipCode : String</text><text fill="#000000" font-family="sans-serif" font-size="14" lengthAdjust="spacing" textLength="83" x="634" y="1329.9707">-town : String</text><text fill="#000000" font-family="sans-serif" font-size="14" lengthAdjust="spacing" textLength="101" x="634" y="1348.5918">-country : String</text><line style="stroke:#181818;stroke-width:0.5;" x1="629" x2="915" y1="1356.1055" y2="1356.1055"/><text fill="#000000" font-family="sans-serif" font-size="14" lengthAdjust="spacing" textLength="276" x="634" y="1375.2129">+Address(id, street, zipCode, town, country)</text></g><!--class CompanyType--><g id="elem_CompanyType"><rect codeLine="67" fill="#F1F1F1" height="85.2422" id="CompanyType" rx="2.5" ry="2.5" style="stroke:#181818;stroke-width:0.5;" width="124" x="951" y="1260.5"/><ellipse cx="966" cy="1276.5" fill="#EB937F" rx="11" ry="11" style="stroke:#181818;stroke-width:1.0;"/><path d="M964.8594,1277.2969 L964.8594,1279.7969 L969.1875,1279.7969 L969.1875,1278.875 Q969.1875,1278.2656 969.4219,1278 Q969.6719,1277.7344 970.0469,1277.7344 Q970.4219,1277.7344 970.6563,1278 Q970.8906,1278.2656 970.8906,1278.875 L970.8906,1281.5 L962.8906,1281.5 Q962.2656,1281.5 962,1281.2656 Q961.75,1281.0313 961.75,1280.6406 Q961.75,1280.2656 962.0156,1280.0313 Q962.2813,1279.7969 962.8906,1279.7969 L963.1563,1279.7969 L963.1563,1273.1406 L962.8906,1273.1406 Q962.2656,1273.1406 962,1272.9063 Q961.75,1272.6719 961.75,1272.2813 Q961.75,1271.9063 962,1271.6719 Q962.2656,1271.4375 962.8906,1271.4375 L970.5156,1271.4375 L970.5156,1274.0313 Q970.5156,1274.6406 970.2813,1274.9063 Q970.0625,1275.1563 969.6719,1275.1563 Q969.2969,1275.1563 969.0625,1274.9063 Q968.8281,1274.6406 968.8281,1274.0313 L968.8281,1273.1406 L964.8594,1273.1406 L964.8594,1275.5938 L966.3438,1275.5938 Q966.3438,1274.9375 966.4688,1274.75 Q966.7344,1274.3438 967.2031,1274.3438 Q967.5781,1274.3438 967.8125,1274.6094 Q968.0469,1274.8594 968.0469,1275.4688 L968.0469,1277.4375 Q968.0469,1277.9844 967.9219,1278.1719 Q967.6563,1278.5625 967.2031,1278.5625 Q966.7344,1278.5625 966.4688,1278.1563 Q966.3438,1277.9688 966.3438,1277.2969 L964.8594,1277.2969 Z " fill="#000000"/><text fill="#000000" font-family="sans-serif" font-size="14" lengthAdjust="spacing" textLength="92" x="980" y="1282.2969">CompanyType</text><line style="stroke:#181818;stroke-width:0.5;" x1="952" x2="1074" y1="1292.5" y2="1292.5"/><text fill="#000000" font-family="sans-serif" font-size="14" lengthAdjust="spacing" textLength="73" x="957" y="1311.6074">INDIVIDUAL</text><text fill="#000000" font-family="sans-serif" font-size="14" lengthAdjust="spacing" textLength="68" x="957" y="1330.2285">COMPANY</text><line style="stroke:#181818;stroke-width:0.5;" x1="952" x2="1074" y1="1337.7422" y2="1337.7422"/></g><!--class ClientException--><g id="elem_ClientException"><rect codeLine="74" fill="#F1F1F1" height="122.4844" id="ClientException" rx="2.5" ry="2.5" style="stroke:#181818;stroke-width:0.5;" width="302" x="784" y="538"/><ellipse cx="882.25" cy="554" fill="#ADD1B2" rx="11" ry="11" style="stroke:#181818;stroke-width:1.0;"/><path d="M885.0156,549.875 Q885.1719,549.6563 885.3594,549.5469 Q885.5469,549.4375 885.7656,549.4375 Q886.1406,549.4375 886.375,549.7031 Q886.6094,549.9531 886.6094,550.5625 L886.6094,552.0156 Q886.6094,552.625 886.375,552.8906 Q886.1406,553.1563 885.7656,553.1563 Q885.4219,553.1563 885.2188,552.9531 Q885.0156,552.7656 884.9063,552.25 Q884.8594,551.8906 884.6719,551.7031 Q884.3438,551.3281 883.7344,551.1094 Q883.125,550.8906 882.5,550.8906 Q881.7344,550.8906 881.0938,551.2188 Q880.4688,551.5469 879.9688,552.2969 Q879.4844,553.0469 879.4844,554.0781 L879.4844,555.1719 Q879.4844,556.4063 880.375,557.2344 Q881.2656,558.0469 882.8594,558.0469 Q883.7969,558.0469 884.4531,557.7969 Q884.8438,557.6406 885.2656,557.2031 Q885.5313,556.9375 885.6719,556.8594 Q885.8281,556.7813 886.0313,556.7813 Q886.3594,556.7813 886.6094,557.0469 Q886.875,557.2969 886.875,557.6406 Q886.875,557.9844 886.5313,558.3906 Q886.0313,558.9688 885.2344,559.2969 Q884.1563,559.75 882.8594,559.75 Q881.3438,559.75 880.1406,559.125 Q879.1563,558.625 878.4688,557.5625 Q877.7813,556.4844 877.7813,555.2031 L877.7813,554.0469 Q877.7813,552.7188 878.3906,551.5781 Q879.0156,550.4219 880.1094,549.8125 Q881.2031,549.1875 882.4375,549.1875 Q883.1719,549.1875 883.8125,549.3594 Q884.4688,549.5156 885.0156,549.875 Z " fill="#000000"/><text fill="#000000" font-family="sans-serif" font-size="14" lengthAdjust="spacing" textLength="97" x="902.75" y="559.7969">ClientException</text><line style="stroke:#181818;stroke-width:0.5;" x1="785" x2="1085" y1="570" y2="570"/><line style="stroke:#181818;stroke-width:0.5;" x1="785" x2="1085" y1="578" y2="578"/><text fill="#000000" font-family="sans-serif" font-size="14" lengthAdjust="spacing" textLength="290" x="790" y="597.1074">+clientAlreadyExists(clientID) : ClientException</text><text fill="#000000" font-family="sans-serif" font-size="14" lengthAdjust="spacing" textLength="257" x="790" y="615.7285">+invalidPhoneNumber() : ClientException</text><text fill="#000000" font-family="sans-serif" font-size="14" lengthAdjust="spacing" textLength="220" x="790" y="634.3496">+invalidZipCode() : ClientException</text><text fill="#000000" font-family="sans-serif" font-size="14" lengthAdjust="spacing" textLength="246" x="790" y="652.9707">+invalidEmailFormat() : ClientException</text></g><!--class RuntimeException--><g id="elem_RuntimeException"><rect codeLine="81" fill="#F1F1F1" height="48" id="RuntimeException" rx="2.5" ry="2.5" style="stroke:#181818;stroke-width:0.5;" width="145" x="862.5" y="767"/><ellipse cx="877.5" cy="783" fill="#ADD1B2" rx="11" ry="11" style="stroke:#181818;stroke-width:1.0;"/><path d="M880.2656,778.875 Q880.4219,778.6563 880.6094,778.5469 Q880.7969,778.4375 881.0156,778.4375 Q881.3906,778.4375 881.625,778.7031 Q881.8594,778.9531 881.8594,779.5625 L881.8594,781.0156 Q881.8594,781.625 881.625,781.8906 Q881.3906,782.1563 881.0156,782.1563 Q880.6719,782.1563 880.4688,781.9531 Q880.2656,781.7656 880.1563,781.25 Q880.1094,780.8906 879.9219,780.7031 Q879.5938,780.3281 878.9844,780.1094 Q878.375,779.8906 877.75,779.8906 Q876.9844,779.8906 876.3438,780.2188 Q875.7188,780.5469 875.2188,781.2969 Q874.7344,782.0469 874.7344,783.0781 L874.7344,784.1719 Q874.7344,785.4063 875.625,786.2344 Q876.5156,787.0469 878.1094,787.0469 Q879.0469,787.0469 879.7031,786.7969 Q880.0938,786.6406 880.5156,786.2031 Q880.7813,785.9375 880.9219,785.8594 Q881.0781,785.7813 881.2813,785.7813 Q881.6094,785.7813 881.8594,786.0469 Q882.125,786.2969 882.125,786.6406 Q882.125,786.9844 881.7813,787.3906 Q881.2813,787.9688 880.4844,788.2969 Q879.4063,788.75 878.1094,788.75 Q876.5938,788.75 875.3906,788.125 Q874.4063,787.625 873.7188,786.5625 Q873.0313,785.4844 873.0313,784.2031 L873.0313,783.0469 Q873.0313,781.7188 873.6406,780.5781 Q874.2656,779.4219 875.3594,778.8125 Q876.4531,778.1875 877.6875,778.1875 Q878.4219,778.1875 879.0625,778.3594 Q879.7188,778.5156 880.2656,778.875 Z " fill="#000000"/><text fill="#000000" font-family="sans-serif" font-size="14" lengthAdjust="spacing" textLength="113" x="891.5" y="788.7969">RuntimeException</text><line style="stroke:#181818;stroke-width:0.5;" x1="863.5" x2="1006.5" y1="799" y2="799"/><line style="stroke:#181818;stroke-width:0.5;" x1="863.5" x2="1006.5" y1="807" y2="807"/></g><!--class Validator--><g id="elem_Validator"><rect codeLine="85" fill="#F1F1F1" height="103.8633" id="Validator" rx="2.5" ry="2.5" style="stroke:#181818;stroke-width:0.5;" width="313" x="1285.5" y="547"/><ellipse cx="1409.75" cy="563" fill="#ADD1B2" rx="11" ry="11" style="stroke:#181818;stroke-width:1.0;"/><path d="M1412.5156,558.875 Q1412.6719,558.6563 1412.8594,558.5469 Q1413.0469,558.4375 1413.2656,558.4375 Q1413.6406,558.4375 1413.875,558.7031 Q1414.1094,558.9531 1414.1094,559.5625 L1414.1094,561.0156 Q1414.1094,561.625 1413.875,561.8906 Q1413.6406,562.1563 1413.2656,562.1563 Q1412.9219,562.1563 1412.7188,561.9531 Q1412.5156,561.7656 1412.4063,561.25 Q1412.3594,560.8906 1412.1719,560.7031 Q1411.8438,560.3281 1411.2344,560.1094 Q1410.625,559.8906 1410,559.8906 Q1409.2344,559.8906 1408.5938,560.2188 Q1407.9688,560.5469 1407.4688,561.2969 Q1406.9844,562.0469 1406.9844,563.0781 L1406.9844,564.1719 Q1406.9844,565.4063 1407.875,566.2344 Q1408.7656,567.0469 1410.3594,567.0469 Q1411.2969,567.0469 1411.9531,566.7969 Q1412.3438,566.6406 1412.7656,566.2031 Q1413.0313,565.9375 1413.1719,565.8594 Q1413.3281,565.7813 1413.5313,565.7813 Q1413.8594,565.7813 1414.1094,566.0469 Q1414.375,566.2969 1414.375,566.6406 Q1414.375,566.9844 1414.0313,567.3906 Q1413.5313,567.9688 1412.7344,568.2969 Q1411.6563,568.75 1410.3594,568.75 Q1408.8438,568.75 1407.6406,568.125 Q1406.6563,567.625 1405.9688,566.5625 Q1405.2813,565.4844 1405.2813,564.2031 L1405.2813,563.0469 Q1405.2813,561.7188 1405.8906,560.5781 Q1406.5156,559.4219 1407.6094,558.8125 Q1408.7031,558.1875 1409.9375,558.1875 Q1410.6719,558.1875 1411.3125,558.3594 Q1411.9688,558.5156 1412.5156,558.875 Z " fill="#000000"/><text fill="#000000" font-family="sans-serif" font-size="14" lengthAdjust="spacing" textLength="56" x="1430.25" y="568.7969">Validator</text><line style="stroke:#181818;stroke-width:0.5;" x1="1286.5" x2="1597.5" y1="579" y2="579"/><line style="stroke:#181818;stroke-width:0.5;" x1="1286.5" x2="1597.5" y1="587" y2="587"/><text fill="#000000" font-family="sans-serif" font-size="14" lengthAdjust="spacing" textLength="301" x="1291.5" y="606.1074">+isValidPhoneNumber(phoneNumber) : boolean</text><text fill="#000000" font-family="sans-serif" font-size="14" lengthAdjust="spacing" textLength="226" x="1291.5" y="624.7285">+isValidZipCode(zipCode) : boolean</text><text fill="#000000" font-family="sans-serif" font-size="14" lengthAdjust="spacing" textLength="189" x="1291.5" y="643.3496">+isValidEmail(email) : boolean</text></g><!--link RegisterClientUI to ClientController--><g id="link_RegisterClientUI_ClientController"><path codeLine="93" d="M935,92.19 C935,114.94 935,144.16 935,171.79 " fill="none" id="RegisterClientUI-to-ClientController" style="stroke:#181818;stroke-width:1.0;stroke-dasharray:7.0,7.0;"/><polygon fill="#181818" points="935,177.79,939,168.79,935,172.79,931,168.79,935,177.79" style="stroke:#181818;stroke-width:1.0;"/></g><!--link ClientController to ClientService--><g id="link_ClientController_ClientService"><path codeLine="94" d="M935,263.28 C935,289.37 935,316.85 935,342.91 " fill="none" id="ClientController-to-ClientService" style="stroke:#181818;stroke-width:1.0;stroke-dasharray:7.0,7.0;"/><polygon fill="#181818" points="935,348.91,939,339.91,935,343.91,931,339.91,935,348.91" style="stroke:#181818;stroke-width:1.0;"/></g><!--link ClientService to Repositories--><g id="link_ClientService_Repositories"><path codeLine="95" d="M620.85,434.03 C494.89,450.68 379,466 379,466 C379,466 326.4048,499.872 272.2448,534.742 " fill="none" id="ClientService-to-Repositories" style="stroke:#181818;stroke-width:1.0;stroke-dasharray:7.0,7.0;"/><polygon fill="#181818" points="267.2,537.99,276.9326,536.4812,271.404,535.2833,272.6019,529.7547,267.2,537.99" style="stroke:#181818;stroke-width:1.0;"/><text fill="#000000" font-family="sans-serif" font-size="13" lengthAdjust="spacing" textLength="67" x="380" y="481.0283">repositories</text></g><!--link ClientService to ClientRepository--><g id="link_ClientService_ClientRepository"><path codeLine="96" d="M826.54,434.1 C754.47,461.75 673,493 673,493 C673,493 592,675 592,675 C592,675 576.9564,702.8982 560.4064,733.6082 " fill="none" id="ClientService-to-ClientRepository" style="stroke:#181818;stroke-width:1.0;stroke-dasharray:7.0,7.0;"/><polygon fill="#181818" points="557.56,738.89,565.3509,732.8649,559.932,734.4885,558.3084,729.0696,557.56,738.89" style="stroke:#181818;stroke-width:1.0;"/><text fill="#000000" font-family="sans-serif" font-size="13" lengthAdjust="spacing" textLength="93" x="674" y="604.5283">clientRepository</text></g><!--link ClientService to AddressRepository--><g id="link_ClientService_AddressRepository"><path codeLine="97" d="M744.5,434.03 C617.59,461.7 474,493 474,493 C474,493 452,709 452,709 C452,709 415.0802,720.9178 364.9602,737.0878 " fill="none" id="ClientService-to-AddressRepository" style="stroke:#181818;stroke-width:1.0;stroke-dasharray:7.0,7.0;"/><polygon fill="#181818" points="359.25,738.93,369.0434,739.9734,364.0085,737.3948,366.5871,732.3598,359.25,738.93" style="stroke:#181818;stroke-width:1.0;"/><text fill="#000000" font-family="sans-serif" font-size="13" lengthAdjust="spacing" textLength="108" x="475" y="604.5283">addressRepository</text></g><!--link ClientService to Client--><g id="link_ClientService_Client"><path codeLine="98" d="M1004.37,434.25 C1050.26,461.86 1102,493 1102,493 C1102,493 1102,867 1102,867 C1102,867 1052.4227,902.2071 994.3227,943.4471 " fill="none" id="ClientService-to-Client" style="stroke:#181818;stroke-width:1.0;stroke-dasharray:7.0,7.0;"/><polygon fill="#181818" points="989.43,946.92,999.0844,944.9725,993.5073,944.0259,994.4538,938.4488,989.43,946.92" style="stroke:#181818;stroke-width:1.0;"/><text fill="#000000" font-family="sans-serif" font-size="13" lengthAdjust="spacing" textLength="31" x="1103" y="705.0283">client</text></g><!--link ClientService to Address--><g id="link_ClientService_Address"><path codeLine="99" d="M1027.45,434.19 C1064.24,450.78 1098,466 1098,466 C1098,466 1128,493 1128,493 C1128,493 1232,598 1232,598 C1232,598 1232,598 1232,1046.5 C1232,1046.5 1082,1144 1082,1144 C1082,1144 1002.4057,1184.5653 921.4557,1225.8253 " fill="none" id="ClientService-to-Address" style="stroke:#181818;stroke-width:1.0;stroke-dasharray:7.0,7.0;"/><polygon fill="#181818" points="916.11,1228.55,925.9449,1228.0268,920.5647,1226.2794,922.3121,1220.8992,916.11,1228.55" style="stroke:#181818;stroke-width:1.0;"/><text fill="#000000" font-family="sans-serif" font-size="13" lengthAdjust="spacing" textLength="46" x="1233" y="796.5283">address</text></g><!--link Repositories to Repositories--><g id="link_Repositories_Repositories"><path codeLine="100" d="M325.07,582.27 C346.01,585.02 360,590.6 360,599 C360,607.4 351.9589,612.1987 331.0189,614.9487 " fill="none" id="Repositories-to-Repositories" style="stroke:#181818;stroke-width:1.0;"/><polygon fill="#181818" points="325.07,615.73,334.5142,618.5241,330.0274,615.079,333.4725,610.5922,325.07,615.73" style="stroke:#181818;stroke-width:1.0;"/><text fill="#000000" font-family="sans-serif" font-size="13" lengthAdjust="spacing" textLength="49" x="366" y="604.5283">instance</text></g><!--link Repositories to ClientRepository--><g id="link_Repositories_ClientRepository"><path codeLine="101" d="M286.64,660.12 C334.1,685.45 383.477,711.7943 428.957,736.0743 " fill="none" id="Repositories-to-ClientRepository" style="stroke:#181818;stroke-width:1.0;"/><polygon fill="#181818" points="434.25,738.9,428.1944,731.1328,429.8392,736.5452,424.4268,738.1901,434.25,738.9" style="stroke:#181818;stroke-width:1.0;"/><text fill="#000000" font-family="sans-serif" font-size="13" lengthAdjust="spacing" textLength="93" x="374" y="705.0283">clientRepository</text><text fill="#000000" font-family="sans-serif" font-size="13" lengthAdjust="spacing" textLength="7" x="292.9414" y="682.6215">1</text><text fill="#000000" font-family="sans-serif" font-size="13" lengthAdjust="spacing" textLength="7" x="413.9133" y="727.8139">1</text></g><!--link Repositories to AddressRepository--><g id="link_Repositories_AddressRepository"><path codeLine="102" d="M181.18,660.24 C184.19,685.45 187,709 187,709 C187,709 188.3408,716.7172 191.1108,732.7872 " fill="none" id="Repositories-to-AddressRepository" style="stroke:#181818;stroke-width:1.0;"/><polygon fill="#181818" points="192.13,738.7,194.5431,729.1513,191.2807,733.7727,186.6593,730.5103,192.13,738.7" style="stroke:#181818;stroke-width:1.0;"/><text fill="#000000" font-family="sans-serif" font-size="13" lengthAdjust="spacing" textLength="108" x="188" y="705.0283">addressRepository</text><text fill="#000000" font-family="sans-serif" font-size="13" lengthAdjust="spacing" textLength="7" x="174.6055" y="682.3208">1</text><text fill="#000000" font-family="sans-serif" font-size="13" lengthAdjust="spacing" textLength="7" x="183.4678" y="727.5871">1</text></g><!--link ClientRepository to Client--><g id="link_ClientRepository_Client"><path codeLine="103" d="M595.16,843.1 C633.2,872.93 677.7383,907.8579 722.9383,943.2979 " fill="none" id="ClientRepository-to-Client" style="stroke:#181818;stroke-width:1.0;"/><polygon fill="#181818" points="727.66,947,723.0456,938.299,723.7253,943.9149,718.1094,944.5946,727.66,947" style="stroke:#181818;stroke-width:1.0;"/><text fill="#000000" font-family="sans-serif" font-size="13" lengthAdjust="spacing" textLength="60" x="653" y="890.0283">categories</text><text fill="#000000" font-family="sans-serif" font-size="13" lengthAdjust="spacing" textLength="7" x="596.0602" y="864.9201">1</text><text fill="#000000" font-family="sans-serif" font-size="13" lengthAdjust="spacing" textLength="5" x="712.9488" y="935.8485">*</text></g><!--link AddressRepository to Address--><g id="link_AddressRepository_Address"><path codeLine="104" d="M253.2,843.18 C352.77,940.81 560,1144 560,1144 C560,1144 607.9789,1179.7649 660.8789,1219.1849 " fill="none" id="AddressRepository-to-Address" style="stroke:#181818;stroke-width:1.0;"/><polygon fill="#181818" points="665.69,1222.77,660.8634,1214.1849,661.6807,1219.7824,656.0832,1220.5997,665.69,1222.77" style="stroke:#181818;stroke-width:1.0;"/><text fill="#000000" font-family="sans-serif" font-size="13" lengthAdjust="spacing" textLength="60" x="561" y="1051.0283">categories</text><text fill="#000000" font-family="sans-serif" font-size="13" lengthAdjust="spacing" textLength="7" x="252.4397" y="865.0103">1</text><text fill="#000000" font-family="sans-serif" font-size="13" lengthAdjust="spacing" textLength="5" x="650.6591" y="1211.6445">*</text></g><!--link Client to Address--><g id="link_Client_Address"><path codeLine="105" d="M821.41,1144.19 C813.3,1170.11 806.4225,1192.054 798.6525,1216.874 " fill="none" id="Client-to-Address" style="stroke:#181818;stroke-width:1.0;"/><polygon fill="#181818" points="796.86,1222.6,803.3661,1215.2061,798.3538,1217.8284,795.7315,1212.816,796.86,1222.6" style="stroke:#181818;stroke-width:1.0;"/><text fill="#000000" font-family="sans-serif" font-size="13" lengthAdjust="spacing" textLength="21" x="813" y="1189.0283">has</text><text fill="#000000" font-family="sans-serif" font-size="13" lengthAdjust="spacing" textLength="5" x="813.98" y="1166.1019">*</text><text fill="#000000" font-family="sans-serif" font-size="13" lengthAdjust="spacing" textLength="7" x="791.7624" y="1211.7358">1</text></g><!--link Client to CompanyType--><g id="link_Client_CompanyType"><path codeLine="106" d="M913.56,1144.19 C938.94,1184.48 963.801,1223.9239 983.621,1255.3739 " fill="none" id="Client-to-CompanyType" style="stroke:#181818;stroke-width:1.0;"/><polygon fill="#181818" points="986.82,1260.45,985.4056,1250.7032,984.1542,1256.2199,978.6375,1254.9685,986.82,1260.45" style="stroke:#181818;stroke-width:1.0;"/><text fill="#000000" font-family="sans-serif" font-size="13" lengthAdjust="spacing" textLength="21" x="943" y="1189.0283">has</text><text fill="#000000" font-family="sans-serif" font-size="13" lengthAdjust="spacing" textLength="5" x="912.8972" y="1166.1019">*</text><text fill="#000000" font-family="sans-serif" font-size="13" lengthAdjust="spacing" textLength="7" x="975.0898" y="1249.3461">1</text></g><!--link ClientService to ClientException--><g id="link_ClientService_ClientException"><path codeLine="107" d="M935,434.09 C935,463.88 935,498.45 935,531.78 " fill="none" id="ClientService-to-ClientException" style="stroke:#181818;stroke-width:1.0;stroke-dasharray:7.0,7.0;"/><polygon fill="#181818" points="935,537.78,939,528.78,935,532.78,931,528.78,935,537.78" style="stroke:#181818;stroke-width:1.0;"/><text fill="#000000" font-family="sans-serif" font-size="13" lengthAdjust="spacing" textLength="38" x="936" y="481.0283">throws</text></g><!--link ClientException to RuntimeException--><g id="link_ClientException_RuntimeException"><path codeLine="108" d="M935,660.12 C935,696.43 935,722.64 935,748.99 " fill="none" id="ClientException-to-RuntimeException" style="stroke:#181818;stroke-width:1.0;"/><polygon fill="none" points="935,766.99,941,748.99,929,748.99,935,766.99" style="stroke:#181818;stroke-width:1.0;"/></g><!--link ClientService to Validator--><g id="link_ClientService_Validator"><path codeLine="109" d="M1117.74,434.08 C1190.82,450.71 1258,466 1258,466 C1258,466 1314.2049,506.3223 1365.9849,543.4723 " fill="none" id="ClientService-to-Validator" style="stroke:#181818;stroke-width:1.0;stroke-dasharray:7.0,7.0;"/><polygon fill="#181818" points="1370.86,546.97,1365.8792,538.4735,1366.7974,544.0553,1361.2156,544.9736,1370.86,546.97" style="stroke:#181818;stroke-width:1.0;"/><text fill="#000000" font-family="sans-serif" font-size="13" lengthAdjust="spacing" textLength="28" x="1281" y="481.0283">uses</text></g><!--SRC=[pLRVJzim47xFNs7rAMmDsbwh2QagJ8e43D61jBsPv4Wj73kotKBO-D_d96vinsx7tjQNgdVV-UwxdvLFX3LOu1erk7Z25QnLIm49A1Hc5OL4ZW2vmIL_9gn2ZvXALqC90zKsW1fEs-w7eoiebdAfb20FMmLvmTcQl0Bwb2J68PhTvJFqAq7wquFHBLH4AX0hIe2fkzmetv8tnsZ5cHASKX2-yM1ajKRPVJvMe9QK3WYPdg05kjIElWo2CuiJNW1fqN_bvtF4S0rpjCEAi3cIIW2eENebpOgNMgxuinONVAjzjtFKR3Y3wstz06AEeCQ4QeZEKkTtU3b2QmrYHmg8SJAg2Q7_ciqjD5mInKKxhR2H4v0EdyoLfoSUpvn9tP45z4HTN2GRrcrgmxD2lo7AKe2K4vD0QiW5HR68iD6Er6GCzU95w-LObCxYWNCAc5cmn3imYAdUYoW8sWtfaR3I0DBZjNRunpArwb0zDM9gReF40oICqcsAA-sInXhSxOHzGYPkCkCX4cBMjREMh_MgOPKLz_qTaJiDFNNIjtV4fDznkfzutM3MVjU_BFy3qsNY7SViu1WTBAUR5L9EGnrA6OdLr3R6GXSx8ZRL3pKVzsr3oh-j2Oy5i6tjvieXab-Vv_Vv-TtoSXIjlbtTBAz_HFhbugM0HX7EOZqpAjrU7ugmf09msKOcR69g3GdROKhA6rkaz3tudqCoteMzw6h-bOiQguDuhmrkTMP93HRXNy6wvhMVcFlE3TRpxwQ4oFifCwSLesl7cEp9cOeVW_RSqhwheoiW2IxxwUbPSB6Ju8HRbBc1YNyHExrtKXRw3unp8K9qiBmNg9XUYT0gNB2B_O0VjJFhRU_ZyClslSJZasK1GMBkeG-SVPxruExxFHmF6lyBLGSqFl5Xvh362ggX4k6pheNDWcDYdkdqa-0qReEZ07VhkA2mA7P_B93Q2FwyXrf5blq-2wSmVD3EtG9jfOxy3m00]--></g></svg>