<?xml version="1.0" encoding="us-ascii" standalone="no"?><svg xmlns="http://www.w3.org/2000/svg" xmlns:xlink="http://www.w3.org/1999/xlink" contentStyleType="text/css" height="860px" preserveAspectRatio="none" style="width:1244px;height:860px;background:#FFFFFF;" version="1.1" viewBox="0 0 1244 860" width="1244px" zoomAndPan="magnify"><defs/><g><text fill="#000000" font-family="sans-serif" font-size="7" font-weight="bold" lengthAdjust="spacing" textLength="90" x="577.5" y="15.0537">Register Client Sequence</text><rect fill="#FFFFFF" height="743.1641" style="stroke:#181818;stroke-width:0.5;" width="5" x="22.25" y="66.6211"/><rect fill="#FFFFFF" height="193.9111" style="stroke:#181818;stroke-width:0.5;" width="5" x="294.75" y="78.2666"/><rect fill="#FFFFFF" height="15.6455" style="stroke:#181818;stroke-width:0.5;" width="5" x="294.75" y="287.8232"/><rect fill="#FFFFFF" height="490.6709" style="stroke:#181818;stroke-width:0.5;" width="5" x="294.75" y="319.1143"/><rect fill="#FFFFFF" height="140.8096" style="stroke:#181818;stroke-width:0.5;" width="5" x="589.75" y="115.7227"/><rect fill="#FFFFFF" height="122.6641" style="stroke:#181818;stroke-width:0.5;" width="5" x="589.75" y="334.7598"/><rect fill="#FFFFFF" height="109.5186" style="stroke:#181818;stroke-width:0.5;" width="5" x="884.75" y="131.3682"/><rect fill="#FFFFFF" height="91.373" style="stroke:#181818;stroke-width:0.5;" width="5" x="884.75" y="350.4053"/><rect fill="#FFFFFF" height="15.6455" style="stroke:#181818;stroke-width:0.5;" width="5" x="942.25" y="147.0137"/><rect fill="#FFFFFF" height="15.6455" style="stroke:#181818;stroke-width:0.5;" width="5" x="995.75" y="178.3047"/><rect fill="#FFFFFF" height="15.6455" style="stroke:#181818;stroke-width:0.5;" width="5" x="995.75" y="366.0508"/><rect fill="#FFFFFF" height="15.6455" style="stroke:#181818;stroke-width:0.5;" width="5" x="995.75" y="489.7148"/><rect fill="#FFFFFF" height="15.6455" style="stroke:#181818;stroke-width:0.5;" width="5" x="1054.75" y="209.5957"/><rect fill="#FFFFFF" height="76.7275" style="stroke:#181818;stroke-width:0.5;" width="5" x="1054.75" y="397.3418"/><rect fill="#FFFFFF" height="76.7275" style="stroke:#181818;stroke-width:0.5;" width="5" x="1054.75" y="679.1211"/><rect fill="#FFFFFF" height="45.4365" style="stroke:#181818;stroke-width:0.5;" width="5" x="1123.75" y="521.0059"/><rect fill="#FFFFFF" height="15.6455" style="stroke:#181818;stroke-width:0.5;" width="5" x="1123.75" y="613.209"/><rect fill="none" height="389.7979" style="stroke:#000000;stroke-width:0.75;" width="983" x="257.5" y="404.8418"/><rect fill="none" height="104.3486" style="stroke:#000000;stroke-width:0.75;" width="378.5" x="857" y="528.5059"/><rect fill="none" height="104.5186" style="stroke:#000000;stroke-width:0.75;" width="829.5" x="262.5" y="686.6211"/><line style="stroke:#181818;stroke-width:0.25;stroke-dasharray:5.0,5.0;" x1="24.5" x2="24.5" y1="61.6211" y2="818.7852"/><line style="stroke:#181818;stroke-width:0.25;stroke-dasharray:5.0,5.0;" x1="297" x2="297" y1="61.6211" y2="818.7852"/><line style="stroke:#181818;stroke-width:0.25;stroke-dasharray:5.0,5.0;" x1="592.25" x2="592.25" y1="98.1719" y2="818.7852"/><line style="stroke:#181818;stroke-width:0.25;stroke-dasharray:5.0,5.0;" x1="887" x2="887" y1="61.6211" y2="818.7852"/><line style="stroke:#181818;stroke-width:0.25;stroke-dasharray:5.0,5.0;" x1="944.5" x2="944.5" y1="61.6211" y2="818.7852"/><line style="stroke:#181818;stroke-width:0.25;stroke-dasharray:5.0,5.0;" x1="998" x2="998" y1="61.6211" y2="818.7852"/><line style="stroke:#181818;stroke-width:0.25;stroke-dasharray:5.0,5.0;" x1="1057" x2="1057" y1="61.6211" y2="818.7852"/><line style="stroke:#181818;stroke-width:0.25;stroke-dasharray:5.0,5.0;" x1="1126" x2="1126" y1="61.6211" y2="818.7852"/><line style="stroke:#181818;stroke-width:0.25;stroke-dasharray:5.0,5.0;" x1="1178" x2="1178" y1="656.915" y2="818.7852"/><line style="stroke:#181818;stroke-width:0.25;stroke-dasharray:5.0,5.0;" x1="1213" x2="1213" y1="591.0029" y2="818.7852"/><text fill="#000000" font-family="sans-serif" font-size="7" lengthAdjust="spacing" textLength="41.5" x="2.5" y="59.8643">Administrator</text><ellipse cx="24.75" cy="26.5605" fill="#E3E3E3" rx="4" ry="4" style="stroke:#181818;stroke-width:0.25;"/><path d="M24.75,30.5605 L24.75,44.0605 M18.25,34.5605 L31.25,34.5605 M24.75,44.0605 L18.25,51.5605 M24.75,44.0605 L31.25,51.5605 " fill="none" style="stroke:#181818;stroke-width:0.25;"/><text fill="#000000" font-family="sans-serif" font-size="7" lengthAdjust="spacing" textLength="41.5" x="2.5" y="825.8389">Administrator</text><ellipse cx="24.75" cy="831.8457" fill="#E3E3E3" rx="4" ry="4" style="stroke:#181818;stroke-width:0.25;"/><path d="M24.75,835.8457 L24.75,849.3457 M18.25,839.8457 L31.25,839.8457 M24.75,849.3457 L18.25,856.8457 M24.75,849.3457 L31.25,856.8457 " fill="none" style="stroke:#181818;stroke-width:0.25;"/><rect fill="#E3E3E3" height="16.3105" rx="1.25" ry="1.25" style="stroke:#181818;stroke-width:0.25;" width="59.5" x="267.5" y="44.8105"/><text fill="#000000" font-family="sans-serif" font-size="7" lengthAdjust="spacing" textLength="52.5" x="271" y="55.8643">:RegisterClientUI</text><rect fill="#E3E3E3" height="16.3105" rx="1.25" ry="1.25" style="stroke:#181818;stroke-width:0.25;" width="59.5" x="267.5" y="818.2852"/><text fill="#000000" font-family="sans-serif" font-size="7" lengthAdjust="spacing" textLength="52.5" x="271" y="829.3389">:RegisterClientUI</text><rect fill="#E3E3E3" height="16.3105" rx="1.25" ry="1.25" style="stroke:#181818;stroke-width:0.25;" width="58" x="563.25" y="818.2852"/><text fill="#000000" font-family="sans-serif" font-size="7" lengthAdjust="spacing" textLength="51" x="566.75" y="829.3389">:ClientController</text><rect fill="#E3E3E3" height="16.3105" rx="1.25" ry="1.25" style="stroke:#181818;stroke-width:0.25;" width="50.5" x="862" y="44.8105"/><text fill="#000000" font-family="sans-serif" font-size="7" lengthAdjust="spacing" textLength="43.5" x="865.5" y="55.8643">:ClientService</text><rect fill="#E3E3E3" height="16.3105" rx="1.25" ry="1.25" style="stroke:#181818;stroke-width:0.25;" width="50.5" x="862" y="818.2852"/><text fill="#000000" font-family="sans-serif" font-size="7" lengthAdjust="spacing" textLength="43.5" x="865.5" y="829.3389">:ClientService</text><rect fill="#E3E3E3" height="16.3105" rx="1.25" ry="1.25" style="stroke:#181818;stroke-width:0.25;" width="48.5" x="920.5" y="44.8105"/><text fill="#000000" font-family="sans-serif" font-size="7" lengthAdjust="spacing" textLength="41.5" x="924" y="55.8643">:Repositories</text><rect fill="#E3E3E3" height="16.3105" rx="1.25" ry="1.25" style="stroke:#181818;stroke-width:0.25;" width="48.5" x="920.5" y="818.2852"/><text fill="#000000" font-family="sans-serif" font-size="7" lengthAdjust="spacing" textLength="41.5" x="924" y="829.3389">:Repositories</text><rect fill="#E3E3E3" height="25.6211" rx="1.25" ry="1.25" style="stroke:#181818;stroke-width:0.25;" width="48.5" x="974" y="35.5"/><text fill="#000000" font-family="sans-serif" font-size="7" lengthAdjust="spacing" textLength="37" x="979.75" y="46.5537">repositories</text><text fill="#000000" font-family="sans-serif" font-size="7" lengthAdjust="spacing" textLength="41.5" x="977.5" y="55.8643">:Repositories</text><rect fill="#E3E3E3" height="25.6211" rx="1.25" ry="1.25" style="stroke:#181818;stroke-width:0.25;" width="48.5" x="974" y="818.2852"/><text fill="#000000" font-family="sans-serif" font-size="7" lengthAdjust="spacing" textLength="37" x="979.75" y="829.3389">repositories</text><text fill="#000000" font-family="sans-serif" font-size="7" lengthAdjust="spacing" textLength="41.5" x="977.5" y="838.6494">:Repositories</text><rect fill="#E3E3E3" height="25.6211" rx="1.25" ry="1.25" style="stroke:#181818;stroke-width:0.25;" width="59.5" x="1027.5" y="35.5"/><text fill="#000000" font-family="sans-serif" font-size="7" lengthAdjust="spacing" textLength="52.5" x="1031" y="46.5537">clientRepository:</text><text fill="#000000" font-family="sans-serif" font-size="7" lengthAdjust="spacing" textLength="52" x="1031.25" y="55.8643">ClientRepository</text><rect fill="#E3E3E3" height="25.6211" rx="1.25" ry="1.25" style="stroke:#181818;stroke-width:0.25;" width="59.5" x="1027.5" y="818.2852"/><text fill="#000000" font-family="sans-serif" font-size="7" lengthAdjust="spacing" textLength="52.5" x="1031" y="829.3389">clientRepository:</text><text fill="#000000" font-family="sans-serif" font-size="7" lengthAdjust="spacing" textLength="52" x="1031.25" y="838.6494">ClientRepository</text><rect fill="#E3E3E3" height="25.6211" rx="1.25" ry="1.25" style="stroke:#181818;stroke-width:0.25;" width="68.5" x="1092" y="35.5"/><text fill="#000000" font-family="sans-serif" font-size="7" lengthAdjust="spacing" textLength="61.5" x="1095.5" y="46.5537">addressRepository:</text><text fill="#000000" font-family="sans-serif" font-size="7" lengthAdjust="spacing" textLength="60" x="1096.25" y="55.8643">AddressRepository</text><rect fill="#E3E3E3" height="25.6211" rx="1.25" ry="1.25" style="stroke:#181818;stroke-width:0.25;" width="68.5" x="1092" y="818.2852"/><text fill="#000000" font-family="sans-serif" font-size="7" lengthAdjust="spacing" textLength="61.5" x="1095.5" y="829.3389">addressRepository:</text><text fill="#000000" font-family="sans-serif" font-size="7" lengthAdjust="spacing" textLength="60" x="1096.25" y="838.6494">AddressRepository</text><rect fill="#E3E3E3" height="25.6211" rx="1.25" ry="1.25" style="stroke:#181818;stroke-width:0.25;" width="25.5" x="1165.5" y="818.2852"/><text fill="#000000" font-family="sans-serif" font-size="7" lengthAdjust="spacing" textLength="18.5" x="1169" y="829.3389">client:</text><text fill="#000000" font-family="sans-serif" font-size="7" lengthAdjust="spacing" textLength="18" x="1169.25" y="838.6494">Client</text><rect fill="#E3E3E3" height="25.6211" rx="1.25" ry="1.25" style="stroke:#181818;stroke-width:0.25;" width="34.5" x="1196" y="818.2852"/><text fill="#000000" font-family="sans-serif" font-size="7" lengthAdjust="spacing" textLength="27.5" x="1199.5" y="829.3389">address:</text><text fill="#000000" font-family="sans-serif" font-size="7" lengthAdjust="spacing" textLength="26" x="1200.25" y="838.6494">Address</text><rect fill="#FFFFFF" height="743.1641" style="stroke:#181818;stroke-width:0.5;" width="5" x="22.25" y="66.6211"/><rect fill="#FFFFFF" height="193.9111" style="stroke:#181818;stroke-width:0.5;" width="5" x="294.75" y="78.2666"/><rect fill="#FFFFFF" height="15.6455" style="stroke:#181818;stroke-width:0.5;" width="5" x="294.75" y="287.8232"/><rect fill="#FFFFFF" height="490.6709" style="stroke:#181818;stroke-width:0.5;" width="5" x="294.75" y="319.1143"/><rect fill="#FFFFFF" height="140.8096" style="stroke:#181818;stroke-width:0.5;" width="5" x="589.75" y="115.7227"/><rect fill="#FFFFFF" height="122.6641" style="stroke:#181818;stroke-width:0.5;" width="5" x="589.75" y="334.7598"/><rect fill="#FFFFFF" height="109.5186" style="stroke:#181818;stroke-width:0.5;" width="5" x="884.75" y="131.3682"/><rect fill="#FFFFFF" height="91.373" style="stroke:#181818;stroke-width:0.5;" width="5" x="884.75" y="350.4053"/><rect fill="#FFFFFF" height="15.6455" style="stroke:#181818;stroke-width:0.5;" width="5" x="942.25" y="147.0137"/><rect fill="#FFFFFF" height="15.6455" style="stroke:#181818;stroke-width:0.5;" width="5" x="995.75" y="178.3047"/><rect fill="#FFFFFF" height="15.6455" style="stroke:#181818;stroke-width:0.5;" width="5" x="995.75" y="366.0508"/><rect fill="#FFFFFF" height="15.6455" style="stroke:#181818;stroke-width:0.5;" width="5" x="995.75" y="489.7148"/><rect fill="#FFFFFF" height="15.6455" style="stroke:#181818;stroke-width:0.5;" width="5" x="1054.75" y="209.5957"/><rect fill="#FFFFFF" height="76.7275" style="stroke:#181818;stroke-width:0.5;" width="5" x="1054.75" y="397.3418"/><rect fill="#FFFFFF" height="76.7275" style="stroke:#181818;stroke-width:0.5;" width="5" x="1054.75" y="679.1211"/><rect fill="#FFFFFF" height="45.4365" style="stroke:#181818;stroke-width:0.5;" width="5" x="1123.75" y="521.0059"/><rect fill="#FFFFFF" height="15.6455" style="stroke:#181818;stroke-width:0.5;" width="5" x="1123.75" y="613.209"/><polygon fill="#181818" points="288.75,76.2666,293.75,78.2666,288.75,80.2666,290.75,78.2666" style="stroke:#181818;stroke-width:0.5;"/><line style="stroke:#181818;stroke-width:0.5;" x1="27.25" x2="291.75" y1="78.2666" y2="78.2666"/><text fill="#000000" font-family="sans-serif" font-size="6.5" font-weight="bold" lengthAdjust="spacing" textLength="3.5" x="30.75" y="75.6353">1</text><text fill="#000000" font-family="sans-serif" font-size="6.5" lengthAdjust="spacing" textLength="81.5" x="36.25" y="75.6353">asks to register a new client</text><polygon fill="#181818" points="557.25,91.9121,562.25,93.9121,557.25,95.9121,559.25,93.9121" style="stroke:#181818;stroke-width:0.5;"/><line style="stroke:#181818;stroke-width:0.5;" x1="299.75" x2="560.25" y1="93.9121" y2="93.9121"/><text fill="#000000" font-family="sans-serif" font-size="6.5" font-weight="bold" lengthAdjust="spacing" textLength="3.5" x="303.25" y="91.2808">2</text><text fill="#000000" font-family="sans-serif" font-size="6.5" lengthAdjust="spacing" textLength="18" x="308.75" y="91.2808">create</text><rect fill="#E3E3E3" height="16.3105" rx="1.25" ry="1.25" style="stroke:#181818;stroke-width:0.25;" width="58" x="563.25" y="82.2666"/><text fill="#000000" font-family="sans-serif" font-size="7" lengthAdjust="spacing" textLength="51" x="566.75" y="93.3203">:ClientController</text><polygon fill="#181818" points="583.75,113.7227,588.75,115.7227,583.75,117.7227,585.75,115.7227" style="stroke:#181818;stroke-width:0.5;"/><line style="stroke:#181818;stroke-width:0.5;" x1="299.75" x2="586.75" y1="115.7227" y2="115.7227"/><text fill="#000000" font-family="sans-serif" font-size="6.5" font-weight="bold" lengthAdjust="spacing" textLength="3.5" x="303.25" y="113.0913">3</text><text fill="#000000" font-family="sans-serif" font-size="6.5" lengthAdjust="spacing" textLength="40.5" x="308.75" y="113.0913">getAllClients()</text><polygon fill="#181818" points="878.75,129.3682,883.75,131.3682,878.75,133.3682,880.75,131.3682" style="stroke:#181818;stroke-width:0.5;"/><line style="stroke:#181818;stroke-width:0.5;" x1="594.75" x2="881.75" y1="131.3682" y2="131.3682"/><text fill="#000000" font-family="sans-serif" font-size="6.5" font-weight="bold" lengthAdjust="spacing" textLength="3.5" x="598.25" y="128.7368">4</text><text fill="#000000" font-family="sans-serif" font-size="6.5" lengthAdjust="spacing" textLength="33" x="603.75" y="128.7368">getClients()</text><polygon fill="#181818" points="936.25,145.0137,941.25,147.0137,936.25,149.0137,938.25,147.0137" style="stroke:#181818;stroke-width:0.5;"/><line style="stroke:#181818;stroke-width:0.5;" x1="889.75" x2="939.25" y1="147.0137" y2="147.0137"/><text fill="#000000" font-family="sans-serif" font-size="6.5" font-weight="bold" lengthAdjust="spacing" textLength="3.5" x="893.25" y="144.3823">5</text><text fill="#000000" font-family="sans-serif" font-size="6.5" lengthAdjust="spacing" textLength="37.5" x="898.75" y="144.3823">getInstance()</text><polygon fill="#181818" points="895.25,160.6592,890.25,162.6592,895.25,164.6592,893.25,162.6592" style="stroke:#181818;stroke-width:0.5;"/><line style="stroke:#181818;stroke-width:0.5;stroke-dasharray:2.0,2.0;" x1="892.25" x2="944.25" y1="162.6592" y2="162.6592"/><text fill="#000000" font-family="sans-serif" font-size="6.5" font-weight="bold" lengthAdjust="spacing" textLength="3.5" x="898.25" y="160.0278">6</text><text fill="#000000" font-family="sans-serif" font-size="6.5" lengthAdjust="spacing" textLength="33.5" x="903.75" y="160.0278">repositories</text><polygon fill="#181818" points="989.75,176.3047,994.75,178.3047,989.75,180.3047,991.75,178.3047" style="stroke:#181818;stroke-width:0.5;"/><line style="stroke:#181818;stroke-width:0.5;" x1="889.75" x2="992.75" y1="178.3047" y2="178.3047"/><text fill="#000000" font-family="sans-serif" font-size="6.5" font-weight="bold" lengthAdjust="spacing" textLength="3.5" x="893.25" y="175.6733">7</text><text fill="#000000" font-family="sans-serif" font-size="6.5" lengthAdjust="spacing" textLength="60.5" x="898.75" y="175.6733">getClientRepository()</text><polygon fill="#181818" points="895.25,191.9502,890.25,193.9502,895.25,195.9502,893.25,193.9502" style="stroke:#181818;stroke-width:0.5;"/><line style="stroke:#181818;stroke-width:0.5;stroke-dasharray:2.0,2.0;" x1="892.25" x2="997.75" y1="193.9502" y2="193.9502"/><text fill="#000000" font-family="sans-serif" font-size="6.5" font-weight="bold" lengthAdjust="spacing" textLength="3.5" x="898.25" y="191.3188">8</text><text fill="#000000" font-family="sans-serif" font-size="6.5" lengthAdjust="spacing" textLength="46.5" x="903.75" y="191.3188">clientRepository</text><polygon fill="#181818" points="1048.75,207.5957,1053.75,209.5957,1048.75,211.5957,1050.75,209.5957" style="stroke:#181818;stroke-width:0.5;"/><line style="stroke:#181818;stroke-width:0.5;" x1="889.75" x2="1051.75" y1="209.5957" y2="209.5957"/><text fill="#000000" font-family="sans-serif" font-size="6.5" font-weight="bold" lengthAdjust="spacing" textLength="3.5" x="893.25" y="206.9644">9</text><text fill="#000000" font-family="sans-serif" font-size="6.5" lengthAdjust="spacing" textLength="20.5" x="898.75" y="206.9644">getAll()</text><polygon fill="#181818" points="895.25,223.2412,890.25,225.2412,895.25,227.2412,893.25,225.2412" style="stroke:#181818;stroke-width:0.5;"/><line style="stroke:#181818;stroke-width:0.5;stroke-dasharray:2.0,2.0;" x1="892.25" x2="1056.75" y1="225.2412" y2="225.2412"/><text fill="#000000" font-family="sans-serif" font-size="6.5" font-weight="bold" lengthAdjust="spacing" textLength="7" x="898.25" y="222.6099">10</text><text fill="#000000" font-family="sans-serif" font-size="6.5" lengthAdjust="spacing" textLength="19" x="907.25" y="222.6099">clients</text><polygon fill="#181818" points="600.25,238.8867,595.25,240.8867,600.25,242.8867,598.25,240.8867" style="stroke:#181818;stroke-width:0.5;"/><line style="stroke:#181818;stroke-width:0.5;stroke-dasharray:2.0,2.0;" x1="597.25" x2="886.75" y1="240.8867" y2="240.8867"/><text fill="#000000" font-family="sans-serif" font-size="6.5" font-weight="bold" lengthAdjust="spacing" textLength="7" x="603.25" y="238.2554">11</text><text fill="#000000" font-family="sans-serif" font-size="6.5" lengthAdjust="spacing" textLength="19" x="612.25" y="238.2554">clients</text><polygon fill="#181818" points="305.25,254.5322,300.25,256.5322,305.25,258.5322,303.25,256.5322" style="stroke:#181818;stroke-width:0.5;"/><line style="stroke:#181818;stroke-width:0.5;stroke-dasharray:2.0,2.0;" x1="302.25" x2="591.75" y1="256.5322" y2="256.5322"/><text fill="#000000" font-family="sans-serif" font-size="6.5" font-weight="bold" lengthAdjust="spacing" textLength="7" x="308.25" y="253.9009">12</text><text fill="#000000" font-family="sans-serif" font-size="6.5" lengthAdjust="spacing" textLength="19" x="317.25" y="253.9009">clients</text><polygon fill="#181818" points="32.75,270.1777,27.75,272.1777,32.75,274.1777,30.75,272.1777" style="stroke:#181818;stroke-width:0.5;"/><line style="stroke:#181818;stroke-width:0.5;stroke-dasharray:2.0,2.0;" x1="29.75" x2="296.75" y1="272.1777" y2="272.1777"/><text fill="#000000" font-family="sans-serif" font-size="6.5" font-weight="bold" lengthAdjust="spacing" textLength="7" x="35.75" y="269.5464">13</text><text fill="#000000" font-family="sans-serif" font-size="6.5" lengthAdjust="spacing" textLength="144.5" x="44.75" y="269.5464">shows the list of clients and requests confirmation</text><polygon fill="#181818" points="288.75,285.8232,293.75,287.8232,288.75,289.8232,290.75,287.8232" style="stroke:#181818;stroke-width:0.5;"/><line style="stroke:#181818;stroke-width:0.5;" x1="27.25" x2="291.75" y1="287.8232" y2="287.8232"/><text fill="#000000" font-family="sans-serif" font-size="6.5" font-weight="bold" lengthAdjust="spacing" textLength="7" x="30.75" y="285.1919">14</text><text fill="#000000" font-family="sans-serif" font-size="6.5" lengthAdjust="spacing" textLength="133" x="39.75" y="285.1919">confirms that he wants to register a new client</text><polygon fill="#181818" points="32.75,301.4688,27.75,303.4688,32.75,305.4688,30.75,303.4688" style="stroke:#181818;stroke-width:0.5;"/><line style="stroke:#181818;stroke-width:0.5;stroke-dasharray:2.0,2.0;" x1="29.75" x2="296.75" y1="303.4688" y2="303.4688"/><text fill="#000000" font-family="sans-serif" font-size="6.5" font-weight="bold" lengthAdjust="spacing" textLength="7" x="35.75" y="300.8374">15</text><text fill="#000000" font-family="sans-serif" font-size="6.5" lengthAdjust="spacing" textLength="246.5" x="44.75" y="300.8374">requests data (i.e. Name, Vatin, Address, Contact Info (Phone Number, Email), Type)</text><polygon fill="#181818" points="288.75,317.1143,293.75,319.1143,288.75,321.1143,290.75,319.1143" style="stroke:#181818;stroke-width:0.5;"/><line style="stroke:#181818;stroke-width:0.5;" x1="27.25" x2="291.75" y1="319.1143" y2="319.1143"/><text fill="#000000" font-family="sans-serif" font-size="6.5" font-weight="bold" lengthAdjust="spacing" textLength="7" x="30.75" y="316.4829">16</text><text fill="#000000" font-family="sans-serif" font-size="6.5" lengthAdjust="spacing" textLength="84" x="39.75" y="316.4829">types/selects requested data</text><polygon fill="#181818" points="583.75,332.7598,588.75,334.7598,583.75,336.7598,585.75,334.7598" style="stroke:#181818;stroke-width:0.5;"/><line style="stroke:#181818;stroke-width:0.5;" x1="299.75" x2="586.75" y1="334.7598" y2="334.7598"/><text fill="#000000" font-family="sans-serif" font-size="6.5" font-weight="bold" lengthAdjust="spacing" textLength="7" x="303.25" y="332.1284">17</text><text fill="#000000" font-family="sans-serif" font-size="6.5" lengthAdjust="spacing" textLength="271.5" x="312.25" y="332.1284">registerClient(clientID, name, vatin, street, zipCode, town, country, phoneNumber, email, type)</text><polygon fill="#181818" points="878.75,348.4053,883.75,350.4053,878.75,352.4053,880.75,350.4053" style="stroke:#181818;stroke-width:0.5;"/><line style="stroke:#181818;stroke-width:0.5;" x1="594.75" x2="881.75" y1="350.4053" y2="350.4053"/><text fill="#000000" font-family="sans-serif" font-size="6.5" font-weight="bold" lengthAdjust="spacing" textLength="7" x="598.25" y="347.7739">18</text><text fill="#000000" font-family="sans-serif" font-size="6.5" lengthAdjust="spacing" textLength="271.5" x="607.25" y="347.7739">registerClient(clientID, name, vatin, street, zipCode, town, country, phoneNumber, email, type)</text><polygon fill="#181818" points="989.75,364.0508,994.75,366.0508,989.75,368.0508,991.75,366.0508" style="stroke:#181818;stroke-width:0.5;"/><line style="stroke:#181818;stroke-width:0.5;" x1="889.75" x2="992.75" y1="366.0508" y2="366.0508"/><text fill="#000000" font-family="sans-serif" font-size="6.5" font-weight="bold" lengthAdjust="spacing" textLength="7" x="893.25" y="363.4194">19</text><text fill="#000000" font-family="sans-serif" font-size="6.5" lengthAdjust="spacing" textLength="60.5" x="902.25" y="363.4194">getClientRepository()</text><polygon fill="#181818" points="895.25,379.6963,890.25,381.6963,895.25,383.6963,893.25,381.6963" style="stroke:#181818;stroke-width:0.5;"/><line style="stroke:#181818;stroke-width:0.5;stroke-dasharray:2.0,2.0;" x1="892.25" x2="997.75" y1="381.6963" y2="381.6963"/><text fill="#000000" font-family="sans-serif" font-size="6.5" font-weight="bold" lengthAdjust="spacing" textLength="7" x="898.25" y="379.0649">20</text><text fill="#000000" font-family="sans-serif" font-size="6.5" lengthAdjust="spacing" textLength="46.5" x="907.25" y="379.0649">clientRepository</text><polygon fill="#181818" points="1048.75,395.3418,1053.75,397.3418,1048.75,399.3418,1050.75,397.3418" style="stroke:#181818;stroke-width:0.5;"/><line style="stroke:#181818;stroke-width:0.5;" x1="889.75" x2="1051.75" y1="397.3418" y2="397.3418"/><text fill="#000000" font-family="sans-serif" font-size="6.5" font-weight="bold" lengthAdjust="spacing" textLength="7" x="893.25" y="394.7104">21</text><text fill="#000000" font-family="sans-serif" font-size="6.5" lengthAdjust="spacing" textLength="69.5" x="902.25" y="394.7104">getClientExists(clientID)</text><path d="M257.5,404.8418 L288,404.8418 L288,409.4873 L283,414.4873 L257.5,414.4873 L257.5,404.8418 " fill="#EEEEEE" style="stroke:#000000;stroke-width:0.75;"/><rect fill="none" height="389.7979" style="stroke:#000000;stroke-width:0.75;" width="983" x="257.5" y="404.8418"/><text fill="#000000" font-family="sans-serif" font-size="6.5" font-weight="bold" lengthAdjust="spacing" textLength="8" x="265" y="412.356">alt</text><text fill="#000000" font-family="sans-serif" font-size="5.5" font-weight="bold" lengthAdjust="spacing" textLength="37.5" x="295.5" y="411.7769">[client exists]</text><polygon fill="#181818" points="895.25,424.1328,890.25,426.1328,895.25,428.1328,893.25,426.1328" style="stroke:#181818;stroke-width:0.5;"/><line style="stroke:#181818;stroke-width:0.5;stroke-dasharray:2.0,2.0;" x1="892.25" x2="1054.25" y1="426.1328" y2="426.1328"/><text fill="#000000" font-family="sans-serif" font-size="6.5" font-weight="bold" lengthAdjust="spacing" textLength="7" x="898.25" y="423.5015">22</text><text fill="#000000" font-family="sans-serif" font-size="6.5" lengthAdjust="spacing" textLength="11" x="907.25" y="423.5015">true</text><polygon fill="#181818" points="600.25,439.7783,595.25,441.7783,600.25,443.7783,598.25,441.7783" style="stroke:#181818;stroke-width:0.5;"/><line style="stroke:#181818;stroke-width:0.5;stroke-dasharray:2.0,2.0;" x1="597.25" x2="886.75" y1="441.7783" y2="441.7783"/><text fill="#000000" font-family="sans-serif" font-size="6.5" font-weight="bold" lengthAdjust="spacing" textLength="7" x="603.25" y="439.147">23</text><text fill="#000000" font-family="sans-serif" font-size="6.5" lengthAdjust="spacing" textLength="134.5" x="612.25" y="439.147">show error message (Client already registered)</text><polygon fill="#181818" points="305.25,455.4238,300.25,457.4238,305.25,459.4238,303.25,457.4238" style="stroke:#181818;stroke-width:0.5;"/><line style="stroke:#181818;stroke-width:0.5;stroke-dasharray:2.0,2.0;" x1="302.25" x2="591.75" y1="457.4238" y2="457.4238"/><text fill="#000000" font-family="sans-serif" font-size="6.5" font-weight="bold" lengthAdjust="spacing" textLength="7" x="308.25" y="454.7925">24</text><text fill="#000000" font-family="sans-serif" font-size="6.5" lengthAdjust="spacing" textLength="134.5" x="317.25" y="454.7925">show error message (Client already registered)</text><line style="stroke:#000000;stroke-width:0.5;stroke-dasharray:2.0,2.0;" x1="257.5" x2="1240.5" y1="461.9238" y2="461.9238"/><polygon fill="#181818" points="892.75,472.0693,887.75,474.0693,892.75,476.0693,890.75,474.0693" style="stroke:#181818;stroke-width:0.5;"/><line style="stroke:#181818;stroke-width:0.5;stroke-dasharray:2.0,2.0;" x1="889.75" x2="1056.75" y1="474.0693" y2="474.0693"/><text fill="#000000" font-family="sans-serif" font-size="6.5" font-weight="bold" lengthAdjust="spacing" textLength="7" x="895.75" y="471.438">25</text><text fill="#000000" font-family="sans-serif" font-size="6.5" lengthAdjust="spacing" textLength="13.5" x="904.75" y="471.438">false</text><polygon fill="#181818" points="989.75,487.7148,994.75,489.7148,989.75,491.7148,991.75,489.7148" style="stroke:#181818;stroke-width:0.5;"/><line style="stroke:#181818;stroke-width:0.5;" x1="887.25" x2="992.75" y1="489.7148" y2="489.7148"/><text fill="#000000" font-family="sans-serif" font-size="6.5" font-weight="bold" lengthAdjust="spacing" textLength="7" x="890.75" y="487.0835">26</text><text fill="#000000" font-family="sans-serif" font-size="6.5" lengthAdjust="spacing" textLength="68" x="899.75" y="487.0835">getAddressRepository()</text><polygon fill="#181818" points="892.75,503.3604,887.75,505.3604,892.75,507.3604,890.75,505.3604" style="stroke:#181818;stroke-width:0.5;"/><line style="stroke:#181818;stroke-width:0.5;stroke-dasharray:2.0,2.0;" x1="889.75" x2="997.75" y1="505.3604" y2="505.3604"/><text fill="#000000" font-family="sans-serif" font-size="6.5" font-weight="bold" lengthAdjust="spacing" textLength="7" x="895.75" y="502.729">27</text><text fill="#000000" font-family="sans-serif" font-size="6.5" lengthAdjust="spacing" textLength="54" x="904.75" y="502.729">addressRepository</text><polygon fill="#181818" points="1117.75,519.0059,1122.75,521.0059,1117.75,523.0059,1119.75,521.0059" style="stroke:#181818;stroke-width:0.5;"/><line style="stroke:#181818;stroke-width:0.5;" x1="887.25" x2="1120.75" y1="521.0059" y2="521.0059"/><text fill="#000000" font-family="sans-serif" font-size="6.5" font-weight="bold" lengthAdjust="spacing" textLength="7" x="890.75" y="518.3745">28</text><text fill="#000000" font-family="sans-serif" font-size="6.5" lengthAdjust="spacing" textLength="125" x="899.75" y="518.3745">findAddress(street, zipCode, town, country)</text><path d="M857,528.5059 L887.5,528.5059 L887.5,533.1514 L882.5,538.1514 L857,538.1514 L857,528.5059 " fill="#EEEEEE" style="stroke:#000000;stroke-width:0.75;"/><rect fill="none" height="104.3486" style="stroke:#000000;stroke-width:0.75;" width="378.5" x="857" y="528.5059"/><text fill="#000000" font-family="sans-serif" font-size="6.5" font-weight="bold" lengthAdjust="spacing" textLength="8" x="864.5" y="536.02">alt</text><text fill="#000000" font-family="sans-serif" font-size="5.5" font-weight="bold" lengthAdjust="spacing" textLength="45.5" x="895" y="535.4409">[address exists]</text><polygon fill="#181818" points="892.75,547.7969,887.75,549.7969,892.75,551.7969,890.75,549.7969" style="stroke:#181818;stroke-width:0.5;"/><line style="stroke:#181818;stroke-width:0.5;stroke-dasharray:2.0,2.0;" x1="889.75" x2="1123.25" y1="549.7969" y2="549.7969"/><text fill="#000000" font-family="sans-serif" font-size="6.5" font-weight="bold" lengthAdjust="spacing" textLength="7" x="895.75" y="547.1655">29</text><text fill="#000000" font-family="sans-serif" font-size="6.5" lengthAdjust="spacing" textLength="23" x="904.75" y="547.1655">address</text><line style="stroke:#000000;stroke-width:0.5;stroke-dasharray:2.0,2.0;" x1="857" x2="1235.5" y1="554.2969" y2="554.2969"/><polygon fill="#181818" points="892.75,564.4424,887.75,566.4424,892.75,568.4424,890.75,566.4424" style="stroke:#181818;stroke-width:0.5;"/><line style="stroke:#181818;stroke-width:0.5;stroke-dasharray:2.0,2.0;" x1="889.75" x2="1125.75" y1="566.4424" y2="566.4424"/><text fill="#000000" font-family="sans-serif" font-size="6.5" font-weight="bold" lengthAdjust="spacing" textLength="7" x="895.75" y="563.811">30</text><text fill="#000000" font-family="sans-serif" font-size="6.5" lengthAdjust="spacing" textLength="10" x="904.75" y="563.811">null</text><polygon fill="#181818" points="1190,580.0879,1195,582.0879,1190,584.0879,1192,582.0879" style="stroke:#181818;stroke-width:0.5;"/><line style="stroke:#181818;stroke-width:0.5;" x1="887.25" x2="1193" y1="582.0879" y2="582.0879"/><text fill="#000000" font-family="sans-serif" font-size="6.5" font-weight="bold" lengthAdjust="spacing" textLength="7" x="890.75" y="579.4565">31</text><text fill="#000000" font-family="sans-serif" font-size="6.5" lengthAdjust="spacing" textLength="109" x="899.75" y="579.4565">create(street, zipCode, town, country)</text><rect fill="#E3E3E3" height="25.6211" rx="1.25" ry="1.25" style="stroke:#181818;stroke-width:0.25;" width="34.5" x="1196" y="570.4424"/><text fill="#000000" font-family="sans-serif" font-size="7" lengthAdjust="spacing" textLength="27.5" x="1199.5" y="581.4961">address:</text><text fill="#000000" font-family="sans-serif" font-size="7" lengthAdjust="spacing" textLength="26" x="1200.25" y="590.8066">Address</text><polygon fill="#181818" points="1117.75,611.209,1122.75,613.209,1117.75,615.209,1119.75,613.209" style="stroke:#181818;stroke-width:0.5;"/><line style="stroke:#181818;stroke-width:0.5;" x1="887.25" x2="1120.75" y1="613.209" y2="613.209"/><text fill="#000000" font-family="sans-serif" font-size="6.5" font-weight="bold" lengthAdjust="spacing" textLength="7" x="890.75" y="610.5776">32</text><text fill="#000000" font-family="sans-serif" font-size="6.5" lengthAdjust="spacing" textLength="40" x="899.75" y="610.5776">save(address)</text><polygon fill="#181818" points="892.75,626.8545,887.75,628.8545,892.75,630.8545,890.75,628.8545" style="stroke:#181818;stroke-width:0.5;"/><line style="stroke:#181818;stroke-width:0.5;stroke-dasharray:2.0,2.0;" x1="889.75" x2="1125.75" y1="628.8545" y2="628.8545"/><text fill="#000000" font-family="sans-serif" font-size="6.5" font-weight="bold" lengthAdjust="spacing" textLength="7" x="895.75" y="626.2231">33</text><text fill="#000000" font-family="sans-serif" font-size="6.5" lengthAdjust="spacing" textLength="23" x="904.75" y="626.2231">address</text><polygon fill="#181818" points="1159.5,646,1164.5,648,1159.5,650,1161.5,648" style="stroke:#181818;stroke-width:0.5;"/><line style="stroke:#181818;stroke-width:0.5;" x1="887.25" x2="1162.5" y1="648" y2="648"/><text fill="#000000" font-family="sans-serif" font-size="6.5" font-weight="bold" lengthAdjust="spacing" textLength="7" x="890.75" y="645.3687">34</text><text fill="#000000" font-family="sans-serif" font-size="6.5" lengthAdjust="spacing" textLength="187.5" x="899.75" y="645.3687">create(clientID, name, vatin, address, phoneNumber, email, type)</text><rect fill="#E3E3E3" height="25.6211" rx="1.25" ry="1.25" style="stroke:#181818;stroke-width:0.25;" width="25.5" x="1165.5" y="636.3545"/><text fill="#000000" font-family="sans-serif" font-size="7" lengthAdjust="spacing" textLength="18.5" x="1169" y="647.4082">client:</text><text fill="#000000" font-family="sans-serif" font-size="7" lengthAdjust="spacing" textLength="18" x="1169.25" y="656.7188">Client</text><polygon fill="#181818" points="1048.75,677.1211,1053.75,679.1211,1048.75,681.1211,1050.75,679.1211" style="stroke:#181818;stroke-width:0.5;"/><line style="stroke:#181818;stroke-width:0.5;" x1="887.25" x2="1051.75" y1="679.1211" y2="679.1211"/><text fill="#000000" font-family="sans-serif" font-size="6.5" font-weight="bold" lengthAdjust="spacing" textLength="7" x="890.75" y="676.4897">35</text><text fill="#000000" font-family="sans-serif" font-size="6.5" lengthAdjust="spacing" textLength="32.5" x="899.75" y="676.4897">save(client)</text><path d="M262.5,686.6211 L293,686.6211 L293,691.2666 L288,696.2666 L262.5,696.2666 L262.5,686.6211 " fill="#EEEEEE" style="stroke:#000000;stroke-width:0.75;"/><rect fill="none" height="104.5186" style="stroke:#000000;stroke-width:0.75;" width="829.5" x="262.5" y="686.6211"/><text fill="#000000" font-family="sans-serif" font-size="6.5" font-weight="bold" lengthAdjust="spacing" textLength="8" x="270" y="694.1353">alt</text><text fill="#000000" font-family="sans-serif" font-size="5.5" font-weight="bold" lengthAdjust="spacing" textLength="41" x="300.5" y="693.5562">[system error]</text><polygon fill="#181818" points="892.75,705.9121,887.75,707.9121,892.75,709.9121,890.75,707.9121" style="stroke:#181818;stroke-width:0.5;"/><line style="stroke:#181818;stroke-width:0.5;stroke-dasharray:2.0,2.0;" x1="889.75" x2="1054.25" y1="707.9121" y2="707.9121"/><text fill="#000000" font-family="sans-serif" font-size="6.5" font-weight="bold" lengthAdjust="spacing" textLength="7" x="895.75" y="705.2808">36</text><text fill="#000000" font-family="sans-serif" font-size="6.5" lengthAdjust="spacing" textLength="42.5" x="904.75" y="705.2808">Database error</text><polygon fill="#181818" points="597.75,721.5576,592.75,723.5576,597.75,725.5576,595.75,723.5576" style="stroke:#181818;stroke-width:0.5;"/><line style="stroke:#181818;stroke-width:0.5;stroke-dasharray:2.0,2.0;" x1="594.75" x2="886.75" y1="723.5576" y2="723.5576"/><text fill="#000000" font-family="sans-serif" font-size="6.5" font-weight="bold" lengthAdjust="spacing" textLength="7" x="600.75" y="720.9263">37</text><text fill="#000000" font-family="sans-serif" font-size="6.5" lengthAdjust="spacing" textLength="107" x="609.75" y="720.9263">show error message (Database error)</text><polygon fill="#181818" points="305.25,737.2031,300.25,739.2031,305.25,741.2031,303.25,739.2031" style="stroke:#181818;stroke-width:0.5;"/><line style="stroke:#181818;stroke-width:0.5;stroke-dasharray:2.0,2.0;" x1="302.25" x2="591.75" y1="739.2031" y2="739.2031"/><text fill="#000000" font-family="sans-serif" font-size="6.5" font-weight="bold" lengthAdjust="spacing" textLength="7" x="308.25" y="736.5718">38</text><text fill="#000000" font-family="sans-serif" font-size="6.5" lengthAdjust="spacing" textLength="107" x="317.25" y="736.5718">show error message (Database error)</text><line style="stroke:#000000;stroke-width:0.5;stroke-dasharray:2.0,2.0;" x1="262.5" x2="1092" y1="743.7031" y2="743.7031"/><polygon fill="#181818" points="892.75,753.8486,887.75,755.8486,892.75,757.8486,890.75,755.8486" style="stroke:#181818;stroke-width:0.5;"/><line style="stroke:#181818;stroke-width:0.5;stroke-dasharray:2.0,2.0;" x1="889.75" x2="1056.75" y1="755.8486" y2="755.8486"/><text fill="#000000" font-family="sans-serif" font-size="6.5" font-weight="bold" lengthAdjust="spacing" textLength="7" x="895.75" y="753.2173">39</text><text fill="#000000" font-family="sans-serif" font-size="6.5" lengthAdjust="spacing" textLength="15.5" x="904.75" y="753.2173">client</text><polygon fill="#181818" points="597.75,769.4941,592.75,771.4941,597.75,773.4941,595.75,771.4941" style="stroke:#181818;stroke-width:0.5;"/><line style="stroke:#181818;stroke-width:0.5;stroke-dasharray:2.0,2.0;" x1="594.75" x2="886.75" y1="771.4941" y2="771.4941"/><text fill="#000000" font-family="sans-serif" font-size="6.5" font-weight="bold" lengthAdjust="spacing" textLength="7" x="600.75" y="768.8628">40</text><text fill="#000000" font-family="sans-serif" font-size="6.5" lengthAdjust="spacing" textLength="15.5" x="609.75" y="768.8628">client</text><polygon fill="#181818" points="305.25,785.1396,300.25,787.1396,305.25,789.1396,303.25,787.1396" style="stroke:#181818;stroke-width:0.5;"/><line style="stroke:#181818;stroke-width:0.5;stroke-dasharray:2.0,2.0;" x1="302.25" x2="591.75" y1="787.1396" y2="787.1396"/><text fill="#000000" font-family="sans-serif" font-size="6.5" font-weight="bold" lengthAdjust="spacing" textLength="7" x="308.25" y="784.5083">41</text><text fill="#000000" font-family="sans-serif" font-size="6.5" lengthAdjust="spacing" textLength="15.5" x="317.25" y="784.5083">client</text><polygon fill="#181818" points="30.25,807.7852,25.25,809.7852,30.25,811.7852,28.25,809.7852" style="stroke:#181818;stroke-width:0.5;"/><line style="stroke:#181818;stroke-width:0.5;stroke-dasharray:2.0,2.0;" x1="27.25" x2="296.75" y1="809.7852" y2="809.7852"/><text fill="#000000" font-family="sans-serif" font-size="6.5" font-weight="bold" lengthAdjust="spacing" textLength="7" x="33.25" y="807.1538">42</text><text fill="#000000" font-family="sans-serif" font-size="6.5" lengthAdjust="spacing" textLength="186" x="42.25" y="807.1538">shows all data and displays operation success or error message</text><!--SRC=[lLTDRzim3BtdLn0zEOFRtNCOK2Gv1DYA8UvssaMpcLIeB7cMqYpxzQCas_6ttQsRBsraykc9VAHe_SnbndAMGggaYfzobIAO_8GBNRt9MFpCZXYPYq38CJPC7aNTG3-nH9svFCA12OsBXU66JAEBDfX2X3zEA6E43MT7Qnv4qMQvMB2JKVAKViUS_e-Dok7cFacvvDhaZ7xU0DDml_cqe4qCZtd6f86RrHwFP87vMd2KvilEcNtPjQpysxMI9bT2e0TRF-u_zjf5cB_m69rHjF_QsJ5JcXCZZjgPxBUVewPDNZFv9dizcWwnsxUokwo-oNLhoJcsxPeeB4borBe1SzzUSpWTopuw5GaVhO-xxSDZxuRNROeaRVRRA2hpNcO8F5Wb09Tc_i8CkhG2FVGNRZzG-c15GCyQZ2A55UuC99wB23ZhoftIxHRiGxw4O5FxxXsXn3cIHTzhUdb4So-4fwM3PMLK0Jk5GErnZWH0gl3-NUS6W5LFuurzh3DXMDbua9tKL4Gnjb0QI4vaxRSEujRpMK5TTHtJ1CUXhgJg1xiAP89R7xMIcKr3MxVZz0PZriQfaZX6RtBp3cgR-6WuH-4TxwlY-k1gK5OkJQcLrT1sh3bL8hNQ9djRH2jgmkfCzVE48AXyG1rA260o8QbG3Mhw4Ijvu7dA35ToqG8kowfUbOMzHMO62FtCBERiEgtNOSMrOfCmmo3WTtW73op54BuICHb2qLr2i1sSu60d3mg2pqzA8ZouIoE4RSguM8RmUCbmEUSiXWprUus2xZ1Tai34iHWbxjEvgexiQoNmHzvjGf2E_8idJ_SNeWdX5y_MAg5reywq7AiJtKQN439xYl8GQ0yHEcglx4V_ZqwdmmttahTk9V-kazIORdzI67KLlx_fB4oOmWZGeNOinlhFoezUVIxrlkAB7J3FQMXAgKveEeEWk6sPe1imkLJYm6JP2pZGXRfYSzNprbjsX6qVjCFZw-Bb1yw9pJfP6uxmLSITEIheFzIeaZjgxivX4znx9LsZsnq1uS1bKh0Fnej_uaJpo5h95vPZcdUcRS1EO7fT1tKnWIbFGWpwrMBSFUUWLn7rOkAjJPn_5EdnF6hsWa6nFkp_ocpzHHecezQREvcCwjT_PTG3EN2DiN8a6BwlnlRfjdyNNhyyKGUJNRyi0-s_U5sN70pXS3FRq1podMai0CObCteND96MSz8vT0dCkWZ-OB_U6s2oseU3Lvi_NtiTp8lp_0rcXt8-v72qgBw6rgupT_bvm8JmCxVz9aYupWIxQ50Pvkw30FGfZcqVfzmsCjmtNTT-qWw_0G00]--></g></svg>