<?xml version="1.0" encoding="us-ascii" standalone="no"?><svg xmlns="http://www.w3.org/2000/svg" xmlns:xlink="http://www.w3.org/1999/xlink" contentStyleType="text/css" height="1405px" preserveAspectRatio="none" style="width:1070px;height:1405px;background:#FFFFFF;" version="1.1" viewBox="0 0 1070 1405" width="1070px" zoomAndPan="magnify"><defs/><g><!--cluster UI--><g id="cluster_UI"><rect fill="none" height="101" rx="2.5" ry="2.5" style="stroke:#000000;stroke-width:1.5;" width="166" x="636" y="7"/><text fill="#000000" font-family="sans-serif" font-size="14" font-weight="bold" lengthAdjust="spacing" textLength="14" x="712" y="24.1074">UI</text></g><!--cluster Controller--><g id="cluster_Controller"><rect fill="none" height="138" rx="2.5" ry="2.5" style="stroke:#000000;stroke-width:1.5;" width="690" x="374" y="141"/><text fill="#000000" font-family="sans-serif" font-size="14" font-weight="bold" lengthAdjust="spacing" textLength="71" x="683.5" y="158.1074">Controller</text></g><!--cluster Service--><g id="cluster_Service"><rect fill="none" height="138" rx="2.5" ry="2.5" style="stroke:#000000;stroke-width:1.5;" width="690" x="374" y="312"/><text fill="#000000" font-family="sans-serif" font-size="14" font-weight="bold" lengthAdjust="spacing" textLength="54" x="692" y="329.1074">Service</text></g><!--cluster Repository--><g id="cluster_Repository"><rect fill="none" height="358" rx="2.5" ry="2.5" style="stroke:#000000;stroke-width:1.5;" width="809" x="7" y="501"/><text fill="#000000" font-family="sans-serif" font-size="14" font-weight="bold" lengthAdjust="spacing" textLength="76" x="373.5" y="518.1074">Repository</text></g><!--cluster Model--><g id="cluster_Model"><rect fill="none" height="489" rx="2.5" ry="2.5" style="stroke:#000000;stroke-width:1.5;" width="479" x="438" y="910"/><text fill="#000000" font-family="sans-serif" font-size="14" font-weight="bold" lengthAdjust="spacing" textLength="44" x="655.5" y="927.1074">Model</text></g><!--class RegisterClientUI--><g id="elem_RegisterClientUI"><rect codeLine="7" fill="#F1F1F1" height="48" id="RegisterClientUI" rx="2.5" ry="2.5" style="stroke:#181818;stroke-width:0.5;" width="133" x="652.5" y="44"/><ellipse cx="667.5" cy="60" fill="#ADD1B2" rx="11" ry="11" style="stroke:#181818;stroke-width:1.0;"/><path d="M670.2656,55.875 Q670.4219,55.6563 670.6094,55.5469 Q670.7969,55.4375 671.0156,55.4375 Q671.3906,55.4375 671.625,55.7031 Q671.8594,55.9531 671.8594,56.5625 L671.8594,58.0156 Q671.8594,58.625 671.625,58.8906 Q671.3906,59.1563 671.0156,59.1563 Q670.6719,59.1563 670.4688,58.9531 Q670.2656,58.7656 670.1563,58.25 Q670.1094,57.8906 669.9219,57.7031 Q669.5938,57.3281 668.9844,57.1094 Q668.375,56.8906 667.75,56.8906 Q666.9844,56.8906 666.3438,57.2188 Q665.7188,57.5469 665.2188,58.2969 Q664.7344,59.0469 664.7344,60.0781 L664.7344,61.1719 Q664.7344,62.4063 665.625,63.2344 Q666.5156,64.0469 668.1094,64.0469 Q669.0469,64.0469 669.7031,63.7969 Q670.0938,63.6406 670.5156,63.2031 Q670.7813,62.9375 670.9219,62.8594 Q671.0781,62.7813 671.2813,62.7813 Q671.6094,62.7813 671.8594,63.0469 Q672.125,63.2969 672.125,63.6406 Q672.125,63.9844 671.7813,64.3906 Q671.2813,64.9688 670.4844,65.2969 Q669.4063,65.75 668.1094,65.75 Q666.5938,65.75 665.3906,65.125 Q664.4063,64.625 663.7188,63.5625 Q663.0313,62.4844 663.0313,61.2031 L663.0313,60.0469 Q663.0313,58.7188 663.6406,57.5781 Q664.2656,56.4219 665.3594,55.8125 Q666.4531,55.1875 667.6875,55.1875 Q668.4219,55.1875 669.0625,55.3594 Q669.7188,55.5156 670.2656,55.875 Z " fill="#000000"/><text fill="#000000" font-family="sans-serif" font-size="14" lengthAdjust="spacing" textLength="101" x="681.5" y="65.7969">RegisterClientUI</text><line style="stroke:#181818;stroke-width:0.5;" x1="653.5" x2="784.5" y1="76" y2="76"/><line style="stroke:#181818;stroke-width:0.5;" x1="653.5" x2="784.5" y1="84" y2="84"/></g><!--class ClientController--><g id="elem_ClientController"><rect codeLine="12" fill="#F1F1F1" height="85.2422" id="ClientController" rx="2.5" ry="2.5" style="stroke:#181818;stroke-width:0.5;" width="657" x="390.5" y="178"/><ellipse cx="665.75" cy="194" fill="#ADD1B2" rx="11" ry="11" style="stroke:#181818;stroke-width:1.0;"/><path d="M668.5156,189.875 Q668.6719,189.6563 668.8594,189.5469 Q669.0469,189.4375 669.2656,189.4375 Q669.6406,189.4375 669.875,189.7031 Q670.1094,189.9531 670.1094,190.5625 L670.1094,192.0156 Q670.1094,192.625 669.875,192.8906 Q669.6406,193.1563 669.2656,193.1563 Q668.9219,193.1563 668.7188,192.9531 Q668.5156,192.7656 668.4063,192.25 Q668.3594,191.8906 668.1719,191.7031 Q667.8438,191.3281 667.2344,191.1094 Q666.625,190.8906 666,190.8906 Q665.2344,190.8906 664.5938,191.2188 Q663.9688,191.5469 663.4688,192.2969 Q662.9844,193.0469 662.9844,194.0781 L662.9844,195.1719 Q662.9844,196.4063 663.875,197.2344 Q664.7656,198.0469 666.3594,198.0469 Q667.2969,198.0469 667.9531,197.7969 Q668.3438,197.6406 668.7656,197.2031 Q669.0313,196.9375 669.1719,196.8594 Q669.3281,196.7813 669.5313,196.7813 Q669.8594,196.7813 670.1094,197.0469 Q670.375,197.2969 670.375,197.6406 Q670.375,197.9844 670.0313,198.3906 Q669.5313,198.9688 668.7344,199.2969 Q667.6563,199.75 666.3594,199.75 Q664.8438,199.75 663.6406,199.125 Q662.6563,198.625 661.9688,197.5625 Q661.2813,196.4844 661.2813,195.2031 L661.2813,194.0469 Q661.2813,192.7188 661.8906,191.5781 Q662.5156,190.4219 663.6094,189.8125 Q664.7031,189.1875 665.9375,189.1875 Q666.6719,189.1875 667.3125,189.3594 Q667.9688,189.5156 668.5156,189.875 Z " fill="#000000"/><text fill="#000000" font-family="sans-serif" font-size="14" lengthAdjust="spacing" textLength="98" x="686.25" y="199.7969">ClientController</text><line style="stroke:#181818;stroke-width:0.5;" x1="391.5" x2="1046.5" y1="210" y2="210"/><line style="stroke:#181818;stroke-width:0.5;" x1="391.5" x2="1046.5" y1="218" y2="218"/><text fill="#000000" font-family="sans-serif" font-size="14" lengthAdjust="spacing" textLength="182" x="396.5" y="237.1074">+getAllClients() : List&lt;Client&gt;</text><text fill="#000000" font-family="sans-serif" font-size="14" lengthAdjust="spacing" textLength="645" x="396.5" y="255.7285">+registerClient(clientID, name, vatin, street, zipCode, town, country, phoneNumber, email, type) : Client</text></g><!--class ClientService--><g id="elem_ClientService"><rect codeLine="19" fill="#F1F1F1" height="85.2422" id="ClientService" rx="2.5" ry="2.5" style="stroke:#181818;stroke-width:0.5;" width="657" x="390.5" y="349"/><ellipse cx="673.25" cy="365" fill="#ADD1B2" rx="11" ry="11" style="stroke:#181818;stroke-width:1.0;"/><path d="M676.0156,360.875 Q676.1719,360.6563 676.3594,360.5469 Q676.5469,360.4375 676.7656,360.4375 Q677.1406,360.4375 677.375,360.7031 Q677.6094,360.9531 677.6094,361.5625 L677.6094,363.0156 Q677.6094,363.625 677.375,363.8906 Q677.1406,364.1563 676.7656,364.1563 Q676.4219,364.1563 676.2188,363.9531 Q676.0156,363.7656 675.9063,363.25 Q675.8594,362.8906 675.6719,362.7031 Q675.3438,362.3281 674.7344,362.1094 Q674.125,361.8906 673.5,361.8906 Q672.7344,361.8906 672.0938,362.2188 Q671.4688,362.5469 670.9688,363.2969 Q670.4844,364.0469 670.4844,365.0781 L670.4844,366.1719 Q670.4844,367.4063 671.375,368.2344 Q672.2656,369.0469 673.8594,369.0469 Q674.7969,369.0469 675.4531,368.7969 Q675.8438,368.6406 676.2656,368.2031 Q676.5313,367.9375 676.6719,367.8594 Q676.8281,367.7813 677.0313,367.7813 Q677.3594,367.7813 677.6094,368.0469 Q677.875,368.2969 677.875,368.6406 Q677.875,368.9844 677.5313,369.3906 Q677.0313,369.9688 676.2344,370.2969 Q675.1563,370.75 673.8594,370.75 Q672.3438,370.75 671.1406,370.125 Q670.1563,369.625 669.4688,368.5625 Q668.7813,367.4844 668.7813,366.2031 L668.7813,365.0469 Q668.7813,363.7188 669.3906,362.5781 Q670.0156,361.4219 671.1094,360.8125 Q672.2031,360.1875 673.4375,360.1875 Q674.1719,360.1875 674.8125,360.3594 Q675.4688,360.5156 676.0156,360.875 Z " fill="#000000"/><text fill="#000000" font-family="sans-serif" font-size="14" lengthAdjust="spacing" textLength="83" x="693.75" y="370.7969">ClientService</text><line style="stroke:#181818;stroke-width:0.5;" x1="391.5" x2="1046.5" y1="381" y2="381"/><line style="stroke:#181818;stroke-width:0.5;" x1="391.5" x2="1046.5" y1="389" y2="389"/><text fill="#000000" font-family="sans-serif" font-size="14" lengthAdjust="spacing" textLength="167" x="396.5" y="408.1074">+getClients() : List&lt;Client&gt;</text><text fill="#000000" font-family="sans-serif" font-size="14" lengthAdjust="spacing" textLength="645" x="396.5" y="426.7285">+registerClient(clientID, name, vatin, street, zipCode, town, country, phoneNumber, email, type) : Client</text></g><!--class Repositories--><g id="elem_Repositories"><rect codeLine="26" fill="#F1F1F1" height="122.4844" id="Repositories" rx="2.5" ry="2.5" style="stroke:#181818;stroke-width:0.5;" width="302" x="88" y="538"/><ellipse cx="195.25" cy="554" fill="#ADD1B2" rx="11" ry="11" style="stroke:#181818;stroke-width:1.0;"/><path d="M198.0156,549.875 Q198.1719,549.6563 198.3594,549.5469 Q198.5469,549.4375 198.7656,549.4375 Q199.1406,549.4375 199.375,549.7031 Q199.6094,549.9531 199.6094,550.5625 L199.6094,552.0156 Q199.6094,552.625 199.375,552.8906 Q199.1406,553.1563 198.7656,553.1563 Q198.4219,553.1563 198.2188,552.9531 Q198.0156,552.7656 197.9063,552.25 Q197.8594,551.8906 197.6719,551.7031 Q197.3438,551.3281 196.7344,551.1094 Q196.125,550.8906 195.5,550.8906 Q194.7344,550.8906 194.0938,551.2188 Q193.4688,551.5469 192.9688,552.2969 Q192.4844,553.0469 192.4844,554.0781 L192.4844,555.1719 Q192.4844,556.4063 193.375,557.2344 Q194.2656,558.0469 195.8594,558.0469 Q196.7969,558.0469 197.4531,557.7969 Q197.8438,557.6406 198.2656,557.2031 Q198.5313,556.9375 198.6719,556.8594 Q198.8281,556.7813 199.0313,556.7813 Q199.3594,556.7813 199.6094,557.0469 Q199.875,557.2969 199.875,557.6406 Q199.875,557.9844 199.5313,558.3906 Q199.0313,558.9688 198.2344,559.2969 Q197.1563,559.75 195.8594,559.75 Q194.3438,559.75 193.1406,559.125 Q192.1563,558.625 191.4688,557.5625 Q190.7813,556.4844 190.7813,555.2031 L190.7813,554.0469 Q190.7813,552.7188 191.3906,551.5781 Q192.0156,550.4219 193.1094,549.8125 Q194.2031,549.1875 195.4375,549.1875 Q196.1719,549.1875 196.8125,549.3594 Q197.4688,549.5156 198.0156,549.875 Z " fill="#000000"/><text fill="#000000" font-family="sans-serif" font-size="14" lengthAdjust="spacing" textLength="79" x="215.75" y="559.7969">Repositories</text><line style="stroke:#181818;stroke-width:0.5;" x1="89" x2="389" y1="570" y2="570"/><line style="stroke:#181818;stroke-width:0.5;" x1="89" x2="389" y1="578" y2="578"/><text fill="#000000" font-family="sans-serif" font-size="14" lengthAdjust="spacing" textLength="94" x="94" y="597.1074">-Repositories()</text><text fill="#000000" font-family="sans-serif" font-size="14" lengthAdjust="spacing" textLength="182" x="94" y="615.7285">+getInstance() : Repositories</text><text fill="#000000" font-family="sans-serif" font-size="14" lengthAdjust="spacing" textLength="258" x="94" y="634.3496">+getClientRepository() : ClientRepository</text><text fill="#000000" font-family="sans-serif" font-size="14" lengthAdjust="spacing" textLength="290" x="94" y="652.9707">+getAddressRepository() : AddressRepository</text></g><!--class ClientRepository--><g id="elem_ClientRepository"><rect codeLine="33" fill="#F1F1F1" height="103.8633" id="ClientRepository" rx="2.5" ry="2.5" style="stroke:#181818;stroke-width:0.5;" width="308" x="492" y="739"/><ellipse cx="589.75" cy="755" fill="#ADD1B2" rx="11" ry="11" style="stroke:#181818;stroke-width:1.0;"/><path d="M592.5156,750.875 Q592.6719,750.6563 592.8594,750.5469 Q593.0469,750.4375 593.2656,750.4375 Q593.6406,750.4375 593.875,750.7031 Q594.1094,750.9531 594.1094,751.5625 L594.1094,753.0156 Q594.1094,753.625 593.875,753.8906 Q593.6406,754.1563 593.2656,754.1563 Q592.9219,754.1563 592.7188,753.9531 Q592.5156,753.7656 592.4063,753.25 Q592.3594,752.8906 592.1719,752.7031 Q591.8438,752.3281 591.2344,752.1094 Q590.625,751.8906 590,751.8906 Q589.2344,751.8906 588.5938,752.2188 Q587.9688,752.5469 587.4688,753.2969 Q586.9844,754.0469 586.9844,755.0781 L586.9844,756.1719 Q586.9844,757.4063 587.875,758.2344 Q588.7656,759.0469 590.3594,759.0469 Q591.2969,759.0469 591.9531,758.7969 Q592.3438,758.6406 592.7656,758.2031 Q593.0313,757.9375 593.1719,757.8594 Q593.3281,757.7813 593.5313,757.7813 Q593.8594,757.7813 594.1094,758.0469 Q594.375,758.2969 594.375,758.6406 Q594.375,758.9844 594.0313,759.3906 Q593.5313,759.9688 592.7344,760.2969 Q591.6563,760.75 590.3594,760.75 Q588.8438,760.75 587.6406,760.125 Q586.6563,759.625 585.9688,758.5625 Q585.2813,757.4844 585.2813,756.2031 L585.2813,755.0469 Q585.2813,753.7188 585.8906,752.5781 Q586.5156,751.4219 587.6094,750.8125 Q588.7031,750.1875 589.9375,750.1875 Q590.6719,750.1875 591.3125,750.3594 Q591.9688,750.5156 592.5156,750.875 Z " fill="#000000"/><text fill="#000000" font-family="sans-serif" font-size="14" lengthAdjust="spacing" textLength="104" x="610.25" y="760.7969">ClientRepository</text><line style="stroke:#181818;stroke-width:0.5;" x1="493" x2="799" y1="771" y2="771"/><line style="stroke:#181818;stroke-width:0.5;" x1="493" x2="799" y1="779" y2="779"/><text fill="#000000" font-family="sans-serif" font-size="14" lengthAdjust="spacing" textLength="208" x="498" y="798.1074">+getAll(connection) : List&lt;Client&gt;</text><text fill="#000000" font-family="sans-serif" font-size="14" lengthAdjust="spacing" textLength="296" x="498" y="816.7285">+getClientExists(connection, clientID) : boolean</text><text fill="#000000" font-family="sans-serif" font-size="14" lengthAdjust="spacing" textLength="221" x="498" y="835.3496">+save(connection, client) : boolean</text></g><!--class AddressRepository--><g id="elem_AddressRepository"><rect codeLine="39" fill="#F1F1F1" height="103.8633" id="AddressRepository" rx="2.5" ry="2.5" style="stroke:#181818;stroke-width:0.5;" width="433" x="23.5" y="739"/><ellipse cx="175.75" cy="755" fill="#ADD1B2" rx="11" ry="11" style="stroke:#181818;stroke-width:1.0;"/><path d="M178.5156,750.875 Q178.6719,750.6563 178.8594,750.5469 Q179.0469,750.4375 179.2656,750.4375 Q179.6406,750.4375 179.875,750.7031 Q180.1094,750.9531 180.1094,751.5625 L180.1094,753.0156 Q180.1094,753.625 179.875,753.8906 Q179.6406,754.1563 179.2656,754.1563 Q178.9219,754.1563 178.7188,753.9531 Q178.5156,753.7656 178.4063,753.25 Q178.3594,752.8906 178.1719,752.7031 Q177.8438,752.3281 177.2344,752.1094 Q176.625,751.8906 176,751.8906 Q175.2344,751.8906 174.5938,752.2188 Q173.9688,752.5469 173.4688,753.2969 Q172.9844,754.0469 172.9844,755.0781 L172.9844,756.1719 Q172.9844,757.4063 173.875,758.2344 Q174.7656,759.0469 176.3594,759.0469 Q177.2969,759.0469 177.9531,758.7969 Q178.3438,758.6406 178.7656,758.2031 Q179.0313,757.9375 179.1719,757.8594 Q179.3281,757.7813 179.5313,757.7813 Q179.8594,757.7813 180.1094,758.0469 Q180.375,758.2969 180.375,758.6406 Q180.375,758.9844 180.0313,759.3906 Q179.5313,759.9688 178.7344,760.2969 Q177.6563,760.75 176.3594,760.75 Q174.8438,760.75 173.6406,760.125 Q172.6563,759.625 171.9688,758.5625 Q171.2813,757.4844 171.2813,756.2031 L171.2813,755.0469 Q171.2813,753.7188 171.8906,752.5781 Q172.5156,751.4219 173.6094,750.8125 Q174.7031,750.1875 175.9375,750.1875 Q176.6719,750.1875 177.3125,750.3594 Q177.9688,750.5156 178.5156,750.875 Z " fill="#000000"/><text fill="#000000" font-family="sans-serif" font-size="14" lengthAdjust="spacing" textLength="120" x="196.25" y="760.7969">AddressRepository</text><line style="stroke:#181818;stroke-width:0.5;" x1="24.5" x2="455.5" y1="771" y2="771"/><line style="stroke:#181818;stroke-width:0.5;" x1="24.5" x2="455.5" y1="779" y2="779"/><text fill="#000000" font-family="sans-serif" font-size="14" lengthAdjust="spacing" textLength="421" x="29.5" y="798.1074">+findAddress(connection, street, zipCode, town, country) : Address</text><text fill="#000000" font-family="sans-serif" font-size="14" lengthAdjust="spacing" textLength="224" x="29.5" y="816.7285">+getAddressCount(connection) : int</text><text fill="#000000" font-family="sans-serif" font-size="14" lengthAdjust="spacing" textLength="239" x="29.5" y="835.3496">+save(connection, address) : boolean</text></g><!--class Client--><g id="elem_Client"><rect codeLine="47" fill="#F1F1F1" height="196.9688" id="Client" rx="2.5" ry="2.5" style="stroke:#181818;stroke-width:0.5;" width="425" x="465.5" y="947"/><ellipse cx="655.75" cy="963" fill="#ADD1B2" rx="11" ry="11" style="stroke:#181818;stroke-width:1.0;"/><path d="M658.5156,958.875 Q658.6719,958.6563 658.8594,958.5469 Q659.0469,958.4375 659.2656,958.4375 Q659.6406,958.4375 659.875,958.7031 Q660.1094,958.9531 660.1094,959.5625 L660.1094,961.0156 Q660.1094,961.625 659.875,961.8906 Q659.6406,962.1563 659.2656,962.1563 Q658.9219,962.1563 658.7188,961.9531 Q658.5156,961.7656 658.4063,961.25 Q658.3594,960.8906 658.1719,960.7031 Q657.8438,960.3281 657.2344,960.1094 Q656.625,959.8906 656,959.8906 Q655.2344,959.8906 654.5938,960.2188 Q653.9688,960.5469 653.4688,961.2969 Q652.9844,962.0469 652.9844,963.0781 L652.9844,964.1719 Q652.9844,965.4063 653.875,966.2344 Q654.7656,967.0469 656.3594,967.0469 Q657.2969,967.0469 657.9531,966.7969 Q658.3438,966.6406 658.7656,966.2031 Q659.0313,965.9375 659.1719,965.8594 Q659.3281,965.7813 659.5313,965.7813 Q659.8594,965.7813 660.1094,966.0469 Q660.375,966.2969 660.375,966.6406 Q660.375,966.9844 660.0313,967.3906 Q659.5313,967.9688 658.7344,968.2969 Q657.6563,968.75 656.3594,968.75 Q654.8438,968.75 653.6406,968.125 Q652.6563,967.625 651.9688,966.5625 Q651.2813,965.4844 651.2813,964.2031 L651.2813,963.0469 Q651.2813,961.7188 651.8906,960.5781 Q652.5156,959.4219 653.6094,958.8125 Q654.7031,958.1875 655.9375,958.1875 Q656.6719,958.1875 657.3125,958.3594 Q657.9688,958.5156 658.5156,958.875 Z " fill="#000000"/><text fill="#000000" font-family="sans-serif" font-size="14" lengthAdjust="spacing" textLength="36" x="676.25" y="968.7969">Client</text><line style="stroke:#181818;stroke-width:0.5;" x1="466.5" x2="889.5" y1="979" y2="979"/><text fill="#000000" font-family="sans-serif" font-size="14" lengthAdjust="spacing" textLength="78" x="471.5" y="998.1074">-clientID : int</text><text fill="#000000" font-family="sans-serif" font-size="14" lengthAdjust="spacing" textLength="120" x="471.5" y="1016.7285">-address : Address</text><text fill="#000000" font-family="sans-serif" font-size="14" lengthAdjust="spacing" textLength="89" x="471.5" y="1035.3496">-name : String</text><text fill="#000000" font-family="sans-serif" font-size="14" lengthAdjust="spacing" textLength="84" x="471.5" y="1053.9707">-vatin : String</text><text fill="#000000" font-family="sans-serif" font-size="14" lengthAdjust="spacing" textLength="121" x="471.5" y="1072.5918">-phoneNumber : int</text><text fill="#000000" font-family="sans-serif" font-size="14" lengthAdjust="spacing" textLength="87" x="471.5" y="1091.2129">-email : String</text><text fill="#000000" font-family="sans-serif" font-size="14" lengthAdjust="spacing" textLength="136" x="471.5" y="1109.834">-type : CompanyType</text><line style="stroke:#181818;stroke-width:0.5;" x1="466.5" x2="889.5" y1="1117.3477" y2="1117.3477"/><text fill="#000000" font-family="sans-serif" font-size="14" lengthAdjust="spacing" textLength="413" x="471.5" y="1136.4551">+Client(clientID, name, address, vatin, phoneNumber, email, type)</text></g><!--class Address--><g id="elem_Address"><rect codeLine="58" fill="#F1F1F1" height="159.7266" id="Address" rx="2.5" ry="2.5" style="stroke:#181818;stroke-width:0.5;" width="288" x="454" y="1223"/><ellipse cx="567.75" cy="1239" fill="#ADD1B2" rx="11" ry="11" style="stroke:#181818;stroke-width:1.0;"/><path d="M570.5156,1234.875 Q570.6719,1234.6563 570.8594,1234.5469 Q571.0469,1234.4375 571.2656,1234.4375 Q571.6406,1234.4375 571.875,1234.7031 Q572.1094,1234.9531 572.1094,1235.5625 L572.1094,1237.0156 Q572.1094,1237.625 571.875,1237.8906 Q571.6406,1238.1563 571.2656,1238.1563 Q570.9219,1238.1563 570.7188,1237.9531 Q570.5156,1237.7656 570.4063,1237.25 Q570.3594,1236.8906 570.1719,1236.7031 Q569.8438,1236.3281 569.2344,1236.1094 Q568.625,1235.8906 568,1235.8906 Q567.2344,1235.8906 566.5938,1236.2188 Q565.9688,1236.5469 565.4688,1237.2969 Q564.9844,1238.0469 564.9844,1239.0781 L564.9844,1240.1719 Q564.9844,1241.4063 565.875,1242.2344 Q566.7656,1243.0469 568.3594,1243.0469 Q569.2969,1243.0469 569.9531,1242.7969 Q570.3438,1242.6406 570.7656,1242.2031 Q571.0313,1241.9375 571.1719,1241.8594 Q571.3281,1241.7813 571.5313,1241.7813 Q571.8594,1241.7813 572.1094,1242.0469 Q572.375,1242.2969 572.375,1242.6406 Q572.375,1242.9844 572.0313,1243.3906 Q571.5313,1243.9688 570.7344,1244.2969 Q569.6563,1244.75 568.3594,1244.75 Q566.8438,1244.75 565.6406,1244.125 Q564.6563,1243.625 563.9688,1242.5625 Q563.2813,1241.4844 563.2813,1240.2031 L563.2813,1239.0469 Q563.2813,1237.7188 563.8906,1236.5781 Q564.5156,1235.4219 565.6094,1234.8125 Q566.7031,1234.1875 567.9375,1234.1875 Q568.6719,1234.1875 569.3125,1234.3594 Q569.9688,1234.5156 570.5156,1234.875 Z " fill="#000000"/><text fill="#000000" font-family="sans-serif" font-size="14" lengthAdjust="spacing" textLength="52" x="588.25" y="1244.7969">Address</text><line style="stroke:#181818;stroke-width:0.5;" x1="455" x2="741" y1="1255" y2="1255"/><text fill="#000000" font-family="sans-serif" font-size="14" lengthAdjust="spacing" textLength="43" x="460" y="1274.1074">-id : int</text><text fill="#000000" font-family="sans-serif" font-size="14" lengthAdjust="spacing" textLength="90" x="460" y="1292.7285">-street : String</text><text fill="#000000" font-family="sans-serif" font-size="14" lengthAdjust="spacing" textLength="105" x="460" y="1311.3496">-zipCode : String</text><text fill="#000000" font-family="sans-serif" font-size="14" lengthAdjust="spacing" textLength="83" x="460" y="1329.9707">-town : String</text><text fill="#000000" font-family="sans-serif" font-size="14" lengthAdjust="spacing" textLength="101" x="460" y="1348.5918">-country : String</text><line style="stroke:#181818;stroke-width:0.5;" x1="455" x2="741" y1="1356.1055" y2="1356.1055"/><text fill="#000000" font-family="sans-serif" font-size="14" lengthAdjust="spacing" textLength="276" x="460" y="1375.2129">+Address(id, street, zipCode, town, country)</text></g><!--class CompanyType--><g id="elem_CompanyType"><rect codeLine="67" fill="#F1F1F1" height="85.2422" id="CompanyType" rx="2.5" ry="2.5" style="stroke:#181818;stroke-width:0.5;" width="124" x="777" y="1260.5"/><ellipse cx="792" cy="1276.5" fill="#EB937F" rx="11" ry="11" style="stroke:#181818;stroke-width:1.0;"/><path d="M790.8594,1277.2969 L790.8594,1279.7969 L795.1875,1279.7969 L795.1875,1278.875 Q795.1875,1278.2656 795.4219,1278 Q795.6719,1277.7344 796.0469,1277.7344 Q796.4219,1277.7344 796.6563,1278 Q796.8906,1278.2656 796.8906,1278.875 L796.8906,1281.5 L788.8906,1281.5 Q788.2656,1281.5 788,1281.2656 Q787.75,1281.0313 787.75,1280.6406 Q787.75,1280.2656 788.0156,1280.0313 Q788.2813,1279.7969 788.8906,1279.7969 L789.1563,1279.7969 L789.1563,1273.1406 L788.8906,1273.1406 Q788.2656,1273.1406 788,1272.9063 Q787.75,1272.6719 787.75,1272.2813 Q787.75,1271.9063 788,1271.6719 Q788.2656,1271.4375 788.8906,1271.4375 L796.5156,1271.4375 L796.5156,1274.0313 Q796.5156,1274.6406 796.2813,1274.9063 Q796.0625,1275.1563 795.6719,1275.1563 Q795.2969,1275.1563 795.0625,1274.9063 Q794.8281,1274.6406 794.8281,1274.0313 L794.8281,1273.1406 L790.8594,1273.1406 L790.8594,1275.5938 L792.3438,1275.5938 Q792.3438,1274.9375 792.4688,1274.75 Q792.7344,1274.3438 793.2031,1274.3438 Q793.5781,1274.3438 793.8125,1274.6094 Q794.0469,1274.8594 794.0469,1275.4688 L794.0469,1277.4375 Q794.0469,1277.9844 793.9219,1278.1719 Q793.6563,1278.5625 793.2031,1278.5625 Q792.7344,1278.5625 792.4688,1278.1563 Q792.3438,1277.9688 792.3438,1277.2969 L790.8594,1277.2969 Z " fill="#000000"/><text fill="#000000" font-family="sans-serif" font-size="14" lengthAdjust="spacing" textLength="92" x="806" y="1282.2969">CompanyType</text><line style="stroke:#181818;stroke-width:0.5;" x1="778" x2="900" y1="1292.5" y2="1292.5"/><text fill="#000000" font-family="sans-serif" font-size="14" lengthAdjust="spacing" textLength="73" x="783" y="1311.6074">INDIVIDUAL</text><text fill="#000000" font-family="sans-serif" font-size="14" lengthAdjust="spacing" textLength="68" x="783" y="1330.2285">COMPANY</text><line style="stroke:#181818;stroke-width:0.5;" x1="778" x2="900" y1="1337.7422" y2="1337.7422"/></g><!--link RegisterClientUI to ClientController--><g id="link_RegisterClientUI_ClientController"><path codeLine="73" d="M719,92.19 C719,114.94 719,144.16 719,171.79 " fill="none" id="RegisterClientUI-to-ClientController" style="stroke:#181818;stroke-width:1.0;stroke-dasharray:7.0,7.0;"/><polygon fill="#181818" points="719,177.79,723,168.79,719,172.79,715,168.79,719,177.79" style="stroke:#181818;stroke-width:1.0;"/></g><!--link ClientController to ClientService--><g id="link_ClientController_ClientService"><path codeLine="74" d="M719,263.28 C719,289.37 719,316.85 719,342.91 " fill="none" id="ClientController-to-ClientService" style="stroke:#181818;stroke-width:1.0;stroke-dasharray:7.0,7.0;"/><polygon fill="#181818" points="719,348.91,723,339.91,719,343.91,715,339.91,719,348.91" style="stroke:#181818;stroke-width:1.0;"/></g><!--link ClientService to Repositories--><g id="link_ClientService_Repositories"><path codeLine="75" d="M563.42,434.08 C501.2,450.71 444,466 444,466 C444,466 391.4048,499.872 337.2448,534.742 " fill="none" id="ClientService-to-Repositories" style="stroke:#181818;stroke-width:1.0;stroke-dasharray:7.0,7.0;"/><polygon fill="#181818" points="332.2,537.99,341.9326,536.4812,336.404,535.2833,337.6019,529.7547,332.2,537.99" style="stroke:#181818;stroke-width:1.0;"/><text fill="#000000" font-family="sans-serif" font-size="13" lengthAdjust="spacing" textLength="67" x="445" y="481.0283">repositories</text></g><!--link ClientService to ClientRepository--><g id="link_ClientService_ClientRepository"><path codeLine="76" d="M711.33,434.29 C697.85,507.64 671.0836,653.4087 656.4836,732.9187 " fill="none" id="ClientService-to-ClientRepository" style="stroke:#181818;stroke-width:1.0;stroke-dasharray:7.0,7.0;"/><polygon fill="#181818" points="655.4,738.82,660.9597,730.6904,656.303,733.9022,653.0912,729.2456,655.4,738.82" style="stroke:#181818;stroke-width:1.0;"/><text fill="#000000" font-family="sans-serif" font-size="13" lengthAdjust="spacing" textLength="93" x="701" y="604.5283">clientRepository</text></g><!--link ClientService to AddressRepository--><g id="link_ClientService_AddressRepository"><path codeLine="77" d="M649.63,434.25 C603.74,461.86 552,493 552,493 C552,493 517,709 517,709 C517,709 475.719,721.0766 420.399,737.2466 " fill="none" id="ClientService-to-AddressRepository" style="stroke:#181818;stroke-width:1.0;stroke-dasharray:7.0,7.0;"/><polygon fill="#181818" points="414.64,738.93,424.4008,740.2443,419.4392,737.5272,422.1563,732.5656,414.64,738.93" style="stroke:#181818;stroke-width:1.0;"/><text fill="#000000" font-family="sans-serif" font-size="13" lengthAdjust="spacing" textLength="108" x="553" y="604.5283">addressRepository</text></g><!--link ClientService to Client--><g id="link_ClientService_Client"><path codeLine="78" d="M759.29,434.25 C785.94,461.86 816,493 816,493 C816,493 816,867 816,867 C816,867 789.6132,900.9436 757.5432,942.1836 " fill="none" id="ClientService-to-Client" style="stroke:#181818;stroke-width:1.0;stroke-dasharray:7.0,7.0;"/><polygon fill="#181818" points="753.86,946.92,762.5425,942.2709,756.9294,942.973,756.2273,937.3599,753.86,946.92" style="stroke:#181818;stroke-width:1.0;"/><text fill="#000000" font-family="sans-serif" font-size="13" lengthAdjust="spacing" textLength="31" x="817" y="705.0283">client</text></g><!--link ClientService to Address--><g id="link_ClientService_Address"><path codeLine="79" d="M779.12,434.19 C803.05,450.78 825,466 825,466 C825,466 955,598 955,598 C955,598 955,598 955,1046.5 C955,1046.5 908,1144 908,1144 C908,1144 828.4057,1184.5653 747.4557,1225.8253 " fill="none" id="ClientService-to-Address" style="stroke:#181818;stroke-width:1.0;stroke-dasharray:7.0,7.0;"/><polygon fill="#181818" points="742.11,1228.55,751.9449,1228.0268,746.5647,1226.2794,748.3121,1220.8992,742.11,1228.55" style="stroke:#181818;stroke-width:1.0;"/><text fill="#000000" font-family="sans-serif" font-size="13" lengthAdjust="spacing" textLength="46" x="956" y="796.5283">address</text></g><!--link Repositories to Repositories--><g id="link_Repositories_Repositories"><path codeLine="80" d="M390.07,582.27 C411.01,585.02 425,590.6 425,599 C425,607.4 416.9589,612.1987 396.0189,614.9487 " fill="none" id="Repositories-to-Repositories" style="stroke:#181818;stroke-width:1.0;"/><polygon fill="#181818" points="390.07,615.73,399.5142,618.5241,395.0274,615.079,398.4725,610.5922,390.07,615.73" style="stroke:#181818;stroke-width:1.0;"/><text fill="#000000" font-family="sans-serif" font-size="13" lengthAdjust="spacing" textLength="49" x="431" y="604.5283">instance</text></g><!--link Repositories to ClientRepository--><g id="link_Repositories_ClientRepository"><path codeLine="81" d="M367.78,660.12 C422.04,685.45 479.0934,712.0815 531.0934,736.3615 " fill="none" id="Repositories-to-ClientRepository" style="stroke:#181818;stroke-width:1.0;"/><polygon fill="#181818" points="536.53,738.9,530.0675,731.4679,531.9995,736.7846,526.6828,738.7167,536.53,738.9" style="stroke:#181818;stroke-width:1.0;"/><text fill="#000000" font-family="sans-serif" font-size="13" lengthAdjust="spacing" textLength="93" x="467" y="705.0283">clientRepository</text><text fill="#000000" font-family="sans-serif" font-size="13" lengthAdjust="spacing" textLength="7" x="376.0485" y="682.6215">1</text><text fill="#000000" font-family="sans-serif" font-size="13" lengthAdjust="spacing" textLength="7" x="514.3497" y="727.8139">1</text></g><!--link Repositories to AddressRepository--><g id="link_Repositories_AddressRepository"><path codeLine="82" d="M239.32,660.12 C239.45,685.45 239.5679,708.6201 239.6979,732.9001 " fill="none" id="Repositories-to-AddressRepository" style="stroke:#181818;stroke-width:1.0;"/><polygon fill="#181818" points="239.73,738.9,243.6818,729.8787,239.7032,733.9001,235.6819,729.9215,239.73,738.9" style="stroke:#181818;stroke-width:1.0;"/><text fill="#000000" font-family="sans-serif" font-size="13" lengthAdjust="spacing" textLength="108" x="241" y="705.0283">addressRepository</text><text fill="#000000" font-family="sans-serif" font-size="13" lengthAdjust="spacing" textLength="7" x="231.9324" y="682.6215">1</text><text fill="#000000" font-family="sans-serif" font-size="13" lengthAdjust="spacing" textLength="7" x="232.2234" y="727.8139">1</text></g><!--link ClientRepository to Client--><g id="link_ClientRepository_Client"><path codeLine="83" d="M652.48,843.1 C656.26,872.93 660.3959,905.6076 664.8859,941.0476 " fill="none" id="ClientRepository-to-Client" style="stroke:#181818;stroke-width:1.0;"/><polygon fill="#181818" points="665.64,947,668.4771,937.5686,665.0116,942.0397,660.5405,938.5741,665.64,947" style="stroke:#181818;stroke-width:1.0;"/><text fill="#000000" font-family="sans-serif" font-size="13" lengthAdjust="spacing" textLength="60" x="659" y="890.0283">categories</text><text fill="#000000" font-family="sans-serif" font-size="13" lengthAdjust="spacing" textLength="7" x="645.8618" y="864.9201">1</text><text fill="#000000" font-family="sans-serif" font-size="13" lengthAdjust="spacing" textLength="5" x="659.5023" y="935.8485">*</text></g><!--link AddressRepository to Address--><g id="link_AddressRepository_Address"><path codeLine="84" d="M261.23,843.18 C301.72,940.81 386,1144 386,1144 C386,1144 433.9789,1179.7649 486.8789,1219.1849 " fill="none" id="AddressRepository-to-Address" style="stroke:#181818;stroke-width:1.0;"/><polygon fill="#181818" points="491.69,1222.77,486.8634,1214.1849,487.6807,1219.7824,482.0832,1220.5997,491.69,1222.77" style="stroke:#181818;stroke-width:1.0;"/><text fill="#000000" font-family="sans-serif" font-size="13" lengthAdjust="spacing" textLength="60" x="387" y="1051.0283">categories</text><text fill="#000000" font-family="sans-serif" font-size="13" lengthAdjust="spacing" textLength="7" x="256.5017" y="865.0103">1</text><text fill="#000000" font-family="sans-serif" font-size="13" lengthAdjust="spacing" textLength="5" x="476.6591" y="1211.6445">*</text></g><!--link Client to Address--><g id="link_Client_Address"><path codeLine="85" d="M647.41,1144.19 C639.3,1170.11 632.4225,1192.054 624.6525,1216.874 " fill="none" id="Client-to-Address" style="stroke:#181818;stroke-width:1.0;"/><polygon fill="#181818" points="622.86,1222.6,629.3661,1215.2061,624.3538,1217.8284,621.7315,1212.816,622.86,1222.6" style="stroke:#181818;stroke-width:1.0;"/><text fill="#000000" font-family="sans-serif" font-size="13" lengthAdjust="spacing" textLength="21" x="639" y="1189.0283">has</text><text fill="#000000" font-family="sans-serif" font-size="13" lengthAdjust="spacing" textLength="5" x="639.98" y="1166.1019">*</text><text fill="#000000" font-family="sans-serif" font-size="13" lengthAdjust="spacing" textLength="7" x="617.7624" y="1211.7358">1</text></g><!--link Client to CompanyType--><g id="link_Client_CompanyType"><path codeLine="86" d="M739.56,1144.19 C764.94,1184.48 789.801,1223.9239 809.621,1255.3739 " fill="none" id="Client-to-CompanyType" style="stroke:#181818;stroke-width:1.0;"/><polygon fill="#181818" points="812.82,1260.45,811.4056,1250.7032,810.1542,1256.2199,804.6375,1254.9685,812.82,1260.45" style="stroke:#181818;stroke-width:1.0;"/><text fill="#000000" font-family="sans-serif" font-size="13" lengthAdjust="spacing" textLength="21" x="769" y="1189.0283">has</text><text fill="#000000" font-family="sans-serif" font-size="13" lengthAdjust="spacing" textLength="5" x="738.8972" y="1166.1019">*</text><text fill="#000000" font-family="sans-serif" font-size="13" lengthAdjust="spacing" textLength="7" x="801.0898" y="1249.3461">1</text></g><!--SRC=[pLN1Rjim3BtxAuISqjKfjcim50YI7GoqsT0i0tPKRDOHAak6fAHBX_xxP5k9Q4jkjzjyCKm-YdpK8wsVcAYfeXMfQVv4IzYO4mUY83TKb1mIVG7eFItaCnCbUQHSOmzd0iof1b9BVce-a2_dLEk5COhj3WQoN8eDUm7oCKbSGZBPPXFoEo7sQS7a0Kgc3QWbPo3CDdFEr-GL1IsbC4fo3geVt0LvhtCsptK9Pi5vXz3JAp8dTpRHvyvmwt6gLy0qRr_PAYM2Lf2I8pLCf4GR1M1IyiBgfIoitSXdQyxbmUO-fQJUIm7hGxK3bHAeAECMOhlKvErEZj3QW3go76ASd6j0wBzcym2rrCn8THhUiBCpq8ZF3DkdLpsUcT1MaJcqH34kqWsVTkhByyQ-88f2WTQ3aC3go0MNuX6XqAPMxC8E4fDY_7OkHN_vPVqQnTZckwjgedTISg321sfwX0XwYEtL7D32HJyoKJX0xzotbO6w5Ulhia4D6i6SLk8qQ1SOyi32khU5yDYGO3MTspT8ENCP8eNFcf6mzerTLwBqvdP68dOq5CCaxOX4GjezQJKfgvgAqtVxvNinCg6ktikeZexYw8NZhh1YM6ftmP5QtOt7M5W9HCnE4w7d-YmiLhmhACm2nA72lK94ilKg-v6jjekxYsdvzVxROltJwoNuazpSt0P_Y2JuPNYKsxb9VmCt_juAcziV9jf88JfO5dCthcZ3X57XkCxFOdWppet2ESVuoVwyfCTdDWi8ChT_-y39fqaBRjv_mt4q-5-e8j3bY0yJn9eQABkR28_54RuBACGTq_W7nLdSdaO1MA4Tw0y0]--></g></svg>