<?xml version="1.0" encoding="us-ascii" standalone="no"?><svg xmlns="http://www.w3.org/2000/svg" xmlns:xlink="http://www.w3.org/1999/xlink" contentStyleType="text/css" height="843px" preserveAspectRatio="none" style="width:1015px;height:843px;background:#FFFFFF;" version="1.1" viewBox="0 0 1015 843" width="1015.8px" zoomAndPan="magnify"><defs/><g><!--cluster UI--><g id="cluster_UI"><rect fill="none" height="60.6" rx="1.5" ry="1.5" style="stroke:#000000;stroke-width:0.8999999999999999;" width="99.6" x="554.4" y="4.2"/><text fill="#000000" font-family="sans-serif" font-size="8.4" font-weight="bold" lengthAdjust="spacing" textLength="8.4" x="600" y="14.4645">UI</text></g><!--cluster Controller--><g id="cluster_Controller"><rect fill="none" height="82.8" rx="1.5" ry="1.5" style="stroke:#000000;stroke-width:0.8999999999999999;" width="414" x="397.2" y="84.6"/><text fill="#000000" font-family="sans-serif" font-size="8.4" font-weight="bold" lengthAdjust="spacing" textLength="42.6" x="582.9" y="94.8645">Controller</text></g><!--cluster Service--><g id="cluster_Service"><rect fill="none" height="82.8" rx="1.5" ry="1.5" style="stroke:#000000;stroke-width:0.8999999999999999;" width="414" x="397.2" y="187.2"/><text fill="#000000" font-family="sans-serif" font-size="8.4" font-weight="bold" lengthAdjust="spacing" textLength="32.4" x="588" y="197.4645">Service</text></g><!--cluster Repository--><g id="cluster_Repository"><rect fill="none" height="214.8" rx="1.5" ry="1.5" style="stroke:#000000;stroke-width:0.8999999999999999;" width="485.4" x="4.2" y="300.6"/><text fill="#000000" font-family="sans-serif" font-size="8.4" font-weight="bold" lengthAdjust="spacing" textLength="45.6" x="224.1" y="310.8645">Repository</text></g><!--cluster Model--><g id="cluster_Model"><rect fill="none" height="293.4" rx="1.5" ry="1.5" style="stroke:#000000;stroke-width:0.8999999999999999;" width="287.4" x="405.6" y="546"/><text fill="#000000" font-family="sans-serif" font-size="8.4" font-weight="bold" lengthAdjust="spacing" textLength="26.4" x="536.1" y="556.2645">Model</text></g><!--cluster Exception--><g id="cluster_Exception"><rect fill="none" height="198" rx="1.5" ry="1.5" style="stroke:#000000;stroke-width:0.8999999999999999;" width="200.4" x="504" y="300.6"/><text fill="#000000" font-family="sans-serif" font-size="8.4" font-weight="bold" lengthAdjust="spacing" textLength="42" x="583.2" y="310.8645">Exception</text></g><!--cluster Commom--><g id="cluster_Commom"><rect fill="none" height="94.2" rx="1.5" ry="1.5" style="stroke:#000000;stroke-width:0.8999999999999999;" width="207.6" x="804.6" y="306"/><text fill="#000000" font-family="sans-serif" font-size="8.4" font-weight="bold" lengthAdjust="spacing" textLength="38.4" x="889.2" y="316.2645">Commom</text></g><!--class RegisterClientUI--><g id="elem_RegisterClientUI"><rect codeLine="7" fill="#F1F1F1" height="28.8" id="RegisterClientUI" rx="1.5" ry="1.5" style="stroke:#181818;stroke-width:0.3;" width="79.8" x="564.3" y="26.4"/><ellipse cx="573.3" cy="36" fill="#ADD1B2" rx="6.6" ry="6.6" style="stroke:#181818;stroke-width:0.6;"/><path d="M574.9594,33.525 Q575.0531,33.3938 575.1656,33.3281 Q575.2781,33.2625 575.4094,33.2625 Q575.6344,33.2625 575.775,33.4219 Q575.9156,33.5719 575.9156,33.9375 L575.9156,34.8094 Q575.9156,35.175 575.775,35.3344 Q575.6344,35.4938 575.4094,35.4938 Q575.2031,35.4938 575.0813,35.3719 Q574.9594,35.2594 574.8938,34.95 Q574.8656,34.7344 574.7531,34.6219 Q574.5563,34.3969 574.1906,34.2656 Q573.825,34.1344 573.45,34.1344 Q572.9906,34.1344 572.6062,34.3313 Q572.2312,34.5281 571.9313,34.9781 Q571.6406,35.4281 571.6406,36.0469 L571.6406,36.7031 Q571.6406,37.4438 572.175,37.9406 Q572.7094,38.4281 573.6656,38.4281 Q574.2281,38.4281 574.6219,38.2781 Q574.8562,38.1844 575.1094,37.9219 Q575.2688,37.7625 575.3531,37.7156 Q575.4469,37.6687 575.5688,37.6687 Q575.7656,37.6687 575.9156,37.8281 Q576.075,37.9781 576.075,38.1844 Q576.075,38.3906 575.8688,38.6344 Q575.5688,38.9812 575.0906,39.1781 Q574.4438,39.45 573.6656,39.45 Q572.7563,39.45 572.0344,39.075 Q571.4438,38.775 571.0313,38.1375 Q570.6188,37.4906 570.6188,36.7219 L570.6188,36.0281 Q570.6188,35.2312 570.9844,34.5469 Q571.3594,33.8531 572.0156,33.4875 Q572.6719,33.1125 573.4125,33.1125 Q573.8531,33.1125 574.2375,33.2156 Q574.6313,33.3094 574.9594,33.525 Z " fill="#000000"/><text fill="#000000" font-family="sans-serif" font-size="8.4" lengthAdjust="spacing" textLength="60.6" x="581.7" y="39.4781">RegisterClientUI</text><line style="stroke:#181818;stroke-width:0.3;" x1="564.9" x2="643.5" y1="45.6" y2="45.6"/><line style="stroke:#181818;stroke-width:0.3;" x1="564.9" x2="643.5" y1="50.4" y2="50.4"/></g><!--class ClientController--><g id="elem_ClientController"><rect codeLine="12" fill="#F1F1F1" height="51.1453" id="ClientController" rx="1.5" ry="1.5" style="stroke:#181818;stroke-width:0.3;" width="394.2" x="407.1" y="106.8"/><ellipse cx="572.25" cy="116.4" fill="#ADD1B2" rx="6.6" ry="6.6" style="stroke:#181818;stroke-width:0.6;"/><path d="M573.9094,113.925 Q574.0031,113.7938 574.1156,113.7281 Q574.2281,113.6625 574.3594,113.6625 Q574.5844,113.6625 574.725,113.8219 Q574.8656,113.9719 574.8656,114.3375 L574.8656,115.2094 Q574.8656,115.575 574.725,115.7344 Q574.5844,115.8938 574.3594,115.8938 Q574.1531,115.8938 574.0313,115.7719 Q573.9094,115.6594 573.8438,115.35 Q573.8156,115.1344 573.7031,115.0219 Q573.5063,114.7969 573.1406,114.6656 Q572.775,114.5344 572.4,114.5344 Q571.9406,114.5344 571.5563,114.7313 Q571.1813,114.9281 570.8813,115.3781 Q570.5906,115.8281 570.5906,116.4469 L570.5906,117.1031 Q570.5906,117.8438 571.125,118.3406 Q571.6594,118.8281 572.6156,118.8281 Q573.1781,118.8281 573.5719,118.6781 Q573.8063,118.5844 574.0594,118.3219 Q574.2188,118.1625 574.3031,118.1156 Q574.3969,118.0688 574.5188,118.0688 Q574.7156,118.0688 574.8656,118.2281 Q575.025,118.3781 575.025,118.5844 Q575.025,118.7906 574.8188,119.0344 Q574.5188,119.3813 574.0406,119.5781 Q573.3938,119.85 572.6156,119.85 Q571.7063,119.85 570.9844,119.475 Q570.3938,119.175 569.9812,118.5375 Q569.5688,117.8906 569.5688,117.1219 L569.5688,116.4281 Q569.5688,115.6313 569.9344,114.9469 Q570.3094,114.2531 570.9656,113.8875 Q571.6219,113.5125 572.3625,113.5125 Q572.8031,113.5125 573.1875,113.6156 Q573.5813,113.7094 573.9094,113.925 Z " fill="#000000"/><text fill="#000000" font-family="sans-serif" font-size="8.4" lengthAdjust="spacing" textLength="58.8" x="584.55" y="119.8781">ClientController</text><line style="stroke:#181818;stroke-width:0.3;" x1="407.7" x2="800.7" y1="126" y2="126"/><line style="stroke:#181818;stroke-width:0.3;" x1="407.7" x2="800.7" y1="130.8" y2="130.8"/><text fill="#000000" font-family="sans-serif" font-size="8.4" lengthAdjust="spacing" textLength="109.2" x="410.7" y="142.2645">+getAllClients() : List&lt;Client&gt;</text><text fill="#000000" font-family="sans-serif" font-size="8.4" lengthAdjust="spacing" textLength="387" x="410.7" y="153.4371">+registerClient(clientID, name, vatin, street, zipCode, town, country, phoneNumber, email, type) : Client</text></g><!--class ClientService--><g id="elem_ClientService"><rect codeLine="19" fill="#F1F1F1" height="51.1453" id="ClientService" rx="1.5" ry="1.5" style="stroke:#181818;stroke-width:0.3;" width="394.2" x="407.1" y="209.4"/><ellipse cx="576.75" cy="219" fill="#ADD1B2" rx="6.6" ry="6.6" style="stroke:#181818;stroke-width:0.6;"/><path d="M578.4094,216.525 Q578.5031,216.3937 578.6156,216.3281 Q578.7281,216.2625 578.8594,216.2625 Q579.0844,216.2625 579.225,216.4219 Q579.3656,216.5719 579.3656,216.9375 L579.3656,217.8094 Q579.3656,218.175 579.225,218.3344 Q579.0844,218.4938 578.8594,218.4938 Q578.6531,218.4938 578.5313,218.3719 Q578.4094,218.2594 578.3438,217.95 Q578.3156,217.7344 578.2031,217.6219 Q578.0063,217.3969 577.6406,217.2656 Q577.275,217.1344 576.9,217.1344 Q576.4406,217.1344 576.0563,217.3312 Q575.6813,217.5281 575.3813,217.9781 Q575.0906,218.4281 575.0906,219.0469 L575.0906,219.7031 Q575.0906,220.4438 575.625,220.9406 Q576.1594,221.4281 577.1156,221.4281 Q577.6781,221.4281 578.0719,221.2781 Q578.3063,221.1844 578.5594,220.9219 Q578.7188,220.7625 578.8031,220.7156 Q578.8969,220.6688 579.0188,220.6688 Q579.2156,220.6688 579.3656,220.8281 Q579.525,220.9781 579.525,221.1844 Q579.525,221.3906 579.3188,221.6344 Q579.0188,221.9813 578.5406,222.1781 Q577.8938,222.45 577.1156,222.45 Q576.2063,222.45 575.4844,222.075 Q574.8938,221.775 574.4812,221.1375 Q574.0688,220.4906 574.0688,219.7219 L574.0688,219.0281 Q574.0688,218.2313 574.4344,217.5469 Q574.8094,216.8531 575.4656,216.4875 Q576.1219,216.1125 576.8625,216.1125 Q577.3031,216.1125 577.6875,216.2156 Q578.0813,216.3094 578.4094,216.525 Z " fill="#000000"/><text fill="#000000" font-family="sans-serif" font-size="8.4" lengthAdjust="spacing" textLength="49.8" x="589.05" y="222.4781">ClientService</text><line style="stroke:#181818;stroke-width:0.3;" x1="407.7" x2="800.7" y1="228.6" y2="228.6"/><line style="stroke:#181818;stroke-width:0.3;" x1="407.7" x2="800.7" y1="233.4" y2="233.4"/><text fill="#000000" font-family="sans-serif" font-size="8.4" lengthAdjust="spacing" textLength="100.2" x="410.7" y="244.8645">+getClients() : List&lt;Client&gt;</text><text fill="#000000" font-family="sans-serif" font-size="8.4" lengthAdjust="spacing" textLength="387" x="410.7" y="256.0371">+registerClient(clientID, name, vatin, street, zipCode, town, country, phoneNumber, email, type) : Client</text></g><!--class Repositories--><g id="elem_Repositories"><rect codeLine="26" fill="#F1F1F1" height="73.4906" id="Repositories" rx="1.5" ry="1.5" style="stroke:#181818;stroke-width:0.3;" width="181.2" x="57" y="322.8"/><ellipse cx="121.35" cy="332.4" fill="#ADD1B2" rx="6.6" ry="6.6" style="stroke:#181818;stroke-width:0.6;"/><path d="M123.0094,329.925 Q123.1031,329.7938 123.2156,329.7281 Q123.3281,329.6625 123.4594,329.6625 Q123.6844,329.6625 123.825,329.8219 Q123.9656,329.9719 123.9656,330.3375 L123.9656,331.2094 Q123.9656,331.575 123.825,331.7344 Q123.6844,331.8938 123.4594,331.8938 Q123.2531,331.8938 123.1313,331.7719 Q123.0094,331.6594 122.9438,331.35 Q122.9156,331.1344 122.8031,331.0219 Q122.6062,330.7969 122.2406,330.6656 Q121.875,330.5344 121.5,330.5344 Q121.0406,330.5344 120.6563,330.7313 Q120.2813,330.9281 119.9812,331.3781 Q119.6906,331.8281 119.6906,332.4469 L119.6906,333.1031 Q119.6906,333.8438 120.225,334.3406 Q120.7594,334.8281 121.7156,334.8281 Q122.2781,334.8281 122.6719,334.6781 Q122.9063,334.5844 123.1594,334.3219 Q123.3188,334.1625 123.4031,334.1156 Q123.4969,334.0687 123.6187,334.0687 Q123.8156,334.0687 123.9656,334.2281 Q124.125,334.3781 124.125,334.5844 Q124.125,334.7906 123.9187,335.0344 Q123.6187,335.3812 123.1406,335.5781 Q122.4937,335.85 121.7156,335.85 Q120.8062,335.85 120.0844,335.475 Q119.4937,335.175 119.0813,334.5375 Q118.6687,333.8906 118.6687,333.1219 L118.6687,332.4281 Q118.6687,331.6312 119.0344,330.9469 Q119.4094,330.2531 120.0656,329.8875 Q120.7219,329.5125 121.4625,329.5125 Q121.9031,329.5125 122.2875,329.6156 Q122.6812,329.7094 123.0094,329.925 Z " fill="#000000"/><text fill="#000000" font-family="sans-serif" font-size="8.4" lengthAdjust="spacing" textLength="47.4" x="133.65" y="335.8781">Repositories</text><line style="stroke:#181818;stroke-width:0.3;" x1="57.6" x2="237.6" y1="342" y2="342"/><line style="stroke:#181818;stroke-width:0.3;" x1="57.6" x2="237.6" y1="346.8" y2="346.8"/><text fill="#000000" font-family="sans-serif" font-size="8.4" lengthAdjust="spacing" textLength="56.4" x="60.6" y="358.2645">-Repositories()</text><text fill="#000000" font-family="sans-serif" font-size="8.4" lengthAdjust="spacing" textLength="109.2" x="60.6" y="369.4371">+getInstance() : Repositories</text><text fill="#000000" font-family="sans-serif" font-size="8.4" lengthAdjust="spacing" textLength="154.8" x="60.6" y="380.6098">+getClientRepository() : ClientRepository</text><text fill="#000000" font-family="sans-serif" font-size="8.4" lengthAdjust="spacing" textLength="174" x="60.6" y="391.7824">+getAddressRepository() : AddressRepository</text></g><!--class ClientRepository--><g id="elem_ClientRepository"><rect codeLine="33" fill="#F1F1F1" height="62.318" id="ClientRepository" rx="1.5" ry="1.5" style="stroke:#181818;stroke-width:0.3;" width="184.8" x="295.2" y="443.4"/><ellipse cx="353.85" cy="453" fill="#ADD1B2" rx="6.6" ry="6.6" style="stroke:#181818;stroke-width:0.6;"/><path d="M355.5094,450.525 Q355.6031,450.3938 355.7156,450.3281 Q355.8281,450.2625 355.9594,450.2625 Q356.1844,450.2625 356.325,450.4219 Q356.4656,450.5719 356.4656,450.9375 L356.4656,451.8094 Q356.4656,452.175 356.325,452.3344 Q356.1844,452.4938 355.9594,452.4938 Q355.7531,452.4938 355.6312,452.3719 Q355.5094,452.2594 355.4437,451.95 Q355.4156,451.7344 355.3031,451.6219 Q355.1063,451.3969 354.7406,451.2656 Q354.375,451.1344 354,451.1344 Q353.5406,451.1344 353.1563,451.3313 Q352.7813,451.5281 352.4813,451.9781 Q352.1906,452.4281 352.1906,453.0469 L352.1906,453.7031 Q352.1906,454.4437 352.725,454.9406 Q353.2594,455.4281 354.2156,455.4281 Q354.7781,455.4281 355.1719,455.2781 Q355.4063,455.1844 355.6594,454.9219 Q355.8187,454.7625 355.9031,454.7156 Q355.9969,454.6688 356.1188,454.6688 Q356.3156,454.6688 356.4656,454.8281 Q356.625,454.9781 356.625,455.1844 Q356.625,455.3906 356.4188,455.6344 Q356.1188,455.9813 355.6406,456.1781 Q354.9938,456.45 354.2156,456.45 Q353.3063,456.45 352.5844,456.075 Q351.9938,455.775 351.5813,455.1375 Q351.1688,454.4906 351.1688,453.7219 L351.1688,453.0281 Q351.1688,452.2313 351.5344,451.5469 Q351.9094,450.8531 352.5656,450.4875 Q353.2219,450.1125 353.9625,450.1125 Q354.4031,450.1125 354.7875,450.2156 Q355.1813,450.3094 355.5094,450.525 Z " fill="#000000"/><text fill="#000000" font-family="sans-serif" font-size="8.4" lengthAdjust="spacing" textLength="62.4" x="366.15" y="456.4781">ClientRepository</text><line style="stroke:#181818;stroke-width:0.3;" x1="295.8" x2="479.4" y1="462.6" y2="462.6"/><line style="stroke:#181818;stroke-width:0.3;" x1="295.8" x2="479.4" y1="467.4" y2="467.4"/><text fill="#000000" font-family="sans-serif" font-size="8.4" lengthAdjust="spacing" textLength="124.8" x="298.8" y="478.8645">+getAll(connection) : List&lt;Client&gt;</text><text fill="#000000" font-family="sans-serif" font-size="8.4" lengthAdjust="spacing" textLength="177.6" x="298.8" y="490.0371">+getClientExists(connection, clientID) : boolean</text><text fill="#000000" font-family="sans-serif" font-size="8.4" lengthAdjust="spacing" textLength="132.6" x="298.8" y="501.2098">+save(connection, client) : boolean</text></g><!--class AddressRepository--><g id="elem_AddressRepository"><rect codeLine="39" fill="#F1F1F1" height="62.318" id="AddressRepository" rx="1.5" ry="1.5" style="stroke:#181818;stroke-width:0.3;" width="259.8" x="14.1" y="443.4"/><ellipse cx="105.45" cy="453" fill="#ADD1B2" rx="6.6" ry="6.6" style="stroke:#181818;stroke-width:0.6;"/><path d="M107.1094,450.525 Q107.2031,450.3938 107.3156,450.3281 Q107.4281,450.2625 107.5594,450.2625 Q107.7844,450.2625 107.925,450.4219 Q108.0656,450.5719 108.0656,450.9375 L108.0656,451.8094 Q108.0656,452.175 107.925,452.3344 Q107.7844,452.4938 107.5594,452.4938 Q107.3531,452.4938 107.2313,452.3719 Q107.1094,452.2594 107.0438,451.95 Q107.0156,451.7344 106.9031,451.6219 Q106.7063,451.3969 106.3406,451.2656 Q105.975,451.1344 105.6,451.1344 Q105.1406,451.1344 104.7563,451.3313 Q104.3813,451.5281 104.0813,451.9781 Q103.7906,452.4281 103.7906,453.0469 L103.7906,453.7031 Q103.7906,454.4437 104.325,454.9406 Q104.8594,455.4281 105.8156,455.4281 Q106.3781,455.4281 106.7719,455.2781 Q107.0063,455.1844 107.2594,454.9219 Q107.4188,454.7625 107.5031,454.7156 Q107.5969,454.6688 107.7188,454.6688 Q107.9156,454.6688 108.0656,454.8281 Q108.225,454.9781 108.225,455.1844 Q108.225,455.3906 108.0188,455.6344 Q107.7188,455.9813 107.2406,456.1781 Q106.5938,456.45 105.8156,456.45 Q104.9063,456.45 104.1844,456.075 Q103.5938,455.775 103.1812,455.1375 Q102.7688,454.4906 102.7688,453.7219 L102.7688,453.0281 Q102.7688,452.2313 103.1344,451.5469 Q103.5094,450.8531 104.1656,450.4875 Q104.8219,450.1125 105.5625,450.1125 Q106.0031,450.1125 106.3875,450.2156 Q106.7813,450.3094 107.1094,450.525 Z " fill="#000000"/><text fill="#000000" font-family="sans-serif" font-size="8.4" lengthAdjust="spacing" textLength="72" x="117.75" y="456.4781">AddressRepository</text><line style="stroke:#181818;stroke-width:0.3;" x1="14.7" x2="273.3" y1="462.6" y2="462.6"/><line style="stroke:#181818;stroke-width:0.3;" x1="14.7" x2="273.3" y1="467.4" y2="467.4"/><text fill="#000000" font-family="sans-serif" font-size="8.4" lengthAdjust="spacing" textLength="252.6" x="17.7" y="478.8645">+findAddress(connection, street, zipCode, town, country) : Address</text><text fill="#000000" font-family="sans-serif" font-size="8.4" lengthAdjust="spacing" textLength="134.4" x="17.7" y="490.0371">+getAddressCount(connection) : int</text><text fill="#000000" font-family="sans-serif" font-size="8.4" lengthAdjust="spacing" textLength="143.4" x="17.7" y="501.2098">+save(connection, address) : boolean</text></g><!--class Client--><g id="elem_Client"><rect codeLine="47" fill="#F1F1F1" height="118.1812" id="Client" rx="1.5" ry="1.5" style="stroke:#181818;stroke-width:0.3;" width="255" x="422.1" y="568.2"/><ellipse cx="536.25" cy="577.8" fill="#ADD1B2" rx="6.6" ry="6.6" style="stroke:#181818;stroke-width:0.6;"/><path d="M537.9094,575.325 Q538.0031,575.1938 538.1156,575.1281 Q538.2281,575.0625 538.3594,575.0625 Q538.5844,575.0625 538.725,575.2219 Q538.8656,575.3719 538.8656,575.7375 L538.8656,576.6094 Q538.8656,576.975 538.725,577.1344 Q538.5844,577.2937 538.3594,577.2937 Q538.1531,577.2937 538.0313,577.1719 Q537.9094,577.0594 537.8438,576.75 Q537.8156,576.5344 537.7031,576.4219 Q537.5063,576.1969 537.1406,576.0656 Q536.775,575.9344 536.4,575.9344 Q535.9406,575.9344 535.5563,576.1313 Q535.1813,576.3281 534.8813,576.7781 Q534.5906,577.2281 534.5906,577.8469 L534.5906,578.5031 Q534.5906,579.2438 535.125,579.7406 Q535.6594,580.2281 536.6156,580.2281 Q537.1781,580.2281 537.5719,580.0781 Q537.8063,579.9844 538.0594,579.7219 Q538.2188,579.5625 538.3031,579.5156 Q538.3969,579.4688 538.5188,579.4688 Q538.7156,579.4688 538.8656,579.6281 Q539.025,579.7781 539.025,579.9844 Q539.025,580.1906 538.8188,580.4344 Q538.5188,580.7813 538.0406,580.9781 Q537.3938,581.25 536.6156,581.25 Q535.7063,581.25 534.9844,580.875 Q534.3938,580.575 533.9812,579.9375 Q533.5688,579.2906 533.5688,578.5219 L533.5688,577.8281 Q533.5688,577.0313 533.9344,576.3469 Q534.3094,575.6531 534.9656,575.2875 Q535.6219,574.9125 536.3625,574.9125 Q536.8031,574.9125 537.1875,575.0156 Q537.5813,575.1094 537.9094,575.325 Z " fill="#000000"/><text fill="#000000" font-family="sans-serif" font-size="8.4" lengthAdjust="spacing" textLength="21.6" x="548.55" y="581.2781">Client</text><line style="stroke:#181818;stroke-width:0.3;" x1="422.7" x2="676.5" y1="587.4" y2="587.4"/><text fill="#000000" font-family="sans-serif" font-size="8.4" lengthAdjust="spacing" textLength="46.8" x="425.7" y="598.8645">-clientID : int</text><text fill="#000000" font-family="sans-serif" font-size="8.4" lengthAdjust="spacing" textLength="72" x="425.7" y="610.0371">-address : Address</text><text fill="#000000" font-family="sans-serif" font-size="8.4" lengthAdjust="spacing" textLength="53.4" x="425.7" y="621.2098">-name : String</text><text fill="#000000" font-family="sans-serif" font-size="8.4" lengthAdjust="spacing" textLength="50.4" x="425.7" y="632.3824">-vatin : String</text><text fill="#000000" font-family="sans-serif" font-size="8.4" lengthAdjust="spacing" textLength="72.6" x="425.7" y="643.5551">-phoneNumber : int</text><text fill="#000000" font-family="sans-serif" font-size="8.4" lengthAdjust="spacing" textLength="52.2" x="425.7" y="654.7277">-email : String</text><text fill="#000000" font-family="sans-serif" font-size="8.4" lengthAdjust="spacing" textLength="81.6" x="425.7" y="665.9004">-type : CompanyType</text><line style="stroke:#181818;stroke-width:0.3;" x1="422.7" x2="676.5" y1="670.4086" y2="670.4086"/><text fill="#000000" font-family="sans-serif" font-size="8.4" lengthAdjust="spacing" textLength="247.8" x="425.7" y="681.873">+Client(clientID, name, address, vatin, phoneNumber, email, type)</text></g><!--class Address--><g id="elem_Address"><rect codeLine="58" fill="#F1F1F1" height="95.8359" id="Address" rx="1.5" ry="1.5" style="stroke:#181818;stroke-width:0.3;" width="172.8" x="415.2" y="733.8"/><ellipse cx="483.45" cy="743.4" fill="#ADD1B2" rx="6.6" ry="6.6" style="stroke:#181818;stroke-width:0.6;"/><path d="M485.1094,740.925 Q485.2031,740.7937 485.3156,740.7281 Q485.4281,740.6625 485.5594,740.6625 Q485.7844,740.6625 485.925,740.8219 Q486.0656,740.9719 486.0656,741.3375 L486.0656,742.2094 Q486.0656,742.575 485.925,742.7344 Q485.7844,742.8938 485.5594,742.8938 Q485.3531,742.8938 485.2313,742.7719 Q485.1094,742.6594 485.0438,742.35 Q485.0156,742.1344 484.9031,742.0219 Q484.7062,741.7969 484.3406,741.6656 Q483.975,741.5344 483.6,741.5344 Q483.1406,741.5344 482.7562,741.7312 Q482.3812,741.9281 482.0812,742.3781 Q481.7906,742.8281 481.7906,743.4469 L481.7906,744.1031 Q481.7906,744.8438 482.325,745.3406 Q482.8594,745.8281 483.8156,745.8281 Q484.3781,745.8281 484.7719,745.6781 Q485.0062,745.5844 485.2594,745.3219 Q485.4188,745.1625 485.5031,745.1156 Q485.5969,745.0688 485.7188,745.0688 Q485.9156,745.0688 486.0656,745.2281 Q486.225,745.3781 486.225,745.5844 Q486.225,745.7906 486.0187,746.0344 Q485.7188,746.3813 485.2406,746.5781 Q484.5938,746.85 483.8156,746.85 Q482.9063,746.85 482.1844,746.475 Q481.5938,746.175 481.1813,745.5375 Q480.7687,744.8906 480.7687,744.1219 L480.7687,743.4281 Q480.7687,742.6313 481.1344,741.9469 Q481.5094,741.2531 482.1656,740.8875 Q482.8219,740.5125 483.5625,740.5125 Q484.0031,740.5125 484.3875,740.6156 Q484.7813,740.7094 485.1094,740.925 Z " fill="#000000"/><text fill="#000000" font-family="sans-serif" font-size="8.4" lengthAdjust="spacing" textLength="31.2" x="495.75" y="746.8781">Address</text><line style="stroke:#181818;stroke-width:0.3;" x1="415.8" x2="587.4" y1="753" y2="753"/><text fill="#000000" font-family="sans-serif" font-size="8.4" lengthAdjust="spacing" textLength="25.8" x="418.8" y="764.4645">-id : int</text><text fill="#000000" font-family="sans-serif" font-size="8.4" lengthAdjust="spacing" textLength="54" x="418.8" y="775.6371">-street : String</text><text fill="#000000" font-family="sans-serif" font-size="8.4" lengthAdjust="spacing" textLength="63" x="418.8" y="786.8098">-zipCode : String</text><text fill="#000000" font-family="sans-serif" font-size="8.4" lengthAdjust="spacing" textLength="49.8" x="418.8" y="797.9824">-town : String</text><text fill="#000000" font-family="sans-serif" font-size="8.4" lengthAdjust="spacing" textLength="60.6" x="418.8" y="809.1551">-country : String</text><line style="stroke:#181818;stroke-width:0.3;" x1="415.8" x2="587.4" y1="813.6633" y2="813.6633"/><text fill="#000000" font-family="sans-serif" font-size="8.4" lengthAdjust="spacing" textLength="165.6" x="418.8" y="825.1277">+Address(id, street, zipCode, town, country)</text></g><!--class CompanyType--><g id="elem_CompanyType"><rect codeLine="67" fill="#F1F1F1" height="51.1453" id="CompanyType" rx="1.5" ry="1.5" style="stroke:#181818;stroke-width:0.3;" width="74.4" x="609" y="756.3"/><ellipse cx="618" cy="765.9" fill="#EB937F" rx="6.6" ry="6.6" style="stroke:#181818;stroke-width:0.6;"/><path d="M617.3156,766.3781 L617.3156,767.8781 L619.9125,767.8781 L619.9125,767.325 Q619.9125,766.9594 620.0531,766.8 Q620.2031,766.6406 620.4281,766.6406 Q620.6531,766.6406 620.7937,766.8 Q620.9344,766.9594 620.9344,767.325 L620.9344,768.9 L616.1344,768.9 Q615.7594,768.9 615.6,768.7594 Q615.45,768.6188 615.45,768.3844 Q615.45,768.1594 615.6094,768.0188 Q615.7688,767.8781 616.1344,767.8781 L616.2937,767.8781 L616.2937,763.8844 L616.1344,763.8844 Q615.7594,763.8844 615.6,763.7438 Q615.45,763.6031 615.45,763.3688 Q615.45,763.1438 615.6,763.0031 Q615.7594,762.8625 616.1344,762.8625 L620.7094,762.8625 L620.7094,764.4187 Q620.7094,764.7844 620.5688,764.9438 Q620.4375,765.0938 620.2031,765.0938 Q619.9781,765.0938 619.8375,764.9438 Q619.6969,764.7844 619.6969,764.4187 L619.6969,763.8844 L617.3156,763.8844 L617.3156,765.3562 L618.2063,765.3562 Q618.2063,764.9625 618.2813,764.85 Q618.4406,764.6062 618.7219,764.6062 Q618.9469,764.6062 619.0875,764.7656 Q619.2281,764.9156 619.2281,765.2813 L619.2281,766.4625 Q619.2281,766.7906 619.1531,766.9031 Q618.9938,767.1375 618.7219,767.1375 Q618.4406,767.1375 618.2813,766.8938 Q618.2063,766.7813 618.2063,766.3781 L617.3156,766.3781 Z " fill="#000000"/><text fill="#000000" font-family="sans-serif" font-size="8.4" lengthAdjust="spacing" textLength="55.2" x="626.4" y="769.3781">CompanyType</text><line style="stroke:#181818;stroke-width:0.3;" x1="609.6" x2="682.8" y1="775.5" y2="775.5"/><text fill="#000000" font-family="sans-serif" font-size="8.4" lengthAdjust="spacing" textLength="43.8" x="612.6" y="786.9645">INDIVIDUAL</text><text fill="#000000" font-family="sans-serif" font-size="8.4" lengthAdjust="spacing" textLength="40.8" x="612.6" y="798.1371">COMPANY</text><line style="stroke:#181818;stroke-width:0.3;" x1="609.6" x2="682.8" y1="802.6453" y2="802.6453"/></g><!--class ClientException--><g id="elem_ClientException"><rect codeLine="74" fill="#F1F1F1" height="73.4906" id="ClientException" rx="1.5" ry="1.5" style="stroke:#181818;stroke-width:0.3;" width="181.2" x="513.6" y="322.8"/><ellipse cx="572.55" cy="332.4" fill="#ADD1B2" rx="6.6" ry="6.6" style="stroke:#181818;stroke-width:0.6;"/><path d="M574.2094,329.925 Q574.3031,329.7938 574.4156,329.7281 Q574.5281,329.6625 574.6594,329.6625 Q574.8844,329.6625 575.025,329.8219 Q575.1656,329.9719 575.1656,330.3375 L575.1656,331.2094 Q575.1656,331.575 575.025,331.7344 Q574.8844,331.8938 574.6594,331.8938 Q574.4531,331.8938 574.3313,331.7719 Q574.2094,331.6594 574.1438,331.35 Q574.1156,331.1344 574.0031,331.0219 Q573.8063,330.7969 573.4406,330.6656 Q573.075,330.5344 572.7,330.5344 Q572.2406,330.5344 571.8562,330.7313 Q571.4812,330.9281 571.1813,331.3781 Q570.8906,331.8281 570.8906,332.4469 L570.8906,333.1031 Q570.8906,333.8438 571.425,334.3406 Q571.9594,334.8281 572.9156,334.8281 Q573.4781,334.8281 573.8719,334.6781 Q574.1062,334.5844 574.3594,334.3219 Q574.5188,334.1625 574.6031,334.1156 Q574.6969,334.0687 574.8188,334.0687 Q575.0156,334.0687 575.1656,334.2281 Q575.325,334.3781 575.325,334.5844 Q575.325,334.7906 575.1188,335.0344 Q574.8188,335.3812 574.3406,335.5781 Q573.6938,335.85 572.9156,335.85 Q572.0063,335.85 571.2844,335.475 Q570.6938,335.175 570.2813,334.5375 Q569.8688,333.8906 569.8688,333.1219 L569.8688,332.4281 Q569.8688,331.6312 570.2344,330.9469 Q570.6094,330.2531 571.2656,329.8875 Q571.9219,329.5125 572.6625,329.5125 Q573.1031,329.5125 573.4875,329.6156 Q573.8813,329.7094 574.2094,329.925 Z " fill="#000000"/><text fill="#000000" font-family="sans-serif" font-size="8.4" lengthAdjust="spacing" textLength="58.2" x="584.85" y="335.8781">ClientException</text><line style="stroke:#181818;stroke-width:0.3;" x1="514.2" x2="694.2" y1="342" y2="342"/><line style="stroke:#181818;stroke-width:0.3;" x1="514.2" x2="694.2" y1="346.8" y2="346.8"/><text fill="#000000" font-family="sans-serif" font-size="8.4" lengthAdjust="spacing" textLength="174" x="517.2" y="358.2645">+clientAlreadyExists(clientID) : ClientException</text><text fill="#000000" font-family="sans-serif" font-size="8.4" lengthAdjust="spacing" textLength="154.2" x="517.2" y="369.4371">+invalidPhoneNumber() : ClientException</text><text fill="#000000" font-family="sans-serif" font-size="8.4" lengthAdjust="spacing" textLength="132" x="517.2" y="380.6098">+invalidZipCode() : ClientException</text><text fill="#000000" font-family="sans-serif" font-size="8.4" lengthAdjust="spacing" textLength="147.6" x="517.2" y="391.7824">+invalidEmailFormat() : ClientException</text></g><!--class RuntimeException--><g id="elem_RuntimeException"><rect codeLine="81" fill="#F1F1F1" height="28.8" id="RuntimeException" rx="1.5" ry="1.5" style="stroke:#181818;stroke-width:0.3;" width="87" x="560.7" y="460.2"/><ellipse cx="569.7" cy="469.8" fill="#ADD1B2" rx="6.6" ry="6.6" style="stroke:#181818;stroke-width:0.6;"/><path d="M571.3594,467.325 Q571.4531,467.1937 571.5656,467.1281 Q571.6781,467.0625 571.8094,467.0625 Q572.0344,467.0625 572.175,467.2219 Q572.3156,467.3719 572.3156,467.7375 L572.3156,468.6094 Q572.3156,468.975 572.175,469.1344 Q572.0344,469.2938 571.8094,469.2938 Q571.6031,469.2938 571.4812,469.1719 Q571.3594,469.0594 571.2937,468.75 Q571.2656,468.5344 571.1531,468.4219 Q570.9563,468.1969 570.5906,468.0656 Q570.225,467.9344 569.85,467.9344 Q569.3906,467.9344 569.0063,468.1312 Q568.6313,468.3281 568.3313,468.7781 Q568.0406,469.2281 568.0406,469.8469 L568.0406,470.5031 Q568.0406,471.2438 568.575,471.7406 Q569.1094,472.2281 570.0656,472.2281 Q570.6281,472.2281 571.0219,472.0781 Q571.2563,471.9844 571.5094,471.7219 Q571.6687,471.5625 571.7531,471.5156 Q571.8469,471.4688 571.9688,471.4688 Q572.1656,471.4688 572.3156,471.6281 Q572.475,471.7781 572.475,471.9844 Q572.475,472.1906 572.2688,472.4344 Q571.9688,472.7813 571.4906,472.9781 Q570.8438,473.25 570.0656,473.25 Q569.1563,473.25 568.4344,472.875 Q567.8438,472.575 567.4313,471.9375 Q567.0188,471.2906 567.0188,470.5219 L567.0188,469.8281 Q567.0188,469.0313 567.3844,468.3469 Q567.7594,467.6531 568.4156,467.2875 Q569.0719,466.9125 569.8125,466.9125 Q570.2531,466.9125 570.6375,467.0156 Q571.0313,467.1094 571.3594,467.325 Z " fill="#000000"/><text fill="#000000" font-family="sans-serif" font-size="8.4" lengthAdjust="spacing" textLength="67.8" x="578.1" y="473.2781">RuntimeException</text><line style="stroke:#181818;stroke-width:0.3;" x1="561.3" x2="647.1" y1="479.4" y2="479.4"/><line style="stroke:#181818;stroke-width:0.3;" x1="561.3" x2="647.1" y1="484.2" y2="484.2"/></g><!--class Validator--><g id="elem_Validator"><rect codeLine="85" fill="#F1F1F1" height="62.318" id="Validator" rx="1.5" ry="1.5" style="stroke:#181818;stroke-width:0.3;" width="187.8" x="814.5" y="328.2"/><ellipse cx="889.05" cy="337.8" fill="#ADD1B2" rx="6.6" ry="6.6" style="stroke:#181818;stroke-width:0.6;"/><path d="M890.7094,335.325 Q890.8031,335.1937 890.9156,335.1281 Q891.0281,335.0625 891.1594,335.0625 Q891.3844,335.0625 891.525,335.2219 Q891.6656,335.3719 891.6656,335.7375 L891.6656,336.6094 Q891.6656,336.975 891.525,337.1344 Q891.3844,337.2938 891.1594,337.2938 Q890.9531,337.2938 890.8313,337.1719 Q890.7094,337.0594 890.6438,336.75 Q890.6156,336.5344 890.5031,336.4219 Q890.3063,336.1969 889.9406,336.0656 Q889.575,335.9344 889.2,335.9344 Q888.7406,335.9344 888.3562,336.1312 Q887.9812,336.3281 887.6813,336.7781 Q887.3906,337.2281 887.3906,337.8469 L887.3906,338.5031 Q887.3906,339.2438 887.925,339.7406 Q888.4594,340.2281 889.4156,340.2281 Q889.9781,340.2281 890.3719,340.0781 Q890.6062,339.9844 890.8594,339.7219 Q891.0188,339.5625 891.1031,339.5156 Q891.1969,339.4688 891.3188,339.4688 Q891.5156,339.4688 891.6656,339.6281 Q891.825,339.7781 891.825,339.9844 Q891.825,340.1906 891.6188,340.4344 Q891.3188,340.7813 890.8406,340.9781 Q890.1938,341.25 889.4156,341.25 Q888.5063,341.25 887.7844,340.875 Q887.1938,340.575 886.7813,339.9375 Q886.3688,339.2906 886.3688,338.5219 L886.3688,337.8281 Q886.3688,337.0313 886.7344,336.3469 Q887.1094,335.6531 887.7656,335.2875 Q888.4219,334.9125 889.1625,334.9125 Q889.6031,334.9125 889.9875,335.0156 Q890.3813,335.1094 890.7094,335.325 Z " fill="#000000"/><text fill="#000000" font-family="sans-serif" font-size="8.4" lengthAdjust="spacing" textLength="33.6" x="901.35" y="341.2781">Validator</text><line style="stroke:#181818;stroke-width:0.3;" x1="815.1" x2="1001.7" y1="347.4" y2="347.4"/><line style="stroke:#181818;stroke-width:0.3;" x1="815.1" x2="1001.7" y1="352.2" y2="352.2"/><text fill="#000000" font-family="sans-serif" font-size="8.4" lengthAdjust="spacing" textLength="180.6" x="818.1" y="363.6645">+isValidPhoneNumber(phoneNumber) : boolean</text><text fill="#000000" font-family="sans-serif" font-size="8.4" lengthAdjust="spacing" textLength="135.6" x="818.1" y="374.8371">+isValidZipCode(zipCode) : boolean</text><text fill="#000000" font-family="sans-serif" font-size="8.4" lengthAdjust="spacing" textLength="113.4" x="818.1" y="386.0098">+isValidEmail(email) : boolean</text></g><!--link RegisterClientUI to ClientController--><g id="link_RegisterClientUI_ClientController"><path codeLine="93" d="M604.2,55.314 C604.2,68.964 604.2,86.496 604.2,103.074 " fill="none" id="RegisterClientUI-to-ClientController" style="stroke:#181818;stroke-width:0.6;stroke-dasharray:7.0,7.0;"/><polygon fill="#181818" points="604.2,106.674,606.6,101.274,604.2,103.674,601.8,101.274,604.2,106.674" style="stroke:#181818;stroke-width:0.6;"/></g><!--link ClientController to ClientService--><g id="link_ClientController_ClientService"><path codeLine="94" d="M604.2,157.968 C604.2,173.622 604.2,190.11 604.2,205.746 " fill="none" id="ClientController-to-ClientService" style="stroke:#181818;stroke-width:0.6;stroke-dasharray:7.0,7.0;"/><polygon fill="#181818" points="604.2,209.346,606.6,203.946,604.2,206.346,601.8,203.946,604.2,209.346" style="stroke:#181818;stroke-width:0.6;"/></g><!--link ClientService to Repositories--><g id="link_ClientService_Repositories"><path codeLine="95" d="M415.71,260.418 C340.134,270.408 270.6,279.6 270.6,279.6 C270.6,279.6 239.0429,299.9232 206.5469,320.8452 " fill="none" id="ClientService-to-Repositories" style="stroke:#181818;stroke-width:0.6;stroke-dasharray:7.0,7.0;"/><polygon fill="#181818" points="203.52,322.794,209.3596,321.8887,206.0424,321.17,206.7611,317.8528,203.52,322.794" style="stroke:#181818;stroke-width:0.6;"/><text fill="#000000" font-family="sans-serif" font-size="7.8" lengthAdjust="spacing" textLength="40.2" x="271.2" y="288.617">repositories</text></g><!--link ClientService to ClientRepository--><g id="link_ClientService_ClientRepository"><path codeLine="96" d="M539.124,260.46 C495.882,277.05 447,295.8 447,295.8 C447,295.8 415.9303,389.0027 398.9503,439.9487 " fill="none" id="ClientService-to-ClientRepository" style="stroke:#181818;stroke-width:0.6;stroke-dasharray:7.0,7.0;"/><polygon fill="#181818" points="397.812,443.364,401.7963,438.9999,398.7606,440.5179,397.2426,437.4822,397.812,443.364" style="stroke:#181818;stroke-width:0.6;"/><text fill="#000000" font-family="sans-serif" font-size="7.8" lengthAdjust="spacing" textLength="55.8" x="447.6" y="362.717">clientRepository</text></g><!--link ClientService to AddressRepository--><g id="link_ClientService_AddressRepository"><path codeLine="97" d="M495.108,260.418 C422.43,277.02 340.2,295.8 340.2,295.8 C340.2,295.8 314.4,425.4 314.4,425.4 C314.4,425.4 288.924,432.6689 254.898,442.3709 " fill="none" id="ClientService-to-AddressRepository" style="stroke:#181818;stroke-width:0.6;stroke-dasharray:7.0,7.0;"/><polygon fill="#181818" points="251.436,443.358,257.2871,444.1853,254.321,442.5354,255.9709,439.5693,251.436,443.358" style="stroke:#181818;stroke-width:0.6;"/><text fill="#000000" font-family="sans-serif" font-size="7.8" lengthAdjust="spacing" textLength="64.8" x="340.8" y="362.717">addressRepository</text></g><!--link ClientService to Client--><g id="link_ClientService_Client"><path codeLine="98" d="M645.822,260.55 C673.356,277.116 704.4,295.8 704.4,295.8 C704.4,295.8 704.4,520.2 704.4,520.2 C704.4,520.2 673.634,541.3677 637.664,566.1117 " fill="none" id="ClientService-to-Client" style="stroke:#181818;stroke-width:0.6;stroke-dasharray:7.0,7.0;"/><polygon fill="#181818" points="634.698,568.152,640.5072,567.0688,637.1697,566.4517,637.7868,563.1142,634.698,568.152" style="stroke:#181818;stroke-width:0.6;"/><text fill="#000000" font-family="sans-serif" font-size="7.8" lengthAdjust="spacing" textLength="18.6" x="705" y="423.017">client</text></g><!--link ClientService to Address--><g id="link_ClientService_Address"><path codeLine="99" d="M659.67,260.514 C681.744,270.468 702,279.6 702,279.6 C702,279.6 720,295.8 720,295.8 C720,295.8 782.4,358.8 782.4,358.8 C782.4,358.8 782.4,358.8 782.4,627.9 C782.4,627.9 687.6,686.4 687.6,686.4 C687.6,686.4 639.8434,710.7392 591.2734,735.4952 " fill="none" id="ClientService-to-Address" style="stroke:#181818;stroke-width:0.6;stroke-dasharray:7.0,7.0;"/><polygon fill="#181818" points="588.066,737.13,593.967,736.8161,590.7388,735.7677,591.7872,732.5395,588.066,737.13" style="stroke:#181818;stroke-width:0.6;"/><text fill="#000000" font-family="sans-serif" font-size="7.8" lengthAdjust="spacing" textLength="27.6" x="783" y="477.917">address</text></g><!--link Repositories to Repositories--><g id="link_Repositories_Repositories"><path codeLine="100" d="M238.242,349.362 C250.806,351.012 259.2,354.36 259.2,359.4 C259.2,364.44 254.3754,367.3192 241.8114,368.9692 " fill="none" id="Repositories-to-Repositories" style="stroke:#181818;stroke-width:0.6;"/><polygon fill="#181818" points="238.242,369.438,243.9085,371.1144,241.2165,369.0474,243.2835,366.3553,238.242,369.438" style="stroke:#181818;stroke-width:0.6;"/><text fill="#000000" font-family="sans-serif" font-size="7.8" lengthAdjust="spacing" textLength="29.4" x="262.8" y="362.717">instance</text></g><!--link Repositories to ClientRepository--><g id="link_Repositories_ClientRepository"><path codeLine="101" d="M223.536,396.072 C255.534,411.27 289.1344,427.227 319.7944,441.795 " fill="none" id="Repositories-to-ClientRepository" style="stroke:#181818;stroke-width:0.6;"/><polygon fill="#181818" points="323.046,443.34,319.1986,438.8548,320.3363,442.0525,317.1386,443.1903,323.046,443.34" style="stroke:#181818;stroke-width:0.6;"/><text fill="#000000" font-family="sans-serif" font-size="7.8" lengthAdjust="spacing" textLength="55.8" x="282" y="423.017">clientRepository</text><text fill="#000000" font-family="sans-serif" font-size="7.8" lengthAdjust="spacing" textLength="4.2" x="228.3348" y="409.5729">1</text><text fill="#000000" font-family="sans-serif" font-size="7.8" lengthAdjust="spacing" textLength="4.2" x="309.8894" y="436.6884">1</text></g><!--link Repositories to AddressRepository--><g id="link_Repositories_AddressRepository"><path codeLine="102" d="M146.46,396.072 C145.98,411.27 145.5421,425.1738 145.0801,439.7418 " fill="none" id="Repositories-to-AddressRepository" style="stroke:#181818;stroke-width:0.6;"/><polygon fill="#181818" points="144.966,443.34,147.536,438.0188,145.0611,440.3415,142.7384,437.8666,144.966,443.34" style="stroke:#181818;stroke-width:0.6;"/><text fill="#000000" font-family="sans-serif" font-size="7.8" lengthAdjust="spacing" textLength="64.8" x="146.4" y="423.017">addressRepository</text><text fill="#000000" font-family="sans-serif" font-size="7.8" lengthAdjust="spacing" textLength="4.2" x="141.8651" y="409.5729">1</text><text fill="#000000" font-family="sans-serif" font-size="7.8" lengthAdjust="spacing" textLength="4.2" x="140.6136" y="436.6884">1</text></g><!--link ClientRepository to Client--><g id="link_ClientRepository_Client"><path codeLine="103" d="M420.384,505.86 C439.524,523.758 461.6745,544.4772 484.4145,565.7412 " fill="none" id="ClientRepository-to-Client" style="stroke:#181818;stroke-width:0.6;"/><polygon fill="#181818" points="487.044,568.2,484.739,562.7588,484.8528,566.151,481.4606,566.2648,487.044,568.2" style="stroke:#181818;stroke-width:0.6;"/><text fill="#000000" font-family="sans-serif" font-size="7.8" lengthAdjust="spacing" textLength="36" x="449.4" y="534.017">categories</text><text fill="#000000" font-family="sans-serif" font-size="7.8" lengthAdjust="spacing" textLength="4.2" x="420.1154" y="518.9521">1</text><text fill="#000000" font-family="sans-serif" font-size="7.8" lengthAdjust="spacing" textLength="3" x="479.1397" y="561.5091">*</text></g><!--link AddressRepository to Address--><g id="link_AddressRepository_Address"><path codeLine="104" d="M177.504,505.908 C241.404,564.486 374.4,686.4 374.4,686.4 C374.4,686.4 403.1873,707.8589 434.9273,731.5109 " fill="none" id="AddressRepository-to-Address" style="stroke:#181818;stroke-width:0.6;"/><polygon fill="#181818" points="437.814,733.662,434.9181,728.5109,435.4084,731.8694,432.0499,732.3598,437.814,733.662" style="stroke:#181818;stroke-width:0.6;"/><text fill="#000000" font-family="sans-serif" font-size="7.8" lengthAdjust="spacing" textLength="36" x="375" y="630.617">categories</text><text fill="#000000" font-family="sans-serif" font-size="7.8" lengthAdjust="spacing" textLength="4.2" x="177.3276" y="519.0062">1</text><text fill="#000000" font-family="sans-serif" font-size="7.8" lengthAdjust="spacing" textLength="3" x="428.7954" y="726.9867">*</text></g><!--link Client to Address--><g id="link_Client_Address"><path codeLine="105" d="M531.246,686.514 C526.38,702.066 522.2535,715.2324 517.5915,730.1244 " fill="none" id="Client-to-Address" style="stroke:#181818;stroke-width:0.6;"/><polygon fill="#181818" points="516.516,733.56,520.4197,729.1236,517.4123,730.697,515.8389,727.6896,516.516,733.56" style="stroke:#181818;stroke-width:0.6;"/><text fill="#000000" font-family="sans-serif" font-size="7.8" lengthAdjust="spacing" textLength="12.6" x="526.2" y="713.417">has</text><text fill="#000000" font-family="sans-serif" font-size="7.8" lengthAdjust="spacing" textLength="3" x="526.788" y="699.6612">*</text><text fill="#000000" font-family="sans-serif" font-size="7.8" lengthAdjust="spacing" textLength="4.2" x="513.4574" y="727.0415">1</text></g><!--link Client to CompanyType--><g id="link_Client_CompanyType"><path codeLine="106" d="M586.536,686.514 C601.764,710.688 616.6806,734.3544 628.5726,753.2244 " fill="none" id="Client-to-CompanyType" style="stroke:#181818;stroke-width:0.6;"/><polygon fill="#181818" points="630.492,756.27,629.6434,750.4219,628.8925,753.732,625.5825,752.9811,630.492,756.27" style="stroke:#181818;stroke-width:0.6;"/><text fill="#000000" font-family="sans-serif" font-size="7.8" lengthAdjust="spacing" textLength="12.6" x="604.2" y="713.417">has</text><text fill="#000000" font-family="sans-serif" font-size="7.8" lengthAdjust="spacing" textLength="3" x="586.1383" y="699.6612">*</text><text fill="#000000" font-family="sans-serif" font-size="7.8" lengthAdjust="spacing" textLength="4.2" x="623.4538" y="749.6077">1</text></g><!--link ClientService to ClientException--><g id="link_ClientService_ClientException"><path codeLine="107" d="M604.2,260.454 C604.2,278.328 604.2,299.07 604.2,319.068 " fill="none" id="ClientService-to-ClientException" style="stroke:#181818;stroke-width:0.6;stroke-dasharray:7.0,7.0;"/><polygon fill="#181818" points="604.2,322.668,606.6,317.268,604.2,319.668,601.8,317.268,604.2,322.668" style="stroke:#181818;stroke-width:0.6;"/><text fill="#000000" font-family="sans-serif" font-size="7.8" lengthAdjust="spacing" textLength="22.8" x="604.8" y="288.617">throws</text></g><!--link ClientException to RuntimeException--><g id="link_ClientException_RuntimeException"><path codeLine="108" d="M604.2,396.072 C604.2,417.858 604.2,433.584 604.2,449.394 " fill="none" id="ClientException-to-RuntimeException" style="stroke:#181818;stroke-width:0.6;"/><polygon fill="none" points="604.2,460.194,607.8,449.394,600.6,449.394,604.2,460.194" style="stroke:#181818;stroke-width:0.6;"/></g><!--link ClientService to Validator--><g id="link_ClientService_Validator"><path codeLine="109" d="M713.844,260.448 C757.692,270.426 798,279.6 798,279.6 C798,279.6 831.723,303.7934 862.791,326.0834 " fill="none" id="ClientService-to-Validator" style="stroke:#181818;stroke-width:0.6;stroke-dasharray:7.0,7.0;"/><polygon fill="#181818" points="865.716,328.182,862.7275,323.0841,863.2785,326.4332,859.9294,326.9841,865.716,328.182" style="stroke:#181818;stroke-width:0.6;"/><text fill="#000000" font-family="sans-serif" font-size="7.8" lengthAdjust="spacing" textLength="16.8" x="811.8" y="288.617">uses</text></g><!--SRC=[pLRVJzim47xFNs7rgOm6RQ_LX5GL9aK2XkX0OcycELeBnuvijn0s_lSvYLDVOfUnj-KbojrtlllkbwEVcAYeeYMfQFv4rx0oDGUY83TKh3aaUW_G6rh8PoRMv95oZJMS2J1r1QIIl6u-a2xdLEk5COezR0rakHGhzWhaSv8uXsHocqt8huJOfmMJ6rWpRK0jEGDXRZEdV4lUaD5I2gCavw26nfsHrpfbynolmImuxn1wUaJcvC8w-je9JZrE3GAOvkqhEviHGKkOaHqrJCo8DWh0pCWhgvQoi78ZdwqubrlhkvwHQYC5N6tB1r0p0YLbt49ibXg_tSaHMYjGEvP3Z9DJZGZzrsnke9AQ6QdgSOMTd856V58idnuDU6P2suxCeIMASP5iUBTJ7vuN3XkYA1HeFJ89f8vSK1IF21jjQfjTs45YKXokpZxeynUhryZ69j-Lgh5-a9835TvGqnr4q6Fi8EQ05WxwaOd20GRdljyPA5knl2uRr2WHpFLAd0Rj34CUkB4kRI0yDYIuc_hqZLocpaCayBGP2IjVsNKbrbxSpaX4ZePYxAGTaOX9koTjJygoegB-ORzyBWvCg8jtFwe7H_5WmN5MM34EjIjm95PNyHWBsm8HiUk9K7FSDnOh_jfGc0M8RObpXOXaLsVPNNPskxZOYvRVBwyNL_UHVZb_oQ5g-YlMCtibdeQk20kkW1PrFvje7aUctf297UMikFP5cdu4_xDBneUmvqtDlqbLKdCGFsY36vjPLe9736_IifJbC35tZHjgDmHE2TDtOsQe5QDBofdqv5p5tuEstAPjLqTNG1By7PoSd0QtVXBy1dYKkqUJuQtQw0VNqjp-1A5R9aG75y3ShM1qQuHMuGgUzmF-hfrRRxsFmoVxyv81dpGD239tfmw1ao-J5joyFyBneF6_K4MW_H6V9eWrDR3kAX4UYory5f29EwRHZuApk0sD0l3MmQ2mA7v_p8dPAFdSGxqYJN-VXbCO7kZdRawssaR-1m00]--></g></svg>