<?xml version="1.0" encoding="us-ascii" standalone="no"?><svg xmlns="http://www.w3.org/2000/svg" xmlns:xlink="http://www.w3.org/1999/xlink" contentStyleType="text/css" height="1018.5px" preserveAspectRatio="none" style="width:1399px;height:1018px;background:#FFFFFF;" version="1.1" viewBox="0 0 1399 1018" width="1399px" zoomAndPan="magnify"><defs/><g><text fill="#000000" font-family="sans-serif" font-size="7" font-weight="bold" lengthAdjust="spacing" textLength="90" x="655" y="15.0537">Register Client Sequence</text><rect fill="#FFFFFF" height="901.6191" style="stroke:#181818;stroke-width:0.5;" width="5" x="22.25" y="66.6211"/><rect fill="#FFFFFF" height="193.9111" style="stroke:#181818;stroke-width:0.5;" width="5" x="294.75" y="78.2666"/><rect fill="#FFFFFF" height="15.6455" style="stroke:#181818;stroke-width:0.5;" width="5" x="294.75" y="287.8232"/><rect fill="#FFFFFF" height="649.126" style="stroke:#181818;stroke-width:0.5;" width="5" x="294.75" y="319.1143"/><rect fill="#FFFFFF" height="140.8096" style="stroke:#181818;stroke-width:0.5;" width="5" x="589.75" y="115.7227"/><rect fill="#FFFFFF" height="614.335" style="stroke:#181818;stroke-width:0.5;" width="5" x="589.75" y="334.7598"/><rect fill="#FFFFFF" height="109.5186" style="stroke:#181818;stroke-width:0.5;" width="5" x="884.75" y="131.3682"/><rect fill="#FFFFFF" height="583.0439" style="stroke:#181818;stroke-width:0.5;" width="5" x="884.75" y="350.4053"/><rect fill="#FFFFFF" height="15.6455" style="stroke:#181818;stroke-width:0.5;" width="5" x="1007.25" y="410.4873"/><rect fill="#FFFFFF" height="15.6455" style="stroke:#181818;stroke-width:0.5;" width="5" x="1007.25" y="568.9424"/><rect fill="#FFFFFF" height="15.6455" style="stroke:#181818;stroke-width:0.5;" width="5" x="1063.25" y="147.0137"/><rect fill="#FFFFFF" height="15.6455" style="stroke:#181818;stroke-width:0.5;" width="5" x="1115.75" y="178.3047"/><rect fill="#FFFFFF" height="15.6455" style="stroke:#181818;stroke-width:0.5;" width="5" x="1115.75" y="493.2148"/><rect fill="#FFFFFF" height="15.6455" style="stroke:#181818;stroke-width:0.5;" width="5" x="1115.75" y="651.6699"/><rect fill="#FFFFFF" height="15.6455" style="stroke:#181818;stroke-width:0.5;" width="5" x="1174.75" y="209.5957"/><rect fill="#FFFFFF" height="108.0186" style="stroke:#181818;stroke-width:0.5;" width="5" x="1174.75" y="524.5059"/><rect fill="#FFFFFF" height="76.7275" style="stroke:#181818;stroke-width:0.5;" width="5" x="1174.75" y="841.0762"/><rect fill="#FFFFFF" height="45.4365" style="stroke:#181818;stroke-width:0.5;" width="5" x="1243.75" y="682.9609"/><rect fill="#FFFFFF" height="15.6455" style="stroke:#181818;stroke-width:0.5;" width="5" x="1243.75" y="775.1641"/><rect fill="#FFFFFF" height="91.373" style="stroke:#181818;stroke-width:0.5;" width="5" x="1370.5" y="366.0508"/><rect fill="none" height="104.5186" style="stroke:#000000;stroke-width:0.75;" width="1133" x="262.5" y="373.5508"/><rect fill="none" height="104.5186" style="stroke:#000000;stroke-width:0.75;" width="949.5" x="262.5" y="532.0059"/><rect fill="none" height="104.3486" style="stroke:#000000;stroke-width:0.75;" width="498.5" x="857" y="690.4609"/><rect fill="none" height="104.5186" style="stroke:#000000;stroke-width:0.75;" width="949.5" x="262.5" y="848.5762"/><line style="stroke:#181818;stroke-width:0.25;stroke-dasharray:5.0,5.0;" x1="24.5" x2="24.5" y1="61.6211" y2="977.2402"/><line style="stroke:#181818;stroke-width:0.25;stroke-dasharray:5.0,5.0;" x1="297" x2="297" y1="61.6211" y2="977.2402"/><line style="stroke:#181818;stroke-width:0.25;stroke-dasharray:5.0,5.0;" x1="592.25" x2="592.25" y1="98.1719" y2="977.2402"/><line style="stroke:#181818;stroke-width:0.25;stroke-dasharray:5.0,5.0;" x1="887" x2="887" y1="61.6211" y2="977.2402"/><line style="stroke:#181818;stroke-width:0.25;stroke-dasharray:5.0,5.0;" x1="1009.5" x2="1009.5" y1="61.6211" y2="977.2402"/><line style="stroke:#181818;stroke-width:0.25;stroke-dasharray:5.0,5.0;" x1="1065.5" x2="1065.5" y1="61.6211" y2="977.2402"/><line style="stroke:#181818;stroke-width:0.25;stroke-dasharray:5.0,5.0;" x1="1118" x2="1118" y1="61.6211" y2="977.2402"/><line style="stroke:#181818;stroke-width:0.25;stroke-dasharray:5.0,5.0;" x1="1177" x2="1177" y1="61.6211" y2="977.2402"/><line style="stroke:#181818;stroke-width:0.25;stroke-dasharray:5.0,5.0;" x1="1246" x2="1246" y1="61.6211" y2="977.2402"/><line style="stroke:#181818;stroke-width:0.25;stroke-dasharray:5.0,5.0;" x1="1298" x2="1298" y1="818.8701" y2="977.2402"/><line style="stroke:#181818;stroke-width:0.25;stroke-dasharray:5.0,5.0;" x1="1333" x2="1333" y1="752.958" y2="977.2402"/><line style="stroke:#181818;stroke-width:0.25;stroke-dasharray:5.0,5.0;" x1="1373" x2="1373" y1="61.6211" y2="977.2402"/><text fill="#000000" font-family="sans-serif" font-size="7" lengthAdjust="spacing" textLength="41.5" x="2.5" y="59.8643">Administrator</text><ellipse cx="24.75" cy="26.5605" fill="#E3E3E3" rx="4" ry="4" style="stroke:#181818;stroke-width:0.25;"/><path d="M24.75,30.5605 L24.75,44.0605 M18.25,34.5605 L31.25,34.5605 M24.75,44.0605 L18.25,51.5605 M24.75,44.0605 L31.25,51.5605 " fill="none" style="stroke:#181818;stroke-width:0.25;"/><text fill="#000000" font-family="sans-serif" font-size="7" lengthAdjust="spacing" textLength="41.5" x="2.5" y="984.2939">Administrator</text><ellipse cx="24.75" cy="990.3008" fill="#E3E3E3" rx="4" ry="4" style="stroke:#181818;stroke-width:0.25;"/><path d="M24.75,994.3008 L24.75,1007.8008 M18.25,998.3008 L31.25,998.3008 M24.75,1007.8008 L18.25,1015.3008 M24.75,1007.8008 L31.25,1015.3008 " fill="none" style="stroke:#181818;stroke-width:0.25;"/><rect fill="#E3E3E3" height="16.3105" rx="1.25" ry="1.25" style="stroke:#181818;stroke-width:0.25;" width="59.5" x="267.5" y="44.8105"/><text fill="#000000" font-family="sans-serif" font-size="7" lengthAdjust="spacing" textLength="52.5" x="271" y="55.8643">:RegisterClientUI</text><rect fill="#E3E3E3" height="16.3105" rx="1.25" ry="1.25" style="stroke:#181818;stroke-width:0.25;" width="59.5" x="267.5" y="976.7402"/><text fill="#000000" font-family="sans-serif" font-size="7" lengthAdjust="spacing" textLength="52.5" x="271" y="987.7939">:RegisterClientUI</text><rect fill="#E3E3E3" height="16.3105" rx="1.25" ry="1.25" style="stroke:#181818;stroke-width:0.25;" width="58" x="563.25" y="976.7402"/><text fill="#000000" font-family="sans-serif" font-size="7" lengthAdjust="spacing" textLength="51" x="566.75" y="987.7939">:ClientController</text><rect fill="#E3E3E3" height="16.3105" rx="1.25" ry="1.25" style="stroke:#181818;stroke-width:0.25;" width="50.5" x="862" y="44.8105"/><text fill="#000000" font-family="sans-serif" font-size="7" lengthAdjust="spacing" textLength="43.5" x="865.5" y="55.8643">:ClientService</text><rect fill="#E3E3E3" height="16.3105" rx="1.25" ry="1.25" style="stroke:#181818;stroke-width:0.25;" width="50.5" x="862" y="976.7402"/><text fill="#000000" font-family="sans-serif" font-size="7" lengthAdjust="spacing" textLength="43.5" x="865.5" y="987.7939">:ClientService</text><rect fill="#E3E3E3" height="16.3105" rx="1.25" ry="1.25" style="stroke:#181818;stroke-width:0.25;" width="55.5" x="982" y="44.8105"/><text fill="#000000" font-family="sans-serif" font-size="7" lengthAdjust="spacing" textLength="48.5" x="985.5" y="55.8643">ClientException</text><rect fill="#E3E3E3" height="16.3105" rx="1.25" ry="1.25" style="stroke:#181818;stroke-width:0.25;" width="55.5" x="982" y="976.7402"/><text fill="#000000" font-family="sans-serif" font-size="7" lengthAdjust="spacing" textLength="48.5" x="985.5" y="987.7939">ClientException</text><rect fill="#E3E3E3" height="16.3105" rx="1.25" ry="1.25" style="stroke:#181818;stroke-width:0.25;" width="46.5" x="1042.5" y="44.8105"/><text fill="#000000" font-family="sans-serif" font-size="7" lengthAdjust="spacing" textLength="39.5" x="1046" y="55.8643">Repositories</text><rect fill="#E3E3E3" height="16.3105" rx="1.25" ry="1.25" style="stroke:#181818;stroke-width:0.25;" width="46.5" x="1042.5" y="976.7402"/><text fill="#000000" font-family="sans-serif" font-size="7" lengthAdjust="spacing" textLength="39.5" x="1046" y="987.7939">Repositories</text><rect fill="#E3E3E3" height="25.6211" rx="1.25" ry="1.25" style="stroke:#181818;stroke-width:0.25;" width="48.5" x="1094" y="35.5"/><text fill="#000000" font-family="sans-serif" font-size="7" lengthAdjust="spacing" textLength="37" x="1099.75" y="46.5537">repositories</text><text fill="#000000" font-family="sans-serif" font-size="7" lengthAdjust="spacing" textLength="41.5" x="1097.5" y="55.8643">:Repositories</text><rect fill="#E3E3E3" height="25.6211" rx="1.25" ry="1.25" style="stroke:#181818;stroke-width:0.25;" width="48.5" x="1094" y="976.7402"/><text fill="#000000" font-family="sans-serif" font-size="7" lengthAdjust="spacing" textLength="37" x="1099.75" y="987.7939">repositories</text><text fill="#000000" font-family="sans-serif" font-size="7" lengthAdjust="spacing" textLength="41.5" x="1097.5" y="997.1045">:Repositories</text><rect fill="#E3E3E3" height="25.6211" rx="1.25" ry="1.25" style="stroke:#181818;stroke-width:0.25;" width="59.5" x="1147.5" y="35.5"/><text fill="#000000" font-family="sans-serif" font-size="7" lengthAdjust="spacing" textLength="52.5" x="1151" y="46.5537">clientRepository:</text><text fill="#000000" font-family="sans-serif" font-size="7" lengthAdjust="spacing" textLength="52" x="1151.25" y="55.8643">ClientRepository</text><rect fill="#E3E3E3" height="25.6211" rx="1.25" ry="1.25" style="stroke:#181818;stroke-width:0.25;" width="59.5" x="1147.5" y="976.7402"/><text fill="#000000" font-family="sans-serif" font-size="7" lengthAdjust="spacing" textLength="52.5" x="1151" y="987.7939">clientRepository:</text><text fill="#000000" font-family="sans-serif" font-size="7" lengthAdjust="spacing" textLength="52" x="1151.25" y="997.1045">ClientRepository</text><rect fill="#E3E3E3" height="25.6211" rx="1.25" ry="1.25" style="stroke:#181818;stroke-width:0.25;" width="68.5" x="1212" y="35.5"/><text fill="#000000" font-family="sans-serif" font-size="7" lengthAdjust="spacing" textLength="61.5" x="1215.5" y="46.5537">addressRepository:</text><text fill="#000000" font-family="sans-serif" font-size="7" lengthAdjust="spacing" textLength="60" x="1216.25" y="55.8643">AddressRepository</text><rect fill="#E3E3E3" height="25.6211" rx="1.25" ry="1.25" style="stroke:#181818;stroke-width:0.25;" width="68.5" x="1212" y="976.7402"/><text fill="#000000" font-family="sans-serif" font-size="7" lengthAdjust="spacing" textLength="61.5" x="1215.5" y="987.7939">addressRepository:</text><text fill="#000000" font-family="sans-serif" font-size="7" lengthAdjust="spacing" textLength="60" x="1216.25" y="997.1045">AddressRepository</text><rect fill="#E3E3E3" height="25.6211" rx="1.25" ry="1.25" style="stroke:#181818;stroke-width:0.25;" width="25.5" x="1285.5" y="976.7402"/><text fill="#000000" font-family="sans-serif" font-size="7" lengthAdjust="spacing" textLength="18.5" x="1289" y="987.7939">client:</text><text fill="#000000" font-family="sans-serif" font-size="7" lengthAdjust="spacing" textLength="18" x="1289.25" y="997.1045">Client</text><rect fill="#E3E3E3" height="25.6211" rx="1.25" ry="1.25" style="stroke:#181818;stroke-width:0.25;" width="34.5" x="1316" y="976.7402"/><text fill="#000000" font-family="sans-serif" font-size="7" lengthAdjust="spacing" textLength="27.5" x="1319.5" y="987.7939">address:</text><text fill="#000000" font-family="sans-serif" font-size="7" lengthAdjust="spacing" textLength="26" x="1320.25" y="997.1045">Address</text><rect fill="#E3E3E3" height="16.3105" rx="1.25" ry="1.25" style="stroke:#181818;stroke-width:0.25;" width="35" x="1355.5" y="44.8105"/><text fill="#000000" font-family="sans-serif" font-size="7" lengthAdjust="spacing" textLength="28" x="1359" y="55.8643">Validator</text><rect fill="#E3E3E3" height="16.3105" rx="1.25" ry="1.25" style="stroke:#181818;stroke-width:0.25;" width="35" x="1355.5" y="976.7402"/><text fill="#000000" font-family="sans-serif" font-size="7" lengthAdjust="spacing" textLength="28" x="1359" y="987.7939">Validator</text><rect fill="#FFFFFF" height="901.6191" style="stroke:#181818;stroke-width:0.5;" width="5" x="22.25" y="66.6211"/><rect fill="#FFFFFF" height="193.9111" style="stroke:#181818;stroke-width:0.5;" width="5" x="294.75" y="78.2666"/><rect fill="#FFFFFF" height="15.6455" style="stroke:#181818;stroke-width:0.5;" width="5" x="294.75" y="287.8232"/><rect fill="#FFFFFF" height="649.126" style="stroke:#181818;stroke-width:0.5;" width="5" x="294.75" y="319.1143"/><rect fill="#FFFFFF" height="140.8096" style="stroke:#181818;stroke-width:0.5;" width="5" x="589.75" y="115.7227"/><rect fill="#FFFFFF" height="614.335" style="stroke:#181818;stroke-width:0.5;" width="5" x="589.75" y="334.7598"/><rect fill="#FFFFFF" height="109.5186" style="stroke:#181818;stroke-width:0.5;" width="5" x="884.75" y="131.3682"/><rect fill="#FFFFFF" height="583.0439" style="stroke:#181818;stroke-width:0.5;" width="5" x="884.75" y="350.4053"/><rect fill="#FFFFFF" height="15.6455" style="stroke:#181818;stroke-width:0.5;" width="5" x="1007.25" y="410.4873"/><rect fill="#FFFFFF" height="15.6455" style="stroke:#181818;stroke-width:0.5;" width="5" x="1007.25" y="568.9424"/><rect fill="#FFFFFF" height="15.6455" style="stroke:#181818;stroke-width:0.5;" width="5" x="1063.25" y="147.0137"/><rect fill="#FFFFFF" height="15.6455" style="stroke:#181818;stroke-width:0.5;" width="5" x="1115.75" y="178.3047"/><rect fill="#FFFFFF" height="15.6455" style="stroke:#181818;stroke-width:0.5;" width="5" x="1115.75" y="493.2148"/><rect fill="#FFFFFF" height="15.6455" style="stroke:#181818;stroke-width:0.5;" width="5" x="1115.75" y="651.6699"/><rect fill="#FFFFFF" height="15.6455" style="stroke:#181818;stroke-width:0.5;" width="5" x="1174.75" y="209.5957"/><rect fill="#FFFFFF" height="108.0186" style="stroke:#181818;stroke-width:0.5;" width="5" x="1174.75" y="524.5059"/><rect fill="#FFFFFF" height="76.7275" style="stroke:#181818;stroke-width:0.5;" width="5" x="1174.75" y="841.0762"/><rect fill="#FFFFFF" height="45.4365" style="stroke:#181818;stroke-width:0.5;" width="5" x="1243.75" y="682.9609"/><rect fill="#FFFFFF" height="15.6455" style="stroke:#181818;stroke-width:0.5;" width="5" x="1243.75" y="775.1641"/><rect fill="#FFFFFF" height="91.373" style="stroke:#181818;stroke-width:0.5;" width="5" x="1370.5" y="366.0508"/><polygon fill="#181818" points="288.75,76.2666,293.75,78.2666,288.75,80.2666,290.75,78.2666" style="stroke:#181818;stroke-width:0.5;"/><line style="stroke:#181818;stroke-width:0.5;" x1="27.25" x2="291.75" y1="78.2666" y2="78.2666"/><text fill="#000000" font-family="sans-serif" font-size="6.5" font-weight="bold" lengthAdjust="spacing" textLength="3.5" x="30.75" y="75.6353">1</text><text fill="#000000" font-family="sans-serif" font-size="6.5" lengthAdjust="spacing" textLength="81.5" x="36.25" y="75.6353">asks to register a new client</text><polygon fill="#181818" points="557.25,91.9121,562.25,93.9121,557.25,95.9121,559.25,93.9121" style="stroke:#181818;stroke-width:0.5;"/><line style="stroke:#181818;stroke-width:0.5;" x1="299.75" x2="560.25" y1="93.9121" y2="93.9121"/><text fill="#000000" font-family="sans-serif" font-size="6.5" font-weight="bold" lengthAdjust="spacing" textLength="3.5" x="303.25" y="91.2808">2</text><text fill="#000000" font-family="sans-serif" font-size="6.5" lengthAdjust="spacing" textLength="18" x="308.75" y="91.2808">create</text><rect fill="#E3E3E3" height="16.3105" rx="1.25" ry="1.25" style="stroke:#181818;stroke-width:0.25;" width="58" x="563.25" y="82.2666"/><text fill="#000000" font-family="sans-serif" font-size="7" lengthAdjust="spacing" textLength="51" x="566.75" y="93.3203">:ClientController</text><polygon fill="#181818" points="583.75,113.7227,588.75,115.7227,583.75,117.7227,585.75,115.7227" style="stroke:#181818;stroke-width:0.5;"/><line style="stroke:#181818;stroke-width:0.5;" x1="299.75" x2="586.75" y1="115.7227" y2="115.7227"/><text fill="#000000" font-family="sans-serif" font-size="6.5" font-weight="bold" lengthAdjust="spacing" textLength="3.5" x="303.25" y="113.0913">3</text><text fill="#000000" font-family="sans-serif" font-size="6.5" lengthAdjust="spacing" textLength="40.5" x="308.75" y="113.0913">getAllClients()</text><polygon fill="#181818" points="878.75,129.3682,883.75,131.3682,878.75,133.3682,880.75,131.3682" style="stroke:#181818;stroke-width:0.5;"/><line style="stroke:#181818;stroke-width:0.5;" x1="594.75" x2="881.75" y1="131.3682" y2="131.3682"/><text fill="#000000" font-family="sans-serif" font-size="6.5" font-weight="bold" lengthAdjust="spacing" textLength="3.5" x="598.25" y="128.7368">4</text><text fill="#000000" font-family="sans-serif" font-size="6.5" lengthAdjust="spacing" textLength="33" x="603.75" y="128.7368">getClients()</text><polygon fill="#181818" points="1057.25,145.0137,1062.25,147.0137,1057.25,149.0137,1059.25,147.0137" style="stroke:#181818;stroke-width:0.5;"/><line style="stroke:#181818;stroke-width:0.5;" x1="889.75" x2="1060.25" y1="147.0137" y2="147.0137"/><text fill="#000000" font-family="sans-serif" font-size="6.5" font-weight="bold" lengthAdjust="spacing" textLength="3.5" x="893.25" y="144.3823">5</text><text fill="#000000" font-family="sans-serif" font-size="6.5" lengthAdjust="spacing" textLength="37.5" x="898.75" y="144.3823">getInstance()</text><polygon fill="#181818" points="895.25,160.6592,890.25,162.6592,895.25,164.6592,893.25,162.6592" style="stroke:#181818;stroke-width:0.5;"/><line style="stroke:#181818;stroke-width:0.5;stroke-dasharray:2.0,2.0;" x1="892.25" x2="1065.25" y1="162.6592" y2="162.6592"/><text fill="#000000" font-family="sans-serif" font-size="6.5" font-weight="bold" lengthAdjust="spacing" textLength="3.5" x="898.25" y="160.0278">6</text><text fill="#000000" font-family="sans-serif" font-size="6.5" lengthAdjust="spacing" textLength="33.5" x="903.75" y="160.0278">repositories</text><polygon fill="#181818" points="1109.75,176.3047,1114.75,178.3047,1109.75,180.3047,1111.75,178.3047" style="stroke:#181818;stroke-width:0.5;"/><line style="stroke:#181818;stroke-width:0.5;" x1="889.75" x2="1112.75" y1="178.3047" y2="178.3047"/><text fill="#000000" font-family="sans-serif" font-size="6.5" font-weight="bold" lengthAdjust="spacing" textLength="3.5" x="893.25" y="175.6733">7</text><text fill="#000000" font-family="sans-serif" font-size="6.5" lengthAdjust="spacing" textLength="60.5" x="898.75" y="175.6733">getClientRepository()</text><polygon fill="#181818" points="895.25,191.9502,890.25,193.9502,895.25,195.9502,893.25,193.9502" style="stroke:#181818;stroke-width:0.5;"/><line style="stroke:#181818;stroke-width:0.5;stroke-dasharray:2.0,2.0;" x1="892.25" x2="1117.75" y1="193.9502" y2="193.9502"/><text fill="#000000" font-family="sans-serif" font-size="6.5" font-weight="bold" lengthAdjust="spacing" textLength="3.5" x="898.25" y="191.3188">8</text><text fill="#000000" font-family="sans-serif" font-size="6.5" lengthAdjust="spacing" textLength="46.5" x="903.75" y="191.3188">clientRepository</text><polygon fill="#181818" points="1168.75,207.5957,1173.75,209.5957,1168.75,211.5957,1170.75,209.5957" style="stroke:#181818;stroke-width:0.5;"/><line style="stroke:#181818;stroke-width:0.5;" x1="889.75" x2="1171.75" y1="209.5957" y2="209.5957"/><text fill="#000000" font-family="sans-serif" font-size="6.5" font-weight="bold" lengthAdjust="spacing" textLength="3.5" x="893.25" y="206.9644">9</text><text fill="#000000" font-family="sans-serif" font-size="6.5" lengthAdjust="spacing" textLength="20.5" x="898.75" y="206.9644">getAll()</text><polygon fill="#181818" points="895.25,223.2412,890.25,225.2412,895.25,227.2412,893.25,225.2412" style="stroke:#181818;stroke-width:0.5;"/><line style="stroke:#181818;stroke-width:0.5;stroke-dasharray:2.0,2.0;" x1="892.25" x2="1176.75" y1="225.2412" y2="225.2412"/><text fill="#000000" font-family="sans-serif" font-size="6.5" font-weight="bold" lengthAdjust="spacing" textLength="7" x="898.25" y="222.6099">10</text><text fill="#000000" font-family="sans-serif" font-size="6.5" lengthAdjust="spacing" textLength="19" x="907.25" y="222.6099">clients</text><polygon fill="#181818" points="600.25,238.8867,595.25,240.8867,600.25,242.8867,598.25,240.8867" style="stroke:#181818;stroke-width:0.5;"/><line style="stroke:#181818;stroke-width:0.5;stroke-dasharray:2.0,2.0;" x1="597.25" x2="886.75" y1="240.8867" y2="240.8867"/><text fill="#000000" font-family="sans-serif" font-size="6.5" font-weight="bold" lengthAdjust="spacing" textLength="7" x="603.25" y="238.2554">11</text><text fill="#000000" font-family="sans-serif" font-size="6.5" lengthAdjust="spacing" textLength="19" x="612.25" y="238.2554">clients</text><polygon fill="#181818" points="305.25,254.5322,300.25,256.5322,305.25,258.5322,303.25,256.5322" style="stroke:#181818;stroke-width:0.5;"/><line style="stroke:#181818;stroke-width:0.5;stroke-dasharray:2.0,2.0;" x1="302.25" x2="591.75" y1="256.5322" y2="256.5322"/><text fill="#000000" font-family="sans-serif" font-size="6.5" font-weight="bold" lengthAdjust="spacing" textLength="7" x="308.25" y="253.9009">12</text><text fill="#000000" font-family="sans-serif" font-size="6.5" lengthAdjust="spacing" textLength="19" x="317.25" y="253.9009">clients</text><polygon fill="#181818" points="32.75,270.1777,27.75,272.1777,32.75,274.1777,30.75,272.1777" style="stroke:#181818;stroke-width:0.5;"/><line style="stroke:#181818;stroke-width:0.5;stroke-dasharray:2.0,2.0;" x1="29.75" x2="296.75" y1="272.1777" y2="272.1777"/><text fill="#000000" font-family="sans-serif" font-size="6.5" font-weight="bold" lengthAdjust="spacing" textLength="7" x="35.75" y="269.5464">13</text><text fill="#000000" font-family="sans-serif" font-size="6.5" lengthAdjust="spacing" textLength="144.5" x="44.75" y="269.5464">shows the list of clients and requests confirmation</text><polygon fill="#181818" points="288.75,285.8232,293.75,287.8232,288.75,289.8232,290.75,287.8232" style="stroke:#181818;stroke-width:0.5;"/><line style="stroke:#181818;stroke-width:0.5;" x1="27.25" x2="291.75" y1="287.8232" y2="287.8232"/><text fill="#000000" font-family="sans-serif" font-size="6.5" font-weight="bold" lengthAdjust="spacing" textLength="7" x="30.75" y="285.1919">14</text><text fill="#000000" font-family="sans-serif" font-size="6.5" lengthAdjust="spacing" textLength="133" x="39.75" y="285.1919">confirms that he wants to register a new client</text><polygon fill="#181818" points="32.75,301.4688,27.75,303.4688,32.75,305.4688,30.75,303.4688" style="stroke:#181818;stroke-width:0.5;"/><line style="stroke:#181818;stroke-width:0.5;stroke-dasharray:2.0,2.0;" x1="29.75" x2="296.75" y1="303.4688" y2="303.4688"/><text fill="#000000" font-family="sans-serif" font-size="6.5" font-weight="bold" lengthAdjust="spacing" textLength="7" x="35.75" y="300.8374">15</text><text fill="#000000" font-family="sans-serif" font-size="6.5" lengthAdjust="spacing" textLength="246.5" x="44.75" y="300.8374">requests data (i.e. Name, Vatin, Address, Contact Info (Phone Number, Email), Type)</text><polygon fill="#181818" points="288.75,317.1143,293.75,319.1143,288.75,321.1143,290.75,319.1143" style="stroke:#181818;stroke-width:0.5;"/><line style="stroke:#181818;stroke-width:0.5;" x1="27.25" x2="291.75" y1="319.1143" y2="319.1143"/><text fill="#000000" font-family="sans-serif" font-size="6.5" font-weight="bold" lengthAdjust="spacing" textLength="7" x="30.75" y="316.4829">16</text><text fill="#000000" font-family="sans-serif" font-size="6.5" lengthAdjust="spacing" textLength="84" x="39.75" y="316.4829">types/selects requested data</text><polygon fill="#181818" points="583.75,332.7598,588.75,334.7598,583.75,336.7598,585.75,334.7598" style="stroke:#181818;stroke-width:0.5;"/><line style="stroke:#181818;stroke-width:0.5;" x1="299.75" x2="586.75" y1="334.7598" y2="334.7598"/><text fill="#000000" font-family="sans-serif" font-size="6.5" font-weight="bold" lengthAdjust="spacing" textLength="7" x="303.25" y="332.1284">17</text><text fill="#000000" font-family="sans-serif" font-size="6.5" lengthAdjust="spacing" textLength="271.5" x="312.25" y="332.1284">registerClient(clientID, name, vatin, street, zipCode, town, country, phoneNumber, email, type)</text><polygon fill="#181818" points="878.75,348.4053,883.75,350.4053,878.75,352.4053,880.75,350.4053" style="stroke:#181818;stroke-width:0.5;"/><line style="stroke:#181818;stroke-width:0.5;" x1="594.75" x2="881.75" y1="350.4053" y2="350.4053"/><text fill="#000000" font-family="sans-serif" font-size="6.5" font-weight="bold" lengthAdjust="spacing" textLength="7" x="598.25" y="347.7739">18</text><text fill="#000000" font-family="sans-serif" font-size="6.5" lengthAdjust="spacing" textLength="271.5" x="607.25" y="347.7739">registerClient(clientID, name, vatin, street, zipCode, town, country, phoneNumber, email, type)</text><polygon fill="#181818" points="1364.5,364.0508,1369.5,366.0508,1364.5,368.0508,1366.5,366.0508" style="stroke:#181818;stroke-width:0.5;"/><line style="stroke:#181818;stroke-width:0.5;" x1="889.75" x2="1367.5" y1="366.0508" y2="366.0508"/><text fill="#000000" font-family="sans-serif" font-size="6.5" font-weight="bold" lengthAdjust="spacing" textLength="7" x="893.25" y="363.4194">19</text><text fill="#000000" font-family="sans-serif" font-size="6.5" lengthAdjust="spacing" textLength="124" x="902.25" y="363.4194">isValidData(phoneNumber, email, zipCode)</text><path d="M262.5,373.5508 L293,373.5508 L293,378.1963 L288,383.1963 L262.5,383.1963 L262.5,373.5508 " fill="#EEEEEE" style="stroke:#000000;stroke-width:0.75;"/><rect fill="none" height="104.5186" style="stroke:#000000;stroke-width:0.75;" width="1133" x="262.5" y="373.5508"/><text fill="#000000" font-family="sans-serif" font-size="6.5" font-weight="bold" lengthAdjust="spacing" textLength="8" x="270" y="381.0649">alt</text><text fill="#000000" font-family="sans-serif" font-size="5.5" font-weight="bold" lengthAdjust="spacing" textLength="34.5" x="300.5" y="380.4858">[data invalid]</text><polygon fill="#181818" points="895.25,392.8418,890.25,394.8418,895.25,396.8418,893.25,394.8418" style="stroke:#181818;stroke-width:0.5;"/><line style="stroke:#181818;stroke-width:0.5;stroke-dasharray:2.0,2.0;" x1="892.25" x2="1370" y1="394.8418" y2="394.8418"/><text fill="#000000" font-family="sans-serif" font-size="6.5" font-weight="bold" lengthAdjust="spacing" textLength="7" x="898.25" y="392.2104">20</text><text fill="#000000" font-family="sans-serif" font-size="6.5" lengthAdjust="spacing" textLength="13.5" x="907.25" y="392.2104">false</text><polygon fill="#181818" points="1001.25,408.4873,1006.25,410.4873,1001.25,412.4873,1003.25,410.4873" style="stroke:#181818;stroke-width:0.5;"/><line style="stroke:#181818;stroke-width:0.5;" x1="889.75" x2="1004.25" y1="410.4873" y2="410.4873"/><text fill="#000000" font-family="sans-serif" font-size="6.5" font-weight="bold" lengthAdjust="spacing" textLength="7" x="893.25" y="407.856">21</text><text fill="#000000" font-family="sans-serif" font-size="6.5" lengthAdjust="spacing" textLength="52.5" x="902.25" y="407.856">throw invalidData()</text><polygon fill="#181818" points="895.25,424.1328,890.25,426.1328,895.25,428.1328,893.25,426.1328" style="stroke:#181818;stroke-width:0.5;"/><line style="stroke:#181818;stroke-width:0.5;stroke-dasharray:2.0,2.0;" x1="892.25" x2="1009.25" y1="426.1328" y2="426.1328"/><text fill="#000000" font-family="sans-serif" font-size="6.5" font-weight="bold" lengthAdjust="spacing" textLength="7" x="898.25" y="423.5015">22</text><text fill="#000000" font-family="sans-serif" font-size="6.5" lengthAdjust="spacing" textLength="51.5" x="907.25" y="423.5015">Exception Thrown</text><polygon fill="#181818" points="600.25,439.7783,595.25,441.7783,600.25,443.7783,598.25,441.7783" style="stroke:#181818;stroke-width:0.5;"/><line style="stroke:#181818;stroke-width:0.5;stroke-dasharray:2.0,2.0;" x1="597.25" x2="884.25" y1="441.7783" y2="441.7783"/><text fill="#000000" font-family="sans-serif" font-size="6.5" font-weight="bold" lengthAdjust="spacing" textLength="7" x="603.25" y="439.147">23</text><text fill="#000000" font-family="sans-serif" font-size="6.5" lengthAdjust="spacing" textLength="96.5" x="612.25" y="439.147">show error message (Invalid data)</text><polygon fill="#181818" points="305.25,455.4238,300.25,457.4238,305.25,459.4238,303.25,457.4238" style="stroke:#181818;stroke-width:0.5;"/><line style="stroke:#181818;stroke-width:0.5;stroke-dasharray:2.0,2.0;" x1="302.25" x2="589.25" y1="457.4238" y2="457.4238"/><text fill="#000000" font-family="sans-serif" font-size="6.5" font-weight="bold" lengthAdjust="spacing" textLength="7" x="308.25" y="454.7925">24</text><text fill="#000000" font-family="sans-serif" font-size="6.5" lengthAdjust="spacing" textLength="96.5" x="317.25" y="454.7925">show error message (Invalid data)</text><line style="stroke:#000000;stroke-width:0.5;stroke-dasharray:2.0,2.0;" x1="262.5" x2="1395.5" y1="461.9238" y2="461.9238"/><polygon fill="#181818" points="895.25,472.0693,890.25,474.0693,895.25,476.0693,893.25,474.0693" style="stroke:#181818;stroke-width:0.5;"/><line style="stroke:#181818;stroke-width:0.5;stroke-dasharray:2.0,2.0;" x1="892.25" x2="1372.5" y1="474.0693" y2="474.0693"/><text fill="#000000" font-family="sans-serif" font-size="6.5" font-weight="bold" lengthAdjust="spacing" textLength="7" x="898.25" y="471.438">25</text><text fill="#000000" font-family="sans-serif" font-size="6.5" lengthAdjust="spacing" textLength="11" x="907.25" y="471.438">true</text><polygon fill="#181818" points="1109.75,491.2148,1114.75,493.2148,1109.75,495.2148,1111.75,493.2148" style="stroke:#181818;stroke-width:0.5;"/><line style="stroke:#181818;stroke-width:0.5;" x1="889.75" x2="1112.75" y1="493.2148" y2="493.2148"/><text fill="#000000" font-family="sans-serif" font-size="6.5" font-weight="bold" lengthAdjust="spacing" textLength="7" x="893.25" y="490.5835">26</text><text fill="#000000" font-family="sans-serif" font-size="6.5" lengthAdjust="spacing" textLength="60.5" x="902.25" y="490.5835">getClientRepository()</text><polygon fill="#181818" points="895.25,506.8604,890.25,508.8604,895.25,510.8604,893.25,508.8604" style="stroke:#181818;stroke-width:0.5;"/><line style="stroke:#181818;stroke-width:0.5;stroke-dasharray:2.0,2.0;" x1="892.25" x2="1117.75" y1="508.8604" y2="508.8604"/><text fill="#000000" font-family="sans-serif" font-size="6.5" font-weight="bold" lengthAdjust="spacing" textLength="7" x="898.25" y="506.229">27</text><text fill="#000000" font-family="sans-serif" font-size="6.5" lengthAdjust="spacing" textLength="46.5" x="907.25" y="506.229">clientRepository</text><polygon fill="#181818" points="1168.75,522.5059,1173.75,524.5059,1168.75,526.5059,1170.75,524.5059" style="stroke:#181818;stroke-width:0.5;"/><line style="stroke:#181818;stroke-width:0.5;" x1="889.75" x2="1171.75" y1="524.5059" y2="524.5059"/><text fill="#000000" font-family="sans-serif" font-size="6.5" font-weight="bold" lengthAdjust="spacing" textLength="7" x="893.25" y="521.8745">28</text><text fill="#000000" font-family="sans-serif" font-size="6.5" lengthAdjust="spacing" textLength="69.5" x="902.25" y="521.8745">getClientExists(clientID)</text><path d="M262.5,532.0059 L293,532.0059 L293,536.6514 L288,541.6514 L262.5,541.6514 L262.5,532.0059 " fill="#EEEEEE" style="stroke:#000000;stroke-width:0.75;"/><rect fill="none" height="104.5186" style="stroke:#000000;stroke-width:0.75;" width="949.5" x="262.5" y="532.0059"/><text fill="#000000" font-family="sans-serif" font-size="6.5" font-weight="bold" lengthAdjust="spacing" textLength="8" x="270" y="539.52">alt</text><text fill="#000000" font-family="sans-serif" font-size="5.5" font-weight="bold" lengthAdjust="spacing" textLength="37.5" x="300.5" y="538.9409">[client exists]</text><polygon fill="#181818" points="895.25,551.2969,890.25,553.2969,895.25,555.2969,893.25,553.2969" style="stroke:#181818;stroke-width:0.5;"/><line style="stroke:#181818;stroke-width:0.5;stroke-dasharray:2.0,2.0;" x1="892.25" x2="1174.25" y1="553.2969" y2="553.2969"/><text fill="#000000" font-family="sans-serif" font-size="6.5" font-weight="bold" lengthAdjust="spacing" textLength="7" x="898.25" y="550.6655">29</text><text fill="#000000" font-family="sans-serif" font-size="6.5" lengthAdjust="spacing" textLength="11" x="907.25" y="550.6655">true</text><polygon fill="#181818" points="1001.25,566.9424,1006.25,568.9424,1001.25,570.9424,1003.25,568.9424" style="stroke:#181818;stroke-width:0.5;"/><line style="stroke:#181818;stroke-width:0.5;" x1="889.75" x2="1004.25" y1="568.9424" y2="568.9424"/><text fill="#000000" font-family="sans-serif" font-size="6.5" font-weight="bold" lengthAdjust="spacing" textLength="7" x="893.25" y="566.311">30</text><text fill="#000000" font-family="sans-serif" font-size="6.5" lengthAdjust="spacing" textLength="99" x="902.25" y="566.311">throw clientAlreadyExists(clientID)</text><polygon fill="#181818" points="895.25,582.5879,890.25,584.5879,895.25,586.5879,893.25,584.5879" style="stroke:#181818;stroke-width:0.5;"/><line style="stroke:#181818;stroke-width:0.5;stroke-dasharray:2.0,2.0;" x1="892.25" x2="1009.25" y1="584.5879" y2="584.5879"/><text fill="#000000" font-family="sans-serif" font-size="6.5" font-weight="bold" lengthAdjust="spacing" textLength="7" x="898.25" y="581.9565">31</text><text fill="#000000" font-family="sans-serif" font-size="6.5" lengthAdjust="spacing" textLength="51.5" x="907.25" y="581.9565">Exception Thrown</text><polygon fill="#181818" points="600.25,598.2334,595.25,600.2334,600.25,602.2334,598.25,600.2334" style="stroke:#181818;stroke-width:0.5;"/><line style="stroke:#181818;stroke-width:0.5;stroke-dasharray:2.0,2.0;" x1="597.25" x2="884.25" y1="600.2334" y2="600.2334"/><text fill="#000000" font-family="sans-serif" font-size="6.5" font-weight="bold" lengthAdjust="spacing" textLength="7" x="603.25" y="597.6021">32</text><text fill="#000000" font-family="sans-serif" font-size="6.5" lengthAdjust="spacing" textLength="134.5" x="612.25" y="597.6021">show error message (Client already registered)</text><polygon fill="#181818" points="305.25,613.8789,300.25,615.8789,305.25,617.8789,303.25,615.8789" style="stroke:#181818;stroke-width:0.5;"/><line style="stroke:#181818;stroke-width:0.5;stroke-dasharray:2.0,2.0;" x1="302.25" x2="589.25" y1="615.8789" y2="615.8789"/><text fill="#000000" font-family="sans-serif" font-size="6.5" font-weight="bold" lengthAdjust="spacing" textLength="7" x="308.25" y="613.2476">33</text><text fill="#000000" font-family="sans-serif" font-size="6.5" lengthAdjust="spacing" textLength="134.5" x="317.25" y="613.2476">show error message (Client already registered)</text><line style="stroke:#000000;stroke-width:0.5;stroke-dasharray:2.0,2.0;" x1="262.5" x2="1212" y1="620.3789" y2="620.3789"/><polygon fill="#181818" points="895.25,630.5244,890.25,632.5244,895.25,634.5244,893.25,632.5244" style="stroke:#181818;stroke-width:0.5;"/><line style="stroke:#181818;stroke-width:0.5;stroke-dasharray:2.0,2.0;" x1="892.25" x2="1176.75" y1="632.5244" y2="632.5244"/><text fill="#000000" font-family="sans-serif" font-size="6.5" font-weight="bold" lengthAdjust="spacing" textLength="7" x="898.25" y="629.8931">34</text><text fill="#000000" font-family="sans-serif" font-size="6.5" lengthAdjust="spacing" textLength="13.5" x="907.25" y="629.8931">false</text><polygon fill="#181818" points="1109.75,649.6699,1114.75,651.6699,1109.75,653.6699,1111.75,651.6699" style="stroke:#181818;stroke-width:0.5;"/><line style="stroke:#181818;stroke-width:0.5;" x1="889.75" x2="1112.75" y1="651.6699" y2="651.6699"/><text fill="#000000" font-family="sans-serif" font-size="6.5" font-weight="bold" lengthAdjust="spacing" textLength="7" x="893.25" y="649.0386">35</text><text fill="#000000" font-family="sans-serif" font-size="6.5" lengthAdjust="spacing" textLength="68" x="902.25" y="649.0386">getAddressRepository()</text><polygon fill="#181818" points="895.25,665.3154,890.25,667.3154,895.25,669.3154,893.25,667.3154" style="stroke:#181818;stroke-width:0.5;"/><line style="stroke:#181818;stroke-width:0.5;stroke-dasharray:2.0,2.0;" x1="892.25" x2="1117.75" y1="667.3154" y2="667.3154"/><text fill="#000000" font-family="sans-serif" font-size="6.5" font-weight="bold" lengthAdjust="spacing" textLength="7" x="898.25" y="664.6841">36</text><text fill="#000000" font-family="sans-serif" font-size="6.5" lengthAdjust="spacing" textLength="54" x="907.25" y="664.6841">addressRepository</text><polygon fill="#181818" points="1237.75,680.9609,1242.75,682.9609,1237.75,684.9609,1239.75,682.9609" style="stroke:#181818;stroke-width:0.5;"/><line style="stroke:#181818;stroke-width:0.5;" x1="889.75" x2="1240.75" y1="682.9609" y2="682.9609"/><text fill="#000000" font-family="sans-serif" font-size="6.5" font-weight="bold" lengthAdjust="spacing" textLength="7" x="893.25" y="680.3296">37</text><text fill="#000000" font-family="sans-serif" font-size="6.5" lengthAdjust="spacing" textLength="61" x="902.25" y="680.3296">findAddress(address)</text><path d="M857,690.4609 L887.5,690.4609 L887.5,695.1064 L882.5,700.1064 L857,700.1064 L857,690.4609 " fill="#EEEEEE" style="stroke:#000000;stroke-width:0.75;"/><rect fill="none" height="104.3486" style="stroke:#000000;stroke-width:0.75;" width="498.5" x="857" y="690.4609"/><text fill="#000000" font-family="sans-serif" font-size="6.5" font-weight="bold" lengthAdjust="spacing" textLength="8" x="864.5" y="697.9751">alt</text><text fill="#000000" font-family="sans-serif" font-size="5.5" font-weight="bold" lengthAdjust="spacing" textLength="45.5" x="895" y="697.396">[address exists]</text><polygon fill="#181818" points="895.25,709.752,890.25,711.752,895.25,713.752,893.25,711.752" style="stroke:#181818;stroke-width:0.5;"/><line style="stroke:#181818;stroke-width:0.5;stroke-dasharray:2.0,2.0;" x1="892.25" x2="1243.25" y1="711.752" y2="711.752"/><text fill="#000000" font-family="sans-serif" font-size="6.5" font-weight="bold" lengthAdjust="spacing" textLength="7" x="898.25" y="709.1206">38</text><text fill="#000000" font-family="sans-serif" font-size="6.5" lengthAdjust="spacing" textLength="23" x="907.25" y="709.1206">address</text><line style="stroke:#000000;stroke-width:0.5;stroke-dasharray:2.0,2.0;" x1="857" x2="1355.5" y1="716.252" y2="716.252"/><polygon fill="#181818" points="895.25,726.3975,890.25,728.3975,895.25,730.3975,893.25,728.3975" style="stroke:#181818;stroke-width:0.5;"/><line style="stroke:#181818;stroke-width:0.5;stroke-dasharray:2.0,2.0;" x1="892.25" x2="1245.75" y1="728.3975" y2="728.3975"/><text fill="#000000" font-family="sans-serif" font-size="6.5" font-weight="bold" lengthAdjust="spacing" textLength="7" x="898.25" y="725.7661">39</text><text fill="#000000" font-family="sans-serif" font-size="6.5" lengthAdjust="spacing" textLength="10" x="907.25" y="725.7661">null</text><polygon fill="#181818" points="1310,742.043,1315,744.043,1310,746.043,1312,744.043" style="stroke:#181818;stroke-width:0.5;"/><line style="stroke:#181818;stroke-width:0.5;" x1="889.75" x2="1313" y1="744.043" y2="744.043"/><text fill="#000000" font-family="sans-serif" font-size="6.5" font-weight="bold" lengthAdjust="spacing" textLength="7" x="893.25" y="741.4116">40</text><text fill="#000000" font-family="sans-serif" font-size="6.5" lengthAdjust="spacing" textLength="45" x="902.25" y="741.4116">create(address)</text><rect fill="#E3E3E3" height="25.6211" rx="1.25" ry="1.25" style="stroke:#181818;stroke-width:0.25;" width="34.5" x="1316" y="732.3975"/><text fill="#000000" font-family="sans-serif" font-size="7" lengthAdjust="spacing" textLength="27.5" x="1319.5" y="743.4512">address:</text><text fill="#000000" font-family="sans-serif" font-size="7" lengthAdjust="spacing" textLength="26" x="1320.25" y="752.7617">Address</text><polygon fill="#181818" points="1237.75,773.1641,1242.75,775.1641,1237.75,777.1641,1239.75,775.1641" style="stroke:#181818;stroke-width:0.5;"/><line style="stroke:#181818;stroke-width:0.5;" x1="889.75" x2="1240.75" y1="775.1641" y2="775.1641"/><text fill="#000000" font-family="sans-serif" font-size="6.5" font-weight="bold" lengthAdjust="spacing" textLength="7" x="893.25" y="772.5327">41</text><text fill="#000000" font-family="sans-serif" font-size="6.5" lengthAdjust="spacing" textLength="40" x="902.25" y="772.5327">save(address)</text><polygon fill="#181818" points="895.25,788.8096,890.25,790.8096,895.25,792.8096,893.25,790.8096" style="stroke:#181818;stroke-width:0.5;"/><line style="stroke:#181818;stroke-width:0.5;stroke-dasharray:2.0,2.0;" x1="892.25" x2="1245.75" y1="790.8096" y2="790.8096"/><text fill="#000000" font-family="sans-serif" font-size="6.5" font-weight="bold" lengthAdjust="spacing" textLength="7" x="898.25" y="788.1782">42</text><text fill="#000000" font-family="sans-serif" font-size="6.5" lengthAdjust="spacing" textLength="23" x="907.25" y="788.1782">address</text><polygon fill="#181818" points="1279.5,807.9551,1284.5,809.9551,1279.5,811.9551,1281.5,809.9551" style="stroke:#181818;stroke-width:0.5;"/><line style="stroke:#181818;stroke-width:0.5;" x1="889.75" x2="1282.5" y1="809.9551" y2="809.9551"/><text fill="#000000" font-family="sans-serif" font-size="6.5" font-weight="bold" lengthAdjust="spacing" textLength="7" x="893.25" y="807.3237">43</text><text fill="#000000" font-family="sans-serif" font-size="6.5" lengthAdjust="spacing" textLength="187.5" x="902.25" y="807.3237">create(clientID, name, vatin, address, phoneNumber, email, type)</text><rect fill="#E3E3E3" height="25.6211" rx="1.25" ry="1.25" style="stroke:#181818;stroke-width:0.25;" width="25.5" x="1285.5" y="798.3096"/><text fill="#000000" font-family="sans-serif" font-size="7" lengthAdjust="spacing" textLength="18.5" x="1289" y="809.3633">client:</text><text fill="#000000" font-family="sans-serif" font-size="7" lengthAdjust="spacing" textLength="18" x="1289.25" y="818.6738">Client</text><polygon fill="#181818" points="1168.75,839.0762,1173.75,841.0762,1168.75,843.0762,1170.75,841.0762" style="stroke:#181818;stroke-width:0.5;"/><line style="stroke:#181818;stroke-width:0.5;" x1="889.75" x2="1171.75" y1="841.0762" y2="841.0762"/><text fill="#000000" font-family="sans-serif" font-size="6.5" font-weight="bold" lengthAdjust="spacing" textLength="7" x="893.25" y="838.4448">44</text><text fill="#000000" font-family="sans-serif" font-size="6.5" lengthAdjust="spacing" textLength="32.5" x="902.25" y="838.4448">save(client)</text><path d="M262.5,848.5762 L293,848.5762 L293,853.2217 L288,858.2217 L262.5,858.2217 L262.5,848.5762 " fill="#EEEEEE" style="stroke:#000000;stroke-width:0.75;"/><rect fill="none" height="104.5186" style="stroke:#000000;stroke-width:0.75;" width="949.5" x="262.5" y="848.5762"/><text fill="#000000" font-family="sans-serif" font-size="6.5" font-weight="bold" lengthAdjust="spacing" textLength="8" x="270" y="856.0903">alt</text><text fill="#000000" font-family="sans-serif" font-size="5.5" font-weight="bold" lengthAdjust="spacing" textLength="41" x="300.5" y="855.5112">[system error]</text><polygon fill="#181818" points="895.25,867.8672,890.25,869.8672,895.25,871.8672,893.25,869.8672" style="stroke:#181818;stroke-width:0.5;"/><line style="stroke:#181818;stroke-width:0.5;stroke-dasharray:2.0,2.0;" x1="892.25" x2="1174.25" y1="869.8672" y2="869.8672"/><text fill="#000000" font-family="sans-serif" font-size="6.5" font-weight="bold" lengthAdjust="spacing" textLength="7" x="898.25" y="867.2358">45</text><text fill="#000000" font-family="sans-serif" font-size="6.5" lengthAdjust="spacing" textLength="42.5" x="907.25" y="867.2358">Database error</text><polygon fill="#181818" points="600.25,883.5127,595.25,885.5127,600.25,887.5127,598.25,885.5127" style="stroke:#181818;stroke-width:0.5;"/><line style="stroke:#181818;stroke-width:0.5;stroke-dasharray:2.0,2.0;" x1="597.25" x2="884.25" y1="885.5127" y2="885.5127"/><text fill="#000000" font-family="sans-serif" font-size="6.5" font-weight="bold" lengthAdjust="spacing" textLength="7" x="603.25" y="882.8813">46</text><text fill="#000000" font-family="sans-serif" font-size="6.5" lengthAdjust="spacing" textLength="107" x="612.25" y="882.8813">show error message (Database error)</text><polygon fill="#181818" points="305.25,899.1582,300.25,901.1582,305.25,903.1582,303.25,901.1582" style="stroke:#181818;stroke-width:0.5;"/><line style="stroke:#181818;stroke-width:0.5;stroke-dasharray:2.0,2.0;" x1="302.25" x2="589.25" y1="901.1582" y2="901.1582"/><text fill="#000000" font-family="sans-serif" font-size="6.5" font-weight="bold" lengthAdjust="spacing" textLength="7" x="308.25" y="898.5269">47</text><text fill="#000000" font-family="sans-serif" font-size="6.5" lengthAdjust="spacing" textLength="107" x="317.25" y="898.5269">show error message (Database error)</text><line style="stroke:#000000;stroke-width:0.5;stroke-dasharray:2.0,2.0;" x1="262.5" x2="1212" y1="905.6582" y2="905.6582"/><polygon fill="#181818" points="895.25,915.8037,890.25,917.8037,895.25,919.8037,893.25,917.8037" style="stroke:#181818;stroke-width:0.5;"/><line style="stroke:#181818;stroke-width:0.5;stroke-dasharray:2.0,2.0;" x1="892.25" x2="1176.75" y1="917.8037" y2="917.8037"/><text fill="#000000" font-family="sans-serif" font-size="6.5" font-weight="bold" lengthAdjust="spacing" textLength="7" x="898.25" y="915.1724">48</text><text fill="#000000" font-family="sans-serif" font-size="6.5" lengthAdjust="spacing" textLength="15.5" x="907.25" y="915.1724">client</text><polygon fill="#181818" points="600.25,931.4492,595.25,933.4492,600.25,935.4492,598.25,933.4492" style="stroke:#181818;stroke-width:0.5;"/><line style="stroke:#181818;stroke-width:0.5;stroke-dasharray:2.0,2.0;" x1="597.25" x2="886.75" y1="933.4492" y2="933.4492"/><text fill="#000000" font-family="sans-serif" font-size="6.5" font-weight="bold" lengthAdjust="spacing" textLength="7" x="603.25" y="930.8179">49</text><text fill="#000000" font-family="sans-serif" font-size="6.5" lengthAdjust="spacing" textLength="15.5" x="612.25" y="930.8179">client</text><polygon fill="#181818" points="305.25,947.0947,300.25,949.0947,305.25,951.0947,303.25,949.0947" style="stroke:#181818;stroke-width:0.5;"/><line style="stroke:#181818;stroke-width:0.5;stroke-dasharray:2.0,2.0;" x1="302.25" x2="591.75" y1="949.0947" y2="949.0947"/><text fill="#000000" font-family="sans-serif" font-size="6.5" font-weight="bold" lengthAdjust="spacing" textLength="7" x="308.25" y="946.4634">50</text><text fill="#000000" font-family="sans-serif" font-size="6.5" lengthAdjust="spacing" textLength="15.5" x="317.25" y="946.4634">client</text><polygon fill="#181818" points="30.25,966.2402,25.25,968.2402,30.25,970.2402,28.25,968.2402" style="stroke:#181818;stroke-width:0.5;"/><line style="stroke:#181818;stroke-width:0.5;stroke-dasharray:2.0,2.0;" x1="27.25" x2="296.75" y1="968.2402" y2="968.2402"/><text fill="#000000" font-family="sans-serif" font-size="6.5" font-weight="bold" lengthAdjust="spacing" textLength="7" x="33.25" y="965.6089">51</text><text fill="#000000" font-family="sans-serif" font-size="6.5" lengthAdjust="spacing" textLength="186" x="42.25" y="965.6089">shows all data and displays operation success or error message</text><!--SRC=[pLXDRziu4BtxLmnoiWktlVkmW67xO20R57OQzD0BAuqT8XAfYhHTxw_la9HaIg8-qhJ5wj9QUlFuE9mt9ADUkCXOpb98fP3HSovJ19sVSAAgBncBNjWHz_gQ8EGOQIQEYGzGpooM5owES629mib4SqtG_LLfJ66Ftqye8eGrPqS3d-xtwzbamavQYbFw3NFwVwHb3dVBEEM2Avqp-da7JC5o_U-41j4yuXaJ6kuMEpmI0lDLmb7epriB-xnjeDpNbHGwbqc2ZcprkBiFulQOdtc45hJVFTKn3hBv4M6ckHGMjFcogeDsc4d5IJL7PH6xpQTz7P9xaAzY4Oge1qHsu0ftNNmLgyOh6zZ4rLbO7EUeL8rcsNndULh8a9nAXCle_NRpy1WSy3PCiP3htMRVICaJItXShVNJyhuidNAHmOrLrP2j57vc6crb03tqBxp_Xoe05aJoea1BAj8Yd870Iv4WYwx2gMBi2_DGB36OwdZtZbYY70aH-amVZwYNIU9agUci0bN4jiZ0UsmW4L1XkVXsS8t0563jYtbCC76Ogd8aMw78Xn4sM6fCjWQRNot5UwTd0NvHjg0nzbFTHFaJkzNFWBQGj5APMOPcMVVBwynPawTQn3vvWuEtM9l2UzFPIszrtoekHETHcNAfbrhfXcQW5rGLgQbjmXiJBQYFomlvvnaX8Vk0F9GKm4HCfK8ULFGZakB0yvIPRZXf49UsybrPu0qpqq3i5sOuH_lKzs6bjL93_OF1b7_03_30Kfp34maJSoYQpnpC9a1qi1K72TDFpr8WFDXzPmwRbF5aDeV7QuQpCNFH15GV5IQq3QfI1CPMHQzmjvoBQihEArCtvUrw3iAAFplnj0KYwZdynxELZEczbXTw7SaJRMZNEMHc5kKaq4nYRgMziX_zFJcZEnnj0WlWokuCQqhgDCHTwEZnhzbBMXyJxQg5YxEXRm7CGu6txbWSPqAuGYuT1AWewDXqALcjw5amfb9dZWyX0Bs_3LwTEE3Hy8jWX5UkNQH-Et4U1ynpEcwbP0ywry5qwvJRvCp2q_KwonYE0QcXrK6Jwi4LiKVJNs4NST-c-hkthp-tUtbADp_8kghox5jsCsCD1mAqhC4ST-rvnRACz8bZMIPqoeglWtFuF_kcE9moDvMgbsBygoRg8Hnjb-v5Sjri81k3fH9qKi1DhJl6K5CCMQfbg_OTPM0-GMzvSjlN8pXm4HVgfyNd0UdZL1cJ5SW-brbeax2LWM1ePr4CS8fJadJ6USbipxCpgaXlSUtpxbNzAUrV6SNE8-9VkInloFTWUeABD60WTwVsCzPnAcFb2RVx-DKtJdjdiUbrhmSAVh1BbFMktD-0R9_hJ65topA7gMzCOK7GNpAzlRhEDEkc6cpIJQPN6x5xkju5wArjEfoPyGFuryhU58sdRDr4MewutV3AooXB4dTcDpVGcAiiOLS5CiFSNZz1dQB8z5DQeDeoXUvotayQuIS0]--></g></svg>