<?xml version="1.0" encoding="us-ascii" standalone="no"?><svg xmlns="http://www.w3.org/2000/svg" xmlns:xlink="http://www.w3.org/1999/xlink" contentStyleType="text/css" height="1941px" preserveAspectRatio="none" style="width:2787px;height:1941px;background:#FFFFFF;" version="1.1" viewBox="0 0 2787 1941" width="2787px" zoomAndPan="magnify"><defs/><g><text fill="#000000" font-family="sans-serif" font-size="14" font-weight="bold" lengthAdjust="spacing" textLength="180" x="1302.5" y="30.1074">Register Client Sequence</text><rect fill="#FFFFFF" height="1707.3652" style="stroke:#181818;stroke-width:1.0;" width="10" x="44.5" y="133.2422"/><rect fill="#FFFFFF" height="387.8223" style="stroke:#181818;stroke-width:1.0;" width="10" x="589.5" y="156.5332"/><rect fill="#FFFFFF" height="31.291" style="stroke:#181818;stroke-width:1.0;" width="10" x="589.5" y="575.6465"/><rect fill="#FFFFFF" height="1202.3789" style="stroke:#181818;stroke-width:1.0;" width="10" x="589.5" y="638.2285"/><rect fill="#FFFFFF" height="281.6191" style="stroke:#181818;stroke-width:1.0;" width="10" x="1179.5" y="231.4453"/><rect fill="#FFFFFF" height="1118.7969" style="stroke:#181818;stroke-width:1.0;" width="10" x="1179.5" y="669.5195"/><rect fill="#FFFFFF" height="219.0371" style="stroke:#181818;stroke-width:1.0;" width="10" x="1769.5" y="262.7363"/><rect fill="#FFFFFF" height="1056.2148" style="stroke:#181818;stroke-width:1.0;" width="10" x="1769.5" y="700.8105"/><rect fill="#FFFFFF" height="31.291" style="stroke:#181818;stroke-width:1.0;" width="10" x="2014.5" y="820.9746"/><rect fill="#FFFFFF" height="31.291" style="stroke:#181818;stroke-width:1.0;" width="10" x="2014.5" y="1099.5938"/><rect fill="#FFFFFF" height="31.291" style="stroke:#181818;stroke-width:1.0;" width="10" x="2126.5" y="294.0273"/><rect fill="#FFFFFF" height="31.291" style="stroke:#181818;stroke-width:1.0;" width="10" x="2231.5" y="356.6094"/><rect fill="#FFFFFF" height="31.291" style="stroke:#181818;stroke-width:1.0;" width="10" x="2231.5" y="948.1387"/><rect fill="#FFFFFF" height="31.291" style="stroke:#181818;stroke-width:1.0;" width="10" x="2231.5" y="1226.7578"/><rect fill="#FFFFFF" height="31.291" style="stroke:#181818;stroke-width:1.0;" width="10" x="2349.5" y="419.1914"/><rect fill="#FFFFFF" height="31.291" style="stroke:#181818;stroke-width:1.0;" width="10" x="2349.5" y="1010.7207"/><rect fill="#FFFFFF" height="153.4551" style="stroke:#181818;stroke-width:1.0;" width="10" x="2349.5" y="1572.2793"/><rect fill="#FFFFFF" height="31.291" style="stroke:#181818;stroke-width:1.0;" width="10" x="2487.5" y="1289.3398"/><rect fill="#FFFFFF" height="31.291" style="stroke:#181818;stroke-width:1.0;" width="10" x="2487.5" y="1440.4551"/><rect fill="#FFFFFF" height="31.291" style="stroke:#181818;stroke-width:1.0;" width="10" x="2741" y="732.1016"/><rect fill="none" height="1031.9238" style="stroke:#000000;stroke-width:1.5;" width="2226" x="505" y="778.3926"/><rect fill="none" height="746.3047" style="stroke:#000000;stroke-width:1.5;" width="2206" x="515" y="1057.0117"/><rect fill="none" height="144.1152" style="stroke:#000000;stroke-width:1.5;" width="997" x="1714" y="1335.6309"/><rect fill="none" height="209.0371" style="stroke:#000000;stroke-width:1.5;" width="1899" x="525" y="1587.2793"/><line style="stroke:#181818;stroke-width:0.5;stroke-dasharray:5.0,5.0;" x1="49" x2="49" y1="123.2422" y2="1858.6074"/><line style="stroke:#181818;stroke-width:0.5;stroke-dasharray:5.0,5.0;" x1="594" x2="594" y1="123.2422" y2="1858.6074"/><line style="stroke:#181818;stroke-width:0.5;stroke-dasharray:5.0,5.0;" x1="1184.5" x2="1184.5" y1="196.3438" y2="1858.6074"/><line style="stroke:#181818;stroke-width:0.5;stroke-dasharray:5.0,5.0;" x1="1774" x2="1774" y1="123.2422" y2="1858.6074"/><line style="stroke:#181818;stroke-width:0.5;stroke-dasharray:5.0,5.0;" x1="2019" x2="2019" y1="123.2422" y2="1858.6074"/><line style="stroke:#181818;stroke-width:0.5;stroke-dasharray:5.0,5.0;" x1="2131" x2="2131" y1="123.2422" y2="1858.6074"/><line style="stroke:#181818;stroke-width:0.5;stroke-dasharray:5.0,5.0;" x1="2236" x2="2236" y1="123.2422" y2="1858.6074"/><line style="stroke:#181818;stroke-width:0.5;stroke-dasharray:5.0,5.0;" x1="2354" x2="2354" y1="123.2422" y2="1858.6074"/><line style="stroke:#181818;stroke-width:0.5;stroke-dasharray:5.0,5.0;" x1="2492" x2="2492" y1="123.2422" y2="1858.6074"/><line style="stroke:#181818;stroke-width:0.5;stroke-dasharray:5.0,5.0;" x1="2596" x2="2596" y1="1527.8672" y2="1858.6074"/><line style="stroke:#181818;stroke-width:0.5;stroke-dasharray:5.0,5.0;" x1="2666" x2="2666" y1="1396.043" y2="1858.6074"/><line style="stroke:#181818;stroke-width:0.5;stroke-dasharray:5.0,5.0;" x1="2746" x2="2746" y1="123.2422" y2="1858.6074"/><text fill="#000000" font-family="sans-serif" font-size="14" lengthAdjust="spacing" textLength="83" x="5" y="119.7285">Administrator</text><ellipse cx="49.5" cy="53.1211" fill="#E3E3E3" rx="8" ry="8" style="stroke:#181818;stroke-width:0.5;"/><path d="M49.5,61.1211 L49.5,88.1211 M36.5,69.1211 L62.5,69.1211 M49.5,88.1211 L36.5,103.1211 M49.5,88.1211 L62.5,103.1211 " fill="none" style="stroke:#181818;stroke-width:0.5;"/><text fill="#000000" font-family="sans-serif" font-size="14" lengthAdjust="spacing" textLength="83" x="5" y="1872.7148">Administrator</text><ellipse cx="49.5" cy="1884.7285" fill="#E3E3E3" rx="8" ry="8" style="stroke:#181818;stroke-width:0.5;"/><path d="M49.5,1892.7285 L49.5,1919.7285 M36.5,1900.7285 L62.5,1900.7285 M49.5,1919.7285 L36.5,1934.7285 M49.5,1919.7285 L62.5,1934.7285 " fill="none" style="stroke:#181818;stroke-width:0.5;"/><rect fill="#E3E3E3" height="32.6211" rx="2.5" ry="2.5" style="stroke:#181818;stroke-width:0.5;" width="119" x="535" y="89.6211"/><text fill="#000000" font-family="sans-serif" font-size="14" lengthAdjust="spacing" textLength="105" x="542" y="111.7285">:RegisterClientUI</text><rect fill="#E3E3E3" height="32.6211" rx="2.5" ry="2.5" style="stroke:#181818;stroke-width:0.5;" width="119" x="535" y="1857.6074"/><text fill="#000000" font-family="sans-serif" font-size="14" lengthAdjust="spacing" textLength="105" x="542" y="1879.7148">:RegisterClientUI</text><rect fill="#E3E3E3" height="32.6211" rx="2.5" ry="2.5" style="stroke:#181818;stroke-width:0.5;" width="116" x="1126.5" y="1857.6074"/><text fill="#000000" font-family="sans-serif" font-size="14" lengthAdjust="spacing" textLength="102" x="1133.5" y="1879.7148">:ClientController</text><rect fill="#E3E3E3" height="32.6211" rx="2.5" ry="2.5" style="stroke:#181818;stroke-width:0.5;" width="101" x="1724" y="89.6211"/><text fill="#000000" font-family="sans-serif" font-size="14" lengthAdjust="spacing" textLength="87" x="1731" y="111.7285">:ClientService</text><rect fill="#E3E3E3" height="32.6211" rx="2.5" ry="2.5" style="stroke:#181818;stroke-width:0.5;" width="101" x="1724" y="1857.6074"/><text fill="#000000" font-family="sans-serif" font-size="14" lengthAdjust="spacing" textLength="87" x="1731" y="1879.7148">:ClientService</text><rect fill="#E3E3E3" height="32.6211" rx="2.5" ry="2.5" style="stroke:#181818;stroke-width:0.5;" width="111" x="1964" y="89.6211"/><text fill="#000000" font-family="sans-serif" font-size="14" lengthAdjust="spacing" textLength="97" x="1971" y="111.7285">ClientException</text><rect fill="#E3E3E3" height="32.6211" rx="2.5" ry="2.5" style="stroke:#181818;stroke-width:0.5;" width="111" x="1964" y="1857.6074"/><text fill="#000000" font-family="sans-serif" font-size="14" lengthAdjust="spacing" textLength="97" x="1971" y="1879.7148">ClientException</text><rect fill="#E3E3E3" height="32.6211" rx="2.5" ry="2.5" style="stroke:#181818;stroke-width:0.5;" width="93" x="2085" y="89.6211"/><text fill="#000000" font-family="sans-serif" font-size="14" lengthAdjust="spacing" textLength="79" x="2092" y="111.7285">Repositories</text><rect fill="#E3E3E3" height="32.6211" rx="2.5" ry="2.5" style="stroke:#181818;stroke-width:0.5;" width="93" x="2085" y="1857.6074"/><text fill="#000000" font-family="sans-serif" font-size="14" lengthAdjust="spacing" textLength="79" x="2092" y="1879.7148">Repositories</text><rect fill="#E3E3E3" height="51.2422" rx="2.5" ry="2.5" style="stroke:#181818;stroke-width:0.5;" width="97" x="2188" y="71"/><text fill="#000000" font-family="sans-serif" font-size="14" lengthAdjust="spacing" textLength="74" x="2199.5" y="93.1074">repositories</text><text fill="#000000" font-family="sans-serif" font-size="14" lengthAdjust="spacing" textLength="83" x="2195" y="111.7285">:Repositories</text><rect fill="#E3E3E3" height="51.2422" rx="2.5" ry="2.5" style="stroke:#181818;stroke-width:0.5;" width="97" x="2188" y="1857.6074"/><text fill="#000000" font-family="sans-serif" font-size="14" lengthAdjust="spacing" textLength="74" x="2199.5" y="1879.7148">repositories</text><text fill="#000000" font-family="sans-serif" font-size="14" lengthAdjust="spacing" textLength="83" x="2195" y="1898.3359">:Repositories</text><rect fill="#E3E3E3" height="51.2422" rx="2.5" ry="2.5" style="stroke:#181818;stroke-width:0.5;" width="119" x="2295" y="71"/><text fill="#000000" font-family="sans-serif" font-size="14" lengthAdjust="spacing" textLength="105" x="2302" y="93.1074">clientRepository:</text><text fill="#000000" font-family="sans-serif" font-size="14" lengthAdjust="spacing" textLength="104" x="2302.5" y="111.7285">ClientRepository</text><rect fill="#E3E3E3" height="51.2422" rx="2.5" ry="2.5" style="stroke:#181818;stroke-width:0.5;" width="119" x="2295" y="1857.6074"/><text fill="#000000" font-family="sans-serif" font-size="14" lengthAdjust="spacing" textLength="105" x="2302" y="1879.7148">clientRepository:</text><text fill="#000000" font-family="sans-serif" font-size="14" lengthAdjust="spacing" textLength="104" x="2302.5" y="1898.3359">ClientRepository</text><rect fill="#E3E3E3" height="51.2422" rx="2.5" ry="2.5" style="stroke:#181818;stroke-width:0.5;" width="137" x="2424" y="71"/><text fill="#000000" font-family="sans-serif" font-size="14" lengthAdjust="spacing" textLength="123" x="2431" y="93.1074">addressRepository:</text><text fill="#000000" font-family="sans-serif" font-size="14" lengthAdjust="spacing" textLength="120" x="2432.5" y="111.7285">AddressRepository</text><rect fill="#E3E3E3" height="51.2422" rx="2.5" ry="2.5" style="stroke:#181818;stroke-width:0.5;" width="137" x="2424" y="1857.6074"/><text fill="#000000" font-family="sans-serif" font-size="14" lengthAdjust="spacing" textLength="123" x="2431" y="1879.7148">addressRepository:</text><text fill="#000000" font-family="sans-serif" font-size="14" lengthAdjust="spacing" textLength="120" x="2432.5" y="1898.3359">AddressRepository</text><rect fill="#E3E3E3" height="51.2422" rx="2.5" ry="2.5" style="stroke:#181818;stroke-width:0.5;" width="51" x="2571" y="1857.6074"/><text fill="#000000" font-family="sans-serif" font-size="14" lengthAdjust="spacing" textLength="37" x="2578" y="1879.7148">client:</text><text fill="#000000" font-family="sans-serif" font-size="14" lengthAdjust="spacing" textLength="36" x="2578.5" y="1898.3359">Client</text><rect fill="#E3E3E3" height="51.2422" rx="2.5" ry="2.5" style="stroke:#181818;stroke-width:0.5;" width="69" x="2632" y="1857.6074"/><text fill="#000000" font-family="sans-serif" font-size="14" lengthAdjust="spacing" textLength="55" x="2639" y="1879.7148">address:</text><text fill="#000000" font-family="sans-serif" font-size="14" lengthAdjust="spacing" textLength="52" x="2640.5" y="1898.3359">Address</text><rect fill="#E3E3E3" height="32.6211" rx="2.5" ry="2.5" style="stroke:#181818;stroke-width:0.5;" width="70" x="2711" y="89.6211"/><text fill="#000000" font-family="sans-serif" font-size="14" lengthAdjust="spacing" textLength="56" x="2718" y="111.7285">Validator</text><rect fill="#E3E3E3" height="32.6211" rx="2.5" ry="2.5" style="stroke:#181818;stroke-width:0.5;" width="70" x="2711" y="1857.6074"/><text fill="#000000" font-family="sans-serif" font-size="14" lengthAdjust="spacing" textLength="56" x="2718" y="1879.7148">Validator</text><rect fill="#FFFFFF" height="1707.3652" style="stroke:#181818;stroke-width:1.0;" width="10" x="44.5" y="133.2422"/><rect fill="#FFFFFF" height="387.8223" style="stroke:#181818;stroke-width:1.0;" width="10" x="589.5" y="156.5332"/><rect fill="#FFFFFF" height="31.291" style="stroke:#181818;stroke-width:1.0;" width="10" x="589.5" y="575.6465"/><rect fill="#FFFFFF" height="1202.3789" style="stroke:#181818;stroke-width:1.0;" width="10" x="589.5" y="638.2285"/><rect fill="#FFFFFF" height="281.6191" style="stroke:#181818;stroke-width:1.0;" width="10" x="1179.5" y="231.4453"/><rect fill="#FFFFFF" height="1118.7969" style="stroke:#181818;stroke-width:1.0;" width="10" x="1179.5" y="669.5195"/><rect fill="#FFFFFF" height="219.0371" style="stroke:#181818;stroke-width:1.0;" width="10" x="1769.5" y="262.7363"/><rect fill="#FFFFFF" height="1056.2148" style="stroke:#181818;stroke-width:1.0;" width="10" x="1769.5" y="700.8105"/><rect fill="#FFFFFF" height="31.291" style="stroke:#181818;stroke-width:1.0;" width="10" x="2014.5" y="820.9746"/><rect fill="#FFFFFF" height="31.291" style="stroke:#181818;stroke-width:1.0;" width="10" x="2014.5" y="1099.5938"/><rect fill="#FFFFFF" height="31.291" style="stroke:#181818;stroke-width:1.0;" width="10" x="2126.5" y="294.0273"/><rect fill="#FFFFFF" height="31.291" style="stroke:#181818;stroke-width:1.0;" width="10" x="2231.5" y="356.6094"/><rect fill="#FFFFFF" height="31.291" style="stroke:#181818;stroke-width:1.0;" width="10" x="2231.5" y="948.1387"/><rect fill="#FFFFFF" height="31.291" style="stroke:#181818;stroke-width:1.0;" width="10" x="2231.5" y="1226.7578"/><rect fill="#FFFFFF" height="31.291" style="stroke:#181818;stroke-width:1.0;" width="10" x="2349.5" y="419.1914"/><rect fill="#FFFFFF" height="31.291" style="stroke:#181818;stroke-width:1.0;" width="10" x="2349.5" y="1010.7207"/><rect fill="#FFFFFF" height="153.4551" style="stroke:#181818;stroke-width:1.0;" width="10" x="2349.5" y="1572.2793"/><rect fill="#FFFFFF" height="31.291" style="stroke:#181818;stroke-width:1.0;" width="10" x="2487.5" y="1289.3398"/><rect fill="#FFFFFF" height="31.291" style="stroke:#181818;stroke-width:1.0;" width="10" x="2487.5" y="1440.4551"/><rect fill="#FFFFFF" height="31.291" style="stroke:#181818;stroke-width:1.0;" width="10" x="2741" y="732.1016"/><polygon fill="#181818" points="577.5,152.5332,587.5,156.5332,577.5,160.5332,581.5,156.5332" style="stroke:#181818;stroke-width:1.0;"/><line style="stroke:#181818;stroke-width:1.0;" x1="54.5" x2="583.5" y1="156.5332" y2="156.5332"/><text fill="#000000" font-family="sans-serif" font-size="13" font-weight="bold" lengthAdjust="spacing" textLength="7" x="61.5" y="151.2705">1</text><text fill="#000000" font-family="sans-serif" font-size="13" lengthAdjust="spacing" textLength="163" x="72.5" y="151.2705">asks to register a new client</text><polygon fill="#181818" points="1114.5,183.8242,1124.5,187.8242,1114.5,191.8242,1118.5,187.8242" style="stroke:#181818;stroke-width:1.0;"/><line style="stroke:#181818;stroke-width:1.0;" x1="599.5" x2="1120.5" y1="187.8242" y2="187.8242"/><text fill="#000000" font-family="sans-serif" font-size="13" font-weight="bold" lengthAdjust="spacing" textLength="7" x="606.5" y="182.5615">2</text><text fill="#000000" font-family="sans-serif" font-size="13" lengthAdjust="spacing" textLength="36" x="617.5" y="182.5615">create</text><rect fill="#E3E3E3" height="32.6211" rx="2.5" ry="2.5" style="stroke:#181818;stroke-width:0.5;" width="116" x="1126.5" y="164.5332"/><text fill="#000000" font-family="sans-serif" font-size="14" lengthAdjust="spacing" textLength="102" x="1133.5" y="186.6406">:ClientController</text><polygon fill="#181818" points="1167.5,227.4453,1177.5,231.4453,1167.5,235.4453,1171.5,231.4453" style="stroke:#181818;stroke-width:1.0;"/><line style="stroke:#181818;stroke-width:1.0;" x1="599.5" x2="1173.5" y1="231.4453" y2="231.4453"/><text fill="#000000" font-family="sans-serif" font-size="13" font-weight="bold" lengthAdjust="spacing" textLength="7" x="606.5" y="226.1826">3</text><text fill="#000000" font-family="sans-serif" font-size="13" lengthAdjust="spacing" textLength="81" x="617.5" y="226.1826">getAllClients()</text><polygon fill="#181818" points="1757.5,258.7363,1767.5,262.7363,1757.5,266.7363,1761.5,262.7363" style="stroke:#181818;stroke-width:1.0;"/><line style="stroke:#181818;stroke-width:1.0;" x1="1189.5" x2="1763.5" y1="262.7363" y2="262.7363"/><text fill="#000000" font-family="sans-serif" font-size="13" font-weight="bold" lengthAdjust="spacing" textLength="7" x="1196.5" y="257.4736">4</text><text fill="#000000" font-family="sans-serif" font-size="13" lengthAdjust="spacing" textLength="66" x="1207.5" y="257.4736">getClients()</text><polygon fill="#181818" points="2114.5,290.0273,2124.5,294.0273,2114.5,298.0273,2118.5,294.0273" style="stroke:#181818;stroke-width:1.0;"/><line style="stroke:#181818;stroke-width:1.0;" x1="1779.5" x2="2120.5" y1="294.0273" y2="294.0273"/><text fill="#000000" font-family="sans-serif" font-size="13" font-weight="bold" lengthAdjust="spacing" textLength="7" x="1786.5" y="288.7646">5</text><text fill="#000000" font-family="sans-serif" font-size="13" lengthAdjust="spacing" textLength="75" x="1797.5" y="288.7646">getInstance()</text><polygon fill="#181818" points="1790.5,321.3184,1780.5,325.3184,1790.5,329.3184,1786.5,325.3184" style="stroke:#181818;stroke-width:1.0;"/><line style="stroke:#181818;stroke-width:1.0;stroke-dasharray:2.0,2.0;" x1="1784.5" x2="2130.5" y1="325.3184" y2="325.3184"/><text fill="#000000" font-family="sans-serif" font-size="13" font-weight="bold" lengthAdjust="spacing" textLength="7" x="1796.5" y="320.0557">6</text><text fill="#000000" font-family="sans-serif" font-size="13" lengthAdjust="spacing" textLength="67" x="1807.5" y="320.0557">repositories</text><polygon fill="#181818" points="2219.5,352.6094,2229.5,356.6094,2219.5,360.6094,2223.5,356.6094" style="stroke:#181818;stroke-width:1.0;"/><line style="stroke:#181818;stroke-width:1.0;" x1="1779.5" x2="2225.5" y1="356.6094" y2="356.6094"/><text fill="#000000" font-family="sans-serif" font-size="13" font-weight="bold" lengthAdjust="spacing" textLength="7" x="1786.5" y="351.3467">7</text><text fill="#000000" font-family="sans-serif" font-size="13" lengthAdjust="spacing" textLength="121" x="1797.5" y="351.3467">getClientRepository()</text><polygon fill="#181818" points="1790.5,383.9004,1780.5,387.9004,1790.5,391.9004,1786.5,387.9004" style="stroke:#181818;stroke-width:1.0;"/><line style="stroke:#181818;stroke-width:1.0;stroke-dasharray:2.0,2.0;" x1="1784.5" x2="2235.5" y1="387.9004" y2="387.9004"/><text fill="#000000" font-family="sans-serif" font-size="13" font-weight="bold" lengthAdjust="spacing" textLength="7" x="1796.5" y="382.6377">8</text><text fill="#000000" font-family="sans-serif" font-size="13" lengthAdjust="spacing" textLength="93" x="1807.5" y="382.6377">clientRepository</text><polygon fill="#181818" points="2337.5,415.1914,2347.5,419.1914,2337.5,423.1914,2341.5,419.1914" style="stroke:#181818;stroke-width:1.0;"/><line style="stroke:#181818;stroke-width:1.0;" x1="1779.5" x2="2343.5" y1="419.1914" y2="419.1914"/><text fill="#000000" font-family="sans-serif" font-size="13" font-weight="bold" lengthAdjust="spacing" textLength="7" x="1786.5" y="413.9287">9</text><text fill="#000000" font-family="sans-serif" font-size="13" lengthAdjust="spacing" textLength="41" x="1797.5" y="413.9287">getAll()</text><polygon fill="#181818" points="1790.5,446.4824,1780.5,450.4824,1790.5,454.4824,1786.5,450.4824" style="stroke:#181818;stroke-width:1.0;"/><line style="stroke:#181818;stroke-width:1.0;stroke-dasharray:2.0,2.0;" x1="1784.5" x2="2353.5" y1="450.4824" y2="450.4824"/><text fill="#000000" font-family="sans-serif" font-size="13" font-weight="bold" lengthAdjust="spacing" textLength="14" x="1796.5" y="445.2197">10</text><text fill="#000000" font-family="sans-serif" font-size="13" lengthAdjust="spacing" textLength="38" x="1814.5" y="445.2197">clients</text><polygon fill="#181818" points="1200.5,477.7734,1190.5,481.7734,1200.5,485.7734,1196.5,481.7734" style="stroke:#181818;stroke-width:1.0;"/><line style="stroke:#181818;stroke-width:1.0;stroke-dasharray:2.0,2.0;" x1="1194.5" x2="1773.5" y1="481.7734" y2="481.7734"/><text fill="#000000" font-family="sans-serif" font-size="13" font-weight="bold" lengthAdjust="spacing" textLength="14" x="1206.5" y="476.5107">11</text><text fill="#000000" font-family="sans-serif" font-size="13" lengthAdjust="spacing" textLength="38" x="1224.5" y="476.5107">clients</text><polygon fill="#181818" points="610.5,509.0645,600.5,513.0645,610.5,517.0645,606.5,513.0645" style="stroke:#181818;stroke-width:1.0;"/><line style="stroke:#181818;stroke-width:1.0;stroke-dasharray:2.0,2.0;" x1="604.5" x2="1183.5" y1="513.0645" y2="513.0645"/><text fill="#000000" font-family="sans-serif" font-size="13" font-weight="bold" lengthAdjust="spacing" textLength="14" x="616.5" y="507.8018">12</text><text fill="#000000" font-family="sans-serif" font-size="13" lengthAdjust="spacing" textLength="38" x="634.5" y="507.8018">clients</text><polygon fill="#181818" points="65.5,540.3555,55.5,544.3555,65.5,548.3555,61.5,544.3555" style="stroke:#181818;stroke-width:1.0;"/><line style="stroke:#181818;stroke-width:1.0;stroke-dasharray:2.0,2.0;" x1="59.5" x2="593.5" y1="544.3555" y2="544.3555"/><text fill="#000000" font-family="sans-serif" font-size="13" font-weight="bold" lengthAdjust="spacing" textLength="14" x="71.5" y="539.0928">13</text><text fill="#000000" font-family="sans-serif" font-size="13" lengthAdjust="spacing" textLength="289" x="89.5" y="539.0928">shows the list of clients and requests confirmation</text><polygon fill="#181818" points="577.5,571.6465,587.5,575.6465,577.5,579.6465,581.5,575.6465" style="stroke:#181818;stroke-width:1.0;"/><line style="stroke:#181818;stroke-width:1.0;" x1="54.5" x2="583.5" y1="575.6465" y2="575.6465"/><text fill="#000000" font-family="sans-serif" font-size="13" font-weight="bold" lengthAdjust="spacing" textLength="14" x="61.5" y="570.3838">14</text><text fill="#000000" font-family="sans-serif" font-size="13" lengthAdjust="spacing" textLength="266" x="79.5" y="570.3838">confirms that he wants to register a new client</text><polygon fill="#181818" points="65.5,602.9375,55.5,606.9375,65.5,610.9375,61.5,606.9375" style="stroke:#181818;stroke-width:1.0;"/><line style="stroke:#181818;stroke-width:1.0;stroke-dasharray:2.0,2.0;" x1="59.5" x2="593.5" y1="606.9375" y2="606.9375"/><text fill="#000000" font-family="sans-serif" font-size="13" font-weight="bold" lengthAdjust="spacing" textLength="14" x="71.5" y="601.6748">15</text><text fill="#000000" font-family="sans-serif" font-size="13" lengthAdjust="spacing" textLength="493" x="89.5" y="601.6748">requests data (i.e. Name, Vatin, Address, Contact Info (Phone Number, Email), Type)</text><polygon fill="#181818" points="577.5,634.2285,587.5,638.2285,577.5,642.2285,581.5,638.2285" style="stroke:#181818;stroke-width:1.0;"/><line style="stroke:#181818;stroke-width:1.0;" x1="54.5" x2="583.5" y1="638.2285" y2="638.2285"/><text fill="#000000" font-family="sans-serif" font-size="13" font-weight="bold" lengthAdjust="spacing" textLength="14" x="61.5" y="632.9658">16</text><text fill="#000000" font-family="sans-serif" font-size="13" lengthAdjust="spacing" textLength="168" x="79.5" y="632.9658">types/selects requested data</text><polygon fill="#181818" points="1167.5,665.5195,1177.5,669.5195,1167.5,673.5195,1171.5,669.5195" style="stroke:#181818;stroke-width:1.0;"/><line style="stroke:#181818;stroke-width:1.0;" x1="599.5" x2="1173.5" y1="669.5195" y2="669.5195"/><text fill="#000000" font-family="sans-serif" font-size="13" font-weight="bold" lengthAdjust="spacing" textLength="14" x="606.5" y="664.2568">17</text><text fill="#000000" font-family="sans-serif" font-size="13" lengthAdjust="spacing" textLength="543" x="624.5" y="664.2568">registerClient(clientID, name, vatin, street, zipCode, town, country, phoneNumber, email, type)</text><polygon fill="#181818" points="1757.5,696.8105,1767.5,700.8105,1757.5,704.8105,1761.5,700.8105" style="stroke:#181818;stroke-width:1.0;"/><line style="stroke:#181818;stroke-width:1.0;" x1="1189.5" x2="1763.5" y1="700.8105" y2="700.8105"/><text fill="#000000" font-family="sans-serif" font-size="13" font-weight="bold" lengthAdjust="spacing" textLength="14" x="1196.5" y="695.5479">18</text><text fill="#000000" font-family="sans-serif" font-size="13" lengthAdjust="spacing" textLength="543" x="1214.5" y="695.5479">registerClient(clientID, name, vatin, street, zipCode, town, country, phoneNumber, email, type)</text><polygon fill="#181818" points="2729,728.1016,2739,732.1016,2729,736.1016,2733,732.1016" style="stroke:#181818;stroke-width:1.0;"/><line style="stroke:#181818;stroke-width:1.0;" x1="1779.5" x2="2735" y1="732.1016" y2="732.1016"/><text fill="#000000" font-family="sans-serif" font-size="13" font-weight="bold" lengthAdjust="spacing" textLength="14" x="1786.5" y="726.8389">19</text><text fill="#000000" font-family="sans-serif" font-size="13" lengthAdjust="spacing" textLength="248" x="1804.5" y="726.8389">isValidData(phoneNumber, email, zipCode)</text><polygon fill="#181818" points="1790.5,759.3926,1780.5,763.3926,1790.5,767.3926,1786.5,763.3926" style="stroke:#181818;stroke-width:1.0;"/><line style="stroke:#181818;stroke-width:1.0;stroke-dasharray:2.0,2.0;" x1="1784.5" x2="2745" y1="763.3926" y2="763.3926"/><text fill="#000000" font-family="sans-serif" font-size="13" font-weight="bold" lengthAdjust="spacing" textLength="14" x="1796.5" y="758.1299">20</text><text fill="#000000" font-family="sans-serif" font-size="13" lengthAdjust="spacing" textLength="53" x="1814.5" y="758.1299">true/false</text><path d="M505,778.3926 L566,778.3926 L566,787.6836 L556,797.6836 L505,797.6836 L505,778.3926 " fill="#EEEEEE" style="stroke:#000000;stroke-width:1.5;"/><rect fill="none" height="1031.9238" style="stroke:#000000;stroke-width:1.5;" width="2226" x="505" y="778.3926"/><text fill="#000000" font-family="sans-serif" font-size="13" font-weight="bold" lengthAdjust="spacing" textLength="16" x="520" y="793.4209">alt</text><text fill="#000000" font-family="sans-serif" font-size="11" font-weight="bold" lengthAdjust="spacing" textLength="35" x="581" y="792.2627">[false]</text><polygon fill="#181818" points="2002.5,816.9746,2012.5,820.9746,2002.5,824.9746,2006.5,820.9746" style="stroke:#181818;stroke-width:1.0;"/><line style="stroke:#181818;stroke-width:1.0;" x1="1779.5" x2="2008.5" y1="820.9746" y2="820.9746"/><text fill="#000000" font-family="sans-serif" font-size="13" font-weight="bold" lengthAdjust="spacing" textLength="14" x="1786.5" y="815.7119">21</text><text fill="#000000" font-family="sans-serif" font-size="13" lengthAdjust="spacing" textLength="105" x="1804.5" y="815.7119">throw invalidData()</text><polygon fill="#181818" points="1790.5,848.2656,1780.5,852.2656,1790.5,856.2656,1786.5,852.2656" style="stroke:#181818;stroke-width:1.0;"/><line style="stroke:#181818;stroke-width:1.0;stroke-dasharray:2.0,2.0;" x1="1784.5" x2="2018.5" y1="852.2656" y2="852.2656"/><text fill="#000000" font-family="sans-serif" font-size="13" font-weight="bold" lengthAdjust="spacing" textLength="14" x="1796.5" y="847.0029">22</text><text fill="#000000" font-family="sans-serif" font-size="13" lengthAdjust="spacing" textLength="103" x="1814.5" y="847.0029">Exception Thrown</text><polygon fill="#181818" points="1200.5,879.5566,1190.5,883.5566,1200.5,887.5566,1196.5,883.5566" style="stroke:#181818;stroke-width:1.0;"/><line style="stroke:#181818;stroke-width:1.0;stroke-dasharray:2.0,2.0;" x1="1194.5" x2="1768.5" y1="883.5566" y2="883.5566"/><text fill="#000000" font-family="sans-serif" font-size="13" font-weight="bold" lengthAdjust="spacing" textLength="14" x="1206.5" y="878.2939">23</text><text fill="#000000" font-family="sans-serif" font-size="13" lengthAdjust="spacing" textLength="193" x="1224.5" y="878.2939">show error message (Invalid data)</text><polygon fill="#181818" points="610.5,910.8477,600.5,914.8477,610.5,918.8477,606.5,914.8477" style="stroke:#181818;stroke-width:1.0;"/><line style="stroke:#181818;stroke-width:1.0;stroke-dasharray:2.0,2.0;" x1="604.5" x2="1178.5" y1="914.8477" y2="914.8477"/><text fill="#000000" font-family="sans-serif" font-size="13" font-weight="bold" lengthAdjust="spacing" textLength="14" x="616.5" y="909.585">24</text><text fill="#000000" font-family="sans-serif" font-size="13" lengthAdjust="spacing" textLength="193" x="634.5" y="909.585">show error message (Invalid data)</text><line style="stroke:#000000;stroke-width:1.0;stroke-dasharray:2.0,2.0;" x1="505" x2="2731" y1="923.8477" y2="923.8477"/><polygon fill="#181818" points="2219.5,944.1387,2229.5,948.1387,2219.5,952.1387,2223.5,948.1387" style="stroke:#181818;stroke-width:1.0;"/><line style="stroke:#181818;stroke-width:1.0;" x1="1779.5" x2="2225.5" y1="948.1387" y2="948.1387"/><text fill="#000000" font-family="sans-serif" font-size="13" font-weight="bold" lengthAdjust="spacing" textLength="14" x="1786.5" y="942.876">25</text><text fill="#000000" font-family="sans-serif" font-size="13" lengthAdjust="spacing" textLength="121" x="1804.5" y="942.876">getClientRepository()</text><polygon fill="#181818" points="1790.5,975.4297,1780.5,979.4297,1790.5,983.4297,1786.5,979.4297" style="stroke:#181818;stroke-width:1.0;"/><line style="stroke:#181818;stroke-width:1.0;stroke-dasharray:2.0,2.0;" x1="1784.5" x2="2235.5" y1="979.4297" y2="979.4297"/><text fill="#000000" font-family="sans-serif" font-size="13" font-weight="bold" lengthAdjust="spacing" textLength="14" x="1796.5" y="974.167">26</text><text fill="#000000" font-family="sans-serif" font-size="13" lengthAdjust="spacing" textLength="93" x="1814.5" y="974.167">clientRepository</text><polygon fill="#181818" points="2337.5,1006.7207,2347.5,1010.7207,2337.5,1014.7207,2341.5,1010.7207" style="stroke:#181818;stroke-width:1.0;"/><line style="stroke:#181818;stroke-width:1.0;" x1="1779.5" x2="2343.5" y1="1010.7207" y2="1010.7207"/><text fill="#000000" font-family="sans-serif" font-size="13" font-weight="bold" lengthAdjust="spacing" textLength="14" x="1786.5" y="1005.458">27</text><text fill="#000000" font-family="sans-serif" font-size="13" lengthAdjust="spacing" textLength="139" x="1804.5" y="1005.458">getClientExists(clientID)</text><polygon fill="#181818" points="1790.5,1038.0117,1780.5,1042.0117,1790.5,1046.0117,1786.5,1042.0117" style="stroke:#181818;stroke-width:1.0;"/><line style="stroke:#181818;stroke-width:1.0;stroke-dasharray:2.0,2.0;" x1="1784.5" x2="2353.5" y1="1042.0117" y2="1042.0117"/><text fill="#000000" font-family="sans-serif" font-size="13" font-weight="bold" lengthAdjust="spacing" textLength="14" x="1796.5" y="1036.749">28</text><text fill="#000000" font-family="sans-serif" font-size="13" lengthAdjust="spacing" textLength="53" x="1814.5" y="1036.749">true/false</text><path d="M515,1057.0117 L576,1057.0117 L576,1066.3027 L566,1076.3027 L515,1076.3027 L515,1057.0117 " fill="#EEEEEE" style="stroke:#000000;stroke-width:1.5;"/><rect fill="none" height="746.3047" style="stroke:#000000;stroke-width:1.5;" width="2206" x="515" y="1057.0117"/><text fill="#000000" font-family="sans-serif" font-size="13" font-weight="bold" lengthAdjust="spacing" textLength="16" x="530" y="1072.04">alt</text><text fill="#000000" font-family="sans-serif" font-size="11" font-weight="bold" lengthAdjust="spacing" textLength="31" x="591" y="1070.8818">[true]</text><polygon fill="#181818" points="2002.5,1095.5938,2012.5,1099.5938,2002.5,1103.5938,2006.5,1099.5938" style="stroke:#181818;stroke-width:1.0;"/><line style="stroke:#181818;stroke-width:1.0;" x1="1779.5" x2="2008.5" y1="1099.5938" y2="1099.5938"/><text fill="#000000" font-family="sans-serif" font-size="13" font-weight="bold" lengthAdjust="spacing" textLength="14" x="1786.5" y="1094.3311">29</text><text fill="#000000" font-family="sans-serif" font-size="13" lengthAdjust="spacing" textLength="198" x="1804.5" y="1094.3311">throw clientAlreadyExists(clientID)</text><polygon fill="#181818" points="1790.5,1126.8848,1780.5,1130.8848,1790.5,1134.8848,1786.5,1130.8848" style="stroke:#181818;stroke-width:1.0;"/><line style="stroke:#181818;stroke-width:1.0;stroke-dasharray:2.0,2.0;" x1="1784.5" x2="2018.5" y1="1130.8848" y2="1130.8848"/><text fill="#000000" font-family="sans-serif" font-size="13" font-weight="bold" lengthAdjust="spacing" textLength="14" x="1796.5" y="1125.6221">30</text><text fill="#000000" font-family="sans-serif" font-size="13" lengthAdjust="spacing" textLength="103" x="1814.5" y="1125.6221">Exception Thrown</text><polygon fill="#181818" points="1200.5,1158.1758,1190.5,1162.1758,1200.5,1166.1758,1196.5,1162.1758" style="stroke:#181818;stroke-width:1.0;"/><line style="stroke:#181818;stroke-width:1.0;stroke-dasharray:2.0,2.0;" x1="1194.5" x2="1768.5" y1="1162.1758" y2="1162.1758"/><text fill="#000000" font-family="sans-serif" font-size="13" font-weight="bold" lengthAdjust="spacing" textLength="14" x="1206.5" y="1156.9131">31</text><text fill="#000000" font-family="sans-serif" font-size="13" lengthAdjust="spacing" textLength="269" x="1224.5" y="1156.9131">show error message (Client already registered)</text><polygon fill="#181818" points="610.5,1189.4668,600.5,1193.4668,610.5,1197.4668,606.5,1193.4668" style="stroke:#181818;stroke-width:1.0;"/><line style="stroke:#181818;stroke-width:1.0;stroke-dasharray:2.0,2.0;" x1="604.5" x2="1178.5" y1="1193.4668" y2="1193.4668"/><text fill="#000000" font-family="sans-serif" font-size="13" font-weight="bold" lengthAdjust="spacing" textLength="14" x="616.5" y="1188.2041">32</text><text fill="#000000" font-family="sans-serif" font-size="13" lengthAdjust="spacing" textLength="269" x="634.5" y="1188.2041">show error message (Client already registered)</text><line style="stroke:#000000;stroke-width:1.0;stroke-dasharray:2.0,2.0;" x1="515" x2="2721" y1="1202.4668" y2="1202.4668"/><polygon fill="#181818" points="2219.5,1222.7578,2229.5,1226.7578,2219.5,1230.7578,2223.5,1226.7578" style="stroke:#181818;stroke-width:1.0;"/><line style="stroke:#181818;stroke-width:1.0;" x1="1779.5" x2="2225.5" y1="1226.7578" y2="1226.7578"/><text fill="#000000" font-family="sans-serif" font-size="13" font-weight="bold" lengthAdjust="spacing" textLength="14" x="1786.5" y="1221.4951">33</text><text fill="#000000" font-family="sans-serif" font-size="13" lengthAdjust="spacing" textLength="136" x="1804.5" y="1221.4951">getAddressRepository()</text><polygon fill="#181818" points="1790.5,1254.0488,1780.5,1258.0488,1790.5,1262.0488,1786.5,1258.0488" style="stroke:#181818;stroke-width:1.0;"/><line style="stroke:#181818;stroke-width:1.0;stroke-dasharray:2.0,2.0;" x1="1784.5" x2="2235.5" y1="1258.0488" y2="1258.0488"/><text fill="#000000" font-family="sans-serif" font-size="13" font-weight="bold" lengthAdjust="spacing" textLength="14" x="1796.5" y="1252.7861">34</text><text fill="#000000" font-family="sans-serif" font-size="13" lengthAdjust="spacing" textLength="108" x="1814.5" y="1252.7861">addressRepository</text><polygon fill="#181818" points="2475.5,1285.3398,2485.5,1289.3398,2475.5,1293.3398,2479.5,1289.3398" style="stroke:#181818;stroke-width:1.0;"/><line style="stroke:#181818;stroke-width:1.0;" x1="1779.5" x2="2481.5" y1="1289.3398" y2="1289.3398"/><text fill="#000000" font-family="sans-serif" font-size="13" font-weight="bold" lengthAdjust="spacing" textLength="14" x="1786.5" y="1284.0771">35</text><text fill="#000000" font-family="sans-serif" font-size="13" lengthAdjust="spacing" textLength="250" x="1804.5" y="1284.0771">findAddress(street, zipCode, town, country)</text><polygon fill="#181818" points="1790.5,1316.6309,1780.5,1320.6309,1790.5,1324.6309,1786.5,1320.6309" style="stroke:#181818;stroke-width:1.0;"/><line style="stroke:#181818;stroke-width:1.0;stroke-dasharray:2.0,2.0;" x1="1784.5" x2="2491.5" y1="1320.6309" y2="1320.6309"/><text fill="#000000" font-family="sans-serif" font-size="13" font-weight="bold" lengthAdjust="spacing" textLength="14" x="1796.5" y="1315.3682">36</text><text fill="#000000" font-family="sans-serif" font-size="13" lengthAdjust="spacing" textLength="46" x="1814.5" y="1315.3682">address</text><path d="M1714,1335.6309 L1775,1335.6309 L1775,1344.9219 L1765,1354.9219 L1714,1354.9219 L1714,1335.6309 " fill="#EEEEEE" style="stroke:#000000;stroke-width:1.5;"/><rect fill="none" height="144.1152" style="stroke:#000000;stroke-width:1.5;" width="997" x="1714" y="1335.6309"/><text fill="#000000" font-family="sans-serif" font-size="13" font-weight="bold" lengthAdjust="spacing" textLength="16" x="1729" y="1350.6592">alt</text><text fill="#000000" font-family="sans-serif" font-size="11" font-weight="bold" lengthAdjust="spacing" textLength="92" x="1790" y="1349.501">[address == null]</text><polygon fill="#181818" points="2620,1374.2129,2630,1378.2129,2620,1382.2129,2624,1378.2129" style="stroke:#181818;stroke-width:1.0;"/><line style="stroke:#181818;stroke-width:1.0;" x1="1779.5" x2="2626" y1="1378.2129" y2="1378.2129"/><text fill="#000000" font-family="sans-serif" font-size="13" font-weight="bold" lengthAdjust="spacing" textLength="14" x="1786.5" y="1372.9502">37</text><text fill="#000000" font-family="sans-serif" font-size="13" lengthAdjust="spacing" textLength="90" x="1804.5" y="1372.9502">create(address)</text><rect fill="#E3E3E3" height="51.2422" rx="2.5" ry="2.5" style="stroke:#181818;stroke-width:0.5;" width="69" x="2632" y="1354.9219"/><text fill="#000000" font-family="sans-serif" font-size="14" lengthAdjust="spacing" textLength="55" x="2639" y="1377.0293">address:</text><text fill="#000000" font-family="sans-serif" font-size="14" lengthAdjust="spacing" textLength="52" x="2640.5" y="1395.6504">Address</text><polygon fill="#181818" points="2475.5,1436.4551,2485.5,1440.4551,2475.5,1444.4551,2479.5,1440.4551" style="stroke:#181818;stroke-width:1.0;"/><line style="stroke:#181818;stroke-width:1.0;" x1="1779.5" x2="2481.5" y1="1440.4551" y2="1440.4551"/><text fill="#000000" font-family="sans-serif" font-size="13" font-weight="bold" lengthAdjust="spacing" textLength="14" x="1786.5" y="1435.1924">38</text><text fill="#000000" font-family="sans-serif" font-size="13" lengthAdjust="spacing" textLength="80" x="1804.5" y="1435.1924">save(address)</text><polygon fill="#181818" points="1790.5,1467.7461,1780.5,1471.7461,1790.5,1475.7461,1786.5,1471.7461" style="stroke:#181818;stroke-width:1.0;"/><line style="stroke:#181818;stroke-width:1.0;stroke-dasharray:2.0,2.0;" x1="1784.5" x2="2491.5" y1="1471.7461" y2="1471.7461"/><text fill="#000000" font-family="sans-serif" font-size="13" font-weight="bold" lengthAdjust="spacing" textLength="14" x="1796.5" y="1466.4834">39</text><text fill="#000000" font-family="sans-serif" font-size="13" lengthAdjust="spacing" textLength="46" x="1814.5" y="1466.4834">address</text><polygon fill="#181818" points="2559,1506.0371,2569,1510.0371,2559,1514.0371,2563,1510.0371" style="stroke:#181818;stroke-width:1.0;"/><line style="stroke:#181818;stroke-width:1.0;" x1="1779.5" x2="2565" y1="1510.0371" y2="1510.0371"/><text fill="#000000" font-family="sans-serif" font-size="13" font-weight="bold" lengthAdjust="spacing" textLength="14" x="1786.5" y="1504.7744">40</text><text fill="#000000" font-family="sans-serif" font-size="13" lengthAdjust="spacing" textLength="375" x="1804.5" y="1504.7744">create(clientID, name, vatin, address, phoneNumber, email, type)</text><rect fill="#E3E3E3" height="51.2422" rx="2.5" ry="2.5" style="stroke:#181818;stroke-width:0.5;" width="51" x="2571" y="1486.7461"/><text fill="#000000" font-family="sans-serif" font-size="14" lengthAdjust="spacing" textLength="37" x="2578" y="1508.8535">client:</text><text fill="#000000" font-family="sans-serif" font-size="14" lengthAdjust="spacing" textLength="36" x="2578.5" y="1527.4746">Client</text><polygon fill="#181818" points="2337.5,1568.2793,2347.5,1572.2793,2337.5,1576.2793,2341.5,1572.2793" style="stroke:#181818;stroke-width:1.0;"/><line style="stroke:#181818;stroke-width:1.0;" x1="1779.5" x2="2343.5" y1="1572.2793" y2="1572.2793"/><text fill="#000000" font-family="sans-serif" font-size="13" font-weight="bold" lengthAdjust="spacing" textLength="14" x="1786.5" y="1567.0166">41</text><text fill="#000000" font-family="sans-serif" font-size="13" lengthAdjust="spacing" textLength="65" x="1804.5" y="1567.0166">save(client)</text><path d="M525,1587.2793 L586,1587.2793 L586,1596.5703 L576,1606.5703 L525,1606.5703 L525,1587.2793 " fill="#EEEEEE" style="stroke:#000000;stroke-width:1.5;"/><rect fill="none" height="209.0371" style="stroke:#000000;stroke-width:1.5;" width="1899" x="525" y="1587.2793"/><text fill="#000000" font-family="sans-serif" font-size="13" font-weight="bold" lengthAdjust="spacing" textLength="16" x="540" y="1602.3076">alt</text><text fill="#000000" font-family="sans-serif" font-size="11" font-weight="bold" lengthAdjust="spacing" textLength="82" x="601" y="1601.1494">[system error]</text><polygon fill="#181818" points="1790.5,1625.8613,1780.5,1629.8613,1790.5,1633.8613,1786.5,1629.8613" style="stroke:#181818;stroke-width:1.0;"/><line style="stroke:#181818;stroke-width:1.0;stroke-dasharray:2.0,2.0;" x1="1784.5" x2="2348.5" y1="1629.8613" y2="1629.8613"/><text fill="#000000" font-family="sans-serif" font-size="13" font-weight="bold" lengthAdjust="spacing" textLength="14" x="1796.5" y="1624.5986">42</text><text fill="#000000" font-family="sans-serif" font-size="13" lengthAdjust="spacing" textLength="85" x="1814.5" y="1624.5986">Database error</text><polygon fill="#181818" points="1200.5,1657.1523,1190.5,1661.1523,1200.5,1665.1523,1196.5,1661.1523" style="stroke:#181818;stroke-width:1.0;"/><line style="stroke:#181818;stroke-width:1.0;stroke-dasharray:2.0,2.0;" x1="1194.5" x2="1768.5" y1="1661.1523" y2="1661.1523"/><text fill="#000000" font-family="sans-serif" font-size="13" font-weight="bold" lengthAdjust="spacing" textLength="14" x="1206.5" y="1655.8896">43</text><text fill="#000000" font-family="sans-serif" font-size="13" lengthAdjust="spacing" textLength="214" x="1224.5" y="1655.8896">show error message (Database error)</text><polygon fill="#181818" points="610.5,1688.4434,600.5,1692.4434,610.5,1696.4434,606.5,1692.4434" style="stroke:#181818;stroke-width:1.0;"/><line style="stroke:#181818;stroke-width:1.0;stroke-dasharray:2.0,2.0;" x1="604.5" x2="1178.5" y1="1692.4434" y2="1692.4434"/><text fill="#000000" font-family="sans-serif" font-size="13" font-weight="bold" lengthAdjust="spacing" textLength="14" x="616.5" y="1687.1807">44</text><text fill="#000000" font-family="sans-serif" font-size="13" lengthAdjust="spacing" textLength="214" x="634.5" y="1687.1807">show error message (Database error)</text><line style="stroke:#000000;stroke-width:1.0;stroke-dasharray:2.0,2.0;" x1="525" x2="2424" y1="1701.4434" y2="1701.4434"/><polygon fill="#181818" points="1790.5,1721.7344,1780.5,1725.7344,1790.5,1729.7344,1786.5,1725.7344" style="stroke:#181818;stroke-width:1.0;"/><line style="stroke:#181818;stroke-width:1.0;stroke-dasharray:2.0,2.0;" x1="1784.5" x2="2353.5" y1="1725.7344" y2="1725.7344"/><text fill="#000000" font-family="sans-serif" font-size="13" font-weight="bold" lengthAdjust="spacing" textLength="14" x="1796.5" y="1720.4717">45</text><text fill="#000000" font-family="sans-serif" font-size="13" lengthAdjust="spacing" textLength="31" x="1814.5" y="1720.4717">client</text><polygon fill="#181818" points="1200.5,1753.0254,1190.5,1757.0254,1200.5,1761.0254,1196.5,1757.0254" style="stroke:#181818;stroke-width:1.0;"/><line style="stroke:#181818;stroke-width:1.0;stroke-dasharray:2.0,2.0;" x1="1194.5" x2="1773.5" y1="1757.0254" y2="1757.0254"/><text fill="#000000" font-family="sans-serif" font-size="13" font-weight="bold" lengthAdjust="spacing" textLength="14" x="1206.5" y="1751.7627">46</text><text fill="#000000" font-family="sans-serif" font-size="13" lengthAdjust="spacing" textLength="31" x="1224.5" y="1751.7627">client</text><polygon fill="#181818" points="610.5,1784.3164,600.5,1788.3164,610.5,1792.3164,606.5,1788.3164" style="stroke:#181818;stroke-width:1.0;"/><line style="stroke:#181818;stroke-width:1.0;stroke-dasharray:2.0,2.0;" x1="604.5" x2="1183.5" y1="1788.3164" y2="1788.3164"/><text fill="#000000" font-family="sans-serif" font-size="13" font-weight="bold" lengthAdjust="spacing" textLength="14" x="616.5" y="1783.0537">47</text><text fill="#000000" font-family="sans-serif" font-size="13" lengthAdjust="spacing" textLength="31" x="634.5" y="1783.0537">client</text><polygon fill="#181818" points="60.5,1836.6074,50.5,1840.6074,60.5,1844.6074,56.5,1840.6074" style="stroke:#181818;stroke-width:1.0;"/><line style="stroke:#181818;stroke-width:1.0;stroke-dasharray:2.0,2.0;" x1="54.5" x2="593.5" y1="1840.6074" y2="1840.6074"/><text fill="#000000" font-family="sans-serif" font-size="13" font-weight="bold" lengthAdjust="spacing" textLength="14" x="66.5" y="1835.3447">48</text><text fill="#000000" font-family="sans-serif" font-size="13" lengthAdjust="spacing" textLength="372" x="84.5" y="1835.3447">shows all data and displays operation success or error message</text><!--SRC=[pLXDZzis4BtxLmpsP0TESZUG0eRjWu7j8h0tYnvoOQInbrYAL4NQZllhEoGbcP9eIKcRehhiYffvd1c- -Q3r6vSvArW6cP8gUIrKXc2A4qvq_ILdoHixujvS1KA1YM7oA481_SfITU7o20ScD4ucXXiItL-rmGps-ES9POAmvknenQVx_NescR2JKVAKVSE2_a-CAk1XcMPSScqAHgyFm3GirxzFQ1F34vupQU1XiSCZIM2n4Xob-R9rOb-sBId_TQMaAPGGwC5Mpxl7gDmUYpDFq0djTozD6I-o-PvWRhYIJcZpnwefjCDSQKvMSzHEOhVvl6-A5878Lxc8QJGL4hTnBNTTV9Mhrf9JRCirKLYQ5gXr0sRPNdCu7ScOERKHFgAFsytJStJ3spRbGQvtctqh92zCyBG-wvVbOqMTwf31xrLpo365dvb1nmoWX_x2-z-80R0Wa3SDHX59ItK64YzbW9nqhKwCSGls8Lr2iEnuzuvGaW998lQPFXxHB8NmPkdfh1QgWHt987YS8W4GiRn-Lxa1O0dO-68VgqmObbKUP2irvM62BPG6akDW-wk3UE_jMK18oeveYlrGDwD2nsxy6R0jPbfbcJs6DgtxpRiRipPEVOXzvWrkta5j6zuRpbvuP_UDSJ6u0ChIfKcrAXlQYe5IJLBBRPAtIRIWEgukb3-l28BI1zIXWW0cKw8AvQ2cbqJ90oyoPglXf0LSfLMObQMyHMO62Ft2BEReF0tpiBQrjeRg1uCf_u0Vu8bbE8SNCapEeIm-Sx1DWE1WAmyAffzVbKHuSdrd3fkCSJ6Rm_CrnzaONmm9weyQ1RL1NHc1gREYrt1_d8lQPPyhK-_oTZq7wOm_U-Ef1IAQEVp5yvLAQTse2oqdwaGDxJg7t7fHEO7MYRapxGVhqNzdpkWAHqrW0Loxph2ce4vZsAKTFVbhUqdx8wtT2f-TSJxwSQKdJrrBwcmYJ3NeGEGf7Q4HWNQXWUe2N9vhTsPHdNf3ErZ416ZzPdizYy2pnPTHZS2BUw1XeV7P3rWKD8Xbb3WqyS5qwortz9x5tGrgpXYC0LDZvuRHKD-Qpx_TUtvTwmaitNodlDDrmlsALZIMv9qDeentbuAHXFU8Iq63L7eTzFJ_d03b_CcyAtMvnFHdiw47S1pl8zplZFD3LIQM09qaw5u71g8SpOJ0tEvD10vSfgNrq_ucC-3HE6CxKXrlXtmSkG_bIoa9dpw1F0aHbGk2KzwFWWl8j4IO3Qb6ughPUOJ-3thr3oBuKr54cVRooLy-muZT6LzODGhUdrFwzkbMSHTUlpp0oy7YNT55-nzBNBMu6yBxbTxE5j-OnXAWdpAz5Q-9DBiFDLZgsaZHCuxrfc5tWvl20DL67K0tCkCt2EzVlI4Q3zaPsSEC65ghtc-tfUfYnuJmjoLxcqkvpWMxQb0v5kug1_gK9BPYqHasJZ9sBmfUQOU_0G00]--></g></svg>