<?xml version="1.0" encoding="us-ascii" standalone="no"?><svg xmlns="http://www.w3.org/2000/svg" xmlns:xlink="http://www.w3.org/1999/xlink" contentStyleType="text/css" height="838.8px" preserveAspectRatio="none" style="width:657px;height:838px;background:#FFFFFF;" version="1.1" viewBox="0 0 657 838" width="657.9px" zoomAndPan="magnify"><defs/><g><text fill="#000000" font-family="sans-serif" font-size="12.6" font-weight="bold" lengthAdjust="spacing" textLength="205.2" x="227.475" y="27.0967">System Sequence Diagram (SSD)</text><rect fill="#FFFFFF" height="636.3738" style="stroke:#181818;stroke-width:0.9;" width="9" x="83.25" y="119.918"/><rect fill="#FFFFFF" height="28.1619" style="stroke:#181818;stroke-width:0.9;" width="9" x="409.05" y="140.8799"/><rect fill="#FFFFFF" height="51.8238" style="stroke:#181818;stroke-width:0.9;" width="9" x="409.05" y="197.2037"/><rect fill="#FFFFFF" height="91.6857" style="stroke:#181818;stroke-width:0.9;" width="9" x="409.05" y="277.1895"/><rect fill="#FFFFFF" height="91.6857" style="stroke:#181818;stroke-width:0.9;" width="9" x="409.05" y="446.4668"/><rect fill="#FFFFFF" height="91.6857" style="stroke:#181818;stroke-width:0.9;" width="9" x="409.05" y="607.0764"/><rect fill="none" height="340.9488" style="stroke:#000000;stroke-width:1.35;" width="643.05" x="9" y="210.7037"/><rect fill="none" height="45.5238" style="stroke:#000000;stroke-width:1.35;" width="433.35" x="18" y="330.5514"/><rect fill="none" height="45.5238" style="stroke:#000000;stroke-width:1.35;" width="433.35" x="18" y="499.8287"/><rect fill="none" height="88.6535" style="stroke:#000000;stroke-width:1.35;" width="433.35" x="18" y="660.4383"/><line style="stroke:#181818;stroke-width:0.45;stroke-dasharray:5.0,5.0;" x1="87.3" x2="87.3" y1="110.918" y2="764.3918"/><line style="stroke:#181818;stroke-width:0.45;stroke-dasharray:5.0,5.0;" x1="413.55" x2="413.55" y1="110.918" y2="764.3918"/><text fill="#000000" font-family="sans-serif" font-size="12.6" lengthAdjust="spacing" textLength="116.1" x="27" y="107.7557">Plant Floor Manager</text><ellipse cx="87.75" cy="47.809" fill="#E3E3E3" rx="7.2" ry="7.2" style="stroke:#181818;stroke-width:0.45;"/><path d="M87.75,55.009 L87.75,79.309 M76.05,62.209 L99.45,62.209 M87.75,79.309 L76.05,92.809 M87.75,79.309 L99.45,92.809 " fill="none" style="stroke:#181818;stroke-width:0.45;"/><text fill="#000000" font-family="sans-serif" font-size="12.6" lengthAdjust="spacing" textLength="116.1" x="27" y="777.0885">Plant Floor Manager</text><ellipse cx="87.75" cy="787.9008" fill="#E3E3E3" rx="7.2" ry="7.2" style="stroke:#181818;stroke-width:0.45;"/><path d="M87.75,795.1008 L87.75,819.4008 M76.05,802.3008 L99.45,802.3008 M87.75,819.4008 L76.05,832.9008 M87.75,819.4008 L99.45,832.9008 " fill="none" style="stroke:#181818;stroke-width:0.45;"/><rect fill="#E3E3E3" height="29.359" rx="2.25" ry="2.25" style="stroke:#181818;stroke-width:0.45;" width="57.6" x="384.75" y="80.659"/><text fill="#000000" font-family="sans-serif" font-size="12.6" lengthAdjust="spacing" textLength="45" x="391.05" y="100.5557">:System</text><rect fill="#E3E3E3" height="29.359" rx="2.25" ry="2.25" style="stroke:#181818;stroke-width:0.45;" width="57.6" x="384.75" y="763.4918"/><text fill="#000000" font-family="sans-serif" font-size="12.6" lengthAdjust="spacing" textLength="45" x="391.05" y="783.3885">:System</text><rect fill="#FFFFFF" height="636.3738" style="stroke:#181818;stroke-width:0.9;" width="9" x="83.25" y="119.918"/><rect fill="#FFFFFF" height="28.1619" style="stroke:#181818;stroke-width:0.9;" width="9" x="409.05" y="140.8799"/><rect fill="#FFFFFF" height="51.8238" style="stroke:#181818;stroke-width:0.9;" width="9" x="409.05" y="197.2037"/><rect fill="#FFFFFF" height="91.6857" style="stroke:#181818;stroke-width:0.9;" width="9" x="409.05" y="277.1895"/><rect fill="#FFFFFF" height="91.6857" style="stroke:#181818;stroke-width:0.9;" width="9" x="409.05" y="446.4668"/><rect fill="#FFFFFF" height="91.6857" style="stroke:#181818;stroke-width:0.9;" width="9" x="409.05" y="607.0764"/><polygon fill="#181818" points="398.25,137.2799,407.25,140.8799,398.25,144.4799,401.85,140.8799" style="stroke:#181818;stroke-width:0.9;"/><line style="stroke:#181818;stroke-width:0.9;" x1="92.25" x2="403.65" y1="140.8799" y2="140.8799"/><text fill="#000000" font-family="sans-serif" font-size="11.7" font-weight="bold" lengthAdjust="spacing" textLength="6.3" x="98.55" y="136.1435">1</text><text fill="#000000" font-family="sans-serif" font-size="11.7" lengthAdjust="spacing" textLength="166.5" x="108.45" y="136.1435">asks to register a new operation</text><polygon fill="#181818" points="102.15,165.4418,93.15,169.0418,102.15,172.6418,98.55,169.0418" style="stroke:#181818;stroke-width:0.9;"/><line style="stroke:#181818;stroke-width:0.9;stroke-dasharray:2.0,2.0;" x1="96.75" x2="412.65" y1="169.0418" y2="169.0418"/><text fill="#000000" font-family="sans-serif" font-size="11.7" font-weight="bold" lengthAdjust="spacing" textLength="6.3" x="107.55" y="164.3054">2</text><text fill="#000000" font-family="sans-serif" font-size="11.7" lengthAdjust="spacing" textLength="168.3" x="117.45" y="164.3054">shows the list of operation types</text><polygon fill="#181818" points="398.25,193.6037,407.25,197.2037,398.25,200.8037,401.85,197.2037" style="stroke:#181818;stroke-width:0.9;"/><line style="stroke:#181818;stroke-width:0.9;" x1="92.25" x2="403.65" y1="197.2037" y2="197.2037"/><text fill="#000000" font-family="sans-serif" font-size="11.7" font-weight="bold" lengthAdjust="spacing" textLength="6.3" x="98.55" y="192.4673">3</text><text fill="#000000" font-family="sans-serif" font-size="11.7" lengthAdjust="spacing" textLength="242.1" x="108.45" y="192.4673">selects an option (new/existing operation type)</text><path d="M9,210.7037 L63.9,210.7037 L63.9,219.0656 L54.9,228.0656 L9,228.0656 L9,210.7037 " fill="#EEEEEE" style="stroke:#000000;stroke-width:1.35;"/><rect fill="none" height="340.9488" style="stroke:#000000;stroke-width:1.35;" width="643.05" x="9" y="210.7037"/><text fill="#000000" font-family="sans-serif" font-size="11.7" font-weight="bold" lengthAdjust="spacing" textLength="14.4" x="22.5" y="224.2292">alt</text><text fill="#000000" font-family="sans-serif" font-size="9.9" font-weight="bold" lengthAdjust="spacing" textLength="103.5" x="77.4" y="223.1868">[new operation type]</text><polygon fill="#181818" points="102.15,245.4275,93.15,249.0275,102.15,252.6275,98.55,249.0275" style="stroke:#181818;stroke-width:0.9;"/><line style="stroke:#181818;stroke-width:0.9;stroke-dasharray:2.0,2.0;" x1="96.75" x2="412.65" y1="249.0275" y2="249.0275"/><text fill="#000000" font-family="sans-serif" font-size="11.7" font-weight="bold" lengthAdjust="spacing" textLength="6.3" x="107.55" y="244.2911">4</text><text fill="#000000" font-family="sans-serif" font-size="11.7" lengthAdjust="spacing" textLength="154.8" x="117.45" y="244.2911">requests operation type name</text><polygon fill="#181818" points="398.25,273.5895,407.25,277.1895,398.25,280.7895,401.85,277.1895" style="stroke:#181818;stroke-width:0.9;"/><line style="stroke:#181818;stroke-width:0.9;" x1="92.25" x2="403.65" y1="277.1895" y2="277.1895"/><text fill="#000000" font-family="sans-serif" font-size="11.7" font-weight="bold" lengthAdjust="spacing" textLength="6.3" x="98.55" y="272.453">5</text><text fill="#000000" font-family="sans-serif" font-size="11.7" lengthAdjust="spacing" textLength="116.1" x="108.45" y="272.453">types requested name</text><line style="stroke:#181818;stroke-width:0.9;" x1="418.05" x2="455.85" y1="305.3514" y2="305.3514"/><line style="stroke:#181818;stroke-width:0.9;" x1="455.85" x2="455.85" y1="305.3514" y2="317.0514"/><line style="stroke:#181818;stroke-width:0.9;" x1="418.95" x2="455.85" y1="317.0514" y2="317.0514"/><polygon fill="#181818" points="427.95,313.4514,418.95,317.0514,427.95,320.6514,424.35,317.0514" style="stroke:#181818;stroke-width:0.9;"/><text fill="#000000" font-family="sans-serif" font-size="11.7" font-weight="bold" lengthAdjust="spacing" textLength="6.3" x="424.35" y="300.6149">6</text><text fill="#000000" font-family="sans-serif" font-size="11.7" lengthAdjust="spacing" textLength="107.1" x="434.25" y="300.6149">saves operation type</text><path d="M18,330.5514 L72.9,330.5514 L72.9,338.9133 L63.9,347.9133 L18,347.9133 L18,330.5514 " fill="#EEEEEE" style="stroke:#000000;stroke-width:1.35;"/><rect fill="none" height="45.5238" style="stroke:#000000;stroke-width:1.35;" width="433.35" x="18" y="330.5514"/><text fill="#000000" font-family="sans-serif" font-size="11.7" font-weight="bold" lengthAdjust="spacing" textLength="14.4" x="31.5" y="344.0769">alt</text><text fill="#000000" font-family="sans-serif" font-size="9.9" font-weight="bold" lengthAdjust="spacing" textLength="73.8" x="86.4" y="343.0345">[system error]</text><polygon fill="#181818" points="102.15,365.2752,93.15,368.8752,102.15,372.4752,98.55,368.8752" style="stroke:#181818;stroke-width:0.9;"/><line style="stroke:#181818;stroke-width:0.9;stroke-dasharray:2.0,2.0;" x1="96.75" x2="412.65" y1="368.8752" y2="368.8752"/><text fill="#000000" font-family="sans-serif" font-size="11.7" font-weight="bold" lengthAdjust="spacing" textLength="6.3" x="107.55" y="364.1388">7</text><text fill="#000000" font-family="sans-serif" font-size="11.7" lengthAdjust="spacing" textLength="198.9" x="117.45" y="364.1388">shows error message (Database error)</text><line style="stroke:#000000;stroke-width:0.9;stroke-dasharray:2.0,2.0;" x1="9" x2="652.05" y1="383.2752" y2="383.2752"/><text fill="#000000" font-family="sans-serif" font-size="9.9" font-weight="bold" lengthAdjust="spacing" textLength="121.5" x="13.5" y="393.9583">[existing operation type]</text><polygon fill="#181818" points="102.15,414.7049,93.15,418.3049,102.15,421.9049,98.55,418.3049" style="stroke:#181818;stroke-width:0.9;"/><line style="stroke:#181818;stroke-width:0.9;stroke-dasharray:2.0,2.0;" x1="96.75" x2="412.65" y1="418.3049" y2="418.3049"/><text fill="#000000" font-family="sans-serif" font-size="11.7" font-weight="bold" lengthAdjust="spacing" textLength="6.3" x="107.55" y="413.5685">8</text><text fill="#000000" font-family="sans-serif" font-size="11.7" lengthAdjust="spacing" textLength="136.8" x="117.45" y="413.5685">requests operation type ID</text><polygon fill="#181818" points="398.25,442.8668,407.25,446.4668,398.25,450.0668,401.85,446.4668" style="stroke:#181818;stroke-width:0.9;"/><line style="stroke:#181818;stroke-width:0.9;" x1="92.25" x2="403.65" y1="446.4668" y2="446.4668"/><text fill="#000000" font-family="sans-serif" font-size="11.7" font-weight="bold" lengthAdjust="spacing" textLength="6.3" x="98.55" y="441.7304">9</text><text fill="#000000" font-family="sans-serif" font-size="11.7" lengthAdjust="spacing" textLength="134.1" x="108.45" y="441.7304">provides operation type ID</text><line style="stroke:#181818;stroke-width:0.9;" x1="418.05" x2="455.85" y1="474.6287" y2="474.6287"/><line style="stroke:#181818;stroke-width:0.9;" x1="455.85" x2="455.85" y1="474.6287" y2="486.3287"/><line style="stroke:#181818;stroke-width:0.9;" x1="418.95" x2="455.85" y1="486.3287" y2="486.3287"/><polygon fill="#181818" points="427.95,482.7287,418.95,486.3287,427.95,489.9287,424.35,486.3287" style="stroke:#181818;stroke-width:0.9;"/><text fill="#000000" font-family="sans-serif" font-size="11.7" font-weight="bold" lengthAdjust="spacing" textLength="12.6" x="424.35" y="469.8923">10</text><text fill="#000000" font-family="sans-serif" font-size="11.7" lengthAdjust="spacing" textLength="200.7" x="440.55" y="469.8923">checks if operation type already exists</text><path d="M18,499.8287 L72.9,499.8287 L72.9,508.1906 L63.9,517.1906 L18,517.1906 L18,499.8287 " fill="#EEEEEE" style="stroke:#000000;stroke-width:1.35;"/><rect fill="none" height="45.5238" style="stroke:#000000;stroke-width:1.35;" width="433.35" x="18" y="499.8287"/><text fill="#000000" font-family="sans-serif" font-size="11.7" font-weight="bold" lengthAdjust="spacing" textLength="14.4" x="31.5" y="513.3542">alt</text><text fill="#000000" font-family="sans-serif" font-size="9.9" font-weight="bold" lengthAdjust="spacing" textLength="153" x="86.4" y="512.3118">[operation type does not exist]</text><polygon fill="#181818" points="102.15,534.5525,93.15,538.1525,102.15,541.7525,98.55,538.1525" style="stroke:#181818;stroke-width:0.9;"/><line style="stroke:#181818;stroke-width:0.9;stroke-dasharray:2.0,2.0;" x1="96.75" x2="412.65" y1="538.1525" y2="538.1525"/><text fill="#000000" font-family="sans-serif" font-size="11.7" font-weight="bold" lengthAdjust="spacing" textLength="12.6" x="107.55" y="533.4161">11</text><text fill="#000000" font-family="sans-serif" font-size="11.7" lengthAdjust="spacing" textLength="279" x="123.75" y="533.4161">shows error message (Operation Type does not exist)</text><polygon fill="#181818" points="102.15,575.3145,93.15,578.9145,102.15,582.5145,98.55,578.9145" style="stroke:#181818;stroke-width:0.9;"/><line style="stroke:#181818;stroke-width:0.9;stroke-dasharray:2.0,2.0;" x1="96.75" x2="412.65" y1="578.9145" y2="578.9145"/><text fill="#000000" font-family="sans-serif" font-size="11.7" font-weight="bold" lengthAdjust="spacing" textLength="12.6" x="107.55" y="574.178">12</text><text fill="#000000" font-family="sans-serif" font-size="11.7" lengthAdjust="spacing" textLength="220.5" x="123.75" y="574.178">requests data (i.e. Name, Execution Time)</text><polygon fill="#181818" points="398.25,603.4764,407.25,607.0764,398.25,610.6764,401.85,607.0764" style="stroke:#181818;stroke-width:0.9;"/><line style="stroke:#181818;stroke-width:0.9;" x1="92.25" x2="403.65" y1="607.0764" y2="607.0764"/><text fill="#000000" font-family="sans-serif" font-size="11.7" font-weight="bold" lengthAdjust="spacing" textLength="12.6" x="98.55" y="602.3399">13</text><text fill="#000000" font-family="sans-serif" font-size="11.7" lengthAdjust="spacing" textLength="109.8" x="114.75" y="602.3399">types requested data</text><line style="stroke:#181818;stroke-width:0.9;" x1="418.05" x2="455.85" y1="635.2383" y2="635.2383"/><line style="stroke:#181818;stroke-width:0.9;" x1="455.85" x2="455.85" y1="635.2383" y2="646.9383"/><line style="stroke:#181818;stroke-width:0.9;" x1="418.95" x2="455.85" y1="646.9383" y2="646.9383"/><polygon fill="#181818" points="427.95,643.3383,418.95,646.9383,427.95,650.5383,424.35,646.9383" style="stroke:#181818;stroke-width:0.9;"/><text fill="#000000" font-family="sans-serif" font-size="11.7" font-weight="bold" lengthAdjust="spacing" textLength="12.6" x="424.35" y="630.5019">14</text><text fill="#000000" font-family="sans-serif" font-size="11.7" lengthAdjust="spacing" textLength="107.1" x="440.55" y="630.5019">saves operation data</text><path d="M18,660.4383 L72.9,660.4383 L72.9,668.8002 L63.9,677.8002 L18,677.8002 L18,660.4383 " fill="#EEEEEE" style="stroke:#000000;stroke-width:1.35;"/><rect fill="none" height="88.6535" style="stroke:#000000;stroke-width:1.35;" width="433.35" x="18" y="660.4383"/><text fill="#000000" font-family="sans-serif" font-size="11.7" font-weight="bold" lengthAdjust="spacing" textLength="14.4" x="31.5" y="673.9638">alt</text><text fill="#000000" font-family="sans-serif" font-size="9.9" font-weight="bold" lengthAdjust="spacing" textLength="73.8" x="86.4" y="672.9214">[system error]</text><polygon fill="#181818" points="102.15,695.1621,93.15,698.7621,102.15,702.3621,98.55,698.7621" style="stroke:#181818;stroke-width:0.9;"/><line style="stroke:#181818;stroke-width:0.9;stroke-dasharray:2.0,2.0;" x1="96.75" x2="412.65" y1="698.7621" y2="698.7621"/><text fill="#000000" font-family="sans-serif" font-size="11.7" font-weight="bold" lengthAdjust="spacing" textLength="12.6" x="107.55" y="694.0257">15</text><text fill="#000000" font-family="sans-serif" font-size="11.7" lengthAdjust="spacing" textLength="198.9" x="123.75" y="694.0257">shows error message (Database error)</text><line style="stroke:#000000;stroke-width:0.9;stroke-dasharray:2.0,2.0;" x1="18" x2="451.35" y1="706.8621" y2="706.8621"/><text fill="#000000" font-family="sans-serif" font-size="9.9" font-weight="bold" lengthAdjust="spacing" textLength="49.5" x="22.5" y="717.5452">[success]</text><polygon fill="#181818" points="102.15,738.2918,93.15,741.8918,102.15,745.4918,98.55,741.8918" style="stroke:#181818;stroke-width:0.9;"/><line style="stroke:#181818;stroke-width:0.9;stroke-dasharray:2.0,2.0;" x1="96.75" x2="412.65" y1="741.8918" y2="741.8918"/><text fill="#000000" font-family="sans-serif" font-size="11.7" font-weight="bold" lengthAdjust="spacing" textLength="12.6" x="107.55" y="737.1554">16</text><text fill="#000000" font-family="sans-serif" font-size="11.7" lengthAdjust="spacing" textLength="243" x="123.75" y="737.1554">shows all data and displays operation success</text><!--SRC=[pPJ1Rjim38RlUWeYfmHOktiEFMK5UiWMm7i1LcOT8RBaIN9Il_reAqvZENRJdQQJO__yHF8dum_ALEYmXD8QA_VEbWJ1rIJyvKk5ye05PQ7H18vaG5FeQu7VOsvFoXJmXjgJ4445bcQD3rH2HdzgCf9Wex1evSiiswo4m3fOKvUlvFXP1kjWiTDe0Znhop-sQFXIjm3qiDiAlYaegQfMi5X7TFSjFdO8TSH0hLW0dzqM7fxw9DOiFNW8bWie5BzoW63e1BOYXq5PqyLS83qLpkUCUM0YSzTSiZqnRa-WcGRsxGC4eQd8Tv4vtGGccNdIt5GFQ1ZI4PQSsNTwPtBRr25vDPqewZ2igGluAE9M8Qvrn_Fjmo0mMD8WSAAM_YGrTJteuPIFSREmFidh9k6HqYG7CNq3V8mWvwmR2QQjxFHGalSyTR3SOC1Nz1JVhsw2nXr95MJoM1Zf5dNRqEaXc_BcPIFkS2Lnf7Bsg7AQWtqw_LSukIV92wNImMSF767Un6gzIEr9rBdbZ8mDKVxlVlswO7-FiMFxvgrhRHlODsjEpgC2I_L8Z_2Jf_mR_7WdMSTSL7dUr_l-2TAjQT7YqssvSsCkiFzwOzf5yRMKZFr2BgXrz04DTqtvIcDpNViSyQur_Wi0]--></g></svg>