<?xml version="1.0" encoding="us-ascii" standalone="no"?><svg xmlns="http://www.w3.org/2000/svg" xmlns:xlink="http://www.w3.org/1999/xlink" contentStyleType="text/css" height="674.5px" preserveAspectRatio="none" style="width:1134px;height:674px;background:#FFFFFF;" version="1.1" viewBox="0 0 1134 674" width="1134px" zoomAndPan="magnify"><defs/><g><!--cluster UI--><g id="cluster_UI"><rect fill="none" height="50.5" rx="1.25" ry="1.25" style="stroke:#000000;stroke-width:0.75;" width="135" x="497.5" y="3.5"/><text fill="#000000" font-family="sans-serif" font-size="7" font-weight="bold" lengthAdjust="spacing" textLength="7" x="561.5" y="12.0537">UI</text></g><!--cluster Controller--><g id="cluster_Controller"><rect fill="none" height="60" rx="1.25" ry="1.25" style="stroke:#000000;stroke-width:0.75;" width="355.5" x="422.5" y="70.5"/><text fill="#000000" font-family="sans-serif" font-size="7" font-weight="bold" lengthAdjust="spacing" textLength="35.5" x="582.5" y="79.0537">Controller</text></g><!--cluster Service--><g id="cluster_Service"><rect fill="none" height="69" rx="1.25" ry="1.25" style="stroke:#000000;stroke-width:0.75;" width="370.5" x="415" y="147"/><text fill="#000000" font-family="sans-serif" font-size="7" font-weight="bold" lengthAdjust="spacing" textLength="27" x="586.75" y="155.5537">Service</text></g><!--cluster Repository--><g id="cluster_Repository"><rect fill="none" height="169.5" rx="1.25" ry="1.25" style="stroke:#000000;stroke-width:0.75;" width="370" x="3.5" y="241.5"/><text fill="#000000" font-family="sans-serif" font-size="7" font-weight="bold" lengthAdjust="spacing" textLength="38" x="169.5" y="250.0537">Repository</text></g><!--cluster Model--><g id="cluster_Model"><rect fill="none" height="235" rx="1.25" ry="1.25" style="stroke:#000000;stroke-width:0.75;" width="824.5" x="306.5" y="436.5"/><text fill="#000000" font-family="sans-serif" font-size="7" font-weight="bold" lengthAdjust="spacing" textLength="22" x="707.75" y="445.0537">Model</text></g><!--cluster Exception--><g id="cluster_Exception"><rect fill="none" height="146.5" rx="1.25" ry="1.25" style="stroke:#000000;stroke-width:0.75;" width="361.5" x="414.5" y="255.25"/><text fill="#000000" font-family="sans-serif" font-size="7" font-weight="bold" lengthAdjust="spacing" textLength="35" x="577.75" y="263.8037">Exception</text></g><!--class CheckHasSufficientStockOrderUI--><g id="elem_CheckHasSufficientStockOrderUI"><rect codeLine="7" fill="#F1F1F1" height="24" id="CheckHasSufficientStockOrderUI" rx="1.25" ry="1.25" style="stroke:#181818;stroke-width:0.25;" width="119" x="505.5" y="22"/><ellipse cx="513" cy="30" fill="#ADD1B2" rx="5.5" ry="5.5" style="stroke:#181818;stroke-width:0.5;"/><path d="M514.3828,27.9375 Q514.4609,27.8281 514.5547,27.7734 Q514.6484,27.7188 514.7578,27.7188 Q514.9453,27.7188 515.0625,27.8516 Q515.1797,27.9766 515.1797,28.2813 L515.1797,29.0078 Q515.1797,29.3125 515.0625,29.4453 Q514.9453,29.5781 514.7578,29.5781 Q514.5859,29.5781 514.4844,29.4766 Q514.3828,29.3828 514.3281,29.125 Q514.3047,28.9453 514.2109,28.8516 Q514.0469,28.6641 513.7422,28.5547 Q513.4375,28.4453 513.125,28.4453 Q512.7422,28.4453 512.4219,28.6094 Q512.1094,28.7734 511.8594,29.1484 Q511.6172,29.5234 511.6172,30.0391 L511.6172,30.5859 Q511.6172,31.2031 512.0625,31.6172 Q512.5078,32.0234 513.3047,32.0234 Q513.7734,32.0234 514.1016,31.8984 Q514.2969,31.8203 514.5078,31.6016 Q514.6406,31.4688 514.7109,31.4297 Q514.7891,31.3906 514.8906,31.3906 Q515.0547,31.3906 515.1797,31.5234 Q515.3125,31.6484 515.3125,31.8203 Q515.3125,31.9922 515.1406,32.1953 Q514.8906,32.4844 514.4922,32.6484 Q513.9531,32.875 513.3047,32.875 Q512.5469,32.875 511.9453,32.5625 Q511.4531,32.3125 511.1094,31.7813 Q510.7656,31.2422 510.7656,30.6016 L510.7656,30.0234 Q510.7656,29.3594 511.0703,28.7891 Q511.3828,28.2109 511.9297,27.9063 Q512.4766,27.5938 513.0938,27.5938 Q513.4609,27.5938 513.7813,27.6797 Q514.1094,27.7578 514.3828,27.9375 Z " fill="#000000"/><text fill="#000000" font-family="sans-serif" font-size="7" lengthAdjust="spacing" textLength="103" x="520" y="32.8984">CheckHasSufficientStockOrderUI</text><line style="stroke:#181818;stroke-width:0.25;" x1="506" x2="624" y1="38" y2="38"/><line style="stroke:#181818;stroke-width:0.25;" x1="506" x2="624" y1="42" y2="42"/></g><!--class OrderController--><g id="elem_OrderController"><rect codeLine="12" fill="#F1F1F1" height="33.3105" id="OrderController" rx="1.25" ry="1.25" style="stroke:#181818;stroke-width:0.25;" width="90.5" x="430.75" y="89"/><ellipse cx="449.5" cy="97" fill="#ADD1B2" rx="5.5" ry="5.5" style="stroke:#181818;stroke-width:0.5;"/><path d="M450.8828,94.9375 Q450.9609,94.8281 451.0547,94.7734 Q451.1484,94.7188 451.2578,94.7188 Q451.4453,94.7188 451.5625,94.8516 Q451.6797,94.9766 451.6797,95.2813 L451.6797,96.0078 Q451.6797,96.3125 451.5625,96.4453 Q451.4453,96.5781 451.2578,96.5781 Q451.0859,96.5781 450.9844,96.4766 Q450.8828,96.3828 450.8281,96.125 Q450.8047,95.9453 450.7109,95.8516 Q450.5469,95.6641 450.2422,95.5547 Q449.9375,95.4453 449.625,95.4453 Q449.2422,95.4453 448.9219,95.6094 Q448.6094,95.7734 448.3594,96.1484 Q448.1172,96.5234 448.1172,97.0391 L448.1172,97.5859 Q448.1172,98.2031 448.5625,98.6172 Q449.0078,99.0234 449.8047,99.0234 Q450.2734,99.0234 450.6016,98.8984 Q450.7969,98.8203 451.0078,98.6016 Q451.1406,98.4688 451.2109,98.4297 Q451.2891,98.3906 451.3906,98.3906 Q451.5547,98.3906 451.6797,98.5234 Q451.8125,98.6484 451.8125,98.8203 Q451.8125,98.9922 451.6406,99.1953 Q451.3906,99.4844 450.9922,99.6484 Q450.4531,99.875 449.8047,99.875 Q449.0469,99.875 448.4453,99.5625 Q447.9531,99.3125 447.6094,98.7813 Q447.2656,98.2422 447.2656,97.6016 L447.2656,97.0234 Q447.2656,96.3594 447.5703,95.7891 Q447.8828,95.2109 448.4297,94.9063 Q448.9766,94.5938 449.5938,94.5938 Q449.9609,94.5938 450.2813,94.6797 Q450.6094,94.7578 450.8828,94.9375 Z " fill="#000000"/><text fill="#000000" font-family="sans-serif" font-size="7" lengthAdjust="spacing" textLength="49.5" x="459" y="99.8984">OrderController</text><line style="stroke:#181818;stroke-width:0.25;" x1="431.25" x2="520.75" y1="105" y2="105"/><line style="stroke:#181818;stroke-width:0.25;" x1="431.25" x2="520.75" y1="109" y2="109"/><text fill="#000000" font-family="sans-serif" font-size="7" lengthAdjust="spacing" textLength="84.5" x="433.75" y="118.5537">+getOrders() : List&lt;Order&gt;</text></g><!--class ProductionController--><g id="elem_ProductionController"><rect codeLine="16" fill="#F1F1F1" height="33.3105" id="ProductionController" rx="1.25" ry="1.25" style="stroke:#181818;stroke-width:0.25;" width="231" x="539" y="89"/><ellipse cx="619.875" cy="97" fill="#ADD1B2" rx="5.5" ry="5.5" style="stroke:#181818;stroke-width:0.5;"/><path d="M621.2578,94.9375 Q621.3359,94.8281 621.4297,94.7734 Q621.5234,94.7188 621.6328,94.7188 Q621.8203,94.7188 621.9375,94.8516 Q622.0547,94.9766 622.0547,95.2813 L622.0547,96.0078 Q622.0547,96.3125 621.9375,96.4453 Q621.8203,96.5781 621.6328,96.5781 Q621.4609,96.5781 621.3594,96.4766 Q621.2578,96.3828 621.2031,96.125 Q621.1797,95.9453 621.0859,95.8516 Q620.9219,95.6641 620.6172,95.5547 Q620.3125,95.4453 620,95.4453 Q619.6172,95.4453 619.2969,95.6094 Q618.9844,95.7734 618.7344,96.1484 Q618.4922,96.5234 618.4922,97.0391 L618.4922,97.5859 Q618.4922,98.2031 618.9375,98.6172 Q619.3828,99.0234 620.1797,99.0234 Q620.6484,99.0234 620.9766,98.8984 Q621.1719,98.8203 621.3828,98.6016 Q621.5156,98.4688 621.5859,98.4297 Q621.6641,98.3906 621.7656,98.3906 Q621.9297,98.3906 622.0547,98.5234 Q622.1875,98.6484 622.1875,98.8203 Q622.1875,98.9922 622.0156,99.1953 Q621.7656,99.4844 621.3672,99.6484 Q620.8281,99.875 620.1797,99.875 Q619.4219,99.875 618.8203,99.5625 Q618.3281,99.3125 617.9844,98.7813 Q617.6406,98.2422 617.6406,97.6016 L617.6406,97.0234 Q617.6406,96.3594 617.9453,95.7891 Q618.2578,95.2109 618.8047,94.9063 Q619.3516,94.5938 619.9688,94.5938 Q620.3359,94.5938 620.6563,94.6797 Q620.9844,94.7578 621.2578,94.9375 Z " fill="#000000"/><text fill="#000000" font-family="sans-serif" font-size="7" lengthAdjust="spacing" textLength="65" x="630.125" y="99.8984">ProductionController</text><line style="stroke:#181818;stroke-width:0.25;" x1="539.5" x2="769.5" y1="105" y2="105"/><line style="stroke:#181818;stroke-width:0.25;" x1="539.5" x2="769.5" y1="109" y2="109"/><text fill="#000000" font-family="sans-serif" font-size="7" lengthAdjust="spacing" textLength="225" x="542" y="118.5537">+getInsufficientRawMaterialStockForOrder(orderID) : List&lt;RawMaterial&gt;</text></g><!--class OrderService--><g id="elem_OrderService"><rect codeLine="22" fill="#F1F1F1" height="42.6211" id="OrderService" rx="1.25" ry="1.25" style="stroke:#181818;stroke-width:0.25;" width="106" x="423" y="165.5"/><ellipse cx="452.875" cy="173.5" fill="#ADD1B2" rx="5.5" ry="5.5" style="stroke:#181818;stroke-width:0.5;"/><path d="M454.2578,171.4375 Q454.3359,171.3281 454.4297,171.2734 Q454.5234,171.2188 454.6328,171.2188 Q454.8203,171.2188 454.9375,171.3516 Q455.0547,171.4766 455.0547,171.7813 L455.0547,172.5078 Q455.0547,172.8125 454.9375,172.9453 Q454.8203,173.0781 454.6328,173.0781 Q454.4609,173.0781 454.3594,172.9766 Q454.2578,172.8828 454.2031,172.625 Q454.1797,172.4453 454.0859,172.3516 Q453.9219,172.1641 453.6172,172.0547 Q453.3125,171.9453 453,171.9453 Q452.6172,171.9453 452.2969,172.1094 Q451.9844,172.2734 451.7344,172.6484 Q451.4922,173.0234 451.4922,173.5391 L451.4922,174.0859 Q451.4922,174.7031 451.9375,175.1172 Q452.3828,175.5234 453.1797,175.5234 Q453.6484,175.5234 453.9766,175.3984 Q454.1719,175.3203 454.3828,175.1016 Q454.5156,174.9688 454.5859,174.9297 Q454.6641,174.8906 454.7656,174.8906 Q454.9297,174.8906 455.0547,175.0234 Q455.1875,175.1484 455.1875,175.3203 Q455.1875,175.4922 455.0156,175.6953 Q454.7656,175.9844 454.3672,176.1484 Q453.8281,176.375 453.1797,176.375 Q452.4219,176.375 451.8203,176.0625 Q451.3281,175.8125 450.9844,175.2813 Q450.6406,174.7422 450.6406,174.1016 L450.6406,173.5234 Q450.6406,172.8594 450.9453,172.2891 Q451.2578,171.7109 451.8047,171.4063 Q452.3516,171.0938 452.9688,171.0938 Q453.3359,171.0938 453.6563,171.1797 Q453.9844,171.2578 454.2578,171.4375 Z " fill="#000000"/><text fill="#000000" font-family="sans-serif" font-size="7" lengthAdjust="spacing" textLength="42" x="463.125" y="176.3984">OrderService</text><line style="stroke:#181818;stroke-width:0.25;" x1="423.5" x2="528.5" y1="181.5" y2="181.5"/><line style="stroke:#181818;stroke-width:0.25;" x1="423.5" x2="528.5" y1="185.5" y2="185.5"/><text fill="#000000" font-family="sans-serif" font-size="7" lengthAdjust="spacing" textLength="84.5" x="426" y="195.0537">+getOrders() : List&lt;Order&gt;</text><text fill="#000000" font-family="sans-serif" font-size="7" lengthAdjust="spacing" textLength="100" x="426" y="204.3643">+getOrderByID(orderID) : Order</text></g><!--class ProductionService--><g id="elem_ProductionService"><rect codeLine="27" fill="#F1F1F1" height="33.3105" id="ProductionService" rx="1.25" ry="1.25" style="stroke:#181818;stroke-width:0.25;" width="231" x="546.5" y="170"/><ellipse cx="631.125" cy="178" fill="#ADD1B2" rx="5.5" ry="5.5" style="stroke:#181818;stroke-width:0.5;"/><path d="M632.5078,175.9375 Q632.5859,175.8281 632.6797,175.7734 Q632.7734,175.7188 632.8828,175.7188 Q633.0703,175.7188 633.1875,175.8516 Q633.3047,175.9766 633.3047,176.2813 L633.3047,177.0078 Q633.3047,177.3125 633.1875,177.4453 Q633.0703,177.5781 632.8828,177.5781 Q632.7109,177.5781 632.6094,177.4766 Q632.5078,177.3828 632.4531,177.125 Q632.4297,176.9453 632.3359,176.8516 Q632.1719,176.6641 631.8672,176.5547 Q631.5625,176.4453 631.25,176.4453 Q630.8672,176.4453 630.5469,176.6094 Q630.2344,176.7734 629.9844,177.1484 Q629.7422,177.5234 629.7422,178.0391 L629.7422,178.5859 Q629.7422,179.2031 630.1875,179.6172 Q630.6328,180.0234 631.4297,180.0234 Q631.8984,180.0234 632.2266,179.8984 Q632.4219,179.8203 632.6328,179.6016 Q632.7656,179.4688 632.8359,179.4297 Q632.9141,179.3906 633.0156,179.3906 Q633.1797,179.3906 633.3047,179.5234 Q633.4375,179.6484 633.4375,179.8203 Q633.4375,179.9922 633.2656,180.1953 Q633.0156,180.4844 632.6172,180.6484 Q632.0781,180.875 631.4297,180.875 Q630.6719,180.875 630.0703,180.5625 Q629.5781,180.3125 629.2344,179.7813 Q628.8906,179.2422 628.8906,178.6016 L628.8906,178.0234 Q628.8906,177.3594 629.1953,176.7891 Q629.5078,176.2109 630.0547,175.9063 Q630.6016,175.5938 631.2188,175.5938 Q631.5859,175.5938 631.9063,175.6797 Q632.2344,175.7578 632.5078,175.9375 Z " fill="#000000"/><text fill="#000000" font-family="sans-serif" font-size="7" lengthAdjust="spacing" textLength="57.5" x="641.375" y="180.8984">ProductionService</text><line style="stroke:#181818;stroke-width:0.25;" x1="547" x2="777" y1="186" y2="186"/><line style="stroke:#181818;stroke-width:0.25;" x1="547" x2="777" y1="190" y2="190"/><text fill="#000000" font-family="sans-serif" font-size="7" lengthAdjust="spacing" textLength="225" x="549.5" y="199.5537">+getInsufficientRawMaterialStockForOrder(orderID) : List&lt;RawMaterial&gt;</text></g><!--class Repositories--><g id="elem_Repositories"><rect codeLine="33" fill="#F1F1F1" height="61.2422" id="Repositories" rx="1.25" ry="1.25" style="stroke:#181818;stroke-width:0.25;" width="163" x="11.5" y="260"/><ellipse cx="71.125" cy="268" fill="#ADD1B2" rx="5.5" ry="5.5" style="stroke:#181818;stroke-width:0.5;"/><path d="M72.5078,265.9375 Q72.5859,265.8281 72.6797,265.7734 Q72.7734,265.7188 72.8828,265.7188 Q73.0703,265.7188 73.1875,265.8516 Q73.3047,265.9766 73.3047,266.2813 L73.3047,267.0078 Q73.3047,267.3125 73.1875,267.4453 Q73.0703,267.5781 72.8828,267.5781 Q72.7109,267.5781 72.6094,267.4766 Q72.5078,267.3828 72.4531,267.125 Q72.4297,266.9453 72.3359,266.8516 Q72.1719,266.6641 71.8672,266.5547 Q71.5625,266.4453 71.25,266.4453 Q70.8672,266.4453 70.5469,266.6094 Q70.2344,266.7734 69.9844,267.1484 Q69.7422,267.5234 69.7422,268.0391 L69.7422,268.5859 Q69.7422,269.2031 70.1875,269.6172 Q70.6328,270.0234 71.4297,270.0234 Q71.8984,270.0234 72.2266,269.8984 Q72.4219,269.8203 72.6328,269.6016 Q72.7656,269.4688 72.8359,269.4297 Q72.9141,269.3906 73.0156,269.3906 Q73.1797,269.3906 73.3047,269.5234 Q73.4375,269.6484 73.4375,269.8203 Q73.4375,269.9922 73.2656,270.1953 Q73.0156,270.4844 72.6172,270.6484 Q72.0781,270.875 71.4297,270.875 Q70.6719,270.875 70.0703,270.5625 Q69.5781,270.3125 69.2344,269.7813 Q68.8906,269.2422 68.8906,268.6016 L68.8906,268.0234 Q68.8906,267.3594 69.1953,266.7891 Q69.5078,266.2109 70.0547,265.9063 Q70.6016,265.5938 71.2188,265.5938 Q71.5859,265.5938 71.9063,265.6797 Q72.2344,265.7578 72.5078,265.9375 Z " fill="#000000"/><text fill="#000000" font-family="sans-serif" font-size="7" lengthAdjust="spacing" textLength="39.5" x="81.375" y="270.8984">Repositories</text><line style="stroke:#181818;stroke-width:0.25;" x1="12" x2="174" y1="276" y2="276"/><line style="stroke:#181818;stroke-width:0.25;" x1="12" x2="174" y1="280" y2="280"/><text fill="#000000" font-family="sans-serif" font-size="7" lengthAdjust="spacing" textLength="47" x="14.5" y="289.5537">-Repositories()</text><text fill="#000000" font-family="sans-serif" font-size="7" lengthAdjust="spacing" textLength="91" x="14.5" y="298.8643">+getInstance() : Repositories</text><text fill="#000000" font-family="sans-serif" font-size="7" lengthAdjust="spacing" textLength="130" x="14.5" y="308.1748">+getOrderRepository() : OrderRepository</text><text fill="#000000" font-family="sans-serif" font-size="7" lengthAdjust="spacing" textLength="157" x="14.5" y="317.4854">+getProductionTree() : ProductionTreeRepository</text></g><!--class OrderRepository--><g id="elem_OrderRepository"><rect codeLine="40" fill="#F1F1F1" height="42.6211" id="OrderRepository" rx="1.25" ry="1.25" style="stroke:#181818;stroke-width:0.25;" width="87.5" x="11.75" y="360.5"/><ellipse cx="27.8" cy="368.5" fill="#ADD1B2" rx="5.5" ry="5.5" style="stroke:#181818;stroke-width:0.5;"/><path d="M29.1828,366.4375 Q29.2609,366.3281 29.3547,366.2734 Q29.4484,366.2188 29.5578,366.2188 Q29.7453,366.2188 29.8625,366.3516 Q29.9797,366.4766 29.9797,366.7813 L29.9797,367.5078 Q29.9797,367.8125 29.8625,367.9453 Q29.7453,368.0781 29.5578,368.0781 Q29.3859,368.0781 29.2844,367.9766 Q29.1828,367.8828 29.1281,367.625 Q29.1047,367.4453 29.0109,367.3516 Q28.8469,367.1641 28.5422,367.0547 Q28.2375,366.9453 27.925,366.9453 Q27.5422,366.9453 27.2219,367.1094 Q26.9094,367.2734 26.6594,367.6484 Q26.4172,368.0234 26.4172,368.5391 L26.4172,369.0859 Q26.4172,369.7031 26.8625,370.1172 Q27.3078,370.5234 28.1047,370.5234 Q28.5734,370.5234 28.9016,370.3984 Q29.0969,370.3203 29.3078,370.1016 Q29.4406,369.9688 29.5109,369.9297 Q29.5891,369.8906 29.6906,369.8906 Q29.8547,369.8906 29.9797,370.0234 Q30.1125,370.1484 30.1125,370.3203 Q30.1125,370.4922 29.9406,370.6953 Q29.6906,370.9844 29.2922,371.1484 Q28.7531,371.375 28.1047,371.375 Q27.3469,371.375 26.7453,371.0625 Q26.2531,370.8125 25.9094,370.2813 Q25.5656,369.7422 25.5656,369.1016 L25.5656,368.5234 Q25.5656,367.8594 25.8703,367.2891 Q26.1828,366.7109 26.7297,366.4063 Q27.2766,366.0938 27.8938,366.0938 Q28.2609,366.0938 28.5813,366.1797 Q28.9094,366.2578 29.1828,366.4375 Z " fill="#000000"/><text fill="#000000" font-family="sans-serif" font-size="7" lengthAdjust="spacing" textLength="52.5" x="36.7" y="371.3984">OrderRepository</text><line style="stroke:#181818;stroke-width:0.25;" x1="12.25" x2="98.75" y1="376.5" y2="376.5"/><line style="stroke:#181818;stroke-width:0.25;" x1="12.25" x2="98.75" y1="380.5" y2="380.5"/><text fill="#000000" font-family="sans-serif" font-size="7" lengthAdjust="spacing" textLength="70" x="14.75" y="390.0537">+getAll() : List&lt;Order&gt;</text><text fill="#000000" font-family="sans-serif" font-size="7" lengthAdjust="spacing" textLength="81.5" x="14.75" y="399.3643">+getByID(orderID) : Order</text></g><!--class ProductionTreeRepository--><g id="elem_ProductionTreeRepository"><rect codeLine="45" fill="#F1F1F1" height="33.3105" id="ProductionTreeRepository" rx="1.25" ry="1.25" style="stroke:#181818;stroke-width:0.25;" width="248.5" x="116.75" y="365"/><ellipse cx="197.375" cy="373" fill="#ADD1B2" rx="5.5" ry="5.5" style="stroke:#181818;stroke-width:0.5;"/><path d="M198.7578,370.9375 Q198.8359,370.8281 198.9297,370.7734 Q199.0234,370.7188 199.1328,370.7188 Q199.3203,370.7188 199.4375,370.8516 Q199.5547,370.9766 199.5547,371.2813 L199.5547,372.0078 Q199.5547,372.3125 199.4375,372.4453 Q199.3203,372.5781 199.1328,372.5781 Q198.9609,372.5781 198.8594,372.4766 Q198.7578,372.3828 198.7031,372.125 Q198.6797,371.9453 198.5859,371.8516 Q198.4219,371.6641 198.1172,371.5547 Q197.8125,371.4453 197.5,371.4453 Q197.1172,371.4453 196.7969,371.6094 Q196.4844,371.7734 196.2344,372.1484 Q195.9922,372.5234 195.9922,373.0391 L195.9922,373.5859 Q195.9922,374.2031 196.4375,374.6172 Q196.8828,375.0234 197.6797,375.0234 Q198.1484,375.0234 198.4766,374.8984 Q198.6719,374.8203 198.8828,374.6016 Q199.0156,374.4688 199.0859,374.4297 Q199.1641,374.3906 199.2656,374.3906 Q199.4297,374.3906 199.5547,374.5234 Q199.6875,374.6484 199.6875,374.8203 Q199.6875,374.9922 199.5156,375.1953 Q199.2656,375.4844 198.8672,375.6484 Q198.3281,375.875 197.6797,375.875 Q196.9219,375.875 196.3203,375.5625 Q195.8281,375.3125 195.4844,374.7813 Q195.1406,374.2422 195.1406,373.6016 L195.1406,373.0234 Q195.1406,372.3594 195.4453,371.7891 Q195.7578,371.2109 196.3047,370.9063 Q196.8516,370.5938 197.4688,370.5938 Q197.8359,370.5938 198.1563,370.6797 Q198.4844,370.7578 198.7578,370.9375 Z " fill="#000000"/><text fill="#000000" font-family="sans-serif" font-size="7" lengthAdjust="spacing" textLength="83" x="207.625" y="375.8984">ProductionTreeRepository</text><line style="stroke:#181818;stroke-width:0.25;" x1="117.25" x2="364.75" y1="381" y2="381"/><line style="stroke:#181818;stroke-width:0.25;" x1="117.25" x2="364.75" y1="385" y2="385"/><text fill="#000000" font-family="sans-serif" font-size="7" lengthAdjust="spacing" textLength="242.5" x="119.75" y="394.5537">+getProductionHierarchy(productID) : HashMap&lt;ProductionElement, Integer&gt;</text></g><!--class Part--><g id="elem_Part"><rect codeLine="51" fill="#F1F1F1" height="61.2422" id="Part" rx="1.25" ry="1.25" style="stroke:#181818;stroke-width:0.25;" width="93.5" x="828.75" y="597.75"/><ellipse cx="866.875" cy="605.75" fill="#ADD1B2" rx="5.5" ry="5.5" style="stroke:#181818;stroke-width:0.5;"/><path d="M868.2578,603.6875 Q868.3359,603.5781 868.4297,603.5234 Q868.5234,603.4688 868.6328,603.4688 Q868.8203,603.4688 868.9375,603.6016 Q869.0547,603.7266 869.0547,604.0313 L869.0547,604.7578 Q869.0547,605.0625 868.9375,605.1953 Q868.8203,605.3281 868.6328,605.3281 Q868.4609,605.3281 868.3594,605.2266 Q868.2578,605.1328 868.2031,604.875 Q868.1797,604.6953 868.0859,604.6016 Q867.9219,604.4141 867.6172,604.3047 Q867.3125,604.1953 867,604.1953 Q866.6172,604.1953 866.2969,604.3594 Q865.9844,604.5234 865.7344,604.8984 Q865.4922,605.2734 865.4922,605.7891 L865.4922,606.3359 Q865.4922,606.9531 865.9375,607.3672 Q866.3828,607.7734 867.1797,607.7734 Q867.6484,607.7734 867.9766,607.6484 Q868.1719,607.5703 868.3828,607.3516 Q868.5156,607.2188 868.5859,607.1797 Q868.6641,607.1406 868.7656,607.1406 Q868.9297,607.1406 869.0547,607.2734 Q869.1875,607.3984 869.1875,607.5703 Q869.1875,607.7422 869.0156,607.9453 Q868.7656,608.2344 868.3672,608.3984 Q867.8281,608.625 867.1797,608.625 Q866.4219,608.625 865.8203,608.3125 Q865.3281,608.0625 864.9844,607.5313 Q864.6406,606.9922 864.6406,606.3516 L864.6406,605.7734 Q864.6406,605.1094 864.9453,604.5391 Q865.2578,603.9609 865.8047,603.6563 Q866.3516,603.3438 866.9688,603.3438 Q867.3359,603.3438 867.6563,603.4297 Q867.9844,603.5078 868.2578,603.6875 Z " fill="#000000"/><text fill="#000000" font-family="sans-serif" font-size="7" lengthAdjust="spacing" textLength="13" x="877.125" y="608.6484">Part</text><line style="stroke:#181818;stroke-width:0.25;" x1="829.25" x2="921.75" y1="613.75" y2="613.75"/><text fill="#000000" font-family="sans-serif" font-size="7" lengthAdjust="spacing" textLength="32.5" x="831.75" y="623.3037">-id : String</text><text fill="#000000" font-family="sans-serif" font-size="7" lengthAdjust="spacing" textLength="44.5" x="831.75" y="632.6143">-name : String</text><text fill="#000000" font-family="sans-serif" font-size="7" lengthAdjust="spacing" textLength="61.5" x="831.75" y="641.9248">-description : String</text><line style="stroke:#181818;stroke-width:0.25;" x1="829.25" x2="921.75" y1="645.6816" y2="645.6816"/><text fill="#000000" font-family="sans-serif" font-size="7" lengthAdjust="spacing" textLength="87.5" x="831.75" y="655.2354">+Part(id, name, description)</text></g><!--class RawMaterial--><g id="elem_RawMaterial"><rect codeLine="58" fill="#F1F1F1" height="51.9316" id="RawMaterial" rx="1.25" ry="1.25" style="stroke:#181818;stroke-width:0.25;" width="119" x="1004" y="478.25"/><ellipse cx="1042.125" cy="486.25" fill="#ADD1B2" rx="5.5" ry="5.5" style="stroke:#181818;stroke-width:0.5;"/><path d="M1043.5078,484.1875 Q1043.5859,484.0781 1043.6797,484.0234 Q1043.7734,483.9688 1043.8828,483.9688 Q1044.0703,483.9688 1044.1875,484.1016 Q1044.3047,484.2266 1044.3047,484.5313 L1044.3047,485.2578 Q1044.3047,485.5625 1044.1875,485.6953 Q1044.0703,485.8281 1043.8828,485.8281 Q1043.7109,485.8281 1043.6094,485.7266 Q1043.5078,485.6328 1043.4531,485.375 Q1043.4297,485.1953 1043.3359,485.1016 Q1043.1719,484.9141 1042.8672,484.8047 Q1042.5625,484.6953 1042.25,484.6953 Q1041.8672,484.6953 1041.5469,484.8594 Q1041.2344,485.0234 1040.9844,485.3984 Q1040.7422,485.7734 1040.7422,486.2891 L1040.7422,486.8359 Q1040.7422,487.4531 1041.1875,487.8672 Q1041.6328,488.2734 1042.4297,488.2734 Q1042.8984,488.2734 1043.2266,488.1484 Q1043.4219,488.0703 1043.6328,487.8516 Q1043.7656,487.7188 1043.8359,487.6797 Q1043.9141,487.6406 1044.0156,487.6406 Q1044.1797,487.6406 1044.3047,487.7734 Q1044.4375,487.8984 1044.4375,488.0703 Q1044.4375,488.2422 1044.2656,488.4453 Q1044.0156,488.7344 1043.6172,488.8984 Q1043.0781,489.125 1042.4297,489.125 Q1041.6719,489.125 1041.0703,488.8125 Q1040.5781,488.5625 1040.2344,488.0313 Q1039.8906,487.4922 1039.8906,486.8516 L1039.8906,486.2734 Q1039.8906,485.6094 1040.1953,485.0391 Q1040.5078,484.4609 1041.0547,484.1563 Q1041.6016,483.8438 1042.2188,483.8438 Q1042.5859,483.8438 1042.9063,483.9297 Q1043.2344,484.0078 1043.5078,484.1875 Z " fill="#000000"/><text fill="#000000" font-family="sans-serif" font-size="7" lengthAdjust="spacing" textLength="38.5" x="1052.375" y="489.1484">RawMaterial</text><line style="stroke:#181818;stroke-width:0.25;" x1="1004.5" x2="1122.5" y1="494.25" y2="494.25"/><text fill="#000000" font-family="sans-serif" font-size="7" lengthAdjust="spacing" textLength="56" x="1007" y="503.8037">-currentStock : int</text><text fill="#000000" font-family="sans-serif" font-size="7" lengthAdjust="spacing" textLength="61" x="1007" y="513.1143">-minimumStock : int</text><line style="stroke:#181818;stroke-width:0.25;" x1="1004.5" x2="1122.5" y1="516.8711" y2="516.8711"/><text fill="#000000" font-family="sans-serif" font-size="7" lengthAdjust="spacing" textLength="113" x="1007" y="526.4248">+RawMaterial(id, name, description)</text></g><!--class Product--><g id="elem_Product"><rect codeLine="64" fill="#F1F1F1" height="79.8633" id="Product" rx="1.25" ry="1.25" style="stroke:#181818;stroke-width:0.25;" width="221.5" x="764.75" y="464.25"/><ellipse cx="861.125" cy="472.25" fill="#ADD1B2" rx="5.5" ry="5.5" style="stroke:#181818;stroke-width:0.5;"/><path d="M862.5078,470.1875 Q862.5859,470.0781 862.6797,470.0234 Q862.7734,469.9688 862.8828,469.9688 Q863.0703,469.9688 863.1875,470.1016 Q863.3047,470.2266 863.3047,470.5313 L863.3047,471.2578 Q863.3047,471.5625 863.1875,471.6953 Q863.0703,471.8281 862.8828,471.8281 Q862.7109,471.8281 862.6094,471.7266 Q862.5078,471.6328 862.4531,471.375 Q862.4297,471.1953 862.3359,471.1016 Q862.1719,470.9141 861.8672,470.8047 Q861.5625,470.6953 861.25,470.6953 Q860.8672,470.6953 860.5469,470.8594 Q860.2344,471.0234 859.9844,471.3984 Q859.7422,471.7734 859.7422,472.2891 L859.7422,472.8359 Q859.7422,473.4531 860.1875,473.8672 Q860.6328,474.2734 861.4297,474.2734 Q861.8984,474.2734 862.2266,474.1484 Q862.4219,474.0703 862.6328,473.8516 Q862.7656,473.7188 862.8359,473.6797 Q862.9141,473.6406 863.0156,473.6406 Q863.1797,473.6406 863.3047,473.7734 Q863.4375,473.8984 863.4375,474.0703 Q863.4375,474.2422 863.2656,474.4453 Q863.0156,474.7344 862.6172,474.8984 Q862.0781,475.125 861.4297,475.125 Q860.6719,475.125 860.0703,474.8125 Q859.5781,474.5625 859.2344,474.0313 Q858.8906,473.4922 858.8906,472.8516 L858.8906,472.2734 Q858.8906,471.6094 859.1953,471.0391 Q859.5078,470.4609 860.0547,470.1563 Q860.6016,469.8438 861.2188,469.8438 Q861.5859,469.8438 861.9063,469.9297 Q862.2344,470.0078 862.5078,470.1875 Z " fill="#000000"/><text fill="#000000" font-family="sans-serif" font-size="7" lengthAdjust="spacing" textLength="24.5" x="871.375" y="475.1484">Product</text><line style="stroke:#181818;stroke-width:0.25;" x1="765.25" x2="985.75" y1="480.25" y2="480.25"/><text fill="#000000" font-family="sans-serif" font-size="7" lengthAdjust="spacing" textLength="89.5" x="767.75" y="489.8037">-category : ProductCategory</text><text fill="#000000" font-family="sans-serif" font-size="7" lengthAdjust="spacing" textLength="42" x="767.75" y="499.1143">-capacity : int</text><text fill="#000000" font-family="sans-serif" font-size="7" lengthAdjust="spacing" textLength="28" x="767.75" y="508.4248">-size : int</text><text fill="#000000" font-family="sans-serif" font-size="7" lengthAdjust="spacing" textLength="42.5" x="767.75" y="517.7354">-color : String</text><text fill="#000000" font-family="sans-serif" font-size="7" lengthAdjust="spacing" textLength="45.5" x="767.75" y="527.0459">-price : double</text><line style="stroke:#181818;stroke-width:0.25;" x1="765.25" x2="985.75" y1="530.8027" y2="530.8027"/><text fill="#000000" font-family="sans-serif" font-size="7" lengthAdjust="spacing" textLength="215.5" x="767.75" y="540.3564">+Product(id, name, description, category, capacity, size, color, price)</text></g><!--class ProductionElement--><g id="elem_ProductionElement"><rect codeLine="73" fill="#F1F1F1" height="61.2422" id="ProductionElement" rx="1.25" ry="1.25" style="stroke:#181818;stroke-width:0.25;" width="150" x="597" y="473.75"/><ellipse cx="640.125" cy="481.75" fill="#ADD1B2" rx="5.5" ry="5.5" style="stroke:#181818;stroke-width:0.5;"/><path d="M641.5078,479.6875 Q641.5859,479.5781 641.6797,479.5234 Q641.7734,479.4688 641.8828,479.4688 Q642.0703,479.4688 642.1875,479.6016 Q642.3047,479.7266 642.3047,480.0313 L642.3047,480.7578 Q642.3047,481.0625 642.1875,481.1953 Q642.0703,481.3281 641.8828,481.3281 Q641.7109,481.3281 641.6094,481.2266 Q641.5078,481.1328 641.4531,480.875 Q641.4297,480.6953 641.3359,480.6016 Q641.1719,480.4141 640.8672,480.3047 Q640.5625,480.1953 640.25,480.1953 Q639.8672,480.1953 639.5469,480.3594 Q639.2344,480.5234 638.9844,480.8984 Q638.7422,481.2734 638.7422,481.7891 L638.7422,482.3359 Q638.7422,482.9531 639.1875,483.3672 Q639.6328,483.7734 640.4297,483.7734 Q640.8984,483.7734 641.2266,483.6484 Q641.4219,483.5703 641.6328,483.3516 Q641.7656,483.2188 641.8359,483.1797 Q641.9141,483.1406 642.0156,483.1406 Q642.1797,483.1406 642.3047,483.2734 Q642.4375,483.3984 642.4375,483.5703 Q642.4375,483.7422 642.2656,483.9453 Q642.0156,484.2344 641.6172,484.3984 Q641.0781,484.625 640.4297,484.625 Q639.6719,484.625 639.0703,484.3125 Q638.5781,484.0625 638.2344,483.5313 Q637.8906,482.9922 637.8906,482.3516 L637.8906,481.7734 Q637.8906,481.1094 638.1953,480.5391 Q638.5078,479.9609 639.0547,479.6563 Q639.6016,479.3438 640.2188,479.3438 Q640.5859,479.3438 640.9063,479.4297 Q641.2344,479.5078 641.5078,479.6875 Z " fill="#000000"/><text fill="#000000" font-family="sans-serif" font-size="7" lengthAdjust="spacing" textLength="59.5" x="650.375" y="484.6484">ProductionElement</text><line style="stroke:#181818;stroke-width:0.25;" x1="597.5" x2="746.5" y1="489.75" y2="489.75"/><text fill="#000000" font-family="sans-serif" font-size="7" lengthAdjust="spacing" textLength="34" x="600" y="499.3037">-part : Part</text><text fill="#000000" font-family="sans-serif" font-size="7" lengthAdjust="spacing" textLength="70" x="600" y="508.6143">-operation : Operation</text><text fill="#000000" font-family="sans-serif" font-size="7" lengthAdjust="spacing" textLength="56" x="600" y="517.9248">-quantity : Double</text><line style="stroke:#181818;stroke-width:0.25;" x1="597.5" x2="746.5" y1="521.6816" y2="521.6816"/><text fill="#000000" font-family="sans-serif" font-size="7" lengthAdjust="spacing" textLength="144" x="600" y="531.2354">+ProductionElement(part, operation, quantity)</text></g><!--class Operation--><g id="elem_Operation"><rect codeLine="80" fill="#F1F1F1" height="70.5527" id="Operation" rx="1.25" ry="1.25" style="stroke:#181818;stroke-width:0.25;" width="140.5" x="601.75" y="593"/><ellipse cx="654.125" cy="601" fill="#ADD1B2" rx="5.5" ry="5.5" style="stroke:#181818;stroke-width:0.5;"/><path d="M655.5078,598.9375 Q655.5859,598.8281 655.6797,598.7734 Q655.7734,598.7188 655.8828,598.7188 Q656.0703,598.7188 656.1875,598.8516 Q656.3047,598.9766 656.3047,599.2813 L656.3047,600.0078 Q656.3047,600.3125 656.1875,600.4453 Q656.0703,600.5781 655.8828,600.5781 Q655.7109,600.5781 655.6094,600.4766 Q655.5078,600.3828 655.4531,600.125 Q655.4297,599.9453 655.3359,599.8516 Q655.1719,599.6641 654.8672,599.5547 Q654.5625,599.4453 654.25,599.4453 Q653.8672,599.4453 653.5469,599.6094 Q653.2344,599.7734 652.9844,600.1484 Q652.7422,600.5234 652.7422,601.0391 L652.7422,601.5859 Q652.7422,602.2031 653.1875,602.6172 Q653.6328,603.0234 654.4297,603.0234 Q654.8984,603.0234 655.2266,602.8984 Q655.4219,602.8203 655.6328,602.6016 Q655.7656,602.4688 655.8359,602.4297 Q655.9141,602.3906 656.0156,602.3906 Q656.1797,602.3906 656.3047,602.5234 Q656.4375,602.6484 656.4375,602.8203 Q656.4375,602.9922 656.2656,603.1953 Q656.0156,603.4844 655.6172,603.6484 Q655.0781,603.875 654.4297,603.875 Q653.6719,603.875 653.0703,603.5625 Q652.5781,603.3125 652.2344,602.7813 Q651.8906,602.2422 651.8906,601.6016 L651.8906,601.0234 Q651.8906,600.3594 652.1953,599.7891 Q652.5078,599.2109 653.0547,598.9063 Q653.6016,598.5938 654.2188,598.5938 Q654.5859,598.5938 654.9063,598.6797 Q655.2344,598.7578 655.5078,598.9375 Z " fill="#000000"/><text fill="#000000" font-family="sans-serif" font-size="7" lengthAdjust="spacing" textLength="31.5" x="664.375" y="603.8984">Operation</text><line style="stroke:#181818;stroke-width:0.25;" x1="602.25" x2="741.75" y1="609" y2="609"/><text fill="#000000" font-family="sans-serif" font-size="7" lengthAdjust="spacing" textLength="21.5" x="604.75" y="618.5537">-id : int</text><text fill="#000000" font-family="sans-serif" font-size="7" lengthAdjust="spacing" textLength="69.5" x="604.75" y="627.8643">-type : OperationType</text><text fill="#000000" font-family="sans-serif" font-size="7" lengthAdjust="spacing" textLength="44.5" x="604.75" y="637.1748">-name : String</text><text fill="#000000" font-family="sans-serif" font-size="7" lengthAdjust="spacing" textLength="61.5" x="604.75" y="646.4854">-executionTime : int</text><line style="stroke:#181818;stroke-width:0.25;" x1="602.25" x2="741.75" y1="650.2422" y2="650.2422"/><text fill="#000000" font-family="sans-serif" font-size="7" lengthAdjust="spacing" textLength="134.5" x="604.75" y="659.7959">+Operation(id, type, name, executionTime)</text></g><!--class Order--><g id="elem_Order"><rect codeLine="88" fill="#F1F1F1" height="98.4844" id="Order" rx="1.25" ry="1.25" style="stroke:#181818;stroke-width:0.25;" width="265" x="314.5" y="455"/><ellipse cx="435.625" cy="463" fill="#ADD1B2" rx="5.5" ry="5.5" style="stroke:#181818;stroke-width:0.5;"/><path d="M437.0078,460.9375 Q437.0859,460.8281 437.1797,460.7734 Q437.2734,460.7188 437.3828,460.7188 Q437.5703,460.7188 437.6875,460.8516 Q437.8047,460.9766 437.8047,461.2813 L437.8047,462.0078 Q437.8047,462.3125 437.6875,462.4453 Q437.5703,462.5781 437.3828,462.5781 Q437.2109,462.5781 437.1094,462.4766 Q437.0078,462.3828 436.9531,462.125 Q436.9297,461.9453 436.8359,461.8516 Q436.6719,461.6641 436.3672,461.5547 Q436.0625,461.4453 435.75,461.4453 Q435.3672,461.4453 435.0469,461.6094 Q434.7344,461.7734 434.4844,462.1484 Q434.2422,462.5234 434.2422,463.0391 L434.2422,463.5859 Q434.2422,464.2031 434.6875,464.6172 Q435.1328,465.0234 435.9297,465.0234 Q436.3984,465.0234 436.7266,464.8984 Q436.9219,464.8203 437.1328,464.6016 Q437.2656,464.4688 437.3359,464.4297 Q437.4141,464.3906 437.5156,464.3906 Q437.6797,464.3906 437.8047,464.5234 Q437.9375,464.6484 437.9375,464.8203 Q437.9375,464.9922 437.7656,465.1953 Q437.5156,465.4844 437.1172,465.6484 Q436.5781,465.875 435.9297,465.875 Q435.1719,465.875 434.5703,465.5625 Q434.0781,465.3125 433.7344,464.7813 Q433.3906,464.2422 433.3906,463.6016 L433.3906,463.0234 Q433.3906,462.3594 433.6953,461.7891 Q434.0078,461.2109 434.5547,460.9063 Q435.1016,460.5938 435.7188,460.5938 Q436.0859,460.5938 436.4063,460.6797 Q436.7344,460.7578 437.0078,460.9375 Z " fill="#000000"/><text fill="#000000" font-family="sans-serif" font-size="7" lengthAdjust="spacing" textLength="18.5" x="445.875" y="465.8984">Order</text><line style="stroke:#181818;stroke-width:0.25;" x1="315" x2="579" y1="471" y2="471"/><text fill="#000000" font-family="sans-serif" font-size="7" lengthAdjust="spacing" textLength="39.5" x="317.5" y="480.5537">-orderID : int</text><text fill="#000000" font-family="sans-serif" font-size="7" lengthAdjust="spacing" textLength="85" x="317.5" y="489.8643">-deliveryAddress : Address</text><text fill="#000000" font-family="sans-serif" font-size="7" lengthAdjust="spacing" textLength="55.5" x="317.5" y="499.1748">-orderDate : Date</text><text fill="#000000" font-family="sans-serif" font-size="7" lengthAdjust="spacing" textLength="63" x="317.5" y="508.4854">-deliveryDate : Date</text><text fill="#000000" font-family="sans-serif" font-size="7" lengthAdjust="spacing" textLength="45.5" x="317.5" y="517.7959">-price : double</text><text fill="#000000" font-family="sans-serif" font-size="7" lengthAdjust="spacing" textLength="66" x="317.5" y="527.1064">-state : ProcessState</text><text fill="#000000" font-family="sans-serif" font-size="7" lengthAdjust="spacing" textLength="131" x="317.5" y="536.417">-productQuantity : Map&lt;Product, Integer&gt;</text><line style="stroke:#181818;stroke-width:0.25;" x1="315" x2="579" y1="540.1738" y2="540.1738"/><text fill="#000000" font-family="sans-serif" font-size="7" lengthAdjust="spacing" textLength="259" x="317.5" y="549.7275">+Order(orderID, deliveryAddress, orderDate, deliveryDate, price, productQuantity)</text></g><!--class ProductException--><g id="elem_ProductException"><rect codeLine="101" fill="#F1F1F1" height="33.3105" id="ProductException" rx="1.25" ry="1.25" style="stroke:#181818;stroke-width:0.25;" width="186" x="582" y="273.75"/><ellipse cx="645.375" cy="281.75" fill="#ADD1B2" rx="5.5" ry="5.5" style="stroke:#181818;stroke-width:0.5;"/><path d="M646.7578,279.6875 Q646.8359,279.5781 646.9297,279.5234 Q647.0234,279.4688 647.1328,279.4688 Q647.3203,279.4688 647.4375,279.6016 Q647.5547,279.7266 647.5547,280.0313 L647.5547,280.7578 Q647.5547,281.0625 647.4375,281.1953 Q647.3203,281.3281 647.1328,281.3281 Q646.9609,281.3281 646.8594,281.2266 Q646.7578,281.1328 646.7031,280.875 Q646.6797,280.6953 646.5859,280.6016 Q646.4219,280.4141 646.1172,280.3047 Q645.8125,280.1953 645.5,280.1953 Q645.1172,280.1953 644.7969,280.3594 Q644.4844,280.5234 644.2344,280.8984 Q643.9922,281.2734 643.9922,281.7891 L643.9922,282.3359 Q643.9922,282.9531 644.4375,283.3672 Q644.8828,283.7734 645.6797,283.7734 Q646.1484,283.7734 646.4766,283.6484 Q646.6719,283.5703 646.8828,283.3516 Q647.0156,283.2188 647.0859,283.1797 Q647.1641,283.1406 647.2656,283.1406 Q647.4297,283.1406 647.5547,283.2734 Q647.6875,283.3984 647.6875,283.5703 Q647.6875,283.7422 647.5156,283.9453 Q647.2656,284.2344 646.8672,284.3984 Q646.3281,284.625 645.6797,284.625 Q644.9219,284.625 644.3203,284.3125 Q643.8281,284.0625 643.4844,283.5313 Q643.1406,282.9922 643.1406,282.3516 L643.1406,281.7734 Q643.1406,281.1094 643.4453,280.5391 Q643.7578,279.9609 644.3047,279.6563 Q644.8516,279.3438 645.4688,279.3438 Q645.8359,279.3438 646.1563,279.4297 Q646.4844,279.5078 646.7578,279.6875 Z " fill="#000000"/><text fill="#000000" font-family="sans-serif" font-size="7" lengthAdjust="spacing" textLength="55" x="655.625" y="284.6484">ProductException</text><line style="stroke:#181818;stroke-width:0.25;" x1="582.5" x2="767.5" y1="289.75" y2="289.75"/><line style="stroke:#181818;stroke-width:0.25;" x1="582.5" x2="767.5" y1="293.75" y2="293.75"/><text fill="#000000" font-family="sans-serif" font-size="7" lengthAdjust="spacing" textLength="180" x="585" y="303.3037">+productionTreeNotFound(productID) : ProductException</text></g><!--class OrderException--><g id="elem_OrderException"><rect codeLine="105" fill="#F1F1F1" height="33.3105" id="OrderException" rx="1.25" ry="1.25" style="stroke:#181818;stroke-width:0.25;" width="141.5" x="422.75" y="273.75"/><ellipse cx="466.875" cy="281.75" fill="#ADD1B2" rx="5.5" ry="5.5" style="stroke:#181818;stroke-width:0.5;"/><path d="M468.2578,279.6875 Q468.3359,279.5781 468.4297,279.5234 Q468.5234,279.4688 468.6328,279.4688 Q468.8203,279.4688 468.9375,279.6016 Q469.0547,279.7266 469.0547,280.0313 L469.0547,280.7578 Q469.0547,281.0625 468.9375,281.1953 Q468.8203,281.3281 468.6328,281.3281 Q468.4609,281.3281 468.3594,281.2266 Q468.2578,281.1328 468.2031,280.875 Q468.1797,280.6953 468.0859,280.6016 Q467.9219,280.4141 467.6172,280.3047 Q467.3125,280.1953 467,280.1953 Q466.6172,280.1953 466.2969,280.3594 Q465.9844,280.5234 465.7344,280.8984 Q465.4922,281.2734 465.4922,281.7891 L465.4922,282.3359 Q465.4922,282.9531 465.9375,283.3672 Q466.3828,283.7734 467.1797,283.7734 Q467.6484,283.7734 467.9766,283.6484 Q468.1719,283.5703 468.3828,283.3516 Q468.5156,283.2188 468.5859,283.1797 Q468.6641,283.1406 468.7656,283.1406 Q468.9297,283.1406 469.0547,283.2734 Q469.1875,283.3984 469.1875,283.5703 Q469.1875,283.7422 469.0156,283.9453 Q468.7656,284.2344 468.3672,284.3984 Q467.8281,284.625 467.1797,284.625 Q466.4219,284.625 465.8203,284.3125 Q465.3281,284.0625 464.9844,283.5313 Q464.6406,282.9922 464.6406,282.3516 L464.6406,281.7734 Q464.6406,281.1094 464.9453,280.5391 Q465.2578,279.9609 465.8047,279.6563 Q466.3516,279.3438 466.9688,279.3438 Q467.3359,279.3438 467.6563,279.4297 Q467.9844,279.5078 468.2578,279.6875 Z " fill="#000000"/><text fill="#000000" font-family="sans-serif" font-size="7" lengthAdjust="spacing" textLength="49" x="477.125" y="284.6484">OrderException</text><line style="stroke:#181818;stroke-width:0.25;" x1="423.25" x2="563.75" y1="289.75" y2="289.75"/><line style="stroke:#181818;stroke-width:0.25;" x1="423.25" x2="563.75" y1="293.75" y2="293.75"/><text fill="#000000" font-family="sans-serif" font-size="7" lengthAdjust="spacing" textLength="135.5" x="425.75" y="303.3037">+orderNotFound(orderID) : OrderException</text></g><!--class RuntimeException--><g id="elem_RuntimeException"><rect codeLine="109" fill="#F1F1F1" height="24" id="RuntimeException" rx="1.25" ry="1.25" style="stroke:#181818;stroke-width:0.25;" width="72.5" x="548.25" y="369.75"/><ellipse cx="555.75" cy="377.75" fill="#ADD1B2" rx="5.5" ry="5.5" style="stroke:#181818;stroke-width:0.5;"/><path d="M557.1328,375.6875 Q557.2109,375.5781 557.3047,375.5234 Q557.3984,375.4688 557.5078,375.4688 Q557.6953,375.4688 557.8125,375.6016 Q557.9297,375.7266 557.9297,376.0313 L557.9297,376.7578 Q557.9297,377.0625 557.8125,377.1953 Q557.6953,377.3281 557.5078,377.3281 Q557.3359,377.3281 557.2344,377.2266 Q557.1328,377.1328 557.0781,376.875 Q557.0547,376.6953 556.9609,376.6016 Q556.7969,376.4141 556.4922,376.3047 Q556.1875,376.1953 555.875,376.1953 Q555.4922,376.1953 555.1719,376.3594 Q554.8594,376.5234 554.6094,376.8984 Q554.3672,377.2734 554.3672,377.7891 L554.3672,378.3359 Q554.3672,378.9531 554.8125,379.3672 Q555.2578,379.7734 556.0547,379.7734 Q556.5234,379.7734 556.8516,379.6484 Q557.0469,379.5703 557.2578,379.3516 Q557.3906,379.2188 557.4609,379.1797 Q557.5391,379.1406 557.6406,379.1406 Q557.8047,379.1406 557.9297,379.2734 Q558.0625,379.3984 558.0625,379.5703 Q558.0625,379.7422 557.8906,379.9453 Q557.6406,380.2344 557.2422,380.3984 Q556.7031,380.625 556.0547,380.625 Q555.2969,380.625 554.6953,380.3125 Q554.2031,380.0625 553.8594,379.5313 Q553.5156,378.9922 553.5156,378.3516 L553.5156,377.7734 Q553.5156,377.1094 553.8203,376.5391 Q554.1328,375.9609 554.6797,375.6563 Q555.2266,375.3438 555.8438,375.3438 Q556.2109,375.3438 556.5313,375.4297 Q556.8594,375.5078 557.1328,375.6875 Z " fill="#000000"/><text fill="#000000" font-family="sans-serif" font-size="7" lengthAdjust="spacing" textLength="56.5" x="562.75" y="380.6484">RuntimeException</text><line style="stroke:#181818;stroke-width:0.25;" x1="548.75" x2="620.25" y1="385.75" y2="385.75"/><line style="stroke:#181818;stroke-width:0.25;" x1="548.75" x2="620.25" y1="389.75" y2="389.75"/></g><!--link CheckHasSufficientStockOrderUI to OrderController--><g id="link_CheckHasSufficientStockOrderUI_OrderController"><path codeLine="112" d="M550.505,46.025 C535.825,57.695 515.3432,73.9729 498.8232,87.1079 " fill="none" id="CheckHasSufficientStockOrderUI-to-OrderController" style="stroke:#181818;stroke-width:0.5;stroke-dasharray:7.0,7.0;"/><polygon fill="#181818" points="496.475,88.975,501.242,87.7399,498.4318,87.4191,498.7526,84.6089,496.475,88.975" style="stroke:#181818;stroke-width:0.5;"/></g><!--link CheckHasSufficientStockOrderUI to ProductionController--><g id="link_CheckHasSufficientStockOrderUI_ProductionController"><path codeLine="113" d="M579.58,46.025 C594.34,57.695 614.9469,73.9792 631.5569,87.1142 " fill="none" id="CheckHasSufficientStockOrderUI-to-ProductionController" style="stroke:#181818;stroke-width:0.5;stroke-dasharray:7.0,7.0;"/><polygon fill="#181818" points="633.91,88.975,631.6208,84.615,631.949,87.4243,629.1397,87.7525,633.91,88.975" style="stroke:#181818;stroke-width:0.5;"/></g><!--link OrderController to OrderService--><g id="link_OrderController_OrderService"><path codeLine="114" d="M476,122.63 C476,135.02 476,149.115 476,162.47 " fill="none" id="OrderController-to-OrderService" style="stroke:#181818;stroke-width:0.5;stroke-dasharray:7.0,7.0;"/><polygon fill="#181818" points="476,165.47,478,160.97,476,162.97,474,160.97,476,165.47" style="stroke:#181818;stroke-width:0.5;"/></g><!--link ProductionController to ProductionService--><g id="link_ProductionController_ProductionService"><path codeLine="115" d="M656.035,122.63 C657.33,136.44 658.8958,153.103 660.1858,166.903 " fill="none" id="ProductionController-to-ProductionService" style="stroke:#181818;stroke-width:0.5;stroke-dasharray:7.0,7.0;"/><polygon fill="#181818" points="660.465,169.89,662.0375,165.2234,660.2323,167.4009,658.0549,165.5957,660.465,169.89" style="stroke:#181818;stroke-width:0.5;"/></g><!--link ProductionController to OrderService--><g id="link_ProductionController_OrderService"><path codeLine="116" d="M602.895,122.53 C571.73,132.36 538,143 538,143 C538,143 524.2255,152.6086 508.3705,163.6686 " fill="none" id="ProductionController-to-OrderService" style="stroke:#181818;stroke-width:0.5;stroke-dasharray:7.0,7.0;"/><polygon fill="#181818" points="505.91,165.385,510.745,164.4508,507.9604,163.9547,508.4565,161.1701,505.91,165.385" style="stroke:#181818;stroke-width:0.5;"/></g><!--link OrderService to Repositories--><g id="link_OrderService_Repositories"><path codeLine="117" d="M422.91,194.36 C343.115,205.04 201.5,224 201.5,224 C201.5,224 173.553,241.0008 144.893,258.4358 " fill="none" id="OrderService-to-Repositories" style="stroke:#181818;stroke-width:0.5;stroke-dasharray:7.0,7.0;"/><polygon fill="#181818" points="142.33,259.995,147.214,259.3649,144.4658,258.6957,145.1351,255.9476,142.33,259.995" style="stroke:#181818;stroke-width:0.5;"/><text fill="#000000" font-family="sans-serif" font-size="6.5" lengthAdjust="spacing" textLength="33.5" x="202" y="231.5142">repositories</text></g><!--link OrderService to OrderRepository--><g id="link_OrderService_OrderRepository"><path codeLine="118" d="M422.87,197.98 C369.15,208.825 294,224 294,224 C294,224 262.5,237.5 262.5,237.5 C262.5,237.5 238,345.5 238,345.5 C238,345.5 108,360.5 108,360.5 C108,360.5 107.3004,360.7784 102.1204,362.8234 " fill="none" id="OrderService-to-OrderRepository" style="stroke:#181818;stroke-width:0.5;stroke-dasharray:7.0,7.0;"/><polygon fill="#181818" points="99.33,363.925,104.25,364.1328,101.6553,363.007,102.7812,360.4123,99.33,363.925" style="stroke:#181818;stroke-width:0.5;"/><text fill="#000000" font-family="sans-serif" font-size="6.5" lengthAdjust="spacing" textLength="45.5" x="263" y="293.2642">orderRepository</text></g><!--link OrderService to Order--><g id="link_OrderService_Order"><path codeLine="119" d="M515.44,208.085 C527.67,214.545 538,220 538,220 C538,220 776,237.5 776,237.5 C776,237.5 776,415 776,415 C776,415 588.5,432.5 588.5,432.5 C588.5,432.5 571.3844,441.1156 546.6044,453.5956 " fill="none" id="OrderService-to-Order" style="stroke:#181818;stroke-width:0.5;stroke-dasharray:7.0,7.0;"/><polygon fill="#181818" points="543.925,454.945,548.8437,454.7071,546.1578,453.8205,547.0445,451.1346,543.925,454.945" style="stroke:#181818;stroke-width:0.5;"/><text fill="#000000" font-family="sans-serif" font-size="6.5" lengthAdjust="spacing" textLength="14.5" x="776.5" y="343.5142">order</text></g><!--link ProductionService to Repositories--><g id="link_ProductionService_Repositories"><path codeLine="120" d="M600.365,203.53 C569.245,211.75 538,220 538,220 C538,220 444,224 444,224 C444,224 227.5,237.5 227.5,237.5 C227.5,237.5 202.7997,247.1442 172.6697,258.9042 " fill="none" id="ProductionService-to-Repositories" style="stroke:#181818;stroke-width:0.5;stroke-dasharray:7.0,7.0;"/><polygon fill="#181818" points="169.875,259.995,174.7942,260.2219,172.2039,259.086,173.3398,256.4957,169.875,259.995" style="stroke:#181818;stroke-width:0.5;"/><text fill="#000000" font-family="sans-serif" font-size="6.5" lengthAdjust="spacing" textLength="33.5" x="444.5" y="231.5142">repositories</text></g><!--link ProductionService to ProductionTreeRepository--><g id="link_ProductionService_ProductionTreeRepository"><path codeLine="121" d="M600.365,203.53 C569.245,211.75 538,220 538,220 C538,220 340,237.5 340,237.5 C340,237.5 311,321 311,321 C311,321 282.9486,345.1428 262.2186,362.9878 " fill="none" id="ProductionService-to-ProductionTreeRepository" style="stroke:#181818;stroke-width:0.5;stroke-dasharray:7.0,7.0;"/><polygon fill="#181818" points="259.945,364.945,264.6602,363.5249,261.8397,363.314,262.0506,360.4934,259.945,364.945" style="stroke:#181818;stroke-width:0.5;"/><text fill="#000000" font-family="sans-serif" font-size="6.5" lengthAdjust="spacing" textLength="73.5" x="340.5" y="293.2642">productionTreeRepository</text></g><!--link ProductionService to Product--><g id="link_ProductionService_Product"><path codeLine="122" d="M722.245,203.53 C758.625,213.36 798,224 798,224 C798,224 826.5,237.5 826.5,237.5 C826.5,237.5 876.5,336 876.5,336 C876.5,336 876.5,345.5 876.5,345.5 C876.5,345.5 876.0639,414.3551 875.7689,461.2251 " fill="none" id="ProductionService-to-Product" style="stroke:#181818;stroke-width:0.5;stroke-dasharray:7.0,7.0;"/><polygon fill="#181818" points="875.75,464.225,877.7783,459.7377,875.7657,461.725,873.7784,459.7125,875.75,464.225" style="stroke:#181818;stroke-width:0.5;"/><text fill="#000000" font-family="sans-serif" font-size="6.5" lengthAdjust="spacing" textLength="21.5" x="877" y="343.5142">product</text></g><!--link ProductionService to ProductionElement--><g id="link_ProductionService_ProductionElement"><path codeLine="123" d="M710.375,203.565 C753.885,218.235 811,237.5 811,237.5 C811,237.5 817.5,336 817.5,336 C817.5,336 817.5,345.5 817.5,345.5 C817.5,345.5 814.5,428.5 814.5,428.5 C814.5,428.5 756,432.5 756,432.5 C756,432.5 732.6229,452.3295 709.6679,471.7995 " fill="none" id="ProductionService-to-ProductionElement" style="stroke:#181818;stroke-width:0.5;stroke-dasharray:7.0,7.0;"/><polygon fill="#181818" points="707.38,473.74,712.1055,472.3545,709.2866,472.1229,709.5181,469.304,707.38,473.74" style="stroke:#181818;stroke-width:0.5;"/><text fill="#000000" font-family="sans-serif" font-size="6.5" lengthAdjust="spacing" textLength="54" x="818" y="343.5142">productionElement</text></g><!--link ProductionService to RawMaterial--><g id="link_ProductionService_RawMaterial"><path codeLine="124" d="M732.435,203.53 C774.965,213.36 821,224 821,224 C821,224 860,237.5 860,237.5 C860,237.5 991.2332,409.1965 1042.1682,475.8365 " fill="none" id="ProductionService-to-RawMaterial" style="stroke:#181818;stroke-width:0.5;stroke-dasharray:7.0,7.0;"/><polygon fill="#181818" points="1043.99,478.22,1042.8463,473.4302,1042.4718,476.2337,1039.6683,475.8593,1043.99,478.22" style="stroke:#181818;stroke-width:0.5;"/><text fill="#000000" font-family="sans-serif" font-size="6.5" lengthAdjust="spacing" textLength="33" x="941" y="343.5142">rawMaterial</text></g><!--link Repositories to Repositories--><g id="link_Repositories_Repositories"><path codeLine="125" d="M174.56,282.285 C185.06,283.71 192,286.445 192,290.5 C192,294.555 188.0327,296.8866 177.5327,298.3116 " fill="none" id="Repositories-to-Repositories" style="stroke:#181818;stroke-width:0.5;"/><polygon fill="#181818" points="174.56,298.715,179.2881,300.0917,177.0373,298.3788,178.7502,296.128,174.56,298.715" style="stroke:#181818;stroke-width:0.5;"/><text fill="#000000" font-family="sans-serif" font-size="6.5" lengthAdjust="spacing" textLength="24.5" x="195" y="293.2642">instance</text></g><!--link Repositories to OrderRepository--><g id="link_Repositories_OrderRepository"><path codeLine="126" d="M80.515,321.05 C75.145,333.975 70.1515,345.9898 65.2965,357.6698 " fill="none" id="Repositories-to-OrderRepository" style="stroke:#181818;stroke-width:0.5;"/><polygon fill="#181818" points="64.145,360.44,67.719,357.0523,65.1046,358.1315,64.0254,355.517,64.145,360.44" style="stroke:#181818;stroke-width:0.5;"/><text fill="#000000" font-family="sans-serif" font-size="6.5" lengthAdjust="spacing" textLength="45.5" x="75" y="343.5142">orderRepository</text><text fill="#000000" font-family="sans-serif" font-size="6.5" lengthAdjust="spacing" textLength="3.5" x="75.2801" y="332.2995">1</text><text fill="#000000" font-family="sans-serif" font-size="6.5" lengthAdjust="spacing" textLength="3.5" x="61.7439" y="354.8825">1</text></g><!--link Repositories to ProductionTreeRepository--><g id="link_Repositories_ProductionTreeRepository"><path codeLine="127" d="M142.28,321.05 C166.33,335.715 191.7538,351.2179 211.7738,363.4279 " fill="none" id="Repositories-to-ProductionTreeRepository" style="stroke:#181818;stroke-width:0.5;"/><polygon fill="#181818" points="214.335,364.99,211.5345,360.9394,212.2006,363.6883,209.4518,364.3544,214.335,364.99" style="stroke:#181818;stroke-width:0.5;"/><text fill="#000000" font-family="sans-serif" font-size="6.5" lengthAdjust="spacing" textLength="73.5" x="181" y="343.5142">productionTreeRepository</text><text fill="#000000" font-family="sans-serif" font-size="6.5" lengthAdjust="spacing" textLength="3.5" x="144.5727" y="332.2995">1</text><text fill="#000000" font-family="sans-serif" font-size="6.5" lengthAdjust="spacing" textLength="3.5" x="205.2408" y="359.4008">1</text></g><!--link OrderRepository to Order--><g id="link_OrderRepository_Order"><path codeLine="128" d="M88.9,403.085 C99.25,409.545 108,415 108,415 C108,415 216.4978,443.4052 311.5728,468.2952 " fill="none" id="OrderRepository-to-Order" style="stroke:#181818;stroke-width:0.5;"/><polygon fill="#181818" points="314.475,469.055,310.6282,465.9805,312.0565,468.4219,309.6152,469.8501,314.475,469.055" style="stroke:#181818;stroke-width:0.5;"/><text fill="#000000" font-family="sans-serif" font-size="6.5" lengthAdjust="spacing" textLength="30" x="158" y="426.5142">categories</text><text fill="#000000" font-family="sans-serif" font-size="6.5" lengthAdjust="spacing" textLength="3.5" x="90.4442" y="414.1787">1</text><text fill="#000000" font-family="sans-serif" font-size="6.5" lengthAdjust="spacing" textLength="2.5" x="308.0036" y="466.4005">*</text></g><!--link ProductionTreeRepository to ProductionElement--><g id="link_ProductionTreeRepository_ProductionElement"><path codeLine="129" d="M327.115,398.505 C370.7,406.73 414.5,415 414.5,415 C414.5,415 588.5,432.5 588.5,432.5 C588.5,432.5 611.7278,452.3228 634.5478,471.7928 " fill="none" id="ProductionTreeRepository-to-ProductionElement" style="stroke:#181818;stroke-width:0.5;"/><polygon fill="#181818" points="636.83,473.74,634.7048,469.2978,634.9282,472.1173,632.1086,472.3407,636.83,473.74" style="stroke:#181818;stroke-width:0.5;"/><text fill="#000000" font-family="sans-serif" font-size="6.5" lengthAdjust="spacing" textLength="30" x="546.5" y="426.5142">categories</text><text fill="#000000" font-family="sans-serif" font-size="6.5" lengthAdjust="spacing" textLength="3.5" x="338.6425" y="409.2905">1</text><text fill="#000000" font-family="sans-serif" font-size="6.5" lengthAdjust="spacing" textLength="2.5" x="629.8913" y="468.0119">*</text></g><!--link Product to Part--><g id="link_Product_Part"><path codeLine="130" d="M875.5,544.345 C875.5,561.62 875.5,572.55 875.5,588.595 " fill="none" id="Product-to-Part" style="stroke:#181818;stroke-width:0.5;"/><polygon fill="none" points="875.5,597.595,878.5,588.595,872.5,588.595,875.5,597.595" style="stroke:#181818;stroke-width:0.5;"/></g><!--link RawMaterial to Part--><g id="link_RawMaterial_Part"><path codeLine="131" d="M1027.645,530.265 C1011.07,542.06 995,553.5 995,553.5 C995,553.5 963.5093,573.0647 930.0293,593.8697 " fill="none" id="RawMaterial-to-Part" style="stroke:#181818;stroke-width:0.5;"/><polygon fill="none" points="922.385,598.62,931.6127,596.4178,928.4458,591.3216,922.385,598.62" style="stroke:#181818;stroke-width:0.5;"/></g><!--link ProductionElement to Part--><g id="link_ProductionElement_Part"><path codeLine="132" d="M721.65,534.76 C754.245,554.46 794.0326,578.5081 826.0526,597.8631 " fill="none" id="ProductionElement-to-Part" style="stroke:#181818;stroke-width:0.5;"/><polygon fill="#181818" points="828.62,599.415,825.8035,595.3755,826.4805,598.1217,823.7343,598.7987,828.62,599.415" style="stroke:#181818;stroke-width:0.5;"/><text fill="#000000" font-family="sans-serif" font-size="6.5" lengthAdjust="spacing" textLength="10.5" x="792" y="576.0142">has</text></g><!--link ProductionElement to Operation--><g id="link_ProductionElement_Operation"><path codeLine="133" d="M672,534.84 C672,552.405 672,571.645 672,589.965 " fill="none" id="ProductionElement-to-Operation" style="stroke:#181818;stroke-width:0.5;"/><polygon fill="#181818" points="672,592.965,674,588.465,672,590.465,670,588.465,672,592.965" style="stroke:#181818;stroke-width:0.5;"/><text fill="#000000" font-family="sans-serif" font-size="6.5" lengthAdjust="spacing" textLength="10.5" x="672.5" y="576.0142">has</text></g><!--link ProductionService to ProductException--><g id="link_ProductionService_ProductException"><path codeLine="134" d="M664.06,203.53 C666.485,222.715 670.118,251.4238 672.553,270.6488 " fill="none" id="ProductionService-to-ProductException" style="stroke:#181818;stroke-width:0.5;stroke-dasharray:7.0,7.0;"/><polygon fill="#181818" points="672.93,273.625,674.3487,268.9094,672.6159,271.1448,670.3804,269.412,672.93,273.625" style="stroke:#181818;stroke-width:0.5;"/><text fill="#000000" font-family="sans-serif" font-size="6.5" lengthAdjust="spacing" textLength="19" x="668" y="231.5142">throws</text></g><!--link ProductException to RuntimeException--><g id="link_ProductException_RuntimeException"><path codeLine="135" d="M658.61,307.345 C640.58,325.325 618.428,347.4151 602.538,363.2601 " fill="none" id="ProductException-to-RuntimeException" style="stroke:#181818;stroke-width:0.5;"/><polygon fill="none" points="596.165,369.615,604.6563,365.3844,600.4197,361.1357,596.165,369.615" style="stroke:#181818;stroke-width:0.5;"/></g><!--link OrderService to OrderException--><g id="link_OrderService_OrderException"><path codeLine="136" d="M479.54,208.045 C482.835,227.395 487.182,252.8875 490.207,270.6725 " fill="none" id="OrderService-to-OrderException" style="stroke:#181818;stroke-width:0.5;stroke-dasharray:7.0,7.0;"/><polygon fill="#181818" points="490.71,273.63,491.9271,268.8584,490.2908,271.1654,487.9838,269.5291,490.71,273.63" style="stroke:#181818;stroke-width:0.5;"/><text fill="#000000" font-family="sans-serif" font-size="6.5" lengthAdjust="spacing" textLength="19" x="484" y="231.5142">throws</text></g><!--link OrderException to RuntimeException--><g id="link_OrderException_RuntimeException"><path codeLine="137" d="M509.98,307.345 C528.11,325.325 550.4051,347.4321 566.3801,363.2771 " fill="none" id="OrderException-to-RuntimeException" style="stroke:#181818;stroke-width:0.5;"/><polygon fill="none" points="572.77,369.615,568.4927,361.1471,564.2675,365.4071,572.77,369.615" style="stroke:#181818;stroke-width:0.5;"/></g><!--SRC=[jLPRJzim57xFhx3wrAufsbuhXCGeY4fZC0e_m3Y7rceIPuu3P9V_Fjkv-1AdPPFMXoO-b-zSStpAFSqBp7662apsU0iRKQU0E121ysqAKTaBb3kSi5UQRz4pJakRaz8SH5q0AbXQguF58oakotCXE7sg1Am9opVq1w2FKTGQH9F7zGJzZ93yQM5qiGEolyRbfdf-feH2BZQ2aVqjJu0_hblHtz5l2-A2vOApD0NkGcaTmsnvwZVVWj3SSZf3I_I5bk9KdyzQU0lbZhEa8eAoV1HgdPUzj_VuzGOBu1Idsl4hnZNobAd_zQgtPmcU1OBQ07-X108HjPptX-E8VAxNAziNJJmKTTZS_mZv7WfMKi5uxKRTqocKbXiBcpwT-Ux95YQWys7B3HDYh4xxV1YQ8s-Iyi2XmNP9dfwJKG_Oo-TvcXwitL-NpNN7isR4hYbmpCckdXODhO6N7-3k1XUdHl0oXKpMEaRhNC3MV2bs0MzO0gbRkplCXLqpcaZqZHm8-TOGSvn1W9n0IJWjbFKXTwwGfpI9aTAEaIKy6-R5wZpR6r9ntaqOQOBcml0ocjEioaAykGNtRXVQL3hc9SPMLQVleukMOil8z59H- -wLQf1wDC9InWE9BBZwW9SeOTMJdEecXOtHS0WnwjnJRuqJCL9cvLaPYf76dHtgmhPhxA0BrH5BtHY6o0hPXcsXRxjtm_vUuLmqILY5Op2sfif0Z7h467NQ0KzxMuCUTHAhxpVBimTvFjg-y0Qaqj8qyqirxw5qyXL-Lm97RJOoHsntswdW-om_HVe2l3vF4WvIRudQDqzp9QkiyYeVG-KWSwIT5dBaQcbP4YBjR8IdfGlrpPJI6Z3UM6bIPDyXgZMTU6I5E-yDhpbf_zJ3CJWB3ApBDmAwsRsXrMZsN7jw5iw4_Sh45Qlon9sUllv84OFuEgeUrf_u1o3lAnbc1aP2SeyiKoSdP_wIz1wLq4OK-SjMZztk3r5mZtBXZeewWCuofBZEdh2KQwnrxG-4_UjusVIJTOE7LJh1QBWX7VCXh35wPIzHCRPS74GoYaSjTkFPDjNInkApBb8PdZb5JkIBnI0Lj5t9NC79fuaMLi_Z9HbL_PSa-kPwl0-JljJj5UXMppDXwuLIEyIGuh_EcXlGpgUX3c6KWRlcvjpXSaJWrhf5NQb0-StqMIAnu-orbpSSxT5Wi8G_Z02UHm-Z_G40]--></g></svg>