<?xml version="1.0" encoding="us-ascii" standalone="no"?><svg xmlns="http://www.w3.org/2000/svg" xmlns:xlink="http://www.w3.org/1999/xlink" contentStyleType="text/css" height="638px" preserveAspectRatio="none" style="width:747px;height:638px;background:#FFFFFF;" version="1.1" viewBox="0 0 747 638" width="747.5px" zoomAndPan="magnify"><defs/><g><!--cluster UI--><g id="cluster_UI"><rect fill="none" height="50.5" rx="1.25" ry="1.25" style="stroke:#000000;stroke-width:0.75;" width="111" x="460.5" y="3.5"/><text fill="#000000" font-family="sans-serif" font-size="7" font-weight="bold" lengthAdjust="spacing" textLength="7" x="512.5" y="12.0537">UI</text></g><!--cluster Controller--><g id="cluster_Controller"><rect fill="none" height="60" rx="1.25" ry="1.25" style="stroke:#000000;stroke-width:0.75;" width="297.5" x="365.5" y="70.5"/><text fill="#000000" font-family="sans-serif" font-size="7" font-weight="bold" lengthAdjust="spacing" textLength="35.5" x="496.5" y="79.0537">Controller</text></g><!--cluster Service--><g id="cluster_Service"><rect fill="none" height="60" rx="1.25" ry="1.25" style="stroke:#000000;stroke-width:0.75;" width="297.5" x="274.5" y="147"/><text fill="#000000" font-family="sans-serif" font-size="7" font-weight="bold" lengthAdjust="spacing" textLength="27" x="409.75" y="155.5537">Service</text></g><!--cluster Repository--><g id="cluster_Repository"><rect fill="none" height="160.5" rx="1.25" ry="1.25" style="stroke:#000000;stroke-width:0.75;" width="274.5" x="78" y="232.5"/><text fill="#000000" font-family="sans-serif" font-size="7" font-weight="bold" lengthAdjust="spacing" textLength="38" x="196.25" y="241.0537">Repository</text></g><!--cluster Model--><g id="cluster_Model"><rect fill="none" height="216.5" rx="1.25" ry="1.25" style="stroke:#000000;stroke-width:0.75;" width="405.5" x="339" y="418.5"/><text fill="#000000" font-family="sans-serif" font-size="7" font-weight="bold" lengthAdjust="spacing" textLength="22" x="530.75" y="427.0537">Model</text></g><!--cluster Exception--><g id="cluster_Exception"><rect fill="none" height="146.5" rx="1.25" ry="1.25" style="stroke:#000000;stroke-width:0.75;" width="213" x="387" y="241.75"/><text fill="#000000" font-family="sans-serif" font-size="7" font-weight="bold" lengthAdjust="spacing" textLength="35" x="476" y="250.3037">Exception</text></g><!--class ConsultProductionTreeUI--><g id="elem_ConsultProductionTreeUI"><rect codeLine="7" fill="#F1F1F1" height="24" id="ConsultProductionTreeUI" rx="1.25" ry="1.25" style="stroke:#181818;stroke-width:0.25;" width="95" x="468.5" y="22"/><ellipse cx="476" cy="30" fill="#ADD1B2" rx="5.5" ry="5.5" style="stroke:#181818;stroke-width:0.5;"/><path d="M477.3828,27.9375 Q477.4609,27.8281 477.5547,27.7734 Q477.6484,27.7188 477.7578,27.7188 Q477.9453,27.7188 478.0625,27.8516 Q478.1797,27.9766 478.1797,28.2813 L478.1797,29.0078 Q478.1797,29.3125 478.0625,29.4453 Q477.9453,29.5781 477.7578,29.5781 Q477.5859,29.5781 477.4844,29.4766 Q477.3828,29.3828 477.3281,29.125 Q477.3047,28.9453 477.2109,28.8516 Q477.0469,28.6641 476.7422,28.5547 Q476.4375,28.4453 476.125,28.4453 Q475.7422,28.4453 475.4219,28.6094 Q475.1094,28.7734 474.8594,29.1484 Q474.6172,29.5234 474.6172,30.0391 L474.6172,30.5859 Q474.6172,31.2031 475.0625,31.6172 Q475.5078,32.0234 476.3047,32.0234 Q476.7734,32.0234 477.1016,31.8984 Q477.2969,31.8203 477.5078,31.6016 Q477.6406,31.4688 477.7109,31.4297 Q477.7891,31.3906 477.8906,31.3906 Q478.0547,31.3906 478.1797,31.5234 Q478.3125,31.6484 478.3125,31.8203 Q478.3125,31.9922 478.1406,32.1953 Q477.8906,32.4844 477.4922,32.6484 Q476.9531,32.875 476.3047,32.875 Q475.5469,32.875 474.9453,32.5625 Q474.4531,32.3125 474.1094,31.7813 Q473.7656,31.2422 473.7656,30.6016 L473.7656,30.0234 Q473.7656,29.3594 474.0703,28.7891 Q474.3828,28.2109 474.9297,27.9063 Q475.4766,27.5938 476.0938,27.5938 Q476.4609,27.5938 476.7813,27.6797 Q477.1094,27.7578 477.3828,27.9375 Z " fill="#000000"/><text fill="#000000" font-family="sans-serif" font-size="7" lengthAdjust="spacing" textLength="79" x="483" y="32.8984">ConsultProductionTreeUI</text><line style="stroke:#181818;stroke-width:0.25;" x1="469" x2="563" y1="38" y2="38"/><line style="stroke:#181818;stroke-width:0.25;" x1="469" x2="563" y1="42" y2="42"/></g><!--class ProductController--><g id="elem_ProductController"><rect codeLine="12" fill="#F1F1F1" height="33.3105" id="ProductController" rx="1.25" ry="1.25" style="stroke:#181818;stroke-width:0.25;" width="102.5" x="373.75" y="89"/><ellipse cx="395.2" cy="97" fill="#ADD1B2" rx="5.5" ry="5.5" style="stroke:#181818;stroke-width:0.5;"/><path d="M396.5828,94.9375 Q396.6609,94.8281 396.7547,94.7734 Q396.8484,94.7188 396.9578,94.7188 Q397.1453,94.7188 397.2625,94.8516 Q397.3797,94.9766 397.3797,95.2813 L397.3797,96.0078 Q397.3797,96.3125 397.2625,96.4453 Q397.1453,96.5781 396.9578,96.5781 Q396.7859,96.5781 396.6844,96.4766 Q396.5828,96.3828 396.5281,96.125 Q396.5047,95.9453 396.4109,95.8516 Q396.2469,95.6641 395.9422,95.5547 Q395.6375,95.4453 395.325,95.4453 Q394.9422,95.4453 394.6219,95.6094 Q394.3094,95.7734 394.0594,96.1484 Q393.8172,96.5234 393.8172,97.0391 L393.8172,97.5859 Q393.8172,98.2031 394.2625,98.6172 Q394.7078,99.0234 395.5047,99.0234 Q395.9734,99.0234 396.3016,98.8984 Q396.4969,98.8203 396.7078,98.6016 Q396.8406,98.4688 396.9109,98.4297 Q396.9891,98.3906 397.0906,98.3906 Q397.2547,98.3906 397.3797,98.5234 Q397.5125,98.6484 397.5125,98.8203 Q397.5125,98.9922 397.3406,99.1953 Q397.0906,99.4844 396.6922,99.6484 Q396.1531,99.875 395.5047,99.875 Q394.7469,99.875 394.1453,99.5625 Q393.6531,99.3125 393.3094,98.7813 Q392.9656,98.2422 392.9656,97.6016 L392.9656,97.0234 Q392.9656,96.3594 393.2703,95.7891 Q393.5828,95.2109 394.1297,94.9063 Q394.6766,94.5938 395.2938,94.5938 Q395.6609,94.5938 395.9813,94.6797 Q396.3094,94.7578 396.5828,94.9375 Z " fill="#000000"/><text fill="#000000" font-family="sans-serif" font-size="7" lengthAdjust="spacing" textLength="55.5" x="405.3" y="99.8984">ProductController</text><line style="stroke:#181818;stroke-width:0.25;" x1="374.25" x2="475.75" y1="105" y2="105"/><line style="stroke:#181818;stroke-width:0.25;" x1="374.25" x2="475.75" y1="109" y2="109"/><text fill="#000000" font-family="sans-serif" font-size="7" lengthAdjust="spacing" textLength="96.5" x="376.75" y="118.5537">+getProducts() : List&lt;Product&gt;</text></g><!--class ProductionController--><g id="elem_ProductionController"><rect codeLine="16" fill="#F1F1F1" height="33.3105" id="ProductionController" rx="1.25" ry="1.25" style="stroke:#181818;stroke-width:0.25;" width="161" x="494" y="89"/><ellipse cx="539.875" cy="97" fill="#ADD1B2" rx="5.5" ry="5.5" style="stroke:#181818;stroke-width:0.5;"/><path d="M541.2578,94.9375 Q541.3359,94.8281 541.4297,94.7734 Q541.5234,94.7188 541.6328,94.7188 Q541.8203,94.7188 541.9375,94.8516 Q542.0547,94.9766 542.0547,95.2813 L542.0547,96.0078 Q542.0547,96.3125 541.9375,96.4453 Q541.8203,96.5781 541.6328,96.5781 Q541.4609,96.5781 541.3594,96.4766 Q541.2578,96.3828 541.2031,96.125 Q541.1797,95.9453 541.0859,95.8516 Q540.9219,95.6641 540.6172,95.5547 Q540.3125,95.4453 540,95.4453 Q539.6172,95.4453 539.2969,95.6094 Q538.9844,95.7734 538.7344,96.1484 Q538.4922,96.5234 538.4922,97.0391 L538.4922,97.5859 Q538.4922,98.2031 538.9375,98.6172 Q539.3828,99.0234 540.1797,99.0234 Q540.6484,99.0234 540.9766,98.8984 Q541.1719,98.8203 541.3828,98.6016 Q541.5156,98.4688 541.5859,98.4297 Q541.6641,98.3906 541.7656,98.3906 Q541.9297,98.3906 542.0547,98.5234 Q542.1875,98.6484 542.1875,98.8203 Q542.1875,98.9922 542.0156,99.1953 Q541.7656,99.4844 541.3672,99.6484 Q540.8281,99.875 540.1797,99.875 Q539.4219,99.875 538.8203,99.5625 Q538.3281,99.3125 537.9844,98.7813 Q537.6406,98.2422 537.6406,97.6016 L537.6406,97.0234 Q537.6406,96.3594 537.9453,95.7891 Q538.2578,95.2109 538.8047,94.9063 Q539.3516,94.5938 539.9688,94.5938 Q540.3359,94.5938 540.6563,94.6797 Q540.9844,94.7578 541.2578,94.9375 Z " fill="#000000"/><text fill="#000000" font-family="sans-serif" font-size="7" lengthAdjust="spacing" textLength="65" x="550.125" y="99.8984">ProductionController</text><line style="stroke:#181818;stroke-width:0.25;" x1="494.5" x2="654.5" y1="105" y2="105"/><line style="stroke:#181818;stroke-width:0.25;" x1="494.5" x2="654.5" y1="109" y2="109"/><text fill="#000000" font-family="sans-serif" font-size="7" lengthAdjust="spacing" textLength="155" x="497" y="118.5537">+createProductionTree(productID, filePath) : void</text></g><!--class ProductService--><g id="elem_ProductService"><rect codeLine="22" fill="#F1F1F1" height="33.3105" id="ProductService" rx="1.25" ry="1.25" style="stroke:#181818;stroke-width:0.25;" width="102.5" x="282.75" y="165.5"/><ellipse cx="307.875" cy="173.5" fill="#ADD1B2" rx="5.5" ry="5.5" style="stroke:#181818;stroke-width:0.5;"/><path d="M309.2578,171.4375 Q309.3359,171.3281 309.4297,171.2734 Q309.5234,171.2188 309.6328,171.2188 Q309.8203,171.2188 309.9375,171.3516 Q310.0547,171.4766 310.0547,171.7813 L310.0547,172.5078 Q310.0547,172.8125 309.9375,172.9453 Q309.8203,173.0781 309.6328,173.0781 Q309.4609,173.0781 309.3594,172.9766 Q309.2578,172.8828 309.2031,172.625 Q309.1797,172.4453 309.0859,172.3516 Q308.9219,172.1641 308.6172,172.0547 Q308.3125,171.9453 308,171.9453 Q307.6172,171.9453 307.2969,172.1094 Q306.9844,172.2734 306.7344,172.6484 Q306.4922,173.0234 306.4922,173.5391 L306.4922,174.0859 Q306.4922,174.7031 306.9375,175.1172 Q307.3828,175.5234 308.1797,175.5234 Q308.6484,175.5234 308.9766,175.3984 Q309.1719,175.3203 309.3828,175.1016 Q309.5156,174.9688 309.5859,174.9297 Q309.6641,174.8906 309.7656,174.8906 Q309.9297,174.8906 310.0547,175.0234 Q310.1875,175.1484 310.1875,175.3203 Q310.1875,175.4922 310.0156,175.6953 Q309.7656,175.9844 309.3672,176.1484 Q308.8281,176.375 308.1797,176.375 Q307.4219,176.375 306.8203,176.0625 Q306.3281,175.8125 305.9844,175.2813 Q305.6406,174.7422 305.6406,174.1016 L305.6406,173.5234 Q305.6406,172.8594 305.9453,172.2891 Q306.2578,171.7109 306.8047,171.4063 Q307.3516,171.0938 307.9688,171.0938 Q308.3359,171.0938 308.6563,171.1797 Q308.9844,171.2578 309.2578,171.4375 Z " fill="#000000"/><text fill="#000000" font-family="sans-serif" font-size="7" lengthAdjust="spacing" textLength="48" x="318.125" y="176.3984">ProductService</text><line style="stroke:#181818;stroke-width:0.25;" x1="283.25" x2="384.75" y1="181.5" y2="181.5"/><line style="stroke:#181818;stroke-width:0.25;" x1="283.25" x2="384.75" y1="185.5" y2="185.5"/><text fill="#000000" font-family="sans-serif" font-size="7" lengthAdjust="spacing" textLength="96.5" x="285.75" y="195.0537">+getProducts() : List&lt;Product&gt;</text></g><!--class ProductionService--><g id="elem_ProductionService"><rect codeLine="26" fill="#F1F1F1" height="33.3105" id="ProductionService" rx="1.25" ry="1.25" style="stroke:#181818;stroke-width:0.25;" width="161" x="403" y="165.5"/><ellipse cx="452.625" cy="173.5" fill="#ADD1B2" rx="5.5" ry="5.5" style="stroke:#181818;stroke-width:0.5;"/><path d="M454.0078,171.4375 Q454.0859,171.3281 454.1797,171.2734 Q454.2734,171.2188 454.3828,171.2188 Q454.5703,171.2188 454.6875,171.3516 Q454.8047,171.4766 454.8047,171.7813 L454.8047,172.5078 Q454.8047,172.8125 454.6875,172.9453 Q454.5703,173.0781 454.3828,173.0781 Q454.2109,173.0781 454.1094,172.9766 Q454.0078,172.8828 453.9531,172.625 Q453.9297,172.4453 453.8359,172.3516 Q453.6719,172.1641 453.3672,172.0547 Q453.0625,171.9453 452.75,171.9453 Q452.3672,171.9453 452.0469,172.1094 Q451.7344,172.2734 451.4844,172.6484 Q451.2422,173.0234 451.2422,173.5391 L451.2422,174.0859 Q451.2422,174.7031 451.6875,175.1172 Q452.1328,175.5234 452.9297,175.5234 Q453.3984,175.5234 453.7266,175.3984 Q453.9219,175.3203 454.1328,175.1016 Q454.2656,174.9688 454.3359,174.9297 Q454.4141,174.8906 454.5156,174.8906 Q454.6797,174.8906 454.8047,175.0234 Q454.9375,175.1484 454.9375,175.3203 Q454.9375,175.4922 454.7656,175.6953 Q454.5156,175.9844 454.1172,176.1484 Q453.5781,176.375 452.9297,176.375 Q452.1719,176.375 451.5703,176.0625 Q451.0781,175.8125 450.7344,175.2813 Q450.3906,174.7422 450.3906,174.1016 L450.3906,173.5234 Q450.3906,172.8594 450.6953,172.2891 Q451.0078,171.7109 451.5547,171.4063 Q452.1016,171.0938 452.7188,171.0938 Q453.0859,171.0938 453.4063,171.1797 Q453.7344,171.2578 454.0078,171.4375 Z " fill="#000000"/><text fill="#000000" font-family="sans-serif" font-size="7" lengthAdjust="spacing" textLength="57.5" x="462.875" y="176.3984">ProductionService</text><line style="stroke:#181818;stroke-width:0.25;" x1="403.5" x2="563.5" y1="181.5" y2="181.5"/><line style="stroke:#181818;stroke-width:0.25;" x1="403.5" x2="563.5" y1="185.5" y2="185.5"/><text fill="#000000" font-family="sans-serif" font-size="7" lengthAdjust="spacing" textLength="155" x="406" y="195.0537">+createProductionTree(productID, filePath) : void</text></g><!--class Repositories--><g id="elem_Repositories"><rect codeLine="32" fill="#F1F1F1" height="61.2422" id="Repositories" rx="1.25" ry="1.25" style="stroke:#181818;stroke-width:0.25;" width="163" x="86.5" y="251"/><ellipse cx="146.125" cy="259" fill="#ADD1B2" rx="5.5" ry="5.5" style="stroke:#181818;stroke-width:0.5;"/><path d="M147.5078,256.9375 Q147.5859,256.8281 147.6797,256.7734 Q147.7734,256.7188 147.8828,256.7188 Q148.0703,256.7188 148.1875,256.8516 Q148.3047,256.9766 148.3047,257.2813 L148.3047,258.0078 Q148.3047,258.3125 148.1875,258.4453 Q148.0703,258.5781 147.8828,258.5781 Q147.7109,258.5781 147.6094,258.4766 Q147.5078,258.3828 147.4531,258.125 Q147.4297,257.9453 147.3359,257.8516 Q147.1719,257.6641 146.8672,257.5547 Q146.5625,257.4453 146.25,257.4453 Q145.8672,257.4453 145.5469,257.6094 Q145.2344,257.7734 144.9844,258.1484 Q144.7422,258.5234 144.7422,259.0391 L144.7422,259.5859 Q144.7422,260.2031 145.1875,260.6172 Q145.6328,261.0234 146.4297,261.0234 Q146.8984,261.0234 147.2266,260.8984 Q147.4219,260.8203 147.6328,260.6016 Q147.7656,260.4688 147.8359,260.4297 Q147.9141,260.3906 148.0156,260.3906 Q148.1797,260.3906 148.3047,260.5234 Q148.4375,260.6484 148.4375,260.8203 Q148.4375,260.9922 148.2656,261.1953 Q148.0156,261.4844 147.6172,261.6484 Q147.0781,261.875 146.4297,261.875 Q145.6719,261.875 145.0703,261.5625 Q144.5781,261.3125 144.2344,260.7813 Q143.8906,260.2422 143.8906,259.6016 L143.8906,259.0234 Q143.8906,258.3594 144.1953,257.7891 Q144.5078,257.2109 145.0547,256.9063 Q145.6016,256.5938 146.2188,256.5938 Q146.5859,256.5938 146.9063,256.6797 Q147.2344,256.7578 147.5078,256.9375 Z " fill="#000000"/><text fill="#000000" font-family="sans-serif" font-size="7" lengthAdjust="spacing" textLength="39.5" x="156.375" y="261.8984">Repositories</text><line style="stroke:#181818;stroke-width:0.25;" x1="87" x2="249" y1="267" y2="267"/><line style="stroke:#181818;stroke-width:0.25;" x1="87" x2="249" y1="271" y2="271"/><text fill="#000000" font-family="sans-serif" font-size="7" lengthAdjust="spacing" textLength="47" x="89.5" y="280.5537">-Repositories()</text><text fill="#000000" font-family="sans-serif" font-size="7" lengthAdjust="spacing" textLength="91" x="89.5" y="289.8643">+getInstance() : Repositories</text><text fill="#000000" font-family="sans-serif" font-size="7" lengthAdjust="spacing" textLength="142" x="89.5" y="299.1748">+getProductRepository() : ProductRepository</text><text fill="#000000" font-family="sans-serif" font-size="7" lengthAdjust="spacing" textLength="157" x="89.5" y="308.4854">+getProductionTree() : ProductionTreeRepository</text></g><!--class ProductRepository--><g id="elem_ProductRepository"><rect codeLine="39" fill="#F1F1F1" height="33.3105" id="ProductRepository" rx="1.25" ry="1.25" style="stroke:#181818;stroke-width:0.25;" width="82" x="262.5" y="351.5"/><ellipse cx="273.375" cy="359.5" fill="#ADD1B2" rx="5.5" ry="5.5" style="stroke:#181818;stroke-width:0.5;"/><path d="M274.7578,357.4375 Q274.8359,357.3281 274.9297,357.2734 Q275.0234,357.2188 275.1328,357.2188 Q275.3203,357.2188 275.4375,357.3516 Q275.5547,357.4766 275.5547,357.7813 L275.5547,358.5078 Q275.5547,358.8125 275.4375,358.9453 Q275.3203,359.0781 275.1328,359.0781 Q274.9609,359.0781 274.8594,358.9766 Q274.7578,358.8828 274.7031,358.625 Q274.6797,358.4453 274.5859,358.3516 Q274.4219,358.1641 274.1172,358.0547 Q273.8125,357.9453 273.5,357.9453 Q273.1172,357.9453 272.7969,358.1094 Q272.4844,358.2734 272.2344,358.6484 Q271.9922,359.0234 271.9922,359.5391 L271.9922,360.0859 Q271.9922,360.7031 272.4375,361.1172 Q272.8828,361.5234 273.6797,361.5234 Q274.1484,361.5234 274.4766,361.3984 Q274.6719,361.3203 274.8828,361.1016 Q275.0156,360.9688 275.0859,360.9297 Q275.1641,360.8906 275.2656,360.8906 Q275.4297,360.8906 275.5547,361.0234 Q275.6875,361.1484 275.6875,361.3203 Q275.6875,361.4922 275.5156,361.6953 Q275.2656,361.9844 274.8672,362.1484 Q274.3281,362.375 273.6797,362.375 Q272.9219,362.375 272.3203,362.0625 Q271.8281,361.8125 271.4844,361.2813 Q271.1406,360.7422 271.1406,360.1016 L271.1406,359.5234 Q271.1406,358.8594 271.4453,358.2891 Q271.7578,357.7109 272.3047,357.4063 Q272.8516,357.0938 273.4688,357.0938 Q273.8359,357.0938 274.1563,357.1797 Q274.4844,357.2578 274.7578,357.4375 Z " fill="#000000"/><text fill="#000000" font-family="sans-serif" font-size="7" lengthAdjust="spacing" textLength="58.5" x="281.125" y="362.3984">ProductRepository</text><line style="stroke:#181818;stroke-width:0.25;" x1="263" x2="344" y1="367.5" y2="367.5"/><line style="stroke:#181818;stroke-width:0.25;" x1="263" x2="344" y1="371.5" y2="371.5"/><text fill="#000000" font-family="sans-serif" font-size="7" lengthAdjust="spacing" textLength="76" x="265.5" y="381.0537">+getAll() : List&lt;Product&gt;</text></g><!--class ProductionTreeRepository--><g id="elem_ProductionTreeRepository"><rect codeLine="43" fill="#F1F1F1" height="33.3105" id="ProductionTreeRepository" rx="1.25" ry="1.25" style="stroke:#181818;stroke-width:0.25;" width="158.5" x="86.25" y="351.5"/><ellipse cx="121.875" cy="359.5" fill="#ADD1B2" rx="5.5" ry="5.5" style="stroke:#181818;stroke-width:0.5;"/><path d="M123.2578,357.4375 Q123.3359,357.3281 123.4297,357.2734 Q123.5234,357.2188 123.6328,357.2188 Q123.8203,357.2188 123.9375,357.3516 Q124.0547,357.4766 124.0547,357.7813 L124.0547,358.5078 Q124.0547,358.8125 123.9375,358.9453 Q123.8203,359.0781 123.6328,359.0781 Q123.4609,359.0781 123.3594,358.9766 Q123.2578,358.8828 123.2031,358.625 Q123.1797,358.4453 123.0859,358.3516 Q122.9219,358.1641 122.6172,358.0547 Q122.3125,357.9453 122,357.9453 Q121.6172,357.9453 121.2969,358.1094 Q120.9844,358.2734 120.7344,358.6484 Q120.4922,359.0234 120.4922,359.5391 L120.4922,360.0859 Q120.4922,360.7031 120.9375,361.1172 Q121.3828,361.5234 122.1797,361.5234 Q122.6484,361.5234 122.9766,361.3984 Q123.1719,361.3203 123.3828,361.1016 Q123.5156,360.9688 123.5859,360.9297 Q123.6641,360.8906 123.7656,360.8906 Q123.9297,360.8906 124.0547,361.0234 Q124.1875,361.1484 124.1875,361.3203 Q124.1875,361.4922 124.0156,361.6953 Q123.7656,361.9844 123.3672,362.1484 Q122.8281,362.375 122.1797,362.375 Q121.4219,362.375 120.8203,362.0625 Q120.3281,361.8125 119.9844,361.2813 Q119.6406,360.7422 119.6406,360.1016 L119.6406,359.5234 Q119.6406,358.8594 119.9453,358.2891 Q120.2578,357.7109 120.8047,357.4063 Q121.3516,357.0938 121.9688,357.0938 Q122.3359,357.0938 122.6563,357.1797 Q122.9844,357.2578 123.2578,357.4375 Z " fill="#000000"/><text fill="#000000" font-family="sans-serif" font-size="7" lengthAdjust="spacing" textLength="83" x="132.125" y="362.3984">ProductionTreeRepository</text><line style="stroke:#181818;stroke-width:0.25;" x1="86.75" x2="244.25" y1="367.5" y2="367.5"/><line style="stroke:#181818;stroke-width:0.25;" x1="86.75" x2="244.25" y1="371.5" y2="371.5"/><text fill="#000000" font-family="sans-serif" font-size="7" lengthAdjust="spacing" textLength="152.5" x="89.25" y="381.0537">+saveProductionTree(productID, map) : boolean</text></g><!--class Part--><g id="elem_Part"><rect codeLine="49" fill="#F1F1F1" height="61.2422" id="Part" rx="1.25" ry="1.25" style="stroke:#181818;stroke-width:0.25;" width="93.5" x="544.25" y="561.25"/><ellipse cx="582.375" cy="569.25" fill="#ADD1B2" rx="5.5" ry="5.5" style="stroke:#181818;stroke-width:0.5;"/><path d="M583.7578,567.1875 Q583.8359,567.0781 583.9297,567.0234 Q584.0234,566.9688 584.1328,566.9688 Q584.3203,566.9688 584.4375,567.1016 Q584.5547,567.2266 584.5547,567.5313 L584.5547,568.2578 Q584.5547,568.5625 584.4375,568.6953 Q584.3203,568.8281 584.1328,568.8281 Q583.9609,568.8281 583.8594,568.7266 Q583.7578,568.6328 583.7031,568.375 Q583.6797,568.1953 583.5859,568.1016 Q583.4219,567.9141 583.1172,567.8047 Q582.8125,567.6953 582.5,567.6953 Q582.1172,567.6953 581.7969,567.8594 Q581.4844,568.0234 581.2344,568.3984 Q580.9922,568.7734 580.9922,569.2891 L580.9922,569.8359 Q580.9922,570.4531 581.4375,570.8672 Q581.8828,571.2734 582.6797,571.2734 Q583.1484,571.2734 583.4766,571.1484 Q583.6719,571.0703 583.8828,570.8516 Q584.0156,570.7188 584.0859,570.6797 Q584.1641,570.6406 584.2656,570.6406 Q584.4297,570.6406 584.5547,570.7734 Q584.6875,570.8984 584.6875,571.0703 Q584.6875,571.2422 584.5156,571.4453 Q584.2656,571.7344 583.8672,571.8984 Q583.3281,572.125 582.6797,572.125 Q581.9219,572.125 581.3203,571.8125 Q580.8281,571.5625 580.4844,571.0313 Q580.1406,570.4922 580.1406,569.8516 L580.1406,569.2734 Q580.1406,568.6094 580.4453,568.0391 Q580.7578,567.4609 581.3047,567.1563 Q581.8516,566.8438 582.4688,566.8438 Q582.8359,566.8438 583.1563,566.9297 Q583.4844,567.0078 583.7578,567.1875 Z " fill="#000000"/><text fill="#000000" font-family="sans-serif" font-size="7" lengthAdjust="spacing" textLength="13" x="592.625" y="572.1484">Part</text><line style="stroke:#181818;stroke-width:0.25;" x1="544.75" x2="637.25" y1="577.25" y2="577.25"/><text fill="#000000" font-family="sans-serif" font-size="7" lengthAdjust="spacing" textLength="32.5" x="547.25" y="586.8037">-id : String</text><text fill="#000000" font-family="sans-serif" font-size="7" lengthAdjust="spacing" textLength="44.5" x="547.25" y="596.1143">-name : String</text><text fill="#000000" font-family="sans-serif" font-size="7" lengthAdjust="spacing" textLength="61.5" x="547.25" y="605.4248">-description : String</text><line style="stroke:#181818;stroke-width:0.25;" x1="544.75" x2="637.25" y1="609.1816" y2="609.1816"/><text fill="#000000" font-family="sans-serif" font-size="7" lengthAdjust="spacing" textLength="87.5" x="547.25" y="618.7354">+Part(id, name, description)</text></g><!--class Product--><g id="elem_Product"><rect codeLine="56" fill="#F1F1F1" height="79.8633" id="Product" rx="1.25" ry="1.25" style="stroke:#181818;stroke-width:0.25;" width="221.5" x="514.75" y="437"/><ellipse cx="611.125" cy="445" fill="#ADD1B2" rx="5.5" ry="5.5" style="stroke:#181818;stroke-width:0.5;"/><path d="M612.5078,442.9375 Q612.5859,442.8281 612.6797,442.7734 Q612.7734,442.7188 612.8828,442.7188 Q613.0703,442.7188 613.1875,442.8516 Q613.3047,442.9766 613.3047,443.2813 L613.3047,444.0078 Q613.3047,444.3125 613.1875,444.4453 Q613.0703,444.5781 612.8828,444.5781 Q612.7109,444.5781 612.6094,444.4766 Q612.5078,444.3828 612.4531,444.125 Q612.4297,443.9453 612.3359,443.8516 Q612.1719,443.6641 611.8672,443.5547 Q611.5625,443.4453 611.25,443.4453 Q610.8672,443.4453 610.5469,443.6094 Q610.2344,443.7734 609.9844,444.1484 Q609.7422,444.5234 609.7422,445.0391 L609.7422,445.5859 Q609.7422,446.2031 610.1875,446.6172 Q610.6328,447.0234 611.4297,447.0234 Q611.8984,447.0234 612.2266,446.8984 Q612.4219,446.8203 612.6328,446.6016 Q612.7656,446.4688 612.8359,446.4297 Q612.9141,446.3906 613.0156,446.3906 Q613.1797,446.3906 613.3047,446.5234 Q613.4375,446.6484 613.4375,446.8203 Q613.4375,446.9922 613.2656,447.1953 Q613.0156,447.4844 612.6172,447.6484 Q612.0781,447.875 611.4297,447.875 Q610.6719,447.875 610.0703,447.5625 Q609.5781,447.3125 609.2344,446.7813 Q608.8906,446.2422 608.8906,445.6016 L608.8906,445.0234 Q608.8906,444.3594 609.1953,443.7891 Q609.5078,443.2109 610.0547,442.9063 Q610.6016,442.5938 611.2188,442.5938 Q611.5859,442.5938 611.9063,442.6797 Q612.2344,442.7578 612.5078,442.9375 Z " fill="#000000"/><text fill="#000000" font-family="sans-serif" font-size="7" lengthAdjust="spacing" textLength="24.5" x="621.375" y="447.8984">Product</text><line style="stroke:#181818;stroke-width:0.25;" x1="515.25" x2="735.75" y1="453" y2="453"/><text fill="#000000" font-family="sans-serif" font-size="7" lengthAdjust="spacing" textLength="89.5" x="517.75" y="462.5537">-category : ProductCategory</text><text fill="#000000" font-family="sans-serif" font-size="7" lengthAdjust="spacing" textLength="42" x="517.75" y="471.8643">-capacity : int</text><text fill="#000000" font-family="sans-serif" font-size="7" lengthAdjust="spacing" textLength="28" x="517.75" y="481.1748">-size : int</text><text fill="#000000" font-family="sans-serif" font-size="7" lengthAdjust="spacing" textLength="42.5" x="517.75" y="490.4854">-color : String</text><text fill="#000000" font-family="sans-serif" font-size="7" lengthAdjust="spacing" textLength="45.5" x="517.75" y="499.7959">-price : double</text><line style="stroke:#181818;stroke-width:0.25;" x1="515.25" x2="735.75" y1="503.5527" y2="503.5527"/><text fill="#000000" font-family="sans-serif" font-size="7" lengthAdjust="spacing" textLength="215.5" x="517.75" y="513.1064">+Product(id, name, description, category, capacity, size, color, price)</text></g><!--class ProductionElement--><g id="elem_ProductionElement"><rect codeLine="65" fill="#F1F1F1" height="61.2422" id="ProductionElement" rx="1.25" ry="1.25" style="stroke:#181818;stroke-width:0.25;" width="150" x="347" y="446.5"/><ellipse cx="390.125" cy="454.5" fill="#ADD1B2" rx="5.5" ry="5.5" style="stroke:#181818;stroke-width:0.5;"/><path d="M391.5078,452.4375 Q391.5859,452.3281 391.6797,452.2734 Q391.7734,452.2188 391.8828,452.2188 Q392.0703,452.2188 392.1875,452.3516 Q392.3047,452.4766 392.3047,452.7813 L392.3047,453.5078 Q392.3047,453.8125 392.1875,453.9453 Q392.0703,454.0781 391.8828,454.0781 Q391.7109,454.0781 391.6094,453.9766 Q391.5078,453.8828 391.4531,453.625 Q391.4297,453.4453 391.3359,453.3516 Q391.1719,453.1641 390.8672,453.0547 Q390.5625,452.9453 390.25,452.9453 Q389.8672,452.9453 389.5469,453.1094 Q389.2344,453.2734 388.9844,453.6484 Q388.7422,454.0234 388.7422,454.5391 L388.7422,455.0859 Q388.7422,455.7031 389.1875,456.1172 Q389.6328,456.5234 390.4297,456.5234 Q390.8984,456.5234 391.2266,456.3984 Q391.4219,456.3203 391.6328,456.1016 Q391.7656,455.9688 391.8359,455.9297 Q391.9141,455.8906 392.0156,455.8906 Q392.1797,455.8906 392.3047,456.0234 Q392.4375,456.1484 392.4375,456.3203 Q392.4375,456.4922 392.2656,456.6953 Q392.0156,456.9844 391.6172,457.1484 Q391.0781,457.375 390.4297,457.375 Q389.6719,457.375 389.0703,457.0625 Q388.5781,456.8125 388.2344,456.2813 Q387.8906,455.7422 387.8906,455.1016 L387.8906,454.5234 Q387.8906,453.8594 388.1953,453.2891 Q388.5078,452.7109 389.0547,452.4063 Q389.6016,452.0938 390.2188,452.0938 Q390.5859,452.0938 390.9063,452.1797 Q391.2344,452.2578 391.5078,452.4375 Z " fill="#000000"/><text fill="#000000" font-family="sans-serif" font-size="7" lengthAdjust="spacing" textLength="59.5" x="400.375" y="457.3984">ProductionElement</text><line style="stroke:#181818;stroke-width:0.25;" x1="347.5" x2="496.5" y1="462.5" y2="462.5"/><text fill="#000000" font-family="sans-serif" font-size="7" lengthAdjust="spacing" textLength="34" x="350" y="472.0537">-part : Part</text><text fill="#000000" font-family="sans-serif" font-size="7" lengthAdjust="spacing" textLength="70" x="350" y="481.3643">-operation : Operation</text><text fill="#000000" font-family="sans-serif" font-size="7" lengthAdjust="spacing" textLength="56" x="350" y="490.6748">-quantity : Double</text><line style="stroke:#181818;stroke-width:0.25;" x1="347.5" x2="496.5" y1="494.4316" y2="494.4316"/><text fill="#000000" font-family="sans-serif" font-size="7" lengthAdjust="spacing" textLength="144" x="350" y="503.9854">+ProductionElement(part, operation, quantity)</text></g><!--class Operation--><g id="elem_Operation"><rect codeLine="72" fill="#F1F1F1" height="70.5527" id="Operation" rx="1.25" ry="1.25" style="stroke:#181818;stroke-width:0.25;" width="140.5" x="351.75" y="556.5"/><ellipse cx="404.125" cy="564.5" fill="#ADD1B2" rx="5.5" ry="5.5" style="stroke:#181818;stroke-width:0.5;"/><path d="M405.5078,562.4375 Q405.5859,562.3281 405.6797,562.2734 Q405.7734,562.2188 405.8828,562.2188 Q406.0703,562.2188 406.1875,562.3516 Q406.3047,562.4766 406.3047,562.7813 L406.3047,563.5078 Q406.3047,563.8125 406.1875,563.9453 Q406.0703,564.0781 405.8828,564.0781 Q405.7109,564.0781 405.6094,563.9766 Q405.5078,563.8828 405.4531,563.625 Q405.4297,563.4453 405.3359,563.3516 Q405.1719,563.1641 404.8672,563.0547 Q404.5625,562.9453 404.25,562.9453 Q403.8672,562.9453 403.5469,563.1094 Q403.2344,563.2734 402.9844,563.6484 Q402.7422,564.0234 402.7422,564.5391 L402.7422,565.0859 Q402.7422,565.7031 403.1875,566.1172 Q403.6328,566.5234 404.4297,566.5234 Q404.8984,566.5234 405.2266,566.3984 Q405.4219,566.3203 405.6328,566.1016 Q405.7656,565.9688 405.8359,565.9297 Q405.9141,565.8906 406.0156,565.8906 Q406.1797,565.8906 406.3047,566.0234 Q406.4375,566.1484 406.4375,566.3203 Q406.4375,566.4922 406.2656,566.6953 Q406.0156,566.9844 405.6172,567.1484 Q405.0781,567.375 404.4297,567.375 Q403.6719,567.375 403.0703,567.0625 Q402.5781,566.8125 402.2344,566.2813 Q401.8906,565.7422 401.8906,565.1016 L401.8906,564.5234 Q401.8906,563.8594 402.1953,563.2891 Q402.5078,562.7109 403.0547,562.4063 Q403.6016,562.0938 404.2188,562.0938 Q404.5859,562.0938 404.9063,562.1797 Q405.2344,562.2578 405.5078,562.4375 Z " fill="#000000"/><text fill="#000000" font-family="sans-serif" font-size="7" lengthAdjust="spacing" textLength="31.5" x="414.375" y="567.3984">Operation</text><line style="stroke:#181818;stroke-width:0.25;" x1="352.25" x2="491.75" y1="572.5" y2="572.5"/><text fill="#000000" font-family="sans-serif" font-size="7" lengthAdjust="spacing" textLength="21.5" x="354.75" y="582.0537">-id : int</text><text fill="#000000" font-family="sans-serif" font-size="7" lengthAdjust="spacing" textLength="69.5" x="354.75" y="591.3643">-type : OperationType</text><text fill="#000000" font-family="sans-serif" font-size="7" lengthAdjust="spacing" textLength="44.5" x="354.75" y="600.6748">-name : String</text><text fill="#000000" font-family="sans-serif" font-size="7" lengthAdjust="spacing" textLength="61.5" x="354.75" y="609.9854">-executionTime : int</text><line style="stroke:#181818;stroke-width:0.25;" x1="352.25" x2="491.75" y1="613.7422" y2="613.7422"/><text fill="#000000" font-family="sans-serif" font-size="7" lengthAdjust="spacing" textLength="134.5" x="354.75" y="623.2959">+Operation(id, type, name, executionTime)</text></g><!--class ProductException--><g id="elem_ProductException"><rect codeLine="82" fill="#F1F1F1" height="42.6211" id="ProductException" rx="1.25" ry="1.25" style="stroke:#181818;stroke-width:0.25;" width="197" x="395" y="260.25"/><ellipse cx="463.875" cy="268.25" fill="#ADD1B2" rx="5.5" ry="5.5" style="stroke:#181818;stroke-width:0.5;"/><path d="M465.2578,266.1875 Q465.3359,266.0781 465.4297,266.0234 Q465.5234,265.9688 465.6328,265.9688 Q465.8203,265.9688 465.9375,266.1016 Q466.0547,266.2266 466.0547,266.5313 L466.0547,267.2578 Q466.0547,267.5625 465.9375,267.6953 Q465.8203,267.8281 465.6328,267.8281 Q465.4609,267.8281 465.3594,267.7266 Q465.2578,267.6328 465.2031,267.375 Q465.1797,267.1953 465.0859,267.1016 Q464.9219,266.9141 464.6172,266.8047 Q464.3125,266.6953 464,266.6953 Q463.6172,266.6953 463.2969,266.8594 Q462.9844,267.0234 462.7344,267.3984 Q462.4922,267.7734 462.4922,268.2891 L462.4922,268.8359 Q462.4922,269.4531 462.9375,269.8672 Q463.3828,270.2734 464.1797,270.2734 Q464.6484,270.2734 464.9766,270.1484 Q465.1719,270.0703 465.3828,269.8516 Q465.5156,269.7188 465.5859,269.6797 Q465.6641,269.6406 465.7656,269.6406 Q465.9297,269.6406 466.0547,269.7734 Q466.1875,269.8984 466.1875,270.0703 Q466.1875,270.2422 466.0156,270.4453 Q465.7656,270.7344 465.3672,270.8984 Q464.8281,271.125 464.1797,271.125 Q463.4219,271.125 462.8203,270.8125 Q462.3281,270.5625 461.9844,270.0313 Q461.6406,269.4922 461.6406,268.8516 L461.6406,268.2734 Q461.6406,267.6094 461.9453,267.0391 Q462.2578,266.4609 462.8047,266.1563 Q463.3516,265.8438 463.9688,265.8438 Q464.3359,265.8438 464.6563,265.9297 Q464.9844,266.0078 465.2578,266.1875 Z " fill="#000000"/><text fill="#000000" font-family="sans-serif" font-size="7" lengthAdjust="spacing" textLength="55" x="474.125" y="271.1484">ProductException</text><line style="stroke:#181818;stroke-width:0.25;" x1="395.5" x2="591.5" y1="276.25" y2="276.25"/><line style="stroke:#181818;stroke-width:0.25;" x1="395.5" x2="591.5" y1="280.25" y2="280.25"/><text fill="#000000" font-family="sans-serif" font-size="7" lengthAdjust="spacing" textLength="191" x="398" y="289.8037">+productionTreeAlreadyExists(productID) : ProductException</text><text fill="#000000" font-family="sans-serif" font-size="7" lengthAdjust="spacing" textLength="155.5" x="398" y="299.1143">+productNotFound(productID) : ProductException</text></g><!--class RuntimeException--><g id="elem_RuntimeException"><rect codeLine="87" fill="#F1F1F1" height="24" id="RuntimeException" rx="1.25" ry="1.25" style="stroke:#181818;stroke-width:0.25;" width="72.5" x="457.25" y="356.25"/><ellipse cx="464.75" cy="364.25" fill="#ADD1B2" rx="5.5" ry="5.5" style="stroke:#181818;stroke-width:0.5;"/><path d="M466.1328,362.1875 Q466.2109,362.0781 466.3047,362.0234 Q466.3984,361.9688 466.5078,361.9688 Q466.6953,361.9688 466.8125,362.1016 Q466.9297,362.2266 466.9297,362.5313 L466.9297,363.2578 Q466.9297,363.5625 466.8125,363.6953 Q466.6953,363.8281 466.5078,363.8281 Q466.3359,363.8281 466.2344,363.7266 Q466.1328,363.6328 466.0781,363.375 Q466.0547,363.1953 465.9609,363.1016 Q465.7969,362.9141 465.4922,362.8047 Q465.1875,362.6953 464.875,362.6953 Q464.4922,362.6953 464.1719,362.8594 Q463.8594,363.0234 463.6094,363.3984 Q463.3672,363.7734 463.3672,364.2891 L463.3672,364.8359 Q463.3672,365.4531 463.8125,365.8672 Q464.2578,366.2734 465.0547,366.2734 Q465.5234,366.2734 465.8516,366.1484 Q466.0469,366.0703 466.2578,365.8516 Q466.3906,365.7188 466.4609,365.6797 Q466.5391,365.6406 466.6406,365.6406 Q466.8047,365.6406 466.9297,365.7734 Q467.0625,365.8984 467.0625,366.0703 Q467.0625,366.2422 466.8906,366.4453 Q466.6406,366.7344 466.2422,366.8984 Q465.7031,367.125 465.0547,367.125 Q464.2969,367.125 463.6953,366.8125 Q463.2031,366.5625 462.8594,366.0313 Q462.5156,365.4922 462.5156,364.8516 L462.5156,364.2734 Q462.5156,363.6094 462.8203,363.0391 Q463.1328,362.4609 463.6797,362.1563 Q464.2266,361.8438 464.8438,361.8438 Q465.2109,361.8438 465.5313,361.9297 Q465.8594,362.0078 466.1328,362.1875 Z " fill="#000000"/><text fill="#000000" font-family="sans-serif" font-size="7" lengthAdjust="spacing" textLength="56.5" x="471.75" y="367.1484">RuntimeException</text><line style="stroke:#181818;stroke-width:0.25;" x1="457.75" x2="529.25" y1="372.25" y2="372.25"/><line style="stroke:#181818;stroke-width:0.25;" x1="457.75" x2="529.25" y1="376.25" y2="376.25"/></g><!--link ConsultProductionTreeUI to ProductController--><g id="link_ConsultProductionTreeUI_ProductController"><path codeLine="90" d="M501.175,46.025 C486.17,57.695 465.1932,73.9983 448.3032,87.1333 " fill="none" id="ConsultProductionTreeUI-to-ProductController" style="stroke:#181818;stroke-width:0.5;stroke-dasharray:7.0,7.0;"/><polygon fill="#181818" points="445.935,88.975,450.715,87.7913,447.9085,87.4403,448.2595,84.6337,445.935,88.975" style="stroke:#181818;stroke-width:0.5;"/></g><!--link ConsultProductionTreeUI to ProductionController--><g id="link_ConsultProductionTreeUI_ProductionController"><path codeLine="91" d="M525.53,46.025 C535.175,57.695 548.2734,73.5279 559.1334,86.6629 " fill="none" id="ConsultProductionTreeUI-to-ProductionController" style="stroke:#181818;stroke-width:0.5;stroke-dasharray:7.0,7.0;"/><polygon fill="#181818" points="561.045,88.975,559.719,84.2325,559.452,87.0483,556.6362,86.7813,561.045,88.975" style="stroke:#181818;stroke-width:0.5;"/></g><!--link ProductController to ProductService--><g id="link_ProductController_ProductService"><path codeLine="92" d="M405.255,122.63 C389.99,135.295 371.2689,150.8296 356.0139,163.4846 " fill="none" id="ProductController-to-ProductService" style="stroke:#181818;stroke-width:0.5;stroke-dasharray:7.0,7.0;"/><polygon fill="#181818" points="353.705,165.4,358.4453,164.0662,355.6291,163.8038,355.8915,160.9876,353.705,165.4" style="stroke:#181818;stroke-width:0.5;"/></g><!--link ProductController to ProductionService--><g id="link_ProductController_ProductionService"><path codeLine="93" d="M437.695,122.63 C447.505,135.295 459.1876,150.3735 468.9926,163.0285 " fill="none" id="ProductController-to-ProductionService" style="stroke:#181818;stroke-width:0.5;stroke-dasharray:7.0,7.0;"/><polygon fill="#181818" points="470.83,165.4,469.6549,160.6178,469.2988,163.4238,466.4929,163.0677,470.83,165.4" style="stroke:#181818;stroke-width:0.5;"/></g><!--link ProductService to Repositories--><g id="link_ProductService_Repositories"><path codeLine="94" d="M304.915,199.065 C290.65,207.065 276.5,215 276.5,215 C276.5,215 248.553,232.0008 219.893,249.4358 " fill="none" id="ProductService-to-Repositories" style="stroke:#181818;stroke-width:0.5;stroke-dasharray:7.0,7.0;"/><polygon fill="#181818" points="217.33,250.995,222.214,250.3649,219.4658,249.6957,220.1351,246.9476,217.33,250.995" style="stroke:#181818;stroke-width:0.5;"/><text fill="#000000" font-family="sans-serif" font-size="6.5" lengthAdjust="spacing" textLength="33.5" x="277" y="222.5142">repositories</text></g><!--link ProductService to ProductRepository--><g id="link_ProductService_ProductRepository"><path codeLine="95" d="M331.56,199.06 C325.64,238.63 311,336.5 311,336.5 C311,336.5 309.9399,340.9128 308.1249,348.4778 " fill="none" id="ProductService-to-ProductRepository" style="stroke:#181818;stroke-width:0.5;stroke-dasharray:7.0,7.0;"/><polygon fill="#181818" points="307.425,351.395,310.4197,347.4858,308.0083,348.964,306.53,346.5526,307.425,351.395" style="stroke:#181818;stroke-width:0.5;"/><text fill="#000000" font-family="sans-serif" font-size="6.5" lengthAdjust="spacing" textLength="52.5" x="327" y="284.2642">productRepository</text></g><!--link ProductService to Product--><g id="link_ProductService_Product"><path codeLine="96" d="M368.845,199.02 C382.29,205.3 394.5,211 394.5,211 C394.5,211 511.5,215 511.5,215 C511.5,215 600,228.5 600,228.5 C600,228.5 613.9231,363.9257 621.1231,433.9457 " fill="none" id="ProductService-to-Product" style="stroke:#181818;stroke-width:0.5;stroke-dasharray:7.0,7.0;"/><polygon fill="#181818" points="621.43,436.93,622.9592,432.249,621.1743,434.4431,618.9802,432.6582,621.43,436.93" style="stroke:#181818;stroke-width:0.5;"/><text fill="#000000" font-family="sans-serif" font-size="6.5" lengthAdjust="spacing" textLength="21.5" x="611" y="334.5142">product</text></g><!--link ProductionService to Repositories--><g id="link_ProductionService_Repositories"><path codeLine="97" d="M434.425,199.01 C399.045,210.735 357.5,224.5 357.5,224.5 C357.5,224.5 302.5,228.5 302.5,228.5 C302.5,228.5 277.7997,238.1442 247.6697,249.9042 " fill="none" id="ProductionService-to-Repositories" style="stroke:#181818;stroke-width:0.5;stroke-dasharray:7.0,7.0;"/><polygon fill="#181818" points="244.875,250.995,249.7942,251.2219,247.2039,250.086,248.3398,247.4957,244.875,250.995" style="stroke:#181818;stroke-width:0.5;"/><text fill="#000000" font-family="sans-serif" font-size="6.5" lengthAdjust="spacing" textLength="33.5" x="385" y="222.5142">repositories</text></g><!--link ProductionService to ProductionTreeRepository--><g id="link_ProductionService_ProductionTreeRepository"><path codeLine="98" d="M431.955,199.02 C412.06,205.3 394,211 394,211 C394,211 355.5,215 355.5,215 C355.5,215 315,224.5 315,224.5 C315,224.5 3,228.5 3,228.5 C3,228.5 3,312 3,312 C3,312 67.2573,334.0465 115.2223,350.5015 " fill="none" id="ProductionService-to-ProductionTreeRepository" style="stroke:#181818;stroke-width:0.5;stroke-dasharray:7.0,7.0;"/><polygon fill="#181818" points="118.06,351.475,114.4525,348.123,115.6953,350.6638,113.1545,351.9065,118.06,351.475" style="stroke:#181818;stroke-width:0.5;"/><text fill="#000000" font-family="sans-serif" font-size="6.5" lengthAdjust="spacing" textLength="73.5" x="3.5" y="284.2642">productionTreeRepository</text></g><!--link ProductionService to Product--><g id="link_ProductionService_Product"><path codeLine="99" d="M564.055,198.215 C607.17,206.49 651.5,215 651.5,215 C651.5,215 707.5,327 707.5,327 C707.5,327 707.5,336.5 707.5,336.5 C707.5,336.5 674.431,392.9563 650.186,434.3563 " fill="none" id="ProductionService-to-Product" style="stroke:#181818;stroke-width:0.5;stroke-dasharray:7.0,7.0;"/><polygon fill="#181818" points="648.67,436.945,652.6699,434.0726,649.9334,434.7877,649.2182,432.0512,648.67,436.945" style="stroke:#181818;stroke-width:0.5;"/><text fill="#000000" font-family="sans-serif" font-size="6.5" lengthAdjust="spacing" textLength="21.5" x="708" y="334.5142">product</text></g><!--link ProductionService to ProductionElement--><g id="link_ProductionService_ProductionElement"><path codeLine="100" d="M561.68,199.015 C600.205,207.03 638.5,215 638.5,215 C638.5,215 648.5,327 648.5,327 C648.5,327 648.5,336.5 648.5,336.5 C648.5,336.5 600,397 600,397 C600,397 506,414.5 506,414.5 C506,414.5 486.5835,428.8281 465.1835,444.6281 " fill="none" id="ProductionService-to-ProductionElement" style="stroke:#181818;stroke-width:0.5;stroke-dasharray:7.0,7.0;"/><polygon fill="#181818" points="462.77,446.41,467.5781,445.3461,464.7812,444.9251,465.2023,442.1282,462.77,446.41" style="stroke:#181818;stroke-width:0.5;"/><text fill="#000000" font-family="sans-serif" font-size="6.5" lengthAdjust="spacing" textLength="54" x="649" y="334.5142">productionElement</text></g><!--link Repositories to Repositories--><g id="link_Repositories_Repositories"><path codeLine="101" d="M249.56,273.285 C260.06,274.71 267,277.445 267,281.5 C267,285.555 263.0327,287.8866 252.5327,289.3116 " fill="none" id="Repositories-to-Repositories" style="stroke:#181818;stroke-width:0.5;"/><polygon fill="#181818" points="249.56,289.715,254.2881,291.0917,252.0373,289.3788,253.7502,287.128,249.56,289.715" style="stroke:#181818;stroke-width:0.5;"/><text fill="#000000" font-family="sans-serif" font-size="6.5" lengthAdjust="spacing" textLength="24.5" x="270" y="284.2642">instance</text></g><!--link Repositories to ProductRepository--><g id="link_Repositories_ProductRepository"><path codeLine="102" d="M215.69,312.015 C228.805,320.27 239.5,327 239.5,327 C239.5,327 257.4991,338.4642 275.3091,349.7992 " fill="none" id="Repositories-to-ProductRepository" style="stroke:#181818;stroke-width:0.5;"/><polygon fill="#181818" points="277.84,351.41,275.1175,347.3066,275.7309,350.0677,272.9698,350.6811,277.84,351.41" style="stroke:#181818;stroke-width:0.5;"/><text fill="#000000" font-family="sans-serif" font-size="6.5" lengthAdjust="spacing" textLength="52.5" x="254" y="334.5142">productRepository</text><text fill="#000000" font-family="sans-serif" font-size="6.5" lengthAdjust="spacing" textLength="3.5" x="217.7889" y="323.2603">1</text><text fill="#000000" font-family="sans-serif" font-size="6.5" lengthAdjust="spacing" textLength="3.5" x="268.9437" y="345.805">1</text></g><!--link Repositories to ProductionTreeRepository--><g id="link_Repositories_ProductionTreeRepository"><path codeLine="103" d="M164.665,312.015 C163.75,320.27 163,327 163,327 C163,327 163,336.5 163,336.5 C163,336.5 163.3458,340.8395 163.9508,348.4045 " fill="none" id="Repositories-to-ProductionTreeRepository" style="stroke:#181818;stroke-width:0.5;"/><polygon fill="#181818" points="164.19,351.395,165.8249,346.7499,163.9907,348.903,161.8376,347.0688,164.19,351.395" style="stroke:#181818;stroke-width:0.5;"/><text fill="#000000" font-family="sans-serif" font-size="6.5" lengthAdjust="spacing" textLength="73.5" x="163.5" y="334.5142">productionTreeRepository</text><text fill="#000000" font-family="sans-serif" font-size="6.5" lengthAdjust="spacing" textLength="3.5" x="160.5453" y="323.2603">1</text><text fill="#000000" font-family="sans-serif" font-size="6.5" lengthAdjust="spacing" textLength="3.5" x="160.1067" y="345.9179">1</text></g><!--link ProductRepository to Product--><g id="link_ProductRepository_Product"><path codeLine="104" d="M344.515,382.625 C365.635,389.77 387,397 387,397 C387,397 506,414.5 506,414.5 C506,414.5 523.1521,423.3984 546.6471,435.5884 " fill="none" id="ProductRepository-to-Product" style="stroke:#181818;stroke-width:0.5;"/><polygon fill="#181818" points="549.31,436.97,546.2367,433.1223,547.0909,435.8187,544.3945,436.6729,549.31,436.97" style="stroke:#181818;stroke-width:0.5;"/><text fill="#000000" font-family="sans-serif" font-size="6.5" lengthAdjust="spacing" textLength="30" x="477.5" y="408.5142">categories</text><text fill="#000000" font-family="sans-serif" font-size="6.5" lengthAdjust="spacing" textLength="3.5" x="348.4574" y="382.088">1</text><text fill="#000000" font-family="sans-serif" font-size="6.5" lengthAdjust="spacing" textLength="2.5" x="539.671" y="431.4151">*</text></g><!--link ProductionTreeRepository to ProductionElement--><g id="link_ProductionTreeRepository_ProductionElement"><path codeLine="105" d="M204.32,385.055 C242.97,401.295 300.4391,425.4383 347.7591,445.3133 " fill="none" id="ProductionTreeRepository-to-ProductionElement" style="stroke:#181818;stroke-width:0.5;"/><polygon fill="#181818" points="350.525,446.475,347.1506,442.8885,348.2201,445.5069,345.6016,446.5764,350.525,446.475" style="stroke:#181818;stroke-width:0.5;"/><text fill="#000000" font-family="sans-serif" font-size="6.5" lengthAdjust="spacing" textLength="30" x="264" y="408.5142">categories</text><text fill="#000000" font-family="sans-serif" font-size="6.5" lengthAdjust="spacing" textLength="3.5" x="207.4231" y="395.8494">1</text><text fill="#000000" font-family="sans-serif" font-size="6.5" lengthAdjust="spacing" textLength="2.5" x="340.5252" y="441.398">*</text></g><!--link Product to Part--><g id="link_Product_Part"><path codeLine="106" d="M613.48,517.125 C609.105,531.55 606.8469,539.0023 602.7619,552.4723 " fill="none" id="Product-to-Part" style="stroke:#181818;stroke-width:0.5;"/><polygon fill="none" points="600.15,561.085,605.6328,553.343,599.891,551.6017,600.15,561.085" style="stroke:#181818;stroke-width:0.5;"/></g><!--link ProductionElement to Part--><g id="link_ProductionElement_Part"><path codeLine="107" d="M466.625,507.535 C491.27,524.12 519.2964,542.9846 543.9314,559.5696 " fill="none" id="ProductionElement-to-Part" style="stroke:#181818;stroke-width:0.5;"/><polygon fill="#181818" points="546.42,561.245,543.804,557.0729,544.3462,559.8488,541.5702,560.391,546.42,561.245" style="stroke:#181818;stroke-width:0.5;"/><text fill="#000000" font-family="sans-serif" font-size="6.5" lengthAdjust="spacing" textLength="10.5" x="517" y="539.5142">has</text></g><!--link ProductionElement to Operation--><g id="link_ProductionElement_Operation"><path codeLine="108" d="M422,507.535 C422,522.545 422,537.785 422,553.405 " fill="none" id="ProductionElement-to-Operation" style="stroke:#181818;stroke-width:0.5;"/><polygon fill="#181818" points="422,556.405,424,551.905,422,553.905,420,551.905,422,556.405" style="stroke:#181818;stroke-width:0.5;"/><text fill="#000000" font-family="sans-serif" font-size="6.5" lengthAdjust="spacing" textLength="10.5" x="422.5" y="539.5142">has</text></g><!--link ProductionService to ProductException--><g id="link_ProductionService_ProductException"><path codeLine="109" d="M485.175,199.195 C486.88,215.965 489.2315,239.0504 491.0815,257.2404 " fill="none" id="ProductionService-to-ProductException" style="stroke:#181818;stroke-width:0.5;stroke-dasharray:7.0,7.0;"/><polygon fill="#181818" points="491.385,260.225,492.9194,255.5457,491.132,257.7378,488.9399,255.9505,491.385,260.225" style="stroke:#181818;stroke-width:0.5;"/><text fill="#000000" font-family="sans-serif" font-size="6.5" lengthAdjust="spacing" textLength="19" x="488" y="222.5142">throws</text></g><!--link ProductException to RuntimeException--><g id="link_ProductException_RuntimeException"><path codeLine="110" d="M493.5,302.76 C493.5,319.51 493.5,333.47 493.5,347.14 " fill="none" id="ProductException-to-RuntimeException" style="stroke:#181818;stroke-width:0.5;"/><polygon fill="none" points="493.5,356.14,496.5,347.14,490.5,347.14,493.5,356.14" style="stroke:#181818;stroke-width:0.5;"/></g><!--SRC=[hLRDJXin4BxlKrWv9ML1xJMga11GAL9R4847CDuXiN1ir_O2QSkxrzuuQtljX52nb-pEVFFDdpqJ_KYvn0glaCJa4IzWRjOCa09YC5ymg7GFq4lSY6VA5-W1Cnrh6ELWrXAG56pjFY8TOLZhCsCKlMyDp8ZWS_eRqEUgyWxHw6usGdygP9yEZCu5roqprqeqBJ5Ky5i5S3VpcDVgDRArMAC4Ow1I3cySr5xhdgC5RCdrU8Acw3lLvgkNd7edEPSDf4n75603QRXZkVcSNTJeWJAuncRfN3q9sXJIc8DweWIAENZTXoHGuFg0w6z02asDKEiqWLvEGKSkZsFvU9AaDUFQ7Zm2NLenhfHyyDl1Csd9PfjXPE150xjI1GDaq8qpnjxNYDHXpARnqvvkhB1qVkw5O81veHS_H0DiS8wmCd7vQMCPvlP6yaKGSho2WhW1JHILBfHSU-IOnxIfaREkKGIUx4m-ZeJOaxTm-VUzEFUI66DpeyPXA3T1hjqO6SY8O48Lif3A7VefQaHxRsTQY7_Zj9n2ZRRXkRTD43LoRkstSrIZZdUohy-N35R0awIbQyUqwqeG2WaA-ofVRT-3-bUBkTaKuQASG_0rTWvgr3FMQ6jTYBJtbHsGfB3TT8yYkxNVRvuTU07ITcYw6hRggAVgYk_ujor8p2Q58txvGg3hK75SzjhuKidaGfqnE_EQzUMBlQqwtAve9FGa6SLFORw9bZS7c2M5lcbj2rOG45QxQz6Td9pc2-mGTBAYgdm7Hb2_2VQ3miQe1il8WPBnFhN_6Q9fNO3dCtIAP3QoTni6U9Klj0FZ6LZidCUzgtmtx6LwCyPyCiIklAnACZa-pbAZVakcmD6NKGTsluSL-otp_obC1EuPFusY0lcfcdPbuAPWcPGivx3mlwURePeREAhhpTXTOhq3S1MDu1HLQ62OCbDabaeyz_YWwIBAxlq_]--></g></svg>