<?xml version="1.0" encoding="us-ascii" standalone="no"?><svg xmlns="http://www.w3.org/2000/svg" xmlns:xlink="http://www.w3.org/1999/xlink" contentStyleType="text/css" height="665px" preserveAspectRatio="none" style="width:670px;height:665px;background:#FFFFFF;" version="1.1" viewBox="0 0 670 665" width="670px" zoomAndPan="magnify"><defs/><g><text fill="#000000" font-family="sans-serif" font-size="14" font-weight="bold" lengthAdjust="spacing" textLength="228" x="223.25" y="30.1074">System Sequence Diagram (SSD)</text><rect fill="#FFFFFF" height="439.7539" style="stroke:#181818;stroke-width:1.0;" width="10" x="69.5" y="133.2422"/><rect fill="#FFFFFF" height="31.291" style="stroke:#181818;stroke-width:1.0;" width="10" x="449.5" y="156.5332"/><rect fill="#FFFFFF" height="31.291" style="stroke:#181818;stroke-width:1.0;" width="10" x="449.5" y="219.1152"/><rect fill="#FFFFFF" height="101.873" style="stroke:#181818;stroke-width:1.0;" width="10" x="449.5" y="281.6973"/><rect fill="none" height="224.0078" style="stroke:#000000;stroke-width:1.5;" width="558.5" x="10" y="340.9883"/><rect fill="none" height="98.5039" style="stroke:#000000;stroke-width:1.5;" width="476.5" x="20" y="459.4922"/><line style="stroke:#181818;stroke-width:0.5;stroke-dasharray:5.0,5.0;" x1="74" x2="74" y1="123.2422" y2="581.9961"/><line style="stroke:#181818;stroke-width:0.5;stroke-dasharray:5.0,5.0;" x1="454.5" x2="454.5" y1="123.2422" y2="581.9961"/><text fill="#000000" font-family="sans-serif" font-size="14" lengthAdjust="spacing" textLength="83" x="30" y="119.7285">Administrator</text><ellipse cx="74.5" cy="53.1211" fill="#E3E3E3" rx="8" ry="8" style="stroke:#181818;stroke-width:0.5;"/><path d="M74.5,61.1211 L74.5,88.1211 M61.5,69.1211 L87.5,69.1211 M74.5,88.1211 L61.5,103.1211 M74.5,88.1211 L87.5,103.1211 " fill="none" style="stroke:#181818;stroke-width:0.5;"/><text fill="#000000" font-family="sans-serif" font-size="14" lengthAdjust="spacing" textLength="83" x="30" y="596.1035">Administrator</text><ellipse cx="74.5" cy="608.1172" fill="#E3E3E3" rx="8" ry="8" style="stroke:#181818;stroke-width:0.5;"/><path d="M74.5,616.1172 L74.5,643.1172 M61.5,624.1172 L87.5,624.1172 M74.5,643.1172 L61.5,658.1172 M74.5,643.1172 L87.5,658.1172 " fill="none" style="stroke:#181818;stroke-width:0.5;"/><rect fill="#E3E3E3" height="32.6211" rx="2.5" ry="2.5" style="stroke:#181818;stroke-width:0.5;" width="64" x="422.5" y="89.6211"/><text fill="#000000" font-family="sans-serif" font-size="14" lengthAdjust="spacing" textLength="50" x="429.5" y="111.7285">:System</text><rect fill="#E3E3E3" height="32.6211" rx="2.5" ry="2.5" style="stroke:#181818;stroke-width:0.5;" width="64" x="422.5" y="580.9961"/><text fill="#000000" font-family="sans-serif" font-size="14" lengthAdjust="spacing" textLength="50" x="429.5" y="603.1035">:System</text><rect fill="#FFFFFF" height="439.7539" style="stroke:#181818;stroke-width:1.0;" width="10" x="69.5" y="133.2422"/><rect fill="#FFFFFF" height="31.291" style="stroke:#181818;stroke-width:1.0;" width="10" x="449.5" y="156.5332"/><rect fill="#FFFFFF" height="31.291" style="stroke:#181818;stroke-width:1.0;" width="10" x="449.5" y="219.1152"/><rect fill="#FFFFFF" height="101.873" style="stroke:#181818;stroke-width:1.0;" width="10" x="449.5" y="281.6973"/><polygon fill="#181818" points="437.5,152.5332,447.5,156.5332,437.5,160.5332,441.5,156.5332" style="stroke:#181818;stroke-width:1.0;"/><line style="stroke:#181818;stroke-width:1.0;" x1="79.5" x2="443.5" y1="156.5332" y2="156.5332"/><text fill="#000000" font-family="sans-serif" font-size="13" font-weight="bold" lengthAdjust="spacing" textLength="7" x="86.5" y="151.2705">1</text><text fill="#000000" font-family="sans-serif" font-size="13" lengthAdjust="spacing" textLength="142" x="97.5" y="151.2705">asks to delete a supplier</text><polygon fill="#181818" points="90.5,183.8242,80.5,187.8242,90.5,191.8242,86.5,187.8242" style="stroke:#181818;stroke-width:1.0;"/><line style="stroke:#181818;stroke-width:1.0;stroke-dasharray:2.0,2.0;" x1="84.5" x2="453.5" y1="187.8242" y2="187.8242"/><text fill="#000000" font-family="sans-serif" font-size="13" font-weight="bold" lengthAdjust="spacing" textLength="7" x="96.5" y="182.5615">2</text><text fill="#000000" font-family="sans-serif" font-size="13" lengthAdjust="spacing" textLength="303" x="107.5" y="182.5615">shows the list of suppliers and requests confirmation</text><polygon fill="#181818" points="437.5,215.1152,447.5,219.1152,437.5,223.1152,441.5,219.1152" style="stroke:#181818;stroke-width:1.0;"/><line style="stroke:#181818;stroke-width:1.0;" x1="79.5" x2="443.5" y1="219.1152" y2="219.1152"/><text fill="#000000" font-family="sans-serif" font-size="13" font-weight="bold" lengthAdjust="spacing" textLength="7" x="86.5" y="213.8525">3</text><text fill="#000000" font-family="sans-serif" font-size="13" lengthAdjust="spacing" textLength="245" x="97.5" y="213.8525">confirms that he wants to delete a supplier</text><polygon fill="#181818" points="90.5,246.4063,80.5,250.4063,90.5,254.4063,86.5,250.4063" style="stroke:#181818;stroke-width:1.0;"/><line style="stroke:#181818;stroke-width:1.0;stroke-dasharray:2.0,2.0;" x1="84.5" x2="453.5" y1="250.4063" y2="250.4063"/><text fill="#000000" font-family="sans-serif" font-size="13" font-weight="bold" lengthAdjust="spacing" textLength="7" x="96.5" y="245.1436">4</text><text fill="#000000" font-family="sans-serif" font-size="13" lengthAdjust="spacing" textLength="66" x="107.5" y="245.1436">requests ID</text><polygon fill="#181818" points="437.5,277.6973,447.5,281.6973,437.5,285.6973,441.5,281.6973" style="stroke:#181818;stroke-width:1.0;"/><line style="stroke:#181818;stroke-width:1.0;" x1="79.5" x2="443.5" y1="281.6973" y2="281.6973"/><text fill="#000000" font-family="sans-serif" font-size="13" font-weight="bold" lengthAdjust="spacing" textLength="7" x="86.5" y="276.4346">5</text><text fill="#000000" font-family="sans-serif" font-size="13" lengthAdjust="spacing" textLength="124" x="97.5" y="276.4346">provides requested ID</text><line style="stroke:#181818;stroke-width:1.0;" x1="459.5" x2="501.5" y1="312.9883" y2="312.9883"/><line style="stroke:#181818;stroke-width:1.0;" x1="501.5" x2="501.5" y1="312.9883" y2="325.9883"/><line style="stroke:#181818;stroke-width:1.0;" x1="460.5" x2="501.5" y1="325.9883" y2="325.9883"/><polygon fill="#181818" points="470.5,321.9883,460.5,325.9883,470.5,329.9883,466.5,325.9883" style="stroke:#181818;stroke-width:1.0;"/><text fill="#000000" font-family="sans-serif" font-size="13" font-weight="bold" lengthAdjust="spacing" textLength="7" x="466.5" y="307.7256">6</text><text fill="#000000" font-family="sans-serif" font-size="13" lengthAdjust="spacing" textLength="186" x="477.5" y="307.7256">checks if supplier already exists</text><path d="M10,340.9883 L71,340.9883 L71,350.2793 L61,360.2793 L10,360.2793 L10,340.9883 " fill="#EEEEEE" style="stroke:#000000;stroke-width:1.5;"/><rect fill="none" height="224.0078" style="stroke:#000000;stroke-width:1.5;" width="558.5" x="10" y="340.9883"/><text fill="#000000" font-family="sans-serif" font-size="13" font-weight="bold" lengthAdjust="spacing" textLength="16" x="25" y="356.0166">alt</text><text fill="#000000" font-family="sans-serif" font-size="11" font-weight="bold" lengthAdjust="spacing" textLength="136" x="86" y="354.8584">[supplier does not exist]</text><polygon fill="#181818" points="90.5,379.5703,80.5,383.5703,90.5,387.5703,86.5,383.5703" style="stroke:#181818;stroke-width:1.0;"/><line style="stroke:#181818;stroke-width:1.0;stroke-dasharray:2.0,2.0;" x1="84.5" x2="453.5" y1="383.5703" y2="383.5703"/><text fill="#000000" font-family="sans-serif" font-size="13" font-weight="bold" lengthAdjust="spacing" textLength="7" x="96.5" y="378.3076">7</text><text fill="#000000" font-family="sans-serif" font-size="13" lengthAdjust="spacing" textLength="269" x="107.5" y="378.3076">shows error message (Supplier does not exist)</text><line style="stroke:#000000;stroke-width:1.0;stroke-dasharray:2.0,2.0;" x1="10" x2="568.5" y1="392.5703" y2="392.5703"/><text fill="#000000" font-family="sans-serif" font-size="11" font-weight="bold" lengthAdjust="spacing" textLength="91" x="15" y="404.4404">[supplier exists]</text><line style="stroke:#181818;stroke-width:1.0;" x1="454.5" x2="496.5" y1="431.4922" y2="431.4922"/><line style="stroke:#181818;stroke-width:1.0;" x1="496.5" x2="496.5" y1="431.4922" y2="444.4922"/><line style="stroke:#181818;stroke-width:1.0;" x1="455.5" x2="496.5" y1="444.4922" y2="444.4922"/><polygon fill="#181818" points="465.5,440.4922,455.5,444.4922,465.5,448.4922,461.5,444.4922" style="stroke:#181818;stroke-width:1.0;"/><text fill="#000000" font-family="sans-serif" font-size="13" font-weight="bold" lengthAdjust="spacing" textLength="7" x="461.5" y="426.2295">8</text><text fill="#000000" font-family="sans-serif" font-size="13" lengthAdjust="spacing" textLength="84" x="472.5" y="426.2295">delete supplier</text><path d="M20,459.4922 L81,459.4922 L81,468.7832 L71,478.7832 L20,478.7832 L20,459.4922 " fill="#EEEEEE" style="stroke:#000000;stroke-width:1.5;"/><rect fill="none" height="98.5039" style="stroke:#000000;stroke-width:1.5;" width="476.5" x="20" y="459.4922"/><text fill="#000000" font-family="sans-serif" font-size="13" font-weight="bold" lengthAdjust="spacing" textLength="16" x="35" y="474.5205">alt</text><text fill="#000000" font-family="sans-serif" font-size="11" font-weight="bold" lengthAdjust="spacing" textLength="82" x="96" y="473.3623">[system error]</text><polygon fill="#181818" points="90.5,498.0742,80.5,502.0742,90.5,506.0742,86.5,502.0742" style="stroke:#181818;stroke-width:1.0;"/><line style="stroke:#181818;stroke-width:1.0;stroke-dasharray:2.0,2.0;" x1="84.5" x2="453.5" y1="502.0742" y2="502.0742"/><text fill="#000000" font-family="sans-serif" font-size="13" font-weight="bold" lengthAdjust="spacing" textLength="7" x="96.5" y="496.8115">9</text><text fill="#000000" font-family="sans-serif" font-size="13" lengthAdjust="spacing" textLength="221" x="107.5" y="496.8115">shows error message (Database error)</text><line style="stroke:#000000;stroke-width:1.0;stroke-dasharray:2.0,2.0;" x1="20" x2="496.5" y1="511.0742" y2="511.0742"/><text fill="#000000" font-family="sans-serif" font-size="11" font-weight="bold" lengthAdjust="spacing" textLength="55" x="25" y="522.9443">[success]</text><polygon fill="#181818" points="90.5,545.9961,80.5,549.9961,90.5,553.9961,86.5,549.9961" style="stroke:#181818;stroke-width:1.0;"/><line style="stroke:#181818;stroke-width:1.0;stroke-dasharray:2.0,2.0;" x1="84.5" x2="453.5" y1="549.9961" y2="549.9961"/><text fill="#000000" font-family="sans-serif" font-size="13" font-weight="bold" lengthAdjust="spacing" textLength="14" x="96.5" y="544.7334">10</text><text fill="#000000" font-family="sans-serif" font-size="13" lengthAdjust="spacing" textLength="333" x="114.5" y="544.7334">shows all data of supplier and displays operation success</text><!--SRC=[hLExRiCm3Dpz5KIcPiWFP2WGm4k7Jlu2Lc9Y8RBaYdJI_7rfnwyq3oH0DUbnFDwH5EzTg35X1LKCqPGfLWII6ifuVAdHx757XPmyGI8Z67P-3k0IRJowi8CjUgOi4oSABKuiL451tmq5Gv0xtBNmjwB8brc6ZSJGL5-KT6ya9bXiREM2OqcenmKWmoR_p3I9EEDg30ABzPcrUpnlksXtGA4EdO4ktS3gVL2mLl2UGI9OygGu16xgsZjDtQB7-84G-jN7hvIgPLohqtXKefB0gqo8sv680OFLwgXN5WOJmzQb2iN5qD5Pkfdbhz0-his10fhdgAx_HVeexID_HL2Tui5PuY6Ux41mD_Ky_TnQIKQxuAQQ0Vf4Q4z0FrfDlY10BnFEHXKGefo15xW7RQAKTAWgOjRfrQcxpRQyehkkpFoLTC8dPJUKtx7Vz- -YUrU6p-1E-1NWUQSv2dwXokpkbpUP7fkS6JL6QLyHWzw3LGNptz5z3kkuzdXYY3MbxcSyf7z2OR3JrEdX5m00]--></g></svg>