<?xml version="1.0" encoding="us-ascii" standalone="no"?><svg xmlns="http://www.w3.org/2000/svg" xmlns:xlink="http://www.w3.org/1999/xlink" contentStyleType="text/css" height="786.6px" preserveAspectRatio="none" style="width:911px;height:786px;background:#FFFFFF;" version="1.1" viewBox="0 0 911 786" width="911.4px" zoomAndPan="magnify"><defs/><g><!--cluster UI--><g id="cluster_UI"><rect fill="none" height="60.6" rx="1.5" ry="1.5" style="stroke:#000000;stroke-width:0.8999999999999999;" width="156" x="297.6" y="4.2"/><text fill="#000000" font-family="sans-serif" font-size="8.4" font-weight="bold" lengthAdjust="spacing" textLength="8.4" x="371.4" y="14.4645">UI</text></g><!--cluster Controller--><g id="cluster_Controller"><rect fill="none" height="72" rx="1.5" ry="1.5" style="stroke:#000000;stroke-width:0.8999999999999999;" width="303.6" x="223.8" y="84.6"/><text fill="#000000" font-family="sans-serif" font-size="8.4" font-weight="bold" lengthAdjust="spacing" textLength="42.6" x="354.3" y="94.8645">Controller</text></g><!--cluster Service--><g id="cluster_Service"><rect fill="none" height="82.8" rx="1.5" ry="1.5" style="stroke:#000000;stroke-width:0.8999999999999999;" width="303.6" x="223.8" y="176.4"/><text fill="#000000" font-family="sans-serif" font-size="8.4" font-weight="bold" lengthAdjust="spacing" textLength="32.4" x="359.4" y="186.6645">Service</text></g><!--cluster Repository--><g id="cluster_Repository"><rect fill="none" height="234.6" rx="1.5" ry="1.5" style="stroke:#000000;stroke-width:0.8999999999999999;" width="277.8" x="4.2" y="289.8"/><text fill="#000000" font-family="sans-serif" font-size="8.4" font-weight="bold" lengthAdjust="spacing" textLength="45.6" x="120.3" y="300.0645">Repository</text></g><!--cluster Model--><g id="cluster_Model"><rect fill="none" height="369.6" rx="1.5" ry="1.5" style="stroke:#000000;stroke-width:0.8999999999999999;" width="214.8" x="660.6" y="413.4"/><text fill="#000000" font-family="sans-serif" font-size="8.4" font-weight="bold" lengthAdjust="spacing" textLength="26.4" x="754.8" y="423.6645">Model</text></g><!--cluster Exception--><g id="cluster_Exception"><rect fill="none" height="217.8" rx="1.5" ry="1.5" style="stroke:#000000;stroke-width:0.8999999999999999;" width="242.4" x="403.8" y="300.9"/><text fill="#000000" font-family="sans-serif" font-size="8.4" font-weight="bold" lengthAdjust="spacing" textLength="42" x="504" y="311.1645">Exception</text></g><!--class ConsultSuppliersRawMaterialUI--><g id="elem_ConsultSuppliersRawMaterialUI"><rect codeLine="7" fill="#F1F1F1" height="28.8" id="ConsultSuppliersRawMaterialUI" rx="1.5" ry="1.5" style="stroke:#181818;stroke-width:0.3;" width="136.8" x="307.2" y="26.4"/><ellipse cx="316.2" cy="36" fill="#ADD1B2" rx="6.6" ry="6.6" style="stroke:#181818;stroke-width:0.6;"/><path d="M317.8594,33.525 Q317.9531,33.3938 318.0656,33.3281 Q318.1781,33.2625 318.3094,33.2625 Q318.5344,33.2625 318.675,33.4219 Q318.8156,33.5719 318.8156,33.9375 L318.8156,34.8094 Q318.8156,35.175 318.675,35.3344 Q318.5344,35.4938 318.3094,35.4938 Q318.1031,35.4938 317.9813,35.3719 Q317.8594,35.2594 317.7938,34.95 Q317.7656,34.7344 317.6531,34.6219 Q317.4563,34.3969 317.0906,34.2656 Q316.725,34.1344 316.35,34.1344 Q315.8906,34.1344 315.5062,34.3313 Q315.1312,34.5281 314.8313,34.9781 Q314.5406,35.4281 314.5406,36.0469 L314.5406,36.7031 Q314.5406,37.4438 315.075,37.9406 Q315.6094,38.4281 316.5656,38.4281 Q317.1281,38.4281 317.5219,38.2781 Q317.7562,38.1844 318.0094,37.9219 Q318.1688,37.7625 318.2531,37.7156 Q318.3469,37.6687 318.4688,37.6687 Q318.6656,37.6687 318.8156,37.8281 Q318.975,37.9781 318.975,38.1844 Q318.975,38.3906 318.7688,38.6344 Q318.4688,38.9812 317.9906,39.1781 Q317.3438,39.45 316.5656,39.45 Q315.6563,39.45 314.9344,39.075 Q314.3438,38.775 313.9313,38.1375 Q313.5188,37.4906 313.5188,36.7219 L313.5188,36.0281 Q313.5188,35.2312 313.8844,34.5469 Q314.2594,33.8531 314.9156,33.4875 Q315.5719,33.1125 316.3125,33.1125 Q316.7531,33.1125 317.1375,33.2156 Q317.5313,33.3094 317.8594,33.525 Z " fill="#000000"/><text fill="#000000" font-family="sans-serif" font-size="8.4" lengthAdjust="spacing" textLength="117.6" x="324.6" y="39.4781">ConsultSuppliersRawMaterialUI</text><line style="stroke:#181818;stroke-width:0.3;" x1="307.8" x2="443.4" y1="45.6" y2="45.6"/><line style="stroke:#181818;stroke-width:0.3;" x1="307.8" x2="443.4" y1="50.4" y2="50.4"/></g><!--class RawMaterialController--><g id="elem_RawMaterialController"><rect codeLine="12" fill="#F1F1F1" height="39.9727" id="RawMaterialController" rx="1.5" ry="1.5" style="stroke:#181818;stroke-width:0.3;" width="284.4" x="233.4" y="106.8"/><ellipse cx="331.35" cy="116.4" fill="#ADD1B2" rx="6.6" ry="6.6" style="stroke:#181818;stroke-width:0.6;"/><path d="M333.0094,113.925 Q333.1031,113.7938 333.2156,113.7281 Q333.3281,113.6625 333.4594,113.6625 Q333.6844,113.6625 333.825,113.8219 Q333.9656,113.9719 333.9656,114.3375 L333.9656,115.2094 Q333.9656,115.575 333.825,115.7344 Q333.6844,115.8938 333.4594,115.8938 Q333.2531,115.8938 333.1312,115.7719 Q333.0094,115.6594 332.9437,115.35 Q332.9156,115.1344 332.8031,115.0219 Q332.6063,114.7969 332.2406,114.6656 Q331.875,114.5344 331.5,114.5344 Q331.0406,114.5344 330.6563,114.7313 Q330.2813,114.9281 329.9813,115.3781 Q329.6906,115.8281 329.6906,116.4469 L329.6906,117.1031 Q329.6906,117.8438 330.225,118.3406 Q330.7594,118.8281 331.7156,118.8281 Q332.2781,118.8281 332.6719,118.6781 Q332.9063,118.5844 333.1594,118.3219 Q333.3187,118.1625 333.4031,118.1156 Q333.4969,118.0688 333.6188,118.0688 Q333.8156,118.0688 333.9656,118.2281 Q334.125,118.3781 334.125,118.5844 Q334.125,118.7906 333.9188,119.0344 Q333.6188,119.3813 333.1406,119.5781 Q332.4938,119.85 331.7156,119.85 Q330.8063,119.85 330.0844,119.475 Q329.4938,119.175 329.0813,118.5375 Q328.6688,117.8906 328.6688,117.1219 L328.6688,116.4281 Q328.6688,115.6313 329.0344,114.9469 Q329.4094,114.2531 330.0656,113.8875 Q330.7219,113.5125 331.4625,113.5125 Q331.9031,113.5125 332.2875,113.6156 Q332.6813,113.7094 333.0094,113.925 Z " fill="#000000"/><text fill="#000000" font-family="sans-serif" font-size="8.4" lengthAdjust="spacing" textLength="83.4" x="343.65" y="119.8781">RawMaterialController</text><line style="stroke:#181818;stroke-width:0.3;" x1="234" x2="517.2" y1="126" y2="126"/><line style="stroke:#181818;stroke-width:0.3;" x1="234" x2="517.2" y1="130.8" y2="130.8"/><text fill="#000000" font-family="sans-serif" font-size="8.4" lengthAdjust="spacing" textLength="277.2" x="237" y="142.2645">+getSuppliersByCost(rawMaterialID) : List&lt;Map.Entry&lt;Supplier, Double&gt;&gt;</text></g><!--class RawMaterialService--><g id="elem_RawMaterialService"><rect codeLine="18" fill="#F1F1F1" height="51.1453" id="RawMaterialService" rx="1.5" ry="1.5" style="stroke:#181818;stroke-width:0.3;" width="284.4" x="233.4" y="198.6"/><ellipse cx="335.85" cy="208.2" fill="#ADD1B2" rx="6.6" ry="6.6" style="stroke:#181818;stroke-width:0.6;"/><path d="M337.5094,205.725 Q337.6031,205.5938 337.7156,205.5281 Q337.8281,205.4625 337.9594,205.4625 Q338.1844,205.4625 338.325,205.6219 Q338.4656,205.7719 338.4656,206.1375 L338.4656,207.0094 Q338.4656,207.375 338.325,207.5344 Q338.1844,207.6938 337.9594,207.6938 Q337.7531,207.6938 337.6312,207.5719 Q337.5094,207.4594 337.4437,207.15 Q337.4156,206.9344 337.3031,206.8219 Q337.1063,206.5969 336.7406,206.4656 Q336.375,206.3344 336,206.3344 Q335.5406,206.3344 335.1563,206.5313 Q334.7813,206.7281 334.4813,207.1781 Q334.1906,207.6281 334.1906,208.2469 L334.1906,208.9031 Q334.1906,209.6437 334.725,210.1406 Q335.2594,210.6281 336.2156,210.6281 Q336.7781,210.6281 337.1719,210.4781 Q337.4063,210.3844 337.6594,210.1219 Q337.8187,209.9625 337.9031,209.9156 Q337.9969,209.8688 338.1188,209.8688 Q338.3156,209.8688 338.4656,210.0281 Q338.625,210.1781 338.625,210.3844 Q338.625,210.5906 338.4188,210.8344 Q338.1188,211.1813 337.6406,211.3781 Q336.9938,211.65 336.2156,211.65 Q335.3063,211.65 334.5844,211.275 Q333.9938,210.975 333.5813,210.3375 Q333.1688,209.6906 333.1688,208.9219 L333.1688,208.2281 Q333.1688,207.4313 333.5344,206.7469 Q333.9094,206.0531 334.5656,205.6875 Q335.2219,205.3125 335.9625,205.3125 Q336.4031,205.3125 336.7875,205.4156 Q337.1813,205.5094 337.5094,205.725 Z " fill="#000000"/><text fill="#000000" font-family="sans-serif" font-size="8.4" lengthAdjust="spacing" textLength="74.4" x="348.15" y="211.6781">RawMaterialService</text><line style="stroke:#181818;stroke-width:0.3;" x1="234" x2="517.2" y1="217.8" y2="217.8"/><line style="stroke:#181818;stroke-width:0.3;" x1="234" x2="517.2" y1="222.6" y2="222.6"/><text fill="#000000" font-family="sans-serif" font-size="8.4" lengthAdjust="spacing" textLength="189" x="237" y="234.0645">-getRawMaterialByID(rawMaterialID) : RawMaterial</text><text fill="#000000" font-family="sans-serif" font-size="8.4" lengthAdjust="spacing" textLength="277.2" x="237" y="245.2371">+getSuppliersByCost(rawMaterialID) : List&lt;Map.Entry&lt;Supplier, Double&gt;&gt;</text></g><!--class Repositories--><g id="elem_Repositories"><rect codeLine="25" fill="#F1F1F1" height="62.318" id="Repositories" rx="1.5" ry="1.5" style="stroke:#181818;stroke-width:0.3;" width="211.2" x="13.8" y="312"/><ellipse cx="93.15" cy="321.6" fill="#ADD1B2" rx="6.6" ry="6.6" style="stroke:#181818;stroke-width:0.6;"/><path d="M94.8094,319.125 Q94.9031,318.9938 95.0156,318.9281 Q95.1281,318.8625 95.2594,318.8625 Q95.4844,318.8625 95.625,319.0219 Q95.7656,319.1719 95.7656,319.5375 L95.7656,320.4094 Q95.7656,320.775 95.625,320.9344 Q95.4844,321.0938 95.2594,321.0938 Q95.0531,321.0938 94.9312,320.9719 Q94.8094,320.8594 94.7437,320.55 Q94.7156,320.3344 94.6031,320.2219 Q94.4063,319.9969 94.0406,319.8656 Q93.675,319.7344 93.3,319.7344 Q92.8406,319.7344 92.4563,319.9313 Q92.0813,320.1281 91.7813,320.5781 Q91.4906,321.0281 91.4906,321.6469 L91.4906,322.3031 Q91.4906,323.0438 92.025,323.5406 Q92.5594,324.0281 93.5156,324.0281 Q94.0781,324.0281 94.4719,323.8781 Q94.7063,323.7844 94.9594,323.5219 Q95.1187,323.3625 95.2031,323.3156 Q95.2969,323.2688 95.4188,323.2688 Q95.6156,323.2688 95.7656,323.4281 Q95.925,323.5781 95.925,323.7844 Q95.925,323.9906 95.7188,324.2344 Q95.4188,324.5813 94.9406,324.7781 Q94.2938,325.05 93.5156,325.05 Q92.6063,325.05 91.8844,324.675 Q91.2938,324.375 90.8813,323.7375 Q90.4688,323.0906 90.4688,322.3219 L90.4688,321.6281 Q90.4688,320.8313 90.8344,320.1469 Q91.2094,319.4531 91.8656,319.0875 Q92.5219,318.7125 93.2625,318.7125 Q93.7031,318.7125 94.0875,318.8156 Q94.4813,318.9094 94.8094,319.125 Z " fill="#000000"/><text fill="#000000" font-family="sans-serif" font-size="8.4" lengthAdjust="spacing" textLength="47.4" x="105.45" y="325.0781">Repositories</text><line style="stroke:#181818;stroke-width:0.3;" x1="14.4" x2="224.4" y1="331.2" y2="331.2"/><line style="stroke:#181818;stroke-width:0.3;" x1="14.4" x2="224.4" y1="336" y2="336"/><text fill="#000000" font-family="sans-serif" font-size="8.4" lengthAdjust="spacing" textLength="56.4" x="17.4" y="347.4645">-Repositories()</text><text fill="#000000" font-family="sans-serif" font-size="8.4" lengthAdjust="spacing" textLength="109.2" x="17.4" y="358.6371">+getInstance() : Repositories</text><text fill="#000000" font-family="sans-serif" font-size="8.4" lengthAdjust="spacing" textLength="204" x="17.4" y="369.8098">+getRawMaterialRepository() : RawMaterialRepository</text></g><!--class RawMaterialRepository--><g id="elem_RawMaterialRepository"><rect codeLine="31" fill="#F1F1F1" height="39.9727" id="RawMaterialRepository" rx="1.5" ry="1.5" style="stroke:#181818;stroke-width:0.3;" width="198" x="74.4" y="474.6"/><ellipse cx="127.35" cy="484.2" fill="#ADD1B2" rx="6.6" ry="6.6" style="stroke:#181818;stroke-width:0.6;"/><path d="M129.0094,481.725 Q129.1031,481.5938 129.2156,481.5281 Q129.3281,481.4625 129.4594,481.4625 Q129.6844,481.4625 129.825,481.6219 Q129.9656,481.7719 129.9656,482.1375 L129.9656,483.0094 Q129.9656,483.375 129.825,483.5344 Q129.6844,483.6937 129.4594,483.6937 Q129.2531,483.6937 129.1313,483.5719 Q129.0094,483.4594 128.9438,483.15 Q128.9156,482.9344 128.8031,482.8219 Q128.6063,482.5969 128.2406,482.4656 Q127.875,482.3344 127.5,482.3344 Q127.0406,482.3344 126.6563,482.5313 Q126.2813,482.7281 125.9812,483.1781 Q125.6906,483.6281 125.6906,484.2469 L125.6906,484.9031 Q125.6906,485.6437 126.225,486.1406 Q126.7594,486.6281 127.7156,486.6281 Q128.2781,486.6281 128.6719,486.4781 Q128.9063,486.3844 129.1594,486.1219 Q129.3188,485.9625 129.4031,485.9156 Q129.4969,485.8688 129.6188,485.8688 Q129.8156,485.8688 129.9656,486.0281 Q130.125,486.1781 130.125,486.3844 Q130.125,486.5906 129.9188,486.8344 Q129.6188,487.1813 129.1406,487.3781 Q128.4938,487.65 127.7156,487.65 Q126.8062,487.65 126.0844,487.275 Q125.4937,486.975 125.0813,486.3375 Q124.6687,485.6906 124.6687,484.9219 L124.6687,484.2281 Q124.6687,483.4313 125.0344,482.7469 Q125.4094,482.0531 126.0656,481.6875 Q126.7219,481.3125 127.4625,481.3125 Q127.9031,481.3125 128.2875,481.4156 Q128.6813,481.5094 129.0094,481.725 Z " fill="#000000"/><text fill="#000000" font-family="sans-serif" font-size="8.4" lengthAdjust="spacing" textLength="87" x="139.65" y="487.6781">RawMaterialRepository</text><line style="stroke:#181818;stroke-width:0.3;" x1="75" x2="271.8" y1="493.8" y2="493.8"/><line style="stroke:#181818;stroke-width:0.3;" x1="75" x2="271.8" y1="498.6" y2="498.6"/><text fill="#000000" font-family="sans-serif" font-size="8.4" lengthAdjust="spacing" textLength="190.8" x="78" y="510.0645">+getRawMaterialByID(rawMaterialID) : RawMaterial</text></g><!--class Supplier--><g id="elem_Supplier"><rect codeLine="37" fill="#F1F1F1" height="118.1812" id="Supplier" rx="1.5" ry="1.5" style="stroke:#181818;stroke-width:0.3;" width="195.6" x="670.2" y="435.6"/><ellipse cx="749.85" cy="445.2" fill="#ADD1B2" rx="6.6" ry="6.6" style="stroke:#181818;stroke-width:0.6;"/><path d="M751.5094,442.725 Q751.6031,442.5938 751.7156,442.5281 Q751.8281,442.4625 751.9594,442.4625 Q752.1844,442.4625 752.325,442.6219 Q752.4656,442.7719 752.4656,443.1375 L752.4656,444.0094 Q752.4656,444.375 752.325,444.5344 Q752.1844,444.6937 751.9594,444.6937 Q751.7531,444.6937 751.6313,444.5719 Q751.5094,444.4594 751.4438,444.15 Q751.4156,443.9344 751.3031,443.8219 Q751.1062,443.5969 750.7406,443.4656 Q750.375,443.3344 750,443.3344 Q749.5406,443.3344 749.1563,443.5313 Q748.7813,443.7281 748.4812,444.1781 Q748.1906,444.6281 748.1906,445.2469 L748.1906,445.9031 Q748.1906,446.6438 748.725,447.1406 Q749.2594,447.6281 750.2156,447.6281 Q750.7781,447.6281 751.1719,447.4781 Q751.4063,447.3844 751.6594,447.1219 Q751.8188,446.9625 751.9031,446.9156 Q751.9969,446.8688 752.1188,446.8688 Q752.3156,446.8688 752.4656,447.0281 Q752.625,447.1781 752.625,447.3844 Q752.625,447.5906 752.4187,447.8344 Q752.1188,448.1813 751.6406,448.3781 Q750.9938,448.65 750.2156,448.65 Q749.3063,448.65 748.5844,448.275 Q747.9938,447.975 747.5813,447.3375 Q747.1687,446.6906 747.1687,445.9219 L747.1687,445.2281 Q747.1687,444.4313 747.5344,443.7469 Q747.9094,443.0531 748.5656,442.6875 Q749.2219,442.3125 749.9625,442.3125 Q750.4031,442.3125 750.7875,442.4156 Q751.1813,442.5094 751.5094,442.725 Z " fill="#000000"/><text fill="#000000" font-family="sans-serif" font-size="8.4" lengthAdjust="spacing" textLength="31.2" x="762.15" y="448.6781">Supplier</text><line style="stroke:#181818;stroke-width:0.3;" x1="670.8" x2="865.2" y1="454.8" y2="454.8"/><text fill="#000000" font-family="sans-serif" font-size="8.4" lengthAdjust="spacing" textLength="57" x="673.8" y="466.2645">-supplierID : int</text><text fill="#000000" font-family="sans-serif" font-size="8.4" lengthAdjust="spacing" textLength="53.4" x="673.8" y="477.4371">-name : String</text><text fill="#000000" font-family="sans-serif" font-size="8.4" lengthAdjust="spacing" textLength="72.6" x="673.8" y="488.6098">-phoneNumber : int</text><text fill="#000000" font-family="sans-serif" font-size="8.4" lengthAdjust="spacing" textLength="52.2" x="673.8" y="499.7824">-email : String</text><text fill="#000000" font-family="sans-serif" font-size="8.4" lengthAdjust="spacing" textLength="81.6" x="673.8" y="510.9551">-type : CompanyType</text><text fill="#000000" font-family="sans-serif" font-size="8.4" lengthAdjust="spacing" textLength="69.6" x="673.8" y="522.1277">-state : EntityState</text><text fill="#000000" font-family="sans-serif" font-size="8.4" lengthAdjust="spacing" textLength="126" x="673.8" y="533.3004">-supplyOffers : List&lt;SupplyOffer&gt;</text><line style="stroke:#181818;stroke-width:0.3;" x1="670.8" x2="865.2" y1="537.8086" y2="537.8086"/><text fill="#000000" font-family="sans-serif" font-size="8.4" lengthAdjust="spacing" textLength="188.4" x="673.8" y="549.273">+Supplier(supplierID, name, phoneNumber, email)</text></g><!--class Part--><g id="elem_Part"><rect codeLine="48" fill="#F1F1F1" height="73.4906" id="Part" rx="1.5" ry="1.5" style="stroke:#181818;stroke-width:0.3;" width="112.2" x="711.9" y="700.2"/><ellipse cx="757.65" cy="709.8" fill="#ADD1B2" rx="6.6" ry="6.6" style="stroke:#181818;stroke-width:0.6;"/><path d="M759.3094,707.325 Q759.4031,707.1938 759.5156,707.1281 Q759.6281,707.0625 759.7594,707.0625 Q759.9844,707.0625 760.125,707.2219 Q760.2656,707.3719 760.2656,707.7375 L760.2656,708.6094 Q760.2656,708.975 760.125,709.1344 Q759.9844,709.2937 759.7594,709.2937 Q759.5531,709.2937 759.4313,709.1719 Q759.3094,709.0594 759.2438,708.75 Q759.2156,708.5344 759.1031,708.4219 Q758.9063,708.1969 758.5406,708.0656 Q758.175,707.9344 757.8,707.9344 Q757.3406,707.9344 756.9563,708.1313 Q756.5813,708.3281 756.2813,708.7781 Q755.9906,709.2281 755.9906,709.8469 L755.9906,710.5031 Q755.9906,711.2438 756.525,711.7406 Q757.0594,712.2281 758.0156,712.2281 Q758.5781,712.2281 758.9719,712.0781 Q759.2063,711.9844 759.4594,711.7219 Q759.6188,711.5625 759.7031,711.5156 Q759.7969,711.4688 759.9187,711.4688 Q760.1156,711.4688 760.2656,711.6281 Q760.425,711.7781 760.425,711.9844 Q760.425,712.1906 760.2188,712.4344 Q759.9187,712.7813 759.4406,712.9781 Q758.7937,713.25 758.0156,713.25 Q757.1062,713.25 756.3844,712.875 Q755.7937,712.575 755.3813,711.9375 Q754.9688,711.2906 754.9688,710.5219 L754.9688,709.8281 Q754.9688,709.0313 755.3344,708.3469 Q755.7094,707.6531 756.3656,707.2875 Q757.0219,706.9125 757.7625,706.9125 Q758.2031,706.9125 758.5875,707.0156 Q758.9812,707.1094 759.3094,707.325 Z " fill="#000000"/><text fill="#000000" font-family="sans-serif" font-size="8.4" lengthAdjust="spacing" textLength="15.6" x="769.95" y="713.2781">Part</text><line style="stroke:#181818;stroke-width:0.3;" x1="712.5" x2="823.5" y1="719.4" y2="719.4"/><text fill="#000000" font-family="sans-serif" font-size="8.4" lengthAdjust="spacing" textLength="39" x="715.5" y="730.8645">-id : String</text><text fill="#000000" font-family="sans-serif" font-size="8.4" lengthAdjust="spacing" textLength="53.4" x="715.5" y="742.0371">-name : String</text><text fill="#000000" font-family="sans-serif" font-size="8.4" lengthAdjust="spacing" textLength="73.8" x="715.5" y="753.2098">-description : String</text><line style="stroke:#181818;stroke-width:0.3;" x1="712.5" x2="823.5" y1="757.718" y2="757.718"/><text fill="#000000" font-family="sans-serif" font-size="8.4" lengthAdjust="spacing" textLength="105" x="715.5" y="769.1824">+Part(id, name, description)</text></g><!--class RawMaterial--><g id="elem_RawMaterial"><rect codeLine="55" fill="#F1F1F1" height="62.318" id="RawMaterial" rx="1.5" ry="1.5" style="stroke:#181818;stroke-width:0.3;" width="142.8" x="696.6" y="601.2"/><ellipse cx="742.35" cy="610.8" fill="#ADD1B2" rx="6.6" ry="6.6" style="stroke:#181818;stroke-width:0.6;"/><path d="M744.0094,608.325 Q744.1031,608.1938 744.2156,608.1281 Q744.3281,608.0625 744.4594,608.0625 Q744.6844,608.0625 744.825,608.2219 Q744.9656,608.3719 744.9656,608.7375 L744.9656,609.6094 Q744.9656,609.975 744.825,610.1344 Q744.6844,610.2937 744.4594,610.2937 Q744.2531,610.2937 744.1313,610.1719 Q744.0094,610.0594 743.9438,609.75 Q743.9156,609.5344 743.8031,609.4219 Q743.6062,609.1969 743.2406,609.0656 Q742.875,608.9344 742.5,608.9344 Q742.0406,608.9344 741.6563,609.1313 Q741.2813,609.3281 740.9812,609.7781 Q740.6906,610.2281 740.6906,610.8469 L740.6906,611.5031 Q740.6906,612.2438 741.225,612.7406 Q741.7594,613.2281 742.7156,613.2281 Q743.2781,613.2281 743.6719,613.0781 Q743.9063,612.9844 744.1594,612.7219 Q744.3188,612.5625 744.4031,612.5156 Q744.4969,612.4688 744.6188,612.4688 Q744.8156,612.4688 744.9656,612.6281 Q745.125,612.7781 745.125,612.9844 Q745.125,613.1906 744.9187,613.4344 Q744.6188,613.7813 744.1406,613.9781 Q743.4938,614.25 742.7156,614.25 Q741.8063,614.25 741.0844,613.875 Q740.4938,613.575 740.0813,612.9375 Q739.6687,612.2906 739.6687,611.5219 L739.6687,610.8281 Q739.6687,610.0313 740.0344,609.3469 Q740.4094,608.6531 741.0656,608.2875 Q741.7219,607.9125 742.4625,607.9125 Q742.9031,607.9125 743.2875,608.0156 Q743.6813,608.1094 744.0094,608.325 Z " fill="#000000"/><text fill="#000000" font-family="sans-serif" font-size="8.4" lengthAdjust="spacing" textLength="46.2" x="754.65" y="614.2781">RawMaterial</text><line style="stroke:#181818;stroke-width:0.3;" x1="697.2" x2="838.8" y1="620.4" y2="620.4"/><text fill="#000000" font-family="sans-serif" font-size="8.4" lengthAdjust="spacing" textLength="67.2" x="700.2" y="631.8645">-currentStock : int</text><text fill="#000000" font-family="sans-serif" font-size="8.4" lengthAdjust="spacing" textLength="73.2" x="700.2" y="643.0371">-minimumStock : int</text><line style="stroke:#181818;stroke-width:0.3;" x1="697.2" x2="838.8" y1="647.5453" y2="647.5453"/><text fill="#000000" font-family="sans-serif" font-size="8.4" lengthAdjust="spacing" textLength="135.6" x="700.2" y="659.0098">+RawMaterial(id, name, description)</text></g><!--class ProductException--><g id="elem_ProductException"><rect codeLine="63" fill="#F1F1F1" height="39.9727" id="ProductException" rx="1.5" ry="1.5" style="stroke:#181818;stroke-width:0.3;" width="222.6" x="413.7" y="323.1"/><ellipse cx="489.45" cy="332.7" fill="#ADD1B2" rx="6.6" ry="6.6" style="stroke:#181818;stroke-width:0.6;"/><path d="M491.1094,330.225 Q491.2031,330.0938 491.3156,330.0281 Q491.4281,329.9625 491.5594,329.9625 Q491.7844,329.9625 491.925,330.1219 Q492.0656,330.2719 492.0656,330.6375 L492.0656,331.5094 Q492.0656,331.875 491.925,332.0344 Q491.7844,332.1937 491.5594,332.1937 Q491.3531,332.1937 491.2313,332.0719 Q491.1094,331.9594 491.0438,331.65 Q491.0156,331.4344 490.9031,331.3219 Q490.7062,331.0969 490.3406,330.9656 Q489.975,330.8344 489.6,330.8344 Q489.1406,330.8344 488.7562,331.0313 Q488.3812,331.2281 488.0812,331.6781 Q487.7906,332.1281 487.7906,332.7469 L487.7906,333.4031 Q487.7906,334.1438 488.325,334.6406 Q488.8594,335.1281 489.8156,335.1281 Q490.3781,335.1281 490.7719,334.9781 Q491.0062,334.8844 491.2594,334.6219 Q491.4188,334.4625 491.5031,334.4156 Q491.5969,334.3688 491.7188,334.3688 Q491.9156,334.3688 492.0656,334.5281 Q492.225,334.6781 492.225,334.8844 Q492.225,335.0906 492.0187,335.3344 Q491.7188,335.6813 491.2406,335.8781 Q490.5938,336.15 489.8156,336.15 Q488.9063,336.15 488.1844,335.775 Q487.5938,335.475 487.1813,334.8375 Q486.7687,334.1906 486.7687,333.4219 L486.7687,332.7281 Q486.7687,331.9313 487.1344,331.2469 Q487.5094,330.5531 488.1656,330.1875 Q488.8219,329.8125 489.5625,329.8125 Q490.0031,329.8125 490.3875,329.9156 Q490.7813,330.0094 491.1094,330.225 Z " fill="#000000"/><text fill="#000000" font-family="sans-serif" font-size="8.4" lengthAdjust="spacing" textLength="66" x="501.75" y="336.1781">ProductException</text><line style="stroke:#181818;stroke-width:0.3;" x1="414.3" x2="635.7" y1="342.3" y2="342.3"/><line style="stroke:#181818;stroke-width:0.3;" x1="414.3" x2="635.7" y1="347.1" y2="347.1"/><text fill="#000000" font-family="sans-serif" font-size="8.4" lengthAdjust="spacing" textLength="215.4" x="417.3" y="358.5645">+rawMaterialNotFound(rawMaterialID) : ProductException</text></g><!--class RuntimeException--><g id="elem_RuntimeException"><rect codeLine="67" fill="#F1F1F1" height="28.8" id="RuntimeException" rx="1.5" ry="1.5" style="stroke:#181818;stroke-width:0.3;" width="87" x="481.5" y="480.3"/><ellipse cx="490.5" cy="489.9" fill="#ADD1B2" rx="6.6" ry="6.6" style="stroke:#181818;stroke-width:0.6;"/><path d="M492.1594,487.425 Q492.2531,487.2938 492.3656,487.2281 Q492.4781,487.1625 492.6094,487.1625 Q492.8344,487.1625 492.975,487.3219 Q493.1156,487.4719 493.1156,487.8375 L493.1156,488.7094 Q493.1156,489.075 492.975,489.2344 Q492.8344,489.3937 492.6094,489.3937 Q492.4031,489.3937 492.2813,489.2719 Q492.1594,489.1594 492.0938,488.85 Q492.0656,488.6344 491.9531,488.5219 Q491.7562,488.2969 491.3906,488.1656 Q491.025,488.0344 490.65,488.0344 Q490.1906,488.0344 489.8063,488.2313 Q489.4313,488.4281 489.1312,488.8781 Q488.8406,489.3281 488.8406,489.9469 L488.8406,490.6031 Q488.8406,491.3438 489.375,491.8406 Q489.9094,492.3281 490.8656,492.3281 Q491.4281,492.3281 491.8219,492.1781 Q492.0563,492.0844 492.3094,491.8219 Q492.4688,491.6625 492.5531,491.6156 Q492.6469,491.5687 492.7687,491.5687 Q492.9656,491.5687 493.1156,491.7281 Q493.275,491.8781 493.275,492.0844 Q493.275,492.2906 493.0687,492.5344 Q492.7687,492.8812 492.2906,493.0781 Q491.6437,493.35 490.8656,493.35 Q489.9562,493.35 489.2344,492.975 Q488.6437,492.675 488.2313,492.0375 Q487.8187,491.3906 487.8187,490.6219 L487.8187,489.9281 Q487.8187,489.1312 488.1844,488.4469 Q488.5594,487.7531 489.2156,487.3875 Q489.8719,487.0125 490.6125,487.0125 Q491.0531,487.0125 491.4375,487.1156 Q491.8312,487.2094 492.1594,487.425 Z " fill="#000000"/><text fill="#000000" font-family="sans-serif" font-size="8.4" lengthAdjust="spacing" textLength="67.8" x="498.9" y="493.3781">RuntimeException</text><line style="stroke:#181818;stroke-width:0.3;" x1="482.1" x2="567.9" y1="499.5" y2="499.5"/><line style="stroke:#181818;stroke-width:0.3;" x1="482.1" x2="567.9" y1="504.3" y2="504.3"/></g><!--link ConsultSuppliersRawMaterialUI to RawMaterialController--><g id="link_ConsultSuppliersRawMaterialUI_RawMaterialController"><path codeLine="70" d="M375.6,55.23 C375.6,69.234 375.6,87.408 375.6,103.17 " fill="none" id="ConsultSuppliersRawMaterialUI-to-RawMaterialController" style="stroke:#181818;stroke-width:0.6;stroke-dasharray:7.0,7.0;"/><polygon fill="#181818" points="375.6,106.77,378,101.37,375.6,103.77,373.2,101.37,375.6,106.77" style="stroke:#181818;stroke-width:0.6;"/></g><!--link RawMaterialController to RawMaterialService--><g id="link_RawMaterialController_RawMaterialService"><path codeLine="71" d="M375.6,147.156 C375.6,162.024 375.6,178.938 375.6,194.964 " fill="none" id="RawMaterialController-to-RawMaterialService" style="stroke:#181818;stroke-width:0.6;stroke-dasharray:7.0,7.0;"/><polygon fill="#181818" points="375.6,198.564,378,193.164,375.6,195.564,373.2,193.164,375.6,198.564" style="stroke:#181818;stroke-width:0.6;"/></g><!--link RawMaterialService to Repositories--><g id="link_RawMaterialService_Repositories"><path codeLine="72" d="M308.73,249.648 C281.982,259.626 257.4,268.8 257.4,268.8 C257.4,268.8 217.8124,289.968 179.8984,310.248 " fill="none" id="RawMaterialService-to-Repositories" style="stroke:#181818;stroke-width:0.6;stroke-dasharray:7.0,7.0;"/><polygon fill="#181818" points="176.724,311.946,182.6176,311.5153,179.3693,310.531,180.3536,307.2828,176.724,311.946" style="stroke:#181818;stroke-width:0.6;"/><text fill="#000000" font-family="sans-serif" font-size="7.8" lengthAdjust="spacing" textLength="40.2" x="258" y="277.817">repositories</text></g><!--link RawMaterialService to RawMaterialRepository--><g id="link_RawMaterialService_RawMaterialRepository"><path codeLine="73" d="M354.912,249.75 C341.232,266.316 325.8,285 325.8,285 C325.8,285 283.2,374.4 283.2,374.4 C283.2,374.4 225.1534,437.681 193.9654,471.683 " fill="none" id="RawMaterialService-to-RawMaterialRepository" style="stroke:#181818;stroke-width:0.6;stroke-dasharray:7.0,7.0;"/><polygon fill="#181818" points="191.532,474.336,196.9508,471.9788,193.5599,472.1252,193.4135,468.7342,191.532,474.336" style="stroke:#181818;stroke-width:0.6;"/><text fill="#000000" font-family="sans-serif" font-size="7.8" lengthAdjust="spacing" textLength="76.8" x="326.4" y="346.517">rawMaterialRepository</text></g><!--link RawMaterialService to RawMaterial--><g id="link_RawMaterialService_RawMaterial"><path codeLine="74" d="M487.422,249.618 C561.912,266.22 646.2,285 646.2,285 C646.2,285 876.6,408.6 876.6,408.6 C876.6,408.6 876.6,553.8 876.6,553.8 C876.6,553.8 843.9558,577.2417 813.5358,599.0937 " fill="none" id="RawMaterialService-to-RawMaterial" style="stroke:#181818;stroke-width:0.6;stroke-dasharray:7.0,7.0;"/><polygon fill="#181818" points="810.612,601.194,816.3979,599.9928,813.0485,599.4437,813.5975,596.0943,810.612,601.194" style="stroke:#181818;stroke-width:0.6;"/><text fill="#000000" font-family="sans-serif" font-size="7.8" lengthAdjust="spacing" textLength="39.6" x="867" y="401.417">rawMaterial</text></g><!--link Repositories to Repositories--><g id="link_Repositories_Repositories"><path codeLine="75" d="M225.138,334.5 C237.756,336.078 246,338.982 246,343.2 C246,347.418 241.3282,349.8753 228.7102,351.4533 " fill="none" id="Repositories-to-Repositories" style="stroke:#181818;stroke-width:0.6;"/><polygon fill="#181818" points="225.138,351.9,230.7941,353.6113,228.1148,351.5277,230.1984,348.8484,225.138,351.9" style="stroke:#181818;stroke-width:0.6;"/><text fill="#000000" font-family="sans-serif" font-size="7.8" lengthAdjust="spacing" textLength="29.4" x="249.6" y="346.517">instance</text></g><!--link Repositories to RawMaterialRepository--><g id="link_Repositories_RawMaterialRepository"><path codeLine="76" d="M130.458,374.58 C141.228,404.55 156.0491,445.8079 165.1691,471.1999 " fill="none" id="Repositories-to-RawMaterialRepository" style="stroke:#181818;stroke-width:0.6;"/><polygon fill="#181818" points="166.386,474.588,166.8194,468.6946,165.3719,471.7646,162.3019,470.3171,166.386,474.588" style="stroke:#181818;stroke-width:0.6;"/><text fill="#000000" font-family="sans-serif" font-size="7.8" lengthAdjust="spacing" textLength="76.8" x="141" y="401.417">rawMaterialRepository</text><text fill="#000000" font-family="sans-serif" font-size="7.8" lengthAdjust="spacing" textLength="4.2" x="127.3498" y="387.4586">1</text><text fill="#000000" font-family="sans-serif" font-size="7.8" lengthAdjust="spacing" textLength="4.2" x="160.3917" y="467.8809">1</text></g><!--link RawMaterialRepository to RawMaterial--><g id="link_RawMaterialRepository_RawMaterial"><path codeLine="77" d="M250.278,514.818 C317.28,531.834 403.8,553.8 403.8,553.8 C403.8,553.8 586.8978,593.0121 692.9598,615.7281 " fill="none" id="RawMaterialRepository-to-RawMaterial" style="stroke:#181818;stroke-width:0.6;"/><polygon fill="#181818" points="696.48,616.482,691.7024,613.0043,693.5465,615.8537,690.6971,617.6979,696.48,616.482" style="stroke:#181818;stroke-width:0.6;"/><text fill="#000000" font-family="sans-serif" font-size="7.8" lengthAdjust="spacing" textLength="36" x="532.2" y="580.817">categories</text><text fill="#000000" font-family="sans-serif" font-size="7.8" lengthAdjust="spacing" textLength="4.2" x="259.3978" y="527.7627">1</text><text fill="#000000" font-family="sans-serif" font-size="7.8" lengthAdjust="spacing" textLength="3" x="688.8022" y="613.3607">*</text></g><!--link RawMaterial to Part--><g id="link_RawMaterial_Part"><path codeLine="78" d="M768,663.684 C768,675.15 768,677.478 768,689.382 " fill="none" id="RawMaterial-to-Part" style="stroke:#181818;stroke-width:0.6;"/><polygon fill="none" points="768,700.182,771.6,689.382,764.4,689.382,768,700.182" style="stroke:#181818;stroke-width:0.6;"/></g><!--link Supplier to RawMaterial--><g id="link_Supplier_RawMaterial"><path codeLine="79" d="M768,553.98 C768,570.24 768,583.638 768,597.582 " fill="none" id="Supplier-to-RawMaterial" style="stroke:#181818;stroke-width:0.6;"/><polygon fill="#181818" points="768,601.182,770.4,595.782,768,598.182,765.6,595.782,768,601.182" style="stroke:#181818;stroke-width:0.6;"/><text fill="#000000" font-family="sans-serif" font-size="7.8" lengthAdjust="spacing" textLength="3" x="764.8945" y="566.9305">*</text><text fill="#000000" font-family="sans-serif" font-size="7.8" lengthAdjust="spacing" textLength="3" x="764.7984" y="594.536">*</text></g><!--link RawMaterialService to ProductException--><g id="link_RawMaterialService_ProductException"><path codeLine="80" d="M407.286,249.702 C435.036,271.602 471.9779,300.7579 497.4419,320.8519 " fill="none" id="RawMaterialService-to-ProductException" style="stroke:#181818;stroke-width:0.6;stroke-dasharray:7.0,7.0;"/><polygon fill="#181818" points="500.268,323.082,497.5156,317.8528,497.9129,321.2236,494.5422,321.6209,500.268,323.082" style="stroke:#181818;stroke-width:0.6;"/><text fill="#000000" font-family="sans-serif" font-size="7.8" lengthAdjust="spacing" textLength="22.8" x="446.4" y="277.817">throws</text></g><!--link ProductException to RuntimeException--><g id="link_ProductException_RuntimeException"><path codeLine="81" d="M525,363.45 C525,394.32 525,442.632 525,469.452 " fill="none" id="ProductException-to-RuntimeException" style="stroke:#181818;stroke-width:0.6;"/><polygon fill="none" points="525,480.252,528.6,469.452,521.4,469.452,525,480.252" style="stroke:#181818;stroke-width:0.6;"/></g><!--SRC=[jLNRZfim47tdAwmyaUQYzZLQHUfkjX9IirqjtGzmp8HOCJQoJLFQxh_N818FuAHgfVAIsEVC-9nXF9WZboNLj20bPKUQGsfh0KG3irJc0Y9p8PW3pTI9ovpigJ0O4Lo2hKiWfH9riq0O4zIOZzPglgii94p9bFy0yZwAkWF9v3MPa9yHSKzB9WzAcahOj2fBmK6R5thQKWkQK_6QTCotw0rbS15MAo50zpEXI4_f6Cqpoy4VSry_A6DZxMEIpPIio6TkxDsMbij7bw6-E_FdPAEgdO3rEY0e1VsDCxYgfiEHb8MJWWZtTR8PIq64_-_X1Kfbk5Mw7jWuxtCms03UZwSzVOaqhfqOnAq9nEkna3j_TZpmxP5EShZ0dZPutNzTutvHjYe3qQ_7kPYu5gRRIpOk8vVM8v8MuFPITo5axhVBWvBmL1KxbsSG0GNb8X3IthYLkor5IMNzrQtG-TPPSA1xtTpMQRCQYAk_xFUkOSwzaVgzjQ_NsLhi_Sn9us1EaE0vQILEno_acMgBoyApW8yh5Sd0CCrBovKSexCcSyopinf4djxi2wo6LLg3jAbLx3WiUi4bBweYXCrGkjiISECyVcVGWltcUTOggvYzeBXRKMi-AVj9LJ8Rj-imGS1zvPgW0CzmwEqHkrokmwCp2W_K0RyRRb5WthLCF3zMxbE3ni6raE35Th71kV3d9FtGgATeiHX9vDtuwXCd7oOjkVdzPu68VSdtRZBGojpVV5GWH_wrRgzOT1b1JMmWnxMIZBflHUn1gvE9HaXxsAYLVWC0]--></g></svg>