<?xml version="1.0" encoding="us-ascii" standalone="no"?><svg xmlns="http://www.w3.org/2000/svg" xmlns:xlink="http://www.w3.org/1999/xlink" contentStyleType="text/css" height="760.8px" preserveAspectRatio="none" style="width:1244px;height:760px;background:#FFFFFF;" version="1.1" viewBox="0 0 1244 760" width="1244.4px" zoomAndPan="magnify"><defs/><g><text fill="#000000" font-family="sans-serif" font-size="8.4" font-weight="bold" lengthAdjust="spacing" textLength="99" x="572.1" y="18.0645">Sequence Diagram (SD)</text><rect fill="#FFFFFF" height="620.1855" style="stroke:#181818;stroke-width:0.6;" width="6" x="40.2" y="79.9453"/><rect fill="#FFFFFF" height="232.6934" style="stroke:#181818;stroke-width:0.6;" width="6" x="247.2" y="93.9199"/><rect fill="#FFFFFF" height="354.743" style="stroke:#181818;stroke-width:0.6;" width="6" x="247.2" y="345.3879"/><rect fill="#FFFFFF" height="168.9715" style="stroke:#181818;stroke-width:0.6;" width="6" x="452.4" y="138.8672"/><rect fill="#FFFFFF" height="317.1937" style="stroke:#181818;stroke-width:0.6;" width="6" x="452.4" y="364.1625"/><rect fill="#FFFFFF" height="131.4223" style="stroke:#181818;stroke-width:0.6;" width="6" x="657.6" y="157.6418"/><rect fill="#FFFFFF" height="279.6445" style="stroke:#181818;stroke-width:0.6;" width="6" x="657.6" y="382.9371"/><rect fill="#FFFFFF" height="157.9969" style="stroke:#181818;stroke-width:0.6;" width="6" x="660.6" y="406.5117"/><rect fill="#FFFFFF" height="18.7746" style="stroke:#181818;stroke-width:0.6;" width="6" x="834.6" y="481.6102"/><rect fill="#FFFFFF" height="18.7746" style="stroke:#181818;stroke-width:0.6;" width="6" x="905.7" y="176.4164"/><rect fill="#FFFFFF" height="18.7746" style="stroke:#181818;stroke-width:0.6;" width="6" x="968.7" y="213.9656"/><rect fill="#FFFFFF" height="18.7746" style="stroke:#181818;stroke-width:0.6;" width="6" x="1051.5" y="251.5148"/><rect fill="#FFFFFF" height="18.7746" style="stroke:#181818;stroke-width:0.6;" width="6" x="1051.5" y="428.2863"/><rect fill="#FFFFFF" height="18.7746" style="stroke:#181818;stroke-width:0.6;" width="6" x="1132.5" y="587.4832"/><rect fill="#FFFFFF" height="18.7746" style="stroke:#181818;stroke-width:0.6;" width="6" x="1201.8" y="625.0324"/><rect fill="none" height="86.673" style="stroke:#000000;stroke-width:0.8999999999999999;" width="700.8" x="180" y="456.0609"/><line style="stroke:#181818;stroke-width:0.3;stroke-dasharray:5.0,5.0;" x1="43.2" x2="43.2" y1="73.9453" y2="710.9309"/><line style="stroke:#181818;stroke-width:0.3;stroke-dasharray:5.0,5.0;" x1="250.2" x2="250.2" y1="73.9453" y2="710.9309"/><line style="stroke:#181818;stroke-width:0.3;stroke-dasharray:5.0,5.0;" x1="455.1" x2="455.1" y1="117.8062" y2="710.9309"/><line style="stroke:#181818;stroke-width:0.3;stroke-dasharray:5.0,5.0;" x1="660.6" x2="660.6" y1="73.9453" y2="710.9309"/><line style="stroke:#181818;stroke-width:0.3;stroke-dasharray:5.0,5.0;" x1="837.6" x2="837.6" y1="73.9453" y2="710.9309"/><line style="stroke:#181818;stroke-width:0.3;stroke-dasharray:5.0,5.0;" x1="908.4" x2="908.4" y1="73.9453" y2="710.9309"/><line style="stroke:#181818;stroke-width:0.3;stroke-dasharray:5.0,5.0;" x1="971.4" x2="971.4" y1="73.9453" y2="710.9309"/><line style="stroke:#181818;stroke-width:0.3;stroke-dasharray:5.0,5.0;" x1="1054.2" x2="1054.2" y1="73.9453" y2="710.9309"/><line style="stroke:#181818;stroke-width:0.3;stroke-dasharray:5.0,5.0;" x1="1135.2" x2="1135.2" y1="73.9453" y2="710.9309"/><line style="stroke:#181818;stroke-width:0.3;stroke-dasharray:5.0,5.0;" x1="1204.8" x2="1204.8" y1="73.9453" y2="710.9309"/><text fill="#000000" font-family="sans-serif" font-size="8.4" lengthAdjust="spacing" textLength="76.8" x="3" y="71.8371">Production Manager</text><ellipse cx="43.2" cy="31.8727" fill="#E3E3E3" rx="4.8" ry="4.8" style="stroke:#181818;stroke-width:0.3;"/><path d="M43.2,36.6727 L43.2,52.8727 M35.4,41.4727 L51,41.4727 M43.2,52.8727 L35.4,61.8727 M43.2,52.8727 L51,61.8727 " fill="none" style="stroke:#181818;stroke-width:0.3;"/><text fill="#000000" font-family="sans-serif" font-size="8.4" lengthAdjust="spacing" textLength="76.8" x="3" y="719.3953">Production Manager</text><ellipse cx="43.2" cy="726.6035" fill="#E3E3E3" rx="4.8" ry="4.8" style="stroke:#181818;stroke-width:0.3;"/><path d="M43.2,731.4035 L43.2,747.6035 M35.4,736.2035 L51,736.2035 M43.2,747.6035 L35.4,756.6035 M43.2,747.6035 L51,756.6035 " fill="none" style="stroke:#181818;stroke-width:0.3;"/><rect fill="#E3E3E3" height="19.5727" rx="1.5" ry="1.5" style="stroke:#181818;stroke-width:0.3;" width="128.4" x="186" y="53.7727"/><text fill="#000000" font-family="sans-serif" font-size="8.4" lengthAdjust="spacing" textLength="120" x="190.2" y="67.0371">:ConsultSuppliersRawMaterialUI</text><rect fill="#E3E3E3" height="19.5727" rx="1.5" ry="1.5" style="stroke:#181818;stroke-width:0.3;" width="128.4" x="186" y="710.3309"/><text fill="#000000" font-family="sans-serif" font-size="8.4" lengthAdjust="spacing" textLength="120" x="190.2" y="723.5953">:ConsultSuppliersRawMaterialUI</text><rect fill="#E3E3E3" height="19.5727" rx="1.5" ry="1.5" style="stroke:#181818;stroke-width:0.3;" width="94.2" x="408.3" y="710.3309"/><text fill="#000000" font-family="sans-serif" font-size="8.4" lengthAdjust="spacing" textLength="85.8" x="412.5" y="723.5953">:RawMaterialController</text><rect fill="#E3E3E3" height="19.5727" rx="1.5" ry="1.5" style="stroke:#181818;stroke-width:0.3;" width="85.2" x="618" y="53.7727"/><text fill="#000000" font-family="sans-serif" font-size="8.4" lengthAdjust="spacing" textLength="76.8" x="622.2" y="67.0371">:RawMaterialService</text><rect fill="#E3E3E3" height="19.5727" rx="1.5" ry="1.5" style="stroke:#181818;stroke-width:0.3;" width="85.2" x="618" y="710.3309"/><text fill="#000000" font-family="sans-serif" font-size="8.4" lengthAdjust="spacing" textLength="76.8" x="622.2" y="723.5953">:RawMaterialService</text><rect fill="#E3E3E3" height="19.5727" rx="1.5" ry="1.5" style="stroke:#181818;stroke-width:0.3;" width="74.4" x="800.4" y="53.7727"/><text fill="#000000" font-family="sans-serif" font-size="8.4" lengthAdjust="spacing" textLength="66" x="804.6" y="67.0371">ProductException</text><rect fill="#E3E3E3" height="19.5727" rx="1.5" ry="1.5" style="stroke:#181818;stroke-width:0.3;" width="74.4" x="800.4" y="710.3309"/><text fill="#000000" font-family="sans-serif" font-size="8.4" lengthAdjust="spacing" textLength="66" x="804.6" y="723.5953">ProductException</text><rect fill="#E3E3E3" height="19.5727" rx="1.5" ry="1.5" style="stroke:#181818;stroke-width:0.3;" width="55.8" x="880.8" y="53.7727"/><text fill="#000000" font-family="sans-serif" font-size="8.4" lengthAdjust="spacing" textLength="47.4" x="885" y="67.0371">Repositories</text><rect fill="#E3E3E3" height="19.5727" rx="1.5" ry="1.5" style="stroke:#181818;stroke-width:0.3;" width="55.8" x="880.8" y="710.3309"/><text fill="#000000" font-family="sans-serif" font-size="8.4" lengthAdjust="spacing" textLength="47.4" x="885" y="723.5953">Repositories</text><rect fill="#E3E3E3" height="30.7453" rx="1.5" ry="1.5" style="stroke:#181818;stroke-width:0.3;" width="58.2" x="942.6" y="42.6"/><text fill="#000000" font-family="sans-serif" font-size="8.4" lengthAdjust="spacing" textLength="44.4" x="949.5" y="55.8645">repositories</text><text fill="#000000" font-family="sans-serif" font-size="8.4" lengthAdjust="spacing" textLength="49.8" x="946.8" y="67.0371">:Repositories</text><rect fill="#E3E3E3" height="30.7453" rx="1.5" ry="1.5" style="stroke:#181818;stroke-width:0.3;" width="58.2" x="942.6" y="710.3309"/><text fill="#000000" font-family="sans-serif" font-size="8.4" lengthAdjust="spacing" textLength="44.4" x="949.5" y="723.5953">repositories</text><text fill="#000000" font-family="sans-serif" font-size="8.4" lengthAdjust="spacing" textLength="49.8" x="946.8" y="734.768">:Repositories</text><rect fill="#E3E3E3" height="30.7453" rx="1.5" ry="1.5" style="stroke:#181818;stroke-width:0.3;" width="95.4" x="1006.8" y="42.6"/><text fill="#000000" font-family="sans-serif" font-size="8.4" lengthAdjust="spacing" textLength="86.4" x="1011.3" y="55.8645">rawMaterialRepository:</text><text fill="#000000" font-family="sans-serif" font-size="8.4" lengthAdjust="spacing" textLength="87" x="1011" y="67.0371">RawMaterialRepository</text><rect fill="#E3E3E3" height="30.7453" rx="1.5" ry="1.5" style="stroke:#181818;stroke-width:0.3;" width="95.4" x="1006.8" y="710.3309"/><text fill="#000000" font-family="sans-serif" font-size="8.4" lengthAdjust="spacing" textLength="86.4" x="1011.3" y="723.5953">rawMaterialRepository:</text><text fill="#000000" font-family="sans-serif" font-size="8.4" lengthAdjust="spacing" textLength="87" x="1011" y="734.768">RawMaterialRepository</text><rect fill="#E3E3E3" height="30.7453" rx="1.5" ry="1.5" style="stroke:#181818;stroke-width:0.3;" width="54.6" x="1108.2" y="42.6"/><text fill="#000000" font-family="sans-serif" font-size="8.4" lengthAdjust="spacing" textLength="45.6" x="1112.7" y="55.8645">rawMaterial:</text><text fill="#000000" font-family="sans-serif" font-size="8.4" lengthAdjust="spacing" textLength="46.2" x="1112.4" y="67.0371">RawMaterial</text><rect fill="#E3E3E3" height="30.7453" rx="1.5" ry="1.5" style="stroke:#181818;stroke-width:0.3;" width="54.6" x="1108.2" y="710.3309"/><text fill="#000000" font-family="sans-serif" font-size="8.4" lengthAdjust="spacing" textLength="45.6" x="1112.7" y="723.5953">rawMaterial:</text><text fill="#000000" font-family="sans-serif" font-size="8.4" lengthAdjust="spacing" textLength="46.2" x="1112.4" y="734.768">RawMaterial</text><rect fill="#E3E3E3" height="30.7453" rx="1.5" ry="1.5" style="stroke:#181818;stroke-width:0.3;" width="72" x="1168.8" y="42.6"/><text fill="#000000" font-family="sans-serif" font-size="8.4" lengthAdjust="spacing" textLength="63" x="1173.3" y="55.8645">rawMaterialCost:</text><text fill="#000000" font-family="sans-serif" font-size="8.4" lengthAdjust="spacing" textLength="63.6" x="1173" y="67.0371">RawMaterialCost</text><rect fill="#E3E3E3" height="30.7453" rx="1.5" ry="1.5" style="stroke:#181818;stroke-width:0.3;" width="72" x="1168.8" y="710.3309"/><text fill="#000000" font-family="sans-serif" font-size="8.4" lengthAdjust="spacing" textLength="63" x="1173.3" y="723.5953">rawMaterialCost:</text><text fill="#000000" font-family="sans-serif" font-size="8.4" lengthAdjust="spacing" textLength="63.6" x="1173" y="734.768">RawMaterialCost</text><rect fill="#FFFFFF" height="620.1855" style="stroke:#181818;stroke-width:0.6;" width="6" x="40.2" y="79.9453"/><rect fill="#FFFFFF" height="232.6934" style="stroke:#181818;stroke-width:0.6;" width="6" x="247.2" y="93.9199"/><rect fill="#FFFFFF" height="354.743" style="stroke:#181818;stroke-width:0.6;" width="6" x="247.2" y="345.3879"/><rect fill="#FFFFFF" height="168.9715" style="stroke:#181818;stroke-width:0.6;" width="6" x="452.4" y="138.8672"/><rect fill="#FFFFFF" height="317.1937" style="stroke:#181818;stroke-width:0.6;" width="6" x="452.4" y="364.1625"/><rect fill="#FFFFFF" height="131.4223" style="stroke:#181818;stroke-width:0.6;" width="6" x="657.6" y="157.6418"/><rect fill="#FFFFFF" height="279.6445" style="stroke:#181818;stroke-width:0.6;" width="6" x="657.6" y="382.9371"/><rect fill="#FFFFFF" height="157.9969" style="stroke:#181818;stroke-width:0.6;" width="6" x="660.6" y="406.5117"/><rect fill="#FFFFFF" height="18.7746" style="stroke:#181818;stroke-width:0.6;" width="6" x="834.6" y="481.6102"/><rect fill="#FFFFFF" height="18.7746" style="stroke:#181818;stroke-width:0.6;" width="6" x="905.7" y="176.4164"/><rect fill="#FFFFFF" height="18.7746" style="stroke:#181818;stroke-width:0.6;" width="6" x="968.7" y="213.9656"/><rect fill="#FFFFFF" height="18.7746" style="stroke:#181818;stroke-width:0.6;" width="6" x="1051.5" y="251.5148"/><rect fill="#FFFFFF" height="18.7746" style="stroke:#181818;stroke-width:0.6;" width="6" x="1051.5" y="428.2863"/><rect fill="#FFFFFF" height="18.7746" style="stroke:#181818;stroke-width:0.6;" width="6" x="1132.5" y="587.4832"/><rect fill="#FFFFFF" height="18.7746" style="stroke:#181818;stroke-width:0.6;" width="6" x="1201.8" y="625.0324"/><polygon fill="#181818" points="240,91.5199,246,93.9199,240,96.3199,242.4,93.9199" style="stroke:#181818;stroke-width:0.6;"/><line style="stroke:#181818;stroke-width:0.6;" x1="46.2" x2="243.6" y1="93.9199" y2="93.9199"/><text fill="#000000" font-family="sans-serif" font-size="7.8" font-weight="bold" lengthAdjust="spacing" textLength="4.2" x="50.4" y="90.7623">1</text><text fill="#000000" font-family="sans-serif" font-size="7.8" lengthAdjust="spacing" textLength="183" x="57" y="90.7623">asks to consult the list of suppliers for a raw material</text><polygon fill="#181818" points="401.1,110.2945,407.1,112.6945,401.1,115.0945,403.5,112.6945" style="stroke:#181818;stroke-width:0.6;"/><line style="stroke:#181818;stroke-width:0.6;" x1="253.2" x2="404.7" y1="112.6945" y2="112.6945"/><text fill="#000000" font-family="sans-serif" font-size="7.8" font-weight="bold" lengthAdjust="spacing" textLength="4.2" x="257.4" y="109.5369">2</text><text fill="#000000" font-family="sans-serif" font-size="7.8" lengthAdjust="spacing" textLength="21.6" x="264" y="109.5369">create</text><rect fill="#E3E3E3" height="19.5727" rx="1.5" ry="1.5" style="stroke:#181818;stroke-width:0.3;" width="94.2" x="408.3" y="98.7199"/><text fill="#000000" font-family="sans-serif" font-size="8.4" lengthAdjust="spacing" textLength="85.8" x="412.5" y="111.9844">:RawMaterialController</text><polygon fill="#181818" points="445.2,136.4672,451.2,138.8672,445.2,141.2672,447.6,138.8672" style="stroke:#181818;stroke-width:0.6;"/><line style="stroke:#181818;stroke-width:0.6;" x1="253.2" x2="448.8" y1="138.8672" y2="138.8672"/><text fill="#000000" font-family="sans-serif" font-size="7.8" font-weight="bold" lengthAdjust="spacing" textLength="4.2" x="257.4" y="135.7096">3</text><text fill="#000000" font-family="sans-serif" font-size="7.8" lengthAdjust="spacing" textLength="62.4" x="264" y="135.7096">getRawMaterials()</text><polygon fill="#181818" points="650.4,155.2418,656.4,157.6418,650.4,160.0418,652.8,157.6418" style="stroke:#181818;stroke-width:0.6;"/><line style="stroke:#181818;stroke-width:0.6;" x1="458.4" x2="654" y1="157.6418" y2="157.6418"/><text fill="#000000" font-family="sans-serif" font-size="7.8" font-weight="bold" lengthAdjust="spacing" textLength="4.2" x="462.6" y="154.4842">4</text><text fill="#000000" font-family="sans-serif" font-size="7.8" lengthAdjust="spacing" textLength="62.4" x="469.2" y="154.4842">getRawMaterials()</text><polygon fill="#181818" points="898.5,174.0164,904.5,176.4164,898.5,178.8164,900.9,176.4164" style="stroke:#181818;stroke-width:0.6;"/><line style="stroke:#181818;stroke-width:0.6;" x1="663.6" x2="902.1" y1="176.4164" y2="176.4164"/><text fill="#000000" font-family="sans-serif" font-size="7.8" font-weight="bold" lengthAdjust="spacing" textLength="4.2" x="667.8" y="173.2588">5</text><text fill="#000000" font-family="sans-serif" font-size="7.8" lengthAdjust="spacing" textLength="45" x="674.4" y="173.2588">getInstance()</text><polygon fill="#181818" points="670.2,192.791,664.2,195.191,670.2,197.591,667.8,195.191" style="stroke:#181818;stroke-width:0.6;"/><line style="stroke:#181818;stroke-width:0.6;stroke-dasharray:2.0,2.0;" x1="666.6" x2="908.1" y1="195.191" y2="195.191"/><text fill="#000000" font-family="sans-serif" font-size="7.8" font-weight="bold" lengthAdjust="spacing" textLength="4.2" x="673.8" y="192.0334">6</text><text fill="#000000" font-family="sans-serif" font-size="7.8" lengthAdjust="spacing" textLength="40.2" x="680.4" y="192.0334">repositories</text><polygon fill="#181818" points="961.5,211.5656,967.5,213.9656,961.5,216.3656,963.9,213.9656" style="stroke:#181818;stroke-width:0.6;"/><line style="stroke:#181818;stroke-width:0.6;" x1="663.6" x2="965.1" y1="213.9656" y2="213.9656"/><text fill="#000000" font-family="sans-serif" font-size="7.8" font-weight="bold" lengthAdjust="spacing" textLength="4.2" x="667.8" y="210.808">7</text><text fill="#000000" font-family="sans-serif" font-size="7.8" lengthAdjust="spacing" textLength="95.4" x="674.4" y="210.808">getRawMaterialRepository()</text><polygon fill="#181818" points="670.2,230.3402,664.2,232.7402,670.2,235.1402,667.8,232.7402" style="stroke:#181818;stroke-width:0.6;"/><line style="stroke:#181818;stroke-width:0.6;stroke-dasharray:2.0,2.0;" x1="666.6" x2="971.1" y1="232.7402" y2="232.7402"/><text fill="#000000" font-family="sans-serif" font-size="7.8" font-weight="bold" lengthAdjust="spacing" textLength="4.2" x="673.8" y="229.5826">8</text><text fill="#000000" font-family="sans-serif" font-size="7.8" lengthAdjust="spacing" textLength="76.8" x="680.4" y="229.5826">rawMaterialRepository</text><polygon fill="#181818" points="1044.3,249.1148,1050.3,251.5148,1044.3,253.9148,1046.7,251.5148" style="stroke:#181818;stroke-width:0.6;"/><line style="stroke:#181818;stroke-width:0.6;" x1="663.6" x2="1047.9" y1="251.5148" y2="251.5148"/><text fill="#000000" font-family="sans-serif" font-size="7.8" font-weight="bold" lengthAdjust="spacing" textLength="4.2" x="667.8" y="248.3572">9</text><text fill="#000000" font-family="sans-serif" font-size="7.8" lengthAdjust="spacing" textLength="24.6" x="674.4" y="248.3572">getAll()</text><polygon fill="#181818" points="670.2,267.8895,664.2,270.2895,670.2,272.6895,667.8,270.2895" style="stroke:#181818;stroke-width:0.6;"/><line style="stroke:#181818;stroke-width:0.6;stroke-dasharray:2.0,2.0;" x1="666.6" x2="1053.9" y1="270.2895" y2="270.2895"/><text fill="#000000" font-family="sans-serif" font-size="7.8" font-weight="bold" lengthAdjust="spacing" textLength="8.4" x="673.8" y="267.1318">10</text><text fill="#000000" font-family="sans-serif" font-size="7.8" lengthAdjust="spacing" textLength="43.8" x="684.6" y="267.1318">rawMaterials</text><polygon fill="#181818" points="465,286.6641,459,289.0641,465,291.4641,462.6,289.0641" style="stroke:#181818;stroke-width:0.6;"/><line style="stroke:#181818;stroke-width:0.6;stroke-dasharray:2.0,2.0;" x1="461.4" x2="660" y1="289.0641" y2="289.0641"/><text fill="#000000" font-family="sans-serif" font-size="7.8" font-weight="bold" lengthAdjust="spacing" textLength="8.4" x="468.6" y="285.9064">11</text><text fill="#000000" font-family="sans-serif" font-size="7.8" lengthAdjust="spacing" textLength="43.8" x="479.4" y="285.9064">rawMaterials</text><polygon fill="#181818" points="259.8,305.4387,253.8,307.8387,259.8,310.2387,257.4,307.8387" style="stroke:#181818;stroke-width:0.6;"/><line style="stroke:#181818;stroke-width:0.6;stroke-dasharray:2.0,2.0;" x1="256.2" x2="454.8" y1="307.8387" y2="307.8387"/><text fill="#000000" font-family="sans-serif" font-size="7.8" font-weight="bold" lengthAdjust="spacing" textLength="8.4" x="263.4" y="304.6811">12</text><text fill="#000000" font-family="sans-serif" font-size="7.8" lengthAdjust="spacing" textLength="43.8" x="274.2" y="304.6811">rawMaterials</text><polygon fill="#181818" points="52.8,324.2133,46.8,326.6133,52.8,329.0133,50.4,326.6133" style="stroke:#181818;stroke-width:0.6;"/><line style="stroke:#181818;stroke-width:0.6;stroke-dasharray:2.0,2.0;" x1="49.2" x2="249.6" y1="326.6133" y2="326.6133"/><text fill="#000000" font-family="sans-serif" font-size="7.8" font-weight="bold" lengthAdjust="spacing" textLength="8.4" x="56.4" y="323.4557">13</text><text fill="#000000" font-family="sans-serif" font-size="7.8" lengthAdjust="spacing" textLength="162" x="67.2" y="323.4557">shows the list of raw materials and requests ID</text><polygon fill="#181818" points="240,342.9879,246,345.3879,240,347.7879,242.4,345.3879" style="stroke:#181818;stroke-width:0.6;"/><line style="stroke:#181818;stroke-width:0.6;" x1="46.2" x2="243.6" y1="345.3879" y2="345.3879"/><text fill="#000000" font-family="sans-serif" font-size="7.8" font-weight="bold" lengthAdjust="spacing" textLength="8.4" x="50.4" y="342.2303">14</text><text fill="#000000" font-family="sans-serif" font-size="7.8" lengthAdjust="spacing" textLength="74.4" x="61.2" y="342.2303">provides requested ID</text><polygon fill="#181818" points="445.2,361.7625,451.2,364.1625,445.2,366.5625,447.6,364.1625" style="stroke:#181818;stroke-width:0.6;"/><line style="stroke:#181818;stroke-width:0.6;" x1="253.2" x2="448.8" y1="364.1625" y2="364.1625"/><text fill="#000000" font-family="sans-serif" font-size="7.8" font-weight="bold" lengthAdjust="spacing" textLength="8.4" x="257.4" y="361.0049">15</text><text fill="#000000" font-family="sans-serif" font-size="7.8" lengthAdjust="spacing" textLength="120.6" x="268.2" y="361.0049">getSuppliersByCost(rawMaterialID)</text><polygon fill="#181818" points="650.4,380.5371,656.4,382.9371,650.4,385.3371,652.8,382.9371" style="stroke:#181818;stroke-width:0.6;"/><line style="stroke:#181818;stroke-width:0.6;" x1="458.4" x2="654" y1="382.9371" y2="382.9371"/><text fill="#000000" font-family="sans-serif" font-size="7.8" font-weight="bold" lengthAdjust="spacing" textLength="8.4" x="462.6" y="379.7795">16</text><text fill="#000000" font-family="sans-serif" font-size="7.8" lengthAdjust="spacing" textLength="120.6" x="473.4" y="379.7795">getSuppliersByCost(rawMaterialID)</text><line style="stroke:#181818;stroke-width:0.6;" x1="663.6" x2="691.8" y1="398.7117" y2="398.7117"/><line style="stroke:#181818;stroke-width:0.6;" x1="691.8" x2="691.8" y1="398.7117" y2="406.5117"/><line style="stroke:#181818;stroke-width:0.6;" x1="667.2" x2="691.8" y1="406.5117" y2="406.5117"/><polygon fill="#181818" points="673.2,404.1117,667.2,406.5117,673.2,408.9117,670.8,406.5117" style="stroke:#181818;stroke-width:0.6;"/><text fill="#000000" font-family="sans-serif" font-size="7.8" font-weight="bold" lengthAdjust="spacing" textLength="8.4" x="670.8" y="395.5541">17</text><text fill="#000000" font-family="sans-serif" font-size="7.8" lengthAdjust="spacing" textLength="121.8" x="681.6" y="395.5541">getRawMaterialByID(rawMaterialID)</text><polygon fill="#181818" points="1044.3,425.8863,1050.3,428.2863,1044.3,430.6863,1046.7,428.2863" style="stroke:#181818;stroke-width:0.6;"/><line style="stroke:#181818;stroke-width:0.6;" x1="666.6" x2="1047.9" y1="428.2863" y2="428.2863"/><text fill="#000000" font-family="sans-serif" font-size="7.8" font-weight="bold" lengthAdjust="spacing" textLength="8.4" x="670.8" y="425.1287">18</text><text fill="#000000" font-family="sans-serif" font-size="7.8" lengthAdjust="spacing" textLength="78" x="681.6" y="425.1287">getById(rawMaterialID)</text><polygon fill="#181818" points="673.2,444.6609,667.2,447.0609,673.2,449.4609,670.8,447.0609" style="stroke:#181818;stroke-width:0.6;"/><line style="stroke:#181818;stroke-width:0.6;stroke-dasharray:2.0,2.0;" x1="669.6" x2="1053.9" y1="447.0609" y2="447.0609"/><text fill="#000000" font-family="sans-serif" font-size="7.8" font-weight="bold" lengthAdjust="spacing" textLength="8.4" x="676.8" y="443.9033">19</text><text fill="#000000" font-family="sans-serif" font-size="7.8" lengthAdjust="spacing" textLength="39.6" x="687.6" y="443.9033">rawMaterial</text><path d="M180,456.0609 L216.6,456.0609 L216.6,461.6355 L210.6,467.6355 L180,467.6355 L180,456.0609 " fill="#EEEEEE" style="stroke:#000000;stroke-width:0.8999999999999999;"/><rect fill="none" height="86.673" style="stroke:#000000;stroke-width:0.8999999999999999;" width="700.8" x="180" y="456.0609"/><text fill="#000000" font-family="sans-serif" font-size="7.8" font-weight="bold" lengthAdjust="spacing" textLength="9.6" x="189" y="465.0779">alt</text><text fill="#000000" font-family="sans-serif" font-size="6.6" font-weight="bold" lengthAdjust="spacing" textLength="66.6" x="225.6" y="464.383">[rawMaterial == null]</text><polygon fill="#181818" points="827.4,479.2102,833.4,481.6102,827.4,484.0102,829.8,481.6102" style="stroke:#181818;stroke-width:0.6;"/><line style="stroke:#181818;stroke-width:0.6;" x1="666.6" x2="831" y1="481.6102" y2="481.6102"/><text fill="#000000" font-family="sans-serif" font-size="7.8" font-weight="bold" lengthAdjust="spacing" textLength="8.4" x="670.8" y="478.4525">20</text><text fill="#000000" font-family="sans-serif" font-size="7.8" lengthAdjust="spacing" textLength="145.8" x="681.6" y="478.4525">throw rawMaterialNotFound(rawMaterialID)</text><polygon fill="#181818" points="673.2,497.9848,667.2,500.3848,673.2,502.7848,670.8,500.3848" style="stroke:#181818;stroke-width:0.6;"/><line style="stroke:#181818;stroke-width:0.6;stroke-dasharray:2.0,2.0;" x1="669.6" x2="837" y1="500.3848" y2="500.3848"/><text fill="#000000" font-family="sans-serif" font-size="7.8" font-weight="bold" lengthAdjust="spacing" textLength="8.4" x="676.8" y="497.2271">21</text><text fill="#000000" font-family="sans-serif" font-size="7.8" lengthAdjust="spacing" textLength="61.8" x="687.6" y="497.2271">Exception Thrown</text><polygon fill="#181818" points="465,516.7594,459,519.1594,465,521.5594,462.6,519.1594" style="stroke:#181818;stroke-width:0.6;"/><line style="stroke:#181818;stroke-width:0.6;stroke-dasharray:2.0,2.0;" x1="461.4" x2="660" y1="519.1594" y2="519.1594"/><text fill="#000000" font-family="sans-serif" font-size="7.8" font-weight="bold" lengthAdjust="spacing" textLength="8.4" x="468.6" y="516.0018">22</text><text fill="#000000" font-family="sans-serif" font-size="7.8" lengthAdjust="spacing" textLength="174" x="479.4" y="516.0018">show error message (Raw Material does not exist)</text><polygon fill="#181818" points="259.8,535.534,253.8,537.934,259.8,540.334,257.4,537.934" style="stroke:#181818;stroke-width:0.6;"/><line style="stroke:#181818;stroke-width:0.6;stroke-dasharray:2.0,2.0;" x1="256.2" x2="451.8" y1="537.934" y2="537.934"/><text fill="#000000" font-family="sans-serif" font-size="7.8" font-weight="bold" lengthAdjust="spacing" textLength="8.4" x="263.4" y="534.7764">23</text><text fill="#000000" font-family="sans-serif" font-size="7.8" lengthAdjust="spacing" textLength="174" x="274.2" y="534.7764">show error message (Raw Material does not exist)</text><line style="stroke:#181818;stroke-width:0.6;stroke-dasharray:2.0,2.0;" x1="666.6" x2="691.8" y1="563.9086" y2="563.9086"/><line style="stroke:#181818;stroke-width:0.6;stroke-dasharray:2.0,2.0;" x1="691.8" x2="691.8" y1="563.9086" y2="571.7086"/><line style="stroke:#181818;stroke-width:0.6;stroke-dasharray:2.0,2.0;" x1="663.6" x2="691.8" y1="571.7086" y2="571.7086"/><polygon fill="#181818" points="669.6,569.3086,663.6,571.7086,669.6,574.1086,667.2,571.7086" style="stroke:#181818;stroke-width:0.6;"/><text fill="#000000" font-family="sans-serif" font-size="7.8" font-weight="bold" lengthAdjust="spacing" textLength="8.4" x="670.8" y="560.751">24</text><text fill="#000000" font-family="sans-serif" font-size="7.8" lengthAdjust="spacing" textLength="39.6" x="681.6" y="560.751">rawMaterial</text><polygon fill="#181818" points="1125.3,585.0832,1131.3,587.4832,1125.3,589.8832,1127.7,587.4832" style="stroke:#181818;stroke-width:0.6;"/><line style="stroke:#181818;stroke-width:0.6;" x1="663.6" x2="1128.9" y1="587.4832" y2="587.4832"/><text fill="#000000" font-family="sans-serif" font-size="7.8" font-weight="bold" lengthAdjust="spacing" textLength="8.4" x="667.8" y="584.3256">25</text><text fill="#000000" font-family="sans-serif" font-size="7.8" lengthAdjust="spacing" textLength="74.4" x="678.6" y="584.3256">getRawMaterialCost()</text><polygon fill="#181818" points="670.2,603.8578,664.2,606.2578,670.2,608.6578,667.8,606.2578" style="stroke:#181818;stroke-width:0.6;"/><line style="stroke:#181818;stroke-width:0.6;stroke-dasharray:2.0,2.0;" x1="666.6" x2="1134.9" y1="606.2578" y2="606.2578"/><text fill="#000000" font-family="sans-serif" font-size="7.8" font-weight="bold" lengthAdjust="spacing" textLength="8.4" x="673.8" y="603.1002">26</text><text fill="#000000" font-family="sans-serif" font-size="7.8" lengthAdjust="spacing" textLength="55.8" x="684.6" y="603.1002">rawMaterialCost</text><polygon fill="#181818" points="1194.6,622.6324,1200.6,625.0324,1194.6,627.4324,1197,625.0324" style="stroke:#181818;stroke-width:0.6;"/><line style="stroke:#181818;stroke-width:0.6;" x1="663.6" x2="1198.2" y1="625.0324" y2="625.0324"/><text fill="#000000" font-family="sans-serif" font-size="7.8" font-weight="bold" lengthAdjust="spacing" textLength="8.4" x="667.8" y="621.8748">27</text><text fill="#000000" font-family="sans-serif" font-size="7.8" lengthAdjust="spacing" textLength="18" x="678.6" y="621.8748">sort()</text><polygon fill="#181818" points="670.2,641.407,664.2,643.807,670.2,646.207,667.8,643.807" style="stroke:#181818;stroke-width:0.6;"/><line style="stroke:#181818;stroke-width:0.6;stroke-dasharray:2.0,2.0;" x1="666.6" x2="1204.2" y1="643.807" y2="643.807"/><text fill="#000000" font-family="sans-serif" font-size="7.8" font-weight="bold" lengthAdjust="spacing" textLength="8.4" x="673.8" y="640.6494">28</text><text fill="#000000" font-family="sans-serif" font-size="7.8" lengthAdjust="spacing" textLength="55.8" x="684.6" y="640.6494">rawMaterialCost</text><polygon fill="#181818" points="465,660.1816,459,662.5816,465,664.9816,462.6,662.5816" style="stroke:#181818;stroke-width:0.6;"/><line style="stroke:#181818;stroke-width:0.6;stroke-dasharray:2.0,2.0;" x1="461.4" x2="660" y1="662.5816" y2="662.5816"/><text fill="#000000" font-family="sans-serif" font-size="7.8" font-weight="bold" lengthAdjust="spacing" textLength="8.4" x="468.6" y="659.424">29</text><text fill="#000000" font-family="sans-serif" font-size="7.8" lengthAdjust="spacing" textLength="39.6" x="479.4" y="659.424">rawMaterial</text><polygon fill="#181818" points="259.8,678.9563,253.8,681.3562,259.8,683.7563,257.4,681.3562" style="stroke:#181818;stroke-width:0.6;"/><line style="stroke:#181818;stroke-width:0.6;stroke-dasharray:2.0,2.0;" x1="256.2" x2="454.8" y1="681.3562" y2="681.3562"/><text fill="#000000" font-family="sans-serif" font-size="7.8" font-weight="bold" lengthAdjust="spacing" textLength="8.4" x="263.4" y="678.1986">30</text><text fill="#000000" font-family="sans-serif" font-size="7.8" lengthAdjust="spacing" textLength="39.6" x="274.2" y="678.1986">rawMaterial</text><polygon fill="#181818" points="49.8,697.7309,43.8,700.1309,49.8,702.5309,47.4,700.1309" style="stroke:#181818;stroke-width:0.6;"/><line style="stroke:#181818;stroke-width:0.6;stroke-dasharray:2.0,2.0;" x1="46.2" x2="249.6" y1="700.1309" y2="700.1309"/><text fill="#000000" font-family="sans-serif" font-size="7.8" font-weight="bold" lengthAdjust="spacing" textLength="8.4" x="53.4" y="696.9732">31</text><text fill="#000000" font-family="sans-serif" font-size="7.8" lengthAdjust="spacing" textLength="151.2" x="64.2" y="696.9732">shows the list of suppliers or error message</text><!--SRC=[hLR1Rjim3BtxAuYUqWBx0GCTi2OT460PWhWTTkX5izbKg2DvajmqVp_AYLrBbknaQ4wjzVX8Ik-9qgzSL4on7UoaaFcBaZi4esfCTBTIiVoLRJ4pXn91OMwOs9PzW7vXXTnpiOLdLcfC4iCDGJFyMwF84HQSRIrkbYskauJLHefwzmSL_PqRgU1ghMHHvuPB0IicA9Uw0gPXlKeeWU4vhvWmS9NEfT1rQRAwgagEIc_OViKCAixAnsKJyhZqGdeGYZPAbkM9NR7z_67p8uxFKBtn75jmjldbOazLtx_dMDdQM-3zxxaBt60bDQTEEUe6jBbVPov4zI1F8Wr5U04VTNRWG_eaDg7lRMN3bIYfI-KJHCFcKXitr7xnm-stvl3v6tsnvmpqMw_WorSwGKW9_gh1ICYF1mxc1Q7ase1y1jsUFZoJTfZbXLrRb-NfU4aCpGVx8reYFvtvpGtbo1KIA8AWzIsQNXjwTjqXkmIjXA3tQmcEN2IQKIgVpehCMJnHMXvYjC8vyYs59X_cw74vV8tC_DM6uajNNGfzwGtG1OwpEQKDEltGsKIPeIfxHH9nMBtZvOxjP93lsC2tiXmhzxnAmlonbaOtVZfXsvQZtoYzIsqLDz1kwyCWXnlV621f3KI1PEEKHeBSQyUsVPjgOA8WuT5yq4R3Sf5ulArpUrT2fUGRBr2tOLYqSTD-Ruwrcnft1tl_p7gzBHSZvXvtzoNK5vezSdtS7PQBiGoNPmaC4fkJ4XMN9Fe4LpYAkzmJm_9eTlIWS7iBeYw7p8CjeHcUadoLtFVZVqhpNTPYSbVydR4lWaXAMdBwxruJy62pYs2Skn4ZxDwjSFGbe58qENUeDJsrO4RQWcw72aaM4z80lfDnhvCOS- -U-0zMdn154TTevCwSa4TGzb7f-oPhR3nziD5QFB779DuyXAPFU3JD-KqsZpFGKbtIMhH43_D9BJPKvtQPJCazjdVdZi0mGsW0kXCmD00_tgra4ySieUdN-tUz-WS0]--></g></svg>