<?xml version="1.0" encoding="us-ascii" standalone="no"?><svg xmlns="http://www.w3.org/2000/svg" xmlns:xlink="http://www.w3.org/1999/xlink" contentStyleType="text/css" height="1422px" preserveAspectRatio="none" style="width:1574px;height:1422px;background:#FFFFFF;" version="1.1" viewBox="0 0 1574 1422" width="1574px" zoomAndPan="magnify"><defs/><g><!--cluster UI--><g id="cluster_UI"><rect fill="none" height="101" rx="2.5" ry="2.5" style="stroke:#000000;stroke-width:1.5;" width="178" x="819" y="7"/><text fill="#000000" font-family="sans-serif" font-size="14" font-weight="bold" lengthAdjust="spacing" textLength="14" x="901" y="24.1074">UI</text></g><!--cluster Controller--><g id="cluster_Controller"><rect fill="none" height="175" rx="2.5" ry="2.5" style="stroke:#000000;stroke-width:1.5;" width="634" x="591" y="141"/><text fill="#000000" font-family="sans-serif" font-size="14" font-weight="bold" lengthAdjust="spacing" textLength="71" x="872.5" y="158.1074">Controller</text></g><!--cluster Service--><g id="cluster_Service"><rect fill="none" height="175" rx="2.5" ry="2.5" style="stroke:#000000;stroke-width:1.5;" width="634" x="591" y="349"/><text fill="#000000" font-family="sans-serif" font-size="14" font-weight="bold" lengthAdjust="spacing" textLength="54" x="881" y="366.1074">Service</text></g><!--cluster Repository--><g id="cluster_Repository"><rect fill="none" height="376" rx="2.5" ry="2.5" style="stroke:#000000;stroke-width:1.5;" width="602" x="7" y="575"/><text fill="#000000" font-family="sans-serif" font-size="14" font-weight="bold" lengthAdjust="spacing" textLength="76" x="270" y="592.1074">Repository</text></g><!--cluster Model--><g id="cluster_Model"><rect fill="none" height="414" rx="2.5" ry="2.5" style="stroke:#000000;stroke-width:1.5;" width="476" x="906" y="1002"/><text fill="#000000" font-family="sans-serif" font-size="14" font-weight="bold" lengthAdjust="spacing" textLength="44" x="1122" y="1019.1074">Model</text></g><!--cluster Exception--><g id="cluster_Exception"><rect fill="none" height="330" rx="2.5" ry="2.5" style="stroke:#000000;stroke-width:1.5;" width="392" x="939" y="584"/><text fill="#000000" font-family="sans-serif" font-size="14" font-weight="bold" lengthAdjust="spacing" textLength="70" x="1100" y="601.1074">Exception</text></g><!--class RegisterProductUI--><g id="elem_RegisterProductUI"><rect codeLine="7" fill="#F1F1F1" height="48" id="RegisterProductUI" rx="2.5" ry="2.5" style="stroke:#181818;stroke-width:0.5;" width="146" x="835" y="44"/><ellipse cx="850" cy="60" fill="#ADD1B2" rx="11" ry="11" style="stroke:#181818;stroke-width:1.0;"/><path d="M852.7656,55.875 Q852.9219,55.6563 853.1094,55.5469 Q853.2969,55.4375 853.5156,55.4375 Q853.8906,55.4375 854.125,55.7031 Q854.3594,55.9531 854.3594,56.5625 L854.3594,58.0156 Q854.3594,58.625 854.125,58.8906 Q853.8906,59.1563 853.5156,59.1563 Q853.1719,59.1563 852.9688,58.9531 Q852.7656,58.7656 852.6563,58.25 Q852.6094,57.8906 852.4219,57.7031 Q852.0938,57.3281 851.4844,57.1094 Q850.875,56.8906 850.25,56.8906 Q849.4844,56.8906 848.8438,57.2188 Q848.2188,57.5469 847.7188,58.2969 Q847.2344,59.0469 847.2344,60.0781 L847.2344,61.1719 Q847.2344,62.4063 848.125,63.2344 Q849.0156,64.0469 850.6094,64.0469 Q851.5469,64.0469 852.2031,63.7969 Q852.5938,63.6406 853.0156,63.2031 Q853.2813,62.9375 853.4219,62.8594 Q853.5781,62.7813 853.7813,62.7813 Q854.1094,62.7813 854.3594,63.0469 Q854.625,63.2969 854.625,63.6406 Q854.625,63.9844 854.2813,64.3906 Q853.7813,64.9688 852.9844,65.2969 Q851.9063,65.75 850.6094,65.75 Q849.0938,65.75 847.8906,65.125 Q846.9063,64.625 846.2188,63.5625 Q845.5313,62.4844 845.5313,61.2031 L845.5313,60.0469 Q845.5313,58.7188 846.1406,57.5781 Q846.7656,56.4219 847.8594,55.8125 Q848.9531,55.1875 850.1875,55.1875 Q850.9219,55.1875 851.5625,55.3594 Q852.2188,55.5156 852.7656,55.875 Z " fill="#000000"/><text fill="#000000" font-family="sans-serif" font-size="14" lengthAdjust="spacing" textLength="114" x="864" y="65.7969">RegisterProductUI</text><line style="stroke:#181818;stroke-width:0.5;" x1="836" x2="980" y1="76" y2="76"/><line style="stroke:#181818;stroke-width:0.5;" x1="836" x2="980" y1="84" y2="84"/></g><!--class ProductController--><g id="elem_ProductController"><rect codeLine="12" fill="#F1F1F1" height="122.4844" id="ProductController" rx="2.5" ry="2.5" style="stroke:#181818;stroke-width:0.5;" width="602" x="607" y="178"/><ellipse cx="848.25" cy="194" fill="#ADD1B2" rx="11" ry="11" style="stroke:#181818;stroke-width:1.0;"/><path d="M851.0156,189.875 Q851.1719,189.6563 851.3594,189.5469 Q851.5469,189.4375 851.7656,189.4375 Q852.1406,189.4375 852.375,189.7031 Q852.6094,189.9531 852.6094,190.5625 L852.6094,192.0156 Q852.6094,192.625 852.375,192.8906 Q852.1406,193.1563 851.7656,193.1563 Q851.4219,193.1563 851.2188,192.9531 Q851.0156,192.7656 850.9063,192.25 Q850.8594,191.8906 850.6719,191.7031 Q850.3438,191.3281 849.7344,191.1094 Q849.125,190.8906 848.5,190.8906 Q847.7344,190.8906 847.0938,191.2188 Q846.4688,191.5469 845.9688,192.2969 Q845.4844,193.0469 845.4844,194.0781 L845.4844,195.1719 Q845.4844,196.4063 846.375,197.2344 Q847.2656,198.0469 848.8594,198.0469 Q849.7969,198.0469 850.4531,197.7969 Q850.8438,197.6406 851.2656,197.2031 Q851.5313,196.9375 851.6719,196.8594 Q851.8281,196.7813 852.0313,196.7813 Q852.3594,196.7813 852.6094,197.0469 Q852.875,197.2969 852.875,197.6406 Q852.875,197.9844 852.5313,198.3906 Q852.0313,198.9688 851.2344,199.2969 Q850.1563,199.75 848.8594,199.75 Q847.3438,199.75 846.1406,199.125 Q845.1563,198.625 844.4688,197.5625 Q843.7813,196.4844 843.7813,195.2031 L843.7813,194.0469 Q843.7813,192.7188 844.3906,191.5781 Q845.0156,190.4219 846.1094,189.8125 Q847.2031,189.1875 848.4375,189.1875 Q849.1719,189.1875 849.8125,189.3594 Q850.4688,189.5156 851.0156,189.875 Z " fill="#000000"/><text fill="#000000" font-family="sans-serif" font-size="14" lengthAdjust="spacing" textLength="111" x="868.75" y="199.7969">ProductController</text><line style="stroke:#181818;stroke-width:0.5;" x1="608" x2="1208" y1="210" y2="210"/><line style="stroke:#181818;stroke-width:0.5;" x1="608" x2="1208" y1="218" y2="218"/><text fill="#000000" font-family="sans-serif" font-size="14" lengthAdjust="spacing" textLength="313" x="613" y="237.1074">+getProductCategories() : List&lt;ProductCategory&gt;</text><text fill="#000000" font-family="sans-serif" font-size="14" lengthAdjust="spacing" textLength="410" x="613" y="255.7285">+registerCategory(categoryID, categoryName) : ProductCategory</text><text fill="#000000" font-family="sans-serif" font-size="14" lengthAdjust="spacing" textLength="332" x="613" y="274.3496">+getProductCategory(categoryID) : ProductCategory</text><text fill="#000000" font-family="sans-serif" font-size="14" lengthAdjust="spacing" textLength="590" x="613" y="292.9707">+registerProduct(productID, name, description, category, capacity, size, color, price) : Product</text></g><!--class ProductService--><g id="elem_ProductService"><rect codeLine="21" fill="#F1F1F1" height="122.4844" id="ProductService" rx="2.5" ry="2.5" style="stroke:#181818;stroke-width:0.5;" width="602" x="607" y="386"/><ellipse cx="855.75" cy="402" fill="#ADD1B2" rx="11" ry="11" style="stroke:#181818;stroke-width:1.0;"/><path d="M858.5156,397.875 Q858.6719,397.6563 858.8594,397.5469 Q859.0469,397.4375 859.2656,397.4375 Q859.6406,397.4375 859.875,397.7031 Q860.1094,397.9531 860.1094,398.5625 L860.1094,400.0156 Q860.1094,400.625 859.875,400.8906 Q859.6406,401.1563 859.2656,401.1563 Q858.9219,401.1563 858.7188,400.9531 Q858.5156,400.7656 858.4063,400.25 Q858.3594,399.8906 858.1719,399.7031 Q857.8438,399.3281 857.2344,399.1094 Q856.625,398.8906 856,398.8906 Q855.2344,398.8906 854.5938,399.2188 Q853.9688,399.5469 853.4688,400.2969 Q852.9844,401.0469 852.9844,402.0781 L852.9844,403.1719 Q852.9844,404.4063 853.875,405.2344 Q854.7656,406.0469 856.3594,406.0469 Q857.2969,406.0469 857.9531,405.7969 Q858.3438,405.6406 858.7656,405.2031 Q859.0313,404.9375 859.1719,404.8594 Q859.3281,404.7813 859.5313,404.7813 Q859.8594,404.7813 860.1094,405.0469 Q860.375,405.2969 860.375,405.6406 Q860.375,405.9844 860.0313,406.3906 Q859.5313,406.9688 858.7344,407.2969 Q857.6563,407.75 856.3594,407.75 Q854.8438,407.75 853.6406,407.125 Q852.6563,406.625 851.9688,405.5625 Q851.2813,404.4844 851.2813,403.2031 L851.2813,402.0469 Q851.2813,400.7188 851.8906,399.5781 Q852.5156,398.4219 853.6094,397.8125 Q854.7031,397.1875 855.9375,397.1875 Q856.6719,397.1875 857.3125,397.3594 Q857.9688,397.5156 858.5156,397.875 Z " fill="#000000"/><text fill="#000000" font-family="sans-serif" font-size="14" lengthAdjust="spacing" textLength="96" x="876.25" y="407.7969">ProductService</text><line style="stroke:#181818;stroke-width:0.5;" x1="608" x2="1208" y1="418" y2="418"/><line style="stroke:#181818;stroke-width:0.5;" x1="608" x2="1208" y1="426" y2="426"/><text fill="#000000" font-family="sans-serif" font-size="14" lengthAdjust="spacing" textLength="313" x="613" y="445.1074">+getProductCategories() : List&lt;ProductCategory&gt;</text><text fill="#000000" font-family="sans-serif" font-size="14" lengthAdjust="spacing" textLength="410" x="613" y="463.7285">+registerCategory(categoryID, categoryName) : ProductCategory</text><text fill="#000000" font-family="sans-serif" font-size="14" lengthAdjust="spacing" textLength="312" x="613" y="482.3496">+getCategoryByID(categoryID) : ProductCategory</text><text fill="#000000" font-family="sans-serif" font-size="14" lengthAdjust="spacing" textLength="590" x="613" y="500.9707">+registerProduct(productID, name, description, category, capacity, size, color, price) : Product</text></g><!--class Repositories--><g id="elem_Repositories"><rect codeLine="30" fill="#F1F1F1" height="122.4844" id="Repositories" rx="2.5" ry="2.5" style="stroke:#181818;stroke-width:0.5;" width="412" x="23" y="612"/><ellipse cx="185.25" cy="628" fill="#ADD1B2" rx="11" ry="11" style="stroke:#181818;stroke-width:1.0;"/><path d="M188.0156,623.875 Q188.1719,623.6563 188.3594,623.5469 Q188.5469,623.4375 188.7656,623.4375 Q189.1406,623.4375 189.375,623.7031 Q189.6094,623.9531 189.6094,624.5625 L189.6094,626.0156 Q189.6094,626.625 189.375,626.8906 Q189.1406,627.1563 188.7656,627.1563 Q188.4219,627.1563 188.2188,626.9531 Q188.0156,626.7656 187.9063,626.25 Q187.8594,625.8906 187.6719,625.7031 Q187.3438,625.3281 186.7344,625.1094 Q186.125,624.8906 185.5,624.8906 Q184.7344,624.8906 184.0938,625.2188 Q183.4688,625.5469 182.9688,626.2969 Q182.4844,627.0469 182.4844,628.0781 L182.4844,629.1719 Q182.4844,630.4063 183.375,631.2344 Q184.2656,632.0469 185.8594,632.0469 Q186.7969,632.0469 187.4531,631.7969 Q187.8438,631.6406 188.2656,631.2031 Q188.5313,630.9375 188.6719,630.8594 Q188.8281,630.7813 189.0313,630.7813 Q189.3594,630.7813 189.6094,631.0469 Q189.875,631.2969 189.875,631.6406 Q189.875,631.9844 189.5313,632.3906 Q189.0313,632.9688 188.2344,633.2969 Q187.1563,633.75 185.8594,633.75 Q184.3438,633.75 183.1406,633.125 Q182.1563,632.625 181.4688,631.5625 Q180.7813,630.4844 180.7813,629.2031 L180.7813,628.0469 Q180.7813,626.7188 181.3906,625.5781 Q182.0156,624.4219 183.1094,623.8125 Q184.2031,623.1875 185.4375,623.1875 Q186.1719,623.1875 186.8125,623.3594 Q187.4688,623.5156 188.0156,623.875 Z " fill="#000000"/><text fill="#000000" font-family="sans-serif" font-size="14" lengthAdjust="spacing" textLength="79" x="205.75" y="633.7969">Repositories</text><line style="stroke:#181818;stroke-width:0.5;" x1="24" x2="434" y1="644" y2="644"/><line style="stroke:#181818;stroke-width:0.5;" x1="24" x2="434" y1="652" y2="652"/><text fill="#000000" font-family="sans-serif" font-size="14" lengthAdjust="spacing" textLength="94" x="29" y="671.1074">-Repositories()</text><text fill="#000000" font-family="sans-serif" font-size="14" lengthAdjust="spacing" textLength="182" x="29" y="689.7285">+getInstance() : Repositories</text><text fill="#000000" font-family="sans-serif" font-size="14" lengthAdjust="spacing" textLength="284" x="29" y="708.3496">+getProductRepository() : ProductRepository</text><text fill="#000000" font-family="sans-serif" font-size="14" lengthAdjust="spacing" textLength="400" x="29" y="726.9707">+getProductCategoryRepository() : ProductCategoryRepository</text></g><!--class ProductCategoryRepository--><g id="elem_ProductCategoryRepository"><rect codeLine="37" fill="#F1F1F1" height="122.4844" id="ProductCategoryRepository" rx="2.5" ry="2.5" style="stroke:#181818;stroke-width:0.5;" width="275" x="23.5" y="813"/><ellipse cx="69.25" cy="829" fill="#ADD1B2" rx="11" ry="11" style="stroke:#181818;stroke-width:1.0;"/><path d="M72.0156,824.875 Q72.1719,824.6563 72.3594,824.5469 Q72.5469,824.4375 72.7656,824.4375 Q73.1406,824.4375 73.375,824.7031 Q73.6094,824.9531 73.6094,825.5625 L73.6094,827.0156 Q73.6094,827.625 73.375,827.8906 Q73.1406,828.1563 72.7656,828.1563 Q72.4219,828.1563 72.2188,827.9531 Q72.0156,827.7656 71.9063,827.25 Q71.8594,826.8906 71.6719,826.7031 Q71.3438,826.3281 70.7344,826.1094 Q70.125,825.8906 69.5,825.8906 Q68.7344,825.8906 68.0938,826.2188 Q67.4688,826.5469 66.9688,827.2969 Q66.4844,828.0469 66.4844,829.0781 L66.4844,830.1719 Q66.4844,831.4063 67.375,832.2344 Q68.2656,833.0469 69.8594,833.0469 Q70.7969,833.0469 71.4531,832.7969 Q71.8438,832.6406 72.2656,832.2031 Q72.5313,831.9375 72.6719,831.8594 Q72.8281,831.7813 73.0313,831.7813 Q73.3594,831.7813 73.6094,832.0469 Q73.875,832.2969 73.875,832.6406 Q73.875,832.9844 73.5313,833.3906 Q73.0313,833.9688 72.2344,834.2969 Q71.1563,834.75 69.8594,834.75 Q68.3438,834.75 67.1406,834.125 Q66.1563,833.625 65.4688,832.5625 Q64.7813,831.4844 64.7813,830.2031 L64.7813,829.0469 Q64.7813,827.7188 65.3906,826.5781 Q66.0156,825.4219 67.1094,824.8125 Q68.2031,824.1875 69.4375,824.1875 Q70.1719,824.1875 70.8125,824.3594 Q71.4688,824.5156 72.0156,824.875 Z " fill="#000000"/><text fill="#000000" font-family="sans-serif" font-size="14" lengthAdjust="spacing" textLength="175" x="89.75" y="834.7969">ProductCategoryRepository</text><line style="stroke:#181818;stroke-width:0.5;" x1="24.5" x2="297.5" y1="845" y2="845"/><line style="stroke:#181818;stroke-width:0.5;" x1="24.5" x2="297.5" y1="853" y2="853"/><text fill="#000000" font-family="sans-serif" font-size="14" lengthAdjust="spacing" textLength="210" x="29.5" y="872.1074">+getAll() : List&lt;ProductCategory&gt;</text><text fill="#000000" font-family="sans-serif" font-size="14" lengthAdjust="spacing" textLength="254" x="29.5" y="890.7285">+getByID(categoryID) : ProductCategory</text><text fill="#000000" font-family="sans-serif" font-size="14" lengthAdjust="spacing" textLength="263" x="29.5" y="909.3496">+getCategoryExists(categoryID) : boolean</text><text fill="#000000" font-family="sans-serif" font-size="14" lengthAdjust="spacing" textLength="166" x="29.5" y="927.9707">+save(category) : boolean</text></g><!--class ProductRepository--><g id="elem_ProductRepository"><rect codeLine="44" fill="#F1F1F1" height="85.2422" id="ProductRepository" rx="2.5" ry="2.5" style="stroke:#181818;stroke-width:0.5;" width="259" x="333.5" y="831.5"/><ellipse cx="400.25" cy="847.5" fill="#ADD1B2" rx="11" ry="11" style="stroke:#181818;stroke-width:1.0;"/><path d="M403.0156,843.375 Q403.1719,843.1563 403.3594,843.0469 Q403.5469,842.9375 403.7656,842.9375 Q404.1406,842.9375 404.375,843.2031 Q404.6094,843.4531 404.6094,844.0625 L404.6094,845.5156 Q404.6094,846.125 404.375,846.3906 Q404.1406,846.6563 403.7656,846.6563 Q403.4219,846.6563 403.2188,846.4531 Q403.0156,846.2656 402.9063,845.75 Q402.8594,845.3906 402.6719,845.2031 Q402.3438,844.8281 401.7344,844.6094 Q401.125,844.3906 400.5,844.3906 Q399.7344,844.3906 399.0938,844.7188 Q398.4688,845.0469 397.9688,845.7969 Q397.4844,846.5469 397.4844,847.5781 L397.4844,848.6719 Q397.4844,849.9063 398.375,850.7344 Q399.2656,851.5469 400.8594,851.5469 Q401.7969,851.5469 402.4531,851.2969 Q402.8438,851.1406 403.2656,850.7031 Q403.5313,850.4375 403.6719,850.3594 Q403.8281,850.2813 404.0313,850.2813 Q404.3594,850.2813 404.6094,850.5469 Q404.875,850.7969 404.875,851.1406 Q404.875,851.4844 404.5313,851.8906 Q404.0313,852.4688 403.2344,852.7969 Q402.1563,853.25 400.8594,853.25 Q399.3438,853.25 398.1406,852.625 Q397.1563,852.125 396.4688,851.0625 Q395.7813,849.9844 395.7813,848.7031 L395.7813,847.5469 Q395.7813,846.2188 396.3906,845.0781 Q397.0156,843.9219 398.1094,843.3125 Q399.2031,842.6875 400.4375,842.6875 Q401.1719,842.6875 401.8125,842.8594 Q402.4688,843.0156 403.0156,843.375 Z " fill="#000000"/><text fill="#000000" font-family="sans-serif" font-size="14" lengthAdjust="spacing" textLength="117" x="420.75" y="853.2969">ProductRepository</text><line style="stroke:#181818;stroke-width:0.5;" x1="334.5" x2="591.5" y1="863.5" y2="863.5"/><line style="stroke:#181818;stroke-width:0.5;" x1="334.5" x2="591.5" y1="871.5" y2="871.5"/><text fill="#000000" font-family="sans-serif" font-size="14" lengthAdjust="spacing" textLength="247" x="339.5" y="890.6074">+getProductExists(productID) : boolean</text><text fill="#000000" font-family="sans-serif" font-size="14" lengthAdjust="spacing" textLength="208" x="339.5" y="909.2285">+saveProduct(product) : boolean</text></g><!--class Part--><g id="elem_Part"><rect codeLine="51" fill="#F1F1F1" height="122.4844" id="Part" rx="2.5" ry="2.5" style="stroke:#181818;stroke-width:0.5;" width="187" x="937.5" y="1278"/><ellipse cx="1013.75" cy="1294" fill="#ADD1B2" rx="11" ry="11" style="stroke:#181818;stroke-width:1.0;"/><path d="M1016.5156,1289.875 Q1016.6719,1289.6563 1016.8594,1289.5469 Q1017.0469,1289.4375 1017.2656,1289.4375 Q1017.6406,1289.4375 1017.875,1289.7031 Q1018.1094,1289.9531 1018.1094,1290.5625 L1018.1094,1292.0156 Q1018.1094,1292.625 1017.875,1292.8906 Q1017.6406,1293.1563 1017.2656,1293.1563 Q1016.9219,1293.1563 1016.7188,1292.9531 Q1016.5156,1292.7656 1016.4063,1292.25 Q1016.3594,1291.8906 1016.1719,1291.7031 Q1015.8438,1291.3281 1015.2344,1291.1094 Q1014.625,1290.8906 1014,1290.8906 Q1013.2344,1290.8906 1012.5938,1291.2188 Q1011.9688,1291.5469 1011.4688,1292.2969 Q1010.9844,1293.0469 1010.9844,1294.0781 L1010.9844,1295.1719 Q1010.9844,1296.4063 1011.875,1297.2344 Q1012.7656,1298.0469 1014.3594,1298.0469 Q1015.2969,1298.0469 1015.9531,1297.7969 Q1016.3438,1297.6406 1016.7656,1297.2031 Q1017.0313,1296.9375 1017.1719,1296.8594 Q1017.3281,1296.7813 1017.5313,1296.7813 Q1017.8594,1296.7813 1018.1094,1297.0469 Q1018.375,1297.2969 1018.375,1297.6406 Q1018.375,1297.9844 1018.0313,1298.3906 Q1017.5313,1298.9688 1016.7344,1299.2969 Q1015.6563,1299.75 1014.3594,1299.75 Q1012.8438,1299.75 1011.6406,1299.125 Q1010.6563,1298.625 1009.9688,1297.5625 Q1009.2813,1296.4844 1009.2813,1295.2031 L1009.2813,1294.0469 Q1009.2813,1292.7188 1009.8906,1291.5781 Q1010.5156,1290.4219 1011.6094,1289.8125 Q1012.7031,1289.1875 1013.9375,1289.1875 Q1014.6719,1289.1875 1015.3125,1289.3594 Q1015.9688,1289.5156 1016.5156,1289.875 Z " fill="#000000"/><text fill="#000000" font-family="sans-serif" font-size="14" lengthAdjust="spacing" textLength="26" x="1034.25" y="1299.7969">Part</text><line style="stroke:#181818;stroke-width:0.5;" x1="938.5" x2="1123.5" y1="1310" y2="1310"/><text fill="#000000" font-family="sans-serif" font-size="14" lengthAdjust="spacing" textLength="65" x="943.5" y="1329.1074">-id : String</text><text fill="#000000" font-family="sans-serif" font-size="14" lengthAdjust="spacing" textLength="89" x="943.5" y="1347.7285">-name : String</text><text fill="#000000" font-family="sans-serif" font-size="14" lengthAdjust="spacing" textLength="123" x="943.5" y="1366.3496">-description : String</text><line style="stroke:#181818;stroke-width:0.5;" x1="938.5" x2="1123.5" y1="1373.8633" y2="1373.8633"/><text fill="#000000" font-family="sans-serif" font-size="14" lengthAdjust="spacing" textLength="175" x="943.5" y="1392.9707">+Part(id, name, description)</text></g><!--class Product--><g id="elem_Product"><rect codeLine="58" fill="#F1F1F1" height="159.7266" id="Product" rx="2.5" ry="2.5" style="stroke:#181818;stroke-width:0.5;" width="443" x="922.5" y="1039"/><ellipse cx="1115.25" cy="1055" fill="#ADD1B2" rx="11" ry="11" style="stroke:#181818;stroke-width:1.0;"/><path d="M1118.0156,1050.875 Q1118.1719,1050.6563 1118.3594,1050.5469 Q1118.5469,1050.4375 1118.7656,1050.4375 Q1119.1406,1050.4375 1119.375,1050.7031 Q1119.6094,1050.9531 1119.6094,1051.5625 L1119.6094,1053.0156 Q1119.6094,1053.625 1119.375,1053.8906 Q1119.1406,1054.1563 1118.7656,1054.1563 Q1118.4219,1054.1563 1118.2188,1053.9531 Q1118.0156,1053.7656 1117.9063,1053.25 Q1117.8594,1052.8906 1117.6719,1052.7031 Q1117.3438,1052.3281 1116.7344,1052.1094 Q1116.125,1051.8906 1115.5,1051.8906 Q1114.7344,1051.8906 1114.0938,1052.2188 Q1113.4688,1052.5469 1112.9688,1053.2969 Q1112.4844,1054.0469 1112.4844,1055.0781 L1112.4844,1056.1719 Q1112.4844,1057.4063 1113.375,1058.2344 Q1114.2656,1059.0469 1115.8594,1059.0469 Q1116.7969,1059.0469 1117.4531,1058.7969 Q1117.8438,1058.6406 1118.2656,1058.2031 Q1118.5313,1057.9375 1118.6719,1057.8594 Q1118.8281,1057.7813 1119.0313,1057.7813 Q1119.3594,1057.7813 1119.6094,1058.0469 Q1119.875,1058.2969 1119.875,1058.6406 Q1119.875,1058.9844 1119.5313,1059.3906 Q1119.0313,1059.9688 1118.2344,1060.2969 Q1117.1563,1060.75 1115.8594,1060.75 Q1114.3438,1060.75 1113.1406,1060.125 Q1112.1563,1059.625 1111.4688,1058.5625 Q1110.7813,1057.4844 1110.7813,1056.2031 L1110.7813,1055.0469 Q1110.7813,1053.7188 1111.3906,1052.5781 Q1112.0156,1051.4219 1113.1094,1050.8125 Q1114.2031,1050.1875 1115.4375,1050.1875 Q1116.1719,1050.1875 1116.8125,1050.3594 Q1117.4688,1050.5156 1118.0156,1050.875 Z " fill="#000000"/><text fill="#000000" font-family="sans-serif" font-size="14" lengthAdjust="spacing" textLength="49" x="1135.75" y="1060.7969">Product</text><line style="stroke:#181818;stroke-width:0.5;" x1="923.5" x2="1364.5" y1="1071" y2="1071"/><text fill="#000000" font-family="sans-serif" font-size="14" lengthAdjust="spacing" textLength="179" x="928.5" y="1090.1074">-category : ProductCategory</text><text fill="#000000" font-family="sans-serif" font-size="14" lengthAdjust="spacing" textLength="84" x="928.5" y="1108.7285">-capacity : int</text><text fill="#000000" font-family="sans-serif" font-size="14" lengthAdjust="spacing" textLength="56" x="928.5" y="1127.3496">-size : int</text><text fill="#000000" font-family="sans-serif" font-size="14" lengthAdjust="spacing" textLength="85" x="928.5" y="1145.9707">-color : String</text><text fill="#000000" font-family="sans-serif" font-size="14" lengthAdjust="spacing" textLength="91" x="928.5" y="1164.5918">-price : double</text><line style="stroke:#181818;stroke-width:0.5;" x1="923.5" x2="1364.5" y1="1172.1055" y2="1172.1055"/><text fill="#000000" font-family="sans-serif" font-size="14" lengthAdjust="spacing" textLength="431" x="928.5" y="1191.2129">+Product(id, name, description, category, capacity, size, color, price)</text></g><!--class ProductCategory--><g id="elem_ProductCategory"><rect codeLine="67" fill="#F1F1F1" height="103.8633" id="ProductCategory" rx="2.5" ry="2.5" style="stroke:#181818;stroke-width:0.5;" width="191" x="1159.5" y="1287"/><ellipse cx="1197.9" cy="1303" fill="#ADD1B2" rx="11" ry="11" style="stroke:#181818;stroke-width:1.0;"/><path d="M1200.6656,1298.875 Q1200.8219,1298.6563 1201.0094,1298.5469 Q1201.1969,1298.4375 1201.4156,1298.4375 Q1201.7906,1298.4375 1202.025,1298.7031 Q1202.2594,1298.9531 1202.2594,1299.5625 L1202.2594,1301.0156 Q1202.2594,1301.625 1202.025,1301.8906 Q1201.7906,1302.1563 1201.4156,1302.1563 Q1201.0719,1302.1563 1200.8688,1301.9531 Q1200.6656,1301.7656 1200.5563,1301.25 Q1200.5094,1300.8906 1200.3219,1300.7031 Q1199.9938,1300.3281 1199.3844,1300.1094 Q1198.775,1299.8906 1198.15,1299.8906 Q1197.3844,1299.8906 1196.7438,1300.2188 Q1196.1188,1300.5469 1195.6188,1301.2969 Q1195.1344,1302.0469 1195.1344,1303.0781 L1195.1344,1304.1719 Q1195.1344,1305.4063 1196.025,1306.2344 Q1196.9156,1307.0469 1198.5094,1307.0469 Q1199.4469,1307.0469 1200.1031,1306.7969 Q1200.4938,1306.6406 1200.9156,1306.2031 Q1201.1813,1305.9375 1201.3219,1305.8594 Q1201.4781,1305.7813 1201.6813,1305.7813 Q1202.0094,1305.7813 1202.2594,1306.0469 Q1202.525,1306.2969 1202.525,1306.6406 Q1202.525,1306.9844 1202.1813,1307.3906 Q1201.6813,1307.9688 1200.8844,1308.2969 Q1199.8063,1308.75 1198.5094,1308.75 Q1196.9938,1308.75 1195.7906,1308.125 Q1194.8063,1307.625 1194.1188,1306.5625 Q1193.4313,1305.4844 1193.4313,1304.2031 L1193.4313,1303.0469 Q1193.4313,1301.7188 1194.0406,1300.5781 Q1194.6656,1299.4219 1195.7594,1298.8125 Q1196.8531,1298.1875 1198.0875,1298.1875 Q1198.8219,1298.1875 1199.4625,1298.3594 Q1200.1188,1298.5156 1200.6656,1298.875 Z " fill="#000000"/><text fill="#000000" font-family="sans-serif" font-size="14" lengthAdjust="spacing" textLength="107" x="1217.1" y="1308.7969">ProductCategory</text><line style="stroke:#181818;stroke-width:0.5;" x1="1160.5" x2="1349.5" y1="1319" y2="1319"/><text fill="#000000" font-family="sans-serif" font-size="14" lengthAdjust="spacing" textLength="65" x="1165.5" y="1338.1074">-id : String</text><text fill="#000000" font-family="sans-serif" font-size="14" lengthAdjust="spacing" textLength="89" x="1165.5" y="1356.7285">-name : String</text><line style="stroke:#181818;stroke-width:0.5;" x1="1160.5" x2="1349.5" y1="1364.2422" y2="1364.2422"/><text fill="#000000" font-family="sans-serif" font-size="14" lengthAdjust="spacing" textLength="179" x="1165.5" y="1383.3496">+ProductCategory(id, name)</text></g><!--class ProductException--><g id="elem_ProductException"><rect codeLine="75" fill="#F1F1F1" height="103.8633" id="ProductException" rx="2.5" ry="2.5" style="stroke:#181818;stroke-width:0.5;" width="359" x="955.5" y="621"/><ellipse cx="1075.75" cy="637" fill="#ADD1B2" rx="11" ry="11" style="stroke:#181818;stroke-width:1.0;"/><path d="M1078.5156,632.875 Q1078.6719,632.6563 1078.8594,632.5469 Q1079.0469,632.4375 1079.2656,632.4375 Q1079.6406,632.4375 1079.875,632.7031 Q1080.1094,632.9531 1080.1094,633.5625 L1080.1094,635.0156 Q1080.1094,635.625 1079.875,635.8906 Q1079.6406,636.1563 1079.2656,636.1563 Q1078.9219,636.1563 1078.7188,635.9531 Q1078.5156,635.7656 1078.4063,635.25 Q1078.3594,634.8906 1078.1719,634.7031 Q1077.8438,634.3281 1077.2344,634.1094 Q1076.625,633.8906 1076,633.8906 Q1075.2344,633.8906 1074.5938,634.2188 Q1073.9688,634.5469 1073.4688,635.2969 Q1072.9844,636.0469 1072.9844,637.0781 L1072.9844,638.1719 Q1072.9844,639.4063 1073.875,640.2344 Q1074.7656,641.0469 1076.3594,641.0469 Q1077.2969,641.0469 1077.9531,640.7969 Q1078.3438,640.6406 1078.7656,640.2031 Q1079.0313,639.9375 1079.1719,639.8594 Q1079.3281,639.7813 1079.5313,639.7813 Q1079.8594,639.7813 1080.1094,640.0469 Q1080.375,640.2969 1080.375,640.6406 Q1080.375,640.9844 1080.0313,641.3906 Q1079.5313,641.9688 1078.7344,642.2969 Q1077.6563,642.75 1076.3594,642.75 Q1074.8438,642.75 1073.6406,642.125 Q1072.6563,641.625 1071.9688,640.5625 Q1071.2813,639.4844 1071.2813,638.2031 L1071.2813,637.0469 Q1071.2813,635.7188 1071.8906,634.5781 Q1072.5156,633.4219 1073.6094,632.8125 Q1074.7031,632.1875 1075.9375,632.1875 Q1076.6719,632.1875 1077.3125,632.3594 Q1077.9688,632.5156 1078.5156,632.875 Z " fill="#000000"/><text fill="#000000" font-family="sans-serif" font-size="14" lengthAdjust="spacing" textLength="110" x="1096.25" y="642.7969">ProductException</text><line style="stroke:#181818;stroke-width:0.5;" x1="956.5" x2="1313.5" y1="653" y2="653"/><line style="stroke:#181818;stroke-width:0.5;" x1="956.5" x2="1313.5" y1="661" y2="661"/><text fill="#000000" font-family="sans-serif" font-size="14" lengthAdjust="spacing" textLength="325" x="961.5" y="680.1074">+categoryNotFound(categoryID) : ProductException</text><text fill="#000000" font-family="sans-serif" font-size="14" lengthAdjust="spacing" textLength="347" x="961.5" y="698.7285">+categoryAlreadyExists(categoryID) : ProductException</text><text fill="#000000" font-family="sans-serif" font-size="14" lengthAdjust="spacing" textLength="333" x="961.5" y="717.3496">+productAlreadyExists(productID) : ProductException</text></g><!--class RuntimeException--><g id="elem_RuntimeException"><rect codeLine="81" fill="#F1F1F1" height="48" id="RuntimeException" rx="2.5" ry="2.5" style="stroke:#181818;stroke-width:0.5;" width="145" x="1062.5" y="850"/><ellipse cx="1077.5" cy="866" fill="#ADD1B2" rx="11" ry="11" style="stroke:#181818;stroke-width:1.0;"/><path d="M1080.2656,861.875 Q1080.4219,861.6563 1080.6094,861.5469 Q1080.7969,861.4375 1081.0156,861.4375 Q1081.3906,861.4375 1081.625,861.7031 Q1081.8594,861.9531 1081.8594,862.5625 L1081.8594,864.0156 Q1081.8594,864.625 1081.625,864.8906 Q1081.3906,865.1563 1081.0156,865.1563 Q1080.6719,865.1563 1080.4688,864.9531 Q1080.2656,864.7656 1080.1563,864.25 Q1080.1094,863.8906 1079.9219,863.7031 Q1079.5938,863.3281 1078.9844,863.1094 Q1078.375,862.8906 1077.75,862.8906 Q1076.9844,862.8906 1076.3438,863.2188 Q1075.7188,863.5469 1075.2188,864.2969 Q1074.7344,865.0469 1074.7344,866.0781 L1074.7344,867.1719 Q1074.7344,868.4063 1075.625,869.2344 Q1076.5156,870.0469 1078.1094,870.0469 Q1079.0469,870.0469 1079.7031,869.7969 Q1080.0938,869.6406 1080.5156,869.2031 Q1080.7813,868.9375 1080.9219,868.8594 Q1081.0781,868.7813 1081.2813,868.7813 Q1081.6094,868.7813 1081.8594,869.0469 Q1082.125,869.2969 1082.125,869.6406 Q1082.125,869.9844 1081.7813,870.3906 Q1081.2813,870.9688 1080.4844,871.2969 Q1079.4063,871.75 1078.1094,871.75 Q1076.5938,871.75 1075.3906,871.125 Q1074.4063,870.625 1073.7188,869.5625 Q1073.0313,868.4844 1073.0313,867.2031 L1073.0313,866.0469 Q1073.0313,864.7188 1073.6406,863.5781 Q1074.2656,862.4219 1075.3594,861.8125 Q1076.4531,861.1875 1077.6875,861.1875 Q1078.4219,861.1875 1079.0625,861.3594 Q1079.7188,861.5156 1080.2656,861.875 Z " fill="#000000"/><text fill="#000000" font-family="sans-serif" font-size="14" lengthAdjust="spacing" textLength="113" x="1091.5" y="871.7969">RuntimeException</text><line style="stroke:#181818;stroke-width:0.5;" x1="1063.5" x2="1206.5" y1="882" y2="882"/><line style="stroke:#181818;stroke-width:0.5;" x1="1063.5" x2="1206.5" y1="890" y2="890"/></g><!--link RegisterProductUI to ProductController--><g id="link_RegisterProductUI_ProductController"><path codeLine="84" d="M908,92.14 C908,114.11 908,142.08 908,171.71 " fill="none" id="RegisterProductUI-to-ProductController" style="stroke:#181818;stroke-width:1.0;stroke-dasharray:7.0,7.0;"/><polygon fill="#181818" points="908,177.71,912,168.71,908,172.71,904,168.71,908,177.71" style="stroke:#181818;stroke-width:1.0;"/></g><!--link ProductController to ProductService--><g id="link_ProductController_ProductService"><path codeLine="85" d="M908,300.14 C908,327.1 908,352.82 908,379.79 " fill="none" id="ProductController-to-ProductService" style="stroke:#181818;stroke-width:1.0;stroke-dasharray:7.0,7.0;"/><polygon fill="#181818" points="908,385.79,912,376.79,908,380.79,904,376.79,908,385.79" style="stroke:#181818;stroke-width:1.0;"/></g><!--link ProductService to Repositories--><g id="link_ProductService_Repositories"><path codeLine="86" d="M634.66,508.02 C555.03,525.5 489,540 489,540 C489,540 421.2399,574.4037 352.5599,609.2737 " fill="none" id="ProductService-to-Repositories" style="stroke:#181818;stroke-width:1.0;stroke-dasharray:7.0,7.0;"/><polygon fill="#181818" points="347.21,611.99,357.0458,611.4822,351.6683,609.7265,353.4241,604.349,347.21,611.99" style="stroke:#181818;stroke-width:1.0;"/><text fill="#000000" font-family="sans-serif" font-size="13" lengthAdjust="spacing" textLength="67" x="490" y="555.0283">repositories</text></g><!--link ProductService to ProductRepository--><g id="link_ProductService_ProductRepository"><path codeLine="87" d="M869.55,508.2 C850.7,537.71 832,567 832,567 C832,567 751,734 751,734 C751,734 639.2837,787.9224 554.4237,828.8724 " fill="none" id="ProductService-to-ProductRepository" style="stroke:#181818;stroke-width:1.0;stroke-dasharray:7.0,7.0;"/><polygon fill="#181818" points="549.02,831.48,558.864,831.1711,553.5231,829.307,555.3872,823.9661,549.02,831.48" style="stroke:#181818;stroke-width:1.0;"/><text fill="#000000" font-family="sans-serif" font-size="13" lengthAdjust="spacing" textLength="105" x="833" y="678.5283">productRepository</text></g><!--link ProductService to ProductCategoryRepository--><g id="link_ProductService_ProductCategoryRepository"><path codeLine="88" d="M744.58,508.02 C664.05,537.6 584,567 584,567 C584,567 532,734 532,734 C532,734 495,783 495,783 C495,783 316,813 316,813 C316,813 314.8247,813.4521 304.1147,817.6021 " fill="none" id="ProductService-to-ProductCategoryRepository" style="stroke:#181818;stroke-width:1.0;stroke-dasharray:7.0,7.0;"/><polygon fill="#181818" points="298.52,819.77,308.3573,820.248,303.1822,817.9634,305.4668,812.7884,298.52,819.77" style="stroke:#181818;stroke-width:1.0;"/><text fill="#000000" font-family="sans-serif" font-size="13" lengthAdjust="spacing" textLength="157" x="585" y="678.5283">productCategoryRepository</text></g><!--link ProductService to Product--><g id="link_ProductService_Product"><path codeLine="89" d="M1121.36,508.02 C1226.49,537.6 1331,567 1331,567 C1331,567 1331,959 1331,959 C1331,959 1288.4507,995.173 1241.5207,1035.083 " fill="none" id="ProductService-to-Product" style="stroke:#181818;stroke-width:1.0;stroke-dasharray:7.0,7.0;"/><polygon fill="#181818" points="1236.95,1038.97,1246.3974,1036.1866,1240.7589,1035.7308,1241.2147,1030.0924,1236.95,1038.97" style="stroke:#181818;stroke-width:1.0;"/><text fill="#000000" font-family="sans-serif" font-size="13" lengthAdjust="spacing" textLength="43" x="1332" y="779.0283">product</text></g><!--link ProductService to ProductCategory--><g id="link_ProductService_ProductCategory"><path codeLine="90" d="M1159.81,508.02 C1233.17,525.5 1294,540 1294,540 C1294,540 1357,567 1357,567 C1357,567 1470,672 1470,672 C1470,672 1470,672 1470,1120 C1470,1120 1373.173,1218.178 1309.623,1282.618 " fill="none" id="ProductService-to-ProductCategory" style="stroke:#181818;stroke-width:1.0;stroke-dasharray:7.0,7.0;"/><polygon fill="#181818" points="1305.41,1286.89,1314.5776,1283.2906,1308.9209,1283.33,1308.8815,1277.6732,1305.41,1286.89" style="stroke:#181818;stroke-width:1.0;"/><text fill="#000000" font-family="sans-serif" font-size="13" lengthAdjust="spacing" textLength="95" x="1471" y="879.5283">productCategory</text></g><!--link Repositories to Repositories--><g id="link_Repositories_Repositories"><path codeLine="91" d="M435.12,657.53 C456.39,660.57 470,665.72 470,673 C470,680.28 462.3296,684.5811 441.0596,687.6211 " fill="none" id="Repositories-to-Repositories" style="stroke:#181818;stroke-width:1.0;"/><polygon fill="#181818" points="435.12,688.47,444.5954,691.1564,440.0697,687.7626,443.4635,683.2369,435.12,688.47" style="stroke:#181818;stroke-width:1.0;"/><text fill="#000000" font-family="sans-serif" font-size="13" lengthAdjust="spacing" textLength="49" x="476" y="678.5283">instance</text></g><!--link Repositories to ProductRepository--><g id="link_Repositories_ProductRepository"><path codeLine="92" d="M319.05,734.03 C343.81,750.54 364,764 364,764 C364,764 393.2755,796.2389 421.2555,827.0389 " fill="none" id="Repositories-to-ProductRepository" style="stroke:#181818;stroke-width:1.0;"/><polygon fill="#181818" points="425.29,831.48,422.199,822.1287,421.928,827.7791,416.2776,827.508,425.29,831.48" style="stroke:#181818;stroke-width:1.0;"/><text fill="#000000" font-family="sans-serif" font-size="13" lengthAdjust="spacing" textLength="105" x="381" y="779.0283">productRepository</text><text fill="#000000" font-family="sans-serif" font-size="13" lengthAdjust="spacing" textLength="7" x="322.5983" y="756.5205">1</text><text fill="#000000" font-family="sans-serif" font-size="13" lengthAdjust="spacing" textLength="7" x="411.7222" y="820.3809">1</text></g><!--link Repositories to ProductCategoryRepository--><g id="link_Repositories_ProductCategoryRepository"><path codeLine="93" d="M208.41,734.25 C199.89,759.18 191.969,782.362 183.459,807.282 " fill="none" id="Repositories-to-ProductCategoryRepository" style="stroke:#181818;stroke-width:1.0;"/><polygon fill="#181818" points="181.52,812.96,188.2139,805.7356,183.1358,808.2283,180.6432,803.1503,181.52,812.96" style="stroke:#181818;stroke-width:1.0;"/><text fill="#000000" font-family="sans-serif" font-size="13" lengthAdjust="spacing" textLength="157" x="198" y="779.0283">productCategoryRepository</text><text fill="#000000" font-family="sans-serif" font-size="13" lengthAdjust="spacing" textLength="7" x="198.6246" y="756.332">1</text><text fill="#000000" font-family="sans-serif" font-size="13" lengthAdjust="spacing" textLength="7" x="176.4879" y="801.9366">1</text></g><!--link ProductRepository to Product--><g id="link_ProductRepository_Product"><path codeLine="94" d="M579.68,916.64 C673.56,950.13 802.5489,996.1639 916.7689,1036.9139 " fill="none" id="ProductRepository-to-Product" style="stroke:#181818;stroke-width:1.0;"/><polygon fill="#181818" points="922.42,1038.93,915.2874,1032.1384,917.7107,1037.2499,912.5992,1039.6732,922.42,1038.93" style="stroke:#181818;stroke-width:1.0;"/><text fill="#000000" font-family="sans-serif" font-size="13" lengthAdjust="spacing" textLength="60" x="763" y="982.0283">categories</text><text fill="#000000" font-family="sans-serif" font-size="13" lengthAdjust="spacing" textLength="7" x="590.7181" y="938.8226">1</text><text fill="#000000" font-family="sans-serif" font-size="13" lengthAdjust="spacing" textLength="5" x="909.3671" y="1032.7855">*</text></g><!--link ProductCategoryRepository to ProductCategory--><g id="link_ProductCategoryRepository_ProductCategory"><path codeLine="95" d="M272,935.15 C296.84,948.62 316,959 316,959 C316,959 843,1199 843,1199 C843,1199 1142,1278 1142,1278 C1142,1278 1143.5408,1278.8161 1153.8608,1284.2961 " fill="none" id="ProductCategoryRepository-to-ProductCategory" style="stroke:#181818;stroke-width:1.0;"/><polygon fill="#181818" points="1159.16,1287.11,1153.0871,1279.3563,1154.744,1284.7651,1149.3352,1286.4219,1159.16,1287.11" style="stroke:#181818;stroke-width:1.0;"/><text fill="#000000" font-family="sans-serif" font-size="13" lengthAdjust="spacing" textLength="60" x="844" y="1124.5283">categories</text><text fill="#000000" font-family="sans-serif" font-size="13" lengthAdjust="spacing" textLength="7" x="278.1016" y="957.6551">1</text><text fill="#000000" font-family="sans-serif" font-size="13" lengthAdjust="spacing" textLength="5" x="1146.6308" y="1279.5311">*</text></g><!--link Product to ProductCategory--><g id="link_Product_ProductCategory"><path codeLine="96" d="M1184.23,1199.01 C1199.12,1228.26 1212.8775,1255.2732 1226.1875,1281.4132 " fill="none" id="Product-to-ProductCategory" style="stroke:#181818;stroke-width:1.0;"/><polygon fill="#181818" points="1228.91,1286.76,1228.3908,1276.9248,1226.6413,1282.3043,1221.2618,1280.5548,1228.91,1286.76" style="stroke:#181818;stroke-width:1.0;"/><text fill="#000000" font-family="sans-serif" font-size="13" lengthAdjust="spacing" textLength="21" x="1207" y="1244.0283">has</text><text fill="#000000" font-family="sans-serif" font-size="13" lengthAdjust="spacing" textLength="5" x="1182.4724" y="1220.6689">*</text><text fill="#000000" font-family="sans-serif" font-size="13" lengthAdjust="spacing" textLength="7" x="1217.9338" y="1275.6551">1</text></g><!--link Product to Part--><g id="link_Product_Part"><path codeLine="97" d="M1103.04,1199.01 C1089.59,1224.97 1083.1402,1237.3975 1070.5302,1261.7375 " fill="none" id="Product-to-Part" style="stroke:#181818;stroke-width:1.0;"/><polygon fill="none" points="1062.25,1277.72,1075.8576,1264.4976,1065.2027,1258.9775,1062.25,1277.72" style="stroke:#181818;stroke-width:1.0;"/></g><!--link ProductService to ProductException--><g id="link_ProductService_ProductException"><path codeLine="98" d="M968.83,508.03 C1004.55,543.28 1044.9498,583.1351 1078.9698,616.7151 " fill="none" id="ProductService-to-ProductException" style="stroke:#181818;stroke-width:1.0;stroke-dasharray:7.0,7.0;"/><polygon fill="#181818" points="1083.24,620.93,1079.6447,611.7608,1079.6815,617.4176,1074.0248,617.4544,1083.24,620.93" style="stroke:#181818;stroke-width:1.0;"/><text fill="#000000" font-family="sans-serif" font-size="13" lengthAdjust="spacing" textLength="38" x="1015" y="555.0283">throws</text></g><!--link ProductException to RuntimeException--><g id="link_ProductException_RuntimeException"><path codeLine="99" d="M1135,725.25 C1135,765.44 1135,801.49 1135,831.83 " fill="none" id="ProductException-to-RuntimeException" style="stroke:#181818;stroke-width:1.0;"/><polygon fill="none" points="1135,849.83,1141,831.83,1129,831.83,1135,849.83" style="stroke:#181818;stroke-width:1.0;"/></g><!--SRC=[pLR1Rjim3BtxAuISd2Kkjcim1CZQ3WYm3KE2Ve1YiuvGHJ8afMsszTz7Ux8bMtAQzTHSOellaTGJILa_C55HHG-aela3BM5hJXo8WjnGKN98T0VGUrh89oPASa-vzYsS2J2d2aWb-Qb-yMmvfrglZ55iTpImpgNOibz0FYQ93KWcT-i9-PqG_3LWie6IQGFgfvB5CJTtQsjzILuyrhKKHadEGVNPbkNCrbh_PYMOrauDb58nqEcKBCWtZFYvRpej7K_Pb5fJcjk7zSsSjCy_w05gNmCtPwBxViuoLL-IjFhtNqSN67LE2j2vOfLXKhY4wYVKYnbyqgWwlaikrPnKYkL-gX5vjw0U4HJLrjhUbR3juXTalbzLDr19pGnw6PQyNKVPF5apVpsTzZQy5XfRD8T6PHyNEnGND_KITAldQZJE3Qrskv5M3A23obbnVacj8F9_JjShYjjdzAm7n9sK7AXm14qVeSCC4R6DZMx8sctOhgn6emuAC8pjrz1tMG0Vz2LLnYyRLg27BSvSKRh5kgGZorwDXzPPxJbbHQGXfgEo-9cqSfuvgAnj9yGmOTnwtLp3jQRL8hjeUW_N2tdSuQtbyhVAHhTmSK-_Mjfl57ysl0xQDAUHSxzzpg59EpgJEwjVYjq0bUQhF8eYtZeTDIIkk09QnFjdd6tBk4_kTK6KsnDuSnI67S0Xq1f-65nTBSCBFma_0JoSlRoImLrM8tfJU84VGTvGZS33AR0WLJ1PnucHkTWvY8pNSKUETa6qC4RIstUM1K8mUzNqWPDFamPS_rycnMlqjmdYeJkV7oQUDddtHPAC1ufGFSL25mrm97yaxAb3PjcVPJEYpvoEQzy5CNibdpgwipH-Whxu2m00]--></g></svg>