<?xml version="1.0" encoding="us-ascii" standalone="no"?><svg xmlns="http://www.w3.org/2000/svg" xmlns:xlink="http://www.w3.org/1999/xlink" contentStyleType="text/css" height="381.6px" preserveAspectRatio="none" style="width:800px;height:381px;background:#FFFFFF;" version="1.1" viewBox="0 0 800 381" width="800.8px" zoomAndPan="magnify"><defs/><g><text fill="#000000" font-family="sans-serif" font-size="11.2" font-weight="bold" lengthAdjust="spacing" textLength="182.4" x="311" y="24.0859">System Sequence Diagram (SSD)</text><rect fill="#FFFFFF" height="201.3344" style="stroke:#181818;stroke-width:0.8000000000000002;" width="8" x="66" y="106.5938"/><rect fill="#FFFFFF" height="25.0328" style="stroke:#181818;stroke-width:0.8000000000000002;" width="8" x="713.2" y="125.2266"/><rect fill="#FFFFFF" height="81.4984" style="stroke:#181818;stroke-width:0.8000000000000002;" width="8" x="713.2" y="175.2922"/><rect fill="none" height="78.8031" style="stroke:#000000;stroke-width:1.2000000000000002;" width="742.8" x="8" y="222.725"/><line style="stroke:#181818;stroke-width:0.4000000000000001;stroke-dasharray:5.0,5.0;" x1="69.6" x2="69.6" y1="98.5938" y2="315.1281"/><line style="stroke:#181818;stroke-width:0.4000000000000001;stroke-dasharray:5.0,5.0;" x1="717.2" x2="717.2" y1="98.5938" y2="315.1281"/><text fill="#000000" font-family="sans-serif" font-size="11.2" lengthAdjust="spacing" textLength="103.2" x="16" y="95.7828">Plant Floor Manager</text><ellipse cx="70" cy="42.4969" fill="#E3E3E3" rx="6.4" ry="6.4" style="stroke:#181818;stroke-width:0.4000000000000001;"/><path d="M70,48.8969 L70,70.4969 M59.6,55.2969 L80.4,55.2969 M70,70.4969 L59.6,82.4969 M70,70.4969 L80.4,82.4969 " fill="none" style="stroke:#181818;stroke-width:0.4000000000000001;"/><text fill="#000000" font-family="sans-serif" font-size="11.2" lengthAdjust="spacing" textLength="103.2" x="16" y="326.4141">Plant Floor Manager</text><ellipse cx="70" cy="336.025" fill="#E3E3E3" rx="6.4" ry="6.4" style="stroke:#181818;stroke-width:0.4000000000000001;"/><path d="M70,342.425 L70,364.025 M59.6,348.825 L80.4,348.825 M70,364.025 L59.6,376.025 M70,364.025 L80.4,376.025 " fill="none" style="stroke:#181818;stroke-width:0.4000000000000001;"/><rect fill="#E3E3E3" height="26.0969" rx="2" ry="2" style="stroke:#181818;stroke-width:0.4000000000000001;" width="51.2" x="691.6" y="71.6969"/><text fill="#000000" font-family="sans-serif" font-size="11.2" lengthAdjust="spacing" textLength="40" x="697.2" y="89.3828">:System</text><rect fill="#E3E3E3" height="26.0969" rx="2" ry="2" style="stroke:#181818;stroke-width:0.4000000000000001;" width="51.2" x="691.6" y="314.3281"/><text fill="#000000" font-family="sans-serif" font-size="11.2" lengthAdjust="spacing" textLength="40" x="697.2" y="332.0141">:System</text><rect fill="#FFFFFF" height="201.3344" style="stroke:#181818;stroke-width:0.8000000000000002;" width="8" x="66" y="106.5938"/><rect fill="#FFFFFF" height="25.0328" style="stroke:#181818;stroke-width:0.8000000000000002;" width="8" x="713.2" y="125.2266"/><rect fill="#FFFFFF" height="81.4984" style="stroke:#181818;stroke-width:0.8000000000000002;" width="8" x="713.2" y="175.2922"/><polygon fill="#181818" points="703.6,122.0266,711.6,125.2266,703.6,128.4266,706.8,125.2266" style="stroke:#181818;stroke-width:0.8000000000000002;"/><line style="stroke:#181818;stroke-width:0.8000000000000002;" x1="74" x2="708.4" y1="125.2266" y2="125.2266"/><text fill="#000000" font-family="sans-serif" font-size="10.4" font-weight="bold" lengthAdjust="spacing" textLength="5.6" x="79.6" y="121.0164">1</text><text fill="#000000" font-family="sans-serif" font-size="10.4" lengthAdjust="spacing" textLength="158.4" x="88.4" y="121.0164">asks to register a new workstation</text><polygon fill="#181818" points="82.8,147.0594,74.8,150.2594,82.8,153.4594,79.6,150.2594" style="stroke:#181818;stroke-width:0.8000000000000002;"/><line style="stroke:#181818;stroke-width:0.8000000000000002;stroke-dasharray:2.0,2.0;" x1="78" x2="716.4" y1="150.2594" y2="150.2594"/><text fill="#000000" font-family="sans-serif" font-size="10.4" font-weight="bold" lengthAdjust="spacing" textLength="5.6" x="87.6" y="146.0492">2</text><text fill="#000000" font-family="sans-serif" font-size="10.4" lengthAdjust="spacing" textLength="611.2" x="96.4" y="146.0492">shows the list of workstation types and operation types and requests data (i.e. Operation Type ID, Workstation Type ID, Setup Time)</text><polygon fill="#181818" points="703.6,172.0922,711.6,175.2922,703.6,178.4922,706.8,175.2922" style="stroke:#181818;stroke-width:0.8000000000000002;"/><line style="stroke:#181818;stroke-width:0.8000000000000002;" x1="74" x2="708.4" y1="175.2922" y2="175.2922"/><text fill="#000000" font-family="sans-serif" font-size="10.4" font-weight="bold" lengthAdjust="spacing" textLength="5.6" x="79.6" y="171.082">3</text><text fill="#000000" font-family="sans-serif" font-size="10.4" lengthAdjust="spacing" textLength="134.4" x="88.4" y="171.082">types/selects requested data</text><line style="stroke:#181818;stroke-width:0.8000000000000002;" x1="721.2" x2="754.8" y1="200.325" y2="200.325"/><line style="stroke:#181818;stroke-width:0.8000000000000002;" x1="754.8" x2="754.8" y1="200.325" y2="210.725"/><line style="stroke:#181818;stroke-width:0.8000000000000002;" x1="722" x2="754.8" y1="210.725" y2="210.725"/><polygon fill="#181818" points="730,207.525,722,210.725,730,213.925,726.8,210.725" style="stroke:#181818;stroke-width:0.8000000000000002;"/><text fill="#000000" font-family="sans-serif" font-size="10.4" font-weight="bold" lengthAdjust="spacing" textLength="5.6" x="726.8" y="196.1148">4</text><text fill="#000000" font-family="sans-serif" font-size="10.4" lengthAdjust="spacing" textLength="60" x="735.6" y="196.1148">updates data</text><path d="M8,222.725 L56.8,222.725 L56.8,230.1578 L48.8,238.1578 L8,238.1578 L8,222.725 " fill="#EEEEEE" style="stroke:#000000;stroke-width:1.2000000000000002;"/><rect fill="none" height="78.8031" style="stroke:#000000;stroke-width:1.2000000000000002;" width="742.8" x="8" y="222.725"/><text fill="#000000" font-family="sans-serif" font-size="10.4" font-weight="bold" lengthAdjust="spacing" textLength="12.8" x="20" y="234.7477">alt</text><text fill="#000000" font-family="sans-serif" font-size="8.8" font-weight="bold" lengthAdjust="spacing" textLength="19.2" x="68.8" y="233.8211">[fail]</text><polygon fill="#181818" points="82.8,253.5906,74.8,256.7906,82.8,259.9906,79.6,256.7906" style="stroke:#181818;stroke-width:0.8000000000000002;"/><line style="stroke:#181818;stroke-width:0.8000000000000002;stroke-dasharray:2.0,2.0;" x1="78" x2="716.4" y1="256.7906" y2="256.7906"/><text fill="#000000" font-family="sans-serif" font-size="10.4" font-weight="bold" lengthAdjust="spacing" textLength="5.6" x="87.6" y="252.5805">5</text><text fill="#000000" font-family="sans-serif" font-size="10.4" lengthAdjust="spacing" textLength="99.2" x="96.4" y="252.5805">shows error message</text><line style="stroke:#000000;stroke-width:0.8000000000000002;stroke-dasharray:2.0,2.0;" x1="8" x2="750.8" y1="263.9906" y2="263.9906"/><text fill="#000000" font-family="sans-serif" font-size="8.8" font-weight="bold" lengthAdjust="spacing" textLength="44" x="12" y="273.4867">[success]</text><polygon fill="#181818" points="82.8,291.9281,74.8,295.1281,82.8,298.3281,79.6,295.1281" style="stroke:#181818;stroke-width:0.8000000000000002;"/><line style="stroke:#181818;stroke-width:0.8000000000000002;stroke-dasharray:2.0,2.0;" x1="78" x2="716.4" y1="295.1281" y2="295.1281"/><text fill="#000000" font-family="sans-serif" font-size="10.4" font-weight="bold" lengthAdjust="spacing" textLength="5.6" x="87.6" y="290.918">6</text><text fill="#000000" font-family="sans-serif" font-size="10.4" lengthAdjust="spacing" textLength="216" x="96.4" y="290.918">shows all data and displays operation success</text><!--SRC=[bPB1Ri8m38RlVGgB4qWRktFO2KtQ0GsfI3jxgIaHQPB5xgg-_Tm2NLKOsdnAxD-VxJXyj3vYmWggu8Cvf50HIAefuo4IqHonf5nQHv382FhIZGLym28qrfUmHyUKPM95fNdBGXNaz5cJDmHhYsKdd-VvUf5bM4lmTVL1ISz6GeBPrg4NU751BnlqMZJD01cscqmhYJKsTeBPweJkOwTZZx1VADI9Cr3RRk3n-TB4IgL71WawG6dLbG31KmDDI4SM51jydpLWBbmusndqg4mbhtJeq2ZmGE2K1s4_He6qaHZG5n0YfQalTK_2mb2W8CpjafRmDkXsgeFNzGEyZu23CoUf8-niHOk-ju9kjZoPlg_znEHqVNofJqNVmFsvf_EFe7NKTE8VoDZGYNu7wwu2lpycfQIBhuXPDtypxthOgOBq0mBNnYZb7wNHkTCoklKKbgF3baUxkqVyGrE- -0O0]--></g></svg>