<?xml version="1.0" encoding="us-ascii" standalone="no"?><svg xmlns="http://www.w3.org/2000/svg" xmlns:xlink="http://www.w3.org/1999/xlink" contentStyleType="text/css" height="1064px" preserveAspectRatio="none" style="width:1241px;height:1064px;background:#FFFFFF;" version="1.1" viewBox="0 0 1241 1064" width="1241.6px" zoomAndPan="magnify"><defs/><g><!--cluster UI--><g id="cluster_UI"><rect fill="none" height="80.8" rx="2" ry="2" style="stroke:#000000;stroke-width:1.2000000000000002;" width="200" x="624" y="5.6"/><text fill="#000000" font-family="sans-serif" font-size="11.2" font-weight="bold" lengthAdjust="spacing" textLength="11.2" x="718.4" y="19.2859">UI</text></g><!--cluster Controller--><g id="cluster_Controller"><rect fill="none" height="110.4" rx="2" ry="2" style="stroke:#000000;stroke-width:1.2000000000000002;" width="294.4" x="576.8" y="112.8"/><text fill="#000000" font-family="sans-serif" font-size="11.2" font-weight="bold" lengthAdjust="spacing" textLength="56.8" x="695.6" y="126.4859">Controller</text></g><!--cluster Service--><g id="cluster_Service"><rect fill="none" height="125.6" rx="2" ry="2" style="stroke:#000000;stroke-width:1.2000000000000002;" width="294.4" x="576.8" y="249.6"/><text fill="#000000" font-family="sans-serif" font-size="11.2" font-weight="bold" lengthAdjust="spacing" textLength="43.2" x="702.4" y="263.2859">Service</text></g><!--cluster Repository--><g id="cluster_Repository"><rect fill="none" height="271.2" rx="2" ry="2" style="stroke:#000000;stroke-width:1.2000000000000002;" width="442.4" x="5.6" y="416"/><text fill="#000000" font-family="sans-serif" font-size="11.2" font-weight="bold" lengthAdjust="spacing" textLength="60.8" x="196.4" y="429.6859">Repository</text></g><!--cluster Model--><g id="cluster_Model"><rect fill="none" height="331.2" rx="2" ry="2" style="stroke:#000000;stroke-width:1.2000000000000002;" width="380.8" x="707.2" y="728"/><text fill="#000000" font-family="sans-serif" font-size="11.2" font-weight="bold" lengthAdjust="spacing" textLength="35.2" x="880" y="741.6859">Model</text></g><!--cluster Exception--><g id="cluster_Exception"><rect fill="none" height="234.4" rx="2" ry="2" style="stroke:#000000;stroke-width:1.2000000000000002;" width="296" x="751.2" y="438"/><text fill="#000000" font-family="sans-serif" font-size="11.2" font-weight="bold" lengthAdjust="spacing" textLength="56" x="871.2" y="451.6859">Exception</text></g><!--class ConsultProductsInCategoryUI--><g id="elem_ConsultProductsInCategoryUI"><rect codeLine="7" fill="#F1F1F1" height="38.4" id="ConsultProductsInCategoryUI" rx="2" ry="2" style="stroke:#181818;stroke-width:0.4000000000000001;" width="173.6" x="637.2" y="35.2"/><ellipse cx="649.2" cy="48" fill="#ADD1B2" rx="8.8" ry="8.8" style="stroke:#181818;stroke-width:0.8000000000000002;"/><path d="M651.4125,44.7 Q651.5375,44.525 651.6875,44.4375 Q651.8375,44.35 652.0125,44.35 Q652.3125,44.35 652.5,44.5625 Q652.6875,44.7625 652.6875,45.25 L652.6875,46.4125 Q652.6875,46.9 652.5,47.1125 Q652.3125,47.325 652.0125,47.325 Q651.7375,47.325 651.575,47.1625 Q651.4125,47.0125 651.325,46.6 Q651.2875,46.3125 651.1375,46.1625 Q650.875,45.8625 650.3875,45.6875 Q649.9,45.5125 649.4,45.5125 Q648.7875,45.5125 648.275,45.775 Q647.775,46.0375 647.375,46.6375 Q646.9875,47.2375 646.9875,48.0625 L646.9875,48.9375 Q646.9875,49.925 647.7,50.5875 Q648.4125,51.2375 649.6875,51.2375 Q650.4375,51.2375 650.9625,51.0375 Q651.275,50.9125 651.6125,50.5625 Q651.825,50.35 651.9375,50.2875 Q652.0625,50.225 652.225,50.225 Q652.4875,50.225 652.6875,50.4375 Q652.9,50.6375 652.9,50.9125 Q652.9,51.1875 652.625,51.5125 Q652.225,51.975 651.5875,52.2375 Q650.725,52.6 649.6875,52.6 Q648.475,52.6 647.5125,52.1 Q646.725,51.7 646.175,50.85 Q645.625,49.9875 645.625,48.9625 L645.625,48.0375 Q645.625,46.975 646.1125,46.0625 Q646.6125,45.1375 647.4875,44.65 Q648.3625,44.15 649.35,44.15 Q649.9375,44.15 650.45,44.2875 Q650.975,44.4125 651.4125,44.7 Z " fill="#000000"/><text fill="#000000" font-family="sans-serif" font-size="11.2" lengthAdjust="spacing" textLength="148" x="660.4" y="52.6375">ConsultProductsInCategoryUI</text><line style="stroke:#181818;stroke-width:0.4000000000000001;" x1="638" x2="810" y1="60.8" y2="60.8"/><line style="stroke:#181818;stroke-width:0.4000000000000001;" x1="638" x2="810" y1="67.2" y2="67.2"/></g><!--class ProductController--><g id="elem_ProductController"><rect codeLine="12" fill="#F1F1F1" height="68.1938" id="ProductController" rx="2" ry="2" style="stroke:#181818;stroke-width:0.4000000000000001;" width="268.8" x="589.6" y="142.4"/><ellipse cx="676.2" cy="155.2" fill="#ADD1B2" rx="8.8" ry="8.8" style="stroke:#181818;stroke-width:0.8000000000000002;"/><path d="M678.4125,151.9 Q678.5375,151.725 678.6875,151.6375 Q678.8375,151.55 679.0125,151.55 Q679.3125,151.55 679.5,151.7625 Q679.6875,151.9625 679.6875,152.45 L679.6875,153.6125 Q679.6875,154.1 679.5,154.3125 Q679.3125,154.525 679.0125,154.525 Q678.7375,154.525 678.575,154.3625 Q678.4125,154.2125 678.325,153.8 Q678.2875,153.5125 678.1375,153.3625 Q677.875,153.0625 677.3875,152.8875 Q676.9,152.7125 676.4,152.7125 Q675.7875,152.7125 675.275,152.975 Q674.775,153.2375 674.375,153.8375 Q673.9875,154.4375 673.9875,155.2625 L673.9875,156.1375 Q673.9875,157.125 674.7,157.7875 Q675.4125,158.4375 676.6875,158.4375 Q677.4375,158.4375 677.9625,158.2375 Q678.275,158.1125 678.6125,157.7625 Q678.825,157.55 678.9375,157.4875 Q679.0625,157.425 679.225,157.425 Q679.4875,157.425 679.6875,157.6375 Q679.9,157.8375 679.9,158.1125 Q679.9,158.3875 679.625,158.7125 Q679.225,159.175 678.5875,159.4375 Q677.725,159.8 676.6875,159.8 Q675.475,159.8 674.5125,159.3 Q673.725,158.9 673.175,158.05 Q672.625,157.1875 672.625,156.1625 L672.625,155.2375 Q672.625,154.175 673.1125,153.2625 Q673.6125,152.3375 674.4875,151.85 Q675.3625,151.35 676.35,151.35 Q676.9375,151.35 677.45,151.4875 Q677.975,151.6125 678.4125,151.9 Z " fill="#000000"/><text fill="#000000" font-family="sans-serif" font-size="11.2" lengthAdjust="spacing" textLength="88.8" x="692.6" y="159.8375">ProductController</text><line style="stroke:#181818;stroke-width:0.4000000000000001;" x1="590.4" x2="857.6" y1="168" y2="168"/><line style="stroke:#181818;stroke-width:0.4000000000000001;" x1="590.4" x2="857.6" y1="174.4" y2="174.4"/><text fill="#000000" font-family="sans-serif" font-size="11.2" lengthAdjust="spacing" textLength="250.4" x="594.4" y="189.6859">+getProductCategories() : List&lt;ProductCategory&gt;</text><text fill="#000000" font-family="sans-serif" font-size="11.2" lengthAdjust="spacing" textLength="259.2" x="594.4" y="204.5828">+productListInCategory(categoryID) : List&lt;Product&gt;</text></g><!--class ProductService--><g id="elem_ProductService"><rect codeLine="19" fill="#F1F1F1" height="83.0906" id="ProductService" rx="2" ry="2" style="stroke:#181818;stroke-width:0.4000000000000001;" width="268.8" x="589.6" y="279.2"/><ellipse cx="682.2" cy="292" fill="#ADD1B2" rx="8.8" ry="8.8" style="stroke:#181818;stroke-width:0.8000000000000002;"/><path d="M684.4125,288.7 Q684.5375,288.525 684.6875,288.4375 Q684.8375,288.35 685.0125,288.35 Q685.3125,288.35 685.5,288.5625 Q685.6875,288.7625 685.6875,289.25 L685.6875,290.4125 Q685.6875,290.9 685.5,291.1125 Q685.3125,291.325 685.0125,291.325 Q684.7375,291.325 684.575,291.1625 Q684.4125,291.0125 684.325,290.6 Q684.2875,290.3125 684.1375,290.1625 Q683.875,289.8625 683.3875,289.6875 Q682.9,289.5125 682.4,289.5125 Q681.7875,289.5125 681.275,289.775 Q680.775,290.0375 680.375,290.6375 Q679.9875,291.2375 679.9875,292.0625 L679.9875,292.9375 Q679.9875,293.925 680.7,294.5875 Q681.4125,295.2375 682.6875,295.2375 Q683.4375,295.2375 683.9625,295.0375 Q684.275,294.9125 684.6125,294.5625 Q684.825,294.35 684.9375,294.2875 Q685.0625,294.225 685.225,294.225 Q685.4875,294.225 685.6875,294.4375 Q685.9,294.6375 685.9,294.9125 Q685.9,295.1875 685.625,295.5125 Q685.225,295.975 684.5875,296.2375 Q683.725,296.6 682.6875,296.6 Q681.475,296.6 680.5125,296.1 Q679.725,295.7 679.175,294.85 Q678.625,293.9875 678.625,292.9625 L678.625,292.0375 Q678.625,290.975 679.1125,290.0625 Q679.6125,289.1375 680.4875,288.65 Q681.3625,288.15 682.35,288.15 Q682.9375,288.15 683.45,288.2875 Q683.975,288.4125 684.4125,288.7 Z " fill="#000000"/><text fill="#000000" font-family="sans-serif" font-size="11.2" lengthAdjust="spacing" textLength="76.8" x="698.6" y="296.6375">ProductService</text><line style="stroke:#181818;stroke-width:0.4000000000000001;" x1="590.4" x2="857.6" y1="304.8" y2="304.8"/><line style="stroke:#181818;stroke-width:0.4000000000000001;" x1="590.4" x2="857.6" y1="311.2" y2="311.2"/><text fill="#000000" font-family="sans-serif" font-size="11.2" lengthAdjust="spacing" textLength="250.4" x="594.4" y="326.4859">+getProductCategories() : List&lt;ProductCategory&gt;</text><text fill="#000000" font-family="sans-serif" font-size="11.2" lengthAdjust="spacing" textLength="247.2" x="594.4" y="341.3828">-getCategoryByID(categoryID) : ProductCategory</text><text fill="#000000" font-family="sans-serif" font-size="11.2" lengthAdjust="spacing" textLength="259.2" x="594.4" y="356.2797">+productListInCategory(categoryID) : List&lt;Product&gt;</text></g><!--class Repositories--><g id="elem_Repositories"><rect codeLine="27" fill="#F1F1F1" height="97.9875" id="Repositories" rx="2" ry="2" style="stroke:#181818;stroke-width:0.4000000000000001;" width="329.6" x="18.4" y="445.6"/><ellipse cx="148.2" cy="458.4" fill="#ADD1B2" rx="8.8" ry="8.8" style="stroke:#181818;stroke-width:0.8000000000000002;"/><path d="M150.4125,455.1 Q150.5375,454.925 150.6875,454.8375 Q150.8375,454.75 151.0125,454.75 Q151.3125,454.75 151.5,454.9625 Q151.6875,455.1625 151.6875,455.65 L151.6875,456.8125 Q151.6875,457.3 151.5,457.5125 Q151.3125,457.725 151.0125,457.725 Q150.7375,457.725 150.575,457.5625 Q150.4125,457.4125 150.325,457 Q150.2875,456.7125 150.1375,456.5625 Q149.875,456.2625 149.3875,456.0875 Q148.9,455.9125 148.4,455.9125 Q147.7875,455.9125 147.275,456.175 Q146.775,456.4375 146.375,457.0375 Q145.9875,457.6375 145.9875,458.4625 L145.9875,459.3375 Q145.9875,460.325 146.7,460.9875 Q147.4125,461.6375 148.6875,461.6375 Q149.4375,461.6375 149.9625,461.4375 Q150.275,461.3125 150.6125,460.9625 Q150.825,460.75 150.9375,460.6875 Q151.0625,460.625 151.225,460.625 Q151.4875,460.625 151.6875,460.8375 Q151.9,461.0375 151.9,461.3125 Q151.9,461.5875 151.625,461.9125 Q151.225,462.375 150.5875,462.6375 Q149.725,463 148.6875,463 Q147.475,463 146.5125,462.5 Q145.725,462.1 145.175,461.25 Q144.625,460.3875 144.625,459.3625 L144.625,458.4375 Q144.625,457.375 145.1125,456.4625 Q145.6125,455.5375 146.4875,455.05 Q147.3625,454.55 148.35,454.55 Q148.9375,454.55 149.45,454.6875 Q149.975,454.8125 150.4125,455.1 Z " fill="#000000"/><text fill="#000000" font-family="sans-serif" font-size="11.2" lengthAdjust="spacing" textLength="63.2" x="164.6" y="463.0375">Repositories</text><line style="stroke:#181818;stroke-width:0.4000000000000001;" x1="19.2" x2="347.2" y1="471.2" y2="471.2"/><line style="stroke:#181818;stroke-width:0.4000000000000001;" x1="19.2" x2="347.2" y1="477.6" y2="477.6"/><text fill="#000000" font-family="sans-serif" font-size="11.2" lengthAdjust="spacing" textLength="75.2" x="23.2" y="492.8859">-Repositories()</text><text fill="#000000" font-family="sans-serif" font-size="11.2" lengthAdjust="spacing" textLength="145.6" x="23.2" y="507.7828">+getInstance() : Repositories</text><text fill="#000000" font-family="sans-serif" font-size="11.2" lengthAdjust="spacing" textLength="227.2" x="23.2" y="522.6797">+getProductRepository() : ProductRepository</text><text fill="#000000" font-family="sans-serif" font-size="11.2" lengthAdjust="spacing" textLength="320" x="23.2" y="537.5766">+getProductCategoryRepository() : ProductCategoryRepository</text></g><!--class ProductCategoryRepository--><g id="elem_ProductCategoryRepository"><rect codeLine="34" fill="#F1F1F1" height="68.1938" id="ProductCategoryRepository" rx="2" ry="2" style="stroke:#181818;stroke-width:0.4000000000000001;" width="212.8" x="18.4" y="606.4"/><ellipse cx="51.64" cy="619.2" fill="#ADD1B2" rx="8.8" ry="8.8" style="stroke:#181818;stroke-width:0.8000000000000002;"/><path d="M53.8525,615.9 Q53.9775,615.725 54.1275,615.6375 Q54.2775,615.55 54.4525,615.55 Q54.7525,615.55 54.94,615.7625 Q55.1275,615.9625 55.1275,616.45 L55.1275,617.6125 Q55.1275,618.1 54.94,618.3125 Q54.7525,618.525 54.4525,618.525 Q54.1775,618.525 54.015,618.3625 Q53.8525,618.2125 53.765,617.8 Q53.7275,617.5125 53.5775,617.3625 Q53.315,617.0625 52.8275,616.8875 Q52.34,616.7125 51.84,616.7125 Q51.2275,616.7125 50.715,616.975 Q50.215,617.2375 49.815,617.8375 Q49.4275,618.4375 49.4275,619.2625 L49.4275,620.1375 Q49.4275,621.125 50.14,621.7875 Q50.8525,622.4375 52.1275,622.4375 Q52.8775,622.4375 53.4025,622.2375 Q53.715,622.1125 54.0525,621.7625 Q54.265,621.55 54.3775,621.4875 Q54.5025,621.425 54.665,621.425 Q54.9275,621.425 55.1275,621.6375 Q55.34,621.8375 55.34,622.1125 Q55.34,622.3875 55.065,622.7125 Q54.665,623.175 54.0275,623.4375 Q53.165,623.8 52.1275,623.8 Q50.915,623.8 49.9525,623.3 Q49.165,622.9 48.615,622.05 Q48.065,621.1875 48.065,620.1625 L48.065,619.2375 Q48.065,618.175 48.5525,617.2625 Q49.0525,616.3375 49.9275,615.85 Q50.8025,615.35 51.79,615.35 Q52.3775,615.35 52.89,615.4875 Q53.415,615.6125 53.8525,615.9 Z " fill="#000000"/><text fill="#000000" font-family="sans-serif" font-size="11.2" lengthAdjust="spacing" textLength="140" x="67.56" y="623.8375">ProductCategoryRepository</text><line style="stroke:#181818;stroke-width:0.4000000000000001;" x1="19.2" x2="230.4" y1="632" y2="632"/><line style="stroke:#181818;stroke-width:0.4000000000000001;" x1="19.2" x2="230.4" y1="638.4" y2="638.4"/><text fill="#000000" font-family="sans-serif" font-size="11.2" lengthAdjust="spacing" textLength="168" x="23.2" y="653.6859">+getAll() : List&lt;ProductCategory&gt;</text><text fill="#000000" font-family="sans-serif" font-size="11.2" lengthAdjust="spacing" textLength="203.2" x="23.2" y="668.5828">+getByID(categoryID) : ProductCategory</text></g><!--class ProductRepository--><g id="elem_ProductRepository"><rect codeLine="39" fill="#F1F1F1" height="53.2969" id="ProductRepository" rx="2" ry="2" style="stroke:#181818;stroke-width:0.4000000000000001;" width="176" x="259.2" y="613.6"/><ellipse cx="297" cy="626.4" fill="#ADD1B2" rx="8.8" ry="8.8" style="stroke:#181818;stroke-width:0.8000000000000002;"/><path d="M299.2125,623.1 Q299.3375,622.925 299.4875,622.8375 Q299.6375,622.75 299.8125,622.75 Q300.1125,622.75 300.3,622.9625 Q300.4875,623.1625 300.4875,623.65 L300.4875,624.8125 Q300.4875,625.3 300.3,625.5125 Q300.1125,625.725 299.8125,625.725 Q299.5375,625.725 299.375,625.5625 Q299.2125,625.4125 299.125,625 Q299.0875,624.7125 298.9375,624.5625 Q298.675,624.2625 298.1875,624.0875 Q297.7,623.9125 297.2,623.9125 Q296.5875,623.9125 296.075,624.175 Q295.575,624.4375 295.175,625.0375 Q294.7875,625.6375 294.7875,626.4625 L294.7875,627.3375 Q294.7875,628.325 295.5,628.9875 Q296.2125,629.6375 297.4875,629.6375 Q298.2375,629.6375 298.7625,629.4375 Q299.075,629.3125 299.4125,628.9625 Q299.625,628.75 299.7375,628.6875 Q299.8625,628.625 300.025,628.625 Q300.2875,628.625 300.4875,628.8375 Q300.7,629.0375 300.7,629.3125 Q300.7,629.5875 300.425,629.9125 Q300.025,630.375 299.3875,630.6375 Q298.525,631 297.4875,631 Q296.275,631 295.3125,630.5 Q294.525,630.1 293.975,629.25 Q293.425,628.3875 293.425,627.3625 L293.425,626.4375 Q293.425,625.375 293.9125,624.4625 Q294.4125,623.5375 295.2875,623.05 Q296.1625,622.55 297.15,622.55 Q297.7375,622.55 298.25,622.6875 Q298.775,622.8125 299.2125,623.1 Z " fill="#000000"/><text fill="#000000" font-family="sans-serif" font-size="11.2" lengthAdjust="spacing" textLength="93.6" x="313.4" y="631.0375">ProductRepository</text><line style="stroke:#181818;stroke-width:0.4000000000000001;" x1="260" x2="434.4" y1="639.2" y2="639.2"/><line style="stroke:#181818;stroke-width:0.4000000000000001;" x1="260" x2="434.4" y1="645.6" y2="645.6"/><text fill="#000000" font-family="sans-serif" font-size="11.2" lengthAdjust="spacing" textLength="166.4" x="264" y="660.8859">+getAllProducts() : List&lt;Product&gt;</text></g><!--class Part--><g id="elem_Part"><rect codeLine="45" fill="#F1F1F1" height="97.9875" id="Part" rx="2" ry="2" style="stroke:#181818;stroke-width:0.4000000000000001;" width="149.6" x="732.4" y="948.8"/><ellipse cx="793.4" cy="961.6" fill="#ADD1B2" rx="8.8" ry="8.8" style="stroke:#181818;stroke-width:0.8000000000000002;"/><path d="M795.6125,958.3 Q795.7375,958.125 795.8875,958.0375 Q796.0375,957.95 796.2125,957.95 Q796.5125,957.95 796.7,958.1625 Q796.8875,958.3625 796.8875,958.85 L796.8875,960.0125 Q796.8875,960.5 796.7,960.7125 Q796.5125,960.925 796.2125,960.925 Q795.9375,960.925 795.775,960.7625 Q795.6125,960.6125 795.525,960.2 Q795.4875,959.9125 795.3375,959.7625 Q795.075,959.4625 794.5875,959.2875 Q794.1,959.1125 793.6,959.1125 Q792.9875,959.1125 792.475,959.375 Q791.975,959.6375 791.575,960.2375 Q791.1875,960.8375 791.1875,961.6625 L791.1875,962.5375 Q791.1875,963.525 791.9,964.1875 Q792.6125,964.8375 793.8875,964.8375 Q794.6375,964.8375 795.1625,964.6375 Q795.475,964.5125 795.8125,964.1625 Q796.025,963.95 796.1375,963.8875 Q796.2625,963.825 796.425,963.825 Q796.6875,963.825 796.8875,964.0375 Q797.1,964.2375 797.1,964.5125 Q797.1,964.7875 796.825,965.1125 Q796.425,965.575 795.7875,965.8375 Q794.925,966.2 793.8875,966.2 Q792.675,966.2 791.7125,965.7 Q790.925,965.3 790.375,964.45 Q789.825,963.5875 789.825,962.5625 L789.825,961.6375 Q789.825,960.575 790.3125,959.6625 Q790.8125,958.7375 791.6875,958.25 Q792.5625,957.75 793.55,957.75 Q794.1375,957.75 794.65,957.8875 Q795.175,958.0125 795.6125,958.3 Z " fill="#000000"/><text fill="#000000" font-family="sans-serif" font-size="11.2" lengthAdjust="spacing" textLength="20.8" x="809.8" y="966.2375">Part</text><line style="stroke:#181818;stroke-width:0.4000000000000001;" x1="733.2" x2="881.2" y1="974.4" y2="974.4"/><text fill="#000000" font-family="sans-serif" font-size="11.2" lengthAdjust="spacing" textLength="52" x="737.2" y="989.6859">-id : String</text><text fill="#000000" font-family="sans-serif" font-size="11.2" lengthAdjust="spacing" textLength="71.2" x="737.2" y="1004.5828">-name : String</text><text fill="#000000" font-family="sans-serif" font-size="11.2" lengthAdjust="spacing" textLength="98.4" x="737.2" y="1019.4797">-description : String</text><line style="stroke:#181818;stroke-width:0.4000000000000001;" x1="733.2" x2="881.2" y1="1025.4906" y2="1025.4906"/><text fill="#000000" font-family="sans-serif" font-size="11.2" lengthAdjust="spacing" textLength="140" x="737.2" y="1040.7766">+Part(id, name, description)</text></g><!--class Product--><g id="elem_Product"><rect codeLine="52" fill="#F1F1F1" height="127.7813" id="Product" rx="2" ry="2" style="stroke:#181818;stroke-width:0.4000000000000001;" width="354.4" x="720.4" y="757.6"/><ellipse cx="874.6" cy="770.4" fill="#ADD1B2" rx="8.8" ry="8.8" style="stroke:#181818;stroke-width:0.8000000000000002;"/><path d="M876.8125,767.1 Q876.9375,766.925 877.0875,766.8375 Q877.2375,766.75 877.4125,766.75 Q877.7125,766.75 877.9,766.9625 Q878.0875,767.1625 878.0875,767.65 L878.0875,768.8125 Q878.0875,769.3 877.9,769.5125 Q877.7125,769.725 877.4125,769.725 Q877.1375,769.725 876.975,769.5625 Q876.8125,769.4125 876.725,769 Q876.6875,768.7125 876.5375,768.5625 Q876.275,768.2625 875.7875,768.0875 Q875.3,767.9125 874.8,767.9125 Q874.1875,767.9125 873.675,768.175 Q873.175,768.4375 872.775,769.0375 Q872.3875,769.6375 872.3875,770.4625 L872.3875,771.3375 Q872.3875,772.325 873.1,772.9875 Q873.8125,773.6375 875.0875,773.6375 Q875.8375,773.6375 876.3625,773.4375 Q876.675,773.3125 877.0125,772.9625 Q877.225,772.75 877.3375,772.6875 Q877.4625,772.625 877.625,772.625 Q877.8875,772.625 878.0875,772.8375 Q878.3,773.0375 878.3,773.3125 Q878.3,773.5875 878.025,773.9125 Q877.625,774.375 876.9875,774.6375 Q876.125,775 875.0875,775 Q873.875,775 872.9125,774.5 Q872.125,774.1 871.575,773.25 Q871.025,772.3875 871.025,771.3625 L871.025,770.4375 Q871.025,769.375 871.5125,768.4625 Q872.0125,767.5375 872.8875,767.05 Q873.7625,766.55 874.75,766.55 Q875.3375,766.55 875.85,766.6875 Q876.375,766.8125 876.8125,767.1 Z " fill="#000000"/><text fill="#000000" font-family="sans-serif" font-size="11.2" lengthAdjust="spacing" textLength="39.2" x="891" y="775.0375">Product</text><line style="stroke:#181818;stroke-width:0.4000000000000001;" x1="721.2" x2="1074" y1="783.2" y2="783.2"/><text fill="#000000" font-family="sans-serif" font-size="11.2" lengthAdjust="spacing" textLength="143.2" x="725.2" y="798.4859">-category : ProductCategory</text><text fill="#000000" font-family="sans-serif" font-size="11.2" lengthAdjust="spacing" textLength="67.2" x="725.2" y="813.3828">-capacity : int</text><text fill="#000000" font-family="sans-serif" font-size="11.2" lengthAdjust="spacing" textLength="44.8" x="725.2" y="828.2797">-size : int</text><text fill="#000000" font-family="sans-serif" font-size="11.2" lengthAdjust="spacing" textLength="68" x="725.2" y="843.1766">-color : String</text><text fill="#000000" font-family="sans-serif" font-size="11.2" lengthAdjust="spacing" textLength="72.8" x="725.2" y="858.0734">-price : double</text><line style="stroke:#181818;stroke-width:0.4000000000000001;" x1="721.2" x2="1074" y1="864.0844" y2="864.0844"/><text fill="#000000" font-family="sans-serif" font-size="11.2" lengthAdjust="spacing" textLength="344.8" x="725.2" y="879.3703">+Product(id, name, description, category, capacity, size, color, price)</text></g><!--class ProductCategory--><g id="elem_ProductCategory"><rect codeLine="61" fill="#F1F1F1" height="83.0906" id="ProductCategory" rx="2" ry="2" style="stroke:#181818;stroke-width:0.4000000000000001;" width="152.8" x="910" y="956"/><ellipse cx="940.72" cy="968.8" fill="#ADD1B2" rx="8.8" ry="8.8" style="stroke:#181818;stroke-width:0.8000000000000002;"/><path d="M942.9325,965.5 Q943.0575,965.325 943.2075,965.2375 Q943.3575,965.15 943.5325,965.15 Q943.8325,965.15 944.02,965.3625 Q944.2075,965.5625 944.2075,966.05 L944.2075,967.2125 Q944.2075,967.7 944.02,967.9125 Q943.8325,968.125 943.5325,968.125 Q943.2575,968.125 943.095,967.9625 Q942.9325,967.8125 942.845,967.4 Q942.8075,967.1125 942.6575,966.9625 Q942.395,966.6625 941.9075,966.4875 Q941.42,966.3125 940.92,966.3125 Q940.3075,966.3125 939.795,966.575 Q939.295,966.8375 938.895,967.4375 Q938.5075,968.0375 938.5075,968.8625 L938.5075,969.7375 Q938.5075,970.725 939.22,971.3875 Q939.9325,972.0375 941.2075,972.0375 Q941.9575,972.0375 942.4825,971.8375 Q942.795,971.7125 943.1325,971.3625 Q943.345,971.15 943.4575,971.0875 Q943.5825,971.025 943.745,971.025 Q944.0075,971.025 944.2075,971.2375 Q944.42,971.4375 944.42,971.7125 Q944.42,971.9875 944.145,972.3125 Q943.745,972.775 943.1075,973.0375 Q942.245,973.4 941.2075,973.4 Q939.995,973.4 939.0325,972.9 Q938.245,972.5 937.695,971.65 Q937.145,970.7875 937.145,969.7625 L937.145,968.8375 Q937.145,967.775 937.6325,966.8625 Q938.1325,965.9375 939.0075,965.45 Q939.8825,964.95 940.87,964.95 Q941.4575,964.95 941.97,965.0875 Q942.495,965.2125 942.9325,965.5 Z " fill="#000000"/><text fill="#000000" font-family="sans-serif" font-size="11.2" lengthAdjust="spacing" textLength="85.6" x="956.08" y="973.4375">ProductCategory</text><line style="stroke:#181818;stroke-width:0.4000000000000001;" x1="910.8" x2="1062" y1="981.6" y2="981.6"/><text fill="#000000" font-family="sans-serif" font-size="11.2" lengthAdjust="spacing" textLength="52" x="914.8" y="996.8859">-id : String</text><text fill="#000000" font-family="sans-serif" font-size="11.2" lengthAdjust="spacing" textLength="71.2" x="914.8" y="1011.7828">-name : String</text><line style="stroke:#181818;stroke-width:0.4000000000000001;" x1="910.8" x2="1062" y1="1017.7938" y2="1017.7938"/><text fill="#000000" font-family="sans-serif" font-size="11.2" lengthAdjust="spacing" textLength="143.2" x="914.8" y="1033.0797">+ProductCategory(id, name)</text></g><!--class ProductException--><g id="elem_ProductException"><rect codeLine="69" fill="#F1F1F1" height="53.2969" id="ProductException" rx="2" ry="2" style="stroke:#181818;stroke-width:0.4000000000000001;" width="269.6" x="764.4" y="467.6"/><ellipse cx="851.8" cy="480.4" fill="#ADD1B2" rx="8.8" ry="8.8" style="stroke:#181818;stroke-width:0.8000000000000002;"/><path d="M854.0125,477.1 Q854.1375,476.925 854.2875,476.8375 Q854.4375,476.75 854.6125,476.75 Q854.9125,476.75 855.1,476.9625 Q855.2875,477.1625 855.2875,477.65 L855.2875,478.8125 Q855.2875,479.3 855.1,479.5125 Q854.9125,479.725 854.6125,479.725 Q854.3375,479.725 854.175,479.5625 Q854.0125,479.4125 853.925,479 Q853.8875,478.7125 853.7375,478.5625 Q853.475,478.2625 852.9875,478.0875 Q852.5,477.9125 852,477.9125 Q851.3875,477.9125 850.875,478.175 Q850.375,478.4375 849.975,479.0375 Q849.5875,479.6375 849.5875,480.4625 L849.5875,481.3375 Q849.5875,482.325 850.3,482.9875 Q851.0125,483.6375 852.2875,483.6375 Q853.0375,483.6375 853.5625,483.4375 Q853.875,483.3125 854.2125,482.9625 Q854.425,482.75 854.5375,482.6875 Q854.6625,482.625 854.825,482.625 Q855.0875,482.625 855.2875,482.8375 Q855.5,483.0375 855.5,483.3125 Q855.5,483.5875 855.225,483.9125 Q854.825,484.375 854.1875,484.6375 Q853.325,485 852.2875,485 Q851.075,485 850.1125,484.5 Q849.325,484.1 848.775,483.25 Q848.225,482.3875 848.225,481.3625 L848.225,480.4375 Q848.225,479.375 848.7125,478.4625 Q849.2125,477.5375 850.0875,477.05 Q850.9625,476.55 851.95,476.55 Q852.5375,476.55 853.05,476.6875 Q853.575,476.8125 854.0125,477.1 Z " fill="#000000"/><text fill="#000000" font-family="sans-serif" font-size="11.2" lengthAdjust="spacing" textLength="88" x="868.2" y="485.0375">ProductException</text><line style="stroke:#181818;stroke-width:0.4000000000000001;" x1="765.2" x2="1033.2" y1="493.2" y2="493.2"/><line style="stroke:#181818;stroke-width:0.4000000000000001;" x1="765.2" x2="1033.2" y1="499.6" y2="499.6"/><text fill="#000000" font-family="sans-serif" font-size="11.2" lengthAdjust="spacing" textLength="260" x="769.2" y="514.8859">+categoryNotFound(categoryID) : ProductException</text></g><!--class RuntimeException--><g id="elem_RuntimeException"><rect codeLine="73" fill="#F1F1F1" height="38.4" id="RuntimeException" rx="2" ry="2" style="stroke:#181818;stroke-width:0.4000000000000001;" width="116" x="841.2" y="621.2"/><ellipse cx="853.2" cy="634" fill="#ADD1B2" rx="8.8" ry="8.8" style="stroke:#181818;stroke-width:0.8000000000000002;"/><path d="M855.4125,630.7 Q855.5375,630.525 855.6875,630.4375 Q855.8375,630.35 856.0125,630.35 Q856.3125,630.35 856.5,630.5625 Q856.6875,630.7625 856.6875,631.25 L856.6875,632.4125 Q856.6875,632.9 856.5,633.1125 Q856.3125,633.325 856.0125,633.325 Q855.7375,633.325 855.575,633.1625 Q855.4125,633.0125 855.325,632.6 Q855.2875,632.3125 855.1375,632.1625 Q854.875,631.8625 854.3875,631.6875 Q853.9,631.5125 853.4,631.5125 Q852.7875,631.5125 852.275,631.775 Q851.775,632.0375 851.375,632.6375 Q850.9875,633.2375 850.9875,634.0625 L850.9875,634.9375 Q850.9875,635.925 851.7,636.5875 Q852.4125,637.2375 853.6875,637.2375 Q854.4375,637.2375 854.9625,637.0375 Q855.275,636.9125 855.6125,636.5625 Q855.825,636.35 855.9375,636.2875 Q856.0625,636.225 856.225,636.225 Q856.4875,636.225 856.6875,636.4375 Q856.9,636.6375 856.9,636.9125 Q856.9,637.1875 856.625,637.5125 Q856.225,637.975 855.5875,638.2375 Q854.725,638.6 853.6875,638.6 Q852.475,638.6 851.5125,638.1 Q850.725,637.7 850.175,636.85 Q849.625,635.9875 849.625,634.9625 L849.625,634.0375 Q849.625,632.975 850.1125,632.0625 Q850.6125,631.1375 851.4875,630.65 Q852.3625,630.15 853.35,630.15 Q853.9375,630.15 854.45,630.2875 Q854.975,630.4125 855.4125,630.7 Z " fill="#000000"/><text fill="#000000" font-family="sans-serif" font-size="11.2" lengthAdjust="spacing" textLength="90.4" x="864.4" y="638.6375">RuntimeException</text><line style="stroke:#181818;stroke-width:0.4000000000000001;" x1="842" x2="956.4" y1="646.8" y2="646.8"/><line style="stroke:#181818;stroke-width:0.4000000000000001;" x1="842" x2="956.4" y1="653.2" y2="653.2"/></g><!--link ConsultProductsInCategoryUI to ProductController--><g id="link_ConsultProductsInCategoryUI_ProductController"><path codeLine="76" d="M724,73.752 C724,91.952 724,115.328 724,137.432 " fill="none" id="ConsultProductsInCategoryUI-to-ProductController" style="stroke:#181818;stroke-width:0.8000000000000002;stroke-dasharray:7.0,7.0;"/><polygon fill="#181818" points="724,142.232,727.2,135.032,724,138.232,720.8,135.032,724,142.232" style="stroke:#181818;stroke-width:0.8000000000000002;"/></g><!--link ProductController to ProductService--><g id="link_ProductController_ProductService"><path codeLine="77" d="M724,210.68 C724,231.128 724,252.608 724,274.288 " fill="none" id="ProductController-to-ProductService" style="stroke:#181818;stroke-width:0.8000000000000002;stroke-dasharray:7.0,7.0;"/><polygon fill="#181818" points="724,279.088,727.2,271.888,724,275.088,720.8,271.888,724,279.088" style="stroke:#181818;stroke-width:0.8000000000000002;"/></g><!--link ProductService to Repositories--><g id="link_ProductService_Repositories"><path codeLine="78" d="M589.6,348.416 C497.232,366.848 391.2,388 391.2,388 C391.2,388 336.992,415.523 282.048,443.419 " fill="none" id="ProductService-to-Repositories" style="stroke:#181818;stroke-width:0.8000000000000002;stroke-dasharray:7.0,7.0;"/><polygon fill="#181818" points="277.768,445.592,285.6366,445.1858,281.3346,443.7812,282.7393,439.4792,277.768,445.592" style="stroke:#181818;stroke-width:0.8000000000000002;"/><text fill="#000000" font-family="sans-serif" font-size="10.4" lengthAdjust="spacing" textLength="53.6" x="392" y="400.0227">repositories</text></g><!--link ProductService to ProductRepository--><g id="link_ProductService_ProductRepository"><path codeLine="79" d="M696.848,362.512 C681.6,385.488 665.6,409.6 665.6,409.6 C665.6,409.6 600.8,543.2 600.8,543.2 C600.8,543.2 495.4228,583.2545 420.3108,611.8065 " fill="none" id="ProductService-to-ProductRepository" style="stroke:#181818;stroke-width:0.8000000000000002;stroke-dasharray:7.0,7.0;"/><polygon fill="#181818" points="415.824,613.512,423.6912,613.9449,419.563,612.0907,421.4171,607.9625,415.824,613.512" style="stroke:#181818;stroke-width:0.8000000000000002;"/><text fill="#000000" font-family="sans-serif" font-size="10.4" lengthAdjust="spacing" textLength="84" x="666.4" y="498.8227">productRepository</text></g><!--link ProductService to ProductCategoryRepository--><g id="link_ProductService_ProductCategoryRepository"><path codeLine="80" d="M604.624,362.512 C537.56,385.488 467.2,409.6 467.2,409.6 C467.2,409.6 425.6,543.2 425.6,543.2 C425.6,543.2 388,582.4 388,582.4 C388,582.4 245.6,606.4 245.6,606.4 C245.6,606.4 244.6531,606.6666 235.9011,609.0666 " fill="none" id="ProductService-to-ProductCategoryRepository" style="stroke:#181818;stroke-width:0.8000000000000002;stroke-dasharray:7.0,7.0;"/><polygon fill="#181818" points="231.272,610.336,239.0619,611.518,235.1296,609.2782,237.3694,605.3458,231.272,610.336" style="stroke:#181818;stroke-width:0.8000000000000002;"/><text fill="#000000" font-family="sans-serif" font-size="10.4" lengthAdjust="spacing" textLength="125.6" x="468" y="498.8227">productCategoryRepository</text></g><!--link ProductService to Product--><g id="link_ProductService_Product"><path codeLine="81" d="M858.488,358.216 C947.232,382.384 1047.2,409.6 1047.2,409.6 C1047.2,409.6 1047.2,693.6 1047.2,693.6 C1047.2,693.6 1013.1606,722.5384 975.6166,754.4664 " fill="none" id="ProductService-to-Product" style="stroke:#181818;stroke-width:0.8000000000000002;stroke-dasharray:7.0,7.0;"/><polygon fill="#181818" points="971.96,757.576,979.5179,755.3493,975.0071,754.9847,975.3718,750.4739,971.96,757.576" style="stroke:#181818;stroke-width:0.8000000000000002;"/><text fill="#000000" font-family="sans-serif" font-size="10.4" lengthAdjust="spacing" textLength="34.4" x="1048" y="579.2227">product</text></g><!--link ProductService to ProductCategory--><g id="link_ProductService_ProductCategory"><path codeLine="82" d="M858.4,352.08 C935.376,369.536 1016.8,388 1016.8,388 C1016.8,388 1068,409.6 1068,409.6 C1068,409.6 1158.4,493.6 1158.4,493.6 C1158.4,493.6 1158.4,493.6 1158.4,822.4 C1158.4,822.4 1080.9384,900.9424 1030.0984,952.4944 " fill="none" id="ProductService-to-ProductCategory" style="stroke:#181818;stroke-width:0.8000000000000002;stroke-dasharray:7.0,7.0;"/><polygon fill="#181818" points="1026.728,955.912,1034.0621,953.0325,1029.5367,953.064,1029.5052,948.5386,1026.728,955.912" style="stroke:#181818;stroke-width:0.8000000000000002;"/><text fill="#000000" font-family="sans-serif" font-size="10.4" lengthAdjust="spacing" textLength="76" x="1159.2" y="644.8227">productCategory</text></g><!--link Repositories to Repositories--><g id="link_Repositories_Repositories"><path codeLine="83" d="M348.096,482.024 C365.112,484.456 376,488.576 376,494.4 C376,500.224 369.8637,503.6649 352.8477,506.0969 " fill="none" id="Repositories-to-Repositories" style="stroke:#181818;stroke-width:0.8000000000000002;"/><polygon fill="#181818" points="348.096,506.776,355.6763,508.9251,352.0558,506.2101,354.7708,502.5895,348.096,506.776" style="stroke:#181818;stroke-width:0.8000000000000002;"/><text fill="#000000" font-family="sans-serif" font-size="10.4" lengthAdjust="spacing" textLength="39.2" x="380.8" y="498.8227">instance</text></g><!--link Repositories to ProductRepository--><g id="link_Repositories_ProductRepository"><path codeLine="84" d="M250.968,543.224 C269.608,556.432 284.8,567.2 284.8,567.2 C284.8,567.2 303.667,589.0835 321.539,609.8275 " fill="none" id="Repositories-to-ProductRepository" style="stroke:#181818;stroke-width:0.8000000000000002;"/><polygon fill="#181818" points="324.672,613.464,322.3968,605.9206,322.0611,610.4336,317.5481,610.0979,324.672,613.464" style="stroke:#181818;stroke-width:0.8000000000000002;"/><text fill="#000000" font-family="sans-serif" font-size="10.4" lengthAdjust="spacing" textLength="84" x="296.8" y="579.2227">productRepository</text><text fill="#000000" font-family="sans-serif" font-size="10.4" lengthAdjust="spacing" textLength="5.6" x="253.286" y="561.2164">1</text><text fill="#000000" font-family="sans-serif" font-size="10.4" lengthAdjust="spacing" textLength="5.6" x="314.0856" y="604.4976">1</text></g><!--link Repositories to ProductCategoryRepository--><g id="link_Repositories_ProductCategoryRepository"><path codeLine="85" d="M163.752,543.28 C155.392,563.96 147.6241,583.1663 140.0641,601.8543 " fill="none" id="Repositories-to-ProductCategoryRepository" style="stroke:#181818;stroke-width:0.8000000000000002;"/><polygon fill="#181818" points="138.264,606.304,143.9306,600.8295,139.7641,602.5959,137.9976,598.4294,138.264,606.304" style="stroke:#181818;stroke-width:0.8000000000000002;"/><text fill="#000000" font-family="sans-serif" font-size="10.4" lengthAdjust="spacing" textLength="125.6" x="154.4" y="579.2227">productCategoryRepository</text><text fill="#000000" font-family="sans-serif" font-size="10.4" lengthAdjust="spacing" textLength="5.6" x="155.4405" y="561.2792">1</text><text fill="#000000" font-family="sans-serif" font-size="10.4" lengthAdjust="spacing" textLength="5.6" x="134.3636" y="597.412">1</text></g><!--link ProductRepository to Product--><g id="link_ProductRepository_Product"><path codeLine="86" d="M426.936,667.216 C503.432,692.176 616.9968,729.239 715.7728,761.471 " fill="none" id="ProductRepository-to-Product" style="stroke:#181818;stroke-width:0.8000000000000002;"/><polygon fill="#181818" points="720.336,762.96,714.4839,757.6843,716.5333,761.7191,712.4985,763.7686,720.336,762.96" style="stroke:#181818;stroke-width:0.8000000000000002;"/><text fill="#000000" font-family="sans-serif" font-size="10.4" lengthAdjust="spacing" textLength="48" x="573.6" y="712.0227">categories</text><text fill="#000000" font-family="sans-serif" font-size="10.4" lengthAdjust="spacing" textLength="5.6" x="435.0402" y="684.4742">1</text><text fill="#000000" font-family="sans-serif" font-size="10.4" lengthAdjust="spacing" textLength="4" x="709.8937" y="758.239">*</text></g><!--link ProductCategoryRepository to ProductCategory--><g id="link_ProductCategoryRepository_ProductCategory"><path codeLine="87" d="M197.104,674.416 C342.56,741.24 656.8,885.6 656.8,885.6 C656.8,885.6 896,948.8 896,948.8 C896,948.8 897.2326,949.4529 905.4886,953.8369 " fill="none" id="ProductCategoryRepository-to-ProductCategory" style="stroke:#181818;stroke-width:0.8000000000000002;"/><polygon fill="#181818" points="909.728,956.088,904.8697,949.885,906.1952,954.212,901.8682,955.5375,909.728,956.088" style="stroke:#181818;stroke-width:0.8000000000000002;"/><text fill="#000000" font-family="sans-serif" font-size="10.4" lengthAdjust="spacing" textLength="48" x="657.6" y="826.0227">categories</text><text fill="#000000" font-family="sans-serif" font-size="10.4" lengthAdjust="spacing" textLength="5.6" x="202.5812" y="692.1468">1</text><text fill="#000000" font-family="sans-serif" font-size="10.4" lengthAdjust="spacing" textLength="4" x="899.7047" y="950.0249">*</text></g><!--link Product to ProductCategory--><g id="link_Product_ProductCategory"><path codeLine="88" d="M929.784,885.608 C941.696,909.008 952.702,930.6186 963.35,951.5306 " fill="none" id="Product-to-ProductCategory" style="stroke:#181818;stroke-width:0.8000000000000002;"/><polygon fill="#181818" points="965.528,955.808,965.1126,947.9399,963.713,952.2435,959.4094,950.8439,965.528,955.808" style="stroke:#181818;stroke-width:0.8000000000000002;"/><text fill="#000000" font-family="sans-serif" font-size="10.4" lengthAdjust="spacing" textLength="16.8" x="948" y="921.6227">has</text><text fill="#000000" font-family="sans-serif" font-size="10.4" lengthAdjust="spacing" textLength="4" x="928.3779" y="902.9351">*</text><text fill="#000000" font-family="sans-serif" font-size="10.4" lengthAdjust="spacing" textLength="5.6" x="956.7471" y="946.9241">1</text></g><!--link Product to Part--><g id="link_Product_Part"><path codeLine="89" d="M864.832,885.608 C854.072,906.376 848.9121,916.318 838.8241,935.79 " fill="none" id="Product-to-Part" style="stroke:#181818;stroke-width:0.8000000000000002;"/><polygon fill="none" points="832.2,948.576,843.0861,937.9981,834.5621,933.582,832.2,948.576" style="stroke:#181818;stroke-width:0.8000000000000002;"/></g><!--link ProductService to ProductException--><g id="link_ProductService_ProductException"><path codeLine="90" d="M765.744,362.576 C798.84,395.072 840.6707,436.1414 869.0547,464.0054 " fill="none" id="ProductService-to-ProductException" style="stroke:#181818;stroke-width:0.8000000000000002;stroke-dasharray:7.0,7.0;"/><polygon fill="#181818" points="872.48,467.368,869.5837,460.0406,869.6255,464.5658,865.1003,464.6077,872.48,467.368" style="stroke:#181818;stroke-width:0.8000000000000002;"/><text fill="#000000" font-family="sans-serif" font-size="10.4" lengthAdjust="spacing" textLength="30.4" x="806.4" y="400.0227">throws</text></g><!--link ProductException to RuntimeException--><g id="link_ProductException_RuntimeException"><path codeLine="91" d="M899.2,521.352 C899.2,550.12 899.2,581.232 899.2,606.584 " fill="none" id="ProductException-to-RuntimeException" style="stroke:#181818;stroke-width:0.8000000000000002;"/><polygon fill="none" points="899.2,620.984,904,606.584,894.4,606.584,899.2,620.984" style="stroke:#181818;stroke-width:0.8000000000000002;"/></g><!--SRC=[hLLTRvim57tdLrXv8akejjTeYjHrcuIqJLEZ_W3Nt1AhZeriiuvj_U-p2M237Oggyf9mxxaVv_hwe1ufhx349rHXyeXBEEY60P90DEObWqGD07N4XNYYl4GFc2dVmoW7tLI0Ai4Q- -Bv2CDANMijwNsj8IU27-WVGE-Jf2k8LdVv2lrDa7bQCBeHNDLC_vIYg8bMER_16aeXcxkympqdprwymMif60CvpjCbSExEQvzD2Ns1BZi5bQxH3dsZIdySkvgzYwlE7ejoZQMa-vD_dgROHne-WFn52KIxxNnlq6fcudhh9zFPfCb9tDiol8LAAAeDVanoi1iA7iNCjwVh4VMSAxEA15h6FYus85StzJWwwynGctXiwEteHXOjW4vEyPgn9Ijca0lFAzR5NFN-IgLBpl2xA81DTXHBxHyRBKoUWxdRl7H6ZayGCHUWYAILfeA7tetDdD9YYspq5ddWzKMcVYVzh6OMss0CDwejXdBjxCeAqiH611ComgAIzdBkK27gUwEEhlzpqJY5BUhRi__EJMoHBMlURQ4jQlEkNrojLmv_CqapjBcEdFkNtmJQjgFwD7ZzxUhf_H3wgwXv4L_T8JIaULjpJK_W4COxzncukjg7yfw4Wk_XEc5D9Zfh4IDLsfcFdoSo4NXuqNQe2fJcSc149uO44RcvdCY5BQWMraX6lBCi60Jjf7SCN7rOjM3xksmKBuM_RY0UUiZvRkNDXWnVo-HoeKYeDx4mHGkyqBy9E6A7pB9_-rOoPqx7NQSTqaSfdePmvsdp13VaFm00]--></g></svg>