<?xml version="1.0" encoding="us-ascii" standalone="no"?><svg xmlns="http://www.w3.org/2000/svg" xmlns:xlink="http://www.w3.org/1999/xlink" contentStyleType="text/css" height="912.6px" preserveAspectRatio="none" style="width:1356px;height:912px;background:#FFFFFF;" version="1.1" viewBox="0 0 1356 912" width="1356px" zoomAndPan="magnify"><defs/><g><text fill="#000000" font-family="sans-serif" font-size="8.4" font-weight="bold" lengthAdjust="spacing" textLength="99" x="629.4" y="18.0645">Sequence Diagram (SD)</text><rect fill="#FFFFFF" height="772.5785" style="stroke:#181818;stroke-width:0.6;" width="6" x="40.2" y="79.9453"/><rect fill="#FFFFFF" height="232.6934" style="stroke:#181818;stroke-width:0.6;" width="6" x="307.2" y="93.9199"/><rect fill="#FFFFFF" height="507.1359" style="stroke:#181818;stroke-width:0.6;" width="6" x="307.2" y="345.3879"/><rect fill="#FFFFFF" height="168.9715" style="stroke:#181818;stroke-width:0.6;" width="6" x="498.6" y="138.8672"/><rect fill="#FFFFFF" height="469.5867" style="stroke:#181818;stroke-width:0.6;" width="6" x="498.6" y="364.1625"/><rect fill="#FFFFFF" height="131.4223" style="stroke:#181818;stroke-width:0.6;" width="6" x="690" y="157.6418"/><rect fill="#FFFFFF" height="432.0375" style="stroke:#181818;stroke-width:0.6;" width="6" x="690" y="382.9371"/><rect fill="#FFFFFF" height="62.9238" style="stroke:#181818;stroke-width:0.6;" width="6" x="693" y="406.5117"/><rect fill="#FFFFFF" height="18.7746" style="stroke:#181818;stroke-width:0.6;" width="6" x="844.8" y="508.1848"/><rect fill="#FFFFFF" height="18.7746" style="stroke:#181818;stroke-width:0.6;" width="6" x="915.9" y="176.4164"/><rect fill="#FFFFFF" height="18.7746" style="stroke:#181818;stroke-width:0.6;" width="6" x="978.9" y="213.9656"/><rect fill="#FFFFFF" height="18.7746" style="stroke:#181818;stroke-width:0.6;" width="6" x="978.9" y="587.4832"/><rect fill="#FFFFFF" height="18.7746" style="stroke:#181818;stroke-width:0.6;" width="6" x="1071.6" y="251.5148"/><rect fill="#FFFFFF" height="18.7746" style="stroke:#181818;stroke-width:0.6;" width="6" x="1071.6" y="428.2863"/><rect fill="#FFFFFF" height="18.7746" style="stroke:#181818;stroke-width:0.6;" width="6" x="1175.4" y="625.0324"/><rect fill="#FFFFFF" height="18.7746" style="stroke:#181818;stroke-width:0.6;" width="6" x="1241.4" y="715.7016"/><rect fill="#FFFFFF" height="18.7746" style="stroke:#181818;stroke-width:0.6;" width="6" x="1302.3" y="769.0254"/><rect fill="none" height="86.673" style="stroke:#000000;stroke-width:0.8999999999999999;" width="626.4" x="264.6" y="482.6355"/><rect fill="none" height="106.6477" style="stroke:#000000;stroke-width:0.8999999999999999;" width="705.6" x="646.8" y="690.1523"/><rect fill="none" height="49.1238" style="stroke:#000000;stroke-width:0.8999999999999999;" width="693.6" x="652.8" y="743.4762"/><line style="stroke:#181818;stroke-width:0.3;stroke-dasharray:5.0,5.0;" x1="43.2" x2="43.2" y1="73.9453" y2="863.3238"/><line style="stroke:#181818;stroke-width:0.3;stroke-dasharray:5.0,5.0;" x1="310.2" x2="310.2" y1="73.9453" y2="863.3238"/><line style="stroke:#181818;stroke-width:0.3;stroke-dasharray:5.0,5.0;" x1="501.3" x2="501.3" y1="117.8062" y2="863.3238"/><line style="stroke:#181818;stroke-width:0.3;stroke-dasharray:5.0,5.0;" x1="693" x2="693" y1="73.9453" y2="863.3238"/><line style="stroke:#181818;stroke-width:0.3;stroke-dasharray:5.0,5.0;" x1="847.8" x2="847.8" y1="73.9453" y2="863.3238"/><line style="stroke:#181818;stroke-width:0.3;stroke-dasharray:5.0,5.0;" x1="918.6" x2="918.6" y1="73.9453" y2="863.3238"/><line style="stroke:#181818;stroke-width:0.3;stroke-dasharray:5.0,5.0;" x1="981.6" x2="981.6" y1="73.9453" y2="863.3238"/><line style="stroke:#181818;stroke-width:0.3;stroke-dasharray:5.0,5.0;" x1="1074.6" x2="1074.6" y1="73.9453" y2="863.3238"/><line style="stroke:#181818;stroke-width:0.3;stroke-dasharray:5.0,5.0;" x1="1178.4" x2="1178.4" y1="73.9453" y2="863.3238"/><line style="stroke:#181818;stroke-width:0.3;stroke-dasharray:5.0,5.0;" x1="1244.4" x2="1244.4" y1="73.9453" y2="863.3238"/><line style="stroke:#181818;stroke-width:0.3;stroke-dasharray:5.0,5.0;" x1="1305" x2="1305" y1="673.2797" y2="863.3238"/><text fill="#000000" font-family="sans-serif" font-size="8.4" lengthAdjust="spacing" textLength="76.8" x="3" y="71.8371">Production Manager</text><ellipse cx="43.2" cy="31.8727" fill="#E3E3E3" rx="4.8" ry="4.8" style="stroke:#181818;stroke-width:0.3;"/><path d="M43.2,36.6727 L43.2,52.8727 M35.4,41.4727 L51,41.4727 M43.2,52.8727 L35.4,61.8727 M43.2,52.8727 L51,61.8727 " fill="none" style="stroke:#181818;stroke-width:0.3;"/><text fill="#000000" font-family="sans-serif" font-size="8.4" lengthAdjust="spacing" textLength="76.8" x="3" y="871.7883">Production Manager</text><ellipse cx="43.2" cy="878.9965" fill="#E3E3E3" rx="4.8" ry="4.8" style="stroke:#181818;stroke-width:0.3;"/><path d="M43.2,883.7965 L43.2,899.9965 M35.4,888.5965 L51,888.5965 M43.2,899.9965 L35.4,908.9965 M43.2,899.9965 L51,908.9965 " fill="none" style="stroke:#181818;stroke-width:0.3;"/><rect fill="#E3E3E3" height="19.5727" rx="1.5" ry="1.5" style="stroke:#181818;stroke-width:0.3;" width="79.2" x="270.6" y="53.7727"/><text fill="#000000" font-family="sans-serif" font-size="8.4" lengthAdjust="spacing" textLength="70.8" x="274.8" y="67.0371">:RegisterProductUI</text><rect fill="#E3E3E3" height="19.5727" rx="1.5" ry="1.5" style="stroke:#181818;stroke-width:0.3;" width="79.2" x="270.6" y="862.7238"/><text fill="#000000" font-family="sans-serif" font-size="8.4" lengthAdjust="spacing" textLength="70.8" x="274.8" y="875.9883">:RegisterProductUI</text><rect fill="#E3E3E3" height="19.5727" rx="1.5" ry="1.5" style="stroke:#181818;stroke-width:0.3;" width="77.4" x="462.9" y="862.7238"/><text fill="#000000" font-family="sans-serif" font-size="8.4" lengthAdjust="spacing" textLength="69" x="467.1" y="875.9883">:ProductController</text><rect fill="#E3E3E3" height="19.5727" rx="1.5" ry="1.5" style="stroke:#181818;stroke-width:0.3;" width="68.4" x="658.8" y="53.7727"/><text fill="#000000" font-family="sans-serif" font-size="8.4" lengthAdjust="spacing" textLength="60" x="663" y="67.0371">:ProductService</text><rect fill="#E3E3E3" height="19.5727" rx="1.5" ry="1.5" style="stroke:#181818;stroke-width:0.3;" width="68.4" x="658.8" y="862.7238"/><text fill="#000000" font-family="sans-serif" font-size="8.4" lengthAdjust="spacing" textLength="60" x="663" y="875.9883">:ProductService</text><rect fill="#E3E3E3" height="19.5727" rx="1.5" ry="1.5" style="stroke:#181818;stroke-width:0.3;" width="74.4" x="810.6" y="53.7727"/><text fill="#000000" font-family="sans-serif" font-size="8.4" lengthAdjust="spacing" textLength="66" x="814.8" y="67.0371">ProductException</text><rect fill="#E3E3E3" height="19.5727" rx="1.5" ry="1.5" style="stroke:#181818;stroke-width:0.3;" width="74.4" x="810.6" y="862.7238"/><text fill="#000000" font-family="sans-serif" font-size="8.4" lengthAdjust="spacing" textLength="66" x="814.8" y="875.9883">ProductException</text><rect fill="#E3E3E3" height="19.5727" rx="1.5" ry="1.5" style="stroke:#181818;stroke-width:0.3;" width="55.8" x="891" y="53.7727"/><text fill="#000000" font-family="sans-serif" font-size="8.4" lengthAdjust="spacing" textLength="47.4" x="895.2" y="67.0371">Repositories</text><rect fill="#E3E3E3" height="19.5727" rx="1.5" ry="1.5" style="stroke:#181818;stroke-width:0.3;" width="55.8" x="891" y="862.7238"/><text fill="#000000" font-family="sans-serif" font-size="8.4" lengthAdjust="spacing" textLength="47.4" x="895.2" y="875.9883">Repositories</text><rect fill="#E3E3E3" height="30.7453" rx="1.5" ry="1.5" style="stroke:#181818;stroke-width:0.3;" width="58.2" x="952.8" y="42.6"/><text fill="#000000" font-family="sans-serif" font-size="8.4" lengthAdjust="spacing" textLength="44.4" x="959.7" y="55.8645">repositories</text><text fill="#000000" font-family="sans-serif" font-size="8.4" lengthAdjust="spacing" textLength="49.8" x="957" y="67.0371">:Repositories</text><rect fill="#E3E3E3" height="30.7453" rx="1.5" ry="1.5" style="stroke:#181818;stroke-width:0.3;" width="58.2" x="952.8" y="862.7238"/><text fill="#000000" font-family="sans-serif" font-size="8.4" lengthAdjust="spacing" textLength="44.4" x="959.7" y="875.9883">repositories</text><text fill="#000000" font-family="sans-serif" font-size="8.4" lengthAdjust="spacing" textLength="49.8" x="957" y="887.1609">:Repositories</text><rect fill="#E3E3E3" height="30.7453" rx="1.5" ry="1.5" style="stroke:#181818;stroke-width:0.3;" width="115.2" x="1017" y="42.6"/><text fill="#000000" font-family="sans-serif" font-size="8.4" lengthAdjust="spacing" textLength="106.8" x="1021.2" y="55.8645">productCategoryRepository:</text><text fill="#000000" font-family="sans-serif" font-size="8.4" lengthAdjust="spacing" textLength="105" x="1022.1" y="67.0371">ProductCategoryRepository</text><rect fill="#E3E3E3" height="30.7453" rx="1.5" ry="1.5" style="stroke:#181818;stroke-width:0.3;" width="115.2" x="1017" y="862.7238"/><text fill="#000000" font-family="sans-serif" font-size="8.4" lengthAdjust="spacing" textLength="106.8" x="1021.2" y="875.9883">productCategoryRepository:</text><text fill="#000000" font-family="sans-serif" font-size="8.4" lengthAdjust="spacing" textLength="105" x="1022.1" y="887.1609">ProductCategoryRepository</text><rect fill="#E3E3E3" height="30.7453" rx="1.5" ry="1.5" style="stroke:#181818;stroke-width:0.3;" width="80.4" x="1138.2" y="42.6"/><text fill="#000000" font-family="sans-serif" font-size="8.4" lengthAdjust="spacing" textLength="72" x="1142.4" y="55.8645">productRepository:</text><text fill="#000000" font-family="sans-serif" font-size="8.4" lengthAdjust="spacing" textLength="70.2" x="1143.3" y="67.0371">ProductRepository</text><rect fill="#E3E3E3" height="30.7453" rx="1.5" ry="1.5" style="stroke:#181818;stroke-width:0.3;" width="80.4" x="1138.2" y="862.7238"/><text fill="#000000" font-family="sans-serif" font-size="8.4" lengthAdjust="spacing" textLength="72" x="1142.4" y="875.9883">productRepository:</text><text fill="#000000" font-family="sans-serif" font-size="8.4" lengthAdjust="spacing" textLength="70.2" x="1143.3" y="887.1609">ProductRepository</text><rect fill="#E3E3E3" height="30.7453" rx="1.5" ry="1.5" style="stroke:#181818;stroke-width:0.3;" width="39.6" x="1224.6" y="42.6"/><text fill="#000000" font-family="sans-serif" font-size="8.4" lengthAdjust="spacing" textLength="31.2" x="1228.8" y="55.8645">product:</text><text fill="#000000" font-family="sans-serif" font-size="8.4" lengthAdjust="spacing" textLength="29.4" x="1229.7" y="67.0371">Product</text><rect fill="#E3E3E3" height="30.7453" rx="1.5" ry="1.5" style="stroke:#181818;stroke-width:0.3;" width="39.6" x="1224.6" y="862.7238"/><text fill="#000000" font-family="sans-serif" font-size="8.4" lengthAdjust="spacing" textLength="31.2" x="1228.8" y="875.9883">product:</text><text fill="#000000" font-family="sans-serif" font-size="8.4" lengthAdjust="spacing" textLength="29.4" x="1229.7" y="887.1609">Product</text><rect fill="#E3E3E3" height="30.7453" rx="1.5" ry="1.5" style="stroke:#181818;stroke-width:0.3;" width="70.2" x="1270.2" y="862.7238"/><text fill="#000000" font-family="sans-serif" font-size="8.4" lengthAdjust="spacing" textLength="61.8" x="1274.4" y="875.9883">filteredProducts:</text><text fill="#000000" font-family="sans-serif" font-size="8.4" lengthAdjust="spacing" textLength="52.2" x="1279.2" y="887.1609">List&lt;Product&gt;</text><rect fill="#FFFFFF" height="772.5785" style="stroke:#181818;stroke-width:0.6;" width="6" x="40.2" y="79.9453"/><rect fill="#FFFFFF" height="232.6934" style="stroke:#181818;stroke-width:0.6;" width="6" x="307.2" y="93.9199"/><rect fill="#FFFFFF" height="507.1359" style="stroke:#181818;stroke-width:0.6;" width="6" x="307.2" y="345.3879"/><rect fill="#FFFFFF" height="168.9715" style="stroke:#181818;stroke-width:0.6;" width="6" x="498.6" y="138.8672"/><rect fill="#FFFFFF" height="469.5867" style="stroke:#181818;stroke-width:0.6;" width="6" x="498.6" y="364.1625"/><rect fill="#FFFFFF" height="131.4223" style="stroke:#181818;stroke-width:0.6;" width="6" x="690" y="157.6418"/><rect fill="#FFFFFF" height="432.0375" style="stroke:#181818;stroke-width:0.6;" width="6" x="690" y="382.9371"/><rect fill="#FFFFFF" height="62.9238" style="stroke:#181818;stroke-width:0.6;" width="6" x="693" y="406.5117"/><rect fill="#FFFFFF" height="18.7746" style="stroke:#181818;stroke-width:0.6;" width="6" x="844.8" y="508.1848"/><rect fill="#FFFFFF" height="18.7746" style="stroke:#181818;stroke-width:0.6;" width="6" x="915.9" y="176.4164"/><rect fill="#FFFFFF" height="18.7746" style="stroke:#181818;stroke-width:0.6;" width="6" x="978.9" y="213.9656"/><rect fill="#FFFFFF" height="18.7746" style="stroke:#181818;stroke-width:0.6;" width="6" x="978.9" y="587.4832"/><rect fill="#FFFFFF" height="18.7746" style="stroke:#181818;stroke-width:0.6;" width="6" x="1071.6" y="251.5148"/><rect fill="#FFFFFF" height="18.7746" style="stroke:#181818;stroke-width:0.6;" width="6" x="1071.6" y="428.2863"/><rect fill="#FFFFFF" height="18.7746" style="stroke:#181818;stroke-width:0.6;" width="6" x="1175.4" y="625.0324"/><rect fill="#FFFFFF" height="18.7746" style="stroke:#181818;stroke-width:0.6;" width="6" x="1241.4" y="715.7016"/><rect fill="#FFFFFF" height="18.7746" style="stroke:#181818;stroke-width:0.6;" width="6" x="1302.3" y="769.0254"/><polygon fill="#181818" points="300,91.5199,306,93.9199,300,96.3199,302.4,93.9199" style="stroke:#181818;stroke-width:0.6;"/><line style="stroke:#181818;stroke-width:0.6;" x1="46.2" x2="303.6" y1="93.9199" y2="93.9199"/><text fill="#000000" font-family="sans-serif" font-size="7.8" font-weight="bold" lengthAdjust="spacing" textLength="4.2" x="50.4" y="90.7623">1</text><text fill="#000000" font-family="sans-serif" font-size="7.8" lengthAdjust="spacing" textLength="142.2" x="57" y="90.7623">requests to consult products by category</text><polygon fill="#181818" points="455.7,110.2945,461.7,112.6945,455.7,115.0945,458.1,112.6945" style="stroke:#181818;stroke-width:0.6;"/><line style="stroke:#181818;stroke-width:0.6;" x1="313.2" x2="459.3" y1="112.6945" y2="112.6945"/><text fill="#000000" font-family="sans-serif" font-size="7.8" font-weight="bold" lengthAdjust="spacing" textLength="4.2" x="317.4" y="109.5369">2</text><text fill="#000000" font-family="sans-serif" font-size="7.8" lengthAdjust="spacing" textLength="21.6" x="324" y="109.5369">create</text><rect fill="#E3E3E3" height="19.5727" rx="1.5" ry="1.5" style="stroke:#181818;stroke-width:0.3;" width="77.4" x="462.9" y="98.7199"/><text fill="#000000" font-family="sans-serif" font-size="8.4" lengthAdjust="spacing" textLength="69" x="467.1" y="111.9844">:ProductController</text><polygon fill="#181818" points="491.4,136.4672,497.4,138.8672,491.4,141.2672,493.8,138.8672" style="stroke:#181818;stroke-width:0.6;"/><line style="stroke:#181818;stroke-width:0.6;" x1="313.2" x2="495" y1="138.8672" y2="138.8672"/><text fill="#000000" font-family="sans-serif" font-size="7.8" font-weight="bold" lengthAdjust="spacing" textLength="4.2" x="317.4" y="135.7096">3</text><text fill="#000000" font-family="sans-serif" font-size="7.8" lengthAdjust="spacing" textLength="79.8" x="324" y="135.7096">getProductCategories()</text><polygon fill="#181818" points="682.8,155.2418,688.8,157.6418,682.8,160.0418,685.2,157.6418" style="stroke:#181818;stroke-width:0.6;"/><line style="stroke:#181818;stroke-width:0.6;" x1="504.6" x2="686.4" y1="157.6418" y2="157.6418"/><text fill="#000000" font-family="sans-serif" font-size="7.8" font-weight="bold" lengthAdjust="spacing" textLength="4.2" x="508.8" y="154.4842">4</text><text fill="#000000" font-family="sans-serif" font-size="7.8" lengthAdjust="spacing" textLength="79.8" x="515.4" y="154.4842">getProductCategories()</text><polygon fill="#181818" points="908.7,174.0164,914.7,176.4164,908.7,178.8164,911.1,176.4164" style="stroke:#181818;stroke-width:0.6;"/><line style="stroke:#181818;stroke-width:0.6;" x1="696" x2="912.3" y1="176.4164" y2="176.4164"/><text fill="#000000" font-family="sans-serif" font-size="7.8" font-weight="bold" lengthAdjust="spacing" textLength="4.2" x="700.2" y="173.2588">5</text><text fill="#000000" font-family="sans-serif" font-size="7.8" lengthAdjust="spacing" textLength="45" x="706.8" y="173.2588">getInstance()</text><polygon fill="#181818" points="702.6,192.791,696.6,195.191,702.6,197.591,700.2,195.191" style="stroke:#181818;stroke-width:0.6;"/><line style="stroke:#181818;stroke-width:0.6;stroke-dasharray:2.0,2.0;" x1="699" x2="918.3" y1="195.191" y2="195.191"/><text fill="#000000" font-family="sans-serif" font-size="7.8" font-weight="bold" lengthAdjust="spacing" textLength="4.2" x="706.2" y="192.0334">6</text><text fill="#000000" font-family="sans-serif" font-size="7.8" lengthAdjust="spacing" textLength="40.2" x="712.8" y="192.0334">repositories</text><polygon fill="#181818" points="971.7,211.5656,977.7,213.9656,971.7,216.3656,974.1,213.9656" style="stroke:#181818;stroke-width:0.6;"/><line style="stroke:#181818;stroke-width:0.6;" x1="696" x2="975.3" y1="213.9656" y2="213.9656"/><text fill="#000000" font-family="sans-serif" font-size="7.8" font-weight="bold" lengthAdjust="spacing" textLength="4.2" x="700.2" y="210.808">7</text><text fill="#000000" font-family="sans-serif" font-size="7.8" lengthAdjust="spacing" textLength="111" x="706.8" y="210.808">getProductCategoryRepository()</text><polygon fill="#181818" points="702.6,230.3402,696.6,232.7402,702.6,235.1402,700.2,232.7402" style="stroke:#181818;stroke-width:0.6;"/><line style="stroke:#181818;stroke-width:0.6;stroke-dasharray:2.0,2.0;" x1="699" x2="981.3" y1="232.7402" y2="232.7402"/><text fill="#000000" font-family="sans-serif" font-size="7.8" font-weight="bold" lengthAdjust="spacing" textLength="4.2" x="706.2" y="229.5826">8</text><text fill="#000000" font-family="sans-serif" font-size="7.8" lengthAdjust="spacing" textLength="94.2" x="712.8" y="229.5826">productCategoryRepository</text><polygon fill="#181818" points="1064.4,249.1148,1070.4,251.5148,1064.4,253.9148,1066.8,251.5148" style="stroke:#181818;stroke-width:0.6;"/><line style="stroke:#181818;stroke-width:0.6;" x1="696" x2="1068" y1="251.5148" y2="251.5148"/><text fill="#000000" font-family="sans-serif" font-size="7.8" font-weight="bold" lengthAdjust="spacing" textLength="4.2" x="700.2" y="248.3572">9</text><text fill="#000000" font-family="sans-serif" font-size="7.8" lengthAdjust="spacing" textLength="24.6" x="706.8" y="248.3572">getAll()</text><polygon fill="#181818" points="702.6,267.8895,696.6,270.2895,702.6,272.6895,700.2,270.2895" style="stroke:#181818;stroke-width:0.6;"/><line style="stroke:#181818;stroke-width:0.6;stroke-dasharray:2.0,2.0;" x1="699" x2="1074" y1="270.2895" y2="270.2895"/><text fill="#000000" font-family="sans-serif" font-size="7.8" font-weight="bold" lengthAdjust="spacing" textLength="8.4" x="706.2" y="267.1318">10</text><text fill="#000000" font-family="sans-serif" font-size="7.8" lengthAdjust="spacing" textLength="36" x="717" y="267.1318">categories</text><polygon fill="#181818" points="511.2,286.6641,505.2,289.0641,511.2,291.4641,508.8,289.0641" style="stroke:#181818;stroke-width:0.6;"/><line style="stroke:#181818;stroke-width:0.6;stroke-dasharray:2.0,2.0;" x1="507.6" x2="692.4" y1="289.0641" y2="289.0641"/><text fill="#000000" font-family="sans-serif" font-size="7.8" font-weight="bold" lengthAdjust="spacing" textLength="8.4" x="514.8" y="285.9064">11</text><text fill="#000000" font-family="sans-serif" font-size="7.8" lengthAdjust="spacing" textLength="36" x="525.6" y="285.9064">categories</text><polygon fill="#181818" points="319.8,305.4387,313.8,307.8387,319.8,310.2387,317.4,307.8387" style="stroke:#181818;stroke-width:0.6;"/><line style="stroke:#181818;stroke-width:0.6;stroke-dasharray:2.0,2.0;" x1="316.2" x2="501" y1="307.8387" y2="307.8387"/><text fill="#000000" font-family="sans-serif" font-size="7.8" font-weight="bold" lengthAdjust="spacing" textLength="8.4" x="323.4" y="304.6811">12</text><text fill="#000000" font-family="sans-serif" font-size="7.8" lengthAdjust="spacing" textLength="36" x="334.2" y="304.6811">categories</text><polygon fill="#181818" points="52.8,324.2133,46.8,326.6133,52.8,329.0133,50.4,326.6133" style="stroke:#181818;stroke-width:0.6;"/><line style="stroke:#181818;stroke-width:0.6;stroke-dasharray:2.0,2.0;" x1="49.2" x2="309.6" y1="326.6133" y2="326.6133"/><text fill="#000000" font-family="sans-serif" font-size="7.8" font-weight="bold" lengthAdjust="spacing" textLength="8.4" x="56.4" y="323.4557">13</text><text fill="#000000" font-family="sans-serif" font-size="7.8" lengthAdjust="spacing" textLength="184.2" x="67.2" y="323.4557">shows the list of categories and requests category ID</text><polygon fill="#181818" points="300,342.9879,306,345.3879,300,347.7879,302.4,345.3879" style="stroke:#181818;stroke-width:0.6;"/><line style="stroke:#181818;stroke-width:0.6;" x1="46.2" x2="303.6" y1="345.3879" y2="345.3879"/><text fill="#000000" font-family="sans-serif" font-size="7.8" font-weight="bold" lengthAdjust="spacing" textLength="8.4" x="50.4" y="342.2303">14</text><text fill="#000000" font-family="sans-serif" font-size="7.8" lengthAdjust="spacing" textLength="70.2" x="61.2" y="342.2303">provides category ID</text><polygon fill="#181818" points="491.4,361.7625,497.4,364.1625,491.4,366.5625,493.8,364.1625" style="stroke:#181818;stroke-width:0.6;"/><line style="stroke:#181818;stroke-width:0.6;" x1="313.2" x2="495" y1="364.1625" y2="364.1625"/><text fill="#000000" font-family="sans-serif" font-size="7.8" font-weight="bold" lengthAdjust="spacing" textLength="8.4" x="317.4" y="361.0049">15</text><text fill="#000000" font-family="sans-serif" font-size="7.8" lengthAdjust="spacing" textLength="117.6" x="328.2" y="361.0049">productListInCategory(categoryID)</text><polygon fill="#181818" points="682.8,380.5371,688.8,382.9371,682.8,385.3371,685.2,382.9371" style="stroke:#181818;stroke-width:0.6;"/><line style="stroke:#181818;stroke-width:0.6;" x1="504.6" x2="686.4" y1="382.9371" y2="382.9371"/><text fill="#000000" font-family="sans-serif" font-size="7.8" font-weight="bold" lengthAdjust="spacing" textLength="8.4" x="508.8" y="379.7795">16</text><text fill="#000000" font-family="sans-serif" font-size="7.8" lengthAdjust="spacing" textLength="117.6" x="519.6" y="379.7795">productListInCategory(categoryID)</text><line style="stroke:#181818;stroke-width:0.6;" x1="696" x2="724.2" y1="398.7117" y2="398.7117"/><line style="stroke:#181818;stroke-width:0.6;" x1="724.2" x2="724.2" y1="398.7117" y2="406.5117"/><line style="stroke:#181818;stroke-width:0.6;" x1="699.6" x2="724.2" y1="406.5117" y2="406.5117"/><polygon fill="#181818" points="705.6,404.1117,699.6,406.5117,705.6,408.9117,703.2,406.5117" style="stroke:#181818;stroke-width:0.6;"/><text fill="#000000" font-family="sans-serif" font-size="7.8" font-weight="bold" lengthAdjust="spacing" textLength="8.4" x="703.2" y="395.5541">17</text><text fill="#000000" font-family="sans-serif" font-size="7.8" lengthAdjust="spacing" textLength="100.8" x="714" y="395.5541">getCategoryByID(categoryID)</text><polygon fill="#181818" points="1064.4,425.8863,1070.4,428.2863,1064.4,430.6863,1066.8,428.2863" style="stroke:#181818;stroke-width:0.6;"/><line style="stroke:#181818;stroke-width:0.6;" x1="699" x2="1068" y1="428.2863" y2="428.2863"/><text fill="#000000" font-family="sans-serif" font-size="7.8" font-weight="bold" lengthAdjust="spacing" textLength="8.4" x="703.2" y="425.1287">18</text><text fill="#000000" font-family="sans-serif" font-size="7.8" lengthAdjust="spacing" textLength="68.4" x="714" y="425.1287">getById(categoryID)</text><polygon fill="#181818" points="705.6,444.6609,699.6,447.0609,705.6,449.4609,703.2,447.0609" style="stroke:#181818;stroke-width:0.6;"/><line style="stroke:#181818;stroke-width:0.6;stroke-dasharray:2.0,2.0;" x1="702" x2="1074" y1="447.0609" y2="447.0609"/><text fill="#000000" font-family="sans-serif" font-size="7.8" font-weight="bold" lengthAdjust="spacing" textLength="8.4" x="709.2" y="443.9033">19</text><text fill="#000000" font-family="sans-serif" font-size="7.8" lengthAdjust="spacing" textLength="30" x="720" y="443.9033">category</text><line style="stroke:#181818;stroke-width:0.6;stroke-dasharray:2.0,2.0;" x1="699" x2="724.2" y1="468.8355" y2="468.8355"/><line style="stroke:#181818;stroke-width:0.6;stroke-dasharray:2.0,2.0;" x1="724.2" x2="724.2" y1="468.8355" y2="476.6355"/><line style="stroke:#181818;stroke-width:0.6;stroke-dasharray:2.0,2.0;" x1="696" x2="724.2" y1="476.6355" y2="476.6355"/><polygon fill="#181818" points="702,474.2355,696,476.6355,702,479.0355,699.6,476.6355" style="stroke:#181818;stroke-width:0.6;"/><text fill="#000000" font-family="sans-serif" font-size="7.8" font-weight="bold" lengthAdjust="spacing" textLength="8.4" x="703.2" y="465.6779">20</text><text fill="#000000" font-family="sans-serif" font-size="7.8" lengthAdjust="spacing" textLength="30" x="714" y="465.6779">category</text><path d="M264.6,482.6355 L301.2,482.6355 L301.2,488.2102 L295.2,494.2102 L264.6,494.2102 L264.6,482.6355 " fill="#EEEEEE" style="stroke:#000000;stroke-width:0.8999999999999999;"/><rect fill="none" height="86.673" style="stroke:#000000;stroke-width:0.8999999999999999;" width="626.4" x="264.6" y="482.6355"/><text fill="#000000" font-family="sans-serif" font-size="7.8" font-weight="bold" lengthAdjust="spacing" textLength="9.6" x="273.6" y="491.6525">alt</text><text fill="#000000" font-family="sans-serif" font-size="6.6" font-weight="bold" lengthAdjust="spacing" textLength="56.4" x="310.2" y="490.9576">[category == null]</text><polygon fill="#181818" points="837.6,505.7848,843.6,508.1848,837.6,510.5848,840,508.1848" style="stroke:#181818;stroke-width:0.6;"/><line style="stroke:#181818;stroke-width:0.6;" x1="696" x2="841.2" y1="508.1848" y2="508.1848"/><text fill="#000000" font-family="sans-serif" font-size="7.8" font-weight="bold" lengthAdjust="spacing" textLength="8.4" x="700.2" y="505.0271">21</text><text fill="#000000" font-family="sans-serif" font-size="7.8" lengthAdjust="spacing" textLength="126.6" x="711" y="505.0271">throw categoryNotFound(categoryID)</text><polygon fill="#181818" points="702.6,524.5594,696.6,526.9594,702.6,529.3594,700.2,526.9594" style="stroke:#181818;stroke-width:0.6;"/><line style="stroke:#181818;stroke-width:0.6;stroke-dasharray:2.0,2.0;" x1="699" x2="847.2" y1="526.9594" y2="526.9594"/><text fill="#000000" font-family="sans-serif" font-size="7.8" font-weight="bold" lengthAdjust="spacing" textLength="8.4" x="706.2" y="523.8018">22</text><text fill="#000000" font-family="sans-serif" font-size="7.8" lengthAdjust="spacing" textLength="61.8" x="717" y="523.8018">Exception Thrown</text><polygon fill="#181818" points="511.2,543.334,505.2,545.734,511.2,548.134,508.8,545.734" style="stroke:#181818;stroke-width:0.6;"/><line style="stroke:#181818;stroke-width:0.6;stroke-dasharray:2.0,2.0;" x1="507.6" x2="689.4" y1="545.734" y2="545.734"/><text fill="#000000" font-family="sans-serif" font-size="7.8" font-weight="bold" lengthAdjust="spacing" textLength="8.4" x="514.8" y="542.5764">23</text><text fill="#000000" font-family="sans-serif" font-size="7.8" lengthAdjust="spacing" textLength="160.2" x="525.6" y="542.5764">show error message (Category does not exist)</text><polygon fill="#181818" points="319.8,562.1086,313.8,564.5086,319.8,566.9086,317.4,564.5086" style="stroke:#181818;stroke-width:0.6;"/><line style="stroke:#181818;stroke-width:0.6;stroke-dasharray:2.0,2.0;" x1="316.2" x2="498" y1="564.5086" y2="564.5086"/><text fill="#000000" font-family="sans-serif" font-size="7.8" font-weight="bold" lengthAdjust="spacing" textLength="8.4" x="323.4" y="561.351">24</text><text fill="#000000" font-family="sans-serif" font-size="7.8" lengthAdjust="spacing" textLength="160.2" x="334.2" y="561.351">show error message (Category does not exist)</text><polygon fill="#181818" points="971.7,585.0832,977.7,587.4832,971.7,589.8832,974.1,587.4832" style="stroke:#181818;stroke-width:0.6;"/><line style="stroke:#181818;stroke-width:0.6;" x1="696" x2="975.3" y1="587.4832" y2="587.4832"/><text fill="#000000" font-family="sans-serif" font-size="7.8" font-weight="bold" lengthAdjust="spacing" textLength="8.4" x="700.2" y="584.3256">25</text><text fill="#000000" font-family="sans-serif" font-size="7.8" lengthAdjust="spacing" textLength="79.8" x="711" y="584.3256">getProductRepository()</text><polygon fill="#181818" points="702.6,603.8578,696.6,606.2578,702.6,608.6578,700.2,606.2578" style="stroke:#181818;stroke-width:0.6;"/><line style="stroke:#181818;stroke-width:0.6;stroke-dasharray:2.0,2.0;" x1="699" x2="981.3" y1="606.2578" y2="606.2578"/><text fill="#000000" font-family="sans-serif" font-size="7.8" font-weight="bold" lengthAdjust="spacing" textLength="8.4" x="706.2" y="603.1002">26</text><text fill="#000000" font-family="sans-serif" font-size="7.8" lengthAdjust="spacing" textLength="63" x="717" y="603.1002">productRepository</text><polygon fill="#181818" points="1168.2,622.6324,1174.2,625.0324,1168.2,627.4324,1170.6,625.0324" style="stroke:#181818;stroke-width:0.6;"/><line style="stroke:#181818;stroke-width:0.6;" x1="696" x2="1171.8" y1="625.0324" y2="625.0324"/><text fill="#000000" font-family="sans-serif" font-size="7.8" font-weight="bold" lengthAdjust="spacing" textLength="8.4" x="700.2" y="621.8748">27</text><text fill="#000000" font-family="sans-serif" font-size="7.8" lengthAdjust="spacing" textLength="55.8" x="711" y="621.8748">getAllProducts()</text><polygon fill="#181818" points="702.6,641.407,696.6,643.807,702.6,646.207,700.2,643.807" style="stroke:#181818;stroke-width:0.6;"/><line style="stroke:#181818;stroke-width:0.6;stroke-dasharray:2.0,2.0;" x1="699" x2="1177.8" y1="643.807" y2="643.807"/><text fill="#000000" font-family="sans-serif" font-size="7.8" font-weight="bold" lengthAdjust="spacing" textLength="8.4" x="706.2" y="640.6494">28</text><text fill="#000000" font-family="sans-serif" font-size="7.8" lengthAdjust="spacing" textLength="30" x="717" y="640.6494">products</text><polygon fill="#181818" points="1263,660.1816,1269,662.5816,1263,664.9816,1265.4,662.5816" style="stroke:#181818;stroke-width:0.6;"/><line style="stroke:#181818;stroke-width:0.6;" x1="696" x2="1266.6" y1="662.5816" y2="662.5816"/><text fill="#000000" font-family="sans-serif" font-size="7.8" font-weight="bold" lengthAdjust="spacing" textLength="8.4" x="700.2" y="659.424">29</text><text fill="#000000" font-family="sans-serif" font-size="7.8" lengthAdjust="spacing" textLength="21.6" x="711" y="659.424">create</text><rect fill="#E3E3E3" height="30.7453" rx="1.5" ry="1.5" style="stroke:#181818;stroke-width:0.3;" width="70.2" x="1270.2" y="648.607"/><text fill="#000000" font-family="sans-serif" font-size="8.4" lengthAdjust="spacing" textLength="61.8" x="1274.4" y="661.8715">filteredProducts:</text><text fill="#000000" font-family="sans-serif" font-size="8.4" lengthAdjust="spacing" textLength="52.2" x="1279.2" y="673.0441">List&lt;Product&gt;</text><path d="M646.8,690.1523 L690.6,690.1523 L690.6,695.727 L684.6,701.727 L646.8,701.727 L646.8,690.1523 " fill="#EEEEEE" style="stroke:#000000;stroke-width:0.8999999999999999;"/><rect fill="none" height="106.6477" style="stroke:#000000;stroke-width:0.8999999999999999;" width="705.6" x="646.8" y="690.1523"/><text fill="#000000" font-family="sans-serif" font-size="7.8" font-weight="bold" lengthAdjust="spacing" textLength="16.8" x="655.8" y="699.1693">loop</text><text fill="#000000" font-family="sans-serif" font-size="6.6" font-weight="bold" lengthAdjust="spacing" textLength="100.2" x="699.6" y="698.4744">[For each product in products]</text><polygon fill="#181818" points="1234.2,713.3016,1240.2,715.7016,1234.2,718.1016,1236.6,715.7016" style="stroke:#181818;stroke-width:0.6;"/><line style="stroke:#181818;stroke-width:0.6;" x1="696" x2="1237.8" y1="715.7016" y2="715.7016"/><text fill="#000000" font-family="sans-serif" font-size="7.8" font-weight="bold" lengthAdjust="spacing" textLength="8.4" x="700.2" y="712.5439">30</text><text fill="#000000" font-family="sans-serif" font-size="7.8" lengthAdjust="spacing" textLength="46.8" x="711" y="712.5439">getCategory()</text><polygon fill="#181818" points="702.6,732.0762,696.6,734.4762,702.6,736.8762,700.2,734.4762" style="stroke:#181818;stroke-width:0.6;"/><line style="stroke:#181818;stroke-width:0.6;stroke-dasharray:2.0,2.0;" x1="699" x2="1243.8" y1="734.4762" y2="734.4762"/><text fill="#000000" font-family="sans-serif" font-size="7.8" font-weight="bold" lengthAdjust="spacing" textLength="8.4" x="706.2" y="731.3186">31</text><text fill="#000000" font-family="sans-serif" font-size="7.8" lengthAdjust="spacing" textLength="57" x="717" y="731.3186">productCategory</text><path d="M652.8,743.4762 L689.4,743.4762 L689.4,749.0508 L683.4,755.0508 L652.8,755.0508 L652.8,743.4762 " fill="#EEEEEE" style="stroke:#000000;stroke-width:0.8999999999999999;"/><rect fill="none" height="49.1238" style="stroke:#000000;stroke-width:0.8999999999999999;" width="693.6" x="652.8" y="743.4762"/><text fill="#000000" font-family="sans-serif" font-size="7.8" font-weight="bold" lengthAdjust="spacing" textLength="9.6" x="661.8" y="752.4932">alt</text><text fill="#000000" font-family="sans-serif" font-size="6.6" font-weight="bold" lengthAdjust="spacing" textLength="100.2" x="698.4" y="751.7982">[productCategory == category]</text><polygon fill="#181818" points="1295.1,766.6254,1301.1,769.0254,1295.1,771.4254,1297.5,769.0254" style="stroke:#181818;stroke-width:0.6;"/><line style="stroke:#181818;stroke-width:0.6;" x1="696" x2="1298.7" y1="769.0254" y2="769.0254"/><text fill="#000000" font-family="sans-serif" font-size="7.8" font-weight="bold" lengthAdjust="spacing" textLength="8.4" x="700.2" y="765.8678">32</text><text fill="#000000" font-family="sans-serif" font-size="7.8" lengthAdjust="spacing" textLength="43.2" x="711" y="765.8678">add(product)</text><polygon fill="#181818" points="702.6,785.4,696.6,787.8,702.6,790.2,700.2,787.8" style="stroke:#181818;stroke-width:0.6;"/><line style="stroke:#181818;stroke-width:0.6;stroke-dasharray:2.0,2.0;" x1="699" x2="1304.7" y1="787.8" y2="787.8"/><text fill="#000000" font-family="sans-serif" font-size="7.8" font-weight="bold" lengthAdjust="spacing" textLength="8.4" x="706.2" y="784.6424">33</text><text fill="#000000" font-family="sans-serif" font-size="7.8" lengthAdjust="spacing" textLength="2.4" x="717" y="784.6424">&#160;</text><polygon fill="#181818" points="511.2,812.5746,505.2,814.9746,511.2,817.3746,508.8,814.9746" style="stroke:#181818;stroke-width:0.6;"/><line style="stroke:#181818;stroke-width:0.6;stroke-dasharray:2.0,2.0;" x1="507.6" x2="692.4" y1="814.9746" y2="814.9746"/><text fill="#000000" font-family="sans-serif" font-size="7.8" font-weight="bold" lengthAdjust="spacing" textLength="8.4" x="514.8" y="811.817">34</text><text fill="#000000" font-family="sans-serif" font-size="7.8" lengthAdjust="spacing" textLength="54" x="525.6" y="811.817">filteredProducts</text><polygon fill="#181818" points="319.8,831.3492,313.8,833.7492,319.8,836.1492,317.4,833.7492" style="stroke:#181818;stroke-width:0.6;"/><line style="stroke:#181818;stroke-width:0.6;stroke-dasharray:2.0,2.0;" x1="316.2" x2="501" y1="833.7492" y2="833.7492"/><text fill="#000000" font-family="sans-serif" font-size="7.8" font-weight="bold" lengthAdjust="spacing" textLength="8.4" x="323.4" y="830.5916">35</text><text fill="#000000" font-family="sans-serif" font-size="7.8" lengthAdjust="spacing" textLength="54" x="334.2" y="830.5916">filteredProducts</text><polygon fill="#181818" points="49.8,850.1238,43.8,852.5238,49.8,854.9238,47.4,852.5238" style="stroke:#181818;stroke-width:0.6;"/><line style="stroke:#181818;stroke-width:0.6;stroke-dasharray:2.0,2.0;" x1="46.2" x2="309.6" y1="852.5238" y2="852.5238"/><text fill="#000000" font-family="sans-serif" font-size="7.8" font-weight="bold" lengthAdjust="spacing" textLength="8.4" x="53.4" y="849.3662">36</text><text fill="#000000" font-family="sans-serif" font-size="7.8" lengthAdjust="spacing" textLength="235.8" x="64.2" y="849.3662">shows the list of products in the selected category or error message</text><!--SRC=[dLV1Rjim3BtxAuIUaWBzWM0ji2Kj4A3PWgGTTkX5bTb4g2DbajmsVpzAiMJBbkrsFZdMunD9FPAAVkNYI1Kza8CKaksLF00ngeHCXvKZPQzq1rjpAe0eO8QANT44w3tDvJiNE_922mrPPhX1w1R-bY0Oa0MdEukRR1VJBAEbaQ8yF8F2TsQa8XTh9VEI6Iu5ML61UwaBGZLPhpBSm736ZrGOSZ7Rm8vh0wh2FouTx77PWbNBSocCaaLHiSqVDlTfu1RK6sVWKDlDxnXKOMu_61ojXmvr-sSUepPmb9fZC1oqGsnkrziOeXgG9p5BMSG6noeCQc0drIaOd6PFOjstvgXwBPCRf8ZJX2D4jVdv-3Q_5e_pXnZwmWiyGCWhe4QRUppJRzNl6sVP1ZcXy3SCnsg2uBDUaQiRF7aoGqMYpBJHn4Z2fD1bORo_cZoV2AkouEm23uh6VR0FqY2PrSVb9H8o1OX8BUFY3aoSUpo-oJHW0xzJ6saypXvvK63ZD16LbMIqOXzBWsnMPcUwfT1Oc0nQB16J4sLxrL5SdJspsQnbsO7cC4nLEvKAiQ734ITJFdeNaRbVtiCEzsQnb_0SnlUY67AutvsEJVz6uG1OqCDGD9_SqyLNYxU7ky4RQUqiMLzd2UE6eTDxvii5RR12PpWPv3iMvXv8WKLEv4k3XL2HryNhgvGi5rcBsfTge-On_3UUGzUiOnGLRvKrst2MmkTkuZcMYscMhk6uTh_84b9QYIqq06_w0sq-RpwYLIJB-yc6AsTKdRKAJjdN1Ec5E4mIOgNOmyFHNbyJKHP5rYfQdC4pb9QIxm7wKvexMOfk0g8asE7jF-9xNNfXnfC7IojIEcyQDwlhh7K2Ik65vW1Quos6J7mwI2vHh48Q0XyecscgnFw30KGUQQFTU3iDjzDaausr9OjK4ut5c6YOVdHFqWfiwwDB54x5p_8UnIMLTjEvGYGdktqAAO_a3bEEp7jFIhYez-sR6jNz9YxceK7XBqHjW2VgdN13ay2JThUjxq7pHYcnFiw1vA57DCyd5TiqQHeSwbpUKkZE3Y7s9BmHxoYzBOhMRtV8SIEg9aAIhTMHxAUiEm_7J3yx4SDT5JLdlsiey3yMv7K3jE9iTeNKW6mgOlKF]--></g></svg>