<?xml version="1.0" encoding="us-ascii" standalone="no"?><svg xmlns="http://www.w3.org/2000/svg" xmlns:xlink="http://www.w3.org/1999/xlink" contentStyleType="text/css" height="1020.5px" preserveAspectRatio="none" style="width:1044px;height:1020px;background:#FFFFFF;" version="1.1" viewBox="0 0 1044 1020" width="1044.5px" zoomAndPan="magnify"><defs/><g><text fill="#000000" font-family="sans-serif" font-size="7" font-weight="bold" lengthAdjust="spacing" textLength="83" x="481.25" y="15.0537">Delete Order Sequence</text><rect fill="#FFFFFF" height="903.4785" style="stroke:#181818;stroke-width:0.5;" width="5" x="41" y="66.6211"/><rect fill="#FFFFFF" height="215.7217" style="stroke:#181818;stroke-width:0.5;" width="5" x="253" y="78.2666"/><rect fill="#FFFFFF" height="217.5371" style="stroke:#181818;stroke-width:0.5;" width="5" x="253" y="309.6338"/><rect fill="#FFFFFF" height="15.6455" style="stroke:#181818;stroke-width:0.5;" width="5" x="253" y="542.8164"/><rect fill="#FFFFFF" height="395.9922" style="stroke:#181818;stroke-width:0.5;" width="5" x="253" y="574.1074"/><rect fill="#FFFFFF" height="140.8096" style="stroke:#181818;stroke-width:0.5;" width="5" x="403" y="137.5332"/><rect fill="#FFFFFF" height="186.2461" style="stroke:#181818;stroke-width:0.5;" width="5" x="403" y="325.2793"/><rect fill="#FFFFFF" height="354.2012" style="stroke:#181818;stroke-width:0.5;" width="5" x="466.25" y="589.7529"/><rect fill="#FFFFFF" height="109.5186" style="stroke:#181818;stroke-width:0.5;" width="5" x="553" y="153.1787"/><rect fill="#FFFFFF" height="154.9551" style="stroke:#181818;stroke-width:0.5;" width="5" x="553" y="340.9248"/><rect fill="#FFFFFF" height="322.9102" style="stroke:#181818;stroke-width:0.5;" width="5" x="615.75" y="605.3984"/><rect fill="#FFFFFF" height="191.7461" style="stroke:#181818;stroke-width:0.5;" width="5" x="618.25" y="625.0439"/><rect fill="#FFFFFF" height="15.6455" style="stroke:#181818;stroke-width:0.5;" width="5" x="700.25" y="432.2979"/><rect fill="#FFFFFF" height="15.6455" style="stroke:#181818;stroke-width:0.5;" width="5" x="761" y="750.208"/><rect fill="#FFFFFF" height="15.6455" style="stroke:#181818;stroke-width:0.5;" width="5" x="817.25" y="168.8242"/><rect fill="#FFFFFF" height="15.6455" style="stroke:#181818;stroke-width:0.5;" width="5" x="817.25" y="643.1895"/><rect fill="#FFFFFF" height="15.6455" style="stroke:#181818;stroke-width:0.5;" width="5" x="869.75" y="200.1152"/><rect fill="#FFFFFF" height="15.6455" style="stroke:#181818;stroke-width:0.5;" width="5" x="869.75" y="356.5703"/><rect fill="#FFFFFF" height="15.6455" style="stroke:#181818;stroke-width:0.5;" width="5" x="869.75" y="674.4805"/><rect fill="#FFFFFF" height="15.6455" style="stroke:#181818;stroke-width:0.5;" width="5" x="928.75" y="231.4063"/><rect fill="#FFFFFF" height="15.6455" style="stroke:#181818;stroke-width:0.5;" width="5" x="928.75" y="387.8613"/><rect fill="#FFFFFF" height="15.6455" style="stroke:#181818;stroke-width:0.5;" width="5" x="993.5" y="705.7715"/><rect fill="#FFFFFF" height="76.7275" style="stroke:#181818;stroke-width:0.5;" width="5" x="993.5" y="835.9355"/><rect fill="none" height="543.9473" style="stroke:#000000;stroke-width:0.75;" width="1036" x="5" y="411.0068"/><rect fill="none" height="222.5371" style="stroke:#000000;stroke-width:0.75;" width="818.25" x="217.75" y="728.917"/><rect fill="none" height="104.5186" style="stroke:#000000;stroke-width:0.75;" width="808.25" x="222.75" y="843.4355"/><line style="stroke:#181818;stroke-width:0.25;stroke-dasharray:5.0,5.0;" x1="43.5" x2="43.5" y1="61.6211" y2="979.0996"/><line style="stroke:#181818;stroke-width:0.25;stroke-dasharray:5.0,5.0;" x1="255.25" x2="255.25" y1="61.6211" y2="979.0996"/><line style="stroke:#181818;stroke-width:0.25;stroke-dasharray:5.0,5.0;" x1="405.5" x2="405.5" y1="98.1719" y2="979.0996"/><line style="stroke:#181818;stroke-width:0.25;stroke-dasharray:5.0,5.0;" x1="468.5" x2="468.5" y1="119.9824" y2="979.0996"/><line style="stroke:#181818;stroke-width:0.25;stroke-dasharray:5.0,5.0;" x1="555.25" x2="555.25" y1="61.6211" y2="979.0996"/><line style="stroke:#181818;stroke-width:0.25;stroke-dasharray:5.0,5.0;" x1="618.25" x2="618.25" y1="61.6211" y2="979.0996"/><line style="stroke:#181818;stroke-width:0.25;stroke-dasharray:5.0,5.0;" x1="702.5" x2="702.5" y1="61.6211" y2="979.0996"/><line style="stroke:#181818;stroke-width:0.25;stroke-dasharray:5.0,5.0;" x1="763.5" x2="763.5" y1="61.6211" y2="979.0996"/><line style="stroke:#181818;stroke-width:0.25;stroke-dasharray:5.0,5.0;" x1="819.5" x2="819.5" y1="61.6211" y2="979.0996"/><line style="stroke:#181818;stroke-width:0.25;stroke-dasharray:5.0,5.0;" x1="872" x2="872" y1="61.6211" y2="979.0996"/><line style="stroke:#181818;stroke-width:0.25;stroke-dasharray:5.0,5.0;" x1="931" x2="931" y1="61.6211" y2="979.0996"/><line style="stroke:#181818;stroke-width:0.25;stroke-dasharray:5.0,5.0;" x1="996" x2="996" y1="61.6211" y2="979.0996"/><text fill="#000000" font-family="sans-serif" font-size="7" lengthAdjust="spacing" textLength="64" x="10" y="59.8643">Production Manager</text><ellipse cx="43.5" cy="26.5605" fill="#E3E3E3" rx="4" ry="4" style="stroke:#181818;stroke-width:0.25;"/><path d="M43.5,30.5605 L43.5,44.0605 M37,34.5605 L50,34.5605 M43.5,44.0605 L37,51.5605 M43.5,44.0605 L50,51.5605 " fill="none" style="stroke:#181818;stroke-width:0.25;"/><text fill="#000000" font-family="sans-serif" font-size="7" lengthAdjust="spacing" textLength="64" x="10" y="986.1533">Production Manager</text><ellipse cx="43.5" cy="992.1602" fill="#E3E3E3" rx="4" ry="4" style="stroke:#181818;stroke-width:0.25;"/><path d="M43.5,996.1602 L43.5,1009.6602 M37,1000.1602 L50,1000.1602 M43.5,1009.6602 L37,1017.1602 M43.5,1009.6602 L50,1017.1602 " fill="none" style="stroke:#181818;stroke-width:0.25;"/><rect fill="#E3E3E3" height="16.3105" rx="1.25" ry="1.25" style="stroke:#181818;stroke-width:0.25;" width="55.5" x="227.75" y="44.8105"/><text fill="#000000" font-family="sans-serif" font-size="7" lengthAdjust="spacing" textLength="48.5" x="231.25" y="55.8643">:CancelOrderUI</text><rect fill="#E3E3E3" height="16.3105" rx="1.25" ry="1.25" style="stroke:#181818;stroke-width:0.25;" width="55.5" x="227.75" y="978.5996"/><text fill="#000000" font-family="sans-serif" font-size="7" lengthAdjust="spacing" textLength="48.5" x="231.25" y="989.6533">:CancelOrderUI</text><rect fill="#E3E3E3" height="16.3105" rx="1.25" ry="1.25" style="stroke:#181818;stroke-width:0.25;" width="58" x="376.5" y="978.5996"/><text fill="#000000" font-family="sans-serif" font-size="7" lengthAdjust="spacing" textLength="51" x="380" y="989.6533">:ClientController</text><rect fill="#E3E3E3" height="16.3105" rx="1.25" ry="1.25" style="stroke:#181818;stroke-width:0.25;" width="58.5" x="439.5" y="978.5996"/><text fill="#000000" font-family="sans-serif" font-size="7" lengthAdjust="spacing" textLength="51.5" x="443" y="989.6533">:OrderController</text><rect fill="#E3E3E3" height="16.3105" rx="1.25" ry="1.25" style="stroke:#181818;stroke-width:0.25;" width="50.5" x="530.25" y="44.8105"/><text fill="#000000" font-family="sans-serif" font-size="7" lengthAdjust="spacing" textLength="43.5" x="533.75" y="55.8643">:ClientService</text><rect fill="#E3E3E3" height="16.3105" rx="1.25" ry="1.25" style="stroke:#181818;stroke-width:0.25;" width="50.5" x="530.25" y="978.5996"/><text fill="#000000" font-family="sans-serif" font-size="7" lengthAdjust="spacing" textLength="43.5" x="533.75" y="989.6533">:ClientService</text><rect fill="#E3E3E3" height="16.3105" rx="1.25" ry="1.25" style="stroke:#181818;stroke-width:0.25;" width="51" x="592.75" y="44.8105"/><text fill="#000000" font-family="sans-serif" font-size="7" lengthAdjust="spacing" textLength="44" x="596.25" y="55.8643">:OrderService</text><rect fill="#E3E3E3" height="16.3105" rx="1.25" ry="1.25" style="stroke:#181818;stroke-width:0.25;" width="51" x="592.75" y="978.5996"/><text fill="#000000" font-family="sans-serif" font-size="7" lengthAdjust="spacing" textLength="44" x="596.25" y="989.6533">:OrderService</text><rect fill="#E3E3E3" height="16.3105" rx="1.25" ry="1.25" style="stroke:#181818;stroke-width:0.25;" width="55.5" x="675" y="44.8105"/><text fill="#000000" font-family="sans-serif" font-size="7" lengthAdjust="spacing" textLength="48.5" x="678.5" y="55.8643">ClientException</text><rect fill="#E3E3E3" height="16.3105" rx="1.25" ry="1.25" style="stroke:#181818;stroke-width:0.25;" width="55.5" x="675" y="978.5996"/><text fill="#000000" font-family="sans-serif" font-size="7" lengthAdjust="spacing" textLength="48.5" x="678.5" y="989.6533">ClientException</text><rect fill="#E3E3E3" height="16.3105" rx="1.25" ry="1.25" style="stroke:#181818;stroke-width:0.25;" width="56" x="735.5" y="44.8105"/><text fill="#000000" font-family="sans-serif" font-size="7" lengthAdjust="spacing" textLength="49" x="739" y="55.8643">OrderException</text><rect fill="#E3E3E3" height="16.3105" rx="1.25" ry="1.25" style="stroke:#181818;stroke-width:0.25;" width="56" x="735.5" y="978.5996"/><text fill="#000000" font-family="sans-serif" font-size="7" lengthAdjust="spacing" textLength="49" x="739" y="989.6533">OrderException</text><rect fill="#E3E3E3" height="16.3105" rx="1.25" ry="1.25" style="stroke:#181818;stroke-width:0.25;" width="46.5" x="796.5" y="44.8105"/><text fill="#000000" font-family="sans-serif" font-size="7" lengthAdjust="spacing" textLength="39.5" x="800" y="55.8643">Repositories</text><rect fill="#E3E3E3" height="16.3105" rx="1.25" ry="1.25" style="stroke:#181818;stroke-width:0.25;" width="46.5" x="796.5" y="978.5996"/><text fill="#000000" font-family="sans-serif" font-size="7" lengthAdjust="spacing" textLength="39.5" x="800" y="989.6533">Repositories</text><rect fill="#E3E3E3" height="25.6211" rx="1.25" ry="1.25" style="stroke:#181818;stroke-width:0.25;" width="48.5" x="848" y="35.5"/><text fill="#000000" font-family="sans-serif" font-size="7" lengthAdjust="spacing" textLength="37" x="853.75" y="46.5537">repositories</text><text fill="#000000" font-family="sans-serif" font-size="7" lengthAdjust="spacing" textLength="41.5" x="851.5" y="55.8643">:Repositories</text><rect fill="#E3E3E3" height="25.6211" rx="1.25" ry="1.25" style="stroke:#181818;stroke-width:0.25;" width="48.5" x="848" y="978.5996"/><text fill="#000000" font-family="sans-serif" font-size="7" lengthAdjust="spacing" textLength="37" x="853.75" y="989.6533">repositories</text><text fill="#000000" font-family="sans-serif" font-size="7" lengthAdjust="spacing" textLength="41.5" x="851.5" y="998.9639">:Repositories</text><rect fill="#E3E3E3" height="25.6211" rx="1.25" ry="1.25" style="stroke:#181818;stroke-width:0.25;" width="59.5" x="901.5" y="35.5"/><text fill="#000000" font-family="sans-serif" font-size="7" lengthAdjust="spacing" textLength="52.5" x="905" y="46.5537">clientRepository:</text><text fill="#000000" font-family="sans-serif" font-size="7" lengthAdjust="spacing" textLength="52" x="905.25" y="55.8643">ClientRepository</text><rect fill="#E3E3E3" height="25.6211" rx="1.25" ry="1.25" style="stroke:#181818;stroke-width:0.25;" width="59.5" x="901.5" y="978.5996"/><text fill="#000000" font-family="sans-serif" font-size="7" lengthAdjust="spacing" textLength="52.5" x="905" y="989.6533">clientRepository:</text><text fill="#000000" font-family="sans-serif" font-size="7" lengthAdjust="spacing" textLength="52" x="905.25" y="998.9639">ClientRepository</text><rect fill="#E3E3E3" height="25.6211" rx="1.25" ry="1.25" style="stroke:#181818;stroke-width:0.25;" width="60" x="966" y="35.5"/><text fill="#000000" font-family="sans-serif" font-size="7" lengthAdjust="spacing" textLength="53" x="969.5" y="46.5537">orderRepository:</text><text fill="#000000" font-family="sans-serif" font-size="7" lengthAdjust="spacing" textLength="52.5" x="969.75" y="55.8643">OrderRepository</text><rect fill="#E3E3E3" height="25.6211" rx="1.25" ry="1.25" style="stroke:#181818;stroke-width:0.25;" width="60" x="966" y="978.5996"/><text fill="#000000" font-family="sans-serif" font-size="7" lengthAdjust="spacing" textLength="53" x="969.5" y="989.6533">orderRepository:</text><text fill="#000000" font-family="sans-serif" font-size="7" lengthAdjust="spacing" textLength="52.5" x="969.75" y="998.9639">OrderRepository</text><rect fill="#FFFFFF" height="903.4785" style="stroke:#181818;stroke-width:0.5;" width="5" x="41" y="66.6211"/><rect fill="#FFFFFF" height="215.7217" style="stroke:#181818;stroke-width:0.5;" width="5" x="253" y="78.2666"/><rect fill="#FFFFFF" height="217.5371" style="stroke:#181818;stroke-width:0.5;" width="5" x="253" y="309.6338"/><rect fill="#FFFFFF" height="15.6455" style="stroke:#181818;stroke-width:0.5;" width="5" x="253" y="542.8164"/><rect fill="#FFFFFF" height="395.9922" style="stroke:#181818;stroke-width:0.5;" width="5" x="253" y="574.1074"/><rect fill="#FFFFFF" height="140.8096" style="stroke:#181818;stroke-width:0.5;" width="5" x="403" y="137.5332"/><rect fill="#FFFFFF" height="186.2461" style="stroke:#181818;stroke-width:0.5;" width="5" x="403" y="325.2793"/><rect fill="#FFFFFF" height="354.2012" style="stroke:#181818;stroke-width:0.5;" width="5" x="466.25" y="589.7529"/><rect fill="#FFFFFF" height="109.5186" style="stroke:#181818;stroke-width:0.5;" width="5" x="553" y="153.1787"/><rect fill="#FFFFFF" height="154.9551" style="stroke:#181818;stroke-width:0.5;" width="5" x="553" y="340.9248"/><rect fill="#FFFFFF" height="322.9102" style="stroke:#181818;stroke-width:0.5;" width="5" x="615.75" y="605.3984"/><rect fill="#FFFFFF" height="191.7461" style="stroke:#181818;stroke-width:0.5;" width="5" x="618.25" y="625.0439"/><rect fill="#FFFFFF" height="15.6455" style="stroke:#181818;stroke-width:0.5;" width="5" x="700.25" y="432.2979"/><rect fill="#FFFFFF" height="15.6455" style="stroke:#181818;stroke-width:0.5;" width="5" x="761" y="750.208"/><rect fill="#FFFFFF" height="15.6455" style="stroke:#181818;stroke-width:0.5;" width="5" x="817.25" y="168.8242"/><rect fill="#FFFFFF" height="15.6455" style="stroke:#181818;stroke-width:0.5;" width="5" x="817.25" y="643.1895"/><rect fill="#FFFFFF" height="15.6455" style="stroke:#181818;stroke-width:0.5;" width="5" x="869.75" y="200.1152"/><rect fill="#FFFFFF" height="15.6455" style="stroke:#181818;stroke-width:0.5;" width="5" x="869.75" y="356.5703"/><rect fill="#FFFFFF" height="15.6455" style="stroke:#181818;stroke-width:0.5;" width="5" x="869.75" y="674.4805"/><rect fill="#FFFFFF" height="15.6455" style="stroke:#181818;stroke-width:0.5;" width="5" x="928.75" y="231.4063"/><rect fill="#FFFFFF" height="15.6455" style="stroke:#181818;stroke-width:0.5;" width="5" x="928.75" y="387.8613"/><rect fill="#FFFFFF" height="15.6455" style="stroke:#181818;stroke-width:0.5;" width="5" x="993.5" y="705.7715"/><rect fill="#FFFFFF" height="76.7275" style="stroke:#181818;stroke-width:0.5;" width="5" x="993.5" y="835.9355"/><polygon fill="#181818" points="247,76.2666,252,78.2666,247,80.2666,249,78.2666" style="stroke:#181818;stroke-width:0.5;"/><line style="stroke:#181818;stroke-width:0.5;" x1="46" x2="250" y1="78.2666" y2="78.2666"/><text fill="#000000" font-family="sans-serif" font-size="6.5" font-weight="bold" lengthAdjust="spacing" textLength="3.5" x="49.5" y="75.6353">1</text><text fill="#000000" font-family="sans-serif" font-size="6.5" lengthAdjust="spacing" textLength="66.5" x="55" y="75.6353">asks to delete an order</text><polygon fill="#181818" points="370.5,91.9121,375.5,93.9121,370.5,95.9121,372.5,93.9121" style="stroke:#181818;stroke-width:0.5;"/><line style="stroke:#181818;stroke-width:0.5;" x1="258" x2="373.5" y1="93.9121" y2="93.9121"/><text fill="#000000" font-family="sans-serif" font-size="6.5" font-weight="bold" lengthAdjust="spacing" textLength="3.5" x="261.5" y="91.2808">2</text><text fill="#000000" font-family="sans-serif" font-size="6.5" lengthAdjust="spacing" textLength="18" x="267" y="91.2808">create</text><rect fill="#E3E3E3" height="16.3105" rx="1.25" ry="1.25" style="stroke:#181818;stroke-width:0.25;" width="58" x="376.5" y="82.2666"/><text fill="#000000" font-family="sans-serif" font-size="7" lengthAdjust="spacing" textLength="51" x="380" y="93.3203">:ClientController</text><polygon fill="#181818" points="433.5,113.7227,438.5,115.7227,433.5,117.7227,435.5,115.7227" style="stroke:#181818;stroke-width:0.5;"/><line style="stroke:#181818;stroke-width:0.5;" x1="258" x2="436.5" y1="115.7227" y2="115.7227"/><text fill="#000000" font-family="sans-serif" font-size="6.5" font-weight="bold" lengthAdjust="spacing" textLength="3.5" x="261.5" y="113.0913">3</text><text fill="#000000" font-family="sans-serif" font-size="6.5" lengthAdjust="spacing" textLength="18" x="267" y="113.0913">create</text><rect fill="#E3E3E3" height="16.3105" rx="1.25" ry="1.25" style="stroke:#181818;stroke-width:0.25;" width="58.5" x="439.5" y="104.0771"/><text fill="#000000" font-family="sans-serif" font-size="7" lengthAdjust="spacing" textLength="51.5" x="443" y="115.1309">:OrderController</text><polygon fill="#181818" points="397,135.5332,402,137.5332,397,139.5332,399,137.5332" style="stroke:#181818;stroke-width:0.5;"/><line style="stroke:#181818;stroke-width:0.5;" x1="258" x2="400" y1="137.5332" y2="137.5332"/><text fill="#000000" font-family="sans-serif" font-size="6.5" font-weight="bold" lengthAdjust="spacing" textLength="3.5" x="261.5" y="134.9019">4</text><text fill="#000000" font-family="sans-serif" font-size="6.5" lengthAdjust="spacing" textLength="40.5" x="267" y="134.9019">getAllClients()</text><polygon fill="#181818" points="547,151.1787,552,153.1787,547,155.1787,549,153.1787" style="stroke:#181818;stroke-width:0.5;"/><line style="stroke:#181818;stroke-width:0.5;" x1="408" x2="550" y1="153.1787" y2="153.1787"/><text fill="#000000" font-family="sans-serif" font-size="6.5" font-weight="bold" lengthAdjust="spacing" textLength="3.5" x="411.5" y="150.5474">5</text><text fill="#000000" font-family="sans-serif" font-size="6.5" lengthAdjust="spacing" textLength="33" x="417" y="150.5474">getClients()</text><polygon fill="#181818" points="811.25,166.8242,816.25,168.8242,811.25,170.8242,813.25,168.8242" style="stroke:#181818;stroke-width:0.5;"/><line style="stroke:#181818;stroke-width:0.5;" x1="558" x2="814.25" y1="168.8242" y2="168.8242"/><text fill="#000000" font-family="sans-serif" font-size="6.5" font-weight="bold" lengthAdjust="spacing" textLength="3.5" x="561.5" y="166.1929">6</text><text fill="#000000" font-family="sans-serif" font-size="6.5" lengthAdjust="spacing" textLength="37.5" x="567" y="166.1929">getInstance()</text><polygon fill="#181818" points="563.5,182.4697,558.5,184.4697,563.5,186.4697,561.5,184.4697" style="stroke:#181818;stroke-width:0.5;"/><line style="stroke:#181818;stroke-width:0.5;stroke-dasharray:2.0,2.0;" x1="560.5" x2="819.25" y1="184.4697" y2="184.4697"/><text fill="#000000" font-family="sans-serif" font-size="6.5" font-weight="bold" lengthAdjust="spacing" textLength="3.5" x="566.5" y="181.8384">7</text><text fill="#000000" font-family="sans-serif" font-size="6.5" lengthAdjust="spacing" textLength="33.5" x="572" y="181.8384">repositories</text><polygon fill="#181818" points="863.75,198.1152,868.75,200.1152,863.75,202.1152,865.75,200.1152" style="stroke:#181818;stroke-width:0.5;"/><line style="stroke:#181818;stroke-width:0.5;" x1="558" x2="866.75" y1="200.1152" y2="200.1152"/><text fill="#000000" font-family="sans-serif" font-size="6.5" font-weight="bold" lengthAdjust="spacing" textLength="3.5" x="561.5" y="197.4839">8</text><text fill="#000000" font-family="sans-serif" font-size="6.5" lengthAdjust="spacing" textLength="60.5" x="567" y="197.4839">getClientRepository()</text><polygon fill="#181818" points="563.5,213.7607,558.5,215.7607,563.5,217.7607,561.5,215.7607" style="stroke:#181818;stroke-width:0.5;"/><line style="stroke:#181818;stroke-width:0.5;stroke-dasharray:2.0,2.0;" x1="560.5" x2="871.75" y1="215.7607" y2="215.7607"/><text fill="#000000" font-family="sans-serif" font-size="6.5" font-weight="bold" lengthAdjust="spacing" textLength="3.5" x="566.5" y="213.1294">9</text><text fill="#000000" font-family="sans-serif" font-size="6.5" lengthAdjust="spacing" textLength="46.5" x="572" y="213.1294">clientRepository</text><polygon fill="#181818" points="922.75,229.4063,927.75,231.4063,922.75,233.4063,924.75,231.4063" style="stroke:#181818;stroke-width:0.5;"/><line style="stroke:#181818;stroke-width:0.5;" x1="558" x2="925.75" y1="231.4063" y2="231.4063"/><text fill="#000000" font-family="sans-serif" font-size="6.5" font-weight="bold" lengthAdjust="spacing" textLength="7" x="561.5" y="228.7749">10</text><text fill="#000000" font-family="sans-serif" font-size="6.5" lengthAdjust="spacing" textLength="20.5" x="570.5" y="228.7749">getAll()</text><polygon fill="#181818" points="563.5,245.0518,558.5,247.0518,563.5,249.0518,561.5,247.0518" style="stroke:#181818;stroke-width:0.5;"/><line style="stroke:#181818;stroke-width:0.5;stroke-dasharray:2.0,2.0;" x1="560.5" x2="930.75" y1="247.0518" y2="247.0518"/><text fill="#000000" font-family="sans-serif" font-size="6.5" font-weight="bold" lengthAdjust="spacing" textLength="7" x="566.5" y="244.4204">11</text><text fill="#000000" font-family="sans-serif" font-size="6.5" lengthAdjust="spacing" textLength="19" x="575.5" y="244.4204">clients</text><polygon fill="#181818" points="413.5,260.6973,408.5,262.6973,413.5,264.6973,411.5,262.6973" style="stroke:#181818;stroke-width:0.5;"/><line style="stroke:#181818;stroke-width:0.5;stroke-dasharray:2.0,2.0;" x1="410.5" x2="555" y1="262.6973" y2="262.6973"/><text fill="#000000" font-family="sans-serif" font-size="6.5" font-weight="bold" lengthAdjust="spacing" textLength="7" x="416.5" y="260.0659">12</text><text fill="#000000" font-family="sans-serif" font-size="6.5" lengthAdjust="spacing" textLength="19" x="425.5" y="260.0659">clients</text><polygon fill="#181818" points="263.5,276.3428,258.5,278.3428,263.5,280.3428,261.5,278.3428" style="stroke:#181818;stroke-width:0.5;"/><line style="stroke:#181818;stroke-width:0.5;stroke-dasharray:2.0,2.0;" x1="260.5" x2="405" y1="278.3428" y2="278.3428"/><text fill="#000000" font-family="sans-serif" font-size="6.5" font-weight="bold" lengthAdjust="spacing" textLength="7" x="266.5" y="275.7114">13</text><text fill="#000000" font-family="sans-serif" font-size="6.5" lengthAdjust="spacing" textLength="19" x="275.5" y="275.7114">clients</text><polygon fill="#181818" points="51.5,291.9883,46.5,293.9883,51.5,295.9883,49.5,293.9883" style="stroke:#181818;stroke-width:0.5;"/><line style="stroke:#181818;stroke-width:0.5;stroke-dasharray:2.0,2.0;" x1="48.5" x2="255" y1="293.9883" y2="293.9883"/><text fill="#000000" font-family="sans-serif" font-size="6.5" font-weight="bold" lengthAdjust="spacing" textLength="7" x="54.5" y="291.3569">14</text><text fill="#000000" font-family="sans-serif" font-size="6.5" lengthAdjust="spacing" textLength="132" x="63.5" y="291.3569">shows the list of clients and requests client id</text><polygon fill="#181818" points="247,307.6338,252,309.6338,247,311.6338,249,309.6338" style="stroke:#181818;stroke-width:0.5;"/><line style="stroke:#181818;stroke-width:0.5;" x1="46" x2="250" y1="309.6338" y2="309.6338"/><text fill="#000000" font-family="sans-serif" font-size="6.5" font-weight="bold" lengthAdjust="spacing" textLength="7" x="49.5" y="307.0024">15</text><text fill="#000000" font-family="sans-serif" font-size="6.5" lengthAdjust="spacing" textLength="78.5" x="58.5" y="307.0024">provides requested client id</text><polygon fill="#181818" points="397,323.2793,402,325.2793,397,327.2793,399,325.2793" style="stroke:#181818;stroke-width:0.5;"/><line style="stroke:#181818;stroke-width:0.5;" x1="258" x2="400" y1="325.2793" y2="325.2793"/><text fill="#000000" font-family="sans-serif" font-size="6.5" font-weight="bold" lengthAdjust="spacing" textLength="7" x="261.5" y="322.6479">16</text><text fill="#000000" font-family="sans-serif" font-size="6.5" lengthAdjust="spacing" textLength="64" x="270.5" y="322.6479">getClientById(clientID)</text><polygon fill="#181818" points="547,338.9248,552,340.9248,547,342.9248,549,340.9248" style="stroke:#181818;stroke-width:0.5;"/><line style="stroke:#181818;stroke-width:0.5;" x1="408" x2="550" y1="340.9248" y2="340.9248"/><text fill="#000000" font-family="sans-serif" font-size="6.5" font-weight="bold" lengthAdjust="spacing" textLength="7" x="411.5" y="338.2935">17</text><text fill="#000000" font-family="sans-serif" font-size="6.5" lengthAdjust="spacing" textLength="64" x="420.5" y="338.2935">getClientById(clientID)</text><polygon fill="#181818" points="863.75,354.5703,868.75,356.5703,863.75,358.5703,865.75,356.5703" style="stroke:#181818;stroke-width:0.5;"/><line style="stroke:#181818;stroke-width:0.5;" x1="558" x2="866.75" y1="356.5703" y2="356.5703"/><text fill="#000000" font-family="sans-serif" font-size="6.5" font-weight="bold" lengthAdjust="spacing" textLength="7" x="561.5" y="353.939">18</text><text fill="#000000" font-family="sans-serif" font-size="6.5" lengthAdjust="spacing" textLength="60.5" x="570.5" y="353.939">getClientRepository()</text><polygon fill="#181818" points="563.5,370.2158,558.5,372.2158,563.5,374.2158,561.5,372.2158" style="stroke:#181818;stroke-width:0.5;"/><line style="stroke:#181818;stroke-width:0.5;stroke-dasharray:2.0,2.0;" x1="560.5" x2="871.75" y1="372.2158" y2="372.2158"/><text fill="#000000" font-family="sans-serif" font-size="6.5" font-weight="bold" lengthAdjust="spacing" textLength="7" x="566.5" y="369.5845">19</text><text fill="#000000" font-family="sans-serif" font-size="6.5" lengthAdjust="spacing" textLength="46.5" x="575.5" y="369.5845">clientRepository</text><polygon fill="#181818" points="922.75,385.8613,927.75,387.8613,922.75,389.8613,924.75,387.8613" style="stroke:#181818;stroke-width:0.5;"/><line style="stroke:#181818;stroke-width:0.5;" x1="558" x2="925.75" y1="387.8613" y2="387.8613"/><text fill="#000000" font-family="sans-serif" font-size="6.5" font-weight="bold" lengthAdjust="spacing" textLength="7" x="561.5" y="385.23">20</text><text fill="#000000" font-family="sans-serif" font-size="6.5" lengthAdjust="spacing" textLength="47.5" x="570.5" y="385.23">getById(clientID)</text><polygon fill="#181818" points="563.5,401.5068,558.5,403.5068,563.5,405.5068,561.5,403.5068" style="stroke:#181818;stroke-width:0.5;"/><line style="stroke:#181818;stroke-width:0.5;stroke-dasharray:2.0,2.0;" x1="560.5" x2="930.75" y1="403.5068" y2="403.5068"/><text fill="#000000" font-family="sans-serif" font-size="6.5" font-weight="bold" lengthAdjust="spacing" textLength="7" x="566.5" y="400.8755">21</text><text fill="#000000" font-family="sans-serif" font-size="6.5" lengthAdjust="spacing" textLength="15.5" x="575.5" y="400.8755">client</text><path d="M5,411.0068 L35.5,411.0068 L35.5,415.6523 L30.5,420.6523 L5,420.6523 L5,411.0068 " fill="#EEEEEE" style="stroke:#000000;stroke-width:0.75;"/><rect fill="none" height="543.9473" style="stroke:#000000;stroke-width:0.75;" width="1036" x="5" y="411.0068"/><text fill="#000000" font-family="sans-serif" font-size="6.5" font-weight="bold" lengthAdjust="spacing" textLength="8" x="12.5" y="418.521">alt</text><text fill="#000000" font-family="sans-serif" font-size="5.5" font-weight="bold" lengthAdjust="spacing" textLength="38" x="43" y="417.9419">[client == null]</text><polygon fill="#181818" points="694.25,430.2979,699.25,432.2979,694.25,434.2979,696.25,432.2979" style="stroke:#181818;stroke-width:0.5;"/><line style="stroke:#181818;stroke-width:0.5;" x1="558" x2="697.25" y1="432.2979" y2="432.2979"/><text fill="#000000" font-family="sans-serif" font-size="6.5" font-weight="bold" lengthAdjust="spacing" textLength="7" x="561.5" y="429.6665">22</text><text fill="#000000" font-family="sans-serif" font-size="6.5" lengthAdjust="spacing" textLength="86.5" x="570.5" y="429.6665">throw clientNotFound(clientID)</text><polygon fill="#181818" points="563.5,445.9434,558.5,447.9434,563.5,449.9434,561.5,447.9434" style="stroke:#181818;stroke-width:0.5;"/><line style="stroke:#181818;stroke-width:0.5;stroke-dasharray:2.0,2.0;" x1="560.5" x2="702.25" y1="447.9434" y2="447.9434"/><text fill="#000000" font-family="sans-serif" font-size="6.5" font-weight="bold" lengthAdjust="spacing" textLength="7" x="566.5" y="445.312">23</text><text fill="#000000" font-family="sans-serif" font-size="6.5" lengthAdjust="spacing" textLength="51.5" x="575.5" y="445.312">Exception Thrown</text><polygon fill="#181818" points="413.5,461.5889,408.5,463.5889,413.5,465.5889,411.5,463.5889" style="stroke:#181818;stroke-width:0.5;"/><line style="stroke:#181818;stroke-width:0.5;stroke-dasharray:2.0,2.0;" x1="410.5" x2="552.5" y1="463.5889" y2="463.5889"/><text fill="#000000" font-family="sans-serif" font-size="6.5" font-weight="bold" lengthAdjust="spacing" textLength="7" x="416.5" y="460.9575">24</text><text fill="#000000" font-family="sans-serif" font-size="6.5" lengthAdjust="spacing" textLength="124" x="425.5" y="460.9575">show error message (Client does not exist)</text><polygon fill="#181818" points="263.5,477.2344,258.5,479.2344,263.5,481.2344,261.5,479.2344" style="stroke:#181818;stroke-width:0.5;"/><line style="stroke:#181818;stroke-width:0.5;stroke-dasharray:2.0,2.0;" x1="260.5" x2="402.5" y1="479.2344" y2="479.2344"/><text fill="#000000" font-family="sans-serif" font-size="6.5" font-weight="bold" lengthAdjust="spacing" textLength="7" x="266.5" y="476.603">25</text><text fill="#000000" font-family="sans-serif" font-size="6.5" lengthAdjust="spacing" textLength="124" x="275.5" y="476.603">show error message (Client does not exist)</text><line style="stroke:#000000;stroke-width:0.5;stroke-dasharray:2.0,2.0;" x1="5" x2="1041" y1="483.7344" y2="483.7344"/><polygon fill="#181818" points="413.5,493.8799,408.5,495.8799,413.5,497.8799,411.5,495.8799" style="stroke:#181818;stroke-width:0.5;"/><line style="stroke:#181818;stroke-width:0.5;stroke-dasharray:2.0,2.0;" x1="410.5" x2="555" y1="495.8799" y2="495.8799"/><text fill="#000000" font-family="sans-serif" font-size="6.5" font-weight="bold" lengthAdjust="spacing" textLength="7" x="416.5" y="493.2485">26</text><text fill="#000000" font-family="sans-serif" font-size="6.5" lengthAdjust="spacing" textLength="15.5" x="425.5" y="493.2485">client</text><polygon fill="#181818" points="263.5,509.5254,258.5,511.5254,263.5,513.5254,261.5,511.5254" style="stroke:#181818;stroke-width:0.5;"/><line style="stroke:#181818;stroke-width:0.5;stroke-dasharray:2.0,2.0;" x1="260.5" x2="405" y1="511.5254" y2="511.5254"/><text fill="#000000" font-family="sans-serif" font-size="6.5" font-weight="bold" lengthAdjust="spacing" textLength="7" x="266.5" y="508.894">27</text><text fill="#000000" font-family="sans-serif" font-size="6.5" lengthAdjust="spacing" textLength="15.5" x="275.5" y="508.894">client</text><polygon fill="#181818" points="51.5,525.1709,46.5,527.1709,51.5,529.1709,49.5,527.1709" style="stroke:#181818;stroke-width:0.5;"/><line style="stroke:#181818;stroke-width:0.5;stroke-dasharray:2.0,2.0;" x1="48.5" x2="255" y1="527.1709" y2="527.1709"/><text fill="#000000" font-family="sans-serif" font-size="6.5" font-weight="bold" lengthAdjust="spacing" textLength="7" x="54.5" y="524.5396">28</text><text fill="#000000" font-family="sans-serif" font-size="6.5" lengthAdjust="spacing" textLength="153" x="63.5" y="524.5396">shows the client's order list and asks for confirmation</text><polygon fill="#181818" points="247,540.8164,252,542.8164,247,544.8164,249,542.8164" style="stroke:#181818;stroke-width:0.5;"/><line style="stroke:#181818;stroke-width:0.5;" x1="46" x2="250" y1="542.8164" y2="542.8164"/><text fill="#000000" font-family="sans-serif" font-size="6.5" font-weight="bold" lengthAdjust="spacing" textLength="7" x="49.5" y="540.1851">29</text><text fill="#000000" font-family="sans-serif" font-size="6.5" lengthAdjust="spacing" textLength="118" x="58.5" y="540.1851">confirms that he wants to delete an order</text><polygon fill="#181818" points="51.5,556.4619,46.5,558.4619,51.5,560.4619,49.5,558.4619" style="stroke:#181818;stroke-width:0.5;"/><line style="stroke:#181818;stroke-width:0.5;stroke-dasharray:2.0,2.0;" x1="48.5" x2="255" y1="558.4619" y2="558.4619"/><text fill="#000000" font-family="sans-serif" font-size="6.5" font-weight="bold" lengthAdjust="spacing" textLength="7" x="54.5" y="555.8306">30</text><text fill="#000000" font-family="sans-serif" font-size="6.5" lengthAdjust="spacing" textLength="48.5" x="63.5" y="555.8306">requests order id</text><polygon fill="#181818" points="247,572.1074,252,574.1074,247,576.1074,249,574.1074" style="stroke:#181818;stroke-width:0.5;"/><line style="stroke:#181818;stroke-width:0.5;" x1="46" x2="250" y1="574.1074" y2="574.1074"/><text fill="#000000" font-family="sans-serif" font-size="6.5" font-weight="bold" lengthAdjust="spacing" textLength="7" x="49.5" y="571.4761">31</text><text fill="#000000" font-family="sans-serif" font-size="6.5" lengthAdjust="spacing" textLength="77.5" x="58.5" y="571.4761">provides requested order id</text><polygon fill="#181818" points="460.25,587.7529,465.25,589.7529,460.25,591.7529,462.25,589.7529" style="stroke:#181818;stroke-width:0.5;"/><line style="stroke:#181818;stroke-width:0.5;" x1="258" x2="463.25" y1="589.7529" y2="589.7529"/><text fill="#000000" font-family="sans-serif" font-size="6.5" font-weight="bold" lengthAdjust="spacing" textLength="7" x="261.5" y="587.1216">32</text><text fill="#000000" font-family="sans-serif" font-size="6.5" lengthAdjust="spacing" textLength="59.5" x="270.5" y="587.1216">cancelOrder(orderID)</text><polygon fill="#181818" points="609.75,603.3984,614.75,605.3984,609.75,607.3984,611.75,605.3984" style="stroke:#181818;stroke-width:0.5;"/><line style="stroke:#181818;stroke-width:0.5;" x1="471.25" x2="612.75" y1="605.3984" y2="605.3984"/><text fill="#000000" font-family="sans-serif" font-size="6.5" font-weight="bold" lengthAdjust="spacing" textLength="7" x="474.75" y="602.7671">33</text><text fill="#000000" font-family="sans-serif" font-size="6.5" lengthAdjust="spacing" textLength="58" x="483.75" y="602.7671">deleteOrder(orderID)</text><line style="stroke:#181818;stroke-width:0.5;" x1="620.75" x2="644.25" y1="618.5439" y2="618.5439"/><line style="stroke:#181818;stroke-width:0.5;" x1="644.25" x2="644.25" y1="618.5439" y2="625.0439"/><line style="stroke:#181818;stroke-width:0.5;" x1="623.75" x2="644.25" y1="625.0439" y2="625.0439"/><polygon fill="#181818" points="628.75,623.0439,623.75,625.0439,628.75,627.0439,626.75,625.0439" style="stroke:#181818;stroke-width:0.5;"/><text fill="#000000" font-family="sans-serif" font-size="6.5" font-weight="bold" lengthAdjust="spacing" textLength="7" x="626.75" y="615.9126">34</text><text fill="#000000" font-family="sans-serif" font-size="6.5" lengthAdjust="spacing" textLength="63.5" x="635.75" y="615.9126">getOrderByID(orderID)</text><polygon fill="#181818" points="811.25,641.1895,816.25,643.1895,811.25,645.1895,813.25,643.1895" style="stroke:#181818;stroke-width:0.5;"/><line style="stroke:#181818;stroke-width:0.5;" x1="623.25" x2="814.25" y1="643.1895" y2="643.1895"/><text fill="#000000" font-family="sans-serif" font-size="6.5" font-weight="bold" lengthAdjust="spacing" textLength="7" x="626.75" y="640.5581">35</text><text fill="#000000" font-family="sans-serif" font-size="6.5" lengthAdjust="spacing" textLength="37.5" x="635.75" y="640.5581">getInstance()</text><polygon fill="#181818" points="628.75,656.835,623.75,658.835,628.75,660.835,626.75,658.835" style="stroke:#181818;stroke-width:0.5;"/><line style="stroke:#181818;stroke-width:0.5;stroke-dasharray:2.0,2.0;" x1="625.75" x2="819.25" y1="658.835" y2="658.835"/><text fill="#000000" font-family="sans-serif" font-size="6.5" font-weight="bold" lengthAdjust="spacing" textLength="7" x="631.75" y="656.2036">36</text><text fill="#000000" font-family="sans-serif" font-size="6.5" lengthAdjust="spacing" textLength="33.5" x="640.75" y="656.2036">repositories</text><polygon fill="#181818" points="863.75,672.4805,868.75,674.4805,863.75,676.4805,865.75,674.4805" style="stroke:#181818;stroke-width:0.5;"/><line style="stroke:#181818;stroke-width:0.5;" x1="623.25" x2="866.75" y1="674.4805" y2="674.4805"/><text fill="#000000" font-family="sans-serif" font-size="6.5" font-weight="bold" lengthAdjust="spacing" textLength="7" x="626.75" y="671.8491">37</text><text fill="#000000" font-family="sans-serif" font-size="6.5" lengthAdjust="spacing" textLength="60" x="635.75" y="671.8491">getOrderRepository()</text><polygon fill="#181818" points="628.75,688.126,623.75,690.126,628.75,692.126,626.75,690.126" style="stroke:#181818;stroke-width:0.5;"/><line style="stroke:#181818;stroke-width:0.5;stroke-dasharray:2.0,2.0;" x1="625.75" x2="871.75" y1="690.126" y2="690.126"/><text fill="#000000" font-family="sans-serif" font-size="6.5" font-weight="bold" lengthAdjust="spacing" textLength="7" x="631.75" y="687.4946">38</text><text fill="#000000" font-family="sans-serif" font-size="6.5" lengthAdjust="spacing" textLength="45.5" x="640.75" y="687.4946">orderRepository</text><polygon fill="#181818" points="987.5,703.7715,992.5,705.7715,987.5,707.7715,989.5,705.7715" style="stroke:#181818;stroke-width:0.5;"/><line style="stroke:#181818;stroke-width:0.5;" x1="623.25" x2="990.5" y1="705.7715" y2="705.7715"/><text fill="#000000" font-family="sans-serif" font-size="6.5" font-weight="bold" lengthAdjust="spacing" textLength="7" x="626.75" y="703.1401">39</text><text fill="#000000" font-family="sans-serif" font-size="6.5" lengthAdjust="spacing" textLength="48.5" x="635.75" y="703.1401">getById(orderID))</text><polygon fill="#181818" points="628.75,719.417,623.75,721.417,628.75,723.417,626.75,721.417" style="stroke:#181818;stroke-width:0.5;"/><line style="stroke:#181818;stroke-width:0.5;stroke-dasharray:2.0,2.0;" x1="625.75" x2="995.5" y1="721.417" y2="721.417"/><text fill="#000000" font-family="sans-serif" font-size="6.5" font-weight="bold" lengthAdjust="spacing" textLength="7" x="631.75" y="718.7856">40</text><text fill="#000000" font-family="sans-serif" font-size="6.5" lengthAdjust="spacing" textLength="14.5" x="640.75" y="718.7856">order</text><path d="M217.75,728.917 L248.25,728.917 L248.25,733.5625 L243.25,738.5625 L217.75,738.5625 L217.75,728.917 " fill="#EEEEEE" style="stroke:#000000;stroke-width:0.75;"/><rect fill="none" height="222.5371" style="stroke:#000000;stroke-width:0.75;" width="818.25" x="217.75" y="728.917"/><text fill="#000000" font-family="sans-serif" font-size="6.5" font-weight="bold" lengthAdjust="spacing" textLength="8" x="225.25" y="736.4312">alt</text><text fill="#000000" font-family="sans-serif" font-size="5.5" font-weight="bold" lengthAdjust="spacing" textLength="38.5" x="255.75" y="735.8521">[order == null]</text><polygon fill="#181818" points="755,748.208,760,750.208,755,752.208,757,750.208" style="stroke:#181818;stroke-width:0.5;"/><line style="stroke:#181818;stroke-width:0.5;" x1="623.25" x2="758" y1="750.208" y2="750.208"/><text fill="#000000" font-family="sans-serif" font-size="6.5" font-weight="bold" lengthAdjust="spacing" textLength="7" x="626.75" y="747.5767">41</text><text fill="#000000" font-family="sans-serif" font-size="6.5" lengthAdjust="spacing" textLength="86.5" x="635.75" y="747.5767">throw orderNotFound(orderID))</text><polygon fill="#181818" points="628.75,763.8535,623.75,765.8535,628.75,767.8535,626.75,765.8535" style="stroke:#181818;stroke-width:0.5;"/><line style="stroke:#181818;stroke-width:0.5;stroke-dasharray:2.0,2.0;" x1="625.75" x2="763" y1="765.8535" y2="765.8535"/><text fill="#000000" font-family="sans-serif" font-size="6.5" font-weight="bold" lengthAdjust="spacing" textLength="7" x="631.75" y="763.2222">42</text><text fill="#000000" font-family="sans-serif" font-size="6.5" lengthAdjust="spacing" textLength="51.5" x="640.75" y="763.2222">Exception Thrown</text><polygon fill="#181818" points="476.75,779.499,471.75,781.499,476.75,783.499,474.75,781.499" style="stroke:#181818;stroke-width:0.5;"/><line style="stroke:#181818;stroke-width:0.5;stroke-dasharray:2.0,2.0;" x1="473.75" x2="617.75" y1="781.499" y2="781.499"/><text fill="#000000" font-family="sans-serif" font-size="6.5" font-weight="bold" lengthAdjust="spacing" textLength="7" x="479.75" y="778.8677">43</text><text fill="#000000" font-family="sans-serif" font-size="6.5" lengthAdjust="spacing" textLength="123.5" x="488.75" y="778.8677">show error message (Order does not exist)</text><polygon fill="#181818" points="263.5,795.1445,258.5,797.1445,263.5,799.1445,261.5,797.1445" style="stroke:#181818;stroke-width:0.5;"/><line style="stroke:#181818;stroke-width:0.5;stroke-dasharray:2.0,2.0;" x1="260.5" x2="465.75" y1="797.1445" y2="797.1445"/><text fill="#000000" font-family="sans-serif" font-size="6.5" font-weight="bold" lengthAdjust="spacing" textLength="7" x="266.5" y="794.5132">44</text><text fill="#000000" font-family="sans-serif" font-size="6.5" lengthAdjust="spacing" textLength="123.5" x="275.5" y="794.5132">show error message (Order does not exist)</text><line style="stroke:#000000;stroke-width:0.5;stroke-dasharray:2.0,2.0;" x1="217.75" x2="1036" y1="801.6445" y2="801.6445"/><line style="stroke:#181818;stroke-width:0.5;stroke-dasharray:2.0,2.0;" x1="623.25" x2="644.25" y1="816.29" y2="816.29"/><line style="stroke:#181818;stroke-width:0.5;stroke-dasharray:2.0,2.0;" x1="644.25" x2="644.25" y1="816.29" y2="822.79"/><line style="stroke:#181818;stroke-width:0.5;stroke-dasharray:2.0,2.0;" x1="620.75" x2="644.25" y1="822.79" y2="822.79"/><polygon fill="#181818" points="625.75,820.79,620.75,822.79,625.75,824.79,623.75,822.79" style="stroke:#181818;stroke-width:0.5;"/><text fill="#000000" font-family="sans-serif" font-size="6.5" font-weight="bold" lengthAdjust="spacing" textLength="7" x="626.75" y="813.6587">45</text><text fill="#000000" font-family="sans-serif" font-size="6.5" lengthAdjust="spacing" textLength="14.5" x="635.75" y="813.6587">order</text><polygon fill="#181818" points="987.5,833.9355,992.5,835.9355,987.5,837.9355,989.5,835.9355" style="stroke:#181818;stroke-width:0.5;"/><line style="stroke:#181818;stroke-width:0.5;" x1="620.75" x2="990.5" y1="835.9355" y2="835.9355"/><text fill="#000000" font-family="sans-serif" font-size="6.5" font-weight="bold" lengthAdjust="spacing" textLength="7" x="624.25" y="833.3042">46</text><text fill="#000000" font-family="sans-serif" font-size="6.5" lengthAdjust="spacing" textLength="38" x="633.25" y="833.3042">delete(order))</text><path d="M222.75,843.4355 L253.25,843.4355 L253.25,848.0811 L248.25,853.0811 L222.75,853.0811 L222.75,843.4355 " fill="#EEEEEE" style="stroke:#000000;stroke-width:0.75;"/><rect fill="none" height="104.5186" style="stroke:#000000;stroke-width:0.75;" width="808.25" x="222.75" y="843.4355"/><text fill="#000000" font-family="sans-serif" font-size="6.5" font-weight="bold" lengthAdjust="spacing" textLength="8" x="230.25" y="850.9497">alt</text><text fill="#000000" font-family="sans-serif" font-size="5.5" font-weight="bold" lengthAdjust="spacing" textLength="41" x="260.75" y="850.3706">[system error]</text><polygon fill="#181818" points="626.25,862.7266,621.25,864.7266,626.25,866.7266,624.25,864.7266" style="stroke:#181818;stroke-width:0.5;"/><line style="stroke:#181818;stroke-width:0.5;stroke-dasharray:2.0,2.0;" x1="623.25" x2="993" y1="864.7266" y2="864.7266"/><text fill="#000000" font-family="sans-serif" font-size="6.5" font-weight="bold" lengthAdjust="spacing" textLength="7" x="629.25" y="862.0952">47</text><text fill="#000000" font-family="sans-serif" font-size="6.5" lengthAdjust="spacing" textLength="42.5" x="638.25" y="862.0952">Database error</text><polygon fill="#181818" points="476.75,878.3721,471.75,880.3721,476.75,882.3721,474.75,880.3721" style="stroke:#181818;stroke-width:0.5;"/><line style="stroke:#181818;stroke-width:0.5;stroke-dasharray:2.0,2.0;" x1="473.75" x2="615.25" y1="880.3721" y2="880.3721"/><text fill="#000000" font-family="sans-serif" font-size="6.5" font-weight="bold" lengthAdjust="spacing" textLength="7" x="479.75" y="877.7407">48</text><text fill="#000000" font-family="sans-serif" font-size="6.5" lengthAdjust="spacing" textLength="107" x="488.75" y="877.7407">show error message (Database error)</text><polygon fill="#181818" points="263.5,894.0176,258.5,896.0176,263.5,898.0176,261.5,896.0176" style="stroke:#181818;stroke-width:0.5;"/><line style="stroke:#181818;stroke-width:0.5;stroke-dasharray:2.0,2.0;" x1="260.5" x2="465.75" y1="896.0176" y2="896.0176"/><text fill="#000000" font-family="sans-serif" font-size="6.5" font-weight="bold" lengthAdjust="spacing" textLength="7" x="266.5" y="893.3862">49</text><text fill="#000000" font-family="sans-serif" font-size="6.5" lengthAdjust="spacing" textLength="107" x="275.5" y="893.3862">show error message (Database error)</text><line style="stroke:#000000;stroke-width:0.5;stroke-dasharray:2.0,2.0;" x1="222.75" x2="1031" y1="900.5176" y2="900.5176"/><polygon fill="#181818" points="626.25,910.6631,621.25,912.6631,626.25,914.6631,624.25,912.6631" style="stroke:#181818;stroke-width:0.5;"/><line style="stroke:#181818;stroke-width:0.5;stroke-dasharray:2.0,2.0;" x1="623.25" x2="995.5" y1="912.6631" y2="912.6631"/><text fill="#000000" font-family="sans-serif" font-size="6.5" font-weight="bold" lengthAdjust="spacing" textLength="7" x="629.25" y="910.0317">50</text><text fill="#000000" font-family="sans-serif" font-size="6.5" lengthAdjust="spacing" textLength="14.5" x="638.25" y="910.0317">order</text><polygon fill="#181818" points="476.75,926.3086,471.75,928.3086,476.75,930.3086,474.75,928.3086" style="stroke:#181818;stroke-width:0.5;"/><line style="stroke:#181818;stroke-width:0.5;stroke-dasharray:2.0,2.0;" x1="473.75" x2="617.75" y1="928.3086" y2="928.3086"/><text fill="#000000" font-family="sans-serif" font-size="6.5" font-weight="bold" lengthAdjust="spacing" textLength="7" x="479.75" y="925.6772">51</text><text fill="#000000" font-family="sans-serif" font-size="6.5" lengthAdjust="spacing" textLength="14.5" x="488.75" y="925.6772">order</text><polygon fill="#181818" points="263.5,941.9541,258.5,943.9541,263.5,945.9541,261.5,943.9541" style="stroke:#181818;stroke-width:0.5;"/><line style="stroke:#181818;stroke-width:0.5;stroke-dasharray:2.0,2.0;" x1="260.5" x2="468.25" y1="943.9541" y2="943.9541"/><text fill="#000000" font-family="sans-serif" font-size="6.5" font-weight="bold" lengthAdjust="spacing" textLength="7" x="266.5" y="941.3228">52</text><text fill="#000000" font-family="sans-serif" font-size="6.5" lengthAdjust="spacing" textLength="14.5" x="275.5" y="941.3228">order</text><polygon fill="#181818" points="49,968.0996,44,970.0996,49,972.0996,47,970.0996" style="stroke:#181818;stroke-width:0.5;"/><line style="stroke:#181818;stroke-width:0.5;stroke-dasharray:2.0,2.0;" x1="46" x2="255" y1="970.0996" y2="970.0996"/><text fill="#000000" font-family="sans-serif" font-size="6.5" font-weight="bold" lengthAdjust="spacing" textLength="7" x="52" y="967.4683">53</text><text fill="#000000" font-family="sans-serif" font-size="6.5" lengthAdjust="spacing" textLength="186" x="61" y="967.4683">shows all data and displays operation success or error message</text><!--SRC=[rPZ1RkCs48RlUef1BdKMs1SGi0NQE0KCD5qZtYrws0jNcZX4QD8bwMJzzXsHbaIHb6GdsKDzigdXn-7md-78vedBFTDi1pibLVMerGx1wWCMfdkoPzKJs-B67WM2nieokHMXWNbajNhXSWiFJ1Wi2iijcMwEnk8EDlZl0MM5iEHisvWlDflbTL6mWrNoiFkEchvNLccuMcjL7ohBbOGx9cbDVGNCmFgke8Kih_YUIGjNvGqZdlYiQzHVLyxawoes4HoblL7IQYN42LJvmI_tVqRM3XKPApUMsdho1lKphp30Rkx_pb53GuTCx3pmzaU5-sRh0VBsdvkXgICEBHqpCRp7lJASWihHEBFxs_LcQA83as-opCqOJl0-TNR7yfkyYOO2t_l18SNvEu1y7exqkmeG9qajKQ15S3CwOJdvy6T63qWfG9_r7NpybJG19R6U35W5jP_9f4SxisuQgSSDD1-QHNDxfNpuG9HA8zb5Dfr0GfDH3fbiqVucX8-PMLntffqVWJuX-0IG3aagyiGKbq4scXiyxx4DYAYDFZnm9OrjyYiY3gXEJV5JX_WOUbX2AB9aGetJmDZ1SCEzDcRypBavzB8vl5YoqwxEn3AcTKS_vUgi2marlud9C4yk4kmXLcuEdM0RaUKaswPY34a0JlX5cpmqZVAufDj5lL0AFo88RYoeXnP4oLoJmAW86DjM7U1r4R7Rv0wAmbwhPrwZQMTZ7KqF9qydj5VZxyTLlV2FLijtJUmHycjp_F-TGXF1-2cvT54g9SRE9M5RQNtw1F8WHDPiPFzqhPUaVArUJWD_AVk7EiYf88m4e-aGfbScYxXwTvq6V6cSaAE492xpowLrngSweDRK2-xG66e0OU6r2hMYT9NA0lwWAd0z0myApvkfw5hQYmhbUzJ9cJ8PLgMqKdh3Nqvzb2-SJRLqtT031Q9Iye7h7MiEzuo2UJ9luCm2BV32cW9yRb_LELdszTfxzjfoFPWzqSTrFLgpYVwjOU76iwMwR_l3G-mvBTJN2R_z4MRApTRe3XUWNRbpMAfvoppw5VZtxF9wLozgykRyWtxhRx-WWfEAtoWklPwIKyfUJkr1pPtKX2CnFBUFAU-JLwUnUyddqDorbEmxk9JSx-vE6jzxFWPJTqHh42djDHVIUMkrrRnBzFozuTyypxsCWgenSHUTpqolehp_BbRd2UMyYZJGkgzv_hWl4Vge48t_eyY5PJgM8sbHmf9PzfqPF47UvQo7pElYZSSSuouyu9zL4V8HoM9psXcBGGA89_SlUsxZiXxzFj7hC26WfhYwvgRcPY_OaLgBFMhNsO0vL1N5drOSdaQkwGX-hk_-0m00]--></g></svg>