<?xml version="1.0" encoding="us-ascii" standalone="no"?><svg xmlns="http://www.w3.org/2000/svg" xmlns:xlink="http://www.w3.org/1999/xlink" contentStyleType="text/css" height="730px" preserveAspectRatio="none" style="width:735px;height:730px;background:#FFFFFF;" version="1.1" viewBox="0 0 735 730" width="735.5px" zoomAndPan="magnify"><defs/><g><!--cluster UI--><g id="cluster_UI"><rect fill="none" height="50.5" rx="1.25" ry="1.25" style="stroke:#000000;stroke-width:0.75;" width="79" x="226" y="3.5"/><text fill="#000000" font-family="sans-serif" font-size="7" font-weight="bold" lengthAdjust="spacing" textLength="7" x="262" y="12.0537">UI</text></g><!--cluster Controller--><g id="cluster_Controller"><rect fill="none" height="69" rx="1.25" ry="1.25" style="stroke:#000000;stroke-width:0.75;" width="239.5" x="132.5" y="70.5"/><text fill="#000000" font-family="sans-serif" font-size="7" font-weight="bold" lengthAdjust="spacing" textLength="35.5" x="234.5" y="79.0537">Controller</text></g><!--cluster Service--><g id="cluster_Service"><rect fill="none" height="69" rx="1.25" ry="1.25" style="stroke:#000000;stroke-width:0.75;" width="243.5" x="131.5" y="156"/><text fill="#000000" font-family="sans-serif" font-size="7" font-weight="bold" lengthAdjust="spacing" textLength="27" x="239.75" y="164.5537">Service</text></g><!--cluster Repository--><g id="cluster_Repository"><rect fill="none" height="169.5" rx="1.25" ry="1.25" style="stroke:#000000;stroke-width:0.75;" width="207" x="112.5" y="250.5"/><text fill="#000000" font-family="sans-serif" font-size="7" font-weight="bold" lengthAdjust="spacing" textLength="38" x="197" y="259.0537">Repository</text></g><!--cluster Model--><g id="cluster_Model"><rect fill="none" height="281.5" rx="1.25" ry="1.25" style="stroke:#000000;stroke-width:0.75;" width="281" x="404.5" y="445.5"/><text fill="#000000" font-family="sans-serif" font-size="7" font-weight="bold" lengthAdjust="spacing" textLength="22" x="534" y="454.0537">Model</text></g><!--cluster Exception--><g id="cluster_Exception"><rect fill="none" height="146.5" rx="1.25" ry="1.25" style="stroke:#000000;stroke-width:0.75;" width="315.5" x="331.5" y="264.25"/><text fill="#000000" font-family="sans-serif" font-size="7" font-weight="bold" lengthAdjust="spacing" textLength="35" x="471.75" y="272.8037">Exception</text></g><!--class CancelOrderUI--><g id="elem_CancelOrderUI"><rect codeLine="7" fill="#F1F1F1" height="24" id="CancelOrderUI" rx="1.25" ry="1.25" style="stroke:#181818;stroke-width:0.25;" width="62.5" x="234.25" y="22"/><ellipse cx="241.75" cy="30" fill="#ADD1B2" rx="5.5" ry="5.5" style="stroke:#181818;stroke-width:0.5;"/><path d="M243.1328,27.9375 Q243.2109,27.8281 243.3047,27.7734 Q243.3984,27.7188 243.5078,27.7188 Q243.6953,27.7188 243.8125,27.8516 Q243.9297,27.9766 243.9297,28.2813 L243.9297,29.0078 Q243.9297,29.3125 243.8125,29.4453 Q243.6953,29.5781 243.5078,29.5781 Q243.3359,29.5781 243.2344,29.4766 Q243.1328,29.3828 243.0781,29.125 Q243.0547,28.9453 242.9609,28.8516 Q242.7969,28.6641 242.4922,28.5547 Q242.1875,28.4453 241.875,28.4453 Q241.4922,28.4453 241.1719,28.6094 Q240.8594,28.7734 240.6094,29.1484 Q240.3672,29.5234 240.3672,30.0391 L240.3672,30.5859 Q240.3672,31.2031 240.8125,31.6172 Q241.2578,32.0234 242.0547,32.0234 Q242.5234,32.0234 242.8516,31.8984 Q243.0469,31.8203 243.2578,31.6016 Q243.3906,31.4688 243.4609,31.4297 Q243.5391,31.3906 243.6406,31.3906 Q243.8047,31.3906 243.9297,31.5234 Q244.0625,31.6484 244.0625,31.8203 Q244.0625,31.9922 243.8906,32.1953 Q243.6406,32.4844 243.2422,32.6484 Q242.7031,32.875 242.0547,32.875 Q241.2969,32.875 240.6953,32.5625 Q240.2031,32.3125 239.8594,31.7813 Q239.5156,31.2422 239.5156,30.6016 L239.5156,30.0234 Q239.5156,29.3594 239.8203,28.7891 Q240.1328,28.2109 240.6797,27.9063 Q241.2266,27.5938 241.8438,27.5938 Q242.2109,27.5938 242.5313,27.6797 Q242.8594,27.7578 243.1328,27.9375 Z " fill="#000000"/><text fill="#000000" font-family="sans-serif" font-size="7" lengthAdjust="spacing" textLength="46.5" x="248.75" y="32.8984">CancelOrderUI</text><line style="stroke:#181818;stroke-width:0.25;" x1="234.75" x2="296.25" y1="38" y2="38"/><line style="stroke:#181818;stroke-width:0.25;" x1="234.75" x2="296.25" y1="42" y2="42"/></g><!--class ClientController--><g id="elem_ClientController"><rect codeLine="12" fill="#F1F1F1" height="42.6211" id="ClientController" rx="1.25" ry="1.25" style="stroke:#181818;stroke-width:0.25;" width="103.5" x="140.75" y="89"/><ellipse cx="165.875" cy="97" fill="#ADD1B2" rx="5.5" ry="5.5" style="stroke:#181818;stroke-width:0.5;"/><path d="M167.2578,94.9375 Q167.3359,94.8281 167.4297,94.7734 Q167.5234,94.7188 167.6328,94.7188 Q167.8203,94.7188 167.9375,94.8516 Q168.0547,94.9766 168.0547,95.2813 L168.0547,96.0078 Q168.0547,96.3125 167.9375,96.4453 Q167.8203,96.5781 167.6328,96.5781 Q167.4609,96.5781 167.3594,96.4766 Q167.2578,96.3828 167.2031,96.125 Q167.1797,95.9453 167.0859,95.8516 Q166.9219,95.6641 166.6172,95.5547 Q166.3125,95.4453 166,95.4453 Q165.6172,95.4453 165.2969,95.6094 Q164.9844,95.7734 164.7344,96.1484 Q164.4922,96.5234 164.4922,97.0391 L164.4922,97.5859 Q164.4922,98.2031 164.9375,98.6172 Q165.3828,99.0234 166.1797,99.0234 Q166.6484,99.0234 166.9766,98.8984 Q167.1719,98.8203 167.3828,98.6016 Q167.5156,98.4688 167.5859,98.4297 Q167.6641,98.3906 167.7656,98.3906 Q167.9297,98.3906 168.0547,98.5234 Q168.1875,98.6484 168.1875,98.8203 Q168.1875,98.9922 168.0156,99.1953 Q167.7656,99.4844 167.3672,99.6484 Q166.8281,99.875 166.1797,99.875 Q165.4219,99.875 164.8203,99.5625 Q164.3281,99.3125 163.9844,98.7813 Q163.6406,98.2422 163.6406,97.6016 L163.6406,97.0234 Q163.6406,96.3594 163.9453,95.7891 Q164.2578,95.2109 164.8047,94.9063 Q165.3516,94.5938 165.9688,94.5938 Q166.3359,94.5938 166.6563,94.6797 Q166.9844,94.7578 167.2578,94.9375 Z " fill="#000000"/><text fill="#000000" font-family="sans-serif" font-size="7" lengthAdjust="spacing" textLength="49" x="176.125" y="99.8984">ClientController</text><line style="stroke:#181818;stroke-width:0.25;" x1="141.25" x2="243.75" y1="105" y2="105"/><line style="stroke:#181818;stroke-width:0.25;" x1="141.25" x2="243.75" y1="109" y2="109"/><text fill="#000000" font-family="sans-serif" font-size="7" lengthAdjust="spacing" textLength="91" x="143.75" y="118.5537">+getAllClients() : List&lt;Client&gt;</text><text fill="#000000" font-family="sans-serif" font-size="7" lengthAdjust="spacing" textLength="97.5" x="143.75" y="127.8643">+getClientById(clientID) : Client</text></g><!--class OrderController--><g id="elem_OrderController"><rect codeLine="17" fill="#F1F1F1" height="33.3105" id="OrderController" rx="1.25" ry="1.25" style="stroke:#181818;stroke-width:0.25;" width="102" x="262" y="93.5"/><ellipse cx="286.125" cy="101.5" fill="#ADD1B2" rx="5.5" ry="5.5" style="stroke:#181818;stroke-width:0.5;"/><path d="M287.5078,99.4375 Q287.5859,99.3281 287.6797,99.2734 Q287.7734,99.2188 287.8828,99.2188 Q288.0703,99.2188 288.1875,99.3516 Q288.3047,99.4766 288.3047,99.7813 L288.3047,100.5078 Q288.3047,100.8125 288.1875,100.9453 Q288.0703,101.0781 287.8828,101.0781 Q287.7109,101.0781 287.6094,100.9766 Q287.5078,100.8828 287.4531,100.625 Q287.4297,100.4453 287.3359,100.3516 Q287.1719,100.1641 286.8672,100.0547 Q286.5625,99.9453 286.25,99.9453 Q285.8672,99.9453 285.5469,100.1094 Q285.2344,100.2734 284.9844,100.6484 Q284.7422,101.0234 284.7422,101.5391 L284.7422,102.0859 Q284.7422,102.7031 285.1875,103.1172 Q285.6328,103.5234 286.4297,103.5234 Q286.8984,103.5234 287.2266,103.3984 Q287.4219,103.3203 287.6328,103.1016 Q287.7656,102.9688 287.8359,102.9297 Q287.9141,102.8906 288.0156,102.8906 Q288.1797,102.8906 288.3047,103.0234 Q288.4375,103.1484 288.4375,103.3203 Q288.4375,103.4922 288.2656,103.6953 Q288.0156,103.9844 287.6172,104.1484 Q287.0781,104.375 286.4297,104.375 Q285.6719,104.375 285.0703,104.0625 Q284.5781,103.8125 284.2344,103.2813 Q283.8906,102.7422 283.8906,102.1016 L283.8906,101.5234 Q283.8906,100.8594 284.1953,100.2891 Q284.5078,99.7109 285.0547,99.4063 Q285.6016,99.0938 286.2188,99.0938 Q286.5859,99.0938 286.9063,99.1797 Q287.2344,99.2578 287.5078,99.4375 Z " fill="#000000"/><text fill="#000000" font-family="sans-serif" font-size="7" lengthAdjust="spacing" textLength="49.5" x="296.375" y="104.3984">OrderController</text><line style="stroke:#181818;stroke-width:0.25;" x1="262.5" x2="363.5" y1="109.5" y2="109.5"/><line style="stroke:#181818;stroke-width:0.25;" x1="262.5" x2="363.5" y1="113.5" y2="113.5"/><text fill="#000000" font-family="sans-serif" font-size="7" lengthAdjust="spacing" textLength="96" x="265" y="123.0537">+cancelOrder(orderID) : Order</text></g><!--class ClientService--><g id="elem_ClientService"><rect codeLine="23" fill="#F1F1F1" height="42.6211" id="ClientService" rx="1.25" ry="1.25" style="stroke:#181818;stroke-width:0.25;" width="103.5" x="139.75" y="174.5"/><ellipse cx="168.625" cy="182.5" fill="#ADD1B2" rx="5.5" ry="5.5" style="stroke:#181818;stroke-width:0.5;"/><path d="M170.0078,180.4375 Q170.0859,180.3281 170.1797,180.2734 Q170.2734,180.2188 170.3828,180.2188 Q170.5703,180.2188 170.6875,180.3516 Q170.8047,180.4766 170.8047,180.7813 L170.8047,181.5078 Q170.8047,181.8125 170.6875,181.9453 Q170.5703,182.0781 170.3828,182.0781 Q170.2109,182.0781 170.1094,181.9766 Q170.0078,181.8828 169.9531,181.625 Q169.9297,181.4453 169.8359,181.3516 Q169.6719,181.1641 169.3672,181.0547 Q169.0625,180.9453 168.75,180.9453 Q168.3672,180.9453 168.0469,181.1094 Q167.7344,181.2734 167.4844,181.6484 Q167.2422,182.0234 167.2422,182.5391 L167.2422,183.0859 Q167.2422,183.7031 167.6875,184.1172 Q168.1328,184.5234 168.9297,184.5234 Q169.3984,184.5234 169.7266,184.3984 Q169.9219,184.3203 170.1328,184.1016 Q170.2656,183.9688 170.3359,183.9297 Q170.4141,183.8906 170.5156,183.8906 Q170.6797,183.8906 170.8047,184.0234 Q170.9375,184.1484 170.9375,184.3203 Q170.9375,184.4922 170.7656,184.6953 Q170.5156,184.9844 170.1172,185.1484 Q169.5781,185.375 168.9297,185.375 Q168.1719,185.375 167.5703,185.0625 Q167.0781,184.8125 166.7344,184.2813 Q166.3906,183.7422 166.3906,183.1016 L166.3906,182.5234 Q166.3906,181.8594 166.6953,181.2891 Q167.0078,180.7109 167.5547,180.4063 Q168.1016,180.0938 168.7188,180.0938 Q169.0859,180.0938 169.4063,180.1797 Q169.7344,180.2578 170.0078,180.4375 Z " fill="#000000"/><text fill="#000000" font-family="sans-serif" font-size="7" lengthAdjust="spacing" textLength="41.5" x="178.875" y="185.3984">ClientService</text><line style="stroke:#181818;stroke-width:0.25;" x1="140.25" x2="242.75" y1="190.5" y2="190.5"/><line style="stroke:#181818;stroke-width:0.25;" x1="140.25" x2="242.75" y1="194.5" y2="194.5"/><text fill="#000000" font-family="sans-serif" font-size="7" lengthAdjust="spacing" textLength="83.5" x="142.75" y="204.0537">+getClients() : List&lt;Client&gt;</text><text fill="#000000" font-family="sans-serif" font-size="7" lengthAdjust="spacing" textLength="97.5" x="142.75" y="213.3643">+getClientById(clientID) : Client</text></g><!--class OrderService--><g id="elem_OrderService"><rect codeLine="28" fill="#F1F1F1" height="42.6211" id="OrderService" rx="1.25" ry="1.25" style="stroke:#181818;stroke-width:0.25;" width="106" x="261" y="174.5"/><ellipse cx="290.875" cy="182.5" fill="#ADD1B2" rx="5.5" ry="5.5" style="stroke:#181818;stroke-width:0.5;"/><path d="M292.2578,180.4375 Q292.3359,180.3281 292.4297,180.2734 Q292.5234,180.2188 292.6328,180.2188 Q292.8203,180.2188 292.9375,180.3516 Q293.0547,180.4766 293.0547,180.7813 L293.0547,181.5078 Q293.0547,181.8125 292.9375,181.9453 Q292.8203,182.0781 292.6328,182.0781 Q292.4609,182.0781 292.3594,181.9766 Q292.2578,181.8828 292.2031,181.625 Q292.1797,181.4453 292.0859,181.3516 Q291.9219,181.1641 291.6172,181.0547 Q291.3125,180.9453 291,180.9453 Q290.6172,180.9453 290.2969,181.1094 Q289.9844,181.2734 289.7344,181.6484 Q289.4922,182.0234 289.4922,182.5391 L289.4922,183.0859 Q289.4922,183.7031 289.9375,184.1172 Q290.3828,184.5234 291.1797,184.5234 Q291.6484,184.5234 291.9766,184.3984 Q292.1719,184.3203 292.3828,184.1016 Q292.5156,183.9688 292.5859,183.9297 Q292.6641,183.8906 292.7656,183.8906 Q292.9297,183.8906 293.0547,184.0234 Q293.1875,184.1484 293.1875,184.3203 Q293.1875,184.4922 293.0156,184.6953 Q292.7656,184.9844 292.3672,185.1484 Q291.8281,185.375 291.1797,185.375 Q290.4219,185.375 289.8203,185.0625 Q289.3281,184.8125 288.9844,184.2813 Q288.6406,183.7422 288.6406,183.1016 L288.6406,182.5234 Q288.6406,181.8594 288.9453,181.2891 Q289.2578,180.7109 289.8047,180.4063 Q290.3516,180.0938 290.9688,180.0938 Q291.3359,180.0938 291.6563,180.1797 Q291.9844,180.2578 292.2578,180.4375 Z " fill="#000000"/><text fill="#000000" font-family="sans-serif" font-size="7" lengthAdjust="spacing" textLength="42" x="301.125" y="185.3984">OrderService</text><line style="stroke:#181818;stroke-width:0.25;" x1="261.5" x2="366.5" y1="190.5" y2="190.5"/><line style="stroke:#181818;stroke-width:0.25;" x1="261.5" x2="366.5" y1="194.5" y2="194.5"/><text fill="#000000" font-family="sans-serif" font-size="7" lengthAdjust="spacing" textLength="70.5" x="264" y="204.0537">+deleteOrder(orderID)</text><text fill="#000000" font-family="sans-serif" font-size="7" lengthAdjust="spacing" textLength="100" x="264" y="213.3643">+getOrderByID(orderID) : Order</text></g><!--class Repositories--><g id="elem_Repositories"><rect codeLine="35" fill="#F1F1F1" height="61.2422" id="Repositories" rx="1.25" ry="1.25" style="stroke:#181818;stroke-width:0.25;" width="136" x="136" y="269"/><ellipse cx="182.125" cy="277" fill="#ADD1B2" rx="5.5" ry="5.5" style="stroke:#181818;stroke-width:0.5;"/><path d="M183.5078,274.9375 Q183.5859,274.8281 183.6797,274.7734 Q183.7734,274.7188 183.8828,274.7188 Q184.0703,274.7188 184.1875,274.8516 Q184.3047,274.9766 184.3047,275.2813 L184.3047,276.0078 Q184.3047,276.3125 184.1875,276.4453 Q184.0703,276.5781 183.8828,276.5781 Q183.7109,276.5781 183.6094,276.4766 Q183.5078,276.3828 183.4531,276.125 Q183.4297,275.9453 183.3359,275.8516 Q183.1719,275.6641 182.8672,275.5547 Q182.5625,275.4453 182.25,275.4453 Q181.8672,275.4453 181.5469,275.6094 Q181.2344,275.7734 180.9844,276.1484 Q180.7422,276.5234 180.7422,277.0391 L180.7422,277.5859 Q180.7422,278.2031 181.1875,278.6172 Q181.6328,279.0234 182.4297,279.0234 Q182.8984,279.0234 183.2266,278.8984 Q183.4219,278.8203 183.6328,278.6016 Q183.7656,278.4688 183.8359,278.4297 Q183.9141,278.3906 184.0156,278.3906 Q184.1797,278.3906 184.3047,278.5234 Q184.4375,278.6484 184.4375,278.8203 Q184.4375,278.9922 184.2656,279.1953 Q184.0156,279.4844 183.6172,279.6484 Q183.0781,279.875 182.4297,279.875 Q181.6719,279.875 181.0703,279.5625 Q180.5781,279.3125 180.2344,278.7813 Q179.8906,278.2422 179.8906,277.6016 L179.8906,277.0234 Q179.8906,276.3594 180.1953,275.7891 Q180.5078,275.2109 181.0547,274.9063 Q181.6016,274.5938 182.2188,274.5938 Q182.5859,274.5938 182.9063,274.6797 Q183.2344,274.7578 183.5078,274.9375 Z " fill="#000000"/><text fill="#000000" font-family="sans-serif" font-size="7" lengthAdjust="spacing" textLength="39.5" x="192.375" y="279.8984">Repositories</text><line style="stroke:#181818;stroke-width:0.25;" x1="136.5" x2="271.5" y1="285" y2="285"/><line style="stroke:#181818;stroke-width:0.25;" x1="136.5" x2="271.5" y1="289" y2="289"/><text fill="#000000" font-family="sans-serif" font-size="7" lengthAdjust="spacing" textLength="47" x="139" y="298.5537">-Repositories()</text><text fill="#000000" font-family="sans-serif" font-size="7" lengthAdjust="spacing" textLength="91" x="139" y="307.8643">+getInstance() : Repositories</text><text fill="#000000" font-family="sans-serif" font-size="7" lengthAdjust="spacing" textLength="129" x="139" y="317.1748">+getClientRepository() : ClientRepository</text><text fill="#000000" font-family="sans-serif" font-size="7" lengthAdjust="spacing" textLength="130" x="139" y="326.4854">+getOrderRepository() : OrderRepository</text></g><!--class ClientRepository--><g id="elem_ClientRepository"><rect codeLine="42" fill="#F1F1F1" height="42.6211" id="ClientRepository" rx="1.25" ry="1.25" style="stroke:#181818;stroke-width:0.25;" width="85.5" x="225.75" y="369.5"/><ellipse cx="241.125" cy="377.5" fill="#ADD1B2" rx="5.5" ry="5.5" style="stroke:#181818;stroke-width:0.5;"/><path d="M242.5078,375.4375 Q242.5859,375.3281 242.6797,375.2734 Q242.7734,375.2188 242.8828,375.2188 Q243.0703,375.2188 243.1875,375.3516 Q243.3047,375.4766 243.3047,375.7813 L243.3047,376.5078 Q243.3047,376.8125 243.1875,376.9453 Q243.0703,377.0781 242.8828,377.0781 Q242.7109,377.0781 242.6094,376.9766 Q242.5078,376.8828 242.4531,376.625 Q242.4297,376.4453 242.3359,376.3516 Q242.1719,376.1641 241.8672,376.0547 Q241.5625,375.9453 241.25,375.9453 Q240.8672,375.9453 240.5469,376.1094 Q240.2344,376.2734 239.9844,376.6484 Q239.7422,377.0234 239.7422,377.5391 L239.7422,378.0859 Q239.7422,378.7031 240.1875,379.1172 Q240.6328,379.5234 241.4297,379.5234 Q241.8984,379.5234 242.2266,379.3984 Q242.4219,379.3203 242.6328,379.1016 Q242.7656,378.9688 242.8359,378.9297 Q242.9141,378.8906 243.0156,378.8906 Q243.1797,378.8906 243.3047,379.0234 Q243.4375,379.1484 243.4375,379.3203 Q243.4375,379.4922 243.2656,379.6953 Q243.0156,379.9844 242.6172,380.1484 Q242.0781,380.375 241.4297,380.375 Q240.6719,380.375 240.0703,380.0625 Q239.5781,379.8125 239.2344,379.2813 Q238.8906,378.7422 238.8906,378.1016 L238.8906,377.5234 Q238.8906,376.8594 239.1953,376.2891 Q239.5078,375.7109 240.0547,375.4063 Q240.6016,375.0938 241.2188,375.0938 Q241.5859,375.0938 241.9063,375.1797 Q242.2344,375.2578 242.5078,375.4375 Z " fill="#000000"/><text fill="#000000" font-family="sans-serif" font-size="7" lengthAdjust="spacing" textLength="52" x="249.875" y="380.3984">ClientRepository</text><line style="stroke:#181818;stroke-width:0.25;" x1="226.25" x2="310.75" y1="385.5" y2="385.5"/><line style="stroke:#181818;stroke-width:0.25;" x1="226.25" x2="310.75" y1="389.5" y2="389.5"/><text fill="#000000" font-family="sans-serif" font-size="7" lengthAdjust="spacing" textLength="69.5" x="228.75" y="399.0537">+getAll() : List&lt;Client&gt;</text><text fill="#000000" font-family="sans-serif" font-size="7" lengthAdjust="spacing" textLength="79.5" x="228.75" y="408.3643">+getById(clientID) : Client</text></g><!--class OrderRepository--><g id="elem_OrderRepository"><rect codeLine="47" fill="#F1F1F1" height="42.6211" id="OrderRepository" rx="1.25" ry="1.25" style="stroke:#181818;stroke-width:0.25;" width="87.5" x="120.75" y="369.5"/><ellipse cx="136.8" cy="377.5" fill="#ADD1B2" rx="5.5" ry="5.5" style="stroke:#181818;stroke-width:0.5;"/><path d="M138.1828,375.4375 Q138.2609,375.3281 138.3547,375.2734 Q138.4484,375.2188 138.5578,375.2188 Q138.7453,375.2188 138.8625,375.3516 Q138.9797,375.4766 138.9797,375.7813 L138.9797,376.5078 Q138.9797,376.8125 138.8625,376.9453 Q138.7453,377.0781 138.5578,377.0781 Q138.3859,377.0781 138.2844,376.9766 Q138.1828,376.8828 138.1281,376.625 Q138.1047,376.4453 138.0109,376.3516 Q137.8469,376.1641 137.5422,376.0547 Q137.2375,375.9453 136.925,375.9453 Q136.5422,375.9453 136.2219,376.1094 Q135.9094,376.2734 135.6594,376.6484 Q135.4172,377.0234 135.4172,377.5391 L135.4172,378.0859 Q135.4172,378.7031 135.8625,379.1172 Q136.3078,379.5234 137.1047,379.5234 Q137.5734,379.5234 137.9016,379.3984 Q138.0969,379.3203 138.3078,379.1016 Q138.4406,378.9688 138.5109,378.9297 Q138.5891,378.8906 138.6906,378.8906 Q138.8547,378.8906 138.9797,379.0234 Q139.1125,379.1484 139.1125,379.3203 Q139.1125,379.4922 138.9406,379.6953 Q138.6906,379.9844 138.2922,380.1484 Q137.7531,380.375 137.1047,380.375 Q136.3469,380.375 135.7453,380.0625 Q135.2531,379.8125 134.9094,379.2813 Q134.5656,378.7422 134.5656,378.1016 L134.5656,377.5234 Q134.5656,376.8594 134.8703,376.2891 Q135.1828,375.7109 135.7297,375.4063 Q136.2766,375.0938 136.8938,375.0938 Q137.2609,375.0938 137.5813,375.1797 Q137.9094,375.2578 138.1828,375.4375 Z " fill="#000000"/><text fill="#000000" font-family="sans-serif" font-size="7" lengthAdjust="spacing" textLength="52.5" x="145.7" y="380.3984">OrderRepository</text><line style="stroke:#181818;stroke-width:0.25;" x1="121.25" x2="207.75" y1="385.5" y2="385.5"/><line style="stroke:#181818;stroke-width:0.25;" x1="121.25" x2="207.75" y1="389.5" y2="389.5"/><text fill="#000000" font-family="sans-serif" font-size="7" lengthAdjust="spacing" textLength="81.5" x="123.75" y="399.0537">+getByID(orderID) : Order</text><text fill="#000000" font-family="sans-serif" font-size="7" lengthAdjust="spacing" textLength="77" x="123.75" y="408.3643">+delete(order) : boolean</text></g><!--class Client--><g id="elem_Client"><rect codeLine="54" fill="#F1F1F1" height="117.1055" id="Client" rx="1.25" ry="1.25" style="stroke:#181818;stroke-width:0.25;" width="212.5" x="438.75" y="464"/><ellipse cx="533.875" cy="472" fill="#ADD1B2" rx="5.5" ry="5.5" style="stroke:#181818;stroke-width:0.5;"/><path d="M535.2578,469.9375 Q535.3359,469.8281 535.4297,469.7734 Q535.5234,469.7188 535.6328,469.7188 Q535.8203,469.7188 535.9375,469.8516 Q536.0547,469.9766 536.0547,470.2813 L536.0547,471.0078 Q536.0547,471.3125 535.9375,471.4453 Q535.8203,471.5781 535.6328,471.5781 Q535.4609,471.5781 535.3594,471.4766 Q535.2578,471.3828 535.2031,471.125 Q535.1797,470.9453 535.0859,470.8516 Q534.9219,470.6641 534.6172,470.5547 Q534.3125,470.4453 534,470.4453 Q533.6172,470.4453 533.2969,470.6094 Q532.9844,470.7734 532.7344,471.1484 Q532.4922,471.5234 532.4922,472.0391 L532.4922,472.5859 Q532.4922,473.2031 532.9375,473.6172 Q533.3828,474.0234 534.1797,474.0234 Q534.6484,474.0234 534.9766,473.8984 Q535.1719,473.8203 535.3828,473.6016 Q535.5156,473.4688 535.5859,473.4297 Q535.6641,473.3906 535.7656,473.3906 Q535.9297,473.3906 536.0547,473.5234 Q536.1875,473.6484 536.1875,473.8203 Q536.1875,473.9922 536.0156,474.1953 Q535.7656,474.4844 535.3672,474.6484 Q534.8281,474.875 534.1797,474.875 Q533.4219,474.875 532.8203,474.5625 Q532.3281,474.3125 531.9844,473.7813 Q531.6406,473.2422 531.6406,472.6016 L531.6406,472.0234 Q531.6406,471.3594 531.9453,470.7891 Q532.2578,470.2109 532.8047,469.9063 Q533.3516,469.5938 533.9688,469.5938 Q534.3359,469.5938 534.6563,469.6797 Q534.9844,469.7578 535.2578,469.9375 Z " fill="#000000"/><text fill="#000000" font-family="sans-serif" font-size="7" lengthAdjust="spacing" textLength="18" x="544.125" y="474.8984">Client</text><line style="stroke:#181818;stroke-width:0.25;" x1="439.25" x2="650.75" y1="480" y2="480"/><text fill="#000000" font-family="sans-serif" font-size="7" lengthAdjust="spacing" textLength="39" x="441.75" y="489.5537">-clientID : int</text><text fill="#000000" font-family="sans-serif" font-size="7" lengthAdjust="spacing" textLength="60" x="441.75" y="498.8643">-address : Address</text><text fill="#000000" font-family="sans-serif" font-size="7" lengthAdjust="spacing" textLength="44.5" x="441.75" y="508.1748">-name : String</text><text fill="#000000" font-family="sans-serif" font-size="7" lengthAdjust="spacing" textLength="42" x="441.75" y="517.4854">-vatin : String</text><text fill="#000000" font-family="sans-serif" font-size="7" lengthAdjust="spacing" textLength="60.5" x="441.75" y="526.7959">-phoneNumber : int</text><text fill="#000000" font-family="sans-serif" font-size="7" lengthAdjust="spacing" textLength="43.5" x="441.75" y="536.1064">-email : String</text><text fill="#000000" font-family="sans-serif" font-size="7" lengthAdjust="spacing" textLength="68" x="441.75" y="545.417">-type : CompanyType</text><text fill="#000000" font-family="sans-serif" font-size="7" lengthAdjust="spacing" textLength="58" x="441.75" y="554.7275">-state : EntityState</text><text fill="#000000" font-family="sans-serif" font-size="7" lengthAdjust="spacing" textLength="66.5" x="441.75" y="564.0381">-orders : List&lt;Order&gt;</text><line style="stroke:#181818;stroke-width:0.25;" x1="439.25" x2="650.75" y1="567.7949" y2="567.7949"/><text fill="#000000" font-family="sans-serif" font-size="7" lengthAdjust="spacing" textLength="206.5" x="441.75" y="577.3486">+Client(clientID, name, address, vatin, phoneNumber, email, type)</text></g><!--class Order--><g id="elem_Order"><rect codeLine="67" fill="#F1F1F1" height="98.4844" id="Order" rx="1.25" ry="1.25" style="stroke:#181818;stroke-width:0.25;" width="265" x="412.5" y="620.5"/><ellipse cx="533.625" cy="628.5" fill="#ADD1B2" rx="5.5" ry="5.5" style="stroke:#181818;stroke-width:0.5;"/><path d="M535.0078,626.4375 Q535.0859,626.3281 535.1797,626.2734 Q535.2734,626.2188 535.3828,626.2188 Q535.5703,626.2188 535.6875,626.3516 Q535.8047,626.4766 535.8047,626.7813 L535.8047,627.5078 Q535.8047,627.8125 535.6875,627.9453 Q535.5703,628.0781 535.3828,628.0781 Q535.2109,628.0781 535.1094,627.9766 Q535.0078,627.8828 534.9531,627.625 Q534.9297,627.4453 534.8359,627.3516 Q534.6719,627.1641 534.3672,627.0547 Q534.0625,626.9453 533.75,626.9453 Q533.3672,626.9453 533.0469,627.1094 Q532.7344,627.2734 532.4844,627.6484 Q532.2422,628.0234 532.2422,628.5391 L532.2422,629.0859 Q532.2422,629.7031 532.6875,630.1172 Q533.1328,630.5234 533.9297,630.5234 Q534.3984,630.5234 534.7266,630.3984 Q534.9219,630.3203 535.1328,630.1016 Q535.2656,629.9688 535.3359,629.9297 Q535.4141,629.8906 535.5156,629.8906 Q535.6797,629.8906 535.8047,630.0234 Q535.9375,630.1484 535.9375,630.3203 Q535.9375,630.4922 535.7656,630.6953 Q535.5156,630.9844 535.1172,631.1484 Q534.5781,631.375 533.9297,631.375 Q533.1719,631.375 532.5703,631.0625 Q532.0781,630.8125 531.7344,630.2813 Q531.3906,629.7422 531.3906,629.1016 L531.3906,628.5234 Q531.3906,627.8594 531.6953,627.2891 Q532.0078,626.7109 532.5547,626.4063 Q533.1016,626.0938 533.7188,626.0938 Q534.0859,626.0938 534.4063,626.1797 Q534.7344,626.2578 535.0078,626.4375 Z " fill="#000000"/><text fill="#000000" font-family="sans-serif" font-size="7" lengthAdjust="spacing" textLength="18.5" x="543.875" y="631.3984">Order</text><line style="stroke:#181818;stroke-width:0.25;" x1="413" x2="677" y1="636.5" y2="636.5"/><text fill="#000000" font-family="sans-serif" font-size="7" lengthAdjust="spacing" textLength="39.5" x="415.5" y="646.0537">-orderID : int</text><text fill="#000000" font-family="sans-serif" font-size="7" lengthAdjust="spacing" textLength="85" x="415.5" y="655.3643">-deliveryAddress : Address</text><text fill="#000000" font-family="sans-serif" font-size="7" lengthAdjust="spacing" textLength="55.5" x="415.5" y="664.6748">-orderDate : Date</text><text fill="#000000" font-family="sans-serif" font-size="7" lengthAdjust="spacing" textLength="63" x="415.5" y="673.9854">-deliveryDate : Date</text><text fill="#000000" font-family="sans-serif" font-size="7" lengthAdjust="spacing" textLength="45.5" x="415.5" y="683.2959">-price : double</text><text fill="#000000" font-family="sans-serif" font-size="7" lengthAdjust="spacing" textLength="66" x="415.5" y="692.6064">-state : ProcessState</text><text fill="#000000" font-family="sans-serif" font-size="7" lengthAdjust="spacing" textLength="131" x="415.5" y="701.917">-productQuantity : Map&lt;Product, Integer&gt;</text><line style="stroke:#181818;stroke-width:0.25;" x1="413" x2="677" y1="705.6738" y2="705.6738"/><text fill="#000000" font-family="sans-serif" font-size="7" lengthAdjust="spacing" textLength="259" x="415.5" y="715.2275">+Order(orderID, deliveryAddress, orderDate, deliveryDate, price, productQuantity)</text></g><!--class ClientException--><g id="elem_ClientException"><rect codeLine="81" fill="#F1F1F1" height="33.3105" id="ClientException" rx="1.25" ry="1.25" style="stroke:#181818;stroke-width:0.25;" width="140" x="339.5" y="282.75"/><ellipse cx="383.125" cy="290.75" fill="#ADD1B2" rx="5.5" ry="5.5" style="stroke:#181818;stroke-width:0.5;"/><path d="M384.5078,288.6875 Q384.5859,288.5781 384.6797,288.5234 Q384.7734,288.4688 384.8828,288.4688 Q385.0703,288.4688 385.1875,288.6016 Q385.3047,288.7266 385.3047,289.0313 L385.3047,289.7578 Q385.3047,290.0625 385.1875,290.1953 Q385.0703,290.3281 384.8828,290.3281 Q384.7109,290.3281 384.6094,290.2266 Q384.5078,290.1328 384.4531,289.875 Q384.4297,289.6953 384.3359,289.6016 Q384.1719,289.4141 383.8672,289.3047 Q383.5625,289.1953 383.25,289.1953 Q382.8672,289.1953 382.5469,289.3594 Q382.2344,289.5234 381.9844,289.8984 Q381.7422,290.2734 381.7422,290.7891 L381.7422,291.3359 Q381.7422,291.9531 382.1875,292.3672 Q382.6328,292.7734 383.4297,292.7734 Q383.8984,292.7734 384.2266,292.6484 Q384.4219,292.5703 384.6328,292.3516 Q384.7656,292.2188 384.8359,292.1797 Q384.9141,292.1406 385.0156,292.1406 Q385.1797,292.1406 385.3047,292.2734 Q385.4375,292.3984 385.4375,292.5703 Q385.4375,292.7422 385.2656,292.9453 Q385.0156,293.2344 384.6172,293.3984 Q384.0781,293.625 383.4297,293.625 Q382.6719,293.625 382.0703,293.3125 Q381.5781,293.0625 381.2344,292.5313 Q380.8906,291.9922 380.8906,291.3516 L380.8906,290.7734 Q380.8906,290.1094 381.1953,289.5391 Q381.5078,288.9609 382.0547,288.6563 Q382.6016,288.3438 383.2188,288.3438 Q383.5859,288.3438 383.9063,288.4297 Q384.2344,288.5078 384.5078,288.6875 Z " fill="#000000"/><text fill="#000000" font-family="sans-serif" font-size="7" lengthAdjust="spacing" textLength="48.5" x="393.375" y="293.6484">ClientException</text><line style="stroke:#181818;stroke-width:0.25;" x1="340" x2="479" y1="298.75" y2="298.75"/><line style="stroke:#181818;stroke-width:0.25;" x1="340" x2="479" y1="302.75" y2="302.75"/><text fill="#000000" font-family="sans-serif" font-size="7" lengthAdjust="spacing" textLength="134" x="342.5" y="312.3037">+clientNotFound(clientID) : ClientException</text></g><!--class OrderException--><g id="elem_OrderException"><rect codeLine="85" fill="#F1F1F1" height="33.3105" id="OrderException" rx="1.25" ry="1.25" style="stroke:#181818;stroke-width:0.25;" width="141.5" x="497.25" y="282.75"/><ellipse cx="541.375" cy="290.75" fill="#ADD1B2" rx="5.5" ry="5.5" style="stroke:#181818;stroke-width:0.5;"/><path d="M542.7578,288.6875 Q542.8359,288.5781 542.9297,288.5234 Q543.0234,288.4688 543.1328,288.4688 Q543.3203,288.4688 543.4375,288.6016 Q543.5547,288.7266 543.5547,289.0313 L543.5547,289.7578 Q543.5547,290.0625 543.4375,290.1953 Q543.3203,290.3281 543.1328,290.3281 Q542.9609,290.3281 542.8594,290.2266 Q542.7578,290.1328 542.7031,289.875 Q542.6797,289.6953 542.5859,289.6016 Q542.4219,289.4141 542.1172,289.3047 Q541.8125,289.1953 541.5,289.1953 Q541.1172,289.1953 540.7969,289.3594 Q540.4844,289.5234 540.2344,289.8984 Q539.9922,290.2734 539.9922,290.7891 L539.9922,291.3359 Q539.9922,291.9531 540.4375,292.3672 Q540.8828,292.7734 541.6797,292.7734 Q542.1484,292.7734 542.4766,292.6484 Q542.6719,292.5703 542.8828,292.3516 Q543.0156,292.2188 543.0859,292.1797 Q543.1641,292.1406 543.2656,292.1406 Q543.4297,292.1406 543.5547,292.2734 Q543.6875,292.3984 543.6875,292.5703 Q543.6875,292.7422 543.5156,292.9453 Q543.2656,293.2344 542.8672,293.3984 Q542.3281,293.625 541.6797,293.625 Q540.9219,293.625 540.3203,293.3125 Q539.8281,293.0625 539.4844,292.5313 Q539.1406,291.9922 539.1406,291.3516 L539.1406,290.7734 Q539.1406,290.1094 539.4453,289.5391 Q539.7578,288.9609 540.3047,288.6563 Q540.8516,288.3438 541.4688,288.3438 Q541.8359,288.3438 542.1563,288.4297 Q542.4844,288.5078 542.7578,288.6875 Z " fill="#000000"/><text fill="#000000" font-family="sans-serif" font-size="7" lengthAdjust="spacing" textLength="49" x="551.625" y="293.6484">OrderException</text><line style="stroke:#181818;stroke-width:0.25;" x1="497.75" x2="638.25" y1="298.75" y2="298.75"/><line style="stroke:#181818;stroke-width:0.25;" x1="497.75" x2="638.25" y1="302.75" y2="302.75"/><text fill="#000000" font-family="sans-serif" font-size="7" lengthAdjust="spacing" textLength="135.5" x="500.25" y="312.3037">+orderNotFound(orderID) : OrderException</text></g><!--class RuntimeException--><g id="elem_RuntimeException"><rect codeLine="89" fill="#F1F1F1" height="24" id="RuntimeException" rx="1.25" ry="1.25" style="stroke:#181818;stroke-width:0.25;" width="72.5" x="452.25" y="378.75"/><ellipse cx="459.75" cy="386.75" fill="#ADD1B2" rx="5.5" ry="5.5" style="stroke:#181818;stroke-width:0.5;"/><path d="M461.1328,384.6875 Q461.2109,384.5781 461.3047,384.5234 Q461.3984,384.4688 461.5078,384.4688 Q461.6953,384.4688 461.8125,384.6016 Q461.9297,384.7266 461.9297,385.0313 L461.9297,385.7578 Q461.9297,386.0625 461.8125,386.1953 Q461.6953,386.3281 461.5078,386.3281 Q461.3359,386.3281 461.2344,386.2266 Q461.1328,386.1328 461.0781,385.875 Q461.0547,385.6953 460.9609,385.6016 Q460.7969,385.4141 460.4922,385.3047 Q460.1875,385.1953 459.875,385.1953 Q459.4922,385.1953 459.1719,385.3594 Q458.8594,385.5234 458.6094,385.8984 Q458.3672,386.2734 458.3672,386.7891 L458.3672,387.3359 Q458.3672,387.9531 458.8125,388.3672 Q459.2578,388.7734 460.0547,388.7734 Q460.5234,388.7734 460.8516,388.6484 Q461.0469,388.5703 461.2578,388.3516 Q461.3906,388.2188 461.4609,388.1797 Q461.5391,388.1406 461.6406,388.1406 Q461.8047,388.1406 461.9297,388.2734 Q462.0625,388.3984 462.0625,388.5703 Q462.0625,388.7422 461.8906,388.9453 Q461.6406,389.2344 461.2422,389.3984 Q460.7031,389.625 460.0547,389.625 Q459.2969,389.625 458.6953,389.3125 Q458.2031,389.0625 457.8594,388.5313 Q457.5156,387.9922 457.5156,387.3516 L457.5156,386.7734 Q457.5156,386.1094 457.8203,385.5391 Q458.1328,384.9609 458.6797,384.6563 Q459.2266,384.3438 459.8438,384.3438 Q460.2109,384.3438 460.5313,384.4297 Q460.8594,384.5078 461.1328,384.6875 Z " fill="#000000"/><text fill="#000000" font-family="sans-serif" font-size="7" lengthAdjust="spacing" textLength="56.5" x="466.75" y="389.6484">RuntimeException</text><line style="stroke:#181818;stroke-width:0.25;" x1="452.75" x2="524.25" y1="394.75" y2="394.75"/><line style="stroke:#181818;stroke-width:0.25;" x1="452.75" x2="524.25" y1="398.75" y2="398.75"/></g><!--link CancelOrderUI to ClientController--><g id="link_CancelOrderUI_ClientController"><path codeLine="93" d="M254.255,46.095 C243.215,57.47 228.2241,72.927 214.8191,86.742 " fill="none" id="CancelOrderUI-to-ClientController" style="stroke:#181818;stroke-width:0.5;stroke-dasharray:7.0,7.0;"/><polygon fill="#181818" points="212.73,88.895,217.299,87.0582,214.4709,87.1008,214.4283,84.2727,212.73,88.895" style="stroke:#181818;stroke-width:0.5;"/></g><!--link CancelOrderUI to OrderController--><g id="link_CancelOrderUI_OrderController"><path codeLine="94" d="M272.82,46.095 C280.805,58.75 292.0585,76.5782 301.0735,90.8582 " fill="none" id="CancelOrderUI-to-OrderController" style="stroke:#181818;stroke-width:0.5;stroke-dasharray:7.0,7.0;"/><polygon fill="#181818" points="302.675,93.395,301.964,88.5222,301.3404,91.281,298.5816,90.6575,302.675,93.395" style="stroke:#181818;stroke-width:0.5;"/></g><!--link ClientController to ClientService--><g id="link_ClientController_ClientService"><path codeLine="95" d="M192.255,131.64 C192.1,144.685 191.9357,158.4252 191.7807,171.4552 " fill="none" id="ClientController-to-ClientService" style="stroke:#181818;stroke-width:0.5;stroke-dasharray:7.0,7.0;"/><polygon fill="#181818" points="191.745,174.455,193.7984,169.9791,191.7747,171.9552,189.7987,169.9315,191.745,174.455" style="stroke:#181818;stroke-width:0.5;"/></g><!--link OrderController to OrderService--><g id="link_OrderController_OrderService"><path codeLine="96" d="M313.195,127.04 C313.35,140.52 313.5441,156.7502 313.7191,171.3552 " fill="none" id="OrderController-to-OrderService" style="stroke:#181818;stroke-width:0.5;stroke-dasharray:7.0,7.0;"/><polygon fill="#181818" points="313.755,174.355,315.7009,169.8314,313.725,171.8552,311.7012,169.8793,313.755,174.355" style="stroke:#181818;stroke-width:0.5;"/></g><!--link ClientService to Repositories--><g id="link_ClientService_Repositories"><path codeLine="97" d="M171.26,217.2 C163.29,225.455 156,233 156,233 C156,233 156,242.5 156,242.5 C156,242.5 165.0476,253.1487 176.5126,266.6437 " fill="none" id="ClientService-to-Repositories" style="stroke:#181818;stroke-width:0.5;stroke-dasharray:7.0,7.0;"/><polygon fill="#181818" points="178.455,268.93,177.0656,264.2056,176.8364,267.0248,174.0172,266.7955,178.455,268.93" style="stroke:#181818;stroke-width:0.5;"/><text fill="#000000" font-family="sans-serif" font-size="6.5" lengthAdjust="spacing" textLength="33.5" x="156.5" y="240.5142">repositories</text></g><!--link OrderService to Repositories--><g id="link_OrderService_Repositories"><path codeLine="98" d="M291.74,217.045 C275.795,231.94 256.2673,250.1771 238.4273,266.8421 " fill="none" id="OrderService-to-Repositories" style="stroke:#181818;stroke-width:0.5;stroke-dasharray:7.0,7.0;"/><polygon fill="#181818" points="236.235,268.89,240.8887,267.2797,238.0619,267.1834,238.1582,264.3566,236.235,268.89" style="stroke:#181818;stroke-width:0.5;"/><text fill="#000000" font-family="sans-serif" font-size="6.5" lengthAdjust="spacing" textLength="33.5" x="272.5" y="240.5142">repositories</text></g><!--link ClientService to ClientRepository--><g id="link_ClientService_ClientRepository"><path codeLine="99" d="M139.74,210.045 C83.94,224.925 3,246.5 3,246.5 C3,246.5 3,330 3,330 C3,330 217,369.5 217,369.5 C217,369.5 217.7479,369.7975 222.9529,371.8975 " fill="none" id="ClientService-to-ClientRepository" style="stroke:#181818;stroke-width:0.5;stroke-dasharray:7.0,7.0;"/><polygon fill="#181818" points="225.735,373.02,222.3102,369.4816,223.4166,372.0846,220.8135,373.191,225.735,373.02" style="stroke:#181818;stroke-width:0.5;"/><text fill="#000000" font-family="sans-serif" font-size="6.5" lengthAdjust="spacing" textLength="46.5" x="3.5" y="302.2642">clientRepository</text></g><!--link OrderService to OrderRepository--><g id="link_OrderService_OrderRepository"><path codeLine="100" d="M274.56,217.085 C262.33,223.545 252,229 252,229 C252,229 80.5,246.5 80.5,246.5 C80.5,246.5 80.5,330 80.5,330 C80.5,330 108.6572,350.1965 132.9172,367.5965 " fill="none" id="OrderService-to-OrderRepository" style="stroke:#181818;stroke-width:0.5;stroke-dasharray:7.0,7.0;"/><polygon fill="#181818" points="135.355,369.345,132.8639,365.0971,133.3235,367.8879,130.5327,368.3475,135.355,369.345" style="stroke:#181818;stroke-width:0.5;"/><text fill="#000000" font-family="sans-serif" font-size="6.5" lengthAdjust="spacing" textLength="45.5" x="81" y="302.2642">orderRepository</text></g><!--link ClientService to Client--><g id="link_ClientService_Client"><path codeLine="101" d="M230.305,217.085 C242.335,223.545 252.5,229 252.5,229 C252.5,229 647,246.5 647,246.5 C647,246.5 647,424 647,424 C647,424 629.6383,440.6815 607.6783,461.7815 " fill="none" id="ClientService-to-Client" style="stroke:#181818;stroke-width:0.5;stroke-dasharray:7.0,7.0;"/><polygon fill="#181818" points="605.515,463.86,610.1456,462.1844,607.3177,462.1279,607.3742,459.3,605.515,463.86" style="stroke:#181818;stroke-width:0.5;"/><text fill="#000000" font-family="sans-serif" font-size="6.5" lengthAdjust="spacing" textLength="15.5" x="647.5" y="352.5142">client</text></g><!--link OrderService to Order--><g id="link_OrderService_Order"><path codeLine="102" d="M367.115,203.965 C464.105,218.05 660,246.5 660,246.5 C660,246.5 716.5,299 716.5,299 C716.5,299 716.5,299 716.5,523 C716.5,523 660,581 660,581 C660,581 637.5299,598.2436 610.9349,618.6536 " fill="none" id="OrderService-to-Order" style="stroke:#181818;stroke-width:0.5;stroke-dasharray:7.0,7.0;"/><polygon fill="#181818" points="608.555,620.48,613.3425,619.3269,610.5383,618.958,610.9073,616.1537,608.555,620.48" style="stroke:#181818;stroke-width:0.5;"/><text fill="#000000" font-family="sans-serif" font-size="6.5" lengthAdjust="spacing" textLength="14.5" x="717" y="393.5142">order</text></g><!--link Repositories to Repositories--><g id="link_Repositories_Repositories"><path codeLine="103" d="M272.08,290.95 C282.455,292.255 289.5,295.105 289.5,299.5 C289.5,303.895 285.4315,306.3706 275.0565,307.6756 " fill="none" id="Repositories-to-Repositories" style="stroke:#181818;stroke-width:0.5;"/><polygon fill="#181818" points="272.08,308.05,276.7944,309.4728,274.5605,307.738,276.2952,305.504,272.08,308.05" style="stroke:#181818;stroke-width:0.5;"/><text fill="#000000" font-family="sans-serif" font-size="6.5" lengthAdjust="spacing" textLength="24.5" x="292.5" y="302.2642">instance</text></g><!--link Repositories to ClientRepository--><g id="link_Repositories_ClientRepository"><path codeLine="104" d="M225.48,330.05 C234.715,342.975 243.5353,355.3195 251.8853,366.9995 " fill="none" id="Repositories-to-ClientRepository" style="stroke:#181818;stroke-width:0.5;"/><polygon fill="#181818" points="253.63,369.44,252.6399,364.6161,252.1761,367.4063,249.3859,366.9424,253.63,369.44" style="stroke:#181818;stroke-width:0.5;"/><text fill="#000000" font-family="sans-serif" font-size="6.5" lengthAdjust="spacing" textLength="46.5" x="243" y="352.5142">clientRepository</text><text fill="#000000" font-family="sans-serif" font-size="6.5" lengthAdjust="spacing" textLength="3.5" x="224.3846" y="341.2995">1</text><text fill="#000000" font-family="sans-serif" font-size="6.5" lengthAdjust="spacing" textLength="3.5" x="247.4812" y="363.8825">1</text></g><!--link Repositories to OrderRepository--><g id="link_Repositories_OrderRepository"><path codeLine="105" d="M190.845,330.05 C185.19,342.975 179.9234,355.012 174.8084,366.692 " fill="none" id="Repositories-to-OrderRepository" style="stroke:#181818;stroke-width:0.5;"/><polygon fill="#181818" points="173.605,369.44,177.2422,366.1202,174.6079,367.15,173.5781,364.5156,173.605,369.44" style="stroke:#181818;stroke-width:0.5;"/><text fill="#000000" font-family="sans-serif" font-size="6.5" lengthAdjust="spacing" textLength="45.5" x="185" y="352.5142">orderRepository</text><text fill="#000000" font-family="sans-serif" font-size="6.5" lengthAdjust="spacing" textLength="3.5" x="185.5285" y="341.2995">1</text><text fill="#000000" font-family="sans-serif" font-size="6.5" lengthAdjust="spacing" textLength="3.5" x="171.2772" y="363.8825">1</text></g><!--link ClientRepository to Client--><g id="link_ClientRepository_Client"><path codeLine="106" d="M308.575,412.085 C321,418.545 331.5,424 331.5,424 C331.5,424 382.4635,447.3935 435.9935,471.9635 " fill="none" id="ClientRepository-to-Client" style="stroke:#181818;stroke-width:0.5;"/><polygon fill="#181818" points="438.72,473.215,435.4645,469.5201,436.4479,472.1721,433.7959,473.1555,438.72,473.215" style="stroke:#181818;stroke-width:0.5;"/><text fill="#000000" font-family="sans-serif" font-size="6.5" lengthAdjust="spacing" textLength="30" x="358" y="435.5142">categories</text><text fill="#000000" font-family="sans-serif" font-size="6.5" lengthAdjust="spacing" textLength="3.5" x="311.183" y="423.1787">1</text><text fill="#000000" font-family="sans-serif" font-size="6.5" lengthAdjust="spacing" textLength="2.5" x="432.3556" y="469.806">*</text></g><!--link OrderRepository to Order--><g id="link_OrderRepository_Order"><path codeLine="107" d="M190.265,412.1 C251.185,461.39 399,581 399,581 C399,581 427.9826,598.5181 461.7476,618.9281 " fill="none" id="OrderRepository-to-Order" style="stroke:#181818;stroke-width:0.5;"/><polygon fill="#181818" points="464.315,620.48,461.4985,616.4405,462.1755,619.1867,459.4293,619.8637,464.315,620.48" style="stroke:#181818;stroke-width:0.5;"/><text fill="#000000" font-family="sans-serif" font-size="6.5" lengthAdjust="spacing" textLength="30" x="399.5" y="525.2642">categories</text><text fill="#000000" font-family="sans-serif" font-size="6.5" lengthAdjust="spacing" textLength="3.5" x="190.5924" y="423.1961">1</text><text fill="#000000" font-family="sans-serif" font-size="6.5" lengthAdjust="spacing" textLength="2.5" x="455.5419" y="614.9027">*</text></g><!--link Client to Order--><g id="link_Client_Order"><path codeLine="108" d="M545,581.01 C545,594.09 545,604.845 545,617.5 " fill="none" id="Client-to-Order" style="stroke:#181818;stroke-width:0.5;"/><polygon fill="#181818" points="545,620.5,547,616,545,618,543,616,545,620.5" style="stroke:#181818;stroke-width:0.5;"/><text fill="#000000" font-family="sans-serif" font-size="6.5" lengthAdjust="spacing" textLength="10.5" x="545.5" y="603.5142">has</text><text fill="#000000" font-family="sans-serif" font-size="6.5" lengthAdjust="spacing" textLength="3.5" x="541.3879" y="592.046">1</text><text fill="#000000" font-family="sans-serif" font-size="6.5" lengthAdjust="spacing" textLength="2.5" x="542.4043" y="614.9242">*</text></g><!--link ClientService to ClientException--><g id="link_ClientService_ClientException"><path codeLine="109" d="M214.015,217.075 C227.285,229.35 241.5,242.5 241.5,242.5 C241.5,242.5 319.5,246.5 319.5,246.5 C319.5,246.5 352.5036,265.7535 378.9236,281.1635 " fill="none" id="ClientService-to-ClientException" style="stroke:#181818;stroke-width:0.5;stroke-dasharray:7.0,7.0;"/><polygon fill="#181818" points="381.515,282.675,378.6355,278.6802,379.3555,281.4154,376.6202,282.1354,381.515,282.675" style="stroke:#181818;stroke-width:0.5;"/><text fill="#000000" font-family="sans-serif" font-size="6.5" lengthAdjust="spacing" textLength="19" x="242" y="240.5142">throws</text></g><!--link ClientException to RuntimeException--><g id="link_ClientException_RuntimeException"><path codeLine="110" d="M423.805,316.345 C439.545,334.325 458.5171,355.998 472.3871,371.843 " fill="none" id="ClientException-to-RuntimeException" style="stroke:#181818;stroke-width:0.5;"/><polygon fill="none" points="478.315,378.615,474.6444,369.867,470.1298,373.819,478.315,378.615" style="stroke:#181818;stroke-width:0.5;"/></g><!--link OrderService to OrderException--><g id="link_OrderService_OrderException"><path codeLine="111" d="M367.065,211.53 C418.405,226.315 488.5,246.5 488.5,246.5 C488.5,246.5 517.4416,265.6118 540.7766,281.0218 " fill="none" id="OrderService-to-OrderException" style="stroke:#181818;stroke-width:0.5;stroke-dasharray:7.0,7.0;"/><polygon fill="#181818" points="543.28,282.675,540.627,278.5263,541.1938,281.2973,538.4228,281.8641,543.28,282.675" style="stroke:#181818;stroke-width:0.5;"/><text fill="#000000" font-family="sans-serif" font-size="6.5" lengthAdjust="spacing" textLength="19" x="474" y="240.5142">throws</text></g><!--link OrderException to RuntimeException--><g id="link_OrderException_RuntimeException"><path codeLine="112" d="M553.605,316.345 C537.765,334.325 518.6534,356.016 504.6984,371.861 " fill="none" id="OrderException-to-RuntimeException" style="stroke:#181818;stroke-width:0.5;"/><polygon fill="none" points="498.75,378.615,506.9497,373.8438,502.4471,369.8782,498.75,378.615" style="stroke:#181818;stroke-width:0.5;"/></g><!--SRC=[jLRBRjim4BphAmYVd5OEsgjG173Z513Gf6dSV00jRMKYD2bGL5ArpR-Nf1vyY4hJGtsmfPtPNSukkNJpG5YD1JwX6XSFk8Azx2WW0ON4hAAGD1EXEUAIFn5MeU-ODYv22GFPrO1gJZlzuc05nKspbLAGGoiXBpZRav-0tYN9a12jxlCL-fKWzJ5aT8bP0VIBA47SvmFod3mx7fUSIS4f1H5uKW9CMdG0zUTj1N9BQSzercSeGvz98p_qXWkFrzi-TdcvBinZljFytZminybgLXfFMbWfQww_-qZ64D6r1_582eY96g10qN-J4qbN0WK9lXOlZu5KcjrhfDv1pHiYkUXyjPETGEDatxZsjPytPutKTJPLS7cHAjYqQri3Qvph2Hm2sxnwOSJv5dovMV_MfiKyosrmUjaJD7pWd09caJvTSyMDRKYtEUDwLIGohDNOSLaAK1uPslPF5cBu1Cg-LuE1LTRyY2LX4Njzv0nksjD1dQyW2PmmeH4NCv5K_VYfngpxfjuifZQCrE0LaqHsU_rcGLELPcoIgPpJerxzrA8KQIKf6gIco2X8aRFW59abfaYlw6oXasuvXxw5GbKZo2E8RhjSLUEvwxNjF56ZSnIiXJxh6IfvUw2HCjqANgWyGPrgmSksa5zRRAgeUDUu_d3RMrEKCmcLLpflTgGeq9EYQVKMwz_C-lIFbt0gfRjVhtuKK4l2MMpFJg0temrqm-KdthBOsPky5beNZMgqJ473a_X2oBjMYJk1PIWqyQ_4y_EBsLKNeGJtKZAx7MsSOTmduLKsXHa9_cMaOMzWP-gVWpD_lQlaR-HvwDaipL0H3knPYd0kPlssSboM4atX5uAEeH9FnMOpaqM62yadhjwl35d_laRPelDh5JgKoVtDoX6hpbRbD6g1Fsftw4E86Ek8bpjf3qg6v57mfv5gWStczyNy2CJx4GaNsEFH_W00]--></g></svg>