<?xml version="1.0" encoding="us-ascii" standalone="no"?><svg xmlns="http://www.w3.org/2000/svg" xmlns:xlink="http://www.w3.org/1999/xlink" contentStyleType="text/css" height="585px" preserveAspectRatio="none" style="width:756px;height:585px;background:#FFFFFF;" version="1.1" viewBox="0 0 756 585" width="756px" zoomAndPan="magnify"><defs/><g><text fill="#000000" font-family="sans-serif" font-size="14" font-weight="bold" lengthAdjust="spacing" textLength="228" x="266" y="30.1074">System Sequence Diagram (SSD)</text><rect fill="#FFFFFF" height="360.541" style="stroke:#181818;stroke-width:1.0;" width="10" x="82" y="133.2422"/><rect fill="#FFFFFF" height="31.291" style="stroke:#181818;stroke-width:1.0;" width="10" x="537" y="156.5332"/><rect fill="#FFFFFF" height="101.873" style="stroke:#181818;stroke-width:1.0;" width="10" x="537" y="219.1152"/><rect fill="none" height="50.582" style="stroke:#000000;stroke-width:1.5;" width="574" x="10" y="278.4063"/><rect fill="none" height="98.5039" style="stroke:#000000;stroke-width:1.5;" width="574" x="10" y="387.2793"/><line style="stroke:#181818;stroke-width:0.5;stroke-dasharray:5.0,5.0;" x1="87" x2="87" y1="123.2422" y2="502.7832"/><line style="stroke:#181818;stroke-width:0.5;stroke-dasharray:5.0,5.0;" x1="542" x2="542" y1="123.2422" y2="502.7832"/><text fill="#000000" font-family="sans-serif" font-size="14" lengthAdjust="spacing" textLength="128" x="20" y="119.7285">Production Manager</text><ellipse cx="87" cy="53.1211" fill="#E3E3E3" rx="8" ry="8" style="stroke:#181818;stroke-width:0.5;"/><path d="M87,61.1211 L87,88.1211 M74,69.1211 L100,69.1211 M87,88.1211 L74,103.1211 M87,88.1211 L100,103.1211 " fill="none" style="stroke:#181818;stroke-width:0.5;"/><text fill="#000000" font-family="sans-serif" font-size="14" lengthAdjust="spacing" textLength="128" x="20" y="516.8906">Production Manager</text><ellipse cx="87" cy="528.9043" fill="#E3E3E3" rx="8" ry="8" style="stroke:#181818;stroke-width:0.5;"/><path d="M87,536.9043 L87,563.9043 M74,544.9043 L100,544.9043 M87,563.9043 L74,578.9043 M87,563.9043 L100,578.9043 " fill="none" style="stroke:#181818;stroke-width:0.5;"/><rect fill="#E3E3E3" height="32.6211" rx="2.5" ry="2.5" style="stroke:#181818;stroke-width:0.5;" width="64" x="510" y="89.6211"/><text fill="#000000" font-family="sans-serif" font-size="14" lengthAdjust="spacing" textLength="50" x="517" y="111.7285">:System</text><rect fill="#E3E3E3" height="32.6211" rx="2.5" ry="2.5" style="stroke:#181818;stroke-width:0.5;" width="64" x="510" y="501.7832"/><text fill="#000000" font-family="sans-serif" font-size="14" lengthAdjust="spacing" textLength="50" x="517" y="523.8906">:System</text><rect fill="#FFFFFF" height="360.541" style="stroke:#181818;stroke-width:1.0;" width="10" x="82" y="133.2422"/><rect fill="#FFFFFF" height="31.291" style="stroke:#181818;stroke-width:1.0;" width="10" x="537" y="156.5332"/><rect fill="#FFFFFF" height="101.873" style="stroke:#181818;stroke-width:1.0;" width="10" x="537" y="219.1152"/><polygon fill="#181818" points="525,152.5332,535,156.5332,525,160.5332,529,156.5332" style="stroke:#181818;stroke-width:1.0;"/><line style="stroke:#181818;stroke-width:1.0;" x1="92" x2="531" y1="156.5332" y2="156.5332"/><text fill="#000000" font-family="sans-serif" font-size="13" font-weight="bold" lengthAdjust="spacing" textLength="7" x="99" y="151.2705">1</text><text fill="#000000" font-family="sans-serif" font-size="13" lengthAdjust="spacing" textLength="266" x="110" y="151.2705">asks to consult a production tree for a product</text><polygon fill="#181818" points="103,183.8242,93,187.8242,103,191.8242,99,187.8242" style="stroke:#181818;stroke-width:1.0;"/><line style="stroke:#181818;stroke-width:1.0;stroke-dasharray:2.0,2.0;" x1="97" x2="541" y1="187.8242" y2="187.8242"/><text fill="#000000" font-family="sans-serif" font-size="13" font-weight="bold" lengthAdjust="spacing" textLength="7" x="109" y="182.5615">2</text><text fill="#000000" font-family="sans-serif" font-size="13" lengthAdjust="spacing" textLength="410" x="120" y="182.5615">show list of products and requests data (i.e. Product ID, file path (.csv))</text><polygon fill="#181818" points="525,215.1152,535,219.1152,525,223.1152,529,219.1152" style="stroke:#181818;stroke-width:1.0;"/><line style="stroke:#181818;stroke-width:1.0;" x1="92" x2="531" y1="219.1152" y2="219.1152"/><text fill="#000000" font-family="sans-serif" font-size="13" font-weight="bold" lengthAdjust="spacing" textLength="7" x="99" y="213.8525">3</text><text fill="#000000" font-family="sans-serif" font-size="13" lengthAdjust="spacing" textLength="122" x="110" y="213.8525">types requested data</text><line style="stroke:#181818;stroke-width:1.0;" x1="547" x2="589" y1="250.4063" y2="250.4063"/><line style="stroke:#181818;stroke-width:1.0;" x1="589" x2="589" y1="250.4063" y2="263.4063"/><line style="stroke:#181818;stroke-width:1.0;" x1="548" x2="589" y1="263.4063" y2="263.4063"/><polygon fill="#181818" points="558,259.4063,548,263.4063,558,267.4063,554,263.4063" style="stroke:#181818;stroke-width:1.0;"/><text fill="#000000" font-family="sans-serif" font-size="13" font-weight="bold" lengthAdjust="spacing" textLength="7" x="554" y="245.1436">4</text><text fill="#000000" font-family="sans-serif" font-size="13" lengthAdjust="spacing" textLength="184" x="565" y="245.1436">checks if product already exists</text><path d="M10,278.4063 L71,278.4063 L71,287.6973 L61,297.6973 L10,297.6973 L10,278.4063 " fill="#EEEEEE" style="stroke:#000000;stroke-width:1.5;"/><rect fill="none" height="50.582" style="stroke:#000000;stroke-width:1.5;" width="574" x="10" y="278.4063"/><text fill="#000000" font-family="sans-serif" font-size="13" font-weight="bold" lengthAdjust="spacing" textLength="16" x="25" y="293.4346">alt</text><text fill="#000000" font-family="sans-serif" font-size="11" font-weight="bold" lengthAdjust="spacing" textLength="133" x="86" y="292.2764">[product does not exist]</text><polygon fill="#181818" points="103,316.9883,93,320.9883,103,324.9883,99,320.9883" style="stroke:#181818;stroke-width:1.0;"/><line style="stroke:#181818;stroke-width:1.0;stroke-dasharray:2.0,2.0;" x1="97" x2="541" y1="320.9883" y2="320.9883"/><text fill="#000000" font-family="sans-serif" font-size="13" font-weight="bold" lengthAdjust="spacing" textLength="7" x="109" y="315.7256">5</text><text fill="#000000" font-family="sans-serif" font-size="13" lengthAdjust="spacing" textLength="267" x="120" y="315.7256">shows error message (Product does not exist)</text><line style="stroke:#181818;stroke-width:1.0;" x1="542" x2="584" y1="359.2793" y2="359.2793"/><line style="stroke:#181818;stroke-width:1.0;" x1="584" x2="584" y1="359.2793" y2="372.2793"/><line style="stroke:#181818;stroke-width:1.0;" x1="543" x2="584" y1="372.2793" y2="372.2793"/><polygon fill="#181818" points="553,368.2793,543,372.2793,553,376.2793,549,372.2793" style="stroke:#181818;stroke-width:1.0;"/><text fill="#000000" font-family="sans-serif" font-size="13" font-weight="bold" lengthAdjust="spacing" textLength="7" x="549" y="354.0166">6</text><text fill="#000000" font-family="sans-serif" font-size="13" lengthAdjust="spacing" textLength="108" x="560" y="354.0166">get production tree</text><path d="M10,387.2793 L71,387.2793 L71,396.5703 L61,406.5703 L10,406.5703 L10,387.2793 " fill="#EEEEEE" style="stroke:#000000;stroke-width:1.5;"/><rect fill="none" height="98.5039" style="stroke:#000000;stroke-width:1.5;" width="574" x="10" y="387.2793"/><text fill="#000000" font-family="sans-serif" font-size="13" font-weight="bold" lengthAdjust="spacing" textLength="16" x="25" y="402.3076">alt</text><text fill="#000000" font-family="sans-serif" font-size="11" font-weight="bold" lengthAdjust="spacing" textLength="37" x="86" y="401.1494">[error]</text><polygon fill="#181818" points="103,425.8613,93,429.8613,103,433.8613,99,429.8613" style="stroke:#181818;stroke-width:1.0;"/><line style="stroke:#181818;stroke-width:1.0;stroke-dasharray:2.0,2.0;" x1="97" x2="541" y1="429.8613" y2="429.8613"/><text fill="#000000" font-family="sans-serif" font-size="13" font-weight="bold" lengthAdjust="spacing" textLength="7" x="109" y="424.5986">7</text><text fill="#000000" font-family="sans-serif" font-size="13" lengthAdjust="spacing" textLength="124" x="120" y="424.5986">shows error message</text><line style="stroke:#000000;stroke-width:1.0;stroke-dasharray:2.0,2.0;" x1="10" x2="584" y1="438.8613" y2="438.8613"/><text fill="#000000" font-family="sans-serif" font-size="11" font-weight="bold" lengthAdjust="spacing" textLength="55" x="15" y="450.7314">[success]</text><polygon fill="#181818" points="103,473.7832,93,477.7832,103,481.7832,99,477.7832" style="stroke:#181818;stroke-width:1.0;"/><line style="stroke:#181818;stroke-width:1.0;stroke-dasharray:2.0,2.0;" x1="97" x2="541" y1="477.7832" y2="477.7832"/><text fill="#000000" font-family="sans-serif" font-size="13" font-weight="bold" lengthAdjust="spacing" textLength="7" x="109" y="472.5205">8</text><text fill="#000000" font-family="sans-serif" font-size="13" lengthAdjust="spacing" textLength="270" x="120" y="472.5205">shows all data and displays operation success</text><!--SRC=[dLDBRi8m4Dtd52DM8BKSW4LNRBf0Gie9flOaM3Xswfb0S_jE34af84JhbMC_lvyTthlGOi86cXYYsQNO44ZggE1ffqMpnvfAwJr18YCOQdy9u1tQU7IXXWezKr684uMMFGirKD9dHy4Gh1tM0tnUbkj5KM0dCNJD1oMT6ua9PjiKRMV4nG0R3AgPPe0CsqsXGkACQp48p5OdvhntccO6Tq2X0Lo0Zkq6Njz63ok5xXaaWec1Eo-0qFw8IIA2IXrCgvbYuXn5u3pEhAyge38hBI0UmJiMYDN8m831QbqQdlN3eY3CtPAMS4u9x-iNg9mMrQBiOBuqV5WiieQbkz9NaQHlYKS5ibdYETyN96P7Hfjnasz0dmXj3_IbWNWwcucrk15ceug7A2VSBzYZcXWe9Msw8MQzO9Xlx_8jRWXlExdSfM0Vngn9hY-yk94OucLt_qrpzznZuzcy_ZJ0dJ7AyWTfzFxqh8Q7PXst7dk6s5B27F8HunEcjD5l]--></g></svg>