<?xml version="1.0" encoding="us-ascii" standalone="no"?><svg xmlns="http://www.w3.org/2000/svg" xmlns:xlink="http://www.w3.org/1999/xlink" contentStyleType="text/css" height="853px" preserveAspectRatio="none" style="width:785px;height:853px;background:#FFFFFF;" version="1.1" viewBox="0 0 785 853" width="785px" zoomAndPan="magnify"><defs/><g><text fill="#000000" font-family="sans-serif" font-size="14" font-weight="bold" lengthAdjust="spacing" textLength="228" x="279.5" y="30.1074">System Sequence Diagram (SSD)</text><rect fill="#FFFFFF" height="627.8398" style="stroke:#181818;stroke-width:1.0;" width="10" x="102" y="133.2422"/><rect fill="#FFFFFF" height="31.291" style="stroke:#181818;stroke-width:1.0;" width="10" x="503" y="156.5332"/><rect fill="#FFFFFF" height="101.873" style="stroke:#181818;stroke-width:1.0;" width="10" x="503" y="219.1152"/><rect fill="#FFFFFF" height="31.291" style="stroke:#181818;stroke-width:1.0;" width="10" x="503" y="400.2012"/><rect fill="#FFFFFF" height="101.873" style="stroke:#181818;stroke-width:1.0;" width="10" x="503" y="462.7832"/><rect fill="none" height="474.6758" style="stroke:#000000;stroke-width:1.5;" width="768" x="10" y="278.4063"/><rect fill="none" height="224.0078" style="stroke:#000000;stroke-width:1.5;" width="748" x="20" y="522.0742"/><rect fill="none" height="98.5039" style="stroke:#000000;stroke-width:1.5;" width="520" x="30" y="640.5781"/><line style="stroke:#181818;stroke-width:0.5;stroke-dasharray:5.0,5.0;" x1="107" x2="107" y1="123.2422" y2="770.082"/><line style="stroke:#181818;stroke-width:0.5;stroke-dasharray:5.0,5.0;" x1="508" x2="508" y1="123.2422" y2="770.082"/><text fill="#000000" font-family="sans-serif" font-size="14" lengthAdjust="spacing" textLength="128" x="40" y="119.7285">Production Manager</text><ellipse cx="107" cy="53.1211" fill="#E3E3E3" rx="8" ry="8" style="stroke:#181818;stroke-width:0.5;"/><path d="M107,61.1211 L107,88.1211 M94,69.1211 L120,69.1211 M107,88.1211 L94,103.1211 M107,88.1211 L120,103.1211 " fill="none" style="stroke:#181818;stroke-width:0.5;"/><text fill="#000000" font-family="sans-serif" font-size="14" lengthAdjust="spacing" textLength="128" x="40" y="784.1895">Production Manager</text><ellipse cx="107" cy="796.2031" fill="#E3E3E3" rx="8" ry="8" style="stroke:#181818;stroke-width:0.5;"/><path d="M107,804.2031 L107,831.2031 M94,812.2031 L120,812.2031 M107,831.2031 L94,846.2031 M107,831.2031 L120,846.2031 " fill="none" style="stroke:#181818;stroke-width:0.5;"/><rect fill="#E3E3E3" height="32.6211" rx="2.5" ry="2.5" style="stroke:#181818;stroke-width:0.5;" width="64" x="476" y="89.6211"/><text fill="#000000" font-family="sans-serif" font-size="14" lengthAdjust="spacing" textLength="50" x="483" y="111.7285">:System</text><rect fill="#E3E3E3" height="32.6211" rx="2.5" ry="2.5" style="stroke:#181818;stroke-width:0.5;" width="64" x="476" y="769.082"/><text fill="#000000" font-family="sans-serif" font-size="14" lengthAdjust="spacing" textLength="50" x="483" y="791.1895">:System</text><rect fill="#FFFFFF" height="627.8398" style="stroke:#181818;stroke-width:1.0;" width="10" x="102" y="133.2422"/><rect fill="#FFFFFF" height="31.291" style="stroke:#181818;stroke-width:1.0;" width="10" x="503" y="156.5332"/><rect fill="#FFFFFF" height="101.873" style="stroke:#181818;stroke-width:1.0;" width="10" x="503" y="219.1152"/><rect fill="#FFFFFF" height="31.291" style="stroke:#181818;stroke-width:1.0;" width="10" x="503" y="400.2012"/><rect fill="#FFFFFF" height="101.873" style="stroke:#181818;stroke-width:1.0;" width="10" x="503" y="462.7832"/><polygon fill="#181818" points="491,152.5332,501,156.5332,491,160.5332,495,156.5332" style="stroke:#181818;stroke-width:1.0;"/><line style="stroke:#181818;stroke-width:1.0;" x1="112" x2="497" y1="156.5332" y2="156.5332"/><text fill="#000000" font-family="sans-serif" font-size="13" font-weight="bold" lengthAdjust="spacing" textLength="7" x="119" y="151.2705">1</text><text fill="#000000" font-family="sans-serif" font-size="13" lengthAdjust="spacing" textLength="181" x="130" y="151.2705">asks to complete a supply offer</text><polygon fill="#181818" points="123,183.8242,113,187.8242,123,191.8242,119,187.8242" style="stroke:#181818;stroke-width:1.0;"/><line style="stroke:#181818;stroke-width:1.0;stroke-dasharray:2.0,2.0;" x1="117" x2="507" y1="187.8242" y2="187.8242"/><text fill="#000000" font-family="sans-serif" font-size="13" font-weight="bold" lengthAdjust="spacing" textLength="7" x="129" y="182.5615">2</text><text fill="#000000" font-family="sans-serif" font-size="13" lengthAdjust="spacing" textLength="285" x="140" y="182.5615">shows the list of supplier and requests supplier id</text><polygon fill="#181818" points="491,215.1152,501,219.1152,491,223.1152,495,219.1152" style="stroke:#181818;stroke-width:1.0;"/><line style="stroke:#181818;stroke-width:1.0;" x1="112" x2="497" y1="219.1152" y2="219.1152"/><text fill="#000000" font-family="sans-serif" font-size="13" font-weight="bold" lengthAdjust="spacing" textLength="7" x="119" y="213.8525">3</text><text fill="#000000" font-family="sans-serif" font-size="13" lengthAdjust="spacing" textLength="171" x="130" y="213.8525">provides requested supplier id</text><line style="stroke:#181818;stroke-width:1.0;" x1="513" x2="555" y1="250.4063" y2="250.4063"/><line style="stroke:#181818;stroke-width:1.0;" x1="555" x2="555" y1="250.4063" y2="263.4063"/><line style="stroke:#181818;stroke-width:1.0;" x1="514" x2="555" y1="263.4063" y2="263.4063"/><polygon fill="#181818" points="524,259.4063,514,263.4063,524,267.4063,520,263.4063" style="stroke:#181818;stroke-width:1.0;"/><text fill="#000000" font-family="sans-serif" font-size="13" font-weight="bold" lengthAdjust="spacing" textLength="7" x="520" y="245.1436">4</text><text fill="#000000" font-family="sans-serif" font-size="13" lengthAdjust="spacing" textLength="186" x="531" y="245.1436">checks if supplier already exists</text><path d="M10,278.4063 L71,278.4063 L71,287.6973 L61,297.6973 L10,297.6973 L10,278.4063 " fill="#EEEEEE" style="stroke:#000000;stroke-width:1.5;"/><rect fill="none" height="474.6758" style="stroke:#000000;stroke-width:1.5;" width="768" x="10" y="278.4063"/><text fill="#000000" font-family="sans-serif" font-size="13" font-weight="bold" lengthAdjust="spacing" textLength="16" x="25" y="293.4346">alt</text><text fill="#000000" font-family="sans-serif" font-size="11" font-weight="bold" lengthAdjust="spacing" textLength="136" x="86" y="292.2764">[supplier does not exist]</text><polygon fill="#181818" points="123,316.9883,113,320.9883,123,324.9883,119,320.9883" style="stroke:#181818;stroke-width:1.0;"/><line style="stroke:#181818;stroke-width:1.0;stroke-dasharray:2.0,2.0;" x1="117" x2="507" y1="320.9883" y2="320.9883"/><text fill="#000000" font-family="sans-serif" font-size="13" font-weight="bold" lengthAdjust="spacing" textLength="7" x="129" y="315.7256">5</text><text fill="#000000" font-family="sans-serif" font-size="13" lengthAdjust="spacing" textLength="269" x="140" y="315.7256">shows error message (Supplier does not exist)</text><line style="stroke:#000000;stroke-width:1.0;stroke-dasharray:2.0,2.0;" x1="10" x2="778" y1="329.9883" y2="329.9883"/><text fill="#000000" font-family="sans-serif" font-size="11" font-weight="bold" lengthAdjust="spacing" textLength="91" x="15" y="341.8584">[supplier exists]</text><polygon fill="#181818" points="123,364.9102,113,368.9102,123,372.9102,119,368.9102" style="stroke:#181818;stroke-width:1.0;"/><line style="stroke:#181818;stroke-width:1.0;stroke-dasharray:2.0,2.0;" x1="117" x2="507" y1="368.9102" y2="368.9102"/><text fill="#000000" font-family="sans-serif" font-size="13" font-weight="bold" lengthAdjust="spacing" textLength="7" x="129" y="363.6475">6</text><text fill="#000000" font-family="sans-serif" font-size="13" lengthAdjust="spacing" textLength="357" x="140" y="363.6475">shows the supplier's supply offer list and asks for confirmation</text><polygon fill="#181818" points="491,396.2012,501,400.2012,491,404.2012,495,400.2012" style="stroke:#181818;stroke-width:1.0;"/><line style="stroke:#181818;stroke-width:1.0;" x1="112" x2="497" y1="400.2012" y2="400.2012"/><text fill="#000000" font-family="sans-serif" font-size="13" font-weight="bold" lengthAdjust="spacing" textLength="7" x="119" y="394.9385">7</text><text fill="#000000" font-family="sans-serif" font-size="13" lengthAdjust="spacing" textLength="284" x="130" y="394.9385">confirms that he wants to complete a supply offer</text><polygon fill="#181818" points="123,427.4922,113,431.4922,123,435.4922,119,431.4922" style="stroke:#181818;stroke-width:1.0;"/><line style="stroke:#181818;stroke-width:1.0;stroke-dasharray:2.0,2.0;" x1="117" x2="507" y1="431.4922" y2="431.4922"/><text fill="#000000" font-family="sans-serif" font-size="13" font-weight="bold" lengthAdjust="spacing" textLength="7" x="129" y="426.2295">8</text><text fill="#000000" font-family="sans-serif" font-size="13" lengthAdjust="spacing" textLength="134" x="140" y="426.2295">requests supply offer id</text><polygon fill="#181818" points="491,458.7832,501,462.7832,491,466.7832,495,462.7832" style="stroke:#181818;stroke-width:1.0;"/><line style="stroke:#181818;stroke-width:1.0;" x1="112" x2="497" y1="462.7832" y2="462.7832"/><text fill="#000000" font-family="sans-serif" font-size="13" font-weight="bold" lengthAdjust="spacing" textLength="7" x="119" y="457.5205">9</text><text fill="#000000" font-family="sans-serif" font-size="13" lengthAdjust="spacing" textLength="192" x="130" y="457.5205">provides requested supply offer id</text><line style="stroke:#181818;stroke-width:1.0;" x1="513" x2="555" y1="494.0742" y2="494.0742"/><line style="stroke:#181818;stroke-width:1.0;" x1="555" x2="555" y1="494.0742" y2="507.0742"/><line style="stroke:#181818;stroke-width:1.0;" x1="514" x2="555" y1="507.0742" y2="507.0742"/><polygon fill="#181818" points="524,503.0742,514,507.0742,524,511.0742,520,507.0742" style="stroke:#181818;stroke-width:1.0;"/><text fill="#000000" font-family="sans-serif" font-size="13" font-weight="bold" lengthAdjust="spacing" textLength="14" x="520" y="488.8115">10</text><text fill="#000000" font-family="sans-serif" font-size="13" lengthAdjust="spacing" textLength="207" x="538" y="488.8115">checks if supply offer already exists</text><path d="M20,522.0742 L81,522.0742 L81,531.3652 L71,541.3652 L20,541.3652 L20,522.0742 " fill="#EEEEEE" style="stroke:#000000;stroke-width:1.5;"/><rect fill="none" height="224.0078" style="stroke:#000000;stroke-width:1.5;" width="748" x="20" y="522.0742"/><text fill="#000000" font-family="sans-serif" font-size="13" font-weight="bold" lengthAdjust="spacing" textLength="16" x="35" y="537.1025">alt</text><text fill="#000000" font-family="sans-serif" font-size="11" font-weight="bold" lengthAdjust="spacing" textLength="157" x="96" y="535.9443">[supply offer does not exist]</text><polygon fill="#181818" points="123,560.6563,113,564.6563,123,568.6563,119,564.6563" style="stroke:#181818;stroke-width:1.0;"/><line style="stroke:#181818;stroke-width:1.0;stroke-dasharray:2.0,2.0;" x1="117" x2="507" y1="564.6563" y2="564.6563"/><text fill="#000000" font-family="sans-serif" font-size="13" font-weight="bold" lengthAdjust="spacing" textLength="14" x="129" y="559.3936">11</text><text fill="#000000" font-family="sans-serif" font-size="13" lengthAdjust="spacing" textLength="293" x="147" y="559.3936">shows error message (Supply Offer does not exist)</text><line style="stroke:#000000;stroke-width:1.0;stroke-dasharray:2.0,2.0;" x1="20" x2="768" y1="573.6563" y2="573.6563"/><text fill="#000000" font-family="sans-serif" font-size="11" font-weight="bold" lengthAdjust="spacing" textLength="112" x="25" y="585.5264">[supply offer exists]</text><line style="stroke:#181818;stroke-width:1.0;" x1="508" x2="550" y1="612.5781" y2="612.5781"/><line style="stroke:#181818;stroke-width:1.0;" x1="550" x2="550" y1="612.5781" y2="625.5781"/><line style="stroke:#181818;stroke-width:1.0;" x1="509" x2="550" y1="625.5781" y2="625.5781"/><polygon fill="#181818" points="519,621.5781,509,625.5781,519,629.5781,515,625.5781" style="stroke:#181818;stroke-width:1.0;"/><text fill="#000000" font-family="sans-serif" font-size="13" font-weight="bold" lengthAdjust="spacing" textLength="14" x="515" y="607.3154">12</text><text fill="#000000" font-family="sans-serif" font-size="13" lengthAdjust="spacing" textLength="223" x="533" y="607.3154">complete supply offer and added stock</text><path d="M30,640.5781 L91,640.5781 L91,649.8691 L81,659.8691 L30,659.8691 L30,640.5781 " fill="#EEEEEE" style="stroke:#000000;stroke-width:1.5;"/><rect fill="none" height="98.5039" style="stroke:#000000;stroke-width:1.5;" width="520" x="30" y="640.5781"/><text fill="#000000" font-family="sans-serif" font-size="13" font-weight="bold" lengthAdjust="spacing" textLength="16" x="45" y="655.6064">alt</text><text fill="#000000" font-family="sans-serif" font-size="11" font-weight="bold" lengthAdjust="spacing" textLength="82" x="106" y="654.4482">[system error]</text><polygon fill="#181818" points="123,679.1602,113,683.1602,123,687.1602,119,683.1602" style="stroke:#181818;stroke-width:1.0;"/><line style="stroke:#181818;stroke-width:1.0;stroke-dasharray:2.0,2.0;" x1="117" x2="507" y1="683.1602" y2="683.1602"/><text fill="#000000" font-family="sans-serif" font-size="13" font-weight="bold" lengthAdjust="spacing" textLength="14" x="129" y="677.8975">13</text><text fill="#000000" font-family="sans-serif" font-size="13" lengthAdjust="spacing" textLength="221" x="147" y="677.8975">shows error message (Database error)</text><line style="stroke:#000000;stroke-width:1.0;stroke-dasharray:2.0,2.0;" x1="30" x2="550" y1="692.1602" y2="692.1602"/><text fill="#000000" font-family="sans-serif" font-size="11" font-weight="bold" lengthAdjust="spacing" textLength="55" x="35" y="704.0303">[success]</text><polygon fill="#181818" points="123,727.082,113,731.082,123,735.082,119,731.082" style="stroke:#181818;stroke-width:1.0;"/><line style="stroke:#181818;stroke-width:1.0;stroke-dasharray:2.0,2.0;" x1="117" x2="507" y1="731.082" y2="731.082"/><text fill="#000000" font-family="sans-serif" font-size="13" font-weight="bold" lengthAdjust="spacing" textLength="14" x="129" y="725.8193">14</text><text fill="#000000" font-family="sans-serif" font-size="13" lengthAdjust="spacing" textLength="354" x="147" y="725.8193">shows all data of supply offer and displays operation success</text><!--SRC=[hPH1agCm34Ntd4ALpKmMVO4iUfLjQbB52TIsI5mnDcEBJdFx5X0JQ22LhWeh1pvFNz8FyM9SXG5BABtpwXnyIS2XfYmEJofK5pnHpeqb2AGOtScE1V6Csb-DEq61DbAMiM6HvaraAY6d_pKvHR0tU6hbV_DylyqohDcxkloW86V5Fi3c6Bok5Hllu81EQeODO8JZ8PD2R9Ifq35iTZsvUzOVEuBvHAPMd85SnmEylISFEv5U8h07vSlAakWGObrLjW5V56AXVMLW92ZShXlbJO22tKd3_YgqCu4raONGimm5GATbHj9nv7Y_QtJ7qhHOueVLAlXFeoac3kaPQ16JN8vGwanA-ZPZWpOGwWReIwp7eKMqVDTeBzMTvruqQ1wFWqAG7POKeonEbhmCsqveyu6a9oH1kXkwcNrY8UcLFt6ottvHxNAw81JYL7bNc51Y6xTVREVsMbiD6QJYLJBvkcXDivFSloG_Fs2hbfxBKgAjv6cIgQHzMQuQ-BS0tCw8w_cQPYmPN6XYRHffsTDXj07JkfquUtMPWRg9z8YkhPdWwJ7iaV43nNztVxi8UjpzQ09A2VONNj1Qq69W-FAD-zScLXQR2BwYqFsx7bPumgJJsTflENy3]--></g></svg>