<?xml version="1.0" encoding="us-ascii" standalone="no"?><svg xmlns="http://www.w3.org/2000/svg" xmlns:xlink="http://www.w3.org/1999/xlink" contentStyleType="text/css" height="703px" preserveAspectRatio="none" style="width:535px;height:703px;background:#FFFFFF;" version="1.1" viewBox="0 0 535 703" width="535.5px" zoomAndPan="magnify"><defs/><g><!--cluster UI--><g id="cluster_UI"><rect fill="none" height="50.5" rx="1.25" ry="1.25" style="stroke:#000000;stroke-width:0.75;" width="83" x="220.5" y="3.5"/><text fill="#000000" font-family="sans-serif" font-size="7" font-weight="bold" lengthAdjust="spacing" textLength="7" x="258.5" y="12.0537">UI</text></g><!--cluster Controller--><g id="cluster_Controller"><rect fill="none" height="69" rx="1.25" ry="1.25" style="stroke:#000000;stroke-width:0.75;" width="116" x="204" y="70.5"/><text fill="#000000" font-family="sans-serif" font-size="7" font-weight="bold" lengthAdjust="spacing" textLength="35.5" x="244.25" y="79.0537">Controller</text></g><!--cluster Service--><g id="cluster_Service"><rect fill="none" height="78.5" rx="1.25" ry="1.25" style="stroke:#000000;stroke-width:0.75;" width="122" x="201" y="156"/><text fill="#000000" font-family="sans-serif" font-size="7" font-weight="bold" lengthAdjust="spacing" textLength="27" x="248.5" y="164.5537">Service</text></g><!--cluster Repository--><g id="cluster_Repository"><rect fill="none" height="170" rx="1.25" ry="1.25" style="stroke:#000000;stroke-width:0.75;" width="190.5" x="3.5" y="260"/><text fill="#000000" font-family="sans-serif" font-size="7" font-weight="bold" lengthAdjust="spacing" textLength="38" x="79.75" y="268.5537">Repository</text></g><!--cluster Model--><g id="cluster_Model"><rect fill="none" height="244.5" rx="1.25" ry="1.25" style="stroke:#000000;stroke-width:0.75;" width="239.5" x="293" y="455.5"/><text fill="#000000" font-family="sans-serif" font-size="7" font-weight="bold" lengthAdjust="spacing" textLength="22" x="401.75" y="464.0537">Model</text></g><!--cluster Exception--><g id="cluster_Exception"><rect fill="none" height="146.75" rx="1.25" ry="1.25" style="stroke:#000000;stroke-width:0.75;" width="156" x="278" y="269.25"/><text fill="#000000" font-family="sans-serif" font-size="7" font-weight="bold" lengthAdjust="spacing" textLength="35" x="338.5" y="277.8037">Exception</text></g><!--class RegisterClientUI--><g id="elem_RegisterClientUI"><rect codeLine="7" fill="#F1F1F1" height="24" id="RegisterClientUI" rx="1.25" ry="1.25" style="stroke:#181818;stroke-width:0.25;" width="66.5" x="228.75" y="22"/><ellipse cx="236.25" cy="30" fill="#ADD1B2" rx="5.5" ry="5.5" style="stroke:#181818;stroke-width:0.5;"/><path d="M237.6328,27.9375 Q237.7109,27.8281 237.8047,27.7734 Q237.8984,27.7188 238.0078,27.7188 Q238.1953,27.7188 238.3125,27.8516 Q238.4297,27.9766 238.4297,28.2813 L238.4297,29.0078 Q238.4297,29.3125 238.3125,29.4453 Q238.1953,29.5781 238.0078,29.5781 Q237.8359,29.5781 237.7344,29.4766 Q237.6328,29.3828 237.5781,29.125 Q237.5547,28.9453 237.4609,28.8516 Q237.2969,28.6641 236.9922,28.5547 Q236.6875,28.4453 236.375,28.4453 Q235.9922,28.4453 235.6719,28.6094 Q235.3594,28.7734 235.1094,29.1484 Q234.8672,29.5234 234.8672,30.0391 L234.8672,30.5859 Q234.8672,31.2031 235.3125,31.6172 Q235.7578,32.0234 236.5547,32.0234 Q237.0234,32.0234 237.3516,31.8984 Q237.5469,31.8203 237.7578,31.6016 Q237.8906,31.4688 237.9609,31.4297 Q238.0391,31.3906 238.1406,31.3906 Q238.3047,31.3906 238.4297,31.5234 Q238.5625,31.6484 238.5625,31.8203 Q238.5625,31.9922 238.3906,32.1953 Q238.1406,32.4844 237.7422,32.6484 Q237.2031,32.875 236.5547,32.875 Q235.7969,32.875 235.1953,32.5625 Q234.7031,32.3125 234.3594,31.7813 Q234.0156,31.2422 234.0156,30.6016 L234.0156,30.0234 Q234.0156,29.3594 234.3203,28.7891 Q234.6328,28.2109 235.1797,27.9063 Q235.7266,27.5938 236.3438,27.5938 Q236.7109,27.5938 237.0313,27.6797 Q237.3594,27.7578 237.6328,27.9375 Z " fill="#000000"/><text fill="#000000" font-family="sans-serif" font-size="7" lengthAdjust="spacing" textLength="50.5" x="243.25" y="32.8984">RegisterClientUI</text><line style="stroke:#181818;stroke-width:0.25;" x1="229.25" x2="294.75" y1="38" y2="38"/><line style="stroke:#181818;stroke-width:0.25;" x1="229.25" x2="294.75" y1="42" y2="42"/></g><!--class ClientController--><g id="elem_ClientController"><rect codeLine="12" fill="#F1F1F1" height="42.6211" id="ClientController" rx="1.25" ry="1.25" style="stroke:#181818;stroke-width:0.25;" width="99.5" x="212.25" y="89"/><ellipse cx="235.375" cy="97" fill="#ADD1B2" rx="5.5" ry="5.5" style="stroke:#181818;stroke-width:0.5;"/><path d="M236.7578,94.9375 Q236.8359,94.8281 236.9297,94.7734 Q237.0234,94.7188 237.1328,94.7188 Q237.3203,94.7188 237.4375,94.8516 Q237.5547,94.9766 237.5547,95.2813 L237.5547,96.0078 Q237.5547,96.3125 237.4375,96.4453 Q237.3203,96.5781 237.1328,96.5781 Q236.9609,96.5781 236.8594,96.4766 Q236.7578,96.3828 236.7031,96.125 Q236.6797,95.9453 236.5859,95.8516 Q236.4219,95.6641 236.1172,95.5547 Q235.8125,95.4453 235.5,95.4453 Q235.1172,95.4453 234.7969,95.6094 Q234.4844,95.7734 234.2344,96.1484 Q233.9922,96.5234 233.9922,97.0391 L233.9922,97.5859 Q233.9922,98.2031 234.4375,98.6172 Q234.8828,99.0234 235.6797,99.0234 Q236.1484,99.0234 236.4766,98.8984 Q236.6719,98.8203 236.8828,98.6016 Q237.0156,98.4688 237.0859,98.4297 Q237.1641,98.3906 237.2656,98.3906 Q237.4297,98.3906 237.5547,98.5234 Q237.6875,98.6484 237.6875,98.8203 Q237.6875,98.9922 237.5156,99.1953 Q237.2656,99.4844 236.8672,99.6484 Q236.3281,99.875 235.6797,99.875 Q234.9219,99.875 234.3203,99.5625 Q233.8281,99.3125 233.4844,98.7813 Q233.1406,98.2422 233.1406,97.6016 L233.1406,97.0234 Q233.1406,96.3594 233.4453,95.7891 Q233.7578,95.2109 234.3047,94.9063 Q234.8516,94.5938 235.4688,94.5938 Q235.8359,94.5938 236.1563,94.6797 Q236.4844,94.7578 236.7578,94.9375 Z " fill="#000000"/><text fill="#000000" font-family="sans-serif" font-size="7" lengthAdjust="spacing" textLength="49" x="245.625" y="99.8984">ClientController</text><line style="stroke:#181818;stroke-width:0.25;" x1="212.75" x2="311.25" y1="105" y2="105"/><line style="stroke:#181818;stroke-width:0.25;" x1="212.75" x2="311.25" y1="109" y2="109"/><text fill="#000000" font-family="sans-serif" font-size="7" lengthAdjust="spacing" textLength="91" x="215.25" y="118.5537">+getAllClients() : List&lt;Client&gt;</text><text fill="#000000" font-family="sans-serif" font-size="7" lengthAdjust="spacing" textLength="93.5" x="215.25" y="127.8643">+deleteClient(clientID) : Client</text></g><!--class ClientService--><g id="elem_ClientService"><rect codeLine="19" fill="#F1F1F1" height="51.9316" id="ClientService" rx="1.25" ry="1.25" style="stroke:#181818;stroke-width:0.25;" width="105.5" x="209.25" y="174.5"/><ellipse cx="239.125" cy="182.5" fill="#ADD1B2" rx="5.5" ry="5.5" style="stroke:#181818;stroke-width:0.5;"/><path d="M240.5078,180.4375 Q240.5859,180.3281 240.6797,180.2734 Q240.7734,180.2188 240.8828,180.2188 Q241.0703,180.2188 241.1875,180.3516 Q241.3047,180.4766 241.3047,180.7813 L241.3047,181.5078 Q241.3047,181.8125 241.1875,181.9453 Q241.0703,182.0781 240.8828,182.0781 Q240.7109,182.0781 240.6094,181.9766 Q240.5078,181.8828 240.4531,181.625 Q240.4297,181.4453 240.3359,181.3516 Q240.1719,181.1641 239.8672,181.0547 Q239.5625,180.9453 239.25,180.9453 Q238.8672,180.9453 238.5469,181.1094 Q238.2344,181.2734 237.9844,181.6484 Q237.7422,182.0234 237.7422,182.5391 L237.7422,183.0859 Q237.7422,183.7031 238.1875,184.1172 Q238.6328,184.5234 239.4297,184.5234 Q239.8984,184.5234 240.2266,184.3984 Q240.4219,184.3203 240.6328,184.1016 Q240.7656,183.9688 240.8359,183.9297 Q240.9141,183.8906 241.0156,183.8906 Q241.1797,183.8906 241.3047,184.0234 Q241.4375,184.1484 241.4375,184.3203 Q241.4375,184.4922 241.2656,184.6953 Q241.0156,184.9844 240.6172,185.1484 Q240.0781,185.375 239.4297,185.375 Q238.6719,185.375 238.0703,185.0625 Q237.5781,184.8125 237.2344,184.2813 Q236.8906,183.7422 236.8906,183.1016 L236.8906,182.5234 Q236.8906,181.8594 237.1953,181.2891 Q237.5078,180.7109 238.0547,180.4063 Q238.6016,180.0938 239.2188,180.0938 Q239.5859,180.0938 239.9063,180.1797 Q240.2344,180.2578 240.5078,180.4375 Z " fill="#000000"/><text fill="#000000" font-family="sans-serif" font-size="7" lengthAdjust="spacing" textLength="41.5" x="249.375" y="185.3984">ClientService</text><line style="stroke:#181818;stroke-width:0.25;" x1="209.75" x2="314.25" y1="190.5" y2="190.5"/><line style="stroke:#181818;stroke-width:0.25;" x1="209.75" x2="314.25" y1="194.5" y2="194.5"/><text fill="#000000" font-family="sans-serif" font-size="7" lengthAdjust="spacing" textLength="83.5" x="212.25" y="204.0537">+getClients() : List&lt;Client&gt;</text><text fill="#000000" font-family="sans-serif" font-size="7" lengthAdjust="spacing" textLength="99.5" x="212.25" y="213.3643">-getClientByID((clientID) : Client</text><text fill="#000000" font-family="sans-serif" font-size="7" lengthAdjust="spacing" textLength="93.5" x="212.25" y="222.6748">+deleteClient(clientID) : Client</text></g><!--class Repositories--><g id="elem_Repositories"><rect codeLine="27" fill="#F1F1F1" height="51.9316" id="Repositories" rx="1.25" ry="1.25" style="stroke:#181818;stroke-width:0.25;" width="135" x="11.5" y="278.5"/><ellipse cx="57.125" cy="286.5" fill="#ADD1B2" rx="5.5" ry="5.5" style="stroke:#181818;stroke-width:0.5;"/><path d="M58.5078,284.4375 Q58.5859,284.3281 58.6797,284.2734 Q58.7734,284.2188 58.8828,284.2188 Q59.0703,284.2188 59.1875,284.3516 Q59.3047,284.4766 59.3047,284.7813 L59.3047,285.5078 Q59.3047,285.8125 59.1875,285.9453 Q59.0703,286.0781 58.8828,286.0781 Q58.7109,286.0781 58.6094,285.9766 Q58.5078,285.8828 58.4531,285.625 Q58.4297,285.4453 58.3359,285.3516 Q58.1719,285.1641 57.8672,285.0547 Q57.5625,284.9453 57.25,284.9453 Q56.8672,284.9453 56.5469,285.1094 Q56.2344,285.2734 55.9844,285.6484 Q55.7422,286.0234 55.7422,286.5391 L55.7422,287.0859 Q55.7422,287.7031 56.1875,288.1172 Q56.6328,288.5234 57.4297,288.5234 Q57.8984,288.5234 58.2266,288.3984 Q58.4219,288.3203 58.6328,288.1016 Q58.7656,287.9688 58.8359,287.9297 Q58.9141,287.8906 59.0156,287.8906 Q59.1797,287.8906 59.3047,288.0234 Q59.4375,288.1484 59.4375,288.3203 Q59.4375,288.4922 59.2656,288.6953 Q59.0156,288.9844 58.6172,289.1484 Q58.0781,289.375 57.4297,289.375 Q56.6719,289.375 56.0703,289.0625 Q55.5781,288.8125 55.2344,288.2813 Q54.8906,287.7422 54.8906,287.1016 L54.8906,286.5234 Q54.8906,285.8594 55.1953,285.2891 Q55.5078,284.7109 56.0547,284.4063 Q56.6016,284.0938 57.2188,284.0938 Q57.5859,284.0938 57.9063,284.1797 Q58.2344,284.2578 58.5078,284.4375 Z " fill="#000000"/><text fill="#000000" font-family="sans-serif" font-size="7" lengthAdjust="spacing" textLength="39.5" x="67.375" y="289.3984">Repositories</text><line style="stroke:#181818;stroke-width:0.25;" x1="12" x2="146" y1="294.5" y2="294.5"/><line style="stroke:#181818;stroke-width:0.25;" x1="12" x2="146" y1="298.5" y2="298.5"/><text fill="#000000" font-family="sans-serif" font-size="7" lengthAdjust="spacing" textLength="47" x="14.5" y="308.0537">-Repositories()</text><text fill="#000000" font-family="sans-serif" font-size="7" lengthAdjust="spacing" textLength="91" x="14.5" y="317.3643">+getInstance() : Repositories</text><text fill="#000000" font-family="sans-serif" font-size="7" lengthAdjust="spacing" textLength="129" x="14.5" y="326.6748">+getClientRepository() : ClientRepository</text></g><!--class ClientRepository--><g id="elem_ClientRepository"><rect codeLine="33" fill="#F1F1F1" height="51.9316" id="ClientRepository" rx="1.25" ry="1.25" style="stroke:#181818;stroke-width:0.25;" width="131.5" x="54.25" y="370"/><ellipse cx="91.875" cy="378" fill="#ADD1B2" rx="5.5" ry="5.5" style="stroke:#181818;stroke-width:0.5;"/><path d="M93.2578,375.9375 Q93.3359,375.8281 93.4297,375.7734 Q93.5234,375.7188 93.6328,375.7188 Q93.8203,375.7188 93.9375,375.8516 Q94.0547,375.9766 94.0547,376.2813 L94.0547,377.0078 Q94.0547,377.3125 93.9375,377.4453 Q93.8203,377.5781 93.6328,377.5781 Q93.4609,377.5781 93.3594,377.4766 Q93.2578,377.3828 93.2031,377.125 Q93.1797,376.9453 93.0859,376.8516 Q92.9219,376.6641 92.6172,376.5547 Q92.3125,376.4453 92,376.4453 Q91.6172,376.4453 91.2969,376.6094 Q90.9844,376.7734 90.7344,377.1484 Q90.4922,377.5234 90.4922,378.0391 L90.4922,378.5859 Q90.4922,379.2031 90.9375,379.6172 Q91.3828,380.0234 92.1797,380.0234 Q92.6484,380.0234 92.9766,379.8984 Q93.1719,379.8203 93.3828,379.6016 Q93.5156,379.4688 93.5859,379.4297 Q93.6641,379.3906 93.7656,379.3906 Q93.9297,379.3906 94.0547,379.5234 Q94.1875,379.6484 94.1875,379.8203 Q94.1875,379.9922 94.0156,380.1953 Q93.7656,380.4844 93.3672,380.6484 Q92.8281,380.875 92.1797,380.875 Q91.4219,380.875 90.8203,380.5625 Q90.3281,380.3125 89.9844,379.7813 Q89.6406,379.2422 89.6406,378.6016 L89.6406,378.0234 Q89.6406,377.3594 89.9453,376.7891 Q90.2578,376.2109 90.8047,375.9063 Q91.3516,375.5938 91.9688,375.5938 Q92.3359,375.5938 92.6563,375.6797 Q92.9844,375.7578 93.2578,375.9375 Z " fill="#000000"/><text fill="#000000" font-family="sans-serif" font-size="7" lengthAdjust="spacing" textLength="52" x="102.125" y="380.8984">ClientRepository</text><line style="stroke:#181818;stroke-width:0.25;" x1="54.75" x2="185.25" y1="386" y2="386"/><line style="stroke:#181818;stroke-width:0.25;" x1="54.75" x2="185.25" y1="390" y2="390"/><text fill="#000000" font-family="sans-serif" font-size="7" lengthAdjust="spacing" textLength="104" x="57.25" y="399.5537">+getAll(connection) : List&lt;Client&gt;</text><text fill="#000000" font-family="sans-serif" font-size="7" lengthAdjust="spacing" textLength="125.5" x="57.25" y="408.8643">+getById(connection, clientID) : boolean</text><text fill="#000000" font-family="sans-serif" font-size="7" lengthAdjust="spacing" textLength="115" x="57.25" y="418.1748">+delete(connection, client) : boolean</text></g><!--class Client--><g id="elem_Client"><rect codeLine="41" fill="#F1F1F1" height="98.4844" id="Client" rx="1.25" ry="1.25" style="stroke:#181818;stroke-width:0.25;" width="212.5" x="306.25" y="474"/><ellipse cx="401.375" cy="482" fill="#ADD1B2" rx="5.5" ry="5.5" style="stroke:#181818;stroke-width:0.5;"/><path d="M402.7578,479.9375 Q402.8359,479.8281 402.9297,479.7734 Q403.0234,479.7188 403.1328,479.7188 Q403.3203,479.7188 403.4375,479.8516 Q403.5547,479.9766 403.5547,480.2813 L403.5547,481.0078 Q403.5547,481.3125 403.4375,481.4453 Q403.3203,481.5781 403.1328,481.5781 Q402.9609,481.5781 402.8594,481.4766 Q402.7578,481.3828 402.7031,481.125 Q402.6797,480.9453 402.5859,480.8516 Q402.4219,480.6641 402.1172,480.5547 Q401.8125,480.4453 401.5,480.4453 Q401.1172,480.4453 400.7969,480.6094 Q400.4844,480.7734 400.2344,481.1484 Q399.9922,481.5234 399.9922,482.0391 L399.9922,482.5859 Q399.9922,483.2031 400.4375,483.6172 Q400.8828,484.0234 401.6797,484.0234 Q402.1484,484.0234 402.4766,483.8984 Q402.6719,483.8203 402.8828,483.6016 Q403.0156,483.4688 403.0859,483.4297 Q403.1641,483.3906 403.2656,483.3906 Q403.4297,483.3906 403.5547,483.5234 Q403.6875,483.6484 403.6875,483.8203 Q403.6875,483.9922 403.5156,484.1953 Q403.2656,484.4844 402.8672,484.6484 Q402.3281,484.875 401.6797,484.875 Q400.9219,484.875 400.3203,484.5625 Q399.8281,484.3125 399.4844,483.7813 Q399.1406,483.2422 399.1406,482.6016 L399.1406,482.0234 Q399.1406,481.3594 399.4453,480.7891 Q399.7578,480.2109 400.3047,479.9063 Q400.8516,479.5938 401.4688,479.5938 Q401.8359,479.5938 402.1563,479.6797 Q402.4844,479.7578 402.7578,479.9375 Z " fill="#000000"/><text fill="#000000" font-family="sans-serif" font-size="7" lengthAdjust="spacing" textLength="18" x="411.625" y="484.8984">Client</text><line style="stroke:#181818;stroke-width:0.25;" x1="306.75" x2="518.25" y1="490" y2="490"/><text fill="#000000" font-family="sans-serif" font-size="7" lengthAdjust="spacing" textLength="39" x="309.25" y="499.5537">-clientID : int</text><text fill="#000000" font-family="sans-serif" font-size="7" lengthAdjust="spacing" textLength="60" x="309.25" y="508.8643">-address : Address</text><text fill="#000000" font-family="sans-serif" font-size="7" lengthAdjust="spacing" textLength="44.5" x="309.25" y="518.1748">-name : String</text><text fill="#000000" font-family="sans-serif" font-size="7" lengthAdjust="spacing" textLength="42" x="309.25" y="527.4854">-vatin : String</text><text fill="#000000" font-family="sans-serif" font-size="7" lengthAdjust="spacing" textLength="60.5" x="309.25" y="536.7959">-phoneNumber : int</text><text fill="#000000" font-family="sans-serif" font-size="7" lengthAdjust="spacing" textLength="43.5" x="309.25" y="546.1064">-email : String</text><text fill="#000000" font-family="sans-serif" font-size="7" lengthAdjust="spacing" textLength="68" x="309.25" y="555.417">-type : CompanyType</text><line style="stroke:#181818;stroke-width:0.25;" x1="306.75" x2="518.25" y1="559.1738" y2="559.1738"/><text fill="#000000" font-family="sans-serif" font-size="7" lengthAdjust="spacing" textLength="206.5" x="309.25" y="568.7275">+Client(clientID, name, address, vatin, phoneNumber, email, type)</text></g><!--class Address--><g id="elem_Address"><rect codeLine="52" fill="#F1F1F1" height="79.8633" id="Address" rx="1.25" ry="1.25" style="stroke:#181818;stroke-width:0.25;" width="144" x="301" y="612"/><ellipse cx="357.875" cy="620" fill="#ADD1B2" rx="5.5" ry="5.5" style="stroke:#181818;stroke-width:0.5;"/><path d="M359.2578,617.9375 Q359.3359,617.8281 359.4297,617.7734 Q359.5234,617.7188 359.6328,617.7188 Q359.8203,617.7188 359.9375,617.8516 Q360.0547,617.9766 360.0547,618.2813 L360.0547,619.0078 Q360.0547,619.3125 359.9375,619.4453 Q359.8203,619.5781 359.6328,619.5781 Q359.4609,619.5781 359.3594,619.4766 Q359.2578,619.3828 359.2031,619.125 Q359.1797,618.9453 359.0859,618.8516 Q358.9219,618.6641 358.6172,618.5547 Q358.3125,618.4453 358,618.4453 Q357.6172,618.4453 357.2969,618.6094 Q356.9844,618.7734 356.7344,619.1484 Q356.4922,619.5234 356.4922,620.0391 L356.4922,620.5859 Q356.4922,621.2031 356.9375,621.6172 Q357.3828,622.0234 358.1797,622.0234 Q358.6484,622.0234 358.9766,621.8984 Q359.1719,621.8203 359.3828,621.6016 Q359.5156,621.4688 359.5859,621.4297 Q359.6641,621.3906 359.7656,621.3906 Q359.9297,621.3906 360.0547,621.5234 Q360.1875,621.6484 360.1875,621.8203 Q360.1875,621.9922 360.0156,622.1953 Q359.7656,622.4844 359.3672,622.6484 Q358.8281,622.875 358.1797,622.875 Q357.4219,622.875 356.8203,622.5625 Q356.3281,622.3125 355.9844,621.7813 Q355.6406,621.2422 355.6406,620.6016 L355.6406,620.0234 Q355.6406,619.3594 355.9453,618.7891 Q356.2578,618.2109 356.8047,617.9063 Q357.3516,617.5938 357.9688,617.5938 Q358.3359,617.5938 358.6563,617.6797 Q358.9844,617.7578 359.2578,617.9375 Z " fill="#000000"/><text fill="#000000" font-family="sans-serif" font-size="7" lengthAdjust="spacing" textLength="26" x="368.125" y="622.8984">Address</text><line style="stroke:#181818;stroke-width:0.25;" x1="301.5" x2="444.5" y1="628" y2="628"/><text fill="#000000" font-family="sans-serif" font-size="7" lengthAdjust="spacing" textLength="21.5" x="304" y="637.5537">-id : int</text><text fill="#000000" font-family="sans-serif" font-size="7" lengthAdjust="spacing" textLength="45" x="304" y="646.8643">-street : String</text><text fill="#000000" font-family="sans-serif" font-size="7" lengthAdjust="spacing" textLength="52.5" x="304" y="656.1748">-zipCode : String</text><text fill="#000000" font-family="sans-serif" font-size="7" lengthAdjust="spacing" textLength="41.5" x="304" y="665.4854">-town : String</text><text fill="#000000" font-family="sans-serif" font-size="7" lengthAdjust="spacing" textLength="50.5" x="304" y="674.7959">-country : String</text><line style="stroke:#181818;stroke-width:0.25;" x1="301.5" x2="444.5" y1="678.5527" y2="678.5527"/><text fill="#000000" font-family="sans-serif" font-size="7" lengthAdjust="spacing" textLength="138" x="304" y="688.1064">+Address(id, street, zipCode, town, country)</text></g><!--class CompanyType--><g id="elem_CompanyType"><rect codeLine="61" fill="#F1F1F1" height="42.6211" id="CompanyType" rx="1.25" ry="1.25" style="stroke:#181818;stroke-width:0.25;" width="62" x="462.5" y="630.75"/><ellipse cx="470" cy="638.75" fill="#EB937F" rx="5.5" ry="5.5" style="stroke:#181818;stroke-width:0.5;"/><path d="M469.4297,639.1484 L469.4297,640.3984 L471.5938,640.3984 L471.5938,639.9375 Q471.5938,639.6328 471.7109,639.5 Q471.8359,639.3672 472.0234,639.3672 Q472.2109,639.3672 472.3281,639.5 Q472.4453,639.6328 472.4453,639.9375 L472.4453,641.25 L468.4453,641.25 Q468.1328,641.25 468,641.1328 Q467.875,641.0156 467.875,640.8203 Q467.875,640.6328 468.0078,640.5156 Q468.1406,640.3984 468.4453,640.3984 L468.5781,640.3984 L468.5781,637.0703 L468.4453,637.0703 Q468.1328,637.0703 468,636.9531 Q467.875,636.8359 467.875,636.6406 Q467.875,636.4531 468,636.3359 Q468.1328,636.2188 468.4453,636.2188 L472.2578,636.2188 L472.2578,637.5156 Q472.2578,637.8203 472.1406,637.9531 Q472.0313,638.0781 471.8359,638.0781 Q471.6484,638.0781 471.5313,637.9531 Q471.4141,637.8203 471.4141,637.5156 L471.4141,637.0703 L469.4297,637.0703 L469.4297,638.2969 L470.1719,638.2969 Q470.1719,637.9688 470.2344,637.875 Q470.3672,637.6719 470.6016,637.6719 Q470.7891,637.6719 470.9063,637.8047 Q471.0234,637.9297 471.0234,638.2344 L471.0234,639.2188 Q471.0234,639.4922 470.9609,639.5859 Q470.8281,639.7813 470.6016,639.7813 Q470.3672,639.7813 470.2344,639.5781 Q470.1719,639.4844 470.1719,639.1484 L469.4297,639.1484 Z " fill="#000000"/><text fill="#000000" font-family="sans-serif" font-size="7" lengthAdjust="spacing" textLength="46" x="477" y="641.6484">CompanyType</text><line style="stroke:#181818;stroke-width:0.25;" x1="463" x2="524" y1="646.75" y2="646.75"/><text fill="#000000" font-family="sans-serif" font-size="7" lengthAdjust="spacing" textLength="36.5" x="465.5" y="656.3037">INDIVIDUAL</text><text fill="#000000" font-family="sans-serif" font-size="7" lengthAdjust="spacing" textLength="34" x="465.5" y="665.6143">COMPANY</text><line style="stroke:#181818;stroke-width:0.25;" x1="463" x2="524" y1="669.3711" y2="669.3711"/></g><!--class ClientException--><g id="elem_ClientException"><rect codeLine="68" fill="#F1F1F1" height="33.3105" id="ClientException" rx="1.25" ry="1.25" style="stroke:#181818;stroke-width:0.25;" width="140" x="286" y="287.75"/><ellipse cx="329.625" cy="295.75" fill="#ADD1B2" rx="5.5" ry="5.5" style="stroke:#181818;stroke-width:0.5;"/><path d="M331.0078,293.6875 Q331.0859,293.5781 331.1797,293.5234 Q331.2734,293.4688 331.3828,293.4688 Q331.5703,293.4688 331.6875,293.6016 Q331.8047,293.7266 331.8047,294.0313 L331.8047,294.7578 Q331.8047,295.0625 331.6875,295.1953 Q331.5703,295.3281 331.3828,295.3281 Q331.2109,295.3281 331.1094,295.2266 Q331.0078,295.1328 330.9531,294.875 Q330.9297,294.6953 330.8359,294.6016 Q330.6719,294.4141 330.3672,294.3047 Q330.0625,294.1953 329.75,294.1953 Q329.3672,294.1953 329.0469,294.3594 Q328.7344,294.5234 328.4844,294.8984 Q328.2422,295.2734 328.2422,295.7891 L328.2422,296.3359 Q328.2422,296.9531 328.6875,297.3672 Q329.1328,297.7734 329.9297,297.7734 Q330.3984,297.7734 330.7266,297.6484 Q330.9219,297.5703 331.1328,297.3516 Q331.2656,297.2188 331.3359,297.1797 Q331.4141,297.1406 331.5156,297.1406 Q331.6797,297.1406 331.8047,297.2734 Q331.9375,297.3984 331.9375,297.5703 Q331.9375,297.7422 331.7656,297.9453 Q331.5156,298.2344 331.1172,298.3984 Q330.5781,298.625 329.9297,298.625 Q329.1719,298.625 328.5703,298.3125 Q328.0781,298.0625 327.7344,297.5313 Q327.3906,296.9922 327.3906,296.3516 L327.3906,295.7734 Q327.3906,295.1094 327.6953,294.5391 Q328.0078,293.9609 328.5547,293.6563 Q329.1016,293.3438 329.7188,293.3438 Q330.0859,293.3438 330.4063,293.4297 Q330.7344,293.5078 331.0078,293.6875 Z " fill="#000000"/><text fill="#000000" font-family="sans-serif" font-size="7" lengthAdjust="spacing" textLength="48.5" x="339.875" y="298.6484">ClientException</text><line style="stroke:#181818;stroke-width:0.25;" x1="286.5" x2="425.5" y1="303.75" y2="303.75"/><line style="stroke:#181818;stroke-width:0.25;" x1="286.5" x2="425.5" y1="307.75" y2="307.75"/><text fill="#000000" font-family="sans-serif" font-size="7" lengthAdjust="spacing" textLength="134" x="289" y="317.3037">+clientNotFound(clientID) : ClientException</text></g><!--class RuntimeException--><g id="elem_RuntimeException"><rect codeLine="72" fill="#F1F1F1" height="24" id="RuntimeException" rx="1.25" ry="1.25" style="stroke:#181818;stroke-width:0.25;" width="72.5" x="319.75" y="384"/><ellipse cx="327.25" cy="392" fill="#ADD1B2" rx="5.5" ry="5.5" style="stroke:#181818;stroke-width:0.5;"/><path d="M328.6328,389.9375 Q328.7109,389.8281 328.8047,389.7734 Q328.8984,389.7188 329.0078,389.7188 Q329.1953,389.7188 329.3125,389.8516 Q329.4297,389.9766 329.4297,390.2813 L329.4297,391.0078 Q329.4297,391.3125 329.3125,391.4453 Q329.1953,391.5781 329.0078,391.5781 Q328.8359,391.5781 328.7344,391.4766 Q328.6328,391.3828 328.5781,391.125 Q328.5547,390.9453 328.4609,390.8516 Q328.2969,390.6641 327.9922,390.5547 Q327.6875,390.4453 327.375,390.4453 Q326.9922,390.4453 326.6719,390.6094 Q326.3594,390.7734 326.1094,391.1484 Q325.8672,391.5234 325.8672,392.0391 L325.8672,392.5859 Q325.8672,393.2031 326.3125,393.6172 Q326.7578,394.0234 327.5547,394.0234 Q328.0234,394.0234 328.3516,393.8984 Q328.5469,393.8203 328.7578,393.6016 Q328.8906,393.4688 328.9609,393.4297 Q329.0391,393.3906 329.1406,393.3906 Q329.3047,393.3906 329.4297,393.5234 Q329.5625,393.6484 329.5625,393.8203 Q329.5625,393.9922 329.3906,394.1953 Q329.1406,394.4844 328.7422,394.6484 Q328.2031,394.875 327.5547,394.875 Q326.7969,394.875 326.1953,394.5625 Q325.7031,394.3125 325.3594,393.7813 Q325.0156,393.2422 325.0156,392.6016 L325.0156,392.0234 Q325.0156,391.3594 325.3203,390.7891 Q325.6328,390.2109 326.1797,389.9063 Q326.7266,389.5938 327.3438,389.5938 Q327.7109,389.5938 328.0313,389.6797 Q328.3594,389.7578 328.6328,389.9375 Z " fill="#000000"/><text fill="#000000" font-family="sans-serif" font-size="7" lengthAdjust="spacing" textLength="56.5" x="334.25" y="394.8984">RuntimeException</text><line style="stroke:#181818;stroke-width:0.25;" x1="320.25" x2="391.75" y1="400" y2="400"/><line style="stroke:#181818;stroke-width:0.25;" x1="320.25" x2="391.75" y1="404" y2="404"/></g><!--link RegisterClientUI to ClientController--><g id="link_RegisterClientUI_ClientController"><path codeLine="76" d="M262,46.095 C262,57.47 262,72.08 262,85.895 " fill="none" id="RegisterClientUI-to-ClientController" style="stroke:#181818;stroke-width:0.5;stroke-dasharray:7.0,7.0;"/><polygon fill="#181818" points="262,88.895,264,84.395,262,86.395,260,84.395,262,88.895" style="stroke:#181818;stroke-width:0.5;"/></g><!--link ClientController to ClientService--><g id="link_ClientController_ClientService"><path codeLine="77" d="M262,131.675 C262,144.455 262,157.88 262,171.43 " fill="none" id="ClientController-to-ClientService" style="stroke:#181818;stroke-width:0.5;stroke-dasharray:7.0,7.0;"/><polygon fill="#181818" points="262,174.43,264,169.93,262,171.93,260,169.93,262,174.43" style="stroke:#181818;stroke-width:0.5;"/></g><!--link ClientService to Repositories--><g id="link_ClientService_Repositories"><path codeLine="78" d="M209.24,225.74 C190.29,234.625 173.5,242.5 173.5,242.5 C173.5,242.5 146.7343,259.9185 120.7693,276.8185 " fill="none" id="ClientService-to-Repositories" style="stroke:#181818;stroke-width:0.5;stroke-dasharray:7.0,7.0;"/><polygon fill="#181818" points="118.255,278.455,123.1175,277.6764,120.3503,277.0912,120.9355,274.324,118.255,278.455" style="stroke:#181818;stroke-width:0.5;"/><text fill="#000000" font-family="sans-serif" font-size="6.5" lengthAdjust="spacing" textLength="33.5" x="174" y="250.0142">repositories</text></g><!--link ClientService to ClientRepository--><g id="link_ClientService_ClientRepository"><path codeLine="79" d="M247.355,226.57 C239.13,240.93 230.5,256 230.5,256 C230.5,256 194.5,330.5 194.5,330.5 C194.5,330.5 172.3605,349.8126 151.4905,368.0226 " fill="none" id="ClientService-to-ClientRepository" style="stroke:#181818;stroke-width:0.5;stroke-dasharray:7.0,7.0;"/><polygon fill="#181818" points="149.23,369.995,153.9356,368.5434,151.1137,368.3514,151.3058,365.5295,149.23,369.995" style="stroke:#181818;stroke-width:0.5;"/><text fill="#000000" font-family="sans-serif" font-size="6.5" lengthAdjust="spacing" textLength="46.5" x="231" y="307.2642">clientRepository</text></g><!--link ClientService to Client--><g id="link_ClientService_Client"><path codeLine="80" d="M314.775,217.875 C365.335,234.045 434,256 434,256 C434,256 434,434 434,434 C434,434 430.0213,450.4243 425.0263,471.0443 " fill="none" id="ClientService-to-Client" style="stroke:#181818;stroke-width:0.5;stroke-dasharray:7.0,7.0;"/><polygon fill="#181818" points="424.32,473.96,427.3232,470.0574,424.9086,471.5303,423.4357,469.1156,424.32,473.96" style="stroke:#181818;stroke-width:0.5;"/><text fill="#000000" font-family="sans-serif" font-size="6.5" lengthAdjust="spacing" textLength="15.5" x="434.5" y="353.0142">client</text></g><!--link Repositories to Repositories--><g id="link_Repositories_Repositories"><path codeLine="81" d="M146.51,296.785 C156.92,297.95 164,300.525 164,304.5 C164,308.475 159.9014,310.7163 149.4914,311.8813 " fill="none" id="Repositories-to-Repositories" style="stroke:#181818;stroke-width:0.5;"/><polygon fill="#181818" points="146.51,312.215,151.2045,313.7021,148.9945,311.937,150.7596,309.7269,146.51,312.215" style="stroke:#181818;stroke-width:0.5;"/><text fill="#000000" font-family="sans-serif" font-size="6.5" lengthAdjust="spacing" textLength="24.5" x="167" y="307.2642">instance</text></g><!--link Repositories to ClientRepository--><g id="link_Repositories_ClientRepository"><path codeLine="82" d="M90.64,330.69 C96.205,342.97 101.6068,354.8975 107.1668,367.1675 " fill="none" id="Repositories-to-ClientRepository" style="stroke:#181818;stroke-width:0.5;"/><polygon fill="#181818" points="108.405,369.9,108.3694,364.9757,107.3731,367.6229,104.726,366.6267,108.405,369.9" style="stroke:#181818;stroke-width:0.5;"/><text fill="#000000" font-family="sans-serif" font-size="6.5" lengthAdjust="spacing" textLength="46.5" x="101.5" y="353.0142">clientRepository</text><text fill="#000000" font-family="sans-serif" font-size="6.5" lengthAdjust="spacing" textLength="3.5" x="88.3453" y="341.4271">1</text><text fill="#000000" font-family="sans-serif" font-size="6.5" lengthAdjust="spacing" textLength="3.5" x="103.1118" y="364.3502">1</text></g><!--link ClientRepository to Client--><g id="link_ClientRepository_Client"><path codeLine="83" d="M179.19,422.05 C215.625,437.775 260.6356,457.2013 303.4556,475.6813 " fill="none" id="ClientRepository-to-Client" style="stroke:#181818;stroke-width:0.5;"/><polygon fill="#181818" points="306.21,476.87,302.8708,473.2506,303.9146,475.8794,301.2859,476.9232,306.21,476.87" style="stroke:#181818;stroke-width:0.5;"/><text fill="#000000" font-family="sans-serif" font-size="6.5" lengthAdjust="spacing" textLength="30" x="232" y="445.5142">categories</text><text fill="#000000" font-family="sans-serif" font-size="6.5" lengthAdjust="spacing" textLength="3.5" x="183.0495" y="432.96">1</text><text fill="#000000" font-family="sans-serif" font-size="6.5" lengthAdjust="spacing" textLength="2.5" x="299.8453" y="473.5675">*</text></g><!--link Client to Address--><g id="link_Client_Address"><path codeLine="84" d="M397.4,572.595 C393.39,585.555 389.9957,596.5237 386.1607,608.9337 " fill="none" id="Client-to-Address" style="stroke:#181818;stroke-width:0.5;"/><polygon fill="#181818" points="385.275,611.8,388.5145,608.0911,386.0131,609.4114,384.6928,606.9101,385.275,611.8" style="stroke:#181818;stroke-width:0.5;"/><text fill="#000000" font-family="sans-serif" font-size="6.5" lengthAdjust="spacing" textLength="10.5" x="393" y="595.0142">has</text><text fill="#000000" font-family="sans-serif" font-size="6.5" lengthAdjust="spacing" textLength="2.5" x="393.6993" y="583.551">*</text><text fill="#000000" font-family="sans-serif" font-size="6.5" lengthAdjust="spacing" textLength="3.5" x="382.7124" y="606.3679">1</text></g><!--link Client to CompanyType--><g id="link_Client_CompanyType"><path codeLine="85" d="M443.47,572.595 C456.24,592.74 468.748,612.4667 478.723,628.1917 " fill="none" id="Client-to-CompanyType" style="stroke:#181818;stroke-width:0.5;"/><polygon fill="#181818" points="480.33,630.725,479.6084,625.8537,478.9909,628.6139,476.2307,627.9964,480.33,630.725" style="stroke:#181818;stroke-width:0.5;"/><text fill="#000000" font-family="sans-serif" font-size="6.5" lengthAdjust="spacing" textLength="10.5" x="458" y="595.0142">has</text><text fill="#000000" font-family="sans-serif" font-size="6.5" lengthAdjust="spacing" textLength="2.5" x="443.1526" y="583.551">*</text><text fill="#000000" font-family="sans-serif" font-size="6.5" lengthAdjust="spacing" textLength="3.5" x="474.4521" y="625.1731">1</text></g><!--link ClientService to ClientException--><g id="link_ClientService_ClientException"><path codeLine="86" d="M285.355,226.595 C302.81,245.72 324.1224,269.0744 339.1074,285.4894 " fill="none" id="ClientService-to-ClientException" style="stroke:#181818;stroke-width:0.5;stroke-dasharray:7.0,7.0;"/><polygon fill="#181818" points="341.13,287.705,339.5732,283.0331,339.4445,285.8586,336.619,285.73,341.13,287.705" style="stroke:#181818;stroke-width:0.5;"/><text fill="#000000" font-family="sans-serif" font-size="6.5" lengthAdjust="spacing" textLength="19" x="306.5" y="250.0142">throws</text></g><!--link ClientException to RuntimeException--><g id="link_ClientException_RuntimeException"><path codeLine="87" d="M356,321.39 C356,339.47 356,359.105 356,374.97 " fill="none" id="ClientException-to-RuntimeException" style="stroke:#181818;stroke-width:0.5;"/><polygon fill="none" points="356,383.97,359,374.97,353,374.97,356,383.97" style="stroke:#181818;stroke-width:0.5;"/></g><!--SRC=[dLN1Zfim4Btp5LPEf0khzXfLaTAabP1sqoffAlNem9HOQsm4pgPik__U0HniiADMvKAOUUDvC_CygP-OA6b52rBIz8dci5SD1r91ggZ8EGJr0AXFD9CN9dBoW_BQzd0cG3Kba5BoflsmV2cdTRrIgcB7iu8abMBFNe2y3GATaCmEoOpy2WW-7PZi86UrWchD6GXrIBJpDNYrWjPIg4fo3jKuk0yoNkridxiSr8hp7b67Sx8W3vZeVMzO6bm671JqvZ3jNiccXVSc3vizLCyi1HyLxPhm-2k9U01zQ99DU8l6V_BTGIbhfcJLJ5klxGngYt5isyFvg994r2YL5BfIR9odNfCsDFICKHDrMcWGxZH3L9H0jJ8fRWyKeTZ5pC96nExJKKeEL4mxwi5FqUEsFaeCz8d0xkKrCPx4h2d6DCigm8W5MVM_Z4lG0j2-nriaScD-fee9ZxqyIG7RSt54-K-IG44PzuHqrnSd8ekIYkOhVfbcJ8GLaPPEH3JVY7Gq8c9bZKYN9oBjiNDthBf0koiicrAjLGMWF5nVMBd6Hlkga1TVFr9vndNGk9uxJIHaMKJwV17HnoDvF0tdtWUFgW1nBknUMOKasqtoBTaSLW-3QVtvySjg-zsZbuy_KoXRUVaqCpXjqVT3s4hr2Mbbdii-HBbTts4Xh023G6_WBDlx-wMpH0DdgngKtc_1UDkr_j4oMU1_YhKRNBHprHVwobdxuLRKW0r6EUFO8S7qjXe3P-zc7RXz_piF2pCSy6PcKQ8AShlSpdtDingk-ubw0RQ-R91Rlb7AWgXJ9IzNg774yU-bAu0_]--></g></svg>