<?xml version="1.0" encoding="us-ascii" standalone="no"?><svg xmlns="http://www.w3.org/2000/svg" xmlns:xlink="http://www.w3.org/1999/xlink" contentStyleType="text/css" height="722.4px" preserveAspectRatio="none" style="width:608px;height:722px;background:#FFFFFF;" version="1.1" viewBox="0 0 608 722" width="608.4px" zoomAndPan="magnify"><defs/><g><!--cluster UI--><g id="cluster_UI"><rect fill="none" height="60.6" rx="1.5" ry="1.5" style="stroke:#000000;stroke-width:0.8999999999999999;" width="99.6" x="264.6" y="4.2"/><text fill="#000000" font-family="sans-serif" font-size="8.4" font-weight="bold" lengthAdjust="spacing" textLength="8.4" x="310.2" y="14.4645">UI</text></g><!--cluster Controller--><g id="cluster_Controller"><rect fill="none" height="82.8" rx="1.5" ry="1.5" style="stroke:#000000;stroke-width:0.8999999999999999;" width="139.2" x="244.8" y="84.6"/><text fill="#000000" font-family="sans-serif" font-size="8.4" font-weight="bold" lengthAdjust="spacing" textLength="42.6" x="293.1" y="94.8645">Controller</text></g><!--cluster Service--><g id="cluster_Service"><rect fill="none" height="94.2" rx="1.5" ry="1.5" style="stroke:#000000;stroke-width:0.8999999999999999;" width="146.4" x="241.2" y="187.2"/><text fill="#000000" font-family="sans-serif" font-size="8.4" font-weight="bold" lengthAdjust="spacing" textLength="32.4" x="298.2" y="197.4645">Service</text></g><!--cluster Repository--><g id="cluster_Repository"><rect fill="none" height="204" rx="1.5" ry="1.5" style="stroke:#000000;stroke-width:0.8999999999999999;" width="228.6" x="4.2" y="312"/><text fill="#000000" font-family="sans-serif" font-size="8.4" font-weight="bold" lengthAdjust="spacing" textLength="45.6" x="95.7" y="322.2645">Repository</text></g><!--cluster Model--><g id="cluster_Model"><rect fill="none" height="172.2" rx="1.5" ry="1.5" style="stroke:#000000;stroke-width:0.8999999999999999;" width="274.8" x="330" y="546.6"/><text fill="#000000" font-family="sans-serif" font-size="8.4" font-weight="bold" lengthAdjust="spacing" textLength="26.4" x="454.2" y="556.8645">Model</text></g><!--cluster Exception--><g id="cluster_Exception"><rect fill="none" height="176.1" rx="1.5" ry="1.5" style="stroke:#000000;stroke-width:0.8999999999999999;" width="187.2" x="333.6" y="323.1"/><text fill="#000000" font-family="sans-serif" font-size="8.4" font-weight="bold" lengthAdjust="spacing" textLength="42" x="406.2" y="333.3645">Exception</text></g><!--class RegisterClientUI--><g id="elem_RegisterClientUI"><rect codeLine="7" fill="#F1F1F1" height="28.8" id="RegisterClientUI" rx="1.5" ry="1.5" style="stroke:#181818;stroke-width:0.3;" width="79.8" x="274.5" y="26.4"/><ellipse cx="283.5" cy="36" fill="#ADD1B2" rx="6.6" ry="6.6" style="stroke:#181818;stroke-width:0.6;"/><path d="M285.1594,33.525 Q285.2531,33.3938 285.3656,33.3281 Q285.4781,33.2625 285.6094,33.2625 Q285.8344,33.2625 285.975,33.4219 Q286.1156,33.5719 286.1156,33.9375 L286.1156,34.8094 Q286.1156,35.175 285.975,35.3344 Q285.8344,35.4938 285.6094,35.4938 Q285.4031,35.4938 285.2813,35.3719 Q285.1594,35.2594 285.0938,34.95 Q285.0656,34.7344 284.9531,34.6219 Q284.7562,34.3969 284.3906,34.2656 Q284.025,34.1344 283.65,34.1344 Q283.1906,34.1344 282.8063,34.3313 Q282.4313,34.5281 282.1312,34.9781 Q281.8406,35.4281 281.8406,36.0469 L281.8406,36.7031 Q281.8406,37.4438 282.375,37.9406 Q282.9094,38.4281 283.8656,38.4281 Q284.4281,38.4281 284.8219,38.2781 Q285.0563,38.1844 285.3094,37.9219 Q285.4688,37.7625 285.5531,37.7156 Q285.6469,37.6687 285.7688,37.6687 Q285.9656,37.6687 286.1156,37.8281 Q286.275,37.9781 286.275,38.1844 Q286.275,38.3906 286.0687,38.6344 Q285.7688,38.9812 285.2906,39.1781 Q284.6438,39.45 283.8656,39.45 Q282.9563,39.45 282.2344,39.075 Q281.6438,38.775 281.2313,38.1375 Q280.8187,37.4906 280.8187,36.7219 L280.8187,36.0281 Q280.8187,35.2312 281.1844,34.5469 Q281.5594,33.8531 282.2156,33.4875 Q282.8719,33.1125 283.6125,33.1125 Q284.0531,33.1125 284.4375,33.2156 Q284.8313,33.3094 285.1594,33.525 Z " fill="#000000"/><text fill="#000000" font-family="sans-serif" font-size="8.4" lengthAdjust="spacing" textLength="60.6" x="291.9" y="39.4781">RegisterClientUI</text><line style="stroke:#181818;stroke-width:0.3;" x1="275.1" x2="353.7" y1="45.6" y2="45.6"/><line style="stroke:#181818;stroke-width:0.3;" x1="275.1" x2="353.7" y1="50.4" y2="50.4"/></g><!--class ClientController--><g id="elem_ClientController"><rect codeLine="12" fill="#F1F1F1" height="51.1453" id="ClientController" rx="1.5" ry="1.5" style="stroke:#181818;stroke-width:0.3;" width="119.4" x="254.7" y="106.8"/><ellipse cx="282.45" cy="116.4" fill="#ADD1B2" rx="6.6" ry="6.6" style="stroke:#181818;stroke-width:0.6;"/><path d="M284.1094,113.925 Q284.2031,113.7938 284.3156,113.7281 Q284.4281,113.6625 284.5594,113.6625 Q284.7844,113.6625 284.925,113.8219 Q285.0656,113.9719 285.0656,114.3375 L285.0656,115.2094 Q285.0656,115.575 284.925,115.7344 Q284.7844,115.8938 284.5594,115.8938 Q284.3531,115.8938 284.2313,115.7719 Q284.1094,115.6594 284.0438,115.35 Q284.0156,115.1344 283.9031,115.0219 Q283.7063,114.7969 283.3406,114.6656 Q282.975,114.5344 282.6,114.5344 Q282.1406,114.5344 281.7562,114.7313 Q281.3812,114.9281 281.0813,115.3781 Q280.7906,115.8281 280.7906,116.4469 L280.7906,117.1031 Q280.7906,117.8438 281.325,118.3406 Q281.8594,118.8281 282.8156,118.8281 Q283.3781,118.8281 283.7719,118.6781 Q284.0062,118.5844 284.2594,118.3219 Q284.4188,118.1625 284.5031,118.1156 Q284.5969,118.0688 284.7188,118.0688 Q284.9156,118.0688 285.0656,118.2281 Q285.225,118.3781 285.225,118.5844 Q285.225,118.7906 285.0188,119.0344 Q284.7188,119.3813 284.2406,119.5781 Q283.5938,119.85 282.8156,119.85 Q281.9063,119.85 281.1844,119.475 Q280.5938,119.175 280.1813,118.5375 Q279.7688,117.8906 279.7688,117.1219 L279.7688,116.4281 Q279.7688,115.6313 280.1344,114.9469 Q280.5094,114.2531 281.1656,113.8875 Q281.8219,113.5125 282.5625,113.5125 Q283.0031,113.5125 283.3875,113.6156 Q283.7813,113.7094 284.1094,113.925 Z " fill="#000000"/><text fill="#000000" font-family="sans-serif" font-size="8.4" lengthAdjust="spacing" textLength="58.8" x="294.75" y="119.8781">ClientController</text><line style="stroke:#181818;stroke-width:0.3;" x1="255.3" x2="373.5" y1="126" y2="126"/><line style="stroke:#181818;stroke-width:0.3;" x1="255.3" x2="373.5" y1="130.8" y2="130.8"/><text fill="#000000" font-family="sans-serif" font-size="8.4" lengthAdjust="spacing" textLength="109.2" x="258.3" y="142.2645">+getAllClients() : List&lt;Client&gt;</text><text fill="#000000" font-family="sans-serif" font-size="8.4" lengthAdjust="spacing" textLength="112.2" x="258.3" y="153.4371">+deleteClient(clientID) : Client</text></g><!--class ClientService--><g id="elem_ClientService"><rect codeLine="19" fill="#F1F1F1" height="62.318" id="ClientService" rx="1.5" ry="1.5" style="stroke:#181818;stroke-width:0.3;" width="126.6" x="251.1" y="209.4"/><ellipse cx="286.95" cy="219" fill="#ADD1B2" rx="6.6" ry="6.6" style="stroke:#181818;stroke-width:0.6;"/><path d="M288.6094,216.525 Q288.7031,216.3937 288.8156,216.3281 Q288.9281,216.2625 289.0594,216.2625 Q289.2844,216.2625 289.425,216.4219 Q289.5656,216.5719 289.5656,216.9375 L289.5656,217.8094 Q289.5656,218.175 289.425,218.3344 Q289.2844,218.4938 289.0594,218.4938 Q288.8531,218.4938 288.7313,218.3719 Q288.6094,218.2594 288.5438,217.95 Q288.5156,217.7344 288.4031,217.6219 Q288.2063,217.3969 287.8406,217.2656 Q287.475,217.1344 287.1,217.1344 Q286.6406,217.1344 286.2562,217.3312 Q285.8812,217.5281 285.5813,217.9781 Q285.2906,218.4281 285.2906,219.0469 L285.2906,219.7031 Q285.2906,220.4438 285.825,220.9406 Q286.3594,221.4281 287.3156,221.4281 Q287.8781,221.4281 288.2719,221.2781 Q288.5062,221.1844 288.7594,220.9219 Q288.9188,220.7625 289.0031,220.7156 Q289.0969,220.6688 289.2188,220.6688 Q289.4156,220.6688 289.5656,220.8281 Q289.725,220.9781 289.725,221.1844 Q289.725,221.3906 289.5188,221.6344 Q289.2188,221.9813 288.7406,222.1781 Q288.0938,222.45 287.3156,222.45 Q286.4063,222.45 285.6844,222.075 Q285.0938,221.775 284.6813,221.1375 Q284.2688,220.4906 284.2688,219.7219 L284.2688,219.0281 Q284.2688,218.2313 284.6344,217.5469 Q285.0094,216.8531 285.6656,216.4875 Q286.3219,216.1125 287.0625,216.1125 Q287.5031,216.1125 287.8875,216.2156 Q288.2813,216.3094 288.6094,216.525 Z " fill="#000000"/><text fill="#000000" font-family="sans-serif" font-size="8.4" lengthAdjust="spacing" textLength="49.8" x="299.25" y="222.4781">ClientService</text><line style="stroke:#181818;stroke-width:0.3;" x1="251.7" x2="377.1" y1="228.6" y2="228.6"/><line style="stroke:#181818;stroke-width:0.3;" x1="251.7" x2="377.1" y1="233.4" y2="233.4"/><text fill="#000000" font-family="sans-serif" font-size="8.4" lengthAdjust="spacing" textLength="100.2" x="254.7" y="244.8645">+getClients() : List&lt;Client&gt;</text><text fill="#000000" font-family="sans-serif" font-size="8.4" lengthAdjust="spacing" textLength="119.4" x="254.7" y="256.0371">-getClientByID((clientID) : Client</text><text fill="#000000" font-family="sans-serif" font-size="8.4" lengthAdjust="spacing" textLength="112.2" x="254.7" y="267.2098">+deleteClient(clientID) : Client</text></g><!--class Repositories--><g id="elem_Repositories"><rect codeLine="27" fill="#F1F1F1" height="62.318" id="Repositories" rx="1.5" ry="1.5" style="stroke:#181818;stroke-width:0.3;" width="162" x="13.8" y="334.2"/><ellipse cx="68.55" cy="343.8" fill="#ADD1B2" rx="6.6" ry="6.6" style="stroke:#181818;stroke-width:0.6;"/><path d="M70.2094,341.325 Q70.3031,341.1937 70.4156,341.1281 Q70.5281,341.0625 70.6594,341.0625 Q70.8844,341.0625 71.025,341.2219 Q71.1656,341.3719 71.1656,341.7375 L71.1656,342.6094 Q71.1656,342.975 71.025,343.1344 Q70.8844,343.2938 70.6594,343.2938 Q70.4531,343.2938 70.3313,343.1719 Q70.2094,343.0594 70.1438,342.75 Q70.1156,342.5344 70.0031,342.4219 Q69.8062,342.1969 69.4406,342.0656 Q69.075,341.9344 68.7,341.9344 Q68.2406,341.9344 67.8563,342.1312 Q67.4813,342.3281 67.1812,342.7781 Q66.8906,343.2281 66.8906,343.8469 L66.8906,344.5031 Q66.8906,345.2438 67.425,345.7406 Q67.9594,346.2281 68.9156,346.2281 Q69.4781,346.2281 69.8719,346.0781 Q70.1063,345.9844 70.3594,345.7219 Q70.5188,345.5625 70.6031,345.5156 Q70.6969,345.4688 70.8188,345.4688 Q71.0156,345.4688 71.1656,345.6281 Q71.325,345.7781 71.325,345.9844 Q71.325,346.1906 71.1187,346.4344 Q70.8188,346.7813 70.3406,346.9781 Q69.6938,347.25 68.9156,347.25 Q68.0063,347.25 67.2844,346.875 Q66.6938,346.575 66.2813,345.9375 Q65.8687,345.2906 65.8687,344.5219 L65.8687,343.8281 Q65.8687,343.0313 66.2344,342.3469 Q66.6094,341.6531 67.2656,341.2875 Q67.9219,340.9125 68.6625,340.9125 Q69.1031,340.9125 69.4875,341.0156 Q69.8813,341.1094 70.2094,341.325 Z " fill="#000000"/><text fill="#000000" font-family="sans-serif" font-size="8.4" lengthAdjust="spacing" textLength="47.4" x="80.85" y="347.2781">Repositories</text><line style="stroke:#181818;stroke-width:0.3;" x1="14.4" x2="175.2" y1="353.4" y2="353.4"/><line style="stroke:#181818;stroke-width:0.3;" x1="14.4" x2="175.2" y1="358.2" y2="358.2"/><text fill="#000000" font-family="sans-serif" font-size="8.4" lengthAdjust="spacing" textLength="56.4" x="17.4" y="369.6645">-Repositories()</text><text fill="#000000" font-family="sans-serif" font-size="8.4" lengthAdjust="spacing" textLength="109.2" x="17.4" y="380.8371">+getInstance() : Repositories</text><text fill="#000000" font-family="sans-serif" font-size="8.4" lengthAdjust="spacing" textLength="154.8" x="17.4" y="392.0098">+getClientRepository() : ClientRepository</text></g><!--class ClientRepository--><g id="elem_ClientRepository"><rect codeLine="33" fill="#F1F1F1" height="62.318" id="ClientRepository" rx="1.5" ry="1.5" style="stroke:#181818;stroke-width:0.3;" width="111.6" x="111.6" y="444"/><ellipse cx="134.1" cy="453.6" fill="#ADD1B2" rx="6.6" ry="6.6" style="stroke:#181818;stroke-width:0.6;"/><path d="M135.7594,451.125 Q135.8531,450.9938 135.9656,450.9281 Q136.0781,450.8625 136.2094,450.8625 Q136.4344,450.8625 136.575,451.0219 Q136.7156,451.1719 136.7156,451.5375 L136.7156,452.4094 Q136.7156,452.775 136.575,452.9344 Q136.4344,453.0938 136.2094,453.0938 Q136.0031,453.0938 135.8813,452.9719 Q135.7594,452.8594 135.6938,452.55 Q135.6656,452.3344 135.5531,452.2219 Q135.3563,451.9969 134.9906,451.8656 Q134.625,451.7344 134.25,451.7344 Q133.7906,451.7344 133.4063,451.9313 Q133.0313,452.1281 132.7313,452.5781 Q132.4406,453.0281 132.4406,453.6469 L132.4406,454.3031 Q132.4406,455.0438 132.975,455.5406 Q133.5094,456.0281 134.4656,456.0281 Q135.0281,456.0281 135.4219,455.8781 Q135.6563,455.7844 135.9094,455.5219 Q136.0688,455.3625 136.1531,455.3156 Q136.2469,455.2688 136.3688,455.2688 Q136.5656,455.2688 136.7156,455.4281 Q136.875,455.5781 136.875,455.7844 Q136.875,455.9906 136.6688,456.2344 Q136.3688,456.5813 135.8906,456.7781 Q135.2438,457.05 134.4656,457.05 Q133.5563,457.05 132.8344,456.675 Q132.2438,456.375 131.8312,455.7375 Q131.4188,455.0906 131.4188,454.3219 L131.4188,453.6281 Q131.4188,452.8313 131.7844,452.1469 Q132.1594,451.4531 132.8156,451.0875 Q133.4719,450.7125 134.2125,450.7125 Q134.6531,450.7125 135.0375,450.8156 Q135.4313,450.9094 135.7594,451.125 Z " fill="#000000"/><text fill="#000000" font-family="sans-serif" font-size="8.4" lengthAdjust="spacing" textLength="62.4" x="145.5" y="457.0781">ClientRepository</text><line style="stroke:#181818;stroke-width:0.3;" x1="112.2" x2="222.6" y1="463.2" y2="463.2"/><line style="stroke:#181818;stroke-width:0.3;" x1="112.2" x2="222.6" y1="468" y2="468"/><text fill="#000000" font-family="sans-serif" font-size="8.4" lengthAdjust="spacing" textLength="83.4" x="115.2" y="479.4645">+getAll() : List&lt;Client&gt;</text><text fill="#000000" font-family="sans-serif" font-size="8.4" lengthAdjust="spacing" textLength="104.4" x="115.2" y="490.6371">+getById(clientID) : boolean</text><text fill="#000000" font-family="sans-serif" font-size="8.4" lengthAdjust="spacing" textLength="91.8" x="115.2" y="501.8098">+delete(client) : boolean</text></g><!--class Client--><g id="elem_Client"><rect codeLine="41" fill="#F1F1F1" height="140.5266" id="Client" rx="1.5" ry="1.5" style="stroke:#181818;stroke-width:0.3;" width="255" x="339.9" y="568.8"/><ellipse cx="454.05" cy="578.4" fill="#ADD1B2" rx="6.6" ry="6.6" style="stroke:#181818;stroke-width:0.6;"/><path d="M455.7094,575.925 Q455.8031,575.7937 455.9156,575.7281 Q456.0281,575.6625 456.1594,575.6625 Q456.3844,575.6625 456.525,575.8219 Q456.6656,575.9719 456.6656,576.3375 L456.6656,577.2094 Q456.6656,577.575 456.525,577.7344 Q456.3844,577.8938 456.1594,577.8938 Q455.9531,577.8938 455.8313,577.7719 Q455.7094,577.6594 455.6438,577.35 Q455.6156,577.1344 455.5031,577.0219 Q455.3063,576.7969 454.9406,576.6656 Q454.575,576.5344 454.2,576.5344 Q453.7406,576.5344 453.3563,576.7312 Q452.9813,576.9281 452.6813,577.3781 Q452.3906,577.8281 452.3906,578.4469 L452.3906,579.1031 Q452.3906,579.8438 452.925,580.3406 Q453.4594,580.8281 454.4156,580.8281 Q454.9781,580.8281 455.3719,580.6781 Q455.6063,580.5844 455.8594,580.3219 Q456.0188,580.1625 456.1031,580.1156 Q456.1969,580.0688 456.3187,580.0688 Q456.5156,580.0688 456.6656,580.2281 Q456.825,580.3781 456.825,580.5844 Q456.825,580.7906 456.6188,581.0344 Q456.3187,581.3813 455.8406,581.5781 Q455.1937,581.85 454.4156,581.85 Q453.5062,581.85 452.7844,581.475 Q452.1937,581.175 451.7813,580.5375 Q451.3688,579.8906 451.3688,579.1219 L451.3688,578.4281 Q451.3688,577.6313 451.7344,576.9469 Q452.1094,576.2531 452.7656,575.8875 Q453.4219,575.5125 454.1625,575.5125 Q454.6031,575.5125 454.9875,575.6156 Q455.3812,575.7094 455.7094,575.925 Z " fill="#000000"/><text fill="#000000" font-family="sans-serif" font-size="8.4" lengthAdjust="spacing" textLength="21.6" x="466.35" y="581.8781">Client</text><line style="stroke:#181818;stroke-width:0.3;" x1="340.5" x2="594.3" y1="588" y2="588"/><text fill="#000000" font-family="sans-serif" font-size="8.4" lengthAdjust="spacing" textLength="46.8" x="343.5" y="599.4645">-clientID : int</text><text fill="#000000" font-family="sans-serif" font-size="8.4" lengthAdjust="spacing" textLength="72" x="343.5" y="610.6371">-address : Address</text><text fill="#000000" font-family="sans-serif" font-size="8.4" lengthAdjust="spacing" textLength="53.4" x="343.5" y="621.8098">-name : String</text><text fill="#000000" font-family="sans-serif" font-size="8.4" lengthAdjust="spacing" textLength="50.4" x="343.5" y="632.9824">-vatin : String</text><text fill="#000000" font-family="sans-serif" font-size="8.4" lengthAdjust="spacing" textLength="72.6" x="343.5" y="644.1551">-phoneNumber : int</text><text fill="#000000" font-family="sans-serif" font-size="8.4" lengthAdjust="spacing" textLength="52.2" x="343.5" y="655.3277">-email : String</text><text fill="#000000" font-family="sans-serif" font-size="8.4" lengthAdjust="spacing" textLength="81.6" x="343.5" y="666.5004">-type : CompanyType</text><text fill="#000000" font-family="sans-serif" font-size="8.4" lengthAdjust="spacing" textLength="69.6" x="343.5" y="677.673">-state : EntityState</text><text fill="#000000" font-family="sans-serif" font-size="8.4" lengthAdjust="spacing" textLength="79.8" x="343.5" y="688.8457">-orders : List&lt;Order&gt;</text><line style="stroke:#181818;stroke-width:0.3;" x1="340.5" x2="594.3" y1="693.3539" y2="693.3539"/><text fill="#000000" font-family="sans-serif" font-size="8.4" lengthAdjust="spacing" textLength="247.8" x="343.5" y="704.8184">+Client(clientID, name, address, vatin, phoneNumber, email, type)</text></g><!--class ClientException--><g id="elem_ClientException"><rect codeLine="56" fill="#F1F1F1" height="39.9727" id="ClientException" rx="1.5" ry="1.5" style="stroke:#181818;stroke-width:0.3;" width="168" x="343.2" y="345.3"/><ellipse cx="395.55" cy="354.9" fill="#ADD1B2" rx="6.6" ry="6.6" style="stroke:#181818;stroke-width:0.6;"/><path d="M397.2094,352.425 Q397.3031,352.2938 397.4156,352.2281 Q397.5281,352.1625 397.6594,352.1625 Q397.8844,352.1625 398.025,352.3219 Q398.1656,352.4719 398.1656,352.8375 L398.1656,353.7094 Q398.1656,354.075 398.025,354.2344 Q397.8844,354.3938 397.6594,354.3938 Q397.4531,354.3938 397.3313,354.2719 Q397.2094,354.1594 397.1438,353.85 Q397.1156,353.6344 397.0031,353.5219 Q396.8063,353.2969 396.4406,353.1656 Q396.075,353.0344 395.7,353.0344 Q395.2406,353.0344 394.8563,353.2313 Q394.4813,353.4281 394.1813,353.8781 Q393.8906,354.3281 393.8906,354.9469 L393.8906,355.6031 Q393.8906,356.3438 394.425,356.8406 Q394.9594,357.3281 395.9156,357.3281 Q396.4781,357.3281 396.8719,357.1781 Q397.1063,357.0844 397.3594,356.8219 Q397.5188,356.6625 397.6031,356.6156 Q397.6969,356.5687 397.8187,356.5687 Q398.0156,356.5687 398.1656,356.7281 Q398.325,356.8781 398.325,357.0844 Q398.325,357.2906 398.1188,357.5344 Q397.8187,357.8812 397.3406,358.0781 Q396.6937,358.35 395.9156,358.35 Q395.0062,358.35 394.2844,357.975 Q393.6937,357.675 393.2813,357.0375 Q392.8688,356.3906 392.8688,355.6219 L392.8688,354.9281 Q392.8688,354.1312 393.2344,353.4469 Q393.6094,352.7531 394.2656,352.3875 Q394.9219,352.0125 395.6625,352.0125 Q396.1031,352.0125 396.4875,352.1156 Q396.8812,352.2094 397.2094,352.425 Z " fill="#000000"/><text fill="#000000" font-family="sans-serif" font-size="8.4" lengthAdjust="spacing" textLength="58.2" x="407.85" y="358.3781">ClientException</text><line style="stroke:#181818;stroke-width:0.3;" x1="343.8" x2="510.6" y1="364.5" y2="364.5"/><line style="stroke:#181818;stroke-width:0.3;" x1="343.8" x2="510.6" y1="369.3" y2="369.3"/><text fill="#000000" font-family="sans-serif" font-size="8.4" lengthAdjust="spacing" textLength="160.8" x="346.8" y="380.7645">+clientNotFound(clientID) : ClientException</text></g><!--class RuntimeException--><g id="elem_RuntimeException"><rect codeLine="60" fill="#F1F1F1" height="28.8" id="RuntimeException" rx="1.5" ry="1.5" style="stroke:#181818;stroke-width:0.3;" width="87" x="383.7" y="460.8"/><ellipse cx="392.7" cy="470.4" fill="#ADD1B2" rx="6.6" ry="6.6" style="stroke:#181818;stroke-width:0.6;"/><path d="M394.3594,467.925 Q394.4531,467.7938 394.5656,467.7281 Q394.6781,467.6625 394.8094,467.6625 Q395.0344,467.6625 395.175,467.8219 Q395.3156,467.9719 395.3156,468.3375 L395.3156,469.2094 Q395.3156,469.575 395.175,469.7344 Q395.0344,469.8937 394.8094,469.8937 Q394.6031,469.8937 394.4813,469.7719 Q394.3594,469.6594 394.2938,469.35 Q394.2656,469.1344 394.1531,469.0219 Q393.9563,468.7969 393.5906,468.6656 Q393.225,468.5344 392.85,468.5344 Q392.3906,468.5344 392.0062,468.7313 Q391.6312,468.9281 391.3313,469.3781 Q391.0406,469.8281 391.0406,470.4469 L391.0406,471.1031 Q391.0406,471.8438 391.575,472.3406 Q392.1094,472.8281 393.0656,472.8281 Q393.6281,472.8281 394.0219,472.6781 Q394.2562,472.5844 394.5094,472.3219 Q394.6688,472.1625 394.7531,472.1156 Q394.8469,472.0687 394.9688,472.0687 Q395.1656,472.0687 395.3156,472.2281 Q395.475,472.3781 395.475,472.5844 Q395.475,472.7906 395.2688,473.0344 Q394.9688,473.3812 394.4906,473.5781 Q393.8438,473.85 393.0656,473.85 Q392.1563,473.85 391.4344,473.475 Q390.8438,473.175 390.4313,472.5375 Q390.0188,471.8906 390.0188,471.1219 L390.0188,470.4281 Q390.0188,469.6312 390.3844,468.9469 Q390.7594,468.2531 391.4156,467.8875 Q392.0719,467.5125 392.8125,467.5125 Q393.2531,467.5125 393.6375,467.6156 Q394.0313,467.7094 394.3594,467.925 Z " fill="#000000"/><text fill="#000000" font-family="sans-serif" font-size="8.4" lengthAdjust="spacing" textLength="67.8" x="401.1" y="473.8781">RuntimeException</text><line style="stroke:#181818;stroke-width:0.3;" x1="384.3" x2="470.1" y1="480" y2="480"/><line style="stroke:#181818;stroke-width:0.3;" x1="384.3" x2="470.1" y1="484.8" y2="484.8"/></g><!--link RegisterClientUI to ClientController--><g id="link_RegisterClientUI_ClientController"><path codeLine="64" d="M314.4,55.314 C314.4,68.964 314.4,86.496 314.4,103.074 " fill="none" id="RegisterClientUI-to-ClientController" style="stroke:#181818;stroke-width:0.6;stroke-dasharray:7.0,7.0;"/><polygon fill="#181818" points="314.4,106.674,316.8,101.274,314.4,103.674,312,101.274,314.4,106.674" style="stroke:#181818;stroke-width:0.6;"/></g><!--link ClientController to ClientService--><g id="link_ClientController_ClientService"><path codeLine="65" d="M314.4,158.01 C314.4,173.346 314.4,189.456 314.4,205.716 " fill="none" id="ClientController-to-ClientService" style="stroke:#181818;stroke-width:0.6;stroke-dasharray:7.0,7.0;"/><polygon fill="#181818" points="314.4,209.316,316.8,203.916,314.4,206.316,312,203.916,314.4,209.316" style="stroke:#181818;stroke-width:0.6;"/></g><!--link ClientService to Repositories--><g id="link_ClientService_Repositories"><path codeLine="66" d="M251.088,270.888 C228.348,281.55 208.2,291 208.2,291 C208.2,291 176.0812,311.9022 144.9232,332.1822 " fill="none" id="ClientService-to-Repositories" style="stroke:#181818;stroke-width:0.6;stroke-dasharray:7.0,7.0;"/><polygon fill="#181818" points="141.906,334.146,147.741,333.2117,144.4203,332.5095,145.1226,329.1888,141.906,334.146" style="stroke:#181818;stroke-width:0.6;"/><text fill="#000000" font-family="sans-serif" font-size="7.8" lengthAdjust="spacing" textLength="40.2" x="208.8" y="300.017">repositories</text></g><!--link ClientService to ClientRepository--><g id="link_ClientService_ClientRepository"><path codeLine="67" d="M296.826,271.884 C286.956,289.116 276.6,307.2 276.6,307.2 C276.6,307.2 233.4,396.6 233.4,396.6 C233.4,396.6 214.1135,419.3939 195.6215,441.2459 " fill="none" id="ClientService-to-ClientRepository" style="stroke:#181818;stroke-width:0.6;stroke-dasharray:7.0,7.0;"/><polygon fill="#181818" points="193.296,443.994,198.6163,441.4222,195.2339,441.7039,194.9522,438.3215,193.296,443.994" style="stroke:#181818;stroke-width:0.6;"/><text fill="#000000" font-family="sans-serif" font-size="7.8" lengthAdjust="spacing" textLength="55.8" x="277.2" y="368.717">clientRepository</text></g><!--link ClientService to Client--><g id="link_ClientService_Client"><path codeLine="68" d="M377.73,261.45 C438.402,280.854 520.8,307.2 520.8,307.2 C520.8,307.2 520.8,520.8 520.8,520.8 C520.8,520.8 512.0643,540.034 500.5683,565.354 " fill="none" id="ClientService-to-Client" style="stroke:#181818;stroke-width:0.6;stroke-dasharray:7.0,7.0;"/><polygon fill="#181818" points="499.08,568.632,503.4977,564.7073,500.3202,565.9004,499.1271,562.7229,499.08,568.632" style="stroke:#181818;stroke-width:0.6;"/><text fill="#000000" font-family="sans-serif" font-size="7.8" lengthAdjust="spacing" textLength="18.6" x="521.4" y="423.617">client</text></g><!--link Repositories to Repositories--><g id="link_Repositories_Repositories"><path codeLine="69" d="M175.812,356.142 C188.304,357.54 196.8,360.63 196.8,365.4 C196.8,370.17 191.8817,372.8596 179.3897,374.2576 " fill="none" id="Repositories-to-Repositories" style="stroke:#181818;stroke-width:0.6;"/><polygon fill="#181818" points="175.812,374.658,181.4454,376.4425,178.7934,374.3243,180.9116,371.6723,175.812,374.658" style="stroke:#181818;stroke-width:0.6;"/><text fill="#000000" font-family="sans-serif" font-size="7.8" lengthAdjust="spacing" textLength="29.4" x="200.4" y="368.717">instance</text></g><!--link Repositories to ClientRepository--><g id="link_Repositories_ClientRepository"><path codeLine="70" d="M115.41,396.828 C125.262,411.564 135.0217,426.1629 144.8617,440.8869 " fill="none" id="Repositories-to-ClientRepository" style="stroke:#181818;stroke-width:0.6;"/><polygon fill="#181818" points="146.862,443.88,145.857,438.0568,145.1951,441.3857,141.8661,440.7238,146.862,443.88" style="stroke:#181818;stroke-width:0.6;"/><text fill="#000000" font-family="sans-serif" font-size="7.8" lengthAdjust="spacing" textLength="55.8" x="134.4" y="423.617">clientRepository</text><text fill="#000000" font-family="sans-serif" font-size="7.8" lengthAdjust="spacing" textLength="4.2" x="113.4659" y="409.7125">1</text><text fill="#000000" font-family="sans-serif" font-size="7.8" lengthAdjust="spacing" textLength="4.2" x="139.62" y="437.2203">1</text></g><!--link ClientRepository to Client--><g id="link_ClientRepository_Client"><path codeLine="71" d="M223.302,506.1 C256.146,523.902 295.923,545.4605 336.615,567.5165 " fill="none" id="ClientRepository-to-Client" style="stroke:#181818;stroke-width:0.6;"/><polygon fill="#181818" points="339.78,569.232,336.1762,564.5488,337.1425,567.8024,333.8889,568.7687,339.78,569.232" style="stroke:#181818;stroke-width:0.6;"/><text fill="#000000" font-family="sans-serif" font-size="7.8" lengthAdjust="spacing" textLength="36" x="273.6" y="534.617">categories</text><text fill="#000000" font-family="sans-serif" font-size="7.8" lengthAdjust="spacing" textLength="4.2" x="226.6679" y="519.5975">1</text><text fill="#000000" font-family="sans-serif" font-size="7.8" lengthAdjust="spacing" textLength="3" x="332.1398" y="564.7593">*</text></g><!--link ClientService to ClientException--><g id="link_ClientService_ClientException"><path codeLine="72" d="M342.426,271.914 C363.372,294.864 388.9469,322.8892 406.9289,342.5872 " fill="none" id="ClientService-to-ClientException" style="stroke:#181818;stroke-width:0.6;stroke-dasharray:7.0,7.0;"/><polygon fill="#181818" points="409.356,345.246,407.4878,339.6398,407.3334,343.0304,403.9428,342.876,409.356,345.246" style="stroke:#181818;stroke-width:0.6;"/><text fill="#000000" font-family="sans-serif" font-size="7.8" lengthAdjust="spacing" textLength="22.8" x="367.8" y="300.017">throws</text></g><!--link ClientException to RuntimeException--><g id="link_ClientException_RuntimeException"><path codeLine="73" d="M427.2,385.668 C427.2,407.364 427.2,430.926 427.2,449.964 " fill="none" id="ClientException-to-RuntimeException" style="stroke:#181818;stroke-width:0.6;"/><polygon fill="none" points="427.2,460.764,430.8,449.964,423.6,449.964,427.2,460.764" style="stroke:#181818;stroke-width:0.6;"/></g><!--SRC=[dLJRRfmm47tdAqRxnBOGjQ-eMccRf19IcqfBym5UcB9MZ8riRrBQvjzhm8iD9cbLNi1ppZ1dRbOFbBT4aWPQKZwG6WlTCGI9fIQyPXYfYQ1Ef19FbDVmdJ3b8unor5sBq0hMzGSFAnbHQg-rfCUpnhmKlA0_4Tv5aGq8c_jy0xyYCCz0XWFML6cKrumYr_Uv1P-ZPy_fMd0j1MCevywZaqCjs3zlQzHxnaQ6YhUGmMSJwCDes3bUXGmrZkQu75xvJKyVJIjg2fIFjCGrAHPQwFYhY7GYVUpoc_Wb6V-fzu2jK5GBsIrBR-qKbQSuzUtnTfP9pfKPbHA7L7pUIhukREpaEQCL6fJGCS9klj96Gp2rgsOLEGh1aF1bxIndoPWNxOimvBKM-vMw13D_ebwFKb9L4er71llnoq6SD6ZiXTaHNZlp8z6KhzZRa-1uTswEPhWNGR0XbAsu3CjfwYsQbl3kcpavp7HFz-0jrrHtHNzoe90LIdMfyDV-v1LuCN49z9aaO5DDOCWW0Kzm0eF417f5svKQt_ueiTLKyBKwJw0_1cFqEw4_YJElLiP_yWh7wt0sIJVe60QDWkldwceNN2jHSCyubjtuQBx_FJvRhypSijwsXEnW-3CebnlpajV4ZMOnqpGGGUt-pecRzvk1tB__NOV7cNxmPkD9CiDLlvwkwt46-YJ5quNgW3JzlGjRzmS0]--></g></svg>