<?xml version="1.0" encoding="us-ascii" standalone="no"?><svg xmlns="http://www.w3.org/2000/svg" xmlns:xlink="http://www.w3.org/1999/xlink" contentStyleType="text/css" height="876.6px" preserveAspectRatio="none" style="width:997px;height:876px;background:#FFFFFF;" version="1.1" viewBox="0 0 997 876" width="997.2px" zoomAndPan="magnify"><defs/><g><text fill="#000000" font-family="sans-serif" font-size="8.4" font-weight="bold" lengthAdjust="spacing" textLength="99.6" x="449.4" y="18.0645">Delete Client Sequence</text><rect fill="#FFFFFF" height="736.4332" style="stroke:#181818;stroke-width:0.6;" width="6" x="26.7" y="79.9453"/><rect fill="#FFFFFF" height="232.6934" style="stroke:#181818;stroke-width:0.6;" width="6" x="249.3" y="93.9199"/><rect fill="#FFFFFF" height="18.7746" style="stroke:#181818;stroke-width:0.6;" width="6" x="249.3" y="345.3879"/><rect fill="#FFFFFF" height="433.4414" style="stroke:#181818;stroke-width:0.6;" width="6" x="249.3" y="382.9371"/><rect fill="#FFFFFF" height="168.9715" style="stroke:#181818;stroke-width:0.6;" width="6" x="429.3" y="138.8672"/><rect fill="#FFFFFF" height="387.4922" style="stroke:#181818;stroke-width:0.6;" width="6" x="429.3" y="401.7117"/><rect fill="#FFFFFF" height="131.4223" style="stroke:#181818;stroke-width:0.6;" width="6" x="609.3" y="157.6418"/><rect fill="#FFFFFF" height="349.943" style="stroke:#181818;stroke-width:0.6;" width="6" x="609.3" y="420.4863"/><rect fill="#FFFFFF" height="100.473" style="stroke:#181818;stroke-width:0.6;" width="6" x="612.3" y="444.0609"/><rect fill="#FFFFFF" height="18.7746" style="stroke:#181818;stroke-width:0.6;" width="6" x="741.3" y="583.2832"/><rect fill="#FFFFFF" height="18.7746" style="stroke:#181818;stroke-width:0.6;" width="6" x="808.5" y="176.4164"/><rect fill="#FFFFFF" height="18.7746" style="stroke:#181818;stroke-width:0.6;" width="6" x="871.5" y="213.9656"/><rect fill="#FFFFFF" height="18.7746" style="stroke:#181818;stroke-width:0.6;" width="6" x="871.5" y="465.8355"/><rect fill="#FFFFFF" height="18.7746" style="stroke:#181818;stroke-width:0.6;" width="6" x="942.3" y="251.5148"/><rect fill="#FFFFFF" height="18.7746" style="stroke:#181818;stroke-width:0.6;" width="6" x="942.3" y="503.3848"/><rect fill="#FFFFFF" height="92.073" style="stroke:#181818;stroke-width:0.6;" width="6" x="942.3" y="659.5816"/><rect fill="none" height="240.4699" style="stroke:#000000;stroke-width:0.8999999999999999;" width="784.8" x="208.2" y="557.734"/><rect fill="none" height="125.4223" style="stroke:#000000;stroke-width:0.8999999999999999;" width="772.8" x="214.2" y="668.5816"/><line style="stroke:#181818;stroke-width:0.3;stroke-dasharray:5.0,5.0;" x1="29.4" x2="29.4" y1="73.9453" y2="827.1785"/><line style="stroke:#181818;stroke-width:0.3;stroke-dasharray:5.0,5.0;" x1="252" x2="252" y1="73.9453" y2="827.1785"/><line style="stroke:#181818;stroke-width:0.3;stroke-dasharray:5.0,5.0;" x1="432.3" x2="432.3" y1="117.8062" y2="827.1785"/><line style="stroke:#181818;stroke-width:0.3;stroke-dasharray:5.0,5.0;" x1="612" x2="612" y1="73.9453" y2="827.1785"/><line style="stroke:#181818;stroke-width:0.3;stroke-dasharray:5.0,5.0;" x1="744" x2="744" y1="73.9453" y2="827.1785"/><line style="stroke:#181818;stroke-width:0.3;stroke-dasharray:5.0,5.0;" x1="811.2" x2="811.2" y1="73.9453" y2="827.1785"/><line style="stroke:#181818;stroke-width:0.3;stroke-dasharray:5.0,5.0;" x1="874.2" x2="874.2" y1="73.9453" y2="827.1785"/><line style="stroke:#181818;stroke-width:0.3;stroke-dasharray:5.0,5.0;" x1="945" x2="945" y1="73.9453" y2="827.1785"/><text fill="#000000" font-family="sans-serif" font-size="8.4" lengthAdjust="spacing" textLength="49.8" x="3" y="71.8371">Administrator</text><ellipse cx="29.7" cy="31.8727" fill="#E3E3E3" rx="4.8" ry="4.8" style="stroke:#181818;stroke-width:0.3;"/><path d="M29.7,36.6727 L29.7,52.8727 M21.9,41.4727 L37.5,41.4727 M29.7,52.8727 L21.9,61.8727 M29.7,52.8727 L37.5,61.8727 " fill="none" style="stroke:#181818;stroke-width:0.3;"/><text fill="#000000" font-family="sans-serif" font-size="8.4" lengthAdjust="spacing" textLength="49.8" x="3" y="835.643">Administrator</text><ellipse cx="29.7" cy="842.8512" fill="#E3E3E3" rx="4.8" ry="4.8" style="stroke:#181818;stroke-width:0.3;"/><path d="M29.7,847.6512 L29.7,863.8512 M21.9,852.4512 L37.5,852.4512 M29.7,863.8512 L21.9,872.8512 M29.7,863.8512 L37.5,872.8512 " fill="none" style="stroke:#181818;stroke-width:0.3;"/><rect fill="#E3E3E3" height="19.5727" rx="1.5" ry="1.5" style="stroke:#181818;stroke-width:0.3;" width="64.2" x="220.2" y="53.7727"/><text fill="#000000" font-family="sans-serif" font-size="8.4" lengthAdjust="spacing" textLength="55.8" x="224.4" y="67.0371">:DeleteClientUI</text><rect fill="#E3E3E3" height="19.5727" rx="1.5" ry="1.5" style="stroke:#181818;stroke-width:0.3;" width="64.2" x="220.2" y="826.5785"/><text fill="#000000" font-family="sans-serif" font-size="8.4" lengthAdjust="spacing" textLength="55.8" x="224.4" y="839.843">:DeleteClientUI</text><rect fill="#E3E3E3" height="19.5727" rx="1.5" ry="1.5" style="stroke:#181818;stroke-width:0.3;" width="69.6" x="397.5" y="826.5785"/><text fill="#000000" font-family="sans-serif" font-size="8.4" lengthAdjust="spacing" textLength="61.2" x="401.7" y="839.843">:ClientController</text><rect fill="#E3E3E3" height="19.5727" rx="1.5" ry="1.5" style="stroke:#181818;stroke-width:0.3;" width="60.6" x="582" y="53.7727"/><text fill="#000000" font-family="sans-serif" font-size="8.4" lengthAdjust="spacing" textLength="52.2" x="586.2" y="67.0371">:ClientService</text><rect fill="#E3E3E3" height="19.5727" rx="1.5" ry="1.5" style="stroke:#181818;stroke-width:0.3;" width="60.6" x="582" y="826.5785"/><text fill="#000000" font-family="sans-serif" font-size="8.4" lengthAdjust="spacing" textLength="52.2" x="586.2" y="839.843">:ClientService</text><rect fill="#E3E3E3" height="19.5727" rx="1.5" ry="1.5" style="stroke:#181818;stroke-width:0.3;" width="66.6" x="711" y="53.7727"/><text fill="#000000" font-family="sans-serif" font-size="8.4" lengthAdjust="spacing" textLength="58.2" x="715.2" y="67.0371">ClientException</text><rect fill="#E3E3E3" height="19.5727" rx="1.5" ry="1.5" style="stroke:#181818;stroke-width:0.3;" width="66.6" x="711" y="826.5785"/><text fill="#000000" font-family="sans-serif" font-size="8.4" lengthAdjust="spacing" textLength="58.2" x="715.2" y="839.843">ClientException</text><rect fill="#E3E3E3" height="19.5727" rx="1.5" ry="1.5" style="stroke:#181818;stroke-width:0.3;" width="55.8" x="783.6" y="53.7727"/><text fill="#000000" font-family="sans-serif" font-size="8.4" lengthAdjust="spacing" textLength="47.4" x="787.8" y="67.0371">Repositories</text><rect fill="#E3E3E3" height="19.5727" rx="1.5" ry="1.5" style="stroke:#181818;stroke-width:0.3;" width="55.8" x="783.6" y="826.5785"/><text fill="#000000" font-family="sans-serif" font-size="8.4" lengthAdjust="spacing" textLength="47.4" x="787.8" y="839.843">Repositories</text><rect fill="#E3E3E3" height="30.7453" rx="1.5" ry="1.5" style="stroke:#181818;stroke-width:0.3;" width="58.2" x="845.4" y="42.6"/><text fill="#000000" font-family="sans-serif" font-size="8.4" lengthAdjust="spacing" textLength="44.4" x="852.3" y="55.8645">repositories</text><text fill="#000000" font-family="sans-serif" font-size="8.4" lengthAdjust="spacing" textLength="49.8" x="849.6" y="67.0371">:Repositories</text><rect fill="#E3E3E3" height="30.7453" rx="1.5" ry="1.5" style="stroke:#181818;stroke-width:0.3;" width="58.2" x="845.4" y="826.5785"/><text fill="#000000" font-family="sans-serif" font-size="8.4" lengthAdjust="spacing" textLength="44.4" x="852.3" y="839.843">repositories</text><text fill="#000000" font-family="sans-serif" font-size="8.4" lengthAdjust="spacing" textLength="49.8" x="849.6" y="851.0156">:Repositories</text><rect fill="#E3E3E3" height="30.7453" rx="1.5" ry="1.5" style="stroke:#181818;stroke-width:0.3;" width="71.4" x="909.6" y="42.6"/><text fill="#000000" font-family="sans-serif" font-size="8.4" lengthAdjust="spacing" textLength="63" x="913.8" y="55.8645">clientRepository:</text><text fill="#000000" font-family="sans-serif" font-size="8.4" lengthAdjust="spacing" textLength="62.4" x="914.1" y="67.0371">ClientRepository</text><rect fill="#E3E3E3" height="30.7453" rx="1.5" ry="1.5" style="stroke:#181818;stroke-width:0.3;" width="71.4" x="909.6" y="826.5785"/><text fill="#000000" font-family="sans-serif" font-size="8.4" lengthAdjust="spacing" textLength="63" x="913.8" y="839.843">clientRepository:</text><text fill="#000000" font-family="sans-serif" font-size="8.4" lengthAdjust="spacing" textLength="62.4" x="914.1" y="851.0156">ClientRepository</text><rect fill="#FFFFFF" height="736.4332" style="stroke:#181818;stroke-width:0.6;" width="6" x="26.7" y="79.9453"/><rect fill="#FFFFFF" height="232.6934" style="stroke:#181818;stroke-width:0.6;" width="6" x="249.3" y="93.9199"/><rect fill="#FFFFFF" height="18.7746" style="stroke:#181818;stroke-width:0.6;" width="6" x="249.3" y="345.3879"/><rect fill="#FFFFFF" height="433.4414" style="stroke:#181818;stroke-width:0.6;" width="6" x="249.3" y="382.9371"/><rect fill="#FFFFFF" height="168.9715" style="stroke:#181818;stroke-width:0.6;" width="6" x="429.3" y="138.8672"/><rect fill="#FFFFFF" height="387.4922" style="stroke:#181818;stroke-width:0.6;" width="6" x="429.3" y="401.7117"/><rect fill="#FFFFFF" height="131.4223" style="stroke:#181818;stroke-width:0.6;" width="6" x="609.3" y="157.6418"/><rect fill="#FFFFFF" height="349.943" style="stroke:#181818;stroke-width:0.6;" width="6" x="609.3" y="420.4863"/><rect fill="#FFFFFF" height="100.473" style="stroke:#181818;stroke-width:0.6;" width="6" x="612.3" y="444.0609"/><rect fill="#FFFFFF" height="18.7746" style="stroke:#181818;stroke-width:0.6;" width="6" x="741.3" y="583.2832"/><rect fill="#FFFFFF" height="18.7746" style="stroke:#181818;stroke-width:0.6;" width="6" x="808.5" y="176.4164"/><rect fill="#FFFFFF" height="18.7746" style="stroke:#181818;stroke-width:0.6;" width="6" x="871.5" y="213.9656"/><rect fill="#FFFFFF" height="18.7746" style="stroke:#181818;stroke-width:0.6;" width="6" x="871.5" y="465.8355"/><rect fill="#FFFFFF" height="18.7746" style="stroke:#181818;stroke-width:0.6;" width="6" x="942.3" y="251.5148"/><rect fill="#FFFFFF" height="18.7746" style="stroke:#181818;stroke-width:0.6;" width="6" x="942.3" y="503.3848"/><rect fill="#FFFFFF" height="92.073" style="stroke:#181818;stroke-width:0.6;" width="6" x="942.3" y="659.5816"/><polygon fill="#181818" points="242.1,91.5199,248.1,93.9199,242.1,96.3199,244.5,93.9199" style="stroke:#181818;stroke-width:0.6;"/><line style="stroke:#181818;stroke-width:0.6;" x1="32.7" x2="245.7" y1="93.9199" y2="93.9199"/><text fill="#000000" font-family="sans-serif" font-size="7.8" font-weight="bold" lengthAdjust="spacing" textLength="4.2" x="36.9" y="90.7623">1</text><text fill="#000000" font-family="sans-serif" font-size="7.8" lengthAdjust="spacing" textLength="76.8" x="43.5" y="90.7623">asks to delete a client</text><polygon fill="#181818" points="390.3,110.2945,396.3,112.6945,390.3,115.0945,392.7,112.6945" style="stroke:#181818;stroke-width:0.6;"/><line style="stroke:#181818;stroke-width:0.6;" x1="255.3" x2="393.9" y1="112.6945" y2="112.6945"/><text fill="#000000" font-family="sans-serif" font-size="7.8" font-weight="bold" lengthAdjust="spacing" textLength="4.2" x="259.5" y="109.5369">2</text><text fill="#000000" font-family="sans-serif" font-size="7.8" lengthAdjust="spacing" textLength="21.6" x="266.1" y="109.5369">create</text><rect fill="#E3E3E3" height="19.5727" rx="1.5" ry="1.5" style="stroke:#181818;stroke-width:0.3;" width="69.6" x="397.5" y="98.7199"/><text fill="#000000" font-family="sans-serif" font-size="8.4" lengthAdjust="spacing" textLength="61.2" x="401.7" y="111.9844">:ClientController</text><polygon fill="#181818" points="422.1,136.4672,428.1,138.8672,422.1,141.2672,424.5,138.8672" style="stroke:#181818;stroke-width:0.6;"/><line style="stroke:#181818;stroke-width:0.6;" x1="255.3" x2="425.7" y1="138.8672" y2="138.8672"/><text fill="#000000" font-family="sans-serif" font-size="7.8" font-weight="bold" lengthAdjust="spacing" textLength="4.2" x="259.5" y="135.7096">3</text><text fill="#000000" font-family="sans-serif" font-size="7.8" lengthAdjust="spacing" textLength="48.6" x="266.1" y="135.7096">getAllClients()</text><polygon fill="#181818" points="602.1,155.2418,608.1,157.6418,602.1,160.0418,604.5,157.6418" style="stroke:#181818;stroke-width:0.6;"/><line style="stroke:#181818;stroke-width:0.6;" x1="435.3" x2="605.7" y1="157.6418" y2="157.6418"/><text fill="#000000" font-family="sans-serif" font-size="7.8" font-weight="bold" lengthAdjust="spacing" textLength="4.2" x="439.5" y="154.4842">4</text><text fill="#000000" font-family="sans-serif" font-size="7.8" lengthAdjust="spacing" textLength="39.6" x="446.1" y="154.4842">getClients()</text><polygon fill="#181818" points="801.3,174.0164,807.3,176.4164,801.3,178.8164,803.7,176.4164" style="stroke:#181818;stroke-width:0.6;"/><line style="stroke:#181818;stroke-width:0.6;" x1="615.3" x2="804.9" y1="176.4164" y2="176.4164"/><text fill="#000000" font-family="sans-serif" font-size="7.8" font-weight="bold" lengthAdjust="spacing" textLength="4.2" x="619.5" y="173.2588">5</text><text fill="#000000" font-family="sans-serif" font-size="7.8" lengthAdjust="spacing" textLength="45" x="626.1" y="173.2588">getInstance()</text><polygon fill="#181818" points="621.9,192.791,615.9,195.191,621.9,197.591,619.5,195.191" style="stroke:#181818;stroke-width:0.6;"/><line style="stroke:#181818;stroke-width:0.6;stroke-dasharray:2.0,2.0;" x1="618.3" x2="810.9" y1="195.191" y2="195.191"/><text fill="#000000" font-family="sans-serif" font-size="7.8" font-weight="bold" lengthAdjust="spacing" textLength="4.2" x="625.5" y="192.0334">6</text><text fill="#000000" font-family="sans-serif" font-size="7.8" lengthAdjust="spacing" textLength="40.2" x="632.1" y="192.0334">repositories</text><polygon fill="#181818" points="864.3,211.5656,870.3,213.9656,864.3,216.3656,866.7,213.9656" style="stroke:#181818;stroke-width:0.6;"/><line style="stroke:#181818;stroke-width:0.6;" x1="615.3" x2="867.9" y1="213.9656" y2="213.9656"/><text fill="#000000" font-family="sans-serif" font-size="7.8" font-weight="bold" lengthAdjust="spacing" textLength="4.2" x="619.5" y="210.808">7</text><text fill="#000000" font-family="sans-serif" font-size="7.8" lengthAdjust="spacing" textLength="72.6" x="626.1" y="210.808">getClientRepository()</text><polygon fill="#181818" points="621.9,230.3402,615.9,232.7402,621.9,235.1402,619.5,232.7402" style="stroke:#181818;stroke-width:0.6;"/><line style="stroke:#181818;stroke-width:0.6;stroke-dasharray:2.0,2.0;" x1="618.3" x2="873.9" y1="232.7402" y2="232.7402"/><text fill="#000000" font-family="sans-serif" font-size="7.8" font-weight="bold" lengthAdjust="spacing" textLength="4.2" x="625.5" y="229.5826">8</text><text fill="#000000" font-family="sans-serif" font-size="7.8" lengthAdjust="spacing" textLength="55.8" x="632.1" y="229.5826">clientRepository</text><polygon fill="#181818" points="935.1,249.1148,941.1,251.5148,935.1,253.9148,937.5,251.5148" style="stroke:#181818;stroke-width:0.6;"/><line style="stroke:#181818;stroke-width:0.6;" x1="615.3" x2="938.7" y1="251.5148" y2="251.5148"/><text fill="#000000" font-family="sans-serif" font-size="7.8" font-weight="bold" lengthAdjust="spacing" textLength="4.2" x="619.5" y="248.3572">9</text><text fill="#000000" font-family="sans-serif" font-size="7.8" lengthAdjust="spacing" textLength="24.6" x="626.1" y="248.3572">getAll()</text><polygon fill="#181818" points="621.9,267.8895,615.9,270.2895,621.9,272.6895,619.5,270.2895" style="stroke:#181818;stroke-width:0.6;"/><line style="stroke:#181818;stroke-width:0.6;stroke-dasharray:2.0,2.0;" x1="618.3" x2="944.7" y1="270.2895" y2="270.2895"/><text fill="#000000" font-family="sans-serif" font-size="7.8" font-weight="bold" lengthAdjust="spacing" textLength="8.4" x="625.5" y="267.1318">10</text><text fill="#000000" font-family="sans-serif" font-size="7.8" lengthAdjust="spacing" textLength="22.8" x="636.3" y="267.1318">clients</text><polygon fill="#181818" points="441.9,286.6641,435.9,289.0641,441.9,291.4641,439.5,289.0641" style="stroke:#181818;stroke-width:0.6;"/><line style="stroke:#181818;stroke-width:0.6;stroke-dasharray:2.0,2.0;" x1="438.3" x2="611.7" y1="289.0641" y2="289.0641"/><text fill="#000000" font-family="sans-serif" font-size="7.8" font-weight="bold" lengthAdjust="spacing" textLength="8.4" x="445.5" y="285.9064">11</text><text fill="#000000" font-family="sans-serif" font-size="7.8" lengthAdjust="spacing" textLength="22.8" x="456.3" y="285.9064">clients</text><polygon fill="#181818" points="261.9,305.4387,255.9,307.8387,261.9,310.2387,259.5,307.8387" style="stroke:#181818;stroke-width:0.6;"/><line style="stroke:#181818;stroke-width:0.6;stroke-dasharray:2.0,2.0;" x1="258.3" x2="431.7" y1="307.8387" y2="307.8387"/><text fill="#000000" font-family="sans-serif" font-size="7.8" font-weight="bold" lengthAdjust="spacing" textLength="8.4" x="265.5" y="304.6811">12</text><text fill="#000000" font-family="sans-serif" font-size="7.8" lengthAdjust="spacing" textLength="22.8" x="276.3" y="304.6811">clients</text><polygon fill="#181818" points="39.3,324.2133,33.3,326.6133,39.3,329.0133,36.9,326.6133" style="stroke:#181818;stroke-width:0.6;"/><line style="stroke:#181818;stroke-width:0.6;stroke-dasharray:2.0,2.0;" x1="35.7" x2="251.7" y1="326.6133" y2="326.6133"/><text fill="#000000" font-family="sans-serif" font-size="7.8" font-weight="bold" lengthAdjust="spacing" textLength="8.4" x="42.9" y="323.4557">13</text><text fill="#000000" font-family="sans-serif" font-size="7.8" lengthAdjust="spacing" textLength="173.4" x="53.7" y="323.4557">shows the list of clients and requests confirmation</text><polygon fill="#181818" points="242.1,342.9879,248.1,345.3879,242.1,347.7879,244.5,345.3879" style="stroke:#181818;stroke-width:0.6;"/><line style="stroke:#181818;stroke-width:0.6;" x1="32.7" x2="245.7" y1="345.3879" y2="345.3879"/><text fill="#000000" font-family="sans-serif" font-size="7.8" font-weight="bold" lengthAdjust="spacing" textLength="8.4" x="36.9" y="342.2303">14</text><text fill="#000000" font-family="sans-serif" font-size="7.8" lengthAdjust="spacing" textLength="138.6" x="47.7" y="342.2303">confirms that he wants to delete a client</text><polygon fill="#181818" points="39.3,361.7625,33.3,364.1625,39.3,366.5625,36.9,364.1625" style="stroke:#181818;stroke-width:0.6;"/><line style="stroke:#181818;stroke-width:0.6;stroke-dasharray:2.0,2.0;" x1="35.7" x2="251.7" y1="364.1625" y2="364.1625"/><text fill="#000000" font-family="sans-serif" font-size="7.8" font-weight="bold" lengthAdjust="spacing" textLength="8.4" x="42.9" y="361.0049">15</text><text fill="#000000" font-family="sans-serif" font-size="7.8" lengthAdjust="spacing" textLength="39.6" x="53.7" y="361.0049">requests ID</text><polygon fill="#181818" points="242.1,380.5371,248.1,382.9371,242.1,385.3371,244.5,382.9371" style="stroke:#181818;stroke-width:0.6;"/><line style="stroke:#181818;stroke-width:0.6;" x1="32.7" x2="245.7" y1="382.9371" y2="382.9371"/><text fill="#000000" font-family="sans-serif" font-size="7.8" font-weight="bold" lengthAdjust="spacing" textLength="8.4" x="36.9" y="379.7795">16</text><text fill="#000000" font-family="sans-serif" font-size="7.8" lengthAdjust="spacing" textLength="74.4" x="47.7" y="379.7795">provides requested ID</text><polygon fill="#181818" points="422.1,399.3117,428.1,401.7117,422.1,404.1117,424.5,401.7117" style="stroke:#181818;stroke-width:0.6;"/><line style="stroke:#181818;stroke-width:0.6;" x1="255.3" x2="425.7" y1="401.7117" y2="401.7117"/><text fill="#000000" font-family="sans-serif" font-size="7.8" font-weight="bold" lengthAdjust="spacing" textLength="8.4" x="259.5" y="398.5541">17</text><text fill="#000000" font-family="sans-serif" font-size="7.8" lengthAdjust="spacing" textLength="71.4" x="270.3" y="398.5541">deleteClient(clientID)</text><polygon fill="#181818" points="602.1,418.0863,608.1,420.4863,602.1,422.8863,604.5,420.4863" style="stroke:#181818;stroke-width:0.6;"/><line style="stroke:#181818;stroke-width:0.6;" x1="435.3" x2="605.7" y1="420.4863" y2="420.4863"/><text fill="#000000" font-family="sans-serif" font-size="7.8" font-weight="bold" lengthAdjust="spacing" textLength="8.4" x="439.5" y="417.3287">18</text><text fill="#000000" font-family="sans-serif" font-size="7.8" lengthAdjust="spacing" textLength="71.4" x="450.3" y="417.3287">deleteClient(clientID)</text><line style="stroke:#181818;stroke-width:0.6;" x1="615.3" x2="643.5" y1="436.2609" y2="436.2609"/><line style="stroke:#181818;stroke-width:0.6;" x1="643.5" x2="643.5" y1="436.2609" y2="444.0609"/><line style="stroke:#181818;stroke-width:0.6;" x1="618.9" x2="643.5" y1="444.0609" y2="444.0609"/><polygon fill="#181818" points="624.9,441.6609,618.9,444.0609,624.9,446.4609,622.5,444.0609" style="stroke:#181818;stroke-width:0.6;"/><text fill="#000000" font-family="sans-serif" font-size="7.8" font-weight="bold" lengthAdjust="spacing" textLength="8.4" x="622.5" y="433.1033">19</text><text fill="#000000" font-family="sans-serif" font-size="7.8" lengthAdjust="spacing" textLength="80.4" x="633.3" y="433.1033">getClientByID(clientID))</text><polygon fill="#181818" points="864.3,463.4355,870.3,465.8355,864.3,468.2355,866.7,465.8355" style="stroke:#181818;stroke-width:0.6;"/><line style="stroke:#181818;stroke-width:0.6;" x1="618.3" x2="867.9" y1="465.8355" y2="465.8355"/><text fill="#000000" font-family="sans-serif" font-size="7.8" font-weight="bold" lengthAdjust="spacing" textLength="8.4" x="622.5" y="462.6779">20</text><text fill="#000000" font-family="sans-serif" font-size="7.8" lengthAdjust="spacing" textLength="72.6" x="633.3" y="462.6779">getClientRepository()</text><polygon fill="#181818" points="624.9,482.2102,618.9,484.6102,624.9,487.0102,622.5,484.6102" style="stroke:#181818;stroke-width:0.6;"/><line style="stroke:#181818;stroke-width:0.6;stroke-dasharray:2.0,2.0;" x1="621.3" x2="873.9" y1="484.6102" y2="484.6102"/><text fill="#000000" font-family="sans-serif" font-size="7.8" font-weight="bold" lengthAdjust="spacing" textLength="8.4" x="628.5" y="481.4525">21</text><text fill="#000000" font-family="sans-serif" font-size="7.8" lengthAdjust="spacing" textLength="55.8" x="639.3" y="481.4525">clientRepository</text><polygon fill="#181818" points="935.1,500.9848,941.1,503.3848,935.1,505.7848,937.5,503.3848" style="stroke:#181818;stroke-width:0.6;"/><line style="stroke:#181818;stroke-width:0.6;" x1="618.3" x2="938.7" y1="503.3848" y2="503.3848"/><text fill="#000000" font-family="sans-serif" font-size="7.8" font-weight="bold" lengthAdjust="spacing" textLength="8.4" x="622.5" y="500.2271">22</text><text fill="#000000" font-family="sans-serif" font-size="7.8" lengthAdjust="spacing" textLength="57" x="633.3" y="500.2271">getById(clientID)</text><polygon fill="#181818" points="624.9,519.7594,618.9,522.1594,624.9,524.5594,622.5,522.1594" style="stroke:#181818;stroke-width:0.6;"/><line style="stroke:#181818;stroke-width:0.6;stroke-dasharray:2.0,2.0;" x1="621.3" x2="944.7" y1="522.1594" y2="522.1594"/><text fill="#000000" font-family="sans-serif" font-size="7.8" font-weight="bold" lengthAdjust="spacing" textLength="8.4" x="628.5" y="519.0018">23</text><text fill="#000000" font-family="sans-serif" font-size="7.8" lengthAdjust="spacing" textLength="18.6" x="639.3" y="519.0018">client</text><line style="stroke:#181818;stroke-width:0.6;stroke-dasharray:2.0,2.0;" x1="618.3" x2="643.5" y1="543.934" y2="543.934"/><line style="stroke:#181818;stroke-width:0.6;stroke-dasharray:2.0,2.0;" x1="643.5" x2="643.5" y1="543.934" y2="551.734"/><line style="stroke:#181818;stroke-width:0.6;stroke-dasharray:2.0,2.0;" x1="615.3" x2="643.5" y1="551.734" y2="551.734"/><polygon fill="#181818" points="621.3,549.334,615.3,551.734,621.3,554.134,618.9,551.734" style="stroke:#181818;stroke-width:0.6;"/><text fill="#000000" font-family="sans-serif" font-size="7.8" font-weight="bold" lengthAdjust="spacing" textLength="8.4" x="622.5" y="540.7764">24</text><text fill="#000000" font-family="sans-serif" font-size="7.8" lengthAdjust="spacing" textLength="18.6" x="633.3" y="540.7764">client</text><path d="M208.2,557.734 L244.8,557.734 L244.8,563.3086 L238.8,569.3086 L208.2,569.3086 L208.2,557.734 " fill="#EEEEEE" style="stroke:#000000;stroke-width:0.8999999999999999;"/><rect fill="none" height="240.4699" style="stroke:#000000;stroke-width:0.8999999999999999;" width="784.8" x="208.2" y="557.734"/><text fill="#000000" font-family="sans-serif" font-size="7.8" font-weight="bold" lengthAdjust="spacing" textLength="9.6" x="217.2" y="566.751">alt</text><text fill="#000000" font-family="sans-serif" font-size="6.6" font-weight="bold" lengthAdjust="spacing" textLength="45.6" x="253.8" y="566.0561">[client == null]</text><polygon fill="#181818" points="734.1,580.8832,740.1,583.2832,734.1,585.6832,736.5,583.2832" style="stroke:#181818;stroke-width:0.6;"/><line style="stroke:#181818;stroke-width:0.6;" x1="615.3" x2="737.7" y1="583.2832" y2="583.2832"/><text fill="#000000" font-family="sans-serif" font-size="7.8" font-weight="bold" lengthAdjust="spacing" textLength="8.4" x="619.5" y="580.1256">25</text><text fill="#000000" font-family="sans-serif" font-size="7.8" lengthAdjust="spacing" textLength="103.8" x="630.3" y="580.1256">throw clientNotFound(clientID)</text><polygon fill="#181818" points="621.9,599.6578,615.9,602.0578,621.9,604.4578,619.5,602.0578" style="stroke:#181818;stroke-width:0.6;"/><line style="stroke:#181818;stroke-width:0.6;stroke-dasharray:2.0,2.0;" x1="618.3" x2="743.7" y1="602.0578" y2="602.0578"/><text fill="#000000" font-family="sans-serif" font-size="7.8" font-weight="bold" lengthAdjust="spacing" textLength="8.4" x="625.5" y="598.9002">26</text><text fill="#000000" font-family="sans-serif" font-size="7.8" lengthAdjust="spacing" textLength="61.8" x="636.3" y="598.9002">Exception Thrown</text><polygon fill="#181818" points="441.9,618.4324,435.9,620.8324,441.9,623.2324,439.5,620.8324" style="stroke:#181818;stroke-width:0.6;"/><line style="stroke:#181818;stroke-width:0.6;stroke-dasharray:2.0,2.0;" x1="438.3" x2="608.7" y1="620.8324" y2="620.8324"/><text fill="#000000" font-family="sans-serif" font-size="7.8" font-weight="bold" lengthAdjust="spacing" textLength="8.4" x="445.5" y="617.6748">27</text><text fill="#000000" font-family="sans-serif" font-size="7.8" lengthAdjust="spacing" textLength="148.8" x="456.3" y="617.6748">show error message (Client does not exist)</text><polygon fill="#181818" points="261.9,637.207,255.9,639.607,261.9,642.007,259.5,639.607" style="stroke:#181818;stroke-width:0.6;"/><line style="stroke:#181818;stroke-width:0.6;stroke-dasharray:2.0,2.0;" x1="258.3" x2="428.7" y1="639.607" y2="639.607"/><text fill="#000000" font-family="sans-serif" font-size="7.8" font-weight="bold" lengthAdjust="spacing" textLength="8.4" x="265.5" y="636.4494">28</text><text fill="#000000" font-family="sans-serif" font-size="7.8" lengthAdjust="spacing" textLength="148.8" x="276.3" y="636.4494">show error message (Client does not exist)</text><line style="stroke:#000000;stroke-width:0.6;stroke-dasharray:2.0,2.0;" x1="208.2" x2="993" y1="645.007" y2="645.007"/><polygon fill="#181818" points="935.1,657.1816,941.1,659.5816,935.1,661.9816,937.5,659.5816" style="stroke:#181818;stroke-width:0.6;"/><line style="stroke:#181818;stroke-width:0.6;" x1="615.3" x2="938.7" y1="659.5816" y2="659.5816"/><text fill="#000000" font-family="sans-serif" font-size="7.8" font-weight="bold" lengthAdjust="spacing" textLength="8.4" x="619.5" y="656.424">29</text><text fill="#000000" font-family="sans-serif" font-size="7.8" lengthAdjust="spacing" textLength="44.4" x="630.3" y="656.424">delete(client)</text><path d="M214.2,668.5816 L250.8,668.5816 L250.8,674.1563 L244.8,680.1563 L214.2,680.1563 L214.2,668.5816 " fill="#EEEEEE" style="stroke:#000000;stroke-width:0.8999999999999999;"/><rect fill="none" height="125.4223" style="stroke:#000000;stroke-width:0.8999999999999999;" width="772.8" x="214.2" y="668.5816"/><text fill="#000000" font-family="sans-serif" font-size="7.8" font-weight="bold" lengthAdjust="spacing" textLength="9.6" x="223.2" y="677.5986">alt</text><text fill="#000000" font-family="sans-serif" font-size="6.6" font-weight="bold" lengthAdjust="spacing" textLength="49.2" x="259.8" y="676.9037">[system error]</text><polygon fill="#181818" points="621.9,691.7309,615.9,694.1309,621.9,696.5309,619.5,694.1309" style="stroke:#181818;stroke-width:0.6;"/><line style="stroke:#181818;stroke-width:0.6;stroke-dasharray:2.0,2.0;" x1="618.3" x2="941.7" y1="694.1309" y2="694.1309"/><text fill="#000000" font-family="sans-serif" font-size="7.8" font-weight="bold" lengthAdjust="spacing" textLength="8.4" x="625.5" y="690.9732">30</text><text fill="#000000" font-family="sans-serif" font-size="7.8" lengthAdjust="spacing" textLength="51" x="636.3" y="690.9732">Database error</text><polygon fill="#181818" points="441.9,710.5055,435.9,712.9055,441.9,715.3055,439.5,712.9055" style="stroke:#181818;stroke-width:0.6;"/><line style="stroke:#181818;stroke-width:0.6;stroke-dasharray:2.0,2.0;" x1="438.3" x2="608.7" y1="712.9055" y2="712.9055"/><text fill="#000000" font-family="sans-serif" font-size="7.8" font-weight="bold" lengthAdjust="spacing" textLength="8.4" x="445.5" y="709.7479">31</text><text fill="#000000" font-family="sans-serif" font-size="7.8" lengthAdjust="spacing" textLength="128.4" x="456.3" y="709.7479">show error message (Database error)</text><polygon fill="#181818" points="261.9,729.2801,255.9,731.6801,261.9,734.0801,259.5,731.6801" style="stroke:#181818;stroke-width:0.6;"/><line style="stroke:#181818;stroke-width:0.6;stroke-dasharray:2.0,2.0;" x1="258.3" x2="428.7" y1="731.6801" y2="731.6801"/><text fill="#000000" font-family="sans-serif" font-size="7.8" font-weight="bold" lengthAdjust="spacing" textLength="8.4" x="265.5" y="728.5225">32</text><text fill="#000000" font-family="sans-serif" font-size="7.8" lengthAdjust="spacing" textLength="128.4" x="276.3" y="728.5225">show error message (Database error)</text><line style="stroke:#000000;stroke-width:0.6;stroke-dasharray:2.0,2.0;" x1="214.2" x2="987" y1="737.0801" y2="737.0801"/><polygon fill="#181818" points="621.9,749.2547,615.9,751.6547,621.9,754.0547,619.5,751.6547" style="stroke:#181818;stroke-width:0.6;"/><line style="stroke:#181818;stroke-width:0.6;stroke-dasharray:2.0,2.0;" x1="618.3" x2="944.7" y1="751.6547" y2="751.6547"/><text fill="#000000" font-family="sans-serif" font-size="7.8" font-weight="bold" lengthAdjust="spacing" textLength="8.4" x="625.5" y="748.4971">33</text><text fill="#000000" font-family="sans-serif" font-size="7.8" lengthAdjust="spacing" textLength="18.6" x="636.3" y="748.4971">client</text><polygon fill="#181818" points="441.9,768.0293,435.9,770.4293,441.9,772.8293,439.5,770.4293" style="stroke:#181818;stroke-width:0.6;"/><line style="stroke:#181818;stroke-width:0.6;stroke-dasharray:2.0,2.0;" x1="438.3" x2="611.7" y1="770.4293" y2="770.4293"/><text fill="#000000" font-family="sans-serif" font-size="7.8" font-weight="bold" lengthAdjust="spacing" textLength="8.4" x="445.5" y="767.2717">34</text><text fill="#000000" font-family="sans-serif" font-size="7.8" lengthAdjust="spacing" textLength="18.6" x="456.3" y="767.2717">client</text><polygon fill="#181818" points="261.9,786.8039,255.9,789.2039,261.9,791.6039,259.5,789.2039" style="stroke:#181818;stroke-width:0.6;"/><line style="stroke:#181818;stroke-width:0.6;stroke-dasharray:2.0,2.0;" x1="258.3" x2="431.7" y1="789.2039" y2="789.2039"/><text fill="#000000" font-family="sans-serif" font-size="7.8" font-weight="bold" lengthAdjust="spacing" textLength="8.4" x="265.5" y="786.0463">35</text><text fill="#000000" font-family="sans-serif" font-size="7.8" lengthAdjust="spacing" textLength="18.6" x="276.3" y="786.0463">client</text><polygon fill="#181818" points="36.3,813.9785,30.3,816.3785,36.3,818.7785,33.9,816.3785" style="stroke:#181818;stroke-width:0.6;"/><line style="stroke:#181818;stroke-width:0.6;stroke-dasharray:2.0,2.0;" x1="32.7" x2="251.7" y1="816.3785" y2="816.3785"/><text fill="#000000" font-family="sans-serif" font-size="7.8" font-weight="bold" lengthAdjust="spacing" textLength="8.4" x="39.9" y="813.2209">36</text><text fill="#000000" font-family="sans-serif" font-size="7.8" lengthAdjust="spacing" textLength="191.4" x="50.7" y="813.2209">shows all data of client and displays operation success</text><!--SRC=[jLRBRjim4BphAnOvsG7o0m9I8BLIm41R55PIz90B8sqS8XAfadGS_tsNf2HJiXusaEfYIvmPBcTtIUetBYgcM0cb539xLR94C6g7aMv7AfQziIscvb0WACmC4ziY1EXNbiiz5rjuOON6A3BS43GzQ8CbfFXtXo93I3ZRMlWYJPDb5B6TaM9NFgEY_vcH2gxkyf8BherYz7e5JCDTyYEYIGpFUCM4WQiumG8DhWgEmZok7UXntSFuqPKKHicYG2-rUjXy7yIbgDvvXWwKRdvtCHvo_v5XPRWK3dJ_PzK5RR2IcbFC7BL3REv_fLs82Y1F8XvYT0cPcxZ57U8diUfzSiG-hd7V-mIUqoR1MStV6OrOQu4U-eMRBsGYnAJtfi58o3sPrUeErnB9RlV1FiGYhhNs-fhucK9230tJu1RDNL7uWFHYsO9QOPSX21v7907AYkUVaZi2DdkT4VjOCcdOb7YHjT1KmXdsL3fABe7zKITnu-E98Spe2JJ7QQbZKE72ZbcSYMqej2OocuP-JKo7D-fPNwTDubHuivEVgFO3dxHpKjx5VQou8Rb0ofPBjzIQFkWJ0r9RfBQs2M_R9wOjKEwfSruH2jg_GBuq4i14JgL2tQVf9PFYXQkIsQqawWatRHNsOustoim0gU-PrJoZGyCERADiurWdvynUAVdESzGD3_E6E3QJTpwke_D5lV0HhfCBEtvMvUpMTs9jatqzh9EZsaGXp-mcdzst_wzjNQIqx7p4nCzftpWinNERTtW9vmiEveWLfgR2xIs8NL6SOWAxw3YFgS6KtDUidz9yapinPLV7CdiV60BGz-DQsYi4FDYfn20ZMDcOQBZ5-Nq7K2cwFPMeDLtJO54V-RcapXNI07xGbhGSjY3OzYuIw-kWk_TDc7nQaxwxQuzd79ujoYRjsjyvtI86GTCLd333dfd6Mc1KOJu9NQNbkDHi1lfAGoBE_ikNEz9VbvwwuywSFq5u5azQTBxaoU7IkYNoQEpRyRni3dLM591J3ew7kZlJSwwhWXqqo0gLEz11xxACiZPqj0Ql9FqF]--></g></svg>