<?xml version="1.0" encoding="us-ascii" standalone="no"?><svg xmlns="http://www.w3.org/2000/svg" xmlns:xlink="http://www.w3.org/1999/xlink" contentStyleType="text/css" height="1406px" preserveAspectRatio="none" style="width:1020px;height:1406px;background:#FFFFFF;" version="1.1" viewBox="0 0 1020 1406" width="1020px" zoomAndPan="magnify"><defs/><g><!--cluster UI--><g id="cluster_UI"><rect fill="none" height="101" rx="2.5" ry="2.5" style="stroke:#000000;stroke-width:1.5;" width="166" x="441" y="7"/><text fill="#000000" font-family="sans-serif" font-size="14" font-weight="bold" lengthAdjust="spacing" textLength="14" x="517" y="24.1074">UI</text></g><!--cluster Controller--><g id="cluster_Controller"><rect fill="none" height="138" rx="2.5" ry="2.5" style="stroke:#000000;stroke-width:1.5;" width="232" x="408" y="141"/><text fill="#000000" font-family="sans-serif" font-size="14" font-weight="bold" lengthAdjust="spacing" textLength="71" x="488.5" y="158.1074">Controller</text></g><!--cluster Service--><g id="cluster_Service"><rect fill="none" height="157" rx="2.5" ry="2.5" style="stroke:#000000;stroke-width:1.5;" width="244" x="402" y="312"/><text fill="#000000" font-family="sans-serif" font-size="14" font-weight="bold" lengthAdjust="spacing" textLength="54" x="497" y="329.1074">Service</text></g><!--cluster Repository--><g id="cluster_Repository"><rect fill="none" height="340" rx="2.5" ry="2.5" style="stroke:#000000;stroke-width:1.5;" width="381" x="7" y="520"/><text fill="#000000" font-family="sans-serif" font-size="14" font-weight="bold" lengthAdjust="spacing" textLength="76" x="159.5" y="537.1074">Repository</text></g><!--cluster Model--><g id="cluster_Model"><rect fill="none" height="489" rx="2.5" ry="2.5" style="stroke:#000000;stroke-width:1.5;" width="479" x="535" y="911"/><text fill="#000000" font-family="sans-serif" font-size="14" font-weight="bold" lengthAdjust="spacing" textLength="44" x="752.5" y="928.1074">Model</text></g><!--cluster Exception--><g id="cluster_Exception"><rect fill="none" height="293.5" rx="2.5" ry="2.5" style="stroke:#000000;stroke-width:1.5;" width="312" x="556" y="538.5"/><text fill="#000000" font-family="sans-serif" font-size="14" font-weight="bold" lengthAdjust="spacing" textLength="70" x="677" y="555.6074">Exception</text></g><!--class RegisterClientUI--><g id="elem_RegisterClientUI"><rect codeLine="7" fill="#F1F1F1" height="48" id="RegisterClientUI" rx="2.5" ry="2.5" style="stroke:#181818;stroke-width:0.5;" width="133" x="457.5" y="44"/><ellipse cx="472.5" cy="60" fill="#ADD1B2" rx="11" ry="11" style="stroke:#181818;stroke-width:1.0;"/><path d="M475.2656,55.875 Q475.4219,55.6563 475.6094,55.5469 Q475.7969,55.4375 476.0156,55.4375 Q476.3906,55.4375 476.625,55.7031 Q476.8594,55.9531 476.8594,56.5625 L476.8594,58.0156 Q476.8594,58.625 476.625,58.8906 Q476.3906,59.1563 476.0156,59.1563 Q475.6719,59.1563 475.4688,58.9531 Q475.2656,58.7656 475.1563,58.25 Q475.1094,57.8906 474.9219,57.7031 Q474.5938,57.3281 473.9844,57.1094 Q473.375,56.8906 472.75,56.8906 Q471.9844,56.8906 471.3438,57.2188 Q470.7188,57.5469 470.2188,58.2969 Q469.7344,59.0469 469.7344,60.0781 L469.7344,61.1719 Q469.7344,62.4063 470.625,63.2344 Q471.5156,64.0469 473.1094,64.0469 Q474.0469,64.0469 474.7031,63.7969 Q475.0938,63.6406 475.5156,63.2031 Q475.7813,62.9375 475.9219,62.8594 Q476.0781,62.7813 476.2813,62.7813 Q476.6094,62.7813 476.8594,63.0469 Q477.125,63.2969 477.125,63.6406 Q477.125,63.9844 476.7813,64.3906 Q476.2813,64.9688 475.4844,65.2969 Q474.4063,65.75 473.1094,65.75 Q471.5938,65.75 470.3906,65.125 Q469.4063,64.625 468.7188,63.5625 Q468.0313,62.4844 468.0313,61.2031 L468.0313,60.0469 Q468.0313,58.7188 468.6406,57.5781 Q469.2656,56.4219 470.3594,55.8125 Q471.4531,55.1875 472.6875,55.1875 Q473.4219,55.1875 474.0625,55.3594 Q474.7188,55.5156 475.2656,55.875 Z " fill="#000000"/><text fill="#000000" font-family="sans-serif" font-size="14" lengthAdjust="spacing" textLength="101" x="486.5" y="65.7969">RegisterClientUI</text><line style="stroke:#181818;stroke-width:0.5;" x1="458.5" x2="589.5" y1="76" y2="76"/><line style="stroke:#181818;stroke-width:0.5;" x1="458.5" x2="589.5" y1="84" y2="84"/></g><!--class ClientController--><g id="elem_ClientController"><rect codeLine="12" fill="#F1F1F1" height="85.2422" id="ClientController" rx="2.5" ry="2.5" style="stroke:#181818;stroke-width:0.5;" width="199" x="424.5" y="178"/><ellipse cx="470.75" cy="194" fill="#ADD1B2" rx="11" ry="11" style="stroke:#181818;stroke-width:1.0;"/><path d="M473.5156,189.875 Q473.6719,189.6563 473.8594,189.5469 Q474.0469,189.4375 474.2656,189.4375 Q474.6406,189.4375 474.875,189.7031 Q475.1094,189.9531 475.1094,190.5625 L475.1094,192.0156 Q475.1094,192.625 474.875,192.8906 Q474.6406,193.1563 474.2656,193.1563 Q473.9219,193.1563 473.7188,192.9531 Q473.5156,192.7656 473.4063,192.25 Q473.3594,191.8906 473.1719,191.7031 Q472.8438,191.3281 472.2344,191.1094 Q471.625,190.8906 471,190.8906 Q470.2344,190.8906 469.5938,191.2188 Q468.9688,191.5469 468.4688,192.2969 Q467.9844,193.0469 467.9844,194.0781 L467.9844,195.1719 Q467.9844,196.4063 468.875,197.2344 Q469.7656,198.0469 471.3594,198.0469 Q472.2969,198.0469 472.9531,197.7969 Q473.3438,197.6406 473.7656,197.2031 Q474.0313,196.9375 474.1719,196.8594 Q474.3281,196.7813 474.5313,196.7813 Q474.8594,196.7813 475.1094,197.0469 Q475.375,197.2969 475.375,197.6406 Q475.375,197.9844 475.0313,198.3906 Q474.5313,198.9688 473.7344,199.2969 Q472.6563,199.75 471.3594,199.75 Q469.8438,199.75 468.6406,199.125 Q467.6563,198.625 466.9688,197.5625 Q466.2813,196.4844 466.2813,195.2031 L466.2813,194.0469 Q466.2813,192.7188 466.8906,191.5781 Q467.5156,190.4219 468.6094,189.8125 Q469.7031,189.1875 470.9375,189.1875 Q471.6719,189.1875 472.3125,189.3594 Q472.9688,189.5156 473.5156,189.875 Z " fill="#000000"/><text fill="#000000" font-family="sans-serif" font-size="14" lengthAdjust="spacing" textLength="98" x="491.25" y="199.7969">ClientController</text><line style="stroke:#181818;stroke-width:0.5;" x1="425.5" x2="622.5" y1="210" y2="210"/><line style="stroke:#181818;stroke-width:0.5;" x1="425.5" x2="622.5" y1="218" y2="218"/><text fill="#000000" font-family="sans-serif" font-size="14" lengthAdjust="spacing" textLength="182" x="430.5" y="237.1074">+getAllClients() : List&lt;Client&gt;</text><text fill="#000000" font-family="sans-serif" font-size="14" lengthAdjust="spacing" textLength="187" x="430.5" y="255.7285">+deleteClient(clientID) : Client</text></g><!--class ClientService--><g id="elem_ClientService"><rect codeLine="19" fill="#F1F1F1" height="103.8633" id="ClientService" rx="2.5" ry="2.5" style="stroke:#181818;stroke-width:0.5;" width="211" x="418.5" y="349"/><ellipse cx="478.25" cy="365" fill="#ADD1B2" rx="11" ry="11" style="stroke:#181818;stroke-width:1.0;"/><path d="M481.0156,360.875 Q481.1719,360.6563 481.3594,360.5469 Q481.5469,360.4375 481.7656,360.4375 Q482.1406,360.4375 482.375,360.7031 Q482.6094,360.9531 482.6094,361.5625 L482.6094,363.0156 Q482.6094,363.625 482.375,363.8906 Q482.1406,364.1563 481.7656,364.1563 Q481.4219,364.1563 481.2188,363.9531 Q481.0156,363.7656 480.9063,363.25 Q480.8594,362.8906 480.6719,362.7031 Q480.3438,362.3281 479.7344,362.1094 Q479.125,361.8906 478.5,361.8906 Q477.7344,361.8906 477.0938,362.2188 Q476.4688,362.5469 475.9688,363.2969 Q475.4844,364.0469 475.4844,365.0781 L475.4844,366.1719 Q475.4844,367.4063 476.375,368.2344 Q477.2656,369.0469 478.8594,369.0469 Q479.7969,369.0469 480.4531,368.7969 Q480.8438,368.6406 481.2656,368.2031 Q481.5313,367.9375 481.6719,367.8594 Q481.8281,367.7813 482.0313,367.7813 Q482.3594,367.7813 482.6094,368.0469 Q482.875,368.2969 482.875,368.6406 Q482.875,368.9844 482.5313,369.3906 Q482.0313,369.9688 481.2344,370.2969 Q480.1563,370.75 478.8594,370.75 Q477.3438,370.75 476.1406,370.125 Q475.1563,369.625 474.4688,368.5625 Q473.7813,367.4844 473.7813,366.2031 L473.7813,365.0469 Q473.7813,363.7188 474.3906,362.5781 Q475.0156,361.4219 476.1094,360.8125 Q477.2031,360.1875 478.4375,360.1875 Q479.1719,360.1875 479.8125,360.3594 Q480.4688,360.5156 481.0156,360.875 Z " fill="#000000"/><text fill="#000000" font-family="sans-serif" font-size="14" lengthAdjust="spacing" textLength="83" x="498.75" y="370.7969">ClientService</text><line style="stroke:#181818;stroke-width:0.5;" x1="419.5" x2="628.5" y1="381" y2="381"/><line style="stroke:#181818;stroke-width:0.5;" x1="419.5" x2="628.5" y1="389" y2="389"/><text fill="#000000" font-family="sans-serif" font-size="14" lengthAdjust="spacing" textLength="167" x="424.5" y="408.1074">+getClients() : List&lt;Client&gt;</text><text fill="#000000" font-family="sans-serif" font-size="14" lengthAdjust="spacing" textLength="199" x="424.5" y="426.7285">-getClientByID((clientID) : Client</text><text fill="#000000" font-family="sans-serif" font-size="14" lengthAdjust="spacing" textLength="187" x="424.5" y="445.3496">+deleteClient(clientID) : Client</text></g><!--class Repositories--><g id="elem_Repositories"><rect codeLine="27" fill="#F1F1F1" height="103.8633" id="Repositories" rx="2.5" ry="2.5" style="stroke:#181818;stroke-width:0.5;" width="270" x="23" y="557"/><ellipse cx="114.25" cy="573" fill="#ADD1B2" rx="11" ry="11" style="stroke:#181818;stroke-width:1.0;"/><path d="M117.0156,568.875 Q117.1719,568.6563 117.3594,568.5469 Q117.5469,568.4375 117.7656,568.4375 Q118.1406,568.4375 118.375,568.7031 Q118.6094,568.9531 118.6094,569.5625 L118.6094,571.0156 Q118.6094,571.625 118.375,571.8906 Q118.1406,572.1563 117.7656,572.1563 Q117.4219,572.1563 117.2188,571.9531 Q117.0156,571.7656 116.9063,571.25 Q116.8594,570.8906 116.6719,570.7031 Q116.3438,570.3281 115.7344,570.1094 Q115.125,569.8906 114.5,569.8906 Q113.7344,569.8906 113.0938,570.2188 Q112.4688,570.5469 111.9688,571.2969 Q111.4844,572.0469 111.4844,573.0781 L111.4844,574.1719 Q111.4844,575.4063 112.375,576.2344 Q113.2656,577.0469 114.8594,577.0469 Q115.7969,577.0469 116.4531,576.7969 Q116.8438,576.6406 117.2656,576.2031 Q117.5313,575.9375 117.6719,575.8594 Q117.8281,575.7813 118.0313,575.7813 Q118.3594,575.7813 118.6094,576.0469 Q118.875,576.2969 118.875,576.6406 Q118.875,576.9844 118.5313,577.3906 Q118.0313,577.9688 117.2344,578.2969 Q116.1563,578.75 114.8594,578.75 Q113.3438,578.75 112.1406,578.125 Q111.1563,577.625 110.4688,576.5625 Q109.7813,575.4844 109.7813,574.2031 L109.7813,573.0469 Q109.7813,571.7188 110.3906,570.5781 Q111.0156,569.4219 112.1094,568.8125 Q113.2031,568.1875 114.4375,568.1875 Q115.1719,568.1875 115.8125,568.3594 Q116.4688,568.5156 117.0156,568.875 Z " fill="#000000"/><text fill="#000000" font-family="sans-serif" font-size="14" lengthAdjust="spacing" textLength="79" x="134.75" y="578.7969">Repositories</text><line style="stroke:#181818;stroke-width:0.5;" x1="24" x2="292" y1="589" y2="589"/><line style="stroke:#181818;stroke-width:0.5;" x1="24" x2="292" y1="597" y2="597"/><text fill="#000000" font-family="sans-serif" font-size="14" lengthAdjust="spacing" textLength="94" x="29" y="616.1074">-Repositories()</text><text fill="#000000" font-family="sans-serif" font-size="14" lengthAdjust="spacing" textLength="182" x="29" y="634.7285">+getInstance() : Repositories</text><text fill="#000000" font-family="sans-serif" font-size="14" lengthAdjust="spacing" textLength="258" x="29" y="653.3496">+getClientRepository() : ClientRepository</text></g><!--class ClientRepository--><g id="elem_ClientRepository"><rect codeLine="33" fill="#F1F1F1" height="103.8633" id="ClientRepository" rx="2.5" ry="2.5" style="stroke:#181818;stroke-width:0.5;" width="186" x="186" y="740"/><ellipse cx="223.5" cy="756" fill="#ADD1B2" rx="11" ry="11" style="stroke:#181818;stroke-width:1.0;"/><path d="M226.2656,751.875 Q226.4219,751.6563 226.6094,751.5469 Q226.7969,751.4375 227.0156,751.4375 Q227.3906,751.4375 227.625,751.7031 Q227.8594,751.9531 227.8594,752.5625 L227.8594,754.0156 Q227.8594,754.625 227.625,754.8906 Q227.3906,755.1563 227.0156,755.1563 Q226.6719,755.1563 226.4688,754.9531 Q226.2656,754.7656 226.1563,754.25 Q226.1094,753.8906 225.9219,753.7031 Q225.5938,753.3281 224.9844,753.1094 Q224.375,752.8906 223.75,752.8906 Q222.9844,752.8906 222.3438,753.2188 Q221.7188,753.5469 221.2188,754.2969 Q220.7344,755.0469 220.7344,756.0781 L220.7344,757.1719 Q220.7344,758.4063 221.625,759.2344 Q222.5156,760.0469 224.1094,760.0469 Q225.0469,760.0469 225.7031,759.7969 Q226.0938,759.6406 226.5156,759.2031 Q226.7813,758.9375 226.9219,758.8594 Q227.0781,758.7813 227.2813,758.7813 Q227.6094,758.7813 227.8594,759.0469 Q228.125,759.2969 228.125,759.6406 Q228.125,759.9844 227.7813,760.3906 Q227.2813,760.9688 226.4844,761.2969 Q225.4063,761.75 224.1094,761.75 Q222.5938,761.75 221.3906,761.125 Q220.4063,760.625 219.7188,759.5625 Q219.0313,758.4844 219.0313,757.2031 L219.0313,756.0469 Q219.0313,754.7188 219.6406,753.5781 Q220.2656,752.4219 221.3594,751.8125 Q222.4531,751.1875 223.6875,751.1875 Q224.4219,751.1875 225.0625,751.3594 Q225.7188,751.5156 226.2656,751.875 Z " fill="#000000"/><text fill="#000000" font-family="sans-serif" font-size="14" lengthAdjust="spacing" textLength="104" x="242.5" y="761.7969">ClientRepository</text><line style="stroke:#181818;stroke-width:0.5;" x1="187" x2="371" y1="772" y2="772"/><line style="stroke:#181818;stroke-width:0.5;" x1="187" x2="371" y1="780" y2="780"/><text fill="#000000" font-family="sans-serif" font-size="14" lengthAdjust="spacing" textLength="139" x="192" y="799.1074">+getAll() : List&lt;Client&gt;</text><text fill="#000000" font-family="sans-serif" font-size="14" lengthAdjust="spacing" textLength="174" x="192" y="817.7285">+getById(clientID) : boolean</text><text fill="#000000" font-family="sans-serif" font-size="14" lengthAdjust="spacing" textLength="153" x="192" y="836.3496">+delete(client) : boolean</text></g><!--class Client--><g id="elem_Client"><rect codeLine="41" fill="#F1F1F1" height="196.9688" id="Client" rx="2.5" ry="2.5" style="stroke:#181818;stroke-width:0.5;" width="425" x="561.5" y="948"/><ellipse cx="751.75" cy="964" fill="#ADD1B2" rx="11" ry="11" style="stroke:#181818;stroke-width:1.0;"/><path d="M754.5156,959.875 Q754.6719,959.6563 754.8594,959.5469 Q755.0469,959.4375 755.2656,959.4375 Q755.6406,959.4375 755.875,959.7031 Q756.1094,959.9531 756.1094,960.5625 L756.1094,962.0156 Q756.1094,962.625 755.875,962.8906 Q755.6406,963.1563 755.2656,963.1563 Q754.9219,963.1563 754.7188,962.9531 Q754.5156,962.7656 754.4063,962.25 Q754.3594,961.8906 754.1719,961.7031 Q753.8438,961.3281 753.2344,961.1094 Q752.625,960.8906 752,960.8906 Q751.2344,960.8906 750.5938,961.2188 Q749.9688,961.5469 749.4688,962.2969 Q748.9844,963.0469 748.9844,964.0781 L748.9844,965.1719 Q748.9844,966.4063 749.875,967.2344 Q750.7656,968.0469 752.3594,968.0469 Q753.2969,968.0469 753.9531,967.7969 Q754.3438,967.6406 754.7656,967.2031 Q755.0313,966.9375 755.1719,966.8594 Q755.3281,966.7813 755.5313,966.7813 Q755.8594,966.7813 756.1094,967.0469 Q756.375,967.2969 756.375,967.6406 Q756.375,967.9844 756.0313,968.3906 Q755.5313,968.9688 754.7344,969.2969 Q753.6563,969.75 752.3594,969.75 Q750.8438,969.75 749.6406,969.125 Q748.6563,968.625 747.9688,967.5625 Q747.2813,966.4844 747.2813,965.2031 L747.2813,964.0469 Q747.2813,962.7188 747.8906,961.5781 Q748.5156,960.4219 749.6094,959.8125 Q750.7031,959.1875 751.9375,959.1875 Q752.6719,959.1875 753.3125,959.3594 Q753.9688,959.5156 754.5156,959.875 Z " fill="#000000"/><text fill="#000000" font-family="sans-serif" font-size="14" lengthAdjust="spacing" textLength="36" x="772.25" y="969.7969">Client</text><line style="stroke:#181818;stroke-width:0.5;" x1="562.5" x2="985.5" y1="980" y2="980"/><text fill="#000000" font-family="sans-serif" font-size="14" lengthAdjust="spacing" textLength="78" x="567.5" y="999.1074">-clientID : int</text><text fill="#000000" font-family="sans-serif" font-size="14" lengthAdjust="spacing" textLength="120" x="567.5" y="1017.7285">-address : Address</text><text fill="#000000" font-family="sans-serif" font-size="14" lengthAdjust="spacing" textLength="89" x="567.5" y="1036.3496">-name : String</text><text fill="#000000" font-family="sans-serif" font-size="14" lengthAdjust="spacing" textLength="84" x="567.5" y="1054.9707">-vatin : String</text><text fill="#000000" font-family="sans-serif" font-size="14" lengthAdjust="spacing" textLength="121" x="567.5" y="1073.5918">-phoneNumber : int</text><text fill="#000000" font-family="sans-serif" font-size="14" lengthAdjust="spacing" textLength="87" x="567.5" y="1092.2129">-email : String</text><text fill="#000000" font-family="sans-serif" font-size="14" lengthAdjust="spacing" textLength="136" x="567.5" y="1110.834">-type : CompanyType</text><line style="stroke:#181818;stroke-width:0.5;" x1="562.5" x2="985.5" y1="1118.3477" y2="1118.3477"/><text fill="#000000" font-family="sans-serif" font-size="14" lengthAdjust="spacing" textLength="413" x="567.5" y="1137.4551">+Client(clientID, name, address, vatin, phoneNumber, email, type)</text></g><!--class Address--><g id="elem_Address"><rect codeLine="52" fill="#F1F1F1" height="159.7266" id="Address" rx="2.5" ry="2.5" style="stroke:#181818;stroke-width:0.5;" width="288" x="551" y="1224"/><ellipse cx="664.75" cy="1240" fill="#ADD1B2" rx="11" ry="11" style="stroke:#181818;stroke-width:1.0;"/><path d="M667.5156,1235.875 Q667.6719,1235.6563 667.8594,1235.5469 Q668.0469,1235.4375 668.2656,1235.4375 Q668.6406,1235.4375 668.875,1235.7031 Q669.1094,1235.9531 669.1094,1236.5625 L669.1094,1238.0156 Q669.1094,1238.625 668.875,1238.8906 Q668.6406,1239.1563 668.2656,1239.1563 Q667.9219,1239.1563 667.7188,1238.9531 Q667.5156,1238.7656 667.4063,1238.25 Q667.3594,1237.8906 667.1719,1237.7031 Q666.8438,1237.3281 666.2344,1237.1094 Q665.625,1236.8906 665,1236.8906 Q664.2344,1236.8906 663.5938,1237.2188 Q662.9688,1237.5469 662.4688,1238.2969 Q661.9844,1239.0469 661.9844,1240.0781 L661.9844,1241.1719 Q661.9844,1242.4063 662.875,1243.2344 Q663.7656,1244.0469 665.3594,1244.0469 Q666.2969,1244.0469 666.9531,1243.7969 Q667.3438,1243.6406 667.7656,1243.2031 Q668.0313,1242.9375 668.1719,1242.8594 Q668.3281,1242.7813 668.5313,1242.7813 Q668.8594,1242.7813 669.1094,1243.0469 Q669.375,1243.2969 669.375,1243.6406 Q669.375,1243.9844 669.0313,1244.3906 Q668.5313,1244.9688 667.7344,1245.2969 Q666.6563,1245.75 665.3594,1245.75 Q663.8438,1245.75 662.6406,1245.125 Q661.6563,1244.625 660.9688,1243.5625 Q660.2813,1242.4844 660.2813,1241.2031 L660.2813,1240.0469 Q660.2813,1238.7188 660.8906,1237.5781 Q661.5156,1236.4219 662.6094,1235.8125 Q663.7031,1235.1875 664.9375,1235.1875 Q665.6719,1235.1875 666.3125,1235.3594 Q666.9688,1235.5156 667.5156,1235.875 Z " fill="#000000"/><text fill="#000000" font-family="sans-serif" font-size="14" lengthAdjust="spacing" textLength="52" x="685.25" y="1245.7969">Address</text><line style="stroke:#181818;stroke-width:0.5;" x1="552" x2="838" y1="1256" y2="1256"/><text fill="#000000" font-family="sans-serif" font-size="14" lengthAdjust="spacing" textLength="43" x="557" y="1275.1074">-id : int</text><text fill="#000000" font-family="sans-serif" font-size="14" lengthAdjust="spacing" textLength="90" x="557" y="1293.7285">-street : String</text><text fill="#000000" font-family="sans-serif" font-size="14" lengthAdjust="spacing" textLength="105" x="557" y="1312.3496">-zipCode : String</text><text fill="#000000" font-family="sans-serif" font-size="14" lengthAdjust="spacing" textLength="83" x="557" y="1330.9707">-town : String</text><text fill="#000000" font-family="sans-serif" font-size="14" lengthAdjust="spacing" textLength="101" x="557" y="1349.5918">-country : String</text><line style="stroke:#181818;stroke-width:0.5;" x1="552" x2="838" y1="1357.1055" y2="1357.1055"/><text fill="#000000" font-family="sans-serif" font-size="14" lengthAdjust="spacing" textLength="276" x="557" y="1376.2129">+Address(id, street, zipCode, town, country)</text></g><!--class CompanyType--><g id="elem_CompanyType"><rect codeLine="61" fill="#F1F1F1" height="85.2422" id="CompanyType" rx="2.5" ry="2.5" style="stroke:#181818;stroke-width:0.5;" width="124" x="874" y="1261.5"/><ellipse cx="889" cy="1277.5" fill="#EB937F" rx="11" ry="11" style="stroke:#181818;stroke-width:1.0;"/><path d="M887.8594,1278.2969 L887.8594,1280.7969 L892.1875,1280.7969 L892.1875,1279.875 Q892.1875,1279.2656 892.4219,1279 Q892.6719,1278.7344 893.0469,1278.7344 Q893.4219,1278.7344 893.6563,1279 Q893.8906,1279.2656 893.8906,1279.875 L893.8906,1282.5 L885.8906,1282.5 Q885.2656,1282.5 885,1282.2656 Q884.75,1282.0313 884.75,1281.6406 Q884.75,1281.2656 885.0156,1281.0313 Q885.2813,1280.7969 885.8906,1280.7969 L886.1563,1280.7969 L886.1563,1274.1406 L885.8906,1274.1406 Q885.2656,1274.1406 885,1273.9063 Q884.75,1273.6719 884.75,1273.2813 Q884.75,1272.9063 885,1272.6719 Q885.2656,1272.4375 885.8906,1272.4375 L893.5156,1272.4375 L893.5156,1275.0313 Q893.5156,1275.6406 893.2813,1275.9063 Q893.0625,1276.1563 892.6719,1276.1563 Q892.2969,1276.1563 892.0625,1275.9063 Q891.8281,1275.6406 891.8281,1275.0313 L891.8281,1274.1406 L887.8594,1274.1406 L887.8594,1276.5938 L889.3438,1276.5938 Q889.3438,1275.9375 889.4688,1275.75 Q889.7344,1275.3438 890.2031,1275.3438 Q890.5781,1275.3438 890.8125,1275.6094 Q891.0469,1275.8594 891.0469,1276.4688 L891.0469,1278.4375 Q891.0469,1278.9844 890.9219,1279.1719 Q890.6563,1279.5625 890.2031,1279.5625 Q889.7344,1279.5625 889.4688,1279.1563 Q889.3438,1278.9688 889.3438,1278.2969 L887.8594,1278.2969 Z " fill="#000000"/><text fill="#000000" font-family="sans-serif" font-size="14" lengthAdjust="spacing" textLength="92" x="903" y="1283.2969">CompanyType</text><line style="stroke:#181818;stroke-width:0.5;" x1="875" x2="997" y1="1293.5" y2="1293.5"/><text fill="#000000" font-family="sans-serif" font-size="14" lengthAdjust="spacing" textLength="73" x="880" y="1312.6074">INDIVIDUAL</text><text fill="#000000" font-family="sans-serif" font-size="14" lengthAdjust="spacing" textLength="68" x="880" y="1331.2285">COMPANY</text><line style="stroke:#181818;stroke-width:0.5;" x1="875" x2="997" y1="1338.7422" y2="1338.7422"/></g><!--class ClientException--><g id="elem_ClientException"><rect codeLine="68" fill="#F1F1F1" height="66.6211" id="ClientException" rx="2.5" ry="2.5" style="stroke:#181818;stroke-width:0.5;" width="280" x="572" y="575.5"/><ellipse cx="659.25" cy="591.5" fill="#ADD1B2" rx="11" ry="11" style="stroke:#181818;stroke-width:1.0;"/><path d="M662.0156,587.375 Q662.1719,587.1563 662.3594,587.0469 Q662.5469,586.9375 662.7656,586.9375 Q663.1406,586.9375 663.375,587.2031 Q663.6094,587.4531 663.6094,588.0625 L663.6094,589.5156 Q663.6094,590.125 663.375,590.3906 Q663.1406,590.6563 662.7656,590.6563 Q662.4219,590.6563 662.2188,590.4531 Q662.0156,590.2656 661.9063,589.75 Q661.8594,589.3906 661.6719,589.2031 Q661.3438,588.8281 660.7344,588.6094 Q660.125,588.3906 659.5,588.3906 Q658.7344,588.3906 658.0938,588.7188 Q657.4688,589.0469 656.9688,589.7969 Q656.4844,590.5469 656.4844,591.5781 L656.4844,592.6719 Q656.4844,593.9063 657.375,594.7344 Q658.2656,595.5469 659.8594,595.5469 Q660.7969,595.5469 661.4531,595.2969 Q661.8438,595.1406 662.2656,594.7031 Q662.5313,594.4375 662.6719,594.3594 Q662.8281,594.2813 663.0313,594.2813 Q663.3594,594.2813 663.6094,594.5469 Q663.875,594.7969 663.875,595.1406 Q663.875,595.4844 663.5313,595.8906 Q663.0313,596.4688 662.2344,596.7969 Q661.1563,597.25 659.8594,597.25 Q658.3438,597.25 657.1406,596.625 Q656.1563,596.125 655.4688,595.0625 Q654.7813,593.9844 654.7813,592.7031 L654.7813,591.5469 Q654.7813,590.2188 655.3906,589.0781 Q656.0156,587.9219 657.1094,587.3125 Q658.2031,586.6875 659.4375,586.6875 Q660.1719,586.6875 660.8125,586.8594 Q661.4688,587.0156 662.0156,587.375 Z " fill="#000000"/><text fill="#000000" font-family="sans-serif" font-size="14" lengthAdjust="spacing" textLength="97" x="679.75" y="597.2969">ClientException</text><line style="stroke:#181818;stroke-width:0.5;" x1="573" x2="851" y1="607.5" y2="607.5"/><line style="stroke:#181818;stroke-width:0.5;" x1="573" x2="851" y1="615.5" y2="615.5"/><text fill="#000000" font-family="sans-serif" font-size="14" lengthAdjust="spacing" textLength="268" x="578" y="634.6074">+clientNotFound(clientID) : ClientException</text></g><!--class RuntimeException--><g id="elem_RuntimeException"><rect codeLine="72" fill="#F1F1F1" height="48" id="RuntimeException" rx="2.5" ry="2.5" style="stroke:#181818;stroke-width:0.5;" width="145" x="639.5" y="768"/><ellipse cx="654.5" cy="784" fill="#ADD1B2" rx="11" ry="11" style="stroke:#181818;stroke-width:1.0;"/><path d="M657.2656,779.875 Q657.4219,779.6563 657.6094,779.5469 Q657.7969,779.4375 658.0156,779.4375 Q658.3906,779.4375 658.625,779.7031 Q658.8594,779.9531 658.8594,780.5625 L658.8594,782.0156 Q658.8594,782.625 658.625,782.8906 Q658.3906,783.1563 658.0156,783.1563 Q657.6719,783.1563 657.4688,782.9531 Q657.2656,782.7656 657.1563,782.25 Q657.1094,781.8906 656.9219,781.7031 Q656.5938,781.3281 655.9844,781.1094 Q655.375,780.8906 654.75,780.8906 Q653.9844,780.8906 653.3438,781.2188 Q652.7188,781.5469 652.2188,782.2969 Q651.7344,783.0469 651.7344,784.0781 L651.7344,785.1719 Q651.7344,786.4063 652.625,787.2344 Q653.5156,788.0469 655.1094,788.0469 Q656.0469,788.0469 656.7031,787.7969 Q657.0938,787.6406 657.5156,787.2031 Q657.7813,786.9375 657.9219,786.8594 Q658.0781,786.7813 658.2813,786.7813 Q658.6094,786.7813 658.8594,787.0469 Q659.125,787.2969 659.125,787.6406 Q659.125,787.9844 658.7813,788.3906 Q658.2813,788.9688 657.4844,789.2969 Q656.4063,789.75 655.1094,789.75 Q653.5938,789.75 652.3906,789.125 Q651.4063,788.625 650.7188,787.5625 Q650.0313,786.4844 650.0313,785.2031 L650.0313,784.0469 Q650.0313,782.7188 650.6406,781.5781 Q651.2656,780.4219 652.3594,779.8125 Q653.4531,779.1875 654.6875,779.1875 Q655.4219,779.1875 656.0625,779.3594 Q656.7188,779.5156 657.2656,779.875 Z " fill="#000000"/><text fill="#000000" font-family="sans-serif" font-size="14" lengthAdjust="spacing" textLength="113" x="668.5" y="789.7969">RuntimeException</text><line style="stroke:#181818;stroke-width:0.5;" x1="640.5" x2="783.5" y1="800" y2="800"/><line style="stroke:#181818;stroke-width:0.5;" x1="640.5" x2="783.5" y1="808" y2="808"/></g><!--link RegisterClientUI to ClientController--><g id="link_RegisterClientUI_ClientController"><path codeLine="76" d="M524,92.19 C524,114.94 524,144.16 524,171.79 " fill="none" id="RegisterClientUI-to-ClientController" style="stroke:#181818;stroke-width:1.0;stroke-dasharray:7.0,7.0;"/><polygon fill="#181818" points="524,177.79,528,168.79,524,172.79,520,168.79,524,177.79" style="stroke:#181818;stroke-width:1.0;"/></g><!--link ClientController to ClientService--><g id="link_ClientController_ClientService"><path codeLine="77" d="M524,263.35 C524,288.91 524,315.76 524,342.86 " fill="none" id="ClientController-to-ClientService" style="stroke:#181818;stroke-width:1.0;stroke-dasharray:7.0,7.0;"/><polygon fill="#181818" points="524,348.86,528,339.86,524,343.86,520,339.86,524,348.86" style="stroke:#181818;stroke-width:1.0;"/></g><!--link ClientService to Repositories--><g id="link_ClientService_Repositories"><path codeLine="78" d="M418.48,451.48 C380.58,469.25 347,485 347,485 C347,485 293.4686,519.837 241.5386,553.637 " fill="none" id="ClientService-to-Repositories" style="stroke:#181818;stroke-width:1.0;stroke-dasharray:7.0,7.0;"/><polygon fill="#181818" points="236.51,556.91,246.235,555.3529,240.7005,554.1825,241.871,548.648,236.51,556.91" style="stroke:#181818;stroke-width:1.0;"/><text fill="#000000" font-family="sans-serif" font-size="13" lengthAdjust="spacing" textLength="67" x="348" y="500.0283">repositories</text></g><!--link ClientService to ClientRepository--><g id="link_ClientService_ClientRepository"><path codeLine="79" d="M494.71,453.14 C478.26,481.86 461,512 461,512 C461,512 389,661 389,661 C389,661 356.8559,698.9899 326.0359,735.4099 " fill="none" id="ClientService-to-ClientRepository" style="stroke:#181818;stroke-width:1.0;stroke-dasharray:7.0,7.0;"/><polygon fill="#181818" points="322.16,739.99,331.0272,735.7037,325.3899,736.1732,324.9204,730.5359,322.16,739.99" style="stroke:#181818;stroke-width:1.0;"/><text fill="#000000" font-family="sans-serif" font-size="13" lengthAdjust="spacing" textLength="93" x="462" y="614.5283">clientRepository</text></g><!--link ClientService to Client--><g id="link_ClientService_Client"><path codeLine="80" d="M629.55,435.75 C730.67,468.09 868,512 868,512 C868,512 868,868 868,868 C868,868 850.329,901.3782 828.479,942.6182 " fill="none" id="ClientService-to-Client" style="stroke:#181818;stroke-width:1.0;stroke-dasharray:7.0,7.0;"/><polygon fill="#181818" points="825.67,947.92,833.4181,941.84,828.0109,943.5018,826.349,938.0946,825.67,947.92" style="stroke:#181818;stroke-width:1.0;"/><text fill="#000000" font-family="sans-serif" font-size="13" lengthAdjust="spacing" textLength="31" x="869" y="706.0283">client</text></g><!--link Repositories to Repositories--><g id="link_Repositories_Repositories"><path codeLine="81" d="M293.02,593.57 C313.84,595.9 328,601.05 328,609 C328,616.95 319.8028,621.4327 298.9828,623.7627 " fill="none" id="Repositories-to-Repositories" style="stroke:#181818;stroke-width:1.0;"/><polygon fill="#181818" points="293.02,624.43,302.409,627.4042,297.989,623.8739,301.5193,619.4539,293.02,624.43" style="stroke:#181818;stroke-width:1.0;"/><text fill="#000000" font-family="sans-serif" font-size="13" lengthAdjust="spacing" textLength="49" x="334" y="614.5283">instance</text></g><!--link Repositories to ClientRepository--><g id="link_Repositories_ClientRepository"><path codeLine="82" d="M192.35,661.38 C208.77,685.94 225.0362,710.2715 241.4362,734.8115 " fill="none" id="Repositories-to-ClientRepository" style="stroke:#181818;stroke-width:1.0;"/><polygon fill="#181818" points="244.77,739.8,243.095,730.0946,241.9918,735.6429,236.4436,734.5397,244.77,739.8" style="stroke:#181818;stroke-width:1.0;"/><text fill="#000000" font-family="sans-serif" font-size="13" lengthAdjust="spacing" textLength="93" x="224" y="706.0283">clientRepository</text><text fill="#000000" font-family="sans-serif" font-size="13" lengthAdjust="spacing" textLength="7" x="189.1098" y="682.8541">1</text><text fill="#000000" font-family="sans-serif" font-size="13" lengthAdjust="spacing" textLength="7" x="232.7" y="728.7005">1</text></g><!--link ClientRepository to Client--><g id="link_ClientRepository_Client"><path codeLine="83" d="M372.11,840.49 C431.41,870.74 505.0551,908.3139 577.3051,945.1639 " fill="none" id="ClientRepository-to-Client" style="stroke:#181818;stroke-width:1.0;"/><polygon fill="#181818" points="582.65,947.89,576.45,940.2376,578.1959,945.6182,572.8152,947.3641,582.65,947.89" style="stroke:#181818;stroke-width:1.0;"/><text fill="#000000" font-family="sans-serif" font-size="13" lengthAdjust="spacing" textLength="60" x="468" y="891.0283">categories</text><text fill="#000000" font-family="sans-serif" font-size="13" lengthAdjust="spacing" textLength="7" x="380.1105" y="840.8477">1</text><text fill="#000000" font-family="sans-serif" font-size="13" lengthAdjust="spacing" textLength="5" x="562.8084" y="936.73">*</text></g><!--link Client to Address--><g id="link_Client_Address"><path codeLine="84" d="M743.8,1145.19 C735.78,1171.11 728.9915,1193.0475 721.3215,1217.8675 " fill="none" id="Client-to-Address" style="stroke:#181818;stroke-width:1.0;"/><polygon fill="#181818" points="719.55,1223.6,726.0289,1216.1822,721.0262,1218.8229,718.3856,1213.8202,719.55,1223.6" style="stroke:#181818;stroke-width:1.0;"/><text fill="#000000" font-family="sans-serif" font-size="13" lengthAdjust="spacing" textLength="21" x="735" y="1190.0283">has</text><text fill="#000000" font-family="sans-serif" font-size="13" lengthAdjust="spacing" textLength="5" x="736.3986" y="1167.1019">*</text><text fill="#000000" font-family="sans-serif" font-size="13" lengthAdjust="spacing" textLength="7" x="714.4248" y="1212.7358">1</text></g><!--link Client to CompanyType--><g id="link_Client_CompanyType"><path codeLine="85" d="M835.94,1145.19 C861.48,1185.48 886.496,1224.9334 906.446,1256.3834 " fill="none" id="Client-to-CompanyType" style="stroke:#181818;stroke-width:1.0;"/><polygon fill="#181818" points="909.66,1261.45,908.2168,1251.7075,906.9817,1257.2278,901.4613,1255.9927,909.66,1261.45" style="stroke:#181818;stroke-width:1.0;"/><text fill="#000000" font-family="sans-serif" font-size="13" lengthAdjust="spacing" textLength="21" x="865" y="1190.0283">has</text><text fill="#000000" font-family="sans-serif" font-size="13" lengthAdjust="spacing" textLength="5" x="835.3051" y="1167.1019">*</text><text fill="#000000" font-family="sans-serif" font-size="13" lengthAdjust="spacing" textLength="7" x="897.9042" y="1250.3461">1</text></g><!--link ClientService to ClientException--><g id="link_ClientService_ClientException"><path codeLine="86" d="M570.71,453.19 C605.62,491.44 648.2448,538.1487 678.2148,570.9787 " fill="none" id="ClientService-to-ClientException" style="stroke:#181818;stroke-width:1.0;stroke-dasharray:7.0,7.0;"/><polygon fill="#181818" points="682.26,575.41,679.1463,566.0663,678.889,571.7173,673.238,571.4599,682.26,575.41" style="stroke:#181818;stroke-width:1.0;"/><text fill="#000000" font-family="sans-serif" font-size="13" lengthAdjust="spacing" textLength="38" x="613" y="500.0283">throws</text></g><!--link ClientException to RuntimeException--><g id="link_ClientException_RuntimeException"><path codeLine="87" d="M712,642.78 C712,678.94 712,718.21 712,749.94 " fill="none" id="ClientException-to-RuntimeException" style="stroke:#181818;stroke-width:1.0;"/><polygon fill="none" points="712,767.94,718,749.94,706,749.94,712,767.94" style="stroke:#181818;stroke-width:1.0;"/></g><!--SRC=[dLN1Zfim4Btp5HOdqeLLUusgI3Hf9QJTj4gQbNfqO4giDJR2pgPik_zU0mussDjMvKAOUUDvypmp4O-4rRZ15Qfn_eXBsCkM0ceWbvYL508n0iG95_n2M8c-Oofi3oKCP5i3gZbjkm_BbrCiH2fbGuvd2LdEsPuy0teR13eX2WzPY7u6I3qz6EsW9492iwO4c3naslaIl5X1Qyvamoc5PXey11clTdRFJGaofNH0Y6Y1bkXE9Ne_65O6Lm052OCvoljNjkdWWyd3PW_D4yd1HqMxPZp-IY8PGH_QR1EzHkC_-UwWve98thHpwRMTWB0O9xOzMamgoPXGhP93NugDyzHhqaQ6dZ5geew41k7UvX-kKG6KTiL4aIFd532RQwSnSyHKj7kkmBuhjfMw9bCd4UkE4bmK3QY89Kg7NyR5S0NAlbSpmafZViAIC8-zFd46stDrLCqzIm8L9jGJqW-dqfjNDMRjL_Lb19YrJOmwEZ7IV6FKquYHbJL6VPuOTSSkt4lJ1Tgga69ELSW6G7guFfDwhOJsLS4lFZroVbR3thgU6qqa8aMCXdmnqiShykgq6EdWIHN0pfMjbLL8jjra3zdcaDwDflNd-o_fzfkdNpx-oA6MX3DVpunEkwM7IzXo-KdHAZoZF4QvgkzK8QG2Wr3Um5cbjxShPqK6piuqABszWkakw_oJLR5K_nZMvBjePv2NA9zF_sjH8pQOv4mIXmJHksWA3D-5FRXx_piF2pCUy2QqA649fLrkxxxcISTnFs4lmEul6-IMRpfbYUIfuPShr3YIvDVARO3V]--></g></svg>