<?xml version="1.0" encoding="us-ascii" standalone="no"?><svg xmlns="http://www.w3.org/2000/svg" xmlns:xlink="http://www.w3.org/1999/xlink" contentStyleType="text/css" height="827.2px" preserveAspectRatio="none" style="width:807px;height:827px;background:#FFFFFF;" version="1.1" viewBox="0 0 807 827" width="807.2px" zoomAndPan="magnify"><defs/><g><text fill="#000000" font-family="sans-serif" font-size="11.2" font-weight="bold" lengthAdjust="spacing" textLength="182.4" x="318" y="24.0859">System Sequence Diagram (SSD)</text><rect fill="#FFFFFF" height="647.1406" style="stroke:#181818;stroke-width:0.8000000000000002;" width="8" x="89.6" y="106.5938"/><rect fill="#FFFFFF" height="25.0328" style="stroke:#181818;stroke-width:0.8000000000000002;" width="8" x="637.6" y="125.2266"/><rect fill="#FFFFFF" height="81.4984" style="stroke:#181818;stroke-width:0.8000000000000002;" width="8" x="637.6" y="175.2922"/><rect fill="#FFFFFF" height="25.0328" style="stroke:#181818;stroke-width:0.8000000000000002;" width="8" x="637.6" y="320.1609"/><rect fill="#FFFFFF" height="81.4984" style="stroke:#181818;stroke-width:0.8000000000000002;" width="8" x="637.6" y="370.2266"/><rect fill="#FFFFFF" height="81.4984" style="stroke:#181818;stroke-width:0.8000000000000002;" width="8" x="637.6" y="515.0953"/><rect fill="none" height="329.675" style="stroke:#000000;stroke-width:1.2000000000000002;" width="751.2" x="16" y="417.6594"/><rect fill="none" height="179.2063" style="stroke:#000000;stroke-width:1.2000000000000002;" width="735.2" x="24" y="562.5281"/><rect fill="none" height="78.8031" style="stroke:#000000;stroke-width:1.2000000000000002;" width="643.2" x="32" y="657.3313"/><line style="stroke:#181818;stroke-width:0.4000000000000001;stroke-dasharray:5.0,5.0;" x1="93.6" x2="93.6" y1="98.5938" y2="760.9344"/><line style="stroke:#181818;stroke-width:0.4000000000000001;stroke-dasharray:5.0,5.0;" x1="641.6" x2="641.6" y1="98.5938" y2="760.9344"/><text fill="#000000" font-family="sans-serif" font-size="11.2" lengthAdjust="spacing" textLength="102.4" x="40" y="95.7828">Production Manager</text><ellipse cx="93.6" cy="42.4969" fill="#E3E3E3" rx="6.4" ry="6.4" style="stroke:#181818;stroke-width:0.4000000000000001;"/><path d="M93.6,48.8969 L93.6,70.4969 M83.2,55.2969 L104,55.2969 M93.6,70.4969 L83.2,82.4969 M93.6,70.4969 L104,82.4969 " fill="none" style="stroke:#181818;stroke-width:0.4000000000000001;"/><text fill="#000000" font-family="sans-serif" font-size="11.2" lengthAdjust="spacing" textLength="102.4" x="40" y="772.2203">Production Manager</text><ellipse cx="93.6" cy="781.8313" fill="#E3E3E3" rx="6.4" ry="6.4" style="stroke:#181818;stroke-width:0.4000000000000001;"/><path d="M93.6,788.2313 L93.6,809.8313 M83.2,794.6313 L104,794.6313 M93.6,809.8313 L83.2,821.8313 M93.6,809.8313 L104,821.8313 " fill="none" style="stroke:#181818;stroke-width:0.4000000000000001;"/><rect fill="#E3E3E3" height="26.0969" rx="2" ry="2" style="stroke:#181818;stroke-width:0.4000000000000001;" width="51.2" x="616" y="71.6969"/><text fill="#000000" font-family="sans-serif" font-size="11.2" lengthAdjust="spacing" textLength="40" x="621.6" y="89.3828">:System</text><rect fill="#E3E3E3" height="26.0969" rx="2" ry="2" style="stroke:#181818;stroke-width:0.4000000000000001;" width="51.2" x="616" y="760.1344"/><text fill="#000000" font-family="sans-serif" font-size="11.2" lengthAdjust="spacing" textLength="40" x="621.6" y="777.8203">:System</text><rect fill="#FFFFFF" height="647.1406" style="stroke:#181818;stroke-width:0.8000000000000002;" width="8" x="89.6" y="106.5938"/><rect fill="#FFFFFF" height="25.0328" style="stroke:#181818;stroke-width:0.8000000000000002;" width="8" x="637.6" y="125.2266"/><rect fill="#FFFFFF" height="81.4984" style="stroke:#181818;stroke-width:0.8000000000000002;" width="8" x="637.6" y="175.2922"/><rect fill="#FFFFFF" height="25.0328" style="stroke:#181818;stroke-width:0.8000000000000002;" width="8" x="637.6" y="320.1609"/><rect fill="#FFFFFF" height="81.4984" style="stroke:#181818;stroke-width:0.8000000000000002;" width="8" x="637.6" y="370.2266"/><rect fill="#FFFFFF" height="81.4984" style="stroke:#181818;stroke-width:0.8000000000000002;" width="8" x="637.6" y="515.0953"/><polygon fill="#181818" points="628,122.0266,636,125.2266,628,128.4266,631.2,125.2266" style="stroke:#181818;stroke-width:0.8000000000000002;"/><line style="stroke:#181818;stroke-width:0.8000000000000002;" x1="97.6" x2="632.8" y1="125.2266" y2="125.2266"/><text fill="#000000" font-family="sans-serif" font-size="10.4" font-weight="bold" lengthAdjust="spacing" textLength="5.6" x="103.2" y="121.0164">1</text><text fill="#000000" font-family="sans-serif" font-size="10.4" lengthAdjust="spacing" textLength="109.6" x="112" y="121.0164">asks to update an order</text><polygon fill="#181818" points="106.4,147.0594,98.4,150.2594,106.4,153.4594,103.2,150.2594" style="stroke:#181818;stroke-width:0.8000000000000002;"/><line style="stroke:#181818;stroke-width:0.8000000000000002;stroke-dasharray:2.0,2.0;" x1="101.6" x2="640.8" y1="150.2594" y2="150.2594"/><text fill="#000000" font-family="sans-serif" font-size="10.4" font-weight="bold" lengthAdjust="spacing" textLength="5.6" x="111.2" y="146.0492">2</text><text fill="#000000" font-family="sans-serif" font-size="10.4" lengthAdjust="spacing" textLength="211.2" x="120" y="146.0492">shows the list of clients and requests client id</text><polygon fill="#181818" points="628,172.0922,636,175.2922,628,178.4922,631.2,175.2922" style="stroke:#181818;stroke-width:0.8000000000000002;"/><line style="stroke:#181818;stroke-width:0.8000000000000002;" x1="97.6" x2="632.8" y1="175.2922" y2="175.2922"/><text fill="#000000" font-family="sans-serif" font-size="10.4" font-weight="bold" lengthAdjust="spacing" textLength="5.6" x="103.2" y="171.082">3</text><text fill="#000000" font-family="sans-serif" font-size="10.4" lengthAdjust="spacing" textLength="125.6" x="112" y="171.082">provides requested client id</text><line style="stroke:#181818;stroke-width:0.8000000000000002;" x1="645.6" x2="679.2" y1="200.325" y2="200.325"/><line style="stroke:#181818;stroke-width:0.8000000000000002;" x1="679.2" x2="679.2" y1="200.325" y2="210.725"/><line style="stroke:#181818;stroke-width:0.8000000000000002;" x1="646.4" x2="679.2" y1="210.725" y2="210.725"/><polygon fill="#181818" points="654.4,207.525,646.4,210.725,654.4,213.925,651.2,210.725" style="stroke:#181818;stroke-width:0.8000000000000002;"/><text fill="#000000" font-family="sans-serif" font-size="10.4" font-weight="bold" lengthAdjust="spacing" textLength="5.6" x="651.2" y="196.1148">4</text><text fill="#000000" font-family="sans-serif" font-size="10.4" lengthAdjust="spacing" textLength="137.6" x="660" y="196.1148">checks if client already exists</text><polygon fill="#181818" points="106.4,253.5906,98.4,256.7906,106.4,259.9906,103.2,256.7906" style="stroke:#181818;stroke-width:0.8000000000000002;"/><line style="stroke:#181818;stroke-width:0.8000000000000002;stroke-dasharray:2.0,2.0;" x1="101.6" x2="640.8" y1="256.7906" y2="256.7906"/><text fill="#000000" font-family="sans-serif" font-size="10.4" font-weight="bold" lengthAdjust="spacing" textLength="5.6" x="111.2" y="252.5805">5</text><text fill="#000000" font-family="sans-serif" font-size="10.4" lengthAdjust="spacing" textLength="204" x="120" y="252.5805">shows error message (Client does not exist)</text><polygon fill="#181818" points="106.4,291.9281,98.4,295.1281,106.4,298.3281,103.2,295.1281" style="stroke:#181818;stroke-width:0.8000000000000002;"/><line style="stroke:#181818;stroke-width:0.8000000000000002;stroke-dasharray:2.0,2.0;" x1="101.6" x2="640.8" y1="295.1281" y2="295.1281"/><text fill="#000000" font-family="sans-serif" font-size="10.4" font-weight="bold" lengthAdjust="spacing" textLength="5.6" x="111.2" y="290.918">6</text><text fill="#000000" font-family="sans-serif" font-size="10.4" lengthAdjust="spacing" textLength="244.8" x="120" y="290.918">shows the client's order list and asks for confirmation</text><polygon fill="#181818" points="628,316.9609,636,320.1609,628,323.3609,631.2,320.1609" style="stroke:#181818;stroke-width:0.8000000000000002;"/><line style="stroke:#181818;stroke-width:0.8000000000000002;" x1="97.6" x2="632.8" y1="320.1609" y2="320.1609"/><text fill="#000000" font-family="sans-serif" font-size="10.4" font-weight="bold" lengthAdjust="spacing" textLength="5.6" x="103.2" y="315.9508">7</text><text fill="#000000" font-family="sans-serif" font-size="10.4" lengthAdjust="spacing" textLength="192" x="112" y="315.9508">confirms that he wants to update an order</text><polygon fill="#181818" points="106.4,341.9938,98.4,345.1938,106.4,348.3938,103.2,345.1938" style="stroke:#181818;stroke-width:0.8000000000000002;"/><line style="stroke:#181818;stroke-width:0.8000000000000002;stroke-dasharray:2.0,2.0;" x1="101.6" x2="640.8" y1="345.1938" y2="345.1938"/><text fill="#000000" font-family="sans-serif" font-size="10.4" font-weight="bold" lengthAdjust="spacing" textLength="5.6" x="111.2" y="340.9836">8</text><text fill="#000000" font-family="sans-serif" font-size="10.4" lengthAdjust="spacing" textLength="77.6" x="120" y="340.9836">requests order id</text><polygon fill="#181818" points="628,367.0266,636,370.2266,628,373.4266,631.2,370.2266" style="stroke:#181818;stroke-width:0.8000000000000002;"/><line style="stroke:#181818;stroke-width:0.8000000000000002;" x1="97.6" x2="632.8" y1="370.2266" y2="370.2266"/><text fill="#000000" font-family="sans-serif" font-size="10.4" font-weight="bold" lengthAdjust="spacing" textLength="5.6" x="103.2" y="366.0164">9</text><text fill="#000000" font-family="sans-serif" font-size="10.4" lengthAdjust="spacing" textLength="124" x="112" y="366.0164">provides requested order id</text><line style="stroke:#181818;stroke-width:0.8000000000000002;" x1="645.6" x2="679.2" y1="395.2594" y2="395.2594"/><line style="stroke:#181818;stroke-width:0.8000000000000002;" x1="679.2" x2="679.2" y1="395.2594" y2="405.6594"/><line style="stroke:#181818;stroke-width:0.8000000000000002;" x1="646.4" x2="679.2" y1="405.6594" y2="405.6594"/><polygon fill="#181818" points="654.4,402.4594,646.4,405.6594,654.4,408.8594,651.2,405.6594" style="stroke:#181818;stroke-width:0.8000000000000002;"/><text fill="#000000" font-family="sans-serif" font-size="10.4" font-weight="bold" lengthAdjust="spacing" textLength="11.2" x="651.2" y="391.0492">10</text><text fill="#000000" font-family="sans-serif" font-size="10.4" lengthAdjust="spacing" textLength="136" x="665.6" y="391.0492">checks if order already exists</text><path d="M16,417.6594 L64.8,417.6594 L64.8,425.0922 L56.8,433.0922 L16,433.0922 L16,417.6594 " fill="#EEEEEE" style="stroke:#000000;stroke-width:1.2000000000000002;"/><rect fill="none" height="329.675" style="stroke:#000000;stroke-width:1.2000000000000002;" width="751.2" x="16" y="417.6594"/><text fill="#000000" font-family="sans-serif" font-size="10.4" font-weight="bold" lengthAdjust="spacing" textLength="12.8" x="28" y="429.682">alt</text><text fill="#000000" font-family="sans-serif" font-size="8.8" font-weight="bold" lengthAdjust="spacing" textLength="96.8" x="76.8" y="428.7555">[order does not exist]</text><polygon fill="#181818" points="106.4,448.525,98.4,451.725,106.4,454.925,103.2,451.725" style="stroke:#181818;stroke-width:0.8000000000000002;"/><line style="stroke:#181818;stroke-width:0.8000000000000002;stroke-dasharray:2.0,2.0;" x1="101.6" x2="640.8" y1="451.725" y2="451.725"/><text fill="#000000" font-family="sans-serif" font-size="10.4" font-weight="bold" lengthAdjust="spacing" textLength="11.2" x="111.2" y="447.5148">11</text><text fill="#000000" font-family="sans-serif" font-size="10.4" lengthAdjust="spacing" textLength="203.2" x="125.6" y="447.5148">shows error message (Order does not exist)</text><line style="stroke:#000000;stroke-width:0.8000000000000002;stroke-dasharray:2.0,2.0;" x1="16" x2="767.2" y1="458.925" y2="458.925"/><text fill="#000000" font-family="sans-serif" font-size="8.8" font-weight="bold" lengthAdjust="spacing" textLength="60.8" x="20" y="468.4211">[order exists]</text><polygon fill="#181818" points="106.4,486.8625,98.4,490.0625,106.4,493.2625,103.2,490.0625" style="stroke:#181818;stroke-width:0.8000000000000002;"/><line style="stroke:#181818;stroke-width:0.8000000000000002;stroke-dasharray:2.0,2.0;" x1="101.6" x2="640.8" y1="490.0625" y2="490.0625"/><text fill="#000000" font-family="sans-serif" font-size="10.4" font-weight="bold" lengthAdjust="spacing" textLength="11.2" x="111.2" y="485.8523">12</text><text fill="#000000" font-family="sans-serif" font-size="10.4" lengthAdjust="spacing" textLength="510.4" x="125.6" y="485.8523">shows all data of order and requests data to be update (i.e. Order Date, Delivery Date, Delivery Address, Price)</text><polygon fill="#181818" points="628,511.8953,636,515.0953,628,518.2953,631.2,515.0953" style="stroke:#181818;stroke-width:0.8000000000000002;"/><line style="stroke:#181818;stroke-width:0.8000000000000002;" x1="97.6" x2="632.8" y1="515.0953" y2="515.0953"/><text fill="#000000" font-family="sans-serif" font-size="10.4" font-weight="bold" lengthAdjust="spacing" textLength="11.2" x="103.2" y="510.8852">13</text><text fill="#000000" font-family="sans-serif" font-size="10.4" lengthAdjust="spacing" textLength="97.6" x="117.6" y="510.8852">types requested data</text><line style="stroke:#181818;stroke-width:0.8000000000000002;" x1="645.6" x2="679.2" y1="540.1281" y2="540.1281"/><line style="stroke:#181818;stroke-width:0.8000000000000002;" x1="679.2" x2="679.2" y1="540.1281" y2="550.5281"/><line style="stroke:#181818;stroke-width:0.8000000000000002;" x1="646.4" x2="679.2" y1="550.5281" y2="550.5281"/><polygon fill="#181818" points="654.4,547.3281,646.4,550.5281,654.4,553.7281,651.2,550.5281" style="stroke:#181818;stroke-width:0.8000000000000002;"/><text fill="#000000" font-family="sans-serif" font-size="10.4" font-weight="bold" lengthAdjust="spacing" textLength="11.2" x="651.2" y="535.918">14</text><text fill="#000000" font-family="sans-serif" font-size="10.4" lengthAdjust="spacing" textLength="80.8" x="665.6" y="535.918">validates the data</text><path d="M24,562.5281 L72.8,562.5281 L72.8,569.9609 L64.8,577.9609 L24,577.9609 L24,562.5281 " fill="#EEEEEE" style="stroke:#000000;stroke-width:1.2000000000000002;"/><rect fill="none" height="179.2063" style="stroke:#000000;stroke-width:1.2000000000000002;" width="735.2" x="24" y="562.5281"/><text fill="#000000" font-family="sans-serif" font-size="10.4" font-weight="bold" lengthAdjust="spacing" textLength="12.8" x="36" y="574.5508">alt</text><text fill="#000000" font-family="sans-serif" font-size="8.8" font-weight="bold" lengthAdjust="spacing" textLength="55.2" x="84.8" y="573.6242">[invalid data]</text><polygon fill="#181818" points="106.4,593.3938,98.4,596.5938,106.4,599.7938,103.2,596.5938" style="stroke:#181818;stroke-width:0.8000000000000002;"/><line style="stroke:#181818;stroke-width:0.8000000000000002;stroke-dasharray:2.0,2.0;" x1="101.6" x2="640.8" y1="596.5938" y2="596.5938"/><text fill="#000000" font-family="sans-serif" font-size="10.4" font-weight="bold" lengthAdjust="spacing" textLength="11.2" x="111.2" y="592.3836">15</text><text fill="#000000" font-family="sans-serif" font-size="10.4" lengthAdjust="spacing" textLength="160" x="125.6" y="592.3836">shows error message (Invalid data)</text><line style="stroke:#000000;stroke-width:0.8000000000000002;stroke-dasharray:2.0,2.0;" x1="24" x2="759.2" y1="603.7938" y2="603.7938"/><text fill="#000000" font-family="sans-serif" font-size="8.8" font-weight="bold" lengthAdjust="spacing" textLength="47.2" x="28" y="613.2898">[valid data]</text><line style="stroke:#181818;stroke-width:0.8000000000000002;" x1="641.6" x2="675.2" y1="634.9313" y2="634.9313"/><line style="stroke:#181818;stroke-width:0.8000000000000002;" x1="675.2" x2="675.2" y1="634.9313" y2="645.3313"/><line style="stroke:#181818;stroke-width:0.8000000000000002;" x1="642.4" x2="675.2" y1="645.3313" y2="645.3313"/><polygon fill="#181818" points="650.4,642.1313,642.4,645.3313,650.4,648.5313,647.2,645.3313" style="stroke:#181818;stroke-width:0.8000000000000002;"/><text fill="#000000" font-family="sans-serif" font-size="10.4" font-weight="bold" lengthAdjust="spacing" textLength="11.2" x="647.2" y="630.7211">16</text><text fill="#000000" font-family="sans-serif" font-size="10.4" lengthAdjust="spacing" textLength="88" x="661.6" y="630.7211">updates client data</text><path d="M32,657.3313 L80.8,657.3313 L80.8,664.7641 L72.8,672.7641 L32,672.7641 L32,657.3313 " fill="#EEEEEE" style="stroke:#000000;stroke-width:1.2000000000000002;"/><rect fill="none" height="78.8031" style="stroke:#000000;stroke-width:1.2000000000000002;" width="643.2" x="32" y="657.3313"/><text fill="#000000" font-family="sans-serif" font-size="10.4" font-weight="bold" lengthAdjust="spacing" textLength="12.8" x="44" y="669.3539">alt</text><text fill="#000000" font-family="sans-serif" font-size="8.8" font-weight="bold" lengthAdjust="spacing" textLength="65.6" x="92.8" y="668.4273">[system error]</text><polygon fill="#181818" points="106.4,688.1969,98.4,691.3969,106.4,694.5969,103.2,691.3969" style="stroke:#181818;stroke-width:0.8000000000000002;"/><line style="stroke:#181818;stroke-width:0.8000000000000002;stroke-dasharray:2.0,2.0;" x1="101.6" x2="640.8" y1="691.3969" y2="691.3969"/><text fill="#000000" font-family="sans-serif" font-size="10.4" font-weight="bold" lengthAdjust="spacing" textLength="11.2" x="111.2" y="687.1867">17</text><text fill="#000000" font-family="sans-serif" font-size="10.4" lengthAdjust="spacing" textLength="176.8" x="125.6" y="687.1867">shows error message (Database error)</text><line style="stroke:#000000;stroke-width:0.8000000000000002;stroke-dasharray:2.0,2.0;" x1="32" x2="675.2" y1="698.5969" y2="698.5969"/><text fill="#000000" font-family="sans-serif" font-size="8.8" font-weight="bold" lengthAdjust="spacing" textLength="44" x="36" y="708.093">[success]</text><polygon fill="#181818" points="106.4,726.5344,98.4,729.7344,106.4,732.9344,103.2,729.7344" style="stroke:#181818;stroke-width:0.8000000000000002;"/><line style="stroke:#181818;stroke-width:0.8000000000000002;stroke-dasharray:2.0,2.0;" x1="101.6" x2="640.8" y1="729.7344" y2="729.7344"/><text fill="#000000" font-family="sans-serif" font-size="10.4" font-weight="bold" lengthAdjust="spacing" textLength="11.2" x="111.2" y="725.5242">18</text><text fill="#000000" font-family="sans-serif" font-size="10.4" lengthAdjust="spacing" textLength="216" x="125.6" y="725.5242">shows all data and displays operation success</text><!--SRC=[hLJBZk8m4BpdArfS5gIP-G0EAwsMonxG8kKB6hi12yVEs0vi_dxRCOvu96pGR4v9N5rTxIhR7vMfqM45bJLM79oj289hgF3zIetYY7igGwi978c0Pg-l0Vw0qfwLsSCEjQUY22emj6nze0fA-cp828ALmds4pyjojIWAR88rJRKbn-yYM0UpZREo4K5P0siqtDFD03rirWKt2age6as0sJ8nTslfjMDG9mmKmGNmird3-_UiOSdGeuTWeQbbHA41woItZj2-DfF1vRbKlpCHqorvK7jcbWE1LZw0tO7GYapmp2TvQtXGpn_f9oZP4KaQvB_JLpjxKf9yPY5vHpD8aWLU4Oa32HvLPMs0sX7A5kWFQ_RzRAX3HaZBVOqD2T8Zdky2ESUMLUGz-mJpdqDKYnkknut8AyIfoM8kCYTua0g- -UHaiYJwq5czOt72cfro5SP0lM35fImsmG3Sw8pHug-6fuz7allLTDomZ8huPqWIpKX6SauIw7_4vFS0q-A1QZmfVLgIf6bXGQs1ZSDuO2_pNX_NRedTtL8sUAu-w0EIrXN_U8CLQNKYrzv__f3IyMnli75AqE85IqDRt_WPLKmBr1N92RMAYjE1w2coRyfqWDk5oLxzkgf-wIIFD1sP8UrvVsiEbiLXV2heH3u09W_5_k4MMMJtVp58z3n-_PY-4O9fNz3I1p7cJofVQspvFgZ9TNVKKyO9eeminhxZ-ry0]--></g></svg>