<?xml version="1.0" encoding="us-ascii" standalone="no"?><svg xmlns="http://www.w3.org/2000/svg" xmlns:xlink="http://www.w3.org/1999/xlink" contentStyleType="text/css" height="751.8px" preserveAspectRatio="none" style="width:510px;height:751px;background:#FFFFFF;" version="1.1" viewBox="0 0 510 751" width="511px" zoomAndPan="magnify"><defs/><g><text fill="#000000" font-family="sans-serif" font-size="9.8" font-weight="bold" lengthAdjust="spacing" textLength="159.6" x="177.275" y="21.0752">System Sequence Diagram (SSD)</text><rect fill="#FFFFFF" height="594.2139" style="stroke:#181818;stroke-width:0.6999999999999998;" width="7" x="55.65" y="93.2695"/><rect fill="#FFFFFF" height="21.9037" style="stroke:#181818;stroke-width:0.6999999999999998;" width="7" x="366.45" y="109.5732"/><rect fill="#FFFFFF" height="71.3111" style="stroke:#181818;stroke-width:0.6999999999999998;" width="7" x="366.45" y="153.3807"/><rect fill="#FFFFFF" height="21.9037" style="stroke:#181818;stroke-width:0.6999999999999998;" width="7" x="366.45" y="280.1408"/><rect fill="#FFFFFF" height="21.9037" style="stroke:#181818;stroke-width:0.6999999999999998;" width="7" x="366.45" y="323.9482"/><rect fill="#FFFFFF" height="21.9037" style="stroke:#181818;stroke-width:0.6999999999999998;" width="7" x="366.45" y="367.7557"/><rect fill="#FFFFFF" height="40.3074" style="stroke:#181818;stroke-width:0.6999999999999998;" width="7" x="366.45" y="411.5631"/><rect fill="#FFFFFF" height="76.2111" style="stroke:#181818;stroke-width:0.6999999999999998;" width="7" x="366.45" y="473.7742"/><rect fill="none" height="486.999" style="stroke:#000000;stroke-width:1.0499999999999998;" width="463.05" x="7" y="194.8844"/><rect fill="none" height="57.3111" style="stroke:#000000;stroke-width:1.0499999999999998;" width="378.35" x="21" y="422.0631"/><rect fill="none" height="156.8055" style="stroke:#000000;stroke-width:1.0499999999999998;" width="448.35" x="14" y="520.1779"/><rect fill="none" height="68.9527" style="stroke:#000000;stroke-width:1.0499999999999998;" width="378.35" x="21" y="603.1307"/><line style="stroke:#181818;stroke-width:0.3499999999999999;stroke-dasharray:5.0,5.0;" x1="58.8" x2="58.8" y1="86.2695" y2="693.7834"/><line style="stroke:#181818;stroke-width:0.3499999999999999;stroke-dasharray:5.0,5.0;" x1="369.95" x2="369.95" y1="86.2695" y2="693.7834"/><text fill="#000000" font-family="sans-serif" font-size="9.8" lengthAdjust="spacing" textLength="58.1" x="28" y="83.81">Administrator</text><ellipse cx="59.15" cy="37.1848" fill="#E3E3E3" rx="5.6" ry="5.6" style="stroke:#181818;stroke-width:0.3499999999999999;"/><path d="M59.15,42.7848 L59.15,61.6848 M50.05,48.3848 L68.25,48.3848 M59.15,61.6848 L50.05,72.1848 M59.15,61.6848 L68.25,72.1848 " fill="none" style="stroke:#181818;stroke-width:0.3499999999999999;"/><text fill="#000000" font-family="sans-serif" font-size="9.8" lengthAdjust="spacing" textLength="58.1" x="28" y="703.6586">Administrator</text><ellipse cx="59.15" cy="712.0682" fill="#E3E3E3" rx="5.6" ry="5.6" style="stroke:#181818;stroke-width:0.3499999999999999;"/><path d="M59.15,717.6682 L59.15,736.5682 M50.05,723.2682 L68.25,723.2682 M59.15,736.5682 L50.05,747.0682 M59.15,736.5682 L68.25,747.0682 " fill="none" style="stroke:#181818;stroke-width:0.3499999999999999;"/><rect fill="#E3E3E3" height="22.8348" rx="1.75" ry="1.75" style="stroke:#181818;stroke-width:0.3499999999999999;" width="44.8" x="347.55" y="62.7348"/><text fill="#000000" font-family="sans-serif" font-size="9.8" lengthAdjust="spacing" textLength="35" x="352.45" y="78.21">:System</text><rect fill="#E3E3E3" height="22.8348" rx="1.75" ry="1.75" style="stroke:#181818;stroke-width:0.3499999999999999;" width="44.8" x="347.55" y="693.0834"/><text fill="#000000" font-family="sans-serif" font-size="9.8" lengthAdjust="spacing" textLength="35" x="352.45" y="708.5586">:System</text><rect fill="#FFFFFF" height="594.2139" style="stroke:#181818;stroke-width:0.6999999999999998;" width="7" x="55.65" y="93.2695"/><rect fill="#FFFFFF" height="21.9037" style="stroke:#181818;stroke-width:0.6999999999999998;" width="7" x="366.45" y="109.5732"/><rect fill="#FFFFFF" height="71.3111" style="stroke:#181818;stroke-width:0.6999999999999998;" width="7" x="366.45" y="153.3807"/><rect fill="#FFFFFF" height="21.9037" style="stroke:#181818;stroke-width:0.6999999999999998;" width="7" x="366.45" y="280.1408"/><rect fill="#FFFFFF" height="21.9037" style="stroke:#181818;stroke-width:0.6999999999999998;" width="7" x="366.45" y="323.9482"/><rect fill="#FFFFFF" height="21.9037" style="stroke:#181818;stroke-width:0.6999999999999998;" width="7" x="366.45" y="367.7557"/><rect fill="#FFFFFF" height="40.3074" style="stroke:#181818;stroke-width:0.6999999999999998;" width="7" x="366.45" y="411.5631"/><rect fill="#FFFFFF" height="76.2111" style="stroke:#181818;stroke-width:0.6999999999999998;" width="7" x="366.45" y="473.7742"/><polygon fill="#181818" points="358.05,106.7732,365.05,109.5732,358.05,112.3732,360.85,109.5732" style="stroke:#181818;stroke-width:0.6999999999999998;"/><line style="stroke:#181818;stroke-width:0.6999999999999998;" x1="62.65" x2="362.25" y1="109.5732" y2="109.5732"/><text fill="#000000" font-family="sans-serif" font-size="9.1" font-weight="bold" lengthAdjust="spacing" textLength="4.9" x="67.55" y="105.8894">1</text><text fill="#000000" font-family="sans-serif" font-size="9.1" lengthAdjust="spacing" textLength="112.7" x="75.25" y="105.8894">asks to register a new order</text><polygon fill="#181818" points="70.35,128.677,63.35,131.477,70.35,134.277,67.55,131.477" style="stroke:#181818;stroke-width:0.6999999999999998;"/><line style="stroke:#181818;stroke-width:0.6999999999999998;stroke-dasharray:2.0,2.0;" x1="66.15" x2="369.25" y1="131.477" y2="131.477"/><text fill="#000000" font-family="sans-serif" font-size="9.1" font-weight="bold" lengthAdjust="spacing" textLength="4.9" x="74.55" y="127.7931">2</text><text fill="#000000" font-family="sans-serif" font-size="9.1" lengthAdjust="spacing" textLength="184.8" x="82.25" y="127.7931">shows the list of clients and requests client id</text><polygon fill="#181818" points="358.05,150.5807,365.05,153.3807,358.05,156.1807,360.85,153.3807" style="stroke:#181818;stroke-width:0.6999999999999998;"/><line style="stroke:#181818;stroke-width:0.6999999999999998;" x1="62.65" x2="362.25" y1="153.3807" y2="153.3807"/><text fill="#000000" font-family="sans-serif" font-size="9.1" font-weight="bold" lengthAdjust="spacing" textLength="4.9" x="67.55" y="149.6968">3</text><text fill="#000000" font-family="sans-serif" font-size="9.1" lengthAdjust="spacing" textLength="85.4" x="75.25" y="149.6968">provides requested id</text><line style="stroke:#181818;stroke-width:0.6999999999999998;" x1="373.45" x2="402.85" y1="175.2844" y2="175.2844"/><line style="stroke:#181818;stroke-width:0.6999999999999998;" x1="402.85" x2="402.85" y1="175.2844" y2="184.3844"/><line style="stroke:#181818;stroke-width:0.6999999999999998;" x1="374.15" x2="402.85" y1="184.3844" y2="184.3844"/><polygon fill="#181818" points="381.15,181.5844,374.15,184.3844,381.15,187.1844,378.35,184.3844" style="stroke:#181818;stroke-width:0.6999999999999998;"/><text fill="#000000" font-family="sans-serif" font-size="9.1" font-weight="bold" lengthAdjust="spacing" textLength="4.9" x="378.35" y="171.6005">4</text><text fill="#000000" font-family="sans-serif" font-size="9.1" lengthAdjust="spacing" textLength="120.4" x="386.05" y="171.6005">checks if client already exists</text><path d="M7,194.8844 L49.7,194.8844 L49.7,201.3881 L42.7,208.3881 L7,208.3881 L7,194.8844 " fill="#EEEEEE" style="stroke:#000000;stroke-width:1.0499999999999998;"/><rect fill="none" height="486.999" style="stroke:#000000;stroke-width:1.0499999999999998;" width="463.05" x="7" y="194.8844"/><text fill="#000000" font-family="sans-serif" font-size="9.1" font-weight="bold" lengthAdjust="spacing" textLength="11.2" x="17.5" y="205.4042">alt</text><text fill="#000000" font-family="sans-serif" font-size="7.7" font-weight="bold" lengthAdjust="spacing" textLength="84" x="60.2" y="204.5935">[client does not exist]</text><polygon fill="#181818" points="70.35,221.8918,63.35,224.6918,70.35,227.4918,67.55,224.6918" style="stroke:#181818;stroke-width:0.6999999999999998;"/><line style="stroke:#181818;stroke-width:0.6999999999999998;stroke-dasharray:2.0,2.0;" x1="66.15" x2="369.25" y1="224.6918" y2="224.6918"/><text fill="#000000" font-family="sans-serif" font-size="9.1" font-weight="bold" lengthAdjust="spacing" textLength="4.9" x="74.55" y="221.0079">5</text><text fill="#000000" font-family="sans-serif" font-size="9.1" lengthAdjust="spacing" textLength="178.5" x="82.25" y="221.0079">shows error message (Client does not exist)</text><line style="stroke:#000000;stroke-width:0.6999999999999998;stroke-dasharray:2.0,2.0;" x1="7" x2="470.05" y1="230.9918" y2="230.9918"/><text fill="#000000" font-family="sans-serif" font-size="7.7" font-weight="bold" lengthAdjust="spacing" textLength="52.5" x="10.5" y="239.3009">[client exists]</text><polygon fill="#181818" points="70.35,255.4371,63.35,258.2371,70.35,261.0371,67.55,258.2371" style="stroke:#181818;stroke-width:0.6999999999999998;"/><line style="stroke:#181818;stroke-width:0.6999999999999998;stroke-dasharray:2.0,2.0;" x1="66.15" x2="369.25" y1="258.2371" y2="258.2371"/><text fill="#000000" font-family="sans-serif" font-size="9.1" font-weight="bold" lengthAdjust="spacing" textLength="4.9" x="74.55" y="254.5532">6</text><text fill="#000000" font-family="sans-serif" font-size="9.1" lengthAdjust="spacing" textLength="214.2" x="82.25" y="254.5532">shows the client's order list and asks for confirmation</text><polygon fill="#181818" points="358.05,277.3408,365.05,280.1408,358.05,282.9408,360.85,280.1408" style="stroke:#181818;stroke-width:0.6999999999999998;"/><line style="stroke:#181818;stroke-width:0.6999999999999998;" x1="62.65" x2="362.25" y1="280.1408" y2="280.1408"/><text fill="#000000" font-family="sans-serif" font-size="9.1" font-weight="bold" lengthAdjust="spacing" textLength="4.9" x="67.55" y="276.4569">7</text><text fill="#000000" font-family="sans-serif" font-size="9.1" lengthAdjust="spacing" textLength="184.8" x="75.25" y="276.4569">confirms that he wants to register a new order</text><polygon fill="#181818" points="70.35,299.2445,63.35,302.0445,70.35,304.8445,67.55,302.0445" style="stroke:#181818;stroke-width:0.6999999999999998;"/><line style="stroke:#181818;stroke-width:0.6999999999999998;stroke-dasharray:2.0,2.0;" x1="66.15" x2="369.25" y1="302.0445" y2="302.0445"/><text fill="#000000" font-family="sans-serif" font-size="9.1" font-weight="bold" lengthAdjust="spacing" textLength="4.9" x="74.55" y="298.3606">8</text><text fill="#000000" font-family="sans-serif" font-size="9.1" lengthAdjust="spacing" textLength="255.5" x="82.25" y="298.3606">requests data (i.e. Order Date, Delivery Date, Delivery Address)</text><polygon fill="#181818" points="358.05,321.1482,365.05,323.9482,358.05,326.7482,360.85,323.9482" style="stroke:#181818;stroke-width:0.6999999999999998;"/><line style="stroke:#181818;stroke-width:0.6999999999999998;" x1="62.65" x2="362.25" y1="323.9482" y2="323.9482"/><text fill="#000000" font-family="sans-serif" font-size="9.1" font-weight="bold" lengthAdjust="spacing" textLength="4.9" x="67.55" y="320.2644">9</text><text fill="#000000" font-family="sans-serif" font-size="9.1" lengthAdjust="spacing" textLength="85.4" x="75.25" y="320.2644">types requested data</text><polygon fill="#181818" points="70.35,343.052,63.35,345.852,70.35,348.652,67.55,345.852" style="stroke:#181818;stroke-width:0.6999999999999998;"/><line style="stroke:#181818;stroke-width:0.6999999999999998;stroke-dasharray:2.0,2.0;" x1="66.15" x2="369.25" y1="345.852" y2="345.852"/><text fill="#000000" font-family="sans-serif" font-size="9.1" font-weight="bold" lengthAdjust="spacing" textLength="9.8" x="74.55" y="342.1681">10</text><text fill="#000000" font-family="sans-serif" font-size="9.1" lengthAdjust="spacing" textLength="266" x="87.15" y="342.1681">shows the list of products and requests product ids and quantities</text><polygon fill="#181818" points="358.05,364.9557,365.05,367.7557,358.05,370.5557,360.85,367.7557" style="stroke:#181818;stroke-width:0.6999999999999998;"/><line style="stroke:#181818;stroke-width:0.6999999999999998;" x1="62.65" x2="362.25" y1="367.7557" y2="367.7557"/><text fill="#000000" font-family="sans-serif" font-size="9.1" font-weight="bold" lengthAdjust="spacing" textLength="9.8" x="67.55" y="364.0718">11</text><text fill="#000000" font-family="sans-serif" font-size="9.1" lengthAdjust="spacing" textLength="140" x="80.15" y="364.0718">provides product ids and quantities</text><polygon fill="#181818" points="70.35,386.8594,63.35,389.6594,70.35,392.4594,67.55,389.6594" style="stroke:#181818;stroke-width:0.6999999999999998;"/><line style="stroke:#181818;stroke-width:0.6999999999999998;stroke-dasharray:2.0,2.0;" x1="66.15" x2="369.25" y1="389.6594" y2="389.6594"/><text fill="#000000" font-family="sans-serif" font-size="9.1" font-weight="bold" lengthAdjust="spacing" textLength="9.8" x="74.55" y="385.9755">12</text><text fill="#000000" font-family="sans-serif" font-size="9.1" lengthAdjust="spacing" textLength="274.4" x="87.15" y="385.9755">asks if price should be calculated automatically or entered manually</text><polygon fill="#181818" points="358.05,408.7631,365.05,411.5631,358.05,414.3631,360.85,411.5631" style="stroke:#181818;stroke-width:0.6999999999999998;"/><line style="stroke:#181818;stroke-width:0.6999999999999998;" x1="62.65" x2="362.25" y1="411.5631" y2="411.5631"/><text fill="#000000" font-family="sans-serif" font-size="9.1" font-weight="bold" lengthAdjust="spacing" textLength="9.8" x="67.55" y="407.8792">13</text><text fill="#000000" font-family="sans-serif" font-size="9.1" lengthAdjust="spacing" textLength="99.4" x="80.15" y="407.8792">select the desired option</text><path d="M21,422.0631 L63.7,422.0631 L63.7,428.5668 L56.7,435.5668 L21,435.5668 L21,422.0631 " fill="#EEEEEE" style="stroke:#000000;stroke-width:1.0499999999999998;"/><rect fill="none" height="57.3111" style="stroke:#000000;stroke-width:1.0499999999999998;" width="378.35" x="21" y="422.0631"/><text fill="#000000" font-family="sans-serif" font-size="9.1" font-weight="bold" lengthAdjust="spacing" textLength="11.2" x="31.5" y="432.5829">alt</text><text fill="#000000" font-family="sans-serif" font-size="7.7" font-weight="bold" lengthAdjust="spacing" textLength="109.9" x="74.2" y="431.7722">[manual entry was selected]</text><polygon fill="#181818" points="70.35,449.0705,63.35,451.8705,70.35,454.6705,67.55,451.8705" style="stroke:#181818;stroke-width:0.6999999999999998;"/><line style="stroke:#181818;stroke-width:0.6999999999999998;stroke-dasharray:2.0,2.0;" x1="66.15" x2="369.25" y1="451.8705" y2="451.8705"/><text fill="#000000" font-family="sans-serif" font-size="9.1" font-weight="bold" lengthAdjust="spacing" textLength="9.8" x="74.55" y="448.1866">14</text><text fill="#000000" font-family="sans-serif" font-size="9.1" lengthAdjust="spacing" textLength="57.4" x="87.15" y="448.1866">requests price</text><polygon fill="#181818" points="358.05,470.9742,365.05,473.7742,358.05,476.5742,360.85,473.7742" style="stroke:#181818;stroke-width:0.6999999999999998;"/><line style="stroke:#181818;stroke-width:0.6999999999999998;" x1="62.65" x2="362.25" y1="473.7742" y2="473.7742"/><text fill="#000000" font-family="sans-serif" font-size="9.1" font-weight="bold" lengthAdjust="spacing" textLength="9.8" x="67.55" y="470.0903">15</text><text fill="#000000" font-family="sans-serif" font-size="9.1" lengthAdjust="spacing" textLength="55.3" x="80.15" y="470.0903">provides price</text><line style="stroke:#181818;stroke-width:0.6999999999999998;" x1="373.45" x2="402.85" y1="500.5779" y2="500.5779"/><line style="stroke:#181818;stroke-width:0.6999999999999998;" x1="402.85" x2="402.85" y1="500.5779" y2="509.6779"/><line style="stroke:#181818;stroke-width:0.6999999999999998;" x1="374.15" x2="402.85" y1="509.6779" y2="509.6779"/><polygon fill="#181818" points="381.15,506.8779,374.15,509.6779,381.15,512.4779,378.35,509.6779" style="stroke:#181818;stroke-width:0.6999999999999998;"/><text fill="#000000" font-family="sans-serif" font-size="9.1" font-weight="bold" lengthAdjust="spacing" textLength="9.8" x="378.35" y="496.894">16</text><text fill="#000000" font-family="sans-serif" font-size="9.1" lengthAdjust="spacing" textLength="70.7" x="390.95" y="496.894">validates the data</text><path d="M14,520.1779 L56.7,520.1779 L56.7,526.6816 L49.7,533.6816 L14,533.6816 L14,520.1779 " fill="#EEEEEE" style="stroke:#000000;stroke-width:1.0499999999999998;"/><rect fill="none" height="156.8055" style="stroke:#000000;stroke-width:1.0499999999999998;" width="448.35" x="14" y="520.1779"/><text fill="#000000" font-family="sans-serif" font-size="9.1" font-weight="bold" lengthAdjust="spacing" textLength="11.2" x="24.5" y="530.6978">alt</text><text fill="#000000" font-family="sans-serif" font-size="7.7" font-weight="bold" lengthAdjust="spacing" textLength="48.3" x="67.2" y="529.887">[invalid data]</text><polygon fill="#181818" points="70.35,547.1854,63.35,549.9854,70.35,552.7854,67.55,549.9854" style="stroke:#181818;stroke-width:0.6999999999999998;"/><line style="stroke:#181818;stroke-width:0.6999999999999998;stroke-dasharray:2.0,2.0;" x1="66.15" x2="369.25" y1="549.9854" y2="549.9854"/><text fill="#000000" font-family="sans-serif" font-size="9.1" font-weight="bold" lengthAdjust="spacing" textLength="9.8" x="74.55" y="546.3015">17</text><text fill="#000000" font-family="sans-serif" font-size="9.1" lengthAdjust="spacing" textLength="140" x="87.15" y="546.3015">shows error message (Invalid data)</text><line style="stroke:#000000;stroke-width:0.6999999999999998;stroke-dasharray:2.0,2.0;" x1="14" x2="462.35" y1="556.2854" y2="556.2854"/><text fill="#000000" font-family="sans-serif" font-size="7.7" font-weight="bold" lengthAdjust="spacing" textLength="41.3" x="17.5" y="564.5944">[valid data]</text><line style="stroke:#181818;stroke-width:0.6999999999999998;" x1="369.95" x2="399.35" y1="583.5307" y2="583.5307"/><line style="stroke:#181818;stroke-width:0.6999999999999998;" x1="399.35" x2="399.35" y1="583.5307" y2="592.6307"/><line style="stroke:#181818;stroke-width:0.6999999999999998;" x1="370.65" x2="399.35" y1="592.6307" y2="592.6307"/><polygon fill="#181818" points="377.65,589.8307,370.65,592.6307,377.65,595.4307,374.85,592.6307" style="stroke:#181818;stroke-width:0.6999999999999998;"/><text fill="#000000" font-family="sans-serif" font-size="9.1" font-weight="bold" lengthAdjust="spacing" textLength="9.8" x="374.85" y="579.8468">18</text><text fill="#000000" font-family="sans-serif" font-size="9.1" lengthAdjust="spacing" textLength="66.5" x="387.45" y="579.8468">saves order data</text><path d="M21,603.1307 L63.7,603.1307 L63.7,609.6344 L56.7,616.6344 L21,616.6344 L21,603.1307 " fill="#EEEEEE" style="stroke:#000000;stroke-width:1.0499999999999998;"/><rect fill="none" height="68.9527" style="stroke:#000000;stroke-width:1.0499999999999998;" width="378.35" x="21" y="603.1307"/><text fill="#000000" font-family="sans-serif" font-size="9.1" font-weight="bold" lengthAdjust="spacing" textLength="11.2" x="31.5" y="613.6505">alt</text><text fill="#000000" font-family="sans-serif" font-size="7.7" font-weight="bold" lengthAdjust="spacing" textLength="57.4" x="74.2" y="612.8397">[system error]</text><polygon fill="#181818" points="70.35,630.1381,63.35,632.9381,70.35,635.7381,67.55,632.9381" style="stroke:#181818;stroke-width:0.6999999999999998;"/><line style="stroke:#181818;stroke-width:0.6999999999999998;stroke-dasharray:2.0,2.0;" x1="66.15" x2="369.25" y1="632.9381" y2="632.9381"/><text fill="#000000" font-family="sans-serif" font-size="9.1" font-weight="bold" lengthAdjust="spacing" textLength="9.8" x="74.55" y="629.2542">19</text><text fill="#000000" font-family="sans-serif" font-size="9.1" lengthAdjust="spacing" textLength="154.7" x="87.15" y="629.2542">shows error message (Database error)</text><line style="stroke:#000000;stroke-width:0.6999999999999998;stroke-dasharray:2.0,2.0;" x1="21" x2="399.35" y1="639.2381" y2="639.2381"/><text fill="#000000" font-family="sans-serif" font-size="7.7" font-weight="bold" lengthAdjust="spacing" textLength="38.5" x="24.5" y="647.5472">[success]</text><polygon fill="#181818" points="70.35,663.6834,63.35,666.4834,70.35,669.2834,67.55,666.4834" style="stroke:#181818;stroke-width:0.6999999999999998;"/><line style="stroke:#181818;stroke-width:0.6999999999999998;stroke-dasharray:2.0,2.0;" x1="66.15" x2="369.25" y1="666.4834" y2="666.4834"/><text fill="#000000" font-family="sans-serif" font-size="9.1" font-weight="bold" lengthAdjust="spacing" textLength="9.8" x="74.55" y="662.7995">20</text><text fill="#000000" font-family="sans-serif" font-size="9.1" lengthAdjust="spacing" textLength="189" x="87.15" y="662.7995">shows all data and displays operation success</text><!--SRC=[hLJ1ajem3BtdApHxASnqzmCuT8OfbnuwFV05mXQWMSVEsWuqVr_P9fa0WOMsEJcs_FIUzApmphP1ZpNKpZgrzwucYBwbAWmd3QfttD4wTeR0aufeTsOS4FQetP7j3hPe0bLLv2YXwov4gc5D7orPHR1YtANmsNgzcbSLjj7PjjwGbxMApiFBKjTiEKIFyli2662v-bb9aiYA6xGHNXO5DH-MPRxD1uoKeokGJnRm-grdi93Wzm3H2VkTm9C714j7S5vBzdHXWEWnuVIT85u5BO4kHAmx2jQUm0WKk2qemsHZ0BHQ4eZO83zb4rXd94sJ2IvfDjuTM5FeOKZt09FNUsuZ1BKd9LAvPmLeFA7kW7uBsp38GXFx2EqaeNMnX0mHdnI0l9UErHI2M0DctwUmvcTWrpNeJqXCqxCvyNoa_kN6br3QMDgHUf2RlHLsojaj-neZE_jC6qxtKXQC89cEcFhxV_mpE4HZH9Zn6xt1honW9VU_meeC7yXtbxzBhRrKU_wCaDWrPsPAAV_Pxc9ItQfBlvzsnQ_buAELcd5a2d_r03w1Uvn_DWCdrYmZIDIqHiD6p8D6jGPJLT8WIYQHBTD9Jq5SHLuEQhHjsdj6GI0Z4p8NJ7HmWd7DOC19YFGMIwgKMLfzbDbMS4XNTz_YgFmYh_hygGsBEvKV8qtXaDNN1Hz17T2mE8sARGRFzLBPve3pWySdpO_HzQS6p8siDqG4F50_MIRl92cXH6U6Lm6FIvANZXiKYdb_FebqMzoPoD0g9R3Fa167brcKtfdcq1ZiH7b3FW_Ekv0FiBBd5Xx_o_eF]--></g></svg>