<?xml version="1.0" encoding="us-ascii" standalone="no"?><svg xmlns="http://www.w3.org/2000/svg" xmlns:xlink="http://www.w3.org/1999/xlink" contentStyleType="text/css" height="1074px" preserveAspectRatio="none" style="width:753px;height:1074px;background:#FFFFFF;" version="1.1" viewBox="0 0 753 1074" width="753px" zoomAndPan="magnify"><defs/><g><text fill="#000000" font-family="sans-serif" font-size="14" font-weight="bold" lengthAdjust="spacing" textLength="228" x="264.5" y="30.1074">System Sequence Diagram (SSD)</text><rect fill="#FFFFFF" height="848.877" style="stroke:#181818;stroke-width:1.0;" width="10" x="102" y="133.2422"/><rect fill="#FFFFFF" height="31.291" style="stroke:#181818;stroke-width:1.0;" width="10" x="546" y="156.5332"/><rect fill="#FFFFFF" height="101.873" style="stroke:#181818;stroke-width:1.0;" width="10" x="546" y="219.1152"/><rect fill="#FFFFFF" height="31.291" style="stroke:#181818;stroke-width:1.0;" width="10" x="546" y="400.2012"/><rect fill="#FFFFFF" height="31.291" style="stroke:#181818;stroke-width:1.0;" width="10" x="546" y="462.7832"/><rect fill="#FFFFFF" height="31.291" style="stroke:#181818;stroke-width:1.0;" width="10" x="546" y="525.3652"/><rect fill="#FFFFFF" height="57.582" style="stroke:#181818;stroke-width:1.0;" width="10" x="546" y="587.9473"/><rect fill="#FFFFFF" height="108.873" style="stroke:#181818;stroke-width:1.0;" width="10" x="546" y="676.8203"/><rect fill="none" height="695.7129" style="stroke:#000000;stroke-width:1.5;" width="684" x="10" y="278.4063"/><rect fill="none" height="81.873" style="stroke:#000000;stroke-width:1.5;" width="563" x="30" y="602.9473"/><rect fill="none" height="224.0078" style="stroke:#000000;stroke-width:1.5;" width="663" x="20" y="743.1113"/><rect fill="none" height="98.5039" style="stroke:#000000;stroke-width:1.5;" width="563" x="30" y="861.6152"/><line style="stroke:#181818;stroke-width:0.5;stroke-dasharray:5.0,5.0;" x1="107" x2="107" y1="123.2422" y2="991.1191"/><line style="stroke:#181818;stroke-width:0.5;stroke-dasharray:5.0,5.0;" x1="551" x2="551" y1="123.2422" y2="991.1191"/><text fill="#000000" font-family="sans-serif" font-size="14" lengthAdjust="spacing" textLength="128" x="40" y="119.7285">Production Manager</text><ellipse cx="107" cy="53.1211" fill="#E3E3E3" rx="8" ry="8" style="stroke:#181818;stroke-width:0.5;"/><path d="M107,61.1211 L107,88.1211 M94,69.1211 L120,69.1211 M107,88.1211 L94,103.1211 M107,88.1211 L120,103.1211 " fill="none" style="stroke:#181818;stroke-width:0.5;"/><text fill="#000000" font-family="sans-serif" font-size="14" lengthAdjust="spacing" textLength="128" x="40" y="1005.2266">Production Manager</text><ellipse cx="107" cy="1017.2402" fill="#E3E3E3" rx="8" ry="8" style="stroke:#181818;stroke-width:0.5;"/><path d="M107,1025.2402 L107,1052.2402 M94,1033.2402 L120,1033.2402 M107,1052.2402 L94,1067.2402 M107,1052.2402 L120,1067.2402 " fill="none" style="stroke:#181818;stroke-width:0.5;"/><rect fill="#E3E3E3" height="32.6211" rx="2.5" ry="2.5" style="stroke:#181818;stroke-width:0.5;" width="64" x="519" y="89.6211"/><text fill="#000000" font-family="sans-serif" font-size="14" lengthAdjust="spacing" textLength="50" x="526" y="111.7285">:System</text><rect fill="#E3E3E3" height="32.6211" rx="2.5" ry="2.5" style="stroke:#181818;stroke-width:0.5;" width="64" x="519" y="990.1191"/><text fill="#000000" font-family="sans-serif" font-size="14" lengthAdjust="spacing" textLength="50" x="526" y="1012.2266">:System</text><rect fill="#FFFFFF" height="848.877" style="stroke:#181818;stroke-width:1.0;" width="10" x="102" y="133.2422"/><rect fill="#FFFFFF" height="31.291" style="stroke:#181818;stroke-width:1.0;" width="10" x="546" y="156.5332"/><rect fill="#FFFFFF" height="101.873" style="stroke:#181818;stroke-width:1.0;" width="10" x="546" y="219.1152"/><rect fill="#FFFFFF" height="31.291" style="stroke:#181818;stroke-width:1.0;" width="10" x="546" y="400.2012"/><rect fill="#FFFFFF" height="31.291" style="stroke:#181818;stroke-width:1.0;" width="10" x="546" y="462.7832"/><rect fill="#FFFFFF" height="31.291" style="stroke:#181818;stroke-width:1.0;" width="10" x="546" y="525.3652"/><rect fill="#FFFFFF" height="57.582" style="stroke:#181818;stroke-width:1.0;" width="10" x="546" y="587.9473"/><rect fill="#FFFFFF" height="108.873" style="stroke:#181818;stroke-width:1.0;" width="10" x="546" y="676.8203"/><polygon fill="#181818" points="534,152.5332,544,156.5332,534,160.5332,538,156.5332" style="stroke:#181818;stroke-width:1.0;"/><line style="stroke:#181818;stroke-width:1.0;" x1="112" x2="540" y1="156.5332" y2="156.5332"/><text fill="#000000" font-family="sans-serif" font-size="13" font-weight="bold" lengthAdjust="spacing" textLength="7" x="119" y="151.2705">1</text><text fill="#000000" font-family="sans-serif" font-size="13" lengthAdjust="spacing" textLength="161" x="130" y="151.2705">asks to register a new order</text><polygon fill="#181818" points="123,183.8242,113,187.8242,123,191.8242,119,187.8242" style="stroke:#181818;stroke-width:1.0;"/><line style="stroke:#181818;stroke-width:1.0;stroke-dasharray:2.0,2.0;" x1="117" x2="550" y1="187.8242" y2="187.8242"/><text fill="#000000" font-family="sans-serif" font-size="13" font-weight="bold" lengthAdjust="spacing" textLength="7" x="129" y="182.5615">2</text><text fill="#000000" font-family="sans-serif" font-size="13" lengthAdjust="spacing" textLength="264" x="140" y="182.5615">shows the list of clients and requests client id</text><polygon fill="#181818" points="534,215.1152,544,219.1152,534,223.1152,538,219.1152" style="stroke:#181818;stroke-width:1.0;"/><line style="stroke:#181818;stroke-width:1.0;" x1="112" x2="540" y1="219.1152" y2="219.1152"/><text fill="#000000" font-family="sans-serif" font-size="13" font-weight="bold" lengthAdjust="spacing" textLength="7" x="119" y="213.8525">3</text><text fill="#000000" font-family="sans-serif" font-size="13" lengthAdjust="spacing" textLength="122" x="130" y="213.8525">provides requested id</text><line style="stroke:#181818;stroke-width:1.0;" x1="556" x2="598" y1="250.4063" y2="250.4063"/><line style="stroke:#181818;stroke-width:1.0;" x1="598" x2="598" y1="250.4063" y2="263.4063"/><line style="stroke:#181818;stroke-width:1.0;" x1="557" x2="598" y1="263.4063" y2="263.4063"/><polygon fill="#181818" points="567,259.4063,557,263.4063,567,267.4063,563,263.4063" style="stroke:#181818;stroke-width:1.0;"/><text fill="#000000" font-family="sans-serif" font-size="13" font-weight="bold" lengthAdjust="spacing" textLength="7" x="563" y="245.1436">4</text><text fill="#000000" font-family="sans-serif" font-size="13" lengthAdjust="spacing" textLength="172" x="574" y="245.1436">checks if client already exists</text><path d="M10,278.4063 L71,278.4063 L71,287.6973 L61,297.6973 L10,297.6973 L10,278.4063 " fill="#EEEEEE" style="stroke:#000000;stroke-width:1.5;"/><rect fill="none" height="695.7129" style="stroke:#000000;stroke-width:1.5;" width="684" x="10" y="278.4063"/><text fill="#000000" font-family="sans-serif" font-size="13" font-weight="bold" lengthAdjust="spacing" textLength="16" x="25" y="293.4346">alt</text><text fill="#000000" font-family="sans-serif" font-size="11" font-weight="bold" lengthAdjust="spacing" textLength="120" x="86" y="292.2764">[client does not exist]</text><polygon fill="#181818" points="123,316.9883,113,320.9883,123,324.9883,119,320.9883" style="stroke:#181818;stroke-width:1.0;"/><line style="stroke:#181818;stroke-width:1.0;stroke-dasharray:2.0,2.0;" x1="117" x2="550" y1="320.9883" y2="320.9883"/><text fill="#000000" font-family="sans-serif" font-size="13" font-weight="bold" lengthAdjust="spacing" textLength="7" x="129" y="315.7256">5</text><text fill="#000000" font-family="sans-serif" font-size="13" lengthAdjust="spacing" textLength="255" x="140" y="315.7256">shows error message (Client does not exist)</text><line style="stroke:#000000;stroke-width:1.0;stroke-dasharray:2.0,2.0;" x1="10" x2="694" y1="329.9883" y2="329.9883"/><text fill="#000000" font-family="sans-serif" font-size="11" font-weight="bold" lengthAdjust="spacing" textLength="75" x="15" y="341.8584">[client exists]</text><polygon fill="#181818" points="123,364.9102,113,368.9102,123,372.9102,119,368.9102" style="stroke:#181818;stroke-width:1.0;"/><line style="stroke:#181818;stroke-width:1.0;stroke-dasharray:2.0,2.0;" x1="117" x2="550" y1="368.9102" y2="368.9102"/><text fill="#000000" font-family="sans-serif" font-size="13" font-weight="bold" lengthAdjust="spacing" textLength="7" x="129" y="363.6475">6</text><text fill="#000000" font-family="sans-serif" font-size="13" lengthAdjust="spacing" textLength="306" x="140" y="363.6475">shows the client's order list and asks for confirmation</text><polygon fill="#181818" points="534,396.2012,544,400.2012,534,404.2012,538,400.2012" style="stroke:#181818;stroke-width:1.0;"/><line style="stroke:#181818;stroke-width:1.0;" x1="112" x2="540" y1="400.2012" y2="400.2012"/><text fill="#000000" font-family="sans-serif" font-size="13" font-weight="bold" lengthAdjust="spacing" textLength="7" x="119" y="394.9385">7</text><text fill="#000000" font-family="sans-serif" font-size="13" lengthAdjust="spacing" textLength="264" x="130" y="394.9385">confirms that he wants to register a new order</text><polygon fill="#181818" points="123,427.4922,113,431.4922,123,435.4922,119,431.4922" style="stroke:#181818;stroke-width:1.0;"/><line style="stroke:#181818;stroke-width:1.0;stroke-dasharray:2.0,2.0;" x1="117" x2="550" y1="431.4922" y2="431.4922"/><text fill="#000000" font-family="sans-serif" font-size="13" font-weight="bold" lengthAdjust="spacing" textLength="7" x="129" y="426.2295">8</text><text fill="#000000" font-family="sans-serif" font-size="13" lengthAdjust="spacing" textLength="365" x="140" y="426.2295">requests data (i.e. Order Date, Delivery Date, Delivery Address)</text><polygon fill="#181818" points="534,458.7832,544,462.7832,534,466.7832,538,462.7832" style="stroke:#181818;stroke-width:1.0;"/><line style="stroke:#181818;stroke-width:1.0;" x1="112" x2="540" y1="462.7832" y2="462.7832"/><text fill="#000000" font-family="sans-serif" font-size="13" font-weight="bold" lengthAdjust="spacing" textLength="7" x="119" y="457.5205">9</text><text fill="#000000" font-family="sans-serif" font-size="13" lengthAdjust="spacing" textLength="122" x="130" y="457.5205">types requested data</text><polygon fill="#181818" points="123,490.0742,113,494.0742,123,498.0742,119,494.0742" style="stroke:#181818;stroke-width:1.0;"/><line style="stroke:#181818;stroke-width:1.0;stroke-dasharray:2.0,2.0;" x1="117" x2="550" y1="494.0742" y2="494.0742"/><text fill="#000000" font-family="sans-serif" font-size="13" font-weight="bold" lengthAdjust="spacing" textLength="14" x="129" y="488.8115">10</text><text fill="#000000" font-family="sans-serif" font-size="13" lengthAdjust="spacing" textLength="380" x="147" y="488.8115">shows the list of products and requests product ids and quantities</text><polygon fill="#181818" points="534,521.3652,544,525.3652,534,529.3652,538,525.3652" style="stroke:#181818;stroke-width:1.0;"/><line style="stroke:#181818;stroke-width:1.0;" x1="112" x2="540" y1="525.3652" y2="525.3652"/><text fill="#000000" font-family="sans-serif" font-size="13" font-weight="bold" lengthAdjust="spacing" textLength="14" x="119" y="520.1025">11</text><text fill="#000000" font-family="sans-serif" font-size="13" lengthAdjust="spacing" textLength="200" x="137" y="520.1025">provides product ids and quantities</text><polygon fill="#181818" points="123,552.6563,113,556.6563,123,560.6563,119,556.6563" style="stroke:#181818;stroke-width:1.0;"/><line style="stroke:#181818;stroke-width:1.0;stroke-dasharray:2.0,2.0;" x1="117" x2="550" y1="556.6563" y2="556.6563"/><text fill="#000000" font-family="sans-serif" font-size="13" font-weight="bold" lengthAdjust="spacing" textLength="14" x="129" y="551.3936">12</text><text fill="#000000" font-family="sans-serif" font-size="13" lengthAdjust="spacing" textLength="392" x="147" y="551.3936">asks if price should be calculated automatically or entered manually</text><polygon fill="#181818" points="534,583.9473,544,587.9473,534,591.9473,538,587.9473" style="stroke:#181818;stroke-width:1.0;"/><line style="stroke:#181818;stroke-width:1.0;" x1="112" x2="540" y1="587.9473" y2="587.9473"/><text fill="#000000" font-family="sans-serif" font-size="13" font-weight="bold" lengthAdjust="spacing" textLength="14" x="119" y="582.6846">13</text><text fill="#000000" font-family="sans-serif" font-size="13" lengthAdjust="spacing" textLength="142" x="137" y="582.6846">select the desired option</text><path d="M30,602.9473 L91,602.9473 L91,612.2383 L81,622.2383 L30,622.2383 L30,602.9473 " fill="#EEEEEE" style="stroke:#000000;stroke-width:1.5;"/><rect fill="none" height="81.873" style="stroke:#000000;stroke-width:1.5;" width="563" x="30" y="602.9473"/><text fill="#000000" font-family="sans-serif" font-size="13" font-weight="bold" lengthAdjust="spacing" textLength="16" x="45" y="617.9756">alt</text><text fill="#000000" font-family="sans-serif" font-size="11" font-weight="bold" lengthAdjust="spacing" textLength="157" x="106" y="616.8174">[manual entry was selected]</text><polygon fill="#181818" points="123,641.5293,113,645.5293,123,649.5293,119,645.5293" style="stroke:#181818;stroke-width:1.0;"/><line style="stroke:#181818;stroke-width:1.0;stroke-dasharray:2.0,2.0;" x1="117" x2="550" y1="645.5293" y2="645.5293"/><text fill="#000000" font-family="sans-serif" font-size="13" font-weight="bold" lengthAdjust="spacing" textLength="14" x="129" y="640.2666">14</text><text fill="#000000" font-family="sans-serif" font-size="13" lengthAdjust="spacing" textLength="82" x="147" y="640.2666">requests price</text><polygon fill="#181818" points="534,672.8203,544,676.8203,534,680.8203,538,676.8203" style="stroke:#181818;stroke-width:1.0;"/><line style="stroke:#181818;stroke-width:1.0;" x1="112" x2="540" y1="676.8203" y2="676.8203"/><text fill="#000000" font-family="sans-serif" font-size="13" font-weight="bold" lengthAdjust="spacing" textLength="14" x="119" y="671.5576">15</text><text fill="#000000" font-family="sans-serif" font-size="13" lengthAdjust="spacing" textLength="79" x="137" y="671.5576">provides price</text><line style="stroke:#181818;stroke-width:1.0;" x1="556" x2="598" y1="715.1113" y2="715.1113"/><line style="stroke:#181818;stroke-width:1.0;" x1="598" x2="598" y1="715.1113" y2="728.1113"/><line style="stroke:#181818;stroke-width:1.0;" x1="557" x2="598" y1="728.1113" y2="728.1113"/><polygon fill="#181818" points="567,724.1113,557,728.1113,567,732.1113,563,728.1113" style="stroke:#181818;stroke-width:1.0;"/><text fill="#000000" font-family="sans-serif" font-size="13" font-weight="bold" lengthAdjust="spacing" textLength="14" x="563" y="709.8486">16</text><text fill="#000000" font-family="sans-serif" font-size="13" lengthAdjust="spacing" textLength="101" x="581" y="709.8486">validates the data</text><path d="M20,743.1113 L81,743.1113 L81,752.4023 L71,762.4023 L20,762.4023 L20,743.1113 " fill="#EEEEEE" style="stroke:#000000;stroke-width:1.5;"/><rect fill="none" height="224.0078" style="stroke:#000000;stroke-width:1.5;" width="663" x="20" y="743.1113"/><text fill="#000000" font-family="sans-serif" font-size="13" font-weight="bold" lengthAdjust="spacing" textLength="16" x="35" y="758.1396">alt</text><text fill="#000000" font-family="sans-serif" font-size="11" font-weight="bold" lengthAdjust="spacing" textLength="69" x="96" y="756.9814">[invalid data]</text><polygon fill="#181818" points="123,781.6934,113,785.6934,123,789.6934,119,785.6934" style="stroke:#181818;stroke-width:1.0;"/><line style="stroke:#181818;stroke-width:1.0;stroke-dasharray:2.0,2.0;" x1="117" x2="550" y1="785.6934" y2="785.6934"/><text fill="#000000" font-family="sans-serif" font-size="13" font-weight="bold" lengthAdjust="spacing" textLength="14" x="129" y="780.4307">17</text><text fill="#000000" font-family="sans-serif" font-size="13" lengthAdjust="spacing" textLength="200" x="147" y="780.4307">shows error message (Invalid data)</text><line style="stroke:#000000;stroke-width:1.0;stroke-dasharray:2.0,2.0;" x1="20" x2="683" y1="794.6934" y2="794.6934"/><text fill="#000000" font-family="sans-serif" font-size="11" font-weight="bold" lengthAdjust="spacing" textLength="59" x="25" y="806.5635">[valid data]</text><line style="stroke:#181818;stroke-width:1.0;" x1="551" x2="593" y1="833.6152" y2="833.6152"/><line style="stroke:#181818;stroke-width:1.0;" x1="593" x2="593" y1="833.6152" y2="846.6152"/><line style="stroke:#181818;stroke-width:1.0;" x1="552" x2="593" y1="846.6152" y2="846.6152"/><polygon fill="#181818" points="562,842.6152,552,846.6152,562,850.6152,558,846.6152" style="stroke:#181818;stroke-width:1.0;"/><text fill="#000000" font-family="sans-serif" font-size="13" font-weight="bold" lengthAdjust="spacing" textLength="14" x="558" y="828.3525">18</text><text fill="#000000" font-family="sans-serif" font-size="13" lengthAdjust="spacing" textLength="95" x="576" y="828.3525">saves order data</text><path d="M30,861.6152 L91,861.6152 L91,870.9063 L81,880.9063 L30,880.9063 L30,861.6152 " fill="#EEEEEE" style="stroke:#000000;stroke-width:1.5;"/><rect fill="none" height="98.5039" style="stroke:#000000;stroke-width:1.5;" width="563" x="30" y="861.6152"/><text fill="#000000" font-family="sans-serif" font-size="13" font-weight="bold" lengthAdjust="spacing" textLength="16" x="45" y="876.6436">alt</text><text fill="#000000" font-family="sans-serif" font-size="11" font-weight="bold" lengthAdjust="spacing" textLength="82" x="106" y="875.4854">[system error]</text><polygon fill="#181818" points="123,900.1973,113,904.1973,123,908.1973,119,904.1973" style="stroke:#181818;stroke-width:1.0;"/><line style="stroke:#181818;stroke-width:1.0;stroke-dasharray:2.0,2.0;" x1="117" x2="550" y1="904.1973" y2="904.1973"/><text fill="#000000" font-family="sans-serif" font-size="13" font-weight="bold" lengthAdjust="spacing" textLength="14" x="129" y="898.9346">19</text><text fill="#000000" font-family="sans-serif" font-size="13" lengthAdjust="spacing" textLength="221" x="147" y="898.9346">shows error message (Database error)</text><line style="stroke:#000000;stroke-width:1.0;stroke-dasharray:2.0,2.0;" x1="30" x2="593" y1="913.1973" y2="913.1973"/><text fill="#000000" font-family="sans-serif" font-size="11" font-weight="bold" lengthAdjust="spacing" textLength="55" x="35" y="925.0674">[success]</text><polygon fill="#181818" points="123,948.1191,113,952.1191,123,956.1191,119,952.1191" style="stroke:#181818;stroke-width:1.0;"/><line style="stroke:#181818;stroke-width:1.0;stroke-dasharray:2.0,2.0;" x1="117" x2="550" y1="952.1191" y2="952.1191"/><text fill="#000000" font-family="sans-serif" font-size="13" font-weight="bold" lengthAdjust="spacing" textLength="14" x="129" y="946.8564">20</text><text fill="#000000" font-family="sans-serif" font-size="13" lengthAdjust="spacing" textLength="270" x="147" y="946.8564">shows all data and displays operation success</text><!--SRC=[hLH1hjem4Dtd52Cs1Qd_7u15fQfika15uWI3FS08nywt7MXktt5CeW21GlkpSkpnc_TcdYSSs5ReiOJIMQVstfK4qTTKXFwaGdN07QrZOmWygOXsPuO1OO_QdTZkO8icK554ZXAwRaAa4jRqKPDL10l6NGgVhjUBML5W7PsjomrvMQleF4nMtkbQHNOMbcWbfvy01bWj2qaKMN65Di9adf7Rixni4VY8aL9m0VAjbl3shUCmbz13WEY4_uvbomE2fHCuhoL_Yky1EaGuVsU8Dq4JpBceTIU1sXCOGGAt1MMOR0o0LWk-g0toapU1TGkaQHJ_YcJbtP4rXGw5T7T_z7R7R82WzgH4A7Ua08qdr0tGRo4RUb5eOXUXdIIqBkQGFkAnVF9U6bPI2D8bcFuOWvfTODrMe3iXyKn7vappYUBd2rz2Rc7kHMf0s-Yja5FERjcNcEpqGW_Err8IZ229JfXw-odMwSsXCI9C-PtUuLTBVo7NlyA231_9DzU_txNsKkhP2p9YKrtuA6NyNvzN-NbU6VsyAqxD1n-r58mZK_WNv_y5xMdshGquSMOPFQAbDXesOXiqgZQOIf86KBA7R9b6sWdY9_9oKAAjqzuB_0CP6OnjjKG59nHNzSuRHKXFC6TAYQNB9nbd6OTqyUW93aeluehxBwm_kb_j8S3O0oMhRuiyW3gYOV4MPQVqBki4icq3BW-U7Yi_1xTVcYPtajxH4F18tHmPlPEKX1pTChm9U5gHF6pSe31izsUZGFUrNMWCjL82-m8NyNIUFEbXQGwLmKPqL-JR8VaGyGbIzjArmtzP_m40]--></g></svg>