<?xml version="1.0" encoding="us-ascii" standalone="no"?><svg xmlns="http://www.w3.org/2000/svg" xmlns:xlink="http://www.w3.org/1999/xlink" contentStyleType="text/css" height="1022px" preserveAspectRatio="none" style="width:1184px;height:1021px;background:#FFFFFF;" version="1.1" viewBox="0 0 1184 1021" width="1184.4px" zoomAndPan="magnify"><defs/><g><!--cluster UI--><g id="cluster_UI"><rect fill="none" height="70.7" rx="1.75" ry="1.75" style="stroke:#000000;stroke-width:1.0499999999999998;" width="163.8" x="564.2" y="4.9"/><text fill="#000000" font-family="sans-serif" font-size="9.8" font-weight="bold" lengthAdjust="spacing" textLength="9.8" x="641.2" y="16.8752">UI</text></g><!--cluster Controller--><g id="cluster_Controller"><rect fill="none" height="135.8" rx="1.75" ry="1.75" style="stroke:#000000;stroke-width:1.0499999999999998;" width="317.8" x="487.2" y="98.7"/><text fill="#000000" font-family="sans-serif" font-size="9.8" font-weight="bold" lengthAdjust="spacing" textLength="49.7" x="621.25" y="110.6752">Controller</text></g><!--cluster Service--><g id="cluster_Service"><rect fill="none" height="135.8" rx="1.75" ry="1.75" style="stroke:#000000;stroke-width:1.0499999999999998;" width="317.8" x="487.2" y="257.6"/><text fill="#000000" font-family="sans-serif" font-size="9.8" font-weight="bold" lengthAdjust="spacing" textLength="37.8" x="627.2" y="269.5752">Service</text></g><!--cluster Repository--><g id="cluster_Repository"><rect fill="none" height="263.2" rx="1.75" ry="1.75" style="stroke:#000000;stroke-width:1.0499999999999998;" width="415.1" x="4.9" y="429.1"/><text fill="#000000" font-family="sans-serif" font-size="9.8" font-weight="bold" lengthAdjust="spacing" textLength="53.2" x="185.85" y="441.0752">Repository</text></g><!--cluster Model--><g id="cluster_Model"><rect fill="none" height="289.8" rx="1.75" ry="1.75" style="stroke:#000000;stroke-width:1.0499999999999998;" width="333.2" x="716.8" y="728"/><text fill="#000000" font-family="sans-serif" font-size="9.8" font-weight="bold" lengthAdjust="spacing" textLength="30.8" x="868" y="739.9752">Model</text></g><!--cluster Exception--><g id="cluster_Exception"><rect fill="none" height="237.3" rx="1.75" ry="1.75" style="stroke:#000000;stroke-width:1.0499999999999998;" width="357" x="657.3" y="429.1"/><text fill="#000000" font-family="sans-serif" font-size="9.8" font-weight="bold" lengthAdjust="spacing" textLength="49" x="811.3" y="441.0752">Exception</text></g><!--class ChangeProductCategoryUI--><g id="elem_ChangeProductCategoryUI"><rect codeLine="7" fill="#F1F1F1" height="33.6" id="ChangeProductCategoryUI" rx="1.75" ry="1.75" style="stroke:#181818;stroke-width:0.3499999999999999;" width="140.7" x="575.75" y="30.8"/><ellipse cx="586.25" cy="42" fill="#ADD1B2" rx="7.7" ry="7.7" style="stroke:#181818;stroke-width:0.6999999999999998;"/><path d="M588.1859,39.1125 Q588.2953,38.9594 588.4266,38.8828 Q588.5578,38.8062 588.7109,38.8062 Q588.9734,38.8062 589.1375,38.9922 Q589.3016,39.1672 589.3016,39.5937 L589.3016,40.6109 Q589.3016,41.0375 589.1375,41.2234 Q588.9734,41.4094 588.7109,41.4094 Q588.4703,41.4094 588.3281,41.2672 Q588.1859,41.1359 588.1094,40.775 Q588.0766,40.5234 587.9453,40.3922 Q587.7156,40.1297 587.2891,39.9766 Q586.8625,39.8234 586.425,39.8234 Q585.8891,39.8234 585.4406,40.0531 Q585.0031,40.2828 584.6531,40.8078 Q584.3141,41.3328 584.3141,42.0547 L584.3141,42.8203 Q584.3141,43.6844 584.9375,44.2641 Q585.5609,44.8328 586.6766,44.8328 Q587.3328,44.8328 587.7922,44.6578 Q588.0656,44.5484 588.3609,44.2422 Q588.5469,44.0562 588.6453,44.0016 Q588.7547,43.9469 588.8969,43.9469 Q589.1266,43.9469 589.3016,44.1328 Q589.4875,44.3078 589.4875,44.5484 Q589.4875,44.7891 589.2469,45.0734 Q588.8969,45.4781 588.3391,45.7078 Q587.5844,46.025 586.6766,46.025 Q585.6156,46.025 584.7734,45.5875 Q584.0844,45.2375 583.6031,44.4937 Q583.1219,43.7391 583.1219,42.8422 L583.1219,42.0328 Q583.1219,41.1031 583.5484,40.3047 Q583.9859,39.4953 584.7516,39.0687 Q585.5172,38.6312 586.3812,38.6312 Q586.8953,38.6312 587.3437,38.7516 Q587.8031,38.8609 588.1859,39.1125 Z " fill="#000000"/><text fill="#000000" font-family="sans-serif" font-size="9.8" lengthAdjust="spacing" textLength="118.3" x="596.05" y="46.0578">ChangeProductCategoryUI</text><line style="stroke:#181818;stroke-width:0.3499999999999999;" x1="576.45" x2="715.75" y1="53.2" y2="53.2"/><line style="stroke:#181818;stroke-width:0.3499999999999999;" x1="576.45" x2="715.75" y1="58.8" y2="58.8"/></g><!--class ProductController--><g id="elem_ProductController"><rect codeLine="12" fill="#F1F1F1" height="98.7738" id="ProductController" rx="1.75" ry="1.75" style="stroke:#181818;stroke-width:0.3499999999999999;" width="295.4" x="498.4" y="124.6"/><ellipse cx="604.275" cy="135.8" fill="#ADD1B2" rx="7.7" ry="7.7" style="stroke:#181818;stroke-width:0.6999999999999998;"/><path d="M606.2109,132.9125 Q606.3203,132.7594 606.4516,132.6828 Q606.5828,132.6062 606.7359,132.6062 Q606.9984,132.6062 607.1625,132.7922 Q607.3266,132.9672 607.3266,133.3937 L607.3266,134.4109 Q607.3266,134.8375 607.1625,135.0234 Q606.9984,135.2094 606.7359,135.2094 Q606.4953,135.2094 606.3531,135.0672 Q606.2109,134.9359 606.1344,134.575 Q606.1016,134.3234 605.9703,134.1922 Q605.7406,133.9297 605.3141,133.7766 Q604.8875,133.6234 604.45,133.6234 Q603.9141,133.6234 603.4656,133.8531 Q603.0281,134.0828 602.6781,134.6078 Q602.3391,135.1328 602.3391,135.8547 L602.3391,136.6203 Q602.3391,137.4844 602.9625,138.0641 Q603.5859,138.6328 604.7016,138.6328 Q605.3578,138.6328 605.8172,138.4578 Q606.0906,138.3484 606.3859,138.0422 Q606.5719,137.8562 606.6703,137.8016 Q606.7797,137.7469 606.9219,137.7469 Q607.1516,137.7469 607.3266,137.9328 Q607.5125,138.1078 607.5125,138.3484 Q607.5125,138.5891 607.2719,138.8734 Q606.9219,139.2781 606.3641,139.5078 Q605.6094,139.825 604.7016,139.825 Q603.6406,139.825 602.7984,139.3875 Q602.1094,139.0375 601.6281,138.2937 Q601.1469,137.5391 601.1469,136.6422 L601.1469,135.8328 Q601.1469,134.9031 601.5734,134.1047 Q602.0109,133.2953 602.7766,132.8687 Q603.5422,132.4312 604.4062,132.4312 Q604.9203,132.4312 605.3687,132.5516 Q605.8281,132.6609 606.2109,132.9125 Z " fill="#000000"/><text fill="#000000" font-family="sans-serif" font-size="9.8" lengthAdjust="spacing" textLength="77.7" x="618.625" y="139.8578">ProductController</text><line style="stroke:#181818;stroke-width:0.3499999999999999;" x1="499.1" x2="793.1" y1="147" y2="147"/><line style="stroke:#181818;stroke-width:0.3499999999999999;" x1="499.1" x2="793.1" y1="152.6" y2="152.6"/><text fill="#000000" font-family="sans-serif" font-size="9.8" lengthAdjust="spacing" textLength="219.1" x="502.6" y="165.9752">+getProductCategories() : List&lt;ProductCategory&gt;</text><text fill="#000000" font-family="sans-serif" font-size="9.8" lengthAdjust="spacing" textLength="287" x="502.6" y="179.01">+registerCategory(categoryID, categoryName) : ProductCategory</text><text fill="#000000" font-family="sans-serif" font-size="9.8" lengthAdjust="spacing" textLength="232.4" x="502.6" y="192.0447">+getProductCategory(categoryID) : ProductCategory</text><text fill="#000000" font-family="sans-serif" font-size="9.8" lengthAdjust="spacing" textLength="135.1" x="502.6" y="205.0795">+getProducts() : List&lt;Product&gt;</text><text fill="#000000" font-family="sans-serif" font-size="9.8" lengthAdjust="spacing" textLength="249.9" x="502.6" y="218.1143">+changeProductCategory(productID, category) : Product</text></g><!--class ProductService--><g id="elem_ProductService"><rect codeLine="22" fill="#F1F1F1" height="98.7738" id="ProductService" rx="1.75" ry="1.75" style="stroke:#181818;stroke-width:0.3499999999999999;" width="295.4" x="498.4" y="283.5"/><ellipse cx="609.525" cy="294.7" fill="#ADD1B2" rx="7.7" ry="7.7" style="stroke:#181818;stroke-width:0.6999999999999998;"/><path d="M611.4609,291.8125 Q611.5703,291.6594 611.7016,291.5828 Q611.8328,291.5062 611.9859,291.5062 Q612.2484,291.5062 612.4125,291.6922 Q612.5766,291.8672 612.5766,292.2937 L612.5766,293.3109 Q612.5766,293.7375 612.4125,293.9234 Q612.2484,294.1094 611.9859,294.1094 Q611.7453,294.1094 611.6031,293.9672 Q611.4609,293.8359 611.3844,293.475 Q611.3516,293.2234 611.2203,293.0922 Q610.9906,292.8297 610.5641,292.6766 Q610.1375,292.5234 609.7,292.5234 Q609.1641,292.5234 608.7156,292.7531 Q608.2781,292.9828 607.9281,293.5078 Q607.5891,294.0328 607.5891,294.7547 L607.5891,295.5203 Q607.5891,296.3844 608.2125,296.9641 Q608.8359,297.5328 609.9516,297.5328 Q610.6078,297.5328 611.0672,297.3578 Q611.3406,297.2484 611.6359,296.9422 Q611.8219,296.7562 611.9203,296.7016 Q612.0297,296.6469 612.1719,296.6469 Q612.4016,296.6469 612.5766,296.8328 Q612.7625,297.0078 612.7625,297.2484 Q612.7625,297.4891 612.5219,297.7734 Q612.1719,298.1781 611.6141,298.4078 Q610.8594,298.725 609.9516,298.725 Q608.8906,298.725 608.0484,298.2875 Q607.3594,297.9375 606.8781,297.1937 Q606.3969,296.4391 606.3969,295.5422 L606.3969,294.7328 Q606.3969,293.8031 606.8234,293.0047 Q607.2609,292.1953 608.0266,291.7687 Q608.7922,291.3312 609.6562,291.3312 Q610.1703,291.3312 610.6187,291.4516 Q611.0781,291.5609 611.4609,291.8125 Z " fill="#000000"/><text fill="#000000" font-family="sans-serif" font-size="9.8" lengthAdjust="spacing" textLength="67.2" x="623.875" y="298.7578">ProductService</text><line style="stroke:#181818;stroke-width:0.3499999999999999;" x1="499.1" x2="793.1" y1="305.9" y2="305.9"/><line style="stroke:#181818;stroke-width:0.3499999999999999;" x1="499.1" x2="793.1" y1="311.5" y2="311.5"/><text fill="#000000" font-family="sans-serif" font-size="9.8" lengthAdjust="spacing" textLength="219.1" x="502.6" y="324.8752">+getProductCategories() : List&lt;ProductCategory&gt;</text><text fill="#000000" font-family="sans-serif" font-size="9.8" lengthAdjust="spacing" textLength="287" x="502.6" y="337.91">+registerCategory(categoryID, categoryName) : ProductCategory</text><text fill="#000000" font-family="sans-serif" font-size="9.8" lengthAdjust="spacing" textLength="218.4" x="502.6" y="350.9447">+getCategoryByID(categoryID) : ProductCategory</text><text fill="#000000" font-family="sans-serif" font-size="9.8" lengthAdjust="spacing" textLength="135.1" x="502.6" y="363.9795">+getProducts() : List&lt;Product&gt;</text><text fill="#000000" font-family="sans-serif" font-size="9.8" lengthAdjust="spacing" textLength="249.9" x="502.6" y="377.0143">+changeProductCategory(productID, category) : Product</text></g><!--class Repositories--><g id="elem_Repositories"><rect codeLine="32" fill="#F1F1F1" height="85.7391" id="Repositories" rx="1.75" ry="1.75" style="stroke:#181818;stroke-width:0.3499999999999999;" width="288.4" x="16.1" y="455"/><ellipse cx="129.675" cy="466.2" fill="#ADD1B2" rx="7.7" ry="7.7" style="stroke:#181818;stroke-width:0.6999999999999998;"/><path d="M131.6109,463.3125 Q131.7203,463.1594 131.8516,463.0828 Q131.9828,463.0062 132.1359,463.0062 Q132.3984,463.0062 132.5625,463.1922 Q132.7266,463.3672 132.7266,463.7937 L132.7266,464.8109 Q132.7266,465.2375 132.5625,465.4234 Q132.3984,465.6094 132.1359,465.6094 Q131.8953,465.6094 131.7531,465.4672 Q131.6109,465.3359 131.5344,464.975 Q131.5016,464.7234 131.3703,464.5922 Q131.1406,464.3297 130.7141,464.1766 Q130.2875,464.0234 129.85,464.0234 Q129.3141,464.0234 128.8656,464.2531 Q128.4281,464.4828 128.0781,465.0078 Q127.7391,465.5328 127.7391,466.2547 L127.7391,467.0203 Q127.7391,467.8844 128.3625,468.4641 Q128.9859,469.0328 130.1016,469.0328 Q130.7578,469.0328 131.2172,468.8578 Q131.4906,468.7484 131.7859,468.4422 Q131.9719,468.2562 132.0703,468.2016 Q132.1797,468.1469 132.3219,468.1469 Q132.5516,468.1469 132.7266,468.3328 Q132.9125,468.5078 132.9125,468.7484 Q132.9125,468.9891 132.6719,469.2734 Q132.3219,469.6781 131.7641,469.9078 Q131.0094,470.225 130.1016,470.225 Q129.0406,470.225 128.1984,469.7875 Q127.5094,469.4375 127.0281,468.6937 Q126.5469,467.9391 126.5469,467.0422 L126.5469,466.2328 Q126.5469,465.3031 126.9734,464.5047 Q127.4109,463.6953 128.1766,463.2687 Q128.9422,462.8312 129.8062,462.8312 Q130.3203,462.8312 130.7687,462.9516 Q131.2281,463.0609 131.6109,463.3125 Z " fill="#000000"/><text fill="#000000" font-family="sans-serif" font-size="9.8" lengthAdjust="spacing" textLength="55.3" x="144.025" y="470.2578">Repositories</text><line style="stroke:#181818;stroke-width:0.3499999999999999;" x1="16.8" x2="303.8" y1="477.4" y2="477.4"/><line style="stroke:#181818;stroke-width:0.3499999999999999;" x1="16.8" x2="303.8" y1="483" y2="483"/><text fill="#000000" font-family="sans-serif" font-size="9.8" lengthAdjust="spacing" textLength="65.8" x="20.3" y="496.3752">-Repositories()</text><text fill="#000000" font-family="sans-serif" font-size="9.8" lengthAdjust="spacing" textLength="127.4" x="20.3" y="509.41">+getInstance() : Repositories</text><text fill="#000000" font-family="sans-serif" font-size="9.8" lengthAdjust="spacing" textLength="198.8" x="20.3" y="522.4447">+getProductRepository() : ProductRepository</text><text fill="#000000" font-family="sans-serif" font-size="9.8" lengthAdjust="spacing" textLength="280" x="20.3" y="535.4795">+getProductCategoryRepository() : ProductCategoryRepository</text></g><!--class ProductCategoryRepository--><g id="elem_ProductCategoryRepository"><rect codeLine="39" fill="#F1F1F1" height="85.7391" id="ProductCategoryRepository" rx="1.75" ry="1.75" style="stroke:#181818;stroke-width:0.3499999999999999;" width="192.5" x="16.45" y="595.7"/><ellipse cx="48.475" cy="606.9" fill="#ADD1B2" rx="7.7" ry="7.7" style="stroke:#181818;stroke-width:0.6999999999999998;"/><path d="M50.4109,604.0125 Q50.5203,603.8594 50.6516,603.7828 Q50.7828,603.7062 50.9359,603.7062 Q51.1984,603.7062 51.3625,603.8922 Q51.5266,604.0672 51.5266,604.4937 L51.5266,605.5109 Q51.5266,605.9375 51.3625,606.1234 Q51.1984,606.3094 50.9359,606.3094 Q50.6953,606.3094 50.5531,606.1672 Q50.4109,606.0359 50.3344,605.675 Q50.3016,605.4234 50.1703,605.2922 Q49.9406,605.0297 49.5141,604.8766 Q49.0875,604.7234 48.65,604.7234 Q48.1141,604.7234 47.6656,604.9531 Q47.2281,605.1828 46.8781,605.7078 Q46.5391,606.2328 46.5391,606.9547 L46.5391,607.7203 Q46.5391,608.5844 47.1625,609.1641 Q47.7859,609.7328 48.9016,609.7328 Q49.5578,609.7328 50.0172,609.5578 Q50.2906,609.4484 50.5859,609.1422 Q50.7719,608.9562 50.8703,608.9016 Q50.9797,608.8469 51.1219,608.8469 Q51.3516,608.8469 51.5266,609.0328 Q51.7125,609.2078 51.7125,609.4484 Q51.7125,609.6891 51.4719,609.9734 Q51.1219,610.3781 50.5641,610.6078 Q49.8094,610.925 48.9016,610.925 Q47.8406,610.925 46.9984,610.4875 Q46.3094,610.1375 45.8281,609.3937 Q45.3469,608.6391 45.3469,607.7422 L45.3469,606.9328 Q45.3469,606.0031 45.7734,605.2047 Q46.2109,604.3953 46.9766,603.9687 Q47.7422,603.5312 48.6062,603.5312 Q49.1203,603.5312 49.5687,603.6516 Q50.0281,603.7609 50.4109,604.0125 Z " fill="#000000"/><text fill="#000000" font-family="sans-serif" font-size="9.8" lengthAdjust="spacing" textLength="122.5" x="62.825" y="610.9578">ProductCategoryRepository</text><line style="stroke:#181818;stroke-width:0.3499999999999999;" x1="17.15" x2="208.25" y1="618.1" y2="618.1"/><line style="stroke:#181818;stroke-width:0.3499999999999999;" x1="17.15" x2="208.25" y1="623.7" y2="623.7"/><text fill="#000000" font-family="sans-serif" font-size="9.8" lengthAdjust="spacing" textLength="147" x="20.65" y="637.0752">+getAll() : List&lt;ProductCategory&gt;</text><text fill="#000000" font-family="sans-serif" font-size="9.8" lengthAdjust="spacing" textLength="177.8" x="20.65" y="650.11">+getByID(categoryID) : ProductCategory</text><text fill="#000000" font-family="sans-serif" font-size="9.8" lengthAdjust="spacing" textLength="184.1" x="20.65" y="663.1447">+getCategoryExists(categoryID) : boolean</text><text fill="#000000" font-family="sans-serif" font-size="9.8" lengthAdjust="spacing" textLength="116.2" x="20.65" y="676.1795">+save(category) : boolean</text></g><!--class ProductRepository--><g id="elem_ProductRepository"><rect codeLine="46" fill="#F1F1F1" height="72.7043" id="ProductRepository" rx="1.75" ry="1.75" style="stroke:#181818;stroke-width:0.3499999999999999;" width="175" x="233.8" y="602"/><ellipse cx="277.375" cy="613.2" fill="#ADD1B2" rx="7.7" ry="7.7" style="stroke:#181818;stroke-width:0.6999999999999998;"/><path d="M279.3109,610.3125 Q279.4203,610.1594 279.5516,610.0828 Q279.6828,610.0062 279.8359,610.0062 Q280.0984,610.0062 280.2625,610.1922 Q280.4266,610.3672 280.4266,610.7937 L280.4266,611.8109 Q280.4266,612.2375 280.2625,612.4234 Q280.0984,612.6094 279.8359,612.6094 Q279.5953,612.6094 279.4531,612.4672 Q279.3109,612.3359 279.2344,611.975 Q279.2016,611.7234 279.0703,611.5922 Q278.8406,611.3297 278.4141,611.1766 Q277.9875,611.0234 277.55,611.0234 Q277.0141,611.0234 276.5656,611.2531 Q276.1281,611.4828 275.7781,612.0078 Q275.4391,612.5328 275.4391,613.2547 L275.4391,614.0203 Q275.4391,614.8844 276.0625,615.4641 Q276.6859,616.0328 277.8016,616.0328 Q278.4578,616.0328 278.9172,615.8578 Q279.1906,615.7484 279.4859,615.4422 Q279.6719,615.2562 279.7703,615.2016 Q279.8797,615.1469 280.0219,615.1469 Q280.2516,615.1469 280.4266,615.3328 Q280.6125,615.5078 280.6125,615.7484 Q280.6125,615.9891 280.3719,616.2734 Q280.0219,616.6781 279.4641,616.9078 Q278.7094,617.225 277.8016,617.225 Q276.7406,617.225 275.8984,616.7875 Q275.2094,616.4375 274.7281,615.6937 Q274.2469,614.9391 274.2469,614.0422 L274.2469,613.2328 Q274.2469,612.3031 274.6734,611.5047 Q275.1109,610.6953 275.8766,610.2687 Q276.6422,609.8312 277.5062,609.8312 Q278.0203,609.8312 278.4687,609.9516 Q278.9281,610.0609 279.3109,610.3125 Z " fill="#000000"/><text fill="#000000" font-family="sans-serif" font-size="9.8" lengthAdjust="spacing" textLength="81.9" x="291.725" y="617.2578">ProductRepository</text><line style="stroke:#181818;stroke-width:0.3499999999999999;" x1="234.5" x2="408.1" y1="624.4" y2="624.4"/><line style="stroke:#181818;stroke-width:0.3499999999999999;" x1="234.5" x2="408.1" y1="630" y2="630"/><text fill="#000000" font-family="sans-serif" font-size="9.8" lengthAdjust="spacing" textLength="145.6" x="238" y="643.3752">+getAllProducts() : List&lt;Product&gt;</text><text fill="#000000" font-family="sans-serif" font-size="9.8" lengthAdjust="spacing" textLength="166.6" x="238" y="656.41">+getProductByID(productID) : Product</text><text fill="#000000" font-family="sans-serif" font-size="9.8" lengthAdjust="spacing" textLength="161.7" x="238" y="669.4447">+updateCategory(product) : boolean</text></g><!--class Part--><g id="elem_Part"><rect codeLine="54" fill="#F1F1F1" height="85.7391" id="Part" rx="1.75" ry="1.75" style="stroke:#181818;stroke-width:0.3499999999999999;" width="130.9" x="738.85" y="921.2"/><ellipse cx="792.225" cy="932.4" fill="#ADD1B2" rx="7.7" ry="7.7" style="stroke:#181818;stroke-width:0.6999999999999998;"/><path d="M794.1609,929.5125 Q794.2703,929.3594 794.4016,929.2828 Q794.5328,929.2062 794.6859,929.2062 Q794.9484,929.2062 795.1125,929.3922 Q795.2766,929.5672 795.2766,929.9937 L795.2766,931.0109 Q795.2766,931.4375 795.1125,931.6234 Q794.9484,931.8094 794.6859,931.8094 Q794.4453,931.8094 794.3031,931.6672 Q794.1609,931.5359 794.0844,931.175 Q794.0516,930.9234 793.9203,930.7922 Q793.6906,930.5297 793.2641,930.3766 Q792.8375,930.2234 792.4,930.2234 Q791.8641,930.2234 791.4156,930.4531 Q790.9781,930.6828 790.6281,931.2078 Q790.2891,931.7328 790.2891,932.4547 L790.2891,933.2203 Q790.2891,934.0844 790.9125,934.6641 Q791.5359,935.2328 792.6516,935.2328 Q793.3078,935.2328 793.7672,935.0578 Q794.0406,934.9484 794.3359,934.6422 Q794.5219,934.4562 794.6203,934.4016 Q794.7297,934.3469 794.8719,934.3469 Q795.1016,934.3469 795.2766,934.5328 Q795.4625,934.7078 795.4625,934.9484 Q795.4625,935.1891 795.2219,935.4734 Q794.8719,935.8781 794.3141,936.1078 Q793.5594,936.425 792.6516,936.425 Q791.5906,936.425 790.7484,935.9875 Q790.0594,935.6375 789.5781,934.8937 Q789.0969,934.1391 789.0969,933.2422 L789.0969,932.4328 Q789.0969,931.5031 789.5234,930.7047 Q789.9609,929.8953 790.7266,929.4687 Q791.4922,929.0312 792.3562,929.0312 Q792.8703,929.0312 793.3187,929.1516 Q793.7781,929.2609 794.1609,929.5125 Z " fill="#000000"/><text fill="#000000" font-family="sans-serif" font-size="9.8" lengthAdjust="spacing" textLength="18.2" x="806.575" y="936.4578">Part</text><line style="stroke:#181818;stroke-width:0.3499999999999999;" x1="739.55" x2="869.05" y1="943.6" y2="943.6"/><text fill="#000000" font-family="sans-serif" font-size="9.8" lengthAdjust="spacing" textLength="45.5" x="743.05" y="956.9752">-id : String</text><text fill="#000000" font-family="sans-serif" font-size="9.8" lengthAdjust="spacing" textLength="62.3" x="743.05" y="970.01">-name : String</text><text fill="#000000" font-family="sans-serif" font-size="9.8" lengthAdjust="spacing" textLength="86.1" x="743.05" y="983.0447">-description : String</text><line style="stroke:#181818;stroke-width:0.3499999999999999;" x1="739.55" x2="869.05" y1="988.3043" y2="988.3043"/><text fill="#000000" font-family="sans-serif" font-size="9.8" lengthAdjust="spacing" textLength="122.5" x="743.05" y="1001.6795">+Part(id, name, description)</text></g><!--class Product--><g id="elem_Product"><rect codeLine="61" fill="#F1F1F1" height="111.8086" id="Product" rx="1.75" ry="1.75" style="stroke:#181818;stroke-width:0.3499999999999999;" width="310.1" x="728.35" y="753.9"/><ellipse cx="863.275" cy="765.1" fill="#ADD1B2" rx="7.7" ry="7.7" style="stroke:#181818;stroke-width:0.6999999999999998;"/><path d="M865.2109,762.2125 Q865.3203,762.0594 865.4516,761.9828 Q865.5828,761.9062 865.7359,761.9062 Q865.9984,761.9062 866.1625,762.0922 Q866.3266,762.2672 866.3266,762.6937 L866.3266,763.7109 Q866.3266,764.1375 866.1625,764.3234 Q865.9984,764.5094 865.7359,764.5094 Q865.4953,764.5094 865.3531,764.3672 Q865.2109,764.2359 865.1344,763.875 Q865.1016,763.6234 864.9703,763.4922 Q864.7406,763.2297 864.3141,763.0766 Q863.8875,762.9234 863.45,762.9234 Q862.9141,762.9234 862.4656,763.1531 Q862.0281,763.3828 861.6781,763.9078 Q861.3391,764.4328 861.3391,765.1547 L861.3391,765.9203 Q861.3391,766.7844 861.9625,767.3641 Q862.5859,767.9328 863.7016,767.9328 Q864.3578,767.9328 864.8172,767.7578 Q865.0906,767.6484 865.3859,767.3422 Q865.5719,767.1562 865.6703,767.1016 Q865.7797,767.0469 865.9219,767.0469 Q866.1516,767.0469 866.3266,767.2328 Q866.5125,767.4078 866.5125,767.6484 Q866.5125,767.8891 866.2719,768.1734 Q865.9219,768.5781 865.3641,768.8078 Q864.6094,769.125 863.7016,769.125 Q862.6406,769.125 861.7984,768.6875 Q861.1094,768.3375 860.6281,767.5937 Q860.1469,766.8391 860.1469,765.9422 L860.1469,765.1328 Q860.1469,764.2031 860.5734,763.4047 Q861.0109,762.5953 861.7766,762.1687 Q862.5422,761.7312 863.4062,761.7312 Q863.9203,761.7312 864.3687,761.8516 Q864.8281,761.9609 865.2109,762.2125 Z " fill="#000000"/><text fill="#000000" font-family="sans-serif" font-size="9.8" lengthAdjust="spacing" textLength="34.3" x="877.625" y="769.1578">Product</text><line style="stroke:#181818;stroke-width:0.3499999999999999;" x1="729.05" x2="1037.75" y1="776.3" y2="776.3"/><text fill="#000000" font-family="sans-serif" font-size="9.8" lengthAdjust="spacing" textLength="125.3" x="732.55" y="789.6752">-category : ProductCategory</text><text fill="#000000" font-family="sans-serif" font-size="9.8" lengthAdjust="spacing" textLength="58.8" x="732.55" y="802.71">-capacity : int</text><text fill="#000000" font-family="sans-serif" font-size="9.8" lengthAdjust="spacing" textLength="39.2" x="732.55" y="815.7447">-size : int</text><text fill="#000000" font-family="sans-serif" font-size="9.8" lengthAdjust="spacing" textLength="59.5" x="732.55" y="828.7795">-color : String</text><text fill="#000000" font-family="sans-serif" font-size="9.8" lengthAdjust="spacing" textLength="63.7" x="732.55" y="841.8143">-price : double</text><line style="stroke:#181818;stroke-width:0.3499999999999999;" x1="729.05" x2="1037.75" y1="847.0738" y2="847.0738"/><text fill="#000000" font-family="sans-serif" font-size="9.8" lengthAdjust="spacing" textLength="301.7" x="732.55" y="860.449">+Product(id, name, description, category, capacity, size, color, price)</text></g><!--class ProductCategory--><g id="elem_ProductCategory"><rect codeLine="70" fill="#F1F1F1" height="72.7043" id="ProductCategory" rx="1.75" ry="1.75" style="stroke:#181818;stroke-width:0.3499999999999999;" width="133.7" x="894.25" y="927.5"/><ellipse cx="921.13" cy="938.7" fill="#ADD1B2" rx="7.7" ry="7.7" style="stroke:#181818;stroke-width:0.6999999999999998;"/><path d="M923.0659,935.8125 Q923.1753,935.6594 923.3066,935.5828 Q923.4378,935.5062 923.5909,935.5062 Q923.8534,935.5062 924.0175,935.6922 Q924.1816,935.8672 924.1816,936.2937 L924.1816,937.3109 Q924.1816,937.7375 924.0175,937.9234 Q923.8534,938.1094 923.5909,938.1094 Q923.3503,938.1094 923.2081,937.9672 Q923.0659,937.8359 922.9894,937.475 Q922.9566,937.2234 922.8253,937.0922 Q922.5956,936.8297 922.1691,936.6766 Q921.7425,936.5234 921.305,936.5234 Q920.7691,936.5234 920.3206,936.7531 Q919.8831,936.9828 919.5331,937.5078 Q919.1941,938.0328 919.1941,938.7547 L919.1941,939.5203 Q919.1941,940.3844 919.8175,940.9641 Q920.4409,941.5328 921.5566,941.5328 Q922.2128,941.5328 922.6722,941.3578 Q922.9456,941.2484 923.2409,940.9422 Q923.4269,940.7562 923.5253,940.7016 Q923.6347,940.6469 923.7769,940.6469 Q924.0066,940.6469 924.1816,940.8328 Q924.3675,941.0078 924.3675,941.2484 Q924.3675,941.4891 924.1269,941.7734 Q923.7769,942.1781 923.2191,942.4078 Q922.4644,942.725 921.5566,942.725 Q920.4956,942.725 919.6534,942.2875 Q918.9644,941.9375 918.4831,941.1937 Q918.0019,940.4391 918.0019,939.5422 L918.0019,938.7328 Q918.0019,937.8031 918.4284,937.0047 Q918.8659,936.1953 919.6316,935.7687 Q920.3972,935.3312 921.2612,935.3312 Q921.7753,935.3312 922.2237,935.4516 Q922.6831,935.5609 923.0659,935.8125 Z " fill="#000000"/><text fill="#000000" font-family="sans-serif" font-size="9.8" lengthAdjust="spacing" textLength="74.9" x="934.57" y="942.7578">ProductCategory</text><line style="stroke:#181818;stroke-width:0.3499999999999999;" x1="894.95" x2="1027.25" y1="949.9" y2="949.9"/><text fill="#000000" font-family="sans-serif" font-size="9.8" lengthAdjust="spacing" textLength="45.5" x="898.45" y="963.2752">-id : String</text><text fill="#000000" font-family="sans-serif" font-size="9.8" lengthAdjust="spacing" textLength="62.3" x="898.45" y="976.31">-name : String</text><line style="stroke:#181818;stroke-width:0.3499999999999999;" x1="894.95" x2="1027.25" y1="981.5695" y2="981.5695"/><text fill="#000000" font-family="sans-serif" font-size="9.8" lengthAdjust="spacing" textLength="125.3" x="898.45" y="994.9447">+ProductCategory(id, name)</text></g><!--class ProductException--><g id="elem_ProductException"><rect codeLine="78" fill="#F1F1F1" height="85.7391" id="ProductException" rx="1.75" ry="1.75" style="stroke:#181818;stroke-width:0.3499999999999999;" width="333.9" x="668.85" y="455"/><ellipse cx="794.325" cy="466.2" fill="#ADD1B2" rx="7.7" ry="7.7" style="stroke:#181818;stroke-width:0.6999999999999998;"/><path d="M796.2609,463.3125 Q796.3703,463.1594 796.5016,463.0828 Q796.6328,463.0062 796.7859,463.0062 Q797.0484,463.0062 797.2125,463.1922 Q797.3766,463.3672 797.3766,463.7937 L797.3766,464.8109 Q797.3766,465.2375 797.2125,465.4234 Q797.0484,465.6094 796.7859,465.6094 Q796.5453,465.6094 796.4031,465.4672 Q796.2609,465.3359 796.1844,464.975 Q796.1516,464.7234 796.0203,464.5922 Q795.7906,464.3297 795.3641,464.1766 Q794.9375,464.0234 794.5,464.0234 Q793.9641,464.0234 793.5156,464.2531 Q793.0781,464.4828 792.7281,465.0078 Q792.3891,465.5328 792.3891,466.2547 L792.3891,467.0203 Q792.3891,467.8844 793.0125,468.4641 Q793.6359,469.0328 794.7516,469.0328 Q795.4078,469.0328 795.8672,468.8578 Q796.1406,468.7484 796.4359,468.4422 Q796.6219,468.2562 796.7203,468.2016 Q796.8297,468.1469 796.9719,468.1469 Q797.2016,468.1469 797.3766,468.3328 Q797.5625,468.5078 797.5625,468.7484 Q797.5625,468.9891 797.3219,469.2734 Q796.9719,469.6781 796.4141,469.9078 Q795.6594,470.225 794.7516,470.225 Q793.6906,470.225 792.8484,469.7875 Q792.1594,469.4375 791.6781,468.6937 Q791.1969,467.9391 791.1969,467.0422 L791.1969,466.2328 Q791.1969,465.3031 791.6234,464.5047 Q792.0609,463.6953 792.8266,463.2687 Q793.5922,462.8312 794.4562,462.8312 Q794.9703,462.8312 795.4187,462.9516 Q795.8781,463.0609 796.2609,463.3125 Z " fill="#000000"/><text fill="#000000" font-family="sans-serif" font-size="9.8" lengthAdjust="spacing" textLength="77" x="808.675" y="470.2578">ProductException</text><line style="stroke:#181818;stroke-width:0.3499999999999999;" x1="669.55" x2="1002.05" y1="477.4" y2="477.4"/><line style="stroke:#181818;stroke-width:0.3499999999999999;" x1="669.55" x2="1002.05" y1="483" y2="483"/><text fill="#000000" font-family="sans-serif" font-size="9.8" lengthAdjust="spacing" textLength="227.5" x="673.05" y="496.3752">+categoryNotFound(categoryID) : ProductException</text><text fill="#000000" font-family="sans-serif" font-size="9.8" lengthAdjust="spacing" textLength="242.9" x="673.05" y="509.41">+categoryAlreadyExists(categoryID) : ProductException</text><text fill="#000000" font-family="sans-serif" font-size="9.8" lengthAdjust="spacing" textLength="217.7" x="673.05" y="522.4447">+productNotFound(productID) : ProductException</text><text fill="#000000" font-family="sans-serif" font-size="9.8" lengthAdjust="spacing" textLength="325.5" x="673.05" y="535.4795">+productAlreadyInCategory(productID, categoryName) : ProductException</text></g><!--class RuntimeException--><g id="elem_RuntimeException"><rect codeLine="85" fill="#F1F1F1" height="33.6" id="RuntimeException" rx="1.75" ry="1.75" style="stroke:#181818;stroke-width:0.3499999999999999;" width="101.5" x="785.05" y="621.6"/><ellipse cx="795.55" cy="632.8" fill="#ADD1B2" rx="7.7" ry="7.7" style="stroke:#181818;stroke-width:0.6999999999999998;"/><path d="M797.4859,629.9125 Q797.5953,629.7594 797.7266,629.6828 Q797.8578,629.6062 798.0109,629.6062 Q798.2734,629.6062 798.4375,629.7922 Q798.6016,629.9672 798.6016,630.3937 L798.6016,631.4109 Q798.6016,631.8375 798.4375,632.0234 Q798.2734,632.2094 798.0109,632.2094 Q797.7703,632.2094 797.6281,632.0672 Q797.4859,631.9359 797.4094,631.575 Q797.3766,631.3234 797.2453,631.1922 Q797.0156,630.9297 796.5891,630.7766 Q796.1625,630.6234 795.725,630.6234 Q795.1891,630.6234 794.7406,630.8531 Q794.3031,631.0828 793.9531,631.6078 Q793.6141,632.1328 793.6141,632.8547 L793.6141,633.6203 Q793.6141,634.4844 794.2375,635.0641 Q794.8609,635.6328 795.9766,635.6328 Q796.6328,635.6328 797.0922,635.4578 Q797.3656,635.3484 797.6609,635.0422 Q797.8469,634.8562 797.9453,634.8016 Q798.0547,634.7469 798.1969,634.7469 Q798.4266,634.7469 798.6016,634.9328 Q798.7875,635.1078 798.7875,635.3484 Q798.7875,635.5891 798.5469,635.8734 Q798.1969,636.2781 797.6391,636.5078 Q796.8844,636.825 795.9766,636.825 Q794.9156,636.825 794.0734,636.3875 Q793.3844,636.0375 792.9031,635.2937 Q792.4219,634.5391 792.4219,633.6422 L792.4219,632.8328 Q792.4219,631.9031 792.8484,631.1047 Q793.2859,630.2953 794.0516,629.8687 Q794.8172,629.4312 795.6812,629.4312 Q796.1953,629.4312 796.6437,629.5516 Q797.1031,629.6609 797.4859,629.9125 Z " fill="#000000"/><text fill="#000000" font-family="sans-serif" font-size="9.8" lengthAdjust="spacing" textLength="79.1" x="805.35" y="636.8578">RuntimeException</text><line style="stroke:#181818;stroke-width:0.3499999999999999;" x1="785.75" x2="885.85" y1="644" y2="644"/><line style="stroke:#181818;stroke-width:0.3499999999999999;" x1="785.75" x2="885.85" y1="649.6" y2="649.6"/></g><!--link ChangeProductCategoryUI to ProductController--><g id="link_ChangeProductCategoryUI_ProductController"><path codeLine="88" d="M646.1,64.638 C646.1,79.849 646.1,99.113 646.1,120.344 " fill="none" id="ChangeProductCategoryUI-to-ProductController" style="stroke:#181818;stroke-width:0.6999999999999998;stroke-dasharray:7.0,7.0;"/><polygon fill="#181818" points="646.1,124.544,648.9,118.244,646.1,121.044,643.3,118.244,646.1,124.544" style="stroke:#181818;stroke-width:0.6999999999999998;"/></g><!--link ProductController to ProductService--><g id="link_ProductController_ProductService"><path codeLine="89" d="M646.1,223.405 C646.1,242.466 646.1,260.085 646.1,279.153 " fill="none" id="ProductController-to-ProductService" style="stroke:#181818;stroke-width:0.6999999999999998;stroke-dasharray:7.0,7.0;"/><polygon fill="#181818" points="646.1,283.353,648.9,277.053,646.1,279.853,643.3,277.053,646.1,283.353" style="stroke:#181818;stroke-width:0.6999999999999998;"/></g><!--link ProductService to Repositories--><g id="link_ProductService_Repositories"><path codeLine="90" d="M498.204,368.137 C420.945,386.211 342.3,404.6 342.3,404.6 C342.3,404.6 294.868,428.6826 246.792,453.0916 " fill="none" id="ProductService-to-Repositories" style="stroke:#181818;stroke-width:0.6999999999999998;stroke-dasharray:7.0,7.0;"/><polygon fill="#181818" points="243.047,454.993,249.932,454.6376,246.1678,453.4085,247.3969,449.6443,243.047,454.993" style="stroke:#181818;stroke-width:0.6999999999999998;"/><text fill="#000000" font-family="sans-serif" font-size="9.1" lengthAdjust="spacing" textLength="46.9" x="343" y="415.1198">repositories</text></g><!--link ProductService to ProductRepository--><g id="link_ProductService_ProductRepository"><path codeLine="91" d="M611.639,382.214 C596.631,403.403 582.4,423.5 582.4,423.5 C582.4,423.5 525.7,540.4 525.7,540.4 C525.7,540.4 458.6102,572.3348 400.3352,600.0758 " fill="none" id="ProductService-to-ProductRepository" style="stroke:#181818;stroke-width:0.6999999999999998;stroke-dasharray:7.0,7.0;"/><polygon fill="#181818" points="396.543,601.881,403.4349,601.7013,399.7032,600.3766,401.0279,596.645,396.543,601.881" style="stroke:#181818;stroke-width:0.6999999999999998;"/><text fill="#000000" font-family="sans-serif" font-size="9.1" lengthAdjust="spacing" textLength="73.5" x="583.1" y="501.5698">productRepository</text></g><!--link ProductService to ProductCategoryRepository--><g id="link_ProductService_ProductCategoryRepository"><path codeLine="92" d="M517.727,382.214 C461.811,403.403 408.8,423.5 408.8,423.5 C408.8,423.5 372.4,540.4 372.4,540.4 C372.4,540.4 345.8,574.7 345.8,574.7 C345.8,574.7 221.9,595.7 221.9,595.7 C221.9,595.7 220.8711,596.0965 213.0801,599.0925 " fill="none" id="ProductService-to-ProductCategoryRepository" style="stroke:#181818;stroke-width:0.6999999999999998;stroke-dasharray:7.0,7.0;"/><polygon fill="#181818" points="209.16,600.6,216.0452,600.9522,212.4268,599.3438,214.0352,595.7254,209.16,600.6" style="stroke:#181818;stroke-width:0.6999999999999998;"/><text fill="#000000" font-family="sans-serif" font-size="9.1" lengthAdjust="spacing" textLength="109.9" x="409.5" y="501.5698">productCategoryRepository</text></g><!--link ProductService to Product--><g id="link_ProductService_Product"><path codeLine="93" d="M794.003,369.684 C896.378,394.695 1014.3,423.5 1014.3,423.5 C1014.3,423.5 1014.3,697.9 1014.3,697.9 C1014.3,697.9 984.5155,723.2211 951.6645,751.1581 " fill="none" id="ProductService-to-Product" style="stroke:#181818;stroke-width:0.6999999999999998;stroke-dasharray:7.0,7.0;"/><polygon fill="#181818" points="948.465,753.879,955.0782,751.9307,951.1312,751.6116,951.4503,747.6647,948.465,753.879" style="stroke:#181818;stroke-width:0.6999999999999998;"/><text fill="#000000" font-family="sans-serif" font-size="9.1" lengthAdjust="spacing" textLength="30.1" x="1015" y="571.9198">product</text></g><!--link ProductService to ProductCategory--><g id="link_ProductService_ProductCategory"><path codeLine="94" d="M793.961,364.819 C884.107,383.88 982.1,404.6 982.1,404.6 C982.1,404.6 1032.5,423.5 1032.5,423.5 C1032.5,423.5 1111.6,497 1111.6,497 C1111.6,497 1111.6,497 1111.6,810.6 C1111.6,810.6 1043.8211,879.3246 999.3361,924.4326 " fill="none" id="ProductService-to-ProductCategory" style="stroke:#181818;stroke-width:0.6999999999999998;stroke-dasharray:7.0,7.0;"/><polygon fill="#181818" points="996.387,927.423,1002.8043,924.9034,998.8446,924.931,998.8171,920.9713,996.387,927.423" style="stroke:#181818;stroke-width:0.6999999999999998;"/><text fill="#000000" font-family="sans-serif" font-size="9.1" lengthAdjust="spacing" textLength="66.5" x="1112.3" y="642.2698">productCategory</text></g><!--link Repositories to Repositories--><g id="link_Repositories_Repositories"><path codeLine="95" d="M304.584,486.871 C319.473,488.999 329,492.604 329,497.7 C329,502.796 323.6307,505.8068 308.7417,507.9348 " fill="none" id="Repositories-to-Repositories" style="stroke:#181818;stroke-width:0.6999999999999998;"/><polygon fill="#181818" points="304.584,508.529,311.2168,510.4095,308.0488,508.0338,310.4245,504.8658,304.584,508.529" style="stroke:#181818;stroke-width:0.6999999999999998;"/><text fill="#000000" font-family="sans-serif" font-size="9.1" lengthAdjust="spacing" textLength="34.3" x="333.2" y="501.5698">instance</text></g><!--link Repositories to ProductRepository--><g id="link_Repositories_ProductRepository"><path codeLine="96" d="M223.335,540.421 C240.667,551.978 254.8,561.4 254.8,561.4 C254.8,561.4 269.9884,578.8278 287.2364,598.6168 " fill="none" id="Repositories-to-ProductRepository" style="stroke:#181818;stroke-width:0.6999999999999998;"/><polygon fill="#181818" points="289.996,601.783,287.9674,595.194,287.6963,599.1445,283.7458,598.8735,289.996,601.783" style="stroke:#181818;stroke-width:0.6999999999999998;"/><text fill="#000000" font-family="sans-serif" font-size="9.1" lengthAdjust="spacing" textLength="73.5" x="266" y="571.9198">productRepository</text><text fill="#000000" font-family="sans-serif" font-size="9.1" lengthAdjust="spacing" textLength="4.9" x="225.8188" y="556.1644">1</text><text fill="#000000" font-family="sans-serif" font-size="9.1" lengthAdjust="spacing" textLength="4.9" x="280.5603" y="594.003">1</text></g><!--link Repositories to ProductCategoryRepository--><g id="link_Repositories_ProductCategoryRepository"><path codeLine="97" d="M145.887,540.575 C139.923,558.026 134.3783,574.2534 128.4213,591.6974 " fill="none" id="Repositories-to-ProductCategoryRepository" style="stroke:#181818;stroke-width:0.6999999999999998;"/><polygon fill="#181818" points="127.064,595.672,131.7497,590.6149,128.1951,592.3598,126.4502,588.8052,127.064,595.672" style="stroke:#181818;stroke-width:0.6999999999999998;"/><text fill="#000000" font-family="sans-serif" font-size="9.1" lengthAdjust="spacing" textLength="109.9" x="138.6" y="571.9198">productCategoryRepository</text><text fill="#000000" font-family="sans-serif" font-size="9.1" lengthAdjust="spacing" textLength="4.9" x="139.0372" y="556.0324">1</text><text fill="#000000" font-family="sans-serif" font-size="9.1" lengthAdjust="spacing" textLength="4.9" x="123.5416" y="587.9556">1</text></g><!--link ProductRepository to Product--><g id="link_ProductRepository_Product"><path codeLine="98" d="M408.821,665.588 C493.983,691.355 621.2201,729.8564 724.1271,760.9994 " fill="none" id="ProductRepository-to-Product" style="stroke:#181818;stroke-width:0.6999999999999998;"/><polygon fill="#181818" points="728.147,762.216,722.9281,757.7112,724.797,761.2022,721.306,763.0711,728.147,762.216" style="stroke:#181818;stroke-width:0.6999999999999998;"/><text fill="#000000" font-family="sans-serif" font-size="9.1" lengthAdjust="spacing" textLength="42" x="569.1" y="714.0198">categories</text><text fill="#000000" font-family="sans-serif" font-size="9.1" lengthAdjust="spacing" textLength="4.9" x="414.3036" y="664.8111">1</text><text fill="#000000" font-family="sans-serif" font-size="9.1" lengthAdjust="spacing" textLength="3.5" x="719.0047" y="758.2155">*</text></g><!--link ProductCategoryRepository to ProductCategory--><g id="link_ProductCategoryRepository_ProductCategory"><path codeLine="99" d="M190.897,681.205 C208.404,690.634 221.9,697.9 221.9,697.9 C221.9,697.9 672.7,865.9 672.7,865.9 C672.7,865.9 882,921.2 882,921.2 C882,921.2 883.0785,921.7712 890.3025,925.6072 " fill="none" id="ProductCategoryRepository-to-ProductCategory" style="stroke:#181818;stroke-width:0.6999999999999998;"/><polygon fill="#181818" points="894.012,927.577,889.761,922.1494,890.9208,925.9355,887.1346,927.0953,894.012,927.577" style="stroke:#181818;stroke-width:0.6999999999999998;"/><text fill="#000000" font-family="sans-serif" font-size="9.1" lengthAdjust="spacing" textLength="42" x="673.4" y="813.7698">categories</text><text fill="#000000" font-family="sans-serif" font-size="9.1" lengthAdjust="spacing" textLength="4.9" x="195.2287" y="696.9586">1</text><text fill="#000000" font-family="sans-serif" font-size="9.1" lengthAdjust="spacing" textLength="3.5" x="885.2416" y="922.2718">*</text></g><!--link Product to ProductCategory--><g id="link_Product_ProductCategory"><path codeLine="100" d="M911.561,865.907 C921.984,886.382 931.6143,905.2913 940.9313,923.5893 " fill="none" id="Product-to-ProductCategory" style="stroke:#181818;stroke-width:0.6999999999999998;"/><polygon fill="#181818" points="942.837,927.332,942.4736,920.4474,941.2489,924.213,937.4832,922.9884,942.837,927.332" style="stroke:#181818;stroke-width:0.6999999999999998;"/><text fill="#000000" font-family="sans-serif" font-size="9.1" lengthAdjust="spacing" textLength="14.7" x="927.5" y="897.4198">has</text><text fill="#000000" font-family="sans-serif" font-size="9.1" lengthAdjust="spacing" textLength="3.5" x="910.3307" y="881.0682">*</text><text fill="#000000" font-family="sans-serif" font-size="9.1" lengthAdjust="spacing" textLength="4.9" x="935.1537" y="919.5586">1</text></g><!--link Product to Part--><g id="link_Product_Part"><path codeLine="101" d="M854.728,865.907 C845.313,884.079 840.7981,892.7783 831.9711,909.8163 " fill="none" id="Product-to-Part" style="stroke:#181818;stroke-width:0.6999999999999998;"/><polygon fill="none" points="826.175,921.004,835.7003,911.7483,828.2419,907.8842,826.175,921.004" style="stroke:#181818;stroke-width:0.6999999999999998;"/></g><!--link ProductService to ProductException--><g id="link_ProductService_ProductException"><path codeLine="102" d="M702.758,382.368 C729.505,405.419 757.9352,429.9145 783.6322,452.0555 " fill="none" id="ProductService-to-ProductException" style="stroke:#181818;stroke-width:0.6999999999999998;stroke-dasharray:7.0,7.0;"/><polygon fill="#181818" points="786.814,454.797,783.8689,448.5635,784.1625,452.5124,780.2136,452.8059,786.814,454.797" style="stroke:#181818;stroke-width:0.6999999999999998;"/><text fill="#000000" font-family="sans-serif" font-size="9.1" lengthAdjust="spacing" textLength="26.6" x="741.3" y="415.1198">throws</text></g><!--link ProductException to RuntimeException--><g id="link_ProductException_RuntimeException"><path codeLine="103" d="M835.8,540.575 C835.8,567.798 835.8,589.099 835.8,608.797 " fill="none" id="ProductException-to-RuntimeException" style="stroke:#181818;stroke-width:0.6999999999999998;"/><polygon fill="none" points="835.8,621.397,840,608.797,831.6,608.797,835.8,621.397" style="stroke:#181818;stroke-width:0.6999999999999998;"/></g><!--SRC=[pLPHRziW47xthq1vSfQusbwZgLAMTPAbRPeQzGSGV7LG2LX0scPR__l0iGqssCtwrBp4vhxlxlYuEwmUAA-mn0TKOVA0IzZg4mCaWMZCImQ9wW1gZmlnH7c9xZ5JleLH3lfK0Qe4EzaNpqOOLcgjjQIxeuQS2Bwblm5zJ98c89hTvJFq9q7cLuFHPcz2moyfYYFH6woX5F9qbpUOb-J5usu4rr8m1hBlesLtviPgVuiITDyx1PNEqGfzfqf_7WI-TZm9fG60R4qfQHxohqlKFl_41x2-1cucelj-BcI6wNffafX-QNL-zrFrWaMatO9yf0IYkZQsToLgk_Z5CD-dehTG2KMrmVL5xTQDP9wacR-UpdjPvroP1YLGP-tZOdjpSLClGRSwLPjnRcXjjXjfmG0wg9erOvVKYK7-vycsYpVFnhCQ47T2CC3S4HH-XDG_HnyHszZKXYufAgTrlQ-kceOrL8EFLM5I6vPUcAPVRZz40MpGlbXgly9eOJnipN3cfLlafjaYomKe8ccbgU2XTM4zfxHO8ijU8Wyy7rNGpwHLVk9C3SRiZMgBeTo9aobxempMY612HdPHIJktLgWGnvsvtbp-vw3nBRW6jq_d99R8XZNlDj0IrNxdhtR16yLV36TFc-OySkutpmJgjAEZkxFwLTlDMQ6_YIClubtMKKFYcad0HRpLnjbD6NTHOpqmJcjYvdng8WzkZhwttadT7hcc1t08Ontx5BcwkWu_CPBmeyF3DLTcChX1BQ8t_rVcuyiRvn5uE7zMg0fc-ZWnCf4x1v71Fkx8qIw85iP8UllEia08sbnoVU3iqwm6s__Bf7YD_ZP1F7JdyyFCquPqtq79UA08rLCiT543H_8tX3rso2pxUrrF_8dJSTDWXVHUYgUExYordw0x_W40]--></g></svg>