<?xml version="1.0" encoding="us-ascii" standalone="no"?><svg xmlns="http://www.w3.org/2000/svg" xmlns:xlink="http://www.w3.org/1999/xlink" contentStyleType="text/css" height="506px" preserveAspectRatio="none" style="width:683px;height:506px;background:#FFFFFF;" version="1.1" viewBox="0 0 683 506" width="683px" zoomAndPan="magnify"><defs/><g><text fill="#000000" font-family="sans-serif" font-size="14" font-weight="bold" lengthAdjust="spacing" textLength="228" x="228.5" y="30.1074">System Sequence Diagram (SSD)</text><rect fill="#FFFFFF" height="281.3281" style="stroke:#181818;stroke-width:1.0;" width="10" x="82" y="133.2422"/><rect fill="#FFFFFF" height="31.291" style="stroke:#181818;stroke-width:1.0;" width="10" x="434" y="156.5332"/><rect fill="#FFFFFF" height="101.873" style="stroke:#181818;stroke-width:1.0;" width="10" x="434" y="219.1152"/><rect fill="none" height="128.1641" style="stroke:#000000;stroke-width:1.5;" width="666" x="10" y="278.4063"/><line style="stroke:#181818;stroke-width:0.5;stroke-dasharray:5.0,5.0;" x1="87" x2="87" y1="123.2422" y2="423.5703"/><line style="stroke:#181818;stroke-width:0.5;stroke-dasharray:5.0,5.0;" x1="439" x2="439" y1="123.2422" y2="423.5703"/><text fill="#000000" font-family="sans-serif" font-size="14" lengthAdjust="spacing" textLength="128" x="20" y="119.7285">Production Manager</text><ellipse cx="87" cy="53.1211" fill="#E3E3E3" rx="8" ry="8" style="stroke:#181818;stroke-width:0.5;"/><path d="M87,61.1211 L87,88.1211 M74,69.1211 L100,69.1211 M87,88.1211 L74,103.1211 M87,88.1211 L100,103.1211 " fill="none" style="stroke:#181818;stroke-width:0.5;"/><text fill="#000000" font-family="sans-serif" font-size="14" lengthAdjust="spacing" textLength="128" x="20" y="437.6777">Production Manager</text><ellipse cx="87" cy="449.6914" fill="#E3E3E3" rx="8" ry="8" style="stroke:#181818;stroke-width:0.5;"/><path d="M87,457.6914 L87,484.6914 M74,465.6914 L100,465.6914 M87,484.6914 L74,499.6914 M87,484.6914 L100,499.6914 " fill="none" style="stroke:#181818;stroke-width:0.5;"/><rect fill="#E3E3E3" height="32.6211" rx="2.5" ry="2.5" style="stroke:#181818;stroke-width:0.5;" width="64" x="407" y="89.6211"/><text fill="#000000" font-family="sans-serif" font-size="14" lengthAdjust="spacing" textLength="50" x="414" y="111.7285">:System</text><rect fill="#E3E3E3" height="32.6211" rx="2.5" ry="2.5" style="stroke:#181818;stroke-width:0.5;" width="64" x="407" y="422.5703"/><text fill="#000000" font-family="sans-serif" font-size="14" lengthAdjust="spacing" textLength="50" x="414" y="444.6777">:System</text><rect fill="#FFFFFF" height="281.3281" style="stroke:#181818;stroke-width:1.0;" width="10" x="82" y="133.2422"/><rect fill="#FFFFFF" height="31.291" style="stroke:#181818;stroke-width:1.0;" width="10" x="434" y="156.5332"/><rect fill="#FFFFFF" height="101.873" style="stroke:#181818;stroke-width:1.0;" width="10" x="434" y="219.1152"/><polygon fill="#181818" points="422,152.5332,432,156.5332,422,160.5332,426,156.5332" style="stroke:#181818;stroke-width:1.0;"/><line style="stroke:#181818;stroke-width:1.0;" x1="92" x2="428" y1="156.5332" y2="156.5332"/><text fill="#000000" font-family="sans-serif" font-size="13" font-weight="bold" lengthAdjust="spacing" textLength="7" x="99" y="151.2705">1</text><text fill="#000000" font-family="sans-serif" font-size="13" lengthAdjust="spacing" textLength="237" x="110" y="151.2705">requests to consult products by category</text><polygon fill="#181818" points="103,183.8242,93,187.8242,103,191.8242,99,187.8242" style="stroke:#181818;stroke-width:1.0;"/><line style="stroke:#181818;stroke-width:1.0;stroke-dasharray:2.0,2.0;" x1="97" x2="438" y1="187.8242" y2="187.8242"/><text fill="#000000" font-family="sans-serif" font-size="13" font-weight="bold" lengthAdjust="spacing" textLength="7" x="109" y="182.5615">2</text><text fill="#000000" font-family="sans-serif" font-size="13" lengthAdjust="spacing" textLength="307" x="120" y="182.5615">shows the list of categories and requests category ID</text><polygon fill="#181818" points="422,215.1152,432,219.1152,422,223.1152,426,219.1152" style="stroke:#181818;stroke-width:1.0;"/><line style="stroke:#181818;stroke-width:1.0;" x1="92" x2="428" y1="219.1152" y2="219.1152"/><text fill="#000000" font-family="sans-serif" font-size="13" font-weight="bold" lengthAdjust="spacing" textLength="7" x="99" y="213.8525">3</text><text fill="#000000" font-family="sans-serif" font-size="13" lengthAdjust="spacing" textLength="117" x="110" y="213.8525">provides category ID</text><line style="stroke:#181818;stroke-width:1.0;" x1="444" x2="486" y1="250.4063" y2="250.4063"/><line style="stroke:#181818;stroke-width:1.0;" x1="486" x2="486" y1="250.4063" y2="263.4063"/><line style="stroke:#181818;stroke-width:1.0;" x1="445" x2="486" y1="263.4063" y2="263.4063"/><polygon fill="#181818" points="455,259.4063,445,263.4063,455,267.4063,451,263.4063" style="stroke:#181818;stroke-width:1.0;"/><text fill="#000000" font-family="sans-serif" font-size="13" font-weight="bold" lengthAdjust="spacing" textLength="7" x="451" y="245.1436">4</text><text fill="#000000" font-family="sans-serif" font-size="13" lengthAdjust="spacing" textLength="191" x="462" y="245.1436">checks if category already exists</text><path d="M10,278.4063 L71,278.4063 L71,287.6973 L61,297.6973 L10,297.6973 L10,278.4063 " fill="#EEEEEE" style="stroke:#000000;stroke-width:1.5;"/><rect fill="none" height="128.1641" style="stroke:#000000;stroke-width:1.5;" width="666" x="10" y="278.4063"/><text fill="#000000" font-family="sans-serif" font-size="13" font-weight="bold" lengthAdjust="spacing" textLength="16" x="25" y="293.4346">alt</text><text fill="#000000" font-family="sans-serif" font-size="11" font-weight="bold" lengthAdjust="spacing" textLength="138" x="86" y="292.2764">[category does not exist]</text><polygon fill="#181818" points="103,316.9883,93,320.9883,103,324.9883,99,320.9883" style="stroke:#181818;stroke-width:1.0;"/><line style="stroke:#181818;stroke-width:1.0;stroke-dasharray:2.0,2.0;" x1="97" x2="438" y1="320.9883" y2="320.9883"/><text fill="#000000" font-family="sans-serif" font-size="13" font-weight="bold" lengthAdjust="spacing" textLength="7" x="109" y="315.7256">5</text><text fill="#000000" font-family="sans-serif" font-size="13" lengthAdjust="spacing" textLength="274" x="120" y="315.7256">shows error message (Category does not exist)</text><line style="stroke:#000000;stroke-width:1.0;stroke-dasharray:2.0,2.0;" x1="10" x2="676" y1="329.9883" y2="329.9883"/><line style="stroke:#181818;stroke-width:1.0;" x1="439" x2="481" y1="354.2793" y2="354.2793"/><line style="stroke:#181818;stroke-width:1.0;" x1="481" x2="481" y1="354.2793" y2="367.2793"/><line style="stroke:#181818;stroke-width:1.0;" x1="440" x2="481" y1="367.2793" y2="367.2793"/><polygon fill="#181818" points="450,363.2793,440,367.2793,450,371.2793,446,367.2793" style="stroke:#181818;stroke-width:1.0;"/><text fill="#000000" font-family="sans-serif" font-size="13" font-weight="bold" lengthAdjust="spacing" textLength="7" x="446" y="349.0166">6</text><text fill="#000000" font-family="sans-serif" font-size="13" lengthAdjust="spacing" textLength="207" x="457" y="349.0166">retrieves products from the category</text><polygon fill="#181818" points="103,394.5703,93,398.5703,103,402.5703,99,398.5703" style="stroke:#181818;stroke-width:1.0;"/><line style="stroke:#181818;stroke-width:1.0;stroke-dasharray:2.0,2.0;" x1="97" x2="438" y1="398.5703" y2="398.5703"/><text fill="#000000" font-family="sans-serif" font-size="13" font-weight="bold" lengthAdjust="spacing" textLength="7" x="109" y="393.3076">7</text><text fill="#000000" font-family="sans-serif" font-size="13" lengthAdjust="spacing" textLength="291" x="120" y="393.3076">shows the list of products in the selected category</text><!--SRC=[ZPCnZi8m44Lxds941GKNeDXcQRP0Gie91dkIM2Gswvd0vlOxE2J0mY9SMV7t-z_-3kzzE6325jeOegrJR0aaTMHuMZcWtMD5XVGDGI8h6AhcLi0rkdZoeO8I6oPZn8jAYvw5MYZekwDW2TOUgxDyNXJhXJ7OIGnTkwEaSoinmMoRekki-1XWWq4zqmoGORinQYJU-WC6WTbg8EUrOPe9_eX2Px417TiDB3_632lDhIbO62I2ZO6xHk0ms37iUh2wjugfptids4Y7oxZWbafM_afF7a-Ah0aQpmAn73cU632ug-t8XwzrfZdwr-HFSarvz8uU4MyblG7PckoUmPTN4ZQ9qFL0FngVfysPh1SqwLnK_n1b4DxfNbyDfQJ5jiIiRSByypbmyK1yl9xRLSglx9dxNUEYDHpLP-gvrEUTsxfh-_ro9v0F-JjJexy3kUUy5nNdGmHdVW40]--></g></svg>