<?xml version="1.0" encoding="us-ascii" standalone="no"?><svg xmlns="http://www.w3.org/2000/svg" xmlns:xlink="http://www.w3.org/1999/xlink" contentStyleType="text/css" height="564.9px" preserveAspectRatio="none" style="width:962px;height:564px;background:#FFFFFF;" version="1.1" viewBox="0 0 962 564" width="962.4px" zoomAndPan="magnify"><defs/><g><!--cluster UI--><g id="cluster_UI"><rect fill="none" height="30.3" rx="0.75" ry="0.75" style="stroke:#000000;stroke-width:0.44999999999999996;" width="61.2" x="470.4" y="2.1"/><text fill="#000000" font-family="sans-serif" font-size="4.2" font-weight="bold" lengthAdjust="spacing" textLength="4.2" x="498.9" y="7.2322">UI</text></g><!--cluster Controller--><g id="cluster_Controller"><rect fill="none" height="41.4" rx="0.75" ry="0.75" style="stroke:#000000;stroke-width:0.44999999999999996;" width="449.4" x="276.9" y="42.3"/><text fill="#000000" font-family="sans-serif" font-size="4.2" font-weight="bold" lengthAdjust="spacing" textLength="21.3" x="490.95" y="47.4322">Controller</text></g><!--cluster Service--><g id="cluster_Service"><rect fill="none" height="41.4" rx="0.75" ry="0.75" style="stroke:#000000;stroke-width:0.44999999999999996;" width="469.8" x="270.6" y="93.6"/><text fill="#000000" font-family="sans-serif" font-size="4.2" font-weight="bold" lengthAdjust="spacing" textLength="16.2" x="497.4" y="98.7322">Service</text></g><!--cluster Repository--><g id="cluster_Repository"><rect fill="none" height="118.8" rx="0.75" ry="0.75" style="stroke:#000000;stroke-width:0.44999999999999996;" width="401.1" x="2.1" y="150.3"/><text fill="#000000" font-family="sans-serif" font-size="4.2" font-weight="bold" lengthAdjust="spacing" textLength="22.8" x="191.25" y="155.4322">Repository</text></g><!--cluster Model--><g id="cluster_Model"><rect fill="none" height="278.7" rx="0.75" ry="0.75" style="stroke:#000000;stroke-width:0.44999999999999996;" width="293.4" x="652.5" y="284.4"/><text fill="#000000" font-family="sans-serif" font-size="4.2" font-weight="bold" lengthAdjust="spacing" textLength="13.2" x="792.6" y="289.5322">Model</text></g><!--cluster Exception--><g id="cluster_Exception"><rect fill="none" height="102" rx="0.75" ry="0.75" style="stroke:#000000;stroke-width:0.44999999999999996;" width="367.5" x="410.4" y="158.7"/><text fill="#000000" font-family="sans-serif" font-size="4.2" font-weight="bold" lengthAdjust="spacing" textLength="21" x="583.65" y="163.8322">Exception</text></g><!--cluster Commom--><g id="cluster_Commom"><rect fill="none" height="36" rx="0.75" ry="0.75" style="stroke:#000000;stroke-width:0.44999999999999996;" width="81" x="821.4" y="164.25"/><text fill="#000000" font-family="sans-serif" font-size="4.2" font-weight="bold" lengthAdjust="spacing" textLength="19.2" x="852.3" y="169.3822">Commom</text></g><!--class RegisterSupplyOfferUI--><g id="elem_RegisterSupplyOfferUI"><rect codeLine="7" fill="#F1F1F1" height="14.4" id="RegisterSupplyOfferUI" rx="0.75" ry="0.75" style="stroke:#181818;stroke-width:0.15;" width="51.6" x="475.2" y="13.2"/><ellipse cx="479.7" cy="18" fill="#ADD1B2" rx="3.3" ry="3.3" style="stroke:#181818;stroke-width:0.3;"/><path d="M480.5297,16.7625 Q480.5766,16.6969 480.6328,16.6641 Q480.6891,16.6312 480.7547,16.6312 Q480.8672,16.6312 480.9375,16.7109 Q481.0078,16.7859 481.0078,16.9688 L481.0078,17.4047 Q481.0078,17.5875 480.9375,17.6672 Q480.8672,17.7469 480.7547,17.7469 Q480.6516,17.7469 480.5906,17.6859 Q480.5297,17.6297 480.4969,17.475 Q480.4828,17.3672 480.4266,17.3109 Q480.3281,17.1984 480.1453,17.1328 Q479.9625,17.0672 479.775,17.0672 Q479.5453,17.0672 479.3531,17.1656 Q479.1656,17.2641 479.0156,17.4891 Q478.8703,17.7141 478.8703,18.0234 L478.8703,18.3516 Q478.8703,18.7219 479.1375,18.9703 Q479.4047,19.2141 479.8828,19.2141 Q480.1641,19.2141 480.3609,19.1391 Q480.4781,19.0922 480.6047,18.9609 Q480.6844,18.8812 480.7266,18.8578 Q480.7734,18.8344 480.8344,18.8344 Q480.9328,18.8344 481.0078,18.9141 Q481.0875,18.9891 481.0875,19.0922 Q481.0875,19.1953 480.9844,19.3172 Q480.8344,19.4906 480.5953,19.5891 Q480.2719,19.725 479.8828,19.725 Q479.4281,19.725 479.0672,19.5375 Q478.7719,19.3875 478.5656,19.0687 Q478.3594,18.7453 478.3594,18.3609 L478.3594,18.0141 Q478.3594,17.6156 478.5422,17.2734 Q478.7297,16.9266 479.0578,16.7438 Q479.3859,16.5563 479.7562,16.5563 Q479.9766,16.5563 480.1688,16.6078 Q480.3656,16.6547 480.5297,16.7625 Z " fill="#000000"/><text fill="#000000" font-family="sans-serif" font-size="4.2" lengthAdjust="spacing" textLength="42" x="483.9" y="19.7391">RegisterSupplyOfferUI</text><line style="stroke:#181818;stroke-width:0.15;" x1="475.5" x2="526.5" y1="22.8" y2="22.8"/><line style="stroke:#181818;stroke-width:0.15;" x1="475.5" x2="526.5" y1="25.2" y2="25.2"/></g><!--class SupplierController--><g id="elem_SupplierController"><rect codeLine="12" fill="#F1F1F1" height="25.5727" id="SupplierController" rx="0.75" ry="0.75" style="stroke:#181818;stroke-width:0.15;" width="77.4" x="281.7" y="53.4"/><ellipse cx="302.025" cy="58.2" fill="#ADD1B2" rx="3.3" ry="3.3" style="stroke:#181818;stroke-width:0.3;"/><path d="M302.8547,56.9625 Q302.9016,56.8969 302.9578,56.8641 Q303.0141,56.8313 303.0797,56.8313 Q303.1922,56.8313 303.2625,56.9109 Q303.3328,56.9859 303.3328,57.1687 L303.3328,57.6047 Q303.3328,57.7875 303.2625,57.8672 Q303.1922,57.9469 303.0797,57.9469 Q302.9766,57.9469 302.9156,57.8859 Q302.8547,57.8297 302.8219,57.675 Q302.8078,57.5672 302.7516,57.5109 Q302.6531,57.3984 302.4703,57.3328 Q302.2875,57.2672 302.1,57.2672 Q301.8703,57.2672 301.6781,57.3656 Q301.4906,57.4641 301.3406,57.6891 Q301.1953,57.9141 301.1953,58.2234 L301.1953,58.5516 Q301.1953,58.9219 301.4625,59.1703 Q301.7297,59.4141 302.2078,59.4141 Q302.4891,59.4141 302.6859,59.3391 Q302.8031,59.2922 302.9297,59.1609 Q303.0094,59.0813 303.0516,59.0578 Q303.0984,59.0344 303.1594,59.0344 Q303.2578,59.0344 303.3328,59.1141 Q303.4125,59.1891 303.4125,59.2922 Q303.4125,59.3953 303.3094,59.5172 Q303.1594,59.6906 302.9203,59.7891 Q302.5969,59.925 302.2078,59.925 Q301.7531,59.925 301.3922,59.7375 Q301.0969,59.5875 300.8906,59.2688 Q300.6844,58.9453 300.6844,58.5609 L300.6844,58.2141 Q300.6844,57.8156 300.8672,57.4734 Q301.0547,57.1266 301.3828,56.9438 Q301.7109,56.7563 302.0813,56.7563 Q302.3016,56.7563 302.4938,56.8078 Q302.6906,56.8547 302.8547,56.9625 Z " fill="#000000"/><text fill="#000000" font-family="sans-serif" font-size="4.2" lengthAdjust="spacing" textLength="34.2" x="308.175" y="59.9391">SupplierController</text><line style="stroke:#181818;stroke-width:0.15;" x1="282" x2="358.8" y1="63" y2="63"/><line style="stroke:#181818;stroke-width:0.15;" x1="282" x2="358.8" y1="65.4" y2="65.4"/><text fill="#000000" font-family="sans-serif" font-size="4.2" lengthAdjust="spacing" textLength="59.7" x="283.5" y="71.1322">+getSuppliers() : List&lt;Supplier&gt;</text><text fill="#000000" font-family="sans-serif" font-size="4.2" lengthAdjust="spacing" textLength="73.8" x="283.5" y="76.7186">+getSupplierByID(supplierID) : Supplier</text></g><!--class SupplyOfferController--><g id="elem_SupplyOfferController"><rect codeLine="17" fill="#F1F1F1" height="19.9863" id="SupplyOfferController" rx="0.75" ry="0.75" style="stroke:#181818;stroke-width:0.15;" width="262.8" x="369.6" y="56.1"/><ellipse cx="479.175" cy="60.9" fill="#ADD1B2" rx="3.3" ry="3.3" style="stroke:#181818;stroke-width:0.3;"/><path d="M480.0047,59.6625 Q480.0516,59.5969 480.1078,59.5641 Q480.1641,59.5313 480.2297,59.5313 Q480.3422,59.5313 480.4125,59.6109 Q480.4828,59.6859 480.4828,59.8688 L480.4828,60.3047 Q480.4828,60.4875 480.4125,60.5672 Q480.3422,60.6469 480.2297,60.6469 Q480.1266,60.6469 480.0656,60.5859 Q480.0047,60.5297 479.9719,60.375 Q479.9578,60.2672 479.9016,60.2109 Q479.8031,60.0984 479.6203,60.0328 Q479.4375,59.9672 479.25,59.9672 Q479.0203,59.9672 478.8281,60.0656 Q478.6406,60.1641 478.4906,60.3891 Q478.3453,60.6141 478.3453,60.9234 L478.3453,61.2516 Q478.3453,61.6219 478.6125,61.8703 Q478.8797,62.1141 479.3578,62.1141 Q479.6391,62.1141 479.8359,62.0391 Q479.9531,61.9922 480.0797,61.8609 Q480.1594,61.7813 480.2016,61.7578 Q480.2484,61.7344 480.3094,61.7344 Q480.4078,61.7344 480.4828,61.8141 Q480.5625,61.8891 480.5625,61.9922 Q480.5625,62.0953 480.4594,62.2172 Q480.3094,62.3906 480.0703,62.4891 Q479.7469,62.625 479.3578,62.625 Q478.9031,62.625 478.5422,62.4375 Q478.2469,62.2875 478.0406,61.9688 Q477.8344,61.6453 477.8344,61.2609 L477.8344,60.9141 Q477.8344,60.5156 478.0172,60.1734 Q478.2047,59.8266 478.5328,59.6438 Q478.8609,59.4563 479.2313,59.4563 Q479.4516,59.4563 479.6437,59.5078 Q479.8406,59.5547 480.0047,59.6625 Z " fill="#000000"/><text fill="#000000" font-family="sans-serif" font-size="4.2" lengthAdjust="spacing" textLength="41.1" x="485.325" y="62.6391">SupplyOfferController</text><line style="stroke:#181818;stroke-width:0.15;" x1="369.9" x2="632.1" y1="65.7" y2="65.7"/><line style="stroke:#181818;stroke-width:0.15;" x1="369.9" x2="632.1" y1="68.1" y2="68.1"/><text fill="#000000" font-family="sans-serif" font-size="4.2" lengthAdjust="spacing" textLength="259.2" x="371.4" y="73.8322">+registerSupplyOffer(supplier, supplyOfferID, street, zipCode, town, country, startDate, endDate, rawMaterialsQuantityCost) : SupplyOffer</text></g><!--class RawMaterialController--><g id="elem_RawMaterialController"><rect codeLine="21" fill="#F1F1F1" height="19.9863" id="RawMaterialController" rx="0.75" ry="0.75" style="stroke:#181818;stroke-width:0.15;" width="78.3" x="643.05" y="56.1"/><ellipse cx="660.075" cy="60.9" fill="#ADD1B2" rx="3.3" ry="3.3" style="stroke:#181818;stroke-width:0.3;"/><path d="M660.9047,59.6625 Q660.9516,59.5969 661.0078,59.5641 Q661.0641,59.5313 661.1297,59.5313 Q661.2422,59.5313 661.3125,59.6109 Q661.3828,59.6859 661.3828,59.8688 L661.3828,60.3047 Q661.3828,60.4875 661.3125,60.5672 Q661.2422,60.6469 661.1297,60.6469 Q661.0266,60.6469 660.9656,60.5859 Q660.9047,60.5297 660.8719,60.375 Q660.8578,60.2672 660.8016,60.2109 Q660.7031,60.0984 660.5203,60.0328 Q660.3375,59.9672 660.15,59.9672 Q659.9203,59.9672 659.7281,60.0656 Q659.5406,60.1641 659.3906,60.3891 Q659.2453,60.6141 659.2453,60.9234 L659.2453,61.2516 Q659.2453,61.6219 659.5125,61.8703 Q659.7797,62.1141 660.2578,62.1141 Q660.5391,62.1141 660.7359,62.0391 Q660.8531,61.9922 660.9797,61.8609 Q661.0594,61.7813 661.1016,61.7578 Q661.1484,61.7344 661.2094,61.7344 Q661.3078,61.7344 661.3828,61.8141 Q661.4625,61.8891 661.4625,61.9922 Q661.4625,62.0953 661.3594,62.2172 Q661.2094,62.3906 660.9703,62.4891 Q660.6469,62.625 660.2578,62.625 Q659.8031,62.625 659.4422,62.4375 Q659.1469,62.2875 658.9406,61.9688 Q658.7344,61.6453 658.7344,61.2609 L658.7344,60.9141 Q658.7344,60.5156 658.9172,60.1734 Q659.1047,59.8266 659.4328,59.6438 Q659.7609,59.4563 660.1313,59.4563 Q660.3516,59.4563 660.5437,59.5078 Q660.7406,59.5547 660.9047,59.6625 Z " fill="#000000"/><text fill="#000000" font-family="sans-serif" font-size="4.2" lengthAdjust="spacing" textLength="41.7" x="666.225" y="62.6391">RawMaterialController</text><line style="stroke:#181818;stroke-width:0.15;" x1="643.35" x2="721.05" y1="65.7" y2="65.7"/><line style="stroke:#181818;stroke-width:0.15;" x1="643.35" x2="721.05" y1="68.1" y2="68.1"/><text fill="#000000" font-family="sans-serif" font-size="4.2" lengthAdjust="spacing" textLength="74.7" x="644.85" y="73.8322">+getRawMaterials() : List&lt;RawMaterial&gt;</text></g><!--class SupplierService--><g id="elem_SupplierService"><rect codeLine="27" fill="#F1F1F1" height="25.5727" id="SupplierService" rx="0.75" ry="0.75" style="stroke:#181818;stroke-width:0.15;" width="77.4" x="275.4" y="104.7"/><ellipse cx="297.975" cy="109.5" fill="#ADD1B2" rx="3.3" ry="3.3" style="stroke:#181818;stroke-width:0.3;"/><path d="M298.8047,108.2625 Q298.8516,108.1969 298.9078,108.1641 Q298.9641,108.1313 299.0297,108.1313 Q299.1422,108.1313 299.2125,108.2109 Q299.2828,108.2859 299.2828,108.4688 L299.2828,108.9047 Q299.2828,109.0875 299.2125,109.1672 Q299.1422,109.2469 299.0297,109.2469 Q298.9266,109.2469 298.8656,109.1859 Q298.8047,109.1297 298.7719,108.975 Q298.7578,108.8672 298.7016,108.8109 Q298.6031,108.6984 298.4203,108.6328 Q298.2375,108.5672 298.05,108.5672 Q297.8203,108.5672 297.6281,108.6656 Q297.4406,108.7641 297.2906,108.9891 Q297.1453,109.2141 297.1453,109.5234 L297.1453,109.8516 Q297.1453,110.2219 297.4125,110.4703 Q297.6797,110.7141 298.1578,110.7141 Q298.4391,110.7141 298.6359,110.6391 Q298.7531,110.5922 298.8797,110.4609 Q298.9594,110.3813 299.0016,110.3578 Q299.0484,110.3344 299.1094,110.3344 Q299.2078,110.3344 299.2828,110.4141 Q299.3625,110.4891 299.3625,110.5922 Q299.3625,110.6953 299.2594,110.8172 Q299.1094,110.9906 298.8703,111.0891 Q298.5469,111.225 298.1578,111.225 Q297.7031,111.225 297.3422,111.0375 Q297.0469,110.8875 296.8406,110.5688 Q296.6344,110.2453 296.6344,109.8609 L296.6344,109.5141 Q296.6344,109.1156 296.8172,108.7734 Q297.0047,108.4266 297.3328,108.2437 Q297.6609,108.0562 298.0313,108.0562 Q298.2516,108.0562 298.4437,108.1078 Q298.6406,108.1547 298.8047,108.2625 Z " fill="#000000"/><text fill="#000000" font-family="sans-serif" font-size="4.2" lengthAdjust="spacing" textLength="29.7" x="304.125" y="111.2391">SupplierService</text><line style="stroke:#181818;stroke-width:0.15;" x1="275.7" x2="352.5" y1="114.3" y2="114.3"/><line style="stroke:#181818;stroke-width:0.15;" x1="275.7" x2="352.5" y1="116.7" y2="116.7"/><text fill="#000000" font-family="sans-serif" font-size="4.2" lengthAdjust="spacing" textLength="59.7" x="277.2" y="122.4322">+getSuppliers() : List&lt;Supplier&gt;</text><text fill="#000000" font-family="sans-serif" font-size="4.2" lengthAdjust="spacing" textLength="73.8" x="277.2" y="128.0186">+getSupplierByID(supplierID) : Supplier</text></g><!--class SupplyOfferService--><g id="elem_SupplyOfferService"><rect codeLine="32" fill="#F1F1F1" height="19.9863" id="SupplyOfferService" rx="0.75" ry="0.75" style="stroke:#181818;stroke-width:0.15;" width="262.8" x="363.3" y="107.4"/><ellipse cx="475.125" cy="112.2" fill="#ADD1B2" rx="3.3" ry="3.3" style="stroke:#181818;stroke-width:0.3;"/><path d="M475.9547,110.9625 Q476.0016,110.8969 476.0578,110.8641 Q476.1141,110.8313 476.1797,110.8313 Q476.2922,110.8313 476.3625,110.9109 Q476.4328,110.9859 476.4328,111.1688 L476.4328,111.6047 Q476.4328,111.7875 476.3625,111.8672 Q476.2922,111.9469 476.1797,111.9469 Q476.0766,111.9469 476.0156,111.8859 Q475.9547,111.8297 475.9219,111.675 Q475.9078,111.5672 475.8516,111.5109 Q475.7531,111.3984 475.5703,111.3328 Q475.3875,111.2672 475.2,111.2672 Q474.9703,111.2672 474.7781,111.3656 Q474.5906,111.4641 474.4406,111.6891 Q474.2953,111.9141 474.2953,112.2234 L474.2953,112.5516 Q474.2953,112.9219 474.5625,113.1703 Q474.8297,113.4141 475.3078,113.4141 Q475.5891,113.4141 475.7859,113.3391 Q475.9031,113.2922 476.0297,113.1609 Q476.1094,113.0813 476.1516,113.0578 Q476.1984,113.0344 476.2594,113.0344 Q476.3578,113.0344 476.4328,113.1141 Q476.5125,113.1891 476.5125,113.2922 Q476.5125,113.3953 476.4094,113.5172 Q476.2594,113.6906 476.0203,113.7891 Q475.6969,113.925 475.3078,113.925 Q474.8531,113.925 474.4922,113.7375 Q474.1969,113.5875 473.9906,113.2688 Q473.7844,112.9453 473.7844,112.5609 L473.7844,112.2141 Q473.7844,111.8156 473.9672,111.4734 Q474.1547,111.1266 474.4828,110.9438 Q474.8109,110.7563 475.1813,110.7563 Q475.4016,110.7563 475.5938,110.8078 Q475.7906,110.8547 475.9547,110.9625 Z " fill="#000000"/><text fill="#000000" font-family="sans-serif" font-size="4.2" lengthAdjust="spacing" textLength="36.6" x="481.275" y="113.9391">SupplyOfferService</text><line style="stroke:#181818;stroke-width:0.15;" x1="363.6" x2="625.8" y1="117" y2="117"/><line style="stroke:#181818;stroke-width:0.15;" x1="363.6" x2="625.8" y1="119.4" y2="119.4"/><text fill="#000000" font-family="sans-serif" font-size="4.2" lengthAdjust="spacing" textLength="259.2" x="365.1" y="125.1322">+registerSupplyOffer(supplier, supplyOfferID, street, zipCode, town, country, startDate, endDate, rawMaterialsQuantityCost) : SupplyOffer</text></g><!--class RawMaterialService--><g id="elem_RawMaterialService"><rect codeLine="36" fill="#F1F1F1" height="25.5727" id="RawMaterialService" rx="0.75" ry="0.75" style="stroke:#181818;stroke-width:0.15;" width="99" x="636.6" y="104.7"/><ellipse cx="666.225" cy="109.5" fill="#ADD1B2" rx="3.3" ry="3.3" style="stroke:#181818;stroke-width:0.3;"/><path d="M667.0547,108.2625 Q667.1016,108.1969 667.1578,108.1641 Q667.2141,108.1313 667.2797,108.1313 Q667.3922,108.1313 667.4625,108.2109 Q667.5328,108.2859 667.5328,108.4688 L667.5328,108.9047 Q667.5328,109.0875 667.4625,109.1672 Q667.3922,109.2469 667.2797,109.2469 Q667.1766,109.2469 667.1156,109.1859 Q667.0547,109.1297 667.0219,108.975 Q667.0078,108.8672 666.9516,108.8109 Q666.8531,108.6984 666.6703,108.6328 Q666.4875,108.5672 666.3,108.5672 Q666.0703,108.5672 665.8781,108.6656 Q665.6906,108.7641 665.5406,108.9891 Q665.3953,109.2141 665.3953,109.5234 L665.3953,109.8516 Q665.3953,110.2219 665.6625,110.4703 Q665.9297,110.7141 666.4078,110.7141 Q666.6891,110.7141 666.8859,110.6391 Q667.0031,110.5922 667.1297,110.4609 Q667.2094,110.3813 667.2516,110.3578 Q667.2984,110.3344 667.3594,110.3344 Q667.4578,110.3344 667.5328,110.4141 Q667.6125,110.4891 667.6125,110.5922 Q667.6125,110.6953 667.5094,110.8172 Q667.3594,110.9906 667.1203,111.0891 Q666.7969,111.225 666.4078,111.225 Q665.9531,111.225 665.5922,111.0375 Q665.2969,110.8875 665.0906,110.5688 Q664.8844,110.2453 664.8844,109.8609 L664.8844,109.5141 Q664.8844,109.1156 665.0672,108.7734 Q665.2547,108.4266 665.5828,108.2437 Q665.9109,108.0562 666.2813,108.0562 Q666.5016,108.0562 666.6938,108.1078 Q666.8906,108.1547 667.0547,108.2625 Z " fill="#000000"/><text fill="#000000" font-family="sans-serif" font-size="4.2" lengthAdjust="spacing" textLength="37.2" x="672.375" y="111.2391">RawMaterialService</text><line style="stroke:#181818;stroke-width:0.15;" x1="636.9" x2="735.3" y1="114.3" y2="114.3"/><line style="stroke:#181818;stroke-width:0.15;" x1="636.9" x2="735.3" y1="116.7" y2="116.7"/><text fill="#000000" font-family="sans-serif" font-size="4.2" lengthAdjust="spacing" textLength="74.7" x="638.4" y="122.4322">+getRawMaterials() : List&lt;RawMaterial&gt;</text><text fill="#000000" font-family="sans-serif" font-size="4.2" lengthAdjust="spacing" textLength="95.4" x="638.4" y="128.0186">+getRawMaterialByID(rawMaterialID) : RawMaterial</text></g><!--class Repositories--><g id="elem_Repositories"><rect codeLine="43" fill="#F1F1F1" height="47.918" id="Repositories" rx="0.75" ry="0.75" style="stroke:#181818;stroke-width:0.15;" width="105.6" x="107.7" y="161.4"/><ellipse cx="147.375" cy="166.2" fill="#ADD1B2" rx="3.3" ry="3.3" style="stroke:#181818;stroke-width:0.3;"/><path d="M148.2047,164.9625 Q148.2516,164.8969 148.3078,164.8641 Q148.3641,164.8312 148.4297,164.8312 Q148.5422,164.8312 148.6125,164.9109 Q148.6828,164.9859 148.6828,165.1688 L148.6828,165.6047 Q148.6828,165.7875 148.6125,165.8672 Q148.5422,165.9469 148.4297,165.9469 Q148.3266,165.9469 148.2656,165.8859 Q148.2047,165.8297 148.1719,165.675 Q148.1578,165.5672 148.1016,165.5109 Q148.0031,165.3984 147.8203,165.3328 Q147.6375,165.2672 147.45,165.2672 Q147.2203,165.2672 147.0281,165.3656 Q146.8406,165.4641 146.6906,165.6891 Q146.5453,165.9141 146.5453,166.2234 L146.5453,166.5516 Q146.5453,166.9219 146.8125,167.1703 Q147.0797,167.4141 147.5578,167.4141 Q147.8391,167.4141 148.0359,167.3391 Q148.1531,167.2922 148.2797,167.1609 Q148.3594,167.0812 148.4016,167.0578 Q148.4484,167.0344 148.5094,167.0344 Q148.6078,167.0344 148.6828,167.1141 Q148.7625,167.1891 148.7625,167.2922 Q148.7625,167.3953 148.6594,167.5172 Q148.5094,167.6906 148.2703,167.7891 Q147.9469,167.925 147.5578,167.925 Q147.1031,167.925 146.7422,167.7375 Q146.4469,167.5875 146.2406,167.2687 Q146.0344,166.9453 146.0344,166.5609 L146.0344,166.2141 Q146.0344,165.8156 146.2172,165.4734 Q146.4047,165.1266 146.7328,164.9438 Q147.0609,164.7563 147.4313,164.7563 Q147.6516,164.7563 147.8438,164.8078 Q148.0406,164.8547 148.2047,164.9625 Z " fill="#000000"/><text fill="#000000" font-family="sans-serif" font-size="4.2" lengthAdjust="spacing" textLength="23.7" x="153.525" y="167.9391">Repositories</text><line style="stroke:#181818;stroke-width:0.15;" x1="108" x2="213" y1="171" y2="171"/><line style="stroke:#181818;stroke-width:0.15;" x1="108" x2="213" y1="173.4" y2="173.4"/><text fill="#000000" font-family="sans-serif" font-size="4.2" lengthAdjust="spacing" textLength="28.2" x="109.5" y="179.1322">-Repositories()</text><text fill="#000000" font-family="sans-serif" font-size="4.2" lengthAdjust="spacing" textLength="54.6" x="109.5" y="184.7186">+getInstance() : Repositories</text><text fill="#000000" font-family="sans-serif" font-size="4.2" lengthAdjust="spacing" textLength="87" x="109.5" y="190.3049">+getSupplierRepository() : SupplierRepository</text><text fill="#000000" font-family="sans-serif" font-size="4.2" lengthAdjust="spacing" textLength="87" x="109.5" y="195.8912">+getAddressRepository() : AddressRepository</text><text fill="#000000" font-family="sans-serif" font-size="4.2" lengthAdjust="spacing" textLength="102" x="109.5" y="201.4775">+getRawMaterialRepository() : RawMaterialRepository</text><text fill="#000000" font-family="sans-serif" font-size="4.2" lengthAdjust="spacing" textLength="100.8" x="109.5" y="207.0639">+getSupplyOfferRepository() : SupplyOfferRepository</text></g><!--class SupplierRepository--><g id="elem_SupplierRepository"><rect codeLine="52" fill="#F1F1F1" height="25.5727" id="SupplierRepository" rx="0.75" ry="0.75" style="stroke:#181818;stroke-width:0.15;" width="61.2" x="227.7" y="235.95"/><ellipse cx="239.22" cy="240.75" fill="#ADD1B2" rx="3.3" ry="3.3" style="stroke:#181818;stroke-width:0.3;"/><path d="M240.0497,239.5125 Q240.0966,239.4469 240.1528,239.4141 Q240.2091,239.3813 240.2747,239.3813 Q240.3872,239.3813 240.4575,239.4609 Q240.5278,239.5359 240.5278,239.7188 L240.5278,240.1547 Q240.5278,240.3375 240.4575,240.4172 Q240.3872,240.4969 240.2747,240.4969 Q240.1716,240.4969 240.1106,240.4359 Q240.0497,240.3797 240.0169,240.225 Q240.0028,240.1172 239.9466,240.0609 Q239.8481,239.9484 239.6653,239.8828 Q239.4825,239.8172 239.295,239.8172 Q239.0653,239.8172 238.8731,239.9156 Q238.6856,240.0141 238.5356,240.2391 Q238.3903,240.4641 238.3903,240.7734 L238.3903,241.1016 Q238.3903,241.4719 238.6575,241.7203 Q238.9247,241.9641 239.4028,241.9641 Q239.6841,241.9641 239.8809,241.8891 Q239.9981,241.8422 240.1247,241.7109 Q240.2044,241.6313 240.2466,241.6078 Q240.2934,241.5844 240.3544,241.5844 Q240.4528,241.5844 240.5278,241.6641 Q240.6075,241.7391 240.6075,241.8422 Q240.6075,241.9453 240.5044,242.0672 Q240.3544,242.2406 240.1153,242.3391 Q239.7919,242.475 239.4028,242.475 Q238.9481,242.475 238.5872,242.2875 Q238.2919,242.1375 238.0856,241.8188 Q237.8794,241.4953 237.8794,241.1109 L237.8794,240.7641 Q237.8794,240.3656 238.0622,240.0234 Q238.2497,239.6766 238.5778,239.4937 Q238.9059,239.3062 239.2762,239.3062 Q239.4966,239.3062 239.6887,239.3578 Q239.8856,239.4047 240.0497,239.5125 Z " fill="#000000"/><text fill="#000000" font-family="sans-serif" font-size="4.2" lengthAdjust="spacing" textLength="36" x="244.98" y="242.4891">SupplierRepository</text><line style="stroke:#181818;stroke-width:0.15;" x1="228" x2="288.6" y1="245.55" y2="245.55"/><line style="stroke:#181818;stroke-width:0.15;" x1="228" x2="288.6" y1="247.95" y2="247.95"/><text fill="#000000" font-family="sans-serif" font-size="4.2" lengthAdjust="spacing" textLength="46.5" x="229.5" y="253.6822">+getAll() : List&lt;Supplier&gt;</text><text fill="#000000" font-family="sans-serif" font-size="4.2" lengthAdjust="spacing" textLength="57.6" x="229.5" y="259.2686">+getById(supplierID) : Supplier</text></g><!--class AddressRepository--><g id="elem_AddressRepository"><rect codeLine="57" fill="#F1F1F1" height="31.159" id="AddressRepository" rx="0.75" ry="0.75" style="stroke:#181818;stroke-width:0.15;" width="106.8" x="110.4" y="233.1"/><ellipse cx="144.525" cy="237.9" fill="#ADD1B2" rx="3.3" ry="3.3" style="stroke:#181818;stroke-width:0.3;"/><path d="M145.3547,236.6625 Q145.4016,236.5969 145.4578,236.5641 Q145.5141,236.5313 145.5797,236.5313 Q145.6922,236.5313 145.7625,236.6109 Q145.8328,236.6859 145.8328,236.8687 L145.8328,237.3047 Q145.8328,237.4875 145.7625,237.5672 Q145.6922,237.6469 145.5797,237.6469 Q145.4766,237.6469 145.4156,237.5859 Q145.3547,237.5297 145.3219,237.375 Q145.3078,237.2672 145.2516,237.2109 Q145.1531,237.0984 144.9703,237.0328 Q144.7875,236.9672 144.6,236.9672 Q144.3703,236.9672 144.1781,237.0656 Q143.9906,237.1641 143.8406,237.3891 Q143.6953,237.6141 143.6953,237.9234 L143.6953,238.2516 Q143.6953,238.6219 143.9625,238.8703 Q144.2297,239.1141 144.7078,239.1141 Q144.9891,239.1141 145.1859,239.0391 Q145.3031,238.9922 145.4297,238.8609 Q145.5094,238.7813 145.5516,238.7578 Q145.5984,238.7344 145.6594,238.7344 Q145.7578,238.7344 145.8328,238.8141 Q145.9125,238.8891 145.9125,238.9922 Q145.9125,239.0953 145.8094,239.2172 Q145.6594,239.3906 145.4203,239.4891 Q145.0969,239.625 144.7078,239.625 Q144.2531,239.625 143.8922,239.4375 Q143.5969,239.2875 143.3906,238.9688 Q143.1844,238.6453 143.1844,238.2609 L143.1844,237.9141 Q143.1844,237.5156 143.3672,237.1734 Q143.5547,236.8266 143.8828,236.6437 Q144.2109,236.4562 144.5812,236.4562 Q144.8016,236.4562 144.9938,236.5078 Q145.1906,236.5547 145.3547,236.6625 Z " fill="#000000"/><text fill="#000000" font-family="sans-serif" font-size="4.2" lengthAdjust="spacing" textLength="36" x="150.675" y="239.6391">AddressRepository</text><line style="stroke:#181818;stroke-width:0.15;" x1="110.7" x2="216.9" y1="242.7" y2="242.7"/><line style="stroke:#181818;stroke-width:0.15;" x1="110.7" x2="216.9" y1="245.1" y2="245.1"/><text fill="#000000" font-family="sans-serif" font-size="4.2" lengthAdjust="spacing" textLength="103.2" x="112.2" y="250.8322">+findAddress(street, zipCode, town, country) : Address</text><text fill="#000000" font-family="sans-serif" font-size="4.2" lengthAdjust="spacing" textLength="46.5" x="112.2" y="256.4186">+getAddressCount() : int</text><text fill="#000000" font-family="sans-serif" font-size="4.2" lengthAdjust="spacing" textLength="63.6" x="112.2" y="262.0049">+save(deliveryAddress) : boolean</text></g><!--class RawMaterialRepository--><g id="elem_RawMaterialRepository"><rect codeLine="63" fill="#F1F1F1" height="25.5727" id="RawMaterialRepository" rx="0.75" ry="0.75" style="stroke:#181818;stroke-width:0.15;" width="99" x="299.4" y="235.95"/><ellipse cx="325.875" cy="240.75" fill="#ADD1B2" rx="3.3" ry="3.3" style="stroke:#181818;stroke-width:0.3;"/><path d="M326.7047,239.5125 Q326.7516,239.4469 326.8078,239.4141 Q326.8641,239.3813 326.9297,239.3813 Q327.0422,239.3813 327.1125,239.4609 Q327.1828,239.5359 327.1828,239.7188 L327.1828,240.1547 Q327.1828,240.3375 327.1125,240.4172 Q327.0422,240.4969 326.9297,240.4969 Q326.8266,240.4969 326.7656,240.4359 Q326.7047,240.3797 326.6719,240.225 Q326.6578,240.1172 326.6016,240.0609 Q326.5031,239.9484 326.3203,239.8828 Q326.1375,239.8172 325.95,239.8172 Q325.7203,239.8172 325.5281,239.9156 Q325.3406,240.0141 325.1906,240.2391 Q325.0453,240.4641 325.0453,240.7734 L325.0453,241.1016 Q325.0453,241.4719 325.3125,241.7203 Q325.5797,241.9641 326.0578,241.9641 Q326.3391,241.9641 326.5359,241.8891 Q326.6531,241.8422 326.7797,241.7109 Q326.8594,241.6313 326.9016,241.6078 Q326.9484,241.5844 327.0094,241.5844 Q327.1078,241.5844 327.1828,241.6641 Q327.2625,241.7391 327.2625,241.8422 Q327.2625,241.9453 327.1594,242.0672 Q327.0094,242.2406 326.7703,242.3391 Q326.4469,242.475 326.0578,242.475 Q325.6031,242.475 325.2422,242.2875 Q324.9469,242.1375 324.7406,241.8188 Q324.5344,241.4953 324.5344,241.1109 L324.5344,240.7641 Q324.5344,240.3656 324.7172,240.0234 Q324.9047,239.6766 325.2328,239.4937 Q325.5609,239.3062 325.9313,239.3062 Q326.1516,239.3062 326.3438,239.3578 Q326.5406,239.4047 326.7047,239.5125 Z " fill="#000000"/><text fill="#000000" font-family="sans-serif" font-size="4.2" lengthAdjust="spacing" textLength="43.5" x="332.025" y="242.4891">RawMaterialRepository</text><line style="stroke:#181818;stroke-width:0.15;" x1="299.7" x2="398.1" y1="245.55" y2="245.55"/><line style="stroke:#181818;stroke-width:0.15;" x1="299.7" x2="398.1" y1="247.95" y2="247.95"/><text fill="#000000" font-family="sans-serif" font-size="4.2" lengthAdjust="spacing" textLength="54" x="301.2" y="253.6822">+getAll() : List&lt;RawMaterial&gt;</text><text fill="#000000" font-family="sans-serif" font-size="4.2" lengthAdjust="spacing" textLength="95.4" x="301.2" y="259.2686">+getRawMaterialByID(rawMaterialID) : RawMaterial</text></g><!--class SupplyOfferRepository--><g id="elem_SupplyOfferRepository"><rect codeLine="68" fill="#F1F1F1" height="25.5727" id="SupplyOfferRepository" rx="0.75" ry="0.75" style="stroke:#181818;stroke-width:0.15;" width="93" x="6.9" y="235.95"/><ellipse cx="30.675" cy="240.75" fill="#ADD1B2" rx="3.3" ry="3.3" style="stroke:#181818;stroke-width:0.3;"/><path d="M31.5047,239.5125 Q31.5516,239.4469 31.6078,239.4141 Q31.6641,239.3813 31.7297,239.3813 Q31.8422,239.3813 31.9125,239.4609 Q31.9828,239.5359 31.9828,239.7188 L31.9828,240.1547 Q31.9828,240.3375 31.9125,240.4172 Q31.8422,240.4969 31.7297,240.4969 Q31.6266,240.4969 31.5656,240.4359 Q31.5047,240.3797 31.4719,240.225 Q31.4578,240.1172 31.4016,240.0609 Q31.3031,239.9484 31.1203,239.8828 Q30.9375,239.8172 30.75,239.8172 Q30.5203,239.8172 30.3281,239.9156 Q30.1406,240.0141 29.9906,240.2391 Q29.8453,240.4641 29.8453,240.7734 L29.8453,241.1016 Q29.8453,241.4719 30.1125,241.7203 Q30.3797,241.9641 30.8578,241.9641 Q31.1391,241.9641 31.3359,241.8891 Q31.4531,241.8422 31.5797,241.7109 Q31.6594,241.6313 31.7016,241.6078 Q31.7484,241.5844 31.8094,241.5844 Q31.9078,241.5844 31.9828,241.6641 Q32.0625,241.7391 32.0625,241.8422 Q32.0625,241.9453 31.9594,242.0672 Q31.8094,242.2406 31.5703,242.3391 Q31.2469,242.475 30.8578,242.475 Q30.4031,242.475 30.0422,242.2875 Q29.7469,242.1375 29.5406,241.8188 Q29.3344,241.4953 29.3344,241.1109 L29.3344,240.7641 Q29.3344,240.3656 29.5172,240.0234 Q29.7047,239.6766 30.0328,239.4937 Q30.3609,239.3062 30.7313,239.3062 Q30.9516,239.3062 31.1437,239.3578 Q31.3406,239.4047 31.5047,239.5125 Z " fill="#000000"/><text fill="#000000" font-family="sans-serif" font-size="4.2" lengthAdjust="spacing" textLength="42.9" x="36.825" y="242.4891">SupplyOfferRepository</text><line style="stroke:#181818;stroke-width:0.15;" x1="7.2" x2="99.6" y1="245.55" y2="245.55"/><line style="stroke:#181818;stroke-width:0.15;" x1="7.2" x2="99.6" y1="247.95" y2="247.95"/><text fill="#000000" font-family="sans-serif" font-size="4.2" lengthAdjust="spacing" textLength="89.4" x="8.7" y="253.6822">+getSupplyOfferExists(supplyOfferID) : boolean</text><text fill="#000000" font-family="sans-serif" font-size="4.2" lengthAdjust="spacing" textLength="72.6" x="8.7" y="259.2686">+save(supplyOffer, supplier) : boolean</text></g><!--class Supplier--><g id="elem_Supplier"><rect codeLine="75" fill="#F1F1F1" height="59.0906" id="Supplier" rx="0.75" ry="0.75" style="stroke:#181818;stroke-width:0.15;" width="97.8" x="692.1" y="295.5"/><ellipse cx="731.925" cy="300.3" fill="#ADD1B2" rx="3.3" ry="3.3" style="stroke:#181818;stroke-width:0.3;"/><path d="M732.7547,299.0625 Q732.8016,298.9969 732.8578,298.9641 Q732.9141,298.9313 732.9797,298.9313 Q733.0922,298.9313 733.1625,299.0109 Q733.2328,299.0859 733.2328,299.2688 L733.2328,299.7047 Q733.2328,299.8875 733.1625,299.9672 Q733.0922,300.0469 732.9797,300.0469 Q732.8766,300.0469 732.8156,299.9859 Q732.7547,299.9297 732.7219,299.775 Q732.7078,299.6672 732.6516,299.6109 Q732.5531,299.4984 732.3703,299.4328 Q732.1875,299.3672 732,299.3672 Q731.7703,299.3672 731.5781,299.4656 Q731.3906,299.5641 731.2406,299.7891 Q731.0953,300.0141 731.0953,300.3234 L731.0953,300.6516 Q731.0953,301.0219 731.3625,301.2703 Q731.6297,301.5141 732.1078,301.5141 Q732.3891,301.5141 732.5859,301.4391 Q732.7031,301.3922 732.8297,301.2609 Q732.9094,301.1813 732.9516,301.1578 Q732.9984,301.1344 733.0594,301.1344 Q733.1578,301.1344 733.2328,301.2141 Q733.3125,301.2891 733.3125,301.3922 Q733.3125,301.4953 733.2094,301.6172 Q733.0594,301.7906 732.8203,301.8891 Q732.4969,302.025 732.1078,302.025 Q731.6531,302.025 731.2922,301.8375 Q730.9969,301.6875 730.7906,301.3688 Q730.5844,301.0453 730.5844,300.6609 L730.5844,300.3141 Q730.5844,299.9156 730.7672,299.5734 Q730.9547,299.2266 731.2828,299.0438 Q731.6109,298.8563 731.9812,298.8563 Q732.2016,298.8563 732.3938,298.9078 Q732.5906,298.9547 732.7547,299.0625 Z " fill="#000000"/><text fill="#000000" font-family="sans-serif" font-size="4.2" lengthAdjust="spacing" textLength="15.6" x="738.075" y="302.0391">Supplier</text><line style="stroke:#181818;stroke-width:0.15;" x1="692.4" x2="789.6" y1="305.1" y2="305.1"/><text fill="#000000" font-family="sans-serif" font-size="4.2" lengthAdjust="spacing" textLength="28.5" x="693.9" y="310.8322">-supplierID : int</text><text fill="#000000" font-family="sans-serif" font-size="4.2" lengthAdjust="spacing" textLength="26.7" x="693.9" y="316.4186">-name : String</text><text fill="#000000" font-family="sans-serif" font-size="4.2" lengthAdjust="spacing" textLength="36.3" x="693.9" y="322.0049">-phoneNumber : int</text><text fill="#000000" font-family="sans-serif" font-size="4.2" lengthAdjust="spacing" textLength="26.1" x="693.9" y="327.5912">-email : String</text><text fill="#000000" font-family="sans-serif" font-size="4.2" lengthAdjust="spacing" textLength="40.8" x="693.9" y="333.1775">-type : CompanyType</text><text fill="#000000" font-family="sans-serif" font-size="4.2" lengthAdjust="spacing" textLength="34.8" x="693.9" y="338.7639">-state : EntityState</text><text fill="#000000" font-family="sans-serif" font-size="4.2" lengthAdjust="spacing" textLength="63" x="693.9" y="344.3502">-supplyOffers : List&lt;SupplyOffer&gt;</text><line style="stroke:#181818;stroke-width:0.15;" x1="692.4" x2="789.6" y1="346.6043" y2="346.6043"/><text fill="#000000" font-family="sans-serif" font-size="4.2" lengthAdjust="spacing" textLength="94.2" x="693.9" y="352.3365">+Supplier(supplierID, name, phoneNumber, email)</text></g><!--class SupplyOffer--><g id="elem_SupplyOffer"><rect codeLine="86" fill="#F1F1F1" height="53.5043" id="SupplyOffer" rx="0.75" ry="0.75" style="stroke:#181818;stroke-width:0.15;" width="179.1" x="701.55" y="378.3"/><ellipse cx="778.575" cy="383.1" fill="#ADD1B2" rx="3.3" ry="3.3" style="stroke:#181818;stroke-width:0.3;"/><path d="M779.4047,381.8625 Q779.4516,381.7969 779.5078,381.7641 Q779.5641,381.7313 779.6297,381.7313 Q779.7422,381.7313 779.8125,381.8109 Q779.8828,381.8859 779.8828,382.0687 L779.8828,382.5047 Q779.8828,382.6875 779.8125,382.7672 Q779.7422,382.8469 779.6297,382.8469 Q779.5266,382.8469 779.4656,382.7859 Q779.4047,382.7297 779.3719,382.575 Q779.3578,382.4672 779.3016,382.4109 Q779.2031,382.2984 779.0203,382.2328 Q778.8375,382.1672 778.65,382.1672 Q778.4203,382.1672 778.2281,382.2656 Q778.0406,382.3641 777.8906,382.5891 Q777.7453,382.8141 777.7453,383.1234 L777.7453,383.4516 Q777.7453,383.8219 778.0125,384.0703 Q778.2797,384.3141 778.7578,384.3141 Q779.0391,384.3141 779.2359,384.2391 Q779.3531,384.1922 779.4797,384.0609 Q779.5594,383.9813 779.6016,383.9578 Q779.6484,383.9344 779.7094,383.9344 Q779.8078,383.9344 779.8828,384.0141 Q779.9625,384.0891 779.9625,384.1922 Q779.9625,384.2953 779.8594,384.4172 Q779.7094,384.5906 779.4703,384.6891 Q779.1469,384.825 778.7578,384.825 Q778.3031,384.825 777.9422,384.6375 Q777.6469,384.4875 777.4406,384.1688 Q777.2344,383.8453 777.2344,383.4609 L777.2344,383.1141 Q777.2344,382.7156 777.4172,382.3734 Q777.6047,382.0266 777.9328,381.8438 Q778.2609,381.6563 778.6313,381.6563 Q778.8516,381.6563 779.0437,381.7078 Q779.2406,381.7547 779.4047,381.8625 Z " fill="#000000"/><text fill="#000000" font-family="sans-serif" font-size="4.2" lengthAdjust="spacing" textLength="22.5" x="784.725" y="384.8391">SupplyOffer</text><line style="stroke:#181818;stroke-width:0.15;" x1="701.85" x2="880.35" y1="387.9" y2="387.9"/><text fill="#000000" font-family="sans-serif" font-size="4.2" lengthAdjust="spacing" textLength="35.4" x="703.35" y="393.6322">-supplyOfferID : int</text><text fill="#000000" font-family="sans-serif" font-size="4.2" lengthAdjust="spacing" textLength="51" x="703.35" y="399.2186">-deliveryAddress : Address</text><text fill="#000000" font-family="sans-serif" font-size="4.2" lengthAdjust="spacing" textLength="31.5" x="703.35" y="404.8049">-startDate : Date</text><text fill="#000000" font-family="sans-serif" font-size="4.2" lengthAdjust="spacing" textLength="30.3" x="703.35" y="410.3912">-endDate : Date</text><text fill="#000000" font-family="sans-serif" font-size="4.2" lengthAdjust="spacing" textLength="39.6" x="703.35" y="415.9775">-state : ProcessState</text><text fill="#000000" font-family="sans-serif" font-size="4.2" lengthAdjust="spacing" textLength="133.8" x="703.35" y="421.5639">-rawMaterialsQuantityCost : Map&lt;RawMaterial, Map&lt;Integer, Double&gt;&gt;</text><line style="stroke:#181818;stroke-width:0.15;" x1="701.85" x2="880.35" y1="423.818" y2="423.818"/><text fill="#000000" font-family="sans-serif" font-size="4.2" lengthAdjust="spacing" textLength="175.5" x="703.35" y="429.5502">+SupplyOffer(supplyOfferID, deliveryAddress, startDate, endDate, rawMaterialsQuantityCost)</text></g><!--class Address--><g id="elem_Address"><rect codeLine="96" fill="#F1F1F1" height="47.918" id="Address" rx="0.75" ry="0.75" style="stroke:#181818;stroke-width:0.15;" width="86.4" x="657.3" y="455.4"/><ellipse cx="691.425" cy="460.2" fill="#ADD1B2" rx="3.3" ry="3.3" style="stroke:#181818;stroke-width:0.3;"/><path d="M692.2547,458.9625 Q692.3016,458.8969 692.3578,458.8641 Q692.4141,458.8313 692.4797,458.8313 Q692.5922,458.8313 692.6625,458.9109 Q692.7328,458.9859 692.7328,459.1688 L692.7328,459.6047 Q692.7328,459.7875 692.6625,459.8672 Q692.5922,459.9469 692.4797,459.9469 Q692.3766,459.9469 692.3156,459.8859 Q692.2547,459.8297 692.2219,459.675 Q692.2078,459.5672 692.1516,459.5109 Q692.0531,459.3984 691.8703,459.3328 Q691.6875,459.2672 691.5,459.2672 Q691.2703,459.2672 691.0781,459.3656 Q690.8906,459.4641 690.7406,459.6891 Q690.5953,459.9141 690.5953,460.2234 L690.5953,460.5516 Q690.5953,460.9219 690.8625,461.1703 Q691.1297,461.4141 691.6078,461.4141 Q691.8891,461.4141 692.0859,461.3391 Q692.2031,461.2922 692.3297,461.1609 Q692.4094,461.0812 692.4516,461.0578 Q692.4984,461.0344 692.5594,461.0344 Q692.6578,461.0344 692.7328,461.1141 Q692.8125,461.1891 692.8125,461.2922 Q692.8125,461.3953 692.7094,461.5172 Q692.5594,461.6906 692.3203,461.7891 Q691.9969,461.925 691.6078,461.925 Q691.1531,461.925 690.7922,461.7375 Q690.4969,461.5875 690.2906,461.2687 Q690.0844,460.9453 690.0844,460.5609 L690.0844,460.2141 Q690.0844,459.8156 690.2672,459.4734 Q690.4547,459.1266 690.7828,458.9437 Q691.1109,458.7562 691.4812,458.7562 Q691.7016,458.7562 691.8938,458.8078 Q692.0906,458.8547 692.2547,458.9625 Z " fill="#000000"/><text fill="#000000" font-family="sans-serif" font-size="4.2" lengthAdjust="spacing" textLength="15.6" x="697.575" y="461.9391">Address</text><line style="stroke:#181818;stroke-width:0.15;" x1="657.6" x2="743.4" y1="465" y2="465"/><text fill="#000000" font-family="sans-serif" font-size="4.2" lengthAdjust="spacing" textLength="12.9" x="659.1" y="470.7322">-id : int</text><text fill="#000000" font-family="sans-serif" font-size="4.2" lengthAdjust="spacing" textLength="27" x="659.1" y="476.3186">-street : String</text><text fill="#000000" font-family="sans-serif" font-size="4.2" lengthAdjust="spacing" textLength="31.5" x="659.1" y="481.9049">-zipCode : String</text><text fill="#000000" font-family="sans-serif" font-size="4.2" lengthAdjust="spacing" textLength="24.9" x="659.1" y="487.4912">-town : String</text><text fill="#000000" font-family="sans-serif" font-size="4.2" lengthAdjust="spacing" textLength="30.3" x="659.1" y="493.0775">-country : String</text><line style="stroke:#181818;stroke-width:0.15;" x1="657.6" x2="743.4" y1="495.3316" y2="495.3316"/><text fill="#000000" font-family="sans-serif" font-size="4.2" lengthAdjust="spacing" textLength="82.8" x="659.1" y="501.0639">+Address(id, street, zipCode, town, country)</text></g><!--class ProcessState--><g id="elem_ProcessState"><rect codeLine="105" fill="#F1F1F1" height="25.5727" id="ProcessState" rx="0.75" ry="0.75" style="stroke:#181818;stroke-width:0.15;" width="34.8" x="754.2" y="466.65"/><ellipse cx="758.7" cy="471.45" fill="#EB937F" rx="3.3" ry="3.3" style="stroke:#181818;stroke-width:0.3;"/><path d="M758.3578,471.6891 L758.3578,472.4391 L759.6563,472.4391 L759.6563,472.1625 Q759.6563,471.9797 759.7266,471.9 Q759.8016,471.8203 759.9141,471.8203 Q760.0266,471.8203 760.0969,471.9 Q760.1672,471.9797 760.1672,472.1625 L760.1672,472.95 L757.7672,472.95 Q757.5797,472.95 757.5,472.8797 Q757.425,472.8094 757.425,472.6922 Q757.425,472.5797 757.5047,472.5094 Q757.5844,472.4391 757.7672,472.4391 L757.8469,472.4391 L757.8469,470.4422 L757.7672,470.4422 Q757.5797,470.4422 757.5,470.3719 Q757.425,470.3016 757.425,470.1844 Q757.425,470.0719 757.5,470.0016 Q757.5797,469.9313 757.7672,469.9313 L760.0547,469.9313 L760.0547,470.7094 Q760.0547,470.8922 759.9844,470.9719 Q759.9187,471.0469 759.8016,471.0469 Q759.6891,471.0469 759.6188,470.9719 Q759.5484,470.8922 759.5484,470.7094 L759.5484,470.4422 L758.3578,470.4422 L758.3578,471.1781 L758.8031,471.1781 Q758.8031,470.9813 758.8406,470.925 Q758.9203,470.8031 759.0609,470.8031 Q759.1734,470.8031 759.2438,470.8828 Q759.3141,470.9578 759.3141,471.1406 L759.3141,471.7313 Q759.3141,471.8953 759.2766,471.9516 Q759.1969,472.0687 759.0609,472.0687 Q758.9203,472.0687 758.8406,471.9469 Q758.8031,471.8906 758.8031,471.6891 L758.3578,471.6891 Z " fill="#000000"/><text fill="#000000" font-family="sans-serif" font-size="4.2" lengthAdjust="spacing" textLength="25.2" x="762.9" y="473.1891">ProcessState</text><line style="stroke:#181818;stroke-width:0.15;" x1="754.5" x2="788.7" y1="476.25" y2="476.25"/><text fill="#000000" font-family="sans-serif" font-size="4.2" lengthAdjust="spacing" textLength="18" x="756" y="481.9822">PENDING</text><text fill="#000000" font-family="sans-serif" font-size="4.2" lengthAdjust="spacing" textLength="24.6" x="756" y="487.5686">CONFIRMED</text><line style="stroke:#181818;stroke-width:0.15;" x1="754.5" x2="788.7" y1="489.8227" y2="489.8227"/></g><!--class Part--><g id="elem_Part"><rect codeLine="110" fill="#F1F1F1" height="36.7453" id="Part" rx="0.75" ry="0.75" style="stroke:#181818;stroke-width:0.15;" width="56.1" x="842.25" y="521.7"/><ellipse cx="865.125" cy="526.5" fill="#ADD1B2" rx="3.3" ry="3.3" style="stroke:#181818;stroke-width:0.3;"/><path d="M865.9547,525.2625 Q866.0016,525.1969 866.0578,525.1641 Q866.1141,525.1313 866.1797,525.1313 Q866.2922,525.1313 866.3625,525.2109 Q866.4328,525.2859 866.4328,525.4688 L866.4328,525.9047 Q866.4328,526.0875 866.3625,526.1672 Q866.2922,526.2469 866.1797,526.2469 Q866.0766,526.2469 866.0156,526.1859 Q865.9547,526.1297 865.9219,525.975 Q865.9078,525.8672 865.8516,525.8109 Q865.7531,525.6984 865.5703,525.6328 Q865.3875,525.5672 865.2,525.5672 Q864.9703,525.5672 864.7781,525.6656 Q864.5906,525.7641 864.4406,525.9891 Q864.2953,526.2141 864.2953,526.5234 L864.2953,526.8516 Q864.2953,527.2219 864.5625,527.4703 Q864.8297,527.7141 865.3078,527.7141 Q865.5891,527.7141 865.7859,527.6391 Q865.9031,527.5922 866.0297,527.4609 Q866.1094,527.3813 866.1516,527.3578 Q866.1984,527.3344 866.2594,527.3344 Q866.3578,527.3344 866.4328,527.4141 Q866.5125,527.4891 866.5125,527.5922 Q866.5125,527.6953 866.4094,527.8172 Q866.2594,527.9906 866.0203,528.0891 Q865.6969,528.225 865.3078,528.225 Q864.8531,528.225 864.4922,528.0375 Q864.1969,527.8875 863.9906,527.5688 Q863.7844,527.2453 863.7844,526.8609 L863.7844,526.5141 Q863.7844,526.1156 863.9672,525.7734 Q864.1547,525.4266 864.4828,525.2438 Q864.8109,525.0563 865.1813,525.0563 Q865.4016,525.0563 865.5938,525.1078 Q865.7906,525.1547 865.9547,525.2625 Z " fill="#000000"/><text fill="#000000" font-family="sans-serif" font-size="4.2" lengthAdjust="spacing" textLength="7.8" x="871.275" y="528.2391">Part</text><line style="stroke:#181818;stroke-width:0.15;" x1="842.55" x2="898.05" y1="531.3" y2="531.3"/><text fill="#000000" font-family="sans-serif" font-size="4.2" lengthAdjust="spacing" textLength="19.5" x="844.05" y="537.0322">-id : String</text><text fill="#000000" font-family="sans-serif" font-size="4.2" lengthAdjust="spacing" textLength="26.7" x="844.05" y="542.6186">-name : String</text><text fill="#000000" font-family="sans-serif" font-size="4.2" lengthAdjust="spacing" textLength="36.9" x="844.05" y="548.2049">-description : String</text><line style="stroke:#181818;stroke-width:0.15;" x1="842.55" x2="898.05" y1="550.459" y2="550.459"/><text fill="#000000" font-family="sans-serif" font-size="4.2" lengthAdjust="spacing" textLength="52.5" x="844.05" y="556.1912">+Part(id, name, description)</text></g><!--class RawMaterial--><g id="elem_RawMaterial"><rect codeLine="117" fill="#F1F1F1" height="47.918" id="RawMaterial" rx="0.75" ry="0.75" style="stroke:#181818;stroke-width:0.15;" width="141.3" x="799.65" y="455.4"/><ellipse cx="857.475" cy="460.2" fill="#ADD1B2" rx="3.3" ry="3.3" style="stroke:#181818;stroke-width:0.3;"/><path d="M858.3047,458.9625 Q858.3516,458.8969 858.4078,458.8641 Q858.4641,458.8313 858.5297,458.8313 Q858.6422,458.8313 858.7125,458.9109 Q858.7828,458.9859 858.7828,459.1688 L858.7828,459.6047 Q858.7828,459.7875 858.7125,459.8672 Q858.6422,459.9469 858.5297,459.9469 Q858.4266,459.9469 858.3656,459.8859 Q858.3047,459.8297 858.2719,459.675 Q858.2578,459.5672 858.2016,459.5109 Q858.1031,459.3984 857.9203,459.3328 Q857.7375,459.2672 857.55,459.2672 Q857.3203,459.2672 857.1281,459.3656 Q856.9406,459.4641 856.7906,459.6891 Q856.6453,459.9141 856.6453,460.2234 L856.6453,460.5516 Q856.6453,460.9219 856.9125,461.1703 Q857.1797,461.4141 857.6578,461.4141 Q857.9391,461.4141 858.1359,461.3391 Q858.2531,461.2922 858.3797,461.1609 Q858.4594,461.0812 858.5016,461.0578 Q858.5484,461.0344 858.6094,461.0344 Q858.7078,461.0344 858.7828,461.1141 Q858.8625,461.1891 858.8625,461.2922 Q858.8625,461.3953 858.7594,461.5172 Q858.6094,461.6906 858.3703,461.7891 Q858.0469,461.925 857.6578,461.925 Q857.2031,461.925 856.8422,461.7375 Q856.5469,461.5875 856.3406,461.2687 Q856.1344,460.9453 856.1344,460.5609 L856.1344,460.2141 Q856.1344,459.8156 856.3172,459.4734 Q856.5047,459.1266 856.8328,458.9437 Q857.1609,458.7562 857.5313,458.7562 Q857.7516,458.7562 857.9438,458.8078 Q858.1406,458.8547 858.3047,458.9625 Z " fill="#000000"/><text fill="#000000" font-family="sans-serif" font-size="4.2" lengthAdjust="spacing" textLength="23.1" x="863.625" y="461.9391">RawMaterial</text><line style="stroke:#181818;stroke-width:0.15;" x1="799.95" x2="940.65" y1="465" y2="465"/><text fill="#000000" font-family="sans-serif" font-size="4.2" lengthAdjust="spacing" textLength="53.7" x="801.45" y="470.7322">-category : ProductCategory</text><text fill="#000000" font-family="sans-serif" font-size="4.2" lengthAdjust="spacing" textLength="25.2" x="801.45" y="476.3186">-capacity : int</text><text fill="#000000" font-family="sans-serif" font-size="4.2" lengthAdjust="spacing" textLength="16.8" x="801.45" y="481.9049">-size : int</text><text fill="#000000" font-family="sans-serif" font-size="4.2" lengthAdjust="spacing" textLength="25.5" x="801.45" y="487.4912">-color : String</text><text fill="#000000" font-family="sans-serif" font-size="4.2" lengthAdjust="spacing" textLength="27.3" x="801.45" y="493.0775">-price : double</text><line style="stroke:#181818;stroke-width:0.15;" x1="799.95" x2="940.65" y1="495.3316" y2="495.3316"/><text fill="#000000" font-family="sans-serif" font-size="4.2" lengthAdjust="spacing" textLength="137.7" x="801.45" y="501.0639">+RawMaterial(id, name, description, category, capacity, size, color, price)</text></g><!--class SupplierException--><g id="elem_SupplierException"><rect codeLine="128" fill="#F1F1F1" height="19.9863" id="SupplierException" rx="0.75" ry="0.75" style="stroke:#181818;stroke-width:0.15;" width="99" x="415.2" y="175.35"/><ellipse cx="446.475" cy="180.15" fill="#ADD1B2" rx="3.3" ry="3.3" style="stroke:#181818;stroke-width:0.3;"/><path d="M447.3047,178.9125 Q447.3516,178.8469 447.4078,178.8141 Q447.4641,178.7813 447.5297,178.7813 Q447.6422,178.7813 447.7125,178.8609 Q447.7828,178.9359 447.7828,179.1188 L447.7828,179.5547 Q447.7828,179.7375 447.7125,179.8172 Q447.6422,179.8969 447.5297,179.8969 Q447.4266,179.8969 447.3656,179.8359 Q447.3047,179.7797 447.2719,179.625 Q447.2578,179.5172 447.2016,179.4609 Q447.1031,179.3484 446.9203,179.2828 Q446.7375,179.2172 446.55,179.2172 Q446.3203,179.2172 446.1281,179.3156 Q445.9406,179.4141 445.7906,179.6391 Q445.6453,179.8641 445.6453,180.1734 L445.6453,180.5016 Q445.6453,180.8719 445.9125,181.1203 Q446.1797,181.3641 446.6578,181.3641 Q446.9391,181.3641 447.1359,181.2891 Q447.2531,181.2422 447.3797,181.1109 Q447.4594,181.0313 447.5016,181.0078 Q447.5484,180.9844 447.6094,180.9844 Q447.7078,180.9844 447.7828,181.0641 Q447.8625,181.1391 447.8625,181.2422 Q447.8625,181.3453 447.7594,181.4672 Q447.6094,181.6406 447.3703,181.7391 Q447.0469,181.875 446.6578,181.875 Q446.2031,181.875 445.8422,181.6875 Q445.5469,181.5375 445.3406,181.2188 Q445.1344,180.8953 445.1344,180.5109 L445.1344,180.1641 Q445.1344,179.7656 445.3172,179.4234 Q445.5047,179.0766 445.8328,178.8937 Q446.1609,178.7062 446.5313,178.7062 Q446.7516,178.7062 446.9437,178.7578 Q447.1406,178.8047 447.3047,178.9125 Z " fill="#000000"/><text fill="#000000" font-family="sans-serif" font-size="4.2" lengthAdjust="spacing" textLength="33.9" x="452.625" y="181.8891">SupplierException</text><line style="stroke:#181818;stroke-width:0.15;" x1="415.5" x2="513.9" y1="184.95" y2="184.95"/><line style="stroke:#181818;stroke-width:0.15;" x1="415.5" x2="513.9" y1="187.35" y2="187.35"/><text fill="#000000" font-family="sans-serif" font-size="4.2" lengthAdjust="spacing" textLength="95.4" x="417" y="193.0822">+supplierNotFound(supplierID) : SupplierException</text></g><!--class ProductException--><g id="elem_ProductException"><rect codeLine="132" fill="#F1F1F1" height="19.9863" id="ProductException" rx="0.75" ry="0.75" style="stroke:#181818;stroke-width:0.15;" width="111.3" x="661.65" y="175.35"/><ellipse cx="699.525" cy="180.15" fill="#ADD1B2" rx="3.3" ry="3.3" style="stroke:#181818;stroke-width:0.3;"/><path d="M700.3547,178.9125 Q700.4016,178.8469 700.4578,178.8141 Q700.5141,178.7813 700.5797,178.7813 Q700.6922,178.7813 700.7625,178.8609 Q700.8328,178.9359 700.8328,179.1188 L700.8328,179.5547 Q700.8328,179.7375 700.7625,179.8172 Q700.6922,179.8969 700.5797,179.8969 Q700.4766,179.8969 700.4156,179.8359 Q700.3547,179.7797 700.3219,179.625 Q700.3078,179.5172 700.2516,179.4609 Q700.1531,179.3484 699.9703,179.2828 Q699.7875,179.2172 699.6,179.2172 Q699.3703,179.2172 699.1781,179.3156 Q698.9906,179.4141 698.8406,179.6391 Q698.6953,179.8641 698.6953,180.1734 L698.6953,180.5016 Q698.6953,180.8719 698.9625,181.1203 Q699.2297,181.3641 699.7078,181.3641 Q699.9891,181.3641 700.1859,181.2891 Q700.3031,181.2422 700.4297,181.1109 Q700.5094,181.0313 700.5516,181.0078 Q700.5984,180.9844 700.6594,180.9844 Q700.7578,180.9844 700.8328,181.0641 Q700.9125,181.1391 700.9125,181.2422 Q700.9125,181.3453 700.8094,181.4672 Q700.6594,181.6406 700.4203,181.7391 Q700.0969,181.875 699.7078,181.875 Q699.2531,181.875 698.8922,181.6875 Q698.5969,181.5375 698.3906,181.2188 Q698.1844,180.8953 698.1844,180.5109 L698.1844,180.1641 Q698.1844,179.7656 698.3672,179.4234 Q698.5547,179.0766 698.8828,178.8937 Q699.2109,178.7062 699.5813,178.7062 Q699.8016,178.7062 699.9938,178.7578 Q700.1906,178.8047 700.3547,178.9125 Z " fill="#000000"/><text fill="#000000" font-family="sans-serif" font-size="4.2" lengthAdjust="spacing" textLength="33" x="705.675" y="181.8891">ProductException</text><line style="stroke:#181818;stroke-width:0.15;" x1="661.95" x2="772.65" y1="184.95" y2="184.95"/><line style="stroke:#181818;stroke-width:0.15;" x1="661.95" x2="772.65" y1="187.35" y2="187.35"/><text fill="#000000" font-family="sans-serif" font-size="4.2" lengthAdjust="spacing" textLength="107.7" x="663.45" y="193.0822">+rawMaterialNotFound(rawMaterialID) : ProductException</text></g><!--class SupplyOfferException--><g id="elem_SupplyOfferException"><rect codeLine="136" fill="#F1F1F1" height="31.159" id="SupplyOfferException" rx="0.75" ry="0.75" style="stroke:#181818;stroke-width:0.15;" width="126.3" x="524.85" y="169.8"/><ellipse cx="566.325" cy="174.6" fill="#ADD1B2" rx="3.3" ry="3.3" style="stroke:#181818;stroke-width:0.3;"/><path d="M567.1547,173.3625 Q567.2016,173.2969 567.2578,173.2641 Q567.3141,173.2313 567.3797,173.2313 Q567.4922,173.2313 567.5625,173.3109 Q567.6328,173.3859 567.6328,173.5688 L567.6328,174.0047 Q567.6328,174.1875 567.5625,174.2672 Q567.4922,174.3469 567.3797,174.3469 Q567.2766,174.3469 567.2156,174.2859 Q567.1547,174.2297 567.1219,174.075 Q567.1078,173.9672 567.0516,173.9109 Q566.9531,173.7984 566.7703,173.7328 Q566.5875,173.6672 566.4,173.6672 Q566.1703,173.6672 565.9781,173.7656 Q565.7906,173.8641 565.6406,174.0891 Q565.4953,174.3141 565.4953,174.6234 L565.4953,174.9516 Q565.4953,175.3219 565.7625,175.5703 Q566.0297,175.8141 566.5078,175.8141 Q566.7891,175.8141 566.9859,175.7391 Q567.1031,175.6922 567.2297,175.5609 Q567.3094,175.4813 567.3516,175.4578 Q567.3984,175.4344 567.4594,175.4344 Q567.5578,175.4344 567.6328,175.5141 Q567.7125,175.5891 567.7125,175.6922 Q567.7125,175.7953 567.6094,175.9172 Q567.4594,176.0906 567.2203,176.1891 Q566.8969,176.325 566.5078,176.325 Q566.0531,176.325 565.6922,176.1375 Q565.3969,175.9875 565.1906,175.6688 Q564.9844,175.3453 564.9844,174.9609 L564.9844,174.6141 Q564.9844,174.2156 565.1672,173.8734 Q565.3547,173.5266 565.6828,173.3438 Q566.0109,173.1563 566.3813,173.1563 Q566.6016,173.1563 566.7937,173.2078 Q566.9906,173.2547 567.1547,173.3625 Z " fill="#000000"/><text fill="#000000" font-family="sans-serif" font-size="4.2" lengthAdjust="spacing" textLength="40.8" x="572.475" y="176.3391">SupplyOfferException</text><line style="stroke:#181818;stroke-width:0.15;" x1="525.15" x2="650.85" y1="179.4" y2="179.4"/><line style="stroke:#181818;stroke-width:0.15;" x1="525.15" x2="650.85" y1="181.8" y2="181.8"/><text fill="#000000" font-family="sans-serif" font-size="4.2" lengthAdjust="spacing" textLength="122.7" x="526.65" y="187.5322">+supplyOfferAlreadyExists(supplyOfferID) : SupplyOfferException</text><text fill="#000000" font-family="sans-serif" font-size="4.2" lengthAdjust="spacing" textLength="79.8" x="526.65" y="193.1186">+invalidStartDate() : SupplyOfferException</text><text fill="#000000" font-family="sans-serif" font-size="4.2" lengthAdjust="spacing" textLength="77.7" x="526.65" y="198.7049">+invalidZipCode() : SupplyOfferException</text></g><!--class RuntimeException--><g id="elem_RuntimeException"><rect codeLine="142" fill="#F1F1F1" height="14.4" id="RuntimeException" rx="0.75" ry="0.75" style="stroke:#181818;stroke-width:0.15;" width="43.5" x="566.25" y="241.5"/><ellipse cx="570.75" cy="246.3" fill="#ADD1B2" rx="3.3" ry="3.3" style="stroke:#181818;stroke-width:0.3;"/><path d="M571.5797,245.0625 Q571.6266,244.9969 571.6828,244.9641 Q571.7391,244.9312 571.8047,244.9312 Q571.9172,244.9312 571.9875,245.0109 Q572.0578,245.0859 572.0578,245.2687 L572.0578,245.7047 Q572.0578,245.8875 571.9875,245.9672 Q571.9172,246.0469 571.8047,246.0469 Q571.7016,246.0469 571.6406,245.9859 Q571.5797,245.9297 571.5469,245.775 Q571.5328,245.6672 571.4766,245.6109 Q571.3781,245.4984 571.1953,245.4328 Q571.0125,245.3672 570.825,245.3672 Q570.5953,245.3672 570.4031,245.4656 Q570.2156,245.5641 570.0656,245.7891 Q569.9203,246.0141 569.9203,246.3234 L569.9203,246.6516 Q569.9203,247.0219 570.1875,247.2703 Q570.4547,247.5141 570.9328,247.5141 Q571.2141,247.5141 571.4109,247.4391 Q571.5281,247.3922 571.6547,247.2609 Q571.7344,247.1812 571.7766,247.1578 Q571.8234,247.1344 571.8844,247.1344 Q571.9828,247.1344 572.0578,247.2141 Q572.1375,247.2891 572.1375,247.3922 Q572.1375,247.4953 572.0344,247.6172 Q571.8844,247.7906 571.6453,247.8891 Q571.3219,248.025 570.9328,248.025 Q570.4781,248.025 570.1172,247.8375 Q569.8219,247.6875 569.6156,247.3687 Q569.4094,247.0453 569.4094,246.6609 L569.4094,246.3141 Q569.4094,245.9156 569.5922,245.5734 Q569.7797,245.2266 570.1078,245.0438 Q570.4359,244.8563 570.8063,244.8563 Q571.0266,244.8563 571.2188,244.9078 Q571.4156,244.9547 571.5797,245.0625 Z " fill="#000000"/><text fill="#000000" font-family="sans-serif" font-size="4.2" lengthAdjust="spacing" textLength="33.9" x="574.95" y="248.0391">RuntimeException</text><line style="stroke:#181818;stroke-width:0.15;" x1="566.55" x2="609.45" y1="251.1" y2="251.1"/><line style="stroke:#181818;stroke-width:0.15;" x1="566.55" x2="609.45" y1="253.5" y2="253.5"/></g><!--class Validator--><g id="elem_Validator"><rect codeLine="146" fill="#F1F1F1" height="19.9863" id="Validator" rx="0.75" ry="0.75" style="stroke:#181818;stroke-width:0.15;" width="71.4" x="826.2" y="175.35"/><ellipse cx="852.225" cy="180.15" fill="#ADD1B2" rx="3.3" ry="3.3" style="stroke:#181818;stroke-width:0.3;"/><path d="M853.0547,178.9125 Q853.1016,178.8469 853.1578,178.8141 Q853.2141,178.7813 853.2797,178.7813 Q853.3922,178.7813 853.4625,178.8609 Q853.5328,178.9359 853.5328,179.1188 L853.5328,179.5547 Q853.5328,179.7375 853.4625,179.8172 Q853.3922,179.8969 853.2797,179.8969 Q853.1766,179.8969 853.1156,179.8359 Q853.0547,179.7797 853.0219,179.625 Q853.0078,179.5172 852.9516,179.4609 Q852.8531,179.3484 852.6703,179.2828 Q852.4875,179.2172 852.3,179.2172 Q852.0703,179.2172 851.8781,179.3156 Q851.6906,179.4141 851.5406,179.6391 Q851.3953,179.8641 851.3953,180.1734 L851.3953,180.5016 Q851.3953,180.8719 851.6625,181.1203 Q851.9297,181.3641 852.4078,181.3641 Q852.6891,181.3641 852.8859,181.2891 Q853.0031,181.2422 853.1297,181.1109 Q853.2094,181.0313 853.2516,181.0078 Q853.2984,180.9844 853.3594,180.9844 Q853.4578,180.9844 853.5328,181.0641 Q853.6125,181.1391 853.6125,181.2422 Q853.6125,181.3453 853.5094,181.4672 Q853.3594,181.6406 853.1203,181.7391 Q852.7969,181.875 852.4078,181.875 Q851.9531,181.875 851.5922,181.6875 Q851.2969,181.5375 851.0906,181.2188 Q850.8844,180.8953 850.8844,180.5109 L850.8844,180.1641 Q850.8844,179.7656 851.0672,179.4234 Q851.2547,179.0766 851.5828,178.8937 Q851.9109,178.7062 852.2813,178.7062 Q852.5016,178.7062 852.6938,178.7578 Q852.8906,178.8047 853.0547,178.9125 Z " fill="#000000"/><text fill="#000000" font-family="sans-serif" font-size="4.2" lengthAdjust="spacing" textLength="16.8" x="858.375" y="181.8891">Validator</text><line style="stroke:#181818;stroke-width:0.15;" x1="826.5" x2="897.3" y1="184.95" y2="184.95"/><line style="stroke:#181818;stroke-width:0.15;" x1="826.5" x2="897.3" y1="187.35" y2="187.35"/><text fill="#000000" font-family="sans-serif" font-size="4.2" lengthAdjust="spacing" textLength="67.8" x="828" y="193.0822">+isValidZipCode(zipCode) : boolean</text></g><!--link RegisterSupplyOfferUI to SupplierController--><g id="link_RegisterSupplyOfferUI_SupplierController"><path codeLine="152" d="M475.164,24.333 C435.591,29.901 364.5,39.9 364.5,39.9 C364.5,39.9 354.5043,45.7821 343.2273,52.4181 " fill="none" id="RegisterSupplyOfferUI-to-SupplierController" style="stroke:#181818;stroke-width:0.3;stroke-dasharray:7.0,7.0;"/><polygon fill="#181818" points="341.676,53.331,344.6116,52.9959,342.9688,52.5703,343.3944,50.9274,341.676,53.331" style="stroke:#181818;stroke-width:0.3;"/></g><!--link RegisterSupplyOfferUI to SupplyOfferController--><g id="link_RegisterSupplyOfferUI_SupplyOfferController"><path codeLine="153" d="M501,27.657 C501,35.25 501,45.669 501,54.237 " fill="none" id="RegisterSupplyOfferUI-to-SupplyOfferController" style="stroke:#181818;stroke-width:0.3;stroke-dasharray:7.0,7.0;"/><polygon fill="#181818" points="501,56.037,502.2,53.337,501,54.537,499.8,53.337,501,56.037" style="stroke:#181818;stroke-width:0.3;"/></g><!--link RegisterSupplyOfferUI to RawMaterialController--><g id="link_RegisterSupplyOfferUI_RawMaterialController"><path codeLine="154" d="M526.812,24.324 C566.454,29.886 637.8,39.9 637.8,39.9 C637.8,39.9 651.288,47.7816 663.861,55.1316 " fill="none" id="RegisterSupplyOfferUI-to-RawMaterialController" style="stroke:#181818;stroke-width:0.3;stroke-dasharray:7.0,7.0;"/><polygon fill="#181818" points="665.415,56.04,663.6897,53.6414,664.12,55.283,662.4785,55.7133,665.415,56.04" style="stroke:#181818;stroke-width:0.3;"/></g><!--link SupplierController to SupplierService--><g id="link_SupplierController_SupplierService"><path codeLine="155" d="M318.843,78.984 C317.871,86.811 316.8451,95.0688 315.8731,102.8868 " fill="none" id="SupplierController-to-SupplierService" style="stroke:#181818;stroke-width:0.3;stroke-dasharray:7.0,7.0;"/><polygon fill="#181818" points="315.651,104.673,317.175,102.1417,315.8361,103.1845,314.7933,101.8456,315.651,104.673" style="stroke:#181818;stroke-width:0.3;"/></g><!--link SupplyOfferController to SupplyOfferService--><g id="link_SupplyOfferController_SupplyOfferService"><path codeLine="156" d="M499.785,76.224 C498.672,85.176 497.2593,96.5658 496.1433,105.5328 " fill="none" id="SupplyOfferController-to-SupplyOfferService" style="stroke:#181818;stroke-width:0.3;stroke-dasharray:7.0,7.0;"/><polygon fill="#181818" points="495.921,107.319,497.4453,104.7879,496.1063,105.8305,495.0636,104.4915,495.921,107.319" style="stroke:#181818;stroke-width:0.3;"/></g><!--link SupplyOfferController to RawMaterialService--><g id="link_SupplyOfferController_RawMaterialService"><path codeLine="157" d="M552.483,76.215 C588.981,83.136 631.5,91.2 631.5,91.2 C631.5,91.2 644.2262,97.2494 658.2152,103.8974 " fill="none" id="SupplyOfferController-to-RawMaterialService" style="stroke:#181818;stroke-width:0.3;stroke-dasharray:7.0,7.0;"/><polygon fill="#181818" points="659.841,104.67,657.9174,102.4273,658.4862,104.0262,656.8873,104.5949,659.841,104.67" style="stroke:#181818;stroke-width:0.3;"/></g><!--link RawMaterialController to RawMaterialService--><g id="link_RawMaterialController_RawMaterialService"><path codeLine="158" d="M682.953,76.224 C683.574,84.312 684.3238,94.0553 684.9988,102.8183 " fill="none" id="RawMaterialController-to-RawMaterialService" style="stroke:#181818;stroke-width:0.3;stroke-dasharray:7.0,7.0;"/><polygon fill="#181818" points="685.137,104.613,686.1261,101.8288,685.0218,103.1174,683.7332,102.0131,685.137,104.613" style="stroke:#181818;stroke-width:0.3;"/></g><!--link SupplierService to Repositories--><g id="link_SupplierService_Repositories"><path codeLine="159" d="M275.391,127.839 C253.113,133.644 229.5,139.8 229.5,139.8 C229.5,139.8 214.8168,149.4412 198.1218,160.4002 " fill="none" id="SupplierService-to-Repositories" style="stroke:#181818;stroke-width:0.3;stroke-dasharray:7.0,7.0;"/><polygon fill="#181818" points="196.617,161.388,199.5327,160.9095,197.871,160.5649,198.2156,158.9032,196.617,161.388" style="stroke:#181818;stroke-width:0.3;"/><text fill="#000000" font-family="sans-serif" font-size="3.9" lengthAdjust="spacing" textLength="20.1" x="229.8" y="144.3085">repositories</text></g><!--link SupplyOfferService to Repositories--><g id="link_SupplyOfferService_Repositories"><path codeLine="160" d="M427.566,127.503 C386.931,133.404 342.9,139.8 342.9,139.8 C342.9,139.8 332.1,145.5 332.1,145.5 C332.1,145.5 245.1,147.9 245.1,147.9 C245.1,147.9 232.1047,153.6133 215.0047,161.1343 " fill="none" id="SupplyOfferService-to-Repositories" style="stroke:#181818;stroke-width:0.3;stroke-dasharray:7.0,7.0;"/><polygon fill="#181818" points="213.357,161.859,216.3116,161.8704,214.7301,161.2551,215.3454,159.6735,213.357,161.859" style="stroke:#181818;stroke-width:0.3;"/><text fill="#000000" font-family="sans-serif" font-size="3.9" lengthAdjust="spacing" textLength="20.1" x="343.2" y="144.3085">repositories</text></g><!--link RawMaterialService to Repositories--><g id="link_RawMaterialService_Repositories"><path codeLine="161" d="M669.621,130.245 C659.907,137.61 649.5,145.5 649.5,145.5 C649.5,145.5 245.1,147.9 245.1,147.9 C245.1,147.9 232.1047,153.6133 215.0047,161.1343 " fill="none" id="RawMaterialService-to-Repositories" style="stroke:#181818;stroke-width:0.3;stroke-dasharray:7.0,7.0;"/><polygon fill="#181818" points="213.357,161.859,216.3116,161.8704,214.7301,161.2551,215.3454,159.6735,213.357,161.859" style="stroke:#181818;stroke-width:0.3;"/><text fill="#000000" font-family="sans-serif" font-size="3.9" lengthAdjust="spacing" textLength="20.1" x="656.7" y="144.3085">repositories</text></g><!--link SupplierService to SupplierRepository--><g id="link_SupplierService_SupplierRepository"><path codeLine="162" d="M294.162,130.275 C280.974,138.558 266.1,147.9 266.1,147.9 C266.1,147.9 261.5023,207.1404 259.4113,234.0804 " fill="none" id="SupplierService-to-SupplierRepository" style="stroke:#181818;stroke-width:0.3;stroke-dasharray:7.0,7.0;"/><polygon fill="#181818" points="259.272,235.875,260.6773,233.276,259.3881,234.3795,258.2845,233.0902,259.272,235.875" style="stroke:#181818;stroke-width:0.3;"/><text fill="#000000" font-family="sans-serif" font-size="3.9" lengthAdjust="spacing" textLength="32.1" x="266.4" y="187.0585">supplierRepository</text></g><!--link SupplyOfferService to SupplyOfferRepository--><g id="link_SupplyOfferService_SupplyOfferRepository"><path codeLine="163" d="M426.951,127.503 C392.658,132.438 358.2,137.4 358.2,137.4 C358.2,137.4 333,139.8 333,139.8 C333,139.8 308.7,145.5 308.7,145.5 C308.7,145.5 63.9,147.9 63.9,147.9 C63.9,147.9 57.709,207.1447 54.895,234.0847 " fill="none" id="SupplyOfferService-to-SupplyOfferRepository" style="stroke:#181818;stroke-width:0.3;stroke-dasharray:7.0,7.0;"/><polygon fill="#181818" points="54.708,235.875,56.182,233.3143,54.8638,234.3831,53.795,233.0649,54.708,235.875" style="stroke:#181818;stroke-width:0.3;"/><text fill="#000000" font-family="sans-serif" font-size="3.9" lengthAdjust="spacing" textLength="38.1" x="64.2" y="187.0585">supplyOfferRepository</text></g><!--link SupplyOfferService to AddressRepository--><g id="link_SupplyOfferService_AddressRepository"><path codeLine="164" d="M448.992,127.515 C411.579,135.507 364.8,145.5 364.8,145.5 C364.8,145.5 319.8,147.9 319.8,147.9 C319.8,147.9 305.1,224.1 305.1,224.1 C305.1,224.1 222.6,233.1 222.6,233.1 C222.6,233.1 222.317,233.1747 219.02,234.0327 " fill="none" id="SupplyOfferService-to-AddressRepository" style="stroke:#181818;stroke-width:0.3;stroke-dasharray:7.0,7.0;"/><polygon fill="#181818" points="217.278,234.486,220.1932,234.9673,218.7297,234.1082,219.5888,232.6447,217.278,234.486" style="stroke:#181818;stroke-width:0.3;"/><text fill="#000000" font-family="sans-serif" font-size="3.9" lengthAdjust="spacing" textLength="32.4" x="320.1" y="187.0585">addressRepository</text></g><!--link RawMaterialService to RawMaterialRepository--><g id="link_RawMaterialService_RawMaterialRepository"><path codeLine="165" d="M683.127,130.245 C681.375,137.61 679.5,145.5 679.5,145.5 C679.5,145.5 371.4,147.9 371.4,147.9 C371.4,147.9 358.1282,207.1785 352.0982,234.1185 " fill="none" id="RawMaterialService-to-RawMaterialRepository" style="stroke:#181818;stroke-width:0.3;stroke-dasharray:7.0,7.0;"/><polygon fill="#181818" points="351.705,235.875,353.4658,233.5023,352.0326,234.4112,351.1237,232.9781,351.705,235.875" style="stroke:#181818;stroke-width:0.3;"/><text fill="#000000" font-family="sans-serif" font-size="3.9" lengthAdjust="spacing" textLength="38.4" x="371.7" y="187.0585">rawMaterialRepository</text></g><!--link SupplierService to Supplier--><g id="link_SupplierService_Supplier"><path codeLine="166" d="M321.123,130.245 C325.266,137.61 329.7,145.5 329.7,145.5 C329.7,145.5 777.9,147.9 777.9,147.9 C777.9,147.9 777.9,271.5 777.9,271.5 C777.9,271.5 770.8853,281.6245 762.3113,293.9965 " fill="none" id="SupplierService-to-Supplier" style="stroke:#181818;stroke-width:0.3;stroke-dasharray:7.0,7.0;"/><polygon fill="#181818" points="761.286,295.476,763.8102,293.9403,762.1404,294.2431,761.8376,292.5733,761.286,295.476" style="stroke:#181818;stroke-width:0.3;"/><text fill="#000000" font-family="sans-serif" font-size="3.9" lengthAdjust="spacing" textLength="13.5" x="778.2" y="222.9085">supplier</text></g><!--link SupplyOfferService to SupplyOffer--><g id="link_SupplyOfferService_SupplyOffer"><path codeLine="167" d="M541.674,127.515 C580.125,135.507 628.2,145.5 628.2,145.5 C628.2,145.5 785.7,147.9 785.7,147.9 C785.7,147.9 794.4,218.4 794.4,218.4 C794.4,218.4 795.3,282 795.3,282 C795.3,282 795.3,354.6 795.3,354.6 C795.3,354.6 794.4814,364.3713 793.4734,376.3893 " fill="none" id="SupplyOfferService-to-SupplyOffer" style="stroke:#181818;stroke-width:0.3;stroke-dasharray:7.0,7.0;"/><polygon fill="#181818" points="793.323,378.183,794.7445,375.5927,793.4484,376.6882,792.3529,375.3922,793.323,378.183" style="stroke:#181818;stroke-width:0.3;"/><text fill="#000000" font-family="sans-serif" font-size="3.9" lengthAdjust="spacing" textLength="19.5" x="795.3" y="250.3585">supplyOffer</text></g><!--link SupplyOfferService to Address--><g id="link_SupplyOfferService_Address"><path codeLine="168" d="M562.599,127.503 C596.964,132.438 631.5,137.4 631.5,137.4 C631.5,137.4 648.3,139.8 648.3,139.8 C648.3,139.8 661.5,145.5 661.5,145.5 C661.5,145.5 902.4,147.9 902.4,147.9 C902.4,147.9 913.5,220.95 913.5,220.95 C913.5,220.95 913.5,220.95 913.5,405.3 C913.5,405.3 885.9,431.7 885.9,431.7 C885.9,431.7 842.1,446.4 842.1,446.4 C842.1,446.4 749.1,455.4 749.1,455.4 C749.1,455.4 748.6361,455.6285 745.3301,457.2395 " fill="none" id="SupplyOfferService-to-Address" style="stroke:#181818;stroke-width:0.3;stroke-dasharray:7.0,7.0;"/><polygon fill="#181818" points="743.712,458.028,746.6648,457.924,745.0604,457.3709,745.6135,455.7665,743.712,458.028" style="stroke:#181818;stroke-width:0.3;"/><text fill="#000000" font-family="sans-serif" font-size="3.9" lengthAdjust="spacing" textLength="13.8" x="913.8" y="278.4085">address</text></g><!--link RawMaterialService to RawMaterial--><g id="link_RawMaterialService_RawMaterial"><path codeLine="169" d="M735.693,124.107 C804.696,132.954 921.3,147.9 921.3,147.9 C921.3,147.9 939.9,185.1 939.9,185.1 C939.9,185.1 939.9,185.1 939.9,405.3 C939.9,405.3 921.3,446.4 921.3,446.4 C921.3,446.4 916.7883,449.2925 908.8803,454.3625 " fill="none" id="RawMaterialService-to-RawMaterial" style="stroke:#181818;stroke-width:0.3;stroke-dasharray:7.0,7.0;"/><polygon fill="#181818" points="907.365,455.334,910.2856,454.887,908.6278,454.5244,908.9903,452.8665,907.365,455.334" style="stroke:#181818;stroke-width:0.3;"/><text fill="#000000" font-family="sans-serif" font-size="3.9" lengthAdjust="spacing" textLength="19.8" x="940.2" y="278.4085">rawMaterial</text></g><!--link Repositories to Repositories--><g id="link_Repositories_Repositories"><path codeLine="170" d="M213.369,179.697 C219.678,180.732 223.8,182.634 223.8,185.4 C223.8,188.166 221.4543,189.7766 215.1453,190.8116 " fill="none" id="Repositories-to-Repositories" style="stroke:#181818;stroke-width:0.3;"/><polygon fill="#181818" points="213.369,191.103,216.2276,191.8501,214.8492,190.8602,215.8391,189.4817,213.369,191.103" style="stroke:#181818;stroke-width:0.3;"/><text fill="#000000" font-family="sans-serif" font-size="3.9" lengthAdjust="spacing" textLength="14.7" x="225.6" y="187.0585">instance</text></g><!--link Repositories to SupplierRepository--><g id="link_Repositories_SupplierRepository"><path codeLine="171" d="M165.144,209.472 C166.677,217.329 168,224.1 168,224.1 C168,224.1 222.6,233.1 222.6,233.1 C222.6,233.1 223.6513,233.5526 227.5753,235.2326 " fill="none" id="Repositories-to-SupplierRepository" style="stroke:#181818;stroke-width:0.3;"/><polygon fill="#181818" points="229.23,235.941,227.2202,233.7752,227.8511,235.3506,226.2756,235.9815,229.23,235.941" style="stroke:#181818;stroke-width:0.3;"/><text fill="#000000" font-family="sans-serif" font-size="3.9" lengthAdjust="spacing" textLength="32.1" x="168.3" y="222.9085">supplierRepository</text><text fill="#000000" font-family="sans-serif" font-size="3.9" lengthAdjust="spacing" textLength="2.1" x="163.3416" y="215.8921">1</text><text fill="#000000" font-family="sans-serif" font-size="3.9" lengthAdjust="spacing" textLength="2.1" x="223.2709" y="233.089">1</text></g><!--link Repositories to AddressRepository--><g id="link_Repositories_AddressRepository"><path codeLine="172" d="M133.248,209.466 C127.431,214.536 123,218.4 123,218.4 C123,218.4 123,224.1 123,224.1 C123,224.1 128.3835,227.3069 136.5285,232.1579 " fill="none" id="Repositories-to-AddressRepository" style="stroke:#181818;stroke-width:0.3;"/><polygon fill="#181818" points="138.075,233.079,136.3693,230.6664,136.7863,232.3114,135.1412,232.7284,138.075,233.079" style="stroke:#181818;stroke-width:0.3;"/><text fill="#000000" font-family="sans-serif" font-size="3.9" lengthAdjust="spacing" textLength="32.4" x="123.3" y="222.9085">addressRepository</text><text fill="#000000" font-family="sans-serif" font-size="3.9" lengthAdjust="spacing" textLength="2.1" x="128.8042" y="215.8856">1</text><text fill="#000000" font-family="sans-serif" font-size="3.9" lengthAdjust="spacing" textLength="2.1" x="132.3771" y="229.7544">1</text></g><!--link Repositories to SupplyOfferRepository--><g id="link_Repositories_SupplyOfferRepository"><path codeLine="173" d="M107.637,207.693 C93.417,213.609 81.9,218.4 81.9,218.4 C81.9,218.4 74.3076,226.3889 66.4776,234.6329 " fill="none" id="Repositories-to-SupplyOfferRepository" style="stroke:#181818;stroke-width:0.3;"/><polygon fill="#181818" points="65.238,235.938,67.9675,234.8067,66.271,234.8504,66.2273,233.1539,65.238,235.938" style="stroke:#181818;stroke-width:0.3;"/><text fill="#000000" font-family="sans-serif" font-size="3.9" lengthAdjust="spacing" textLength="38.1" x="82.2" y="222.9085">supplyOfferRepository</text><text fill="#000000" font-family="sans-serif" font-size="3.9" lengthAdjust="spacing" textLength="2.1" x="103.2625" y="207.638">1</text><text fill="#000000" font-family="sans-serif" font-size="3.9" lengthAdjust="spacing" textLength="2.1" x="64.8573" y="232.6073">1</text></g><!--link Repositories to RawMaterialRepository--><g id="link_Repositories_RawMaterialRepository"><path codeLine="174" d="M213.357,203.292 C244.596,213.687 281.6931,226.0337 309.7701,235.3757 " fill="none" id="Repositories-to-RawMaterialRepository" style="stroke:#181818;stroke-width:0.3;"/><polygon fill="#181818" points="311.478,235.944,309.2949,233.953,310.0547,235.4704,308.5372,236.2302,311.478,235.944" style="stroke:#181818;stroke-width:0.3;"/><text fill="#000000" font-family="sans-serif" font-size="3.9" lengthAdjust="spacing" textLength="38.4" x="271.8" y="222.9085">rawMaterialRepository</text><text fill="#000000" font-family="sans-serif" font-size="3.9" lengthAdjust="spacing" textLength="2.1" x="215.6312" y="203.0513">1</text><text fill="#000000" font-family="sans-serif" font-size="3.9" lengthAdjust="spacing" textLength="2.1" x="303.2465" y="232.6143">1</text></g><!--link SupplierRepository to Supplier--><g id="link_SupplierRepository_Supplier"><path codeLine="175" d="M278.301,261.501 C286.587,266.679 294.3,271.5 294.3,271.5 C294.3,271.5 574.2637,304.8749 690.2377,318.6989 " fill="none" id="SupplierRepository-to-Supplier" style="stroke:#181818;stroke-width:0.3;"/><polygon fill="#181818" points="692.025,318.912,689.486,317.4009,690.5355,318.7345,689.2019,319.784,692.025,318.912" style="stroke:#181818;stroke-width:0.3;"/><text fill="#000000" font-family="sans-serif" font-size="3.9" lengthAdjust="spacing" textLength="18" x="359.4" y="278.4085">categories</text><text fill="#000000" font-family="sans-serif" font-size="3.9" lengthAdjust="spacing" textLength="2.1" x="279.2213" y="268.1572">1</text><text fill="#000000" font-family="sans-serif" font-size="3.9" lengthAdjust="spacing" textLength="1.5" x="688.2718" y="317.629">*</text></g><!--link AddressRepository to Address--><g id="link_AddressRepository_Address"><path codeLine="176" d="M199.278,264.303 C301.164,308.247 587.4,431.7 587.4,431.7 C587.4,431.7 623.6689,446.9013 655.5979,460.2813 " fill="none" id="AddressRepository-to-Address" style="stroke:#181818;stroke-width:0.3;"/><polygon fill="#181818" points="657.258,460.977,655.2316,458.8267,655.8746,460.3973,654.304,461.0402,657.258,460.977" style="stroke:#181818;stroke-width:0.3;"/><text fill="#000000" font-family="sans-serif" font-size="3.9" lengthAdjust="spacing" textLength="18" x="438.3" y="368.1085">categories</text><text fill="#000000" font-family="sans-serif" font-size="3.9" lengthAdjust="spacing" textLength="2.1" x="201.5891" y="270.8456">1</text><text fill="#000000" font-family="sans-serif" font-size="3.9" lengthAdjust="spacing" textLength="1.5" x="653.3522" y="458.9432">*</text></g><!--link SupplyOfferRepository to SupplyOffer--><g id="link_SupplyOfferRepository_SupplyOffer"><path codeLine="177" d="M67.56,261.534 C102.366,292.347 189.3,369.3 189.3,369.3 C189.3,369.3 698.7,378.3 698.7,378.3 C698.7,378.3 697.9591,378.0879 699.7351,378.5949 " fill="none" id="SupplyOfferRepository-to-SupplyOffer" style="stroke:#181818;stroke-width:0.3;"/><polygon fill="#181818" points="701.466,379.089,699.1991,377.1939,700.0236,378.6772,698.5403,379.5017,701.466,379.089" style="stroke:#181818;stroke-width:0.3;"/><text fill="#000000" font-family="sans-serif" font-size="3.9" lengthAdjust="spacing" textLength="18" x="172.2" y="326.7085">categories</text><text fill="#000000" font-family="sans-serif" font-size="3.9" lengthAdjust="spacing" textLength="2.1" x="67.4675" y="268.0993">1</text><text fill="#000000" font-family="sans-serif" font-size="3.9" lengthAdjust="spacing" textLength="1.5" x="697.5652" y="377.4413">*</text></g><!--link RawMaterialRepository to RawMaterial--><g id="link_RawMaterialRepository_RawMaterial"><path codeLine="178" d="M372.006,261.486 C448.248,302.685 687,431.7 687,431.7 C687,431.7 740.4,446.4 740.4,446.4 C740.4,446.4 794.4,455.4 794.4,455.4 C794.4,455.4 794.6287,455.473 797.8987,456.493 " fill="none" id="RawMaterialRepository-to-RawMaterial" style="stroke:#181818;stroke-width:0.3;"/><polygon fill="#181818" points="799.617,457.029,797.3968,455.0794,798.185,456.5823,796.6822,457.3706,799.617,457.029" style="stroke:#181818;stroke-width:0.3;"/><text fill="#000000" font-family="sans-serif" font-size="3.9" lengthAdjust="spacing" textLength="18" x="568.2" y="368.1085">categories</text><text fill="#000000" font-family="sans-serif" font-size="3.9" lengthAdjust="spacing" textLength="2.1" x="373.4212" y="268.1398">1</text><text fill="#000000" font-family="sans-serif" font-size="3.9" lengthAdjust="spacing" textLength="1.5" x="795.7731" y="455.3226">*</text></g><!--link Supplier to Address--><g id="link_Supplier_Address"><path codeLine="179" d="M712.482,354.612 C700.551,366.858 689.4,378.3 689.4,378.3 C689.4,378.3 689.4,431.7 689.4,431.7 C689.4,431.7 691.7438,441.7044 694.5068,453.5094 " fill="none" id="Supplier-to-Address" style="stroke:#181818;stroke-width:0.3;"/><polygon fill="#181818" points="694.917,455.262,695.4701,452.3596,694.5752,453.8015,693.1333,452.9065,694.917,455.262" style="stroke:#181818;stroke-width:0.3;"/><text fill="#000000" font-family="sans-serif" font-size="3.9" lengthAdjust="spacing" textLength="6.3" x="689.7" y="406.6585">has</text><text fill="#000000" font-family="sans-serif" font-size="3.9" lengthAdjust="spacing" textLength="1.5" x="708.8326" y="361.1823">*</text><text fill="#000000" font-family="sans-serif" font-size="3.9" lengthAdjust="spacing" textLength="2.1" x="692.2262" y="452.0011">1</text></g><!--link Supplier to SupplyOffer--><g id="link_Supplier_SupplyOffer"><path codeLine="180" d="M759.513,354.672 C764.391,362.397 768.6652,369.1639 773.4412,376.7299 " fill="none" id="Supplier-to-SupplyOffer" style="stroke:#181818;stroke-width:0.3;"/><polygon fill="#181818" points="774.402,378.252,773.9755,375.3283,773.6013,376.9836,771.946,376.6094,774.402,378.252" style="stroke:#181818;stroke-width:0.3;"/><text fill="#000000" font-family="sans-serif" font-size="3.9" lengthAdjust="spacing" textLength="6.3" x="767.7" y="368.1085">has</text><text fill="#000000" font-family="sans-serif" font-size="3.9" lengthAdjust="spacing" textLength="2.1" x="758.6954" y="361.2467">1</text><text fill="#000000" font-family="sans-serif" font-size="3.9" lengthAdjust="spacing" textLength="1.5" x="771.4571" y="374.9336">*</text></g><!--link SupplyOffer to Address--><g id="link_SupplyOffer_Address"><path codeLine="181" d="M758.646,431.736 C749.202,439.428 740.3439,446.6465 731.1099,454.1645 " fill="none" id="SupplyOffer-to-Address" style="stroke:#181818;stroke-width:0.3;"/><polygon fill="#181818" points="729.714,455.301,732.5654,454.5269,730.8772,454.3539,731.0502,452.6657,729.714,455.301" style="stroke:#181818;stroke-width:0.3;"/><text fill="#000000" font-family="sans-serif" font-size="3.9" lengthAdjust="spacing" textLength="6.3" x="746.1" y="445.2085">has</text><text fill="#000000" font-family="sans-serif" font-size="3.9" lengthAdjust="spacing" textLength="1.5" x="754.3963" y="438.369">*</text><text fill="#000000" font-family="sans-serif" font-size="3.9" lengthAdjust="spacing" textLength="2.1" x="730.1224" y="452.0436">1</text></g><!--link SupplyOffer to RawMaterial--><g id="link_SupplyOffer_RawMaterial"><path codeLine="182" d="M819.468,431.736 C827.724,439.428 835.374,446.556 843.444,454.074 " fill="none" id="SupplyOffer-to-RawMaterial" style="stroke:#181818;stroke-width:0.3;"/><polygon fill="#181818" points="844.761,455.301,843.6034,452.5825,843.6635,454.2785,841.9675,454.3386,844.761,455.301" style="stroke:#181818;stroke-width:0.3;"/><text fill="#000000" font-family="sans-serif" font-size="3.9" lengthAdjust="spacing" textLength="6.3" x="833.1" y="445.2085">has</text><text fill="#000000" font-family="sans-serif" font-size="3.9" lengthAdjust="spacing" textLength="1.5" x="820.2551" y="438.369">*</text><text fill="#000000" font-family="sans-serif" font-size="3.9" lengthAdjust="spacing" textLength="6" x="836.2192" y="452.0436">1..*</text></g><!--link RawMaterial to Part--><g id="link_RawMaterial_Part"><path codeLine="183" d="M870.3,503.415 C870.3,509.472 870.3,510.492 870.3,516.219 " fill="none" id="RawMaterial-to-Part" style="stroke:#181818;stroke-width:0.3;"/><polygon fill="none" points="870.3,521.619,872.1,516.219,868.5,516.219,870.3,521.619" style="stroke:#181818;stroke-width:0.3;"/></g><!--link SupplyOffer to ProcessState--><g id="link_SupplyOffer_ProcessState"><path codeLine="184" d="M784.116,431.736 C780.978,443.604 777.8859,455.3097 775.3689,464.8347 " fill="none" id="SupplyOffer-to-ProcessState" style="stroke:#181818;stroke-width:0.3;"/><polygon fill="#181818" points="774.909,466.575,776.759,464.2712,775.2922,465.1248,774.4386,463.658,774.909,466.575" style="stroke:#181818;stroke-width:0.3;"/><text fill="#000000" font-family="sans-serif" font-size="3.9" lengthAdjust="spacing" textLength="6.3" x="781.5" y="445.2085">has</text><text fill="#000000" font-family="sans-serif" font-size="3.9" lengthAdjust="spacing" textLength="1.5" x="781.9755" y="438.369">*</text><text fill="#000000" font-family="sans-serif" font-size="3.9" lengthAdjust="spacing" textLength="2.1" x="773.169" y="463.2343">1</text></g><!--link SupplierService to SupplierException--><g id="link_SupplierService_SupplierException"><path codeLine="185" d="M302.811,130.32 C298.365,135.273 294.3,139.8 294.3,139.8 C294.3,139.8 294.3,145.5 294.3,145.5 C294.3,145.5 403.2,147.9 403.2,147.9 C403.2,147.9 428.7798,163.3724 447.0018,174.3944 " fill="none" id="SupplierService-to-SupplierException" style="stroke:#181818;stroke-width:0.3;stroke-dasharray:7.0,7.0;"/><polygon fill="#181818" points="448.542,175.326,446.8528,172.9018,447.2585,174.5497,445.6107,174.9554,448.542,175.326" style="stroke:#181818;stroke-width:0.3;"/><text fill="#000000" font-family="sans-serif" font-size="3.9" lengthAdjust="spacing" textLength="11.4" x="294.6" y="144.3085">throws</text></g><!--link SupplierException to RuntimeException--><g id="link_SupplierException_RuntimeException"><path codeLine="186" d="M483.966,195.498 C509.094,208.275 547.6156,227.8652 569.5786,239.0342 " fill="none" id="SupplierException-to-RuntimeException" style="stroke:#181818;stroke-width:0.3;"/><polygon fill="none" points="574.392,241.482,570.3946,237.4298,568.7627,240.6387,574.392,241.482" style="stroke:#181818;stroke-width:0.3;"/></g><!--link SupplyOfferService to SupplyOfferException--><g id="link_SupplyOfferService_SupplyOfferException"><path codeLine="187" d="M508.266,127.542 C523.605,138.615 547.3155,155.7325 565.2735,168.6955 " fill="none" id="SupplyOfferService-to-SupplyOfferException" style="stroke:#181818;stroke-width:0.3;stroke-dasharray:7.0,7.0;"/><polygon fill="#181818" points="566.733,169.749,565.2461,167.1957,565.5168,168.8711,563.8414,169.1417,566.733,169.749" style="stroke:#181818;stroke-width:0.3;"/><text fill="#000000" font-family="sans-serif" font-size="3.9" lengthAdjust="spacing" textLength="11.4" x="533.1" y="144.3085">throws</text></g><!--link SupplyOfferException to RuntimeException--><g id="link_SupplyOfferException_RuntimeException"><path codeLine="188" d="M588,201.039 C588,213.945 588,226.401 588,236.082 " fill="none" id="SupplyOfferException-to-RuntimeException" style="stroke:#181818;stroke-width:0.3;"/><polygon fill="none" points="588,241.482,589.8,236.082,586.2,236.082,588,241.482" style="stroke:#181818;stroke-width:0.3;"/></g><!--link RawMaterialService to ProductException--><g id="link_RawMaterialService_ProductException"><path codeLine="189" d="M697.218,130.32 C701.595,135.273 705.6,139.8 705.6,139.8 C705.6,139.8 710.871,160.2032 714.312,173.5292 " fill="none" id="RawMaterialService-to-ProductException" style="stroke:#181818;stroke-width:0.3;stroke-dasharray:7.0,7.0;"/><polygon fill="#181818" points="714.762,175.272,715.2488,172.3577,714.387,173.8196,712.9251,172.9578,714.762,175.272" style="stroke:#181818;stroke-width:0.3;"/><text fill="#000000" font-family="sans-serif" font-size="3.9" lengthAdjust="spacing" textLength="11.4" x="707.1" y="144.3085">throws</text></g><!--link ProductException to RuntimeException--><g id="link_ProductException_RuntimeException"><path codeLine="190" d="M697.098,195.498 C670.746,208.275 630.1609,227.957 607.1269,239.126 " fill="none" id="ProductException-to-RuntimeException" style="stroke:#181818;stroke-width:0.3;"/><polygon fill="none" points="602.268,241.482,607.9123,240.7456,606.3416,237.5063,602.268,241.482" style="stroke:#181818;stroke-width:0.3;"/></g><!--link SupplyOfferService to Validator--><g id="link_SupplyOfferService_Validator"><path codeLine="191" d="M553.344,127.503 C588.837,133.404 627.3,139.8 627.3,139.8 C627.3,139.8 638.1,145.5 638.1,145.5 C638.1,145.5 818.1,147.9 818.1,147.9 C818.1,147.9 836.042,163.1388 849.02,174.1608 " fill="none" id="SupplyOfferService-to-Validator" style="stroke:#181818;stroke-width:0.3;stroke-dasharray:7.0,7.0;"/><polygon fill="#181818" points="850.392,175.326,849.1108,172.6636,849.2487,174.355,847.5572,174.4929,850.392,175.326" style="stroke:#181818;stroke-width:0.3;"/><text fill="#000000" font-family="sans-serif" font-size="3.9" lengthAdjust="spacing" textLength="8.4" x="638.4" y="144.3085">uses</text></g><!--SRC=[rLTDR-Cs4BthLn0-sOqTj5UXC93Qta90uqtZtJtqnaYCGwn42YIThBRT_rvIagKHERArHO6YkSJYlFbymo6fFtDHKaKBKjBqCpsoWwboHXHB3HN7d4Mw0-WNciatBexacUOQId8kcAbAHagPL-u3oDASQdrdZE9F9yEIL8e3_yh8Zr7KEYIpZycC_1aH-rU3oICxScsOEfpACg_UFpypzJ5f4T-YRq1p8uLHCi-P6bgeDJbJlRmLkx-R8pDdW9ulI4n-i-v-FY-jKU0lLRATw_OZsJgjiwYDotVV18v7eC8CE-DBellLP6i_ZMBCBCbNNcvanfR4o3Un9AayMTELarDbjjHO2HDPyqFHjtlxGt7BrEydAWmtrKPgqyNTc0z3V-mLHui7CA1-O7MDK7LWwfMd3EUf5VvN927k_nSCuMMRI0y2h-i70cjA2008hu-ib9eRgIf_4xVhd6aGu0gkpnU3I19X2oLILWSDSIZPlUCv9BfV7cZTPPbYMdjAmUfOPJmzL196sL281UfBHjfpa8z7yrsUNziNbiziydu8QW7zFNEHjO3vvMu7PSK8s3XK7JSNfWTe-ihc6SlvArDL2tMW9obpHiN5NJ2jGlzc_-DJP3GEWDbziR7e-M1- -7ds1G6mTkPOviAomEruRnd9yI4BTs7V51uJAq4Bvlh47jZYs2-NBrAm_QbuidOy3LPGdYCgzOqW9XjPb5HK7-mNy6ziHQrmLy-zW_loWclIreC6RzO0VUVKG9ClYSjWIK30Tkgw41SNsGkgSwR7JzVhKgJTLzsyjyBj8BLs_0VhvteyA9bQKrv1niuAgt1FIzZQoteX4OOTNTvRUNhAsTgl63pF-bFCI-mxZwtHWG8BopE_ciqmGRgddIvONzbnWootyoUKt9m75y-k7TM3B9Wu5GD2G2OFk_qssV_QVM_UxzybZ_UxRLY61rl4e0P-y2ExBcCwLRmqN28PtpZBTL9DnmFmukB0XD6aTkqewxBPLBDJQZRj2iJOyM9v3hXp5tblBPMvLDZyKEwY4fEixiW-1n0MdehbfWt8_Me2iJHQruurwynkTMTxWGp3tPUKrKRmWTY9uRm-JvAzDEziKuoTdvqkGdXJHzGws3wTW-30yGrSd5lZIJJokrmncbLZ1mzcgRV3nIlDUNOu3uBvP9K_clrrMM7Oe7O7yeBrYE53hoXaCQJna_D3xNaBC-Vw4tJVRdFqp8pmT-RjxHfvFru3-w-z2tZqYHKXJrOOINlLZ_2dfHV6TN3uY8Zmbzy8s7-urJ1uuu-9WXTuvB5rJGLvvqpouaM5tAFZxYu5Bk0Z4UBtknY-0AyR2Q_MCQ71qsCiOVIc6yEJs8zWf0GWyGdf3fEyabgVq8GqXi570qPNgu1YtZuBXy3PJxCQxFvFvNZKm4I2BlgVt2IZPluPqm3Q6VjX1abl3r2tGy94eKvF9b31amjSTKq3LF64eEgmAtolBdo7ycYoo1SA8QEnTB1svOgn07Lx6yJem71bjVfhNT_nHXqDhf33qB5TsX_eCJ4lIhxry5vKUmrEpEkRUiouByNjZspjuCBJsGuatnLtVy37vAHjK_mD]--></g></svg>