<?xml version="1.0" encoding="us-ascii" standalone="no"?><svg xmlns="http://www.w3.org/2000/svg" xmlns:xlink="http://www.w3.org/1999/xlink" contentStyleType="text/css" height="585px" preserveAspectRatio="none" style="width:723px;height:585px;background:#FFFFFF;" version="1.1" viewBox="0 0 723 585" width="723px" zoomAndPan="magnify"><defs/><g><text fill="#000000" font-family="sans-serif" font-size="14" font-weight="bold" lengthAdjust="spacing" textLength="228" x="247" y="30.1074">System Sequence Diagram (SSD)</text><rect fill="#FFFFFF" height="360.541" style="stroke:#181818;stroke-width:1.0;" width="10" x="82" y="133.2422"/><rect fill="#FFFFFF" height="31.291" style="stroke:#181818;stroke-width:1.0;" width="10" x="422" y="156.5332"/><rect fill="#FFFFFF" height="101.873" style="stroke:#181818;stroke-width:1.0;" width="10" x="422" y="219.1152"/><rect fill="none" height="50.582" style="stroke:#000000;stroke-width:1.5;" width="459" x="10" y="278.4063"/><rect fill="none" height="98.5039" style="stroke:#000000;stroke-width:1.5;" width="459" x="10" y="387.2793"/><line style="stroke:#181818;stroke-width:0.5;stroke-dasharray:5.0,5.0;" x1="87" x2="87" y1="123.2422" y2="502.7832"/><line style="stroke:#181818;stroke-width:0.5;stroke-dasharray:5.0,5.0;" x1="427" x2="427" y1="123.2422" y2="502.7832"/><text fill="#000000" font-family="sans-serif" font-size="14" lengthAdjust="spacing" textLength="128" x="20" y="119.7285">Production Manager</text><ellipse cx="87" cy="53.1211" fill="#E3E3E3" rx="8" ry="8" style="stroke:#181818;stroke-width:0.5;"/><path d="M87,61.1211 L87,88.1211 M74,69.1211 L100,69.1211 M87,88.1211 L74,103.1211 M87,88.1211 L100,103.1211 " fill="none" style="stroke:#181818;stroke-width:0.5;"/><text fill="#000000" font-family="sans-serif" font-size="14" lengthAdjust="spacing" textLength="128" x="20" y="516.8906">Production Manager</text><ellipse cx="87" cy="528.9043" fill="#E3E3E3" rx="8" ry="8" style="stroke:#181818;stroke-width:0.5;"/><path d="M87,536.9043 L87,563.9043 M74,544.9043 L100,544.9043 M87,563.9043 L74,578.9043 M87,563.9043 L100,578.9043 " fill="none" style="stroke:#181818;stroke-width:0.5;"/><rect fill="#E3E3E3" height="32.6211" rx="2.5" ry="2.5" style="stroke:#181818;stroke-width:0.5;" width="64" x="395" y="89.6211"/><text fill="#000000" font-family="sans-serif" font-size="14" lengthAdjust="spacing" textLength="50" x="402" y="111.7285">:System</text><rect fill="#E3E3E3" height="32.6211" rx="2.5" ry="2.5" style="stroke:#181818;stroke-width:0.5;" width="64" x="395" y="501.7832"/><text fill="#000000" font-family="sans-serif" font-size="14" lengthAdjust="spacing" textLength="50" x="402" y="523.8906">:System</text><rect fill="#FFFFFF" height="360.541" style="stroke:#181818;stroke-width:1.0;" width="10" x="82" y="133.2422"/><rect fill="#FFFFFF" height="31.291" style="stroke:#181818;stroke-width:1.0;" width="10" x="422" y="156.5332"/><rect fill="#FFFFFF" height="101.873" style="stroke:#181818;stroke-width:1.0;" width="10" x="422" y="219.1152"/><polygon fill="#181818" points="410,152.5332,420,156.5332,410,160.5332,414,156.5332" style="stroke:#181818;stroke-width:1.0;"/><line style="stroke:#181818;stroke-width:1.0;" x1="92" x2="416" y1="156.5332" y2="156.5332"/><text fill="#000000" font-family="sans-serif" font-size="13" font-weight="bold" lengthAdjust="spacing" textLength="7" x="99" y="151.2705">1</text><text fill="#000000" font-family="sans-serif" font-size="13" lengthAdjust="spacing" textLength="180" x="110" y="151.2705">asks to check stock for a order</text><polygon fill="#181818" points="103,183.8242,93,187.8242,103,191.8242,99,187.8242" style="stroke:#181818;stroke-width:1.0;"/><line style="stroke:#181818;stroke-width:1.0;stroke-dasharray:2.0,2.0;" x1="97" x2="426" y1="187.8242" y2="187.8242"/><text fill="#000000" font-family="sans-serif" font-size="13" font-weight="bold" lengthAdjust="spacing" textLength="7" x="109" y="182.5615">2</text><text fill="#000000" font-family="sans-serif" font-size="13" lengthAdjust="spacing" textLength="295" x="120" y="182.5615">show list of orders and requests data (i.e. Order ID)</text><polygon fill="#181818" points="410,215.1152,420,219.1152,410,223.1152,414,219.1152" style="stroke:#181818;stroke-width:1.0;"/><line style="stroke:#181818;stroke-width:1.0;" x1="92" x2="416" y1="219.1152" y2="219.1152"/><text fill="#000000" font-family="sans-serif" font-size="13" font-weight="bold" lengthAdjust="spacing" textLength="7" x="99" y="213.8525">3</text><text fill="#000000" font-family="sans-serif" font-size="13" lengthAdjust="spacing" textLength="182" x="110" y="213.8525">types requested data (Order ID)</text><line style="stroke:#181818;stroke-width:1.0;" x1="432" x2="474" y1="250.4063" y2="250.4063"/><line style="stroke:#181818;stroke-width:1.0;" x1="474" x2="474" y1="250.4063" y2="263.4063"/><line style="stroke:#181818;stroke-width:1.0;" x1="433" x2="474" y1="263.4063" y2="263.4063"/><polygon fill="#181818" points="443,259.4063,433,263.4063,443,267.4063,439,263.4063" style="stroke:#181818;stroke-width:1.0;"/><text fill="#000000" font-family="sans-serif" font-size="13" font-weight="bold" lengthAdjust="spacing" textLength="7" x="439" y="245.1436">4</text><text fill="#000000" font-family="sans-serif" font-size="13" lengthAdjust="spacing" textLength="124" x="450" y="245.1436">checks if order exists</text><path d="M10,278.4063 L71,278.4063 L71,287.6973 L61,297.6973 L10,297.6973 L10,278.4063 " fill="#EEEEEE" style="stroke:#000000;stroke-width:1.5;"/><rect fill="none" height="50.582" style="stroke:#000000;stroke-width:1.5;" width="459" x="10" y="278.4063"/><text fill="#000000" font-family="sans-serif" font-size="13" font-weight="bold" lengthAdjust="spacing" textLength="16" x="25" y="293.4346">alt</text><text fill="#000000" font-family="sans-serif" font-size="11" font-weight="bold" lengthAdjust="spacing" textLength="121" x="86" y="292.2764">[order does not exist]</text><polygon fill="#181818" points="103,316.9883,93,320.9883,103,324.9883,99,320.9883" style="stroke:#181818;stroke-width:1.0;"/><line style="stroke:#181818;stroke-width:1.0;stroke-dasharray:2.0,2.0;" x1="97" x2="426" y1="320.9883" y2="320.9883"/><text fill="#000000" font-family="sans-serif" font-size="13" font-weight="bold" lengthAdjust="spacing" textLength="7" x="109" y="315.7256">5</text><text fill="#000000" font-family="sans-serif" font-size="13" lengthAdjust="spacing" textLength="254" x="120" y="315.7256">shows error message (Order does not exist)</text><line style="stroke:#181818;stroke-width:1.0;" x1="427" x2="469" y1="359.2793" y2="359.2793"/><line style="stroke:#181818;stroke-width:1.0;" x1="469" x2="469" y1="359.2793" y2="372.2793"/><line style="stroke:#181818;stroke-width:1.0;" x1="428" x2="469" y1="372.2793" y2="372.2793"/><polygon fill="#181818" points="438,368.2793,428,372.2793,438,376.2793,434,372.2793" style="stroke:#181818;stroke-width:1.0;"/><text fill="#000000" font-family="sans-serif" font-size="13" font-weight="bold" lengthAdjust="spacing" textLength="7" x="434" y="354.0166">6</text><text fill="#000000" font-family="sans-serif" font-size="13" lengthAdjust="spacing" textLength="271" x="445" y="354.0166">get production tree and check stock availability</text><path d="M10,387.2793 L71,387.2793 L71,396.5703 L61,406.5703 L10,406.5703 L10,387.2793 " fill="#EEEEEE" style="stroke:#000000;stroke-width:1.5;"/><rect fill="none" height="98.5039" style="stroke:#000000;stroke-width:1.5;" width="459" x="10" y="387.2793"/><text fill="#000000" font-family="sans-serif" font-size="13" font-weight="bold" lengthAdjust="spacing" textLength="16" x="25" y="402.3076">alt</text><text fill="#000000" font-family="sans-serif" font-size="11" font-weight="bold" lengthAdjust="spacing" textLength="104" x="86" y="401.1494">[insufficient stock]</text><polygon fill="#181818" points="103,425.8613,93,429.8613,103,433.8613,99,429.8613" style="stroke:#181818;stroke-width:1.0;"/><line style="stroke:#181818;stroke-width:1.0;stroke-dasharray:2.0,2.0;" x1="97" x2="426" y1="429.8613" y2="429.8613"/><text fill="#000000" font-family="sans-serif" font-size="13" font-weight="bold" lengthAdjust="spacing" textLength="7" x="109" y="424.5986">7</text><text fill="#000000" font-family="sans-serif" font-size="13" lengthAdjust="spacing" textLength="196" x="120" y="424.5986">insufficient stock for raw materials</text><line style="stroke:#000000;stroke-width:1.0;stroke-dasharray:2.0,2.0;" x1="10" x2="469" y1="438.8613" y2="438.8613"/><text fill="#000000" font-family="sans-serif" font-size="11" font-weight="bold" lengthAdjust="spacing" textLength="94" x="15" y="450.7314">[sufficient stock]</text><polygon fill="#181818" points="103,473.7832,93,477.7832,103,481.7832,99,477.7832" style="stroke:#181818;stroke-width:1.0;"/><line style="stroke:#181818;stroke-width:1.0;stroke-dasharray:2.0,2.0;" x1="97" x2="426" y1="477.7832" y2="477.7832"/><text fill="#000000" font-family="sans-serif" font-size="13" font-weight="bold" lengthAdjust="spacing" textLength="7" x="109" y="472.5205">8</text><text fill="#000000" font-family="sans-serif" font-size="13" lengthAdjust="spacing" textLength="140" x="120" y="472.5205">confirms sufficient stock</text><!--SRC=[bPEnRi9038RtF8N510Cy04CdbWweI7a2S-S4Y-GkFJjGthvE29IKjb5lY4wo_Vd_VOuSEJIOi8OwXkWEATO4cbhAv1vfq1snf5ml5K4YfnZAwZ513kZZcKC91LP2MQQibffVHAc6dDvR2evWmrXswVCytooo35kDeQttbEpkD2QOxLBqhLEE0ROOh6UQ0GhijfarKdRSO52OhQ_aFdQzzWG-eLANd86TtHQMBpSDQqiz2cW4To1t1D5ety9w8iJaJK9NScVSe32SWR8qe67NPZYUeM9HYCMrNW23j-6OLL41ZuemvnMjuAqBmwivxaYUVcpoJQnU6f8RZVo06vCcnJxmUjC2F8W5-Z3jSg_eSPKEGH-jTuXwpHeb_JOB0Kh9XbcJYBtQJUgOj1YXdWVn6ANW_pHKaaBpjIoQYFe7U7nTF25NkEUAzP8zUUKWRL7OIf5jL5ymwVIvfD-WX6UepKTYM_udo8HF-rtWtq9S30MdMgOhfwVy2G00]--></g></svg>