<?xml version="1.0" encoding="us-ascii" standalone="no"?><svg xmlns="http://www.w3.org/2000/svg" xmlns:xlink="http://www.w3.org/1999/xlink" contentStyleType="text/css" height="814.8px" preserveAspectRatio="none" style="width:911px;height:814px;background:#FFFFFF;" version="1.1" viewBox="0 0 911 814" width="911.4px" zoomAndPan="magnify"><defs/><g><!--cluster UI--><g id="cluster_UI"><rect fill="none" height="70.7" rx="1.75" ry="1.75" style="stroke:#000000;stroke-width:1.0499999999999998;" width="127.4" x="553" y="4.9"/><text fill="#000000" font-family="sans-serif" font-size="9.8" font-weight="bold" lengthAdjust="spacing" textLength="9.8" x="611.8" y="16.8752">UI</text></g><!--cluster Controller--><g id="cluster_Controller"><rect fill="none" height="96.6" rx="1.75" ry="1.75" style="stroke:#000000;stroke-width:1.0499999999999998;" width="329" x="452.2" y="98.7"/><text fill="#000000" font-family="sans-serif" font-size="9.8" font-weight="bold" lengthAdjust="spacing" textLength="49.7" x="591.85" y="110.6752">Controller</text></g><!--cluster Service--><g id="cluster_Service"><rect fill="none" height="96.6" rx="1.75" ry="1.75" style="stroke:#000000;stroke-width:1.0499999999999998;" width="329" x="270.9" y="237.65"/><text fill="#000000" font-family="sans-serif" font-size="9.8" font-weight="bold" lengthAdjust="spacing" textLength="37.8" x="416.5" y="249.6252">Service</text></g><!--cluster Repository--><g id="cluster_Repository"><rect fill="none" height="254.1" rx="1.75" ry="1.75" style="stroke:#000000;stroke-width:1.0499999999999998;" width="289.1" x="616.7" y="231"/><text fill="#000000" font-family="sans-serif" font-size="9.8" font-weight="bold" lengthAdjust="spacing" textLength="53.2" x="734.65" y="242.9752">Repository</text></g><!--cluster Model--><g id="cluster_Model"><rect fill="none" height="289.8" rx="1.75" ry="1.75" style="stroke:#000000;stroke-width:1.0499999999999998;" width="250.6" x="442.4" y="520.8"/><text fill="#000000" font-family="sans-serif" font-size="9.8" font-weight="bold" lengthAdjust="spacing" textLength="30.8" x="552.3" y="532.7752">Model</text></g><!--cluster Exception--><g id="cluster_Exception"><rect fill="none" height="268.45" rx="1.75" ry="1.75" style="stroke:#000000;stroke-width:1.0499999999999998;" width="268.8" x="4.9" y="375.2"/><text fill="#000000" font-family="sans-serif" font-size="9.8" font-weight="bold" lengthAdjust="spacing" textLength="49" x="114.8" y="387.1752">Exception</text></g><!--cluster Commom--><g id="cluster_Commom"><rect fill="none" height="96.6" rx="1.75" ry="1.75" style="stroke:#000000;stroke-width:1.0499999999999998;" width="242.2" x="357.7" y="381.85"/><text fill="#000000" font-family="sans-serif" font-size="9.8" font-weight="bold" lengthAdjust="spacing" textLength="44.8" x="456.4" y="393.8252">Commom</text></g><!--class RegisterSupplierUI--><g id="elem_RegisterSupplierUI"><rect codeLine="7" fill="#F1F1F1" height="33.6" id="RegisterSupplierUI" rx="1.75" ry="1.75" style="stroke:#181818;stroke-width:0.3499999999999999;" width="104.3" x="564.55" y="30.8"/><ellipse cx="575.05" cy="42" fill="#ADD1B2" rx="7.7" ry="7.7" style="stroke:#181818;stroke-width:0.6999999999999998;"/><path d="M576.9859,39.1125 Q577.0953,38.9594 577.2266,38.8828 Q577.3578,38.8062 577.5109,38.8062 Q577.7734,38.8062 577.9375,38.9922 Q578.1016,39.1672 578.1016,39.5937 L578.1016,40.6109 Q578.1016,41.0375 577.9375,41.2234 Q577.7734,41.4094 577.5109,41.4094 Q577.2703,41.4094 577.1281,41.2672 Q576.9859,41.1359 576.9094,40.775 Q576.8766,40.5234 576.7453,40.3922 Q576.5156,40.1297 576.0891,39.9766 Q575.6625,39.8234 575.225,39.8234 Q574.6891,39.8234 574.2406,40.0531 Q573.8031,40.2828 573.4531,40.8078 Q573.1141,41.3328 573.1141,42.0547 L573.1141,42.8203 Q573.1141,43.6844 573.7375,44.2641 Q574.3609,44.8328 575.4766,44.8328 Q576.1328,44.8328 576.5922,44.6578 Q576.8656,44.5484 577.1609,44.2422 Q577.3469,44.0562 577.4453,44.0016 Q577.5547,43.9469 577.6969,43.9469 Q577.9266,43.9469 578.1016,44.1328 Q578.2875,44.3078 578.2875,44.5484 Q578.2875,44.7891 578.0469,45.0734 Q577.6969,45.4781 577.1391,45.7078 Q576.3844,46.025 575.4766,46.025 Q574.4156,46.025 573.5734,45.5875 Q572.8844,45.2375 572.4031,44.4937 Q571.9219,43.7391 571.9219,42.8422 L571.9219,42.0328 Q571.9219,41.1031 572.3484,40.3047 Q572.7859,39.4953 573.5516,39.0687 Q574.3172,38.6312 575.1812,38.6312 Q575.6953,38.6312 576.1437,38.7516 Q576.6031,38.8609 576.9859,39.1125 Z " fill="#000000"/><text fill="#000000" font-family="sans-serif" font-size="9.8" lengthAdjust="spacing" textLength="81.9" x="584.85" y="46.0578">RegisterSupplierUI</text><line style="stroke:#181818;stroke-width:0.3499999999999999;" x1="565.25" x2="668.15" y1="53.2" y2="53.2"/><line style="stroke:#181818;stroke-width:0.3499999999999999;" x1="565.25" x2="668.15" y1="58.8" y2="58.8"/></g><!--class SupplierController--><g id="elem_SupplierController"><rect codeLine="12" fill="#F1F1F1" height="59.6695" id="SupplierController" rx="1.75" ry="1.75" style="stroke:#181818;stroke-width:0.3499999999999999;" width="306.6" x="463.4" y="124.6"/><ellipse cx="573.825" cy="135.8" fill="#ADD1B2" rx="7.7" ry="7.7" style="stroke:#181818;stroke-width:0.6999999999999998;"/><path d="M575.7609,132.9125 Q575.8703,132.7594 576.0016,132.6828 Q576.1328,132.6062 576.2859,132.6062 Q576.5484,132.6062 576.7125,132.7922 Q576.8766,132.9672 576.8766,133.3937 L576.8766,134.4109 Q576.8766,134.8375 576.7125,135.0234 Q576.5484,135.2094 576.2859,135.2094 Q576.0453,135.2094 575.9031,135.0672 Q575.7609,134.9359 575.6844,134.575 Q575.6516,134.3234 575.5203,134.1922 Q575.2906,133.9297 574.8641,133.7766 Q574.4375,133.6234 574,133.6234 Q573.4641,133.6234 573.0156,133.8531 Q572.5781,134.0828 572.2281,134.6078 Q571.8891,135.1328 571.8891,135.8547 L571.8891,136.6203 Q571.8891,137.4844 572.5125,138.0641 Q573.1359,138.6328 574.2516,138.6328 Q574.9078,138.6328 575.3672,138.4578 Q575.6406,138.3484 575.9359,138.0422 Q576.1219,137.8562 576.2203,137.8016 Q576.3297,137.7469 576.4719,137.7469 Q576.7016,137.7469 576.8766,137.9328 Q577.0625,138.1078 577.0625,138.3484 Q577.0625,138.5891 576.8219,138.8734 Q576.4719,139.2781 575.9141,139.5078 Q575.1594,139.825 574.2516,139.825 Q573.1906,139.825 572.3484,139.3875 Q571.6594,139.0375 571.1781,138.2937 Q570.6969,137.5391 570.6969,136.6422 L570.6969,135.8328 Q570.6969,134.9031 571.1234,134.1047 Q571.5609,133.2953 572.3266,132.8687 Q573.0922,132.4312 573.9562,132.4312 Q574.4703,132.4312 574.9187,132.5516 Q575.3781,132.6609 575.7609,132.9125 Z " fill="#000000"/><text fill="#000000" font-family="sans-serif" font-size="9.8" lengthAdjust="spacing" textLength="79.8" x="588.175" y="139.8578">SupplierController</text><line style="stroke:#181818;stroke-width:0.3499999999999999;" x1="464.1" x2="769.3" y1="147" y2="147"/><line style="stroke:#181818;stroke-width:0.3499999999999999;" x1="464.1" x2="769.3" y1="152.6" y2="152.6"/><text fill="#000000" font-family="sans-serif" font-size="9.8" lengthAdjust="spacing" textLength="139.3" x="467.6" y="165.9752">+getSuppliers() : List&lt;Supplier&gt;</text><text fill="#000000" font-family="sans-serif" font-size="9.8" lengthAdjust="spacing" textLength="298.2" x="467.6" y="179.01">+registerSupplier(supplierID, name, phoneNumber, email) : Supplier</text></g><!--class SupplierService--><g id="elem_SupplierService"><rect codeLine="19" fill="#F1F1F1" height="59.6695" id="SupplierService" rx="1.75" ry="1.75" style="stroke:#181818;stroke-width:0.3499999999999999;" width="306.6" x="282.1" y="263.55"/><ellipse cx="397.775" cy="274.75" fill="#ADD1B2" rx="7.7" ry="7.7" style="stroke:#181818;stroke-width:0.6999999999999998;"/><path d="M399.7109,271.8625 Q399.8203,271.7094 399.9516,271.6328 Q400.0828,271.5562 400.2359,271.5562 Q400.4984,271.5562 400.6625,271.7422 Q400.8266,271.9172 400.8266,272.3437 L400.8266,273.3609 Q400.8266,273.7875 400.6625,273.9734 Q400.4984,274.1594 400.2359,274.1594 Q399.9953,274.1594 399.8531,274.0172 Q399.7109,273.8859 399.6344,273.525 Q399.6016,273.2734 399.4703,273.1422 Q399.2406,272.8797 398.8141,272.7266 Q398.3875,272.5734 397.95,272.5734 Q397.4141,272.5734 396.9656,272.8031 Q396.5281,273.0328 396.1781,273.5578 Q395.8391,274.0828 395.8391,274.8047 L395.8391,275.5703 Q395.8391,276.4344 396.4625,277.0141 Q397.0859,277.5828 398.2016,277.5828 Q398.8578,277.5828 399.3172,277.4078 Q399.5906,277.2984 399.8859,276.9922 Q400.0719,276.8062 400.1703,276.7516 Q400.2797,276.6969 400.4219,276.6969 Q400.6516,276.6969 400.8266,276.8828 Q401.0125,277.0578 401.0125,277.2984 Q401.0125,277.5391 400.7719,277.8234 Q400.4219,278.2281 399.8641,278.4578 Q399.1094,278.775 398.2016,278.775 Q397.1406,278.775 396.2984,278.3375 Q395.6094,277.9875 395.1281,277.2437 Q394.6469,276.4891 394.6469,275.5922 L394.6469,274.7828 Q394.6469,273.8531 395.0734,273.0547 Q395.5109,272.2453 396.2766,271.8187 Q397.0422,271.3812 397.9062,271.3812 Q398.4203,271.3812 398.8687,271.5016 Q399.3281,271.6109 399.7109,271.8625 Z " fill="#000000"/><text fill="#000000" font-family="sans-serif" font-size="9.8" lengthAdjust="spacing" textLength="69.3" x="412.125" y="278.8078">SupplierService</text><line style="stroke:#181818;stroke-width:0.3499999999999999;" x1="282.8" x2="588" y1="285.95" y2="285.95"/><line style="stroke:#181818;stroke-width:0.3499999999999999;" x1="282.8" x2="588" y1="291.55" y2="291.55"/><text fill="#000000" font-family="sans-serif" font-size="9.8" lengthAdjust="spacing" textLength="139.3" x="286.3" y="304.9252">+getSuppliers() : List&lt;Supplier&gt;</text><text fill="#000000" font-family="sans-serif" font-size="9.8" lengthAdjust="spacing" textLength="298.2" x="286.3" y="317.96">+registerSupplier(supplierID, name, phoneNumber, email) : Supplier</text></g><!--class Repositories--><g id="elem_Repositories"><rect codeLine="26" fill="#F1F1F1" height="72.7043" id="Repositories" rx="1.75" ry="1.75" style="stroke:#181818;stroke-width:0.3499999999999999;" width="211.4" x="627.9" y="256.9"/><ellipse cx="702.975" cy="268.1" fill="#ADD1B2" rx="7.7" ry="7.7" style="stroke:#181818;stroke-width:0.6999999999999998;"/><path d="M704.9109,265.2125 Q705.0203,265.0594 705.1516,264.9828 Q705.2828,264.9062 705.4359,264.9062 Q705.6984,264.9062 705.8625,265.0922 Q706.0266,265.2672 706.0266,265.6937 L706.0266,266.7109 Q706.0266,267.1375 705.8625,267.3234 Q705.6984,267.5094 705.4359,267.5094 Q705.1953,267.5094 705.0531,267.3672 Q704.9109,267.2359 704.8344,266.875 Q704.8016,266.6234 704.6703,266.4922 Q704.4406,266.2297 704.0141,266.0766 Q703.5875,265.9234 703.15,265.9234 Q702.6141,265.9234 702.1656,266.1531 Q701.7281,266.3828 701.3781,266.9078 Q701.0391,267.4328 701.0391,268.1547 L701.0391,268.9203 Q701.0391,269.7844 701.6625,270.3641 Q702.2859,270.9328 703.4016,270.9328 Q704.0578,270.9328 704.5172,270.7578 Q704.7906,270.6484 705.0859,270.3422 Q705.2719,270.1562 705.3703,270.1016 Q705.4797,270.0469 705.6219,270.0469 Q705.8516,270.0469 706.0266,270.2328 Q706.2125,270.4078 706.2125,270.6484 Q706.2125,270.8891 705.9719,271.1734 Q705.6219,271.5781 705.0641,271.8078 Q704.3094,272.125 703.4016,272.125 Q702.3406,272.125 701.4984,271.6875 Q700.8094,271.3375 700.3281,270.5937 Q699.8469,269.8391 699.8469,268.9422 L699.8469,268.1328 Q699.8469,267.2031 700.2734,266.4047 Q700.7109,265.5953 701.4766,265.1687 Q702.2422,264.7312 703.1062,264.7312 Q703.6203,264.7312 704.0687,264.8516 Q704.5281,264.9609 704.9109,265.2125 Z " fill="#000000"/><text fill="#000000" font-family="sans-serif" font-size="9.8" lengthAdjust="spacing" textLength="55.3" x="717.325" y="272.1578">Repositories</text><line style="stroke:#181818;stroke-width:0.3499999999999999;" x1="628.6" x2="838.6" y1="279.3" y2="279.3"/><line style="stroke:#181818;stroke-width:0.3499999999999999;" x1="628.6" x2="838.6" y1="284.9" y2="284.9"/><text fill="#000000" font-family="sans-serif" font-size="9.8" lengthAdjust="spacing" textLength="65.8" x="632.1" y="298.2752">-Repositories()</text><text fill="#000000" font-family="sans-serif" font-size="9.8" lengthAdjust="spacing" textLength="127.4" x="632.1" y="311.31">+getInstance() : Repositories</text><text fill="#000000" font-family="sans-serif" font-size="9.8" lengthAdjust="spacing" textLength="203" x="632.1" y="324.3447">+getSupplierRepository() : SupplierRepository</text></g><!--class SupplierRepository--><g id="elem_SupplierRepository"><rect codeLine="32" fill="#F1F1F1" height="72.7043" id="SupplierRepository" rx="1.75" ry="1.75" style="stroke:#181818;stroke-width:0.3499999999999999;" width="184.8" x="627.9" y="401.1"/><ellipse cx="675.325" cy="412.3" fill="#ADD1B2" rx="7.7" ry="7.7" style="stroke:#181818;stroke-width:0.6999999999999998;"/><path d="M677.2609,409.4125 Q677.3703,409.2594 677.5016,409.1828 Q677.6328,409.1062 677.7859,409.1062 Q678.0484,409.1062 678.2125,409.2922 Q678.3766,409.4672 678.3766,409.8937 L678.3766,410.9109 Q678.3766,411.3375 678.2125,411.5234 Q678.0484,411.7094 677.7859,411.7094 Q677.5453,411.7094 677.4031,411.5672 Q677.2609,411.4359 677.1844,411.075 Q677.1516,410.8234 677.0203,410.6922 Q676.7906,410.4297 676.3641,410.2766 Q675.9375,410.1234 675.5,410.1234 Q674.9641,410.1234 674.5156,410.3531 Q674.0781,410.5828 673.7281,411.1078 Q673.3891,411.6328 673.3891,412.3547 L673.3891,413.1203 Q673.3891,413.9844 674.0125,414.5641 Q674.6359,415.1328 675.7516,415.1328 Q676.4078,415.1328 676.8672,414.9578 Q677.1406,414.8484 677.4359,414.5422 Q677.6219,414.3562 677.7203,414.3016 Q677.8297,414.2469 677.9719,414.2469 Q678.2016,414.2469 678.3766,414.4328 Q678.5625,414.6078 678.5625,414.8484 Q678.5625,415.0891 678.3219,415.3734 Q677.9719,415.7781 677.4141,416.0078 Q676.6594,416.325 675.7516,416.325 Q674.6906,416.325 673.8484,415.8875 Q673.1594,415.5375 672.6781,414.7937 Q672.1969,414.0391 672.1969,413.1422 L672.1969,412.3328 Q672.1969,411.4031 672.6234,410.6047 Q673.0609,409.7953 673.8266,409.3687 Q674.5922,408.9312 675.4562,408.9312 Q675.9703,408.9312 676.4187,409.0516 Q676.8781,409.1609 677.2609,409.4125 Z " fill="#000000"/><text fill="#000000" font-family="sans-serif" font-size="9.8" lengthAdjust="spacing" textLength="84" x="689.675" y="416.3578">SupplierRepository</text><line style="stroke:#181818;stroke-width:0.3499999999999999;" x1="628.6" x2="812" y1="423.5" y2="423.5"/><line style="stroke:#181818;stroke-width:0.3499999999999999;" x1="628.6" x2="812" y1="429.1" y2="429.1"/><text fill="#000000" font-family="sans-serif" font-size="9.8" lengthAdjust="spacing" textLength="108.5" x="632.1" y="442.4752">+getAll() : List&lt;Supplier&gt;</text><text fill="#000000" font-family="sans-serif" font-size="9.8" lengthAdjust="spacing" textLength="176.4" x="632.1" y="455.51">+getSupplierExists(supplierID) : boolean</text><text fill="#000000" font-family="sans-serif" font-size="9.8" lengthAdjust="spacing" textLength="112.7" x="632.1" y="468.5447">+save(supplier) : boolean</text></g><!--class Supplier--><g id="elem_Supplier"><rect codeLine="40" fill="#F1F1F1" height="137.8781" id="Supplier" rx="1.75" ry="1.75" style="stroke:#181818;stroke-width:0.3499999999999999;" width="228.2" x="453.6" y="546.7"/><ellipse cx="546.525" cy="557.9" fill="#ADD1B2" rx="7.7" ry="7.7" style="stroke:#181818;stroke-width:0.6999999999999998;"/><path d="M548.4609,555.0125 Q548.5703,554.8594 548.7016,554.7828 Q548.8328,554.7062 548.9859,554.7062 Q549.2484,554.7062 549.4125,554.8922 Q549.5766,555.0672 549.5766,555.4937 L549.5766,556.5109 Q549.5766,556.9375 549.4125,557.1234 Q549.2484,557.3094 548.9859,557.3094 Q548.7453,557.3094 548.6031,557.1672 Q548.4609,557.0359 548.3844,556.675 Q548.3516,556.4234 548.2203,556.2922 Q547.9906,556.0297 547.5641,555.8766 Q547.1375,555.7234 546.7,555.7234 Q546.1641,555.7234 545.7156,555.9531 Q545.2781,556.1828 544.9281,556.7078 Q544.5891,557.2328 544.5891,557.9547 L544.5891,558.7203 Q544.5891,559.5844 545.2125,560.1641 Q545.8359,560.7328 546.9516,560.7328 Q547.6078,560.7328 548.0672,560.5578 Q548.3406,560.4484 548.6359,560.1422 Q548.8219,559.9562 548.9203,559.9016 Q549.0297,559.8469 549.1719,559.8469 Q549.4016,559.8469 549.5766,560.0328 Q549.7625,560.2078 549.7625,560.4484 Q549.7625,560.6891 549.5219,560.9734 Q549.1719,561.3781 548.6141,561.6078 Q547.8594,561.925 546.9516,561.925 Q545.8906,561.925 545.0484,561.4875 Q544.3594,561.1375 543.8781,560.3937 Q543.3969,559.6391 543.3969,558.7422 L543.3969,557.9328 Q543.3969,557.0031 543.8234,556.2047 Q544.2609,555.3953 545.0266,554.9687 Q545.7922,554.5312 546.6562,554.5312 Q547.1703,554.5312 547.6187,554.6516 Q548.0781,554.7609 548.4609,555.0125 Z " fill="#000000"/><text fill="#000000" font-family="sans-serif" font-size="9.8" lengthAdjust="spacing" textLength="36.4" x="560.875" y="561.9578">Supplier</text><line style="stroke:#181818;stroke-width:0.3499999999999999;" x1="454.3" x2="681.1" y1="569.1" y2="569.1"/><text fill="#000000" font-family="sans-serif" font-size="9.8" lengthAdjust="spacing" textLength="66.5" x="457.8" y="582.4752">-supplierID : int</text><text fill="#000000" font-family="sans-serif" font-size="9.8" lengthAdjust="spacing" textLength="62.3" x="457.8" y="595.51">-name : String</text><text fill="#000000" font-family="sans-serif" font-size="9.8" lengthAdjust="spacing" textLength="84.7" x="457.8" y="608.5447">-phoneNumber : int</text><text fill="#000000" font-family="sans-serif" font-size="9.8" lengthAdjust="spacing" textLength="60.9" x="457.8" y="621.5795">-email : String</text><text fill="#000000" font-family="sans-serif" font-size="9.8" lengthAdjust="spacing" textLength="95.2" x="457.8" y="634.6143">-type : CompanyType</text><text fill="#000000" font-family="sans-serif" font-size="9.8" lengthAdjust="spacing" textLength="81.2" x="457.8" y="647.649">-state : EntityState</text><text fill="#000000" font-family="sans-serif" font-size="9.8" lengthAdjust="spacing" textLength="147" x="457.8" y="660.6838">-supplyOffers : List&lt;SupplyOffer&gt;</text><line style="stroke:#181818;stroke-width:0.3499999999999999;" x1="454.3" x2="681.1" y1="665.9434" y2="665.9434"/><text fill="#000000" font-family="sans-serif" font-size="9.8" lengthAdjust="spacing" textLength="219.8" x="457.8" y="679.3186">+Supplier(supplierID, name, phoneNumber, email)</text></g><!--class EntityState--><g id="elem_EntityState"><rect codeLine="51" fill="#F1F1F1" height="59.6695" id="EntityState" rx="1.75" ry="1.75" style="stroke:#181818;stroke-width:0.3499999999999999;" width="70" x="532.7" y="739.9"/><ellipse cx="543.2" cy="751.1" fill="#EB937F" rx="7.7" ry="7.7" style="stroke:#181818;stroke-width:0.6999999999999998;"/><path d="M542.4016,751.6578 L542.4016,753.4078 L545.4312,753.4078 L545.4312,752.7625 Q545.4312,752.3359 545.5953,752.15 Q545.7703,751.9641 546.0328,751.9641 Q546.2953,751.9641 546.4594,752.15 Q546.6234,752.3359 546.6234,752.7625 L546.6234,754.6 L541.0234,754.6 Q540.5859,754.6 540.4,754.4359 Q540.225,754.2719 540.225,753.9984 Q540.225,753.7359 540.4109,753.5719 Q540.5969,753.4078 541.0234,753.4078 L541.2094,753.4078 L541.2094,748.7484 L541.0234,748.7484 Q540.5859,748.7484 540.4,748.5844 Q540.225,748.4203 540.225,748.1469 Q540.225,747.8844 540.4,747.7203 Q540.5859,747.5562 541.0234,747.5562 L546.3609,747.5562 L546.3609,749.3719 Q546.3609,749.7984 546.1969,749.9844 Q546.0437,750.1594 545.7703,750.1594 Q545.5078,750.1594 545.3437,749.9844 Q545.1797,749.7984 545.1797,749.3719 L545.1797,748.7484 L542.4016,748.7484 L542.4016,750.4656 L543.4406,750.4656 Q543.4406,750.0062 543.5281,749.875 Q543.7141,749.5906 544.0422,749.5906 Q544.3047,749.5906 544.4687,749.7766 Q544.6328,749.9516 544.6328,750.3781 L544.6328,751.7562 Q544.6328,752.1391 544.5453,752.2703 Q544.3594,752.5437 544.0422,752.5437 Q543.7141,752.5437 543.5281,752.2594 Q543.4406,752.1281 543.4406,751.6578 L542.4016,751.6578 Z " fill="#000000"/><text fill="#000000" font-family="sans-serif" font-size="9.8" lengthAdjust="spacing" textLength="47.6" x="553" y="755.1578">EntityState</text><line style="stroke:#181818;stroke-width:0.3499999999999999;" x1="533.4" x2="602" y1="762.3" y2="762.3"/><text fill="#000000" font-family="sans-serif" font-size="9.8" lengthAdjust="spacing" textLength="34.3" x="536.9" y="775.6752">ACTIVE</text><text fill="#000000" font-family="sans-serif" font-size="9.8" lengthAdjust="spacing" textLength="42.7" x="536.9" y="788.71">INACTIVE</text><line style="stroke:#181818;stroke-width:0.3499999999999999;" x1="533.4" x2="602" y1="793.9695" y2="793.9695"/></g><!--class SupplierException--><g id="elem_SupplierException"><rect codeLine="58" fill="#F1F1F1" height="72.7043" id="SupplierException" rx="1.75" ry="1.75" style="stroke:#181818;stroke-width:0.3499999999999999;" width="246.4" x="16.1" y="401.1"/><ellipse cx="96.775" cy="412.3" fill="#ADD1B2" rx="7.7" ry="7.7" style="stroke:#181818;stroke-width:0.6999999999999998;"/><path d="M98.7109,409.4125 Q98.8203,409.2594 98.9516,409.1828 Q99.0828,409.1062 99.2359,409.1062 Q99.4984,409.1062 99.6625,409.2922 Q99.8266,409.4672 99.8266,409.8937 L99.8266,410.9109 Q99.8266,411.3375 99.6625,411.5234 Q99.4984,411.7094 99.2359,411.7094 Q98.9953,411.7094 98.8531,411.5672 Q98.7109,411.4359 98.6344,411.075 Q98.6016,410.8234 98.4703,410.6922 Q98.2406,410.4297 97.8141,410.2766 Q97.3875,410.1234 96.95,410.1234 Q96.4141,410.1234 95.9656,410.3531 Q95.5281,410.5828 95.1781,411.1078 Q94.8391,411.6328 94.8391,412.3547 L94.8391,413.1203 Q94.8391,413.9844 95.4625,414.5641 Q96.0859,415.1328 97.2016,415.1328 Q97.8578,415.1328 98.3172,414.9578 Q98.5906,414.8484 98.8859,414.5422 Q99.0719,414.3562 99.1703,414.3016 Q99.2797,414.2469 99.4219,414.2469 Q99.6516,414.2469 99.8266,414.4328 Q100.0125,414.6078 100.0125,414.8484 Q100.0125,415.0891 99.7719,415.3734 Q99.4219,415.7781 98.8641,416.0078 Q98.1094,416.325 97.2016,416.325 Q96.1406,416.325 95.2984,415.8875 Q94.6094,415.5375 94.1281,414.7937 Q93.6469,414.0391 93.6469,413.1422 L93.6469,412.3328 Q93.6469,411.4031 94.0734,410.6047 Q94.5109,409.7953 95.2766,409.3687 Q96.0422,408.9312 96.9062,408.9312 Q97.4203,408.9312 97.8687,409.0516 Q98.3281,409.1609 98.7109,409.4125 Z " fill="#000000"/><text fill="#000000" font-family="sans-serif" font-size="9.8" lengthAdjust="spacing" textLength="79.1" x="111.125" y="416.3578">SupplierException</text><line style="stroke:#181818;stroke-width:0.3499999999999999;" x1="16.8" x2="261.8" y1="423.5" y2="423.5"/><line style="stroke:#181818;stroke-width:0.3499999999999999;" x1="16.8" x2="261.8" y1="429.1" y2="429.1"/><text fill="#000000" font-family="sans-serif" font-size="9.8" lengthAdjust="spacing" textLength="238" x="20.3" y="442.4752">+supplierAlreadyExists(supplierID) : SupplierException</text><text fill="#000000" font-family="sans-serif" font-size="9.8" lengthAdjust="spacing" textLength="191.1" x="20.3" y="455.51">+invalidPhoneNumber() : SupplierException</text><text fill="#000000" font-family="sans-serif" font-size="9.8" lengthAdjust="spacing" textLength="183.4" x="20.3" y="468.5447">+invalidEmailFormat() : SupplierException</text></g><!--class RuntimeException--><g id="elem_RuntimeException"><rect codeLine="64" fill="#F1F1F1" height="33.6" id="RuntimeException" rx="1.75" ry="1.75" style="stroke:#181818;stroke-width:0.3499999999999999;" width="101.5" x="88.55" y="598.85"/><ellipse cx="99.05" cy="610.05" fill="#ADD1B2" rx="7.7" ry="7.7" style="stroke:#181818;stroke-width:0.6999999999999998;"/><path d="M100.9859,607.1625 Q101.0953,607.0094 101.2266,606.9328 Q101.3578,606.8562 101.5109,606.8562 Q101.7734,606.8562 101.9375,607.0422 Q102.1016,607.2172 102.1016,607.6437 L102.1016,608.6609 Q102.1016,609.0875 101.9375,609.2734 Q101.7734,609.4594 101.5109,609.4594 Q101.2703,609.4594 101.1281,609.3172 Q100.9859,609.1859 100.9094,608.825 Q100.8766,608.5734 100.7453,608.4422 Q100.5156,608.1797 100.0891,608.0266 Q99.6625,607.8734 99.225,607.8734 Q98.6891,607.8734 98.2406,608.1031 Q97.8031,608.3328 97.4531,608.8578 Q97.1141,609.3828 97.1141,610.1047 L97.1141,610.8703 Q97.1141,611.7344 97.7375,612.3141 Q98.3609,612.8828 99.4766,612.8828 Q100.1328,612.8828 100.5922,612.7078 Q100.8656,612.5984 101.1609,612.2922 Q101.3469,612.1062 101.4453,612.0516 Q101.5547,611.9969 101.6969,611.9969 Q101.9266,611.9969 102.1016,612.1828 Q102.2875,612.3578 102.2875,612.5984 Q102.2875,612.8391 102.0469,613.1234 Q101.6969,613.5281 101.1391,613.7578 Q100.3844,614.075 99.4766,614.075 Q98.4156,614.075 97.5734,613.6375 Q96.8844,613.2875 96.4031,612.5437 Q95.9219,611.7891 95.9219,610.8922 L95.9219,610.0828 Q95.9219,609.1531 96.3484,608.3547 Q96.7859,607.5453 97.5516,607.1187 Q98.3172,606.6812 99.1812,606.6812 Q99.6953,606.6812 100.1437,606.8016 Q100.6031,606.9109 100.9859,607.1625 Z " fill="#000000"/><text fill="#000000" font-family="sans-serif" font-size="9.8" lengthAdjust="spacing" textLength="79.1" x="108.85" y="614.1078">RuntimeException</text><line style="stroke:#181818;stroke-width:0.3499999999999999;" x1="89.25" x2="189.35" y1="621.25" y2="621.25"/><line style="stroke:#181818;stroke-width:0.3499999999999999;" x1="89.25" x2="189.35" y1="626.85" y2="626.85"/></g><!--class Validator--><g id="elem_Validator"><rect codeLine="68" fill="#F1F1F1" height="59.6695" id="Validator" rx="1.75" ry="1.75" style="stroke:#181818;stroke-width:0.3499999999999999;" width="219.1" x="369.25" y="407.75"/><ellipse cx="456.225" cy="418.95" fill="#ADD1B2" rx="7.7" ry="7.7" style="stroke:#181818;stroke-width:0.6999999999999998;"/><path d="M458.1609,416.0625 Q458.2703,415.9094 458.4016,415.8328 Q458.5328,415.7562 458.6859,415.7562 Q458.9484,415.7562 459.1125,415.9422 Q459.2766,416.1172 459.2766,416.5437 L459.2766,417.5609 Q459.2766,417.9875 459.1125,418.1734 Q458.9484,418.3594 458.6859,418.3594 Q458.4453,418.3594 458.3031,418.2172 Q458.1609,418.0859 458.0844,417.725 Q458.0516,417.4734 457.9203,417.3422 Q457.6906,417.0797 457.2641,416.9266 Q456.8375,416.7734 456.4,416.7734 Q455.8641,416.7734 455.4156,417.0031 Q454.9781,417.2328 454.6281,417.7578 Q454.2891,418.2828 454.2891,419.0047 L454.2891,419.7703 Q454.2891,420.6344 454.9125,421.2141 Q455.5359,421.7828 456.6516,421.7828 Q457.3078,421.7828 457.7672,421.6078 Q458.0406,421.4984 458.3359,421.1922 Q458.5219,421.0062 458.6203,420.9516 Q458.7297,420.8969 458.8719,420.8969 Q459.1016,420.8969 459.2766,421.0828 Q459.4625,421.2578 459.4625,421.4984 Q459.4625,421.7391 459.2219,422.0234 Q458.8719,422.4281 458.3141,422.6578 Q457.5594,422.975 456.6516,422.975 Q455.5906,422.975 454.7484,422.5375 Q454.0594,422.1875 453.5781,421.4437 Q453.0969,420.6891 453.0969,419.7922 L453.0969,418.9828 Q453.0969,418.0531 453.5234,417.2547 Q453.9609,416.4453 454.7266,416.0187 Q455.4922,415.5812 456.3562,415.5812 Q456.8703,415.5812 457.3187,415.7016 Q457.7781,415.8109 458.1609,416.0625 Z " fill="#000000"/><text fill="#000000" font-family="sans-serif" font-size="9.8" lengthAdjust="spacing" textLength="39.2" x="470.575" y="423.0078">Validator</text><line style="stroke:#181818;stroke-width:0.3499999999999999;" x1="369.95" x2="587.65" y1="430.15" y2="430.15"/><line style="stroke:#181818;stroke-width:0.3499999999999999;" x1="369.95" x2="587.65" y1="435.75" y2="435.75"/><text fill="#000000" font-family="sans-serif" font-size="9.8" lengthAdjust="spacing" textLength="210.7" x="373.45" y="449.1252">+isValidPhoneNumber(phoneNumber) : boolean</text><text fill="#000000" font-family="sans-serif" font-size="9.8" lengthAdjust="spacing" textLength="132.3" x="373.45" y="462.16">+isValidEmail(email) : boolean</text></g><!--link RegisterSupplierUI to SupplierController--><g id="link_RegisterSupplierUI_SupplierController"><path codeLine="75" d="M616.7,64.533 C616.7,80.458 616.7,100.912 616.7,120.253 " fill="none" id="RegisterSupplierUI-to-SupplierController" style="stroke:#181818;stroke-width:0.6999999999999998;stroke-dasharray:7.0,7.0;"/><polygon fill="#181818" points="616.7,124.453,619.5,118.153,616.7,120.953,613.9,118.153,616.7,124.453" style="stroke:#181818;stroke-width:0.6999999999999998;"/></g><!--link SupplierController to SupplierService--><g id="link_SupplierController_SupplierService"><path codeLine="76" d="M578.249,184.219 C547.484,207.564 507.892,237.6034 477.141,260.9344 " fill="none" id="SupplierController-to-SupplierService" style="stroke:#181818;stroke-width:0.6999999999999998;stroke-dasharray:7.0,7.0;"/><polygon fill="#181818" points="473.795,263.473,480.5064,261.8957,476.5833,261.3575,477.1215,257.4344,473.795,263.473" style="stroke:#181818;stroke-width:0.6999999999999998;"/></g><!--link SupplierController to Repositories--><g id="link_SupplierController_Repositories"><path codeLine="77" d="M641.494,184.219 C659.519,205.436 681.3133,231.0755 700.5143,253.6715 " fill="none" id="SupplierController-to-Repositories" style="stroke:#181818;stroke-width:0.6999999999999998;stroke-dasharray:7.0,7.0;"/><polygon fill="#181818" points="703.234,256.872,701.2882,250.2581,700.9676,254.2049,697.0208,253.8843,703.234,256.872" style="stroke:#181818;stroke-width:0.6999999999999998;"/><text fill="#000000" font-family="sans-serif" font-size="9.1" lengthAdjust="spacing" textLength="46.9" x="672" y="217.0198">repositories</text></g><!--link SupplierService to SupplierRepository--><g id="link_SupplierService_SupplierRepository"><path codeLine="78" d="M498.764,323.12 C545.104,344.421 599.9,369.6 599.9,369.6 C599.9,369.6 623.7986,382.939 652.5546,398.99 " fill="none" id="SupplierService-to-SupplierRepository" style="stroke:#181818;stroke-width:0.6999999999999998;stroke-dasharray:7.0,7.0;"/><polygon fill="#181818" points="656.222,401.037,652.0856,395.5215,653.1659,399.3311,649.3562,400.4113,656.222,401.037" style="stroke:#181818;stroke-width:0.6999999999999998;"/><text fill="#000000" font-family="sans-serif" font-size="9.1" lengthAdjust="spacing" textLength="74.9" x="585.9" y="361.2198">supplierRepository</text></g><!--link SupplierService to Supplier--><g id="link_SupplierService_Supplier"><path codeLine="79" d="M392.637,323.232 C361.515,344.505 324.8,369.6 324.8,369.6 C324.8,369.6 324.8,490.7 324.8,490.7 C324.8,490.7 386.7489,522.3871 449.7979,554.6431 " fill="none" id="SupplierService-to-Supplier" style="stroke:#181818;stroke-width:0.6999999999999998;stroke-dasharray:7.0,7.0;"/><polygon fill="#181818" points="453.537,556.556,449.2037,551.1939,450.4211,554.9619,446.6531,556.1793,453.537,556.556" style="stroke:#181818;stroke-width:0.6999999999999998;"/><text fill="#000000" font-family="sans-serif" font-size="9.1" lengthAdjust="spacing" textLength="31.5" x="325.5" y="441.3698">supplier</text></g><!--link Repositories to Repositories--><g id="link_Repositories_Repositories"><path codeLine="80" d="M839.349,282.758 C854.007,284.494 863.8,288.008 863.8,293.3 C863.8,298.592 858.1779,301.612 843.5199,303.348 " fill="none" id="Repositories-to-Repositories" style="stroke:#181818;stroke-width:0.6999999999999998;"/><polygon fill="#181818" points="839.349,303.842,845.9346,305.8816,842.8247,303.4304,845.276,300.3205,839.349,303.842" style="stroke:#181818;stroke-width:0.6999999999999998;"/><text fill="#000000" font-family="sans-serif" font-size="9.1" lengthAdjust="spacing" textLength="34.3" x="868" y="297.1698">instance</text></g><!--link Repositories to SupplierRepository--><g id="link_Repositories_SupplierRepository"><path codeLine="81" d="M730.261,329.847 C728.238,351.582 726.0514,375.0221 724.0284,396.7501 " fill="none" id="Repositories-to-SupplierRepository" style="stroke:#181818;stroke-width:0.6999999999999998;"/><polygon fill="#181818" points="723.639,400.932,727.011,394.9187,723.9635,397.4471,721.4351,394.3996,723.639,400.932" style="stroke:#181818;stroke-width:0.6999999999999998;"/><text fill="#000000" font-family="sans-serif" font-size="9.1" lengthAdjust="spacing" textLength="74.9" x="728.7" y="361.2198">supplierRepository</text><text fill="#000000" font-family="sans-serif" font-size="9.1" lengthAdjust="spacing" textLength="4.9" x="724.6193" y="345.1309">1</text><text fill="#000000" font-family="sans-serif" font-size="9.1" lengthAdjust="spacing" textLength="4.9" x="718.8585" y="393.1586">1</text></g><!--link SupplierRepository to Supplier--><g id="link_SupplierRepository_Supplier"><path codeLine="82" d="M689.416,473.97 C671.391,494.851 650.7908,518.713 629.3708,543.521 " fill="none" id="SupplierRepository-to-Supplier" style="stroke:#181818;stroke-width:0.6999999999999998;"/><polygon fill="#181818" points="626.626,546.7,632.8626,543.7614,628.9134,544.0509,628.6239,540.1016,626.626,546.7" style="stroke:#181818;stroke-width:0.6999999999999998;"/><text fill="#000000" font-family="sans-serif" font-size="9.1" lengthAdjust="spacing" textLength="42" x="667.1" y="506.8198">categories</text><text fill="#000000" font-family="sans-serif" font-size="9.1" lengthAdjust="spacing" textLength="4.9" x="680.2451" y="489.2441">1</text><text fill="#000000" font-family="sans-serif" font-size="9.1" lengthAdjust="spacing" textLength="3.5" x="627.5035" y="538.8939">*</text></g><!--link Supplier to EntityState--><g id="link_Supplier_EntityState"><path codeLine="83" d="M567.7,684.614 C567.7,703.976 567.7,719.838 567.7,735.539 " fill="none" id="Supplier-to-EntityState" style="stroke:#181818;stroke-width:0.6999999999999998;"/><polygon fill="#181818" points="567.7,739.739,570.5,733.439,567.7,736.239,564.9,733.439,567.7,739.739" style="stroke:#181818;stroke-width:0.6999999999999998;"/><text fill="#000000" font-family="sans-serif" font-size="9.1" lengthAdjust="spacing" textLength="14.7" x="568.4" y="716.1198">has</text><text fill="#000000" font-family="sans-serif" font-size="9.1" lengthAdjust="spacing" textLength="3.5" x="564.0715" y="699.9436">*</text><text fill="#000000" font-family="sans-serif" font-size="9.1" lengthAdjust="spacing" textLength="4.9" x="562.4095" y="731.9462">1</text></g><!--link SupplierService to SupplierException--><g id="link_SupplierService_SupplierException"><path codeLine="84" d="M348.11,323.099 C306.341,337.022 265.3,350.7 265.3,350.7 C265.3,350.7 229.7286,375.0073 195.1066,398.6673 " fill="none" id="SupplierService-to-SupplierException" style="stroke:#181818;stroke-width:0.6999999999999998;stroke-dasharray:7.0,7.0;"/><polygon fill="#181818" points="191.639,401.037,198.4203,399.7942,194.5287,399.0622,195.2606,395.1707,191.639,401.037" style="stroke:#181818;stroke-width:0.6999999999999998;"/><text fill="#000000" font-family="sans-serif" font-size="9.1" lengthAdjust="spacing" textLength="26.6" x="266" y="361.2198">throws</text></g><!--link SupplierException to RuntimeException--><g id="link_SupplierException_RuntimeException"><path codeLine="85" d="M139.3,473.97 C139.3,511.994 139.3,557.858 139.3,586.047 " fill="none" id="SupplierException-to-RuntimeException" style="stroke:#181818;stroke-width:0.6999999999999998;"/><polygon fill="none" points="139.3,598.647,143.5,586.047,135.1,586.047,139.3,598.647" style="stroke:#181818;stroke-width:0.6999999999999998;"/></g><!--link SupplierService to Validator--><g id="link_SupplierService_Validator"><path codeLine="86" d="M444.29,323.239 C451.78,347.886 461.2202,378.9443 468.7032,403.5773 " fill="none" id="SupplierService-to-Validator" style="stroke:#181818;stroke-width:0.6999999999999998;stroke-dasharray:7.0,7.0;"/><polygon fill="#181818" points="469.924,407.596,470.7719,400.7541,468.9067,404.2471,465.4137,402.3819,469.924,407.596" style="stroke:#181818;stroke-width:0.6999999999999998;"/><text fill="#000000" font-family="sans-serif" font-size="9.1" lengthAdjust="spacing" textLength="19.6" x="456.4" y="361.2198">uses</text></g><!--SRC=[pLN1Zjem4BtdAonEsPQiscjK8I5AfKZjje9TxYOCmLh7Zco7tRJTVw-J9l4uU57tLYxWcVSypy_ZGJyoKL55IrBH_94Mi3KD1w8WDrGK728z0lI97kGJ4mKvKgvnXZC1fgc0L98txGBbSawrNXgZsBusaELIRDbF81-Yg2z8PW_PZFoAYFrqOBA1Wca3QbjN5MUW7h8-_HAz8DfA2gCavw1y-a1p-JxTVjuNO0Q0Zcz8IhxQMf-6qC81rKH5hFiVsUSv4RI4EQbEKi1TNUv1pGcKbF5smu4GaBm5TMOvXFNsoVz6x0OggPcHgfbUJnzde97O1CVZ6-yGcT2sdNBepe1nmQEwmZ6MwCAzs8273ZEnSSdvLGDH-VMpnMZaOClRIyc12aVGz0mZPehmZVmc3y33TuxzSmNjRamObsali3N2FY9Hk32wqIcZkzy0fNkbALd9igAYkRShLDzGqoRNmZ3JRDlLH5pp_NYqdUZP-3U6d7nR2-Ah156Nk3eoPxcwptRhSPdTeO1lzlevXyemASA6ZsdS7uFI9LT03qsm0IusS7GcpfIpmmztklZV6ElMWYzIbTHSONYDlgcjFoKuX3yHorAM_i5tRI5gNmG-CDExgM9qDy5-xocTv7WS7nTD7mM6z-tj8Z2Key2SniX-7Bu6ywPGQl-mq52PJbIyBPeGAT6Ne-KQ5p4YhtwIN0XY_SZpWREFimxSVhzL4SADsxoRON6vVJI5Rq476IhYjvMI4xtkb7igAJ4d9PyStAMIvFVYiYb3sxf6J4cjhSG_]--></g></svg>