<?xml version="1.0" encoding="us-ascii" standalone="no"?><svg xmlns="http://www.w3.org/2000/svg" xmlns:xlink="http://www.w3.org/1999/xlink" contentStyleType="text/css" height="994.8px" preserveAspectRatio="none" style="width:1260px;height:994px;background:#FFFFFF;" version="1.1" viewBox="0 0 1260 994" width="1260.6px" zoomAndPan="magnify"><defs/><g><text fill="#000000" font-family="sans-serif" font-size="8.4" font-weight="bold" lengthAdjust="spacing" textLength="118.8" x="570.3" y="18.0645">Register Supplier Sequence</text><rect fill="#FFFFFF" height="854.4516" style="stroke:#181818;stroke-width:0.6;" width="6" x="26.7" y="79.9453"/><rect fill="#FFFFFF" height="232.6934" style="stroke:#181818;stroke-width:0.6;" width="6" x="300.9" y="93.9199"/><rect fill="#FFFFFF" height="18.7746" style="stroke:#181818;stroke-width:0.6;" width="6" x="300.9" y="345.3879"/><rect fill="#FFFFFF" height="551.4598" style="stroke:#181818;stroke-width:0.6;" width="6" x="300.9" y="382.9371"/><rect fill="#FFFFFF" height="168.9715" style="stroke:#181818;stroke-width:0.6;" width="6" x="522.3" y="138.8672"/><rect fill="#FFFFFF" height="501.3105" style="stroke:#181818;stroke-width:0.6;" width="6" x="522.3" y="401.7117"/><rect fill="#FFFFFF" height="131.4223" style="stroke:#181818;stroke-width:0.6;" width="6" x="743.7" y="157.6418"/><rect fill="#FFFFFF" height="463.7613" style="stroke:#181818;stroke-width:0.6;" width="6" x="743.7" y="420.4863"/><rect fill="#FFFFFF" height="18.7746" style="stroke:#181818;stroke-width:0.6;" width="6" x="907.5" y="492.5848"/><rect fill="#FFFFFF" height="18.7746" style="stroke:#181818;stroke-width:0.6;" width="6" x="907.5" y="659.7563"/><rect fill="#FFFFFF" height="18.7746" style="stroke:#181818;stroke-width:0.6;" width="6" x="979.5" y="176.4164"/><rect fill="#FFFFFF" height="18.7746" style="stroke:#181818;stroke-width:0.6;" width="6" x="1042.5" y="213.9656"/><rect fill="#FFFFFF" height="18.7746" style="stroke:#181818;stroke-width:0.6;" width="6" x="1042.5" y="568.8832"/><rect fill="#FFFFFF" height="18.7746" style="stroke:#181818;stroke-width:0.6;" width="6" x="1118.4" y="251.5148"/><rect fill="#FFFFFF" height="18.7746" style="stroke:#181818;stroke-width:0.6;" width="6" x="1118.4" y="606.4324"/><rect fill="#FFFFFF" height="92.073" style="stroke:#181818;stroke-width:0.6;" width="6" x="1118.4" y="773.4"/><rect fill="#FFFFFF" height="18.7746" style="stroke:#181818;stroke-width:0.6;" width="6" x="1233" y="439.2609"/><rect fill="none" height="449.1867" style="stroke:#000000;stroke-width:0.8999999999999999;" width="975.6" x="245.4" y="467.0355"/><rect fill="none" height="277.8152" style="stroke:#000000;stroke-width:0.8999999999999999;" width="963.6" x="251.4" y="634.207"/><rect fill="none" height="125.4223" style="stroke:#000000;stroke-width:0.8999999999999999;" width="910.8" x="257.4" y="782.4"/><line style="stroke:#181818;stroke-width:0.3;stroke-dasharray:5.0,5.0;" x1="29.4" x2="29.4" y1="73.9453" y2="945.1969"/><line style="stroke:#181818;stroke-width:0.3;stroke-dasharray:5.0,5.0;" x1="303.6" x2="303.6" y1="73.9453" y2="945.1969"/><line style="stroke:#181818;stroke-width:0.3;stroke-dasharray:5.0,5.0;" x1="525.3" x2="525.3" y1="117.8062" y2="945.1969"/><line style="stroke:#181818;stroke-width:0.3;stroke-dasharray:5.0,5.0;" x1="746.4" x2="746.4" y1="73.9453" y2="945.1969"/><line style="stroke:#181818;stroke-width:0.3;stroke-dasharray:5.0,5.0;" x1="910.2" x2="910.2" y1="73.9453" y2="945.1969"/><line style="stroke:#181818;stroke-width:0.3;stroke-dasharray:5.0,5.0;" x1="982.2" x2="982.2" y1="73.9453" y2="945.1969"/><line style="stroke:#181818;stroke-width:0.3;stroke-dasharray:5.0,5.0;" x1="1045.2" x2="1045.2" y1="73.9453" y2="945.1969"/><line style="stroke:#181818;stroke-width:0.3;stroke-dasharray:5.0,5.0;" x1="1121.4" x2="1121.4" y1="73.9453" y2="945.1969"/><line style="stroke:#181818;stroke-width:0.3;stroke-dasharray:5.0,5.0;" x1="1188.6" x2="1188.6" y1="746.7527" y2="945.1969"/><line style="stroke:#181818;stroke-width:0.3;stroke-dasharray:5.0,5.0;" x1="1236" x2="1236" y1="73.9453" y2="945.1969"/><text fill="#000000" font-family="sans-serif" font-size="8.4" lengthAdjust="spacing" textLength="49.8" x="3" y="71.8371">Administrator</text><ellipse cx="29.7" cy="31.8727" fill="#E3E3E3" rx="4.8" ry="4.8" style="stroke:#181818;stroke-width:0.3;"/><path d="M29.7,36.6727 L29.7,52.8727 M21.9,41.4727 L37.5,41.4727 M29.7,52.8727 L21.9,61.8727 M29.7,52.8727 L37.5,61.8727 " fill="none" style="stroke:#181818;stroke-width:0.3;"/><text fill="#000000" font-family="sans-serif" font-size="8.4" lengthAdjust="spacing" textLength="49.8" x="3" y="953.6613">Administrator</text><ellipse cx="29.7" cy="960.8695" fill="#E3E3E3" rx="4.8" ry="4.8" style="stroke:#181818;stroke-width:0.3;"/><path d="M29.7,965.6695 L29.7,981.8695 M21.9,970.4695 L37.5,970.4695 M29.7,981.8695 L21.9,990.8695 M29.7,981.8695 L37.5,990.8695 " fill="none" style="stroke:#181818;stroke-width:0.3;"/><rect fill="#E3E3E3" height="19.5727" rx="1.5" ry="1.5" style="stroke:#181818;stroke-width:0.3;" width="81" x="263.4" y="53.7727"/><text fill="#000000" font-family="sans-serif" font-size="8.4" lengthAdjust="spacing" textLength="72.6" x="267.6" y="67.0371">:RegisterSupplierUI</text><rect fill="#E3E3E3" height="19.5727" rx="1.5" ry="1.5" style="stroke:#181818;stroke-width:0.3;" width="81" x="263.4" y="944.5969"/><text fill="#000000" font-family="sans-serif" font-size="8.4" lengthAdjust="spacing" textLength="72.6" x="267.6" y="957.8613">:RegisterSupplierUI</text><rect fill="#E3E3E3" height="19.5727" rx="1.5" ry="1.5" style="stroke:#181818;stroke-width:0.3;" width="79.2" x="485.7" y="944.5969"/><text fill="#000000" font-family="sans-serif" font-size="8.4" lengthAdjust="spacing" textLength="70.8" x="489.9" y="957.8613">:SupplierController</text><rect fill="#E3E3E3" height="19.5727" rx="1.5" ry="1.5" style="stroke:#181818;stroke-width:0.3;" width="70.2" x="711.6" y="53.7727"/><text fill="#000000" font-family="sans-serif" font-size="8.4" lengthAdjust="spacing" textLength="61.8" x="715.8" y="67.0371">:SupplierService</text><rect fill="#E3E3E3" height="19.5727" rx="1.5" ry="1.5" style="stroke:#181818;stroke-width:0.3;" width="70.2" x="711.6" y="944.5969"/><text fill="#000000" font-family="sans-serif" font-size="8.4" lengthAdjust="spacing" textLength="61.8" x="715.8" y="957.8613">:SupplierService</text><rect fill="#E3E3E3" height="19.5727" rx="1.5" ry="1.5" style="stroke:#181818;stroke-width:0.3;" width="76.2" x="872.4" y="53.7727"/><text fill="#000000" font-family="sans-serif" font-size="8.4" lengthAdjust="spacing" textLength="67.8" x="876.6" y="67.0371">SupplierException</text><rect fill="#E3E3E3" height="19.5727" rx="1.5" ry="1.5" style="stroke:#181818;stroke-width:0.3;" width="76.2" x="872.4" y="944.5969"/><text fill="#000000" font-family="sans-serif" font-size="8.4" lengthAdjust="spacing" textLength="67.8" x="876.6" y="957.8613">SupplierException</text><rect fill="#E3E3E3" height="19.5727" rx="1.5" ry="1.5" style="stroke:#181818;stroke-width:0.3;" width="55.8" x="954.6" y="53.7727"/><text fill="#000000" font-family="sans-serif" font-size="8.4" lengthAdjust="spacing" textLength="47.4" x="958.8" y="67.0371">Repositories</text><rect fill="#E3E3E3" height="19.5727" rx="1.5" ry="1.5" style="stroke:#181818;stroke-width:0.3;" width="55.8" x="954.6" y="944.5969"/><text fill="#000000" font-family="sans-serif" font-size="8.4" lengthAdjust="spacing" textLength="47.4" x="958.8" y="957.8613">Repositories</text><rect fill="#E3E3E3" height="30.7453" rx="1.5" ry="1.5" style="stroke:#181818;stroke-width:0.3;" width="58.2" x="1016.4" y="42.6"/><text fill="#000000" font-family="sans-serif" font-size="8.4" lengthAdjust="spacing" textLength="44.4" x="1023.3" y="55.8645">repositories</text><text fill="#000000" font-family="sans-serif" font-size="8.4" lengthAdjust="spacing" textLength="49.8" x="1020.6" y="67.0371">:Repositories</text><rect fill="#E3E3E3" height="30.7453" rx="1.5" ry="1.5" style="stroke:#181818;stroke-width:0.3;" width="58.2" x="1016.4" y="944.5969"/><text fill="#000000" font-family="sans-serif" font-size="8.4" lengthAdjust="spacing" textLength="44.4" x="1023.3" y="957.8613">repositories</text><text fill="#000000" font-family="sans-serif" font-size="8.4" lengthAdjust="spacing" textLength="49.8" x="1020.6" y="969.034">:Repositories</text><rect fill="#E3E3E3" height="30.7453" rx="1.5" ry="1.5" style="stroke:#181818;stroke-width:0.3;" width="81.6" x="1080.6" y="42.6"/><text fill="#000000" font-family="sans-serif" font-size="8.4" lengthAdjust="spacing" textLength="73.2" x="1084.8" y="55.8645">supplierRepository:</text><text fill="#000000" font-family="sans-serif" font-size="8.4" lengthAdjust="spacing" textLength="72" x="1085.4" y="67.0371">SupplierRepository</text><rect fill="#E3E3E3" height="30.7453" rx="1.5" ry="1.5" style="stroke:#181818;stroke-width:0.3;" width="81.6" x="1080.6" y="944.5969"/><text fill="#000000" font-family="sans-serif" font-size="8.4" lengthAdjust="spacing" textLength="73.2" x="1084.8" y="957.8613">supplierRepository:</text><text fill="#000000" font-family="sans-serif" font-size="8.4" lengthAdjust="spacing" textLength="72" x="1085.4" y="969.034">SupplierRepository</text><rect fill="#E3E3E3" height="30.7453" rx="1.5" ry="1.5" style="stroke:#181818;stroke-width:0.3;" width="40.8" x="1168.2" y="944.5969"/><text fill="#000000" font-family="sans-serif" font-size="8.4" lengthAdjust="spacing" textLength="32.4" x="1172.4" y="957.8613">supplier:</text><text fill="#000000" font-family="sans-serif" font-size="8.4" lengthAdjust="spacing" textLength="31.2" x="1173" y="969.034">Supplier</text><rect fill="#E3E3E3" height="19.5727" rx="1.5" ry="1.5" style="stroke:#181818;stroke-width:0.3;" width="42" x="1215" y="53.7727"/><text fill="#000000" font-family="sans-serif" font-size="8.4" lengthAdjust="spacing" textLength="33.6" x="1219.2" y="67.0371">Validator</text><rect fill="#E3E3E3" height="19.5727" rx="1.5" ry="1.5" style="stroke:#181818;stroke-width:0.3;" width="42" x="1215" y="944.5969"/><text fill="#000000" font-family="sans-serif" font-size="8.4" lengthAdjust="spacing" textLength="33.6" x="1219.2" y="957.8613">Validator</text><rect fill="#FFFFFF" height="854.4516" style="stroke:#181818;stroke-width:0.6;" width="6" x="26.7" y="79.9453"/><rect fill="#FFFFFF" height="232.6934" style="stroke:#181818;stroke-width:0.6;" width="6" x="300.9" y="93.9199"/><rect fill="#FFFFFF" height="18.7746" style="stroke:#181818;stroke-width:0.6;" width="6" x="300.9" y="345.3879"/><rect fill="#FFFFFF" height="551.4598" style="stroke:#181818;stroke-width:0.6;" width="6" x="300.9" y="382.9371"/><rect fill="#FFFFFF" height="168.9715" style="stroke:#181818;stroke-width:0.6;" width="6" x="522.3" y="138.8672"/><rect fill="#FFFFFF" height="501.3105" style="stroke:#181818;stroke-width:0.6;" width="6" x="522.3" y="401.7117"/><rect fill="#FFFFFF" height="131.4223" style="stroke:#181818;stroke-width:0.6;" width="6" x="743.7" y="157.6418"/><rect fill="#FFFFFF" height="463.7613" style="stroke:#181818;stroke-width:0.6;" width="6" x="743.7" y="420.4863"/><rect fill="#FFFFFF" height="18.7746" style="stroke:#181818;stroke-width:0.6;" width="6" x="907.5" y="492.5848"/><rect fill="#FFFFFF" height="18.7746" style="stroke:#181818;stroke-width:0.6;" width="6" x="907.5" y="659.7563"/><rect fill="#FFFFFF" height="18.7746" style="stroke:#181818;stroke-width:0.6;" width="6" x="979.5" y="176.4164"/><rect fill="#FFFFFF" height="18.7746" style="stroke:#181818;stroke-width:0.6;" width="6" x="1042.5" y="213.9656"/><rect fill="#FFFFFF" height="18.7746" style="stroke:#181818;stroke-width:0.6;" width="6" x="1042.5" y="568.8832"/><rect fill="#FFFFFF" height="18.7746" style="stroke:#181818;stroke-width:0.6;" width="6" x="1118.4" y="251.5148"/><rect fill="#FFFFFF" height="18.7746" style="stroke:#181818;stroke-width:0.6;" width="6" x="1118.4" y="606.4324"/><rect fill="#FFFFFF" height="92.073" style="stroke:#181818;stroke-width:0.6;" width="6" x="1118.4" y="773.4"/><rect fill="#FFFFFF" height="18.7746" style="stroke:#181818;stroke-width:0.6;" width="6" x="1233" y="439.2609"/><polygon fill="#181818" points="293.7,91.5199,299.7,93.9199,293.7,96.3199,296.1,93.9199" style="stroke:#181818;stroke-width:0.6;"/><line style="stroke:#181818;stroke-width:0.6;" x1="32.7" x2="297.3" y1="93.9199" y2="93.9199"/><text fill="#000000" font-family="sans-serif" font-size="7.8" font-weight="bold" lengthAdjust="spacing" textLength="4.2" x="36.9" y="90.7623">1</text><text fill="#000000" font-family="sans-serif" font-size="7.8" lengthAdjust="spacing" textLength="106.2" x="43.5" y="90.7623">asks to register a new supplier</text><polygon fill="#181818" points="478.5,110.2945,484.5,112.6945,478.5,115.0945,480.9,112.6945" style="stroke:#181818;stroke-width:0.6;"/><line style="stroke:#181818;stroke-width:0.6;" x1="306.9" x2="482.1" y1="112.6945" y2="112.6945"/><text fill="#000000" font-family="sans-serif" font-size="7.8" font-weight="bold" lengthAdjust="spacing" textLength="4.2" x="311.1" y="109.5369">2</text><text fill="#000000" font-family="sans-serif" font-size="7.8" lengthAdjust="spacing" textLength="21.6" x="317.7" y="109.5369">create</text><rect fill="#E3E3E3" height="19.5727" rx="1.5" ry="1.5" style="stroke:#181818;stroke-width:0.3;" width="79.2" x="485.7" y="98.7199"/><text fill="#000000" font-family="sans-serif" font-size="8.4" lengthAdjust="spacing" textLength="70.8" x="489.9" y="111.9844">:SupplierController</text><polygon fill="#181818" points="515.1,136.4672,521.1,138.8672,515.1,141.2672,517.5,138.8672" style="stroke:#181818;stroke-width:0.6;"/><line style="stroke:#181818;stroke-width:0.6;" x1="306.9" x2="518.7" y1="138.8672" y2="138.8672"/><text fill="#000000" font-family="sans-serif" font-size="7.8" font-weight="bold" lengthAdjust="spacing" textLength="4.2" x="311.1" y="135.7096">3</text><text fill="#000000" font-family="sans-serif" font-size="7.8" lengthAdjust="spacing" textLength="48" x="317.7" y="135.7096">getSuppliers()</text><polygon fill="#181818" points="736.5,155.2418,742.5,157.6418,736.5,160.0418,738.9,157.6418" style="stroke:#181818;stroke-width:0.6;"/><line style="stroke:#181818;stroke-width:0.6;" x1="528.3" x2="740.1" y1="157.6418" y2="157.6418"/><text fill="#000000" font-family="sans-serif" font-size="7.8" font-weight="bold" lengthAdjust="spacing" textLength="4.2" x="532.5" y="154.4842">4</text><text fill="#000000" font-family="sans-serif" font-size="7.8" lengthAdjust="spacing" textLength="48" x="539.1" y="154.4842">getSuppliers()</text><polygon fill="#181818" points="972.3,174.0164,978.3,176.4164,972.3,178.8164,974.7,176.4164" style="stroke:#181818;stroke-width:0.6;"/><line style="stroke:#181818;stroke-width:0.6;" x1="749.7" x2="975.9" y1="176.4164" y2="176.4164"/><text fill="#000000" font-family="sans-serif" font-size="7.8" font-weight="bold" lengthAdjust="spacing" textLength="4.2" x="753.9" y="173.2588">5</text><text fill="#000000" font-family="sans-serif" font-size="7.8" lengthAdjust="spacing" textLength="45" x="760.5" y="173.2588">getInstance()</text><polygon fill="#181818" points="756.3,192.791,750.3,195.191,756.3,197.591,753.9,195.191" style="stroke:#181818;stroke-width:0.6;"/><line style="stroke:#181818;stroke-width:0.6;stroke-dasharray:2.0,2.0;" x1="752.7" x2="981.9" y1="195.191" y2="195.191"/><text fill="#000000" font-family="sans-serif" font-size="7.8" font-weight="bold" lengthAdjust="spacing" textLength="4.2" x="759.9" y="192.0334">6</text><text fill="#000000" font-family="sans-serif" font-size="7.8" lengthAdjust="spacing" textLength="40.2" x="766.5" y="192.0334">repositories</text><polygon fill="#181818" points="1035.3,211.5656,1041.3,213.9656,1035.3,216.3656,1037.7,213.9656" style="stroke:#181818;stroke-width:0.6;"/><line style="stroke:#181818;stroke-width:0.6;" x1="749.7" x2="1038.9" y1="213.9656" y2="213.9656"/><text fill="#000000" font-family="sans-serif" font-size="7.8" font-weight="bold" lengthAdjust="spacing" textLength="4.2" x="753.9" y="210.808">7</text><text fill="#000000" font-family="sans-serif" font-size="7.8" lengthAdjust="spacing" textLength="81" x="760.5" y="210.808">getSupplierRepository()</text><polygon fill="#181818" points="756.3,230.3402,750.3,232.7402,756.3,235.1402,753.9,232.7402" style="stroke:#181818;stroke-width:0.6;"/><line style="stroke:#181818;stroke-width:0.6;stroke-dasharray:2.0,2.0;" x1="752.7" x2="1044.9" y1="232.7402" y2="232.7402"/><text fill="#000000" font-family="sans-serif" font-size="7.8" font-weight="bold" lengthAdjust="spacing" textLength="4.2" x="759.9" y="229.5826">8</text><text fill="#000000" font-family="sans-serif" font-size="7.8" lengthAdjust="spacing" textLength="64.2" x="766.5" y="229.5826">supplierRepository</text><polygon fill="#181818" points="1111.2,249.1148,1117.2,251.5148,1111.2,253.9148,1113.6,251.5148" style="stroke:#181818;stroke-width:0.6;"/><line style="stroke:#181818;stroke-width:0.6;" x1="749.7" x2="1114.8" y1="251.5148" y2="251.5148"/><text fill="#000000" font-family="sans-serif" font-size="7.8" font-weight="bold" lengthAdjust="spacing" textLength="4.2" x="753.9" y="248.3572">9</text><text fill="#000000" font-family="sans-serif" font-size="7.8" lengthAdjust="spacing" textLength="24.6" x="760.5" y="248.3572">getAll()</text><polygon fill="#181818" points="756.3,267.8895,750.3,270.2895,756.3,272.6895,753.9,270.2895" style="stroke:#181818;stroke-width:0.6;"/><line style="stroke:#181818;stroke-width:0.6;stroke-dasharray:2.0,2.0;" x1="752.7" x2="1120.8" y1="270.2895" y2="270.2895"/><text fill="#000000" font-family="sans-serif" font-size="7.8" font-weight="bold" lengthAdjust="spacing" textLength="8.4" x="759.9" y="267.1318">10</text><text fill="#000000" font-family="sans-serif" font-size="7.8" lengthAdjust="spacing" textLength="31.2" x="770.7" y="267.1318">suppliers</text><polygon fill="#181818" points="534.9,286.6641,528.9,289.0641,534.9,291.4641,532.5,289.0641" style="stroke:#181818;stroke-width:0.6;"/><line style="stroke:#181818;stroke-width:0.6;stroke-dasharray:2.0,2.0;" x1="531.3" x2="746.1" y1="289.0641" y2="289.0641"/><text fill="#000000" font-family="sans-serif" font-size="7.8" font-weight="bold" lengthAdjust="spacing" textLength="8.4" x="538.5" y="285.9064">11</text><text fill="#000000" font-family="sans-serif" font-size="7.8" lengthAdjust="spacing" textLength="31.2" x="549.3" y="285.9064">suppliers</text><polygon fill="#181818" points="313.5,305.4387,307.5,307.8387,313.5,310.2387,311.1,307.8387" style="stroke:#181818;stroke-width:0.6;"/><line style="stroke:#181818;stroke-width:0.6;stroke-dasharray:2.0,2.0;" x1="309.9" x2="524.7" y1="307.8387" y2="307.8387"/><text fill="#000000" font-family="sans-serif" font-size="7.8" font-weight="bold" lengthAdjust="spacing" textLength="8.4" x="317.1" y="304.6811">12</text><text fill="#000000" font-family="sans-serif" font-size="7.8" lengthAdjust="spacing" textLength="31.2" x="327.9" y="304.6811">suppliers</text><polygon fill="#181818" points="39.3,324.2133,33.3,326.6133,39.3,329.0133,36.9,326.6133" style="stroke:#181818;stroke-width:0.6;"/><line style="stroke:#181818;stroke-width:0.6;stroke-dasharray:2.0,2.0;" x1="35.7" x2="303.3" y1="326.6133" y2="326.6133"/><text fill="#000000" font-family="sans-serif" font-size="7.8" font-weight="bold" lengthAdjust="spacing" textLength="8.4" x="42.9" y="323.4557">13</text><text fill="#000000" font-family="sans-serif" font-size="7.8" lengthAdjust="spacing" textLength="181.8" x="53.7" y="323.4557">shows the list of suppliers and requests confirmation</text><polygon fill="#181818" points="293.7,342.9879,299.7,345.3879,293.7,347.7879,296.1,345.3879" style="stroke:#181818;stroke-width:0.6;"/><line style="stroke:#181818;stroke-width:0.6;" x1="32.7" x2="297.3" y1="345.3879" y2="345.3879"/><text fill="#000000" font-family="sans-serif" font-size="7.8" font-weight="bold" lengthAdjust="spacing" textLength="8.4" x="36.9" y="342.2303">14</text><text fill="#000000" font-family="sans-serif" font-size="7.8" lengthAdjust="spacing" textLength="168" x="47.7" y="342.2303">confirms that he wants to register a new supplier</text><polygon fill="#181818" points="39.3,361.7625,33.3,364.1625,39.3,366.5625,36.9,364.1625" style="stroke:#181818;stroke-width:0.6;"/><line style="stroke:#181818;stroke-width:0.6;stroke-dasharray:2.0,2.0;" x1="35.7" x2="303.3" y1="364.1625" y2="364.1625"/><text fill="#000000" font-family="sans-serif" font-size="7.8" font-weight="bold" lengthAdjust="spacing" textLength="8.4" x="42.9" y="361.0049">15</text><text fill="#000000" font-family="sans-serif" font-size="7.8" lengthAdjust="spacing" textLength="243" x="53.7" y="361.0049">requests data (i.e. Name and Contact Info (Phone Number and Email))</text><polygon fill="#181818" points="293.7,380.5371,299.7,382.9371,293.7,385.3371,296.1,382.9371" style="stroke:#181818;stroke-width:0.6;"/><line style="stroke:#181818;stroke-width:0.6;" x1="32.7" x2="297.3" y1="382.9371" y2="382.9371"/><text fill="#000000" font-family="sans-serif" font-size="7.8" font-weight="bold" lengthAdjust="spacing" textLength="8.4" x="36.9" y="379.7795">16</text><text fill="#000000" font-family="sans-serif" font-size="7.8" lengthAdjust="spacing" textLength="73.2" x="47.7" y="379.7795">types requested data</text><polygon fill="#181818" points="515.1,399.3117,521.1,401.7117,515.1,404.1117,517.5,401.7117" style="stroke:#181818;stroke-width:0.6;"/><line style="stroke:#181818;stroke-width:0.6;" x1="306.9" x2="518.7" y1="401.7117" y2="401.7117"/><text fill="#000000" font-family="sans-serif" font-size="7.8" font-weight="bold" lengthAdjust="spacing" textLength="8.4" x="311.1" y="398.5541">17</text><text fill="#000000" font-family="sans-serif" font-size="7.8" lengthAdjust="spacing" textLength="193.2" x="321.9" y="398.5541">registerSupplier(supplierID, name, phoneNumber, email)</text><polygon fill="#181818" points="736.5,418.0863,742.5,420.4863,736.5,422.8863,738.9,420.4863" style="stroke:#181818;stroke-width:0.6;"/><line style="stroke:#181818;stroke-width:0.6;" x1="528.3" x2="740.1" y1="420.4863" y2="420.4863"/><text fill="#000000" font-family="sans-serif" font-size="7.8" font-weight="bold" lengthAdjust="spacing" textLength="8.4" x="532.5" y="417.3287">18</text><text fill="#000000" font-family="sans-serif" font-size="7.8" lengthAdjust="spacing" textLength="193.2" x="543.3" y="417.3287">registerSupplier(supplierID, name, phoneNumber, email)</text><polygon fill="#181818" points="1225.8,436.8609,1231.8,439.2609,1225.8,441.6609,1228.2,439.2609" style="stroke:#181818;stroke-width:0.6;"/><line style="stroke:#181818;stroke-width:0.6;" x1="749.7" x2="1229.4" y1="439.2609" y2="439.2609"/><text fill="#000000" font-family="sans-serif" font-size="7.8" font-weight="bold" lengthAdjust="spacing" textLength="8.4" x="753.9" y="436.1033">19</text><text fill="#000000" font-family="sans-serif" font-size="7.8" lengthAdjust="spacing" textLength="115.8" x="764.7" y="436.1033">isValidData(phoneNumber, email)</text><polygon fill="#181818" points="756.3,455.6355,750.3,458.0355,756.3,460.4355,753.9,458.0355" style="stroke:#181818;stroke-width:0.6;"/><line style="stroke:#181818;stroke-width:0.6;stroke-dasharray:2.0,2.0;" x1="752.7" x2="1235.4" y1="458.0355" y2="458.0355"/><text fill="#000000" font-family="sans-serif" font-size="7.8" font-weight="bold" lengthAdjust="spacing" textLength="8.4" x="759.9" y="454.8779">20</text><text fill="#000000" font-family="sans-serif" font-size="7.8" lengthAdjust="spacing" textLength="31.8" x="770.7" y="454.8779">true/false</text><path d="M245.4,467.0355 L282,467.0355 L282,472.6102 L276,478.6102 L245.4,478.6102 L245.4,467.0355 " fill="#EEEEEE" style="stroke:#000000;stroke-width:0.8999999999999999;"/><rect fill="none" height="449.1867" style="stroke:#000000;stroke-width:0.8999999999999999;" width="975.6" x="245.4" y="467.0355"/><text fill="#000000" font-family="sans-serif" font-size="7.8" font-weight="bold" lengthAdjust="spacing" textLength="9.6" x="254.4" y="476.0525">alt</text><text fill="#000000" font-family="sans-serif" font-size="6.6" font-weight="bold" lengthAdjust="spacing" textLength="21" x="291" y="475.3576">[false]</text><polygon fill="#181818" points="900.3,490.1848,906.3,492.5848,900.3,494.9848,902.7,492.5848" style="stroke:#181818;stroke-width:0.6;"/><line style="stroke:#181818;stroke-width:0.6;" x1="749.7" x2="903.9" y1="492.5848" y2="492.5848"/><text fill="#000000" font-family="sans-serif" font-size="7.8" font-weight="bold" lengthAdjust="spacing" textLength="8.4" x="753.9" y="489.4271">21</text><text fill="#000000" font-family="sans-serif" font-size="7.8" lengthAdjust="spacing" textLength="63" x="764.7" y="489.4271">throw invalidData()</text><polygon fill="#181818" points="756.3,508.9594,750.3,511.3594,756.3,513.7594,753.9,511.3594" style="stroke:#181818;stroke-width:0.6;"/><line style="stroke:#181818;stroke-width:0.6;stroke-dasharray:2.0,2.0;" x1="752.7" x2="909.9" y1="511.3594" y2="511.3594"/><text fill="#000000" font-family="sans-serif" font-size="7.8" font-weight="bold" lengthAdjust="spacing" textLength="8.4" x="759.9" y="508.2018">22</text><text fill="#000000" font-family="sans-serif" font-size="7.8" lengthAdjust="spacing" textLength="61.8" x="770.7" y="508.2018">Exception Thrown</text><polygon fill="#181818" points="534.9,527.734,528.9,530.134,534.9,532.534,532.5,530.134" style="stroke:#181818;stroke-width:0.6;"/><line style="stroke:#181818;stroke-width:0.6;stroke-dasharray:2.0,2.0;" x1="531.3" x2="743.1" y1="530.134" y2="530.134"/><text fill="#000000" font-family="sans-serif" font-size="7.8" font-weight="bold" lengthAdjust="spacing" textLength="8.4" x="538.5" y="526.9764">23</text><text fill="#000000" font-family="sans-serif" font-size="7.8" lengthAdjust="spacing" textLength="115.8" x="549.3" y="526.9764">show error message (Invalid data)</text><polygon fill="#181818" points="313.5,546.5086,307.5,548.9086,313.5,551.3086,311.1,548.9086" style="stroke:#181818;stroke-width:0.6;"/><line style="stroke:#181818;stroke-width:0.6;stroke-dasharray:2.0,2.0;" x1="309.9" x2="521.7" y1="548.9086" y2="548.9086"/><text fill="#000000" font-family="sans-serif" font-size="7.8" font-weight="bold" lengthAdjust="spacing" textLength="8.4" x="317.1" y="545.751">24</text><text fill="#000000" font-family="sans-serif" font-size="7.8" lengthAdjust="spacing" textLength="115.8" x="327.9" y="545.751">show error message (Invalid data)</text><line style="stroke:#000000;stroke-width:0.6;stroke-dasharray:2.0,2.0;" x1="245.4" x2="1221" y1="554.3086" y2="554.3086"/><polygon fill="#181818" points="1035.3,566.4832,1041.3,568.8832,1035.3,571.2832,1037.7,568.8832" style="stroke:#181818;stroke-width:0.6;"/><line style="stroke:#181818;stroke-width:0.6;" x1="749.7" x2="1038.9" y1="568.8832" y2="568.8832"/><text fill="#000000" font-family="sans-serif" font-size="7.8" font-weight="bold" lengthAdjust="spacing" textLength="8.4" x="753.9" y="565.7256">25</text><text fill="#000000" font-family="sans-serif" font-size="7.8" lengthAdjust="spacing" textLength="81" x="764.7" y="565.7256">getSupplierRepository()</text><polygon fill="#181818" points="756.3,585.2578,750.3,587.6578,756.3,590.0578,753.9,587.6578" style="stroke:#181818;stroke-width:0.6;"/><line style="stroke:#181818;stroke-width:0.6;stroke-dasharray:2.0,2.0;" x1="752.7" x2="1044.9" y1="587.6578" y2="587.6578"/><text fill="#000000" font-family="sans-serif" font-size="7.8" font-weight="bold" lengthAdjust="spacing" textLength="8.4" x="759.9" y="584.5002">26</text><text fill="#000000" font-family="sans-serif" font-size="7.8" lengthAdjust="spacing" textLength="64.2" x="770.7" y="584.5002">supplierRepository</text><polygon fill="#181818" points="1111.2,604.0324,1117.2,606.4324,1111.2,608.8324,1113.6,606.4324" style="stroke:#181818;stroke-width:0.6;"/><line style="stroke:#181818;stroke-width:0.6;" x1="749.7" x2="1114.8" y1="606.4324" y2="606.4324"/><text fill="#000000" font-family="sans-serif" font-size="7.8" font-weight="bold" lengthAdjust="spacing" textLength="8.4" x="753.9" y="603.2748">27</text><text fill="#000000" font-family="sans-serif" font-size="7.8" lengthAdjust="spacing" textLength="100.2" x="764.7" y="603.2748">getSupplierExists(supplierID)</text><polygon fill="#181818" points="756.3,622.807,750.3,625.207,756.3,627.607,753.9,625.207" style="stroke:#181818;stroke-width:0.6;"/><line style="stroke:#181818;stroke-width:0.6;stroke-dasharray:2.0,2.0;" x1="752.7" x2="1120.8" y1="625.207" y2="625.207"/><text fill="#000000" font-family="sans-serif" font-size="7.8" font-weight="bold" lengthAdjust="spacing" textLength="8.4" x="759.9" y="622.0494">28</text><text fill="#000000" font-family="sans-serif" font-size="7.8" lengthAdjust="spacing" textLength="31.8" x="770.7" y="622.0494">true/false</text><path d="M251.4,634.207 L288,634.207 L288,639.7816 L282,645.7816 L251.4,645.7816 L251.4,634.207 " fill="#EEEEEE" style="stroke:#000000;stroke-width:0.8999999999999999;"/><rect fill="none" height="277.8152" style="stroke:#000000;stroke-width:0.8999999999999999;" width="963.6" x="251.4" y="634.207"/><text fill="#000000" font-family="sans-serif" font-size="7.8" font-weight="bold" lengthAdjust="spacing" textLength="9.6" x="260.4" y="643.224">alt</text><text fill="#000000" font-family="sans-serif" font-size="6.6" font-weight="bold" lengthAdjust="spacing" textLength="18.6" x="297" y="642.5291">[true]</text><polygon fill="#181818" points="900.3,657.3562,906.3,659.7563,900.3,662.1563,902.7,659.7563" style="stroke:#181818;stroke-width:0.6;"/><line style="stroke:#181818;stroke-width:0.6;" x1="749.7" x2="903.9" y1="659.7563" y2="659.7563"/><text fill="#000000" font-family="sans-serif" font-size="7.8" font-weight="bold" lengthAdjust="spacing" textLength="8.4" x="753.9" y="656.5986">29</text><text fill="#000000" font-family="sans-serif" font-size="7.8" lengthAdjust="spacing" textLength="135.6" x="764.7" y="656.5986">throw supplierAlreadyExists(supplierID)</text><polygon fill="#181818" points="756.3,676.1309,750.3,678.5309,756.3,680.9309,753.9,678.5309" style="stroke:#181818;stroke-width:0.6;"/><line style="stroke:#181818;stroke-width:0.6;stroke-dasharray:2.0,2.0;" x1="752.7" x2="909.9" y1="678.5309" y2="678.5309"/><text fill="#000000" font-family="sans-serif" font-size="7.8" font-weight="bold" lengthAdjust="spacing" textLength="8.4" x="759.9" y="675.3732">30</text><text fill="#000000" font-family="sans-serif" font-size="7.8" lengthAdjust="spacing" textLength="61.8" x="770.7" y="675.3732">Exception Thrown</text><polygon fill="#181818" points="534.9,694.9055,528.9,697.3055,534.9,699.7055,532.5,697.3055" style="stroke:#181818;stroke-width:0.6;"/><line style="stroke:#181818;stroke-width:0.6;stroke-dasharray:2.0,2.0;" x1="531.3" x2="743.1" y1="697.3055" y2="697.3055"/><text fill="#000000" font-family="sans-serif" font-size="7.8" font-weight="bold" lengthAdjust="spacing" textLength="8.4" x="538.5" y="694.1479">31</text><text fill="#000000" font-family="sans-serif" font-size="7.8" lengthAdjust="spacing" textLength="169.8" x="549.3" y="694.1479">show error message (Supplier already registered)</text><polygon fill="#181818" points="313.5,713.6801,307.5,716.0801,313.5,718.4801,311.1,716.0801" style="stroke:#181818;stroke-width:0.6;"/><line style="stroke:#181818;stroke-width:0.6;stroke-dasharray:2.0,2.0;" x1="309.9" x2="521.7" y1="716.0801" y2="716.0801"/><text fill="#000000" font-family="sans-serif" font-size="7.8" font-weight="bold" lengthAdjust="spacing" textLength="8.4" x="317.1" y="712.9225">32</text><text fill="#000000" font-family="sans-serif" font-size="7.8" lengthAdjust="spacing" textLength="169.8" x="327.9" y="712.9225">show error message (Supplier already registered)</text><line style="stroke:#000000;stroke-width:0.6;stroke-dasharray:2.0,2.0;" x1="251.4" x2="1215" y1="721.4801" y2="721.4801"/><polygon fill="#181818" points="1161,733.6547,1167,736.0547,1161,738.4547,1163.4,736.0547" style="stroke:#181818;stroke-width:0.6;"/><line style="stroke:#181818;stroke-width:0.6;" x1="749.7" x2="1164.6" y1="736.0547" y2="736.0547"/><text fill="#000000" font-family="sans-serif" font-size="7.8" font-weight="bold" lengthAdjust="spacing" textLength="8.4" x="753.9" y="732.8971">33</text><text fill="#000000" font-family="sans-serif" font-size="7.8" lengthAdjust="spacing" textLength="160.8" x="764.7" y="732.8971">create(supplierID, name, phoneNumber, email)</text><rect fill="#E3E3E3" height="30.7453" rx="1.5" ry="1.5" style="stroke:#181818;stroke-width:0.3;" width="40.8" x="1168.2" y="722.0801"/><text fill="#000000" font-family="sans-serif" font-size="8.4" lengthAdjust="spacing" textLength="32.4" x="1172.4" y="735.3445">supplier:</text><text fill="#000000" font-family="sans-serif" font-size="8.4" lengthAdjust="spacing" textLength="31.2" x="1173" y="746.5172">Supplier</text><polygon fill="#181818" points="1111.2,771,1117.2,773.4,1111.2,775.8,1113.6,773.4" style="stroke:#181818;stroke-width:0.6;"/><line style="stroke:#181818;stroke-width:0.6;" x1="749.7" x2="1114.8" y1="773.4" y2="773.4"/><text fill="#000000" font-family="sans-serif" font-size="7.8" font-weight="bold" lengthAdjust="spacing" textLength="8.4" x="753.9" y="770.2424">34</text><text fill="#000000" font-family="sans-serif" font-size="7.8" lengthAdjust="spacing" textLength="47.4" x="764.7" y="770.2424">save(supplier)</text><path d="M257.4,782.4 L294,782.4 L294,787.9746 L288,793.9746 L257.4,793.9746 L257.4,782.4 " fill="#EEEEEE" style="stroke:#000000;stroke-width:0.8999999999999999;"/><rect fill="none" height="125.4223" style="stroke:#000000;stroke-width:0.8999999999999999;" width="910.8" x="257.4" y="782.4"/><text fill="#000000" font-family="sans-serif" font-size="7.8" font-weight="bold" lengthAdjust="spacing" textLength="9.6" x="266.4" y="791.417">alt</text><text fill="#000000" font-family="sans-serif" font-size="6.6" font-weight="bold" lengthAdjust="spacing" textLength="49.2" x="303" y="790.7221">[system error]</text><polygon fill="#181818" points="756.3,805.5492,750.3,807.9492,756.3,810.3492,753.9,807.9492" style="stroke:#181818;stroke-width:0.6;"/><line style="stroke:#181818;stroke-width:0.6;stroke-dasharray:2.0,2.0;" x1="752.7" x2="1117.8" y1="807.9492" y2="807.9492"/><text fill="#000000" font-family="sans-serif" font-size="7.8" font-weight="bold" lengthAdjust="spacing" textLength="8.4" x="759.9" y="804.7916">35</text><text fill="#000000" font-family="sans-serif" font-size="7.8" lengthAdjust="spacing" textLength="51" x="770.7" y="804.7916">Database error</text><polygon fill="#181818" points="534.9,824.3238,528.9,826.7238,534.9,829.1238,532.5,826.7238" style="stroke:#181818;stroke-width:0.6;"/><line style="stroke:#181818;stroke-width:0.6;stroke-dasharray:2.0,2.0;" x1="531.3" x2="743.1" y1="826.7238" y2="826.7238"/><text fill="#000000" font-family="sans-serif" font-size="7.8" font-weight="bold" lengthAdjust="spacing" textLength="8.4" x="538.5" y="823.5662">36</text><text fill="#000000" font-family="sans-serif" font-size="7.8" lengthAdjust="spacing" textLength="128.4" x="549.3" y="823.5662">show error message (Database error)</text><polygon fill="#181818" points="313.5,843.0984,307.5,845.4984,313.5,847.8984,311.1,845.4984" style="stroke:#181818;stroke-width:0.6;"/><line style="stroke:#181818;stroke-width:0.6;stroke-dasharray:2.0,2.0;" x1="309.9" x2="521.7" y1="845.4984" y2="845.4984"/><text fill="#000000" font-family="sans-serif" font-size="7.8" font-weight="bold" lengthAdjust="spacing" textLength="8.4" x="317.1" y="842.3408">37</text><text fill="#000000" font-family="sans-serif" font-size="7.8" lengthAdjust="spacing" textLength="128.4" x="327.9" y="842.3408">show error message (Database error)</text><line style="stroke:#000000;stroke-width:0.6;stroke-dasharray:2.0,2.0;" x1="257.4" x2="1168.2" y1="850.8984" y2="850.8984"/><polygon fill="#181818" points="756.3,863.073,750.3,865.473,756.3,867.873,753.9,865.473" style="stroke:#181818;stroke-width:0.6;"/><line style="stroke:#181818;stroke-width:0.6;stroke-dasharray:2.0,2.0;" x1="752.7" x2="1120.8" y1="865.473" y2="865.473"/><text fill="#000000" font-family="sans-serif" font-size="7.8" font-weight="bold" lengthAdjust="spacing" textLength="8.4" x="759.9" y="862.3154">38</text><text fill="#000000" font-family="sans-serif" font-size="7.8" lengthAdjust="spacing" textLength="27" x="770.7" y="862.3154">supplier</text><polygon fill="#181818" points="534.9,881.8477,528.9,884.2477,534.9,886.6477,532.5,884.2477" style="stroke:#181818;stroke-width:0.6;"/><line style="stroke:#181818;stroke-width:0.6;stroke-dasharray:2.0,2.0;" x1="531.3" x2="746.1" y1="884.2477" y2="884.2477"/><text fill="#000000" font-family="sans-serif" font-size="7.8" font-weight="bold" lengthAdjust="spacing" textLength="8.4" x="538.5" y="881.09">39</text><text fill="#000000" font-family="sans-serif" font-size="7.8" lengthAdjust="spacing" textLength="27" x="549.3" y="881.09">supplier</text><polygon fill="#181818" points="313.5,900.6223,307.5,903.0223,313.5,905.4223,311.1,903.0223" style="stroke:#181818;stroke-width:0.6;"/><line style="stroke:#181818;stroke-width:0.6;stroke-dasharray:2.0,2.0;" x1="309.9" x2="524.7" y1="903.0223" y2="903.0223"/><text fill="#000000" font-family="sans-serif" font-size="7.8" font-weight="bold" lengthAdjust="spacing" textLength="8.4" x="317.1" y="899.8646">40</text><text fill="#000000" font-family="sans-serif" font-size="7.8" lengthAdjust="spacing" textLength="27" x="327.9" y="899.8646">supplier</text><polygon fill="#181818" points="36.3,931.9969,30.3,934.3969,36.3,936.7969,33.9,934.3969" style="stroke:#181818;stroke-width:0.6;"/><line style="stroke:#181818;stroke-width:0.6;stroke-dasharray:2.0,2.0;" x1="32.7" x2="303.3" y1="934.3969" y2="934.3969"/><text fill="#000000" font-family="sans-serif" font-size="7.8" font-weight="bold" lengthAdjust="spacing" textLength="8.4" x="39.9" y="931.2393">41</text><text fill="#000000" font-family="sans-serif" font-size="7.8" lengthAdjust="spacing" textLength="223.2" x="50.7" y="931.2393">shows all data and displays operation success or error message</text><!--SRC=[pLTDRziu4BtxLmnoiekqlVjGm8XzC906WPK4U-Y5bIOs4ObKIJgk__qEAPEYR5fIThV0wf98VFFcaVF1iNxZecQALL198VETaXM2KNkSwB1Ii_oDRJ4pnn91OMwOs9OnGEzO8GzSRE6LbHed4yCDGREZDbX1Xh_sA7A49MTR2vzcsN8scR2zaM9V_KH5_-T6AhXP51KNN1l5wFK6c8R5ylk4d1YUyve90pVp3Mu9WIhRrtN9KJsl7V1vVORpwtTI62NB4Xl2kwVD_HLaXkgTv-XWsUQbY_AWrUySQyEbSB3LNtTTs0PhgJcfvwWTOhDwpBeG5K5-Y7dAeckWJwu3yZZ_8RABZyxu4flcYXYQ_Ju_FjwlLvik-eMLl0YnU5dS-z3w880d2L5siUJlpA2B7T13V-7pDueGp8dcJOEHb4Od0WO23q6smmS2YgdxO1-o9WuRlK-VY2TNI8ZKCYrkqNXTUZeBcC3hSW2YnzcHFKNzkdc7mkP7PyK-rfnORCWRchNGL2mvdh5qc5o2dAywYi-DeZd46NC1BR2VgXNLtLgR8GFgKkAyDg9CP5o_nAldTidKA5wKPP_44G8Ip9SRw3tQ0ITk1sq2fYaZEfi-tUJp1N9f6fc5nBNfJXQsiiXa9mzKL3k4aceAv6jB0amKb3vKcjfeoALuvQfYjdrDpgXzhSN5Ui9RRcQ0-0_K5JvKld5v1hr13xKM1bF-1R_00wDxnugrxPeOO2rU9KmVTr8WFBXRmYslAiRBsMoCUdEiKNjdM3XllGARyCt3vdobJFtsrijR42Jq5cghgv5r2-WqVQpD_6ilexiHTUqvSErQ-PAEO3h4sc6sFVzyaRwrlSdE2b-RQx-dVDpLSU6aD7vWWCHpqazNB7cXmUG0NBo7NSoIDi6XlPXJ0FhUQWztEJnPVf6qY7PnZJIk_gOS0PMYWQP2hMboWkcwKUvoS9RURjG6nd0CI4t53PD7tTuF__try6TlXuxUrM-g9XqLqP-wCSQcVC99iWBSi3so03pdegJnfpYEsFF_kIZ2xCYQxOIMYCK_hP5Uod7r49sy7ugZYNDab-vZJIMoPkyjzK0KHsIlpotT_09pXvG43QMwRRK_cSOJnLMEuM1tcMRNgGPZVCwK8i5KSOxPS6UI6SZyaO58dCy7dCIJOlzHVO3qOZ89voQAoT0t_zxET7u4PMNPp7HsKYkuhajsr21hL6xa98bvJb44YcOdfgbfBdeb3ty3]--></g></svg>