<?xml version="1.0" encoding="us-ascii" standalone="no"?><svg xmlns="http://www.w3.org/2000/svg" xmlns:xlink="http://www.w3.org/1999/xlink" contentStyleType="text/css" height="597.1px" preserveAspectRatio="none" style="width:482px;height:597px;background:#FFFFFF;" version="1.1" viewBox="0 0 482 597" width="483px" zoomAndPan="magnify"><defs/><g><text fill="#000000" font-family="sans-serif" font-size="9.8" font-weight="bold" lengthAdjust="spacing" textLength="159.6" x="162.4" y="21.0752">System Sequence Diagram (SSD)</text><rect fill="#FFFFFF" height="439.4879" style="stroke:#181818;stroke-width:0.6999999999999998;" width="7" x="71.4" y="93.2695"/><rect fill="#FFFFFF" height="21.9037" style="stroke:#181818;stroke-width:0.6999999999999998;" width="7" x="326.2" y="109.5732"/><rect fill="#FFFFFF" height="71.3111" style="stroke:#181818;stroke-width:0.6999999999999998;" width="7" x="326.2" y="153.3807"/><rect fill="#FFFFFF" height="21.9037" style="stroke:#181818;stroke-width:0.6999999999999998;" width="7" x="326.2" y="280.1408"/><rect fill="#FFFFFF" height="71.3111" style="stroke:#181818;stroke-width:0.6999999999999998;" width="7" x="326.2" y="323.9482"/><rect fill="none" height="332.273" style="stroke:#000000;stroke-width:1.0499999999999998;" width="471.1" x="7" y="194.8844"/><rect fill="none" height="156.8055" style="stroke:#000000;stroke-width:1.0499999999999998;" width="389.2" x="14" y="365.452"/><rect fill="none" height="68.9527" style="stroke:#000000;stroke-width:1.0499999999999998;" width="338.1" x="21" y="448.4047"/><line style="stroke:#181818;stroke-width:0.3499999999999999;stroke-dasharray:5.0,5.0;" x1="74.9" x2="74.9" y1="86.2695" y2="539.0574"/><line style="stroke:#181818;stroke-width:0.3499999999999999;stroke-dasharray:5.0,5.0;" x1="329.7" x2="329.7" y1="86.2695" y2="539.0574"/><text fill="#000000" font-family="sans-serif" font-size="9.8" lengthAdjust="spacing" textLength="89.6" x="28" y="83.81">Production Manager</text><ellipse cx="74.9" cy="37.1848" fill="#E3E3E3" rx="5.6" ry="5.6" style="stroke:#181818;stroke-width:0.3499999999999999;"/><path d="M74.9,42.7848 L74.9,61.6848 M65.8,48.3848 L84,48.3848 M74.9,61.6848 L65.8,72.1848 M74.9,61.6848 L84,72.1848 " fill="none" style="stroke:#181818;stroke-width:0.3499999999999999;"/><text fill="#000000" font-family="sans-serif" font-size="9.8" lengthAdjust="spacing" textLength="89.6" x="28" y="548.9326">Production Manager</text><ellipse cx="74.9" cy="557.3422" fill="#E3E3E3" rx="5.6" ry="5.6" style="stroke:#181818;stroke-width:0.3499999999999999;"/><path d="M74.9,562.9422 L74.9,581.8422 M65.8,568.5422 L84,568.5422 M74.9,581.8422 L65.8,592.3422 M74.9,581.8422 L84,592.3422 " fill="none" style="stroke:#181818;stroke-width:0.3499999999999999;"/><rect fill="#E3E3E3" height="22.8348" rx="1.75" ry="1.75" style="stroke:#181818;stroke-width:0.3499999999999999;" width="44.8" x="307.3" y="62.7348"/><text fill="#000000" font-family="sans-serif" font-size="9.8" lengthAdjust="spacing" textLength="35" x="312.2" y="78.21">:System</text><rect fill="#E3E3E3" height="22.8348" rx="1.75" ry="1.75" style="stroke:#181818;stroke-width:0.3499999999999999;" width="44.8" x="307.3" y="538.3574"/><text fill="#000000" font-family="sans-serif" font-size="9.8" lengthAdjust="spacing" textLength="35" x="312.2" y="553.8326">:System</text><rect fill="#FFFFFF" height="439.4879" style="stroke:#181818;stroke-width:0.6999999999999998;" width="7" x="71.4" y="93.2695"/><rect fill="#FFFFFF" height="21.9037" style="stroke:#181818;stroke-width:0.6999999999999998;" width="7" x="326.2" y="109.5732"/><rect fill="#FFFFFF" height="71.3111" style="stroke:#181818;stroke-width:0.6999999999999998;" width="7" x="326.2" y="153.3807"/><rect fill="#FFFFFF" height="21.9037" style="stroke:#181818;stroke-width:0.6999999999999998;" width="7" x="326.2" y="280.1408"/><rect fill="#FFFFFF" height="71.3111" style="stroke:#181818;stroke-width:0.6999999999999998;" width="7" x="326.2" y="323.9482"/><polygon fill="#181818" points="317.8,106.7732,324.8,109.5732,317.8,112.3732,320.6,109.5732" style="stroke:#181818;stroke-width:0.6999999999999998;"/><line style="stroke:#181818;stroke-width:0.6999999999999998;" x1="78.4" x2="322" y1="109.5732" y2="109.5732"/><text fill="#000000" font-family="sans-serif" font-size="9.1" font-weight="bold" lengthAdjust="spacing" textLength="4.9" x="83.3" y="105.8894">1</text><text fill="#000000" font-family="sans-serif" font-size="9.1" lengthAdjust="spacing" textLength="93.1" x="91" y="105.8894">asks to delete an order</text><polygon fill="#181818" points="86.1,128.677,79.1,131.477,86.1,134.277,83.3,131.477" style="stroke:#181818;stroke-width:0.6999999999999998;"/><line style="stroke:#181818;stroke-width:0.6999999999999998;stroke-dasharray:2.0,2.0;" x1="81.9" x2="329" y1="131.477" y2="131.477"/><text fill="#000000" font-family="sans-serif" font-size="9.1" font-weight="bold" lengthAdjust="spacing" textLength="4.9" x="90.3" y="127.7931">2</text><text fill="#000000" font-family="sans-serif" font-size="9.1" lengthAdjust="spacing" textLength="184.8" x="98" y="127.7931">shows the list of clients and requests client id</text><polygon fill="#181818" points="317.8,150.5807,324.8,153.3807,317.8,156.1807,320.6,153.3807" style="stroke:#181818;stroke-width:0.6999999999999998;"/><line style="stroke:#181818;stroke-width:0.6999999999999998;" x1="78.4" x2="322" y1="153.3807" y2="153.3807"/><text fill="#000000" font-family="sans-serif" font-size="9.1" font-weight="bold" lengthAdjust="spacing" textLength="4.9" x="83.3" y="149.6968">3</text><text fill="#000000" font-family="sans-serif" font-size="9.1" lengthAdjust="spacing" textLength="109.9" x="91" y="149.6968">provides requested client id</text><line style="stroke:#181818;stroke-width:0.6999999999999998;" x1="333.2" x2="362.6" y1="175.2844" y2="175.2844"/><line style="stroke:#181818;stroke-width:0.6999999999999998;" x1="362.6" x2="362.6" y1="175.2844" y2="184.3844"/><line style="stroke:#181818;stroke-width:0.6999999999999998;" x1="333.9" x2="362.6" y1="184.3844" y2="184.3844"/><polygon fill="#181818" points="340.9,181.5844,333.9,184.3844,340.9,187.1844,338.1,184.3844" style="stroke:#181818;stroke-width:0.6999999999999998;"/><text fill="#000000" font-family="sans-serif" font-size="9.1" font-weight="bold" lengthAdjust="spacing" textLength="4.9" x="338.1" y="171.6005">4</text><text fill="#000000" font-family="sans-serif" font-size="9.1" lengthAdjust="spacing" textLength="120.4" x="345.8" y="171.6005">checks if client already exists</text><path d="M7,194.8844 L49.7,194.8844 L49.7,201.3881 L42.7,208.3881 L7,208.3881 L7,194.8844 " fill="#EEEEEE" style="stroke:#000000;stroke-width:1.0499999999999998;"/><rect fill="none" height="332.273" style="stroke:#000000;stroke-width:1.0499999999999998;" width="471.1" x="7" y="194.8844"/><text fill="#000000" font-family="sans-serif" font-size="9.1" font-weight="bold" lengthAdjust="spacing" textLength="11.2" x="17.5" y="205.4042">alt</text><text fill="#000000" font-family="sans-serif" font-size="7.7" font-weight="bold" lengthAdjust="spacing" textLength="84" x="60.2" y="204.5935">[client does not exist]</text><polygon fill="#181818" points="86.1,221.8918,79.1,224.6918,86.1,227.4918,83.3,224.6918" style="stroke:#181818;stroke-width:0.6999999999999998;"/><line style="stroke:#181818;stroke-width:0.6999999999999998;stroke-dasharray:2.0,2.0;" x1="81.9" x2="329" y1="224.6918" y2="224.6918"/><text fill="#000000" font-family="sans-serif" font-size="9.1" font-weight="bold" lengthAdjust="spacing" textLength="4.9" x="90.3" y="221.0079">5</text><text fill="#000000" font-family="sans-serif" font-size="9.1" lengthAdjust="spacing" textLength="178.5" x="98" y="221.0079">shows error message (Client does not exist)</text><line style="stroke:#000000;stroke-width:0.6999999999999998;stroke-dasharray:2.0,2.0;" x1="7" x2="478.1" y1="230.9918" y2="230.9918"/><text fill="#000000" font-family="sans-serif" font-size="7.7" font-weight="bold" lengthAdjust="spacing" textLength="52.5" x="10.5" y="239.3009">[client exists]</text><polygon fill="#181818" points="86.1,255.4371,79.1,258.2371,86.1,261.0371,83.3,258.2371" style="stroke:#181818;stroke-width:0.6999999999999998;"/><line style="stroke:#181818;stroke-width:0.6999999999999998;stroke-dasharray:2.0,2.0;" x1="81.9" x2="329" y1="258.2371" y2="258.2371"/><text fill="#000000" font-family="sans-serif" font-size="9.1" font-weight="bold" lengthAdjust="spacing" textLength="4.9" x="90.3" y="254.5532">6</text><text fill="#000000" font-family="sans-serif" font-size="9.1" lengthAdjust="spacing" textLength="214.2" x="98" y="254.5532">shows the client's order list and asks for confirmation</text><polygon fill="#181818" points="317.8,277.3408,324.8,280.1408,317.8,282.9408,320.6,280.1408" style="stroke:#181818;stroke-width:0.6999999999999998;"/><line style="stroke:#181818;stroke-width:0.6999999999999998;" x1="78.4" x2="322" y1="280.1408" y2="280.1408"/><text fill="#000000" font-family="sans-serif" font-size="9.1" font-weight="bold" lengthAdjust="spacing" textLength="4.9" x="83.3" y="276.4569">7</text><text fill="#000000" font-family="sans-serif" font-size="9.1" lengthAdjust="spacing" textLength="165.2" x="91" y="276.4569">confirms that he wants to delete an order</text><polygon fill="#181818" points="86.1,299.2445,79.1,302.0445,86.1,304.8445,83.3,302.0445" style="stroke:#181818;stroke-width:0.6999999999999998;"/><line style="stroke:#181818;stroke-width:0.6999999999999998;stroke-dasharray:2.0,2.0;" x1="81.9" x2="329" y1="302.0445" y2="302.0445"/><text fill="#000000" font-family="sans-serif" font-size="9.1" font-weight="bold" lengthAdjust="spacing" textLength="4.9" x="90.3" y="298.3606">8</text><text fill="#000000" font-family="sans-serif" font-size="9.1" lengthAdjust="spacing" textLength="67.9" x="98" y="298.3606">requests order id</text><polygon fill="#181818" points="317.8,321.1482,324.8,323.9482,317.8,326.7482,320.6,323.9482" style="stroke:#181818;stroke-width:0.6999999999999998;"/><line style="stroke:#181818;stroke-width:0.6999999999999998;" x1="78.4" x2="322" y1="323.9482" y2="323.9482"/><text fill="#000000" font-family="sans-serif" font-size="9.1" font-weight="bold" lengthAdjust="spacing" textLength="4.9" x="83.3" y="320.2644">9</text><text fill="#000000" font-family="sans-serif" font-size="9.1" lengthAdjust="spacing" textLength="108.5" x="91" y="320.2644">provides requested order id</text><line style="stroke:#181818;stroke-width:0.6999999999999998;" x1="333.2" x2="362.6" y1="345.852" y2="345.852"/><line style="stroke:#181818;stroke-width:0.6999999999999998;" x1="362.6" x2="362.6" y1="345.852" y2="354.952"/><line style="stroke:#181818;stroke-width:0.6999999999999998;" x1="333.9" x2="362.6" y1="354.952" y2="354.952"/><polygon fill="#181818" points="340.9,352.152,333.9,354.952,340.9,357.752,338.1,354.952" style="stroke:#181818;stroke-width:0.6999999999999998;"/><text fill="#000000" font-family="sans-serif" font-size="9.1" font-weight="bold" lengthAdjust="spacing" textLength="9.8" x="338.1" y="342.1681">10</text><text fill="#000000" font-family="sans-serif" font-size="9.1" lengthAdjust="spacing" textLength="119" x="350.7" y="342.1681">checks if order already exists</text><path d="M14,365.452 L56.7,365.452 L56.7,371.9557 L49.7,378.9557 L14,378.9557 L14,365.452 " fill="#EEEEEE" style="stroke:#000000;stroke-width:1.0499999999999998;"/><rect fill="none" height="156.8055" style="stroke:#000000;stroke-width:1.0499999999999998;" width="389.2" x="14" y="365.452"/><text fill="#000000" font-family="sans-serif" font-size="9.1" font-weight="bold" lengthAdjust="spacing" textLength="11.2" x="24.5" y="375.9718">alt</text><text fill="#000000" font-family="sans-serif" font-size="7.7" font-weight="bold" lengthAdjust="spacing" textLength="84.7" x="67.2" y="375.161">[order does not exist]</text><polygon fill="#181818" points="86.1,392.4594,79.1,395.2594,86.1,398.0594,83.3,395.2594" style="stroke:#181818;stroke-width:0.6999999999999998;"/><line style="stroke:#181818;stroke-width:0.6999999999999998;stroke-dasharray:2.0,2.0;" x1="81.9" x2="329" y1="395.2594" y2="395.2594"/><text fill="#000000" font-family="sans-serif" font-size="9.1" font-weight="bold" lengthAdjust="spacing" textLength="9.8" x="90.3" y="391.5755">11</text><text fill="#000000" font-family="sans-serif" font-size="9.1" lengthAdjust="spacing" textLength="177.8" x="102.9" y="391.5755">shows error message (Order does not exist)</text><line style="stroke:#000000;stroke-width:0.6999999999999998;stroke-dasharray:2.0,2.0;" x1="14" x2="403.2" y1="401.5594" y2="401.5594"/><text fill="#000000" font-family="sans-serif" font-size="7.7" font-weight="bold" lengthAdjust="spacing" textLength="53.2" x="17.5" y="409.8685">[order exists]</text><line style="stroke:#181818;stroke-width:0.6999999999999998;" x1="329.7" x2="359.1" y1="428.8047" y2="428.8047"/><line style="stroke:#181818;stroke-width:0.6999999999999998;" x1="359.1" x2="359.1" y1="428.8047" y2="437.9047"/><line style="stroke:#181818;stroke-width:0.6999999999999998;" x1="330.4" x2="359.1" y1="437.9047" y2="437.9047"/><polygon fill="#181818" points="337.4,435.1047,330.4,437.9047,337.4,440.7047,334.6,437.9047" style="stroke:#181818;stroke-width:0.6999999999999998;"/><text fill="#000000" font-family="sans-serif" font-size="9.1" font-weight="bold" lengthAdjust="spacing" textLength="9.8" x="334.6" y="425.1208">12</text><text fill="#000000" font-family="sans-serif" font-size="9.1" lengthAdjust="spacing" textLength="47.6" x="347.2" y="425.1208">delete order</text><path d="M21,448.4047 L63.7,448.4047 L63.7,454.9084 L56.7,461.9084 L21,461.9084 L21,448.4047 " fill="#EEEEEE" style="stroke:#000000;stroke-width:1.0499999999999998;"/><rect fill="none" height="68.9527" style="stroke:#000000;stroke-width:1.0499999999999998;" width="338.1" x="21" y="448.4047"/><text fill="#000000" font-family="sans-serif" font-size="9.1" font-weight="bold" lengthAdjust="spacing" textLength="11.2" x="31.5" y="458.9245">alt</text><text fill="#000000" font-family="sans-serif" font-size="7.7" font-weight="bold" lengthAdjust="spacing" textLength="57.4" x="74.2" y="458.1138">[system error]</text><polygon fill="#181818" points="86.1,475.4121,79.1,478.2121,86.1,481.0121,83.3,478.2121" style="stroke:#181818;stroke-width:0.6999999999999998;"/><line style="stroke:#181818;stroke-width:0.6999999999999998;stroke-dasharray:2.0,2.0;" x1="81.9" x2="329" y1="478.2121" y2="478.2121"/><text fill="#000000" font-family="sans-serif" font-size="9.1" font-weight="bold" lengthAdjust="spacing" textLength="9.8" x="90.3" y="474.5282">13</text><text fill="#000000" font-family="sans-serif" font-size="9.1" lengthAdjust="spacing" textLength="154.7" x="102.9" y="474.5282">shows error message (Database error)</text><line style="stroke:#000000;stroke-width:0.6999999999999998;stroke-dasharray:2.0,2.0;" x1="21" x2="359.1" y1="484.5121" y2="484.5121"/><text fill="#000000" font-family="sans-serif" font-size="7.7" font-weight="bold" lengthAdjust="spacing" textLength="38.5" x="24.5" y="492.8212">[success]</text><polygon fill="#181818" points="86.1,508.9574,79.1,511.7574,86.1,514.5574,83.3,511.7574" style="stroke:#181818;stroke-width:0.6999999999999998;"/><line style="stroke:#181818;stroke-width:0.6999999999999998;stroke-dasharray:2.0,2.0;" x1="81.9" x2="329" y1="511.7574" y2="511.7574"/><text fill="#000000" font-family="sans-serif" font-size="9.1" font-weight="bold" lengthAdjust="spacing" textLength="9.8" x="90.3" y="508.0735">14</text><text fill="#000000" font-family="sans-serif" font-size="9.1" lengthAdjust="spacing" textLength="221.9" x="102.9" y="508.0735">shows all data of order and displays operation success</text><!--SRC=[hPJ1Sgim34NtV8KccpQB_a0MRzDiCoypV85gAuadngQMQ5x-lW83RHF8IwTbPV3rqHLNm4SNQanOGHL3D8SKAm993HKyxjHeZhYdKiwU894H37l_MS07jF7amXvsw9cAGfoej3opK0KblJOK3C7QuRwLFvRbUbaKs4WCJVL2ITT6OeB5DaNR674nm0Q3ramBG8Rjfj12ueohCGWiLfdSxULbHt1lADIA2z1hku6dFuE7bKgF31B1aYTLOO2Oh9PkfUFP0GRzrPz-Kf3YLjfeF2dbGE0T2yGT6Eye22lFwglHHbblyaDmjWDPckHV-AjJV7EMUA2GlS1CGWQ3dq3cG4PRTOCtG9y8xHdedthciJVqCYXirBeXIfQCYjjlWLBIo2fYrfpWyNaAjVp2kduHmmxfr0ncUfjtP90FF71ECaVIvj15lLDp9eQTInMs0_MDAFfZRH4Kq48dR2F-wV2Cuv7j_dGwlb1cJVntI39cPaQ6EScYtnYJlnEavHLgVbB6QScM9lpETDn7zv7RPO-SbPtVAy7T_QrHy0NLN_TyEGcwtTtO8JV6AFORNj1xi6gW_J7rkUhdO1tN7iywTpMbxbkuYRx3NR35tBsktm40]--></g></svg>