<?xml version="1.0" encoding="us-ascii" standalone="no"?><svg xmlns="http://www.w3.org/2000/svg" xmlns:xlink="http://www.w3.org/1999/xlink" contentStyleType="text/css" height="414px" preserveAspectRatio="none" style="width:710px;height:414px;background:#FFFFFF;" version="1.1" viewBox="0 0 710 414" width="710px" zoomAndPan="magnify"><defs/><g><text fill="#000000" font-family="sans-serif" font-size="14" font-weight="bold" lengthAdjust="spacing" textLength="228" x="243" y="30.1074">System Sequence Diagram (SSD)</text><rect fill="#FFFFFF" height="189.0859" style="stroke:#181818;stroke-width:1.0;" width="10" x="82" y="133.2422"/><rect fill="#FFFFFF" height="101.873" style="stroke:#181818;stroke-width:1.0;" width="10" x="348" y="156.5332"/><rect fill="none" height="98.5039" style="stroke:#000000;stroke-width:1.5;" width="385" x="10" y="215.8242"/><line style="stroke:#181818;stroke-width:0.5;stroke-dasharray:5.0,5.0;" x1="87" x2="87" y1="123.2422" y2="331.3281"/><line style="stroke:#181818;stroke-width:0.5;stroke-dasharray:5.0,5.0;" x1="353" x2="353" y1="123.2422" y2="331.3281"/><text fill="#000000" font-family="sans-serif" font-size="14" lengthAdjust="spacing" textLength="128" x="20" y="119.7285">Production Manager</text><ellipse cx="87" cy="53.1211" fill="#E3E3E3" rx="8" ry="8" style="stroke:#181818;stroke-width:0.5;"/><path d="M87,61.1211 L87,88.1211 M74,69.1211 L100,69.1211 M87,88.1211 L74,103.1211 M87,88.1211 L100,103.1211 " fill="none" style="stroke:#181818;stroke-width:0.5;"/><text fill="#000000" font-family="sans-serif" font-size="14" lengthAdjust="spacing" textLength="128" x="20" y="345.4355">Production Manager</text><ellipse cx="87" cy="357.4492" fill="#E3E3E3" rx="8" ry="8" style="stroke:#181818;stroke-width:0.5;"/><path d="M87,365.4492 L87,392.4492 M74,373.4492 L100,373.4492 M87,392.4492 L74,407.4492 M87,392.4492 L100,407.4492 " fill="none" style="stroke:#181818;stroke-width:0.5;"/><rect fill="#E3E3E3" height="32.6211" rx="2.5" ry="2.5" style="stroke:#181818;stroke-width:0.5;" width="64" x="321" y="89.6211"/><text fill="#000000" font-family="sans-serif" font-size="14" lengthAdjust="spacing" textLength="50" x="328" y="111.7285">:System</text><rect fill="#E3E3E3" height="32.6211" rx="2.5" ry="2.5" style="stroke:#181818;stroke-width:0.5;" width="64" x="321" y="330.3281"/><text fill="#000000" font-family="sans-serif" font-size="14" lengthAdjust="spacing" textLength="50" x="328" y="352.4355">:System</text><rect fill="#FFFFFF" height="189.0859" style="stroke:#181818;stroke-width:1.0;" width="10" x="82" y="133.2422"/><rect fill="#FFFFFF" height="101.873" style="stroke:#181818;stroke-width:1.0;" width="10" x="348" y="156.5332"/><polygon fill="#181818" points="336,152.5332,346,156.5332,336,160.5332,340,156.5332" style="stroke:#181818;stroke-width:1.0;"/><line style="stroke:#181818;stroke-width:1.0;" x1="92" x2="342" y1="156.5332" y2="156.5332"/><text fill="#000000" font-family="sans-serif" font-size="13" font-weight="bold" lengthAdjust="spacing" textLength="7" x="99" y="151.2705">1</text><text fill="#000000" font-family="sans-serif" font-size="13" lengthAdjust="spacing" textLength="164" x="110" y="151.2705">requests active supply offers</text><line style="stroke:#181818;stroke-width:1.0;" x1="358" x2="400" y1="187.8242" y2="187.8242"/><line style="stroke:#181818;stroke-width:1.0;" x1="400" x2="400" y1="187.8242" y2="200.8242"/><line style="stroke:#181818;stroke-width:1.0;" x1="359" x2="400" y1="200.8242" y2="200.8242"/><polygon fill="#181818" points="369,196.8242,359,200.8242,369,204.8242,365,200.8242" style="stroke:#181818;stroke-width:1.0;"/><text fill="#000000" font-family="sans-serif" font-size="13" font-weight="bold" lengthAdjust="spacing" textLength="7" x="365" y="182.5615">2</text><text fill="#000000" font-family="sans-serif" font-size="13" lengthAdjust="spacing" textLength="327" x="376" y="182.5615">retrieves supply offers with a end date after the start date</text><path d="M10,215.8242 L71,215.8242 L71,225.1152 L61,235.1152 L10,235.1152 L10,215.8242 " fill="#EEEEEE" style="stroke:#000000;stroke-width:1.5;"/><rect fill="none" height="98.5039" style="stroke:#000000;stroke-width:1.5;" width="385" x="10" y="215.8242"/><text fill="#000000" font-family="sans-serif" font-size="13" font-weight="bold" lengthAdjust="spacing" textLength="16" x="25" y="230.8525">alt</text><text fill="#000000" font-family="sans-serif" font-size="11" font-weight="bold" lengthAdjust="spacing" textLength="82" x="86" y="229.6943">[system error]</text><polygon fill="#181818" points="103,254.4063,93,258.4063,103,262.4063,99,258.4063" style="stroke:#181818;stroke-width:1.0;"/><line style="stroke:#181818;stroke-width:1.0;stroke-dasharray:2.0,2.0;" x1="97" x2="352" y1="258.4063" y2="258.4063"/><text fill="#000000" font-family="sans-serif" font-size="13" font-weight="bold" lengthAdjust="spacing" textLength="7" x="109" y="253.1436">3</text><text fill="#000000" font-family="sans-serif" font-size="13" lengthAdjust="spacing" textLength="221" x="120" y="253.1436">shows error message (Database error)</text><line style="stroke:#000000;stroke-width:1.0;stroke-dasharray:2.0,2.0;" x1="10" x2="395" y1="267.4063" y2="267.4063"/><text fill="#000000" font-family="sans-serif" font-size="11" font-weight="bold" lengthAdjust="spacing" textLength="55" x="15" y="279.2764">[success]</text><polygon fill="#181818" points="103,302.3281,93,306.3281,103,310.3281,99,306.3281" style="stroke:#181818;stroke-width:1.0;"/><line style="stroke:#181818;stroke-width:1.0;stroke-dasharray:2.0,2.0;" x1="97" x2="352" y1="306.3281" y2="306.3281"/><text fill="#000000" font-family="sans-serif" font-size="13" font-weight="bold" lengthAdjust="spacing" textLength="7" x="109" y="301.0654">4</text><text fill="#000000" font-family="sans-serif" font-size="13" lengthAdjust="spacing" textLength="208" x="120" y="301.0654">shows the list of active supply offers</text><!--SRC=[XP51ReD034NtSmehgsJH2x38YYqI4YTm1WEZm0orJH2thu469PNQiXhz-Nx_Zv5xY2Co3Z2ac7p7QI1GdiZ9SJEYlsDBbIuz0PDNZ6t_Qf0EwpI7s4A3lP1p6jIirI9A0rJqEL7q17d0ThMVgog_E8UJfZWDDs8xUqqCfv9JFNaDAKA1qJBv12XG5iw2DFWmObGuPJjvkzkF6o4yK6arEx2lBE3Z-koGMMzh8Igm6Gba6iT-WTGqnB8D78GdSXM_vzz9oe4U9EyCc8DsW42nXdh5OAF4e9rbgRNVn1sAlOBiE69El8clQHPdzJDRR9fbzy108hOHEEUeU4EXNRySmpNzVC6galqGA-gzZV-JirRjWwWzwFSj_P4KQ_S5]--></g></svg>