<?xml version="1.0" encoding="us-ascii" standalone="no"?><svg xmlns="http://www.w3.org/2000/svg" xmlns:xlink="http://www.w3.org/1999/xlink" contentStyleType="text/css" height="414px" preserveAspectRatio="none" style="width:614px;height:414px;background:#FFFFFF;" version="1.1" viewBox="0 0 614 414" width="614px" zoomAndPan="magnify"><defs/><g><text fill="#000000" font-family="sans-serif" font-size="14" font-weight="bold" lengthAdjust="spacing" textLength="228" x="195" y="30.1074">System Sequence Diagram (SSD)</text><rect fill="#FFFFFF" height="189.0859" style="stroke:#181818;stroke-width:1.0;" width="10" x="82" y="133.2422"/><rect fill="#FFFFFF" height="101.873" style="stroke:#181818;stroke-width:1.0;" width="10" x="356" y="156.5332"/><rect fill="none" height="98.5039" style="stroke:#000000;stroke-width:1.5;" width="393" x="10" y="215.8242"/><line style="stroke:#181818;stroke-width:0.5;stroke-dasharray:5.0,5.0;" x1="87" x2="87" y1="123.2422" y2="331.3281"/><line style="stroke:#181818;stroke-width:0.5;stroke-dasharray:5.0,5.0;" x1="361" x2="361" y1="123.2422" y2="331.3281"/><text fill="#000000" font-family="sans-serif" font-size="14" lengthAdjust="spacing" textLength="128" x="20" y="119.7285">Production Manager</text><ellipse cx="87" cy="53.1211" fill="#E3E3E3" rx="8" ry="8" style="stroke:#181818;stroke-width:0.5;"/><path d="M87,61.1211 L87,88.1211 M74,69.1211 L100,69.1211 M87,88.1211 L74,103.1211 M87,88.1211 L100,103.1211 " fill="none" style="stroke:#181818;stroke-width:0.5;"/><text fill="#000000" font-family="sans-serif" font-size="14" lengthAdjust="spacing" textLength="128" x="20" y="345.4355">Production Manager</text><ellipse cx="87" cy="357.4492" fill="#E3E3E3" rx="8" ry="8" style="stroke:#181818;stroke-width:0.5;"/><path d="M87,365.4492 L87,392.4492 M74,373.4492 L100,373.4492 M87,392.4492 L74,407.4492 M87,392.4492 L100,407.4492 " fill="none" style="stroke:#181818;stroke-width:0.5;"/><rect fill="#E3E3E3" height="32.6211" rx="2.5" ry="2.5" style="stroke:#181818;stroke-width:0.5;" width="64" x="329" y="89.6211"/><text fill="#000000" font-family="sans-serif" font-size="14" lengthAdjust="spacing" textLength="50" x="336" y="111.7285">:System</text><rect fill="#E3E3E3" height="32.6211" rx="2.5" ry="2.5" style="stroke:#181818;stroke-width:0.5;" width="64" x="329" y="330.3281"/><text fill="#000000" font-family="sans-serif" font-size="14" lengthAdjust="spacing" textLength="50" x="336" y="352.4355">:System</text><rect fill="#FFFFFF" height="189.0859" style="stroke:#181818;stroke-width:1.0;" width="10" x="82" y="133.2422"/><rect fill="#FFFFFF" height="101.873" style="stroke:#181818;stroke-width:1.0;" width="10" x="356" y="156.5332"/><polygon fill="#181818" points="344,152.5332,354,156.5332,344,160.5332,348,156.5332" style="stroke:#181818;stroke-width:1.0;"/><line style="stroke:#181818;stroke-width:1.0;" x1="92" x2="350" y1="156.5332" y2="156.5332"/><text fill="#000000" font-family="sans-serif" font-size="13" font-weight="bold" lengthAdjust="spacing" textLength="7" x="99" y="151.2705">1</text><text fill="#000000" font-family="sans-serif" font-size="13" lengthAdjust="spacing" textLength="204" x="110" y="151.2705">requests raw materials low in stock</text><line style="stroke:#181818;stroke-width:1.0;" x1="366" x2="408" y1="187.8242" y2="187.8242"/><line style="stroke:#181818;stroke-width:1.0;" x1="408" x2="408" y1="187.8242" y2="200.8242"/><line style="stroke:#181818;stroke-width:1.0;" x1="367" x2="408" y1="200.8242" y2="200.8242"/><polygon fill="#181818" points="377,196.8242,367,200.8242,377,204.8242,373,200.8242" style="stroke:#181818;stroke-width:1.0;"/><text fill="#000000" font-family="sans-serif" font-size="13" font-weight="bold" lengthAdjust="spacing" textLength="7" x="373" y="182.5615">2</text><text fill="#000000" font-family="sans-serif" font-size="13" lengthAdjust="spacing" textLength="223" x="384" y="182.5615">retrieves raw materials below threshold</text><path d="M10,215.8242 L71,215.8242 L71,225.1152 L61,235.1152 L10,235.1152 L10,215.8242 " fill="#EEEEEE" style="stroke:#000000;stroke-width:1.5;"/><rect fill="none" height="98.5039" style="stroke:#000000;stroke-width:1.5;" width="393" x="10" y="215.8242"/><text fill="#000000" font-family="sans-serif" font-size="13" font-weight="bold" lengthAdjust="spacing" textLength="16" x="25" y="230.8525">alt</text><text fill="#000000" font-family="sans-serif" font-size="11" font-weight="bold" lengthAdjust="spacing" textLength="82" x="86" y="229.6943">[system error]</text><polygon fill="#181818" points="103,254.4063,93,258.4063,103,262.4063,99,258.4063" style="stroke:#181818;stroke-width:1.0;"/><line style="stroke:#181818;stroke-width:1.0;stroke-dasharray:2.0,2.0;" x1="97" x2="360" y1="258.4063" y2="258.4063"/><text fill="#000000" font-family="sans-serif" font-size="13" font-weight="bold" lengthAdjust="spacing" textLength="7" x="109" y="253.1436">3</text><text fill="#000000" font-family="sans-serif" font-size="13" lengthAdjust="spacing" textLength="221" x="120" y="253.1436">shows error message (Database error)</text><line style="stroke:#000000;stroke-width:1.0;stroke-dasharray:2.0,2.0;" x1="10" x2="403" y1="267.4063" y2="267.4063"/><text fill="#000000" font-family="sans-serif" font-size="11" font-weight="bold" lengthAdjust="spacing" textLength="55" x="15" y="279.2764">[success]</text><polygon fill="#181818" points="103,302.3281,93,306.3281,103,310.3281,99,306.3281" style="stroke:#181818;stroke-width:1.0;"/><line style="stroke:#181818;stroke-width:1.0;stroke-dasharray:2.0,2.0;" x1="97" x2="360" y1="306.3281" y2="306.3281"/><text fill="#000000" font-family="sans-serif" font-size="13" font-weight="bold" lengthAdjust="spacing" textLength="7" x="109" y="301.0654">4</text><text fill="#000000" font-family="sans-serif" font-size="13" lengthAdjust="spacing" textLength="234" x="120" y="301.0654">shows the list of low stock raw materials</text><!--SRC=[XP51Zi8m34NtEON52XPp0HQis28XzGGcDMr44ZEsIyNjnsq716p8AhB_V_vnz9Bg5GKB5AuSU-52O39Gq6VdYl627JLspmH2qR1s-LMWFROyfjh16RDI29RCfSrTZGeqz3jGZGJxXDqaNpVDVXC23iPrA2SIlqTZWTLHk1sY9QvmmEepPGMeS3m47sGffYjMWzLs8S-zvJeJqWsD9d40FyS3_EmU6RQUsrEeAGYEK5meoRD2vX5I1JMEbzdsv3p0K_6VyiupINIZJ-299gJrGjfpRXS_PWDTd2J2CXTVmKxsl5lV98-wQA2Gggy0rdiqFA7IKjyypIrzXfsgv3y0EiJezYzph2V8IGtuF2zYtiBxUxuDgstu0m00]--></g></svg>