<?xml version="1.0" encoding="us-ascii" standalone="no"?><svg xmlns="http://www.w3.org/2000/svg" xmlns:xlink="http://www.w3.org/1999/xlink" contentStyleType="text/css" height="1385px" preserveAspectRatio="none" style="width:1500px;height:1385px;background:#FFFFFF;" version="1.1" viewBox="0 0 1500 1385" width="1500px" zoomAndPan="magnify"><defs/><g><!--cluster UI--><g id="cluster_UI"><rect fill="none" height="101" rx="2.5" ry="2.5" style="stroke:#000000;stroke-width:1.5;" width="192" x="779" y="7"/><text fill="#000000" font-family="sans-serif" font-size="14" font-weight="bold" lengthAdjust="spacing" textLength="14" x="868" y="24.1074">UI</text></g><!--cluster Controller--><g id="cluster_Controller"><rect fill="none" height="157" rx="2.5" ry="2.5" style="stroke:#000000;stroke-width:1.5;" width="572" x="589" y="141"/><text fill="#000000" font-family="sans-serif" font-size="14" font-weight="bold" lengthAdjust="spacing" textLength="71" x="839.5" y="158.1074">Controller</text></g><!--cluster Service--><g id="cluster_Service"><rect fill="none" height="175" rx="2.5" ry="2.5" style="stroke:#000000;stroke-width:1.5;" width="572" x="589" y="331"/><text fill="#000000" font-family="sans-serif" font-size="14" font-weight="bold" lengthAdjust="spacing" textLength="54" x="848" y="348.1074">Service</text></g><!--cluster Repository--><g id="cluster_Repository"><rect fill="none" height="376" rx="2.5" ry="2.5" style="stroke:#000000;stroke-width:1.5;" width="637" x="7" y="557"/><text fill="#000000" font-family="sans-serif" font-size="14" font-weight="bold" lengthAdjust="spacing" textLength="76" x="287.5" y="574.1074">Repository</text></g><!--cluster Model--><g id="cluster_Model"><rect fill="none" height="395" rx="2.5" ry="2.5" style="stroke:#000000;stroke-width:1.5;" width="402" x="998" y="984"/><text fill="#000000" font-family="sans-serif" font-size="14" font-weight="bold" lengthAdjust="spacing" textLength="44" x="1177" y="1001.1074">Model</text></g><!--cluster Exception--><g id="cluster_Exception"><rect fill="none" height="330" rx="2.5" ry="2.5" style="stroke:#000000;stroke-width:1.5;" width="416" x="911" y="566"/><text fill="#000000" font-family="sans-serif" font-size="14" font-weight="bold" lengthAdjust="spacing" textLength="70" x="1084" y="583.1074">Exception</text></g><!--class RegisterOperationUI--><g id="elem_RegisterOperationUI"><rect codeLine="7" fill="#F1F1F1" height="48" id="RegisterOperationUI" rx="2.5" ry="2.5" style="stroke:#181818;stroke-width:0.5;" width="160" x="795" y="44"/><ellipse cx="810" cy="60" fill="#ADD1B2" rx="11" ry="11" style="stroke:#181818;stroke-width:1.0;"/><path d="M812.7656,55.875 Q812.9219,55.6563 813.1094,55.5469 Q813.2969,55.4375 813.5156,55.4375 Q813.8906,55.4375 814.125,55.7031 Q814.3594,55.9531 814.3594,56.5625 L814.3594,58.0156 Q814.3594,58.625 814.125,58.8906 Q813.8906,59.1563 813.5156,59.1563 Q813.1719,59.1563 812.9688,58.9531 Q812.7656,58.7656 812.6563,58.25 Q812.6094,57.8906 812.4219,57.7031 Q812.0938,57.3281 811.4844,57.1094 Q810.875,56.8906 810.25,56.8906 Q809.4844,56.8906 808.8438,57.2188 Q808.2188,57.5469 807.7188,58.2969 Q807.2344,59.0469 807.2344,60.0781 L807.2344,61.1719 Q807.2344,62.4063 808.125,63.2344 Q809.0156,64.0469 810.6094,64.0469 Q811.5469,64.0469 812.2031,63.7969 Q812.5938,63.6406 813.0156,63.2031 Q813.2813,62.9375 813.4219,62.8594 Q813.5781,62.7813 813.7813,62.7813 Q814.1094,62.7813 814.3594,63.0469 Q814.625,63.2969 814.625,63.6406 Q814.625,63.9844 814.2813,64.3906 Q813.7813,64.9688 812.9844,65.2969 Q811.9063,65.75 810.6094,65.75 Q809.0938,65.75 807.8906,65.125 Q806.9063,64.625 806.2188,63.5625 Q805.5313,62.4844 805.5313,61.2031 L805.5313,60.0469 Q805.5313,58.7188 806.1406,57.5781 Q806.7656,56.4219 807.8594,55.8125 Q808.9531,55.1875 810.1875,55.1875 Q810.9219,55.1875 811.5625,55.3594 Q812.2188,55.5156 812.7656,55.875 Z " fill="#000000"/><text fill="#000000" font-family="sans-serif" font-size="14" lengthAdjust="spacing" textLength="128" x="824" y="65.7969">RegisterOperationUI</text><line style="stroke:#181818;stroke-width:0.5;" x1="796" x2="954" y1="76" y2="76"/><line style="stroke:#181818;stroke-width:0.5;" x1="796" x2="954" y1="84" y2="84"/></g><!--class OperationController--><g id="elem_OperationController"><rect codeLine="12" fill="#F1F1F1" height="103.8633" id="OperationController" rx="2.5" ry="2.5" style="stroke:#181818;stroke-width:0.5;" width="540" x="605" y="178"/><ellipse cx="808.25" cy="194" fill="#ADD1B2" rx="11" ry="11" style="stroke:#181818;stroke-width:1.0;"/><path d="M811.0156,189.875 Q811.1719,189.6563 811.3594,189.5469 Q811.5469,189.4375 811.7656,189.4375 Q812.1406,189.4375 812.375,189.7031 Q812.6094,189.9531 812.6094,190.5625 L812.6094,192.0156 Q812.6094,192.625 812.375,192.8906 Q812.1406,193.1563 811.7656,193.1563 Q811.4219,193.1563 811.2188,192.9531 Q811.0156,192.7656 810.9063,192.25 Q810.8594,191.8906 810.6719,191.7031 Q810.3438,191.3281 809.7344,191.1094 Q809.125,190.8906 808.5,190.8906 Q807.7344,190.8906 807.0938,191.2188 Q806.4688,191.5469 805.9688,192.2969 Q805.4844,193.0469 805.4844,194.0781 L805.4844,195.1719 Q805.4844,196.4063 806.375,197.2344 Q807.2656,198.0469 808.8594,198.0469 Q809.7969,198.0469 810.4531,197.7969 Q810.8438,197.6406 811.2656,197.2031 Q811.5313,196.9375 811.6719,196.8594 Q811.8281,196.7813 812.0313,196.7813 Q812.3594,196.7813 812.6094,197.0469 Q812.875,197.2969 812.875,197.6406 Q812.875,197.9844 812.5313,198.3906 Q812.0313,198.9688 811.2344,199.2969 Q810.1563,199.75 808.8594,199.75 Q807.3438,199.75 806.1406,199.125 Q805.1563,198.625 804.4688,197.5625 Q803.7813,196.4844 803.7813,195.2031 L803.7813,194.0469 Q803.7813,192.7188 804.3906,191.5781 Q805.0156,190.4219 806.1094,189.8125 Q807.2031,189.1875 808.4375,189.1875 Q809.1719,189.1875 809.8125,189.3594 Q810.4688,189.5156 811.0156,189.875 Z " fill="#000000"/><text fill="#000000" font-family="sans-serif" font-size="14" lengthAdjust="spacing" textLength="125" x="828.75" y="199.7969">OperationController</text><line style="stroke:#181818;stroke-width:0.5;" x1="606" x2="1144" y1="210" y2="210"/><line style="stroke:#181818;stroke-width:0.5;" x1="606" x2="1144" y1="218" y2="218"/><text fill="#000000" font-family="sans-serif" font-size="14" lengthAdjust="spacing" textLength="285" x="611" y="237.1074">+getOperationTypes() : List&lt;OperationType&gt;</text><text fill="#000000" font-family="sans-serif" font-size="14" lengthAdjust="spacing" textLength="379" x="611" y="255.7285">+registerOperationType(typeID, typeName) : OperationType</text><text fill="#000000" font-family="sans-serif" font-size="14" lengthAdjust="spacing" textLength="528" x="611" y="274.3496">+registerOperation(operationID, operationName, executionTime, typeID) : Operation</text></g><!--class OperationService--><g id="elem_OperationService"><rect codeLine="20" fill="#F1F1F1" height="122.4844" id="OperationService" rx="2.5" ry="2.5" style="stroke:#181818;stroke-width:0.5;" width="540" x="605" y="368"/><ellipse cx="815.75" cy="384" fill="#ADD1B2" rx="11" ry="11" style="stroke:#181818;stroke-width:1.0;"/><path d="M818.5156,379.875 Q818.6719,379.6563 818.8594,379.5469 Q819.0469,379.4375 819.2656,379.4375 Q819.6406,379.4375 819.875,379.7031 Q820.1094,379.9531 820.1094,380.5625 L820.1094,382.0156 Q820.1094,382.625 819.875,382.8906 Q819.6406,383.1563 819.2656,383.1563 Q818.9219,383.1563 818.7188,382.9531 Q818.5156,382.7656 818.4063,382.25 Q818.3594,381.8906 818.1719,381.7031 Q817.8438,381.3281 817.2344,381.1094 Q816.625,380.8906 816,380.8906 Q815.2344,380.8906 814.5938,381.2188 Q813.9688,381.5469 813.4688,382.2969 Q812.9844,383.0469 812.9844,384.0781 L812.9844,385.1719 Q812.9844,386.4063 813.875,387.2344 Q814.7656,388.0469 816.3594,388.0469 Q817.2969,388.0469 817.9531,387.7969 Q818.3438,387.6406 818.7656,387.2031 Q819.0313,386.9375 819.1719,386.8594 Q819.3281,386.7813 819.5313,386.7813 Q819.8594,386.7813 820.1094,387.0469 Q820.375,387.2969 820.375,387.6406 Q820.375,387.9844 820.0313,388.3906 Q819.5313,388.9688 818.7344,389.2969 Q817.6563,389.75 816.3594,389.75 Q814.8438,389.75 813.6406,389.125 Q812.6563,388.625 811.9688,387.5625 Q811.2813,386.4844 811.2813,385.2031 L811.2813,384.0469 Q811.2813,382.7188 811.8906,381.5781 Q812.5156,380.4219 813.6094,379.8125 Q814.7031,379.1875 815.9375,379.1875 Q816.6719,379.1875 817.3125,379.3594 Q817.9688,379.5156 818.5156,379.875 Z " fill="#000000"/><text fill="#000000" font-family="sans-serif" font-size="14" lengthAdjust="spacing" textLength="110" x="836.25" y="389.7969">OperationService</text><line style="stroke:#181818;stroke-width:0.5;" x1="606" x2="1144" y1="400" y2="400"/><line style="stroke:#181818;stroke-width:0.5;" x1="606" x2="1144" y1="408" y2="408"/><text fill="#000000" font-family="sans-serif" font-size="14" lengthAdjust="spacing" textLength="285" x="611" y="427.1074">+getOperationTypes() : List&lt;OperationType&gt;</text><text fill="#000000" font-family="sans-serif" font-size="14" lengthAdjust="spacing" textLength="379" x="611" y="445.7285">+registerOperationType(typeID, typeName) : OperationType</text><text fill="#000000" font-family="sans-serif" font-size="14" lengthAdjust="spacing" textLength="306" x="611" y="464.3496">-getOperationTypeByID(typeID) : OperationType</text><text fill="#000000" font-family="sans-serif" font-size="14" lengthAdjust="spacing" textLength="528" x="611" y="482.9707">+registerOperation(operationID, operationName, executionTime, typeID) : Operation</text></g><!--class Repositories--><g id="elem_Repositories"><rect codeLine="29" fill="#F1F1F1" height="122.4844" id="Repositories" rx="2.5" ry="2.5" style="stroke:#181818;stroke-width:0.5;" width="388" x="23" y="594"/><ellipse cx="173.25" cy="610" fill="#ADD1B2" rx="11" ry="11" style="stroke:#181818;stroke-width:1.0;"/><path d="M176.0156,605.875 Q176.1719,605.6563 176.3594,605.5469 Q176.5469,605.4375 176.7656,605.4375 Q177.1406,605.4375 177.375,605.7031 Q177.6094,605.9531 177.6094,606.5625 L177.6094,608.0156 Q177.6094,608.625 177.375,608.8906 Q177.1406,609.1563 176.7656,609.1563 Q176.4219,609.1563 176.2188,608.9531 Q176.0156,608.7656 175.9063,608.25 Q175.8594,607.8906 175.6719,607.7031 Q175.3438,607.3281 174.7344,607.1094 Q174.125,606.8906 173.5,606.8906 Q172.7344,606.8906 172.0938,607.2188 Q171.4688,607.5469 170.9688,608.2969 Q170.4844,609.0469 170.4844,610.0781 L170.4844,611.1719 Q170.4844,612.4063 171.375,613.2344 Q172.2656,614.0469 173.8594,614.0469 Q174.7969,614.0469 175.4531,613.7969 Q175.8438,613.6406 176.2656,613.2031 Q176.5313,612.9375 176.6719,612.8594 Q176.8281,612.7813 177.0313,612.7813 Q177.3594,612.7813 177.6094,613.0469 Q177.875,613.2969 177.875,613.6406 Q177.875,613.9844 177.5313,614.3906 Q177.0313,614.9688 176.2344,615.2969 Q175.1563,615.75 173.8594,615.75 Q172.3438,615.75 171.1406,615.125 Q170.1563,614.625 169.4688,613.5625 Q168.7813,612.4844 168.7813,611.2031 L168.7813,610.0469 Q168.7813,608.7188 169.3906,607.5781 Q170.0156,606.4219 171.1094,605.8125 Q172.2031,605.1875 173.4375,605.1875 Q174.1719,605.1875 174.8125,605.3594 Q175.4688,605.5156 176.0156,605.875 Z " fill="#000000"/><text fill="#000000" font-family="sans-serif" font-size="14" lengthAdjust="spacing" textLength="79" x="193.75" y="615.7969">Repositories</text><line style="stroke:#181818;stroke-width:0.5;" x1="24" x2="410" y1="626" y2="626"/><line style="stroke:#181818;stroke-width:0.5;" x1="24" x2="410" y1="634" y2="634"/><text fill="#000000" font-family="sans-serif" font-size="14" lengthAdjust="spacing" textLength="94" x="29" y="653.1074">-Repositories()</text><text fill="#000000" font-family="sans-serif" font-size="14" lengthAdjust="spacing" textLength="182" x="29" y="671.7285">+getInstance() : Repositories</text><text fill="#000000" font-family="sans-serif" font-size="14" lengthAdjust="spacing" textLength="312" x="29" y="690.3496">+getOperationRepository() : OperationRepository</text><text fill="#000000" font-family="sans-serif" font-size="14" lengthAdjust="spacing" textLength="376" x="29" y="708.9707">+getOperationTypeRepository() : OperationTypeRepository</text></g><!--class OperationTypeRepository--><g id="elem_OperationTypeRepository"><rect codeLine="36" fill="#F1F1F1" height="122.4844" id="OperationTypeRepository" rx="2.5" ry="2.5" style="stroke:#181818;stroke-width:0.5;" width="284" x="23" y="795"/><ellipse cx="79.25" cy="811" fill="#ADD1B2" rx="11" ry="11" style="stroke:#181818;stroke-width:1.0;"/><path d="M82.0156,806.875 Q82.1719,806.6563 82.3594,806.5469 Q82.5469,806.4375 82.7656,806.4375 Q83.1406,806.4375 83.375,806.7031 Q83.6094,806.9531 83.6094,807.5625 L83.6094,809.0156 Q83.6094,809.625 83.375,809.8906 Q83.1406,810.1563 82.7656,810.1563 Q82.4219,810.1563 82.2188,809.9531 Q82.0156,809.7656 81.9063,809.25 Q81.8594,808.8906 81.6719,808.7031 Q81.3438,808.3281 80.7344,808.1094 Q80.125,807.8906 79.5,807.8906 Q78.7344,807.8906 78.0938,808.2188 Q77.4688,808.5469 76.9688,809.2969 Q76.4844,810.0469 76.4844,811.0781 L76.4844,812.1719 Q76.4844,813.4063 77.375,814.2344 Q78.2656,815.0469 79.8594,815.0469 Q80.7969,815.0469 81.4531,814.7969 Q81.8438,814.6406 82.2656,814.2031 Q82.5313,813.9375 82.6719,813.8594 Q82.8281,813.7813 83.0313,813.7813 Q83.3594,813.7813 83.6094,814.0469 Q83.875,814.2969 83.875,814.6406 Q83.875,814.9844 83.5313,815.3906 Q83.0313,815.9688 82.2344,816.2969 Q81.1563,816.75 79.8594,816.75 Q78.3438,816.75 77.1406,816.125 Q76.1563,815.625 75.4688,814.5625 Q74.7813,813.4844 74.7813,812.2031 L74.7813,811.0469 Q74.7813,809.7188 75.3906,808.5781 Q76.0156,807.4219 77.1094,806.8125 Q78.2031,806.1875 79.4375,806.1875 Q80.1719,806.1875 80.8125,806.3594 Q81.4688,806.5156 82.0156,806.875 Z " fill="#000000"/><text fill="#000000" font-family="sans-serif" font-size="14" lengthAdjust="spacing" textLength="163" x="99.75" y="816.7969">OperationTypeRepository</text><line style="stroke:#181818;stroke-width:0.5;" x1="24" x2="306" y1="827" y2="827"/><line style="stroke:#181818;stroke-width:0.5;" x1="24" x2="306" y1="835" y2="835"/><text fill="#000000" font-family="sans-serif" font-size="14" lengthAdjust="spacing" textLength="198" x="29" y="854.1074">+getAll() : List&lt;OperationType&gt;</text><text fill="#000000" font-family="sans-serif" font-size="14" lengthAdjust="spacing" textLength="214" x="29" y="872.7285">+getByID(typeID) : OperationType</text><text fill="#000000" font-family="sans-serif" font-size="14" lengthAdjust="spacing" textLength="272" x="29" y="891.3496">+getOperationTypeExists(typeID) : boolean</text><text fill="#000000" font-family="sans-serif" font-size="14" lengthAdjust="spacing" textLength="138" x="29" y="909.9707">+save(type) : boolean</text></g><!--class OperationRepository--><g id="elem_OperationRepository"><rect codeLine="43" fill="#F1F1F1" height="85.2422" id="OperationRepository" rx="2.5" ry="2.5" style="stroke:#181818;stroke-width:0.5;" width="285" x="342.5" y="813.5"/><ellipse cx="415.25" cy="829.5" fill="#ADD1B2" rx="11" ry="11" style="stroke:#181818;stroke-width:1.0;"/><path d="M418.0156,825.375 Q418.1719,825.1563 418.3594,825.0469 Q418.5469,824.9375 418.7656,824.9375 Q419.1406,824.9375 419.375,825.2031 Q419.6094,825.4531 419.6094,826.0625 L419.6094,827.5156 Q419.6094,828.125 419.375,828.3906 Q419.1406,828.6563 418.7656,828.6563 Q418.4219,828.6563 418.2188,828.4531 Q418.0156,828.2656 417.9063,827.75 Q417.8594,827.3906 417.6719,827.2031 Q417.3438,826.8281 416.7344,826.6094 Q416.125,826.3906 415.5,826.3906 Q414.7344,826.3906 414.0938,826.7188 Q413.4688,827.0469 412.9688,827.7969 Q412.4844,828.5469 412.4844,829.5781 L412.4844,830.6719 Q412.4844,831.9063 413.375,832.7344 Q414.2656,833.5469 415.8594,833.5469 Q416.7969,833.5469 417.4531,833.2969 Q417.8438,833.1406 418.2656,832.7031 Q418.5313,832.4375 418.6719,832.3594 Q418.8281,832.2813 419.0313,832.2813 Q419.3594,832.2813 419.6094,832.5469 Q419.875,832.7969 419.875,833.1406 Q419.875,833.4844 419.5313,833.8906 Q419.0313,834.4688 418.2344,834.7969 Q417.1563,835.25 415.8594,835.25 Q414.3438,835.25 413.1406,834.625 Q412.1563,834.125 411.4688,833.0625 Q410.7813,831.9844 410.7813,830.7031 L410.7813,829.5469 Q410.7813,828.2188 411.3906,827.0781 Q412.0156,825.9219 413.1094,825.3125 Q414.2031,824.6875 415.4375,824.6875 Q416.1719,824.6875 416.8125,824.8594 Q417.4688,825.0156 418.0156,825.375 Z " fill="#000000"/><text fill="#000000" font-family="sans-serif" font-size="14" lengthAdjust="spacing" textLength="131" x="435.75" y="835.2969">OperationRepository</text><line style="stroke:#181818;stroke-width:0.5;" x1="343.5" x2="626.5" y1="845.5" y2="845.5"/><line style="stroke:#181818;stroke-width:0.5;" x1="343.5" x2="626.5" y1="853.5" y2="853.5"/><text fill="#000000" font-family="sans-serif" font-size="14" lengthAdjust="spacing" textLength="273" x="348.5" y="872.6074">+getOperationExists(operationID) : boolean</text><text fill="#000000" font-family="sans-serif" font-size="14" lengthAdjust="spacing" textLength="171" x="348.5" y="891.2285">+save(operation) : boolean</text></g><!--class Operation--><g id="elem_Operation"><rect codeLine="50" fill="#F1F1F1" height="141.1055" id="Operation" rx="2.5" ry="2.5" style="stroke:#181818;stroke-width:0.5;" width="281" x="1058.5" y="1021"/><ellipse cx="1163.25" cy="1037" fill="#ADD1B2" rx="11" ry="11" style="stroke:#181818;stroke-width:1.0;"/><path d="M1166.0156,1032.875 Q1166.1719,1032.6563 1166.3594,1032.5469 Q1166.5469,1032.4375 1166.7656,1032.4375 Q1167.1406,1032.4375 1167.375,1032.7031 Q1167.6094,1032.9531 1167.6094,1033.5625 L1167.6094,1035.0156 Q1167.6094,1035.625 1167.375,1035.8906 Q1167.1406,1036.1563 1166.7656,1036.1563 Q1166.4219,1036.1563 1166.2188,1035.9531 Q1166.0156,1035.7656 1165.9063,1035.25 Q1165.8594,1034.8906 1165.6719,1034.7031 Q1165.3438,1034.3281 1164.7344,1034.1094 Q1164.125,1033.8906 1163.5,1033.8906 Q1162.7344,1033.8906 1162.0938,1034.2188 Q1161.4688,1034.5469 1160.9688,1035.2969 Q1160.4844,1036.0469 1160.4844,1037.0781 L1160.4844,1038.1719 Q1160.4844,1039.4063 1161.375,1040.2344 Q1162.2656,1041.0469 1163.8594,1041.0469 Q1164.7969,1041.0469 1165.4531,1040.7969 Q1165.8438,1040.6406 1166.2656,1040.2031 Q1166.5313,1039.9375 1166.6719,1039.8594 Q1166.8281,1039.7813 1167.0313,1039.7813 Q1167.3594,1039.7813 1167.6094,1040.0469 Q1167.875,1040.2969 1167.875,1040.6406 Q1167.875,1040.9844 1167.5313,1041.3906 Q1167.0313,1041.9688 1166.2344,1042.2969 Q1165.1563,1042.75 1163.8594,1042.75 Q1162.3438,1042.75 1161.1406,1042.125 Q1160.1563,1041.625 1159.4688,1040.5625 Q1158.7813,1039.4844 1158.7813,1038.2031 L1158.7813,1037.0469 Q1158.7813,1035.7188 1159.3906,1034.5781 Q1160.0156,1033.4219 1161.1094,1032.8125 Q1162.2031,1032.1875 1163.4375,1032.1875 Q1164.1719,1032.1875 1164.8125,1032.3594 Q1165.4688,1032.5156 1166.0156,1032.875 Z " fill="#000000"/><text fill="#000000" font-family="sans-serif" font-size="14" lengthAdjust="spacing" textLength="63" x="1183.75" y="1042.7969">Operation</text><line style="stroke:#181818;stroke-width:0.5;" x1="1059.5" x2="1338.5" y1="1053" y2="1053"/><text fill="#000000" font-family="sans-serif" font-size="14" lengthAdjust="spacing" textLength="43" x="1064.5" y="1072.1074">-id : int</text><text fill="#000000" font-family="sans-serif" font-size="14" lengthAdjust="spacing" textLength="139" x="1064.5" y="1090.7285">-type : OperationType</text><text fill="#000000" font-family="sans-serif" font-size="14" lengthAdjust="spacing" textLength="89" x="1064.5" y="1109.3496">-name : String</text><text fill="#000000" font-family="sans-serif" font-size="14" lengthAdjust="spacing" textLength="123" x="1064.5" y="1127.9707">-executionTime : int</text><line style="stroke:#181818;stroke-width:0.5;" x1="1059.5" x2="1338.5" y1="1135.4844" y2="1135.4844"/><text fill="#000000" font-family="sans-serif" font-size="14" lengthAdjust="spacing" textLength="269" x="1064.5" y="1154.5918">+Operation(id, type, name, executionTime)</text></g><!--class OperationType--><g id="elem_OperationType"><rect codeLine="58" fill="#F1F1F1" height="122.4844" id="OperationType" rx="2.5" ry="2.5" style="stroke:#181818;stroke-width:0.5;" width="370" x="1014" y="1241"/><ellipse cx="1147.25" cy="1257" fill="#ADD1B2" rx="11" ry="11" style="stroke:#181818;stroke-width:1.0;"/><path d="M1150.0156,1252.875 Q1150.1719,1252.6563 1150.3594,1252.5469 Q1150.5469,1252.4375 1150.7656,1252.4375 Q1151.1406,1252.4375 1151.375,1252.7031 Q1151.6094,1252.9531 1151.6094,1253.5625 L1151.6094,1255.0156 Q1151.6094,1255.625 1151.375,1255.8906 Q1151.1406,1256.1563 1150.7656,1256.1563 Q1150.4219,1256.1563 1150.2188,1255.9531 Q1150.0156,1255.7656 1149.9063,1255.25 Q1149.8594,1254.8906 1149.6719,1254.7031 Q1149.3438,1254.3281 1148.7344,1254.1094 Q1148.125,1253.8906 1147.5,1253.8906 Q1146.7344,1253.8906 1146.0938,1254.2188 Q1145.4688,1254.5469 1144.9688,1255.2969 Q1144.4844,1256.0469 1144.4844,1257.0781 L1144.4844,1258.1719 Q1144.4844,1259.4063 1145.375,1260.2344 Q1146.2656,1261.0469 1147.8594,1261.0469 Q1148.7969,1261.0469 1149.4531,1260.7969 Q1149.8438,1260.6406 1150.2656,1260.2031 Q1150.5313,1259.9375 1150.6719,1259.8594 Q1150.8281,1259.7813 1151.0313,1259.7813 Q1151.3594,1259.7813 1151.6094,1260.0469 Q1151.875,1260.2969 1151.875,1260.6406 Q1151.875,1260.9844 1151.5313,1261.3906 Q1151.0313,1261.9688 1150.2344,1262.2969 Q1149.1563,1262.75 1147.8594,1262.75 Q1146.3438,1262.75 1145.1406,1262.125 Q1144.1563,1261.625 1143.4688,1260.5625 Q1142.7813,1259.4844 1142.7813,1258.2031 L1142.7813,1257.0469 Q1142.7813,1255.7188 1143.3906,1254.5781 Q1144.0156,1253.4219 1145.1094,1252.8125 Q1146.2031,1252.1875 1147.4375,1252.1875 Q1148.1719,1252.1875 1148.8125,1252.3594 Q1149.4688,1252.5156 1150.0156,1252.875 Z " fill="#000000"/><text fill="#000000" font-family="sans-serif" font-size="14" lengthAdjust="spacing" textLength="95" x="1167.75" y="1262.7969">OperationType</text><line style="stroke:#181818;stroke-width:0.5;" x1="1015" x2="1383" y1="1273" y2="1273"/><text fill="#000000" font-family="sans-serif" font-size="14" lengthAdjust="spacing" textLength="43" x="1020" y="1292.1074">-id : int</text><text fill="#000000" font-family="sans-serif" font-size="14" lengthAdjust="spacing" textLength="89" x="1020" y="1310.7285">-name : String</text><text fill="#000000" font-family="sans-serif" font-size="14" lengthAdjust="spacing" textLength="358" x="1020" y="1329.3496">-workstationSetupTime : Map&lt;WorkstationType, Integer&gt;</text><line style="stroke:#181818;stroke-width:0.5;" x1="1015" x2="1383" y1="1336.8633" y2="1336.8633"/><text fill="#000000" font-family="sans-serif" font-size="14" lengthAdjust="spacing" textLength="167" x="1020" y="1355.9707">+OperationType(id, name)</text></g><!--class OperationException--><g id="elem_OperationException"><rect codeLine="67" fill="#F1F1F1" height="103.8633" id="OperationException" rx="2.5" ry="2.5" style="stroke:#181818;stroke-width:0.5;" width="383" x="927.5" y="603"/><ellipse cx="1052.75" cy="619" fill="#ADD1B2" rx="11" ry="11" style="stroke:#181818;stroke-width:1.0;"/><path d="M1055.5156,614.875 Q1055.6719,614.6563 1055.8594,614.5469 Q1056.0469,614.4375 1056.2656,614.4375 Q1056.6406,614.4375 1056.875,614.7031 Q1057.1094,614.9531 1057.1094,615.5625 L1057.1094,617.0156 Q1057.1094,617.625 1056.875,617.8906 Q1056.6406,618.1563 1056.2656,618.1563 Q1055.9219,618.1563 1055.7188,617.9531 Q1055.5156,617.7656 1055.4063,617.25 Q1055.3594,616.8906 1055.1719,616.7031 Q1054.8438,616.3281 1054.2344,616.1094 Q1053.625,615.8906 1053,615.8906 Q1052.2344,615.8906 1051.5938,616.2188 Q1050.9688,616.5469 1050.4688,617.2969 Q1049.9844,618.0469 1049.9844,619.0781 L1049.9844,620.1719 Q1049.9844,621.4063 1050.875,622.2344 Q1051.7656,623.0469 1053.3594,623.0469 Q1054.2969,623.0469 1054.9531,622.7969 Q1055.3438,622.6406 1055.7656,622.2031 Q1056.0313,621.9375 1056.1719,621.8594 Q1056.3281,621.7813 1056.5313,621.7813 Q1056.8594,621.7813 1057.1094,622.0469 Q1057.375,622.2969 1057.375,622.6406 Q1057.375,622.9844 1057.0313,623.3906 Q1056.5313,623.9688 1055.7344,624.2969 Q1054.6563,624.75 1053.3594,624.75 Q1051.8438,624.75 1050.6406,624.125 Q1049.6563,623.625 1048.9688,622.5625 Q1048.2813,621.4844 1048.2813,620.2031 L1048.2813,619.0469 Q1048.2813,617.7188 1048.8906,616.5781 Q1049.5156,615.4219 1050.6094,614.8125 Q1051.7031,614.1875 1052.9375,614.1875 Q1053.6719,614.1875 1054.3125,614.3594 Q1054.9688,614.5156 1055.5156,614.875 Z " fill="#000000"/><text fill="#000000" font-family="sans-serif" font-size="14" lengthAdjust="spacing" textLength="124" x="1073.25" y="624.7969">OperationException</text><line style="stroke:#181818;stroke-width:0.5;" x1="928.5" x2="1309.5" y1="635" y2="635"/><line style="stroke:#181818;stroke-width:0.5;" x1="928.5" x2="1309.5" y1="643" y2="643"/><text fill="#000000" font-family="sans-serif" font-size="14" lengthAdjust="spacing" textLength="370" x="933.5" y="662.1074">+operationTypeAlreadyExists(typeID) : OperationException</text><text fill="#000000" font-family="sans-serif" font-size="14" lengthAdjust="spacing" textLength="371" x="933.5" y="680.7285">+operationAlreadyExists(operationID) : OperationException</text><text fill="#000000" font-family="sans-serif" font-size="14" lengthAdjust="spacing" textLength="348" x="933.5" y="699.3496">+operationTypeNotFound(typeID) : OperationException</text></g><!--class RuntimeException--><g id="elem_RuntimeException"><rect codeLine="73" fill="#F1F1F1" height="48" id="RuntimeException" rx="2.5" ry="2.5" style="stroke:#181818;stroke-width:0.5;" width="145" x="1046.5" y="832"/><ellipse cx="1061.5" cy="848" fill="#ADD1B2" rx="11" ry="11" style="stroke:#181818;stroke-width:1.0;"/><path d="M1064.2656,843.875 Q1064.4219,843.6563 1064.6094,843.5469 Q1064.7969,843.4375 1065.0156,843.4375 Q1065.3906,843.4375 1065.625,843.7031 Q1065.8594,843.9531 1065.8594,844.5625 L1065.8594,846.0156 Q1065.8594,846.625 1065.625,846.8906 Q1065.3906,847.1563 1065.0156,847.1563 Q1064.6719,847.1563 1064.4688,846.9531 Q1064.2656,846.7656 1064.1563,846.25 Q1064.1094,845.8906 1063.9219,845.7031 Q1063.5938,845.3281 1062.9844,845.1094 Q1062.375,844.8906 1061.75,844.8906 Q1060.9844,844.8906 1060.3438,845.2188 Q1059.7188,845.5469 1059.2188,846.2969 Q1058.7344,847.0469 1058.7344,848.0781 L1058.7344,849.1719 Q1058.7344,850.4063 1059.625,851.2344 Q1060.5156,852.0469 1062.1094,852.0469 Q1063.0469,852.0469 1063.7031,851.7969 Q1064.0938,851.6406 1064.5156,851.2031 Q1064.7813,850.9375 1064.9219,850.8594 Q1065.0781,850.7813 1065.2813,850.7813 Q1065.6094,850.7813 1065.8594,851.0469 Q1066.125,851.2969 1066.125,851.6406 Q1066.125,851.9844 1065.7813,852.3906 Q1065.2813,852.9688 1064.4844,853.2969 Q1063.4063,853.75 1062.1094,853.75 Q1060.5938,853.75 1059.3906,853.125 Q1058.4063,852.625 1057.7188,851.5625 Q1057.0313,850.4844 1057.0313,849.2031 L1057.0313,848.0469 Q1057.0313,846.7188 1057.6406,845.5781 Q1058.2656,844.4219 1059.3594,843.8125 Q1060.4531,843.1875 1061.6875,843.1875 Q1062.4219,843.1875 1063.0625,843.3594 Q1063.7188,843.5156 1064.2656,843.875 Z " fill="#000000"/><text fill="#000000" font-family="sans-serif" font-size="14" lengthAdjust="spacing" textLength="113" x="1075.5" y="853.7969">RuntimeException</text><line style="stroke:#181818;stroke-width:0.5;" x1="1047.5" x2="1190.5" y1="864" y2="864"/><line style="stroke:#181818;stroke-width:0.5;" x1="1047.5" x2="1190.5" y1="872" y2="872"/></g><!--link RegisterOperationUI to OperationController--><g id="link_RegisterOperationUI_OperationController"><path codeLine="76" d="M875,92.27 C875,114.63 875,143.17 875,171.94 " fill="none" id="RegisterOperationUI-to-OperationController" style="stroke:#181818;stroke-width:1.0;stroke-dasharray:7.0,7.0;"/><polygon fill="#181818" points="875,177.94,879,168.94,875,172.94,871,168.94,875,177.94" style="stroke:#181818;stroke-width:1.0;"/></g><!--link OperationController to OperationService--><g id="link_OperationController_OperationService"><path codeLine="77" d="M875,282.25 C875,308.47 875,334.54 875,361.92 " fill="none" id="OperationController-to-OperationService" style="stroke:#181818;stroke-width:1.0;stroke-dasharray:7.0,7.0;"/><polygon fill="#181818" points="875,367.92,879,358.92,875,362.92,871,358.92,875,367.92" style="stroke:#181818;stroke-width:1.0;"/></g><!--link OperationService to Repositories--><g id="link_OperationService_Repositories"><path codeLine="78" d="M607.53,490.02 C529.61,507.5 465,522 465,522 C465,522 400.5564,556.3008 335.0464,591.1708 " fill="none" id="OperationService-to-Repositories" style="stroke:#181818;stroke-width:1.0;stroke-dasharray:7.0,7.0;"/><polygon fill="#181818" points="329.75,593.99,339.5741,593.2921,334.1637,591.6407,335.8152,586.2302,329.75,593.99" style="stroke:#181818;stroke-width:1.0;"/><text fill="#000000" font-family="sans-serif" font-size="13" lengthAdjust="spacing" textLength="67" x="466" y="537.0283">repositories</text></g><!--link OperationService to OperationRepository--><g id="link_OperationService_OperationRepository"><path codeLine="79" d="M834.03,490.2 C813.93,519.71 794,549 794,549 C794,549 713,716 713,716 C713,716 625.4032,769.4071 558.2232,810.3571 " fill="none" id="OperationService-to-OperationRepository" style="stroke:#181818;stroke-width:1.0;stroke-dasharray:7.0,7.0;"/><polygon fill="#181818" points="553.1,813.48,562.8668,812.2111,557.3694,810.8776,558.7029,805.3802,553.1,813.48" style="stroke:#181818;stroke-width:1.0;"/><text fill="#000000" font-family="sans-serif" font-size="13" lengthAdjust="spacing" textLength="115" x="795" y="660.5283">operationRepository</text></g><!--link OperationService to OperationTypeRepository--><g id="link_OperationService_OperationTypeRepository"><path codeLine="80" d="M716.12,490.02 C637.83,519.6 560,549 560,549 C560,549 494,765 494,765 C494,765 325,795 325,795 C325,795 323.7573,795.4616 312.8873,799.5416 " fill="none" id="OperationService-to-OperationTypeRepository" style="stroke:#181818;stroke-width:1.0;stroke-dasharray:7.0,7.0;"/><polygon fill="#181818" points="307.27,801.65,317.1016,802.2322,311.9511,799.893,314.2904,794.7424,307.27,801.65" style="stroke:#181818;stroke-width:1.0;"/><text fill="#000000" font-family="sans-serif" font-size="13" lengthAdjust="spacing" textLength="143" x="561" y="660.5283">operationTypeRepository</text></g><!--link OperationService to Operation--><g id="link_OperationService_Operation"><path codeLine="81" d="M1102.99,490.02 C1215.32,519.6 1327,549 1327,549 C1327,549 1327,941 1327,941 C1327,941 1296.0925,977.1026 1262.7825,1016.0026 " fill="none" id="OperationService-to-Operation" style="stroke:#181818;stroke-width:1.0;stroke-dasharray:7.0,7.0;"/><polygon fill="#181818" points="1258.88,1020.56,1267.7721,1016.3255,1262.1321,1016.7621,1261.6955,1011.1222,1258.88,1020.56" style="stroke:#181818;stroke-width:1.0;"/><text fill="#000000" font-family="sans-serif" font-size="13" lengthAdjust="spacing" textLength="53" x="1328" y="761.0283">operation</text></g><!--link OperationService to OperationType--><g id="link_OperationService_OperationType"><path codeLine="82" d="M1143.12,490.02 C1221.23,507.5 1286,522 1286,522 C1286,522 1353,549 1353,549 C1353,549 1466,654 1466,654 C1466,654 1466,654 1466,1092.5 C1466,1092.5 1359.4792,1175.6874 1280.5992,1237.2774 " fill="none" id="OperationService-to-OperationType" style="stroke:#181818;stroke-width:1.0;stroke-dasharray:7.0,7.0;"/><polygon fill="#181818" points="1275.87,1240.97,1285.4255,1238.5839,1279.811,1237.8929,1280.502,1232.2784,1275.87,1240.97" style="stroke:#181818;stroke-width:1.0;"/><text fill="#000000" font-family="sans-serif" font-size="13" lengthAdjust="spacing" textLength="25" x="1467" y="861.5283">type</text></g><!--link Repositories to Repositories--><g id="link_Repositories_Repositories"><path codeLine="83" d="M411.21,639.29 C432.37,642.29 446,647.53 446,655 C446,662.47 438.3106,666.8678 417.1506,669.8678 " fill="none" id="Repositories-to-Repositories" style="stroke:#181818;stroke-width:1.0;"/><polygon fill="#181818" points="411.21,670.71,420.6824,673.407,416.1605,670.0081,419.5594,665.4862,411.21,670.71" style="stroke:#181818;stroke-width:1.0;"/><text fill="#000000" font-family="sans-serif" font-size="13" lengthAdjust="spacing" textLength="49" x="452" y="660.5283">instance</text></g><!--link Repositories to OperationRepository--><g id="link_Repositories_OperationRepository"><path codeLine="84" d="M303.04,716.03 C326.71,732.54 346,746 346,746 C346,746 388.0484,778.9777 427.3284,809.7777 " fill="none" id="Repositories-to-OperationRepository" style="stroke:#181818;stroke-width:1.0;"/><polygon fill="#181818" points="432.05,813.48,427.4358,804.7789,428.1154,810.3948,422.4995,811.0743,432.05,813.48" style="stroke:#181818;stroke-width:1.0;"/><text fill="#000000" font-family="sans-serif" font-size="13" lengthAdjust="spacing" textLength="115" x="370" y="761.0283">operationRepository</text><text fill="#000000" font-family="sans-serif" font-size="13" lengthAdjust="spacing" textLength="7" x="306.0996" y="738.5205">1</text><text fill="#000000" font-family="sans-serif" font-size="13" lengthAdjust="spacing" textLength="7" x="416.0533" y="802.3809">1</text></g><!--link Repositories to OperationTypeRepository--><g id="link_Repositories_OperationTypeRepository"><path codeLine="85" d="M201.26,716.25 C194.74,741.18 188.7165,764.2348 182.2065,789.1548 " fill="none" id="Repositories-to-OperationTypeRepository" style="stroke:#181818;stroke-width:1.0;"/><polygon fill="#181818" points="180.69,794.96,186.8349,787.2632,181.9538,790.1223,179.0947,785.2412,180.69,794.96" style="stroke:#181818;stroke-width:1.0;"/><text fill="#000000" font-family="sans-serif" font-size="13" lengthAdjust="spacing" textLength="143" x="194" y="761.0283">operationTypeRepository</text><text fill="#000000" font-family="sans-serif" font-size="13" lengthAdjust="spacing" textLength="7" x="192.0354" y="738.332">1</text><text fill="#000000" font-family="sans-serif" font-size="13" lengthAdjust="spacing" textLength="7" x="175.0995" y="783.9366">1</text></g><!--link OperationRepository to Operation--><g id="link_OperationRepository_Operation"><path codeLine="86" d="M612.24,898.61 C737.53,939.58 922.7571,1000.1654 1052.5271,1042.5954 " fill="none" id="OperationRepository-to-Operation" style="stroke:#181818;stroke-width:1.0;"/><polygon fill="#181818" points="1058.23,1044.46,1050.9187,1037.8611,1053.4776,1042.9061,1048.4326,1045.465,1058.23,1044.46" style="stroke:#181818;stroke-width:1.0;"/><text fill="#000000" font-family="sans-serif" font-size="13" lengthAdjust="spacing" textLength="60" x="821" y="964.0283">categories</text><text fill="#000000" font-family="sans-serif" font-size="13" lengthAdjust="spacing" textLength="7" x="624.9611" y="920.7879">1</text><text fill="#000000" font-family="sans-serif" font-size="13" lengthAdjust="spacing" textLength="5" x="1045.3949" y="1038.4561">*</text></g><!--link OperationTypeRepository to OperationType--><g id="link_OperationTypeRepository_OperationType"><path codeLine="87" d="M279.58,917.15 C305.22,930.62 325,941 325,941 C325,941 798.9923,1136.2347 1047.6523,1238.6647 " fill="none" id="OperationTypeRepository-to-OperationType" style="stroke:#181818;stroke-width:1.0;"/><polygon fill="#181818" points="1053.2,1240.95,1046.4019,1233.8236,1048.5769,1239.0456,1043.3549,1241.2206,1053.2,1240.95" style="stroke:#181818;stroke-width:1.0;"/><text fill="#000000" font-family="sans-serif" font-size="13" lengthAdjust="spacing" textLength="60" x="849" y="1097.0283">categories</text><text fill="#000000" font-family="sans-serif" font-size="13" lengthAdjust="spacing" textLength="7" x="286.1179" y="939.6551">1</text><text fill="#000000" font-family="sans-serif" font-size="13" lengthAdjust="spacing" textLength="5" x="1031.0528" y="1229.9254">*</text></g><!--link Operation to OperationType--><g id="link_Operation_OperationType"><path codeLine="88" d="M1199,1162.22 C1199,1187.67 1199,1210.22 1199,1234.77 " fill="none" id="Operation-to-OperationType" style="stroke:#181818;stroke-width:1.0;"/><polygon fill="#181818" points="1199,1240.77,1203,1231.77,1199,1235.77,1195,1231.77,1199,1240.77" style="stroke:#181818;stroke-width:1.0;"/><text fill="#000000" font-family="sans-serif" font-size="13" lengthAdjust="spacing" textLength="21" x="1200" y="1207.0283">has</text><text fill="#000000" font-family="sans-serif" font-size="13" lengthAdjust="spacing" textLength="5" x="1193.7539" y="1184.0557">*</text><text fill="#000000" font-family="sans-serif" font-size="13" lengthAdjust="spacing" textLength="7" x="1191.5953" y="1229.7246">1</text></g><!--link OperationService to OperationException--><g id="link_OperationService_OperationException"><path codeLine="89" d="M940.39,490.03 C978.78,525.28 1022.37,565.2925 1058.95,598.8725 " fill="none" id="OperationService-to-OperationException" style="stroke:#181818;stroke-width:1.0;stroke-dasharray:7.0,7.0;"/><polygon fill="#181818" points="1063.37,602.93,1059.445,593.897,1059.6867,599.5487,1054.035,599.7904,1063.37,602.93" style="stroke:#181818;stroke-width:1.0;"/><text fill="#000000" font-family="sans-serif" font-size="13" lengthAdjust="spacing" textLength="38" x="990" y="537.0283">throws</text></g><!--link OperationException to RuntimeException--><g id="link_OperationException_RuntimeException"><path codeLine="90" d="M1119,707.25 C1119,747.44 1119,783.49 1119,813.83 " fill="none" id="OperationException-to-RuntimeException" style="stroke:#181818;stroke-width:1.0;"/><polygon fill="none" points="1119,831.83,1125,813.83,1113,813.83,1119,831.83" style="stroke:#181818;stroke-width:1.0;"/></g><!--SRC=[nLPDRzim3BtxLmWvEMjSRDUW292j7M1WxO2anSwgpJb2LCcGb2RUrly-oV6i3yj9TjbySIm-FbBK8nMv9Qp60h-W6XTRNC5QDHIGW49XLb58P0-G6rpoFM4L-ewfT2sKC51D3QZcj34VZgsWMCgbKe8yxnJa1MThyWFG-oJf0gB9Kpv1FnEadnQCLb0HgK1yhK5WHJXxoZlxM_Bc-7tYJ0bEAGZVl_UpWCvkdgiAL8zur5dBT8hcw8iEUUEjBwoB23CozjHiER-T8VD-m2zWQ3p42OAK__bb6FeFGpD3S81Yrv8GytcCux57gh46yKeA62b5P_tFTSZ2c1-R_3QDxE-VLsy5DPT4ST64MkpM2KYdU9cxdawzekPCwjufe2sdYukNtaPElIJj-lYHZVdwjcwxCLdum40TIqhFIqBZBZl4CFUxWwQLZjypvnGminuIlnx55LhZUndTHu_eGZhY6O_RWuR1NTtSynBeIC-vUY6bfY5CsPLsO8us2jDIrjQrdfkiiikUjWF6AziUf3pgVeROi2McP_HmEksHnFPSRBNiZwD6xUekltjSttopfiSsfvmfg40i8fctyyHaRy9C8_M-EnHG6-H8pNkxgm7kqY-f05ms0_aDAI84ldCWf8iOJ0eFN7tcErQUZ-wTqch7b2whHMXhxAwylbx4xi0aTYzwsEwII0QtXa5vat2k_o4uWotg46lCkHtMpdmwxHxCA8SY67EdQLp72o9gk3cTnDjsbWtgGBffxmCd7oOjsBmlhyDvYh-lXOFk6TzDlB8KMFTZS911eAXhLwQOUmkCPgyTDlYSOcmNwrFO2Bvt7AmjotujXatn6m00]--></g></svg>