<?xml version="1.0" encoding="us-ascii" standalone="no"?><svg xmlns="http://www.w3.org/2000/svg" xmlns:xlink="http://www.w3.org/1999/xlink" contentStyleType="text/css" height="831px" preserveAspectRatio="none" style="width:900px;height:831px;background:#FFFFFF;" version="1.1" viewBox="0 0 900 831" width="900px" zoomAndPan="magnify"><defs/><g><!--cluster UI--><g id="cluster_UI"><rect fill="none" height="60.6" rx="1.5" ry="1.5" style="stroke:#000000;stroke-width:0.8999999999999999;" width="115.2" x="467.4" y="4.2"/><text fill="#000000" font-family="sans-serif" font-size="8.4" font-weight="bold" lengthAdjust="spacing" textLength="8.4" x="520.8" y="14.4645">UI</text></g><!--cluster Controller--><g id="cluster_Controller"><rect fill="none" height="94.2" rx="1.5" ry="1.5" style="stroke:#000000;stroke-width:0.8999999999999999;" width="343.2" x="353.4" y="84.6"/><text fill="#000000" font-family="sans-serif" font-size="8.4" font-weight="bold" lengthAdjust="spacing" textLength="42.6" x="503.7" y="94.8645">Controller</text></g><!--cluster Service--><g id="cluster_Service"><rect fill="none" height="105" rx="1.5" ry="1.5" style="stroke:#000000;stroke-width:0.8999999999999999;" width="343.2" x="353.4" y="198.6"/><text fill="#000000" font-family="sans-serif" font-size="8.4" font-weight="bold" lengthAdjust="spacing" textLength="32.4" x="508.8" y="208.8645">Service</text></g><!--cluster Repository--><g id="cluster_Repository"><rect fill="none" height="225.6" rx="1.5" ry="1.5" style="stroke:#000000;stroke-width:0.8999999999999999;" width="382.2" x="4.2" y="334.2"/><text fill="#000000" font-family="sans-serif" font-size="8.4" font-weight="bold" lengthAdjust="spacing" textLength="45.6" x="172.5" y="344.4645">Repository</text></g><!--cluster Model--><g id="cluster_Model"><rect fill="none" height="237" rx="1.5" ry="1.5" style="stroke:#000000;stroke-width:0.8999999999999999;" width="241.2" x="598.8" y="590.4"/><text fill="#000000" font-family="sans-serif" font-size="8.4" font-weight="bold" lengthAdjust="spacing" textLength="26.4" x="706.2" y="600.6645">Model</text></g><!--cluster Exception--><g id="cluster_Exception"><rect fill="none" height="198" rx="1.5" ry="1.5" style="stroke:#000000;stroke-width:0.8999999999999999;" width="249.6" x="546.6" y="339.6"/><text fill="#000000" font-family="sans-serif" font-size="8.4" font-weight="bold" lengthAdjust="spacing" textLength="42" x="650.4" y="349.8645">Exception</text></g><!--class RegisterOperationUI--><g id="elem_RegisterOperationUI"><rect codeLine="7" fill="#F1F1F1" height="28.8" id="RegisterOperationUI" rx="1.5" ry="1.5" style="stroke:#181818;stroke-width:0.3;" width="96" x="477" y="26.4"/><ellipse cx="486" cy="36" fill="#ADD1B2" rx="6.6" ry="6.6" style="stroke:#181818;stroke-width:0.6;"/><path d="M487.6594,33.525 Q487.7531,33.3938 487.8656,33.3281 Q487.9781,33.2625 488.1094,33.2625 Q488.3344,33.2625 488.475,33.4219 Q488.6156,33.5719 488.6156,33.9375 L488.6156,34.8094 Q488.6156,35.175 488.475,35.3344 Q488.3344,35.4938 488.1094,35.4938 Q487.9031,35.4938 487.7813,35.3719 Q487.6594,35.2594 487.5938,34.95 Q487.5656,34.7344 487.4531,34.6219 Q487.2562,34.3969 486.8906,34.2656 Q486.525,34.1344 486.15,34.1344 Q485.6906,34.1344 485.3063,34.3313 Q484.9313,34.5281 484.6312,34.9781 Q484.3406,35.4281 484.3406,36.0469 L484.3406,36.7031 Q484.3406,37.4438 484.875,37.9406 Q485.4094,38.4281 486.3656,38.4281 Q486.9281,38.4281 487.3219,38.2781 Q487.5563,38.1844 487.8094,37.9219 Q487.9688,37.7625 488.0531,37.7156 Q488.1469,37.6687 488.2687,37.6687 Q488.4656,37.6687 488.6156,37.8281 Q488.775,37.9781 488.775,38.1844 Q488.775,38.3906 488.5687,38.6344 Q488.2687,38.9812 487.7906,39.1781 Q487.1437,39.45 486.3656,39.45 Q485.4562,39.45 484.7344,39.075 Q484.1437,38.775 483.7313,38.1375 Q483.3187,37.4906 483.3187,36.7219 L483.3187,36.0281 Q483.3187,35.2312 483.6844,34.5469 Q484.0594,33.8531 484.7156,33.4875 Q485.3719,33.1125 486.1125,33.1125 Q486.5531,33.1125 486.9375,33.2156 Q487.3312,33.3094 487.6594,33.525 Z " fill="#000000"/><text fill="#000000" font-family="sans-serif" font-size="8.4" lengthAdjust="spacing" textLength="76.8" x="494.4" y="39.4781">RegisterOperationUI</text><line style="stroke:#181818;stroke-width:0.3;" x1="477.6" x2="572.4" y1="45.6" y2="45.6"/><line style="stroke:#181818;stroke-width:0.3;" x1="477.6" x2="572.4" y1="50.4" y2="50.4"/></g><!--class OperationController--><g id="elem_OperationController"><rect codeLine="12" fill="#F1F1F1" height="62.318" id="OperationController" rx="1.5" ry="1.5" style="stroke:#181818;stroke-width:0.3;" width="324" x="363" y="106.8"/><ellipse cx="484.95" cy="116.4" fill="#ADD1B2" rx="6.6" ry="6.6" style="stroke:#181818;stroke-width:0.6;"/><path d="M486.6094,113.925 Q486.7031,113.7938 486.8156,113.7281 Q486.9281,113.6625 487.0594,113.6625 Q487.2844,113.6625 487.425,113.8219 Q487.5656,113.9719 487.5656,114.3375 L487.5656,115.2094 Q487.5656,115.575 487.425,115.7344 Q487.2844,115.8938 487.0594,115.8938 Q486.8531,115.8938 486.7313,115.7719 Q486.6094,115.6594 486.5438,115.35 Q486.5156,115.1344 486.4031,115.0219 Q486.2062,114.7969 485.8406,114.6656 Q485.475,114.5344 485.1,114.5344 Q484.6406,114.5344 484.2562,114.7313 Q483.8812,114.9281 483.5812,115.3781 Q483.2906,115.8281 483.2906,116.4469 L483.2906,117.1031 Q483.2906,117.8438 483.825,118.3406 Q484.3594,118.8281 485.3156,118.8281 Q485.8781,118.8281 486.2719,118.6781 Q486.5062,118.5844 486.7594,118.3219 Q486.9188,118.1625 487.0031,118.1156 Q487.0969,118.0688 487.2188,118.0688 Q487.4156,118.0688 487.5656,118.2281 Q487.725,118.3781 487.725,118.5844 Q487.725,118.7906 487.5187,119.0344 Q487.2188,119.3813 486.7406,119.5781 Q486.0938,119.85 485.3156,119.85 Q484.4063,119.85 483.6844,119.475 Q483.0938,119.175 482.6813,118.5375 Q482.2687,117.8906 482.2687,117.1219 L482.2687,116.4281 Q482.2687,115.6313 482.6344,114.9469 Q483.0094,114.2531 483.6656,113.8875 Q484.3219,113.5125 485.0625,113.5125 Q485.5031,113.5125 485.8875,113.6156 Q486.2813,113.7094 486.6094,113.925 Z " fill="#000000"/><text fill="#000000" font-family="sans-serif" font-size="8.4" lengthAdjust="spacing" textLength="75" x="497.25" y="119.8781">OperationController</text><line style="stroke:#181818;stroke-width:0.3;" x1="363.6" x2="686.4" y1="126" y2="126"/><line style="stroke:#181818;stroke-width:0.3;" x1="363.6" x2="686.4" y1="130.8" y2="130.8"/><text fill="#000000" font-family="sans-serif" font-size="8.4" lengthAdjust="spacing" textLength="171" x="366.6" y="142.2645">+getOperationTypes() : List&lt;OperationType&gt;</text><text fill="#000000" font-family="sans-serif" font-size="8.4" lengthAdjust="spacing" textLength="227.4" x="366.6" y="153.4371">+registerOperationType(typeID, typeName) : OperationType</text><text fill="#000000" font-family="sans-serif" font-size="8.4" lengthAdjust="spacing" textLength="316.8" x="366.6" y="164.6098">+registerOperation(operationID, operationName, executionTime, typeID) : Operation</text></g><!--class OperationService--><g id="elem_OperationService"><rect codeLine="20" fill="#F1F1F1" height="73.4906" id="OperationService" rx="1.5" ry="1.5" style="stroke:#181818;stroke-width:0.3;" width="324" x="363" y="220.8"/><ellipse cx="489.45" cy="230.4" fill="#ADD1B2" rx="6.6" ry="6.6" style="stroke:#181818;stroke-width:0.6;"/><path d="M491.1094,227.925 Q491.2031,227.7938 491.3156,227.7281 Q491.4281,227.6625 491.5594,227.6625 Q491.7844,227.6625 491.925,227.8219 Q492.0656,227.9719 492.0656,228.3375 L492.0656,229.2094 Q492.0656,229.575 491.925,229.7344 Q491.7844,229.8937 491.5594,229.8937 Q491.3531,229.8937 491.2313,229.7719 Q491.1094,229.6594 491.0438,229.35 Q491.0156,229.1344 490.9031,229.0219 Q490.7062,228.7969 490.3406,228.6656 Q489.975,228.5344 489.6,228.5344 Q489.1406,228.5344 488.7562,228.7313 Q488.3812,228.9281 488.0812,229.3781 Q487.7906,229.8281 487.7906,230.4469 L487.7906,231.1031 Q487.7906,231.8438 488.325,232.3406 Q488.8594,232.8281 489.8156,232.8281 Q490.3781,232.8281 490.7719,232.6781 Q491.0062,232.5844 491.2594,232.3219 Q491.4188,232.1625 491.5031,232.1156 Q491.5969,232.0688 491.7188,232.0688 Q491.9156,232.0688 492.0656,232.2281 Q492.225,232.3781 492.225,232.5844 Q492.225,232.7906 492.0187,233.0344 Q491.7188,233.3813 491.2406,233.5781 Q490.5938,233.85 489.8156,233.85 Q488.9063,233.85 488.1844,233.475 Q487.5938,233.175 487.1813,232.5375 Q486.7687,231.8906 486.7687,231.1219 L486.7687,230.4281 Q486.7687,229.6313 487.1344,228.9469 Q487.5094,228.2531 488.1656,227.8875 Q488.8219,227.5125 489.5625,227.5125 Q490.0031,227.5125 490.3875,227.6156 Q490.7813,227.7094 491.1094,227.925 Z " fill="#000000"/><text fill="#000000" font-family="sans-serif" font-size="8.4" lengthAdjust="spacing" textLength="66" x="501.75" y="233.8781">OperationService</text><line style="stroke:#181818;stroke-width:0.3;" x1="363.6" x2="686.4" y1="240" y2="240"/><line style="stroke:#181818;stroke-width:0.3;" x1="363.6" x2="686.4" y1="244.8" y2="244.8"/><text fill="#000000" font-family="sans-serif" font-size="8.4" lengthAdjust="spacing" textLength="171" x="366.6" y="256.2645">+getOperationTypes() : List&lt;OperationType&gt;</text><text fill="#000000" font-family="sans-serif" font-size="8.4" lengthAdjust="spacing" textLength="227.4" x="366.6" y="267.4371">+registerOperationType(typeID, typeName) : OperationType</text><text fill="#000000" font-family="sans-serif" font-size="8.4" lengthAdjust="spacing" textLength="183.6" x="366.6" y="278.6098">-getOperationTypeByID(typeID) : OperationType</text><text fill="#000000" font-family="sans-serif" font-size="8.4" lengthAdjust="spacing" textLength="316.8" x="366.6" y="289.7824">+registerOperation(operationID, operationName, executionTime, typeID) : Operation</text></g><!--class Repositories--><g id="elem_Repositories"><rect codeLine="29" fill="#F1F1F1" height="73.4906" id="Repositories" rx="1.5" ry="1.5" style="stroke:#181818;stroke-width:0.3;" width="232.8" x="13.8" y="356.4"/><ellipse cx="103.95" cy="366" fill="#ADD1B2" rx="6.6" ry="6.6" style="stroke:#181818;stroke-width:0.6;"/><path d="M105.6094,363.525 Q105.7031,363.3938 105.8156,363.3281 Q105.9281,363.2625 106.0594,363.2625 Q106.2844,363.2625 106.425,363.4219 Q106.5656,363.5719 106.5656,363.9375 L106.5656,364.8094 Q106.5656,365.175 106.425,365.3344 Q106.2844,365.4938 106.0594,365.4938 Q105.8531,365.4938 105.7313,365.3719 Q105.6094,365.2594 105.5438,364.95 Q105.5156,364.7344 105.4031,364.6219 Q105.2063,364.3969 104.8406,364.2656 Q104.475,364.1344 104.1,364.1344 Q103.6406,364.1344 103.2563,364.3313 Q102.8813,364.5281 102.5813,364.9781 Q102.2906,365.4281 102.2906,366.0469 L102.2906,366.7031 Q102.2906,367.4437 102.825,367.9406 Q103.3594,368.4281 104.3156,368.4281 Q104.8781,368.4281 105.2719,368.2781 Q105.5063,368.1844 105.7594,367.9219 Q105.9188,367.7625 106.0031,367.7156 Q106.0969,367.6688 106.2188,367.6688 Q106.4156,367.6688 106.5656,367.8281 Q106.725,367.9781 106.725,368.1844 Q106.725,368.3906 106.5188,368.6344 Q106.2188,368.9813 105.7406,369.1781 Q105.0938,369.45 104.3156,369.45 Q103.4063,369.45 102.6844,369.075 Q102.0938,368.775 101.6812,368.1375 Q101.2688,367.4906 101.2688,366.7219 L101.2688,366.0281 Q101.2688,365.2313 101.6344,364.5469 Q102.0094,363.8531 102.6656,363.4875 Q103.3219,363.1125 104.0625,363.1125 Q104.5031,363.1125 104.8875,363.2156 Q105.2813,363.3094 105.6094,363.525 Z " fill="#000000"/><text fill="#000000" font-family="sans-serif" font-size="8.4" lengthAdjust="spacing" textLength="47.4" x="116.25" y="369.4781">Repositories</text><line style="stroke:#181818;stroke-width:0.3;" x1="14.4" x2="246" y1="375.6" y2="375.6"/><line style="stroke:#181818;stroke-width:0.3;" x1="14.4" x2="246" y1="380.4" y2="380.4"/><text fill="#000000" font-family="sans-serif" font-size="8.4" lengthAdjust="spacing" textLength="56.4" x="17.4" y="391.8645">-Repositories()</text><text fill="#000000" font-family="sans-serif" font-size="8.4" lengthAdjust="spacing" textLength="109.2" x="17.4" y="403.0371">+getInstance() : Repositories</text><text fill="#000000" font-family="sans-serif" font-size="8.4" lengthAdjust="spacing" textLength="187.2" x="17.4" y="414.2098">+getOperationRepository() : OperationRepository</text><text fill="#000000" font-family="sans-serif" font-size="8.4" lengthAdjust="spacing" textLength="225.6" x="17.4" y="425.3824">+getOperationTypeRepository() : OperationTypeRepository</text></g><!--class OperationTypeRepository--><g id="elem_OperationTypeRepository"><rect codeLine="36" fill="#F1F1F1" height="73.4906" id="OperationTypeRepository" rx="1.5" ry="1.5" style="stroke:#181818;stroke-width:0.3;" width="170.4" x="13.8" y="477"/><ellipse cx="47.55" cy="486.6" fill="#ADD1B2" rx="6.6" ry="6.6" style="stroke:#181818;stroke-width:0.6;"/><path d="M49.2094,484.125 Q49.3031,483.9938 49.4156,483.9281 Q49.5281,483.8625 49.6594,483.8625 Q49.8844,483.8625 50.025,484.0219 Q50.1656,484.1719 50.1656,484.5375 L50.1656,485.4094 Q50.1656,485.775 50.025,485.9344 Q49.8844,486.0938 49.6594,486.0938 Q49.4531,486.0938 49.3313,485.9719 Q49.2094,485.8594 49.1438,485.55 Q49.1156,485.3344 49.0031,485.2219 Q48.8063,484.9969 48.4406,484.8656 Q48.075,484.7344 47.7,484.7344 Q47.2406,484.7344 46.8562,484.9313 Q46.4812,485.1281 46.1813,485.5781 Q45.8906,486.0281 45.8906,486.6469 L45.8906,487.3031 Q45.8906,488.0438 46.425,488.5406 Q46.9594,489.0281 47.9156,489.0281 Q48.4781,489.0281 48.8719,488.8781 Q49.1062,488.7844 49.3594,488.5219 Q49.5188,488.3625 49.6031,488.3156 Q49.6969,488.2687 49.8188,488.2687 Q50.0156,488.2687 50.1656,488.4281 Q50.325,488.5781 50.325,488.7844 Q50.325,488.9906 50.1188,489.2344 Q49.8188,489.5812 49.3406,489.7781 Q48.6938,490.05 47.9156,490.05 Q47.0063,490.05 46.2844,489.675 Q45.6938,489.375 45.2813,488.7375 Q44.8688,488.0906 44.8688,487.3219 L44.8688,486.6281 Q44.8688,485.8312 45.2344,485.1469 Q45.6094,484.4531 46.2656,484.0875 Q46.9219,483.7125 47.6625,483.7125 Q48.1031,483.7125 48.4875,483.8156 Q48.8813,483.9094 49.2094,484.125 Z " fill="#000000"/><text fill="#000000" font-family="sans-serif" font-size="8.4" lengthAdjust="spacing" textLength="97.8" x="59.85" y="490.0781">OperationTypeRepository</text><line style="stroke:#181818;stroke-width:0.3;" x1="14.4" x2="183.6" y1="496.2" y2="496.2"/><line style="stroke:#181818;stroke-width:0.3;" x1="14.4" x2="183.6" y1="501" y2="501"/><text fill="#000000" font-family="sans-serif" font-size="8.4" lengthAdjust="spacing" textLength="118.8" x="17.4" y="512.4645">+getAll() : List&lt;OperationType&gt;</text><text fill="#000000" font-family="sans-serif" font-size="8.4" lengthAdjust="spacing" textLength="128.4" x="17.4" y="523.6371">+getByID(typeID) : OperationType</text><text fill="#000000" font-family="sans-serif" font-size="8.4" lengthAdjust="spacing" textLength="163.2" x="17.4" y="534.8098">+getOperationTypeExists(typeID) : boolean</text><text fill="#000000" font-family="sans-serif" font-size="8.4" lengthAdjust="spacing" textLength="82.8" x="17.4" y="545.9824">+save(type) : boolean</text></g><!--class OperationRepository--><g id="elem_OperationRepository"><rect codeLine="43" fill="#F1F1F1" height="51.1453" id="OperationRepository" rx="1.5" ry="1.5" style="stroke:#181818;stroke-width:0.3;" width="171" x="205.5" y="488.1"/><ellipse cx="249.15" cy="497.7" fill="#ADD1B2" rx="6.6" ry="6.6" style="stroke:#181818;stroke-width:0.6;"/><path d="M250.8094,495.225 Q250.9031,495.0938 251.0156,495.0281 Q251.1281,494.9625 251.2594,494.9625 Q251.4844,494.9625 251.625,495.1219 Q251.7656,495.2719 251.7656,495.6375 L251.7656,496.5094 Q251.7656,496.875 251.625,497.0344 Q251.4844,497.1937 251.2594,497.1937 Q251.0531,497.1937 250.9312,497.0719 Q250.8094,496.9594 250.7437,496.65 Q250.7156,496.4344 250.6031,496.3219 Q250.4063,496.0969 250.0406,495.9656 Q249.675,495.8344 249.3,495.8344 Q248.8406,495.8344 248.4562,496.0313 Q248.0812,496.2281 247.7813,496.6781 Q247.4906,497.1281 247.4906,497.7469 L247.4906,498.4031 Q247.4906,499.1437 248.025,499.6406 Q248.5594,500.1281 249.5156,500.1281 Q250.0781,500.1281 250.4719,499.9781 Q250.7062,499.8844 250.9594,499.6219 Q251.1187,499.4625 251.2031,499.4156 Q251.2969,499.3688 251.4188,499.3688 Q251.6156,499.3688 251.7656,499.5281 Q251.925,499.6781 251.925,499.8844 Q251.925,500.0906 251.7188,500.3344 Q251.4188,500.6813 250.9406,500.8781 Q250.2938,501.15 249.5156,501.15 Q248.6063,501.15 247.8844,500.775 Q247.2938,500.475 246.8813,499.8375 Q246.4688,499.1906 246.4688,498.4219 L246.4688,497.7281 Q246.4688,496.9313 246.8344,496.2469 Q247.2094,495.5531 247.8656,495.1875 Q248.5219,494.8125 249.2625,494.8125 Q249.7031,494.8125 250.0875,494.9156 Q250.4813,495.0094 250.8094,495.225 Z " fill="#000000"/><text fill="#000000" font-family="sans-serif" font-size="8.4" lengthAdjust="spacing" textLength="78.6" x="261.45" y="501.1781">OperationRepository</text><line style="stroke:#181818;stroke-width:0.3;" x1="206.1" x2="375.9" y1="507.3" y2="507.3"/><line style="stroke:#181818;stroke-width:0.3;" x1="206.1" x2="375.9" y1="512.1" y2="512.1"/><text fill="#000000" font-family="sans-serif" font-size="8.4" lengthAdjust="spacing" textLength="163.8" x="209.1" y="523.5645">+getOperationExists(operationID) : boolean</text><text fill="#000000" font-family="sans-serif" font-size="8.4" lengthAdjust="spacing" textLength="102.6" x="209.1" y="534.7371">+save(operation) : boolean</text></g><!--class Operation--><g id="elem_Operation"><rect codeLine="50" fill="#F1F1F1" height="84.6633" id="Operation" rx="1.5" ry="1.5" style="stroke:#181818;stroke-width:0.3;" width="168.6" x="635.1" y="612.6"/><ellipse cx="697.95" cy="622.2" fill="#ADD1B2" rx="6.6" ry="6.6" style="stroke:#181818;stroke-width:0.6;"/><path d="M699.6094,619.725 Q699.7031,619.5938 699.8156,619.5281 Q699.9281,619.4625 700.0594,619.4625 Q700.2844,619.4625 700.425,619.6219 Q700.5656,619.7719 700.5656,620.1375 L700.5656,621.0094 Q700.5656,621.375 700.425,621.5344 Q700.2844,621.6938 700.0594,621.6938 Q699.8531,621.6938 699.7312,621.5719 Q699.6094,621.4594 699.5437,621.15 Q699.5156,620.9344 699.4031,620.8219 Q699.2063,620.5969 698.8406,620.4656 Q698.475,620.3344 698.1,620.3344 Q697.6406,620.3344 697.2563,620.5313 Q696.8813,620.7281 696.5813,621.1781 Q696.2906,621.6281 696.2906,622.2469 L696.2906,622.9031 Q696.2906,623.6438 696.825,624.1406 Q697.3594,624.6281 698.3156,624.6281 Q698.8781,624.6281 699.2719,624.4781 Q699.5063,624.3844 699.7594,624.1219 Q699.9187,623.9625 700.0031,623.9156 Q700.0969,623.8688 700.2188,623.8688 Q700.4156,623.8688 700.5656,624.0281 Q700.725,624.1781 700.725,624.3844 Q700.725,624.5906 700.5188,624.8344 Q700.2188,625.1813 699.7406,625.3781 Q699.0938,625.65 698.3156,625.65 Q697.4063,625.65 696.6844,625.275 Q696.0938,624.975 695.6813,624.3375 Q695.2688,623.6906 695.2688,622.9219 L695.2688,622.2281 Q695.2688,621.4313 695.6344,620.7469 Q696.0094,620.0531 696.6656,619.6875 Q697.3219,619.3125 698.0625,619.3125 Q698.5031,619.3125 698.8875,619.4156 Q699.2813,619.5094 699.6094,619.725 Z " fill="#000000"/><text fill="#000000" font-family="sans-serif" font-size="8.4" lengthAdjust="spacing" textLength="37.8" x="710.25" y="625.6781">Operation</text><line style="stroke:#181818;stroke-width:0.3;" x1="635.7" x2="803.1" y1="631.8" y2="631.8"/><text fill="#000000" font-family="sans-serif" font-size="8.4" lengthAdjust="spacing" textLength="39" x="638.7" y="643.2645">-id : String</text><text fill="#000000" font-family="sans-serif" font-size="8.4" lengthAdjust="spacing" textLength="83.4" x="638.7" y="654.4371">-type : OperationType</text><text fill="#000000" font-family="sans-serif" font-size="8.4" lengthAdjust="spacing" textLength="53.4" x="638.7" y="665.6098">-name : String</text><text fill="#000000" font-family="sans-serif" font-size="8.4" lengthAdjust="spacing" textLength="73.8" x="638.7" y="676.7824">-executionTime : int</text><line style="stroke:#181818;stroke-width:0.3;" x1="635.7" x2="803.1" y1="681.2906" y2="681.2906"/><text fill="#000000" font-family="sans-serif" font-size="8.4" lengthAdjust="spacing" textLength="161.4" x="638.7" y="692.7551">+Operation(id, type, name, executionTime)</text></g><!--class OperationType--><g id="elem_OperationType"><rect codeLine="58" fill="#F1F1F1" height="73.4906" id="OperationType" rx="1.5" ry="1.5" style="stroke:#181818;stroke-width:0.3;" width="222" x="608.4" y="744.6"/><ellipse cx="688.35" cy="754.2" fill="#ADD1B2" rx="6.6" ry="6.6" style="stroke:#181818;stroke-width:0.6;"/><path d="M690.0094,751.725 Q690.1031,751.5938 690.2156,751.5281 Q690.3281,751.4625 690.4594,751.4625 Q690.6844,751.4625 690.825,751.6219 Q690.9656,751.7719 690.9656,752.1375 L690.9656,753.0094 Q690.9656,753.375 690.825,753.5344 Q690.6844,753.6938 690.4594,753.6938 Q690.2531,753.6938 690.1313,753.5719 Q690.0094,753.4594 689.9438,753.15 Q689.9156,752.9344 689.8031,752.8219 Q689.6062,752.5969 689.2406,752.4656 Q688.875,752.3344 688.5,752.3344 Q688.0406,752.3344 687.6563,752.5313 Q687.2813,752.7281 686.9812,753.1781 Q686.6906,753.6281 686.6906,754.2469 L686.6906,754.9031 Q686.6906,755.6438 687.225,756.1406 Q687.7594,756.6281 688.7156,756.6281 Q689.2781,756.6281 689.6719,756.4781 Q689.9063,756.3844 690.1594,756.1219 Q690.3188,755.9625 690.4031,755.9156 Q690.4969,755.8688 690.6188,755.8688 Q690.8156,755.8688 690.9656,756.0281 Q691.125,756.1781 691.125,756.3844 Q691.125,756.5906 690.9187,756.8344 Q690.6188,757.1813 690.1406,757.3781 Q689.4938,757.65 688.7156,757.65 Q687.8063,757.65 687.0844,757.275 Q686.4938,756.975 686.0813,756.3375 Q685.6687,755.6906 685.6687,754.9219 L685.6687,754.2281 Q685.6687,753.4313 686.0344,752.7469 Q686.4094,752.0531 687.0656,751.6875 Q687.7219,751.3125 688.4625,751.3125 Q688.9031,751.3125 689.2875,751.4156 Q689.6813,751.5094 690.0094,751.725 Z " fill="#000000"/><text fill="#000000" font-family="sans-serif" font-size="8.4" lengthAdjust="spacing" textLength="57" x="700.65" y="757.6781">OperationType</text><line style="stroke:#181818;stroke-width:0.3;" x1="609" x2="829.8" y1="763.8" y2="763.8"/><text fill="#000000" font-family="sans-serif" font-size="8.4" lengthAdjust="spacing" textLength="39" x="612" y="775.2645">-id : String</text><text fill="#000000" font-family="sans-serif" font-size="8.4" lengthAdjust="spacing" textLength="53.4" x="612" y="786.4371">-name : String</text><text fill="#000000" font-family="sans-serif" font-size="8.4" lengthAdjust="spacing" textLength="214.8" x="612" y="797.6098">-workstationSetupTime : Map&lt;WorkstationType, Integer&gt;</text><line style="stroke:#181818;stroke-width:0.3;" x1="609" x2="829.8" y1="802.118" y2="802.118"/><text fill="#000000" font-family="sans-serif" font-size="8.4" lengthAdjust="spacing" textLength="100.2" x="612" y="813.5824">+OperationType(id, name)</text></g><!--class OperationException--><g id="elem_OperationException"><rect codeLine="67" fill="#F1F1F1" height="62.318" id="OperationException" rx="1.5" ry="1.5" style="stroke:#181818;stroke-width:0.3;" width="229.8" x="556.5" y="361.8"/><ellipse cx="631.65" cy="371.4" fill="#ADD1B2" rx="6.6" ry="6.6" style="stroke:#181818;stroke-width:0.6;"/><path d="M633.3094,368.925 Q633.4031,368.7938 633.5156,368.7281 Q633.6281,368.6625 633.7594,368.6625 Q633.9844,368.6625 634.125,368.8219 Q634.2656,368.9719 634.2656,369.3375 L634.2656,370.2094 Q634.2656,370.575 634.125,370.7344 Q633.9844,370.8938 633.7594,370.8938 Q633.5531,370.8938 633.4313,370.7719 Q633.3094,370.6594 633.2438,370.35 Q633.2156,370.1344 633.1031,370.0219 Q632.9063,369.7969 632.5406,369.6656 Q632.175,369.5344 631.8,369.5344 Q631.3406,369.5344 630.9563,369.7313 Q630.5813,369.9281 630.2813,370.3781 Q629.9906,370.8281 629.9906,371.4469 L629.9906,372.1031 Q629.9906,372.8438 630.525,373.3406 Q631.0594,373.8281 632.0156,373.8281 Q632.5781,373.8281 632.9719,373.6781 Q633.2063,373.5844 633.4594,373.3219 Q633.6188,373.1625 633.7031,373.1156 Q633.7969,373.0687 633.9187,373.0687 Q634.1156,373.0687 634.2656,373.2281 Q634.425,373.3781 634.425,373.5844 Q634.425,373.7906 634.2188,374.0344 Q633.9187,374.3812 633.4406,374.5781 Q632.7937,374.85 632.0156,374.85 Q631.1062,374.85 630.3844,374.475 Q629.7937,374.175 629.3813,373.5375 Q628.9688,372.8906 628.9688,372.1219 L628.9688,371.4281 Q628.9688,370.6312 629.3344,369.9469 Q629.7094,369.2531 630.3656,368.8875 Q631.0219,368.5125 631.7625,368.5125 Q632.2031,368.5125 632.5875,368.6156 Q632.9812,368.7094 633.3094,368.925 Z " fill="#000000"/><text fill="#000000" font-family="sans-serif" font-size="8.4" lengthAdjust="spacing" textLength="74.4" x="643.95" y="374.8781">OperationException</text><line style="stroke:#181818;stroke-width:0.3;" x1="557.1" x2="785.7" y1="381" y2="381"/><line style="stroke:#181818;stroke-width:0.3;" x1="557.1" x2="785.7" y1="385.8" y2="385.8"/><text fill="#000000" font-family="sans-serif" font-size="8.4" lengthAdjust="spacing" textLength="222" x="560.1" y="397.2645">+operationTypeAlreadyExists(typeID) : OperationException</text><text fill="#000000" font-family="sans-serif" font-size="8.4" lengthAdjust="spacing" textLength="222.6" x="560.1" y="408.4371">+operationAlreadyExists(operationID) : OperationException</text><text fill="#000000" font-family="sans-serif" font-size="8.4" lengthAdjust="spacing" textLength="208.8" x="560.1" y="419.6098">+operationTypeNotFound(typeID) : OperationException</text></g><!--class RuntimeException--><g id="elem_RuntimeException"><rect codeLine="73" fill="#F1F1F1" height="28.8" id="RuntimeException" rx="1.5" ry="1.5" style="stroke:#181818;stroke-width:0.3;" width="87" x="627.9" y="499.2"/><ellipse cx="636.9" cy="508.8" fill="#ADD1B2" rx="6.6" ry="6.6" style="stroke:#181818;stroke-width:0.6;"/><path d="M638.5594,506.325 Q638.6531,506.1937 638.7656,506.1281 Q638.8781,506.0625 639.0094,506.0625 Q639.2344,506.0625 639.375,506.2219 Q639.5156,506.3719 639.5156,506.7375 L639.5156,507.6094 Q639.5156,507.975 639.375,508.1344 Q639.2344,508.2938 639.0094,508.2938 Q638.8031,508.2938 638.6813,508.1719 Q638.5594,508.0594 638.4938,507.75 Q638.4656,507.5344 638.3531,507.4219 Q638.1563,507.1969 637.7906,507.0656 Q637.425,506.9344 637.05,506.9344 Q636.5906,506.9344 636.2063,507.1312 Q635.8313,507.3281 635.5313,507.7781 Q635.2406,508.2281 635.2406,508.8469 L635.2406,509.5031 Q635.2406,510.2438 635.775,510.7406 Q636.3094,511.2281 637.2656,511.2281 Q637.8281,511.2281 638.2219,511.0781 Q638.4563,510.9844 638.7094,510.7219 Q638.8688,510.5625 638.9531,510.5156 Q639.0469,510.4688 639.1687,510.4688 Q639.3656,510.4688 639.5156,510.6281 Q639.675,510.7781 639.675,510.9844 Q639.675,511.1906 639.4688,511.4344 Q639.1687,511.7813 638.6906,511.9781 Q638.0437,512.25 637.2656,512.25 Q636.3562,512.25 635.6344,511.875 Q635.0437,511.575 634.6313,510.9375 Q634.2188,510.2906 634.2188,509.5219 L634.2188,508.8281 Q634.2188,508.0313 634.5844,507.3469 Q634.9594,506.6531 635.6156,506.2875 Q636.2719,505.9125 637.0125,505.9125 Q637.4531,505.9125 637.8375,506.0156 Q638.2312,506.1094 638.5594,506.325 Z " fill="#000000"/><text fill="#000000" font-family="sans-serif" font-size="8.4" lengthAdjust="spacing" textLength="67.8" x="645.3" y="512.2781">RuntimeException</text><line style="stroke:#181818;stroke-width:0.3;" x1="628.5" x2="714.3" y1="518.4" y2="518.4"/><line style="stroke:#181818;stroke-width:0.3;" x1="628.5" x2="714.3" y1="523.2" y2="523.2"/></g><!--link RegisterOperationUI to OperationController--><g id="link_RegisterOperationUI_OperationController"><path codeLine="76" d="M525,55.362 C525,68.778 525,85.902 525,103.164 " fill="none" id="RegisterOperationUI-to-OperationController" style="stroke:#181818;stroke-width:0.6;stroke-dasharray:7.0,7.0;"/><polygon fill="#181818" points="525,106.764,527.4,101.364,525,103.764,522.6,101.364,525,106.764" style="stroke:#181818;stroke-width:0.6;"/></g><!--link OperationController to OperationService--><g id="link_OperationController_OperationService"><path codeLine="77" d="M525,169.35 C525,185.082 525,200.724 525,217.152 " fill="none" id="OperationController-to-OperationService" style="stroke:#181818;stroke-width:0.6;stroke-dasharray:7.0,7.0;"/><polygon fill="#181818" points="525,220.752,527.4,215.352,525,217.752,522.6,215.352,525,220.752" style="stroke:#181818;stroke-width:0.6;"/></g><!--link OperationService to Repositories--><g id="link_OperationService_Repositories"><path codeLine="78" d="M364.518,294.012 C317.766,304.5 279,313.2 279,313.2 C279,313.2 240.3339,333.7805 201.0279,354.7025 " fill="none" id="OperationService-to-Repositories" style="stroke:#181818;stroke-width:0.6;stroke-dasharray:7.0,7.0;"/><polygon fill="#181818" points="197.85,356.394,203.7445,355.9753,200.4982,354.9844,201.4891,351.7381,197.85,356.394" style="stroke:#181818;stroke-width:0.6;"/><text fill="#000000" font-family="sans-serif" font-size="7.8" lengthAdjust="spacing" textLength="40.2" x="279.6" y="322.217">repositories</text></g><!--link OperationService to OperationRepository--><g id="link_OperationService_OperationRepository"><path codeLine="79" d="M500.418,294.12 C488.358,311.826 476.4,329.4 476.4,329.4 C476.4,329.4 427.8,429.6 427.8,429.6 C427.8,429.6 375.2419,461.6443 334.9339,486.2143 " fill="none" id="OperationService-to-OperationRepository" style="stroke:#181818;stroke-width:0.6;stroke-dasharray:7.0,7.0;"/><polygon fill="#181818" points="331.86,488.088,337.7201,487.3267,334.4216,486.5266,335.2217,483.2281,331.86,488.088" style="stroke:#181818;stroke-width:0.6;"/><text fill="#000000" font-family="sans-serif" font-size="7.8" lengthAdjust="spacing" textLength="69" x="477" y="396.317">operationRepository</text></g><!--link OperationService to OperationTypeRepository--><g id="link_OperationService_OperationTypeRepository"><path codeLine="80" d="M429.672,294.012 C382.698,311.76 336,329.4 336,329.4 C336,329.4 296.4,459 296.4,459 C296.4,459 195,477 195,477 C195,477 194.2544,477.2769 187.7324,479.7249 " fill="none" id="OperationService-to-OperationTypeRepository" style="stroke:#181818;stroke-width:0.6;stroke-dasharray:7.0,7.0;"/><polygon fill="#181818" points="184.362,480.99,190.261,481.3393,187.1707,479.9358,188.5742,476.8455,184.362,480.99" style="stroke:#181818;stroke-width:0.6;"/><text fill="#000000" font-family="sans-serif" font-size="7.8" lengthAdjust="spacing" textLength="85.8" x="336.6" y="396.317">operationTypeRepository</text></g><!--link OperationService to Operation--><g id="link_OperationService_Operation"><path codeLine="81" d="M661.794,294.012 C729.192,311.76 796.2,329.4 796.2,329.4 C796.2,329.4 796.2,564.6 796.2,564.6 C796.2,564.6 777.6555,586.2615 757.6695,609.6015 " fill="none" id="OperationService-to-Operation" style="stroke:#181818;stroke-width:0.6;stroke-dasharray:7.0,7.0;"/><polygon fill="#181818" points="755.328,612.336,760.6633,609.7953,757.2793,610.0573,757.0173,606.6733,755.328,612.336" style="stroke:#181818;stroke-width:0.6;"/><text fill="#000000" font-family="sans-serif" font-size="7.8" lengthAdjust="spacing" textLength="31.8" x="796.8" y="456.617">operation</text></g><!--link OperationService to OperationType--><g id="link_OperationService_OperationType"><path codeLine="82" d="M685.872,294.012 C732.738,304.5 771.6,313.2 771.6,313.2 C771.6,313.2 811.8,329.4 811.8,329.4 C811.8,329.4 879.6,392.4 879.6,392.4 C879.6,392.4 879.6,392.4 879.6,655.5 C879.6,655.5 815.6875,705.4125 768.3595,742.3665 " fill="none" id="OperationService-to-OperationType" style="stroke:#181818;stroke-width:0.6;stroke-dasharray:7.0,7.0;"/><polygon fill="#181818" points="765.522,744.582,771.2553,743.1504,767.8866,742.7357,768.3012,739.367,765.522,744.582" style="stroke:#181818;stroke-width:0.6;"/><text fill="#000000" font-family="sans-serif" font-size="7.8" lengthAdjust="spacing" textLength="15" x="880.2" y="516.917">type</text></g><!--link Repositories to Repositories--><g id="link_Repositories_Repositories"><path codeLine="83" d="M246.726,383.574 C259.422,385.374 267.6,388.518 267.6,393 C267.6,397.482 262.9864,400.1207 250.2904,401.9207 " fill="none" id="Repositories-to-Repositories" style="stroke:#181818;stroke-width:0.6;"/><polygon fill="#181818" points="246.726,402.426,252.4094,404.0442,249.6963,402.0049,251.7356,399.2917,246.726,402.426" style="stroke:#181818;stroke-width:0.6;"/><text fill="#000000" font-family="sans-serif" font-size="7.8" lengthAdjust="spacing" textLength="29.4" x="271.2" y="396.317">instance</text></g><!--link Repositories to OperationRepository--><g id="link_Repositories_OperationRepository"><path codeLine="84" d="M181.824,429.618 C196.026,439.524 207.6,447.6 207.6,447.6 C207.6,447.6 232.8291,467.3866 256.3971,485.8666 " fill="none" id="Repositories-to-OperationRepository" style="stroke:#181818;stroke-width:0.6;"/><polygon fill="#181818" points="259.23,488.088,256.4615,482.8673,256.8692,486.2369,253.4997,486.6446,259.23,488.088" style="stroke:#181818;stroke-width:0.6;"/><text fill="#000000" font-family="sans-serif" font-size="7.8" lengthAdjust="spacing" textLength="69" x="222" y="456.617">operationRepository</text><text fill="#000000" font-family="sans-serif" font-size="7.8" lengthAdjust="spacing" textLength="4.2" x="183.6597" y="443.1123">1</text><text fill="#000000" font-family="sans-serif" font-size="7.8" lengthAdjust="spacing" textLength="4.2" x="249.632" y="481.4285">1</text></g><!--link Repositories to OperationTypeRepository--><g id="link_Repositories_OperationTypeRepository"><path codeLine="85" d="M120.756,429.75 C116.844,444.708 113.2299,458.5409 109.3239,473.4929 " fill="none" id="Repositories-to-OperationTypeRepository" style="stroke:#181818;stroke-width:0.6;"/><polygon fill="#181818" points="108.414,476.976,112.1009,472.3579,109.1723,474.0734,107.4568,471.1447,108.414,476.976" style="stroke:#181818;stroke-width:0.6;"/><text fill="#000000" font-family="sans-serif" font-size="7.8" lengthAdjust="spacing" textLength="85.8" x="116.4" y="456.617">operationTypeRepository</text><text fill="#000000" font-family="sans-serif" font-size="7.8" lengthAdjust="spacing" textLength="4.2" x="115.2212" y="442.9992">1</text><text fill="#000000" font-family="sans-serif" font-size="7.8" lengthAdjust="spacing" textLength="4.2" x="105.0597" y="470.3619">1</text></g><!--link OperationRepository to Operation--><g id="link_OperationRepository_Operation"><path codeLine="86" d="M367.344,539.166 C442.518,563.748 553.6543,600.0992 631.5163,625.5572 " fill="none" id="OperationRepository-to-Operation" style="stroke:#181818;stroke-width:0.6;"/><polygon fill="#181818" points="634.938,626.676,630.5512,622.7167,632.0865,625.7437,629.0595,627.279,634.938,626.676" style="stroke:#181818;stroke-width:0.6;"/><text fill="#000000" font-family="sans-serif" font-size="7.8" lengthAdjust="spacing" textLength="36" x="492.6" y="578.417">categories</text><text fill="#000000" font-family="sans-serif" font-size="7.8" lengthAdjust="spacing" textLength="4.2" x="374.9766" y="552.4727">1</text><text fill="#000000" font-family="sans-serif" font-size="7.8" lengthAdjust="spacing" textLength="3" x="627.237" y="623.0736">*</text></g><!--link OperationTypeRepository to OperationType--><g id="link_OperationTypeRepository_OperationType"><path codeLine="87" d="M167.748,550.29 C183.132,558.372 195,564.6 195,564.6 C195,564.6 479.3954,681.7408 628.5914,743.1988 " fill="none" id="OperationTypeRepository-to-OperationType" style="stroke:#181818;stroke-width:0.6;"/><polygon fill="#181818" points="631.92,744.57,627.8411,740.2942,629.1461,743.4274,626.0129,744.7324,631.92,744.57" style="stroke:#181818;stroke-width:0.6;"/><text fill="#000000" font-family="sans-serif" font-size="7.8" lengthAdjust="spacing" textLength="36" x="509.4" y="658.217">categories</text><text fill="#000000" font-family="sans-serif" font-size="7.8" lengthAdjust="spacing" textLength="4.2" x="171.6707" y="563.7931">1</text><text fill="#000000" font-family="sans-serif" font-size="7.8" lengthAdjust="spacing" textLength="3" x="618.6317" y="737.9553">*</text></g><!--link Operation to OperationType--><g id="link_Operation_OperationType"><path codeLine="88" d="M719.4,697.332 C719.4,712.602 719.4,726.132 719.4,740.862 " fill="none" id="Operation-to-OperationType" style="stroke:#181818;stroke-width:0.6;"/><polygon fill="#181818" points="719.4,744.462,721.8,739.062,719.4,741.462,717,739.062,719.4,744.462" style="stroke:#181818;stroke-width:0.6;"/><text fill="#000000" font-family="sans-serif" font-size="7.8" lengthAdjust="spacing" textLength="12.6" x="720" y="724.217">has</text><text fill="#000000" font-family="sans-serif" font-size="7.8" lengthAdjust="spacing" textLength="3" x="716.2523" y="710.4334">*</text><text fill="#000000" font-family="sans-serif" font-size="7.8" lengthAdjust="spacing" textLength="4.2" x="714.9572" y="737.8348">1</text></g><!--link OperationService to OperationException--><g id="link_OperationService_OperationException"><path codeLine="89" d="M564.234,294.018 C587.268,315.168 613.422,339.1755 635.37,359.3235 " fill="none" id="OperationService-to-OperationException" style="stroke:#181818;stroke-width:0.6;stroke-dasharray:7.0,7.0;"/><polygon fill="#181818" points="638.022,361.758,635.667,356.3382,635.812,359.7292,632.421,359.8742,638.022,361.758" style="stroke:#181818;stroke-width:0.6;"/><text fill="#000000" font-family="sans-serif" font-size="7.8" lengthAdjust="spacing" textLength="22.8" x="594" y="322.217">throws</text></g><!--link OperationException to RuntimeException--><g id="link_OperationException_RuntimeException"><path codeLine="90" d="M671.4,424.35 C671.4,448.464 671.4,470.094 671.4,488.298 " fill="none" id="OperationException-to-RuntimeException" style="stroke:#181818;stroke-width:0.6;"/><polygon fill="none" points="671.4,499.098,675,488.298,667.8,488.298,671.4,499.098" style="stroke:#181818;stroke-width:0.6;"/></g><!--SRC=[nLPHRvim47xdLrXv8bkejjUeYfIjdOIqTbBIQiykt8WLrqQsQSAs_lVPX68RJCXUDbu8lk-xEv-_EqVk2IknmC-enDaU5x1LDGKa85EO5HGYsG7a3kVyG5Y1Vc0gNGib35HT0YevhSs7OyiebdAjb21FbO8qusnBVWBw44LjG3HxJ6VeLuJqqu3H1WeY5OXl9GYi26UFQMj_ZLuTtcVEbE2KWl3v7Sy2MhjvtXUWEiI3pbh6SxH4NtN8QszzPIcYdv6nnsRBwSq2cVSzVWRZnaESSH3pjr_6G_TXt2mG726h6YV4V9xYUDu3rTY2U24PZ9IYjVxdEYJzc9_gz2OExE-VLsy39PT4SL7tjTYk4v1EyH9tFPvxHKsPrBsJGLDE5nSklOqSUqdQzV4Z6-FwjdQx8Ldum9uwrfHEIqBZBZl4VkwtH-rMEhmdpYbWPXaIlvp4rRU6zpAwZmxHXdJ4Cnwt0ms3kxgvupdGaPvpzK9oxMQhfo0hx68pCqTxXMar1qYUlBMTC6LJjnr2yfFq5uWDks8-8Od9p4ToEt2nr-8_3HnLbMsATxYy_cvD3qrQALDGW5W5ac-cYjc02JCFLFtsc45fa2ELx-ok4hZhVaq5uBmUY73e8k309_VaT947ay8zLrzunVBfwDv1RIgcT5ajGbj3D-RLrIfq4qQXsz73jbT5DBWx3CgRXqlzFy4PRq52g3sNTcGxK-eylJUf71UzONVUZKky8AA6czE9l6qdoQ0Ef9tvFd3sSTQ0pVloEaox-FjQEEZEuxkPLvOCwtxi7MGlK93QbYb4Ru31x3LXXwSKOxjOdy9Ey8D3iBOa-RqQDiKV]--></g></svg>