<?xml version="1.0" encoding="us-ascii" standalone="no"?><svg xmlns="http://www.w3.org/2000/svg" xmlns:xlink="http://www.w3.org/1999/xlink" contentStyleType="text/css" height="1024px" preserveAspectRatio="none" style="width:2149px;height:1024px;background:#FFFFFF;" version="1.1" viewBox="0 0 2149 1024" width="2149px" zoomAndPan="magnify"><defs/><g><!--cluster UI--><g id="cluster_UI"><rect fill="none" height="101" rx="2.5" ry="2.5" style="stroke:#000000;stroke-width:1.5;" width="204" x="165" y="44"/><text fill="#000000" font-family="sans-serif" font-size="14" font-weight="bold" lengthAdjust="spacing" textLength="14" x="260" y="61.1074">UI</text></g><!--cluster Controller--><g id="cluster_Controller"><rect fill="none" height="157" rx="2.5" ry="2.5" style="stroke:#000000;stroke-width:1.5;" width="538" x="7" y="242"/><text fill="#000000" font-family="sans-serif" font-size="14" font-weight="bold" lengthAdjust="spacing" textLength="71" x="240.5" y="259.1074">Controller</text></g><!--cluster Service--><g id="cluster_Service"><rect fill="none" height="175" rx="2.5" ry="2.5" style="stroke:#000000;stroke-width:1.5;" width="520" x="1222" y="7"/><text fill="#000000" font-family="sans-serif" font-size="14" font-weight="bold" lengthAdjust="spacing" textLength="54" x="1455" y="24.1074">Service</text></g><!--cluster Repository--><g id="cluster_Repository"><rect fill="none" height="376" rx="2.5" ry="2.5" style="stroke:#000000;stroke-width:1.5;" width="671" x="569" y="233"/><text fill="#000000" font-family="sans-serif" font-size="14" font-weight="bold" lengthAdjust="spacing" textLength="76" x="866.5" y="250.1074">Repository</text></g><!--cluster Model--><g id="cluster_Model"><rect fill="none" height="358" rx="2.5" ry="2.5" style="stroke:#000000;stroke-width:1.5;" width="252" x="1811" y="660"/><text fill="#000000" font-family="sans-serif" font-size="14" font-weight="bold" lengthAdjust="spacing" textLength="44" x="1915" y="677.1074">Model</text></g><!--cluster Exception--><g id="cluster_Exception"><rect fill="none" height="330" rx="2.5" ry="2.5" style="stroke:#000000;stroke-width:1.5;" width="450" x="1523" y="242"/><text fill="#000000" font-family="sans-serif" font-size="14" font-weight="bold" lengthAdjust="spacing" textLength="70" x="1713" y="259.1074">Exception</text></g><!--class RegisterWorkstationUI--><g id="elem_RegisterWorkstationUI"><rect codeLine="7" fill="#F1F1F1" height="48" id="RegisterWorkstationUI" rx="2.5" ry="2.5" style="stroke:#181818;stroke-width:0.5;" width="172" x="181" y="81"/><ellipse cx="196" cy="97" fill="#ADD1B2" rx="11" ry="11" style="stroke:#181818;stroke-width:1.0;"/><path d="M198.7656,92.875 Q198.9219,92.6563 199.1094,92.5469 Q199.2969,92.4375 199.5156,92.4375 Q199.8906,92.4375 200.125,92.7031 Q200.3594,92.9531 200.3594,93.5625 L200.3594,95.0156 Q200.3594,95.625 200.125,95.8906 Q199.8906,96.1563 199.5156,96.1563 Q199.1719,96.1563 198.9688,95.9531 Q198.7656,95.7656 198.6563,95.25 Q198.6094,94.8906 198.4219,94.7031 Q198.0938,94.3281 197.4844,94.1094 Q196.875,93.8906 196.25,93.8906 Q195.4844,93.8906 194.8438,94.2188 Q194.2188,94.5469 193.7188,95.2969 Q193.2344,96.0469 193.2344,97.0781 L193.2344,98.1719 Q193.2344,99.4063 194.125,100.2344 Q195.0156,101.0469 196.6094,101.0469 Q197.5469,101.0469 198.2031,100.7969 Q198.5938,100.6406 199.0156,100.2031 Q199.2813,99.9375 199.4219,99.8594 Q199.5781,99.7813 199.7813,99.7813 Q200.1094,99.7813 200.3594,100.0469 Q200.625,100.2969 200.625,100.6406 Q200.625,100.9844 200.2813,101.3906 Q199.7813,101.9688 198.9844,102.2969 Q197.9063,102.75 196.6094,102.75 Q195.0938,102.75 193.8906,102.125 Q192.9063,101.625 192.2188,100.5625 Q191.5313,99.4844 191.5313,98.2031 L191.5313,97.0469 Q191.5313,95.7188 192.1406,94.5781 Q192.7656,93.4219 193.8594,92.8125 Q194.9531,92.1875 196.1875,92.1875 Q196.9219,92.1875 197.5625,92.3594 Q198.2188,92.5156 198.7656,92.875 Z " fill="#000000"/><text fill="#000000" font-family="sans-serif" font-size="14" lengthAdjust="spacing" textLength="140" x="210" y="102.7969">RegisterWorkstationUI</text><line style="stroke:#181818;stroke-width:0.5;" x1="182" x2="352" y1="113" y2="113"/><line style="stroke:#181818;stroke-width:0.5;" x1="182" x2="352" y1="121" y2="121"/></g><!--class WorkstationController--><g id="elem_WorkstationController"><rect codeLine="12" fill="#F1F1F1" height="103.8633" id="WorkstationController" rx="2.5" ry="2.5" style="stroke:#181818;stroke-width:0.5;" width="487" x="23.5" y="279"/><ellipse cx="194.25" cy="295" fill="#ADD1B2" rx="11" ry="11" style="stroke:#181818;stroke-width:1.0;"/><path d="M197.0156,290.875 Q197.1719,290.6563 197.3594,290.5469 Q197.5469,290.4375 197.7656,290.4375 Q198.1406,290.4375 198.375,290.7031 Q198.6094,290.9531 198.6094,291.5625 L198.6094,293.0156 Q198.6094,293.625 198.375,293.8906 Q198.1406,294.1563 197.7656,294.1563 Q197.4219,294.1563 197.2188,293.9531 Q197.0156,293.7656 196.9063,293.25 Q196.8594,292.8906 196.6719,292.7031 Q196.3438,292.3281 195.7344,292.1094 Q195.125,291.8906 194.5,291.8906 Q193.7344,291.8906 193.0938,292.2188 Q192.4688,292.5469 191.9688,293.2969 Q191.4844,294.0469 191.4844,295.0781 L191.4844,296.1719 Q191.4844,297.4063 192.375,298.2344 Q193.2656,299.0469 194.8594,299.0469 Q195.7969,299.0469 196.4531,298.7969 Q196.8438,298.6406 197.2656,298.2031 Q197.5313,297.9375 197.6719,297.8594 Q197.8281,297.7813 198.0313,297.7813 Q198.3594,297.7813 198.6094,298.0469 Q198.875,298.2969 198.875,298.6406 Q198.875,298.9844 198.5313,299.3906 Q198.0313,299.9688 197.2344,300.2969 Q196.1563,300.75 194.8594,300.75 Q193.3438,300.75 192.1406,300.125 Q191.1563,299.625 190.4688,298.5625 Q189.7813,297.4844 189.7813,296.2031 L189.7813,295.0469 Q189.7813,293.7188 190.3906,292.5781 Q191.0156,291.4219 192.1094,290.8125 Q193.2031,290.1875 194.4375,290.1875 Q195.1719,290.1875 195.8125,290.3594 Q196.4688,290.5156 197.0156,290.875 Z " fill="#000000"/><text fill="#000000" font-family="sans-serif" font-size="14" lengthAdjust="spacing" textLength="137" x="214.75" y="300.7969">WorkstationController</text><line style="stroke:#181818;stroke-width:0.5;" x1="24.5" x2="509.5" y1="311" y2="311"/><line style="stroke:#181818;stroke-width:0.5;" x1="24.5" x2="509.5" y1="319" y2="319"/><text fill="#000000" font-family="sans-serif" font-size="14" lengthAdjust="spacing" textLength="309" x="29.5" y="338.1074">+getWorkstationTypes() : List&lt;WorkstationType&gt;</text><text fill="#000000" font-family="sans-serif" font-size="14" lengthAdjust="spacing" textLength="403" x="29.5" y="356.7285">+registerWorkstationType(typeID, typeName) : WorkstationType</text><text fill="#000000" font-family="sans-serif" font-size="14" lengthAdjust="spacing" textLength="475" x="29.5" y="375.3496">+registerWorkstation(workstationID, workstationName, typeID) : Workstation</text></g><!--class WorkstationService--><g id="elem_WorkstationService"><rect codeLine="20" fill="#F1F1F1" height="122.4844" id="WorkstationService" rx="2.5" ry="2.5" style="stroke:#181818;stroke-width:0.5;" width="487" x="1238.5" y="44"/><ellipse cx="1416.75" cy="60" fill="#ADD1B2" rx="11" ry="11" style="stroke:#181818;stroke-width:1.0;"/><path d="M1419.5156,55.875 Q1419.6719,55.6563 1419.8594,55.5469 Q1420.0469,55.4375 1420.2656,55.4375 Q1420.6406,55.4375 1420.875,55.7031 Q1421.1094,55.9531 1421.1094,56.5625 L1421.1094,58.0156 Q1421.1094,58.625 1420.875,58.8906 Q1420.6406,59.1563 1420.2656,59.1563 Q1419.9219,59.1563 1419.7188,58.9531 Q1419.5156,58.7656 1419.4063,58.25 Q1419.3594,57.8906 1419.1719,57.7031 Q1418.8438,57.3281 1418.2344,57.1094 Q1417.625,56.8906 1417,56.8906 Q1416.2344,56.8906 1415.5938,57.2188 Q1414.9688,57.5469 1414.4688,58.2969 Q1413.9844,59.0469 1413.9844,60.0781 L1413.9844,61.1719 Q1413.9844,62.4063 1414.875,63.2344 Q1415.7656,64.0469 1417.3594,64.0469 Q1418.2969,64.0469 1418.9531,63.7969 Q1419.3438,63.6406 1419.7656,63.2031 Q1420.0313,62.9375 1420.1719,62.8594 Q1420.3281,62.7813 1420.5313,62.7813 Q1420.8594,62.7813 1421.1094,63.0469 Q1421.375,63.2969 1421.375,63.6406 Q1421.375,63.9844 1421.0313,64.3906 Q1420.5313,64.9688 1419.7344,65.2969 Q1418.6563,65.75 1417.3594,65.75 Q1415.8438,65.75 1414.6406,65.125 Q1413.6563,64.625 1412.9688,63.5625 Q1412.2813,62.4844 1412.2813,61.2031 L1412.2813,60.0469 Q1412.2813,58.7188 1412.8906,57.5781 Q1413.5156,56.4219 1414.6094,55.8125 Q1415.7031,55.1875 1416.9375,55.1875 Q1417.6719,55.1875 1418.3125,55.3594 Q1418.9688,55.5156 1419.5156,55.875 Z " fill="#000000"/><text fill="#000000" font-family="sans-serif" font-size="14" lengthAdjust="spacing" textLength="122" x="1437.25" y="65.7969">WorkstationService</text><line style="stroke:#181818;stroke-width:0.5;" x1="1239.5" x2="1724.5" y1="76" y2="76"/><line style="stroke:#181818;stroke-width:0.5;" x1="1239.5" x2="1724.5" y1="84" y2="84"/><text fill="#000000" font-family="sans-serif" font-size="14" lengthAdjust="spacing" textLength="309" x="1244.5" y="103.1074">+getWorkstationTypes() : List&lt;WorkstationType&gt;</text><text fill="#000000" font-family="sans-serif" font-size="14" lengthAdjust="spacing" textLength="403" x="1244.5" y="121.7285">+registerWorkstationType(typeID, typeName) : WorkstationType</text><text fill="#000000" font-family="sans-serif" font-size="14" lengthAdjust="spacing" textLength="328" x="1244.5" y="140.3496">-getWorkstationTypeById(typeID) : WorkstationType</text><text fill="#000000" font-family="sans-serif" font-size="14" lengthAdjust="spacing" textLength="475" x="1244.5" y="158.9707">+registerWorkstation(workstationID, workstationName, typeID) : Workstation</text></g><!--class Repositories--><g id="elem_Repositories"><rect codeLine="29" fill="#F1F1F1" height="122.4844" id="Repositories" rx="2.5" ry="2.5" style="stroke:#181818;stroke-width:0.5;" width="412" x="585" y="270"/><ellipse cx="747.25" cy="286" fill="#ADD1B2" rx="11" ry="11" style="stroke:#181818;stroke-width:1.0;"/><path d="M750.0156,281.875 Q750.1719,281.6563 750.3594,281.5469 Q750.5469,281.4375 750.7656,281.4375 Q751.1406,281.4375 751.375,281.7031 Q751.6094,281.9531 751.6094,282.5625 L751.6094,284.0156 Q751.6094,284.625 751.375,284.8906 Q751.1406,285.1563 750.7656,285.1563 Q750.4219,285.1563 750.2188,284.9531 Q750.0156,284.7656 749.9063,284.25 Q749.8594,283.8906 749.6719,283.7031 Q749.3438,283.3281 748.7344,283.1094 Q748.125,282.8906 747.5,282.8906 Q746.7344,282.8906 746.0938,283.2188 Q745.4688,283.5469 744.9688,284.2969 Q744.4844,285.0469 744.4844,286.0781 L744.4844,287.1719 Q744.4844,288.4063 745.375,289.2344 Q746.2656,290.0469 747.8594,290.0469 Q748.7969,290.0469 749.4531,289.7969 Q749.8438,289.6406 750.2656,289.2031 Q750.5313,288.9375 750.6719,288.8594 Q750.8281,288.7813 751.0313,288.7813 Q751.3594,288.7813 751.6094,289.0469 Q751.875,289.2969 751.875,289.6406 Q751.875,289.9844 751.5313,290.3906 Q751.0313,290.9688 750.2344,291.2969 Q749.1563,291.75 747.8594,291.75 Q746.3438,291.75 745.1406,291.125 Q744.1563,290.625 743.4688,289.5625 Q742.7813,288.4844 742.7813,287.2031 L742.7813,286.0469 Q742.7813,284.7188 743.3906,283.5781 Q744.0156,282.4219 745.1094,281.8125 Q746.2031,281.1875 747.4375,281.1875 Q748.1719,281.1875 748.8125,281.3594 Q749.4688,281.5156 750.0156,281.875 Z " fill="#000000"/><text fill="#000000" font-family="sans-serif" font-size="14" lengthAdjust="spacing" textLength="79" x="767.75" y="291.7969">Repositories</text><line style="stroke:#181818;stroke-width:0.5;" x1="586" x2="996" y1="302" y2="302"/><line style="stroke:#181818;stroke-width:0.5;" x1="586" x2="996" y1="310" y2="310"/><text fill="#000000" font-family="sans-serif" font-size="14" lengthAdjust="spacing" textLength="94" x="591" y="329.1074">-Repositories()</text><text fill="#000000" font-family="sans-serif" font-size="14" lengthAdjust="spacing" textLength="182" x="591" y="347.7285">+getInstance() : Repositories</text><text fill="#000000" font-family="sans-serif" font-size="14" lengthAdjust="spacing" textLength="400" x="591" y="366.3496">+getWorkstationTypeRepository() : WorkstationTypeRepository</text><text fill="#000000" font-family="sans-serif" font-size="14" lengthAdjust="spacing" textLength="336" x="591" y="384.9707">+getWorkstationRepository() : WorkstationRepository</text></g><!--class WorkstationTypeRepository--><g id="elem_WorkstationTypeRepository"><rect codeLine="36" fill="#F1F1F1" height="122.4844" id="WorkstationTypeRepository" rx="2.5" ry="2.5" style="stroke:#181818;stroke-width:0.5;" width="296" x="585" y="471"/><ellipse cx="641.25" cy="487" fill="#ADD1B2" rx="11" ry="11" style="stroke:#181818;stroke-width:1.0;"/><path d="M644.0156,482.875 Q644.1719,482.6563 644.3594,482.5469 Q644.5469,482.4375 644.7656,482.4375 Q645.1406,482.4375 645.375,482.7031 Q645.6094,482.9531 645.6094,483.5625 L645.6094,485.0156 Q645.6094,485.625 645.375,485.8906 Q645.1406,486.1563 644.7656,486.1563 Q644.4219,486.1563 644.2188,485.9531 Q644.0156,485.7656 643.9063,485.25 Q643.8594,484.8906 643.6719,484.7031 Q643.3438,484.3281 642.7344,484.1094 Q642.125,483.8906 641.5,483.8906 Q640.7344,483.8906 640.0938,484.2188 Q639.4688,484.5469 638.9688,485.2969 Q638.4844,486.0469 638.4844,487.0781 L638.4844,488.1719 Q638.4844,489.4063 639.375,490.2344 Q640.2656,491.0469 641.8594,491.0469 Q642.7969,491.0469 643.4531,490.7969 Q643.8438,490.6406 644.2656,490.2031 Q644.5313,489.9375 644.6719,489.8594 Q644.8281,489.7813 645.0313,489.7813 Q645.3594,489.7813 645.6094,490.0469 Q645.875,490.2969 645.875,490.6406 Q645.875,490.9844 645.5313,491.3906 Q645.0313,491.9688 644.2344,492.2969 Q643.1563,492.75 641.8594,492.75 Q640.3438,492.75 639.1406,492.125 Q638.1563,491.625 637.4688,490.5625 Q636.7813,489.4844 636.7813,488.2031 L636.7813,487.0469 Q636.7813,485.7188 637.3906,484.5781 Q638.0156,483.4219 639.1094,482.8125 Q640.2031,482.1875 641.4375,482.1875 Q642.1719,482.1875 642.8125,482.3594 Q643.4688,482.5156 644.0156,482.875 Z " fill="#000000"/><text fill="#000000" font-family="sans-serif" font-size="14" lengthAdjust="spacing" textLength="175" x="661.75" y="492.7969">WorkstationTypeRepository</text><line style="stroke:#181818;stroke-width:0.5;" x1="586" x2="880" y1="503" y2="503"/><line style="stroke:#181818;stroke-width:0.5;" x1="586" x2="880" y1="511" y2="511"/><text fill="#000000" font-family="sans-serif" font-size="14" lengthAdjust="spacing" textLength="210" x="591" y="530.1074">+getAll() : List&lt;WorkstationType&gt;</text><text fill="#000000" font-family="sans-serif" font-size="14" lengthAdjust="spacing" textLength="226" x="591" y="548.7285">+getByID(typeID) : WorkstationType</text><text fill="#000000" font-family="sans-serif" font-size="14" lengthAdjust="spacing" textLength="284" x="591" y="567.3496">+getWorkstationTypeExists(typeID) : boolean</text><text fill="#000000" font-family="sans-serif" font-size="14" lengthAdjust="spacing" textLength="138" x="591" y="585.9707">+save(type) : boolean</text></g><!--class WorkstationRepository--><g id="elem_WorkstationRepository"><rect codeLine="43" fill="#F1F1F1" height="85.2422" id="WorkstationRepository" rx="2.5" ry="2.5" style="stroke:#181818;stroke-width:0.5;" width="308" x="916" y="489.5"/><ellipse cx="994.25" cy="505.5" fill="#ADD1B2" rx="11" ry="11" style="stroke:#181818;stroke-width:1.0;"/><path d="M997.0156,501.375 Q997.1719,501.1563 997.3594,501.0469 Q997.5469,500.9375 997.7656,500.9375 Q998.1406,500.9375 998.375,501.2031 Q998.6094,501.4531 998.6094,502.0625 L998.6094,503.5156 Q998.6094,504.125 998.375,504.3906 Q998.1406,504.6563 997.7656,504.6563 Q997.4219,504.6563 997.2188,504.4531 Q997.0156,504.2656 996.9063,503.75 Q996.8594,503.3906 996.6719,503.2031 Q996.3438,502.8281 995.7344,502.6094 Q995.125,502.3906 994.5,502.3906 Q993.7344,502.3906 993.0938,502.7188 Q992.4688,503.0469 991.9688,503.7969 Q991.4844,504.5469 991.4844,505.5781 L991.4844,506.6719 Q991.4844,507.9063 992.375,508.7344 Q993.2656,509.5469 994.8594,509.5469 Q995.7969,509.5469 996.4531,509.2969 Q996.8438,509.1406 997.2656,508.7031 Q997.5313,508.4375 997.6719,508.3594 Q997.8281,508.2813 998.0313,508.2813 Q998.3594,508.2813 998.6094,508.5469 Q998.875,508.7969 998.875,509.1406 Q998.875,509.4844 998.5313,509.8906 Q998.0313,510.4688 997.2344,510.7969 Q996.1563,511.25 994.8594,511.25 Q993.3438,511.25 992.1406,510.625 Q991.1563,510.125 990.4688,509.0625 Q989.7813,507.9844 989.7813,506.7031 L989.7813,505.5469 Q989.7813,504.2188 990.3906,503.0781 Q991.0156,501.9219 992.1094,501.3125 Q993.2031,500.6875 994.4375,500.6875 Q995.1719,500.6875 995.8125,500.8594 Q996.4688,501.0156 997.0156,501.375 Z " fill="#000000"/><text fill="#000000" font-family="sans-serif" font-size="14" lengthAdjust="spacing" textLength="143" x="1014.75" y="511.2969">WorkstationRepository</text><line style="stroke:#181818;stroke-width:0.5;" x1="917" x2="1223" y1="521.5" y2="521.5"/><line style="stroke:#181818;stroke-width:0.5;" x1="917" x2="1223" y1="529.5" y2="529.5"/><text fill="#000000" font-family="sans-serif" font-size="14" lengthAdjust="spacing" textLength="296" x="922" y="548.6074">+getWorkstationExists(workstationID) : boolean</text><text fill="#000000" font-family="sans-serif" font-size="14" lengthAdjust="spacing" textLength="182" x="922" y="567.2285">+save(workstation) : boolean</text></g><!--class Workstation--><g id="elem_Workstation"><rect codeLine="50" fill="#F1F1F1" height="103.8633" id="Workstation" rx="2.5" ry="2.5" style="stroke:#181818;stroke-width:0.5;" width="159" x="1857.5" y="697"/><ellipse cx="1895.9" cy="713" fill="#ADD1B2" rx="11" ry="11" style="stroke:#181818;stroke-width:1.0;"/><path d="M1898.6656,708.875 Q1898.8219,708.6563 1899.0094,708.5469 Q1899.1969,708.4375 1899.4156,708.4375 Q1899.7906,708.4375 1900.025,708.7031 Q1900.2594,708.9531 1900.2594,709.5625 L1900.2594,711.0156 Q1900.2594,711.625 1900.025,711.8906 Q1899.7906,712.1563 1899.4156,712.1563 Q1899.0719,712.1563 1898.8688,711.9531 Q1898.6656,711.7656 1898.5563,711.25 Q1898.5094,710.8906 1898.3219,710.7031 Q1897.9938,710.3281 1897.3844,710.1094 Q1896.775,709.8906 1896.15,709.8906 Q1895.3844,709.8906 1894.7438,710.2188 Q1894.1188,710.5469 1893.6188,711.2969 Q1893.1344,712.0469 1893.1344,713.0781 L1893.1344,714.1719 Q1893.1344,715.4063 1894.025,716.2344 Q1894.9156,717.0469 1896.5094,717.0469 Q1897.4469,717.0469 1898.1031,716.7969 Q1898.4938,716.6406 1898.9156,716.2031 Q1899.1813,715.9375 1899.3219,715.8594 Q1899.4781,715.7813 1899.6813,715.7813 Q1900.0094,715.7813 1900.2594,716.0469 Q1900.525,716.2969 1900.525,716.6406 Q1900.525,716.9844 1900.1813,717.3906 Q1899.6813,717.9688 1898.8844,718.2969 Q1897.8063,718.75 1896.5094,718.75 Q1894.9938,718.75 1893.7906,718.125 Q1892.8063,717.625 1892.1188,716.5625 Q1891.4313,715.4844 1891.4313,714.2031 L1891.4313,713.0469 Q1891.4313,711.7188 1892.0406,710.5781 Q1892.6656,709.4219 1893.7594,708.8125 Q1894.8531,708.1875 1896.0875,708.1875 Q1896.8219,708.1875 1897.4625,708.3594 Q1898.1188,708.5156 1898.6656,708.875 Z " fill="#000000"/><text fill="#000000" font-family="sans-serif" font-size="14" lengthAdjust="spacing" textLength="75" x="1915.1" y="718.7969">Workstation</text><line style="stroke:#181818;stroke-width:0.5;" x1="1858.5" x2="2015.5" y1="729" y2="729"/><text fill="#000000" font-family="sans-serif" font-size="14" lengthAdjust="spacing" textLength="43" x="1863.5" y="748.1074">-id : int</text><text fill="#000000" font-family="sans-serif" font-size="14" lengthAdjust="spacing" textLength="89" x="1863.5" y="766.7285">-name : String</text><line style="stroke:#181818;stroke-width:0.5;" x1="1858.5" x2="2015.5" y1="774.2422" y2="774.2422"/><text fill="#000000" font-family="sans-serif" font-size="14" lengthAdjust="spacing" textLength="147" x="1863.5" y="793.3496">+Workstation(id, name)</text></g><!--class WorkstationType--><g id="elem_WorkstationType"><rect codeLine="56" fill="#F1F1F1" height="122.4844" id="WorkstationType" rx="2.5" ry="2.5" style="stroke:#181818;stroke-width:0.5;" width="220" x="1827" y="880"/><ellipse cx="1879.25" cy="896" fill="#ADD1B2" rx="11" ry="11" style="stroke:#181818;stroke-width:1.0;"/><path d="M1882.0156,891.875 Q1882.1719,891.6563 1882.3594,891.5469 Q1882.5469,891.4375 1882.7656,891.4375 Q1883.1406,891.4375 1883.375,891.7031 Q1883.6094,891.9531 1883.6094,892.5625 L1883.6094,894.0156 Q1883.6094,894.625 1883.375,894.8906 Q1883.1406,895.1563 1882.7656,895.1563 Q1882.4219,895.1563 1882.2188,894.9531 Q1882.0156,894.7656 1881.9063,894.25 Q1881.8594,893.8906 1881.6719,893.7031 Q1881.3438,893.3281 1880.7344,893.1094 Q1880.125,892.8906 1879.5,892.8906 Q1878.7344,892.8906 1878.0938,893.2188 Q1877.4688,893.5469 1876.9688,894.2969 Q1876.4844,895.0469 1876.4844,896.0781 L1876.4844,897.1719 Q1876.4844,898.4063 1877.375,899.2344 Q1878.2656,900.0469 1879.8594,900.0469 Q1880.7969,900.0469 1881.4531,899.7969 Q1881.8438,899.6406 1882.2656,899.2031 Q1882.5313,898.9375 1882.6719,898.8594 Q1882.8281,898.7813 1883.0313,898.7813 Q1883.3594,898.7813 1883.6094,899.0469 Q1883.875,899.2969 1883.875,899.6406 Q1883.875,899.9844 1883.5313,900.3906 Q1883.0313,900.9688 1882.2344,901.2969 Q1881.1563,901.75 1879.8594,901.75 Q1878.3438,901.75 1877.1406,901.125 Q1876.1563,900.625 1875.4688,899.5625 Q1874.7813,898.4844 1874.7813,897.2031 L1874.7813,896.0469 Q1874.7813,894.7188 1875.3906,893.5781 Q1876.0156,892.4219 1877.1094,891.8125 Q1878.2031,891.1875 1879.4375,891.1875 Q1880.1719,891.1875 1880.8125,891.3594 Q1881.4688,891.5156 1882.0156,891.875 Z " fill="#000000"/><text fill="#000000" font-family="sans-serif" font-size="14" lengthAdjust="spacing" textLength="107" x="1899.75" y="901.7969">WorkstationType</text><line style="stroke:#181818;stroke-width:0.5;" x1="1828" x2="2046" y1="912" y2="912"/><text fill="#000000" font-family="sans-serif" font-size="14" lengthAdjust="spacing" textLength="43" x="1833" y="931.1074">-id : int</text><text fill="#000000" font-family="sans-serif" font-size="14" lengthAdjust="spacing" textLength="89" x="1833" y="949.7285">-name : String</text><text fill="#000000" font-family="sans-serif" font-size="14" lengthAdjust="spacing" textLength="208" x="1833" y="968.3496">-workstations : List&lt;Workstation&gt;</text><line style="stroke:#181818;stroke-width:0.5;" x1="1828" x2="2046" y1="975.8633" y2="975.8633"/><text fill="#000000" font-family="sans-serif" font-size="14" lengthAdjust="spacing" textLength="179" x="1833" y="994.9707">+WorkstationType(id, name)</text></g><!--class WorkstationException--><g id="elem_WorkstationException"><rect codeLine="65" fill="#F1F1F1" height="103.8633" id="WorkstationException" rx="2.5" ry="2.5" style="stroke:#181818;stroke-width:0.5;" width="417" x="1539.5" y="279"/><ellipse cx="1675.75" cy="295" fill="#ADD1B2" rx="11" ry="11" style="stroke:#181818;stroke-width:1.0;"/><path d="M1678.5156,290.875 Q1678.6719,290.6563 1678.8594,290.5469 Q1679.0469,290.4375 1679.2656,290.4375 Q1679.6406,290.4375 1679.875,290.7031 Q1680.1094,290.9531 1680.1094,291.5625 L1680.1094,293.0156 Q1680.1094,293.625 1679.875,293.8906 Q1679.6406,294.1563 1679.2656,294.1563 Q1678.9219,294.1563 1678.7188,293.9531 Q1678.5156,293.7656 1678.4063,293.25 Q1678.3594,292.8906 1678.1719,292.7031 Q1677.8438,292.3281 1677.2344,292.1094 Q1676.625,291.8906 1676,291.8906 Q1675.2344,291.8906 1674.5938,292.2188 Q1673.9688,292.5469 1673.4688,293.2969 Q1672.9844,294.0469 1672.9844,295.0781 L1672.9844,296.1719 Q1672.9844,297.4063 1673.875,298.2344 Q1674.7656,299.0469 1676.3594,299.0469 Q1677.2969,299.0469 1677.9531,298.7969 Q1678.3438,298.6406 1678.7656,298.2031 Q1679.0313,297.9375 1679.1719,297.8594 Q1679.3281,297.7813 1679.5313,297.7813 Q1679.8594,297.7813 1680.1094,298.0469 Q1680.375,298.2969 1680.375,298.6406 Q1680.375,298.9844 1680.0313,299.3906 Q1679.5313,299.9688 1678.7344,300.2969 Q1677.6563,300.75 1676.3594,300.75 Q1674.8438,300.75 1673.6406,300.125 Q1672.6563,299.625 1671.9688,298.5625 Q1671.2813,297.4844 1671.2813,296.2031 L1671.2813,295.0469 Q1671.2813,293.7188 1671.8906,292.5781 Q1672.5156,291.4219 1673.6094,290.8125 Q1674.7031,290.1875 1675.9375,290.1875 Q1676.6719,290.1875 1677.3125,290.3594 Q1677.9688,290.5156 1678.5156,290.875 Z " fill="#000000"/><text fill="#000000" font-family="sans-serif" font-size="14" lengthAdjust="spacing" textLength="136" x="1696.25" y="300.7969">WorkstationException</text><line style="stroke:#181818;stroke-width:0.5;" x1="1540.5" x2="1955.5" y1="311" y2="311"/><line style="stroke:#181818;stroke-width:0.5;" x1="1540.5" x2="1955.5" y1="319" y2="319"/><text fill="#000000" font-family="sans-serif" font-size="14" lengthAdjust="spacing" textLength="393" x="1545.5" y="338.1074">+workstationTypeAlreadyExists(typeID) : WorkstationException</text><text fill="#000000" font-family="sans-serif" font-size="14" lengthAdjust="spacing" textLength="405" x="1545.5" y="356.7285">+workstationAlreadyExists(workstationID) : WorkstationException</text><text fill="#000000" font-family="sans-serif" font-size="14" lengthAdjust="spacing" textLength="371" x="1545.5" y="375.3496">+workstationTypeNotFound(typeID) : WorkstationException</text></g><!--class RuntimeException--><g id="elem_RuntimeException"><rect codeLine="71" fill="#F1F1F1" height="48" id="RuntimeException" rx="2.5" ry="2.5" style="stroke:#181818;stroke-width:0.5;" width="145" x="1675.5" y="508"/><ellipse cx="1690.5" cy="524" fill="#ADD1B2" rx="11" ry="11" style="stroke:#181818;stroke-width:1.0;"/><path d="M1693.2656,519.875 Q1693.4219,519.6563 1693.6094,519.5469 Q1693.7969,519.4375 1694.0156,519.4375 Q1694.3906,519.4375 1694.625,519.7031 Q1694.8594,519.9531 1694.8594,520.5625 L1694.8594,522.0156 Q1694.8594,522.625 1694.625,522.8906 Q1694.3906,523.1563 1694.0156,523.1563 Q1693.6719,523.1563 1693.4688,522.9531 Q1693.2656,522.7656 1693.1563,522.25 Q1693.1094,521.8906 1692.9219,521.7031 Q1692.5938,521.3281 1691.9844,521.1094 Q1691.375,520.8906 1690.75,520.8906 Q1689.9844,520.8906 1689.3438,521.2188 Q1688.7188,521.5469 1688.2188,522.2969 Q1687.7344,523.0469 1687.7344,524.0781 L1687.7344,525.1719 Q1687.7344,526.4063 1688.625,527.2344 Q1689.5156,528.0469 1691.1094,528.0469 Q1692.0469,528.0469 1692.7031,527.7969 Q1693.0938,527.6406 1693.5156,527.2031 Q1693.7813,526.9375 1693.9219,526.8594 Q1694.0781,526.7813 1694.2813,526.7813 Q1694.6094,526.7813 1694.8594,527.0469 Q1695.125,527.2969 1695.125,527.6406 Q1695.125,527.9844 1694.7813,528.3906 Q1694.2813,528.9688 1693.4844,529.2969 Q1692.4063,529.75 1691.1094,529.75 Q1689.5938,529.75 1688.3906,529.125 Q1687.4063,528.625 1686.7188,527.5625 Q1686.0313,526.4844 1686.0313,525.2031 L1686.0313,524.0469 Q1686.0313,522.7188 1686.6406,521.5781 Q1687.2656,520.4219 1688.3594,519.8125 Q1689.4531,519.1875 1690.6875,519.1875 Q1691.4219,519.1875 1692.0625,519.3594 Q1692.7188,519.5156 1693.2656,519.875 Z " fill="#000000"/><text fill="#000000" font-family="sans-serif" font-size="14" lengthAdjust="spacing" textLength="113" x="1704.5" y="529.7969">RuntimeException</text><line style="stroke:#181818;stroke-width:0.5;" x1="1676.5" x2="1819.5" y1="540" y2="540"/><line style="stroke:#181818;stroke-width:0.5;" x1="1676.5" x2="1819.5" y1="548" y2="548"/></g><!--link RegisterWorkstationUI to WorkstationController--><g id="link_RegisterWorkstationUI_WorkstationController"><path codeLine="74" d="M267,129.13 C267,164.23 267,225.83 267,272.86 " fill="none" id="RegisterWorkstationUI-to-WorkstationController" style="stroke:#181818;stroke-width:1.0;stroke-dasharray:7.0,7.0;"/><polygon fill="#181818" points="267,278.86,271,269.86,267,273.86,263,269.86,267,278.86" style="stroke:#181818;stroke-width:1.0;"/></g><!--link WorkstationController to WorkstationController--><g id="link_WorkstationController_WorkstationController"><path codeLine="75" d="M510.96,316.3 C532.21,319.41 545.5,324.31 545.5,331 C545.5,337.69 538.1468,341.7211 516.8968,344.8311 " fill="none" id="WorkstationController-to-WorkstationController" style="stroke:#181818;stroke-width:1.0;stroke-dasharray:7.0,7.0;"/><polygon fill="#181818" points="510.96,345.7,520.4444,348.3545,515.9073,344.9759,519.2859,340.4389,510.96,345.7" style="stroke:#181818;stroke-width:1.0;"/></g><!--link WorkstationService to Repositories--><g id="link_WorkstationService_Repositories"><path codeLine="76" d="M1238.48,157.98 C1140.83,178.82 1051,198 1051,198 C1051,198 983.2399,232.4037 914.5599,267.2737 " fill="none" id="WorkstationService-to-Repositories" style="stroke:#181818;stroke-width:1.0;stroke-dasharray:7.0,7.0;"/><polygon fill="#181818" points="909.21,269.99,919.0458,269.4822,913.6683,267.7265,915.4241,262.349,909.21,269.99" style="stroke:#181818;stroke-width:1.0;"/><text fill="#000000" font-family="sans-serif" font-size="13" lengthAdjust="spacing" textLength="67" x="1052" y="213.0283">repositories</text></g><!--link WorkstationService to WorkstationRepository--><g id="link_WorkstationService_WorkstationRepository"><path codeLine="77" d="M1436.98,166.2 C1414.9,195.71 1393,225 1393,225 C1393,225 1312,407 1312,407 C1312,407 1226.8999,450.604 1156.5999,486.624 " fill="none" id="WorkstationService-to-WorkstationRepository" style="stroke:#181818;stroke-width:1.0;stroke-dasharray:7.0,7.0;"/><polygon fill="#181818" points="1151.26,489.36,1161.0938,488.8159,1155.7099,487.08,1157.4458,481.6961,1151.26,489.36" style="stroke:#181818;stroke-width:1.0;"/><text fill="#000000" font-family="sans-serif" font-size="13" lengthAdjust="spacing" textLength="128" x="1394" y="336.5283">workstationRepository</text></g><!--link WorkstationService to WorkstationTypeRepository--><g id="link_WorkstationService_WorkstationTypeRepository"><path codeLine="78" d="M1312.52,166.02 C1229.02,195.6 1146,225 1146,225 C1146,225 1085,441 1085,441 C1085,441 899,471 899,471 C899,471 897.7933,471.442 886.8833,475.382 " fill="none" id="WorkstationService-to-WorkstationTypeRepository" style="stroke:#181818;stroke-width:1.0;stroke-dasharray:7.0,7.0;"/><polygon fill="#181818" points="881.24,477.42,891.0636,478.1252,885.9427,475.7217,888.3463,470.6008,881.24,477.42" style="stroke:#181818;stroke-width:1.0;"/><text fill="#000000" font-family="sans-serif" font-size="13" lengthAdjust="spacing" textLength="156" x="1147" y="336.5283">workstationTypeRepository</text></g><!--link WorkstationService to Workstation--><g id="link_WorkstationService_Workstation"><path codeLine="79" d="M1725.7,165.06 C1849.05,194.96 1973,225 1973,225 C1973,225 1973,617 1973,617 C1973,617 1962.7199,654.4045 1952.6099,691.1945 " fill="none" id="WorkstationService-to-Workstation" style="stroke:#181818;stroke-width:1.0;stroke-dasharray:7.0,7.0;"/><polygon fill="#181818" points="1951.02,696.98,1957.2618,689.3616,1952.3449,692.1587,1949.5478,687.2418,1951.02,696.98" style="stroke:#181818;stroke-width:1.0;"/><text fill="#000000" font-family="sans-serif" font-size="13" lengthAdjust="spacing" textLength="66" x="1974" y="437.0283">workstation</text></g><!--link WorkstationService to WorkstationType--><g id="link_WorkstationService_WorkstationType"><path codeLine="80" d="M1725.76,156.51 C1829.05,177.91 1926,198 1926,198 C1926,198 1999,225 1999,225 C1999,225 2115,330 2115,330 C2115,330 2115,330 2115,750 C2115,750 2049.5723,819.8416 1997.4223,875.5016 " fill="none" id="WorkstationService-to-WorkstationType" style="stroke:#181818;stroke-width:1.0;stroke-dasharray:7.0,7.0;"/><polygon fill="#181818" points="1993.32,879.88,2002.3925,876.0472,1996.7386,876.2313,1996.5545,870.5774,1993.32,879.88" style="stroke:#181818;stroke-width:1.0;"/><text fill="#000000" font-family="sans-serif" font-size="13" lengthAdjust="spacing" textLength="25" x="2116" y="537.5283">type</text></g><!--link Repositories to Repositories--><g id="link_Repositories_Repositories"><path codeLine="81" d="M997.12,315.53 C1018.39,318.57 1032,323.72 1032,331 C1032,338.28 1024.3296,342.5811 1003.0596,345.6211 " fill="none" id="Repositories-to-Repositories" style="stroke:#181818;stroke-width:1.0;"/><polygon fill="#181818" points="997.12,346.47,1006.5954,349.1564,1002.0697,345.7626,1005.4635,341.2369,997.12,346.47" style="stroke:#181818;stroke-width:1.0;"/><text fill="#000000" font-family="sans-serif" font-size="13" lengthAdjust="spacing" textLength="49" x="1038" y="336.5283">instance</text></g><!--link Repositories to WorkstationRepository--><g id="link_Repositories_WorkstationRepository"><path codeLine="82" d="M879.05,392.03 C903.26,408.54 923,422 923,422 C923,422 967.6399,455.107 1009.1899,485.907 " fill="none" id="Repositories-to-WorkstationRepository" style="stroke:#181818;stroke-width:1.0;"/><polygon fill="#181818" points="1014.01,489.48,1009.1619,480.907,1009.9932,486.5025,1004.3978,487.3339,1014.01,489.48" style="stroke:#181818;stroke-width:1.0;"/><text fill="#000000" font-family="sans-serif" font-size="13" lengthAdjust="spacing" textLength="128" x="948" y="437.0283">workstationRepository</text><text fill="#000000" font-family="sans-serif" font-size="13" lengthAdjust="spacing" textLength="7" x="882.3545" y="414.5205">1</text><text fill="#000000" font-family="sans-serif" font-size="13" lengthAdjust="spacing" textLength="7" x="997.5288" y="478.3809">1</text></g><!--link Repositories to WorkstationTypeRepository--><g id="link_Repositories_WorkstationTypeRepository"><path codeLine="83" d="M770.99,392.03 C765.49,408.54 761,422 761,422 C761,422 756.4437,439.7389 749.9637,464.9489 " fill="none" id="Repositories-to-WorkstationTypeRepository" style="stroke:#181818;stroke-width:1.0;"/><polygon fill="#181818" points="748.47,470.76,754.5846,463.0391,749.7147,465.9174,746.8365,461.0476,748.47,470.76" style="stroke:#181818;stroke-width:1.0;"/><text fill="#000000" font-family="sans-serif" font-size="13" lengthAdjust="spacing" textLength="156" x="762" y="437.0283">workstationTypeRepository</text><text fill="#000000" font-family="sans-serif" font-size="13" lengthAdjust="spacing" textLength="7" x="761.1247" y="414.5205">1</text><text fill="#000000" font-family="sans-serif" font-size="13" lengthAdjust="spacing" textLength="7" x="742.854" y="459.7135">1</text></g><!--link WorkstationRepository to Workstation--><g id="link_WorkstationRepository_Workstation"><path codeLine="84" d="M1224,571.19 C1409.4,617.16 1707.8664,691.1757 1851.4464,726.7857 " fill="none" id="WorkstationRepository-to-Workstation" style="stroke:#181818;stroke-width:1.0;"/><polygon fill="#181818" points="1857.27,728.23,1849.4975,722.1811,1852.417,727.0264,1847.5718,729.9459,1857.27,728.23" style="stroke:#181818;stroke-width:1.0;"/><text fill="#000000" font-family="sans-serif" font-size="13" lengthAdjust="spacing" textLength="60" x="1504" y="640.0283">categories</text><text fill="#000000" font-family="sans-serif" font-size="13" lengthAdjust="spacing" textLength="7" x="1232.1211" y="569.802">1</text><text fill="#000000" font-family="sans-serif" font-size="13" lengthAdjust="spacing" textLength="5" x="1844.4325" y="722.4889">*</text></g><!--link WorkstationTypeRepository to WorkstationType--><g id="link_WorkstationTypeRepository_WorkstationType"><path codeLine="85" d="M851.88,593.15 C878.48,606.62 899,617 899,617 C899,617 1554.031,820.8272 1821.171,903.9572 " fill="none" id="WorkstationTypeRepository-to-WorkstationType" style="stroke:#181818;stroke-width:1.0;"/><polygon fill="#181818" points="1826.9,905.74,1819.495,899.2465,1822.1258,904.2543,1817.1179,906.8852,1826.9,905.74" style="stroke:#181818;stroke-width:1.0;"/><text fill="#000000" font-family="sans-serif" font-size="13" lengthAdjust="spacing" textLength="60" x="1488" y="754.5283">categories</text><text fill="#000000" font-family="sans-serif" font-size="13" lengthAdjust="spacing" textLength="7" x="858.9419" y="615.6551">1</text><text fill="#000000" font-family="sans-serif" font-size="13" lengthAdjust="spacing" textLength="5" x="1813.9828" y="899.6846">*</text></g><!--link Workstation to WorkstationType--><g id="link_Workstation_WorkstationType"><path codeLine="86" d="M1937,801.17 C1937,825.46 1937,848.64 1937,873.98 " fill="none" id="Workstation-to-WorkstationType" style="stroke:#181818;stroke-width:1.0;"/><polygon fill="#181818" points="1937,879.98,1941,870.98,1937,874.98,1933,870.98,1937,879.98" style="stroke:#181818;stroke-width:1.0;"/><text fill="#000000" font-family="sans-serif" font-size="13" lengthAdjust="spacing" textLength="21" x="1938" y="846.0283">has</text><text fill="#000000" font-family="sans-serif" font-size="13" lengthAdjust="spacing" textLength="5" x="1931.6797" y="822.9991">*</text><text fill="#000000" font-family="sans-serif" font-size="13" lengthAdjust="spacing" textLength="7" x="1929.5734" y="868.5238">1</text></g><!--link WorkstationService to WorkstationException--><g id="link_WorkstationService_WorkstationException"><path codeLine="87" d="M1553.28,166.03 C1595.14,201.28 1642.8908,241.4848 1682.7608,275.0648 " fill="none" id="WorkstationService-to-WorkstationException" style="stroke:#181818;stroke-width:1.0;stroke-dasharray:7.0,7.0;"/><polygon fill="#181818" points="1687.35,278.93,1683.043,270.0728,1683.5257,275.709,1677.8895,276.1917,1687.35,278.93" style="stroke:#181818;stroke-width:1.0;"/><text fill="#000000" font-family="sans-serif" font-size="13" lengthAdjust="spacing" textLength="38" x="1608" y="213.0283">throws</text></g><!--link WorkstationException to RuntimeException--><g id="link_WorkstationException_RuntimeException"><path codeLine="88" d="M1748,383.25 C1748,423.44 1748,459.49 1748,489.83 " fill="none" id="WorkstationException-to-RuntimeException" style="stroke:#181818;stroke-width:1.0;"/><polygon fill="none" points="1748,507.83,1754,489.83,1742,489.83,1748,507.83" style="stroke:#181818;stroke-width:1.0;"/></g><!--SRC=[pLPDRzim3BtxLmWvELjTRDTW290r7M1Wwo5PiRDgSuuGHJ8afQctzRzFIjtemrBZzZ3C5yVYuoFrI56HMy9QBF0EjRZQuWRMggE015GAiuP29ay0kS4rFn3Me9-OIjT22GFLjO1QJZlpuTWgYgLSA2N8tLv1MN6s9hy0VSYoFY2Qt9OJz3j3-Zc2qGeQ8XM87rnifSAAS7PRzeZ7xD7nlE9C2Kuf29_1yRIG7c6Uzmqe1_DTvoxpAPgXhphmfy0ojsvYc9b1v6RpvV82cVSDte6X2Z0lakG7-zlmE9-6xecuN0Qq4K7M8Ev91KarUlj_8aKnZFsvA-iykjj_9-8AMYw9ug8B-x9V9o0T1GjtFPzwofPCXs4L71LrSI_fR-Fd4GsiDSMHzWzyzQQZNUA72PfbGUcO_j18NSlbc5eE5RX-qEJIyRtZd09craVY-wTU2wsfFINtus3wi5uVfQCxi64IRZzzupNGv95qEudKceWmPLUOxbozjjRpapKs0RVjINs136nwjgPl2LKusvIHii-ZIHr7GPYOgydrGmMjGIPrEI7SUXty40ig0DVTe5rYD54Ids1G-D4y9faRhhxmFQl7vE5LQRLdYkp08hGrVWTUNixZTriMl_56uP_l10FsHjnC_mrm9bR29Nx6PkxuTSREUP9W-7X4mVmxJ-QxZuokdKm9Cq-CeXYeG_hXxWCd7oT7i7c_JfinD6zJn_4uyRwR149LM44pA7KGCE7UonQdE88JUz5E6pocj-muqDNP27xmdAorAFxCXoVgBm00]--></g></svg>