<?xml version="1.0" encoding="us-ascii" standalone="no"?><svg xmlns="http://www.w3.org/2000/svg" xmlns:xlink="http://www.w3.org/1999/xlink" contentStyleType="text/css" height="1348px" preserveAspectRatio="none" style="width:1587px;height:1348px;background:#FFFFFF;" version="1.1" viewBox="0 0 1587 1348" width="1587px" zoomAndPan="magnify"><defs/><g><!--cluster UI--><g id="cluster_UI"><rect fill="none" height="101" rx="2.5" ry="2.5" style="stroke:#000000;stroke-width:1.5;" width="204" x="818" y="7"/><text fill="#000000" font-family="sans-serif" font-size="14" font-weight="bold" lengthAdjust="spacing" textLength="14" x="913" y="24.1074">UI</text></g><!--cluster Controller--><g id="cluster_Controller"><rect fill="none" height="157" rx="2.5" ry="2.5" style="stroke:#000000;stroke-width:1.5;" width="520" x="660" y="141"/><text fill="#000000" font-family="sans-serif" font-size="14" font-weight="bold" lengthAdjust="spacing" textLength="71" x="884.5" y="158.1074">Controller</text></g><!--cluster Service--><g id="cluster_Service"><rect fill="none" height="175" rx="2.5" ry="2.5" style="stroke:#000000;stroke-width:1.5;" width="520" x="660" y="331"/><text fill="#000000" font-family="sans-serif" font-size="14" font-weight="bold" lengthAdjust="spacing" textLength="54" x="893" y="348.1074">Service</text></g><!--cluster Repository--><g id="cluster_Repository"><rect fill="none" height="376" rx="2.5" ry="2.5" style="stroke:#000000;stroke-width:1.5;" width="671" x="7" y="557"/><text fill="#000000" font-family="sans-serif" font-size="14" font-weight="bold" lengthAdjust="spacing" textLength="76" x="304.5" y="574.1074">Repository</text></g><!--cluster Model--><g id="cluster_Model"><rect fill="none" height="358" rx="2.5" ry="2.5" style="stroke:#000000;stroke-width:1.5;" width="252" x="1249" y="984"/><text fill="#000000" font-family="sans-serif" font-size="14" font-weight="bold" lengthAdjust="spacing" textLength="44" x="1353" y="1001.1074">Model</text></g><!--cluster Exception--><g id="cluster_Exception"><rect fill="none" height="330" rx="2.5" ry="2.5" style="stroke:#000000;stroke-width:1.5;" width="450" x="961" y="566"/><text fill="#000000" font-family="sans-serif" font-size="14" font-weight="bold" lengthAdjust="spacing" textLength="70" x="1151" y="583.1074">Exception</text></g><!--class RegisterWorkstationUI--><g id="elem_RegisterWorkstationUI"><rect codeLine="7" fill="#F1F1F1" height="48" id="RegisterWorkstationUI" rx="2.5" ry="2.5" style="stroke:#181818;stroke-width:0.5;" width="172" x="834" y="44"/><ellipse cx="849" cy="60" fill="#ADD1B2" rx="11" ry="11" style="stroke:#181818;stroke-width:1.0;"/><path d="M851.7656,55.875 Q851.9219,55.6563 852.1094,55.5469 Q852.2969,55.4375 852.5156,55.4375 Q852.8906,55.4375 853.125,55.7031 Q853.3594,55.9531 853.3594,56.5625 L853.3594,58.0156 Q853.3594,58.625 853.125,58.8906 Q852.8906,59.1563 852.5156,59.1563 Q852.1719,59.1563 851.9688,58.9531 Q851.7656,58.7656 851.6563,58.25 Q851.6094,57.8906 851.4219,57.7031 Q851.0938,57.3281 850.4844,57.1094 Q849.875,56.8906 849.25,56.8906 Q848.4844,56.8906 847.8438,57.2188 Q847.2188,57.5469 846.7188,58.2969 Q846.2344,59.0469 846.2344,60.0781 L846.2344,61.1719 Q846.2344,62.4063 847.125,63.2344 Q848.0156,64.0469 849.6094,64.0469 Q850.5469,64.0469 851.2031,63.7969 Q851.5938,63.6406 852.0156,63.2031 Q852.2813,62.9375 852.4219,62.8594 Q852.5781,62.7813 852.7813,62.7813 Q853.1094,62.7813 853.3594,63.0469 Q853.625,63.2969 853.625,63.6406 Q853.625,63.9844 853.2813,64.3906 Q852.7813,64.9688 851.9844,65.2969 Q850.9063,65.75 849.6094,65.75 Q848.0938,65.75 846.8906,65.125 Q845.9063,64.625 845.2188,63.5625 Q844.5313,62.4844 844.5313,61.2031 L844.5313,60.0469 Q844.5313,58.7188 845.1406,57.5781 Q845.7656,56.4219 846.8594,55.8125 Q847.9531,55.1875 849.1875,55.1875 Q849.9219,55.1875 850.5625,55.3594 Q851.2188,55.5156 851.7656,55.875 Z " fill="#000000"/><text fill="#000000" font-family="sans-serif" font-size="14" lengthAdjust="spacing" textLength="140" x="863" y="65.7969">RegisterWorkstationUI</text><line style="stroke:#181818;stroke-width:0.5;" x1="835" x2="1005" y1="76" y2="76"/><line style="stroke:#181818;stroke-width:0.5;" x1="835" x2="1005" y1="84" y2="84"/></g><!--class WorkstationController--><g id="elem_WorkstationController"><rect codeLine="12" fill="#F1F1F1" height="103.8633" id="WorkstationController" rx="2.5" ry="2.5" style="stroke:#181818;stroke-width:0.5;" width="487" x="676.5" y="178"/><ellipse cx="847.25" cy="194" fill="#ADD1B2" rx="11" ry="11" style="stroke:#181818;stroke-width:1.0;"/><path d="M850.0156,189.875 Q850.1719,189.6563 850.3594,189.5469 Q850.5469,189.4375 850.7656,189.4375 Q851.1406,189.4375 851.375,189.7031 Q851.6094,189.9531 851.6094,190.5625 L851.6094,192.0156 Q851.6094,192.625 851.375,192.8906 Q851.1406,193.1563 850.7656,193.1563 Q850.4219,193.1563 850.2188,192.9531 Q850.0156,192.7656 849.9063,192.25 Q849.8594,191.8906 849.6719,191.7031 Q849.3438,191.3281 848.7344,191.1094 Q848.125,190.8906 847.5,190.8906 Q846.7344,190.8906 846.0938,191.2188 Q845.4688,191.5469 844.9688,192.2969 Q844.4844,193.0469 844.4844,194.0781 L844.4844,195.1719 Q844.4844,196.4063 845.375,197.2344 Q846.2656,198.0469 847.8594,198.0469 Q848.7969,198.0469 849.4531,197.7969 Q849.8438,197.6406 850.2656,197.2031 Q850.5313,196.9375 850.6719,196.8594 Q850.8281,196.7813 851.0313,196.7813 Q851.3594,196.7813 851.6094,197.0469 Q851.875,197.2969 851.875,197.6406 Q851.875,197.9844 851.5313,198.3906 Q851.0313,198.9688 850.2344,199.2969 Q849.1563,199.75 847.8594,199.75 Q846.3438,199.75 845.1406,199.125 Q844.1563,198.625 843.4688,197.5625 Q842.7813,196.4844 842.7813,195.2031 L842.7813,194.0469 Q842.7813,192.7188 843.3906,191.5781 Q844.0156,190.4219 845.1094,189.8125 Q846.2031,189.1875 847.4375,189.1875 Q848.1719,189.1875 848.8125,189.3594 Q849.4688,189.5156 850.0156,189.875 Z " fill="#000000"/><text fill="#000000" font-family="sans-serif" font-size="14" lengthAdjust="spacing" textLength="137" x="867.75" y="199.7969">WorkstationController</text><line style="stroke:#181818;stroke-width:0.5;" x1="677.5" x2="1162.5" y1="210" y2="210"/><line style="stroke:#181818;stroke-width:0.5;" x1="677.5" x2="1162.5" y1="218" y2="218"/><text fill="#000000" font-family="sans-serif" font-size="14" lengthAdjust="spacing" textLength="309" x="682.5" y="237.1074">+getWorkstationTypes() : List&lt;WorkstationType&gt;</text><text fill="#000000" font-family="sans-serif" font-size="14" lengthAdjust="spacing" textLength="403" x="682.5" y="255.7285">+registerWorkstationType(typeID, typeName) : WorkstationType</text><text fill="#000000" font-family="sans-serif" font-size="14" lengthAdjust="spacing" textLength="475" x="682.5" y="274.3496">+registerWorkstation(workstationID, workstationName, typeID) : Workstation</text></g><!--class WorkstationService--><g id="elem_WorkstationService"><rect codeLine="20" fill="#F1F1F1" height="122.4844" id="WorkstationService" rx="2.5" ry="2.5" style="stroke:#181818;stroke-width:0.5;" width="487" x="676.5" y="368"/><ellipse cx="854.75" cy="384" fill="#ADD1B2" rx="11" ry="11" style="stroke:#181818;stroke-width:1.0;"/><path d="M857.5156,379.875 Q857.6719,379.6563 857.8594,379.5469 Q858.0469,379.4375 858.2656,379.4375 Q858.6406,379.4375 858.875,379.7031 Q859.1094,379.9531 859.1094,380.5625 L859.1094,382.0156 Q859.1094,382.625 858.875,382.8906 Q858.6406,383.1563 858.2656,383.1563 Q857.9219,383.1563 857.7188,382.9531 Q857.5156,382.7656 857.4063,382.25 Q857.3594,381.8906 857.1719,381.7031 Q856.8438,381.3281 856.2344,381.1094 Q855.625,380.8906 855,380.8906 Q854.2344,380.8906 853.5938,381.2188 Q852.9688,381.5469 852.4688,382.2969 Q851.9844,383.0469 851.9844,384.0781 L851.9844,385.1719 Q851.9844,386.4063 852.875,387.2344 Q853.7656,388.0469 855.3594,388.0469 Q856.2969,388.0469 856.9531,387.7969 Q857.3438,387.6406 857.7656,387.2031 Q858.0313,386.9375 858.1719,386.8594 Q858.3281,386.7813 858.5313,386.7813 Q858.8594,386.7813 859.1094,387.0469 Q859.375,387.2969 859.375,387.6406 Q859.375,387.9844 859.0313,388.3906 Q858.5313,388.9688 857.7344,389.2969 Q856.6563,389.75 855.3594,389.75 Q853.8438,389.75 852.6406,389.125 Q851.6563,388.625 850.9688,387.5625 Q850.2813,386.4844 850.2813,385.2031 L850.2813,384.0469 Q850.2813,382.7188 850.8906,381.5781 Q851.5156,380.4219 852.6094,379.8125 Q853.7031,379.1875 854.9375,379.1875 Q855.6719,379.1875 856.3125,379.3594 Q856.9688,379.5156 857.5156,379.875 Z " fill="#000000"/><text fill="#000000" font-family="sans-serif" font-size="14" lengthAdjust="spacing" textLength="122" x="875.25" y="389.7969">WorkstationService</text><line style="stroke:#181818;stroke-width:0.5;" x1="677.5" x2="1162.5" y1="400" y2="400"/><line style="stroke:#181818;stroke-width:0.5;" x1="677.5" x2="1162.5" y1="408" y2="408"/><text fill="#000000" font-family="sans-serif" font-size="14" lengthAdjust="spacing" textLength="309" x="682.5" y="427.1074">+getWorkstationTypes() : List&lt;WorkstationType&gt;</text><text fill="#000000" font-family="sans-serif" font-size="14" lengthAdjust="spacing" textLength="403" x="682.5" y="445.7285">+registerWorkstationType(typeID, typeName) : WorkstationType</text><text fill="#000000" font-family="sans-serif" font-size="14" lengthAdjust="spacing" textLength="328" x="682.5" y="464.3496">-getWorkstationTypeById(typeID) : WorkstationType</text><text fill="#000000" font-family="sans-serif" font-size="14" lengthAdjust="spacing" textLength="475" x="682.5" y="482.9707">+registerWorkstation(workstationID, workstationName, typeID) : Workstation</text></g><!--class Repositories--><g id="elem_Repositories"><rect codeLine="29" fill="#F1F1F1" height="122.4844" id="Repositories" rx="2.5" ry="2.5" style="stroke:#181818;stroke-width:0.5;" width="412" x="23" y="594"/><ellipse cx="185.25" cy="610" fill="#ADD1B2" rx="11" ry="11" style="stroke:#181818;stroke-width:1.0;"/><path d="M188.0156,605.875 Q188.1719,605.6563 188.3594,605.5469 Q188.5469,605.4375 188.7656,605.4375 Q189.1406,605.4375 189.375,605.7031 Q189.6094,605.9531 189.6094,606.5625 L189.6094,608.0156 Q189.6094,608.625 189.375,608.8906 Q189.1406,609.1563 188.7656,609.1563 Q188.4219,609.1563 188.2188,608.9531 Q188.0156,608.7656 187.9063,608.25 Q187.8594,607.8906 187.6719,607.7031 Q187.3438,607.3281 186.7344,607.1094 Q186.125,606.8906 185.5,606.8906 Q184.7344,606.8906 184.0938,607.2188 Q183.4688,607.5469 182.9688,608.2969 Q182.4844,609.0469 182.4844,610.0781 L182.4844,611.1719 Q182.4844,612.4063 183.375,613.2344 Q184.2656,614.0469 185.8594,614.0469 Q186.7969,614.0469 187.4531,613.7969 Q187.8438,613.6406 188.2656,613.2031 Q188.5313,612.9375 188.6719,612.8594 Q188.8281,612.7813 189.0313,612.7813 Q189.3594,612.7813 189.6094,613.0469 Q189.875,613.2969 189.875,613.6406 Q189.875,613.9844 189.5313,614.3906 Q189.0313,614.9688 188.2344,615.2969 Q187.1563,615.75 185.8594,615.75 Q184.3438,615.75 183.1406,615.125 Q182.1563,614.625 181.4688,613.5625 Q180.7813,612.4844 180.7813,611.2031 L180.7813,610.0469 Q180.7813,608.7188 181.3906,607.5781 Q182.0156,606.4219 183.1094,605.8125 Q184.2031,605.1875 185.4375,605.1875 Q186.1719,605.1875 186.8125,605.3594 Q187.4688,605.5156 188.0156,605.875 Z " fill="#000000"/><text fill="#000000" font-family="sans-serif" font-size="14" lengthAdjust="spacing" textLength="79" x="205.75" y="615.7969">Repositories</text><line style="stroke:#181818;stroke-width:0.5;" x1="24" x2="434" y1="626" y2="626"/><line style="stroke:#181818;stroke-width:0.5;" x1="24" x2="434" y1="634" y2="634"/><text fill="#000000" font-family="sans-serif" font-size="14" lengthAdjust="spacing" textLength="94" x="29" y="653.1074">-Repositories()</text><text fill="#000000" font-family="sans-serif" font-size="14" lengthAdjust="spacing" textLength="182" x="29" y="671.7285">+getInstance() : Repositories</text><text fill="#000000" font-family="sans-serif" font-size="14" lengthAdjust="spacing" textLength="400" x="29" y="690.3496">+getWorkstationTypeRepository() : WorkstationTypeRepository</text><text fill="#000000" font-family="sans-serif" font-size="14" lengthAdjust="spacing" textLength="336" x="29" y="708.9707">+getWorkstationRepository() : WorkstationRepository</text></g><!--class WorkstationTypeRepository--><g id="elem_WorkstationTypeRepository"><rect codeLine="36" fill="#F1F1F1" height="122.4844" id="WorkstationTypeRepository" rx="2.5" ry="2.5" style="stroke:#181818;stroke-width:0.5;" width="296" x="23" y="795"/><ellipse cx="79.25" cy="811" fill="#ADD1B2" rx="11" ry="11" style="stroke:#181818;stroke-width:1.0;"/><path d="M82.0156,806.875 Q82.1719,806.6563 82.3594,806.5469 Q82.5469,806.4375 82.7656,806.4375 Q83.1406,806.4375 83.375,806.7031 Q83.6094,806.9531 83.6094,807.5625 L83.6094,809.0156 Q83.6094,809.625 83.375,809.8906 Q83.1406,810.1563 82.7656,810.1563 Q82.4219,810.1563 82.2188,809.9531 Q82.0156,809.7656 81.9063,809.25 Q81.8594,808.8906 81.6719,808.7031 Q81.3438,808.3281 80.7344,808.1094 Q80.125,807.8906 79.5,807.8906 Q78.7344,807.8906 78.0938,808.2188 Q77.4688,808.5469 76.9688,809.2969 Q76.4844,810.0469 76.4844,811.0781 L76.4844,812.1719 Q76.4844,813.4063 77.375,814.2344 Q78.2656,815.0469 79.8594,815.0469 Q80.7969,815.0469 81.4531,814.7969 Q81.8438,814.6406 82.2656,814.2031 Q82.5313,813.9375 82.6719,813.8594 Q82.8281,813.7813 83.0313,813.7813 Q83.3594,813.7813 83.6094,814.0469 Q83.875,814.2969 83.875,814.6406 Q83.875,814.9844 83.5313,815.3906 Q83.0313,815.9688 82.2344,816.2969 Q81.1563,816.75 79.8594,816.75 Q78.3438,816.75 77.1406,816.125 Q76.1563,815.625 75.4688,814.5625 Q74.7813,813.4844 74.7813,812.2031 L74.7813,811.0469 Q74.7813,809.7188 75.3906,808.5781 Q76.0156,807.4219 77.1094,806.8125 Q78.2031,806.1875 79.4375,806.1875 Q80.1719,806.1875 80.8125,806.3594 Q81.4688,806.5156 82.0156,806.875 Z " fill="#000000"/><text fill="#000000" font-family="sans-serif" font-size="14" lengthAdjust="spacing" textLength="175" x="99.75" y="816.7969">WorkstationTypeRepository</text><line style="stroke:#181818;stroke-width:0.5;" x1="24" x2="318" y1="827" y2="827"/><line style="stroke:#181818;stroke-width:0.5;" x1="24" x2="318" y1="835" y2="835"/><text fill="#000000" font-family="sans-serif" font-size="14" lengthAdjust="spacing" textLength="210" x="29" y="854.1074">+getAll() : List&lt;WorkstationType&gt;</text><text fill="#000000" font-family="sans-serif" font-size="14" lengthAdjust="spacing" textLength="226" x="29" y="872.7285">+getByID(typeID) : WorkstationType</text><text fill="#000000" font-family="sans-serif" font-size="14" lengthAdjust="spacing" textLength="284" x="29" y="891.3496">+getWorkstationTypeExists(typeID) : boolean</text><text fill="#000000" font-family="sans-serif" font-size="14" lengthAdjust="spacing" textLength="138" x="29" y="909.9707">+save(type) : boolean</text></g><!--class WorkstationRepository--><g id="elem_WorkstationRepository"><rect codeLine="43" fill="#F1F1F1" height="85.2422" id="WorkstationRepository" rx="2.5" ry="2.5" style="stroke:#181818;stroke-width:0.5;" width="308" x="354" y="813.5"/><ellipse cx="432.25" cy="829.5" fill="#ADD1B2" rx="11" ry="11" style="stroke:#181818;stroke-width:1.0;"/><path d="M435.0156,825.375 Q435.1719,825.1563 435.3594,825.0469 Q435.5469,824.9375 435.7656,824.9375 Q436.1406,824.9375 436.375,825.2031 Q436.6094,825.4531 436.6094,826.0625 L436.6094,827.5156 Q436.6094,828.125 436.375,828.3906 Q436.1406,828.6563 435.7656,828.6563 Q435.4219,828.6563 435.2188,828.4531 Q435.0156,828.2656 434.9063,827.75 Q434.8594,827.3906 434.6719,827.2031 Q434.3438,826.8281 433.7344,826.6094 Q433.125,826.3906 432.5,826.3906 Q431.7344,826.3906 431.0938,826.7188 Q430.4688,827.0469 429.9688,827.7969 Q429.4844,828.5469 429.4844,829.5781 L429.4844,830.6719 Q429.4844,831.9063 430.375,832.7344 Q431.2656,833.5469 432.8594,833.5469 Q433.7969,833.5469 434.4531,833.2969 Q434.8438,833.1406 435.2656,832.7031 Q435.5313,832.4375 435.6719,832.3594 Q435.8281,832.2813 436.0313,832.2813 Q436.3594,832.2813 436.6094,832.5469 Q436.875,832.7969 436.875,833.1406 Q436.875,833.4844 436.5313,833.8906 Q436.0313,834.4688 435.2344,834.7969 Q434.1563,835.25 432.8594,835.25 Q431.3438,835.25 430.1406,834.625 Q429.1563,834.125 428.4688,833.0625 Q427.7813,831.9844 427.7813,830.7031 L427.7813,829.5469 Q427.7813,828.2188 428.3906,827.0781 Q429.0156,825.9219 430.1094,825.3125 Q431.2031,824.6875 432.4375,824.6875 Q433.1719,824.6875 433.8125,824.8594 Q434.4688,825.0156 435.0156,825.375 Z " fill="#000000"/><text fill="#000000" font-family="sans-serif" font-size="14" lengthAdjust="spacing" textLength="143" x="452.75" y="835.2969">WorkstationRepository</text><line style="stroke:#181818;stroke-width:0.5;" x1="355" x2="661" y1="845.5" y2="845.5"/><line style="stroke:#181818;stroke-width:0.5;" x1="355" x2="661" y1="853.5" y2="853.5"/><text fill="#000000" font-family="sans-serif" font-size="14" lengthAdjust="spacing" textLength="296" x="360" y="872.6074">+getWorkstationExists(workstationID) : boolean</text><text fill="#000000" font-family="sans-serif" font-size="14" lengthAdjust="spacing" textLength="182" x="360" y="891.2285">+save(workstation) : boolean</text></g><!--class Workstation--><g id="elem_Workstation"><rect codeLine="50" fill="#F1F1F1" height="103.8633" id="Workstation" rx="2.5" ry="2.5" style="stroke:#181818;stroke-width:0.5;" width="159" x="1295.5" y="1021"/><ellipse cx="1333.9" cy="1037" fill="#ADD1B2" rx="11" ry="11" style="stroke:#181818;stroke-width:1.0;"/><path d="M1336.6656,1032.875 Q1336.8219,1032.6563 1337.0094,1032.5469 Q1337.1969,1032.4375 1337.4156,1032.4375 Q1337.7906,1032.4375 1338.025,1032.7031 Q1338.2594,1032.9531 1338.2594,1033.5625 L1338.2594,1035.0156 Q1338.2594,1035.625 1338.025,1035.8906 Q1337.7906,1036.1563 1337.4156,1036.1563 Q1337.0719,1036.1563 1336.8688,1035.9531 Q1336.6656,1035.7656 1336.5563,1035.25 Q1336.5094,1034.8906 1336.3219,1034.7031 Q1335.9938,1034.3281 1335.3844,1034.1094 Q1334.775,1033.8906 1334.15,1033.8906 Q1333.3844,1033.8906 1332.7438,1034.2188 Q1332.1188,1034.5469 1331.6188,1035.2969 Q1331.1344,1036.0469 1331.1344,1037.0781 L1331.1344,1038.1719 Q1331.1344,1039.4063 1332.025,1040.2344 Q1332.9156,1041.0469 1334.5094,1041.0469 Q1335.4469,1041.0469 1336.1031,1040.7969 Q1336.4938,1040.6406 1336.9156,1040.2031 Q1337.1813,1039.9375 1337.3219,1039.8594 Q1337.4781,1039.7813 1337.6813,1039.7813 Q1338.0094,1039.7813 1338.2594,1040.0469 Q1338.525,1040.2969 1338.525,1040.6406 Q1338.525,1040.9844 1338.1813,1041.3906 Q1337.6813,1041.9688 1336.8844,1042.2969 Q1335.8063,1042.75 1334.5094,1042.75 Q1332.9938,1042.75 1331.7906,1042.125 Q1330.8063,1041.625 1330.1188,1040.5625 Q1329.4313,1039.4844 1329.4313,1038.2031 L1329.4313,1037.0469 Q1329.4313,1035.7188 1330.0406,1034.5781 Q1330.6656,1033.4219 1331.7594,1032.8125 Q1332.8531,1032.1875 1334.0875,1032.1875 Q1334.8219,1032.1875 1335.4625,1032.3594 Q1336.1188,1032.5156 1336.6656,1032.875 Z " fill="#000000"/><text fill="#000000" font-family="sans-serif" font-size="14" lengthAdjust="spacing" textLength="75" x="1353.1" y="1042.7969">Workstation</text><line style="stroke:#181818;stroke-width:0.5;" x1="1296.5" x2="1453.5" y1="1053" y2="1053"/><text fill="#000000" font-family="sans-serif" font-size="14" lengthAdjust="spacing" textLength="43" x="1301.5" y="1072.1074">-id : int</text><text fill="#000000" font-family="sans-serif" font-size="14" lengthAdjust="spacing" textLength="89" x="1301.5" y="1090.7285">-name : String</text><line style="stroke:#181818;stroke-width:0.5;" x1="1296.5" x2="1453.5" y1="1098.2422" y2="1098.2422"/><text fill="#000000" font-family="sans-serif" font-size="14" lengthAdjust="spacing" textLength="147" x="1301.5" y="1117.3496">+Workstation(id, name)</text></g><!--class WorkstationType--><g id="elem_WorkstationType"><rect codeLine="56" fill="#F1F1F1" height="122.4844" id="WorkstationType" rx="2.5" ry="2.5" style="stroke:#181818;stroke-width:0.5;" width="220" x="1265" y="1204"/><ellipse cx="1317.25" cy="1220" fill="#ADD1B2" rx="11" ry="11" style="stroke:#181818;stroke-width:1.0;"/><path d="M1320.0156,1215.875 Q1320.1719,1215.6563 1320.3594,1215.5469 Q1320.5469,1215.4375 1320.7656,1215.4375 Q1321.1406,1215.4375 1321.375,1215.7031 Q1321.6094,1215.9531 1321.6094,1216.5625 L1321.6094,1218.0156 Q1321.6094,1218.625 1321.375,1218.8906 Q1321.1406,1219.1563 1320.7656,1219.1563 Q1320.4219,1219.1563 1320.2188,1218.9531 Q1320.0156,1218.7656 1319.9063,1218.25 Q1319.8594,1217.8906 1319.6719,1217.7031 Q1319.3438,1217.3281 1318.7344,1217.1094 Q1318.125,1216.8906 1317.5,1216.8906 Q1316.7344,1216.8906 1316.0938,1217.2188 Q1315.4688,1217.5469 1314.9688,1218.2969 Q1314.4844,1219.0469 1314.4844,1220.0781 L1314.4844,1221.1719 Q1314.4844,1222.4063 1315.375,1223.2344 Q1316.2656,1224.0469 1317.8594,1224.0469 Q1318.7969,1224.0469 1319.4531,1223.7969 Q1319.8438,1223.6406 1320.2656,1223.2031 Q1320.5313,1222.9375 1320.6719,1222.8594 Q1320.8281,1222.7813 1321.0313,1222.7813 Q1321.3594,1222.7813 1321.6094,1223.0469 Q1321.875,1223.2969 1321.875,1223.6406 Q1321.875,1223.9844 1321.5313,1224.3906 Q1321.0313,1224.9688 1320.2344,1225.2969 Q1319.1563,1225.75 1317.8594,1225.75 Q1316.3438,1225.75 1315.1406,1225.125 Q1314.1563,1224.625 1313.4688,1223.5625 Q1312.7813,1222.4844 1312.7813,1221.2031 L1312.7813,1220.0469 Q1312.7813,1218.7188 1313.3906,1217.5781 Q1314.0156,1216.4219 1315.1094,1215.8125 Q1316.2031,1215.1875 1317.4375,1215.1875 Q1318.1719,1215.1875 1318.8125,1215.3594 Q1319.4688,1215.5156 1320.0156,1215.875 Z " fill="#000000"/><text fill="#000000" font-family="sans-serif" font-size="14" lengthAdjust="spacing" textLength="107" x="1337.75" y="1225.7969">WorkstationType</text><line style="stroke:#181818;stroke-width:0.5;" x1="1266" x2="1484" y1="1236" y2="1236"/><text fill="#000000" font-family="sans-serif" font-size="14" lengthAdjust="spacing" textLength="43" x="1271" y="1255.1074">-id : int</text><text fill="#000000" font-family="sans-serif" font-size="14" lengthAdjust="spacing" textLength="89" x="1271" y="1273.7285">-name : String</text><text fill="#000000" font-family="sans-serif" font-size="14" lengthAdjust="spacing" textLength="208" x="1271" y="1292.3496">-workstations : List&lt;Workstation&gt;</text><line style="stroke:#181818;stroke-width:0.5;" x1="1266" x2="1484" y1="1299.8633" y2="1299.8633"/><text fill="#000000" font-family="sans-serif" font-size="14" lengthAdjust="spacing" textLength="179" x="1271" y="1318.9707">+WorkstationType(id, name)</text></g><!--class WorkstationException--><g id="elem_WorkstationException"><rect codeLine="65" fill="#F1F1F1" height="103.8633" id="WorkstationException" rx="2.5" ry="2.5" style="stroke:#181818;stroke-width:0.5;" width="417" x="977.5" y="603"/><ellipse cx="1113.75" cy="619" fill="#ADD1B2" rx="11" ry="11" style="stroke:#181818;stroke-width:1.0;"/><path d="M1116.5156,614.875 Q1116.6719,614.6563 1116.8594,614.5469 Q1117.0469,614.4375 1117.2656,614.4375 Q1117.6406,614.4375 1117.875,614.7031 Q1118.1094,614.9531 1118.1094,615.5625 L1118.1094,617.0156 Q1118.1094,617.625 1117.875,617.8906 Q1117.6406,618.1563 1117.2656,618.1563 Q1116.9219,618.1563 1116.7188,617.9531 Q1116.5156,617.7656 1116.4063,617.25 Q1116.3594,616.8906 1116.1719,616.7031 Q1115.8438,616.3281 1115.2344,616.1094 Q1114.625,615.8906 1114,615.8906 Q1113.2344,615.8906 1112.5938,616.2188 Q1111.9688,616.5469 1111.4688,617.2969 Q1110.9844,618.0469 1110.9844,619.0781 L1110.9844,620.1719 Q1110.9844,621.4063 1111.875,622.2344 Q1112.7656,623.0469 1114.3594,623.0469 Q1115.2969,623.0469 1115.9531,622.7969 Q1116.3438,622.6406 1116.7656,622.2031 Q1117.0313,621.9375 1117.1719,621.8594 Q1117.3281,621.7813 1117.5313,621.7813 Q1117.8594,621.7813 1118.1094,622.0469 Q1118.375,622.2969 1118.375,622.6406 Q1118.375,622.9844 1118.0313,623.3906 Q1117.5313,623.9688 1116.7344,624.2969 Q1115.6563,624.75 1114.3594,624.75 Q1112.8438,624.75 1111.6406,624.125 Q1110.6563,623.625 1109.9688,622.5625 Q1109.2813,621.4844 1109.2813,620.2031 L1109.2813,619.0469 Q1109.2813,617.7188 1109.8906,616.5781 Q1110.5156,615.4219 1111.6094,614.8125 Q1112.7031,614.1875 1113.9375,614.1875 Q1114.6719,614.1875 1115.3125,614.3594 Q1115.9688,614.5156 1116.5156,614.875 Z " fill="#000000"/><text fill="#000000" font-family="sans-serif" font-size="14" lengthAdjust="spacing" textLength="136" x="1134.25" y="624.7969">WorkstationException</text><line style="stroke:#181818;stroke-width:0.5;" x1="978.5" x2="1393.5" y1="635" y2="635"/><line style="stroke:#181818;stroke-width:0.5;" x1="978.5" x2="1393.5" y1="643" y2="643"/><text fill="#000000" font-family="sans-serif" font-size="14" lengthAdjust="spacing" textLength="393" x="983.5" y="662.1074">+workstationTypeAlreadyExists(typeID) : WorkstationException</text><text fill="#000000" font-family="sans-serif" font-size="14" lengthAdjust="spacing" textLength="405" x="983.5" y="680.7285">+workstationAlreadyExists(workstationID) : WorkstationException</text><text fill="#000000" font-family="sans-serif" font-size="14" lengthAdjust="spacing" textLength="371" x="983.5" y="699.3496">+workstationTypeNotFound(typeID) : WorkstationException</text></g><!--class RuntimeException--><g id="elem_RuntimeException"><rect codeLine="71" fill="#F1F1F1" height="48" id="RuntimeException" rx="2.5" ry="2.5" style="stroke:#181818;stroke-width:0.5;" width="145" x="1113.5" y="832"/><ellipse cx="1128.5" cy="848" fill="#ADD1B2" rx="11" ry="11" style="stroke:#181818;stroke-width:1.0;"/><path d="M1131.2656,843.875 Q1131.4219,843.6563 1131.6094,843.5469 Q1131.7969,843.4375 1132.0156,843.4375 Q1132.3906,843.4375 1132.625,843.7031 Q1132.8594,843.9531 1132.8594,844.5625 L1132.8594,846.0156 Q1132.8594,846.625 1132.625,846.8906 Q1132.3906,847.1563 1132.0156,847.1563 Q1131.6719,847.1563 1131.4688,846.9531 Q1131.2656,846.7656 1131.1563,846.25 Q1131.1094,845.8906 1130.9219,845.7031 Q1130.5938,845.3281 1129.9844,845.1094 Q1129.375,844.8906 1128.75,844.8906 Q1127.9844,844.8906 1127.3438,845.2188 Q1126.7188,845.5469 1126.2188,846.2969 Q1125.7344,847.0469 1125.7344,848.0781 L1125.7344,849.1719 Q1125.7344,850.4063 1126.625,851.2344 Q1127.5156,852.0469 1129.1094,852.0469 Q1130.0469,852.0469 1130.7031,851.7969 Q1131.0938,851.6406 1131.5156,851.2031 Q1131.7813,850.9375 1131.9219,850.8594 Q1132.0781,850.7813 1132.2813,850.7813 Q1132.6094,850.7813 1132.8594,851.0469 Q1133.125,851.2969 1133.125,851.6406 Q1133.125,851.9844 1132.7813,852.3906 Q1132.2813,852.9688 1131.4844,853.2969 Q1130.4063,853.75 1129.1094,853.75 Q1127.5938,853.75 1126.3906,853.125 Q1125.4063,852.625 1124.7188,851.5625 Q1124.0313,850.4844 1124.0313,849.2031 L1124.0313,848.0469 Q1124.0313,846.7188 1124.6406,845.5781 Q1125.2656,844.4219 1126.3594,843.8125 Q1127.4531,843.1875 1128.6875,843.1875 Q1129.4219,843.1875 1130.0625,843.3594 Q1130.7188,843.5156 1131.2656,843.875 Z " fill="#000000"/><text fill="#000000" font-family="sans-serif" font-size="14" lengthAdjust="spacing" textLength="113" x="1142.5" y="853.7969">RuntimeException</text><line style="stroke:#181818;stroke-width:0.5;" x1="1114.5" x2="1257.5" y1="864" y2="864"/><line style="stroke:#181818;stroke-width:0.5;" x1="1114.5" x2="1257.5" y1="872" y2="872"/></g><!--link RegisterWorkstationUI to WorkstationController--><g id="link_RegisterWorkstationUI_WorkstationController"><path codeLine="74" d="M920,92.27 C920,114.63 920,143.17 920,171.94 " fill="none" id="RegisterWorkstationUI-to-WorkstationController" style="stroke:#181818;stroke-width:1.0;stroke-dasharray:7.0,7.0;"/><polygon fill="#181818" points="920,177.94,924,168.94,920,172.94,916,168.94,920,177.94" style="stroke:#181818;stroke-width:1.0;"/></g><!--link WorkstationController to WorkstationService--><g id="link_WorkstationController_WorkstationService"><path codeLine="75" d="M920,282.25 C920,308.47 920,334.54 920,361.92 " fill="none" id="WorkstationController-to-WorkstationService" style="stroke:#181818;stroke-width:1.0;stroke-dasharray:7.0,7.0;"/><polygon fill="#181818" points="920,367.92,924,358.92,920,362.92,916,358.92,920,367.92" style="stroke:#181818;stroke-width:1.0;"/></g><!--link WorkstationService to Repositories--><g id="link_WorkstationService_Repositories"><path codeLine="76" d="M676.48,481.98 C578.83,502.82 489,522 489,522 C489,522 421.2399,556.4037 352.5599,591.2737 " fill="none" id="WorkstationService-to-Repositories" style="stroke:#181818;stroke-width:1.0;stroke-dasharray:7.0,7.0;"/><polygon fill="#181818" points="347.21,593.99,357.0458,593.4822,351.6683,591.7265,353.4241,586.349,347.21,593.99" style="stroke:#181818;stroke-width:1.0;"/><text fill="#000000" font-family="sans-serif" font-size="13" lengthAdjust="spacing" textLength="67" x="490" y="537.0283">repositories</text></g><!--link WorkstationService to WorkstationRepository--><g id="link_WorkstationService_WorkstationRepository"><path codeLine="77" d="M874.98,490.2 C852.9,519.71 831,549 831,549 C831,549 750,716 750,716 C750,716 656.7931,769.5421 585.4831,810.4921 " fill="none" id="WorkstationService-to-WorkstationRepository" style="stroke:#181818;stroke-width:1.0;stroke-dasharray:7.0,7.0;"/><polygon fill="#181818" points="580.28,813.48,590.0766,812.4669,584.6159,810.9901,586.0927,805.5294,580.28,813.48" style="stroke:#181818;stroke-width:1.0;"/><text fill="#000000" font-family="sans-serif" font-size="13" lengthAdjust="spacing" textLength="128" x="832" y="660.5283">workstationRepository</text></g><!--link WorkstationService to WorkstationTypeRepository--><g id="link_WorkstationService_WorkstationTypeRepository"><path codeLine="78" d="M750.52,490.02 C667.02,519.6 584,549 584,549 C584,549 523,765 523,765 C523,765 337,795 337,795 C337,795 335.7933,795.442 324.8833,799.382 " fill="none" id="WorkstationService-to-WorkstationTypeRepository" style="stroke:#181818;stroke-width:1.0;stroke-dasharray:7.0,7.0;"/><polygon fill="#181818" points="319.24,801.42,329.0636,802.1252,323.9427,799.7217,326.3463,794.6008,319.24,801.42" style="stroke:#181818;stroke-width:1.0;"/><text fill="#000000" font-family="sans-serif" font-size="13" lengthAdjust="spacing" textLength="156" x="585" y="660.5283">workstationTypeRepository</text></g><!--link WorkstationService to Workstation--><g id="link_WorkstationService_Workstation"><path codeLine="79" d="M1163.7,489.06 C1287.05,518.96 1411,549 1411,549 C1411,549 1411,941 1411,941 C1411,941 1400.7199,978.4045 1390.6099,1015.1945 " fill="none" id="WorkstationService-to-Workstation" style="stroke:#181818;stroke-width:1.0;stroke-dasharray:7.0,7.0;"/><polygon fill="#181818" points="1389.02,1020.98,1395.2618,1013.3616,1390.3449,1016.1587,1387.5478,1011.2418,1389.02,1020.98" style="stroke:#181818;stroke-width:1.0;"/><text fill="#000000" font-family="sans-serif" font-size="13" lengthAdjust="spacing" textLength="66" x="1412" y="761.0283">workstation</text></g><!--link WorkstationService to WorkstationType--><g id="link_WorkstationService_WorkstationType"><path codeLine="80" d="M1163.76,480.51 C1267.05,501.91 1364,522 1364,522 C1364,522 1437,549 1437,549 C1437,549 1553,654 1553,654 C1553,654 1553,654 1553,1074 C1553,1074 1487.5723,1143.8416 1435.4223,1199.5016 " fill="none" id="WorkstationService-to-WorkstationType" style="stroke:#181818;stroke-width:1.0;stroke-dasharray:7.0,7.0;"/><polygon fill="#181818" points="1431.32,1203.88,1440.3925,1200.0472,1434.7386,1200.2313,1434.5545,1194.5774,1431.32,1203.88" style="stroke:#181818;stroke-width:1.0;"/><text fill="#000000" font-family="sans-serif" font-size="13" lengthAdjust="spacing" textLength="25" x="1554" y="861.5283">type</text></g><!--link Repositories to Repositories--><g id="link_Repositories_Repositories"><path codeLine="81" d="M435.12,639.53 C456.39,642.57 470,647.72 470,655 C470,662.28 462.3296,666.5811 441.0596,669.6211 " fill="none" id="Repositories-to-Repositories" style="stroke:#181818;stroke-width:1.0;"/><polygon fill="#181818" points="435.12,670.47,444.5954,673.1564,440.0697,669.7626,443.4635,665.2369,435.12,670.47" style="stroke:#181818;stroke-width:1.0;"/><text fill="#000000" font-family="sans-serif" font-size="13" lengthAdjust="spacing" textLength="49" x="476" y="660.5283">instance</text></g><!--link Repositories to WorkstationRepository--><g id="link_Repositories_WorkstationRepository"><path codeLine="82" d="M317.05,716.03 C341.26,732.54 361,746 361,746 C361,746 405.6399,779.107 447.1899,809.907 " fill="none" id="Repositories-to-WorkstationRepository" style="stroke:#181818;stroke-width:1.0;"/><polygon fill="#181818" points="452.01,813.48,447.1619,804.907,447.9932,810.5025,442.3978,811.3339,452.01,813.48" style="stroke:#181818;stroke-width:1.0;"/><text fill="#000000" font-family="sans-serif" font-size="13" lengthAdjust="spacing" textLength="128" x="386" y="761.0283">workstationRepository</text><text fill="#000000" font-family="sans-serif" font-size="13" lengthAdjust="spacing" textLength="7" x="320.3545" y="738.5205">1</text><text fill="#000000" font-family="sans-serif" font-size="13" lengthAdjust="spacing" textLength="7" x="435.5288" y="802.3809">1</text></g><!--link Repositories to WorkstationTypeRepository--><g id="link_Repositories_WorkstationTypeRepository"><path codeLine="83" d="M208.99,716.03 C203.49,732.54 199,746 199,746 C199,746 194.4437,763.7389 187.9637,788.9489 " fill="none" id="Repositories-to-WorkstationTypeRepository" style="stroke:#181818;stroke-width:1.0;"/><polygon fill="#181818" points="186.47,794.76,192.5846,787.0391,187.7147,789.9174,184.8365,785.0476,186.47,794.76" style="stroke:#181818;stroke-width:1.0;"/><text fill="#000000" font-family="sans-serif" font-size="13" lengthAdjust="spacing" textLength="156" x="200" y="761.0283">workstationTypeRepository</text><text fill="#000000" font-family="sans-serif" font-size="13" lengthAdjust="spacing" textLength="7" x="199.1247" y="738.5205">1</text><text fill="#000000" font-family="sans-serif" font-size="13" lengthAdjust="spacing" textLength="7" x="180.854" y="783.7135">1</text></g><!--link WorkstationRepository to Workstation--><g id="link_WorkstationRepository_Workstation"><path codeLine="84" d="M662,895.19 C847.4,941.16 1145.8664,1015.1757 1289.4464,1050.7857 " fill="none" id="WorkstationRepository-to-Workstation" style="stroke:#181818;stroke-width:1.0;"/><polygon fill="#181818" points="1295.27,1052.23,1287.4975,1046.1811,1290.417,1051.0264,1285.5718,1053.9459,1295.27,1052.23" style="stroke:#181818;stroke-width:1.0;"/><text fill="#000000" font-family="sans-serif" font-size="13" lengthAdjust="spacing" textLength="60" x="942" y="964.0283">categories</text><text fill="#000000" font-family="sans-serif" font-size="13" lengthAdjust="spacing" textLength="7" x="670.1211" y="893.802">1</text><text fill="#000000" font-family="sans-serif" font-size="13" lengthAdjust="spacing" textLength="5" x="1282.4325" y="1046.4889">*</text></g><!--link WorkstationTypeRepository to WorkstationType--><g id="link_WorkstationTypeRepository_WorkstationType"><path codeLine="85" d="M289.88,917.15 C316.48,930.62 337,941 337,941 C337,941 992.031,1144.8272 1259.171,1227.9572 " fill="none" id="WorkstationTypeRepository-to-WorkstationType" style="stroke:#181818;stroke-width:1.0;"/><polygon fill="#181818" points="1264.9,1229.74,1257.495,1223.2465,1260.1258,1228.2543,1255.1179,1230.8852,1264.9,1229.74" style="stroke:#181818;stroke-width:1.0;"/><text fill="#000000" font-family="sans-serif" font-size="13" lengthAdjust="spacing" textLength="60" x="926" y="1078.5283">categories</text><text fill="#000000" font-family="sans-serif" font-size="13" lengthAdjust="spacing" textLength="7" x="296.9419" y="939.6551">1</text><text fill="#000000" font-family="sans-serif" font-size="13" lengthAdjust="spacing" textLength="5" x="1251.9828" y="1223.6846">*</text></g><!--link Workstation to WorkstationType--><g id="link_Workstation_WorkstationType"><path codeLine="86" d="M1375,1125.17 C1375,1149.46 1375,1172.64 1375,1197.98 " fill="none" id="Workstation-to-WorkstationType" style="stroke:#181818;stroke-width:1.0;"/><polygon fill="#181818" points="1375,1203.98,1379,1194.98,1375,1198.98,1371,1194.98,1375,1203.98" style="stroke:#181818;stroke-width:1.0;"/><text fill="#000000" font-family="sans-serif" font-size="13" lengthAdjust="spacing" textLength="21" x="1376" y="1170.0283">has</text><text fill="#000000" font-family="sans-serif" font-size="13" lengthAdjust="spacing" textLength="5" x="1369.6797" y="1146.9991">*</text><text fill="#000000" font-family="sans-serif" font-size="13" lengthAdjust="spacing" textLength="7" x="1367.5734" y="1192.5238">1</text></g><!--link WorkstationService to WorkstationException--><g id="link_WorkstationService_WorkstationException"><path codeLine="87" d="M991.28,490.03 C1033.14,525.28 1080.8908,565.4848 1120.7608,599.0648 " fill="none" id="WorkstationService-to-WorkstationException" style="stroke:#181818;stroke-width:1.0;stroke-dasharray:7.0,7.0;"/><polygon fill="#181818" points="1125.35,602.93,1121.043,594.0728,1121.5257,599.709,1115.8895,600.1917,1125.35,602.93" style="stroke:#181818;stroke-width:1.0;"/><text fill="#000000" font-family="sans-serif" font-size="13" lengthAdjust="spacing" textLength="38" x="1046" y="537.0283">throws</text></g><!--link WorkstationException to RuntimeException--><g id="link_WorkstationException_RuntimeException"><path codeLine="88" d="M1186,707.25 C1186,747.44 1186,783.49 1186,813.83 " fill="none" id="WorkstationException-to-RuntimeException" style="stroke:#181818;stroke-width:1.0;"/><polygon fill="none" points="1186,831.83,1192,813.83,1180,813.83,1186,831.83" style="stroke:#181818;stroke-width:1.0;"/></g><!--SRC=[pLPDRzim3BtxLmWvELjTRDTW290j7M1Wwo5PiRDgSuuGHJ8afQctzRzFSetemrBZzJ3C5yVYuoFrI56HUy9QBF01jRZQumQsggE015GAiuP29iy0kSCrFn7Me1-OIjT22GFLjO1QJZlpuTWgYgLSAIN8_L51MN6s9Jy1lSko8I2QtPKpz2j3-kd1Q0CDaGh4ToxsKc55EBih1yHJzkHuVk9C2Kuf29_1yRIG0M6Ujmqe1_DDvoxpELgWBphmXy2oj6vYd9b1v6RpvVeAcVSjFe2X2Z0lakGd-zlmE9-6xfcuN0Uq4K6s81v81Kar1lj_8aKnZlsnA-iykjj_9-86MYw9ug8B-t9O9o0T1GjtFPzxofPCXs4Lz8gwk9Vqj_7pY0RMck98-mU-UjFHBl731CsoedHAVsYahkLwIYt72jmyQdBf-DvpJW4pwoFnmtElXTRKdfBxSJ13MA-Fqj4Ts3W9jv- -yXfeyaYwdKHgJKIOiYjCTwvUs-hvoHgRWDlsfBv21ZQ_MDFNX2gSRSf8sPVHfFfH42RcQdBpM45ha4bTpWYtNYS_n8eAm7KtQfSOJPJ49nWLVZAFIUQMgy_yoEefUNXLsXoP8WUm26sDtu7NrylutPR5Rxm0Fqp_B78X6AGttnRwFu0phX8kyGEsS6UlCtCkamIJnoCAXjzbCjzzOdJjPEgNUM8KnKWTCans7pXxF-l1vlrtsaoXUPqwZiUPzyqi4Ah22ffHgOE02VT1jZX53qxiHJljy9JUihD0LsSd-CbpijQY-BqS7wS_]--></g></svg>