<?xml version="1.0" encoding="us-ascii" standalone="no"?><svg xmlns="http://www.w3.org/2000/svg" xmlns:xlink="http://www.w3.org/1999/xlink" contentStyleType="text/css" height="1018.5px" preserveAspectRatio="none" style="width:1181px;height:1018px;background:#FFFFFF;" version="1.1" viewBox="0 0 1181 1018" width="1181.5px" zoomAndPan="magnify"><defs/><g><text fill="#000000" font-family="sans-serif" font-size="7" font-weight="bold" lengthAdjust="spacing" textLength="82.5" x="550" y="15.0537">Sequence Diagram (SD)</text><rect fill="#FFFFFF" height="901.4785" style="stroke:#181818;stroke-width:0.5;" width="5" x="33.5" y="66.6211"/><rect fill="#FFFFFF" height="372.1768" style="stroke:#181818;stroke-width:0.5;" width="5" x="264" y="78.2666"/><rect fill="#FFFFFF" height="15.6455" style="stroke:#181818;stroke-width:0.5;" width="5" x="264" y="466.0889"/><rect fill="#FFFFFF" height="470.7197" style="stroke:#181818;stroke-width:0.5;" width="5" x="264" y="497.3799"/><rect fill="#FFFFFF" height="140.8096" style="stroke:#181818;stroke-width:0.5;" width="5" x="355" y="293.9883"/><rect fill="#FFFFFF" height="140.8096" style="stroke:#181818;stroke-width:0.5;" width="5" x="460" y="137.5332"/><rect fill="#FFFFFF" height="435.9287" style="stroke:#181818;stroke-width:0.5;" width="5" x="460" y="513.0254"/><rect fill="#FFFFFF" height="109.5186" style="stroke:#181818;stroke-width:0.5;" width="5" x="617" y="309.6338"/><rect fill="#FFFFFF" height="126.1641" style="stroke:#181818;stroke-width:0.5;" width="5" x="617" y="528.6709"/><rect fill="#FFFFFF" height="109.5186" style="stroke:#181818;stroke-width:0.5;" width="5" x="686.75" y="153.1787"/><rect fill="#FFFFFF" height="262.8281" style="stroke:#181818;stroke-width:0.5;" width="5" x="686.75" y="670.4805"/><rect fill="#FFFFFF" height="131.6641" style="stroke:#181818;stroke-width:0.5;" width="5" x="689.25" y="690.126"/><rect fill="#FFFFFF" height="15.6455" style="stroke:#181818;stroke-width:0.5;" width="5" x="809.25" y="588.7529"/><rect fill="#FFFFFF" height="15.6455" style="stroke:#181818;stroke-width:0.5;" width="5" x="877" y="752.708"/><rect fill="#FFFFFF" height="15.6455" style="stroke:#181818;stroke-width:0.5;" width="5" x="936.25" y="168.8242"/><rect fill="#FFFFFF" height="15.6455" style="stroke:#181818;stroke-width:0.5;" width="5" x="936.25" y="325.2793"/><rect fill="#FFFFFF" height="15.6455" style="stroke:#181818;stroke-width:0.5;" width="5" x="988.75" y="200.1152"/><rect fill="#FFFFFF" height="15.6455" style="stroke:#181818;stroke-width:0.5;" width="5" x="988.75" y="356.5703"/><rect fill="#FFFFFF" height="15.6455" style="stroke:#181818;stroke-width:0.5;" width="5" x="1052" y="387.8613"/><rect fill="#FFFFFF" height="15.6455" style="stroke:#181818;stroke-width:0.5;" width="5" x="1052" y="544.3164"/><rect fill="#FFFFFF" height="15.6455" style="stroke:#181818;stroke-width:0.5;" width="5" x="1130.75" y="231.4063"/><rect fill="#FFFFFF" height="15.6455" style="stroke:#181818;stroke-width:0.5;" width="5" x="1130.75" y="708.2715"/><rect fill="#FFFFFF" height="76.7275" style="stroke:#181818;stroke-width:0.5;" width="5" x="1130.75" y="840.9355"/><rect fill="none" height="72.2275" style="stroke:#000000;stroke-width:0.75;" width="640" x="208.5" y="567.4619"/><rect fill="none" height="72.2275" style="stroke:#000000;stroke-width:0.75;" width="707" x="208.5" y="731.417"/><rect fill="none" height="104.5186" style="stroke:#000000;stroke-width:0.75;" width="969.5" x="208.5" y="848.4355"/><line style="stroke:#181818;stroke-width:0.25;stroke-dasharray:5.0,5.0;" x1="36" x2="36" y1="61.6211" y2="977.0996"/><line style="stroke:#181818;stroke-width:0.25;stroke-dasharray:5.0,5.0;" x1="266.5" x2="266.5" y1="61.6211" y2="977.0996"/><line style="stroke:#181818;stroke-width:0.25;stroke-dasharray:5.0,5.0;" x1="357.5" x2="357.5" y1="98.1719" y2="977.0996"/><line style="stroke:#181818;stroke-width:0.25;stroke-dasharray:5.0,5.0;" x1="462.25" x2="462.25" y1="119.9824" y2="977.0996"/><line style="stroke:#181818;stroke-width:0.25;stroke-dasharray:5.0,5.0;" x1="619.25" x2="619.25" y1="61.6211" y2="977.0996"/><line style="stroke:#181818;stroke-width:0.25;stroke-dasharray:5.0,5.0;" x1="689.25" x2="689.25" y1="61.6211" y2="977.0996"/><line style="stroke:#181818;stroke-width:0.25;stroke-dasharray:5.0,5.0;" x1="811.5" x2="811.5" y1="61.6211" y2="977.0996"/><line style="stroke:#181818;stroke-width:0.25;stroke-dasharray:5.0,5.0;" x1="879.5" x2="879.5" y1="61.6211" y2="977.0996"/><line style="stroke:#181818;stroke-width:0.25;stroke-dasharray:5.0,5.0;" x1="938.5" x2="938.5" y1="61.6211" y2="977.0996"/><line style="stroke:#181818;stroke-width:0.25;stroke-dasharray:5.0,5.0;" x1="991" x2="991" y1="61.6211" y2="977.0996"/><line style="stroke:#181818;stroke-width:0.25;stroke-dasharray:5.0,5.0;" x1="1054.5" x2="1054.5" y1="61.6211" y2="977.0996"/><line style="stroke:#181818;stroke-width:0.25;stroke-dasharray:5.0,5.0;" x1="1133" x2="1133" y1="61.6211" y2="977.0996"/><text fill="#000000" font-family="sans-serif" font-size="7" lengthAdjust="spacing" textLength="64" x="2.5" y="59.8643">Production Manager</text><ellipse cx="36" cy="26.5605" fill="#E3E3E3" rx="4" ry="4" style="stroke:#181818;stroke-width:0.25;"/><path d="M36,30.5605 L36,44.0605 M29.5,34.5605 L42.5,34.5605 M36,44.0605 L29.5,51.5605 M36,44.0605 L42.5,51.5605 " fill="none" style="stroke:#181818;stroke-width:0.25;"/><text fill="#000000" font-family="sans-serif" font-size="7" lengthAdjust="spacing" textLength="64" x="2.5" y="984.1533">Production Manager</text><ellipse cx="36" cy="990.1602" fill="#E3E3E3" rx="4" ry="4" style="stroke:#181818;stroke-width:0.25;"/><path d="M36,994.1602 L36,1007.6602 M29.5,998.1602 L42.5,998.1602 M36,1007.6602 L29.5,1015.1602 M36,1007.6602 L42.5,1015.1602 " fill="none" style="stroke:#181818;stroke-width:0.25;"/><rect fill="#E3E3E3" height="16.3105" rx="1.25" ry="1.25" style="stroke:#181818;stroke-width:0.25;" width="106" x="213.5" y="44.8105"/><text fill="#000000" font-family="sans-serif" font-size="7" lengthAdjust="spacing" textLength="99" x="217" y="55.8643">:RegisterSupplierRawMaterialUI</text><rect fill="#E3E3E3" height="16.3105" rx="1.25" ry="1.25" style="stroke:#181818;stroke-width:0.25;" width="106" x="213.5" y="976.5996"/><text fill="#000000" font-family="sans-serif" font-size="7" lengthAdjust="spacing" textLength="99" x="217" y="987.6533">:RegisterSupplierRawMaterialUI</text><rect fill="#E3E3E3" height="16.3105" rx="1.25" ry="1.25" style="stroke:#181818;stroke-width:0.25;" width="66" x="324.5" y="976.5996"/><text fill="#000000" font-family="sans-serif" font-size="7" lengthAdjust="spacing" textLength="59" x="328" y="987.6533">:SupplierController</text><rect fill="#E3E3E3" height="16.3105" rx="1.25" ry="1.25" style="stroke:#181818;stroke-width:0.25;" width="78.5" x="423.25" y="976.5996"/><text fill="#000000" font-family="sans-serif" font-size="7" lengthAdjust="spacing" textLength="71.5" x="426.75" y="987.6533">:RawMaterialController</text><rect fill="#E3E3E3" height="16.3105" rx="1.25" ry="1.25" style="stroke:#181818;stroke-width:0.25;" width="58.5" x="590.25" y="44.8105"/><text fill="#000000" font-family="sans-serif" font-size="7" lengthAdjust="spacing" textLength="51.5" x="593.75" y="55.8643">:SupplierService</text><rect fill="#E3E3E3" height="16.3105" rx="1.25" ry="1.25" style="stroke:#181818;stroke-width:0.25;" width="58.5" x="590.25" y="976.5996"/><text fill="#000000" font-family="sans-serif" font-size="7" lengthAdjust="spacing" textLength="51.5" x="593.75" y="987.6533">:SupplierService</text><rect fill="#E3E3E3" height="16.3105" rx="1.25" ry="1.25" style="stroke:#181818;stroke-width:0.25;" width="71" x="653.75" y="44.8105"/><text fill="#000000" font-family="sans-serif" font-size="7" lengthAdjust="spacing" textLength="64" x="657.25" y="55.8643">:RawMaterialService</text><rect fill="#E3E3E3" height="16.3105" rx="1.25" ry="1.25" style="stroke:#181818;stroke-width:0.25;" width="71" x="653.75" y="976.5996"/><text fill="#000000" font-family="sans-serif" font-size="7" lengthAdjust="spacing" textLength="64" x="657.25" y="987.6533">:RawMaterialService</text><rect fill="#E3E3E3" height="16.3105" rx="1.25" ry="1.25" style="stroke:#181818;stroke-width:0.25;" width="63.5" x="780" y="44.8105"/><text fill="#000000" font-family="sans-serif" font-size="7" lengthAdjust="spacing" textLength="56.5" x="783.5" y="55.8643">SupplierException</text><rect fill="#E3E3E3" height="16.3105" rx="1.25" ry="1.25" style="stroke:#181818;stroke-width:0.25;" width="63.5" x="780" y="976.5996"/><text fill="#000000" font-family="sans-serif" font-size="7" lengthAdjust="spacing" textLength="56.5" x="783.5" y="987.6533">SupplierException</text><rect fill="#E3E3E3" height="16.3105" rx="1.25" ry="1.25" style="stroke:#181818;stroke-width:0.25;" width="62" x="848.5" y="44.8105"/><text fill="#000000" font-family="sans-serif" font-size="7" lengthAdjust="spacing" textLength="55" x="852" y="55.8643">ProductException</text><rect fill="#E3E3E3" height="16.3105" rx="1.25" ry="1.25" style="stroke:#181818;stroke-width:0.25;" width="62" x="848.5" y="976.5996"/><text fill="#000000" font-family="sans-serif" font-size="7" lengthAdjust="spacing" textLength="55" x="852" y="987.6533">ProductException</text><rect fill="#E3E3E3" height="16.3105" rx="1.25" ry="1.25" style="stroke:#181818;stroke-width:0.25;" width="46.5" x="915.5" y="44.8105"/><text fill="#000000" font-family="sans-serif" font-size="7" lengthAdjust="spacing" textLength="39.5" x="919" y="55.8643">Repositories</text><rect fill="#E3E3E3" height="16.3105" rx="1.25" ry="1.25" style="stroke:#181818;stroke-width:0.25;" width="46.5" x="915.5" y="976.5996"/><text fill="#000000" font-family="sans-serif" font-size="7" lengthAdjust="spacing" textLength="39.5" x="919" y="987.6533">Repositories</text><rect fill="#E3E3E3" height="25.6211" rx="1.25" ry="1.25" style="stroke:#181818;stroke-width:0.25;" width="48.5" x="967" y="35.5"/><text fill="#000000" font-family="sans-serif" font-size="7" lengthAdjust="spacing" textLength="37" x="972.75" y="46.5537">repositories</text><text fill="#000000" font-family="sans-serif" font-size="7" lengthAdjust="spacing" textLength="41.5" x="970.5" y="55.8643">:Repositories</text><rect fill="#E3E3E3" height="25.6211" rx="1.25" ry="1.25" style="stroke:#181818;stroke-width:0.25;" width="48.5" x="967" y="976.5996"/><text fill="#000000" font-family="sans-serif" font-size="7" lengthAdjust="spacing" textLength="37" x="972.75" y="987.6533">repositories</text><text fill="#000000" font-family="sans-serif" font-size="7" lengthAdjust="spacing" textLength="41.5" x="970.5" y="996.9639">:Repositories</text><rect fill="#E3E3E3" height="25.6211" rx="1.25" ry="1.25" style="stroke:#181818;stroke-width:0.25;" width="68" x="1020.5" y="35.5"/><text fill="#000000" font-family="sans-serif" font-size="7" lengthAdjust="spacing" textLength="61" x="1024" y="46.5537">supplierRepository:</text><text fill="#000000" font-family="sans-serif" font-size="7" lengthAdjust="spacing" textLength="60" x="1024.5" y="55.8643">SupplierRepository</text><rect fill="#E3E3E3" height="25.6211" rx="1.25" ry="1.25" style="stroke:#181818;stroke-width:0.25;" width="68" x="1020.5" y="976.5996"/><text fill="#000000" font-family="sans-serif" font-size="7" lengthAdjust="spacing" textLength="61" x="1024" y="987.6533">supplierRepository:</text><text fill="#000000" font-family="sans-serif" font-size="7" lengthAdjust="spacing" textLength="60" x="1024.5" y="996.9639">SupplierRepository</text><rect fill="#E3E3E3" height="25.6211" rx="1.25" ry="1.25" style="stroke:#181818;stroke-width:0.25;" width="79.5" x="1093.5" y="35.5"/><text fill="#000000" font-family="sans-serif" font-size="7" lengthAdjust="spacing" textLength="72" x="1097.25" y="46.5537">rawMaterialRepository:</text><text fill="#000000" font-family="sans-serif" font-size="7" lengthAdjust="spacing" textLength="72.5" x="1097" y="55.8643">RawMaterialRepository</text><rect fill="#E3E3E3" height="25.6211" rx="1.25" ry="1.25" style="stroke:#181818;stroke-width:0.25;" width="79.5" x="1093.5" y="976.5996"/><text fill="#000000" font-family="sans-serif" font-size="7" lengthAdjust="spacing" textLength="72" x="1097.25" y="987.6533">rawMaterialRepository:</text><text fill="#000000" font-family="sans-serif" font-size="7" lengthAdjust="spacing" textLength="72.5" x="1097" y="996.9639">RawMaterialRepository</text><rect fill="#FFFFFF" height="901.4785" style="stroke:#181818;stroke-width:0.5;" width="5" x="33.5" y="66.6211"/><rect fill="#FFFFFF" height="372.1768" style="stroke:#181818;stroke-width:0.5;" width="5" x="264" y="78.2666"/><rect fill="#FFFFFF" height="15.6455" style="stroke:#181818;stroke-width:0.5;" width="5" x="264" y="466.0889"/><rect fill="#FFFFFF" height="470.7197" style="stroke:#181818;stroke-width:0.5;" width="5" x="264" y="497.3799"/><rect fill="#FFFFFF" height="140.8096" style="stroke:#181818;stroke-width:0.5;" width="5" x="355" y="293.9883"/><rect fill="#FFFFFF" height="140.8096" style="stroke:#181818;stroke-width:0.5;" width="5" x="460" y="137.5332"/><rect fill="#FFFFFF" height="435.9287" style="stroke:#181818;stroke-width:0.5;" width="5" x="460" y="513.0254"/><rect fill="#FFFFFF" height="109.5186" style="stroke:#181818;stroke-width:0.5;" width="5" x="617" y="309.6338"/><rect fill="#FFFFFF" height="126.1641" style="stroke:#181818;stroke-width:0.5;" width="5" x="617" y="528.6709"/><rect fill="#FFFFFF" height="109.5186" style="stroke:#181818;stroke-width:0.5;" width="5" x="686.75" y="153.1787"/><rect fill="#FFFFFF" height="262.8281" style="stroke:#181818;stroke-width:0.5;" width="5" x="686.75" y="670.4805"/><rect fill="#FFFFFF" height="131.6641" style="stroke:#181818;stroke-width:0.5;" width="5" x="689.25" y="690.126"/><rect fill="#FFFFFF" height="15.6455" style="stroke:#181818;stroke-width:0.5;" width="5" x="809.25" y="588.7529"/><rect fill="#FFFFFF" height="15.6455" style="stroke:#181818;stroke-width:0.5;" width="5" x="877" y="752.708"/><rect fill="#FFFFFF" height="15.6455" style="stroke:#181818;stroke-width:0.5;" width="5" x="936.25" y="168.8242"/><rect fill="#FFFFFF" height="15.6455" style="stroke:#181818;stroke-width:0.5;" width="5" x="936.25" y="325.2793"/><rect fill="#FFFFFF" height="15.6455" style="stroke:#181818;stroke-width:0.5;" width="5" x="988.75" y="200.1152"/><rect fill="#FFFFFF" height="15.6455" style="stroke:#181818;stroke-width:0.5;" width="5" x="988.75" y="356.5703"/><rect fill="#FFFFFF" height="15.6455" style="stroke:#181818;stroke-width:0.5;" width="5" x="1052" y="387.8613"/><rect fill="#FFFFFF" height="15.6455" style="stroke:#181818;stroke-width:0.5;" width="5" x="1052" y="544.3164"/><rect fill="#FFFFFF" height="15.6455" style="stroke:#181818;stroke-width:0.5;" width="5" x="1130.75" y="231.4063"/><rect fill="#FFFFFF" height="15.6455" style="stroke:#181818;stroke-width:0.5;" width="5" x="1130.75" y="708.2715"/><rect fill="#FFFFFF" height="76.7275" style="stroke:#181818;stroke-width:0.5;" width="5" x="1130.75" y="840.9355"/><polygon fill="#181818" points="258,76.2666,263,78.2666,258,80.2666,260,78.2666" style="stroke:#181818;stroke-width:0.5;"/><line style="stroke:#181818;stroke-width:0.5;" x1="38.5" x2="261" y1="78.2666" y2="78.2666"/><text fill="#000000" font-family="sans-serif" font-size="6.5" font-weight="bold" lengthAdjust="spacing" textLength="3.5" x="42" y="75.6353">1</text><text fill="#000000" font-family="sans-serif" font-size="6.5" lengthAdjust="spacing" textLength="122.5" x="47.5" y="75.6353">asks to assign a supplier to a raw material</text><polygon fill="#181818" points="318.5,91.9121,323.5,93.9121,318.5,95.9121,320.5,93.9121" style="stroke:#181818;stroke-width:0.5;"/><line style="stroke:#181818;stroke-width:0.5;" x1="269" x2="321.5" y1="93.9121" y2="93.9121"/><text fill="#000000" font-family="sans-serif" font-size="6.5" font-weight="bold" lengthAdjust="spacing" textLength="3.5" x="272.5" y="91.2808">2</text><text fill="#000000" font-family="sans-serif" font-size="6.5" lengthAdjust="spacing" textLength="18" x="278" y="91.2808">create</text><rect fill="#E3E3E3" height="16.3105" rx="1.25" ry="1.25" style="stroke:#181818;stroke-width:0.25;" width="66" x="324.5" y="82.2666"/><text fill="#000000" font-family="sans-serif" font-size="7" lengthAdjust="spacing" textLength="59" x="328" y="93.3203">:SupplierController</text><polygon fill="#181818" points="417.25,113.7227,422.25,115.7227,417.25,117.7227,419.25,115.7227" style="stroke:#181818;stroke-width:0.5;"/><line style="stroke:#181818;stroke-width:0.5;" x1="269" x2="420.25" y1="115.7227" y2="115.7227"/><text fill="#000000" font-family="sans-serif" font-size="6.5" font-weight="bold" lengthAdjust="spacing" textLength="3.5" x="272.5" y="113.0913">3</text><text fill="#000000" font-family="sans-serif" font-size="6.5" lengthAdjust="spacing" textLength="18" x="278" y="113.0913">create</text><rect fill="#E3E3E3" height="16.3105" rx="1.25" ry="1.25" style="stroke:#181818;stroke-width:0.25;" width="78.5" x="423.25" y="104.0771"/><text fill="#000000" font-family="sans-serif" font-size="7" lengthAdjust="spacing" textLength="71.5" x="426.75" y="115.1309">:RawMaterialController</text><polygon fill="#181818" points="454,135.5332,459,137.5332,454,139.5332,456,137.5332" style="stroke:#181818;stroke-width:0.5;"/><line style="stroke:#181818;stroke-width:0.5;" x1="269" x2="457" y1="137.5332" y2="137.5332"/><text fill="#000000" font-family="sans-serif" font-size="6.5" font-weight="bold" lengthAdjust="spacing" textLength="3.5" x="272.5" y="134.9019">4</text><text fill="#000000" font-family="sans-serif" font-size="6.5" lengthAdjust="spacing" textLength="52" x="278" y="134.9019">getRawMaterials()</text><polygon fill="#181818" points="680.75,151.1787,685.75,153.1787,680.75,155.1787,682.75,153.1787" style="stroke:#181818;stroke-width:0.5;"/><line style="stroke:#181818;stroke-width:0.5;" x1="465" x2="683.75" y1="153.1787" y2="153.1787"/><text fill="#000000" font-family="sans-serif" font-size="6.5" font-weight="bold" lengthAdjust="spacing" textLength="3.5" x="468.5" y="150.5474">5</text><text fill="#000000" font-family="sans-serif" font-size="6.5" lengthAdjust="spacing" textLength="52" x="474" y="150.5474">getRawMaterials()</text><polygon fill="#181818" points="930.25,166.8242,935.25,168.8242,930.25,170.8242,932.25,168.8242" style="stroke:#181818;stroke-width:0.5;"/><line style="stroke:#181818;stroke-width:0.5;" x1="691.75" x2="933.25" y1="168.8242" y2="168.8242"/><text fill="#000000" font-family="sans-serif" font-size="6.5" font-weight="bold" lengthAdjust="spacing" textLength="3.5" x="695.25" y="166.1929">6</text><text fill="#000000" font-family="sans-serif" font-size="6.5" lengthAdjust="spacing" textLength="37.5" x="700.75" y="166.1929">getInstance()</text><polygon fill="#181818" points="697.25,182.4697,692.25,184.4697,697.25,186.4697,695.25,184.4697" style="stroke:#181818;stroke-width:0.5;"/><line style="stroke:#181818;stroke-width:0.5;stroke-dasharray:2.0,2.0;" x1="694.25" x2="938.25" y1="184.4697" y2="184.4697"/><text fill="#000000" font-family="sans-serif" font-size="6.5" font-weight="bold" lengthAdjust="spacing" textLength="3.5" x="700.25" y="181.8384">7</text><text fill="#000000" font-family="sans-serif" font-size="6.5" lengthAdjust="spacing" textLength="33.5" x="705.75" y="181.8384">repositories</text><polygon fill="#181818" points="982.75,198.1152,987.75,200.1152,982.75,202.1152,984.75,200.1152" style="stroke:#181818;stroke-width:0.5;"/><line style="stroke:#181818;stroke-width:0.5;" x1="691.75" x2="985.75" y1="200.1152" y2="200.1152"/><text fill="#000000" font-family="sans-serif" font-size="6.5" font-weight="bold" lengthAdjust="spacing" textLength="3.5" x="695.25" y="197.4839">8</text><text fill="#000000" font-family="sans-serif" font-size="6.5" lengthAdjust="spacing" textLength="79.5" x="700.75" y="197.4839">getRawMaterialRepository()</text><polygon fill="#181818" points="697.25,213.7607,692.25,215.7607,697.25,217.7607,695.25,215.7607" style="stroke:#181818;stroke-width:0.5;"/><line style="stroke:#181818;stroke-width:0.5;stroke-dasharray:2.0,2.0;" x1="694.25" x2="990.75" y1="215.7607" y2="215.7607"/><text fill="#000000" font-family="sans-serif" font-size="6.5" font-weight="bold" lengthAdjust="spacing" textLength="3.5" x="700.25" y="213.1294">9</text><text fill="#000000" font-family="sans-serif" font-size="6.5" lengthAdjust="spacing" textLength="64" x="705.75" y="213.1294">rawMaterialRepository</text><polygon fill="#181818" points="1124.75,229.4063,1129.75,231.4063,1124.75,233.4063,1126.75,231.4063" style="stroke:#181818;stroke-width:0.5;"/><line style="stroke:#181818;stroke-width:0.5;" x1="691.75" x2="1127.75" y1="231.4063" y2="231.4063"/><text fill="#000000" font-family="sans-serif" font-size="6.5" font-weight="bold" lengthAdjust="spacing" textLength="7" x="695.25" y="228.7749">10</text><text fill="#000000" font-family="sans-serif" font-size="6.5" lengthAdjust="spacing" textLength="20.5" x="704.25" y="228.7749">getAll()</text><polygon fill="#181818" points="697.25,245.0518,692.25,247.0518,697.25,249.0518,695.25,247.0518" style="stroke:#181818;stroke-width:0.5;"/><line style="stroke:#181818;stroke-width:0.5;stroke-dasharray:2.0,2.0;" x1="694.25" x2="1132.75" y1="247.0518" y2="247.0518"/><text fill="#000000" font-family="sans-serif" font-size="6.5" font-weight="bold" lengthAdjust="spacing" textLength="7" x="700.25" y="244.4204">11</text><text fill="#000000" font-family="sans-serif" font-size="6.5" lengthAdjust="spacing" textLength="36.5" x="709.25" y="244.4204">rawMaterials</text><polygon fill="#181818" points="470.5,260.6973,465.5,262.6973,470.5,264.6973,468.5,262.6973" style="stroke:#181818;stroke-width:0.5;"/><line style="stroke:#181818;stroke-width:0.5;stroke-dasharray:2.0,2.0;" x1="467.5" x2="688.75" y1="262.6973" y2="262.6973"/><text fill="#000000" font-family="sans-serif" font-size="6.5" font-weight="bold" lengthAdjust="spacing" textLength="7" x="473.5" y="260.0659">12</text><text fill="#000000" font-family="sans-serif" font-size="6.5" lengthAdjust="spacing" textLength="36.5" x="482.5" y="260.0659">rawMaterials</text><polygon fill="#181818" points="274.5,276.3428,269.5,278.3428,274.5,280.3428,272.5,278.3428" style="stroke:#181818;stroke-width:0.5;"/><line style="stroke:#181818;stroke-width:0.5;stroke-dasharray:2.0,2.0;" x1="271.5" x2="462" y1="278.3428" y2="278.3428"/><text fill="#000000" font-family="sans-serif" font-size="6.5" font-weight="bold" lengthAdjust="spacing" textLength="7" x="277.5" y="275.7114">13</text><text fill="#000000" font-family="sans-serif" font-size="6.5" lengthAdjust="spacing" textLength="36.5" x="286.5" y="275.7114">rawMaterials</text><polygon fill="#181818" points="349,291.9883,354,293.9883,349,295.9883,351,293.9883" style="stroke:#181818;stroke-width:0.5;"/><line style="stroke:#181818;stroke-width:0.5;" x1="269" x2="352" y1="293.9883" y2="293.9883"/><text fill="#000000" font-family="sans-serif" font-size="6.5" font-weight="bold" lengthAdjust="spacing" textLength="7" x="272.5" y="291.3569">14</text><text fill="#000000" font-family="sans-serif" font-size="6.5" lengthAdjust="spacing" textLength="40" x="281.5" y="291.3569">getSuppliers()</text><polygon fill="#181818" points="611,307.6338,616,309.6338,611,311.6338,613,309.6338" style="stroke:#181818;stroke-width:0.5;"/><line style="stroke:#181818;stroke-width:0.5;" x1="360" x2="614" y1="309.6338" y2="309.6338"/><text fill="#000000" font-family="sans-serif" font-size="6.5" font-weight="bold" lengthAdjust="spacing" textLength="7" x="363.5" y="307.0024">15</text><text fill="#000000" font-family="sans-serif" font-size="6.5" lengthAdjust="spacing" textLength="40" x="372.5" y="307.0024">getSuppliers()</text><polygon fill="#181818" points="930.25,323.2793,935.25,325.2793,930.25,327.2793,932.25,325.2793" style="stroke:#181818;stroke-width:0.5;"/><line style="stroke:#181818;stroke-width:0.5;" x1="622" x2="933.25" y1="325.2793" y2="325.2793"/><text fill="#000000" font-family="sans-serif" font-size="6.5" font-weight="bold" lengthAdjust="spacing" textLength="7" x="625.5" y="322.6479">16</text><text fill="#000000" font-family="sans-serif" font-size="6.5" lengthAdjust="spacing" textLength="37.5" x="634.5" y="322.6479">getInstance()</text><polygon fill="#181818" points="627.5,338.9248,622.5,340.9248,627.5,342.9248,625.5,340.9248" style="stroke:#181818;stroke-width:0.5;"/><line style="stroke:#181818;stroke-width:0.5;stroke-dasharray:2.0,2.0;" x1="624.5" x2="938.25" y1="340.9248" y2="340.9248"/><text fill="#000000" font-family="sans-serif" font-size="6.5" font-weight="bold" lengthAdjust="spacing" textLength="7" x="630.5" y="338.2935">17</text><text fill="#000000" font-family="sans-serif" font-size="6.5" lengthAdjust="spacing" textLength="33.5" x="639.5" y="338.2935">repositories</text><polygon fill="#181818" points="982.75,354.5703,987.75,356.5703,982.75,358.5703,984.75,356.5703" style="stroke:#181818;stroke-width:0.5;"/><line style="stroke:#181818;stroke-width:0.5;" x1="622" x2="985.75" y1="356.5703" y2="356.5703"/><text fill="#000000" font-family="sans-serif" font-size="6.5" font-weight="bold" lengthAdjust="spacing" textLength="7" x="625.5" y="353.939">18</text><text fill="#000000" font-family="sans-serif" font-size="6.5" lengthAdjust="spacing" textLength="67.5" x="634.5" y="353.939">getSupplierRepository()</text><polygon fill="#181818" points="627.5,370.2158,622.5,372.2158,627.5,374.2158,625.5,372.2158" style="stroke:#181818;stroke-width:0.5;"/><line style="stroke:#181818;stroke-width:0.5;stroke-dasharray:2.0,2.0;" x1="624.5" x2="990.75" y1="372.2158" y2="372.2158"/><text fill="#000000" font-family="sans-serif" font-size="6.5" font-weight="bold" lengthAdjust="spacing" textLength="7" x="630.5" y="369.5845">19</text><text fill="#000000" font-family="sans-serif" font-size="6.5" lengthAdjust="spacing" textLength="53.5" x="639.5" y="369.5845">supplierRepository</text><polygon fill="#181818" points="1046,385.8613,1051,387.8613,1046,389.8613,1048,387.8613" style="stroke:#181818;stroke-width:0.5;"/><line style="stroke:#181818;stroke-width:0.5;" x1="622" x2="1049" y1="387.8613" y2="387.8613"/><text fill="#000000" font-family="sans-serif" font-size="6.5" font-weight="bold" lengthAdjust="spacing" textLength="7" x="625.5" y="385.23">20</text><text fill="#000000" font-family="sans-serif" font-size="6.5" lengthAdjust="spacing" textLength="20.5" x="634.5" y="385.23">getAll()</text><polygon fill="#181818" points="627.5,401.5068,622.5,403.5068,627.5,405.5068,625.5,403.5068" style="stroke:#181818;stroke-width:0.5;"/><line style="stroke:#181818;stroke-width:0.5;stroke-dasharray:2.0,2.0;" x1="624.5" x2="1054" y1="403.5068" y2="403.5068"/><text fill="#000000" font-family="sans-serif" font-size="6.5" font-weight="bold" lengthAdjust="spacing" textLength="7" x="630.5" y="400.8755">21</text><text fill="#000000" font-family="sans-serif" font-size="6.5" lengthAdjust="spacing" textLength="26" x="639.5" y="400.8755">suppliers</text><polygon fill="#181818" points="365.5,417.1523,360.5,419.1523,365.5,421.1523,363.5,419.1523" style="stroke:#181818;stroke-width:0.5;"/><line style="stroke:#181818;stroke-width:0.5;stroke-dasharray:2.0,2.0;" x1="362.5" x2="619" y1="419.1523" y2="419.1523"/><text fill="#000000" font-family="sans-serif" font-size="6.5" font-weight="bold" lengthAdjust="spacing" textLength="7" x="368.5" y="416.521">22</text><text fill="#000000" font-family="sans-serif" font-size="6.5" lengthAdjust="spacing" textLength="26" x="377.5" y="416.521">suppliers</text><polygon fill="#181818" points="274.5,432.7979,269.5,434.7979,274.5,436.7979,272.5,434.7979" style="stroke:#181818;stroke-width:0.5;"/><line style="stroke:#181818;stroke-width:0.5;stroke-dasharray:2.0,2.0;" x1="271.5" x2="357" y1="434.7979" y2="434.7979"/><text fill="#000000" font-family="sans-serif" font-size="6.5" font-weight="bold" lengthAdjust="spacing" textLength="7" x="277.5" y="432.1665">23</text><text fill="#000000" font-family="sans-serif" font-size="6.5" lengthAdjust="spacing" textLength="26" x="286.5" y="432.1665">suppliers</text><polygon fill="#181818" points="44,448.4434,39,450.4434,44,452.4434,42,450.4434" style="stroke:#181818;stroke-width:0.5;"/><line style="stroke:#181818;stroke-width:0.5;stroke-dasharray:2.0,2.0;" x1="41" x2="266" y1="450.4434" y2="450.4434"/><text fill="#000000" font-family="sans-serif" font-size="6.5" font-weight="bold" lengthAdjust="spacing" textLength="7" x="47" y="447.812">24</text><text fill="#000000" font-family="sans-serif" font-size="6.5" lengthAdjust="spacing" textLength="204.5" x="56" y="447.812">shows the list of suppliers and raw materials and requests confirmation</text><polygon fill="#181818" points="258,464.0889,263,466.0889,258,468.0889,260,466.0889" style="stroke:#181818;stroke-width:0.5;"/><line style="stroke:#181818;stroke-width:0.5;" x1="38.5" x2="261" y1="466.0889" y2="466.0889"/><text fill="#000000" font-family="sans-serif" font-size="6.5" font-weight="bold" lengthAdjust="spacing" textLength="7" x="42" y="463.4575">25</text><text fill="#000000" font-family="sans-serif" font-size="6.5" lengthAdjust="spacing" textLength="174" x="51" y="463.4575">confirms that he wants to assign a supplier to a raw material</text><polygon fill="#181818" points="44,479.7344,39,481.7344,44,483.7344,42,481.7344" style="stroke:#181818;stroke-width:0.5;"/><line style="stroke:#181818;stroke-width:0.5;stroke-dasharray:2.0,2.0;" x1="41" x2="266" y1="481.7344" y2="481.7344"/><text fill="#000000" font-family="sans-serif" font-size="6.5" font-weight="bold" lengthAdjust="spacing" textLength="7" x="47" y="479.103">26</text><text fill="#000000" font-family="sans-serif" font-size="6.5" lengthAdjust="spacing" textLength="179" x="56" y="479.103">requests data (i.e. Supplier ID, Raw Material ID and Unit Cost)</text><polygon fill="#181818" points="258,495.3799,263,497.3799,258,499.3799,260,497.3799" style="stroke:#181818;stroke-width:0.5;"/><line style="stroke:#181818;stroke-width:0.5;" x1="38.5" x2="261" y1="497.3799" y2="497.3799"/><text fill="#000000" font-family="sans-serif" font-size="6.5" font-weight="bold" lengthAdjust="spacing" textLength="7" x="42" y="494.7485">27</text><text fill="#000000" font-family="sans-serif" font-size="6.5" lengthAdjust="spacing" textLength="61" x="51" y="494.7485">types requested data</text><polygon fill="#181818" points="454,511.0254,459,513.0254,454,515.0254,456,513.0254" style="stroke:#181818;stroke-width:0.5;"/><line style="stroke:#181818;stroke-width:0.5;" x1="269" x2="457" y1="513.0254" y2="513.0254"/><text fill="#000000" font-family="sans-serif" font-size="6.5" font-weight="bold" lengthAdjust="spacing" textLength="7" x="272.5" y="510.394">28</text><text fill="#000000" font-family="sans-serif" font-size="6.5" lengthAdjust="spacing" textLength="172.5" x="281.5" y="510.394">registerRawMaterialSupplier(rawMaterialID, supplierID, cost)</text><polygon fill="#181818" points="611,526.6709,616,528.6709,611,530.6709,613,528.6709" style="stroke:#181818;stroke-width:0.5;"/><line style="stroke:#181818;stroke-width:0.5;" x1="465" x2="614" y1="528.6709" y2="528.6709"/><text fill="#000000" font-family="sans-serif" font-size="6.5" font-weight="bold" lengthAdjust="spacing" textLength="7" x="468.5" y="526.0396">29</text><text fill="#000000" font-family="sans-serif" font-size="6.5" lengthAdjust="spacing" textLength="79" x="477.5" y="526.0396">getSupplierByID(supplierID)</text><polygon fill="#181818" points="1046,542.3164,1051,544.3164,1046,546.3164,1048,544.3164" style="stroke:#181818;stroke-width:0.5;"/><line style="stroke:#181818;stroke-width:0.5;" x1="622" x2="1049" y1="544.3164" y2="544.3164"/><text fill="#000000" font-family="sans-serif" font-size="6.5" font-weight="bold" lengthAdjust="spacing" textLength="7" x="625.5" y="541.6851">30</text><text fill="#000000" font-family="sans-serif" font-size="6.5" lengthAdjust="spacing" textLength="54.5" x="634.5" y="541.6851">getById(supplierID)</text><polygon fill="#181818" points="627.5,557.9619,622.5,559.9619,627.5,561.9619,625.5,559.9619" style="stroke:#181818;stroke-width:0.5;"/><line style="stroke:#181818;stroke-width:0.5;stroke-dasharray:2.0,2.0;" x1="624.5" x2="1054" y1="559.9619" y2="559.9619"/><text fill="#000000" font-family="sans-serif" font-size="6.5" font-weight="bold" lengthAdjust="spacing" textLength="7" x="630.5" y="557.3306">31</text><text fill="#000000" font-family="sans-serif" font-size="6.5" lengthAdjust="spacing" textLength="22.5" x="639.5" y="557.3306">supplier</text><path d="M208.5,567.4619 L239,567.4619 L239,572.1074 L234,577.1074 L208.5,577.1074 L208.5,567.4619 " fill="#EEEEEE" style="stroke:#000000;stroke-width:0.75;"/><rect fill="none" height="72.2275" style="stroke:#000000;stroke-width:0.75;" width="640" x="208.5" y="567.4619"/><text fill="#000000" font-family="sans-serif" font-size="6.5" font-weight="bold" lengthAdjust="spacing" textLength="8" x="216" y="574.9761">alt</text><text fill="#000000" font-family="sans-serif" font-size="5.5" font-weight="bold" lengthAdjust="spacing" textLength="46" x="246.5" y="574.397">[supplier == null]</text><polygon fill="#181818" points="803.25,586.7529,808.25,588.7529,803.25,590.7529,805.25,588.7529" style="stroke:#181818;stroke-width:0.5;"/><line style="stroke:#181818;stroke-width:0.5;" x1="622" x2="806.25" y1="588.7529" y2="588.7529"/><text fill="#000000" font-family="sans-serif" font-size="6.5" font-weight="bold" lengthAdjust="spacing" textLength="7" x="625.5" y="586.1216">32</text><text fill="#000000" font-family="sans-serif" font-size="6.5" lengthAdjust="spacing" textLength="100.5" x="634.5" y="586.1216">throw supplierNotFound(supplierID)</text><polygon fill="#181818" points="627.5,602.3984,622.5,604.3984,627.5,606.3984,625.5,604.3984" style="stroke:#181818;stroke-width:0.5;"/><line style="stroke:#181818;stroke-width:0.5;stroke-dasharray:2.0,2.0;" x1="624.5" x2="811.25" y1="604.3984" y2="604.3984"/><text fill="#000000" font-family="sans-serif" font-size="6.5" font-weight="bold" lengthAdjust="spacing" textLength="7" x="630.5" y="601.7671">33</text><text fill="#000000" font-family="sans-serif" font-size="6.5" lengthAdjust="spacing" textLength="51.5" x="639.5" y="601.7671">Exception Thrown</text><polygon fill="#181818" points="470.5,618.0439,465.5,620.0439,470.5,622.0439,468.5,620.0439" style="stroke:#181818;stroke-width:0.5;"/><line style="stroke:#181818;stroke-width:0.5;stroke-dasharray:2.0,2.0;" x1="467.5" x2="616.5" y1="620.0439" y2="620.0439"/><text fill="#000000" font-family="sans-serif" font-size="6.5" font-weight="bold" lengthAdjust="spacing" textLength="7" x="473.5" y="617.4126">34</text><text fill="#000000" font-family="sans-serif" font-size="6.5" lengthAdjust="spacing" textLength="131" x="482.5" y="617.4126">show error message (Supplier does not exist)</text><polygon fill="#181818" points="274.5,633.6895,269.5,635.6895,274.5,637.6895,272.5,635.6895" style="stroke:#181818;stroke-width:0.5;"/><line style="stroke:#181818;stroke-width:0.5;stroke-dasharray:2.0,2.0;" x1="271.5" x2="459.5" y1="635.6895" y2="635.6895"/><text fill="#000000" font-family="sans-serif" font-size="6.5" font-weight="bold" lengthAdjust="spacing" textLength="7" x="277.5" y="633.0581">35</text><text fill="#000000" font-family="sans-serif" font-size="6.5" lengthAdjust="spacing" textLength="131" x="286.5" y="633.0581">show error message (Supplier does not exist)</text><polygon fill="#181818" points="470.5,652.835,465.5,654.835,470.5,656.835,468.5,654.835" style="stroke:#181818;stroke-width:0.5;"/><line style="stroke:#181818;stroke-width:0.5;stroke-dasharray:2.0,2.0;" x1="467.5" x2="619" y1="654.835" y2="654.835"/><text fill="#000000" font-family="sans-serif" font-size="6.5" font-weight="bold" lengthAdjust="spacing" textLength="7" x="473.5" y="652.2036">36</text><text fill="#000000" font-family="sans-serif" font-size="6.5" lengthAdjust="spacing" textLength="22.5" x="482.5" y="652.2036">supplier</text><polygon fill="#181818" points="680.75,668.4805,685.75,670.4805,680.75,672.4805,682.75,670.4805" style="stroke:#181818;stroke-width:0.5;"/><line style="stroke:#181818;stroke-width:0.5;" x1="465" x2="683.75" y1="670.4805" y2="670.4805"/><text fill="#000000" font-family="sans-serif" font-size="6.5" font-weight="bold" lengthAdjust="spacing" textLength="7" x="468.5" y="667.8491">37</text><text fill="#000000" font-family="sans-serif" font-size="6.5" lengthAdjust="spacing" textLength="178" x="477.5" y="667.8491">registerRawMaterialSupplier(rawMaterialID, supplier, unitCost)</text><line style="stroke:#181818;stroke-width:0.5;" x1="691.75" x2="715.25" y1="683.626" y2="683.626"/><line style="stroke:#181818;stroke-width:0.5;" x1="715.25" x2="715.25" y1="683.626" y2="690.126"/><line style="stroke:#181818;stroke-width:0.5;" x1="694.75" x2="715.25" y1="690.126" y2="690.126"/><polygon fill="#181818" points="699.75,688.126,694.75,690.126,699.75,692.126,697.75,690.126" style="stroke:#181818;stroke-width:0.5;"/><text fill="#000000" font-family="sans-serif" font-size="6.5" font-weight="bold" lengthAdjust="spacing" textLength="7" x="697.75" y="680.9946">38</text><text fill="#000000" font-family="sans-serif" font-size="6.5" lengthAdjust="spacing" textLength="101.5" x="706.75" y="680.9946">getRawMaterialByID(rawMaterialID)</text><polygon fill="#181818" points="1124.75,706.2715,1129.75,708.2715,1124.75,710.2715,1126.75,708.2715" style="stroke:#181818;stroke-width:0.5;"/><line style="stroke:#181818;stroke-width:0.5;" x1="694.25" x2="1127.75" y1="708.2715" y2="708.2715"/><text fill="#000000" font-family="sans-serif" font-size="6.5" font-weight="bold" lengthAdjust="spacing" textLength="7" x="697.75" y="705.6401">39</text><text fill="#000000" font-family="sans-serif" font-size="6.5" lengthAdjust="spacing" textLength="65" x="706.75" y="705.6401">getById(rawMaterialID)</text><polygon fill="#181818" points="699.75,721.917,694.75,723.917,699.75,725.917,697.75,723.917" style="stroke:#181818;stroke-width:0.5;"/><line style="stroke:#181818;stroke-width:0.5;stroke-dasharray:2.0,2.0;" x1="696.75" x2="1132.75" y1="723.917" y2="723.917"/><text fill="#000000" font-family="sans-serif" font-size="6.5" font-weight="bold" lengthAdjust="spacing" textLength="7" x="702.75" y="721.2856">40</text><text fill="#000000" font-family="sans-serif" font-size="6.5" lengthAdjust="spacing" textLength="33" x="711.75" y="721.2856">rawMaterial</text><path d="M208.5,731.417 L239,731.417 L239,736.0625 L234,741.0625 L208.5,741.0625 L208.5,731.417 " fill="#EEEEEE" style="stroke:#000000;stroke-width:0.75;"/><rect fill="none" height="72.2275" style="stroke:#000000;stroke-width:0.75;" width="707" x="208.5" y="731.417"/><text fill="#000000" font-family="sans-serif" font-size="6.5" font-weight="bold" lengthAdjust="spacing" textLength="8" x="216" y="738.9312">alt</text><text fill="#000000" font-family="sans-serif" font-size="5.5" font-weight="bold" lengthAdjust="spacing" textLength="55.5" x="246.5" y="738.3521">[rawMaterial == null]</text><polygon fill="#181818" points="871,750.708,876,752.708,871,754.708,873,752.708" style="stroke:#181818;stroke-width:0.5;"/><line style="stroke:#181818;stroke-width:0.5;" x1="694.25" x2="874" y1="752.708" y2="752.708"/><text fill="#000000" font-family="sans-serif" font-size="6.5" font-weight="bold" lengthAdjust="spacing" textLength="7" x="697.75" y="750.0767">41</text><text fill="#000000" font-family="sans-serif" font-size="6.5" lengthAdjust="spacing" textLength="121.5" x="706.75" y="750.0767">throw rawMaterialNotFound(rawMaterialID)</text><polygon fill="#181818" points="699.75,766.3535,694.75,768.3535,699.75,770.3535,697.75,768.3535" style="stroke:#181818;stroke-width:0.5;"/><line style="stroke:#181818;stroke-width:0.5;stroke-dasharray:2.0,2.0;" x1="696.75" x2="879" y1="768.3535" y2="768.3535"/><text fill="#000000" font-family="sans-serif" font-size="6.5" font-weight="bold" lengthAdjust="spacing" textLength="7" x="702.75" y="765.7222">42</text><text fill="#000000" font-family="sans-serif" font-size="6.5" lengthAdjust="spacing" textLength="51.5" x="711.75" y="765.7222">Exception Thrown</text><polygon fill="#181818" points="470.5,781.999,465.5,783.999,470.5,785.999,468.5,783.999" style="stroke:#181818;stroke-width:0.5;"/><line style="stroke:#181818;stroke-width:0.5;stroke-dasharray:2.0,2.0;" x1="467.5" x2="688.75" y1="783.999" y2="783.999"/><text fill="#000000" font-family="sans-serif" font-size="6.5" font-weight="bold" lengthAdjust="spacing" textLength="7" x="473.5" y="781.3677">43</text><text fill="#000000" font-family="sans-serif" font-size="6.5" lengthAdjust="spacing" textLength="145" x="482.5" y="781.3677">show error message (Raw Material does not exist)</text><polygon fill="#181818" points="274.5,797.6445,269.5,799.6445,274.5,801.6445,272.5,799.6445" style="stroke:#181818;stroke-width:0.5;"/><line style="stroke:#181818;stroke-width:0.5;stroke-dasharray:2.0,2.0;" x1="271.5" x2="459.5" y1="799.6445" y2="799.6445"/><text fill="#000000" font-family="sans-serif" font-size="6.5" font-weight="bold" lengthAdjust="spacing" textLength="7" x="277.5" y="797.0132">44</text><text fill="#000000" font-family="sans-serif" font-size="6.5" lengthAdjust="spacing" textLength="145" x="286.5" y="797.0132">show error message (Raw Material does not exist)</text><line style="stroke:#181818;stroke-width:0.5;stroke-dasharray:2.0,2.0;" x1="694.25" x2="715.25" y1="821.29" y2="821.29"/><line style="stroke:#181818;stroke-width:0.5;stroke-dasharray:2.0,2.0;" x1="715.25" x2="715.25" y1="821.29" y2="827.79"/><line style="stroke:#181818;stroke-width:0.5;stroke-dasharray:2.0,2.0;" x1="691.75" x2="715.25" y1="827.79" y2="827.79"/><polygon fill="#181818" points="696.75,825.79,691.75,827.79,696.75,829.79,694.75,827.79" style="stroke:#181818;stroke-width:0.5;"/><text fill="#000000" font-family="sans-serif" font-size="6.5" font-weight="bold" lengthAdjust="spacing" textLength="7" x="697.75" y="818.6587">45</text><text fill="#000000" font-family="sans-serif" font-size="6.5" lengthAdjust="spacing" textLength="33" x="706.75" y="818.6587">rawMaterial</text><polygon fill="#181818" points="1124.75,838.9355,1129.75,840.9355,1124.75,842.9355,1126.75,840.9355" style="stroke:#181818;stroke-width:0.5;"/><line style="stroke:#181818;stroke-width:0.5;" x1="691.75" x2="1127.75" y1="840.9355" y2="840.9355"/><text fill="#000000" font-family="sans-serif" font-size="6.5" font-weight="bold" lengthAdjust="spacing" textLength="7" x="695.25" y="838.3042">46</text><text fill="#000000" font-family="sans-serif" font-size="6.5" lengthAdjust="spacing" textLength="135.5" x="704.25" y="838.3042">saveRawMaterialSupplier(supplier, rawMaterial)</text><path d="M208.5,848.4355 L239,848.4355 L239,853.0811 L234,858.0811 L208.5,858.0811 L208.5,848.4355 " fill="#EEEEEE" style="stroke:#000000;stroke-width:0.75;"/><rect fill="none" height="104.5186" style="stroke:#000000;stroke-width:0.75;" width="969.5" x="208.5" y="848.4355"/><text fill="#000000" font-family="sans-serif" font-size="6.5" font-weight="bold" lengthAdjust="spacing" textLength="8" x="216" y="855.9497">alt</text><text fill="#000000" font-family="sans-serif" font-size="5.5" font-weight="bold" lengthAdjust="spacing" textLength="41" x="246.5" y="855.3706">[system error]</text><polygon fill="#181818" points="697.25,867.7266,692.25,869.7266,697.25,871.7266,695.25,869.7266" style="stroke:#181818;stroke-width:0.5;"/><line style="stroke:#181818;stroke-width:0.5;stroke-dasharray:2.0,2.0;" x1="694.25" x2="1130.25" y1="869.7266" y2="869.7266"/><text fill="#000000" font-family="sans-serif" font-size="6.5" font-weight="bold" lengthAdjust="spacing" textLength="7" x="700.25" y="867.0952">47</text><text fill="#000000" font-family="sans-serif" font-size="6.5" lengthAdjust="spacing" textLength="42.5" x="709.25" y="867.0952">Database error</text><polygon fill="#181818" points="470.5,883.3721,465.5,885.3721,470.5,887.3721,468.5,885.3721" style="stroke:#181818;stroke-width:0.5;"/><line style="stroke:#181818;stroke-width:0.5;stroke-dasharray:2.0,2.0;" x1="467.5" x2="686.25" y1="885.3721" y2="885.3721"/><text fill="#000000" font-family="sans-serif" font-size="6.5" font-weight="bold" lengthAdjust="spacing" textLength="7" x="473.5" y="882.7407">48</text><text fill="#000000" font-family="sans-serif" font-size="6.5" lengthAdjust="spacing" textLength="107" x="482.5" y="882.7407">show error message (Database error)</text><polygon fill="#181818" points="274.5,899.0176,269.5,901.0176,274.5,903.0176,272.5,901.0176" style="stroke:#181818;stroke-width:0.5;"/><line style="stroke:#181818;stroke-width:0.5;stroke-dasharray:2.0,2.0;" x1="271.5" x2="459.5" y1="901.0176" y2="901.0176"/><text fill="#000000" font-family="sans-serif" font-size="6.5" font-weight="bold" lengthAdjust="spacing" textLength="7" x="277.5" y="898.3862">49</text><text fill="#000000" font-family="sans-serif" font-size="6.5" lengthAdjust="spacing" textLength="107" x="286.5" y="898.3862">show error message (Database error)</text><line style="stroke:#000000;stroke-width:0.5;stroke-dasharray:2.0,2.0;" x1="208.5" x2="1178" y1="905.5176" y2="905.5176"/><polygon fill="#181818" points="697.25,915.6631,692.25,917.6631,697.25,919.6631,695.25,917.6631" style="stroke:#181818;stroke-width:0.5;"/><line style="stroke:#181818;stroke-width:0.5;stroke-dasharray:2.0,2.0;" x1="694.25" x2="1132.75" y1="917.6631" y2="917.6631"/><text fill="#000000" font-family="sans-serif" font-size="6.5" font-weight="bold" lengthAdjust="spacing" textLength="7" x="700.25" y="915.0317">50</text><text fill="#000000" font-family="sans-serif" font-size="6.5" lengthAdjust="spacing" textLength="33" x="709.25" y="915.0317">rawMaterial</text><polygon fill="#181818" points="470.5,931.3086,465.5,933.3086,470.5,935.3086,468.5,933.3086" style="stroke:#181818;stroke-width:0.5;"/><line style="stroke:#181818;stroke-width:0.5;stroke-dasharray:2.0,2.0;" x1="467.5" x2="688.75" y1="933.3086" y2="933.3086"/><text fill="#000000" font-family="sans-serif" font-size="6.5" font-weight="bold" lengthAdjust="spacing" textLength="7" x="473.5" y="930.6772">51</text><text fill="#000000" font-family="sans-serif" font-size="6.5" lengthAdjust="spacing" textLength="33" x="482.5" y="930.6772">rawMaterial</text><polygon fill="#181818" points="274.5,946.9541,269.5,948.9541,274.5,950.9541,272.5,948.9541" style="stroke:#181818;stroke-width:0.5;"/><line style="stroke:#181818;stroke-width:0.5;stroke-dasharray:2.0,2.0;" x1="271.5" x2="462" y1="948.9541" y2="948.9541"/><text fill="#000000" font-family="sans-serif" font-size="6.5" font-weight="bold" lengthAdjust="spacing" textLength="7" x="277.5" y="946.3228">52</text><text fill="#000000" font-family="sans-serif" font-size="6.5" lengthAdjust="spacing" textLength="33" x="286.5" y="946.3228">rawMaterial</text><polygon fill="#181818" points="41.5,966.0996,36.5,968.0996,41.5,970.0996,39.5,968.0996" style="stroke:#181818;stroke-width:0.5;"/><line style="stroke:#181818;stroke-width:0.5;stroke-dasharray:2.0,2.0;" x1="38.5" x2="266" y1="968.0996" y2="968.0996"/><text fill="#000000" font-family="sans-serif" font-size="6.5" font-weight="bold" lengthAdjust="spacing" textLength="7" x="44.5" y="965.4683">53</text><text fill="#000000" font-family="sans-serif" font-size="6.5" lengthAdjust="spacing" textLength="186" x="53.5" y="965.4683">shows all data and displays operation success or error message</text><!--SRC=[hLZBRjiw4DthAmPPEKNR3p3G0hrsBc3WkZ3ifhYBRbY9SOZ8f4fISVtt7KgYH4eq9RdH9ZOrFFFmEPnXr0lZ1P7a12V1HVeinOc2bYLDLFkc8EaBETA3lkGK94qruSVSDL3F91Ddne_mH795aqGpZQO7-gkaFAMmPkHex1Q7zNsIa58BNfv-KecVKoqatEsaoCfKCy5XIpZwadT05Eos2JhGB6K5uHhkbdjwP4fJUIYB8cTKxibvI_0x8_dZfjhokEbjiQOhmRKKUTv0gx9OVTl_ryVly7hsafm3zXRyGEKhIwb5Fko_NmTsRH5rO6in7twdj30biQWF_wzyowPglY523Wptj12AOQKPLPNH_c5ty4saO_A3BqCx_0tA_WJMyhBymG-3HHjyRxddlAkE1xSFhTiiXsygEh5NN3VC0NnsM_Zm6Ja1Izpqea0B_AlOaGDfWweM3I2S6iHgQmk5ZAeMp8D8YDTmvzqxX4qbHQE-HSEMSGjyVwJQoLCjxblBDWHBFd0U2r1Z8OkYK7qumphlPGDfS13HyAF6st25Sazf3yl3gzZKVrj1V6YZMuBBi85rHkDeNcY3J3iAZ8GPYj894e73n8g76wja4AzEu4kUnyAT5aaO_rfAqSAFExHfUVoz2kz36yODk6l56SJmzrS220knBgSzUu8AiiUz6v_TNGEr2WhXzB62ycb0tbW-DUfVoiSBpK_pxxNJ5YzmpCyLJXVe46oIQYR4440EfX4jyuWVcuT7qZ2m3-hAf2MebSaGmD_SQSJe0tTX_yDTp-AChU-PGex34uYd3WS8pxpMrwoOmKrf1QdWJqpYIvmkafu_snUT7jkO6sT40peyOtk_kUkwMhUvj95bH1DOi8_q8rWcmsRz7h0hW3rASA5Avv4p3IkXzFs47FIbeChweLdbA1fQUnQQwEhnr9tsck0MpX5duhHrC9_JDhGvNTyU38wM_xbireiE-URpAp3R6JS8drs5VrCLTbIVgS5XIBdkEFVf4_0opmT6W-nnWaOcu6Net6x-AlI_ekJn0lIBO2RnAyxmbPTmEyN3D-EN1_VvoKVGUsswFWI0IecthHDL2gzOU1kpTSa4KfuB3VGtCrGCelfDUoPY7upoB4b6OmvnO7XSniVYcrJv7aeyCrQY7_grWSOyyI4mDA1NSlKYY8-3VO_ZNWEtgbR8Cno_mHpgpNZpfz2WhXtJgBIzaZZITlQtwXwfIhyoroHOl_BodolmEFeaWNlDyCr47aKD27sKiaayly4jPeG-mUOsIHgAlDBGAT4T2yx6SN9Ca4tReYvuGftgIWUDfcbiZSFAJw9e0nH3caGW7-y-2ZZAcpvO28UQVn_Udd-C93VTUCUADjzXw12_LiNvw8E1qMku_jN0tWn8djVZj9cLCwQAd5mKY8BAQkx7ffYc-1i2_fRUBneQffslk-qV]--></g></svg>