<?xml version="1.0" encoding="us-ascii" standalone="no"?><svg xmlns="http://www.w3.org/2000/svg" xmlns:xlink="http://www.w3.org/1999/xlink" contentStyleType="text/css" height="1533px" preserveAspectRatio="none" style="width:1885px;height:1533px;background:#FFFFFF;" version="1.1" viewBox="0 0 1885 1533" width="1885px" zoomAndPan="magnify"><defs/><g><!--cluster UI--><g id="cluster_UI"><rect fill="none" height="101" rx="2.5" ry="2.5" style="stroke:#000000;stroke-width:1.5;" width="258" x="324" y="7"/><text fill="#000000" font-family="sans-serif" font-size="14" font-weight="bold" lengthAdjust="spacing" textLength="14" x="446" y="24.1074">UI</text></g><!--cluster Controller--><g id="cluster_Controller"><rect fill="none" height="138" rx="2.5" ry="2.5" style="stroke:#000000;stroke-width:1.5;" width="752" x="100" y="141"/><text fill="#000000" font-family="sans-serif" font-size="14" font-weight="bold" lengthAdjust="spacing" textLength="71" x="440.5" y="158.1074">Controller</text></g><!--cluster Service--><g id="cluster_Service"><rect fill="none" height="157" rx="2.5" ry="2.5" style="stroke:#000000;stroke-width:1.5;" width="811" x="77" y="312"/><text fill="#000000" font-family="sans-serif" font-size="14" font-weight="bold" lengthAdjust="spacing" textLength="54" x="455.5" y="329.1074">Service</text></g><!--cluster Repository--><g id="cluster_Repository"><rect fill="none" height="358" rx="2.5" ry="2.5" style="stroke:#000000;stroke-width:1.5;" width="767" x="7" y="520"/><text fill="#000000" font-family="sans-serif" font-size="14" font-weight="bold" lengthAdjust="spacing" textLength="76" x="352.5" y="537.1074">Repository</text></g><!--cluster Model--><g id="cluster_Model"><rect fill="none" height="598" rx="2.5" ry="2.5" style="stroke:#000000;stroke-width:1.5;" width="358" x="1364" y="929"/><text fill="#000000" font-family="sans-serif" font-size="14" font-weight="bold" lengthAdjust="spacing" textLength="44" x="1521" y="946.1074">Model</text></g><!--cluster Exception--><g id="cluster_Exception"><rect fill="none" height="311.5" rx="2.5" ry="2.5" style="stroke:#000000;stroke-width:1.5;" width="873" x="798" y="538.5"/><text fill="#000000" font-family="sans-serif" font-size="14" font-weight="bold" lengthAdjust="spacing" textLength="70" x="1199.5" y="555.6074">Exception</text></g><!--class RegisterSupplierRawMaterialUI--><g id="elem_RegisterSupplierRawMaterialUI"><rect codeLine="7" fill="#F1F1F1" height="48" id="RegisterSupplierRawMaterialUI" rx="2.5" ry="2.5" style="stroke:#181818;stroke-width:0.5;" width="226" x="340" y="44"/><ellipse cx="355" cy="60" fill="#ADD1B2" rx="11" ry="11" style="stroke:#181818;stroke-width:1.0;"/><path d="M357.7656,55.875 Q357.9219,55.6563 358.1094,55.5469 Q358.2969,55.4375 358.5156,55.4375 Q358.8906,55.4375 359.125,55.7031 Q359.3594,55.9531 359.3594,56.5625 L359.3594,58.0156 Q359.3594,58.625 359.125,58.8906 Q358.8906,59.1563 358.5156,59.1563 Q358.1719,59.1563 357.9688,58.9531 Q357.7656,58.7656 357.6563,58.25 Q357.6094,57.8906 357.4219,57.7031 Q357.0938,57.3281 356.4844,57.1094 Q355.875,56.8906 355.25,56.8906 Q354.4844,56.8906 353.8438,57.2188 Q353.2188,57.5469 352.7188,58.2969 Q352.2344,59.0469 352.2344,60.0781 L352.2344,61.1719 Q352.2344,62.4063 353.125,63.2344 Q354.0156,64.0469 355.6094,64.0469 Q356.5469,64.0469 357.2031,63.7969 Q357.5938,63.6406 358.0156,63.2031 Q358.2813,62.9375 358.4219,62.8594 Q358.5781,62.7813 358.7813,62.7813 Q359.1094,62.7813 359.3594,63.0469 Q359.625,63.2969 359.625,63.6406 Q359.625,63.9844 359.2813,64.3906 Q358.7813,64.9688 357.9844,65.2969 Q356.9063,65.75 355.6094,65.75 Q354.0938,65.75 352.8906,65.125 Q351.9063,64.625 351.2188,63.5625 Q350.5313,62.4844 350.5313,61.2031 L350.5313,60.0469 Q350.5313,58.7188 351.1406,57.5781 Q351.7656,56.4219 352.8594,55.8125 Q353.9531,55.1875 355.1875,55.1875 Q355.9219,55.1875 356.5625,55.3594 Q357.2188,55.5156 357.7656,55.875 Z " fill="#000000"/><text fill="#000000" font-family="sans-serif" font-size="14" lengthAdjust="spacing" textLength="194" x="369" y="65.7969">RegisterSupplierRawMaterialUI</text><line style="stroke:#181818;stroke-width:0.5;" x1="341" x2="565" y1="76" y2="76"/><line style="stroke:#181818;stroke-width:0.5;" x1="341" x2="565" y1="84" y2="84"/></g><!--class SupplierController--><g id="elem_SupplierController"><rect codeLine="12" fill="#F1F1F1" height="66.6211" id="SupplierController" rx="2.5" ry="2.5" style="stroke:#181818;stroke-width:0.5;" width="211" x="116.5" y="187"/><ellipse cx="160.75" cy="203" fill="#ADD1B2" rx="11" ry="11" style="stroke:#181818;stroke-width:1.0;"/><path d="M163.5156,198.875 Q163.6719,198.6563 163.8594,198.5469 Q164.0469,198.4375 164.2656,198.4375 Q164.6406,198.4375 164.875,198.7031 Q165.1094,198.9531 165.1094,199.5625 L165.1094,201.0156 Q165.1094,201.625 164.875,201.8906 Q164.6406,202.1563 164.2656,202.1563 Q163.9219,202.1563 163.7188,201.9531 Q163.5156,201.7656 163.4063,201.25 Q163.3594,200.8906 163.1719,200.7031 Q162.8438,200.3281 162.2344,200.1094 Q161.625,199.8906 161,199.8906 Q160.2344,199.8906 159.5938,200.2188 Q158.9688,200.5469 158.4688,201.2969 Q157.9844,202.0469 157.9844,203.0781 L157.9844,204.1719 Q157.9844,205.4063 158.875,206.2344 Q159.7656,207.0469 161.3594,207.0469 Q162.2969,207.0469 162.9531,206.7969 Q163.3438,206.6406 163.7656,206.2031 Q164.0313,205.9375 164.1719,205.8594 Q164.3281,205.7813 164.5313,205.7813 Q164.8594,205.7813 165.1094,206.0469 Q165.375,206.2969 165.375,206.6406 Q165.375,206.9844 165.0313,207.3906 Q164.5313,207.9688 163.7344,208.2969 Q162.6563,208.75 161.3594,208.75 Q159.8438,208.75 158.6406,208.125 Q157.6563,207.625 156.9688,206.5625 Q156.2813,205.4844 156.2813,204.2031 L156.2813,203.0469 Q156.2813,201.7188 156.8906,200.5781 Q157.5156,199.4219 158.6094,198.8125 Q159.7031,198.1875 160.9375,198.1875 Q161.6719,198.1875 162.3125,198.3594 Q162.9688,198.5156 163.5156,198.875 Z " fill="#000000"/><text fill="#000000" font-family="sans-serif" font-size="14" lengthAdjust="spacing" textLength="114" x="181.25" y="208.7969">SupplierController</text><line style="stroke:#181818;stroke-width:0.5;" x1="117.5" x2="326.5" y1="219" y2="219"/><line style="stroke:#181818;stroke-width:0.5;" x1="117.5" x2="326.5" y1="227" y2="227"/><text fill="#000000" font-family="sans-serif" font-size="14" lengthAdjust="spacing" textLength="199" x="122.5" y="246.1074">+getSuppliers() : List&lt;Supplier&gt;</text></g><!--class RawMaterialController--><g id="elem_RawMaterialController"><rect codeLine="16" fill="#F1F1F1" height="85.2422" id="RawMaterialController" rx="2.5" ry="2.5" style="stroke:#181818;stroke-width:0.5;" width="473" x="362.5" y="178"/><ellipse cx="525.25" cy="194" fill="#ADD1B2" rx="11" ry="11" style="stroke:#181818;stroke-width:1.0;"/><path d="M528.0156,189.875 Q528.1719,189.6563 528.3594,189.5469 Q528.5469,189.4375 528.7656,189.4375 Q529.1406,189.4375 529.375,189.7031 Q529.6094,189.9531 529.6094,190.5625 L529.6094,192.0156 Q529.6094,192.625 529.375,192.8906 Q529.1406,193.1563 528.7656,193.1563 Q528.4219,193.1563 528.2188,192.9531 Q528.0156,192.7656 527.9063,192.25 Q527.8594,191.8906 527.6719,191.7031 Q527.3438,191.3281 526.7344,191.1094 Q526.125,190.8906 525.5,190.8906 Q524.7344,190.8906 524.0938,191.2188 Q523.4688,191.5469 522.9688,192.2969 Q522.4844,193.0469 522.4844,194.0781 L522.4844,195.1719 Q522.4844,196.4063 523.375,197.2344 Q524.2656,198.0469 525.8594,198.0469 Q526.7969,198.0469 527.4531,197.7969 Q527.8438,197.6406 528.2656,197.2031 Q528.5313,196.9375 528.6719,196.8594 Q528.8281,196.7813 529.0313,196.7813 Q529.3594,196.7813 529.6094,197.0469 Q529.875,197.2969 529.875,197.6406 Q529.875,197.9844 529.5313,198.3906 Q529.0313,198.9688 528.2344,199.2969 Q527.1563,199.75 525.8594,199.75 Q524.3438,199.75 523.1406,199.125 Q522.1563,198.625 521.4688,197.5625 Q520.7813,196.4844 520.7813,195.2031 L520.7813,194.0469 Q520.7813,192.7188 521.3906,191.5781 Q522.0156,190.4219 523.1094,189.8125 Q524.2031,189.1875 525.4375,189.1875 Q526.1719,189.1875 526.8125,189.3594 Q527.4688,189.5156 528.0156,189.875 Z " fill="#000000"/><text fill="#000000" font-family="sans-serif" font-size="14" lengthAdjust="spacing" textLength="139" x="545.75" y="199.7969">RawMaterialController</text><line style="stroke:#181818;stroke-width:0.5;" x1="363.5" x2="834.5" y1="210" y2="210"/><line style="stroke:#181818;stroke-width:0.5;" x1="363.5" x2="834.5" y1="218" y2="218"/><text fill="#000000" font-family="sans-serif" font-size="14" lengthAdjust="spacing" textLength="249" x="368.5" y="237.1074">+getRawMaterials() : List&lt;RawMaterial&gt;</text><text fill="#000000" font-family="sans-serif" font-size="14" lengthAdjust="spacing" textLength="461" x="368.5" y="255.7285">+registerRawMaterialSupplier(rawMaterial, supplierID, cost) : RawMaterial</text></g><!--class SupplierService--><g id="elem_SupplierService"><rect codeLine="23" fill="#F1F1F1" height="85.2422" id="SupplierService" rx="2.5" ry="2.5" style="stroke:#181818;stroke-width:0.5;" width="258" x="93" y="358.5"/><ellipse cx="168.25" cy="374.5" fill="#ADD1B2" rx="11" ry="11" style="stroke:#181818;stroke-width:1.0;"/><path d="M171.0156,370.375 Q171.1719,370.1563 171.3594,370.0469 Q171.5469,369.9375 171.7656,369.9375 Q172.1406,369.9375 172.375,370.2031 Q172.6094,370.4531 172.6094,371.0625 L172.6094,372.5156 Q172.6094,373.125 172.375,373.3906 Q172.1406,373.6563 171.7656,373.6563 Q171.4219,373.6563 171.2188,373.4531 Q171.0156,373.2656 170.9063,372.75 Q170.8594,372.3906 170.6719,372.2031 Q170.3438,371.8281 169.7344,371.6094 Q169.125,371.3906 168.5,371.3906 Q167.7344,371.3906 167.0938,371.7188 Q166.4688,372.0469 165.9688,372.7969 Q165.4844,373.5469 165.4844,374.5781 L165.4844,375.6719 Q165.4844,376.9063 166.375,377.7344 Q167.2656,378.5469 168.8594,378.5469 Q169.7969,378.5469 170.4531,378.2969 Q170.8438,378.1406 171.2656,377.7031 Q171.5313,377.4375 171.6719,377.3594 Q171.8281,377.2813 172.0313,377.2813 Q172.3594,377.2813 172.6094,377.5469 Q172.875,377.7969 172.875,378.1406 Q172.875,378.4844 172.5313,378.8906 Q172.0313,379.4688 171.2344,379.7969 Q170.1563,380.25 168.8594,380.25 Q167.3438,380.25 166.1406,379.625 Q165.1563,379.125 164.4688,378.0625 Q163.7813,376.9844 163.7813,375.7031 L163.7813,374.5469 Q163.7813,373.2188 164.3906,372.0781 Q165.0156,370.9219 166.1094,370.3125 Q167.2031,369.6875 168.4375,369.6875 Q169.1719,369.6875 169.8125,369.8594 Q170.4688,370.0156 171.0156,370.375 Z " fill="#000000"/><text fill="#000000" font-family="sans-serif" font-size="14" lengthAdjust="spacing" textLength="99" x="188.75" y="380.2969">SupplierService</text><line style="stroke:#181818;stroke-width:0.5;" x1="94" x2="350" y1="390.5" y2="390.5"/><line style="stroke:#181818;stroke-width:0.5;" x1="94" x2="350" y1="398.5" y2="398.5"/><text fill="#000000" font-family="sans-serif" font-size="14" lengthAdjust="spacing" textLength="199" x="99" y="417.6074">+getSuppliers() : List&lt;Supplier&gt;</text><text fill="#000000" font-family="sans-serif" font-size="14" lengthAdjust="spacing" textLength="246" x="99" y="436.2285">+getSupplierByID(supplierID) : Supplier</text></g><!--class RawMaterialService--><g id="elem_RawMaterialService"><rect codeLine="28" fill="#F1F1F1" height="103.8633" id="RawMaterialService" rx="2.5" ry="2.5" style="stroke:#181818;stroke-width:0.5;" width="486" x="386" y="349"/><ellipse cx="562.75" cy="365" fill="#ADD1B2" rx="11" ry="11" style="stroke:#181818;stroke-width:1.0;"/><path d="M565.5156,360.875 Q565.6719,360.6563 565.8594,360.5469 Q566.0469,360.4375 566.2656,360.4375 Q566.6406,360.4375 566.875,360.7031 Q567.1094,360.9531 567.1094,361.5625 L567.1094,363.0156 Q567.1094,363.625 566.875,363.8906 Q566.6406,364.1563 566.2656,364.1563 Q565.9219,364.1563 565.7188,363.9531 Q565.5156,363.7656 565.4063,363.25 Q565.3594,362.8906 565.1719,362.7031 Q564.8438,362.3281 564.2344,362.1094 Q563.625,361.8906 563,361.8906 Q562.2344,361.8906 561.5938,362.2188 Q560.9688,362.5469 560.4688,363.2969 Q559.9844,364.0469 559.9844,365.0781 L559.9844,366.1719 Q559.9844,367.4063 560.875,368.2344 Q561.7656,369.0469 563.3594,369.0469 Q564.2969,369.0469 564.9531,368.7969 Q565.3438,368.6406 565.7656,368.2031 Q566.0313,367.9375 566.1719,367.8594 Q566.3281,367.7813 566.5313,367.7813 Q566.8594,367.7813 567.1094,368.0469 Q567.375,368.2969 567.375,368.6406 Q567.375,368.9844 567.0313,369.3906 Q566.5313,369.9688 565.7344,370.2969 Q564.6563,370.75 563.3594,370.75 Q561.8438,370.75 560.6406,370.125 Q559.6563,369.625 558.9688,368.5625 Q558.2813,367.4844 558.2813,366.2031 L558.2813,365.0469 Q558.2813,363.7188 558.8906,362.5781 Q559.5156,361.4219 560.6094,360.8125 Q561.7031,360.1875 562.9375,360.1875 Q563.6719,360.1875 564.3125,360.3594 Q564.9688,360.5156 565.5156,360.875 Z " fill="#000000"/><text fill="#000000" font-family="sans-serif" font-size="14" lengthAdjust="spacing" textLength="124" x="583.25" y="370.7969">RawMaterialService</text><line style="stroke:#181818;stroke-width:0.5;" x1="387" x2="871" y1="381" y2="381"/><line style="stroke:#181818;stroke-width:0.5;" x1="387" x2="871" y1="389" y2="389"/><text fill="#000000" font-family="sans-serif" font-size="14" lengthAdjust="spacing" textLength="249" x="392" y="408.1074">+getRawMaterials() : List&lt;RawMaterial&gt;</text><text fill="#000000" font-family="sans-serif" font-size="14" lengthAdjust="spacing" textLength="318" x="392" y="426.7285">+getRawMaterialByID(rawMaterialID) : RawMaterial</text><text fill="#000000" font-family="sans-serif" font-size="14" lengthAdjust="spacing" textLength="474" x="392" y="445.3496">+registerRawMaterialSupplier(rawMaterial, supplier, unitCost) : RawMaterial</text></g><!--class Repositories--><g id="elem_Repositories"><rect codeLine="36" fill="#F1F1F1" height="122.4844" id="Repositories" rx="2.5" ry="2.5" style="stroke:#181818;stroke-width:0.5;" width="352" x="327" y="557"/><ellipse cx="459.25" cy="573" fill="#ADD1B2" rx="11" ry="11" style="stroke:#181818;stroke-width:1.0;"/><path d="M462.0156,568.875 Q462.1719,568.6563 462.3594,568.5469 Q462.5469,568.4375 462.7656,568.4375 Q463.1406,568.4375 463.375,568.7031 Q463.6094,568.9531 463.6094,569.5625 L463.6094,571.0156 Q463.6094,571.625 463.375,571.8906 Q463.1406,572.1563 462.7656,572.1563 Q462.4219,572.1563 462.2188,571.9531 Q462.0156,571.7656 461.9063,571.25 Q461.8594,570.8906 461.6719,570.7031 Q461.3438,570.3281 460.7344,570.1094 Q460.125,569.8906 459.5,569.8906 Q458.7344,569.8906 458.0938,570.2188 Q457.4688,570.5469 456.9688,571.2969 Q456.4844,572.0469 456.4844,573.0781 L456.4844,574.1719 Q456.4844,575.4063 457.375,576.2344 Q458.2656,577.0469 459.8594,577.0469 Q460.7969,577.0469 461.4531,576.7969 Q461.8438,576.6406 462.2656,576.2031 Q462.5313,575.9375 462.6719,575.8594 Q462.8281,575.7813 463.0313,575.7813 Q463.3594,575.7813 463.6094,576.0469 Q463.875,576.2969 463.875,576.6406 Q463.875,576.9844 463.5313,577.3906 Q463.0313,577.9688 462.2344,578.2969 Q461.1563,578.75 459.8594,578.75 Q458.3438,578.75 457.1406,578.125 Q456.1563,577.625 455.4688,576.5625 Q454.7813,575.4844 454.7813,574.2031 L454.7813,573.0469 Q454.7813,571.7188 455.3906,570.5781 Q456.0156,569.4219 457.1094,568.8125 Q458.2031,568.1875 459.4375,568.1875 Q460.1719,568.1875 460.8125,568.3594 Q461.4688,568.5156 462.0156,568.875 Z " fill="#000000"/><text fill="#000000" font-family="sans-serif" font-size="14" lengthAdjust="spacing" textLength="79" x="479.75" y="578.7969">Repositories</text><line style="stroke:#181818;stroke-width:0.5;" x1="328" x2="678" y1="589" y2="589"/><line style="stroke:#181818;stroke-width:0.5;" x1="328" x2="678" y1="597" y2="597"/><text fill="#000000" font-family="sans-serif" font-size="14" lengthAdjust="spacing" textLength="94" x="333" y="616.1074">-Repositories()</text><text fill="#000000" font-family="sans-serif" font-size="14" lengthAdjust="spacing" textLength="182" x="333" y="634.7285">+getInstance() : Repositories</text><text fill="#000000" font-family="sans-serif" font-size="14" lengthAdjust="spacing" textLength="290" x="333" y="653.3496">+getSupplierRepository() : SupplierRepository</text><text fill="#000000" font-family="sans-serif" font-size="14" lengthAdjust="spacing" textLength="340" x="333" y="671.9707">+getRawMaterialRepository() : RawMaterialRepository</text></g><!--class SupplierRepository--><g id="elem_SupplierRepository"><rect codeLine="43" fill="#F1F1F1" height="85.2422" id="SupplierRepository" rx="2.5" ry="2.5" style="stroke:#181818;stroke-width:0.5;" width="258" x="500" y="767.5"/><ellipse cx="564.75" cy="783.5" fill="#ADD1B2" rx="11" ry="11" style="stroke:#181818;stroke-width:1.0;"/><path d="M567.5156,779.375 Q567.6719,779.1563 567.8594,779.0469 Q568.0469,778.9375 568.2656,778.9375 Q568.6406,778.9375 568.875,779.2031 Q569.1094,779.4531 569.1094,780.0625 L569.1094,781.5156 Q569.1094,782.125 568.875,782.3906 Q568.6406,782.6563 568.2656,782.6563 Q567.9219,782.6563 567.7188,782.4531 Q567.5156,782.2656 567.4063,781.75 Q567.3594,781.3906 567.1719,781.2031 Q566.8438,780.8281 566.2344,780.6094 Q565.625,780.3906 565,780.3906 Q564.2344,780.3906 563.5938,780.7188 Q562.9688,781.0469 562.4688,781.7969 Q561.9844,782.5469 561.9844,783.5781 L561.9844,784.6719 Q561.9844,785.9063 562.875,786.7344 Q563.7656,787.5469 565.3594,787.5469 Q566.2969,787.5469 566.9531,787.2969 Q567.3438,787.1406 567.7656,786.7031 Q568.0313,786.4375 568.1719,786.3594 Q568.3281,786.2813 568.5313,786.2813 Q568.8594,786.2813 569.1094,786.5469 Q569.375,786.7969 569.375,787.1406 Q569.375,787.4844 569.0313,787.8906 Q568.5313,788.4688 567.7344,788.7969 Q566.6563,789.25 565.3594,789.25 Q563.8438,789.25 562.6406,788.625 Q561.6563,788.125 560.9688,787.0625 Q560.2813,785.9844 560.2813,784.7031 L560.2813,783.5469 Q560.2813,782.2188 560.8906,781.0781 Q561.5156,779.9219 562.6094,779.3125 Q563.7031,778.6875 564.9375,778.6875 Q565.6719,778.6875 566.3125,778.8594 Q566.9688,779.0156 567.5156,779.375 Z " fill="#000000"/><text fill="#000000" font-family="sans-serif" font-size="14" lengthAdjust="spacing" textLength="120" x="585.25" y="789.2969">SupplierRepository</text><line style="stroke:#181818;stroke-width:0.5;" x1="501" x2="757" y1="799.5" y2="799.5"/><line style="stroke:#181818;stroke-width:0.5;" x1="501" x2="757" y1="807.5" y2="807.5"/><text fill="#000000" font-family="sans-serif" font-size="14" lengthAdjust="spacing" textLength="155" x="506" y="826.6074">+getAll() : List&lt;Supplier&gt;</text><text fill="#000000" font-family="sans-serif" font-size="14" lengthAdjust="spacing" textLength="246" x="506" y="845.2285">+getSupplierByID(supplierID) : Supplier</text></g><!--class RawMaterialRepository--><g id="elem_RawMaterialRepository"><rect codeLine="48" fill="#F1F1F1" height="103.8633" id="RawMaterialRepository" rx="2.5" ry="2.5" style="stroke:#181818;stroke-width:0.5;" width="442" x="23" y="758"/><ellipse cx="167.25" cy="774" fill="#ADD1B2" rx="11" ry="11" style="stroke:#181818;stroke-width:1.0;"/><path d="M170.0156,769.875 Q170.1719,769.6563 170.3594,769.5469 Q170.5469,769.4375 170.7656,769.4375 Q171.1406,769.4375 171.375,769.7031 Q171.6094,769.9531 171.6094,770.5625 L171.6094,772.0156 Q171.6094,772.625 171.375,772.8906 Q171.1406,773.1563 170.7656,773.1563 Q170.4219,773.1563 170.2188,772.9531 Q170.0156,772.7656 169.9063,772.25 Q169.8594,771.8906 169.6719,771.7031 Q169.3438,771.3281 168.7344,771.1094 Q168.125,770.8906 167.5,770.8906 Q166.7344,770.8906 166.0938,771.2188 Q165.4688,771.5469 164.9688,772.2969 Q164.4844,773.0469 164.4844,774.0781 L164.4844,775.1719 Q164.4844,776.4063 165.375,777.2344 Q166.2656,778.0469 167.8594,778.0469 Q168.7969,778.0469 169.4531,777.7969 Q169.8438,777.6406 170.2656,777.2031 Q170.5313,776.9375 170.6719,776.8594 Q170.8281,776.7813 171.0313,776.7813 Q171.3594,776.7813 171.6094,777.0469 Q171.875,777.2969 171.875,777.6406 Q171.875,777.9844 171.5313,778.3906 Q171.0313,778.9688 170.2344,779.2969 Q169.1563,779.75 167.8594,779.75 Q166.3438,779.75 165.1406,779.125 Q164.1563,778.625 163.4688,777.5625 Q162.7813,776.4844 162.7813,775.2031 L162.7813,774.0469 Q162.7813,772.7188 163.3906,771.5781 Q164.0156,770.4219 165.1094,769.8125 Q166.2031,769.1875 167.4375,769.1875 Q168.1719,769.1875 168.8125,769.3594 Q169.4688,769.5156 170.0156,769.875 Z " fill="#000000"/><text fill="#000000" font-family="sans-serif" font-size="14" lengthAdjust="spacing" textLength="145" x="187.75" y="779.7969">RawMaterialRepository</text><line style="stroke:#181818;stroke-width:0.5;" x1="24" x2="464" y1="790" y2="790"/><line style="stroke:#181818;stroke-width:0.5;" x1="24" x2="464" y1="798" y2="798"/><text fill="#000000" font-family="sans-serif" font-size="14" lengthAdjust="spacing" textLength="180" x="29" y="817.1074">+getAll() : List&lt;RawMaterial&gt;</text><text fill="#000000" font-family="sans-serif" font-size="14" lengthAdjust="spacing" textLength="318" x="29" y="835.7285">+getRawMaterialByID(rawMaterialID) : RawMaterial</text><text fill="#000000" font-family="sans-serif" font-size="14" lengthAdjust="spacing" textLength="430" x="29" y="854.3496">+saveRawMaterialSupplier(rawMaterial, supplier, unitCost) : boolean</text></g><!--class Supplier--><g id="elem_Supplier"><rect codeLine="56" fill="#F1F1F1" height="196.9688" id="Supplier" rx="2.5" ry="2.5" style="stroke:#181818;stroke-width:0.5;" width="326" x="1380" y="966"/><ellipse cx="1512.75" cy="982" fill="#ADD1B2" rx="11" ry="11" style="stroke:#181818;stroke-width:1.0;"/><path d="M1515.5156,977.875 Q1515.6719,977.6563 1515.8594,977.5469 Q1516.0469,977.4375 1516.2656,977.4375 Q1516.6406,977.4375 1516.875,977.7031 Q1517.1094,977.9531 1517.1094,978.5625 L1517.1094,980.0156 Q1517.1094,980.625 1516.875,980.8906 Q1516.6406,981.1563 1516.2656,981.1563 Q1515.9219,981.1563 1515.7188,980.9531 Q1515.5156,980.7656 1515.4063,980.25 Q1515.3594,979.8906 1515.1719,979.7031 Q1514.8438,979.3281 1514.2344,979.1094 Q1513.625,978.8906 1513,978.8906 Q1512.2344,978.8906 1511.5938,979.2188 Q1510.9688,979.5469 1510.4688,980.2969 Q1509.9844,981.0469 1509.9844,982.0781 L1509.9844,983.1719 Q1509.9844,984.4063 1510.875,985.2344 Q1511.7656,986.0469 1513.3594,986.0469 Q1514.2969,986.0469 1514.9531,985.7969 Q1515.3438,985.6406 1515.7656,985.2031 Q1516.0313,984.9375 1516.1719,984.8594 Q1516.3281,984.7813 1516.5313,984.7813 Q1516.8594,984.7813 1517.1094,985.0469 Q1517.375,985.2969 1517.375,985.6406 Q1517.375,985.9844 1517.0313,986.3906 Q1516.5313,986.9688 1515.7344,987.2969 Q1514.6563,987.75 1513.3594,987.75 Q1511.8438,987.75 1510.6406,987.125 Q1509.6563,986.625 1508.9688,985.5625 Q1508.2813,984.4844 1508.2813,983.2031 L1508.2813,982.0469 Q1508.2813,980.7188 1508.8906,979.5781 Q1509.5156,978.4219 1510.6094,977.8125 Q1511.7031,977.1875 1512.9375,977.1875 Q1513.6719,977.1875 1514.3125,977.3594 Q1514.9688,977.5156 1515.5156,977.875 Z " fill="#000000"/><text fill="#000000" font-family="sans-serif" font-size="14" lengthAdjust="spacing" textLength="52" x="1533.25" y="987.7969">Supplier</text><line style="stroke:#181818;stroke-width:0.5;" x1="1381" x2="1705" y1="998" y2="998"/><text fill="#000000" font-family="sans-serif" font-size="14" lengthAdjust="spacing" textLength="95" x="1386" y="1017.1074">-supplierID : int</text><text fill="#000000" font-family="sans-serif" font-size="14" lengthAdjust="spacing" textLength="89" x="1386" y="1035.7285">-name : String</text><text fill="#000000" font-family="sans-serif" font-size="14" lengthAdjust="spacing" textLength="121" x="1386" y="1054.3496">-phoneNumber : int</text><text fill="#000000" font-family="sans-serif" font-size="14" lengthAdjust="spacing" textLength="87" x="1386" y="1072.9707">-email : String</text><text fill="#000000" font-family="sans-serif" font-size="14" lengthAdjust="spacing" textLength="136" x="1386" y="1091.5918">-type : CompanyType</text><text fill="#000000" font-family="sans-serif" font-size="14" lengthAdjust="spacing" textLength="116" x="1386" y="1110.2129">-state : EntityState</text><text fill="#000000" font-family="sans-serif" font-size="14" lengthAdjust="spacing" textLength="210" x="1386" y="1128.834">-supplyOffers : List&lt;SupplyOffer&gt;</text><line style="stroke:#181818;stroke-width:0.5;" x1="1381" x2="1705" y1="1136.3477" y2="1136.3477"/><text fill="#000000" font-family="sans-serif" font-size="14" lengthAdjust="spacing" textLength="314" x="1386" y="1155.4551">+Supplier(supplierID, name, phoneNumber, email)</text></g><!--class Part--><g id="elem_Part"><rect codeLine="67" fill="#F1F1F1" height="122.4844" id="Part" rx="2.5" ry="2.5" style="stroke:#181818;stroke-width:0.5;" width="187" x="1449.5" y="1389"/><ellipse cx="1525.75" cy="1405" fill="#ADD1B2" rx="11" ry="11" style="stroke:#181818;stroke-width:1.0;"/><path d="M1528.5156,1400.875 Q1528.6719,1400.6563 1528.8594,1400.5469 Q1529.0469,1400.4375 1529.2656,1400.4375 Q1529.6406,1400.4375 1529.875,1400.7031 Q1530.1094,1400.9531 1530.1094,1401.5625 L1530.1094,1403.0156 Q1530.1094,1403.625 1529.875,1403.8906 Q1529.6406,1404.1563 1529.2656,1404.1563 Q1528.9219,1404.1563 1528.7188,1403.9531 Q1528.5156,1403.7656 1528.4063,1403.25 Q1528.3594,1402.8906 1528.1719,1402.7031 Q1527.8438,1402.3281 1527.2344,1402.1094 Q1526.625,1401.8906 1526,1401.8906 Q1525.2344,1401.8906 1524.5938,1402.2188 Q1523.9688,1402.5469 1523.4688,1403.2969 Q1522.9844,1404.0469 1522.9844,1405.0781 L1522.9844,1406.1719 Q1522.9844,1407.4063 1523.875,1408.2344 Q1524.7656,1409.0469 1526.3594,1409.0469 Q1527.2969,1409.0469 1527.9531,1408.7969 Q1528.3438,1408.6406 1528.7656,1408.2031 Q1529.0313,1407.9375 1529.1719,1407.8594 Q1529.3281,1407.7813 1529.5313,1407.7813 Q1529.8594,1407.7813 1530.1094,1408.0469 Q1530.375,1408.2969 1530.375,1408.6406 Q1530.375,1408.9844 1530.0313,1409.3906 Q1529.5313,1409.9688 1528.7344,1410.2969 Q1527.6563,1410.75 1526.3594,1410.75 Q1524.8438,1410.75 1523.6406,1410.125 Q1522.6563,1409.625 1521.9688,1408.5625 Q1521.2813,1407.4844 1521.2813,1406.2031 L1521.2813,1405.0469 Q1521.2813,1403.7188 1521.8906,1402.5781 Q1522.5156,1401.4219 1523.6094,1400.8125 Q1524.7031,1400.1875 1525.9375,1400.1875 Q1526.6719,1400.1875 1527.3125,1400.3594 Q1527.9688,1400.5156 1528.5156,1400.875 Z " fill="#000000"/><text fill="#000000" font-family="sans-serif" font-size="14" lengthAdjust="spacing" textLength="26" x="1546.25" y="1410.7969">Part</text><line style="stroke:#181818;stroke-width:0.5;" x1="1450.5" x2="1635.5" y1="1421" y2="1421"/><text fill="#000000" font-family="sans-serif" font-size="14" lengthAdjust="spacing" textLength="65" x="1455.5" y="1440.1074">-id : String</text><text fill="#000000" font-family="sans-serif" font-size="14" lengthAdjust="spacing" textLength="89" x="1455.5" y="1458.7285">-name : String</text><text fill="#000000" font-family="sans-serif" font-size="14" lengthAdjust="spacing" textLength="123" x="1455.5" y="1477.3496">-description : String</text><line style="stroke:#181818;stroke-width:0.5;" x1="1450.5" x2="1635.5" y1="1484.8633" y2="1484.8633"/><text fill="#000000" font-family="sans-serif" font-size="14" lengthAdjust="spacing" textLength="175" x="1455.5" y="1503.9707">+Part(id, name, description)</text></g><!--class RawMaterial--><g id="elem_RawMaterial"><rect codeLine="74" fill="#F1F1F1" height="103.8633" id="RawMaterial" rx="2.5" ry="2.5" style="stroke:#181818;stroke-width:0.5;" width="238" x="1424" y="1224"/><ellipse cx="1500.25" cy="1240" fill="#ADD1B2" rx="11" ry="11" style="stroke:#181818;stroke-width:1.0;"/><path d="M1503.0156,1235.875 Q1503.1719,1235.6563 1503.3594,1235.5469 Q1503.5469,1235.4375 1503.7656,1235.4375 Q1504.1406,1235.4375 1504.375,1235.7031 Q1504.6094,1235.9531 1504.6094,1236.5625 L1504.6094,1238.0156 Q1504.6094,1238.625 1504.375,1238.8906 Q1504.1406,1239.1563 1503.7656,1239.1563 Q1503.4219,1239.1563 1503.2188,1238.9531 Q1503.0156,1238.7656 1502.9063,1238.25 Q1502.8594,1237.8906 1502.6719,1237.7031 Q1502.3438,1237.3281 1501.7344,1237.1094 Q1501.125,1236.8906 1500.5,1236.8906 Q1499.7344,1236.8906 1499.0938,1237.2188 Q1498.4688,1237.5469 1497.9688,1238.2969 Q1497.4844,1239.0469 1497.4844,1240.0781 L1497.4844,1241.1719 Q1497.4844,1242.4063 1498.375,1243.2344 Q1499.2656,1244.0469 1500.8594,1244.0469 Q1501.7969,1244.0469 1502.4531,1243.7969 Q1502.8438,1243.6406 1503.2656,1243.2031 Q1503.5313,1242.9375 1503.6719,1242.8594 Q1503.8281,1242.7813 1504.0313,1242.7813 Q1504.3594,1242.7813 1504.6094,1243.0469 Q1504.875,1243.2969 1504.875,1243.6406 Q1504.875,1243.9844 1504.5313,1244.3906 Q1504.0313,1244.9688 1503.2344,1245.2969 Q1502.1563,1245.75 1500.8594,1245.75 Q1499.3438,1245.75 1498.1406,1245.125 Q1497.1563,1244.625 1496.4688,1243.5625 Q1495.7813,1242.4844 1495.7813,1241.2031 L1495.7813,1240.0469 Q1495.7813,1238.7188 1496.3906,1237.5781 Q1497.0156,1236.4219 1498.1094,1235.8125 Q1499.2031,1235.1875 1500.4375,1235.1875 Q1501.1719,1235.1875 1501.8125,1235.3594 Q1502.4688,1235.5156 1503.0156,1235.875 Z " fill="#000000"/><text fill="#000000" font-family="sans-serif" font-size="14" lengthAdjust="spacing" textLength="77" x="1520.75" y="1245.7969">RawMaterial</text><line style="stroke:#181818;stroke-width:0.5;" x1="1425" x2="1661" y1="1256" y2="1256"/><text fill="#000000" font-family="sans-serif" font-size="14" lengthAdjust="spacing" textLength="112" x="1430" y="1275.1074">-currentStock : int</text><text fill="#000000" font-family="sans-serif" font-size="14" lengthAdjust="spacing" textLength="122" x="1430" y="1293.7285">-minimumStock : int</text><line style="stroke:#181818;stroke-width:0.5;" x1="1425" x2="1661" y1="1301.2422" y2="1301.2422"/><text fill="#000000" font-family="sans-serif" font-size="14" lengthAdjust="spacing" textLength="226" x="1430" y="1320.3496">+RawMaterial(id, name, description)</text></g><!--class SupplierException--><g id="elem_SupplierException"><rect codeLine="82" fill="#F1F1F1" height="66.6211" id="SupplierException" rx="2.5" ry="2.5" style="stroke:#181818;stroke-width:0.5;" width="330" x="814" y="584.5"/><ellipse cx="918.25" cy="600.5" fill="#ADD1B2" rx="11" ry="11" style="stroke:#181818;stroke-width:1.0;"/><path d="M921.0156,596.375 Q921.1719,596.1563 921.3594,596.0469 Q921.5469,595.9375 921.7656,595.9375 Q922.1406,595.9375 922.375,596.2031 Q922.6094,596.4531 922.6094,597.0625 L922.6094,598.5156 Q922.6094,599.125 922.375,599.3906 Q922.1406,599.6563 921.7656,599.6563 Q921.4219,599.6563 921.2188,599.4531 Q921.0156,599.2656 920.9063,598.75 Q920.8594,598.3906 920.6719,598.2031 Q920.3438,597.8281 919.7344,597.6094 Q919.125,597.3906 918.5,597.3906 Q917.7344,597.3906 917.0938,597.7188 Q916.4688,598.0469 915.9688,598.7969 Q915.4844,599.5469 915.4844,600.5781 L915.4844,601.6719 Q915.4844,602.9063 916.375,603.7344 Q917.2656,604.5469 918.8594,604.5469 Q919.7969,604.5469 920.4531,604.2969 Q920.8438,604.1406 921.2656,603.7031 Q921.5313,603.4375 921.6719,603.3594 Q921.8281,603.2813 922.0313,603.2813 Q922.3594,603.2813 922.6094,603.5469 Q922.875,603.7969 922.875,604.1406 Q922.875,604.4844 922.5313,604.8906 Q922.0313,605.4688 921.2344,605.7969 Q920.1563,606.25 918.8594,606.25 Q917.3438,606.25 916.1406,605.625 Q915.1563,605.125 914.4688,604.0625 Q913.7813,602.9844 913.7813,601.7031 L913.7813,600.5469 Q913.7813,599.2188 914.3906,598.0781 Q915.0156,596.9219 916.1094,596.3125 Q917.2031,595.6875 918.4375,595.6875 Q919.1719,595.6875 919.8125,595.8594 Q920.4688,596.0156 921.0156,596.375 Z " fill="#000000"/><text fill="#000000" font-family="sans-serif" font-size="14" lengthAdjust="spacing" textLength="113" x="938.75" y="606.2969">SupplierException</text><line style="stroke:#181818;stroke-width:0.5;" x1="815" x2="1143" y1="616.5" y2="616.5"/><line style="stroke:#181818;stroke-width:0.5;" x1="815" x2="1143" y1="624.5" y2="624.5"/><text fill="#000000" font-family="sans-serif" font-size="14" lengthAdjust="spacing" textLength="318" x="820" y="643.6074">+supplierNotFound(supplierID) : SupplierException</text></g><!--class ProductException--><g id="elem_ProductException"><rect codeLine="86" fill="#F1F1F1" height="85.2422" id="ProductException" rx="2.5" ry="2.5" style="stroke:#181818;stroke-width:0.5;" width="475" x="1179.5" y="575.5"/><ellipse cx="1357.75" cy="591.5" fill="#ADD1B2" rx="11" ry="11" style="stroke:#181818;stroke-width:1.0;"/><path d="M1360.5156,587.375 Q1360.6719,587.1563 1360.8594,587.0469 Q1361.0469,586.9375 1361.2656,586.9375 Q1361.6406,586.9375 1361.875,587.2031 Q1362.1094,587.4531 1362.1094,588.0625 L1362.1094,589.5156 Q1362.1094,590.125 1361.875,590.3906 Q1361.6406,590.6563 1361.2656,590.6563 Q1360.9219,590.6563 1360.7188,590.4531 Q1360.5156,590.2656 1360.4063,589.75 Q1360.3594,589.3906 1360.1719,589.2031 Q1359.8438,588.8281 1359.2344,588.6094 Q1358.625,588.3906 1358,588.3906 Q1357.2344,588.3906 1356.5938,588.7188 Q1355.9688,589.0469 1355.4688,589.7969 Q1354.9844,590.5469 1354.9844,591.5781 L1354.9844,592.6719 Q1354.9844,593.9063 1355.875,594.7344 Q1356.7656,595.5469 1358.3594,595.5469 Q1359.2969,595.5469 1359.9531,595.2969 Q1360.3438,595.1406 1360.7656,594.7031 Q1361.0313,594.4375 1361.1719,594.3594 Q1361.3281,594.2813 1361.5313,594.2813 Q1361.8594,594.2813 1362.1094,594.5469 Q1362.375,594.7969 1362.375,595.1406 Q1362.375,595.4844 1362.0313,595.8906 Q1361.5313,596.4688 1360.7344,596.7969 Q1359.6563,597.25 1358.3594,597.25 Q1356.8438,597.25 1355.6406,596.625 Q1354.6563,596.125 1353.9688,595.0625 Q1353.2813,593.9844 1353.2813,592.7031 L1353.2813,591.5469 Q1353.2813,590.2188 1353.8906,589.0781 Q1354.5156,587.9219 1355.6094,587.3125 Q1356.7031,586.6875 1357.9375,586.6875 Q1358.6719,586.6875 1359.3125,586.8594 Q1359.9688,587.0156 1360.5156,587.375 Z " fill="#000000"/><text fill="#000000" font-family="sans-serif" font-size="14" lengthAdjust="spacing" textLength="110" x="1378.25" y="597.2969">ProductException</text><line style="stroke:#181818;stroke-width:0.5;" x1="1180.5" x2="1653.5" y1="607.5" y2="607.5"/><line style="stroke:#181818;stroke-width:0.5;" x1="1180.5" x2="1653.5" y1="615.5" y2="615.5"/><text fill="#000000" font-family="sans-serif" font-size="14" lengthAdjust="spacing" textLength="359" x="1185.5" y="634.6074">+rawMaterialNotFound(rawMaterialID) : ProductException</text><text fill="#000000" font-family="sans-serif" font-size="14" lengthAdjust="spacing" textLength="463" x="1185.5" y="653.2285">+supplierAlreadyRegistered(supplierID, rawMaterialID) : ProductException</text></g><!--class RuntimeException--><g id="elem_RuntimeException"><rect codeLine="91" fill="#F1F1F1" height="48" id="RuntimeException" rx="2.5" ry="2.5" style="stroke:#181818;stroke-width:0.5;" width="145" x="1125.5" y="786"/><ellipse cx="1140.5" cy="802" fill="#ADD1B2" rx="11" ry="11" style="stroke:#181818;stroke-width:1.0;"/><path d="M1143.2656,797.875 Q1143.4219,797.6563 1143.6094,797.5469 Q1143.7969,797.4375 1144.0156,797.4375 Q1144.3906,797.4375 1144.625,797.7031 Q1144.8594,797.9531 1144.8594,798.5625 L1144.8594,800.0156 Q1144.8594,800.625 1144.625,800.8906 Q1144.3906,801.1563 1144.0156,801.1563 Q1143.6719,801.1563 1143.4688,800.9531 Q1143.2656,800.7656 1143.1563,800.25 Q1143.1094,799.8906 1142.9219,799.7031 Q1142.5938,799.3281 1141.9844,799.1094 Q1141.375,798.8906 1140.75,798.8906 Q1139.9844,798.8906 1139.3438,799.2188 Q1138.7188,799.5469 1138.2188,800.2969 Q1137.7344,801.0469 1137.7344,802.0781 L1137.7344,803.1719 Q1137.7344,804.4063 1138.625,805.2344 Q1139.5156,806.0469 1141.1094,806.0469 Q1142.0469,806.0469 1142.7031,805.7969 Q1143.0938,805.6406 1143.5156,805.2031 Q1143.7813,804.9375 1143.9219,804.8594 Q1144.0781,804.7813 1144.2813,804.7813 Q1144.6094,804.7813 1144.8594,805.0469 Q1145.125,805.2969 1145.125,805.6406 Q1145.125,805.9844 1144.7813,806.3906 Q1144.2813,806.9688 1143.4844,807.2969 Q1142.4063,807.75 1141.1094,807.75 Q1139.5938,807.75 1138.3906,807.125 Q1137.4063,806.625 1136.7188,805.5625 Q1136.0313,804.4844 1136.0313,803.2031 L1136.0313,802.0469 Q1136.0313,800.7188 1136.6406,799.5781 Q1137.2656,798.4219 1138.3594,797.8125 Q1139.4531,797.1875 1140.6875,797.1875 Q1141.4219,797.1875 1142.0625,797.3594 Q1142.7188,797.5156 1143.2656,797.875 Z " fill="#000000"/><text fill="#000000" font-family="sans-serif" font-size="14" lengthAdjust="spacing" textLength="113" x="1154.5" y="807.7969">RuntimeException</text><line style="stroke:#181818;stroke-width:0.5;" x1="1126.5" x2="1269.5" y1="818" y2="818"/><line style="stroke:#181818;stroke-width:0.5;" x1="1126.5" x2="1269.5" y1="826" y2="826"/></g><!--link RegisterSupplierRawMaterialUI to SupplierController--><g id="link_RegisterSupplierRawMaterialUI_SupplierController"><path codeLine="94" d="M414.01,92.11 C383.07,110.44 345,133 345,133 C345,133 308.2375,158.848 273.4075,183.348 " fill="none" id="RegisterSupplierRawMaterialUI-to-SupplierController" style="stroke:#181818;stroke-width:1.0;stroke-dasharray:7.0,7.0;"/><polygon fill="#181818" points="268.5,186.8,278.1626,184.8936,272.5896,183.9233,273.5599,178.3503,268.5,186.8" style="stroke:#181818;stroke-width:1.0;"/></g><!--link RegisterSupplierRawMaterialUI to RawMaterialController--><g id="link_RegisterSupplierRawMaterialUI_RawMaterialController"><path codeLine="95" d="M475.49,92.19 C497.57,114.94 527.5517,145.8539 554.3617,173.4839 " fill="none" id="RegisterSupplierRawMaterialUI-to-RawMaterialController" style="stroke:#181818;stroke-width:1.0;stroke-dasharray:7.0,7.0;"/><polygon fill="#181818" points="558.54,177.79,555.1433,168.5454,555.0581,174.2016,549.4019,174.1164,558.54,177.79" style="stroke:#181818;stroke-width:1.0;"/></g><!--link SupplierController to SupplierService--><g id="link_SupplierController_SupplierService"><path codeLine="96" d="M222,254.24 C222,283.53 222,320.61 222,352.34 " fill="none" id="SupplierController-to-SupplierService" style="stroke:#181818;stroke-width:1.0;stroke-dasharray:7.0,7.0;"/><polygon fill="#181818" points="222,358.34,226,349.34,222,353.34,218,349.34,222,358.34" style="stroke:#181818;stroke-width:1.0;"/></g><!--link RawMaterialController to RawMaterialService--><g id="link_RawMaterialController_RawMaterialService"><path codeLine="97" d="M606.03,263.35 C610.33,288.91 614.8565,315.8428 619.4065,342.9428 " fill="none" id="RawMaterialController-to-RawMaterialService" style="stroke:#181818;stroke-width:1.0;stroke-dasharray:7.0,7.0;"/><polygon fill="#181818" points="620.4,348.86,622.8546,339.3219,619.5721,343.929,614.965,340.6465,620.4,348.86" style="stroke:#181818;stroke-width:1.0;"/></g><!--link RawMaterialController to SupplierService--><g id="link_RawMaterialController_SupplierService"><path codeLine="98" d="M482.99,263.11 C425.83,283.62 369,304 369,304 C369,304 330.374,329.2298 290.644,355.1698 " fill="none" id="RawMaterialController-to-SupplierService" style="stroke:#181818;stroke-width:1.0;stroke-dasharray:7.0,7.0;"/><polygon fill="#181818" points="285.62,358.45,295.3428,356.879,289.8066,355.7165,290.9692,350.1804,285.62,358.45" style="stroke:#181818;stroke-width:1.0;"/></g><!--link SupplierService to Repositories--><g id="link_SupplierService_Repositories"><path codeLine="99" d="M215.42,443.99 C212.2,464.57 209,485 209,485 C209,485 209,504 209,504 C209,504 300,512 300,512 C300,512 336.1707,530.7134 381.6407,554.2334 " fill="none" id="SupplierService-to-Repositories" style="stroke:#181818;stroke-width:1.0;stroke-dasharray:7.0,7.0;"/><polygon fill="#181818" points="386.97,556.99,380.8139,549.3022,382.529,554.6928,377.1384,556.4079,386.97,556.99" style="stroke:#181818;stroke-width:1.0;"/><text fill="#000000" font-family="sans-serif" font-size="13" lengthAdjust="spacing" textLength="67" x="210" y="500.0283">repositories</text></g><!--link SupplierService to SupplierRepository--><g id="link_SupplierService_SupplierRepository"><path codeLine="100" d="M161.89,443.59 C116.86,474.74 63,512 63,512 C63,512 63,679 63,679 C63,679 483,758 483,758 C483,758 488.4049,759.8934 504.4549,765.4934 " fill="none" id="SupplierService-to-SupplierRepository" style="stroke:#181818;stroke-width:1.0;stroke-dasharray:7.0,7.0;"/><polygon fill="#181818" points="510.12,767.47,502.9401,760.7284,505.3991,765.8228,500.3047,768.2818,510.12,767.47" style="stroke:#181818;stroke-width:1.0;"/><text fill="#000000" font-family="sans-serif" font-size="13" lengthAdjust="spacing" textLength="107" x="64" y="623.5283">supplierRepository</text></g><!--link SupplierService to Supplier--><g id="link_SupplierService_Supplier"><path codeLine="101" d="M303.67,443.67 C337.5,460.93 369,477 369,477 C369,477 1671,512 1671,512 C1671,512 1671,886 1671,886 C1671,886 1646.6195,919.8134 1616.8795,961.0534 " fill="none" id="SupplierService-to-Supplier" style="stroke:#181818;stroke-width:1.0;stroke-dasharray:7.0,7.0;"/><polygon fill="#181818" points="1613.37,965.92,1621.8786,960.9598,1616.2946,961.8645,1615.3899,956.2805,1613.37,965.92" style="stroke:#181818;stroke-width:1.0;"/><text fill="#000000" font-family="sans-serif" font-size="13" lengthAdjust="spacing" textLength="45" x="1672" y="724.0283">supplier</text></g><!--link RawMaterialService to Repositories--><g id="link_RawMaterialService_Repositories"><path codeLine="102" d="M598.98,453.22 C580.78,484.28 560.5033,518.8732 541.4133,551.4532 " fill="none" id="RawMaterialService-to-Repositories" style="stroke:#181818;stroke-width:1.0;stroke-dasharray:7.0,7.0;"/><polygon fill="#181818" points="538.38,556.63,546.3811,550.887,540.9077,552.316,539.4788,546.8426,538.38,556.63" style="stroke:#181818;stroke-width:1.0;"/><text fill="#000000" font-family="sans-serif" font-size="13" lengthAdjust="spacing" textLength="67" x="578" y="500.0283">repositories</text></g><!--link RawMaterialService to RawMaterialRepository--><g id="link_RawMaterialService_RawMaterialRepository"><path codeLine="103" d="M451.98,453.06 C405.94,466.34 369,477 369,477 C369,477 180,512 180,512 C180,512 180,679 180,679 C180,679 198.3099,716.187 216.2399,752.607 " fill="none" id="RawMaterialService-to-RawMaterialRepository" style="stroke:#181818;stroke-width:1.0;stroke-dasharray:7.0,7.0;"/><polygon fill="#181818" points="218.89,757.99,218.5035,748.1487,216.6816,753.5042,211.3261,751.6822,218.89,757.99" style="stroke:#181818;stroke-width:1.0;"/><text fill="#000000" font-family="sans-serif" font-size="13" lengthAdjust="spacing" textLength="128" x="181" y="623.5283">rawMaterialRepository</text></g><!--link RawMaterialService to RawMaterial--><g id="link_RawMaterialService_RawMaterial"><path codeLine="104" d="M872.01,427.03 C1187.17,459.49 1697,512 1697,512 C1697,512 1810,617 1810,617 C1810,617 1810,617 1810,1065.5 C1810,1065.5 1724,1163 1724,1163 C1724,1163 1678.3919,1191.2224 1630.6619,1220.7624 " fill="none" id="RawMaterialService-to-RawMaterial" style="stroke:#181818;stroke-width:1.0;stroke-dasharray:7.0,7.0;"/><polygon fill="#181818" points="1625.56,1223.92,1635.3179,1222.5849,1629.8116,1221.2887,1631.1078,1215.7823,1625.56,1223.92" style="stroke:#181818;stroke-width:1.0;"/><text fill="#000000" font-family="sans-serif" font-size="13" lengthAdjust="spacing" textLength="66" x="1811" y="815.5283">rawMaterial</text></g><!--link Repositories to Repositories--><g id="link_Repositories_Repositories"><path codeLine="105" d="M679.23,601.89 C700.26,604.82 714,610.19 714,618 C714,625.81 706.2026,630.352 685.1726,633.282 " fill="none" id="Repositories-to-Repositories" style="stroke:#181818;stroke-width:1.0;"/><polygon fill="#181818" points="679.23,634.11,688.6959,636.8298,684.1822,633.42,687.5919,628.9063,679.23,634.11" style="stroke:#181818;stroke-width:1.0;"/><text fill="#000000" font-family="sans-serif" font-size="13" lengthAdjust="spacing" textLength="49" x="720" y="623.5283">instance</text></g><!--link Repositories to SupplierRepository--><g id="link_Repositories_SupplierRepository"><path codeLine="106" d="M542.87,679.12 C561.9,707.82 580.8943,736.4494 598.0343,762.2994 " fill="none" id="Repositories-to-SupplierRepository" style="stroke:#181818;stroke-width:1.0;"/><polygon fill="#181818" points="601.35,767.3,599.7102,757.5886,598.5869,763.1328,593.0427,762.0095,601.35,767.3" style="stroke:#181818;stroke-width:1.0;"/><text fill="#000000" font-family="sans-serif" font-size="13" lengthAdjust="spacing" textLength="107" x="574" y="724.0283">supplierRepository</text><text fill="#000000" font-family="sans-serif" font-size="13" lengthAdjust="spacing" textLength="7" x="540.3026" y="701.6215">1</text><text fill="#000000" font-family="sans-serif" font-size="13" lengthAdjust="spacing" textLength="7" x="589.3855" y="756.1722">1</text></g><!--link SupplierRepository to Supplier--><g id="link_SupplierRepository_Supplier"><path codeLine="107" d="M722.89,852.67 C761.79,869.93 798,886 798,886 C798,886 1154.8734,971.0294 1374.1334,1023.2694 " fill="none" id="SupplierRepository-to-Supplier" style="stroke:#181818;stroke-width:1.0;"/><polygon fill="#181818" points="1379.97,1024.66,1372.1421,1018.683,1375.1061,1023.5012,1370.288,1026.4652,1379.97,1024.66" style="stroke:#181818;stroke-width:1.0;"/><text fill="#000000" font-family="sans-serif" font-size="13" lengthAdjust="spacing" textLength="60" x="907" y="909.0283">categories</text><text fill="#000000" font-family="sans-serif" font-size="13" lengthAdjust="spacing" textLength="7" x="730.2959" y="874.8574">1</text><text fill="#000000" font-family="sans-serif" font-size="13" lengthAdjust="spacing" textLength="5" x="1366.9521" y="1019.3547">*</text></g><!--link Repositories to RawMaterialRepository--><g id="link_Repositories_RawMaterialRepository"><path codeLine="108" d="M421.05,679.12 C386.52,704.45 351.5875,730.0705 318.4975,754.3505 " fill="none" id="Repositories-to-RawMaterialRepository" style="stroke:#181818;stroke-width:1.0;"/><polygon fill="#181818" points="313.66,757.9,323.2825,755.8007,317.6912,754.9421,318.5498,749.3508,313.66,757.9" style="stroke:#181818;stroke-width:1.0;"/><text fill="#000000" font-family="sans-serif" font-size="13" lengthAdjust="spacing" textLength="128" x="374" y="724.0283">rawMaterialRepository</text><text fill="#000000" font-family="sans-serif" font-size="13" lengthAdjust="spacing" textLength="7" x="403.6358" y="701.6215">1</text><text fill="#000000" font-family="sans-serif" font-size="13" lengthAdjust="spacing" textLength="7" x="315.5503" y="746.8139">1</text></g><!--link RawMaterialRepository to RawMaterial--><g id="link_RawMaterialRepository_RawMaterial"><path codeLine="109" d="M387.04,862.09 C645.22,954.31 1178.7897,1144.9015 1418.2997,1230.4615 " fill="none" id="RawMaterialRepository-to-RawMaterial" style="stroke:#181818;stroke-width:1.0;"/><polygon fill="#181818" points="1423.95,1232.48,1416.8202,1225.6855,1419.2414,1230.798,1414.1289,1233.2192,1423.95,1232.48" style="stroke:#181818;stroke-width:1.0;"/><text fill="#000000" font-family="sans-serif" font-size="13" lengthAdjust="spacing" textLength="60" x="1226" y="1070.0283">categories</text><text fill="#000000" font-family="sans-serif" font-size="13" lengthAdjust="spacing" textLength="7" x="397.9186" y="883.9088">1</text><text fill="#000000" font-family="sans-serif" font-size="13" lengthAdjust="spacing" textLength="5" x="1411.1632" y="1226.1895">*</text></g><!--link RawMaterial to Part--><g id="link_RawMaterial_Part"><path codeLine="110" d="M1543,1328.14 C1543,1347.25 1543,1351.13 1543,1370.97 " fill="none" id="RawMaterial-to-Part" style="stroke:#181818;stroke-width:1.0;"/><polygon fill="none" points="1543,1388.97,1549,1370.97,1537,1370.97,1543,1388.97" style="stroke:#181818;stroke-width:1.0;"/></g><!--link Supplier to RawMaterial--><g id="link_Supplier_RawMaterial"><path codeLine="111" d="M1543,1163.2 C1543,1184.21 1543,1199.61 1543,1217.98 " fill="none" id="Supplier-to-RawMaterial" style="stroke:#181818;stroke-width:1.0;"/><polygon fill="#181818" points="1543,1223.98,1547,1214.98,1543,1218.98,1539,1214.98,1543,1223.98" style="stroke:#181818;stroke-width:1.0;"/><text fill="#000000" font-family="sans-serif" font-size="13" lengthAdjust="spacing" textLength="5" x="1537.8164" y="1185.1127">*</text><text fill="#000000" font-family="sans-serif" font-size="13" lengthAdjust="spacing" textLength="5" x="1537.6641" y="1212.9047">*</text></g><!--link SupplierService to SupplierException--><g id="link_SupplierService_SupplierException"><path codeLine="112" d="M303.67,443.67 C337.5,460.93 369,477 369,477 C369,477 521,504 521,504 C521,504 774,512 774,512 C774,512 849.9898,550.9247 910.1998,581.7647 " fill="none" id="SupplierService-to-SupplierException" style="stroke:#181818;stroke-width:1.0;stroke-dasharray:7.0,7.0;"/><polygon fill="#181818" points="915.54,584.5,909.3532,576.8369,911.0898,582.2206,905.7061,583.9572,915.54,584.5" style="stroke:#181818;stroke-width:1.0;"/><text fill="#000000" font-family="sans-serif" font-size="13" lengthAdjust="spacing" textLength="38" x="522" y="500.0283">throws</text></g><!--link SupplierException to RuntimeException--><g id="link_SupplierException_RuntimeException"><path codeLine="113" d="M1016.65,651.66 C1060.67,689.86 1118.8535,740.3344 1157.5835,773.9344 " fill="none" id="SupplierException-to-RuntimeException" style="stroke:#181818;stroke-width:1.0;"/><polygon fill="none" points="1171.18,785.73,1161.5154,769.4023,1153.6517,778.4666,1171.18,785.73" style="stroke:#181818;stroke-width:1.0;"/></g><!--link RawMaterialService to ProductException--><g id="link_RawMaterialService_ProductException"><path codeLine="114" d="M872.1,452.17 C1012.68,481.18 1162,512 1162,512 C1162,512 1239.1118,543.7557 1310.3018,573.0657 " fill="none" id="RawMaterialService-to-ProductException" style="stroke:#181818;stroke-width:1.0;stroke-dasharray:7.0,7.0;"/><polygon fill="#181818" points="1315.85,575.35,1309.0506,568.2248,1311.2265,573.4464,1306.0049,575.6224,1315.85,575.35" style="stroke:#181818;stroke-width:1.0;"/><text fill="#000000" font-family="sans-serif" font-size="13" lengthAdjust="spacing" textLength="38" x="1117" y="500.0283">throws</text></g><!--link ProductException to RuntimeException--><g id="link_ProductException_RuntimeException"><path codeLine="115" d="M1368.94,660.7 C1324.62,699.15 1274.0366,743.0346 1238.2566,774.0746 " fill="none" id="ProductException-to-RuntimeException" style="stroke:#181818;stroke-width:1.0;"/><polygon fill="none" points="1224.66,785.87,1242.1884,778.6068,1234.3248,769.5424,1224.66,785.87" style="stroke:#181818;stroke-width:1.0;"/></g><!--SRC=[jLRRRjim37ttLmXvIfQas5w38K1w6H1WxOPa_G15PbsXicH8SZjlwxzFTcsBjkKqBRQy1EOX3waZYf9vu3AZcgOae-o19h2tXG2YWLag4m6HQHtCFOtL4vS9kQF2O4Hm2RR8W6HA5EK7mfYWncoirVoGMzWo9VVy5v2FKLGd99FRxOJyZeZxLSva1mat5lG-ppB1GU_eqpLrtvoAsstj-Hmz8uOB9QrMGe3kCZKC7g_XyZTFm3OEPZeZA_BLfVtScDPr7boOBsIK4VaWKcHTUtTTBnIXJVQfzhO5CRLrUxaWJ1bRygAWW29xq8-SGLYE6doh5dt7ys9xEVMbbL4DT5IxSFgt2DTrh-f0UhsKqjVdVOelI2wvlJX9ynraod2hTD7lvzhEmQ15Bx5zEkkiRYkDEtyCAY6mNt0ZVE8ftWHl7bEk5nX4XbivvEzjvKQ8_zr3f-N-nzrZw2EyitCEIWcWCj0rroe64Jwdk5cyHewDI-iHILCePNCZLYRUdDqh2JTvUd0ylGX8AHU1a6g6hyY5IZCgYn_k2-MtReKEl9AMss9VVlMAAxxTtRdfqTdt5nlIljKCZxHo1Gk22bwGgiJPi0M-KssnB3mEh6D4aHWCqpopNCaXEY-Pfpnkga7EiwETYAjXkTOWxTugzj0NFUMIftaQmkQ8xdW9k76kVZAem73pj30-88tgDyf-KRcCHuvU6nlO0AtYdDaWEpe7ROB1oUeJ38lR20qqBffd0CITPZcDiBjRkMlQ5Bo7Guy_CixEre77mmb1mIT257Y7u0prXHY5tnSzsjUT-xJzQxyYn7VIohttq1KJyW_C_5Kxwj1bSImMHKI1vy1hPOs512-55UuJLD_h9DtGg5FHSZaeaTStTTTnycbIEPV_RvKE-RKq7oPOHUQAIsfHnhA-MvQHz5s5S0K8M2x_hAiHtIwcYWrm76qKFrnMnDvhzUHxqaDLhi797jdVmTHgYGT8cFSl]--></g></svg>