<?xml version="1.0" encoding="us-ascii" standalone="no"?><svg xmlns="http://www.w3.org/2000/svg" xmlns:xlink="http://www.w3.org/1999/xlink" contentStyleType="text/css" height="775.6px" preserveAspectRatio="none" style="width:1113px;height:775px;background:#FFFFFF;" version="1.1" viewBox="0 0 1113 775" width="1113.2px" zoomAndPan="magnify"><defs/><g><!--cluster UI--><g id="cluster_UI"><rect fill="none" height="40.4" rx="1" ry="1" style="stroke:#000000;stroke-width:0.6000000000000001;" width="66.4" x="534" y="2.8"/><text fill="#000000" font-family="sans-serif" font-size="5.6" font-weight="bold" lengthAdjust="spacing" textLength="5.6" x="564.4" y="9.643">UI</text></g><!--cluster Controller--><g id="cluster_Controller"><rect fill="none" height="55.2" rx="1" ry="1" style="stroke:#000000;stroke-width:0.6000000000000001;" width="606.4" x="263.6" y="56.4"/><text fill="#000000" font-family="sans-serif" font-size="5.6" font-weight="bold" lengthAdjust="spacing" textLength="28.4" x="552.6" y="63.243">Controller</text></g><!--cluster Service--><g id="cluster_Service"><rect fill="none" height="55.2" rx="1" ry="1" style="stroke:#000000;stroke-width:0.6000000000000001;" width="600" x="271.2" y="124.8"/><text fill="#000000" font-family="sans-serif" font-size="5.6" font-weight="bold" lengthAdjust="spacing" textLength="21.6" x="560.4" y="131.643">Service</text></g><!--cluster Repository--><g id="cluster_Repository"><rect fill="none" height="158.4" rx="1" ry="1" style="stroke:#000000;stroke-width:0.6000000000000001;" width="459.6" x="2.8" y="200.4"/><text fill="#000000" font-family="sans-serif" font-size="5.6" font-weight="bold" lengthAdjust="spacing" textLength="30.4" x="217.4" y="207.243">Repository</text></g><!--cluster Model--><g id="cluster_Model"><rect fill="none" height="394" rx="1" ry="1" style="stroke:#000000;stroke-width:0.6000000000000001;" width="380" x="678.8" y="379.2"/><text fill="#000000" font-family="sans-serif" font-size="5.6" font-weight="bold" lengthAdjust="spacing" textLength="17.6" x="860" y="386.043">Model</text></g><!--cluster Exception--><g id="cluster_Exception"><rect fill="none" height="136" rx="1" ry="1" style="stroke:#000000;stroke-width:0.6000000000000001;" width="404.4" x="472" y="211.6"/><text fill="#000000" font-family="sans-serif" font-size="5.6" font-weight="bold" lengthAdjust="spacing" textLength="28" x="660.2" y="218.443">Exception</text></g><!--cluster Commom--><g id="cluster_Commom"><rect fill="none" height="48" rx="1" ry="1" style="stroke:#000000;stroke-width:0.6000000000000001;" width="108" x="934.4" y="219"/><text fill="#000000" font-family="sans-serif" font-size="5.6" font-weight="bold" lengthAdjust="spacing" textLength="25.6" x="975.6" y="225.843">Commom</text></g><!--class RegisterOrderUI--><g id="elem_RegisterOrderUI"><rect codeLine="7" fill="#F1F1F1" height="19.2" id="RegisterOrderUI" rx="1" ry="1" style="stroke:#181818;stroke-width:0.20000000000000004;" width="53.6" x="540.4" y="17.6"/><ellipse cx="546.4" cy="24" fill="#ADD1B2" rx="4.4" ry="4.4" style="stroke:#181818;stroke-width:0.4000000000000001;"/><path d="M547.5063,22.35 Q547.5688,22.2625 547.6438,22.2188 Q547.7188,22.175 547.8063,22.175 Q547.9563,22.175 548.05,22.2813 Q548.1438,22.3813 548.1438,22.625 L548.1438,23.2063 Q548.1438,23.45 548.05,23.5563 Q547.9563,23.6625 547.8063,23.6625 Q547.6688,23.6625 547.5875,23.5813 Q547.5063,23.5063 547.4625,23.3 Q547.4438,23.1563 547.3688,23.0813 Q547.2375,22.9313 546.9938,22.8438 Q546.75,22.7563 546.5,22.7563 Q546.1938,22.7563 545.9375,22.8875 Q545.6875,23.0188 545.4875,23.3188 Q545.2938,23.6188 545.2938,24.0313 L545.2938,24.4688 Q545.2938,24.9625 545.65,25.2938 Q546.0063,25.6188 546.6438,25.6188 Q547.0188,25.6188 547.2813,25.5188 Q547.4375,25.4563 547.6063,25.2813 Q547.7125,25.175 547.7688,25.1438 Q547.8313,25.1125 547.9125,25.1125 Q548.0438,25.1125 548.1438,25.2188 Q548.25,25.3188 548.25,25.4563 Q548.25,25.5938 548.1125,25.7563 Q547.9125,25.9875 547.5938,26.1188 Q547.1625,26.3 546.6438,26.3 Q546.0375,26.3 545.5563,26.05 Q545.1625,25.85 544.8875,25.425 Q544.6125,24.9938 544.6125,24.4813 L544.6125,24.0188 Q544.6125,23.4875 544.8563,23.0313 Q545.1063,22.5688 545.5438,22.325 Q545.9813,22.075 546.475,22.075 Q546.7688,22.075 547.025,22.1438 Q547.2875,22.2063 547.5063,22.35 Z " fill="#000000"/><text fill="#000000" font-family="sans-serif" font-size="5.6" lengthAdjust="spacing" textLength="40.8" x="552" y="26.3188">RegisterOrderUI</text><line style="stroke:#181818;stroke-width:0.20000000000000004;" x1="540.8" x2="593.6" y1="30.4" y2="30.4"/><line style="stroke:#181818;stroke-width:0.20000000000000004;" x1="540.8" x2="593.6" y1="33.6" y2="33.6"/></g><!--class ClientController--><g id="elem_ClientController"><rect codeLine="12" fill="#F1F1F1" height="34.0969" id="ClientController" rx="1" ry="1" style="stroke:#181818;stroke-width:0.20000000000000004;" width="82.8" x="270.2" y="71.2"/><ellipse cx="290.3" cy="77.6" fill="#ADD1B2" rx="4.4" ry="4.4" style="stroke:#181818;stroke-width:0.4000000000000001;"/><path d="M291.4063,75.95 Q291.4688,75.8625 291.5438,75.8188 Q291.6188,75.775 291.7063,75.775 Q291.8563,75.775 291.95,75.8813 Q292.0438,75.9813 292.0438,76.225 L292.0438,76.8063 Q292.0438,77.05 291.95,77.1563 Q291.8563,77.2625 291.7063,77.2625 Q291.5688,77.2625 291.4875,77.1813 Q291.4063,77.1063 291.3625,76.9 Q291.3438,76.7563 291.2688,76.6813 Q291.1375,76.5313 290.8938,76.4438 Q290.65,76.3563 290.4,76.3563 Q290.0938,76.3563 289.8375,76.4875 Q289.5875,76.6188 289.3875,76.9188 Q289.1938,77.2188 289.1938,77.6313 L289.1938,78.0688 Q289.1938,78.5625 289.55,78.8938 Q289.9063,79.2188 290.5438,79.2188 Q290.9188,79.2188 291.1813,79.1188 Q291.3375,79.0563 291.5063,78.8813 Q291.6125,78.775 291.6688,78.7438 Q291.7313,78.7125 291.8125,78.7125 Q291.9438,78.7125 292.0438,78.8188 Q292.15,78.9188 292.15,79.0563 Q292.15,79.1938 292.0125,79.3563 Q291.8125,79.5875 291.4938,79.7188 Q291.0625,79.9 290.5438,79.9 Q289.9375,79.9 289.4563,79.65 Q289.0625,79.45 288.7875,79.025 Q288.5125,78.5938 288.5125,78.0813 L288.5125,77.6188 Q288.5125,77.0875 288.7563,76.6313 Q289.0063,76.1688 289.4438,75.925 Q289.8813,75.675 290.375,75.675 Q290.6688,75.675 290.925,75.7438 Q291.1875,75.8063 291.4063,75.95 Z " fill="#000000"/><text fill="#000000" font-family="sans-serif" font-size="5.6" lengthAdjust="spacing" textLength="39.2" x="298.5" y="79.9188">ClientController</text><line style="stroke:#181818;stroke-width:0.20000000000000004;" x1="270.6" x2="352.6" y1="84" y2="84"/><line style="stroke:#181818;stroke-width:0.20000000000000004;" x1="270.6" x2="352.6" y1="87.2" y2="87.2"/><text fill="#000000" font-family="sans-serif" font-size="5.6" lengthAdjust="spacing" textLength="72.8" x="272.6" y="94.843">+getAllClients() : List&lt;Client&gt;</text><text fill="#000000" font-family="sans-serif" font-size="5.6" lengthAdjust="spacing" textLength="78" x="272.6" y="102.2914">+getClientById(clientID) : Client</text></g><!--class OrderController--><g id="elem_OrderController"><rect codeLine="17" fill="#F1F1F1" height="26.6484" id="OrderController" rx="1" ry="1" style="stroke:#181818;stroke-width:0.20000000000000004;" width="400" x="367.2" y="74.8"/><ellipse cx="545.7" cy="81.2" fill="#ADD1B2" rx="4.4" ry="4.4" style="stroke:#181818;stroke-width:0.4000000000000001;"/><path d="M546.8063,79.55 Q546.8688,79.4625 546.9438,79.4188 Q547.0188,79.375 547.1063,79.375 Q547.2563,79.375 547.35,79.4813 Q547.4438,79.5813 547.4438,79.825 L547.4438,80.4063 Q547.4438,80.65 547.35,80.7563 Q547.2563,80.8625 547.1063,80.8625 Q546.9688,80.8625 546.8875,80.7813 Q546.8063,80.7063 546.7625,80.5 Q546.7438,80.3563 546.6688,80.2813 Q546.5375,80.1313 546.2938,80.0438 Q546.05,79.9563 545.8,79.9563 Q545.4938,79.9563 545.2375,80.0875 Q544.9875,80.2188 544.7875,80.5188 Q544.5938,80.8188 544.5938,81.2313 L544.5938,81.6688 Q544.5938,82.1625 544.95,82.4938 Q545.3063,82.8188 545.9438,82.8188 Q546.3188,82.8188 546.5813,82.7188 Q546.7375,82.6563 546.9063,82.4813 Q547.0125,82.375 547.0688,82.3438 Q547.1313,82.3125 547.2125,82.3125 Q547.3438,82.3125 547.4438,82.4188 Q547.55,82.5188 547.55,82.6563 Q547.55,82.7938 547.4125,82.9563 Q547.2125,83.1875 546.8938,83.3188 Q546.4625,83.5 545.9438,83.5 Q545.3375,83.5 544.8563,83.25 Q544.4625,83.05 544.1875,82.625 Q543.9125,82.1938 543.9125,81.6813 L543.9125,81.2188 Q543.9125,80.6875 544.1563,80.2313 Q544.4063,79.7688 544.8438,79.525 Q545.2813,79.275 545.775,79.275 Q546.0688,79.275 546.325,79.3438 Q546.5875,79.4063 546.8063,79.55 Z " fill="#000000"/><text fill="#000000" font-family="sans-serif" font-size="5.6" lengthAdjust="spacing" textLength="39.6" x="553.9" y="83.5188">OrderController</text><line style="stroke:#181818;stroke-width:0.20000000000000004;" x1="367.6" x2="766.8" y1="87.6" y2="87.6"/><line style="stroke:#181818;stroke-width:0.20000000000000004;" x1="367.6" x2="766.8" y1="90.8" y2="90.8"/><text fill="#000000" font-family="sans-serif" font-size="5.6" lengthAdjust="spacing" textLength="395.2" x="369.6" y="98.443">+registerOrder(client, orderID, deliveryStreet, deliveryZipCode, deliveryTown, deliveryCountry, orderDate, deliveryDate, price, productIdQuantityMap) : Order</text></g><!--class ProductController--><g id="elem_ProductController"><rect codeLine="21" fill="#F1F1F1" height="26.6484" id="ProductController" rx="1" ry="1" style="stroke:#181818;stroke-width:0.20000000000000004;" width="82" x="781.4" y="74.8"/><ellipse cx="798.56" cy="81.2" fill="#ADD1B2" rx="4.4" ry="4.4" style="stroke:#181818;stroke-width:0.4000000000000001;"/><path d="M799.6663,79.55 Q799.7288,79.4625 799.8038,79.4188 Q799.8788,79.375 799.9663,79.375 Q800.1163,79.375 800.21,79.4813 Q800.3038,79.5813 800.3038,79.825 L800.3038,80.4063 Q800.3038,80.65 800.21,80.7563 Q800.1163,80.8625 799.9663,80.8625 Q799.8288,80.8625 799.7475,80.7813 Q799.6663,80.7063 799.6225,80.5 Q799.6038,80.3563 799.5288,80.2813 Q799.3975,80.1313 799.1538,80.0438 Q798.91,79.9563 798.66,79.9563 Q798.3538,79.9563 798.0975,80.0875 Q797.8475,80.2188 797.6475,80.5188 Q797.4538,80.8188 797.4538,81.2313 L797.4538,81.6688 Q797.4538,82.1625 797.81,82.4938 Q798.1663,82.8188 798.8038,82.8188 Q799.1788,82.8188 799.4413,82.7188 Q799.5975,82.6563 799.7663,82.4813 Q799.8725,82.375 799.9288,82.3438 Q799.9913,82.3125 800.0725,82.3125 Q800.2038,82.3125 800.3038,82.4188 Q800.41,82.5188 800.41,82.6563 Q800.41,82.7938 800.2725,82.9563 Q800.0725,83.1875 799.7538,83.3188 Q799.3225,83.5 798.8038,83.5 Q798.1975,83.5 797.7163,83.25 Q797.3225,83.05 797.0475,82.625 Q796.7725,82.1938 796.7725,81.6813 L796.7725,81.2188 Q796.7725,80.6875 797.0163,80.2313 Q797.2663,79.7688 797.7038,79.525 Q798.1413,79.275 798.635,79.275 Q798.9288,79.275 799.185,79.3438 Q799.4475,79.4063 799.6663,79.55 Z " fill="#000000"/><text fill="#000000" font-family="sans-serif" font-size="5.6" lengthAdjust="spacing" textLength="44.4" x="806.64" y="83.5188">ProductController</text><line style="stroke:#181818;stroke-width:0.20000000000000004;" x1="781.8" x2="863" y1="87.6" y2="87.6"/><line style="stroke:#181818;stroke-width:0.20000000000000004;" x1="781.8" x2="863" y1="90.8" y2="90.8"/><text fill="#000000" font-family="sans-serif" font-size="5.6" lengthAdjust="spacing" textLength="77.2" x="783.8" y="98.443">+getProducts() : List&lt;Product&gt;</text></g><!--class ClientService--><g id="elem_ClientService"><rect codeLine="27" fill="#F1F1F1" height="34.0969" id="ClientService" rx="1" ry="1" style="stroke:#181818;stroke-width:0.20000000000000004;" width="82.8" x="277.8" y="139.6"/><ellipse cx="300.9" cy="146" fill="#ADD1B2" rx="4.4" ry="4.4" style="stroke:#181818;stroke-width:0.4000000000000001;"/><path d="M302.0063,144.35 Q302.0688,144.2625 302.1438,144.2188 Q302.2188,144.175 302.3063,144.175 Q302.4563,144.175 302.55,144.2813 Q302.6438,144.3813 302.6438,144.625 L302.6438,145.2063 Q302.6438,145.45 302.55,145.5563 Q302.4563,145.6625 302.3063,145.6625 Q302.1688,145.6625 302.0875,145.5813 Q302.0063,145.5063 301.9625,145.3 Q301.9438,145.1563 301.8688,145.0813 Q301.7375,144.9313 301.4938,144.8438 Q301.25,144.7563 301,144.7563 Q300.6938,144.7563 300.4375,144.8875 Q300.1875,145.0188 299.9875,145.3188 Q299.7938,145.6188 299.7938,146.0313 L299.7938,146.4688 Q299.7938,146.9625 300.15,147.2938 Q300.5063,147.6188 301.1438,147.6188 Q301.5188,147.6188 301.7813,147.5188 Q301.9375,147.4563 302.1063,147.2813 Q302.2125,147.175 302.2688,147.1438 Q302.3313,147.1125 302.4125,147.1125 Q302.5438,147.1125 302.6438,147.2188 Q302.75,147.3188 302.75,147.4563 Q302.75,147.5938 302.6125,147.7563 Q302.4125,147.9875 302.0938,148.1188 Q301.6625,148.3 301.1438,148.3 Q300.5375,148.3 300.0563,148.05 Q299.6625,147.85 299.3875,147.425 Q299.1125,146.9938 299.1125,146.4813 L299.1125,146.0188 Q299.1125,145.4875 299.3563,145.0313 Q299.6063,144.5688 300.0438,144.325 Q300.4813,144.075 300.975,144.075 Q301.2688,144.075 301.525,144.1438 Q301.7875,144.2063 302.0063,144.35 Z " fill="#000000"/><text fill="#000000" font-family="sans-serif" font-size="5.6" lengthAdjust="spacing" textLength="33.2" x="309.1" y="148.3188">ClientService</text><line style="stroke:#181818;stroke-width:0.20000000000000004;" x1="278.2" x2="360.2" y1="152.4" y2="152.4"/><line style="stroke:#181818;stroke-width:0.20000000000000004;" x1="278.2" x2="360.2" y1="155.6" y2="155.6"/><text fill="#000000" font-family="sans-serif" font-size="5.6" lengthAdjust="spacing" textLength="66.8" x="280.2" y="163.243">+getClients() : List&lt;Client&gt;</text><text fill="#000000" font-family="sans-serif" font-size="5.6" lengthAdjust="spacing" textLength="78" x="280.2" y="170.6914">+getClientById(clientID) : Client</text></g><!--class OrderService--><g id="elem_OrderService"><rect codeLine="32" fill="#F1F1F1" height="34.0969" id="OrderService" rx="1" ry="1" style="stroke:#181818;stroke-width:0.20000000000000004;" width="376" x="374.8" y="139.6"/><ellipse cx="544.3" cy="146" fill="#ADD1B2" rx="4.4" ry="4.4" style="stroke:#181818;stroke-width:0.4000000000000001;"/><path d="M545.4063,144.35 Q545.4688,144.2625 545.5438,144.2188 Q545.6188,144.175 545.7063,144.175 Q545.8563,144.175 545.95,144.2813 Q546.0438,144.3813 546.0438,144.625 L546.0438,145.2063 Q546.0438,145.45 545.95,145.5563 Q545.8563,145.6625 545.7063,145.6625 Q545.5688,145.6625 545.4875,145.5813 Q545.4063,145.5063 545.3625,145.3 Q545.3438,145.1563 545.2688,145.0813 Q545.1375,144.9313 544.8938,144.8438 Q544.65,144.7563 544.4,144.7563 Q544.0938,144.7563 543.8375,144.8875 Q543.5875,145.0188 543.3875,145.3188 Q543.1938,145.6188 543.1938,146.0313 L543.1938,146.4688 Q543.1938,146.9625 543.55,147.2938 Q543.9063,147.6188 544.5438,147.6188 Q544.9188,147.6188 545.1813,147.5188 Q545.3375,147.4563 545.5063,147.2813 Q545.6125,147.175 545.6688,147.1438 Q545.7313,147.1125 545.8125,147.1125 Q545.9438,147.1125 546.0438,147.2188 Q546.15,147.3188 546.15,147.4563 Q546.15,147.5938 546.0125,147.7563 Q545.8125,147.9875 545.4938,148.1188 Q545.0625,148.3 544.5438,148.3 Q543.9375,148.3 543.4563,148.05 Q543.0625,147.85 542.7875,147.425 Q542.5125,146.9938 542.5125,146.4813 L542.5125,146.0188 Q542.5125,145.4875 542.7563,145.0313 Q543.0063,144.5688 543.4438,144.325 Q543.8813,144.075 544.375,144.075 Q544.6688,144.075 544.925,144.1438 Q545.1875,144.2063 545.4063,144.35 Z " fill="#000000"/><text fill="#000000" font-family="sans-serif" font-size="5.6" lengthAdjust="spacing" textLength="33.6" x="552.5" y="148.3188">OrderService</text><line style="stroke:#181818;stroke-width:0.20000000000000004;" x1="375.2" x2="750.4" y1="152.4" y2="152.4"/><line style="stroke:#181818;stroke-width:0.20000000000000004;" x1="375.2" x2="750.4" y1="155.6" y2="155.6"/><text fill="#000000" font-family="sans-serif" font-size="5.6" lengthAdjust="spacing" textLength="371.2" x="377.2" y="163.243">+registerOrder(client, orderID, deliveryStreet, deliveryZipCode, deliveryTown, deliveryCountry, orderDate, deliveryDate, price, productQuantityMap)</text><text fill="#000000" font-family="sans-serif" font-size="5.6" lengthAdjust="spacing" textLength="103.2" x="377.2" y="170.6914">-calculatePrice(productQuantityMap) : int</text></g><!--class ProductService--><g id="elem_ProductService"><rect codeLine="37" fill="#F1F1F1" height="34.0969" id="ProductService" rx="1" ry="1" style="stroke:#181818;stroke-width:0.20000000000000004;" width="100" x="764.8" y="139.6"/><ellipse cx="793.9" cy="146" fill="#ADD1B2" rx="4.4" ry="4.4" style="stroke:#181818;stroke-width:0.4000000000000001;"/><path d="M795.0063,144.35 Q795.0688,144.2625 795.1438,144.2188 Q795.2188,144.175 795.3063,144.175 Q795.4563,144.175 795.55,144.2813 Q795.6438,144.3813 795.6438,144.625 L795.6438,145.2063 Q795.6438,145.45 795.55,145.5563 Q795.4563,145.6625 795.3063,145.6625 Q795.1688,145.6625 795.0875,145.5813 Q795.0063,145.5063 794.9625,145.3 Q794.9438,145.1563 794.8688,145.0813 Q794.7375,144.9313 794.4938,144.8438 Q794.25,144.7563 794,144.7563 Q793.6938,144.7563 793.4375,144.8875 Q793.1875,145.0188 792.9875,145.3188 Q792.7938,145.6188 792.7938,146.0313 L792.7938,146.4688 Q792.7938,146.9625 793.15,147.2938 Q793.5063,147.6188 794.1438,147.6188 Q794.5188,147.6188 794.7813,147.5188 Q794.9375,147.4563 795.1063,147.2813 Q795.2125,147.175 795.2688,147.1438 Q795.3313,147.1125 795.4125,147.1125 Q795.5438,147.1125 795.6438,147.2188 Q795.75,147.3188 795.75,147.4563 Q795.75,147.5938 795.6125,147.7563 Q795.4125,147.9875 795.0938,148.1188 Q794.6625,148.3 794.1438,148.3 Q793.5375,148.3 793.0563,148.05 Q792.6625,147.85 792.3875,147.425 Q792.1125,146.9938 792.1125,146.4813 L792.1125,146.0188 Q792.1125,145.4875 792.3563,145.0313 Q792.6063,144.5688 793.0438,144.325 Q793.4813,144.075 793.975,144.075 Q794.2688,144.075 794.525,144.1438 Q794.7875,144.2063 795.0063,144.35 Z " fill="#000000"/><text fill="#000000" font-family="sans-serif" font-size="5.6" lengthAdjust="spacing" textLength="38.4" x="802.1" y="148.3188">ProductService</text><line style="stroke:#181818;stroke-width:0.20000000000000004;" x1="765.2" x2="864.4" y1="152.4" y2="152.4"/><line style="stroke:#181818;stroke-width:0.20000000000000004;" x1="765.2" x2="864.4" y1="155.6" y2="155.6"/><text fill="#000000" font-family="sans-serif" font-size="5.6" lengthAdjust="spacing" textLength="77.2" x="767.2" y="163.243">+getProducts() : List&lt;Product&gt;</text><text fill="#000000" font-family="sans-serif" font-size="5.6" lengthAdjust="spacing" textLength="95.2" x="767.2" y="170.6914">+getProductByID(productID) : Product</text></g><!--class Repositories--><g id="elem_Repositories"><rect codeLine="44" fill="#F1F1F1" height="63.8906" id="Repositories" rx="1" ry="1" style="stroke:#181818;stroke-width:0.20000000000000004;" width="120.8" x="103.2" y="215.2"/><ellipse cx="146.1" cy="221.6" fill="#ADD1B2" rx="4.4" ry="4.4" style="stroke:#181818;stroke-width:0.4000000000000001;"/><path d="M147.2063,219.95 Q147.2688,219.8625 147.3438,219.8188 Q147.4188,219.775 147.5063,219.775 Q147.6563,219.775 147.75,219.8813 Q147.8438,219.9813 147.8438,220.225 L147.8438,220.8063 Q147.8438,221.05 147.75,221.1563 Q147.6563,221.2625 147.5063,221.2625 Q147.3688,221.2625 147.2875,221.1813 Q147.2063,221.1063 147.1625,220.9 Q147.1438,220.7563 147.0688,220.6813 Q146.9375,220.5313 146.6938,220.4438 Q146.45,220.3563 146.2,220.3563 Q145.8938,220.3563 145.6375,220.4875 Q145.3875,220.6188 145.1875,220.9188 Q144.9938,221.2188 144.9938,221.6313 L144.9938,222.0688 Q144.9938,222.5625 145.35,222.8938 Q145.7063,223.2188 146.3438,223.2188 Q146.7188,223.2188 146.9813,223.1188 Q147.1375,223.0563 147.3063,222.8813 Q147.4125,222.775 147.4688,222.7438 Q147.5313,222.7125 147.6125,222.7125 Q147.7438,222.7125 147.8438,222.8188 Q147.95,222.9188 147.95,223.0563 Q147.95,223.1938 147.8125,223.3563 Q147.6125,223.5875 147.2938,223.7188 Q146.8625,223.9 146.3438,223.9 Q145.7375,223.9 145.2563,223.65 Q144.8625,223.45 144.5875,223.025 Q144.3125,222.5938 144.3125,222.0813 L144.3125,221.6188 Q144.3125,221.0875 144.5563,220.6313 Q144.8063,220.1688 145.2438,219.925 Q145.6813,219.675 146.175,219.675 Q146.4688,219.675 146.725,219.7438 Q146.9875,219.8063 147.2063,219.95 Z " fill="#000000"/><text fill="#000000" font-family="sans-serif" font-size="5.6" lengthAdjust="spacing" textLength="31.6" x="154.3" y="223.9188">Repositories</text><line style="stroke:#181818;stroke-width:0.20000000000000004;" x1="103.6" x2="223.6" y1="228" y2="228"/><line style="stroke:#181818;stroke-width:0.20000000000000004;" x1="103.6" x2="223.6" y1="231.2" y2="231.2"/><text fill="#000000" font-family="sans-serif" font-size="5.6" lengthAdjust="spacing" textLength="37.6" x="105.6" y="238.843">-Repositories()</text><text fill="#000000" font-family="sans-serif" font-size="5.6" lengthAdjust="spacing" textLength="72.8" x="105.6" y="246.2914">+getInstance() : Repositories</text><text fill="#000000" font-family="sans-serif" font-size="5.6" lengthAdjust="spacing" textLength="103.2" x="105.6" y="253.7398">+getClientRepository() : ClientRepository</text><text fill="#000000" font-family="sans-serif" font-size="5.6" lengthAdjust="spacing" textLength="116" x="105.6" y="261.1883">+getAddressRepository() : AddressRepository</text><text fill="#000000" font-family="sans-serif" font-size="5.6" lengthAdjust="spacing" textLength="113.6" x="105.6" y="268.6367">+getProductRepository() : ProductRepository</text><text fill="#000000" font-family="sans-serif" font-size="5.6" lengthAdjust="spacing" textLength="104" x="105.6" y="276.0852">+getOrderRepository() : OrderRepository</text></g><!--class ClientRepository--><g id="elem_ClientRepository"><rect codeLine="53" fill="#F1F1F1" height="34.0969" id="ClientRepository" rx="1" ry="1" style="stroke:#181818;stroke-width:0.20000000000000004;" width="68.4" x="273.4" y="314.6"/><ellipse cx="285.7" cy="321" fill="#ADD1B2" rx="4.4" ry="4.4" style="stroke:#181818;stroke-width:0.4000000000000001;"/><path d="M286.8063,319.35 Q286.8688,319.2625 286.9438,319.2188 Q287.0188,319.175 287.1063,319.175 Q287.2563,319.175 287.35,319.2813 Q287.4438,319.3813 287.4438,319.625 L287.4438,320.2063 Q287.4438,320.45 287.35,320.5563 Q287.2563,320.6625 287.1063,320.6625 Q286.9688,320.6625 286.8875,320.5813 Q286.8063,320.5063 286.7625,320.3 Q286.7438,320.1563 286.6688,320.0813 Q286.5375,319.9313 286.2938,319.8438 Q286.05,319.7563 285.8,319.7563 Q285.4938,319.7563 285.2375,319.8875 Q284.9875,320.0188 284.7875,320.3188 Q284.5938,320.6188 284.5938,321.0313 L284.5938,321.4688 Q284.5938,321.9625 284.95,322.2938 Q285.3063,322.6188 285.9438,322.6188 Q286.3188,322.6188 286.5813,322.5188 Q286.7375,322.4563 286.9063,322.2813 Q287.0125,322.175 287.0688,322.1438 Q287.1313,322.1125 287.2125,322.1125 Q287.3438,322.1125 287.4438,322.2188 Q287.55,322.3188 287.55,322.4563 Q287.55,322.5938 287.4125,322.7563 Q287.2125,322.9875 286.8938,323.1188 Q286.4625,323.3 285.9438,323.3 Q285.3375,323.3 284.8563,323.05 Q284.4625,322.85 284.1875,322.425 Q283.9125,321.9938 283.9125,321.4813 L283.9125,321.0188 Q283.9125,320.4875 284.1563,320.0313 Q284.4063,319.5688 284.8438,319.325 Q285.2813,319.075 285.775,319.075 Q286.0688,319.075 286.325,319.1438 Q286.5875,319.2063 286.8063,319.35 Z " fill="#000000"/><text fill="#000000" font-family="sans-serif" font-size="5.6" lengthAdjust="spacing" textLength="41.6" x="292.7" y="323.3188">ClientRepository</text><line style="stroke:#181818;stroke-width:0.20000000000000004;" x1="273.8" x2="341.4" y1="327.4" y2="327.4"/><line style="stroke:#181818;stroke-width:0.20000000000000004;" x1="273.8" x2="341.4" y1="330.6" y2="330.6"/><text fill="#000000" font-family="sans-serif" font-size="5.6" lengthAdjust="spacing" textLength="55.6" x="275.8" y="338.243">+getAll() : List&lt;Client&gt;</text><text fill="#000000" font-family="sans-serif" font-size="5.6" lengthAdjust="spacing" textLength="63.6" x="275.8" y="345.6914">+getById(clientID) : Client</text></g><!--class AddressRepository--><g id="elem_AddressRepository"><rect codeLine="58" fill="#F1F1F1" height="41.5453" id="AddressRepository" rx="1" ry="1" style="stroke:#181818;stroke-width:0.20000000000000004;" width="142.4" x="116.8" y="310.8"/><ellipse cx="162.3" cy="317.2" fill="#ADD1B2" rx="4.4" ry="4.4" style="stroke:#181818;stroke-width:0.4000000000000001;"/><path d="M163.4063,315.55 Q163.4688,315.4625 163.5438,315.4188 Q163.6188,315.375 163.7063,315.375 Q163.8563,315.375 163.95,315.4813 Q164.0438,315.5813 164.0438,315.825 L164.0438,316.4063 Q164.0438,316.65 163.95,316.7563 Q163.8563,316.8625 163.7063,316.8625 Q163.5688,316.8625 163.4875,316.7813 Q163.4063,316.7063 163.3625,316.5 Q163.3438,316.3563 163.2688,316.2813 Q163.1375,316.1313 162.8938,316.0438 Q162.65,315.9563 162.4,315.9563 Q162.0938,315.9563 161.8375,316.0875 Q161.5875,316.2188 161.3875,316.5188 Q161.1938,316.8188 161.1938,317.2313 L161.1938,317.6688 Q161.1938,318.1625 161.55,318.4938 Q161.9063,318.8188 162.5438,318.8188 Q162.9188,318.8188 163.1813,318.7188 Q163.3375,318.6563 163.5063,318.4813 Q163.6125,318.375 163.6688,318.3438 Q163.7313,318.3125 163.8125,318.3125 Q163.9438,318.3125 164.0438,318.4188 Q164.15,318.5188 164.15,318.6563 Q164.15,318.7938 164.0125,318.9563 Q163.8125,319.1875 163.4938,319.3188 Q163.0625,319.5 162.5438,319.5 Q161.9375,319.5 161.4563,319.25 Q161.0625,319.05 160.7875,318.625 Q160.5125,318.1938 160.5125,317.6813 L160.5125,317.2188 Q160.5125,316.6875 160.7563,316.2313 Q161.0063,315.7688 161.4438,315.525 Q161.8813,315.275 162.375,315.275 Q162.6688,315.275 162.925,315.3438 Q163.1875,315.4063 163.4063,315.55 Z " fill="#000000"/><text fill="#000000" font-family="sans-serif" font-size="5.6" lengthAdjust="spacing" textLength="48" x="170.5" y="319.5188">AddressRepository</text><line style="stroke:#181818;stroke-width:0.20000000000000004;" x1="117.2" x2="258.8" y1="323.6" y2="323.6"/><line style="stroke:#181818;stroke-width:0.20000000000000004;" x1="117.2" x2="258.8" y1="326.8" y2="326.8"/><text fill="#000000" font-family="sans-serif" font-size="5.6" lengthAdjust="spacing" textLength="137.6" x="119.2" y="334.443">+findAddress(street, zipCode, town, country) : Address</text><text fill="#000000" font-family="sans-serif" font-size="5.6" lengthAdjust="spacing" textLength="62" x="119.2" y="341.8914">+getAddressCount() : int</text><text fill="#000000" font-family="sans-serif" font-size="5.6" lengthAdjust="spacing" textLength="84.8" x="119.2" y="349.3398">+save(deliveryAddress) : boolean</text></g><!--class ProductRepository--><g id="elem_ProductRepository"><rect codeLine="64" fill="#F1F1F1" height="34.0969" id="ProductRepository" rx="1" ry="1" style="stroke:#181818;stroke-width:0.20000000000000004;" width="100" x="356" y="314.6"/><ellipse cx="380.9" cy="321" fill="#ADD1B2" rx="4.4" ry="4.4" style="stroke:#181818;stroke-width:0.4000000000000001;"/><path d="M382.0063,319.35 Q382.0688,319.2625 382.1438,319.2188 Q382.2188,319.175 382.3063,319.175 Q382.4563,319.175 382.55,319.2813 Q382.6438,319.3813 382.6438,319.625 L382.6438,320.2063 Q382.6438,320.45 382.55,320.5563 Q382.4563,320.6625 382.3063,320.6625 Q382.1688,320.6625 382.0875,320.5813 Q382.0063,320.5063 381.9625,320.3 Q381.9438,320.1563 381.8688,320.0813 Q381.7375,319.9313 381.4938,319.8438 Q381.25,319.7563 381,319.7563 Q380.6938,319.7563 380.4375,319.8875 Q380.1875,320.0188 379.9875,320.3188 Q379.7938,320.6188 379.7938,321.0313 L379.7938,321.4688 Q379.7938,321.9625 380.15,322.2938 Q380.5063,322.6188 381.1438,322.6188 Q381.5188,322.6188 381.7813,322.5188 Q381.9375,322.4563 382.1063,322.2813 Q382.2125,322.175 382.2688,322.1438 Q382.3313,322.1125 382.4125,322.1125 Q382.5438,322.1125 382.6438,322.2188 Q382.75,322.3188 382.75,322.4563 Q382.75,322.5938 382.6125,322.7563 Q382.4125,322.9875 382.0938,323.1188 Q381.6625,323.3 381.1438,323.3 Q380.5375,323.3 380.0563,323.05 Q379.6625,322.85 379.3875,322.425 Q379.1125,321.9938 379.1125,321.4813 L379.1125,321.0188 Q379.1125,320.4875 379.3563,320.0313 Q379.6063,319.5688 380.0438,319.325 Q380.4813,319.075 380.975,319.075 Q381.2688,319.075 381.525,319.1438 Q381.7875,319.2063 382.0063,319.35 Z " fill="#000000"/><text fill="#000000" font-family="sans-serif" font-size="5.6" lengthAdjust="spacing" textLength="46.8" x="389.1" y="323.3188">ProductRepository</text><line style="stroke:#181818;stroke-width:0.20000000000000004;" x1="356.4" x2="455.6" y1="327.4" y2="327.4"/><line style="stroke:#181818;stroke-width:0.20000000000000004;" x1="356.4" x2="455.6" y1="330.6" y2="330.6"/><text fill="#000000" font-family="sans-serif" font-size="5.6" lengthAdjust="spacing" textLength="60.8" x="358.4" y="338.243">+getAll() : List&lt;Product&gt;</text><text fill="#000000" font-family="sans-serif" font-size="5.6" lengthAdjust="spacing" textLength="95.2" x="358.4" y="345.6914">+getProductByID(productID) : Product</text></g><!--class OrderRepository--><g id="elem_OrderRepository"><rect codeLine="69" fill="#F1F1F1" height="34.0969" id="OrderRepository" rx="1" ry="1" style="stroke:#181818;stroke-width:0.20000000000000004;" width="93.2" x="9.4" y="314.6"/><ellipse cx="33.3" cy="321" fill="#ADD1B2" rx="4.4" ry="4.4" style="stroke:#181818;stroke-width:0.4000000000000001;"/><path d="M34.4063,319.35 Q34.4688,319.2625 34.5438,319.2188 Q34.6188,319.175 34.7063,319.175 Q34.8563,319.175 34.95,319.2813 Q35.0438,319.3813 35.0438,319.625 L35.0438,320.2063 Q35.0438,320.45 34.95,320.5563 Q34.8563,320.6625 34.7063,320.6625 Q34.5688,320.6625 34.4875,320.5813 Q34.4063,320.5063 34.3625,320.3 Q34.3438,320.1563 34.2688,320.0813 Q34.1375,319.9313 33.8938,319.8438 Q33.65,319.7563 33.4,319.7563 Q33.0938,319.7563 32.8375,319.8875 Q32.5875,320.0188 32.3875,320.3188 Q32.1938,320.6188 32.1938,321.0313 L32.1938,321.4688 Q32.1938,321.9625 32.55,322.2938 Q32.9063,322.6188 33.5438,322.6188 Q33.9188,322.6188 34.1813,322.5188 Q34.3375,322.4563 34.5063,322.2813 Q34.6125,322.175 34.6688,322.1438 Q34.7313,322.1125 34.8125,322.1125 Q34.9438,322.1125 35.0438,322.2188 Q35.15,322.3188 35.15,322.4563 Q35.15,322.5938 35.0125,322.7563 Q34.8125,322.9875 34.4938,323.1188 Q34.0625,323.3 33.5438,323.3 Q32.9375,323.3 32.4563,323.05 Q32.0625,322.85 31.7875,322.425 Q31.5125,321.9938 31.5125,321.4813 L31.5125,321.0188 Q31.5125,320.4875 31.7563,320.0313 Q32.0063,319.5688 32.4438,319.325 Q32.8813,319.075 33.375,319.075 Q33.6688,319.075 33.925,319.1438 Q34.1875,319.2063 34.4063,319.35 Z " fill="#000000"/><text fill="#000000" font-family="sans-serif" font-size="5.6" lengthAdjust="spacing" textLength="42" x="41.5" y="323.3188">OrderRepository</text><line style="stroke:#181818;stroke-width:0.20000000000000004;" x1="9.8" x2="102.2" y1="327.4" y2="327.4"/><line style="stroke:#181818;stroke-width:0.20000000000000004;" x1="9.8" x2="102.2" y1="330.6" y2="330.6"/><text fill="#000000" font-family="sans-serif" font-size="5.6" lengthAdjust="spacing" textLength="88.4" x="11.8" y="338.243">+getOrderExists(orderID) : boolean</text><text fill="#000000" font-family="sans-serif" font-size="5.6" lengthAdjust="spacing" textLength="74.4" x="11.8" y="345.6914">+save(order, client) : boolean</text></g><!--class Client--><g id="elem_Client"><rect codeLine="76" fill="#F1F1F1" height="93.6844" id="Client" rx="1" ry="1" style="stroke:#181818;stroke-width:0.20000000000000004;" width="170" x="717.8" y="394"/><ellipse cx="793.9" cy="400.4" fill="#ADD1B2" rx="4.4" ry="4.4" style="stroke:#181818;stroke-width:0.4000000000000001;"/><path d="M795.0063,398.75 Q795.0688,398.6625 795.1438,398.6188 Q795.2188,398.575 795.3063,398.575 Q795.4563,398.575 795.55,398.6813 Q795.6438,398.7813 795.6438,399.025 L795.6438,399.6063 Q795.6438,399.85 795.55,399.9563 Q795.4563,400.0625 795.3063,400.0625 Q795.1688,400.0625 795.0875,399.9813 Q795.0063,399.9063 794.9625,399.7 Q794.9438,399.5563 794.8688,399.4813 Q794.7375,399.3313 794.4938,399.2438 Q794.25,399.1563 794,399.1563 Q793.6938,399.1563 793.4375,399.2875 Q793.1875,399.4188 792.9875,399.7188 Q792.7938,400.0188 792.7938,400.4313 L792.7938,400.8688 Q792.7938,401.3625 793.15,401.6938 Q793.5063,402.0188 794.1438,402.0188 Q794.5188,402.0188 794.7813,401.9188 Q794.9375,401.8563 795.1063,401.6813 Q795.2125,401.575 795.2688,401.5438 Q795.3313,401.5125 795.4125,401.5125 Q795.5438,401.5125 795.6438,401.6188 Q795.75,401.7188 795.75,401.8563 Q795.75,401.9938 795.6125,402.1563 Q795.4125,402.3875 795.0938,402.5188 Q794.6625,402.7 794.1438,402.7 Q793.5375,402.7 793.0563,402.45 Q792.6625,402.25 792.3875,401.825 Q792.1125,401.3938 792.1125,400.8813 L792.1125,400.4188 Q792.1125,399.8875 792.3563,399.4313 Q792.6063,398.9688 793.0438,398.725 Q793.4813,398.475 793.975,398.475 Q794.2688,398.475 794.525,398.5438 Q794.7875,398.6063 795.0063,398.75 Z " fill="#000000"/><text fill="#000000" font-family="sans-serif" font-size="5.6" lengthAdjust="spacing" textLength="14.4" x="802.1" y="402.7188">Client</text><line style="stroke:#181818;stroke-width:0.20000000000000004;" x1="718.2" x2="887.4" y1="406.8" y2="406.8"/><text fill="#000000" font-family="sans-serif" font-size="5.6" lengthAdjust="spacing" textLength="31.2" x="720.2" y="414.443">-clientID : int</text><text fill="#000000" font-family="sans-serif" font-size="5.6" lengthAdjust="spacing" textLength="48" x="720.2" y="421.8914">-address : Address</text><text fill="#000000" font-family="sans-serif" font-size="5.6" lengthAdjust="spacing" textLength="35.6" x="720.2" y="429.3398">-name : String</text><text fill="#000000" font-family="sans-serif" font-size="5.6" lengthAdjust="spacing" textLength="33.6" x="720.2" y="436.7883">-vatin : String</text><text fill="#000000" font-family="sans-serif" font-size="5.6" lengthAdjust="spacing" textLength="48.4" x="720.2" y="444.2367">-phoneNumber : int</text><text fill="#000000" font-family="sans-serif" font-size="5.6" lengthAdjust="spacing" textLength="34.8" x="720.2" y="451.6852">-email : String</text><text fill="#000000" font-family="sans-serif" font-size="5.6" lengthAdjust="spacing" textLength="54.4" x="720.2" y="459.1336">-type : CompanyType</text><text fill="#000000" font-family="sans-serif" font-size="5.6" lengthAdjust="spacing" textLength="46.4" x="720.2" y="466.582">-state : EntityState</text><text fill="#000000" font-family="sans-serif" font-size="5.6" lengthAdjust="spacing" textLength="53.2" x="720.2" y="474.0305">-orders : List&lt;Order&gt;</text><line style="stroke:#181818;stroke-width:0.20000000000000004;" x1="718.2" x2="887.4" y1="477.0359" y2="477.0359"/><text fill="#000000" font-family="sans-serif" font-size="5.6" lengthAdjust="spacing" textLength="165.2" x="720.2" y="484.6789">+Client(clientID, name, address, vatin, phoneNumber, email, type)</text></g><!--class Address--><g id="elem_Address"><rect codeLine="89" fill="#F1F1F1" height="63.8906" id="Address" rx="1" ry="1" style="stroke:#181818;stroke-width:0.20000000000000004;" width="115.2" x="685.2" y="629.6"/><ellipse cx="730.7" cy="636" fill="#ADD1B2" rx="4.4" ry="4.4" style="stroke:#181818;stroke-width:0.4000000000000001;"/><path d="M731.8063,634.35 Q731.8688,634.2625 731.9438,634.2188 Q732.0188,634.175 732.1063,634.175 Q732.2563,634.175 732.35,634.2813 Q732.4438,634.3813 732.4438,634.625 L732.4438,635.2063 Q732.4438,635.45 732.35,635.5563 Q732.2563,635.6625 732.1063,635.6625 Q731.9688,635.6625 731.8875,635.5813 Q731.8063,635.5063 731.7625,635.3 Q731.7438,635.1563 731.6688,635.0813 Q731.5375,634.9313 731.2938,634.8438 Q731.05,634.7563 730.8,634.7563 Q730.4938,634.7563 730.2375,634.8875 Q729.9875,635.0188 729.7875,635.3188 Q729.5938,635.6188 729.5938,636.0313 L729.5938,636.4688 Q729.5938,636.9625 729.95,637.2938 Q730.3063,637.6188 730.9438,637.6188 Q731.3188,637.6188 731.5813,637.5188 Q731.7375,637.4563 731.9063,637.2813 Q732.0125,637.175 732.0688,637.1438 Q732.1313,637.1125 732.2125,637.1125 Q732.3438,637.1125 732.4438,637.2188 Q732.55,637.3188 732.55,637.4563 Q732.55,637.5938 732.4125,637.7563 Q732.2125,637.9875 731.8938,638.1188 Q731.4625,638.3 730.9438,638.3 Q730.3375,638.3 729.8563,638.05 Q729.4625,637.85 729.1875,637.425 Q728.9125,636.9938 728.9125,636.4813 L728.9125,636.0188 Q728.9125,635.4875 729.1563,635.0313 Q729.4063,634.5688 729.8438,634.325 Q730.2813,634.075 730.775,634.075 Q731.0688,634.075 731.325,634.1438 Q731.5875,634.2063 731.8063,634.35 Z " fill="#000000"/><text fill="#000000" font-family="sans-serif" font-size="5.6" lengthAdjust="spacing" textLength="20.8" x="738.9" y="638.3188">Address</text><line style="stroke:#181818;stroke-width:0.20000000000000004;" x1="685.6" x2="800" y1="642.4" y2="642.4"/><text fill="#000000" font-family="sans-serif" font-size="5.6" lengthAdjust="spacing" textLength="17.2" x="687.6" y="650.043">-id : int</text><text fill="#000000" font-family="sans-serif" font-size="5.6" lengthAdjust="spacing" textLength="36" x="687.6" y="657.4914">-street : String</text><text fill="#000000" font-family="sans-serif" font-size="5.6" lengthAdjust="spacing" textLength="42" x="687.6" y="664.9398">-zipCode : String</text><text fill="#000000" font-family="sans-serif" font-size="5.6" lengthAdjust="spacing" textLength="33.2" x="687.6" y="672.3883">-town : String</text><text fill="#000000" font-family="sans-serif" font-size="5.6" lengthAdjust="spacing" textLength="40.4" x="687.6" y="679.8367">-country : String</text><line style="stroke:#181818;stroke-width:0.20000000000000004;" x1="685.6" x2="800" y1="682.8422" y2="682.8422"/><text fill="#000000" font-family="sans-serif" font-size="5.6" lengthAdjust="spacing" textLength="110.4" x="687.6" y="690.4852">+Address(id, street, zipCode, town, country)</text></g><!--class Order--><g id="elem_Order"><rect codeLine="98" fill="#F1F1F1" height="78.7875" id="Order" rx="1" ry="1" style="stroke:#181818;stroke-width:0.20000000000000004;" width="212" x="763.6" y="519.2"/><ellipse cx="860.5" cy="525.6" fill="#ADD1B2" rx="4.4" ry="4.4" style="stroke:#181818;stroke-width:0.4000000000000001;"/><path d="M861.6063,523.95 Q861.6688,523.8625 861.7438,523.8188 Q861.8188,523.775 861.9063,523.775 Q862.0563,523.775 862.15,523.8813 Q862.2438,523.9813 862.2438,524.225 L862.2438,524.8063 Q862.2438,525.05 862.15,525.1563 Q862.0563,525.2625 861.9063,525.2625 Q861.7688,525.2625 861.6875,525.1813 Q861.6063,525.1063 861.5625,524.9 Q861.5438,524.7563 861.4688,524.6813 Q861.3375,524.5313 861.0938,524.4438 Q860.85,524.3563 860.6,524.3563 Q860.2938,524.3563 860.0375,524.4875 Q859.7875,524.6188 859.5875,524.9188 Q859.3938,525.2188 859.3938,525.6313 L859.3938,526.0688 Q859.3938,526.5625 859.75,526.8938 Q860.1063,527.2188 860.7438,527.2188 Q861.1188,527.2188 861.3813,527.1188 Q861.5375,527.0563 861.7063,526.8813 Q861.8125,526.775 861.8688,526.7438 Q861.9313,526.7125 862.0125,526.7125 Q862.1438,526.7125 862.2438,526.8188 Q862.35,526.9188 862.35,527.0563 Q862.35,527.1938 862.2125,527.3563 Q862.0125,527.5875 861.6938,527.7188 Q861.2625,527.9 860.7438,527.9 Q860.1375,527.9 859.6563,527.65 Q859.2625,527.45 858.9875,527.025 Q858.7125,526.5938 858.7125,526.0813 L858.7125,525.6188 Q858.7125,525.0875 858.9563,524.6313 Q859.2063,524.1688 859.6438,523.925 Q860.0813,523.675 860.575,523.675 Q860.8688,523.675 861.125,523.7438 Q861.3875,523.8063 861.6063,523.95 Z " fill="#000000"/><text fill="#000000" font-family="sans-serif" font-size="5.6" lengthAdjust="spacing" textLength="14.8" x="868.7" y="527.9188">Order</text><line style="stroke:#181818;stroke-width:0.20000000000000004;" x1="764" x2="975.2" y1="532" y2="532"/><text fill="#000000" font-family="sans-serif" font-size="5.6" lengthAdjust="spacing" textLength="31.6" x="766" y="539.643">-orderID : int</text><text fill="#000000" font-family="sans-serif" font-size="5.6" lengthAdjust="spacing" textLength="68" x="766" y="547.0914">-deliveryAddress : Address</text><text fill="#000000" font-family="sans-serif" font-size="5.6" lengthAdjust="spacing" textLength="44.4" x="766" y="554.5398">-orderDate : Date</text><text fill="#000000" font-family="sans-serif" font-size="5.6" lengthAdjust="spacing" textLength="50.4" x="766" y="561.9883">-deliveryDate : Date</text><text fill="#000000" font-family="sans-serif" font-size="5.6" lengthAdjust="spacing" textLength="36.4" x="766" y="569.4367">-price : double</text><text fill="#000000" font-family="sans-serif" font-size="5.6" lengthAdjust="spacing" textLength="52.8" x="766" y="576.8852">-state : ProcessState</text><text fill="#000000" font-family="sans-serif" font-size="5.6" lengthAdjust="spacing" textLength="104.8" x="766" y="584.3336">-productQuantity : Map&lt;Product, Integer&gt;</text><line style="stroke:#181818;stroke-width:0.20000000000000004;" x1="764" x2="975.2" y1="587.3391" y2="587.3391"/><text fill="#000000" font-family="sans-serif" font-size="5.6" lengthAdjust="spacing" textLength="207.2" x="766" y="594.982">+Order(orderID, deliveryAddress, orderDate, deliveryDate, price, productQuantity)</text></g><!--class ProcessState--><g id="elem_ProcessState"><rect codeLine="109" fill="#F1F1F1" height="34.0969" id="ProcessState" rx="1" ry="1" style="stroke:#181818;stroke-width:0.20000000000000004;" width="46.4" x="814.4" y="644.6"/><ellipse cx="820.4" cy="651" fill="#EB937F" rx="4.4" ry="4.4" style="stroke:#181818;stroke-width:0.4000000000000001;"/><path d="M819.9438,651.3188 L819.9438,652.3188 L821.675,652.3188 L821.675,651.95 Q821.675,651.7063 821.7688,651.6 Q821.8688,651.4938 822.0188,651.4938 Q822.1688,651.4938 822.2625,651.6 Q822.3563,651.7063 822.3563,651.95 L822.3563,653 L819.1563,653 Q818.9063,653 818.8,652.9063 Q818.7,652.8125 818.7,652.6563 Q818.7,652.5063 818.8063,652.4125 Q818.9125,652.3188 819.1563,652.3188 L819.2625,652.3188 L819.2625,649.6563 L819.1563,649.6563 Q818.9063,649.6563 818.8,649.5625 Q818.7,649.4688 818.7,649.3125 Q818.7,649.1625 818.8,649.0688 Q818.9063,648.975 819.1563,648.975 L822.2063,648.975 L822.2063,650.0125 Q822.2063,650.2563 822.1125,650.3625 Q822.025,650.4625 821.8688,650.4625 Q821.7188,650.4625 821.625,650.3625 Q821.5313,650.2563 821.5313,650.0125 L821.5313,649.6563 L819.9438,649.6563 L819.9438,650.6375 L820.5375,650.6375 Q820.5375,650.375 820.5875,650.3 Q820.6938,650.1375 820.8813,650.1375 Q821.0313,650.1375 821.125,650.2438 Q821.2188,650.3438 821.2188,650.5875 L821.2188,651.375 Q821.2188,651.5938 821.1688,651.6688 Q821.0625,651.825 820.8813,651.825 Q820.6938,651.825 820.5875,651.6625 Q820.5375,651.5875 820.5375,651.3188 L819.9438,651.3188 Z " fill="#000000"/><text fill="#000000" font-family="sans-serif" font-size="5.6" lengthAdjust="spacing" textLength="33.6" x="826" y="653.3188">ProcessState</text><line style="stroke:#181818;stroke-width:0.20000000000000004;" x1="814.8" x2="860.4" y1="657.4" y2="657.4"/><text fill="#000000" font-family="sans-serif" font-size="5.6" lengthAdjust="spacing" textLength="24" x="816.8" y="665.043">PENDING</text><text fill="#000000" font-family="sans-serif" font-size="5.6" lengthAdjust="spacing" textLength="32.8" x="816.8" y="672.4914">CONFIRMED</text><line style="stroke:#181818;stroke-width:0.20000000000000004;" x1="814.8" x2="860.4" y1="675.4969" y2="675.4969"/></g><!--class Part--><g id="elem_Part"><rect codeLine="114" fill="#F1F1F1" height="48.9938" id="Part" rx="1" ry="1" style="stroke:#181818;stroke-width:0.20000000000000004;" width="74.8" x="926.2" y="718"/><ellipse cx="956.7" cy="724.4" fill="#ADD1B2" rx="4.4" ry="4.4" style="stroke:#181818;stroke-width:0.4000000000000001;"/><path d="M957.8063,722.75 Q957.8688,722.6625 957.9438,722.6188 Q958.0188,722.575 958.1063,722.575 Q958.2563,722.575 958.35,722.6813 Q958.4438,722.7813 958.4438,723.025 L958.4438,723.6063 Q958.4438,723.85 958.35,723.9563 Q958.2563,724.0625 958.1063,724.0625 Q957.9688,724.0625 957.8875,723.9813 Q957.8063,723.9063 957.7625,723.7 Q957.7438,723.5563 957.6688,723.4813 Q957.5375,723.3313 957.2938,723.2438 Q957.05,723.1563 956.8,723.1563 Q956.4938,723.1563 956.2375,723.2875 Q955.9875,723.4188 955.7875,723.7188 Q955.5938,724.0188 955.5938,724.4313 L955.5938,724.8688 Q955.5938,725.3625 955.95,725.6938 Q956.3063,726.0188 956.9438,726.0188 Q957.3188,726.0188 957.5813,725.9188 Q957.7375,725.8563 957.9063,725.6813 Q958.0125,725.575 958.0688,725.5438 Q958.1313,725.5125 958.2125,725.5125 Q958.3438,725.5125 958.4438,725.6188 Q958.55,725.7188 958.55,725.8563 Q958.55,725.9938 958.4125,726.1563 Q958.2125,726.3875 957.8938,726.5188 Q957.4625,726.7 956.9438,726.7 Q956.3375,726.7 955.8563,726.45 Q955.4625,726.25 955.1875,725.825 Q954.9125,725.3938 954.9125,724.8813 L954.9125,724.4188 Q954.9125,723.8875 955.1563,723.4313 Q955.4063,722.9688 955.8438,722.725 Q956.2813,722.475 956.775,722.475 Q957.0688,722.475 957.325,722.5438 Q957.5875,722.6063 957.8063,722.75 Z " fill="#000000"/><text fill="#000000" font-family="sans-serif" font-size="5.6" lengthAdjust="spacing" textLength="10.4" x="964.9" y="726.7188">Part</text><line style="stroke:#181818;stroke-width:0.20000000000000004;" x1="926.6" x2="1000.6" y1="730.8" y2="730.8"/><text fill="#000000" font-family="sans-serif" font-size="5.6" lengthAdjust="spacing" textLength="26" x="928.6" y="738.443">-id : String</text><text fill="#000000" font-family="sans-serif" font-size="5.6" lengthAdjust="spacing" textLength="35.6" x="928.6" y="745.8914">-name : String</text><text fill="#000000" font-family="sans-serif" font-size="5.6" lengthAdjust="spacing" textLength="49.2" x="928.6" y="753.3398">-description : String</text><line style="stroke:#181818;stroke-width:0.20000000000000004;" x1="926.6" x2="1000.6" y1="756.3453" y2="756.3453"/><text fill="#000000" font-family="sans-serif" font-size="5.6" lengthAdjust="spacing" textLength="70" x="928.6" y="763.9883">+Part(id, name, description)</text></g><!--class Product--><g id="elem_Product"><rect codeLine="121" fill="#F1F1F1" height="63.8906" id="Product" rx="1" ry="1" style="stroke:#181818;stroke-width:0.20000000000000004;" width="177.2" x="875" y="629.6"/><ellipse cx="952.1" cy="636" fill="#ADD1B2" rx="4.4" ry="4.4" style="stroke:#181818;stroke-width:0.4000000000000001;"/><path d="M953.2063,634.35 Q953.2688,634.2625 953.3438,634.2188 Q953.4188,634.175 953.5063,634.175 Q953.6563,634.175 953.75,634.2813 Q953.8438,634.3813 953.8438,634.625 L953.8438,635.2063 Q953.8438,635.45 953.75,635.5563 Q953.6563,635.6625 953.5063,635.6625 Q953.3688,635.6625 953.2875,635.5813 Q953.2063,635.5063 953.1625,635.3 Q953.1438,635.1563 953.0688,635.0813 Q952.9375,634.9313 952.6938,634.8438 Q952.45,634.7563 952.2,634.7563 Q951.8938,634.7563 951.6375,634.8875 Q951.3875,635.0188 951.1875,635.3188 Q950.9938,635.6188 950.9938,636.0313 L950.9938,636.4688 Q950.9938,636.9625 951.35,637.2938 Q951.7063,637.6188 952.3438,637.6188 Q952.7188,637.6188 952.9813,637.5188 Q953.1375,637.4563 953.3063,637.2813 Q953.4125,637.175 953.4688,637.1438 Q953.5313,637.1125 953.6125,637.1125 Q953.7438,637.1125 953.8438,637.2188 Q953.95,637.3188 953.95,637.4563 Q953.95,637.5938 953.8125,637.7563 Q953.6125,637.9875 953.2938,638.1188 Q952.8625,638.3 952.3438,638.3 Q951.7375,638.3 951.2563,638.05 Q950.8625,637.85 950.5875,637.425 Q950.3125,636.9938 950.3125,636.4813 L950.3125,636.0188 Q950.3125,635.4875 950.5563,635.0313 Q950.8063,634.5688 951.2438,634.325 Q951.6813,634.075 952.175,634.075 Q952.4688,634.075 952.725,634.1438 Q952.9875,634.2063 953.2063,634.35 Z " fill="#000000"/><text fill="#000000" font-family="sans-serif" font-size="5.6" lengthAdjust="spacing" textLength="19.6" x="960.3" y="638.3188">Product</text><line style="stroke:#181818;stroke-width:0.20000000000000004;" x1="875.4" x2="1051.8" y1="642.4" y2="642.4"/><text fill="#000000" font-family="sans-serif" font-size="5.6" lengthAdjust="spacing" textLength="71.6" x="877.4" y="650.043">-category : ProductCategory</text><text fill="#000000" font-family="sans-serif" font-size="5.6" lengthAdjust="spacing" textLength="33.6" x="877.4" y="657.4914">-capacity : int</text><text fill="#000000" font-family="sans-serif" font-size="5.6" lengthAdjust="spacing" textLength="22.4" x="877.4" y="664.9398">-size : int</text><text fill="#000000" font-family="sans-serif" font-size="5.6" lengthAdjust="spacing" textLength="34" x="877.4" y="672.3883">-color : String</text><text fill="#000000" font-family="sans-serif" font-size="5.6" lengthAdjust="spacing" textLength="36.4" x="877.4" y="679.8367">-price : double</text><line style="stroke:#181818;stroke-width:0.20000000000000004;" x1="875.4" x2="1051.8" y1="682.8422" y2="682.8422"/><text fill="#000000" font-family="sans-serif" font-size="5.6" lengthAdjust="spacing" textLength="172.4" x="877.4" y="690.4852">+Product(id, name, description, category, capacity, size, color, price)</text></g><!--class ClientException--><g id="elem_ClientException"><rect codeLine="132" fill="#F1F1F1" height="26.6484" id="ClientException" rx="1" ry="1" style="stroke:#181818;stroke-width:0.20000000000000004;" width="112" x="478.4" y="233.8"/><ellipse cx="513.3" cy="240.2" fill="#ADD1B2" rx="4.4" ry="4.4" style="stroke:#181818;stroke-width:0.4000000000000001;"/><path d="M514.4063,238.55 Q514.4688,238.4625 514.5438,238.4188 Q514.6188,238.375 514.7063,238.375 Q514.8563,238.375 514.95,238.4813 Q515.0438,238.5813 515.0438,238.825 L515.0438,239.4063 Q515.0438,239.65 514.95,239.7563 Q514.8563,239.8625 514.7063,239.8625 Q514.5688,239.8625 514.4875,239.7813 Q514.4063,239.7063 514.3625,239.5 Q514.3438,239.3563 514.2688,239.2813 Q514.1375,239.1313 513.8938,239.0438 Q513.65,238.9563 513.4,238.9563 Q513.0938,238.9563 512.8375,239.0875 Q512.5875,239.2188 512.3875,239.5188 Q512.1938,239.8188 512.1938,240.2313 L512.1938,240.6688 Q512.1938,241.1625 512.55,241.4938 Q512.9063,241.8188 513.5438,241.8188 Q513.9188,241.8188 514.1813,241.7188 Q514.3375,241.6563 514.5063,241.4813 Q514.6125,241.375 514.6688,241.3438 Q514.7313,241.3125 514.8125,241.3125 Q514.9438,241.3125 515.0438,241.4188 Q515.15,241.5188 515.15,241.6563 Q515.15,241.7938 515.0125,241.9563 Q514.8125,242.1875 514.4938,242.3188 Q514.0625,242.5 513.5438,242.5 Q512.9375,242.5 512.4563,242.25 Q512.0625,242.05 511.7875,241.625 Q511.5125,241.1938 511.5125,240.6813 L511.5125,240.2188 Q511.5125,239.6875 511.7563,239.2313 Q512.0063,238.7688 512.4438,238.525 Q512.8813,238.275 513.375,238.275 Q513.6688,238.275 513.925,238.3438 Q514.1875,238.4063 514.4063,238.55 Z " fill="#000000"/><text fill="#000000" font-family="sans-serif" font-size="5.6" lengthAdjust="spacing" textLength="38.8" x="521.5" y="242.5188">ClientException</text><line style="stroke:#181818;stroke-width:0.20000000000000004;" x1="478.8" x2="590" y1="246.6" y2="246.6"/><line style="stroke:#181818;stroke-width:0.20000000000000004;" x1="478.8" x2="590" y1="249.8" y2="249.8"/><text fill="#000000" font-family="sans-serif" font-size="5.6" lengthAdjust="spacing" textLength="107.2" x="480.8" y="257.443">+clientNotFound(clientID) : ClientException</text></g><!--class ProductException--><g id="elem_ProductException"><rect codeLine="136" fill="#F1F1F1" height="26.6484" id="ProductException" rx="1" ry="1" style="stroke:#181818;stroke-width:0.20000000000000004;" width="129.2" x="740.6" y="233.8"/><ellipse cx="781.5" cy="240.2" fill="#ADD1B2" rx="4.4" ry="4.4" style="stroke:#181818;stroke-width:0.4000000000000001;"/><path d="M782.6063,238.55 Q782.6688,238.4625 782.7438,238.4188 Q782.8188,238.375 782.9063,238.375 Q783.0563,238.375 783.15,238.4813 Q783.2438,238.5813 783.2438,238.825 L783.2438,239.4063 Q783.2438,239.65 783.15,239.7563 Q783.0563,239.8625 782.9063,239.8625 Q782.7688,239.8625 782.6875,239.7813 Q782.6063,239.7063 782.5625,239.5 Q782.5438,239.3563 782.4688,239.2813 Q782.3375,239.1313 782.0938,239.0438 Q781.85,238.9563 781.6,238.9563 Q781.2938,238.9563 781.0375,239.0875 Q780.7875,239.2188 780.5875,239.5188 Q780.3938,239.8188 780.3938,240.2313 L780.3938,240.6688 Q780.3938,241.1625 780.75,241.4938 Q781.1063,241.8188 781.7438,241.8188 Q782.1188,241.8188 782.3813,241.7188 Q782.5375,241.6563 782.7063,241.4813 Q782.8125,241.375 782.8688,241.3438 Q782.9313,241.3125 783.0125,241.3125 Q783.1438,241.3125 783.2438,241.4188 Q783.35,241.5188 783.35,241.6563 Q783.35,241.7938 783.2125,241.9563 Q783.0125,242.1875 782.6938,242.3188 Q782.2625,242.5 781.7438,242.5 Q781.1375,242.5 780.6563,242.25 Q780.2625,242.05 779.9875,241.625 Q779.7125,241.1938 779.7125,240.6813 L779.7125,240.2188 Q779.7125,239.6875 779.9563,239.2313 Q780.2063,238.7688 780.6438,238.525 Q781.0813,238.275 781.575,238.275 Q781.8688,238.275 782.125,238.3438 Q782.3875,238.4063 782.6063,238.55 Z " fill="#000000"/><text fill="#000000" font-family="sans-serif" font-size="5.6" lengthAdjust="spacing" textLength="44" x="789.7" y="242.5188">ProductException</text><line style="stroke:#181818;stroke-width:0.20000000000000004;" x1="741" x2="869.4" y1="246.6" y2="246.6"/><line style="stroke:#181818;stroke-width:0.20000000000000004;" x1="741" x2="869.4" y1="249.8" y2="249.8"/><text fill="#000000" font-family="sans-serif" font-size="5.6" lengthAdjust="spacing" textLength="124.4" x="743" y="257.443">+productNotFound(productID) : ProductException</text></g><!--class OrderException--><g id="elem_OrderException"><rect codeLine="140" fill="#F1F1F1" height="41.5453" id="OrderException" rx="1" ry="1" style="stroke:#181818;stroke-width:0.20000000000000004;" width="122" x="604.6" y="226.4"/><ellipse cx="644.3" cy="232.8" fill="#ADD1B2" rx="4.4" ry="4.4" style="stroke:#181818;stroke-width:0.4000000000000001;"/><path d="M645.4063,231.15 Q645.4688,231.0625 645.5438,231.0188 Q645.6188,230.975 645.7063,230.975 Q645.8563,230.975 645.95,231.0813 Q646.0438,231.1813 646.0438,231.425 L646.0438,232.0063 Q646.0438,232.25 645.95,232.3563 Q645.8563,232.4625 645.7063,232.4625 Q645.5688,232.4625 645.4875,232.3813 Q645.4063,232.3063 645.3625,232.1 Q645.3438,231.9563 645.2688,231.8813 Q645.1375,231.7313 644.8938,231.6438 Q644.65,231.5563 644.4,231.5563 Q644.0938,231.5563 643.8375,231.6875 Q643.5875,231.8188 643.3875,232.1188 Q643.1938,232.4188 643.1938,232.8313 L643.1938,233.2688 Q643.1938,233.7625 643.55,234.0938 Q643.9063,234.4188 644.5438,234.4188 Q644.9188,234.4188 645.1813,234.3188 Q645.3375,234.2563 645.5063,234.0813 Q645.6125,233.975 645.6688,233.9438 Q645.7313,233.9125 645.8125,233.9125 Q645.9438,233.9125 646.0438,234.0188 Q646.15,234.1188 646.15,234.2563 Q646.15,234.3938 646.0125,234.5563 Q645.8125,234.7875 645.4938,234.9188 Q645.0625,235.1 644.5438,235.1 Q643.9375,235.1 643.4563,234.85 Q643.0625,234.65 642.7875,234.225 Q642.5125,233.7938 642.5125,233.2813 L642.5125,232.8188 Q642.5125,232.2875 642.7563,231.8313 Q643.0063,231.3688 643.4438,231.125 Q643.8813,230.875 644.375,230.875 Q644.6688,230.875 644.925,230.9438 Q645.1875,231.0063 645.4063,231.15 Z " fill="#000000"/><text fill="#000000" font-family="sans-serif" font-size="5.6" lengthAdjust="spacing" textLength="39.2" x="652.5" y="235.1188">OrderException</text><line style="stroke:#181818;stroke-width:0.20000000000000004;" x1="605" x2="726.2" y1="239.2" y2="239.2"/><line style="stroke:#181818;stroke-width:0.20000000000000004;" x1="605" x2="726.2" y1="242.4" y2="242.4"/><text fill="#000000" font-family="sans-serif" font-size="5.6" lengthAdjust="spacing" textLength="117.2" x="607" y="250.043">+orderAlreadyExists(orderID) : OrderException</text><text fill="#000000" font-family="sans-serif" font-size="5.6" lengthAdjust="spacing" textLength="99.6" x="607" y="257.4914">+invalidDeliveryDate() : OrderException</text><text fill="#000000" font-family="sans-serif" font-size="5.6" lengthAdjust="spacing" textLength="88.4" x="607" y="264.9398">+invalidZipCode() : OrderException</text></g><!--class RuntimeException--><g id="elem_RuntimeException"><rect codeLine="146" fill="#F1F1F1" height="19.2" id="RuntimeException" rx="1" ry="1" style="stroke:#181818;stroke-width:0.20000000000000004;" width="58" x="636.6" y="322"/><ellipse cx="642.6" cy="328.4" fill="#ADD1B2" rx="4.4" ry="4.4" style="stroke:#181818;stroke-width:0.4000000000000001;"/><path d="M643.7063,326.75 Q643.7688,326.6625 643.8438,326.6188 Q643.9188,326.575 644.0063,326.575 Q644.1563,326.575 644.25,326.6813 Q644.3438,326.7813 644.3438,327.025 L644.3438,327.6063 Q644.3438,327.85 644.25,327.9563 Q644.1563,328.0625 644.0063,328.0625 Q643.8688,328.0625 643.7875,327.9813 Q643.7063,327.9063 643.6625,327.7 Q643.6438,327.5563 643.5688,327.4813 Q643.4375,327.3313 643.1938,327.2438 Q642.95,327.1563 642.7,327.1563 Q642.3938,327.1563 642.1375,327.2875 Q641.8875,327.4188 641.6875,327.7188 Q641.4938,328.0188 641.4938,328.4313 L641.4938,328.8688 Q641.4938,329.3625 641.85,329.6938 Q642.2063,330.0188 642.8438,330.0188 Q643.2188,330.0188 643.4813,329.9188 Q643.6375,329.8563 643.8063,329.6813 Q643.9125,329.575 643.9688,329.5438 Q644.0313,329.5125 644.1125,329.5125 Q644.2438,329.5125 644.3438,329.6188 Q644.45,329.7188 644.45,329.8563 Q644.45,329.9938 644.3125,330.1563 Q644.1125,330.3875 643.7938,330.5188 Q643.3625,330.7 642.8438,330.7 Q642.2375,330.7 641.7563,330.45 Q641.3625,330.25 641.0875,329.825 Q640.8125,329.3938 640.8125,328.8813 L640.8125,328.4188 Q640.8125,327.8875 641.0563,327.4313 Q641.3063,326.9688 641.7438,326.725 Q642.1813,326.475 642.675,326.475 Q642.9688,326.475 643.225,326.5438 Q643.4875,326.6063 643.7063,326.75 Z " fill="#000000"/><text fill="#000000" font-family="sans-serif" font-size="5.6" lengthAdjust="spacing" textLength="45.2" x="648.2" y="330.7188">RuntimeException</text><line style="stroke:#181818;stroke-width:0.20000000000000004;" x1="637" x2="694.2" y1="334.8" y2="334.8"/><line style="stroke:#181818;stroke-width:0.20000000000000004;" x1="637" x2="694.2" y1="338" y2="338"/></g><!--class Validator--><g id="elem_Validator"><rect codeLine="150" fill="#F1F1F1" height="26.6484" id="Validator" rx="1" ry="1" style="stroke:#181818;stroke-width:0.20000000000000004;" width="95.2" x="940.8" y="233.8"/><ellipse cx="975.5" cy="240.2" fill="#ADD1B2" rx="4.4" ry="4.4" style="stroke:#181818;stroke-width:0.4000000000000001;"/><path d="M976.6063,238.55 Q976.6688,238.4625 976.7438,238.4188 Q976.8188,238.375 976.9063,238.375 Q977.0563,238.375 977.15,238.4813 Q977.2438,238.5813 977.2438,238.825 L977.2438,239.4063 Q977.2438,239.65 977.15,239.7563 Q977.0563,239.8625 976.9063,239.8625 Q976.7688,239.8625 976.6875,239.7813 Q976.6063,239.7063 976.5625,239.5 Q976.5438,239.3563 976.4688,239.2813 Q976.3375,239.1313 976.0938,239.0438 Q975.85,238.9563 975.6,238.9563 Q975.2938,238.9563 975.0375,239.0875 Q974.7875,239.2188 974.5875,239.5188 Q974.3938,239.8188 974.3938,240.2313 L974.3938,240.6688 Q974.3938,241.1625 974.75,241.4938 Q975.1063,241.8188 975.7438,241.8188 Q976.1188,241.8188 976.3813,241.7188 Q976.5375,241.6563 976.7063,241.4813 Q976.8125,241.375 976.8688,241.3438 Q976.9313,241.3125 977.0125,241.3125 Q977.1438,241.3125 977.2438,241.4188 Q977.35,241.5188 977.35,241.6563 Q977.35,241.7938 977.2125,241.9563 Q977.0125,242.1875 976.6938,242.3188 Q976.2625,242.5 975.7438,242.5 Q975.1375,242.5 974.6563,242.25 Q974.2625,242.05 973.9875,241.625 Q973.7125,241.1938 973.7125,240.6813 L973.7125,240.2188 Q973.7125,239.6875 973.9563,239.2313 Q974.2063,238.7688 974.6438,238.525 Q975.0813,238.275 975.575,238.275 Q975.8688,238.275 976.125,238.3438 Q976.3875,238.4063 976.6063,238.55 Z " fill="#000000"/><text fill="#000000" font-family="sans-serif" font-size="5.6" lengthAdjust="spacing" textLength="22.4" x="983.7" y="242.5188">Validator</text><line style="stroke:#181818;stroke-width:0.20000000000000004;" x1="941.2" x2="1035.6" y1="246.6" y2="246.6"/><line style="stroke:#181818;stroke-width:0.20000000000000004;" x1="941.2" x2="1035.6" y1="249.8" y2="249.8"/><text fill="#000000" font-family="sans-serif" font-size="5.6" lengthAdjust="spacing" textLength="90.4" x="943.2" y="257.443">+isValidZipCode(zipCode) : boolean</text></g><!--link RegisterOrderUI to ClientController--><g id="link_RegisterOrderUI_ClientController"><path codeLine="156" d="M540.376,30.92 C484.42,37.848 360.4,53.2 360.4,53.2 C360.4,53.2 349.5777,60.8716 337.1017,69.7196 " fill="none" id="RegisterOrderUI-to-ClientController" style="stroke:#181818;stroke-width:0.4000000000000001;stroke-dasharray:7.0,7.0;"/><polygon fill="#181818" points="335.144,71.108,339.0061,70.3305,336.7754,69.951,337.1549,67.7203,335.144,71.108" style="stroke:#181818;stroke-width:0.4000000000000001;"/></g><!--link RegisterOrderUI to OrderController--><g id="link_RegisterOrderUI_OrderController"><path codeLine="157" d="M567.2,36.876 C567.2,47 567.2,60.892 567.2,72.316 " fill="none" id="RegisterOrderUI-to-OrderController" style="stroke:#181818;stroke-width:0.4000000000000001;stroke-dasharray:7.0,7.0;"/><polygon fill="#181818" points="567.2,74.716,568.8,71.116,567.2,72.716,565.6,71.116,567.2,74.716" style="stroke:#181818;stroke-width:0.4000000000000001;"/></g><!--link RegisterOrderUI to ProductController--><g id="link_RegisterOrderUI_ProductController"><path codeLine="158" d="M594.076,30.92 C650.14,37.848 774.4,53.2 774.4,53.2 C774.4,53.2 788.7133,63.5164 802.3053,73.3164 " fill="none" id="RegisterOrderUI-to-ProductController" style="stroke:#181818;stroke-width:0.4000000000000001;stroke-dasharray:7.0,7.0;"/><polygon fill="#181818" points="804.252,74.72,802.2676,71.3167,802.6297,73.5503,800.3961,73.9124,804.252,74.72" style="stroke:#181818;stroke-width:0.4000000000000001;"/></g><!--link ClientController to ClientService--><g id="link_ClientController_ClientService"><path codeLine="159" d="M313.48,105.312 C314.652,115.748 315.8879,126.755 317.0599,137.179 " fill="none" id="ClientController-to-ClientService" style="stroke:#181818;stroke-width:0.4000000000000001;stroke-dasharray:7.0,7.0;"/><polygon fill="#181818" points="317.328,139.564,318.5158,135.8078,317.1045,137.5765,315.3358,136.1653,317.328,139.564" style="stroke:#181818;stroke-width:0.4000000000000001;"/></g><!--link OrderController to OrderService--><g id="link_OrderController_OrderService"><path codeLine="160" d="M566.352,101.632 C565.648,112.416 564.8038,125.4051 564.0438,137.0891 " fill="none" id="OrderController-to-OrderService" style="stroke:#181818;stroke-width:0.4000000000000001;stroke-dasharray:7.0,7.0;"/><polygon fill="#181818" points="563.888,139.484,565.7183,135.9954,564.0178,137.4882,562.525,135.7877,563.888,139.484" style="stroke:#181818;stroke-width:0.4000000000000001;"/></g><!--link OrderController to ProductService--><g id="link_OrderController_ProductService"><path codeLine="161" d="M642.472,101.62 C695.836,110.848 758,121.6 758,121.6 C758,121.6 770.8222,129.4116 785.3502,138.2596 " fill="none" id="OrderController-to-ProductService" style="stroke:#181818;stroke-width:0.4000000000000001;stroke-dasharray:7.0,7.0;"/><polygon fill="#181818" points="787.4,139.508,785.1576,136.2689,785.6919,138.4677,783.4931,139.002,787.4,139.508" style="stroke:#181818;stroke-width:0.4000000000000001;"/></g><!--link ProductController to ProductService--><g id="link_ProductController_ProductService"><path codeLine="162" d="M820.936,101.632 C819.724,112.416 818.2598,125.415 816.9478,137.099 " fill="none" id="ProductController-to-ProductService" style="stroke:#181818;stroke-width:0.4000000000000001;stroke-dasharray:7.0,7.0;"/><polygon fill="#181818" points="816.68,139.484,818.6717,136.085,816.9032,137.4965,815.4917,135.7279,816.68,139.484" style="stroke:#181818;stroke-width:0.4000000000000001;"/></g><!--link ClientService to Repositories--><g id="link_ClientService_Repositories"><path codeLine="163" d="M277.776,173.548 C261.04,180.232 245.6,186.4 245.6,186.4 C245.6,186.4 228.2925,199.1488 208.4525,213.7608 " fill="none" id="ClientService-to-Repositories" style="stroke:#181818;stroke-width:0.4000000000000001;stroke-dasharray:7.0,7.0;"/><polygon fill="#181818" points="206.52,215.184,210.3675,214.3374,208.1304,213.998,208.4699,211.7608,206.52,215.184" style="stroke:#181818;stroke-width:0.4000000000000001;"/><text fill="#000000" font-family="sans-serif" font-size="5.2" lengthAdjust="spacing" textLength="26.8" x="246" y="192.4113">repositories</text></g><!--link OrderService to Repositories--><g id="link_OrderService_Repositories"><path codeLine="164" d="M454.088,173.612 C410.504,180.272 370.4,186.4 370.4,186.4 C370.4,186.4 356,194 356,194 C356,194 266.4,197.2 266.4,197.2 C266.4,197.2 248.6215,205.777 226.3055,216.545 " fill="none" id="OrderService-to-Repositories" style="stroke:#181818;stroke-width:0.4000000000000001;stroke-dasharray:7.0,7.0;"/><polygon fill="#181818" points="224.144,217.588,228.0816,217.4645,225.9453,216.7188,226.691,214.5825,224.144,217.588" style="stroke:#181818;stroke-width:0.4000000000000001;"/><text fill="#000000" font-family="sans-serif" font-size="5.2" lengthAdjust="spacing" textLength="26.8" x="370.8" y="192.4113">repositories</text></g><!--link ProductService to Repositories--><g id="link_ProductService_Repositories"><path codeLine="165" d="M784.54,173.66 C766.704,183.48 747.6,194 747.6,194 C747.6,194 266.4,197.2 266.4,197.2 C266.4,197.2 248.6215,205.777 226.3055,216.545 " fill="none" id="ProductService-to-Repositories" style="stroke:#181818;stroke-width:0.4000000000000001;stroke-dasharray:7.0,7.0;"/><polygon fill="#181818" points="224.144,217.588,228.0816,217.4645,225.9453,216.7188,226.691,214.5825,224.144,217.588" style="stroke:#181818;stroke-width:0.4000000000000001;"/><text fill="#000000" font-family="sans-serif" font-size="5.2" lengthAdjust="spacing" textLength="26.8" x="760.8" y="192.4113">repositories</text></g><!--link ClientService to ClientRepository--><g id="link_ClientService_ClientRepository"><path codeLine="166" d="M308.9,173.7 C302.084,184.744 294.4,197.2 294.4,197.2 C294.4,197.2 294.4,279.2 294.4,279.2 C294.4,279.2 298.9013,296.9338 302.7613,312.1338 " fill="none" id="ClientService-to-ClientRepository" style="stroke:#181818;stroke-width:0.4000000000000001;stroke-dasharray:7.0,7.0;"/><polygon fill="#181818" points="303.352,314.46,304.0167,310.5769,302.8597,312.5215,300.9151,311.3646,303.352,314.46" style="stroke:#181818;stroke-width:0.4000000000000001;"/><text fill="#000000" font-family="sans-serif" font-size="5.2" lengthAdjust="spacing" textLength="37.2" x="294.8" y="249.4113">clientRepository</text></g><!--link OrderService to OrderRepository--><g id="link_OrderService_OrderRepository"><path codeLine="167" d="M446.632,173.612 C400.052,180.272 357.2,186.4 357.2,186.4 C357.2,186.4 324.8,194 324.8,194 C324.8,194 59.2,197.2 59.2,197.2 C59.2,197.2 57.3132,276.1807 56.4572,312.1007 " fill="none" id="OrderService-to-OrderRepository" style="stroke:#181818;stroke-width:0.4000000000000001;stroke-dasharray:7.0,7.0;"/><polygon fill="#181818" points="56.4,314.5,58.0853,310.9391,56.4476,312.5006,54.8862,310.8629,56.4,314.5" style="stroke:#181818;stroke-width:0.4000000000000001;"/><text fill="#000000" font-family="sans-serif" font-size="5.2" lengthAdjust="spacing" textLength="36.4" x="59.6" y="249.4113">orderRepository</text></g><!--link OrderService to AddressRepository--><g id="link_OrderService_AddressRepository"><path codeLine="168" d="M489.556,173.604 C446.168,183.444 399.6,194 399.6,194 C399.6,194 360.4,197.2 360.4,197.2 C360.4,197.2 340.8,298.8 340.8,298.8 C340.8,298.8 266.4,310.8 266.4,310.8 C266.4,310.8 266.0226,310.8996 261.6266,312.0436 " fill="none" id="OrderService-to-AddressRepository" style="stroke:#181818;stroke-width:0.4000000000000001;stroke-dasharray:7.0,7.0;"/><polygon fill="#181818" points="259.304,312.648,263.1909,313.2898,261.2395,312.1443,262.385,310.1929,259.304,312.648" style="stroke:#181818;stroke-width:0.4000000000000001;"/><text fill="#000000" font-family="sans-serif" font-size="5.2" lengthAdjust="spacing" textLength="43.2" x="360.8" y="249.4113">addressRepository</text></g><!--link ProductService to ProductRepository--><g id="link_ProductService_ProductRepository"><path codeLine="169" d="M804.172,173.66 C797.908,183.48 791.2,194 791.2,194 C791.2,194 429.2,197.2 429.2,197.2 C429.2,197.2 415.5215,276.2152 409.3015,312.1352 " fill="none" id="ProductService-to-ProductRepository" style="stroke:#181818;stroke-width:0.4000000000000001;stroke-dasharray:7.0,7.0;"/><polygon fill="#181818" points="408.892,314.5,411.0828,311.2258,409.2332,312.5293,407.9297,310.6798,408.892,314.5" style="stroke:#181818;stroke-width:0.4000000000000001;"/><text fill="#000000" font-family="sans-serif" font-size="5.2" lengthAdjust="spacing" textLength="42" x="429.6" y="249.4113">productRepository</text></g><!--link ClientService to Client--><g id="link_ClientService_Client"><path codeLine="170" d="M334.328,173.66 C343.248,183.48 352.8,194 352.8,194 C352.8,194 876.4,197.2 876.4,197.2 C876.4,197.2 876.4,362 876.4,362 C876.4,362 863.9547,375.2583 848.1067,392.1383 " fill="none" id="ClientService-to-Client" style="stroke:#181818;stroke-width:0.4000000000000001;stroke-dasharray:7.0,7.0;"/><polygon fill="#181818" points="846.464,393.888,850.0946,392.3586,847.8329,392.4299,847.7616,390.1683,846.464,393.888" style="stroke:#181818;stroke-width:0.4000000000000001;"/><text fill="#000000" font-family="sans-serif" font-size="5.2" lengthAdjust="spacing" textLength="12.4" x="876.8" y="297.2113">client</text></g><!--link OrderService to Order--><g id="link_OrderService_Order"><path codeLine="171" d="M632.992,173.604 C674.572,183.444 719.2,194 719.2,194 C719.2,194 886.8,197.2 886.8,197.2 C886.8,197.2 892.8,291.2 892.8,291.2 C892.8,291.2 894.8,376 894.8,376 C894.8,376 894.8,487.6 894.8,487.6 C894.8,487.6 890.1628,500.5957 884.3348,516.9237 " fill="none" id="OrderService-to-Order" style="stroke:#181818;stroke-width:0.4000000000000001;stroke-dasharray:7.0,7.0;"/><polygon fill="#181818" points="883.528,519.184,886.2451,516.3314,884.2003,517.3004,883.2313,515.2556,883.528,519.184" style="stroke:#181818;stroke-width:0.4000000000000001;"/><text fill="#000000" font-family="sans-serif" font-size="5.2" lengthAdjust="spacing" textLength="11.6" x="894.8" y="333.8113">order</text></g><!--link OrderService to Address--><g id="link_OrderService_Address"><path codeLine="172" d="M666.312,173.612 C707.816,180.272 746,186.4 746,186.4 C746,186.4 763.6,194 763.6,194 C763.6,194 1042.4,197.2 1042.4,197.2 C1042.4,197.2 1057.2,294.6 1057.2,294.6 C1057.2,294.6 1057.2,294.6 1057.2,559 C1057.2,559 982.8,598 982.8,598 C982.8,598 934.4,617.6 934.4,617.6 C934.4,617.6 807.6,629.6 807.6,629.6 C807.6,629.6 806.9815,629.9047 802.5735,632.0527 " fill="none" id="OrderService-to-Address" style="stroke:#181818;stroke-width:0.4000000000000001;stroke-dasharray:7.0,7.0;"/><polygon fill="#181818" points="800.416,633.104,804.3531,632.9653,802.2139,632.2279,802.9513,630.0887,800.416,633.104" style="stroke:#181818;stroke-width:0.4000000000000001;"/><text fill="#000000" font-family="sans-serif" font-size="5.2" lengthAdjust="spacing" textLength="18.4" x="1057.6" y="371.2113">address</text></g><!--link ProductService to Product--><g id="link_ProductService_Product"><path codeLine="173" d="M864.896,164.968 C938.596,176.684 1067.6,197.2 1067.6,197.2 C1067.6,197.2 1092.4,246.8 1092.4,246.8 C1092.4,246.8 1092.4,246.8 1092.4,559 C1092.4,559 1067.6,617.6 1067.6,617.6 C1067.6,617.6 1057.4533,621.8518 1041.2573,628.6438 " fill="none" id="ProductService-to-Product" style="stroke:#181818;stroke-width:0.4000000000000001;stroke-dasharray:7.0,7.0;"/><polygon fill="#181818" points="1039.044,629.572,1042.9827,629.6553,1040.8884,628.7985,1041.7451,626.7043,1039.044,629.572" style="stroke:#181818;stroke-width:0.4000000000000001;"/><text fill="#000000" font-family="sans-serif" font-size="5.2" lengthAdjust="spacing" textLength="17.2" x="1092.8" y="371.2113">product</text></g><!--link Repositories to Repositories--><g id="link_Repositories_Repositories"><path codeLine="174" d="M224.028,239.304 C232.404,240.604 238,243.236 238,247.2 C238,251.164 234.7756,253.4279 226.3996,254.7279 " fill="none" id="Repositories-to-Repositories" style="stroke:#181818;stroke-width:0.4000000000000001;"/><polygon fill="#181818" points="224.028,255.096,227.8308,256.1249,226.0043,254.7893,227.34,252.9628,224.028,255.096" style="stroke:#181818;stroke-width:0.4000000000000001;"/><text fill="#000000" font-family="sans-serif" font-size="5.2" lengthAdjust="spacing" textLength="19.6" x="240.4" y="249.4113">instance</text></g><!--link Repositories to ClientRepository--><g id="link_Repositories_ClientRepository"><path codeLine="175" d="M178.212,279.296 C183.04,289.772 187.2,298.8 187.2,298.8 C187.2,298.8 266.4,310.8 266.4,310.8 C266.4,310.8 267.3292,311.2592 271.8052,313.4752 " fill="none" id="Repositories-to-ClientRepository" style="stroke:#181818;stroke-width:0.4000000000000001;"/><polygon fill="#181818" points="273.956,314.54,271.4396,311.5088,272.1636,313.6526,270.0198,314.3766,273.956,314.54" style="stroke:#181818;stroke-width:0.4000000000000001;"/><text fill="#000000" font-family="sans-serif" font-size="5.2" lengthAdjust="spacing" textLength="37.2" x="187.6" y="297.2113">clientRepository</text><text fill="#000000" font-family="sans-serif" font-size="5.2" lengthAdjust="spacing" textLength="2.8" x="176.5061" y="287.8562">1</text><text fill="#000000" font-family="sans-serif" font-size="5.2" lengthAdjust="spacing" textLength="2.8" x="267.3231" y="311.1146">1</text></g><!--link Repositories to AddressRepository--><g id="link_Repositories_AddressRepository"><path codeLine="176" d="M137.148,279.288 C131.5,286.048 127.2,291.2 127.2,291.2 C127.2,291.2 127.2,298.8 127.2,298.8 C127.2,298.8 135.4057,303.1758 147.5497,309.6438 " fill="none" id="Repositories-to-AddressRepository" style="stroke:#181818;stroke-width:0.4000000000000001;"/><polygon fill="#181818" points="149.668,310.772,147.2427,307.6675,147.9028,309.8318,145.7384,310.4919,149.668,310.772" style="stroke:#181818;stroke-width:0.4000000000000001;"/><text fill="#000000" font-family="sans-serif" font-size="5.2" lengthAdjust="spacing" textLength="43.2" x="127.6" y="297.2113">addressRepository</text><text fill="#000000" font-family="sans-serif" font-size="5.2" lengthAdjust="spacing" textLength="2.8" x="132.0415" y="287.8475">1</text><text fill="#000000" font-family="sans-serif" font-size="5.2" lengthAdjust="spacing" textLength="2.8" x="141.529" y="306.3392">1</text></g><!--link Repositories to OrderRepository--><g id="link_Repositories_OrderRepository"><path codeLine="177" d="M107.888,279.228 C95.928,286.02 86.8,291.2 86.8,291.2 C86.8,291.2 78.7198,301.6901 70.2598,312.6821 " fill="none" id="Repositories-to-OrderRepository" style="stroke:#181818;stroke-width:0.4000000000000001;"/><polygon fill="#181818" points="68.796,314.584,72.2597,312.707,70.0158,312.9991,69.7238,310.7553,68.796,314.584" style="stroke:#181818;stroke-width:0.4000000000000001;"/><text fill="#000000" font-family="sans-serif" font-size="5.2" lengthAdjust="spacing" textLength="36.4" x="87.2" y="297.2113">orderRepository</text><text fill="#000000" font-family="sans-serif" font-size="5.2" lengthAdjust="spacing" textLength="2.8" x="100.1799" y="287.8936">1</text><text fill="#000000" font-family="sans-serif" font-size="5.2" lengthAdjust="spacing" textLength="2.8" x="67.8122" y="310.1431">1</text></g><!--link Repositories to ProductRepository--><g id="link_Repositories_ProductRepository"><path codeLine="178" d="M224.112,268.252 C278.14,286.688 348.8,310.8 348.8,310.8 C348.8,310.8 350.8793,311.5422 357.1633,313.7822 " fill="none" id="Repositories-to-ProductRepository" style="stroke:#181818;stroke-width:0.4000000000000001;"/><polygon fill="#181818" points="359.424,314.588,356.5702,311.8721,357.5401,313.9165,355.4958,314.8864,359.424,314.588" style="stroke:#181818;stroke-width:0.4000000000000001;"/><text fill="#000000" font-family="sans-serif" font-size="5.2" lengthAdjust="spacing" textLength="42" x="313.6" y="297.2113">productRepository</text><text fill="#000000" font-family="sans-serif" font-size="5.2" lengthAdjust="spacing" textLength="2.8" x="227.1109" y="267.9238">1</text><text fill="#000000" font-family="sans-serif" font-size="5.2" lengthAdjust="spacing" textLength="2.8" x="349.8774" y="310.5303">1</text></g><!--link ClientRepository to Client--><g id="link_ClientRepository_Client"><path codeLine="179" d="M330.712,348.668 C340.288,355.572 349.2,362 349.2,362 C349.2,362 584.0391,402.5913 715.3831,425.2913 " fill="none" id="ClientRepository-to-Client" style="stroke:#181818;stroke-width:0.4000000000000001;"/><polygon fill="#181818" points="717.748,425.7,714.4731,423.5103,715.7772,425.3594,713.9281,426.6635,717.748,425.7" style="stroke:#181818;stroke-width:0.4000000000000001;"/><text fill="#000000" font-family="sans-serif" font-size="5.2" lengthAdjust="spacing" textLength="24" x="405.6" y="371.2113">categories</text><text fill="#000000" font-family="sans-serif" font-size="5.2" lengthAdjust="spacing" textLength="2.8" x="331.3724" y="357.543">1</text><text fill="#000000" font-family="sans-serif" font-size="5.2" lengthAdjust="spacing" textLength="2" x="712.6555" y="423.8471">*</text></g><!--link AddressRepository to Address--><g id="link_AddressRepository_Address"><path codeLine="180" d="M213.232,352.424 C293.98,417.792 540.8,617.6 540.8,617.6 C540.8,617.6 623.134,635.3696 682.838,648.2576 " fill="none" id="AddressRepository-to-Address" style="stroke:#181818;stroke-width:0.4000000000000001;"/><polygon fill="#181818" points="685.184,648.764,682.0027,646.4404,683.229,648.342,681.3274,649.5684,685.184,648.764" style="stroke:#181818;stroke-width:0.4000000000000001;"/><text fill="#000000" font-family="sans-serif" font-size="5.2" lengthAdjust="spacing" textLength="24" x="401.2" y="505.6113">categories</text><text fill="#000000" font-family="sans-serif" font-size="5.2" lengthAdjust="spacing" textLength="2.8" x="213.4855" y="361.15">1</text><text fill="#000000" font-family="sans-serif" font-size="5.2" lengthAdjust="spacing" textLength="2" x="679.9784" y="646.6936">*</text></g><!--link OrderRepository to Order--><g id="link_OrderRepository_Order"><path codeLine="181" d="M71.464,348.64 C112.1,392.372 218.8,507.2 218.8,507.2 C218.8,507.2 760,519.2 760,519.2 C760,519.2 759.0016,518.8511 761.2616,519.6511 " fill="none" id="OrderRepository-to-Order" style="stroke:#181818;stroke-width:0.4000000000000001;"/><polygon fill="#181818" points="763.524,520.452,760.6643,517.7424,761.6386,519.7846,759.5964,520.759,763.524,520.452" style="stroke:#181818;stroke-width:0.4000000000000001;"/><text fill="#000000" font-family="sans-serif" font-size="5.2" lengthAdjust="spacing" textLength="24" x="200.4" y="443.0113">categories</text><text fill="#000000" font-family="sans-serif" font-size="5.2" lengthAdjust="spacing" textLength="2.8" x="70.9055" y="357.5105">1</text><text fill="#000000" font-family="sans-serif" font-size="5.2" lengthAdjust="spacing" textLength="2" x="758.3452" y="518.0318">*</text></g><!--link ProductRepository to Product--><g id="link_ProductRepository_Product"><path codeLine="182" d="M426.992,348.64 C500.464,406.872 741.6,598 741.6,598 C741.6,598 795.2,617.6 795.2,617.6 C795.2,617.6 868,629.6 868,629.6 C868,629.6 868.2928,629.7 872.5968,631.12 " fill="none" id="ProductRepository-to-Product" style="stroke:#181818;stroke-width:0.4000000000000001;"/><polygon fill="#181818" points="874.876,631.872,871.9586,629.2246,872.9767,631.2454,870.956,632.2635,874.876,631.872" style="stroke:#181818;stroke-width:0.4000000000000001;"/><text fill="#000000" font-family="sans-serif" font-size="5.2" lengthAdjust="spacing" textLength="24" x="623.6" y="505.6113">categories</text><text fill="#000000" font-family="sans-serif" font-size="5.2" lengthAdjust="spacing" textLength="2.8" x="427.3145" y="357.5105">1</text><text fill="#000000" font-family="sans-serif" font-size="5.2" lengthAdjust="spacing" textLength="2" x="869.9319" y="629.6">*</text></g><!--link Client to Address--><g id="link_Client_Address"><path codeLine="183" d="M769.892,487.7 C758.072,504.404 747.6,519.2 747.6,519.2 C747.6,519.2 745.3649,585.2614 743.9529,627.1094 " fill="none" id="Client-to-Address" style="stroke:#181818;stroke-width:0.4000000000000001;"/><polygon fill="#181818" points="743.872,629.508,745.5925,625.964,743.9394,627.5091,742.3943,625.8561,743.872,629.508" style="stroke:#181818;stroke-width:0.4000000000000001;"/><text fill="#000000" font-family="sans-serif" font-size="5.2" lengthAdjust="spacing" textLength="8.4" x="748" y="560.8113">has</text><text fill="#000000" font-family="sans-serif" font-size="5.2" lengthAdjust="spacing" textLength="2" x="765.7198" y="496.5347">*</text><text fill="#000000" font-family="sans-serif" font-size="5.2" lengthAdjust="spacing" textLength="2.8" x="741.0418" y="625.0578">1</text></g><!--link Client to Order--><g id="link_Client_Order"><path codeLine="184" d="M829.296,487.608 C835.272,498.072 840.3621,506.9918 846.1421,517.1158 " fill="none" id="Client-to-Order" style="stroke:#181818;stroke-width:0.4000000000000001;"/><polygon fill="#181818" points="847.332,519.2,846.9366,515.2804,846.3404,517.4631,844.1576,516.8669,847.332,519.2" style="stroke:#181818;stroke-width:0.4000000000000001;"/><text fill="#000000" font-family="sans-serif" font-size="5.2" lengthAdjust="spacing" textLength="8.4" x="840.4" y="505.6113">has</text><text fill="#000000" font-family="sans-serif" font-size="5.2" lengthAdjust="spacing" textLength="2.8" x="828.1037" y="496.4368">1</text><text fill="#000000" font-family="sans-serif" font-size="5.2" lengthAdjust="spacing" textLength="2" x="843.5505" y="514.7394">*</text></g><!--link Order to Address--><g id="link_Order_Address"><path codeLine="185" d="M821.12,598.076 C808.22,608.472 796.3167,618.066 783.9727,628.014 " fill="none" id="Order-to-Address" style="stroke:#181818;stroke-width:0.4000000000000001;"/><polygon fill="#181818" points="782.104,629.52,785.911,628.5068,783.6612,628.265,783.9031,626.0152,782.104,629.52" style="stroke:#181818;stroke-width:0.4000000000000001;"/><text fill="#000000" font-family="sans-serif" font-size="5.2" lengthAdjust="spacing" textLength="8.4" x="806.4" y="616.0113">has</text><text fill="#000000" font-family="sans-serif" font-size="5.2" lengthAdjust="spacing" textLength="2" x="815.4863" y="606.8408">*</text><text fill="#000000" font-family="sans-serif" font-size="5.2" lengthAdjust="spacing" textLength="2.8" x="782.7983" y="625.0709">1</text></g><!--link Order to Product--><g id="link_Order_Product"><path codeLine="186" d="M905.54,598.076 C915.076,608.444 923.6312,617.7456 932.7632,627.6736 " fill="none" id="Order-to-Product" style="stroke:#181818;stroke-width:0.4000000000000001;"/><polygon fill="#181818" points="934.388,629.44,933.1284,625.7072,933.034,627.968,930.7733,627.8736,934.388,629.44" style="stroke:#181818;stroke-width:0.4000000000000001;"/><text fill="#000000" font-family="sans-serif" font-size="5.2" lengthAdjust="spacing" textLength="8.4" x="922.4" y="616.0113">has</text><text fill="#000000" font-family="sans-serif" font-size="5.2" lengthAdjust="spacing" textLength="2" x="906.1059" y="606.8408">*</text><text fill="#000000" font-family="sans-serif" font-size="5.2" lengthAdjust="spacing" textLength="8" x="923.4301" y="625.0943">1..*</text></g><!--link Product to Part--><g id="link_Product_Part"><path codeLine="187" d="M963.6,693.62 C963.6,701.696 963.6,703.056 963.6,710.692 " fill="none" id="Product-to-Part" style="stroke:#181818;stroke-width:0.4000000000000001;"/><polygon fill="none" points="963.6,717.892,966,710.692,961.2,710.692,963.6,717.892" style="stroke:#181818;stroke-width:0.4000000000000001;"/></g><!--link Order to ProcessState--><g id="link_Order_ProcessState"><path codeLine="188" d="M857.364,598.076 C852.32,614.192 847.4613,629.7097 843.5213,642.2897 " fill="none" id="Order-to-ProcessState" style="stroke:#181818;stroke-width:0.4000000000000001;"/><polygon fill="#181818" points="842.804,644.58,845.4068,641.6228,843.4018,642.6714,842.3531,640.6663,842.804,644.58" style="stroke:#181818;stroke-width:0.4000000000000001;"/><text fill="#000000" font-family="sans-serif" font-size="5.2" lengthAdjust="spacing" textLength="8.4" x="854" y="616.0113">has</text><text fill="#000000" font-family="sans-serif" font-size="5.2" lengthAdjust="spacing" textLength="2" x="854.392" y="606.8408">*</text><text fill="#000000" font-family="sans-serif" font-size="5.2" lengthAdjust="spacing" textLength="2.8" x="840.6103" y="640.1384">1</text></g><!--link ClientService to ClientException--><g id="link_ClientService_ClientException"><path codeLine="189" d="M311.448,173.76 C308.392,180.364 305.6,186.4 305.6,186.4 C305.6,186.4 305.6,194 305.6,194 C305.6,194 462.4,197.2 462.4,197.2 C462.4,197.2 492.1756,217.7104 513.5076,232.4064 " fill="none" id="ClientService-to-ClientException" style="stroke:#181818;stroke-width:0.4000000000000001;stroke-dasharray:7.0,7.0;"/><polygon fill="#181818" points="515.484,233.768,513.4271,230.408,513.837,232.6334,511.6117,233.0432,515.484,233.768" style="stroke:#181818;stroke-width:0.4000000000000001;"/><text fill="#000000" font-family="sans-serif" font-size="5.2" lengthAdjust="spacing" textLength="15.2" x="306" y="192.4113">throws</text></g><!--link ClientException to RuntimeException--><g id="link_ClientException_RuntimeException"><path codeLine="190" d="M554.9,260.664 C581.64,277.7 621.6802,303.2145 645.0482,318.1065 " fill="none" id="ClientException-to-RuntimeException" style="stroke:#181818;stroke-width:0.4000000000000001;"/><polygon fill="none" points="651.12,321.976,646.338,316.0826,643.7583,320.1305,651.12,321.976" style="stroke:#181818;stroke-width:0.4000000000000001;"/></g><!--link OrderService to OrderException--><g id="link_OrderService_OrderException"><path codeLine="191" d="M581.896,173.68 C598.908,188.54 622.0524,208.7612 640.2884,224.6892 " fill="none" id="OrderService-to-OrderException" style="stroke:#181818;stroke-width:0.4000000000000001;stroke-dasharray:7.0,7.0;"/><polygon fill="#181818" points="642.096,226.268,640.4372,222.6947,640.5897,224.9523,638.3321,225.1048,642.096,226.268" style="stroke:#181818;stroke-width:0.4000000000000001;"/><text fill="#000000" font-family="sans-serif" font-size="5.2" lengthAdjust="spacing" textLength="15.2" x="605.2" y="192.4113">throws</text></g><!--link OrderException to RuntimeException--><g id="link_OrderException_RuntimeException"><path codeLine="192" d="M665.6,268.052 C665.6,285.26 665.6,301.868 665.6,314.776 " fill="none" id="OrderException-to-RuntimeException" style="stroke:#181818;stroke-width:0.4000000000000001;"/><polygon fill="none" points="665.6,321.976,668,314.776,663.2,314.776,665.6,321.976" style="stroke:#181818;stroke-width:0.4000000000000001;"/></g><!--link ProductService to ProductException--><g id="link_ProductService_ProductException"><path codeLine="193" d="M819.132,173.76 C820.84,180.364 822.4,186.4 822.4,186.4 C822.4,186.4 822.4,194 822.4,194 C822.4,194 815.2872,215.83 810.1952,231.466 " fill="none" id="ProductService-to-ProductException" style="stroke:#181818;stroke-width:0.4000000000000001;stroke-dasharray:7.0,7.0;"/><polygon fill="#181818" points="809.452,233.748,812.0881,230.8204,810.0713,231.8463,809.0454,229.8295,809.452,233.748" style="stroke:#181818;stroke-width:0.4000000000000001;"/><text fill="#000000" font-family="sans-serif" font-size="5.2" lengthAdjust="spacing" textLength="15.2" x="822.8" y="192.4113">throws</text></g><!--link ProductException to RuntimeException--><g id="link_ProductException_RuntimeException"><path codeLine="194" d="M783.388,260.664 C754.936,277.7 712.0491,303.3849 687.1811,318.2769 " fill="none" id="ProductException-to-RuntimeException" style="stroke:#181818;stroke-width:0.4000000000000001;"/><polygon fill="none" points="681.004,321.976,688.4141,320.3359,685.9481,316.2179,681.004,321.976" style="stroke:#181818;stroke-width:0.4000000000000001;"/></g><!--link OrderService to Validator--><g id="link_OrderService_Validator"><path codeLine="195" d="M650.492,173.612 C685.652,180.272 718,186.4 718,186.4 C718,186.4 732.4,194 732.4,194 C732.4,194 930,197.2 930,197.2 C930,197.2 953.9227,217.5184 971.2267,232.2144 " fill="none" id="OrderService-to-Validator" style="stroke:#181818;stroke-width:0.4000000000000001;stroke-dasharray:7.0,7.0;"/><polygon fill="#181818" points="973.056,233.768,971.3478,230.2181,971.5316,232.4733,969.2763,232.6571,973.056,233.768" style="stroke:#181818;stroke-width:0.4000000000000001;"/><text fill="#000000" font-family="sans-serif" font-size="5.2" lengthAdjust="spacing" textLength="11.2" x="732.8" y="192.4113">uses</text></g><!--SRC=[pLVTRzis47_tNq7uoLxiO7irXW2PxGu25ZUBspxqZP5OXoWj2XBjrDtwl-z8KUBNoNOn56XUOjtzZlTzHpQVULdHckv9HVFFTCUswYGOgLckQBaJRDJqWEQ55lALbploYOh6vmXUCdMg6AcaEEaFZvSBsZJtIjNy-Q1ObijooxyoykjeP1MIyVjiJFuP4VWpOFB4ThnHh7vR5wn-drdUjz4tJsOfIrLB8LWToYu5PwLoNClKVpSxfkw5Q17DP4eMv2_GytjBk0jmBUsFKrPCSlCpMsbyIxRcU5gDfRZIsdV67ZOZKdzbgnafcE17Lf-sgcPCkU-Fl5hAWZd2E_bQkg-bF82oapreHPM7RB-gckVcdomEkSgAlm-qL5oT7cYbFJ7cf8uyjl31-5c-5prBkKDoj6Nr4Op04cHPqUa_B3M8kfyZBtvMUjlcEHNvGG3yKOCd21OSvfYtDXjuU2yaBu91X5UTwZR4be5a-ebLik5ArgUuaosTiyOpPkxJ9zD0UrOsC7d0QwtHno55uDHEN0auOjZvHL6pfeb44YeMYKWceGOoffuYYOYMfYssF9rQvtlYwcv8_FKrVU9bOG6JnjRzrwxUbQdplArlBtHOa4qNJFmYDO267jcawmOBrQ1dAGMZvM0rNnUN_rFByRmOr6Yuwo-WhvdOMH5xu5mr08YPoKNggDz03n1ZWGrAlskw14TndTCsb4XEvYNTCw3358EzxSX7gdY9qAiNMRBDOVyCWpzImlQK2qJ4x7qeEBclQ7bw1r-E1vsiD7DjvjPMVpccYKxJPSy4rijTwtrVqpEYFPaHw-gC60zWZ3g3PyIO29KADam7IzyFA2zYBzkoHzoqVO0501e38TjEIJatNOlnOaOkjDb0UVe-s2gC7OdQ3AkDVaK1SnManjzO2TCiCA0Myl0ia6H3P-MW9yfsjCC01skiwzaPoKh5Ta41j7ivsSVtNG5yvu8DGidAmpwmqmleutgpoZP_zj_BjvitsTF3UeMC9rghf9pYEXZem88rUSqhnILIF3VwP5CVRTLxuEdWb0mc1VYqawRwkXkTfVWOc3vjAi8MqDVpY9PB8MjiNk2rS6ELuYv0ULjZzA_M2EW4KAiB7nJP74wHERd-aZDp23OhUwO_jDi9if7g3VGKjYHxgS78ekVQ-keFnhRBcQFj8a4EDeLzBsf6YrEwQK8v9yNB8nMyM7cjCBa2Rw-pGz30v2UOINpF729yZ-ttSXzcvOFMG66B-kxnveEls0u-T3kEueVWxUrTyi13GT5x3CKaJvrHydPq-ko5UXG_z7fbvm3XfNoKlh4GKFXCqe3WBhs05xftDGuUEPV0qHlX4Zor9BcjBkmTnxlY9XR5zwf5Ey7FYQINrKLt0V3447VIU-EYsmUUu91ZlJi3JdIc3nhip3nZd3Df54H_Fa_ImUsJA0IEVniRiFv_JKO6XQyByw3uvSGEYdvFdZnGVyGlOozbxKxH5Piwv4ku97aYiHE-G9Tq3vuQxWku37iYrb3DZm8Fk1Vg08XcpMv_3ul7_DlRm18DwRxcyt_lpEK5EJIu5Vc6fNtYjjU2g9TQldPGnp2Qahs1jnLoN4J7JnjkCUJ4X7EbXMwLBSYXWNJ-1m00]--></g></svg>