<?xml version="1.0" encoding="us-ascii" standalone="no"?><svg xmlns="http://www.w3.org/2000/svg" xmlns:xlink="http://www.w3.org/1999/xlink" contentStyleType="text/css" height="1056px" preserveAspectRatio="none" style="width:915px;height:1056px;background:#FFFFFF;" version="1.1" viewBox="0 0 915 1056" width="915px" zoomAndPan="magnify"><defs/><g><!--cluster UI--><g id="cluster_UI"><rect fill="none" height="101" rx="2.5" ry="2.5" style="stroke:#000000;stroke-width:1.5;" width="244" x="398" y="7"/><text fill="#000000" font-family="sans-serif" font-size="14" font-weight="bold" lengthAdjust="spacing" textLength="14" x="513" y="24.1074">UI</text></g><!--cluster Controller--><g id="cluster_Controller"><rect fill="none" height="120" rx="2.5" ry="2.5" style="stroke:#000000;stroke-width:1.5;" width="306" x="367" y="141"/><text fill="#000000" font-family="sans-serif" font-size="14" font-weight="bold" lengthAdjust="spacing" textLength="71" x="484.5" y="158.1074">Controller</text></g><!--cluster Service--><g id="cluster_Service"><rect fill="none" height="120" rx="2.5" ry="2.5" style="stroke:#000000;stroke-width:1.5;" width="306" x="367" y="294"/><text fill="#000000" font-family="sans-serif" font-size="14" font-weight="bold" lengthAdjust="spacing" textLength="54" x="493" y="311.1074">Service</text></g><!--cluster Repository--><g id="cluster_Repository"><rect fill="none" height="303" rx="2.5" ry="2.5" style="stroke:#000000;stroke-width:1.5;" width="459" x="7" y="465"/><text fill="#000000" font-family="sans-serif" font-size="14" font-weight="bold" lengthAdjust="spacing" textLength="76" x="198.5" y="482.1074">Repository</text></g><!--cluster Model--><g id="cluster_Model"><rect fill="none" height="231" rx="2.5" ry="2.5" style="stroke:#000000;stroke-width:1.5;" width="630" x="279" y="819"/><text fill="#000000" font-family="sans-serif" font-size="14" font-weight="bold" lengthAdjust="spacing" textLength="44" x="572" y="836.1074">Model</text></g><!--class ConsultActiveSupplyOffersUI--><g id="elem_ConsultActiveSupplyOffersUI"><rect codeLine="7" fill="#F1F1F1" height="48" id="ConsultActiveSupplyOffersUI" rx="2.5" ry="2.5" style="stroke:#181818;stroke-width:0.5;" width="212" x="414" y="44"/><ellipse cx="429" cy="60" fill="#ADD1B2" rx="11" ry="11" style="stroke:#181818;stroke-width:1.0;"/><path d="M431.7656,55.875 Q431.9219,55.6563 432.1094,55.5469 Q432.2969,55.4375 432.5156,55.4375 Q432.8906,55.4375 433.125,55.7031 Q433.3594,55.9531 433.3594,56.5625 L433.3594,58.0156 Q433.3594,58.625 433.125,58.8906 Q432.8906,59.1563 432.5156,59.1563 Q432.1719,59.1563 431.9688,58.9531 Q431.7656,58.7656 431.6563,58.25 Q431.6094,57.8906 431.4219,57.7031 Q431.0938,57.3281 430.4844,57.1094 Q429.875,56.8906 429.25,56.8906 Q428.4844,56.8906 427.8438,57.2188 Q427.2188,57.5469 426.7188,58.2969 Q426.2344,59.0469 426.2344,60.0781 L426.2344,61.1719 Q426.2344,62.4063 427.125,63.2344 Q428.0156,64.0469 429.6094,64.0469 Q430.5469,64.0469 431.2031,63.7969 Q431.5938,63.6406 432.0156,63.2031 Q432.2813,62.9375 432.4219,62.8594 Q432.5781,62.7813 432.7813,62.7813 Q433.1094,62.7813 433.3594,63.0469 Q433.625,63.2969 433.625,63.6406 Q433.625,63.9844 433.2813,64.3906 Q432.7813,64.9688 431.9844,65.2969 Q430.9063,65.75 429.6094,65.75 Q428.0938,65.75 426.8906,65.125 Q425.9063,64.625 425.2188,63.5625 Q424.5313,62.4844 424.5313,61.2031 L424.5313,60.0469 Q424.5313,58.7188 425.1406,57.5781 Q425.7656,56.4219 426.8594,55.8125 Q427.9531,55.1875 429.1875,55.1875 Q429.9219,55.1875 430.5625,55.3594 Q431.2188,55.5156 431.7656,55.875 Z " fill="#000000"/><text fill="#000000" font-family="sans-serif" font-size="14" lengthAdjust="spacing" textLength="180" x="443" y="65.7969">ConsultActiveSupplyOffersUI</text><line style="stroke:#181818;stroke-width:0.5;" x1="415" x2="625" y1="76" y2="76"/><line style="stroke:#181818;stroke-width:0.5;" x1="415" x2="625" y1="84" y2="84"/></g><!--class SupplyOfferController--><g id="elem_SupplyOfferController"><rect codeLine="12" fill="#F1F1F1" height="66.6211" id="SupplyOfferController" rx="2.5" ry="2.5" style="stroke:#181818;stroke-width:0.5;" width="274" x="383" y="178"/><ellipse cx="447.25" cy="194" fill="#ADD1B2" rx="11" ry="11" style="stroke:#181818;stroke-width:1.0;"/><path d="M450.0156,189.875 Q450.1719,189.6563 450.3594,189.5469 Q450.5469,189.4375 450.7656,189.4375 Q451.1406,189.4375 451.375,189.7031 Q451.6094,189.9531 451.6094,190.5625 L451.6094,192.0156 Q451.6094,192.625 451.375,192.8906 Q451.1406,193.1563 450.7656,193.1563 Q450.4219,193.1563 450.2188,192.9531 Q450.0156,192.7656 449.9063,192.25 Q449.8594,191.8906 449.6719,191.7031 Q449.3438,191.3281 448.7344,191.1094 Q448.125,190.8906 447.5,190.8906 Q446.7344,190.8906 446.0938,191.2188 Q445.4688,191.5469 444.9688,192.2969 Q444.4844,193.0469 444.4844,194.0781 L444.4844,195.1719 Q444.4844,196.4063 445.375,197.2344 Q446.2656,198.0469 447.8594,198.0469 Q448.7969,198.0469 449.4531,197.7969 Q449.8438,197.6406 450.2656,197.2031 Q450.5313,196.9375 450.6719,196.8594 Q450.8281,196.7813 451.0313,196.7813 Q451.3594,196.7813 451.6094,197.0469 Q451.875,197.2969 451.875,197.6406 Q451.875,197.9844 451.5313,198.3906 Q451.0313,198.9688 450.2344,199.2969 Q449.1563,199.75 447.8594,199.75 Q446.3438,199.75 445.1406,199.125 Q444.1563,198.625 443.4688,197.5625 Q442.7813,196.4844 442.7813,195.2031 L442.7813,194.0469 Q442.7813,192.7188 443.3906,191.5781 Q444.0156,190.4219 445.1094,189.8125 Q446.2031,189.1875 447.4375,189.1875 Q448.1719,189.1875 448.8125,189.3594 Q449.4688,189.5156 450.0156,189.875 Z " fill="#000000"/><text fill="#000000" font-family="sans-serif" font-size="14" lengthAdjust="spacing" textLength="137" x="467.75" y="199.7969">SupplyOfferController</text><line style="stroke:#181818;stroke-width:0.5;" x1="384" x2="656" y1="210" y2="210"/><line style="stroke:#181818;stroke-width:0.5;" x1="384" x2="656" y1="218" y2="218"/><text fill="#000000" font-family="sans-serif" font-size="14" lengthAdjust="spacing" textLength="262" x="389" y="237.1074">+activeSupplyOffers() : List&lt;SupplyOffer&gt;</text></g><!--class SupplyOfferService--><g id="elem_SupplyOfferService"><rect codeLine="18" fill="#F1F1F1" height="66.6211" id="SupplyOfferService" rx="2.5" ry="2.5" style="stroke:#181818;stroke-width:0.5;" width="274" x="383" y="331"/><ellipse cx="454.75" cy="347" fill="#ADD1B2" rx="11" ry="11" style="stroke:#181818;stroke-width:1.0;"/><path d="M457.5156,342.875 Q457.6719,342.6563 457.8594,342.5469 Q458.0469,342.4375 458.2656,342.4375 Q458.6406,342.4375 458.875,342.7031 Q459.1094,342.9531 459.1094,343.5625 L459.1094,345.0156 Q459.1094,345.625 458.875,345.8906 Q458.6406,346.1563 458.2656,346.1563 Q457.9219,346.1563 457.7188,345.9531 Q457.5156,345.7656 457.4063,345.25 Q457.3594,344.8906 457.1719,344.7031 Q456.8438,344.3281 456.2344,344.1094 Q455.625,343.8906 455,343.8906 Q454.2344,343.8906 453.5938,344.2188 Q452.9688,344.5469 452.4688,345.2969 Q451.9844,346.0469 451.9844,347.0781 L451.9844,348.1719 Q451.9844,349.4063 452.875,350.2344 Q453.7656,351.0469 455.3594,351.0469 Q456.2969,351.0469 456.9531,350.7969 Q457.3438,350.6406 457.7656,350.2031 Q458.0313,349.9375 458.1719,349.8594 Q458.3281,349.7813 458.5313,349.7813 Q458.8594,349.7813 459.1094,350.0469 Q459.375,350.2969 459.375,350.6406 Q459.375,350.9844 459.0313,351.3906 Q458.5313,351.9688 457.7344,352.2969 Q456.6563,352.75 455.3594,352.75 Q453.8438,352.75 452.6406,352.125 Q451.6563,351.625 450.9688,350.5625 Q450.2813,349.4844 450.2813,348.2031 L450.2813,347.0469 Q450.2813,345.7188 450.8906,344.5781 Q451.5156,343.4219 452.6094,342.8125 Q453.7031,342.1875 454.9375,342.1875 Q455.6719,342.1875 456.3125,342.3594 Q456.9688,342.5156 457.5156,342.875 Z " fill="#000000"/><text fill="#000000" font-family="sans-serif" font-size="14" lengthAdjust="spacing" textLength="122" x="475.25" y="352.7969">SupplyOfferService</text><line style="stroke:#181818;stroke-width:0.5;" x1="384" x2="656" y1="363" y2="363"/><line style="stroke:#181818;stroke-width:0.5;" x1="384" x2="656" y1="371" y2="371"/><text fill="#000000" font-family="sans-serif" font-size="14" lengthAdjust="spacing" textLength="262" x="389" y="390.1074">+activeSupplyOffers() : List&lt;SupplyOffer&gt;</text></g><!--class Repositories--><g id="elem_Repositories"><rect codeLine="24" fill="#F1F1F1" height="103.8633" id="Repositories" rx="2.5" ry="2.5" style="stroke:#181818;stroke-width:0.5;" width="348" x="23" y="502"/><ellipse cx="153.25" cy="518" fill="#ADD1B2" rx="11" ry="11" style="stroke:#181818;stroke-width:1.0;"/><path d="M156.0156,513.875 Q156.1719,513.6563 156.3594,513.5469 Q156.5469,513.4375 156.7656,513.4375 Q157.1406,513.4375 157.375,513.7031 Q157.6094,513.9531 157.6094,514.5625 L157.6094,516.0156 Q157.6094,516.625 157.375,516.8906 Q157.1406,517.1563 156.7656,517.1563 Q156.4219,517.1563 156.2188,516.9531 Q156.0156,516.7656 155.9063,516.25 Q155.8594,515.8906 155.6719,515.7031 Q155.3438,515.3281 154.7344,515.1094 Q154.125,514.8906 153.5,514.8906 Q152.7344,514.8906 152.0938,515.2188 Q151.4688,515.5469 150.9688,516.2969 Q150.4844,517.0469 150.4844,518.0781 L150.4844,519.1719 Q150.4844,520.4063 151.375,521.2344 Q152.2656,522.0469 153.8594,522.0469 Q154.7969,522.0469 155.4531,521.7969 Q155.8438,521.6406 156.2656,521.2031 Q156.5313,520.9375 156.6719,520.8594 Q156.8281,520.7813 157.0313,520.7813 Q157.3594,520.7813 157.6094,521.0469 Q157.875,521.2969 157.875,521.6406 Q157.875,521.9844 157.5313,522.3906 Q157.0313,522.9688 156.2344,523.2969 Q155.1563,523.75 153.8594,523.75 Q152.3438,523.75 151.1406,523.125 Q150.1563,522.625 149.4688,521.5625 Q148.7813,520.4844 148.7813,519.2031 L148.7813,518.0469 Q148.7813,516.7188 149.3906,515.5781 Q150.0156,514.4219 151.1094,513.8125 Q152.2031,513.1875 153.4375,513.1875 Q154.1719,513.1875 154.8125,513.3594 Q155.4688,513.5156 156.0156,513.875 Z " fill="#000000"/><text fill="#000000" font-family="sans-serif" font-size="14" lengthAdjust="spacing" textLength="79" x="173.75" y="523.7969">Repositories</text><line style="stroke:#181818;stroke-width:0.5;" x1="24" x2="370" y1="534" y2="534"/><line style="stroke:#181818;stroke-width:0.5;" x1="24" x2="370" y1="542" y2="542"/><text fill="#000000" font-family="sans-serif" font-size="14" lengthAdjust="spacing" textLength="94" x="29" y="561.1074">-Repositories()</text><text fill="#000000" font-family="sans-serif" font-size="14" lengthAdjust="spacing" textLength="182" x="29" y="579.7285">+getInstance() : Repositories</text><text fill="#000000" font-family="sans-serif" font-size="14" lengthAdjust="spacing" textLength="336" x="29" y="598.3496">+getSupplyOfferRepository() : SupplyOfferRepository</text></g><!--class SupplyOfferRepository--><g id="elem_SupplyOfferRepository"><rect codeLine="30" fill="#F1F1F1" height="66.6211" id="SupplyOfferRepository" rx="2.5" ry="2.5" style="stroke:#181818;stroke-width:0.5;" width="190" x="260" y="685"/><ellipse cx="281.75" cy="701" fill="#ADD1B2" rx="11" ry="11" style="stroke:#181818;stroke-width:1.0;"/><path d="M284.5156,696.875 Q284.6719,696.6563 284.8594,696.5469 Q285.0469,696.4375 285.2656,696.4375 Q285.6406,696.4375 285.875,696.7031 Q286.1094,696.9531 286.1094,697.5625 L286.1094,699.0156 Q286.1094,699.625 285.875,699.8906 Q285.6406,700.1563 285.2656,700.1563 Q284.9219,700.1563 284.7188,699.9531 Q284.5156,699.7656 284.4063,699.25 Q284.3594,698.8906 284.1719,698.7031 Q283.8438,698.3281 283.2344,698.1094 Q282.625,697.8906 282,697.8906 Q281.2344,697.8906 280.5938,698.2188 Q279.9688,698.5469 279.4688,699.2969 Q278.9844,700.0469 278.9844,701.0781 L278.9844,702.1719 Q278.9844,703.4063 279.875,704.2344 Q280.7656,705.0469 282.3594,705.0469 Q283.2969,705.0469 283.9531,704.7969 Q284.3438,704.6406 284.7656,704.2031 Q285.0313,703.9375 285.1719,703.8594 Q285.3281,703.7813 285.5313,703.7813 Q285.8594,703.7813 286.1094,704.0469 Q286.375,704.2969 286.375,704.6406 Q286.375,704.9844 286.0313,705.3906 Q285.5313,705.9688 284.7344,706.2969 Q283.6563,706.75 282.3594,706.75 Q280.8438,706.75 279.6406,706.125 Q278.6563,705.625 277.9688,704.5625 Q277.2813,703.4844 277.2813,702.2031 L277.2813,701.0469 Q277.2813,699.7188 277.8906,698.5781 Q278.5156,697.4219 279.6094,696.8125 Q280.7031,696.1875 281.9375,696.1875 Q282.6719,696.1875 283.3125,696.3594 Q283.9688,696.5156 284.5156,696.875 Z " fill="#000000"/><text fill="#000000" font-family="sans-serif" font-size="14" lengthAdjust="spacing" textLength="143" x="297.25" y="706.7969">SupplyOfferRepository</text><line style="stroke:#181818;stroke-width:0.5;" x1="261" x2="449" y1="717" y2="717"/><line style="stroke:#181818;stroke-width:0.5;" x1="261" x2="449" y1="725" y2="725"/><text fill="#000000" font-family="sans-serif" font-size="14" lengthAdjust="spacing" textLength="178" x="266" y="744.1074">+getAll() : List&lt;SupplyOffer&gt;</text></g><!--class SupplyOffer--><g id="elem_SupplyOffer"><rect codeLine="37" fill="#F1F1F1" height="178.3477" id="SupplyOffer" rx="2.5" ry="2.5" style="stroke:#181818;stroke-width:0.5;" width="597" x="295.5" y="856"/><ellipse cx="552.25" cy="872" fill="#ADD1B2" rx="11" ry="11" style="stroke:#181818;stroke-width:1.0;"/><path d="M555.0156,867.875 Q555.1719,867.6563 555.3594,867.5469 Q555.5469,867.4375 555.7656,867.4375 Q556.1406,867.4375 556.375,867.7031 Q556.6094,867.9531 556.6094,868.5625 L556.6094,870.0156 Q556.6094,870.625 556.375,870.8906 Q556.1406,871.1563 555.7656,871.1563 Q555.4219,871.1563 555.2188,870.9531 Q555.0156,870.7656 554.9063,870.25 Q554.8594,869.8906 554.6719,869.7031 Q554.3438,869.3281 553.7344,869.1094 Q553.125,868.8906 552.5,868.8906 Q551.7344,868.8906 551.0938,869.2188 Q550.4688,869.5469 549.9688,870.2969 Q549.4844,871.0469 549.4844,872.0781 L549.4844,873.1719 Q549.4844,874.4063 550.375,875.2344 Q551.2656,876.0469 552.8594,876.0469 Q553.7969,876.0469 554.4531,875.7969 Q554.8438,875.6406 555.2656,875.2031 Q555.5313,874.9375 555.6719,874.8594 Q555.8281,874.7813 556.0313,874.7813 Q556.3594,874.7813 556.6094,875.0469 Q556.875,875.2969 556.875,875.6406 Q556.875,875.9844 556.5313,876.3906 Q556.0313,876.9688 555.2344,877.2969 Q554.1563,877.75 552.8594,877.75 Q551.3438,877.75 550.1406,877.125 Q549.1563,876.625 548.4688,875.5625 Q547.7813,874.4844 547.7813,873.2031 L547.7813,872.0469 Q547.7813,870.7188 548.3906,869.5781 Q549.0156,868.4219 550.1094,867.8125 Q551.2031,867.1875 552.4375,867.1875 Q553.1719,867.1875 553.8125,867.3594 Q554.4688,867.5156 555.0156,867.875 Z " fill="#000000"/><text fill="#000000" font-family="sans-serif" font-size="14" lengthAdjust="spacing" textLength="75" x="572.75" y="877.7969">SupplyOffer</text><line style="stroke:#181818;stroke-width:0.5;" x1="296.5" x2="891.5" y1="888" y2="888"/><text fill="#000000" font-family="sans-serif" font-size="14" lengthAdjust="spacing" textLength="118" x="301.5" y="907.1074">-supplyOfferID : int</text><text fill="#000000" font-family="sans-serif" font-size="14" lengthAdjust="spacing" textLength="170" x="301.5" y="925.7285">-deliveryAddress : Address</text><text fill="#000000" font-family="sans-serif" font-size="14" lengthAdjust="spacing" textLength="105" x="301.5" y="944.3496">-startDate : Date</text><text fill="#000000" font-family="sans-serif" font-size="14" lengthAdjust="spacing" textLength="101" x="301.5" y="962.9707">-endDate : Date</text><text fill="#000000" font-family="sans-serif" font-size="14" lengthAdjust="spacing" textLength="132" x="301.5" y="981.5918">-state : ProcessState</text><text fill="#000000" font-family="sans-serif" font-size="14" lengthAdjust="spacing" textLength="446" x="301.5" y="1000.2129">-rawMaterialsQuantityCost : Map&lt;RawMaterial, Map&lt;Integer, Double&gt;&gt;</text><line style="stroke:#181818;stroke-width:0.5;" x1="296.5" x2="891.5" y1="1007.7266" y2="1007.7266"/><text fill="#000000" font-family="sans-serif" font-size="14" lengthAdjust="spacing" textLength="585" x="301.5" y="1026.834">+SupplyOffer(supplyOfferID, deliveryAddress, startDate, endDate, rawMaterialsQuantityCost)</text></g><!--link ConsultActiveSupplyOffersUI to SupplyOfferController--><g id="link_ConsultActiveSupplyOffersUI_SupplyOfferController"><path codeLine="49" d="M520,92.05 C520,115.39 520,145.68 520,171.95 " fill="none" id="ConsultActiveSupplyOffersUI-to-SupplyOfferController" style="stroke:#181818;stroke-width:1.0;stroke-dasharray:7.0,7.0;"/><polygon fill="#181818" points="520,177.95,524,168.95,520,172.95,516,168.95,520,177.95" style="stroke:#181818;stroke-width:1.0;"/></g><!--link SupplyOfferController to SupplyOfferService--><g id="link_SupplyOfferController_SupplyOfferService"><path codeLine="50" d="M520,245.26 C520,270.59 520,299.49 520,324.8 " fill="none" id="SupplyOfferController-to-SupplyOfferService" style="stroke:#181818;stroke-width:1.0;stroke-dasharray:7.0,7.0;"/><polygon fill="#181818" points="520,330.8,524,321.8,520,325.8,516,321.8,520,330.8" style="stroke:#181818;stroke-width:1.0;"/></g><!--link SupplyOfferService to Repositories--><g id="link_SupplyOfferService_Repositories"><path codeLine="51" d="M463.74,398.16 C414.48,426.75 347.2892,465.758 290.3492,498.808 " fill="none" id="SupplyOfferService-to-Repositories" style="stroke:#181818;stroke-width:1.0;stroke-dasharray:7.0,7.0;"/><polygon fill="#181818" points="285.16,501.82,294.9518,500.7615,289.4843,499.31,290.9358,493.8425,285.16,501.82" style="stroke:#181818;stroke-width:1.0;"/><text fill="#000000" font-family="sans-serif" font-size="13" lengthAdjust="spacing" textLength="67" x="408" y="445.0283">repositories</text></g><!--link SupplyOfferService to SupplyOfferRepository--><g id="link_SupplyOfferService_SupplyOfferRepository"><path codeLine="52" d="M512.8,398.19 C498.31,463.94 467,606 467,606 C467,606 428,655 428,655 C428,655 415.4265,665.7563 397.7665,680.8863 " fill="none" id="SupplyOfferService-to-SupplyOfferRepository" style="stroke:#181818;stroke-width:1.0;stroke-dasharray:7.0,7.0;"/><polygon fill="#181818" points="393.21,684.79,402.6471,681.9721,397.007,681.5369,397.4422,675.8968,393.21,684.79" style="stroke:#181818;stroke-width:1.0;"/><text fill="#000000" font-family="sans-serif" font-size="13" lengthAdjust="spacing" textLength="127" x="501" y="559.5283">supplyOfferRepository</text></g><!--link SupplyOfferService to SupplyOffer--><g id="link_SupplyOfferService_SupplyOffer"><path codeLine="53" d="M561.58,398.02 C595.21,424.32 637,457 637,457 C637,457 637,606 637,606 C637,606 618.7372,749.538 605.9972,849.688 " fill="none" id="SupplyOfferService-to-SupplyOffer" style="stroke:#181818;stroke-width:1.0;stroke-dasharray:7.0,7.0;"/><polygon fill="#181818" points="605.24,855.64,610.3438,847.2167,605.871,850.68,602.4077,846.2072,605.24,855.64" style="stroke:#181818;stroke-width:1.0;"/><text fill="#000000" font-family="sans-serif" font-size="13" lengthAdjust="spacing" textLength="65" x="634" y="651.0283">supplyOffer</text></g><!--link Repositories to Repositories--><g id="link_Repositories_Repositories"><path codeLine="54" d="M371.17,539.45 C392.22,542.07 406,546.92 406,554 C406,561.08 398.1741,565.1889 377.1241,567.8089 " fill="none" id="Repositories-to-Repositories" style="stroke:#181818;stroke-width:1.0;"/><polygon fill="#181818" points="371.17,568.55,380.5951,571.4078,376.1317,567.9324,379.607,563.469,371.17,568.55" style="stroke:#181818;stroke-width:1.0;"/><text fill="#000000" font-family="sans-serif" font-size="13" lengthAdjust="spacing" textLength="49" x="412" y="559.5283">instance</text></g><!--link Repositories to SupplyOfferRepository--><g id="link_Repositories_SupplyOfferRepository"><path codeLine="55" d="M246.99,606.42 C271.94,632.08 297.1971,658.0484 319.0371,680.5084 " fill="none" id="Repositories-to-SupplyOfferRepository" style="stroke:#181818;stroke-width:1.0;"/><polygon fill="#181818" points="323.22,684.81,319.8135,675.569,319.7343,681.2253,314.078,681.1462,323.22,684.81" style="stroke:#181818;stroke-width:1.0;"/><text fill="#000000" font-family="sans-serif" font-size="13" lengthAdjust="spacing" textLength="127" x="292" y="651.0283">supplyOfferRepository</text><text fill="#000000" font-family="sans-serif" font-size="13" lengthAdjust="spacing" textLength="7" x="245.656" y="627.899">1</text><text fill="#000000" font-family="sans-serif" font-size="13" lengthAdjust="spacing" textLength="7" x="309.4948" y="673.8597">1</text></g><!--link SupplyOfferRepository to SupplyOffer--><g id="link_SupplyOfferRepository_SupplyOffer"><path codeLine="56" d="M389.75,752.14 C418.69,779.32 456.907,815.2218 495.717,851.6818 " fill="none" id="SupplyOfferRepository-to-SupplyOffer" style="stroke:#181818;stroke-width:1.0;"/><polygon fill="#181818" points="500.09,855.79,496.2693,846.7124,496.4459,852.3665,490.7918,852.543,500.09,855.79" style="stroke:#181818;stroke-width:1.0;"/><text fill="#000000" font-family="sans-serif" font-size="13" lengthAdjust="spacing" textLength="60" x="441" y="799.0283">categories</text><text fill="#000000" font-family="sans-serif" font-size="13" lengthAdjust="spacing" textLength="7" x="388.3164" y="773.7342">1</text><text fill="#000000" font-family="sans-serif" font-size="13" lengthAdjust="spacing" textLength="5" x="487.106" y="844.7244">*</text></g><!--SRC=[hLJ1Rjim3BthAmYVaiufjcjG10YQYu45xMhq0rIRSOLgaY7HBRoX_rxP4o8fLJgWg2-ooKU-HugqVHAgvuR_XfutJxp3caQ9OB0XhZg9p1u1zf6t-aMe3WvSsjWZXK8QUuHUot7wY7oDvDPkYOnu60YhHgjQ_47upfWdXEA-Ak0l0_VCOBZMoWwIjWs9Pwo7lfVZpU60njvN7lVANgDuXoUZfKIJveb20yGZfkSRVyUmMC8QVWfBLv5ra-6iqJoB1iyIUlyNiTrXhwqWRSQKy6WNQ2EgLMnVB8E43gbIrjriWpDtZ4jGaPx0FOTaFLvolXK15dV3aMob_B03IGlskaLvjjrnyJQOgvrBBnG5fqlYBi6CsxOrw7AimRz5ySGDxJYXSqv7yA1gitONCLjlZMvSgfeIh-4lUsSmmctDhu4h4ZHUQqikOC_xgxlWBcT3fGWxD2NizF0WSRC9JOigNYHbbd1IM0d7Cahmkaiu9sKPPevzj7sNbvlyLh7yhftW_LAmp9vCo6IQr-uV50tdcP3ycAt1PgVq_qdIK9OeMgtUIHH-cL9WyQEOmTFvQO4H-fZleZZHshZBxFurw0q0]--></g></svg>