<?xml version="1.0" encoding="us-ascii" standalone="no"?><svg xmlns="http://www.w3.org/2000/svg" xmlns:xlink="http://www.w3.org/1999/xlink" contentStyleType="text/css" height="1028px" preserveAspectRatio="none" style="width:1700px;height:1028px;background:#FFFFFF;" version="1.1" viewBox="0 0 1700 1028" width="1700px" zoomAndPan="magnify"><defs/><g><text fill="#000000" font-family="sans-serif" font-size="14" font-weight="bold" lengthAdjust="spacing" textLength="172" x="765" y="30.1074">Active Orders Sequence</text><rect fill="#FFFFFF" height="794.2656" style="stroke:#181818;stroke-width:1.0;" width="10" x="67" y="133.2422"/><rect fill="#FFFFFF" height="770.9746" style="stroke:#181818;stroke-width:1.0;" width="10" x="429" y="156.5332"/><rect fill="#FFFFFF" height="664.7715" style="stroke:#181818;stroke-width:1.0;" width="10" x="695" y="231.4453"/><rect fill="#FFFFFF" height="610.1895" style="stroke:#181818;stroke-width:1.0;" width="10" x="961" y="262.7363"/><rect fill="#FFFFFF" height="31.291" style="stroke:#181818;stroke-width:1.0;" width="10" x="1087.5" y="294.0273"/><rect fill="#FFFFFF" height="31.291" style="stroke:#181818;stroke-width:1.0;" width="10" x="1192.5" y="356.6094"/><rect fill="#FFFFFF" height="153.4551" style="stroke:#181818;stroke-width:1.0;" width="10" x="1330.5" y="419.1914"/><rect fill="#FFFFFF" height="31.291" style="stroke:#181818;stroke-width:1.0;" width="10" x="1465.5" y="692.4707"/><rect fill="#FFFFFF" height="31.291" style="stroke:#181818;stroke-width:1.0;" width="10" x="1589.5" y="781.3438"/><rect fill="none" height="431.7344" style="stroke:#000000;stroke-width:1.5;" width="1368" x="325" y="434.1914"/><rect fill="none" height="177.7461" style="stroke:#000000;stroke-width:1.5;" width="807" x="876" y="649.8887"/><rect fill="none" height="81.873" style="stroke:#000000;stroke-width:1.5;" width="787" x="886" y="738.7617"/><line style="stroke:#181818;stroke-width:0.5;stroke-dasharray:5.0,5.0;" x1="72" x2="72" y1="123.2422" y2="945.5078"/><line style="stroke:#181818;stroke-width:0.5;stroke-dasharray:5.0,5.0;" x1="434" x2="434" y1="123.2422" y2="945.5078"/><line style="stroke:#181818;stroke-width:0.5;stroke-dasharray:5.0,5.0;" x1="699.5" x2="699.5" y1="196.3438" y2="945.5078"/><line style="stroke:#181818;stroke-width:0.5;stroke-dasharray:5.0,5.0;" x1="966" x2="966" y1="123.2422" y2="945.5078"/><line style="stroke:#181818;stroke-width:0.5;stroke-dasharray:5.0,5.0;" x1="1092" x2="1092" y1="123.2422" y2="945.5078"/><line style="stroke:#181818;stroke-width:0.5;stroke-dasharray:5.0,5.0;" x1="1197" x2="1197" y1="123.2422" y2="945.5078"/><line style="stroke:#181818;stroke-width:0.5;stroke-dasharray:5.0,5.0;" x1="1335" x2="1335" y1="123.2422" y2="945.5078"/><line style="stroke:#181818;stroke-width:0.5;stroke-dasharray:5.0,5.0;" x1="1470" x2="1470" y1="123.2422" y2="945.5078"/><line style="stroke:#181818;stroke-width:0.5;stroke-dasharray:5.0,5.0;" x1="1594" x2="1594" y1="621.7676" y2="945.5078"/><text fill="#000000" font-family="sans-serif" font-size="14" lengthAdjust="spacing" textLength="128" x="5" y="119.7285">Production Manager</text><ellipse cx="72" cy="53.1211" fill="#E3E3E3" rx="8" ry="8" style="stroke:#181818;stroke-width:0.5;"/><path d="M72,61.1211 L72,88.1211 M59,69.1211 L85,69.1211 M72,88.1211 L59,103.1211 M72,88.1211 L85,103.1211 " fill="none" style="stroke:#181818;stroke-width:0.5;"/><text fill="#000000" font-family="sans-serif" font-size="14" lengthAdjust="spacing" textLength="128" x="5" y="959.6152">Production Manager</text><ellipse cx="72" cy="971.6289" fill="#E3E3E3" rx="8" ry="8" style="stroke:#181818;stroke-width:0.5;"/><path d="M72,979.6289 L72,1006.6289 M59,987.6289 L85,987.6289 M72,1006.6289 L59,1021.6289 M72,1006.6289 L85,1021.6289 " fill="none" style="stroke:#181818;stroke-width:0.5;"/><rect fill="#E3E3E3" height="32.6211" rx="2.5" ry="2.5" style="stroke:#181818;stroke-width:0.5;" width="198" x="335" y="89.6211"/><text fill="#000000" font-family="sans-serif" font-size="14" lengthAdjust="spacing" textLength="184" x="342" y="111.7285">:ConsultActiveSupplyOffersUI</text><rect fill="#E3E3E3" height="32.6211" rx="2.5" ry="2.5" style="stroke:#181818;stroke-width:0.5;" width="198" x="335" y="944.5078"/><text fill="#000000" font-family="sans-serif" font-size="14" lengthAdjust="spacing" textLength="184" x="342" y="966.6152">:ConsultActiveSupplyOffersUI</text><rect fill="#E3E3E3" height="32.6211" rx="2.5" ry="2.5" style="stroke:#181818;stroke-width:0.5;" width="155" x="622.5" y="944.5078"/><text fill="#000000" font-family="sans-serif" font-size="14" lengthAdjust="spacing" textLength="141" x="629.5" y="966.6152">:SupplyOfferController</text><rect fill="#E3E3E3" height="32.6211" rx="2.5" ry="2.5" style="stroke:#181818;stroke-width:0.5;" width="140" x="896" y="89.6211"/><text fill="#000000" font-family="sans-serif" font-size="14" lengthAdjust="spacing" textLength="126" x="903" y="111.7285">:SupplyOfferService</text><rect fill="#E3E3E3" height="32.6211" rx="2.5" ry="2.5" style="stroke:#181818;stroke-width:0.5;" width="140" x="896" y="944.5078"/><text fill="#000000" font-family="sans-serif" font-size="14" lengthAdjust="spacing" textLength="126" x="903" y="966.6152">:SupplyOfferService</text><rect fill="#E3E3E3" height="32.6211" rx="2.5" ry="2.5" style="stroke:#181818;stroke-width:0.5;" width="93" x="1046" y="89.6211"/><text fill="#000000" font-family="sans-serif" font-size="14" lengthAdjust="spacing" textLength="79" x="1053" y="111.7285">Repositories</text><rect fill="#E3E3E3" height="32.6211" rx="2.5" ry="2.5" style="stroke:#181818;stroke-width:0.5;" width="93" x="1046" y="944.5078"/><text fill="#000000" font-family="sans-serif" font-size="14" lengthAdjust="spacing" textLength="79" x="1053" y="966.6152">Repositories</text><rect fill="#E3E3E3" height="51.2422" rx="2.5" ry="2.5" style="stroke:#181818;stroke-width:0.5;" width="97" x="1149" y="71"/><text fill="#000000" font-family="sans-serif" font-size="14" lengthAdjust="spacing" textLength="74" x="1160.5" y="93.1074">repositories</text><text fill="#000000" font-family="sans-serif" font-size="14" lengthAdjust="spacing" textLength="83" x="1156" y="111.7285">:Repositories</text><rect fill="#E3E3E3" height="51.2422" rx="2.5" ry="2.5" style="stroke:#181818;stroke-width:0.5;" width="97" x="1149" y="944.5078"/><text fill="#000000" font-family="sans-serif" font-size="14" lengthAdjust="spacing" textLength="74" x="1160.5" y="966.6152">repositories</text><text fill="#000000" font-family="sans-serif" font-size="14" lengthAdjust="spacing" textLength="83" x="1156" y="985.2363">:Repositories</text><rect fill="#E3E3E3" height="51.2422" rx="2.5" ry="2.5" style="stroke:#181818;stroke-width:0.5;" width="159" x="1256" y="71"/><text fill="#000000" font-family="sans-serif" font-size="14" lengthAdjust="spacing" textLength="145" x="1263" y="93.1074">supplyOfferRepository:</text><text fill="#000000" font-family="sans-serif" font-size="14" lengthAdjust="spacing" textLength="143" x="1264" y="111.7285">SupplyOfferRepository</text><rect fill="#E3E3E3" height="51.2422" rx="2.5" ry="2.5" style="stroke:#181818;stroke-width:0.5;" width="159" x="1256" y="944.5078"/><text fill="#000000" font-family="sans-serif" font-size="14" lengthAdjust="spacing" textLength="145" x="1263" y="966.6152">supplyOfferRepository:</text><text fill="#000000" font-family="sans-serif" font-size="14" lengthAdjust="spacing" textLength="143" x="1264" y="985.2363">SupplyOfferRepository</text><rect fill="#E3E3E3" height="51.2422" rx="2.5" ry="2.5" style="stroke:#181818;stroke-width:0.5;" width="91" x="1425" y="71"/><text fill="#000000" font-family="sans-serif" font-size="14" lengthAdjust="spacing" textLength="77" x="1432" y="93.1074">supplyOffer:</text><text fill="#000000" font-family="sans-serif" font-size="14" lengthAdjust="spacing" textLength="75" x="1433" y="111.7285">SupplyOffer</text><rect fill="#E3E3E3" height="51.2422" rx="2.5" ry="2.5" style="stroke:#181818;stroke-width:0.5;" width="91" x="1425" y="944.5078"/><text fill="#000000" font-family="sans-serif" font-size="14" lengthAdjust="spacing" textLength="77" x="1432" y="966.6152">supplyOffer:</text><text fill="#000000" font-family="sans-serif" font-size="14" lengthAdjust="spacing" textLength="75" x="1433" y="985.2363">SupplyOffer</text><rect fill="#E3E3E3" height="51.2422" rx="2.5" ry="2.5" style="stroke:#181818;stroke-width:0.5;" width="137" x="1526" y="944.5078"/><text fill="#000000" font-family="sans-serif" font-size="14" lengthAdjust="spacing" textLength="123" x="1533" y="966.6152">activeSupplyOffers:</text><text fill="#000000" font-family="sans-serif" font-size="14" lengthAdjust="spacing" textLength="113" x="1538" y="985.2363">List&lt;SupplyOffer&gt;</text><rect fill="#FFFFFF" height="794.2656" style="stroke:#181818;stroke-width:1.0;" width="10" x="67" y="133.2422"/><rect fill="#FFFFFF" height="770.9746" style="stroke:#181818;stroke-width:1.0;" width="10" x="429" y="156.5332"/><rect fill="#FFFFFF" height="664.7715" style="stroke:#181818;stroke-width:1.0;" width="10" x="695" y="231.4453"/><rect fill="#FFFFFF" height="610.1895" style="stroke:#181818;stroke-width:1.0;" width="10" x="961" y="262.7363"/><rect fill="#FFFFFF" height="31.291" style="stroke:#181818;stroke-width:1.0;" width="10" x="1087.5" y="294.0273"/><rect fill="#FFFFFF" height="31.291" style="stroke:#181818;stroke-width:1.0;" width="10" x="1192.5" y="356.6094"/><rect fill="#FFFFFF" height="153.4551" style="stroke:#181818;stroke-width:1.0;" width="10" x="1330.5" y="419.1914"/><rect fill="#FFFFFF" height="31.291" style="stroke:#181818;stroke-width:1.0;" width="10" x="1465.5" y="692.4707"/><rect fill="#FFFFFF" height="31.291" style="stroke:#181818;stroke-width:1.0;" width="10" x="1589.5" y="781.3438"/><polygon fill="#181818" points="417,152.5332,427,156.5332,417,160.5332,421,156.5332" style="stroke:#181818;stroke-width:1.0;"/><line style="stroke:#181818;stroke-width:1.0;" x1="77" x2="423" y1="156.5332" y2="156.5332"/><text fill="#000000" font-family="sans-serif" font-size="13" font-weight="bold" lengthAdjust="spacing" textLength="7" x="84" y="151.2705">1</text><text fill="#000000" font-family="sans-serif" font-size="13" lengthAdjust="spacing" textLength="164" x="95" y="151.2705">requests active supply offers</text><polygon fill="#181818" points="610.5,183.8242,620.5,187.8242,610.5,191.8242,614.5,187.8242" style="stroke:#181818;stroke-width:1.0;"/><line style="stroke:#181818;stroke-width:1.0;" x1="439" x2="616.5" y1="187.8242" y2="187.8242"/><text fill="#000000" font-family="sans-serif" font-size="13" font-weight="bold" lengthAdjust="spacing" textLength="7" x="446" y="182.5615">2</text><text fill="#000000" font-family="sans-serif" font-size="13" lengthAdjust="spacing" textLength="36" x="457" y="182.5615">create</text><rect fill="#E3E3E3" height="32.6211" rx="2.5" ry="2.5" style="stroke:#181818;stroke-width:0.5;" width="155" x="622.5" y="164.5332"/><text fill="#000000" font-family="sans-serif" font-size="14" lengthAdjust="spacing" textLength="141" x="629.5" y="186.6406">:SupplyOfferController</text><polygon fill="#181818" points="683,227.4453,693,231.4453,683,235.4453,687,231.4453" style="stroke:#181818;stroke-width:1.0;"/><line style="stroke:#181818;stroke-width:1.0;" x1="439" x2="689" y1="231.4453" y2="231.4453"/><text fill="#000000" font-family="sans-serif" font-size="13" font-weight="bold" lengthAdjust="spacing" textLength="7" x="446" y="226.1826">3</text><text fill="#000000" font-family="sans-serif" font-size="13" lengthAdjust="spacing" textLength="124" x="457" y="226.1826">consultActiveOrders()</text><polygon fill="#181818" points="949,258.7363,959,262.7363,949,266.7363,953,262.7363" style="stroke:#181818;stroke-width:1.0;"/><line style="stroke:#181818;stroke-width:1.0;" x1="705" x2="955" y1="262.7363" y2="262.7363"/><text fill="#000000" font-family="sans-serif" font-size="13" font-weight="bold" lengthAdjust="spacing" textLength="7" x="712" y="257.4736">4</text><text fill="#000000" font-family="sans-serif" font-size="13" lengthAdjust="spacing" textLength="115" x="723" y="257.4736">activeSupplyOffers()</text><polygon fill="#181818" points="1075.5,290.0273,1085.5,294.0273,1075.5,298.0273,1079.5,294.0273" style="stroke:#181818;stroke-width:1.0;"/><line style="stroke:#181818;stroke-width:1.0;" x1="971" x2="1081.5" y1="294.0273" y2="294.0273"/><text fill="#000000" font-family="sans-serif" font-size="13" font-weight="bold" lengthAdjust="spacing" textLength="7" x="978" y="288.7646">5</text><text fill="#000000" font-family="sans-serif" font-size="13" lengthAdjust="spacing" textLength="75" x="989" y="288.7646">getInstance()</text><polygon fill="#181818" points="982,321.3184,972,325.3184,982,329.3184,978,325.3184" style="stroke:#181818;stroke-width:1.0;"/><line style="stroke:#181818;stroke-width:1.0;stroke-dasharray:2.0,2.0;" x1="976" x2="1091.5" y1="325.3184" y2="325.3184"/><text fill="#000000" font-family="sans-serif" font-size="13" font-weight="bold" lengthAdjust="spacing" textLength="7" x="988" y="320.0557">6</text><text fill="#000000" font-family="sans-serif" font-size="13" lengthAdjust="spacing" textLength="67" x="999" y="320.0557">repositories</text><polygon fill="#181818" points="1180.5,352.6094,1190.5,356.6094,1180.5,360.6094,1184.5,356.6094" style="stroke:#181818;stroke-width:1.0;"/><line style="stroke:#181818;stroke-width:1.0;" x1="971" x2="1186.5" y1="356.6094" y2="356.6094"/><text fill="#000000" font-family="sans-serif" font-size="13" font-weight="bold" lengthAdjust="spacing" textLength="7" x="978" y="351.3467">7</text><text fill="#000000" font-family="sans-serif" font-size="13" lengthAdjust="spacing" textLength="155" x="989" y="351.3467">getSupplyOfferRepository()</text><polygon fill="#181818" points="982,383.9004,972,387.9004,982,391.9004,978,387.9004" style="stroke:#181818;stroke-width:1.0;"/><line style="stroke:#181818;stroke-width:1.0;stroke-dasharray:2.0,2.0;" x1="976" x2="1196.5" y1="387.9004" y2="387.9004"/><text fill="#000000" font-family="sans-serif" font-size="13" font-weight="bold" lengthAdjust="spacing" textLength="7" x="988" y="382.6377">8</text><text fill="#000000" font-family="sans-serif" font-size="13" lengthAdjust="spacing" textLength="127" x="999" y="382.6377">supplyOfferRepository</text><polygon fill="#181818" points="1318.5,415.1914,1328.5,419.1914,1318.5,423.1914,1322.5,419.1914" style="stroke:#181818;stroke-width:1.0;"/><line style="stroke:#181818;stroke-width:1.0;" x1="971" x2="1324.5" y1="419.1914" y2="419.1914"/><text fill="#000000" font-family="sans-serif" font-size="13" font-weight="bold" lengthAdjust="spacing" textLength="7" x="978" y="413.9287">9</text><text fill="#000000" font-family="sans-serif" font-size="13" lengthAdjust="spacing" textLength="41" x="989" y="413.9287">getAll()</text><path d="M325,434.1914 L386,434.1914 L386,443.4824 L376,453.4824 L325,453.4824 L325,434.1914 " fill="#EEEEEE" style="stroke:#000000;stroke-width:1.5;"/><rect fill="none" height="431.7344" style="stroke:#000000;stroke-width:1.5;" width="1368" x="325" y="434.1914"/><text fill="#000000" font-family="sans-serif" font-size="13" font-weight="bold" lengthAdjust="spacing" textLength="16" x="340" y="449.2197">alt</text><text fill="#000000" font-family="sans-serif" font-size="11" font-weight="bold" lengthAdjust="spacing" textLength="82" x="401" y="448.0615">[system error]</text><polygon fill="#181818" points="982,472.7734,972,476.7734,982,480.7734,978,476.7734" style="stroke:#181818;stroke-width:1.0;"/><line style="stroke:#181818;stroke-width:1.0;stroke-dasharray:2.0,2.0;" x1="976" x2="1329.5" y1="476.7734" y2="476.7734"/><text fill="#000000" font-family="sans-serif" font-size="13" font-weight="bold" lengthAdjust="spacing" textLength="14" x="988" y="471.5107">10</text><text fill="#000000" font-family="sans-serif" font-size="13" lengthAdjust="spacing" textLength="85" x="1006" y="471.5107">Database error</text><polygon fill="#181818" points="716,504.0645,706,508.0645,716,512.0645,712,508.0645" style="stroke:#181818;stroke-width:1.0;"/><line style="stroke:#181818;stroke-width:1.0;stroke-dasharray:2.0,2.0;" x1="710" x2="960" y1="508.0645" y2="508.0645"/><text fill="#000000" font-family="sans-serif" font-size="13" font-weight="bold" lengthAdjust="spacing" textLength="14" x="722" y="502.8018">11</text><text fill="#000000" font-family="sans-serif" font-size="13" lengthAdjust="spacing" textLength="214" x="740" y="502.8018">show error message (Database error)</text><polygon fill="#181818" points="450,535.3555,440,539.3555,450,543.3555,446,539.3555" style="stroke:#181818;stroke-width:1.0;"/><line style="stroke:#181818;stroke-width:1.0;stroke-dasharray:2.0,2.0;" x1="444" x2="694" y1="539.3555" y2="539.3555"/><text fill="#000000" font-family="sans-serif" font-size="13" font-weight="bold" lengthAdjust="spacing" textLength="14" x="456" y="534.0928">12</text><text fill="#000000" font-family="sans-serif" font-size="13" lengthAdjust="spacing" textLength="214" x="474" y="534.0928">show error message (Database error)</text><line style="stroke:#000000;stroke-width:1.0;stroke-dasharray:2.0,2.0;" x1="325" x2="1693" y1="548.3555" y2="548.3555"/><polygon fill="#181818" points="982,568.6465,972,572.6465,982,576.6465,978,572.6465" style="stroke:#181818;stroke-width:1.0;"/><line style="stroke:#181818;stroke-width:1.0;stroke-dasharray:2.0,2.0;" x1="976" x2="1334.5" y1="572.6465" y2="572.6465"/><text fill="#000000" font-family="sans-serif" font-size="13" font-weight="bold" lengthAdjust="spacing" textLength="14" x="988" y="567.3838">13</text><text fill="#000000" font-family="sans-serif" font-size="13" lengthAdjust="spacing" textLength="72" x="1006" y="567.3838">supplyOffers</text><polygon fill="#181818" points="1514,599.9375,1524,603.9375,1514,607.9375,1518,603.9375" style="stroke:#181818;stroke-width:1.0;"/><line style="stroke:#181818;stroke-width:1.0;" x1="971" x2="1520" y1="603.9375" y2="603.9375"/><text fill="#000000" font-family="sans-serif" font-size="13" font-weight="bold" lengthAdjust="spacing" textLength="14" x="978" y="598.6748">14</text><text fill="#000000" font-family="sans-serif" font-size="13" lengthAdjust="spacing" textLength="36" x="996" y="598.6748">create</text><rect fill="#E3E3E3" height="51.2422" rx="2.5" ry="2.5" style="stroke:#181818;stroke-width:0.5;" width="137" x="1526" y="580.6465"/><text fill="#000000" font-family="sans-serif" font-size="14" lengthAdjust="spacing" textLength="123" x="1533" y="602.7539">activeSupplyOffers:</text><text fill="#000000" font-family="sans-serif" font-size="14" lengthAdjust="spacing" textLength="113" x="1538" y="621.375">List&lt;SupplyOffer&gt;</text><path d="M876,649.8887 L949,649.8887 L949,659.1797 L939,669.1797 L876,669.1797 L876,649.8887 " fill="#EEEEEE" style="stroke:#000000;stroke-width:1.5;"/><rect fill="none" height="177.7461" style="stroke:#000000;stroke-width:1.5;" width="807" x="876" y="649.8887"/><text fill="#000000" font-family="sans-serif" font-size="13" font-weight="bold" lengthAdjust="spacing" textLength="28" x="891" y="664.917">loop</text><text fill="#000000" font-family="sans-serif" font-size="11" font-weight="bold" lengthAdjust="spacing" textLength="211" x="964" y="663.7588">[For each supplyOffer in supplyOffers]</text><polygon fill="#181818" points="1453.5,688.4707,1463.5,692.4707,1453.5,696.4707,1457.5,692.4707" style="stroke:#181818;stroke-width:1.0;"/><line style="stroke:#181818;stroke-width:1.0;" x1="971" x2="1459.5" y1="692.4707" y2="692.4707"/><text fill="#000000" font-family="sans-serif" font-size="13" font-weight="bold" lengthAdjust="spacing" textLength="14" x="978" y="687.208">15</text><text fill="#000000" font-family="sans-serif" font-size="13" lengthAdjust="spacing" textLength="76" x="996" y="687.208">getEndDate()</text><polygon fill="#181818" points="982,719.7617,972,723.7617,982,727.7617,978,723.7617" style="stroke:#181818;stroke-width:1.0;"/><line style="stroke:#181818;stroke-width:1.0;stroke-dasharray:2.0,2.0;" x1="976" x2="1469.5" y1="723.7617" y2="723.7617"/><text fill="#000000" font-family="sans-serif" font-size="13" font-weight="bold" lengthAdjust="spacing" textLength="14" x="988" y="718.499">16</text><text fill="#000000" font-family="sans-serif" font-size="13" lengthAdjust="spacing" textLength="48" x="1006" y="718.499">endDate</text><path d="M886,738.7617 L947,738.7617 L947,748.0527 L937,758.0527 L886,758.0527 L886,738.7617 " fill="#EEEEEE" style="stroke:#000000;stroke-width:1.5;"/><rect fill="none" height="81.873" style="stroke:#000000;stroke-width:1.5;" width="787" x="886" y="738.7617"/><text fill="#000000" font-family="sans-serif" font-size="13" font-weight="bold" lengthAdjust="spacing" textLength="16" x="901" y="753.79">alt</text><text fill="#000000" font-family="sans-serif" font-size="11" font-weight="bold" lengthAdjust="spacing" textLength="156" x="962" y="752.6318">[end date after current date]</text><polygon fill="#181818" points="1577.5,777.3438,1587.5,781.3438,1577.5,785.3438,1581.5,781.3438" style="stroke:#181818;stroke-width:1.0;"/><line style="stroke:#181818;stroke-width:1.0;" x1="971" x2="1583.5" y1="781.3438" y2="781.3438"/><text fill="#000000" font-family="sans-serif" font-size="13" font-weight="bold" lengthAdjust="spacing" textLength="14" x="978" y="776.0811">17</text><text fill="#000000" font-family="sans-serif" font-size="13" lengthAdjust="spacing" textLength="94" x="996" y="776.0811">add(supplyOffer)</text><polygon fill="#181818" points="982,808.6348,972,812.6348,982,816.6348,978,812.6348" style="stroke:#181818;stroke-width:1.0;"/><line style="stroke:#181818;stroke-width:1.0;stroke-dasharray:2.0,2.0;" x1="976" x2="1593.5" y1="812.6348" y2="812.6348"/><text fill="#000000" font-family="sans-serif" font-size="13" font-weight="bold" lengthAdjust="spacing" textLength="14" x="988" y="807.3721">18</text><text fill="#000000" font-family="sans-serif" font-size="13" lengthAdjust="spacing" textLength="4" x="1006" y="807.3721">&#160;</text><polygon fill="#181818" points="716,853.9258,706,857.9258,716,861.9258,712,857.9258" style="stroke:#181818;stroke-width:1.0;"/><line style="stroke:#181818;stroke-width:1.0;stroke-dasharray:2.0,2.0;" x1="710" x2="960" y1="857.9258" y2="857.9258"/><text fill="#000000" font-family="sans-serif" font-size="13" font-weight="bold" lengthAdjust="spacing" textLength="14" x="722" y="852.6631">19</text><text fill="#000000" font-family="sans-serif" font-size="13" lengthAdjust="spacing" textLength="107" x="740" y="852.6631">activeSupplyOffers</text><polygon fill="#181818" points="450,892.2168,440,896.2168,450,900.2168,446,896.2168" style="stroke:#181818;stroke-width:1.0;"/><line style="stroke:#181818;stroke-width:1.0;stroke-dasharray:2.0,2.0;" x1="444" x2="699" y1="896.2168" y2="896.2168"/><text fill="#000000" font-family="sans-serif" font-size="13" font-weight="bold" lengthAdjust="spacing" textLength="14" x="456" y="890.9541">20</text><text fill="#000000" font-family="sans-serif" font-size="13" lengthAdjust="spacing" textLength="107" x="474" y="890.9541">activeSupplyOffers</text><polygon fill="#181818" points="83,923.5078,73,927.5078,83,931.5078,79,927.5078" style="stroke:#181818;stroke-width:1.0;"/><line style="stroke:#181818;stroke-width:1.0;stroke-dasharray:2.0,2.0;" x1="77" x2="433" y1="927.5078" y2="927.5078"/><text fill="#000000" font-family="sans-serif" font-size="13" font-weight="bold" lengthAdjust="spacing" textLength="14" x="89" y="922.2451">21</text><text fill="#000000" font-family="sans-serif" font-size="13" lengthAdjust="spacing" textLength="310" x="107" y="922.2451">shows the list of active supply offers or error message</text><!--SRC=[dPN1Rk8m48RlUOeH9wZK5q0hfAg0X5G48jizzU8c0rWDTjPsg7Zx7TiG7E84kZv1_CytuvdnM7znKJB53d2GGcPx9Gy8HbMOw7gdPDaNss5gJWM2mimmiIj2WTwpN7vpiOCjApGcYU66fEb96pn0Ydyh51d2bBETbG_JT3fA4bOPAQh39ohwdHcfOB1MCgyomwM09HFaKms0QLWl4t9aUCPB9WmCngzIwAemBoGzObgLPN5QRRUezFl26RmlRWm23TaQ9OlYp7xzlNdh5gUeZZn3fqmtVvh23PPISmgSetQApMoTDYKga7o8SSoYQQ2llclnQVmXqjXtXuXQT4ARA0TOpUUpJTE0jH9BTczScr_1jucpRailvVVLWPNAwMFT1QxM_CWCsh82hVKIdYTKCXXJSv58cmlrV3QGdcl5jJ6Ls7smYso9O2lvz4IKJ24fOjjsCsmT7zjmL4jhl6iB29Op9mnr0L7QfmuW3P3jciQENHP2BDil1DkXMGXDjoh36qg3vBhhTjSXddrSDd_N_cf9S-n7NOFoCKLRxaw0iVWkuH4rtglzWNPcBmhpeRyKHL-WzyDWXG7jnnSg9LMBTLdn8Eg2J9bXdqpZcTA9SKSwDocbQI-_lGKSK6kQWp1iaaRTAD-exaOzHWgDqOxl_poh3cT05oEeRRmAIQJIxTiMlUTs5LAMCAVZafzzw0AuQ4RONuk97uk-dMOYfwJ5BcUhjVmmxP9vvlK-e0S_aYqFxWw06fPea5ijsnewS5OfXJJDypuFlLcsWoxFXq7QHhsWEjZ8et3Nhkcvpb6lOP2V7xYqUQ9y9LrxjeVYcGwlQVGLI1xr5KJUUY626tpVIG1oRrRZrIC6lQv-36WmUuI27d5wJwCFBDXh4ywA9EB4lhl1t_No7m00]--></g></svg>