<?xml version="1.0" encoding="us-ascii" standalone="no"?><svg xmlns="http://www.w3.org/2000/svg" xmlns:xlink="http://www.w3.org/1999/xlink" contentStyleType="text/css" height="957.6px" preserveAspectRatio="none" style="width:695px;height:957px;background:#FFFFFF;" version="1.1" viewBox="0 0 695 957" width="695.1px" zoomAndPan="magnify"><defs/><g><!--cluster UI--><g id="cluster_UI"><rect fill="none" height="70.7" rx="1.75" ry="1.75" style="stroke:#000000;stroke-width:1.0499999999999998;" width="117.6" x="273" y="4.9"/><text fill="#000000" font-family="sans-serif" font-size="9.8" font-weight="bold" lengthAdjust="spacing" textLength="9.8" x="326.9" y="16.8752">UI</text></g><!--cluster Controller--><g id="cluster_Controller"><rect fill="none" height="84" rx="1.75" ry="1.75" style="stroke:#000000;stroke-width:1.0499999999999998;" width="210" x="226.8" y="98.7"/><text fill="#000000" font-family="sans-serif" font-size="9.8" font-weight="bold" lengthAdjust="spacing" textLength="49.7" x="306.95" y="110.6752">Controller</text></g><!--cluster Service--><g id="cluster_Service"><rect fill="none" height="96.6" rx="1.75" ry="1.75" style="stroke:#000000;stroke-width:1.0499999999999998;" width="198.8" x="232.4" y="205.8"/><text fill="#000000" font-family="sans-serif" font-size="9.8" font-weight="bold" lengthAdjust="spacing" textLength="37.8" x="312.9" y="217.7752">Service</text></g><!--cluster Repository--><g id="cluster_Repository"><rect fill="none" height="224.7" rx="1.75" ry="1.75" style="stroke:#000000;stroke-width:1.0499999999999998;" width="289.1" x="4.9" y="338.1"/><text fill="#000000" font-family="sans-serif" font-size="9.8" font-weight="bold" lengthAdjust="spacing" textLength="53.2" x="122.85" y="350.0752">Repository</text></g><!--cluster Model--><g id="cluster_Model"><rect fill="none" height="354.9" rx="1.75" ry="1.75" style="stroke:#000000;stroke-width:1.0499999999999998;" width="535.5" x="155.4" y="598.5"/><text fill="#000000" font-family="sans-serif" font-size="9.8" font-weight="bold" lengthAdjust="spacing" textLength="30.8" x="407.75" y="610.4752">Model</text></g><!--class StatusSupplierUI--><g id="elem_StatusSupplierUI"><rect codeLine="7" fill="#F1F1F1" height="33.6" id="StatusSupplierUI" rx="1.75" ry="1.75" style="stroke:#181818;stroke-width:0.3499999999999999;" width="95.2" x="284.2" y="30.8"/><ellipse cx="294.7" cy="42" fill="#ADD1B2" rx="7.7" ry="7.7" style="stroke:#181818;stroke-width:0.6999999999999998;"/><path d="M296.6359,39.1125 Q296.7453,38.9594 296.8766,38.8828 Q297.0078,38.8062 297.1609,38.8062 Q297.4234,38.8062 297.5875,38.9922 Q297.7516,39.1672 297.7516,39.5937 L297.7516,40.6109 Q297.7516,41.0375 297.5875,41.2234 Q297.4234,41.4094 297.1609,41.4094 Q296.9203,41.4094 296.7781,41.2672 Q296.6359,41.1359 296.5594,40.775 Q296.5266,40.5234 296.3953,40.3922 Q296.1656,40.1297 295.7391,39.9766 Q295.3125,39.8234 294.875,39.8234 Q294.3391,39.8234 293.8906,40.0531 Q293.4531,40.2828 293.1031,40.8078 Q292.7641,41.3328 292.7641,42.0547 L292.7641,42.8203 Q292.7641,43.6844 293.3875,44.2641 Q294.0109,44.8328 295.1266,44.8328 Q295.7828,44.8328 296.2422,44.6578 Q296.5156,44.5484 296.8109,44.2422 Q296.9969,44.0562 297.0953,44.0016 Q297.2047,43.9469 297.3469,43.9469 Q297.5766,43.9469 297.7516,44.1328 Q297.9375,44.3078 297.9375,44.5484 Q297.9375,44.7891 297.6969,45.0734 Q297.3469,45.4781 296.7891,45.7078 Q296.0344,46.025 295.1266,46.025 Q294.0656,46.025 293.2234,45.5875 Q292.5344,45.2375 292.0531,44.4937 Q291.5719,43.7391 291.5719,42.8422 L291.5719,42.0328 Q291.5719,41.1031 291.9984,40.3047 Q292.4359,39.4953 293.2016,39.0687 Q293.9672,38.6312 294.8312,38.6312 Q295.3453,38.6312 295.7937,38.7516 Q296.2531,38.8609 296.6359,39.1125 Z " fill="#000000"/><text fill="#000000" font-family="sans-serif" font-size="9.8" lengthAdjust="spacing" textLength="72.8" x="304.5" y="46.0578">StatusSupplierUI</text><line style="stroke:#181818;stroke-width:0.3499999999999999;" x1="284.9" x2="378.7" y1="53.2" y2="53.2"/><line style="stroke:#181818;stroke-width:0.3499999999999999;" x1="284.9" x2="378.7" y1="58.8" y2="58.8"/></g><!--class SupplierController--><g id="elem_SupplierController"><rect codeLine="12" fill="#F1F1F1" height="46.6348" id="SupplierController" rx="1.75" ry="1.75" style="stroke:#181818;stroke-width:0.3499999999999999;" width="187.6" x="238" y="124.6"/><ellipse cx="288.925" cy="135.8" fill="#ADD1B2" rx="7.7" ry="7.7" style="stroke:#181818;stroke-width:0.6999999999999998;"/><path d="M290.8609,132.9125 Q290.9703,132.7594 291.1016,132.6828 Q291.2328,132.6062 291.3859,132.6062 Q291.6484,132.6062 291.8125,132.7922 Q291.9766,132.9672 291.9766,133.3937 L291.9766,134.4109 Q291.9766,134.8375 291.8125,135.0234 Q291.6484,135.2094 291.3859,135.2094 Q291.1453,135.2094 291.0031,135.0672 Q290.8609,134.9359 290.7844,134.575 Q290.7516,134.3234 290.6203,134.1922 Q290.3906,133.9297 289.9641,133.7766 Q289.5375,133.6234 289.1,133.6234 Q288.5641,133.6234 288.1156,133.8531 Q287.6781,134.0828 287.3281,134.6078 Q286.9891,135.1328 286.9891,135.8547 L286.9891,136.6203 Q286.9891,137.4844 287.6125,138.0641 Q288.2359,138.6328 289.3516,138.6328 Q290.0078,138.6328 290.4672,138.4578 Q290.7406,138.3484 291.0359,138.0422 Q291.2219,137.8562 291.3203,137.8016 Q291.4297,137.7469 291.5719,137.7469 Q291.8016,137.7469 291.9766,137.9328 Q292.1625,138.1078 292.1625,138.3484 Q292.1625,138.5891 291.9219,138.8734 Q291.5719,139.2781 291.0141,139.5078 Q290.2594,139.825 289.3516,139.825 Q288.2906,139.825 287.4484,139.3875 Q286.7594,139.0375 286.2781,138.2937 Q285.7969,137.5391 285.7969,136.6422 L285.7969,135.8328 Q285.7969,134.9031 286.2234,134.1047 Q286.6609,133.2953 287.4266,132.8687 Q288.1922,132.4312 289.0562,132.4312 Q289.5703,132.4312 290.0187,132.5516 Q290.4781,132.6609 290.8609,132.9125 Z " fill="#000000"/><text fill="#000000" font-family="sans-serif" font-size="9.8" lengthAdjust="spacing" textLength="79.8" x="303.275" y="139.8578">SupplierController</text><line style="stroke:#181818;stroke-width:0.3499999999999999;" x1="238.7" x2="424.9" y1="147" y2="147"/><line style="stroke:#181818;stroke-width:0.3499999999999999;" x1="238.7" x2="424.9" y1="152.6" y2="152.6"/><text fill="#000000" font-family="sans-serif" font-size="9.8" lengthAdjust="spacing" textLength="179.2" x="242.2" y="165.9752">+updateSupplierStatus() : List&lt;Supplier&gt;</text></g><!--class SupplierService--><g id="elem_SupplierService"><rect codeLine="18" fill="#F1F1F1" height="59.6695" id="SupplierService" rx="1.75" ry="1.75" style="stroke:#181818;stroke-width:0.3499999999999999;" width="176.4" x="243.6" y="231.7"/><ellipse cx="294.175" cy="242.9" fill="#ADD1B2" rx="7.7" ry="7.7" style="stroke:#181818;stroke-width:0.6999999999999998;"/><path d="M296.1109,240.0125 Q296.2203,239.8594 296.3516,239.7828 Q296.4828,239.7062 296.6359,239.7062 Q296.8984,239.7062 297.0625,239.8922 Q297.2266,240.0672 297.2266,240.4937 L297.2266,241.5109 Q297.2266,241.9375 297.0625,242.1234 Q296.8984,242.3094 296.6359,242.3094 Q296.3953,242.3094 296.2531,242.1672 Q296.1109,242.0359 296.0344,241.675 Q296.0016,241.4234 295.8703,241.2922 Q295.6406,241.0297 295.2141,240.8766 Q294.7875,240.7234 294.35,240.7234 Q293.8141,240.7234 293.3656,240.9531 Q292.9281,241.1828 292.5781,241.7078 Q292.2391,242.2328 292.2391,242.9547 L292.2391,243.7203 Q292.2391,244.5844 292.8625,245.1641 Q293.4859,245.7328 294.6016,245.7328 Q295.2578,245.7328 295.7172,245.5578 Q295.9906,245.4484 296.2859,245.1422 Q296.4719,244.9562 296.5703,244.9016 Q296.6797,244.8469 296.8219,244.8469 Q297.0516,244.8469 297.2266,245.0328 Q297.4125,245.2078 297.4125,245.4484 Q297.4125,245.6891 297.1719,245.9734 Q296.8219,246.3781 296.2641,246.6078 Q295.5094,246.925 294.6016,246.925 Q293.5406,246.925 292.6984,246.4875 Q292.0094,246.1375 291.5281,245.3937 Q291.0469,244.6391 291.0469,243.7422 L291.0469,242.9328 Q291.0469,242.0031 291.4734,241.2047 Q291.9109,240.3953 292.6766,239.9687 Q293.4422,239.5312 294.3062,239.5312 Q294.8203,239.5312 295.2687,239.6516 Q295.7281,239.7609 296.1109,240.0125 Z " fill="#000000"/><text fill="#000000" font-family="sans-serif" font-size="9.8" lengthAdjust="spacing" textLength="69.3" x="308.525" y="246.9578">SupplierService</text><line style="stroke:#181818;stroke-width:0.3499999999999999;" x1="244.3" x2="419.3" y1="254.1" y2="254.1"/><line style="stroke:#181818;stroke-width:0.3499999999999999;" x1="244.3" x2="419.3" y1="259.7" y2="259.7"/><text fill="#000000" font-family="sans-serif" font-size="9.8" lengthAdjust="spacing" textLength="139.3" x="247.8" y="273.0752">+getSuppliers() : List&lt;Supplier&gt;</text><text fill="#000000" font-family="sans-serif" font-size="9.8" lengthAdjust="spacing" textLength="168" x="247.8" y="286.11">+updateClientStatus() : List&lt;Supplier&gt;</text></g><!--class Repositories--><g id="elem_Repositories"><rect codeLine="25" fill="#F1F1F1" height="72.7043" id="Repositories" rx="1.75" ry="1.75" style="stroke:#181818;stroke-width:0.3499999999999999;" width="211.4" x="16.1" y="364"/><ellipse cx="91.175" cy="375.2" fill="#ADD1B2" rx="7.7" ry="7.7" style="stroke:#181818;stroke-width:0.6999999999999998;"/><path d="M93.1109,372.3125 Q93.2203,372.1594 93.3516,372.0828 Q93.4828,372.0062 93.6359,372.0062 Q93.8984,372.0062 94.0625,372.1922 Q94.2266,372.3672 94.2266,372.7937 L94.2266,373.8109 Q94.2266,374.2375 94.0625,374.4234 Q93.8984,374.6094 93.6359,374.6094 Q93.3953,374.6094 93.2531,374.4672 Q93.1109,374.3359 93.0344,373.975 Q93.0016,373.7234 92.8703,373.5922 Q92.6406,373.3297 92.2141,373.1766 Q91.7875,373.0234 91.35,373.0234 Q90.8141,373.0234 90.3656,373.2531 Q89.9281,373.4828 89.5781,374.0078 Q89.2391,374.5328 89.2391,375.2547 L89.2391,376.0203 Q89.2391,376.8844 89.8625,377.4641 Q90.4859,378.0328 91.6016,378.0328 Q92.2578,378.0328 92.7172,377.8578 Q92.9906,377.7484 93.2859,377.4422 Q93.4719,377.2562 93.5703,377.2016 Q93.6797,377.1469 93.8219,377.1469 Q94.0516,377.1469 94.2266,377.3328 Q94.4125,377.5078 94.4125,377.7484 Q94.4125,377.9891 94.1719,378.2734 Q93.8219,378.6781 93.2641,378.9078 Q92.5094,379.225 91.6016,379.225 Q90.5406,379.225 89.6984,378.7875 Q89.0094,378.4375 88.5281,377.6937 Q88.0469,376.9391 88.0469,376.0422 L88.0469,375.2328 Q88.0469,374.3031 88.4734,373.5047 Q88.9109,372.6953 89.6766,372.2687 Q90.4422,371.8312 91.3062,371.8312 Q91.8203,371.8312 92.2687,371.9516 Q92.7281,372.0609 93.1109,372.3125 Z " fill="#000000"/><text fill="#000000" font-family="sans-serif" font-size="9.8" lengthAdjust="spacing" textLength="55.3" x="105.525" y="379.2578">Repositories</text><line style="stroke:#181818;stroke-width:0.3499999999999999;" x1="16.8" x2="226.8" y1="386.4" y2="386.4"/><line style="stroke:#181818;stroke-width:0.3499999999999999;" x1="16.8" x2="226.8" y1="392" y2="392"/><text fill="#000000" font-family="sans-serif" font-size="9.8" lengthAdjust="spacing" textLength="65.8" x="20.3" y="405.3752">-Repositories()</text><text fill="#000000" font-family="sans-serif" font-size="9.8" lengthAdjust="spacing" textLength="127.4" x="20.3" y="418.41">+getInstance() : Repositories</text><text fill="#000000" font-family="sans-serif" font-size="9.8" lengthAdjust="spacing" textLength="203" x="20.3" y="431.4447">+getSupplierRepository() : SupplierRepository</text></g><!--class SupplierRepository--><g id="elem_SupplierRepository"><rect codeLine="31" fill="#F1F1F1" height="59.6695" id="SupplierRepository" rx="1.75" ry="1.75" style="stroke:#181818;stroke-width:0.3499999999999999;" width="158.9" x="123.55" y="492.1"/><ellipse cx="158.025" cy="503.3" fill="#ADD1B2" rx="7.7" ry="7.7" style="stroke:#181818;stroke-width:0.6999999999999998;"/><path d="M159.9609,500.4125 Q160.0703,500.2594 160.2016,500.1828 Q160.3328,500.1062 160.4859,500.1062 Q160.7484,500.1062 160.9125,500.2922 Q161.0766,500.4672 161.0766,500.8937 L161.0766,501.9109 Q161.0766,502.3375 160.9125,502.5234 Q160.7484,502.7094 160.4859,502.7094 Q160.2453,502.7094 160.1031,502.5672 Q159.9609,502.4359 159.8844,502.075 Q159.8516,501.8234 159.7203,501.6922 Q159.4906,501.4297 159.0641,501.2766 Q158.6375,501.1234 158.2,501.1234 Q157.6641,501.1234 157.2156,501.3531 Q156.7781,501.5828 156.4281,502.1078 Q156.0891,502.6328 156.0891,503.3547 L156.0891,504.1203 Q156.0891,504.9844 156.7125,505.5641 Q157.3359,506.1328 158.4516,506.1328 Q159.1078,506.1328 159.5672,505.9578 Q159.8406,505.8484 160.1359,505.5422 Q160.3219,505.3562 160.4203,505.3016 Q160.5297,505.2469 160.6719,505.2469 Q160.9016,505.2469 161.0766,505.4328 Q161.2625,505.6078 161.2625,505.8484 Q161.2625,506.0891 161.0219,506.3734 Q160.6719,506.7781 160.1141,507.0078 Q159.3594,507.325 158.4516,507.325 Q157.3906,507.325 156.5484,506.8875 Q155.8594,506.5375 155.3781,505.7937 Q154.8969,505.0391 154.8969,504.1422 L154.8969,503.3328 Q154.8969,502.4031 155.3234,501.6047 Q155.7609,500.7953 156.5266,500.3687 Q157.2922,499.9312 158.1562,499.9312 Q158.6703,499.9312 159.1187,500.0516 Q159.5781,500.1609 159.9609,500.4125 Z " fill="#000000"/><text fill="#000000" font-family="sans-serif" font-size="9.8" lengthAdjust="spacing" textLength="84" x="172.375" y="507.3578">SupplierRepository</text><line style="stroke:#181818;stroke-width:0.3499999999999999;" x1="124.25" x2="281.75" y1="514.5" y2="514.5"/><line style="stroke:#181818;stroke-width:0.3499999999999999;" x1="124.25" x2="281.75" y1="520.1" y2="520.1"/><text fill="#000000" font-family="sans-serif" font-size="9.8" lengthAdjust="spacing" textLength="108.5" x="127.75" y="533.4752">+getAll() : List&lt;Supplier&gt;</text><text fill="#000000" font-family="sans-serif" font-size="9.8" lengthAdjust="spacing" textLength="150.5" x="127.75" y="546.51">+updateStatus(supplier) : boolean</text></g><!--class Supplier--><g id="elem_Supplier"><rect codeLine="39" fill="#F1F1F1" height="137.8781" id="Supplier" rx="1.75" ry="1.75" style="stroke:#181818;stroke-width:0.3499999999999999;" width="228.2" x="261.1" y="624.4"/><ellipse cx="354.025" cy="635.6" fill="#ADD1B2" rx="7.7" ry="7.7" style="stroke:#181818;stroke-width:0.6999999999999998;"/><path d="M355.9609,632.7125 Q356.0703,632.5594 356.2016,632.4828 Q356.3328,632.4062 356.4859,632.4062 Q356.7484,632.4062 356.9125,632.5922 Q357.0766,632.7672 357.0766,633.1937 L357.0766,634.2109 Q357.0766,634.6375 356.9125,634.8234 Q356.7484,635.0094 356.4859,635.0094 Q356.2453,635.0094 356.1031,634.8672 Q355.9609,634.7359 355.8844,634.375 Q355.8516,634.1234 355.7203,633.9922 Q355.4906,633.7297 355.0641,633.5766 Q354.6375,633.4234 354.2,633.4234 Q353.6641,633.4234 353.2156,633.6531 Q352.7781,633.8828 352.4281,634.4078 Q352.0891,634.9328 352.0891,635.6547 L352.0891,636.4203 Q352.0891,637.2844 352.7125,637.8641 Q353.3359,638.4328 354.4516,638.4328 Q355.1078,638.4328 355.5672,638.2578 Q355.8406,638.1484 356.1359,637.8422 Q356.3219,637.6562 356.4203,637.6016 Q356.5297,637.5469 356.6719,637.5469 Q356.9016,637.5469 357.0766,637.7328 Q357.2625,637.9078 357.2625,638.1484 Q357.2625,638.3891 357.0219,638.6734 Q356.6719,639.0781 356.1141,639.3078 Q355.3594,639.625 354.4516,639.625 Q353.3906,639.625 352.5484,639.1875 Q351.8594,638.8375 351.3781,638.0937 Q350.8969,637.3391 350.8969,636.4422 L350.8969,635.6328 Q350.8969,634.7031 351.3234,633.9047 Q351.7609,633.0953 352.5266,632.6687 Q353.2922,632.2312 354.1562,632.2312 Q354.6703,632.2312 355.1187,632.3516 Q355.5781,632.4609 355.9609,632.7125 Z " fill="#000000"/><text fill="#000000" font-family="sans-serif" font-size="9.8" lengthAdjust="spacing" textLength="36.4" x="368.375" y="639.6578">Supplier</text><line style="stroke:#181818;stroke-width:0.3499999999999999;" x1="261.8" x2="488.6" y1="646.8" y2="646.8"/><text fill="#000000" font-family="sans-serif" font-size="9.8" lengthAdjust="spacing" textLength="66.5" x="265.3" y="660.1752">-supplierID : int</text><text fill="#000000" font-family="sans-serif" font-size="9.8" lengthAdjust="spacing" textLength="62.3" x="265.3" y="673.21">-name : String</text><text fill="#000000" font-family="sans-serif" font-size="9.8" lengthAdjust="spacing" textLength="84.7" x="265.3" y="686.2447">-phoneNumber : int</text><text fill="#000000" font-family="sans-serif" font-size="9.8" lengthAdjust="spacing" textLength="60.9" x="265.3" y="699.2795">-email : String</text><text fill="#000000" font-family="sans-serif" font-size="9.8" lengthAdjust="spacing" textLength="95.2" x="265.3" y="712.3143">-type : CompanyType</text><text fill="#000000" font-family="sans-serif" font-size="9.8" lengthAdjust="spacing" textLength="81.2" x="265.3" y="725.349">-state : EntityState</text><text fill="#000000" font-family="sans-serif" font-size="9.8" lengthAdjust="spacing" textLength="147" x="265.3" y="738.3838">-supplyOffers : List&lt;SupplyOffer&gt;</text><line style="stroke:#181818;stroke-width:0.3499999999999999;" x1="261.8" x2="488.6" y1="743.6434" y2="743.6434"/><text fill="#000000" font-family="sans-serif" font-size="9.8" lengthAdjust="spacing" textLength="219.8" x="265.3" y="757.0186">+Supplier(supplierID, name, phoneNumber, email)</text></g><!--class EntityState--><g id="elem_EntityState"><rect codeLine="50" fill="#F1F1F1" height="59.6695" id="EntityState" rx="1.75" ry="1.75" style="stroke:#181818;stroke-width:0.3499999999999999;" width="70" x="166.6" y="850.15"/><ellipse cx="177.1" cy="861.35" fill="#EB937F" rx="7.7" ry="7.7" style="stroke:#181818;stroke-width:0.6999999999999998;"/><path d="M176.3016,861.9078 L176.3016,863.6578 L179.3312,863.6578 L179.3312,863.0125 Q179.3312,862.5859 179.4953,862.4 Q179.6703,862.2141 179.9328,862.2141 Q180.1953,862.2141 180.3594,862.4 Q180.5234,862.5859 180.5234,863.0125 L180.5234,864.85 L174.9234,864.85 Q174.4859,864.85 174.3,864.6859 Q174.125,864.5219 174.125,864.2484 Q174.125,863.9859 174.3109,863.8219 Q174.4969,863.6578 174.9234,863.6578 L175.1094,863.6578 L175.1094,858.9984 L174.9234,858.9984 Q174.4859,858.9984 174.3,858.8344 Q174.125,858.6703 174.125,858.3969 Q174.125,858.1344 174.3,857.9703 Q174.4859,857.8062 174.9234,857.8062 L180.2609,857.8062 L180.2609,859.6219 Q180.2609,860.0484 180.0969,860.2344 Q179.9437,860.4094 179.6703,860.4094 Q179.4078,860.4094 179.2437,860.2344 Q179.0797,860.0484 179.0797,859.6219 L179.0797,858.9984 L176.3016,858.9984 L176.3016,860.7156 L177.3406,860.7156 Q177.3406,860.2562 177.4281,860.125 Q177.6141,859.8406 177.9422,859.8406 Q178.2047,859.8406 178.3687,860.0266 Q178.5328,860.2016 178.5328,860.6281 L178.5328,862.0062 Q178.5328,862.3891 178.4453,862.5203 Q178.2594,862.7937 177.9422,862.7937 Q177.6141,862.7937 177.4281,862.5094 Q177.3406,862.3781 177.3406,861.9078 L176.3016,861.9078 Z " fill="#000000"/><text fill="#000000" font-family="sans-serif" font-size="9.8" lengthAdjust="spacing" textLength="47.6" x="186.9" y="865.4078">EntityState</text><line style="stroke:#181818;stroke-width:0.3499999999999999;" x1="167.3" x2="235.9" y1="872.55" y2="872.55"/><text fill="#000000" font-family="sans-serif" font-size="9.8" lengthAdjust="spacing" textLength="34.3" x="170.8" y="885.9252">ACTIVE</text><text fill="#000000" font-family="sans-serif" font-size="9.8" lengthAdjust="spacing" textLength="42.7" x="170.8" y="898.96">INACTIVE</text><line style="stroke:#181818;stroke-width:0.3499999999999999;" x1="167.3" x2="235.9" y1="904.2195" y2="904.2195"/></g><!--class SupplyOffer--><g id="elem_SupplyOffer"><rect codeLine="55" fill="#F1F1F1" height="124.8434" id="SupplyOffer" rx="1.75" ry="1.75" style="stroke:#181818;stroke-width:0.3499999999999999;" width="417.9" x="261.45" y="817.6"/><ellipse cx="441.175" cy="828.8" fill="#ADD1B2" rx="7.7" ry="7.7" style="stroke:#181818;stroke-width:0.6999999999999998;"/><path d="M443.1109,825.9125 Q443.2203,825.7594 443.3516,825.6828 Q443.4828,825.6062 443.6359,825.6062 Q443.8984,825.6062 444.0625,825.7922 Q444.2266,825.9672 444.2266,826.3937 L444.2266,827.4109 Q444.2266,827.8375 444.0625,828.0234 Q443.8984,828.2094 443.6359,828.2094 Q443.3953,828.2094 443.2531,828.0672 Q443.1109,827.9359 443.0344,827.575 Q443.0016,827.3234 442.8703,827.1922 Q442.6406,826.9297 442.2141,826.7766 Q441.7875,826.6234 441.35,826.6234 Q440.8141,826.6234 440.3656,826.8531 Q439.9281,827.0828 439.5781,827.6078 Q439.2391,828.1328 439.2391,828.8547 L439.2391,829.6203 Q439.2391,830.4844 439.8625,831.0641 Q440.4859,831.6328 441.6016,831.6328 Q442.2578,831.6328 442.7172,831.4578 Q442.9906,831.3484 443.2859,831.0422 Q443.4719,830.8562 443.5703,830.8016 Q443.6797,830.7469 443.8219,830.7469 Q444.0516,830.7469 444.2266,830.9328 Q444.4125,831.1078 444.4125,831.3484 Q444.4125,831.5891 444.1719,831.8734 Q443.8219,832.2781 443.2641,832.5078 Q442.5094,832.825 441.6016,832.825 Q440.5406,832.825 439.6984,832.3875 Q439.0094,832.0375 438.5281,831.2937 Q438.0469,830.5391 438.0469,829.6422 L438.0469,828.8328 Q438.0469,827.9031 438.4734,827.1047 Q438.9109,826.2953 439.6766,825.8687 Q440.4422,825.4312 441.3062,825.4312 Q441.8203,825.4312 442.2687,825.5516 Q442.7281,825.6609 443.1109,825.9125 Z " fill="#000000"/><text fill="#000000" font-family="sans-serif" font-size="9.8" lengthAdjust="spacing" textLength="52.5" x="455.525" y="832.8578">SupplyOffer</text><line style="stroke:#181818;stroke-width:0.3499999999999999;" x1="262.15" x2="678.65" y1="840" y2="840"/><text fill="#000000" font-family="sans-serif" font-size="9.8" lengthAdjust="spacing" textLength="82.6" x="265.65" y="853.3752">-supplyOfferID : int</text><text fill="#000000" font-family="sans-serif" font-size="9.8" lengthAdjust="spacing" textLength="119" x="265.65" y="866.41">-deliveryAddress : Address</text><text fill="#000000" font-family="sans-serif" font-size="9.8" lengthAdjust="spacing" textLength="73.5" x="265.65" y="879.4447">-startDate : Date</text><text fill="#000000" font-family="sans-serif" font-size="9.8" lengthAdjust="spacing" textLength="70.7" x="265.65" y="892.4795">-endDate : Date</text><text fill="#000000" font-family="sans-serif" font-size="9.8" lengthAdjust="spacing" textLength="92.4" x="265.65" y="905.5143">-state : ProcessState</text><text fill="#000000" font-family="sans-serif" font-size="9.8" lengthAdjust="spacing" textLength="312.2" x="265.65" y="918.549">-rawMaterialsQuantityCost : Map&lt;RawMaterial, Map&lt;Integer, Double&gt;&gt;</text><line style="stroke:#181818;stroke-width:0.3499999999999999;" x1="262.15" x2="678.65" y1="923.8086" y2="923.8086"/><text fill="#000000" font-family="sans-serif" font-size="9.8" lengthAdjust="spacing" textLength="409.5" x="265.65" y="937.1838">+SupplyOffer(supplyOfferID, deliveryAddress, startDate, endDate, rawMaterialsQuantityCost)</text></g><!--link StatusSupplierUI to SupplierController--><g id="link_StatusSupplierUI_SupplierController"><path codeLine="67" d="M331.8,64.435 C331.8,80.773 331.8,101.976 331.8,120.365 " fill="none" id="StatusSupplierUI-to-SupplierController" style="stroke:#181818;stroke-width:0.6999999999999998;stroke-dasharray:7.0,7.0;"/><polygon fill="#181818" points="331.8,124.565,334.6,118.265,331.8,121.065,329,118.265,331.8,124.565" style="stroke:#181818;stroke-width:0.6999999999999998;"/></g><!--link SupplierController to SupplierService--><g id="link_SupplierController_SupplierService"><path codeLine="68" d="M331.8,171.682 C331.8,189.028 331.8,208.761 331.8,227.458 " fill="none" id="SupplierController-to-SupplierService" style="stroke:#181818;stroke-width:0.6999999999999998;stroke-dasharray:7.0,7.0;"/><polygon fill="#181818" points="331.8,231.658,334.6,225.358,331.8,228.158,329,225.358,331.8,231.658" style="stroke:#181818;stroke-width:0.6999999999999998;"/></g><!--link SupplierService to Repositories--><g id="link_SupplierService_Repositories"><path codeLine="69" d="M287.266,291.319 C254.877,312.536 214.3604,339.0746 179.8644,361.6706 " fill="none" id="SupplierService-to-Repositories" style="stroke:#181818;stroke-width:0.6999999999999998;stroke-dasharray:7.0,7.0;"/><polygon fill="#181818" points="176.351,363.972,183.1553,362.8622,179.2788,362.0542,180.0868,358.1777,176.351,363.972" style="stroke:#181818;stroke-width:0.6999999999999998;"/><text fill="#000000" font-family="sans-serif" font-size="9.1" lengthAdjust="spacing" textLength="46.9" x="252.7" y="324.1198">repositories</text></g><!--link SupplierService to SupplierRepository--><g id="link_SupplierService_SupplierRepository"><path codeLine="70" d="M325.71,291.382 C315.343,341.103 295.4,436.8 295.4,436.8 C295.4,436.8 264.8459,464.6913 238.1619,489.0513 " fill="none" id="SupplierService-to-SupplierRepository" style="stroke:#181818;stroke-width:0.6999999999999998;stroke-dasharray:7.0,7.0;"/><polygon fill="#181818" points="235.06,491.883,241.6006,489.7034,237.6449,489.5233,237.825,485.5676,235.06,491.883" style="stroke:#181818;stroke-width:0.6999999999999998;"/><text fill="#000000" font-family="sans-serif" font-size="9.1" lengthAdjust="spacing" textLength="74.9" x="317.1" y="404.2698">supplierRepository</text></g><!--link SupplierService to Supplier--><g id="link_SupplierService_Supplier"><path codeLine="71" d="M359.422,291.375 C377.692,310.702 398.3,332.5 398.3,332.5 C398.3,332.5 398.3,436.8 398.3,436.8 C398.3,436.8 388.6119,544.12 381.7659,619.902 " fill="none" id="SupplierService-to-Supplier" style="stroke:#181818;stroke-width:0.6999999999999998;stroke-dasharray:7.0,7.0;"/><polygon fill="#181818" points="381.388,624.085,384.7435,618.0625,381.7029,620.5992,379.1662,617.5586,381.388,624.085" style="stroke:#181818;stroke-width:0.6999999999999998;"/><text fill="#000000" font-family="sans-serif" font-size="9.1" lengthAdjust="spacing" textLength="31.5" x="396.9" y="468.3198">supplier</text></g><!--link Repositories to Repositories--><g id="link_Repositories_Repositories"><path codeLine="72" d="M227.549,389.858 C242.207,391.594 252,395.108 252,400.4 C252,405.692 246.3779,408.712 231.7199,410.448 " fill="none" id="Repositories-to-Repositories" style="stroke:#181818;stroke-width:0.6999999999999998;"/><polygon fill="#181818" points="227.549,410.942,234.1346,412.9816,231.0247,410.5304,233.476,407.4205,227.549,410.942" style="stroke:#181818;stroke-width:0.6999999999999998;"/><text fill="#000000" font-family="sans-serif" font-size="9.1" lengthAdjust="spacing" textLength="34.3" x="256.2" y="404.2698">instance</text></g><!--link Repositories to SupplierRepository--><g id="link_Repositories_SupplierRepository"><path codeLine="73" d="M146.16,437.122 C158.025,454.664 169.7552,472.0036 180.9342,488.5236 " fill="none" id="Repositories-to-SupplierRepository" style="stroke:#181818;stroke-width:0.6999999999999998;"/><polygon fill="#181818" points="183.288,492.002,182.0762,485.2151,181.3265,489.1033,177.4383,488.3536,183.288,492.002" style="stroke:#181818;stroke-width:0.6999999999999998;"/><text fill="#000000" font-family="sans-serif" font-size="9.1" lengthAdjust="spacing" textLength="74.9" x="168" y="468.3198">supplierRepository</text><text fill="#000000" font-family="sans-serif" font-size="9.1" lengthAdjust="spacing" textLength="4.9" x="143.9303" y="452.1607">1</text><text fill="#000000" font-family="sans-serif" font-size="9.1" lengthAdjust="spacing" textLength="4.9" x="174.8559" y="484.2192">1</text></g><!--link SupplierRepository to Supplier--><g id="link_SupplierRepository_Supplier"><path codeLine="74" d="M232.603,551.789 C252.798,571.739 277.4248,596.0666 302.9818,621.3086 " fill="none" id="SupplierRepository-to-Supplier" style="stroke:#181818;stroke-width:0.6999999999999998;"/><polygon fill="#181818" points="305.97,624.26,303.4553,617.8408,303.4798,621.8005,299.5201,621.8251,305.97,624.26" style="stroke:#181818;stroke-width:0.6999999999999998;"/><text fill="#000000" font-family="sans-serif" font-size="9.1" lengthAdjust="spacing" textLength="42" x="263.9" y="584.5198">categories</text><text fill="#000000" font-family="sans-serif" font-size="9.1" lengthAdjust="spacing" textLength="4.9" x="231.8608" y="567.1069">1</text><text fill="#000000" font-family="sans-serif" font-size="9.1" lengthAdjust="spacing" textLength="3.5" x="297.0356" y="616.4432">*</text></g><!--link Supplier to SupplyOffer--><g id="link_Supplier_SupplyOffer"><path codeLine="75" d="M410.375,762.468 C419.65,780.493 427.6692,796.099 436.7482,813.753 " fill="none" id="Supplier-to-SupplyOffer" style="stroke:#181818;stroke-width:0.6999999999999998;"/><polygon fill="#181818" points="438.669,817.488,438.2778,810.6049,437.0683,814.3755,433.2977,813.166,438.669,817.488" style="stroke:#181818;stroke-width:0.6999999999999998;"/><text fill="#000000" font-family="sans-serif" font-size="9.1" lengthAdjust="spacing" textLength="14.7" x="426.3" y="793.8198">has</text><text fill="#000000" font-family="sans-serif" font-size="9.1" lengthAdjust="spacing" textLength="4.9" x="407.8782" y="777.8089">1</text><text fill="#000000" font-family="sans-serif" font-size="9.1" lengthAdjust="spacing" textLength="3.5" x="432.3964" y="809.745">*</text></g><!--link Supplier to EntityState--><g id="link_Supplier_EntityState"><path codeLine="76" d="M305.564,762.328 C276.423,790.902 249.2,817.6 249.2,817.6 C249.2,817.6 239.0132,830.7749 226.7142,846.6999 " fill="none" id="Supplier-to-EntityState" style="stroke:#181818;stroke-width:0.6999999999999998;"/><polygon fill="#181818" points="224.147,850.024,230.2139,846.7494,226.2863,847.2539,225.7818,843.3264,224.147,850.024" style="stroke:#181818;stroke-width:0.6999999999999998;"/><text fill="#000000" font-family="sans-serif" font-size="9.1" lengthAdjust="spacing" textLength="14.7" x="283.5" y="793.8198">has</text><text fill="#000000" font-family="sans-serif" font-size="9.1" lengthAdjust="spacing" textLength="3.5" x="296.8216" y="777.6586">*</text><text fill="#000000" font-family="sans-serif" font-size="9.1" lengthAdjust="spacing" textLength="4.9" x="222.45" y="842.2368">1</text></g><!--SRC=[bLJ1RkCW4BtxAr1EITUfkjUeYXGbFLZQjBjDktTYJnnK31RWLjvL_tt1nl7OfjNMbuIPDynx3nZzmaH95Ir8ITCNciF1r1o8WjHGaNE8z0MWppIJRqpav4IvnXdE19Yw159ANhi5ogMSQhqnHh5ZPI19fJYmFq1keiWt9BFdP4R-HiH-3PWS33MLFbHboHcevyGdtwDtLBILmYZ9EQXHiI_hypxjlczLcL437QPjD5-G5Vd1jBdjukj0lmEeLvP2k9bFuauvc2xxOGT4QMkZmdo5q2EKKZCZLJtaT8apq8ZG4iVdYm7HH6XxsYaqZJ4kAATltE2dOKysu5EF6LcruVm_JFBsQ9zt1KSfEL3HjSG6xMK6F7nUs9TkjsHdjsF2z1b12t02xTqLUHykprB0VLKSxJwZ2YWeuu6Ivd6io5OM9HNrarsX_bQKIzu9mqpj9CA8NFrmEjbRDB2dZI67EcdpNazCd8AO8C8nQIWky161g0hS7PcpsJubl-yko-GU1QO7t7AQUDk6f_RQqs6leEfDbYdGJfx_D_16cLthpsvW38Wi6E_S_AbaQhSQsQdeszu65BC3x5T56yrRgOqjsDFozh5FnqqW4GPovzfELaSEwx7VhRJvG6PCHi9YSf5XxMzvn-GZAel-gKUJGNXzlGuCk2Wmyp3IJwTeFAqSPZ0jLdRkeySVmWTUyehewGZuh1PLH8F-o-M44FEZQGYSVPyrOFVxLKO8TzdcQeR9fVPSyg45KwY_x2jofXXsrHF3Jwg5_GC0]--></g></svg>