<?xml version="1.0" encoding="us-ascii" standalone="no"?><svg xmlns="http://www.w3.org/2000/svg" xmlns:xlink="http://www.w3.org/1999/xlink" contentStyleType="text/css" height="881.3px" preserveAspectRatio="none" style="width:1060px;height:881px;background:#FFFFFF;" version="1.1" viewBox="0 0 1060 881" width="1060.5px" zoomAndPan="magnify"><defs/><g><text fill="#000000" font-family="sans-serif" font-size="9.8" font-weight="bold" lengthAdjust="spacing" textLength="127.4" x="467.25" y="21.0752">Supplier Status Sequence</text><rect fill="#FFFFFF" height="717.4877" style="stroke:#181818;stroke-width:0.6999999999999998;" width="7" x="31.15" y="93.2695"/><rect fill="#FFFFFF" height="701.184" style="stroke:#181818;stroke-width:0.6999999999999998;" width="7" x="310.45" y="109.5732"/><rect fill="#FFFFFF" height="621.9418" style="stroke:#181818;stroke-width:0.6999999999999998;" width="7" x="496.65" y="162.0117"/><rect fill="#FFFFFF" height="578.1344" style="stroke:#181818;stroke-width:0.6999999999999998;" width="7" x="682.85" y="183.9154"/><rect fill="#FFFFFF" height="246.5408" style="stroke:#181818;stroke-width:0.6999999999999998;" width="7" x="686.35" y="211.4191"/><rect fill="#FFFFFF" height="21.9037" style="stroke:#181818;stroke-width:0.6999999999999998;" width="7" x="766.85" y="236.8229"/><rect fill="#FFFFFF" height="21.9037" style="stroke:#181818;stroke-width:0.6999999999999998;" width="7" x="840.35" y="280.6303"/><rect fill="#FFFFFF" height="107.4186" style="stroke:#181818;stroke-width:0.6999999999999998;" width="7" x="928.9" y="324.4377"/><rect fill="#FFFFFF" height="21.9037" style="stroke:#181818;stroke-width:0.6999999999999998;" width="7" x="928.9" y="609.1859"/><rect fill="#FFFFFF" height="21.9037" style="stroke:#181818;stroke-width:0.6999999999999998;" width="7" x="928.9" y="708.4424"/><rect fill="#FFFFFF" height="21.9037" style="stroke:#181818;stroke-width:0.6999999999999998;" width="7" x="1007.3" y="503.1674"/><rect fill="#FFFFFF" height="21.9037" style="stroke:#181818;stroke-width:0.6999999999999998;" width="7" x="1007.3" y="565.3785"/><rect fill="#FFFFFF" height="21.9037" style="stroke:#181818;stroke-width:0.6999999999999998;" width="7" x="1007.3" y="664.635"/><rect fill="none" height="454.6158" style="stroke:#000000;stroke-width:1.0499999999999998;" width="791.35" x="264.25" y="334.9377"/><rect fill="none" height="267.4861" style="stroke:#000000;stroke-width:1.0499999999999998;" width="417.2" x="631.4" y="473.36"/><rect fill="none" height="200.375" style="stroke:#000000;stroke-width:1.0499999999999998;" width="403.2" x="638.4" y="535.5711"/><line style="stroke:#181818;stroke-width:0.3499999999999999;stroke-dasharray:5.0,5.0;" x1="34.3" x2="34.3" y1="86.2695" y2="823.3572"/><line style="stroke:#181818;stroke-width:0.3499999999999999;stroke-dasharray:5.0,5.0;" x1="313.95" x2="313.95" y1="86.2695" y2="823.3572"/><line style="stroke:#181818;stroke-width:0.3499999999999999;stroke-dasharray:5.0,5.0;" x1="500.15" x2="500.15" y1="137.4406" y2="823.3572"/><line style="stroke:#181818;stroke-width:0.3499999999999999;stroke-dasharray:5.0,5.0;" x1="686" x2="686" y1="86.2695" y2="823.3572"/><line style="stroke:#181818;stroke-width:0.3499999999999999;stroke-dasharray:5.0,5.0;" x1="770" x2="770" y1="86.2695" y2="823.3572"/><line style="stroke:#181818;stroke-width:0.3499999999999999;stroke-dasharray:5.0,5.0;" x1="843.5" x2="843.5" y1="86.2695" y2="823.3572"/><line style="stroke:#181818;stroke-width:0.3499999999999999;stroke-dasharray:5.0,5.0;" x1="932.4" x2="932.4" y1="86.2695" y2="823.3572"/><line style="stroke:#181818;stroke-width:0.3499999999999999;stroke-dasharray:5.0,5.0;" x1="1010.8" x2="1010.8" y1="86.2695" y2="823.3572"/><text fill="#000000" font-family="sans-serif" font-size="9.8" lengthAdjust="spacing" textLength="58.1" x="3.5" y="83.81">Administrator</text><ellipse cx="34.65" cy="37.1848" fill="#E3E3E3" rx="5.6" ry="5.6" style="stroke:#181818;stroke-width:0.3499999999999999;"/><path d="M34.65,42.7848 L34.65,61.6848 M25.55,48.3848 L43.75,48.3848 M34.65,61.6848 L25.55,72.1848 M34.65,61.6848 L43.75,72.1848 " fill="none" style="stroke:#181818;stroke-width:0.3499999999999999;"/><text fill="#000000" font-family="sans-serif" font-size="9.8" lengthAdjust="spacing" textLength="58.1" x="3.5" y="833.2324">Administrator</text><ellipse cx="34.65" cy="841.642" fill="#E3E3E3" rx="5.6" ry="5.6" style="stroke:#181818;stroke-width:0.3499999999999999;"/><path d="M34.65,847.242 L34.65,866.142 M25.55,852.842 L43.75,852.842 M34.65,866.142 L25.55,876.642 M34.65,866.142 L43.75,876.642 " fill="none" style="stroke:#181818;stroke-width:0.3499999999999999;"/><rect fill="#E3E3E3" height="22.8348" rx="1.75" ry="1.75" style="stroke:#181818;stroke-width:0.3499999999999999;" width="85.4" x="271.25" y="62.7348"/><text fill="#000000" font-family="sans-serif" font-size="9.8" lengthAdjust="spacing" textLength="75.6" x="276.15" y="78.21">:StatusSupplierUI</text><rect fill="#E3E3E3" height="22.8348" rx="1.75" ry="1.75" style="stroke:#181818;stroke-width:0.3499999999999999;" width="85.4" x="271.25" y="822.6572"/><text fill="#000000" font-family="sans-serif" font-size="9.8" lengthAdjust="spacing" textLength="75.6" x="276.15" y="838.1324">:StatusSupplierUI</text><rect fill="#E3E3E3" height="22.8348" rx="1.75" ry="1.75" style="stroke:#181818;stroke-width:0.3499999999999999;" width="92.4" x="453.95" y="822.6572"/><text fill="#000000" font-family="sans-serif" font-size="9.8" lengthAdjust="spacing" textLength="82.6" x="458.85" y="838.1324">:SupplierController</text><rect fill="#E3E3E3" height="22.8348" rx="1.75" ry="1.75" style="stroke:#181818;stroke-width:0.3499999999999999;" width="81.9" x="645.4" y="62.7348"/><text fill="#000000" font-family="sans-serif" font-size="9.8" lengthAdjust="spacing" textLength="72.1" x="650.3" y="78.21">:SupplierService</text><rect fill="#E3E3E3" height="22.8348" rx="1.75" ry="1.75" style="stroke:#181818;stroke-width:0.3499999999999999;" width="81.9" x="645.4" y="822.6572"/><text fill="#000000" font-family="sans-serif" font-size="9.8" lengthAdjust="spacing" textLength="72.1" x="650.3" y="838.1324">:SupplierService</text><rect fill="#E3E3E3" height="22.8348" rx="1.75" ry="1.75" style="stroke:#181818;stroke-width:0.3499999999999999;" width="65.1" x="737.8" y="62.7348"/><text fill="#000000" font-family="sans-serif" font-size="9.8" lengthAdjust="spacing" textLength="55.3" x="742.7" y="78.21">Repositories</text><rect fill="#E3E3E3" height="22.8348" rx="1.75" ry="1.75" style="stroke:#181818;stroke-width:0.3499999999999999;" width="65.1" x="737.8" y="822.6572"/><text fill="#000000" font-family="sans-serif" font-size="9.8" lengthAdjust="spacing" textLength="55.3" x="742.7" y="838.1324">Repositories</text><rect fill="#E3E3E3" height="35.8695" rx="1.75" ry="1.75" style="stroke:#181818;stroke-width:0.3499999999999999;" width="67.9" x="809.9" y="49.7"/><text fill="#000000" font-family="sans-serif" font-size="9.8" lengthAdjust="spacing" textLength="51.8" x="817.95" y="65.1752">repositories</text><text fill="#000000" font-family="sans-serif" font-size="9.8" lengthAdjust="spacing" textLength="58.1" x="814.8" y="78.21">:Repositories</text><rect fill="#E3E3E3" height="35.8695" rx="1.75" ry="1.75" style="stroke:#181818;stroke-width:0.3499999999999999;" width="67.9" x="809.9" y="822.6572"/><text fill="#000000" font-family="sans-serif" font-size="9.8" lengthAdjust="spacing" textLength="51.8" x="817.95" y="838.1324">repositories</text><text fill="#000000" font-family="sans-serif" font-size="9.8" lengthAdjust="spacing" textLength="58.1" x="814.8" y="851.1672">:Repositories</text><rect fill="#E3E3E3" height="35.8695" rx="1.75" ry="1.75" style="stroke:#181818;stroke-width:0.3499999999999999;" width="95.2" x="884.8" y="49.7"/><text fill="#000000" font-family="sans-serif" font-size="9.8" lengthAdjust="spacing" textLength="85.4" x="889.7" y="65.1752">supplierRepository:</text><text fill="#000000" font-family="sans-serif" font-size="9.8" lengthAdjust="spacing" textLength="84" x="890.4" y="78.21">SupplierRepository</text><rect fill="#E3E3E3" height="35.8695" rx="1.75" ry="1.75" style="stroke:#181818;stroke-width:0.3499999999999999;" width="95.2" x="884.8" y="822.6572"/><text fill="#000000" font-family="sans-serif" font-size="9.8" lengthAdjust="spacing" textLength="85.4" x="889.7" y="838.1324">supplierRepository:</text><text fill="#000000" font-family="sans-serif" font-size="9.8" lengthAdjust="spacing" textLength="84" x="890.4" y="851.1672">SupplierRepository</text><rect fill="#E3E3E3" height="35.8695" rx="1.75" ry="1.75" style="stroke:#181818;stroke-width:0.3499999999999999;" width="47.6" x="987" y="49.7"/><text fill="#000000" font-family="sans-serif" font-size="9.8" lengthAdjust="spacing" textLength="37.8" x="991.9" y="65.1752">supplier:</text><text fill="#000000" font-family="sans-serif" font-size="9.8" lengthAdjust="spacing" textLength="36.4" x="992.6" y="78.21">Supplier</text><rect fill="#E3E3E3" height="35.8695" rx="1.75" ry="1.75" style="stroke:#181818;stroke-width:0.3499999999999999;" width="47.6" x="987" y="822.6572"/><text fill="#000000" font-family="sans-serif" font-size="9.8" lengthAdjust="spacing" textLength="37.8" x="991.9" y="838.1324">supplier:</text><text fill="#000000" font-family="sans-serif" font-size="9.8" lengthAdjust="spacing" textLength="36.4" x="992.6" y="851.1672">Supplier</text><rect fill="#FFFFFF" height="717.4877" style="stroke:#181818;stroke-width:0.6999999999999998;" width="7" x="31.15" y="93.2695"/><rect fill="#FFFFFF" height="701.184" style="stroke:#181818;stroke-width:0.6999999999999998;" width="7" x="310.45" y="109.5732"/><rect fill="#FFFFFF" height="621.9418" style="stroke:#181818;stroke-width:0.6999999999999998;" width="7" x="496.65" y="162.0117"/><rect fill="#FFFFFF" height="578.1344" style="stroke:#181818;stroke-width:0.6999999999999998;" width="7" x="682.85" y="183.9154"/><rect fill="#FFFFFF" height="246.5408" style="stroke:#181818;stroke-width:0.6999999999999998;" width="7" x="686.35" y="211.4191"/><rect fill="#FFFFFF" height="21.9037" style="stroke:#181818;stroke-width:0.6999999999999998;" width="7" x="766.85" y="236.8229"/><rect fill="#FFFFFF" height="21.9037" style="stroke:#181818;stroke-width:0.6999999999999998;" width="7" x="840.35" y="280.6303"/><rect fill="#FFFFFF" height="107.4186" style="stroke:#181818;stroke-width:0.6999999999999998;" width="7" x="928.9" y="324.4377"/><rect fill="#FFFFFF" height="21.9037" style="stroke:#181818;stroke-width:0.6999999999999998;" width="7" x="928.9" y="609.1859"/><rect fill="#FFFFFF" height="21.9037" style="stroke:#181818;stroke-width:0.6999999999999998;" width="7" x="928.9" y="708.4424"/><rect fill="#FFFFFF" height="21.9037" style="stroke:#181818;stroke-width:0.6999999999999998;" width="7" x="1007.3" y="503.1674"/><rect fill="#FFFFFF" height="21.9037" style="stroke:#181818;stroke-width:0.6999999999999998;" width="7" x="1007.3" y="565.3785"/><rect fill="#FFFFFF" height="21.9037" style="stroke:#181818;stroke-width:0.6999999999999998;" width="7" x="1007.3" y="664.635"/><polygon fill="#181818" points="302.05,106.7732,309.05,109.5732,302.05,112.3732,304.85,109.5732" style="stroke:#181818;stroke-width:0.6999999999999998;"/><line style="stroke:#181818;stroke-width:0.6999999999999998;" x1="38.15" x2="306.25" y1="109.5732" y2="109.5732"/><text fill="#000000" font-family="sans-serif" font-size="9.1" font-weight="bold" lengthAdjust="spacing" textLength="4.9" x="43.05" y="105.8894">1</text><text fill="#000000" font-family="sans-serif" font-size="9.1" lengthAdjust="spacing" textLength="102.2" x="50.75" y="105.8894">asks to update a supplier</text><polygon fill="#181818" points="445.55,128.677,452.55,131.477,445.55,134.277,448.35,131.477" style="stroke:#181818;stroke-width:0.6999999999999998;"/><line style="stroke:#181818;stroke-width:0.6999999999999998;" x1="317.45" x2="449.75" y1="131.477" y2="131.477"/><text fill="#000000" font-family="sans-serif" font-size="9.1" font-weight="bold" lengthAdjust="spacing" textLength="4.9" x="322.35" y="127.7931">2</text><text fill="#000000" font-family="sans-serif" font-size="9.1" lengthAdjust="spacing" textLength="25.2" x="330.05" y="127.7931">create</text><rect fill="#E3E3E3" height="22.8348" rx="1.75" ry="1.75" style="stroke:#181818;stroke-width:0.3499999999999999;" width="92.4" x="453.95" y="115.1732"/><text fill="#000000" font-family="sans-serif" font-size="9.8" lengthAdjust="spacing" textLength="82.6" x="458.85" y="130.6484">:SupplierController</text><polygon fill="#181818" points="488.25,159.2117,495.25,162.0117,488.25,164.8117,491.05,162.0117" style="stroke:#181818;stroke-width:0.6999999999999998;"/><line style="stroke:#181818;stroke-width:0.6999999999999998;" x1="317.45" x2="492.45" y1="162.0117" y2="162.0117"/><text fill="#000000" font-family="sans-serif" font-size="9.1" font-weight="bold" lengthAdjust="spacing" textLength="4.9" x="322.35" y="158.3278">3</text><text fill="#000000" font-family="sans-serif" font-size="9.1" lengthAdjust="spacing" textLength="92.4" x="330.05" y="158.3278">updateSupplierStatus()</text><polygon fill="#181818" points="674.45,181.1154,681.45,183.9154,674.45,186.7154,677.25,183.9154" style="stroke:#181818;stroke-width:0.6999999999999998;"/><line style="stroke:#181818;stroke-width:0.6999999999999998;" x1="503.65" x2="678.65" y1="183.9154" y2="183.9154"/><text fill="#000000" font-family="sans-serif" font-size="9.1" font-weight="bold" lengthAdjust="spacing" textLength="4.9" x="508.55" y="180.2315">4</text><text fill="#000000" font-family="sans-serif" font-size="9.1" lengthAdjust="spacing" textLength="92.4" x="516.25" y="180.2315">updateSupplierStatus()</text><line style="stroke:#181818;stroke-width:0.6999999999999998;" x1="689.85" x2="722.75" y1="202.3191" y2="202.3191"/><line style="stroke:#181818;stroke-width:0.6999999999999998;" x1="722.75" x2="722.75" y1="202.3191" y2="211.4191"/><line style="stroke:#181818;stroke-width:0.6999999999999998;" x1="694.05" x2="722.75" y1="211.4191" y2="211.4191"/><polygon fill="#181818" points="701.05,208.6191,694.05,211.4191,701.05,214.2191,698.25,211.4191" style="stroke:#181818;stroke-width:0.6999999999999998;"/><text fill="#000000" font-family="sans-serif" font-size="9.1" font-weight="bold" lengthAdjust="spacing" textLength="4.9" x="698.25" y="198.6353">5</text><text fill="#000000" font-family="sans-serif" font-size="9.1" lengthAdjust="spacing" textLength="58.8" x="705.95" y="198.6353">getSuppliers())</text><polygon fill="#181818" points="758.45,234.0229,765.45,236.8229,758.45,239.6229,761.25,236.8229" style="stroke:#181818;stroke-width:0.6999999999999998;"/><line style="stroke:#181818;stroke-width:0.6999999999999998;" x1="693.35" x2="762.65" y1="236.8229" y2="236.8229"/><text fill="#000000" font-family="sans-serif" font-size="9.1" font-weight="bold" lengthAdjust="spacing" textLength="4.9" x="698.25" y="233.139">6</text><text fill="#000000" font-family="sans-serif" font-size="9.1" lengthAdjust="spacing" textLength="52.5" x="705.95" y="233.139">getInstance()</text><polygon fill="#181818" points="701.05,255.9266,694.05,258.7266,701.05,261.5266,698.25,258.7266" style="stroke:#181818;stroke-width:0.6999999999999998;"/><line style="stroke:#181818;stroke-width:0.6999999999999998;stroke-dasharray:2.0,2.0;" x1="696.85" x2="769.65" y1="258.7266" y2="258.7266"/><text fill="#000000" font-family="sans-serif" font-size="9.1" font-weight="bold" lengthAdjust="spacing" textLength="4.9" x="705.25" y="255.0427">7</text><text fill="#000000" font-family="sans-serif" font-size="9.1" lengthAdjust="spacing" textLength="46.9" x="712.95" y="255.0427">repositories</text><polygon fill="#181818" points="831.95,277.8303,838.95,280.6303,831.95,283.4303,834.75,280.6303" style="stroke:#181818;stroke-width:0.6999999999999998;"/><line style="stroke:#181818;stroke-width:0.6999999999999998;" x1="693.35" x2="836.15" y1="280.6303" y2="280.6303"/><text fill="#000000" font-family="sans-serif" font-size="9.1" font-weight="bold" lengthAdjust="spacing" textLength="4.9" x="698.25" y="276.9464">8</text><text fill="#000000" font-family="sans-serif" font-size="9.1" lengthAdjust="spacing" textLength="94.5" x="705.95" y="276.9464">getSupplierRepository()</text><polygon fill="#181818" points="701.05,299.734,694.05,302.534,701.05,305.334,698.25,302.534" style="stroke:#181818;stroke-width:0.6999999999999998;"/><line style="stroke:#181818;stroke-width:0.6999999999999998;stroke-dasharray:2.0,2.0;" x1="696.85" x2="843.15" y1="302.534" y2="302.534"/><text fill="#000000" font-family="sans-serif" font-size="9.1" font-weight="bold" lengthAdjust="spacing" textLength="4.9" x="705.25" y="298.8501">9</text><text fill="#000000" font-family="sans-serif" font-size="9.1" lengthAdjust="spacing" textLength="74.9" x="712.95" y="298.8501">supplierRepository</text><polygon fill="#181818" points="920.5,321.6377,927.5,324.4377,920.5,327.2377,923.3,324.4377" style="stroke:#181818;stroke-width:0.6999999999999998;"/><line style="stroke:#181818;stroke-width:0.6999999999999998;" x1="693.35" x2="924.7" y1="324.4377" y2="324.4377"/><text fill="#000000" font-family="sans-serif" font-size="9.1" font-weight="bold" lengthAdjust="spacing" textLength="9.8" x="698.25" y="320.7538">10</text><text fill="#000000" font-family="sans-serif" font-size="9.1" lengthAdjust="spacing" textLength="28.7" x="710.85" y="320.7538">getAll()</text><path d="M264.25,334.9377 L306.95,334.9377 L306.95,341.4414 L299.95,348.4414 L264.25,348.4414 L264.25,334.9377 " fill="#EEEEEE" style="stroke:#000000;stroke-width:1.0499999999999998;"/><rect fill="none" height="454.6158" style="stroke:#000000;stroke-width:1.0499999999999998;" width="791.35" x="264.25" y="334.9377"/><text fill="#000000" font-family="sans-serif" font-size="9.1" font-weight="bold" lengthAdjust="spacing" textLength="11.2" x="274.75" y="345.4575">alt</text><text fill="#000000" font-family="sans-serif" font-size="7.7" font-weight="bold" lengthAdjust="spacing" textLength="57.4" x="317.45" y="344.6468">[system error]</text><polygon fill="#181818" points="701.05,361.9451,694.05,364.7451,701.05,367.5451,698.25,364.7451" style="stroke:#181818;stroke-width:0.6999999999999998;"/><line style="stroke:#181818;stroke-width:0.6999999999999998;stroke-dasharray:2.0,2.0;" x1="696.85" x2="928.2" y1="364.7451" y2="364.7451"/><text fill="#000000" font-family="sans-serif" font-size="9.1" font-weight="bold" lengthAdjust="spacing" textLength="9.8" x="705.25" y="361.0612">11</text><text fill="#000000" font-family="sans-serif" font-size="9.1" lengthAdjust="spacing" textLength="59.5" x="717.85" y="361.0612">Database error</text><polygon fill="#181818" points="511.35,383.8488,504.35,386.6488,511.35,389.4488,508.55,386.6488" style="stroke:#181818;stroke-width:0.6999999999999998;"/><line style="stroke:#181818;stroke-width:0.6999999999999998;stroke-dasharray:2.0,2.0;" x1="507.15" x2="685.65" y1="386.6488" y2="386.6488"/><text fill="#000000" font-family="sans-serif" font-size="9.1" font-weight="bold" lengthAdjust="spacing" textLength="9.8" x="515.55" y="382.9649">12</text><text fill="#000000" font-family="sans-serif" font-size="9.1" lengthAdjust="spacing" textLength="149.8" x="528.15" y="382.9649">show error message (Database error)</text><polygon fill="#181818" points="325.15,405.7525,318.15,408.5525,325.15,411.3525,322.35,408.5525" style="stroke:#181818;stroke-width:0.6999999999999998;"/><line style="stroke:#181818;stroke-width:0.6999999999999998;stroke-dasharray:2.0,2.0;" x1="320.95" x2="495.95" y1="408.5525" y2="408.5525"/><text fill="#000000" font-family="sans-serif" font-size="9.1" font-weight="bold" lengthAdjust="spacing" textLength="9.8" x="329.35" y="404.8687">13</text><text fill="#000000" font-family="sans-serif" font-size="9.1" lengthAdjust="spacing" textLength="149.8" x="341.95" y="404.8687">show error message (Database error)</text><line style="stroke:#000000;stroke-width:0.6999999999999998;stroke-dasharray:2.0,2.0;" x1="264.25" x2="1055.6" y1="414.8525" y2="414.8525"/><polygon fill="#181818" points="701.05,429.0562,694.05,431.8562,701.05,434.6562,698.25,431.8562" style="stroke:#181818;stroke-width:0.6999999999999998;"/><line style="stroke:#181818;stroke-width:0.6999999999999998;stroke-dasharray:2.0,2.0;" x1="696.85" x2="931.7" y1="431.8562" y2="431.8562"/><text fill="#000000" font-family="sans-serif" font-size="9.1" font-weight="bold" lengthAdjust="spacing" textLength="9.8" x="705.25" y="428.1724">14</text><text fill="#000000" font-family="sans-serif" font-size="9.1" lengthAdjust="spacing" textLength="36.4" x="717.85" y="428.1724">suppliers</text><line style="stroke:#181818;stroke-width:0.6999999999999998;stroke-dasharray:2.0,2.0;" x1="693.35" x2="722.75" y1="457.26" y2="457.26"/><line style="stroke:#181818;stroke-width:0.6999999999999998;stroke-dasharray:2.0,2.0;" x1="722.75" x2="722.75" y1="457.26" y2="466.36"/><line style="stroke:#181818;stroke-width:0.6999999999999998;stroke-dasharray:2.0,2.0;" x1="689.85" x2="722.75" y1="466.36" y2="466.36"/><polygon fill="#181818" points="696.85,463.56,689.85,466.36,696.85,469.16,694.05,466.36" style="stroke:#181818;stroke-width:0.6999999999999998;"/><text fill="#000000" font-family="sans-serif" font-size="9.1" font-weight="bold" lengthAdjust="spacing" textLength="9.8" x="698.25" y="453.5761">15</text><text fill="#000000" font-family="sans-serif" font-size="9.1" lengthAdjust="spacing" textLength="36.4" x="710.85" y="453.5761">suppliers</text><path d="M631.4,473.36 L682.5,473.36 L682.5,479.8637 L675.5,486.8637 L631.4,486.8637 L631.4,473.36 " fill="#EEEEEE" style="stroke:#000000;stroke-width:1.0499999999999998;"/><rect fill="none" height="267.4861" style="stroke:#000000;stroke-width:1.0499999999999998;" width="417.2" x="631.4" y="473.36"/><text fill="#000000" font-family="sans-serif" font-size="9.1" font-weight="bold" lengthAdjust="spacing" textLength="19.6" x="641.9" y="483.8798">loop</text><text fill="#000000" font-family="sans-serif" font-size="7.7" font-weight="bold" lengthAdjust="spacing" textLength="121.1" x="693" y="483.069">[For each supplier in suppliers]</text><polygon fill="#181818" points="998.9,500.3674,1005.9,503.1674,998.9,505.9674,1001.7,503.1674" style="stroke:#181818;stroke-width:0.6999999999999998;"/><line style="stroke:#181818;stroke-width:0.6999999999999998;" x1="689.85" x2="1003.1" y1="503.1674" y2="503.1674"/><text fill="#000000" font-family="sans-serif" font-size="9.1" font-weight="bold" lengthAdjust="spacing" textLength="9.8" x="694.75" y="499.4835">16</text><text fill="#000000" font-family="sans-serif" font-size="9.1" lengthAdjust="spacing" textLength="70" x="707.35" y="499.4835">getSupplyOffers()</text><polygon fill="#181818" points="697.55,522.2711,690.55,525.0711,697.55,527.8711,694.75,525.0711" style="stroke:#181818;stroke-width:0.6999999999999998;"/><line style="stroke:#181818;stroke-width:0.6999999999999998;stroke-dasharray:2.0,2.0;" x1="693.35" x2="1010.1" y1="525.0711" y2="525.0711"/><text fill="#000000" font-family="sans-serif" font-size="9.1" font-weight="bold" lengthAdjust="spacing" textLength="9.8" x="701.75" y="521.3872">17</text><text fill="#000000" font-family="sans-serif" font-size="9.1" lengthAdjust="spacing" textLength="50.4" x="714.35" y="521.3872">supplyOffers</text><path d="M638.4,535.5711 L681.1,535.5711 L681.1,542.0748 L674.1,549.0748 L638.4,549.0748 L638.4,535.5711 " fill="#EEEEEE" style="stroke:#000000;stroke-width:1.0499999999999998;"/><rect fill="none" height="200.375" style="stroke:#000000;stroke-width:1.0499999999999998;" width="403.2" x="638.4" y="535.5711"/><text fill="#000000" font-family="sans-serif" font-size="9.1" font-weight="bold" lengthAdjust="spacing" textLength="11.2" x="648.9" y="546.0909">alt</text><text fill="#000000" font-family="sans-serif" font-size="7.7" font-weight="bold" lengthAdjust="spacing" textLength="166.6" x="691.6" y="545.2802">[supplier inactive with active supply offers]</text><polygon fill="#181818" points="998.9,562.5785,1005.9,565.3785,998.9,568.1785,1001.7,565.3785" style="stroke:#181818;stroke-width:0.6999999999999998;"/><line style="stroke:#181818;stroke-width:0.6999999999999998;" x1="689.85" x2="1003.1" y1="565.3785" y2="565.3785"/><text fill="#000000" font-family="sans-serif" font-size="9.1" font-weight="bold" lengthAdjust="spacing" textLength="9.8" x="694.75" y="561.6946">18</text><text fill="#000000" font-family="sans-serif" font-size="9.1" lengthAdjust="spacing" textLength="72.1" x="707.35" y="561.6946">setState(ACTIVE)</text><polygon fill="#181818" points="697.55,584.4822,690.55,587.2822,697.55,590.0822,694.75,587.2822" style="stroke:#181818;stroke-width:0.6999999999999998;"/><line style="stroke:#181818;stroke-width:0.6999999999999998;stroke-dasharray:2.0,2.0;" x1="693.35" x2="1010.1" y1="587.2822" y2="587.2822"/><text fill="#000000" font-family="sans-serif" font-size="9.1" font-weight="bold" lengthAdjust="spacing" textLength="9.8" x="701.75" y="583.5983">19</text><text fill="#000000" font-family="sans-serif" font-size="9.1" lengthAdjust="spacing" textLength="2.8" x="714.35" y="583.5983">&#160;</text><polygon fill="#181818" points="920.5,606.3859,927.5,609.1859,920.5,611.9859,923.3,609.1859" style="stroke:#181818;stroke-width:0.6999999999999998;"/><line style="stroke:#181818;stroke-width:0.6999999999999998;" x1="689.85" x2="924.7" y1="609.1859" y2="609.1859"/><text fill="#000000" font-family="sans-serif" font-size="9.1" font-weight="bold" lengthAdjust="spacing" textLength="9.8" x="694.75" y="605.5021">20</text><text fill="#000000" font-family="sans-serif" font-size="9.1" lengthAdjust="spacing" textLength="91" x="707.35" y="605.5021">updateStatus(supplier)</text><polygon fill="#181818" points="697.55,628.2896,690.55,631.0896,697.55,633.8896,694.75,631.0896" style="stroke:#181818;stroke-width:0.6999999999999998;"/><line style="stroke:#181818;stroke-width:0.6999999999999998;stroke-dasharray:2.0,2.0;" x1="693.35" x2="931.7" y1="631.0896" y2="631.0896"/><text fill="#000000" font-family="sans-serif" font-size="9.1" font-weight="bold" lengthAdjust="spacing" textLength="9.8" x="701.75" y="627.4058">21</text><text fill="#000000" font-family="sans-serif" font-size="9.1" lengthAdjust="spacing" textLength="2.8" x="714.35" y="627.4058">&#160;</text><line style="stroke:#000000;stroke-width:0.6999999999999998;stroke-dasharray:2.0,2.0;" x1="638.4" x2="1041.6" y1="637.3896" y2="637.3896"/><text fill="#000000" font-family="sans-serif" font-size="7.7" font-weight="bold" lengthAdjust="spacing" textLength="172.2" x="641.9" y="645.6987">[supplier active without active supply offers]</text><polygon fill="#181818" points="998.9,661.835,1005.9,664.635,998.9,667.435,1001.7,664.635" style="stroke:#181818;stroke-width:0.6999999999999998;"/><line style="stroke:#181818;stroke-width:0.6999999999999998;" x1="689.85" x2="1003.1" y1="664.635" y2="664.635"/><text fill="#000000" font-family="sans-serif" font-size="9.1" font-weight="bold" lengthAdjust="spacing" textLength="9.8" x="694.75" y="660.9511">22</text><text fill="#000000" font-family="sans-serif" font-size="9.1" lengthAdjust="spacing" textLength="80.5" x="707.35" y="660.9511">setState(INACTIVE)</text><polygon fill="#181818" points="697.55,683.7387,690.55,686.5387,697.55,689.3387,694.75,686.5387" style="stroke:#181818;stroke-width:0.6999999999999998;"/><line style="stroke:#181818;stroke-width:0.6999999999999998;stroke-dasharray:2.0,2.0;" x1="693.35" x2="1010.1" y1="686.5387" y2="686.5387"/><text fill="#000000" font-family="sans-serif" font-size="9.1" font-weight="bold" lengthAdjust="spacing" textLength="9.8" x="701.75" y="682.8548">23</text><text fill="#000000" font-family="sans-serif" font-size="9.1" lengthAdjust="spacing" textLength="2.8" x="714.35" y="682.8548">&#160;</text><polygon fill="#181818" points="920.5,705.6424,927.5,708.4424,920.5,711.2424,923.3,708.4424" style="stroke:#181818;stroke-width:0.6999999999999998;"/><line style="stroke:#181818;stroke-width:0.6999999999999998;" x1="689.85" x2="924.7" y1="708.4424" y2="708.4424"/><text fill="#000000" font-family="sans-serif" font-size="9.1" font-weight="bold" lengthAdjust="spacing" textLength="9.8" x="694.75" y="704.7585">24</text><text fill="#000000" font-family="sans-serif" font-size="9.1" lengthAdjust="spacing" textLength="91" x="707.35" y="704.7585">updateStatus(supplier)</text><polygon fill="#181818" points="697.55,727.5461,690.55,730.3461,697.55,733.1461,694.75,730.3461" style="stroke:#181818;stroke-width:0.6999999999999998;"/><line style="stroke:#181818;stroke-width:0.6999999999999998;stroke-dasharray:2.0,2.0;" x1="693.35" x2="931.7" y1="730.3461" y2="730.3461"/><text fill="#000000" font-family="sans-serif" font-size="9.1" font-weight="bold" lengthAdjust="spacing" textLength="9.8" x="701.75" y="726.6622">25</text><text fill="#000000" font-family="sans-serif" font-size="9.1" lengthAdjust="spacing" textLength="2.8" x="714.35" y="726.6622">&#160;</text><polygon fill="#181818" points="511.35,759.2498,504.35,762.0498,511.35,764.8498,508.55,762.0498" style="stroke:#181818;stroke-width:0.6999999999999998;"/><line style="stroke:#181818;stroke-width:0.6999999999999998;stroke-dasharray:2.0,2.0;" x1="507.15" x2="685.65" y1="762.0498" y2="762.0498"/><text fill="#000000" font-family="sans-serif" font-size="9.1" font-weight="bold" lengthAdjust="spacing" textLength="9.8" x="515.55" y="758.3659">26</text><text fill="#000000" font-family="sans-serif" font-size="9.1" lengthAdjust="spacing" textLength="36.4" x="528.15" y="758.3659">suppliers</text><polygon fill="#181818" points="325.15,781.1535,318.15,783.9535,325.15,786.7535,322.35,783.9535" style="stroke:#181818;stroke-width:0.6999999999999998;"/><line style="stroke:#181818;stroke-width:0.6999999999999998;stroke-dasharray:2.0,2.0;" x1="320.95" x2="499.45" y1="783.9535" y2="783.9535"/><text fill="#000000" font-family="sans-serif" font-size="9.1" font-weight="bold" lengthAdjust="spacing" textLength="9.8" x="329.35" y="780.2696">27</text><text fill="#000000" font-family="sans-serif" font-size="9.1" lengthAdjust="spacing" textLength="36.4" x="341.95" y="780.2696">suppliers</text><polygon fill="#181818" points="42.35,807.9572,35.35,810.7572,42.35,813.5572,39.55,810.7572" style="stroke:#181818;stroke-width:0.6999999999999998;"/><line style="stroke:#181818;stroke-width:0.6999999999999998;stroke-dasharray:2.0,2.0;" x1="38.15" x2="313.25" y1="810.7572" y2="810.7572"/><text fill="#000000" font-family="sans-serif" font-size="9.1" font-weight="bold" lengthAdjust="spacing" textLength="9.8" x="46.55" y="807.0733">28</text><text fill="#000000" font-family="sans-serif" font-size="9.1" lengthAdjust="spacing" textLength="242.9" x="59.15" y="807.0733">shows the list of suppliers including status or error message</text><!--SRC=[xPRDRk8m4CVlUOeH9wZK5-2m4W9MGkhk8b9wwiKD0rWaTjPsYdZx7Tj9SCW7RNUFwmia_iylCvuFMP-uo9bY6MHIoEIeP8PWL86HhdTobfpO0MDpIH4K9eQ9GneAz97jv9cB0-nPgZ6A33SaZI_QO0On_YvG90WBpWvMFexZnIIAM66aAB8tLFG_CLB1QBRBkE3QA4QF8s0QPeiV4Nt4y8JdJ1WOJMF3JA7Z8izJZcgxShBjwbPLxi-bC4gcANhS_7dprAECKRtp19qithmqLHlCfURa54Vj59lbEcvAL21v5TCkYwQ1BZzSAo_JLn6tNZhZjhQR5H1y8Dlr-ccrtDGfAJV1dsAT6vS1_iuCkXC7MlGBZz_eP65Af9C68w78TrR2Qd-SiZQbBBWNTf4TMTlpVdWWGgAG55tRjEcnTIASQ-D9hQtvBdiGB6TF7ChNVKm3PJFSsB7BOZnj2WSq5OaWavRsGoHR9U1OAw6fRH8S3v1SJTtkEiHZvLLOP2tf3eTHLwUW4T-rgEvur-LSvHiXEufqsCNUSskJlCUpD1roSS01bXhGVXwXKbAr8DNg-7Hz-Wjcs1lJM29w6IwAihpfM8xox2qWGwrfaiAuIPhqeto5kpxy6AaoH3k8ln9ajQTxhOCatabvTH03u03MwgHKoXo-KxIaETRsm4N0YheQk9nwGPbVVktthfDxna4z9nkuYdDJuoMiDuvEcAl0QmXEZN3cvWZbVyy6sOPtnwOfDXfoE9xDdrSlow4PLNdKWhOY76hPVin0svPJsK_ZIl6r9hvVliF-tq7RbhccA4YGBCnVvsZryt-M_asMnCxsKkkT7HPHr3U6uRFp9nYydRQ1dRkMH84lKNN38NDxZVAJcsvGHuIKhhTKFbSYpO8aBNRszgpzfSmEl738HpVVizUiu96-y0S0]--></g></svg>