<?xml version="1.0" encoding="us-ascii" standalone="no"?><svg xmlns="http://www.w3.org/2000/svg" xmlns:xlink="http://www.w3.org/1999/xlink" contentStyleType="text/css" height="619px" preserveAspectRatio="none" style="width:574px;height:619px;background:#FFFFFF;" version="1.1" viewBox="0 0 574 619" width="574.5px" zoomAndPan="magnify"><defs/><g><!--cluster UI--><g id="cluster_UI"><rect fill="none" height="50.5" rx="1.25" ry="1.25" style="stroke:#000000;stroke-width:0.75;" width="103" x="274" y="3.5"/><text fill="#000000" font-family="sans-serif" font-size="7" font-weight="bold" lengthAdjust="spacing" textLength="7" x="322" y="12.0537">UI</text></g><!--cluster Controller--><g id="cluster_Controller"><rect fill="none" height="69" rx="1.25" ry="1.25" style="stroke:#000000;stroke-width:0.75;" width="297" x="177" y="70.5"/><text fill="#000000" font-family="sans-serif" font-size="7" font-weight="bold" lengthAdjust="spacing" textLength="35.5" x="307.75" y="79.0537">Controller</text></g><!--cluster Service--><g id="cluster_Service"><rect fill="none" height="69" rx="1.25" ry="1.25" style="stroke:#000000;stroke-width:0.75;" width="297" x="177" y="156"/><text fill="#000000" font-family="sans-serif" font-size="7" font-weight="bold" lengthAdjust="spacing" textLength="27" x="312" y="164.5537">Service</text></g><!--cluster Repository--><g id="cluster_Repository"><rect fill="none" height="170" rx="1.25" ry="1.25" style="stroke:#000000;stroke-width:0.75;" width="231.5" x="3.5" y="250.5"/><text fill="#000000" font-family="sans-serif" font-size="7" font-weight="bold" lengthAdjust="spacing" textLength="38" x="100.25" y="259.0537">Repository</text></g><!--cluster Model--><g id="cluster_Model"><rect fill="none" height="170" rx="1.25" ry="1.25" style="stroke:#000000;stroke-width:0.75;" width="135" x="436.5" y="446"/><text fill="#000000" font-family="sans-serif" font-size="7" font-weight="bold" lengthAdjust="spacing" textLength="22" x="493" y="454.5537">Model</text></g><!--cluster Exception--><g id="cluster_Exception"><rect fill="none" height="146.75" rx="1.25" ry="1.25" style="stroke:#000000;stroke-width:0.75;" width="176" x="336.5" y="259.75"/><text fill="#000000" font-family="sans-serif" font-size="7" font-weight="bold" lengthAdjust="spacing" textLength="35" x="407" y="268.3037">Exception</text></g><!--class RegisterRawMaterialUI--><g id="elem_RegisterRawMaterialUI"><rect codeLine="7" fill="#F1F1F1" height="24" id="RegisterRawMaterialUI" rx="1.25" ry="1.25" style="stroke:#181818;stroke-width:0.25;" width="87" x="282" y="22"/><ellipse cx="289.5" cy="30" fill="#ADD1B2" rx="5.5" ry="5.5" style="stroke:#181818;stroke-width:0.5;"/><path d="M290.8828,27.9375 Q290.9609,27.8281 291.0547,27.7734 Q291.1484,27.7188 291.2578,27.7188 Q291.4453,27.7188 291.5625,27.8516 Q291.6797,27.9766 291.6797,28.2813 L291.6797,29.0078 Q291.6797,29.3125 291.5625,29.4453 Q291.4453,29.5781 291.2578,29.5781 Q291.0859,29.5781 290.9844,29.4766 Q290.8828,29.3828 290.8281,29.125 Q290.8047,28.9453 290.7109,28.8516 Q290.5469,28.6641 290.2422,28.5547 Q289.9375,28.4453 289.625,28.4453 Q289.2422,28.4453 288.9219,28.6094 Q288.6094,28.7734 288.3594,29.1484 Q288.1172,29.5234 288.1172,30.0391 L288.1172,30.5859 Q288.1172,31.2031 288.5625,31.6172 Q289.0078,32.0234 289.8047,32.0234 Q290.2734,32.0234 290.6016,31.8984 Q290.7969,31.8203 291.0078,31.6016 Q291.1406,31.4688 291.2109,31.4297 Q291.2891,31.3906 291.3906,31.3906 Q291.5547,31.3906 291.6797,31.5234 Q291.8125,31.6484 291.8125,31.8203 Q291.8125,31.9922 291.6406,32.1953 Q291.3906,32.4844 290.9922,32.6484 Q290.4531,32.875 289.8047,32.875 Q289.0469,32.875 288.4453,32.5625 Q287.9531,32.3125 287.6094,31.7813 Q287.2656,31.2422 287.2656,30.6016 L287.2656,30.0234 Q287.2656,29.3594 287.5703,28.7891 Q287.8828,28.2109 288.4297,27.9063 Q288.9766,27.5938 289.5938,27.5938 Q289.9609,27.5938 290.2813,27.6797 Q290.6094,27.7578 290.8828,27.9375 Z " fill="#000000"/><text fill="#000000" font-family="sans-serif" font-size="7" lengthAdjust="spacing" textLength="71" x="296.5" y="32.8984">RegisterRawMaterialUI</text><line style="stroke:#181818;stroke-width:0.25;" x1="282.5" x2="368.5" y1="38" y2="38"/><line style="stroke:#181818;stroke-width:0.25;" x1="282.5" x2="368.5" y1="42" y2="42"/></g><!--class RawMaterialController--><g id="elem_RawMaterialController"><rect codeLine="12" fill="#F1F1F1" height="42.6211" id="RawMaterialController" rx="1.25" ry="1.25" style="stroke:#181818;stroke-width:0.25;" width="280.5" x="185.25" y="89"/><ellipse cx="288.625" cy="97" fill="#ADD1B2" rx="5.5" ry="5.5" style="stroke:#181818;stroke-width:0.5;"/><path d="M290.0078,94.9375 Q290.0859,94.8281 290.1797,94.7734 Q290.2734,94.7188 290.3828,94.7188 Q290.5703,94.7188 290.6875,94.8516 Q290.8047,94.9766 290.8047,95.2813 L290.8047,96.0078 Q290.8047,96.3125 290.6875,96.4453 Q290.5703,96.5781 290.3828,96.5781 Q290.2109,96.5781 290.1094,96.4766 Q290.0078,96.3828 289.9531,96.125 Q289.9297,95.9453 289.8359,95.8516 Q289.6719,95.6641 289.3672,95.5547 Q289.0625,95.4453 288.75,95.4453 Q288.3672,95.4453 288.0469,95.6094 Q287.7344,95.7734 287.4844,96.1484 Q287.2422,96.5234 287.2422,97.0391 L287.2422,97.5859 Q287.2422,98.2031 287.6875,98.6172 Q288.1328,99.0234 288.9297,99.0234 Q289.3984,99.0234 289.7266,98.8984 Q289.9219,98.8203 290.1328,98.6016 Q290.2656,98.4688 290.3359,98.4297 Q290.4141,98.3906 290.5156,98.3906 Q290.6797,98.3906 290.8047,98.5234 Q290.9375,98.6484 290.9375,98.8203 Q290.9375,98.9922 290.7656,99.1953 Q290.5156,99.4844 290.1172,99.6484 Q289.5781,99.875 288.9297,99.875 Q288.1719,99.875 287.5703,99.5625 Q287.0781,99.3125 286.7344,98.7813 Q286.3906,98.2422 286.3906,97.6016 L286.3906,97.0234 Q286.3906,96.3594 286.6953,95.7891 Q287.0078,95.2109 287.5547,94.9063 Q288.1016,94.5938 288.7188,94.5938 Q289.0859,94.5938 289.4063,94.6797 Q289.7344,94.7578 290.0078,94.9375 Z " fill="#000000"/><text fill="#000000" font-family="sans-serif" font-size="7" lengthAdjust="spacing" textLength="69.5" x="298.875" y="99.8984">RawMaterialController</text><line style="stroke:#181818;stroke-width:0.25;" x1="185.75" x2="465.25" y1="105" y2="105"/><line style="stroke:#181818;stroke-width:0.25;" x1="185.75" x2="465.25" y1="109" y2="109"/><text fill="#000000" font-family="sans-serif" font-size="7" lengthAdjust="spacing" textLength="124.5" x="188.25" y="118.5537">+getRawMaterials() : List&lt;RawMaterial&gt;</text><text fill="#000000" font-family="sans-serif" font-size="7" lengthAdjust="spacing" textLength="274.5" x="188.25" y="127.8643">+registerRawMaterial(id, name, description, currentStock, minimumStock) : RawMaterial</text></g><!--class RawMaterialService--><g id="elem_RawMaterialService"><rect codeLine="19" fill="#F1F1F1" height="42.6211" id="RawMaterialService" rx="1.25" ry="1.25" style="stroke:#181818;stroke-width:0.25;" width="280.5" x="185.25" y="174.5"/><ellipse cx="292.375" cy="182.5" fill="#ADD1B2" rx="5.5" ry="5.5" style="stroke:#181818;stroke-width:0.5;"/><path d="M293.7578,180.4375 Q293.8359,180.3281 293.9297,180.2734 Q294.0234,180.2188 294.1328,180.2188 Q294.3203,180.2188 294.4375,180.3516 Q294.5547,180.4766 294.5547,180.7813 L294.5547,181.5078 Q294.5547,181.8125 294.4375,181.9453 Q294.3203,182.0781 294.1328,182.0781 Q293.9609,182.0781 293.8594,181.9766 Q293.7578,181.8828 293.7031,181.625 Q293.6797,181.4453 293.5859,181.3516 Q293.4219,181.1641 293.1172,181.0547 Q292.8125,180.9453 292.5,180.9453 Q292.1172,180.9453 291.7969,181.1094 Q291.4844,181.2734 291.2344,181.6484 Q290.9922,182.0234 290.9922,182.5391 L290.9922,183.0859 Q290.9922,183.7031 291.4375,184.1172 Q291.8828,184.5234 292.6797,184.5234 Q293.1484,184.5234 293.4766,184.3984 Q293.6719,184.3203 293.8828,184.1016 Q294.0156,183.9688 294.0859,183.9297 Q294.1641,183.8906 294.2656,183.8906 Q294.4297,183.8906 294.5547,184.0234 Q294.6875,184.1484 294.6875,184.3203 Q294.6875,184.4922 294.5156,184.6953 Q294.2656,184.9844 293.8672,185.1484 Q293.3281,185.375 292.6797,185.375 Q291.9219,185.375 291.3203,185.0625 Q290.8281,184.8125 290.4844,184.2813 Q290.1406,183.7422 290.1406,183.1016 L290.1406,182.5234 Q290.1406,181.8594 290.4453,181.2891 Q290.7578,180.7109 291.3047,180.4063 Q291.8516,180.0938 292.4688,180.0938 Q292.8359,180.0938 293.1563,180.1797 Q293.4844,180.2578 293.7578,180.4375 Z " fill="#000000"/><text fill="#000000" font-family="sans-serif" font-size="7" lengthAdjust="spacing" textLength="62" x="302.625" y="185.3984">RawMaterialService</text><line style="stroke:#181818;stroke-width:0.25;" x1="185.75" x2="465.25" y1="190.5" y2="190.5"/><line style="stroke:#181818;stroke-width:0.25;" x1="185.75" x2="465.25" y1="194.5" y2="194.5"/><text fill="#000000" font-family="sans-serif" font-size="7" lengthAdjust="spacing" textLength="124.5" x="188.25" y="204.0537">+getRawMaterials() : List&lt;RawMaterial&gt;</text><text fill="#000000" font-family="sans-serif" font-size="7" lengthAdjust="spacing" textLength="274.5" x="188.25" y="213.3643">+registerRawMaterial(id, name, description, currentStock, minimumStock) : RawMaterial</text></g><!--class Repositories--><g id="elem_Repositories"><rect codeLine="26" fill="#F1F1F1" height="51.9316" id="Repositories" rx="1.25" ry="1.25" style="stroke:#181818;stroke-width:0.25;" width="176" x="11.5" y="269"/><ellipse cx="77.625" cy="277" fill="#ADD1B2" rx="5.5" ry="5.5" style="stroke:#181818;stroke-width:0.5;"/><path d="M79.0078,274.9375 Q79.0859,274.8281 79.1797,274.7734 Q79.2734,274.7188 79.3828,274.7188 Q79.5703,274.7188 79.6875,274.8516 Q79.8047,274.9766 79.8047,275.2813 L79.8047,276.0078 Q79.8047,276.3125 79.6875,276.4453 Q79.5703,276.5781 79.3828,276.5781 Q79.2109,276.5781 79.1094,276.4766 Q79.0078,276.3828 78.9531,276.125 Q78.9297,275.9453 78.8359,275.8516 Q78.6719,275.6641 78.3672,275.5547 Q78.0625,275.4453 77.75,275.4453 Q77.3672,275.4453 77.0469,275.6094 Q76.7344,275.7734 76.4844,276.1484 Q76.2422,276.5234 76.2422,277.0391 L76.2422,277.5859 Q76.2422,278.2031 76.6875,278.6172 Q77.1328,279.0234 77.9297,279.0234 Q78.3984,279.0234 78.7266,278.8984 Q78.9219,278.8203 79.1328,278.6016 Q79.2656,278.4688 79.3359,278.4297 Q79.4141,278.3906 79.5156,278.3906 Q79.6797,278.3906 79.8047,278.5234 Q79.9375,278.6484 79.9375,278.8203 Q79.9375,278.9922 79.7656,279.1953 Q79.5156,279.4844 79.1172,279.6484 Q78.5781,279.875 77.9297,279.875 Q77.1719,279.875 76.5703,279.5625 Q76.0781,279.3125 75.7344,278.7813 Q75.3906,278.2422 75.3906,277.6016 L75.3906,277.0234 Q75.3906,276.3594 75.6953,275.7891 Q76.0078,275.2109 76.5547,274.9063 Q77.1016,274.5938 77.7188,274.5938 Q78.0859,274.5938 78.4063,274.6797 Q78.7344,274.7578 79.0078,274.9375 Z " fill="#000000"/><text fill="#000000" font-family="sans-serif" font-size="7" lengthAdjust="spacing" textLength="39.5" x="87.875" y="279.8984">Repositories</text><line style="stroke:#181818;stroke-width:0.25;" x1="12" x2="187" y1="285" y2="285"/><line style="stroke:#181818;stroke-width:0.25;" x1="12" x2="187" y1="289" y2="289"/><text fill="#000000" font-family="sans-serif" font-size="7" lengthAdjust="spacing" textLength="47" x="14.5" y="298.5537">-Repositories()</text><text fill="#000000" font-family="sans-serif" font-size="7" lengthAdjust="spacing" textLength="91" x="14.5" y="307.8643">+getInstance() : Repositories</text><text fill="#000000" font-family="sans-serif" font-size="7" lengthAdjust="spacing" textLength="170" x="14.5" y="317.1748">+getRawMaterialRepository() : RawMaterialRepository</text></g><!--class RawMaterialRepository--><g id="elem_RawMaterialRepository"><rect codeLine="32" fill="#F1F1F1" height="51.9316" id="RawMaterialRepository" rx="1.25" ry="1.25" style="stroke:#181818;stroke-width:0.25;" width="138" x="89" y="360.5"/><ellipse cx="119.625" cy="368.5" fill="#ADD1B2" rx="5.5" ry="5.5" style="stroke:#181818;stroke-width:0.5;"/><path d="M121.0078,366.4375 Q121.0859,366.3281 121.1797,366.2734 Q121.2734,366.2188 121.3828,366.2188 Q121.5703,366.2188 121.6875,366.3516 Q121.8047,366.4766 121.8047,366.7813 L121.8047,367.5078 Q121.8047,367.8125 121.6875,367.9453 Q121.5703,368.0781 121.3828,368.0781 Q121.2109,368.0781 121.1094,367.9766 Q121.0078,367.8828 120.9531,367.625 Q120.9297,367.4453 120.8359,367.3516 Q120.6719,367.1641 120.3672,367.0547 Q120.0625,366.9453 119.75,366.9453 Q119.3672,366.9453 119.0469,367.1094 Q118.7344,367.2734 118.4844,367.6484 Q118.2422,368.0234 118.2422,368.5391 L118.2422,369.0859 Q118.2422,369.7031 118.6875,370.1172 Q119.1328,370.5234 119.9297,370.5234 Q120.3984,370.5234 120.7266,370.3984 Q120.9219,370.3203 121.1328,370.1016 Q121.2656,369.9688 121.3359,369.9297 Q121.4141,369.8906 121.5156,369.8906 Q121.6797,369.8906 121.8047,370.0234 Q121.9375,370.1484 121.9375,370.3203 Q121.9375,370.4922 121.7656,370.6953 Q121.5156,370.9844 121.1172,371.1484 Q120.5781,371.375 119.9297,371.375 Q119.1719,371.375 118.5703,371.0625 Q118.0781,370.8125 117.7344,370.2813 Q117.3906,369.7422 117.3906,369.1016 L117.3906,368.5234 Q117.3906,367.8594 117.6953,367.2891 Q118.0078,366.7109 118.5547,366.4063 Q119.1016,366.0938 119.7188,366.0938 Q120.0859,366.0938 120.4063,366.1797 Q120.7344,366.2578 121.0078,366.4375 Z " fill="#000000"/><text fill="#000000" font-family="sans-serif" font-size="7" lengthAdjust="spacing" textLength="72.5" x="129.875" y="371.3984">RawMaterialRepository</text><line style="stroke:#181818;stroke-width:0.25;" x1="89.5" x2="226.5" y1="376.5" y2="376.5"/><line style="stroke:#181818;stroke-width:0.25;" x1="89.5" x2="226.5" y1="380.5" y2="380.5"/><text fill="#000000" font-family="sans-serif" font-size="7" lengthAdjust="spacing" textLength="132" x="92" y="390.0537">+getAllRawMaterials() : List&lt;RawMaterial&gt;</text><text fill="#000000" font-family="sans-serif" font-size="7" lengthAdjust="spacing" textLength="112.5" x="92" y="399.3643">+getRawMaterialExists(id) : boolean</text><text fill="#000000" font-family="sans-serif" font-size="7" lengthAdjust="spacing" textLength="130" x="92" y="408.6748">+saveRawMaterial(rawMaterial) : boolean</text></g><!--class Part--><g id="elem_Part"><rect codeLine="40" fill="#F1F1F1" height="61.2422" id="Part" rx="1.25" ry="1.25" style="stroke:#181818;stroke-width:0.25;" width="93.5" x="457.25" y="547"/><ellipse cx="495.375" cy="555" fill="#ADD1B2" rx="5.5" ry="5.5" style="stroke:#181818;stroke-width:0.5;"/><path d="M496.7578,552.9375 Q496.8359,552.8281 496.9297,552.7734 Q497.0234,552.7188 497.1328,552.7188 Q497.3203,552.7188 497.4375,552.8516 Q497.5547,552.9766 497.5547,553.2813 L497.5547,554.0078 Q497.5547,554.3125 497.4375,554.4453 Q497.3203,554.5781 497.1328,554.5781 Q496.9609,554.5781 496.8594,554.4766 Q496.7578,554.3828 496.7031,554.125 Q496.6797,553.9453 496.5859,553.8516 Q496.4219,553.6641 496.1172,553.5547 Q495.8125,553.4453 495.5,553.4453 Q495.1172,553.4453 494.7969,553.6094 Q494.4844,553.7734 494.2344,554.1484 Q493.9922,554.5234 493.9922,555.0391 L493.9922,555.5859 Q493.9922,556.2031 494.4375,556.6172 Q494.8828,557.0234 495.6797,557.0234 Q496.1484,557.0234 496.4766,556.8984 Q496.6719,556.8203 496.8828,556.6016 Q497.0156,556.4688 497.0859,556.4297 Q497.1641,556.3906 497.2656,556.3906 Q497.4297,556.3906 497.5547,556.5234 Q497.6875,556.6484 497.6875,556.8203 Q497.6875,556.9922 497.5156,557.1953 Q497.2656,557.4844 496.8672,557.6484 Q496.3281,557.875 495.6797,557.875 Q494.9219,557.875 494.3203,557.5625 Q493.8281,557.3125 493.4844,556.7813 Q493.1406,556.2422 493.1406,555.6016 L493.1406,555.0234 Q493.1406,554.3594 493.4453,553.7891 Q493.7578,553.2109 494.3047,552.9063 Q494.8516,552.5938 495.4688,552.5938 Q495.8359,552.5938 496.1563,552.6797 Q496.4844,552.7578 496.7578,552.9375 Z " fill="#000000"/><text fill="#000000" font-family="sans-serif" font-size="7" lengthAdjust="spacing" textLength="13" x="505.625" y="557.8984">Part</text><line style="stroke:#181818;stroke-width:0.25;" x1="457.75" x2="550.25" y1="563" y2="563"/><text fill="#000000" font-family="sans-serif" font-size="7" lengthAdjust="spacing" textLength="32.5" x="460.25" y="572.5537">-id : String</text><text fill="#000000" font-family="sans-serif" font-size="7" lengthAdjust="spacing" textLength="44.5" x="460.25" y="581.8643">-name : String</text><text fill="#000000" font-family="sans-serif" font-size="7" lengthAdjust="spacing" textLength="61.5" x="460.25" y="591.1748">-description : String</text><line style="stroke:#181818;stroke-width:0.25;" x1="457.75" x2="550.25" y1="594.9316" y2="594.9316"/><text fill="#000000" font-family="sans-serif" font-size="7" lengthAdjust="spacing" textLength="87.5" x="460.25" y="604.4854">+Part(id, name, description)</text></g><!--class RawMaterial--><g id="elem_RawMaterial"><rect codeLine="47" fill="#F1F1F1" height="51.9316" id="RawMaterial" rx="1.25" ry="1.25" style="stroke:#181818;stroke-width:0.25;" width="119" x="444.5" y="464.5"/><ellipse cx="482.625" cy="472.5" fill="#ADD1B2" rx="5.5" ry="5.5" style="stroke:#181818;stroke-width:0.5;"/><path d="M484.0078,470.4375 Q484.0859,470.3281 484.1797,470.2734 Q484.2734,470.2188 484.3828,470.2188 Q484.5703,470.2188 484.6875,470.3516 Q484.8047,470.4766 484.8047,470.7813 L484.8047,471.5078 Q484.8047,471.8125 484.6875,471.9453 Q484.5703,472.0781 484.3828,472.0781 Q484.2109,472.0781 484.1094,471.9766 Q484.0078,471.8828 483.9531,471.625 Q483.9297,471.4453 483.8359,471.3516 Q483.6719,471.1641 483.3672,471.0547 Q483.0625,470.9453 482.75,470.9453 Q482.3672,470.9453 482.0469,471.1094 Q481.7344,471.2734 481.4844,471.6484 Q481.2422,472.0234 481.2422,472.5391 L481.2422,473.0859 Q481.2422,473.7031 481.6875,474.1172 Q482.1328,474.5234 482.9297,474.5234 Q483.3984,474.5234 483.7266,474.3984 Q483.9219,474.3203 484.1328,474.1016 Q484.2656,473.9688 484.3359,473.9297 Q484.4141,473.8906 484.5156,473.8906 Q484.6797,473.8906 484.8047,474.0234 Q484.9375,474.1484 484.9375,474.3203 Q484.9375,474.4922 484.7656,474.6953 Q484.5156,474.9844 484.1172,475.1484 Q483.5781,475.375 482.9297,475.375 Q482.1719,475.375 481.5703,475.0625 Q481.0781,474.8125 480.7344,474.2813 Q480.3906,473.7422 480.3906,473.1016 L480.3906,472.5234 Q480.3906,471.8594 480.6953,471.2891 Q481.0078,470.7109 481.5547,470.4063 Q482.1016,470.0938 482.7188,470.0938 Q483.0859,470.0938 483.4063,470.1797 Q483.7344,470.2578 484.0078,470.4375 Z " fill="#000000"/><text fill="#000000" font-family="sans-serif" font-size="7" lengthAdjust="spacing" textLength="38.5" x="492.875" y="475.3984">RawMaterial</text><line style="stroke:#181818;stroke-width:0.25;" x1="445" x2="563" y1="480.5" y2="480.5"/><text fill="#000000" font-family="sans-serif" font-size="7" lengthAdjust="spacing" textLength="56" x="447.5" y="490.0537">-currentStock : int</text><text fill="#000000" font-family="sans-serif" font-size="7" lengthAdjust="spacing" textLength="61" x="447.5" y="499.3643">-minimumStock : int</text><line style="stroke:#181818;stroke-width:0.25;" x1="445" x2="563" y1="503.1211" y2="503.1211"/><text fill="#000000" font-family="sans-serif" font-size="7" lengthAdjust="spacing" textLength="113" x="447.5" y="512.6748">+RawMaterial(id, name, description)</text></g><!--class ProductException--><g id="elem_ProductException"><rect codeLine="55" fill="#F1F1F1" height="33.3105" id="ProductException" rx="1.25" ry="1.25" style="stroke:#181818;stroke-width:0.25;" width="159.5" x="344.75" y="278.25"/><ellipse cx="394.875" cy="286.25" fill="#ADD1B2" rx="5.5" ry="5.5" style="stroke:#181818;stroke-width:0.5;"/><path d="M396.2578,284.1875 Q396.3359,284.0781 396.4297,284.0234 Q396.5234,283.9688 396.6328,283.9688 Q396.8203,283.9688 396.9375,284.1016 Q397.0547,284.2266 397.0547,284.5313 L397.0547,285.2578 Q397.0547,285.5625 396.9375,285.6953 Q396.8203,285.8281 396.6328,285.8281 Q396.4609,285.8281 396.3594,285.7266 Q396.2578,285.6328 396.2031,285.375 Q396.1797,285.1953 396.0859,285.1016 Q395.9219,284.9141 395.6172,284.8047 Q395.3125,284.6953 395,284.6953 Q394.6172,284.6953 394.2969,284.8594 Q393.9844,285.0234 393.7344,285.3984 Q393.4922,285.7734 393.4922,286.2891 L393.4922,286.8359 Q393.4922,287.4531 393.9375,287.8672 Q394.3828,288.2734 395.1797,288.2734 Q395.6484,288.2734 395.9766,288.1484 Q396.1719,288.0703 396.3828,287.8516 Q396.5156,287.7188 396.5859,287.6797 Q396.6641,287.6406 396.7656,287.6406 Q396.9297,287.6406 397.0547,287.7734 Q397.1875,287.8984 397.1875,288.0703 Q397.1875,288.2422 397.0156,288.4453 Q396.7656,288.7344 396.3672,288.8984 Q395.8281,289.125 395.1797,289.125 Q394.4219,289.125 393.8203,288.8125 Q393.3281,288.5625 392.9844,288.0313 Q392.6406,287.4922 392.6406,286.8516 L392.6406,286.2734 Q392.6406,285.6094 392.9453,285.0391 Q393.2578,284.4609 393.8047,284.1563 Q394.3516,283.8438 394.9688,283.8438 Q395.3359,283.8438 395.6563,283.9297 Q395.9844,284.0078 396.2578,284.1875 Z " fill="#000000"/><text fill="#000000" font-family="sans-serif" font-size="7" lengthAdjust="spacing" textLength="55" x="405.125" y="289.1484">ProductException</text><line style="stroke:#181818;stroke-width:0.25;" x1="345.25" x2="503.75" y1="294.25" y2="294.25"/><line style="stroke:#181818;stroke-width:0.25;" x1="345.25" x2="503.75" y1="298.25" y2="298.25"/><text fill="#000000" font-family="sans-serif" font-size="7" lengthAdjust="spacing" textLength="153.5" x="347.75" y="307.8037">+rawMaterialAlreadyExists(id) : ProductException</text></g><!--class RuntimeException--><g id="elem_RuntimeException"><rect codeLine="59" fill="#F1F1F1" height="24" id="RuntimeException" rx="1.25" ry="1.25" style="stroke:#181818;stroke-width:0.25;" width="72.5" x="388.25" y="374.5"/><ellipse cx="395.75" cy="382.5" fill="#ADD1B2" rx="5.5" ry="5.5" style="stroke:#181818;stroke-width:0.5;"/><path d="M397.1328,380.4375 Q397.2109,380.3281 397.3047,380.2734 Q397.3984,380.2188 397.5078,380.2188 Q397.6953,380.2188 397.8125,380.3516 Q397.9297,380.4766 397.9297,380.7813 L397.9297,381.5078 Q397.9297,381.8125 397.8125,381.9453 Q397.6953,382.0781 397.5078,382.0781 Q397.3359,382.0781 397.2344,381.9766 Q397.1328,381.8828 397.0781,381.625 Q397.0547,381.4453 396.9609,381.3516 Q396.7969,381.1641 396.4922,381.0547 Q396.1875,380.9453 395.875,380.9453 Q395.4922,380.9453 395.1719,381.1094 Q394.8594,381.2734 394.6094,381.6484 Q394.3672,382.0234 394.3672,382.5391 L394.3672,383.0859 Q394.3672,383.7031 394.8125,384.1172 Q395.2578,384.5234 396.0547,384.5234 Q396.5234,384.5234 396.8516,384.3984 Q397.0469,384.3203 397.2578,384.1016 Q397.3906,383.9688 397.4609,383.9297 Q397.5391,383.8906 397.6406,383.8906 Q397.8047,383.8906 397.9297,384.0234 Q398.0625,384.1484 398.0625,384.3203 Q398.0625,384.4922 397.8906,384.6953 Q397.6406,384.9844 397.2422,385.1484 Q396.7031,385.375 396.0547,385.375 Q395.2969,385.375 394.6953,385.0625 Q394.2031,384.8125 393.8594,384.2813 Q393.5156,383.7422 393.5156,383.1016 L393.5156,382.5234 Q393.5156,381.8594 393.8203,381.2891 Q394.1328,380.7109 394.6797,380.4063 Q395.2266,380.0938 395.8438,380.0938 Q396.2109,380.0938 396.5313,380.1797 Q396.8594,380.2578 397.1328,380.4375 Z " fill="#000000"/><text fill="#000000" font-family="sans-serif" font-size="7" lengthAdjust="spacing" textLength="56.5" x="402.75" y="385.3984">RuntimeException</text><line style="stroke:#181818;stroke-width:0.25;" x1="388.75" x2="460.25" y1="390.5" y2="390.5"/><line style="stroke:#181818;stroke-width:0.25;" x1="388.75" x2="460.25" y1="394.5" y2="394.5"/></g><!--link RegisterRawMaterialUI to RawMaterialController--><g id="link_RegisterRawMaterialUI_RawMaterialController"><path codeLine="62" d="M325.5,46.095 C325.5,57.47 325.5,72.08 325.5,85.895 " fill="none" id="RegisterRawMaterialUI-to-RawMaterialController" style="stroke:#181818;stroke-width:0.5;stroke-dasharray:7.0,7.0;"/><polygon fill="#181818" points="325.5,88.895,327.5,84.395,325.5,86.395,323.5,84.395,325.5,88.895" style="stroke:#181818;stroke-width:0.5;"/></g><!--link RawMaterialController to RawMaterialService--><g id="link_RawMaterialController_RawMaterialService"><path codeLine="63" d="M325.5,131.64 C325.5,144.685 325.5,158.425 325.5,171.455 " fill="none" id="RawMaterialController-to-RawMaterialService" style="stroke:#181818;stroke-width:0.5;stroke-dasharray:7.0,7.0;"/><polygon fill="#181818" points="325.5,174.455,327.5,169.955,325.5,171.955,323.5,169.955,325.5,174.455" style="stroke:#181818;stroke-width:0.5;"/></g><!--link RawMaterialService to Repositories--><g id="link_RawMaterialService_Repositories"><path codeLine="64" d="M262.7,217.04 C237.585,225.355 214.5,233 214.5,233 C214.5,233 181.5103,250.64 149.9153,267.54 " fill="none" id="RawMaterialService-to-Repositories" style="stroke:#181818;stroke-width:0.5;stroke-dasharray:7.0,7.0;"/><polygon fill="#181818" points="147.27,268.955,152.1813,268.5961,149.4745,267.7759,150.2947,265.069,147.27,268.955" style="stroke:#181818;stroke-width:0.5;"/><text fill="#000000" font-family="sans-serif" font-size="6.5" lengthAdjust="spacing" textLength="33.5" x="215" y="240.5142">repositories</text></g><!--link RawMaterialService to RawMaterialRepository--><g id="link_RawMaterialService_RawMaterialRepository"><path codeLine="65" d="M303.07,217.125 C288.23,230.93 271.5,246.5 271.5,246.5 C271.5,246.5 236,321 236,321 C236,321 212.7596,340.3643 190.9096,358.5743 " fill="none" id="RawMaterialService-to-RawMaterialRepository" style="stroke:#181818;stroke-width:0.5;stroke-dasharray:7.0,7.0;"/><polygon fill="#181818" points="188.605,360.495,193.3423,359.1504,190.5255,358.8945,190.7814,356.0776,188.605,360.495" style="stroke:#181818;stroke-width:0.5;"/><text fill="#000000" font-family="sans-serif" font-size="6.5" lengthAdjust="spacing" textLength="64" x="272" y="297.7642">rawMaterialRepository</text></g><!--link RawMaterialService to RawMaterial--><g id="link_RawMaterialService_RawMaterial"><path codeLine="66" d="M402.775,217.015 C454.255,230.85 512.5,246.5 512.5,246.5 C512.5,246.5 512.5,424.5 512.5,424.5 C512.5,424.5 510.0807,443.1199 507.6957,461.5149 " fill="none" id="RawMaterialService-to-RawMaterial" style="stroke:#181818;stroke-width:0.5;stroke-dasharray:7.0,7.0;"/><polygon fill="#181818" points="507.31,464.49,509.872,460.2845,507.6314,462.0108,505.9052,459.7702,507.31,464.49" style="stroke:#181818;stroke-width:0.5;"/><text fill="#000000" font-family="sans-serif" font-size="6.5" lengthAdjust="spacing" textLength="33" x="513" y="343.5142">rawMaterial</text></g><!--link Repositories to Repositories--><g id="link_Repositories_Repositories"><path codeLine="67" d="M187.615,287.75 C198.13,289.065 205,291.485 205,295 C205,298.515 201.1068,300.5627 190.5918,301.8777 " fill="none" id="Repositories-to-Repositories" style="stroke:#181818;stroke-width:0.5;"/><polygon fill="#181818" points="187.615,302.25,192.3284,303.6761,190.0957,301.9398,191.832,299.707,187.615,302.25" style="stroke:#181818;stroke-width:0.5;"/><text fill="#000000" font-family="sans-serif" font-size="6.5" lengthAdjust="spacing" textLength="24.5" x="208" y="297.7642">instance</text></g><!--link Repositories to RawMaterialRepository--><g id="link_Repositories_RawMaterialRepository"><path codeLine="68" d="M116.105,321.19 C124.045,333.47 131.8909,345.6109 139.8259,357.8809 " fill="none" id="Repositories-to-RawMaterialRepository" style="stroke:#181818;stroke-width:0.5;"/><polygon fill="#181818" points="141.455,360.4,140.6907,355.5352,140.0974,358.3007,137.3319,357.7074,141.455,360.4" style="stroke:#181818;stroke-width:0.5;"/><text fill="#000000" font-family="sans-serif" font-size="6.5" lengthAdjust="spacing" textLength="64" x="131.5" y="343.5142">rawMaterialRepository</text><text fill="#000000" font-family="sans-serif" font-size="6.5" lengthAdjust="spacing" textLength="3.5" x="114.4155" y="331.9271">1</text><text fill="#000000" font-family="sans-serif" font-size="6.5" lengthAdjust="spacing" textLength="3.5" x="135.4966" y="354.8502">1</text></g><!--link RawMaterialRepository to RawMaterial--><g id="link_RawMaterialRepository_RawMaterial"><path codeLine="69" d="M227.185,407.595 C290.785,426.53 381.2147,453.4491 441.5697,471.4141 " fill="none" id="RawMaterialRepository-to-RawMaterial" style="stroke:#181818;stroke-width:0.5;"/><polygon fill="#181818" points="444.445,472.27,440.7026,469.0693,442.0489,471.5568,439.5614,472.9031,444.445,472.27" style="stroke:#181818;stroke-width:0.5;"/><text fill="#000000" font-family="sans-serif" font-size="6.5" lengthAdjust="spacing" textLength="30" x="321" y="436.0142">categories</text><text fill="#000000" font-family="sans-serif" font-size="6.5" lengthAdjust="spacing" textLength="3.5" x="231.0643" y="407.0362">1</text><text fill="#000000" font-family="sans-serif" font-size="6.5" lengthAdjust="spacing" textLength="2.5" x="438.0497" y="469.3509">*</text></g><!--link RawMaterial to Part--><g id="link_RawMaterial_Part"><path codeLine="70" d="M504,516.57 C504,526.125 504,528.065 504,537.985 " fill="none" id="RawMaterial-to-Part" style="stroke:#181818;stroke-width:0.5;"/><polygon fill="none" points="504,546.985,507,537.985,501,537.985,504,546.985" style="stroke:#181818;stroke-width:0.5;"/></g><!--link RawMaterialService to ProductException--><g id="link_RawMaterialService_ProductException"><path codeLine="71" d="M346.495,217.085 C364.885,235.335 389.1108,259.3766 405.9808,276.1216 " fill="none" id="RawMaterialService-to-ProductException" style="stroke:#181818;stroke-width:0.5;stroke-dasharray:7.0,7.0;"/><polygon fill="#181818" points="408.11,278.235,406.3252,273.6454,406.3357,276.4738,403.5073,276.4843,408.11,278.235" style="stroke:#181818;stroke-width:0.5;"/><text fill="#000000" font-family="sans-serif" font-size="6.5" lengthAdjust="spacing" textLength="19" x="372.5" y="240.5142">throws</text></g><!--link ProductException to RuntimeException--><g id="link_ProductException_RuntimeException"><path codeLine="72" d="M424.5,311.89 C424.5,329.97 424.5,349.605 424.5,365.47 " fill="none" id="ProductException-to-RuntimeException" style="stroke:#181818;stroke-width:0.5;"/><polygon fill="none" points="424.5,374.47,427.5,365.47,421.5,365.47,424.5,374.47" style="stroke:#181818;stroke-width:0.5;"/></g><!--SRC=[pLJBRjim4BphAmYTxDWEsgiH632A70mqG64X7y1G6sLXYXH8AexQvjz32OAvekW6xQcwIEBCleQxQq-e6cvupHekJho2mdKIc07XkAeaPFP2i2-yr6TK5Nlcqb94eWBNDS0QBRl-Xs12ScltpXbyQXqSX5O5_WJs9Sl6W2n_FEJiLyRyCv3P4Igq3ioHdn-uVoENZuUHyPwz4yjlMZcZfGGJUGYMWJ8o-cTLWICSkrYoBVlkWzwHqrsWctb62opNJF4Qrgm4Amms3hLQCz4Q0yeLJelJcjMei6xhuQ-FGHmaoYd0lAA0gxMC-FzVo14QRT5fqyKtEvuZM5B5XfulbfFg3ihwJXGmL4PvrpG8iHTHeW4PKqwh76YHq7if_qRhQLhtRvvflTYzrPFM4hWANCjVWTw92TynVwhqWov1JaN-mOsZucBfFHH-05KL3liBJnoJ3fYZgzvpkbsMVrIKPaFRoeT0vG96cop2Lfzsx3AXplsRW06C53AwR8MxeFIUYV9xQO2NtUJcOjD4tQroM4DWU3IzqMvlT-bDbQNtLyGVjq6MM103ayxQrczqCZhNJ993u6sJC_IvawbfDibeivcbYEEeJudvrtmWz-z_Jf2mB_vkyYXNuJ-hcK2U_7it3DMrYcVjj6NknUYppMR8u6lM8Hy0]--></g></svg>