<?xml version="1.0" encoding="us-ascii" standalone="no"?><svg xmlns="http://www.w3.org/2000/svg" xmlns:xlink="http://www.w3.org/1999/xlink" contentStyleType="text/css" height="823.2px" preserveAspectRatio="none" style="width:1362px;height:823px;background:#FFFFFF;" version="1.1" viewBox="0 0 1362 823" width="1362.6px" zoomAndPan="magnify"><defs/><g><text fill="#000000" font-family="sans-serif" font-size="8.4" font-weight="bold" lengthAdjust="spacing" textLength="99" x="632.4" y="18.0645">Sequence Diagram (SD)</text><rect fill="#FFFFFF" height="683.0801" style="stroke:#181818;stroke-width:0.6;" width="6" x="40.2" y="79.9453"/><rect fill="#FFFFFF" height="232.6934" style="stroke:#181818;stroke-width:0.6;" width="6" x="315.6" y="93.9199"/><rect fill="#FFFFFF" height="18.7746" style="stroke:#181818;stroke-width:0.6;" width="6" x="315.6" y="345.3879"/><rect fill="#FFFFFF" height="380.0883" style="stroke:#181818;stroke-width:0.6;" width="6" x="315.6" y="382.9371"/><rect fill="#FFFFFF" height="168.9715" style="stroke:#181818;stroke-width:0.6;" width="6" x="595.8" y="138.8672"/><rect fill="#FFFFFF" height="334.1391" style="stroke:#181818;stroke-width:0.6;" width="6" x="595.8" y="401.7117"/><rect fill="#FFFFFF" height="131.4223" style="stroke:#181818;stroke-width:0.6;" width="6" x="876" y="157.6418"/><rect fill="#FFFFFF" height="296.5898" style="stroke:#181818;stroke-width:0.6;" width="6" x="876" y="420.4863"/><rect fill="#FFFFFF" height="18.7746" style="stroke:#181818;stroke-width:0.6;" width="6" x="1024.2" y="492.5848"/><rect fill="#FFFFFF" height="18.7746" style="stroke:#181818;stroke-width:0.6;" width="6" x="1095.3" y="176.4164"/><rect fill="#FFFFFF" height="18.7746" style="stroke:#181818;stroke-width:0.6;" width="6" x="1158.3" y="213.9656"/><rect fill="#FFFFFF" height="18.7746" style="stroke:#181818;stroke-width:0.6;" width="6" x="1241.1" y="251.5148"/><rect fill="#FFFFFF" height="18.7746" style="stroke:#181818;stroke-width:0.6;" width="6" x="1241.1" y="439.2609"/><rect fill="#FFFFFF" height="92.073" style="stroke:#181818;stroke-width:0.6;" width="6" x="1241.1" y="606.2285"/><rect fill="none" height="277.8152" style="stroke:#000000;stroke-width:0.8999999999999999;" width="1099.8" x="258.6" y="467.0355"/><rect fill="none" height="125.4223" style="stroke:#000000;stroke-width:0.8999999999999999;" width="1033.2" x="264.6" y="615.2285"/><line style="stroke:#181818;stroke-width:0.3;stroke-dasharray:5.0,5.0;" x1="43.2" x2="43.2" y1="73.9453" y2="773.8254"/><line style="stroke:#181818;stroke-width:0.3;stroke-dasharray:5.0,5.0;" x1="318.6" x2="318.6" y1="73.9453" y2="773.8254"/><line style="stroke:#181818;stroke-width:0.3;stroke-dasharray:5.0,5.0;" x1="598.5" x2="598.5" y1="117.8062" y2="773.8254"/><line style="stroke:#181818;stroke-width:0.3;stroke-dasharray:5.0,5.0;" x1="879" x2="879" y1="73.9453" y2="773.8254"/><line style="stroke:#181818;stroke-width:0.3;stroke-dasharray:5.0,5.0;" x1="1027.2" x2="1027.2" y1="73.9453" y2="773.8254"/><line style="stroke:#181818;stroke-width:0.3;stroke-dasharray:5.0,5.0;" x1="1098" x2="1098" y1="73.9453" y2="773.8254"/><line style="stroke:#181818;stroke-width:0.3;stroke-dasharray:5.0,5.0;" x1="1161" x2="1161" y1="73.9453" y2="773.8254"/><line style="stroke:#181818;stroke-width:0.3;stroke-dasharray:5.0,5.0;" x1="1243.8" x2="1243.8" y1="73.9453" y2="773.8254"/><line style="stroke:#181818;stroke-width:0.3;stroke-dasharray:5.0,5.0;" x1="1324.8" x2="1324.8" y1="579.5813" y2="773.8254"/><text fill="#000000" font-family="sans-serif" font-size="8.4" lengthAdjust="spacing" textLength="76.8" x="3" y="71.8371">Production Manager</text><ellipse cx="43.2" cy="31.8727" fill="#E3E3E3" rx="4.8" ry="4.8" style="stroke:#181818;stroke-width:0.3;"/><path d="M43.2,36.6727 L43.2,52.8727 M35.4,41.4727 L51,41.4727 M43.2,52.8727 L35.4,61.8727 M43.2,52.8727 L51,61.8727 " fill="none" style="stroke:#181818;stroke-width:0.3;"/><text fill="#000000" font-family="sans-serif" font-size="8.4" lengthAdjust="spacing" textLength="76.8" x="3" y="782.2898">Production Manager</text><ellipse cx="43.2" cy="789.498" fill="#E3E3E3" rx="4.8" ry="4.8" style="stroke:#181818;stroke-width:0.3;"/><path d="M43.2,794.298 L43.2,810.498 M35.4,799.098 L51,799.098 M43.2,810.498 L35.4,819.498 M43.2,810.498 L51,819.498 " fill="none" style="stroke:#181818;stroke-width:0.3;"/><rect fill="#E3E3E3" height="19.5727" rx="1.5" ry="1.5" style="stroke:#181818;stroke-width:0.3;" width="96" x="270.6" y="53.7727"/><text fill="#000000" font-family="sans-serif" font-size="8.4" lengthAdjust="spacing" textLength="87.6" x="274.8" y="67.0371">:RegisterRawMaterialUI</text><rect fill="#E3E3E3" height="19.5727" rx="1.5" ry="1.5" style="stroke:#181818;stroke-width:0.3;" width="96" x="270.6" y="773.2254"/><text fill="#000000" font-family="sans-serif" font-size="8.4" lengthAdjust="spacing" textLength="87.6" x="274.8" y="786.4898">:RegisterRawMaterialUI</text><rect fill="#E3E3E3" height="19.5727" rx="1.5" ry="1.5" style="stroke:#181818;stroke-width:0.3;" width="94.2" x="551.7" y="773.2254"/><text fill="#000000" font-family="sans-serif" font-size="8.4" lengthAdjust="spacing" textLength="85.8" x="555.9" y="786.4898">:RawMaterialController</text><rect fill="#E3E3E3" height="19.5727" rx="1.5" ry="1.5" style="stroke:#181818;stroke-width:0.3;" width="85.2" x="836.4" y="53.7727"/><text fill="#000000" font-family="sans-serif" font-size="8.4" lengthAdjust="spacing" textLength="76.8" x="840.6" y="67.0371">:RawMaterialService</text><rect fill="#E3E3E3" height="19.5727" rx="1.5" ry="1.5" style="stroke:#181818;stroke-width:0.3;" width="85.2" x="836.4" y="773.2254"/><text fill="#000000" font-family="sans-serif" font-size="8.4" lengthAdjust="spacing" textLength="76.8" x="840.6" y="786.4898">:RawMaterialService</text><rect fill="#E3E3E3" height="19.5727" rx="1.5" ry="1.5" style="stroke:#181818;stroke-width:0.3;" width="74.4" x="990" y="53.7727"/><text fill="#000000" font-family="sans-serif" font-size="8.4" lengthAdjust="spacing" textLength="66" x="994.2" y="67.0371">ProductException</text><rect fill="#E3E3E3" height="19.5727" rx="1.5" ry="1.5" style="stroke:#181818;stroke-width:0.3;" width="74.4" x="990" y="773.2254"/><text fill="#000000" font-family="sans-serif" font-size="8.4" lengthAdjust="spacing" textLength="66" x="994.2" y="786.4898">ProductException</text><rect fill="#E3E3E3" height="19.5727" rx="1.5" ry="1.5" style="stroke:#181818;stroke-width:0.3;" width="55.8" x="1070.4" y="53.7727"/><text fill="#000000" font-family="sans-serif" font-size="8.4" lengthAdjust="spacing" textLength="47.4" x="1074.6" y="67.0371">Repositories</text><rect fill="#E3E3E3" height="19.5727" rx="1.5" ry="1.5" style="stroke:#181818;stroke-width:0.3;" width="55.8" x="1070.4" y="773.2254"/><text fill="#000000" font-family="sans-serif" font-size="8.4" lengthAdjust="spacing" textLength="47.4" x="1074.6" y="786.4898">Repositories</text><rect fill="#E3E3E3" height="30.7453" rx="1.5" ry="1.5" style="stroke:#181818;stroke-width:0.3;" width="58.2" x="1132.2" y="42.6"/><text fill="#000000" font-family="sans-serif" font-size="8.4" lengthAdjust="spacing" textLength="44.4" x="1139.1" y="55.8645">repositories</text><text fill="#000000" font-family="sans-serif" font-size="8.4" lengthAdjust="spacing" textLength="49.8" x="1136.4" y="67.0371">:Repositories</text><rect fill="#E3E3E3" height="30.7453" rx="1.5" ry="1.5" style="stroke:#181818;stroke-width:0.3;" width="58.2" x="1132.2" y="773.2254"/><text fill="#000000" font-family="sans-serif" font-size="8.4" lengthAdjust="spacing" textLength="44.4" x="1139.1" y="786.4898">repositories</text><text fill="#000000" font-family="sans-serif" font-size="8.4" lengthAdjust="spacing" textLength="49.8" x="1136.4" y="797.6625">:Repositories</text><rect fill="#E3E3E3" height="30.7453" rx="1.5" ry="1.5" style="stroke:#181818;stroke-width:0.3;" width="95.4" x="1196.4" y="42.6"/><text fill="#000000" font-family="sans-serif" font-size="8.4" lengthAdjust="spacing" textLength="86.4" x="1200.9" y="55.8645">rawMaterialRepository:</text><text fill="#000000" font-family="sans-serif" font-size="8.4" lengthAdjust="spacing" textLength="87" x="1200.6" y="67.0371">RawMaterialRepository</text><rect fill="#E3E3E3" height="30.7453" rx="1.5" ry="1.5" style="stroke:#181818;stroke-width:0.3;" width="95.4" x="1196.4" y="773.2254"/><text fill="#000000" font-family="sans-serif" font-size="8.4" lengthAdjust="spacing" textLength="86.4" x="1200.9" y="786.4898">rawMaterialRepository:</text><text fill="#000000" font-family="sans-serif" font-size="8.4" lengthAdjust="spacing" textLength="87" x="1200.6" y="797.6625">RawMaterialRepository</text><rect fill="#E3E3E3" height="30.7453" rx="1.5" ry="1.5" style="stroke:#181818;stroke-width:0.3;" width="54.6" x="1297.8" y="773.2254"/><text fill="#000000" font-family="sans-serif" font-size="8.4" lengthAdjust="spacing" textLength="45.6" x="1302.3" y="786.4898">rawMaterial:</text><text fill="#000000" font-family="sans-serif" font-size="8.4" lengthAdjust="spacing" textLength="46.2" x="1302" y="797.6625">RawMaterial</text><rect fill="#FFFFFF" height="683.0801" style="stroke:#181818;stroke-width:0.6;" width="6" x="40.2" y="79.9453"/><rect fill="#FFFFFF" height="232.6934" style="stroke:#181818;stroke-width:0.6;" width="6" x="315.6" y="93.9199"/><rect fill="#FFFFFF" height="18.7746" style="stroke:#181818;stroke-width:0.6;" width="6" x="315.6" y="345.3879"/><rect fill="#FFFFFF" height="380.0883" style="stroke:#181818;stroke-width:0.6;" width="6" x="315.6" y="382.9371"/><rect fill="#FFFFFF" height="168.9715" style="stroke:#181818;stroke-width:0.6;" width="6" x="595.8" y="138.8672"/><rect fill="#FFFFFF" height="334.1391" style="stroke:#181818;stroke-width:0.6;" width="6" x="595.8" y="401.7117"/><rect fill="#FFFFFF" height="131.4223" style="stroke:#181818;stroke-width:0.6;" width="6" x="876" y="157.6418"/><rect fill="#FFFFFF" height="296.5898" style="stroke:#181818;stroke-width:0.6;" width="6" x="876" y="420.4863"/><rect fill="#FFFFFF" height="18.7746" style="stroke:#181818;stroke-width:0.6;" width="6" x="1024.2" y="492.5848"/><rect fill="#FFFFFF" height="18.7746" style="stroke:#181818;stroke-width:0.6;" width="6" x="1095.3" y="176.4164"/><rect fill="#FFFFFF" height="18.7746" style="stroke:#181818;stroke-width:0.6;" width="6" x="1158.3" y="213.9656"/><rect fill="#FFFFFF" height="18.7746" style="stroke:#181818;stroke-width:0.6;" width="6" x="1241.1" y="251.5148"/><rect fill="#FFFFFF" height="18.7746" style="stroke:#181818;stroke-width:0.6;" width="6" x="1241.1" y="439.2609"/><rect fill="#FFFFFF" height="92.073" style="stroke:#181818;stroke-width:0.6;" width="6" x="1241.1" y="606.2285"/><polygon fill="#181818" points="308.4,91.5199,314.4,93.9199,308.4,96.3199,310.8,93.9199" style="stroke:#181818;stroke-width:0.6;"/><line style="stroke:#181818;stroke-width:0.6;" x1="46.2" x2="312" y1="93.9199" y2="93.9199"/><text fill="#000000" font-family="sans-serif" font-size="7.8" font-weight="bold" lengthAdjust="spacing" textLength="4.2" x="50.4" y="90.7623">1</text><text fill="#000000" font-family="sans-serif" font-size="7.8" lengthAdjust="spacing" textLength="121.2" x="57" y="90.7623">asks to register a new raw material</text><polygon fill="#181818" points="544.5,110.2945,550.5,112.6945,544.5,115.0945,546.9,112.6945" style="stroke:#181818;stroke-width:0.6;"/><line style="stroke:#181818;stroke-width:0.6;" x1="321.6" x2="548.1" y1="112.6945" y2="112.6945"/><text fill="#000000" font-family="sans-serif" font-size="7.8" font-weight="bold" lengthAdjust="spacing" textLength="4.2" x="325.8" y="109.5369">2</text><text fill="#000000" font-family="sans-serif" font-size="7.8" lengthAdjust="spacing" textLength="21.6" x="332.4" y="109.5369">create</text><rect fill="#E3E3E3" height="19.5727" rx="1.5" ry="1.5" style="stroke:#181818;stroke-width:0.3;" width="94.2" x="551.7" y="98.7199"/><text fill="#000000" font-family="sans-serif" font-size="8.4" lengthAdjust="spacing" textLength="85.8" x="555.9" y="111.9844">:RawMaterialController</text><polygon fill="#181818" points="588.6,136.4672,594.6,138.8672,588.6,141.2672,591,138.8672" style="stroke:#181818;stroke-width:0.6;"/><line style="stroke:#181818;stroke-width:0.6;" x1="321.6" x2="592.2" y1="138.8672" y2="138.8672"/><text fill="#000000" font-family="sans-serif" font-size="7.8" font-weight="bold" lengthAdjust="spacing" textLength="4.2" x="325.8" y="135.7096">3</text><text fill="#000000" font-family="sans-serif" font-size="7.8" lengthAdjust="spacing" textLength="62.4" x="332.4" y="135.7096">getRawMaterials()</text><polygon fill="#181818" points="868.8,155.2418,874.8,157.6418,868.8,160.0418,871.2,157.6418" style="stroke:#181818;stroke-width:0.6;"/><line style="stroke:#181818;stroke-width:0.6;" x1="601.8" x2="872.4" y1="157.6418" y2="157.6418"/><text fill="#000000" font-family="sans-serif" font-size="7.8" font-weight="bold" lengthAdjust="spacing" textLength="4.2" x="606" y="154.4842">4</text><text fill="#000000" font-family="sans-serif" font-size="7.8" lengthAdjust="spacing" textLength="62.4" x="612.6" y="154.4842">getRawMaterials()</text><polygon fill="#181818" points="1088.1,174.0164,1094.1,176.4164,1088.1,178.8164,1090.5,176.4164" style="stroke:#181818;stroke-width:0.6;"/><line style="stroke:#181818;stroke-width:0.6;" x1="882" x2="1091.7" y1="176.4164" y2="176.4164"/><text fill="#000000" font-family="sans-serif" font-size="7.8" font-weight="bold" lengthAdjust="spacing" textLength="4.2" x="886.2" y="173.2588">5</text><text fill="#000000" font-family="sans-serif" font-size="7.8" lengthAdjust="spacing" textLength="45" x="892.8" y="173.2588">getInstance()</text><polygon fill="#181818" points="888.6,192.791,882.6,195.191,888.6,197.591,886.2,195.191" style="stroke:#181818;stroke-width:0.6;"/><line style="stroke:#181818;stroke-width:0.6;stroke-dasharray:2.0,2.0;" x1="885" x2="1097.7" y1="195.191" y2="195.191"/><text fill="#000000" font-family="sans-serif" font-size="7.8" font-weight="bold" lengthAdjust="spacing" textLength="4.2" x="892.2" y="192.0334">6</text><text fill="#000000" font-family="sans-serif" font-size="7.8" lengthAdjust="spacing" textLength="40.2" x="898.8" y="192.0334">repositories</text><polygon fill="#181818" points="1151.1,211.5656,1157.1,213.9656,1151.1,216.3656,1153.5,213.9656" style="stroke:#181818;stroke-width:0.6;"/><line style="stroke:#181818;stroke-width:0.6;" x1="882" x2="1154.7" y1="213.9656" y2="213.9656"/><text fill="#000000" font-family="sans-serif" font-size="7.8" font-weight="bold" lengthAdjust="spacing" textLength="4.2" x="886.2" y="210.808">7</text><text fill="#000000" font-family="sans-serif" font-size="7.8" lengthAdjust="spacing" textLength="95.4" x="892.8" y="210.808">getRawMaterialRepository()</text><polygon fill="#181818" points="888.6,230.3402,882.6,232.7402,888.6,235.1402,886.2,232.7402" style="stroke:#181818;stroke-width:0.6;"/><line style="stroke:#181818;stroke-width:0.6;stroke-dasharray:2.0,2.0;" x1="885" x2="1160.7" y1="232.7402" y2="232.7402"/><text fill="#000000" font-family="sans-serif" font-size="7.8" font-weight="bold" lengthAdjust="spacing" textLength="4.2" x="892.2" y="229.5826">8</text><text fill="#000000" font-family="sans-serif" font-size="7.8" lengthAdjust="spacing" textLength="76.8" x="898.8" y="229.5826">rawMaterialRepository</text><polygon fill="#181818" points="1233.9,249.1148,1239.9,251.5148,1233.9,253.9148,1236.3,251.5148" style="stroke:#181818;stroke-width:0.6;"/><line style="stroke:#181818;stroke-width:0.6;" x1="882" x2="1237.5" y1="251.5148" y2="251.5148"/><text fill="#000000" font-family="sans-serif" font-size="7.8" font-weight="bold" lengthAdjust="spacing" textLength="4.2" x="886.2" y="248.3572">9</text><text fill="#000000" font-family="sans-serif" font-size="7.8" lengthAdjust="spacing" textLength="71.4" x="892.8" y="248.3572">getAllRawMaterials()</text><polygon fill="#181818" points="888.6,267.8895,882.6,270.2895,888.6,272.6895,886.2,270.2895" style="stroke:#181818;stroke-width:0.6;"/><line style="stroke:#181818;stroke-width:0.6;stroke-dasharray:2.0,2.0;" x1="885" x2="1243.5" y1="270.2895" y2="270.2895"/><text fill="#000000" font-family="sans-serif" font-size="7.8" font-weight="bold" lengthAdjust="spacing" textLength="8.4" x="892.2" y="267.1318">10</text><text fill="#000000" font-family="sans-serif" font-size="7.8" lengthAdjust="spacing" textLength="43.8" x="903" y="267.1318">rawMaterials</text><polygon fill="#181818" points="608.4,286.6641,602.4,289.0641,608.4,291.4641,606,289.0641" style="stroke:#181818;stroke-width:0.6;"/><line style="stroke:#181818;stroke-width:0.6;stroke-dasharray:2.0,2.0;" x1="604.8" x2="878.4" y1="289.0641" y2="289.0641"/><text fill="#000000" font-family="sans-serif" font-size="7.8" font-weight="bold" lengthAdjust="spacing" textLength="8.4" x="612" y="285.9064">11</text><text fill="#000000" font-family="sans-serif" font-size="7.8" lengthAdjust="spacing" textLength="43.8" x="622.8" y="285.9064">rawMaterials</text><polygon fill="#181818" points="328.2,305.4387,322.2,307.8387,328.2,310.2387,325.8,307.8387" style="stroke:#181818;stroke-width:0.6;"/><line style="stroke:#181818;stroke-width:0.6;stroke-dasharray:2.0,2.0;" x1="324.6" x2="598.2" y1="307.8387" y2="307.8387"/><text fill="#000000" font-family="sans-serif" font-size="7.8" font-weight="bold" lengthAdjust="spacing" textLength="8.4" x="331.8" y="304.6811">12</text><text fill="#000000" font-family="sans-serif" font-size="7.8" lengthAdjust="spacing" textLength="43.8" x="342.6" y="304.6811">rawMaterials</text><polygon fill="#181818" points="52.8,324.2133,46.8,326.6133,52.8,329.0133,50.4,326.6133" style="stroke:#181818;stroke-width:0.6;"/><line style="stroke:#181818;stroke-width:0.6;stroke-dasharray:2.0,2.0;" x1="49.2" x2="318" y1="326.6133" y2="326.6133"/><text fill="#000000" font-family="sans-serif" font-size="7.8" font-weight="bold" lengthAdjust="spacing" textLength="8.4" x="56.4" y="323.4557">13</text><text fill="#000000" font-family="sans-serif" font-size="7.8" lengthAdjust="spacing" textLength="196.8" x="67.2" y="323.4557">shows the list of raw materials and requests confirmation</text><polygon fill="#181818" points="308.4,342.9879,314.4,345.3879,308.4,347.7879,310.8,345.3879" style="stroke:#181818;stroke-width:0.6;"/><line style="stroke:#181818;stroke-width:0.6;" x1="46.2" x2="312" y1="345.3879" y2="345.3879"/><text fill="#000000" font-family="sans-serif" font-size="7.8" font-weight="bold" lengthAdjust="spacing" textLength="8.4" x="50.4" y="342.2303">14</text><text fill="#000000" font-family="sans-serif" font-size="7.8" lengthAdjust="spacing" textLength="183" x="61.2" y="342.2303">confirms that he wants to register a new raw material</text><polygon fill="#181818" points="52.8,361.7625,46.8,364.1625,52.8,366.5625,50.4,364.1625" style="stroke:#181818;stroke-width:0.6;"/><line style="stroke:#181818;stroke-width:0.6;stroke-dasharray:2.0,2.0;" x1="49.2" x2="318" y1="364.1625" y2="364.1625"/><text fill="#000000" font-family="sans-serif" font-size="7.8" font-weight="bold" lengthAdjust="spacing" textLength="8.4" x="56.4" y="361.0049">15</text><text fill="#000000" font-family="sans-serif" font-size="7.8" lengthAdjust="spacing" textLength="244.2" x="67.2" y="361.0049">requests data (i.e. Name, Description, Current Stock, Minimum Stock)</text><polygon fill="#181818" points="308.4,380.5371,314.4,382.9371,308.4,385.3371,310.8,382.9371" style="stroke:#181818;stroke-width:0.6;"/><line style="stroke:#181818;stroke-width:0.6;" x1="46.2" x2="312" y1="382.9371" y2="382.9371"/><text fill="#000000" font-family="sans-serif" font-size="7.8" font-weight="bold" lengthAdjust="spacing" textLength="8.4" x="50.4" y="379.7795">16</text><text fill="#000000" font-family="sans-serif" font-size="7.8" lengthAdjust="spacing" textLength="73.2" x="61.2" y="379.7795">types requested data</text><polygon fill="#181818" points="588.6,399.3117,594.6,401.7117,588.6,404.1117,591,401.7117" style="stroke:#181818;stroke-width:0.6;"/><line style="stroke:#181818;stroke-width:0.6;" x1="321.6" x2="592.2" y1="401.7117" y2="401.7117"/><text fill="#000000" font-family="sans-serif" font-size="7.8" font-weight="bold" lengthAdjust="spacing" textLength="8.4" x="325.8" y="398.5541">17</text><text fill="#000000" font-family="sans-serif" font-size="7.8" lengthAdjust="spacing" textLength="252" x="336.6" y="398.5541">registerRawMaterial(id, name, description, currentStock, minimumStock)</text><polygon fill="#181818" points="868.8,418.0863,874.8,420.4863,868.8,422.8863,871.2,420.4863" style="stroke:#181818;stroke-width:0.6;"/><line style="stroke:#181818;stroke-width:0.6;" x1="601.8" x2="872.4" y1="420.4863" y2="420.4863"/><text fill="#000000" font-family="sans-serif" font-size="7.8" font-weight="bold" lengthAdjust="spacing" textLength="8.4" x="606" y="417.3287">18</text><text fill="#000000" font-family="sans-serif" font-size="7.8" lengthAdjust="spacing" textLength="252" x="616.8" y="417.3287">registerRawMaterial(id, name, description, currentStock, minimumStock)</text><polygon fill="#181818" points="1233.9,436.8609,1239.9,439.2609,1233.9,441.6609,1236.3,439.2609" style="stroke:#181818;stroke-width:0.6;"/><line style="stroke:#181818;stroke-width:0.6;" x1="882" x2="1237.5" y1="439.2609" y2="439.2609"/><text fill="#000000" font-family="sans-serif" font-size="7.8" font-weight="bold" lengthAdjust="spacing" textLength="8.4" x="886.2" y="436.1033">19</text><text fill="#000000" font-family="sans-serif" font-size="7.8" lengthAdjust="spacing" textLength="86.4" x="897" y="436.1033">getRawMaterialExists(id)</text><polygon fill="#181818" points="888.6,455.6355,882.6,458.0355,888.6,460.4355,886.2,458.0355" style="stroke:#181818;stroke-width:0.6;"/><line style="stroke:#181818;stroke-width:0.6;stroke-dasharray:2.0,2.0;" x1="885" x2="1243.5" y1="458.0355" y2="458.0355"/><text fill="#000000" font-family="sans-serif" font-size="7.8" font-weight="bold" lengthAdjust="spacing" textLength="8.4" x="892.2" y="454.8779">20</text><text fill="#000000" font-family="sans-serif" font-size="7.8" lengthAdjust="spacing" textLength="31.8" x="903" y="454.8779">true/false</text><path d="M258.6,467.0355 L295.2,467.0355 L295.2,472.6102 L289.2,478.6102 L258.6,478.6102 L258.6,467.0355 " fill="#EEEEEE" style="stroke:#000000;stroke-width:0.8999999999999999;"/><rect fill="none" height="277.8152" style="stroke:#000000;stroke-width:0.8999999999999999;" width="1099.8" x="258.6" y="467.0355"/><text fill="#000000" font-family="sans-serif" font-size="7.8" font-weight="bold" lengthAdjust="spacing" textLength="9.6" x="267.6" y="476.0525">alt</text><text fill="#000000" font-family="sans-serif" font-size="6.6" font-weight="bold" lengthAdjust="spacing" textLength="18.6" x="304.2" y="475.3576">[true]</text><polygon fill="#181818" points="1017,490.1848,1023,492.5848,1017,494.9848,1019.4,492.5848" style="stroke:#181818;stroke-width:0.6;"/><line style="stroke:#181818;stroke-width:0.6;" x1="882" x2="1020.6" y1="492.5848" y2="492.5848"/><text fill="#000000" font-family="sans-serif" font-size="7.8" font-weight="bold" lengthAdjust="spacing" textLength="8.4" x="886.2" y="489.4271">21</text><text fill="#000000" font-family="sans-serif" font-size="7.8" lengthAdjust="spacing" textLength="120" x="897" y="489.4271">throw rawMaterialAlreadyExists(id)</text><polygon fill="#181818" points="888.6,508.9594,882.6,511.3594,888.6,513.7594,886.2,511.3594" style="stroke:#181818;stroke-width:0.6;"/><line style="stroke:#181818;stroke-width:0.6;stroke-dasharray:2.0,2.0;" x1="885" x2="1026.6" y1="511.3594" y2="511.3594"/><text fill="#000000" font-family="sans-serif" font-size="7.8" font-weight="bold" lengthAdjust="spacing" textLength="8.4" x="892.2" y="508.2018">22</text><text fill="#000000" font-family="sans-serif" font-size="7.8" lengthAdjust="spacing" textLength="61.8" x="903" y="508.2018">Exception Thrown</text><polygon fill="#181818" points="608.4,527.734,602.4,530.134,608.4,532.534,606,530.134" style="stroke:#181818;stroke-width:0.6;"/><line style="stroke:#181818;stroke-width:0.6;stroke-dasharray:2.0,2.0;" x1="604.8" x2="875.4" y1="530.134" y2="530.134"/><text fill="#000000" font-family="sans-serif" font-size="7.8" font-weight="bold" lengthAdjust="spacing" textLength="8.4" x="612" y="526.9764">23</text><text fill="#000000" font-family="sans-serif" font-size="7.8" lengthAdjust="spacing" textLength="186.6" x="622.8" y="526.9764">show error message (Raw Material already registered)</text><polygon fill="#181818" points="328.2,546.5086,322.2,548.9086,328.2,551.3086,325.8,548.9086" style="stroke:#181818;stroke-width:0.6;"/><line style="stroke:#181818;stroke-width:0.6;stroke-dasharray:2.0,2.0;" x1="324.6" x2="595.2" y1="548.9086" y2="548.9086"/><text fill="#000000" font-family="sans-serif" font-size="7.8" font-weight="bold" lengthAdjust="spacing" textLength="8.4" x="331.8" y="545.751">24</text><text fill="#000000" font-family="sans-serif" font-size="7.8" lengthAdjust="spacing" textLength="186.6" x="342.6" y="545.751">show error message (Raw Material already registered)</text><line style="stroke:#000000;stroke-width:0.6;stroke-dasharray:2.0,2.0;" x1="258.6" x2="1358.4" y1="554.3086" y2="554.3086"/><polygon fill="#181818" points="1290.6,566.4832,1296.6,568.8832,1290.6,571.2832,1293,568.8832" style="stroke:#181818;stroke-width:0.6;"/><line style="stroke:#181818;stroke-width:0.6;" x1="882" x2="1294.2" y1="568.8832" y2="568.8832"/><text fill="#000000" font-family="sans-serif" font-size="7.8" font-weight="bold" lengthAdjust="spacing" textLength="8.4" x="886.2" y="565.7256">25</text><text fill="#000000" font-family="sans-serif" font-size="7.8" lengthAdjust="spacing" textLength="205.2" x="897" y="565.7256">create(id, name, description, currentStock, minimumStock)</text><rect fill="#E3E3E3" height="30.7453" rx="1.5" ry="1.5" style="stroke:#181818;stroke-width:0.3;" width="54.6" x="1297.8" y="554.9086"/><text fill="#000000" font-family="sans-serif" font-size="8.4" lengthAdjust="spacing" textLength="45.6" x="1302.3" y="568.173">rawMaterial:</text><text fill="#000000" font-family="sans-serif" font-size="8.4" lengthAdjust="spacing" textLength="46.2" x="1302" y="579.3457">RawMaterial</text><polygon fill="#181818" points="1233.9,603.8285,1239.9,606.2285,1233.9,608.6285,1236.3,606.2285" style="stroke:#181818;stroke-width:0.6;"/><line style="stroke:#181818;stroke-width:0.6;" x1="882" x2="1237.5" y1="606.2285" y2="606.2285"/><text fill="#000000" font-family="sans-serif" font-size="7.8" font-weight="bold" lengthAdjust="spacing" textLength="8.4" x="886.2" y="603.0709">26</text><text fill="#000000" font-family="sans-serif" font-size="7.8" lengthAdjust="spacing" textLength="60" x="897" y="603.0709">save(rawMaterial)</text><path d="M264.6,615.2285 L301.2,615.2285 L301.2,620.8031 L295.2,626.8031 L264.6,626.8031 L264.6,615.2285 " fill="#EEEEEE" style="stroke:#000000;stroke-width:0.8999999999999999;"/><rect fill="none" height="125.4223" style="stroke:#000000;stroke-width:0.8999999999999999;" width="1033.2" x="264.6" y="615.2285"/><text fill="#000000" font-family="sans-serif" font-size="7.8" font-weight="bold" lengthAdjust="spacing" textLength="9.6" x="273.6" y="624.2455">alt</text><text fill="#000000" font-family="sans-serif" font-size="6.6" font-weight="bold" lengthAdjust="spacing" textLength="49.2" x="310.2" y="623.5506">[system error]</text><polygon fill="#181818" points="888.6,638.3777,882.6,640.7777,888.6,643.1777,886.2,640.7777" style="stroke:#181818;stroke-width:0.6;"/><line style="stroke:#181818;stroke-width:0.6;stroke-dasharray:2.0,2.0;" x1="885" x2="1240.5" y1="640.7777" y2="640.7777"/><text fill="#000000" font-family="sans-serif" font-size="7.8" font-weight="bold" lengthAdjust="spacing" textLength="8.4" x="892.2" y="637.6201">27</text><text fill="#000000" font-family="sans-serif" font-size="7.8" lengthAdjust="spacing" textLength="51" x="903" y="637.6201">Database error</text><polygon fill="#181818" points="608.4,657.1523,602.4,659.5523,608.4,661.9523,606,659.5523" style="stroke:#181818;stroke-width:0.6;"/><line style="stroke:#181818;stroke-width:0.6;stroke-dasharray:2.0,2.0;" x1="604.8" x2="875.4" y1="659.5523" y2="659.5523"/><text fill="#000000" font-family="sans-serif" font-size="7.8" font-weight="bold" lengthAdjust="spacing" textLength="8.4" x="612" y="656.3947">28</text><text fill="#000000" font-family="sans-serif" font-size="7.8" lengthAdjust="spacing" textLength="128.4" x="622.8" y="656.3947">show error message (Database error)</text><polygon fill="#181818" points="328.2,675.927,322.2,678.327,328.2,680.727,325.8,678.327" style="stroke:#181818;stroke-width:0.6;"/><line style="stroke:#181818;stroke-width:0.6;stroke-dasharray:2.0,2.0;" x1="324.6" x2="595.2" y1="678.327" y2="678.327"/><text fill="#000000" font-family="sans-serif" font-size="7.8" font-weight="bold" lengthAdjust="spacing" textLength="8.4" x="331.8" y="675.1693">29</text><text fill="#000000" font-family="sans-serif" font-size="7.8" lengthAdjust="spacing" textLength="128.4" x="342.6" y="675.1693">show error message (Database error)</text><line style="stroke:#000000;stroke-width:0.6;stroke-dasharray:2.0,2.0;" x1="264.6" x2="1297.8" y1="683.727" y2="683.727"/><polygon fill="#181818" points="888.6,695.9016,882.6,698.3016,888.6,700.7016,886.2,698.3016" style="stroke:#181818;stroke-width:0.6;"/><line style="stroke:#181818;stroke-width:0.6;stroke-dasharray:2.0,2.0;" x1="885" x2="1243.5" y1="698.3016" y2="698.3016"/><text fill="#000000" font-family="sans-serif" font-size="7.8" font-weight="bold" lengthAdjust="spacing" textLength="8.4" x="892.2" y="695.1439">30</text><text fill="#000000" font-family="sans-serif" font-size="7.8" lengthAdjust="spacing" textLength="39.6" x="903" y="695.1439">rawMaterial</text><polygon fill="#181818" points="608.4,714.6762,602.4,717.0762,608.4,719.4762,606,717.0762" style="stroke:#181818;stroke-width:0.6;"/><line style="stroke:#181818;stroke-width:0.6;stroke-dasharray:2.0,2.0;" x1="604.8" x2="878.4" y1="717.0762" y2="717.0762"/><text fill="#000000" font-family="sans-serif" font-size="7.8" font-weight="bold" lengthAdjust="spacing" textLength="8.4" x="612" y="713.9186">31</text><text fill="#000000" font-family="sans-serif" font-size="7.8" lengthAdjust="spacing" textLength="39.6" x="622.8" y="713.9186">rawMaterial</text><polygon fill="#181818" points="328.2,733.4508,322.2,735.8508,328.2,738.2508,325.8,735.8508" style="stroke:#181818;stroke-width:0.6;"/><line style="stroke:#181818;stroke-width:0.6;stroke-dasharray:2.0,2.0;" x1="324.6" x2="598.2" y1="735.8508" y2="735.8508"/><text fill="#000000" font-family="sans-serif" font-size="7.8" font-weight="bold" lengthAdjust="spacing" textLength="8.4" x="331.8" y="732.6932">32</text><text fill="#000000" font-family="sans-serif" font-size="7.8" lengthAdjust="spacing" textLength="39.6" x="342.6" y="732.6932">rawMaterial</text><polygon fill="#181818" points="49.8,760.6254,43.8,763.0254,49.8,765.4254,47.4,763.0254" style="stroke:#181818;stroke-width:0.6;"/><line style="stroke:#181818;stroke-width:0.6;stroke-dasharray:2.0,2.0;" x1="46.2" x2="318" y1="763.0254" y2="763.0254"/><text fill="#000000" font-family="sans-serif" font-size="7.8" font-weight="bold" lengthAdjust="spacing" textLength="8.4" x="53.4" y="759.8678">33</text><text fill="#000000" font-family="sans-serif" font-size="7.8" lengthAdjust="spacing" textLength="223.2" x="64.2" y="759.8678">shows all data and displays operation success or error message</text><!--SRC=[jLPDR-8m4BtdLunwWefsxpciX803KbbLeTtTGo-kCwKMYPsrJId_VYSE12Su0QhTN23nyvitdW-FMGjPCCroo9LK_5sh7C7g3KQcNYaONxCLBkqkGz38BPEhp0UOTvQghP0hU6EPmIYomX9qYNysA3d2LB1LYHiifyCeOXkhv2P_HKt_kLKQRXwrIZVS2YLXmIJPqZV038odYuWiMC55mQI5cpZ1bJ0MTSAs2qQ_WcNFSuTzdhUXHyX4IQjLbkrf9q_9GpTuYVf3S7J8PVAp2TmBdNroB4gv3ZNxFMcY4YoK4UIPGECGoUnnsOHe3_8Yuz2EreQZmXgyYrza4lhkA88xEacRL9M6yQ_5-6cMpCSFBbBYWrPTK80U-eMxxtJk41DuRS0gIeugFC10uhPK0FcUqUsfIIXQxaFv40Fnb46vlIKkhf4GeMLQNA7rL9h1i8RLr2wwu3rkAr5GC7iP6Ynbv1ihvLCo454PpOffBWqL0ySMIuF9nRwzwYZkAb4n-Cbm0asnd-eewiIxOzZF20pfEyWZrd0czGljFBqWMILzd6KziMc8lanIs5RGiTw3Fs_DENVCqqvYZxHCiMQE7iefkDlRMQTuMHkqgIp5cBgmsb8LlYDaL8IWtXhrPu39b3ADMhAn1hYIRqBJ8ZMng4L_A4w_mlVuafzP81jRQY1NrxnVqxNkMbFAB8E1kCTx-C5o7C4K3TV2DTeHJ3PQ8pMjfLLyFOA5a2BVvDNhy18NxAv0Sx26gJFNgx2APbnxwENcGAGZa4vawelabSYznhpIw4cyk5FzSwiNTxVmHTFgBBDFqcP8p_yjqTYD8j-ggUBg-ZoLbjbgjZbPyVodsvpCqY2qzMd76LrBwQx7xuRlvKWG0j3tes_r505FfJaPtE5vsKNgzvwg3G1gJNDLZiRGC0K3YXmSFA5JSAxK2ORaJ93NQqfVf6qpefiEUmxV6pcyOU0hUTzdfIF53Vl0WRTs9iQNvVSXxyoE3YMlJZ08kg0OfjInNfd1FKidpVc4Q38DkwdEva2RAKI2eVAzq6TlkPFYgfkw-w2kDENVtxt7TYNloRLG7wDCez2trYXmc0HObbLNQddnfy8K6TiPK0LgT-k3sN1EKGIAPYEceRlKUoKBVm40]--></g></svg>