<?xml version="1.0" encoding="us-ascii" standalone="no"?><svg xmlns="http://www.w3.org/2000/svg" xmlns:xlink="http://www.w3.org/1999/xlink" contentStyleType="text/css" height="853px" preserveAspectRatio="none" style="width:747px;height:853px;background:#FFFFFF;" version="1.1" viewBox="0 0 747 853" width="747px" zoomAndPan="magnify"><defs/><g><text fill="#000000" font-family="sans-serif" font-size="14" font-weight="bold" lengthAdjust="spacing" textLength="228" x="260.5" y="30.1074">System Sequence Diagram (SSD)</text><rect fill="#FFFFFF" height="627.8398" style="stroke:#181818;stroke-width:1.0;" width="10" x="102" y="133.2422"/><rect fill="#FFFFFF" height="31.291" style="stroke:#181818;stroke-width:1.0;" width="10" x="466" y="156.5332"/><rect fill="#FFFFFF" height="101.873" style="stroke:#181818;stroke-width:1.0;" width="10" x="466" y="219.1152"/><rect fill="#FFFFFF" height="31.291" style="stroke:#181818;stroke-width:1.0;" width="10" x="466" y="400.2012"/><rect fill="#FFFFFF" height="101.873" style="stroke:#181818;stroke-width:1.0;" width="10" x="466" y="462.7832"/><rect fill="none" height="474.6758" style="stroke:#000000;stroke-width:1.5;" width="730" x="10" y="278.4063"/><rect fill="none" height="224.0078" style="stroke:#000000;stroke-width:1.5;" width="710" x="20" y="522.0742"/><rect fill="none" height="98.5039" style="stroke:#000000;stroke-width:1.5;" width="483" x="30" y="640.5781"/><line style="stroke:#181818;stroke-width:0.5;stroke-dasharray:5.0,5.0;" x1="107" x2="107" y1="123.2422" y2="770.082"/><line style="stroke:#181818;stroke-width:0.5;stroke-dasharray:5.0,5.0;" x1="471" x2="471" y1="123.2422" y2="770.082"/><text fill="#000000" font-family="sans-serif" font-size="14" lengthAdjust="spacing" textLength="128" x="40" y="119.7285">Production Manager</text><ellipse cx="107" cy="53.1211" fill="#E3E3E3" rx="8" ry="8" style="stroke:#181818;stroke-width:0.5;"/><path d="M107,61.1211 L107,88.1211 M94,69.1211 L120,69.1211 M107,88.1211 L94,103.1211 M107,88.1211 L120,103.1211 " fill="none" style="stroke:#181818;stroke-width:0.5;"/><text fill="#000000" font-family="sans-serif" font-size="14" lengthAdjust="spacing" textLength="128" x="40" y="784.1895">Production Manager</text><ellipse cx="107" cy="796.2031" fill="#E3E3E3" rx="8" ry="8" style="stroke:#181818;stroke-width:0.5;"/><path d="M107,804.2031 L107,831.2031 M94,812.2031 L120,812.2031 M107,831.2031 L94,846.2031 M107,831.2031 L120,846.2031 " fill="none" style="stroke:#181818;stroke-width:0.5;"/><rect fill="#E3E3E3" height="32.6211" rx="2.5" ry="2.5" style="stroke:#181818;stroke-width:0.5;" width="64" x="439" y="89.6211"/><text fill="#000000" font-family="sans-serif" font-size="14" lengthAdjust="spacing" textLength="50" x="446" y="111.7285">:System</text><rect fill="#E3E3E3" height="32.6211" rx="2.5" ry="2.5" style="stroke:#181818;stroke-width:0.5;" width="64" x="439" y="769.082"/><text fill="#000000" font-family="sans-serif" font-size="14" lengthAdjust="spacing" textLength="50" x="446" y="791.1895">:System</text><rect fill="#FFFFFF" height="627.8398" style="stroke:#181818;stroke-width:1.0;" width="10" x="102" y="133.2422"/><rect fill="#FFFFFF" height="31.291" style="stroke:#181818;stroke-width:1.0;" width="10" x="466" y="156.5332"/><rect fill="#FFFFFF" height="101.873" style="stroke:#181818;stroke-width:1.0;" width="10" x="466" y="219.1152"/><rect fill="#FFFFFF" height="31.291" style="stroke:#181818;stroke-width:1.0;" width="10" x="466" y="400.2012"/><rect fill="#FFFFFF" height="101.873" style="stroke:#181818;stroke-width:1.0;" width="10" x="466" y="462.7832"/><polygon fill="#181818" points="454,152.5332,464,156.5332,454,160.5332,458,156.5332" style="stroke:#181818;stroke-width:1.0;"/><line style="stroke:#181818;stroke-width:1.0;" x1="112" x2="460" y1="156.5332" y2="156.5332"/><text fill="#000000" font-family="sans-serif" font-size="13" font-weight="bold" lengthAdjust="spacing" textLength="7" x="119" y="151.2705">1</text><text fill="#000000" font-family="sans-serif" font-size="13" lengthAdjust="spacing" textLength="151" x="130" y="151.2705">asks to complete an order</text><polygon fill="#181818" points="123,183.8242,113,187.8242,123,191.8242,119,187.8242" style="stroke:#181818;stroke-width:1.0;"/><line style="stroke:#181818;stroke-width:1.0;stroke-dasharray:2.0,2.0;" x1="117" x2="470" y1="187.8242" y2="187.8242"/><text fill="#000000" font-family="sans-serif" font-size="13" font-weight="bold" lengthAdjust="spacing" textLength="7" x="129" y="182.5615">2</text><text fill="#000000" font-family="sans-serif" font-size="13" lengthAdjust="spacing" textLength="264" x="140" y="182.5615">shows the list of clients and requests client id</text><polygon fill="#181818" points="454,215.1152,464,219.1152,454,223.1152,458,219.1152" style="stroke:#181818;stroke-width:1.0;"/><line style="stroke:#181818;stroke-width:1.0;" x1="112" x2="460" y1="219.1152" y2="219.1152"/><text fill="#000000" font-family="sans-serif" font-size="13" font-weight="bold" lengthAdjust="spacing" textLength="7" x="119" y="213.8525">3</text><text fill="#000000" font-family="sans-serif" font-size="13" lengthAdjust="spacing" textLength="157" x="130" y="213.8525">provides requested client id</text><line style="stroke:#181818;stroke-width:1.0;" x1="476" x2="518" y1="250.4063" y2="250.4063"/><line style="stroke:#181818;stroke-width:1.0;" x1="518" x2="518" y1="250.4063" y2="263.4063"/><line style="stroke:#181818;stroke-width:1.0;" x1="477" x2="518" y1="263.4063" y2="263.4063"/><polygon fill="#181818" points="487,259.4063,477,263.4063,487,267.4063,483,263.4063" style="stroke:#181818;stroke-width:1.0;"/><text fill="#000000" font-family="sans-serif" font-size="13" font-weight="bold" lengthAdjust="spacing" textLength="7" x="483" y="245.1436">4</text><text fill="#000000" font-family="sans-serif" font-size="13" lengthAdjust="spacing" textLength="172" x="494" y="245.1436">checks if client already exists</text><path d="M10,278.4063 L71,278.4063 L71,287.6973 L61,297.6973 L10,297.6973 L10,278.4063 " fill="#EEEEEE" style="stroke:#000000;stroke-width:1.5;"/><rect fill="none" height="474.6758" style="stroke:#000000;stroke-width:1.5;" width="730" x="10" y="278.4063"/><text fill="#000000" font-family="sans-serif" font-size="13" font-weight="bold" lengthAdjust="spacing" textLength="16" x="25" y="293.4346">alt</text><text fill="#000000" font-family="sans-serif" font-size="11" font-weight="bold" lengthAdjust="spacing" textLength="120" x="86" y="292.2764">[client does not exist]</text><polygon fill="#181818" points="123,316.9883,113,320.9883,123,324.9883,119,320.9883" style="stroke:#181818;stroke-width:1.0;"/><line style="stroke:#181818;stroke-width:1.0;stroke-dasharray:2.0,2.0;" x1="117" x2="470" y1="320.9883" y2="320.9883"/><text fill="#000000" font-family="sans-serif" font-size="13" font-weight="bold" lengthAdjust="spacing" textLength="7" x="129" y="315.7256">5</text><text fill="#000000" font-family="sans-serif" font-size="13" lengthAdjust="spacing" textLength="255" x="140" y="315.7256">shows error message (Client does not exist)</text><line style="stroke:#000000;stroke-width:1.0;stroke-dasharray:2.0,2.0;" x1="10" x2="740" y1="329.9883" y2="329.9883"/><text fill="#000000" font-family="sans-serif" font-size="11" font-weight="bold" lengthAdjust="spacing" textLength="75" x="15" y="341.8584">[client exists]</text><polygon fill="#181818" points="123,364.9102,113,368.9102,123,372.9102,119,368.9102" style="stroke:#181818;stroke-width:1.0;"/><line style="stroke:#181818;stroke-width:1.0;stroke-dasharray:2.0,2.0;" x1="117" x2="470" y1="368.9102" y2="368.9102"/><text fill="#000000" font-family="sans-serif" font-size="13" font-weight="bold" lengthAdjust="spacing" textLength="7" x="129" y="363.6475">6</text><text fill="#000000" font-family="sans-serif" font-size="13" lengthAdjust="spacing" textLength="306" x="140" y="363.6475">shows the client's order list and asks for confirmation</text><polygon fill="#181818" points="454,396.2012,464,400.2012,454,404.2012,458,400.2012" style="stroke:#181818;stroke-width:1.0;"/><line style="stroke:#181818;stroke-width:1.0;" x1="112" x2="460" y1="400.2012" y2="400.2012"/><text fill="#000000" font-family="sans-serif" font-size="13" font-weight="bold" lengthAdjust="spacing" textLength="7" x="119" y="394.9385">7</text><text fill="#000000" font-family="sans-serif" font-size="13" lengthAdjust="spacing" textLength="254" x="130" y="394.9385">confirms that he wants to complete an order</text><polygon fill="#181818" points="123,427.4922,113,431.4922,123,435.4922,119,431.4922" style="stroke:#181818;stroke-width:1.0;"/><line style="stroke:#181818;stroke-width:1.0;stroke-dasharray:2.0,2.0;" x1="117" x2="470" y1="431.4922" y2="431.4922"/><text fill="#000000" font-family="sans-serif" font-size="13" font-weight="bold" lengthAdjust="spacing" textLength="7" x="129" y="426.2295">8</text><text fill="#000000" font-family="sans-serif" font-size="13" lengthAdjust="spacing" textLength="97" x="140" y="426.2295">requests order id</text><polygon fill="#181818" points="454,458.7832,464,462.7832,454,466.7832,458,462.7832" style="stroke:#181818;stroke-width:1.0;"/><line style="stroke:#181818;stroke-width:1.0;" x1="112" x2="460" y1="462.7832" y2="462.7832"/><text fill="#000000" font-family="sans-serif" font-size="13" font-weight="bold" lengthAdjust="spacing" textLength="7" x="119" y="457.5205">9</text><text fill="#000000" font-family="sans-serif" font-size="13" lengthAdjust="spacing" textLength="155" x="130" y="457.5205">provides requested order id</text><line style="stroke:#181818;stroke-width:1.0;" x1="476" x2="518" y1="494.0742" y2="494.0742"/><line style="stroke:#181818;stroke-width:1.0;" x1="518" x2="518" y1="494.0742" y2="507.0742"/><line style="stroke:#181818;stroke-width:1.0;" x1="477" x2="518" y1="507.0742" y2="507.0742"/><polygon fill="#181818" points="487,503.0742,477,507.0742,487,511.0742,483,507.0742" style="stroke:#181818;stroke-width:1.0;"/><text fill="#000000" font-family="sans-serif" font-size="13" font-weight="bold" lengthAdjust="spacing" textLength="14" x="483" y="488.8115">10</text><text fill="#000000" font-family="sans-serif" font-size="13" lengthAdjust="spacing" textLength="170" x="501" y="488.8115">checks if order already exists</text><path d="M20,522.0742 L81,522.0742 L81,531.3652 L71,541.3652 L20,541.3652 L20,522.0742 " fill="#EEEEEE" style="stroke:#000000;stroke-width:1.5;"/><rect fill="none" height="224.0078" style="stroke:#000000;stroke-width:1.5;" width="710" x="20" y="522.0742"/><text fill="#000000" font-family="sans-serif" font-size="13" font-weight="bold" lengthAdjust="spacing" textLength="16" x="35" y="537.1025">alt</text><text fill="#000000" font-family="sans-serif" font-size="11" font-weight="bold" lengthAdjust="spacing" textLength="121" x="96" y="535.9443">[order does not exist]</text><polygon fill="#181818" points="123,560.6563,113,564.6563,123,568.6563,119,564.6563" style="stroke:#181818;stroke-width:1.0;"/><line style="stroke:#181818;stroke-width:1.0;stroke-dasharray:2.0,2.0;" x1="117" x2="470" y1="564.6563" y2="564.6563"/><text fill="#000000" font-family="sans-serif" font-size="13" font-weight="bold" lengthAdjust="spacing" textLength="14" x="129" y="559.3936">11</text><text fill="#000000" font-family="sans-serif" font-size="13" lengthAdjust="spacing" textLength="254" x="147" y="559.3936">shows error message (Order does not exist)</text><line style="stroke:#000000;stroke-width:1.0;stroke-dasharray:2.0,2.0;" x1="20" x2="730" y1="573.6563" y2="573.6563"/><text fill="#000000" font-family="sans-serif" font-size="11" font-weight="bold" lengthAdjust="spacing" textLength="76" x="25" y="585.5264">[order exists]</text><line style="stroke:#181818;stroke-width:1.0;" x1="471" x2="513" y1="612.5781" y2="612.5781"/><line style="stroke:#181818;stroke-width:1.0;" x1="513" x2="513" y1="612.5781" y2="625.5781"/><line style="stroke:#181818;stroke-width:1.0;" x1="472" x2="513" y1="625.5781" y2="625.5781"/><polygon fill="#181818" points="482,621.5781,472,625.5781,482,629.5781,478,625.5781" style="stroke:#181818;stroke-width:1.0;"/><text fill="#000000" font-family="sans-serif" font-size="13" font-weight="bold" lengthAdjust="spacing" textLength="14" x="478" y="607.3154">12</text><text fill="#000000" font-family="sans-serif" font-size="13" lengthAdjust="spacing" textLength="222" x="496" y="607.3154">complete order and reduce used stock</text><path d="M30,640.5781 L91,640.5781 L91,649.8691 L81,659.8691 L30,659.8691 L30,640.5781 " fill="#EEEEEE" style="stroke:#000000;stroke-width:1.5;"/><rect fill="none" height="98.5039" style="stroke:#000000;stroke-width:1.5;" width="483" x="30" y="640.5781"/><text fill="#000000" font-family="sans-serif" font-size="13" font-weight="bold" lengthAdjust="spacing" textLength="16" x="45" y="655.6064">alt</text><text fill="#000000" font-family="sans-serif" font-size="11" font-weight="bold" lengthAdjust="spacing" textLength="82" x="106" y="654.4482">[system error]</text><polygon fill="#181818" points="123,679.1602,113,683.1602,123,687.1602,119,683.1602" style="stroke:#181818;stroke-width:1.0;"/><line style="stroke:#181818;stroke-width:1.0;stroke-dasharray:2.0,2.0;" x1="117" x2="470" y1="683.1602" y2="683.1602"/><text fill="#000000" font-family="sans-serif" font-size="13" font-weight="bold" lengthAdjust="spacing" textLength="14" x="129" y="677.8975">13</text><text fill="#000000" font-family="sans-serif" font-size="13" lengthAdjust="spacing" textLength="221" x="147" y="677.8975">shows error message (Database error)</text><line style="stroke:#000000;stroke-width:1.0;stroke-dasharray:2.0,2.0;" x1="30" x2="513" y1="692.1602" y2="692.1602"/><text fill="#000000" font-family="sans-serif" font-size="11" font-weight="bold" lengthAdjust="spacing" textLength="55" x="35" y="704.0303">[success]</text><polygon fill="#181818" points="123,727.082,113,731.082,123,735.082,119,731.082" style="stroke:#181818;stroke-width:1.0;"/><line style="stroke:#181818;stroke-width:1.0;stroke-dasharray:2.0,2.0;" x1="117" x2="470" y1="731.082" y2="731.082"/><text fill="#000000" font-family="sans-serif" font-size="13" font-weight="bold" lengthAdjust="spacing" textLength="14" x="129" y="725.8193">14</text><text fill="#000000" font-family="sans-serif" font-size="13" lengthAdjust="spacing" textLength="317" x="147" y="725.8193">shows all data of order and displays operation success</text><!--SRC=[hPH1Sjim34NtEWN6cyQBNC2BRkgjfvxH2H0IjZccI9M0ulhsXKHHJMB9TIRLYfB0X_-9B_7PXHOJDj344CqfnOP0KaSLJszQD6SyKYrNJv3828QZVrl09xJnui8H3kYPgagSQ6bzPQ46QlhLKJ04MuV7llofhhVhgi9EOkYQ5qgwDX8JhFOfsiw8Ym5s6BHdMW4ox7ULDX9dN8j1OBN9vE5TNWu4zuf2VN45UkrtyFozQDXewPb18fZOj9wq3WF4PBLvNppjBZWOht7_iw8Kk56hyQAS4u5tB10FOBoZ8AmyguUZLbblyaDmTW1PckL_KDYc-EeiSQ6G_O2PXHI1Rq3cH4RDkg8Dq2T2UmNwhPfvyePUIeMDsZT4oILJnVrJe9HqQ0qnwwJWwSSSQlsETNiGvGrfRegOKUO3CyWRld6UP1v9FuTXs0SLPs8ukDHW7wbFZ6BSrZT10MrqmNx4Nu_F590i-AlvU4TP5F7Fc6JCGafAKdBH_mZApndI-WQrd9KfBrdIZDubnsLue-7XYzKV3a77UfeiqPnlEBrtpeJ1nqt1mxwtAFY2gdjulfu5tNSzEUVE6CL-GWjw3rO5zB-il_QjuzRZLVFOKXg-ahle1zG5MotTw_eF]--></g></svg>