<?xml version="1.0" encoding="us-ascii" standalone="no"?><svg xmlns="http://www.w3.org/2000/svg" xmlns:xlink="http://www.w3.org/1999/xlink" contentStyleType="text/css" height="915px" preserveAspectRatio="none" style="width:849px;height:915px;background:#FFFFFF;" version="1.1" viewBox="0 0 849 915" width="849px" zoomAndPan="magnify"><defs/><g><text fill="#000000" font-family="sans-serif" font-size="14" font-weight="bold" lengthAdjust="spacing" textLength="228" x="312.5" y="30.1074">System Sequence Diagram (SSD)</text><rect fill="#FFFFFF" height="690.4219" style="stroke:#181818;stroke-width:1.0;" width="10" x="102" y="133.2422"/><rect fill="#FFFFFF" height="31.291" style="stroke:#181818;stroke-width:1.0;" width="10" x="628" y="156.5332"/><rect fill="#FFFFFF" height="101.873" style="stroke:#181818;stroke-width:1.0;" width="10" x="628" y="219.1152"/><rect fill="#FFFFFF" height="31.291" style="stroke:#181818;stroke-width:1.0;" width="10" x="628" y="400.2012"/><rect fill="#FFFFFF" height="31.291" style="stroke:#181818;stroke-width:1.0;" width="10" x="628" y="462.7832"/><rect fill="#FFFFFF" height="101.873" style="stroke:#181818;stroke-width:1.0;" width="10" x="628" y="525.3652"/><rect fill="none" height="537.2578" style="stroke:#000000;stroke-width:1.5;" width="802" x="10" y="278.4063"/><rect fill="none" height="224.0078" style="stroke:#000000;stroke-width:1.5;" width="782" x="20" y="584.6563"/><rect fill="none" height="98.5039" style="stroke:#000000;stroke-width:1.5;" width="645" x="30" y="703.1602"/><line style="stroke:#181818;stroke-width:0.5;stroke-dasharray:5.0,5.0;" x1="107" x2="107" y1="123.2422" y2="832.6641"/><line style="stroke:#181818;stroke-width:0.5;stroke-dasharray:5.0,5.0;" x1="633" x2="633" y1="123.2422" y2="832.6641"/><text fill="#000000" font-family="sans-serif" font-size="14" lengthAdjust="spacing" textLength="128" x="40" y="119.7285">Production Manager</text><ellipse cx="107" cy="53.1211" fill="#E3E3E3" rx="8" ry="8" style="stroke:#181818;stroke-width:0.5;"/><path d="M107,61.1211 L107,88.1211 M94,69.1211 L120,69.1211 M107,88.1211 L94,103.1211 M107,88.1211 L120,103.1211 " fill="none" style="stroke:#181818;stroke-width:0.5;"/><text fill="#000000" font-family="sans-serif" font-size="14" lengthAdjust="spacing" textLength="128" x="40" y="846.7715">Production Manager</text><ellipse cx="107" cy="858.7852" fill="#E3E3E3" rx="8" ry="8" style="stroke:#181818;stroke-width:0.5;"/><path d="M107,866.7852 L107,893.7852 M94,874.7852 L120,874.7852 M107,893.7852 L94,908.7852 M107,893.7852 L120,908.7852 " fill="none" style="stroke:#181818;stroke-width:0.5;"/><rect fill="#E3E3E3" height="32.6211" rx="2.5" ry="2.5" style="stroke:#181818;stroke-width:0.5;" width="64" x="601" y="89.6211"/><text fill="#000000" font-family="sans-serif" font-size="14" lengthAdjust="spacing" textLength="50" x="608" y="111.7285">:System</text><rect fill="#E3E3E3" height="32.6211" rx="2.5" ry="2.5" style="stroke:#181818;stroke-width:0.5;" width="64" x="601" y="831.6641"/><text fill="#000000" font-family="sans-serif" font-size="14" lengthAdjust="spacing" textLength="50" x="608" y="853.7715">:System</text><rect fill="#FFFFFF" height="690.4219" style="stroke:#181818;stroke-width:1.0;" width="10" x="102" y="133.2422"/><rect fill="#FFFFFF" height="31.291" style="stroke:#181818;stroke-width:1.0;" width="10" x="628" y="156.5332"/><rect fill="#FFFFFF" height="101.873" style="stroke:#181818;stroke-width:1.0;" width="10" x="628" y="219.1152"/><rect fill="#FFFFFF" height="31.291" style="stroke:#181818;stroke-width:1.0;" width="10" x="628" y="400.2012"/><rect fill="#FFFFFF" height="31.291" style="stroke:#181818;stroke-width:1.0;" width="10" x="628" y="462.7832"/><rect fill="#FFFFFF" height="101.873" style="stroke:#181818;stroke-width:1.0;" width="10" x="628" y="525.3652"/><polygon fill="#181818" points="616,152.5332,626,156.5332,616,160.5332,620,156.5332" style="stroke:#181818;stroke-width:1.0;"/><line style="stroke:#181818;stroke-width:1.0;" x1="112" x2="622" y1="156.5332" y2="156.5332"/><text fill="#000000" font-family="sans-serif" font-size="13" font-weight="bold" lengthAdjust="spacing" textLength="7" x="119" y="151.2705">1</text><text fill="#000000" font-family="sans-serif" font-size="13" lengthAdjust="spacing" textLength="198" x="130" y="151.2705">asks to register a new supply offer</text><polygon fill="#181818" points="123,183.8242,113,187.8242,123,191.8242,119,187.8242" style="stroke:#181818;stroke-width:1.0;"/><line style="stroke:#181818;stroke-width:1.0;stroke-dasharray:2.0,2.0;" x1="117" x2="632" y1="187.8242" y2="187.8242"/><text fill="#000000" font-family="sans-serif" font-size="13" font-weight="bold" lengthAdjust="spacing" textLength="7" x="129" y="182.5615">2</text><text fill="#000000" font-family="sans-serif" font-size="13" lengthAdjust="spacing" textLength="292" x="140" y="182.5615">shows the list of suppliers and requests supplier id</text><polygon fill="#181818" points="616,215.1152,626,219.1152,616,223.1152,620,219.1152" style="stroke:#181818;stroke-width:1.0;"/><line style="stroke:#181818;stroke-width:1.0;" x1="112" x2="622" y1="219.1152" y2="219.1152"/><text fill="#000000" font-family="sans-serif" font-size="13" font-weight="bold" lengthAdjust="spacing" textLength="7" x="119" y="213.8525">3</text><text fill="#000000" font-family="sans-serif" font-size="13" lengthAdjust="spacing" textLength="122" x="130" y="213.8525">provides requested id</text><line style="stroke:#181818;stroke-width:1.0;" x1="638" x2="680" y1="250.4063" y2="250.4063"/><line style="stroke:#181818;stroke-width:1.0;" x1="680" x2="680" y1="250.4063" y2="263.4063"/><line style="stroke:#181818;stroke-width:1.0;" x1="639" x2="680" y1="263.4063" y2="263.4063"/><polygon fill="#181818" points="649,259.4063,639,263.4063,649,267.4063,645,263.4063" style="stroke:#181818;stroke-width:1.0;"/><text fill="#000000" font-family="sans-serif" font-size="13" font-weight="bold" lengthAdjust="spacing" textLength="7" x="645" y="245.1436">4</text><text fill="#000000" font-family="sans-serif" font-size="13" lengthAdjust="spacing" textLength="186" x="656" y="245.1436">checks if supplier already exists</text><path d="M10,278.4063 L71,278.4063 L71,287.6973 L61,297.6973 L10,297.6973 L10,278.4063 " fill="#EEEEEE" style="stroke:#000000;stroke-width:1.5;"/><rect fill="none" height="537.2578" style="stroke:#000000;stroke-width:1.5;" width="802" x="10" y="278.4063"/><text fill="#000000" font-family="sans-serif" font-size="13" font-weight="bold" lengthAdjust="spacing" textLength="16" x="25" y="293.4346">alt</text><text fill="#000000" font-family="sans-serif" font-size="11" font-weight="bold" lengthAdjust="spacing" textLength="136" x="86" y="292.2764">[supplier does not exist]</text><polygon fill="#181818" points="123,316.9883,113,320.9883,123,324.9883,119,320.9883" style="stroke:#181818;stroke-width:1.0;"/><line style="stroke:#181818;stroke-width:1.0;stroke-dasharray:2.0,2.0;" x1="117" x2="632" y1="320.9883" y2="320.9883"/><text fill="#000000" font-family="sans-serif" font-size="13" font-weight="bold" lengthAdjust="spacing" textLength="7" x="129" y="315.7256">5</text><text fill="#000000" font-family="sans-serif" font-size="13" lengthAdjust="spacing" textLength="269" x="140" y="315.7256">shows error message (Supplier does not exist)</text><line style="stroke:#000000;stroke-width:1.0;stroke-dasharray:2.0,2.0;" x1="10" x2="812" y1="329.9883" y2="329.9883"/><text fill="#000000" font-family="sans-serif" font-size="11" font-weight="bold" lengthAdjust="spacing" textLength="91" x="15" y="341.8584">[supplier exists]</text><polygon fill="#181818" points="123,364.9102,113,368.9102,123,372.9102,119,368.9102" style="stroke:#181818;stroke-width:1.0;"/><line style="stroke:#181818;stroke-width:1.0;stroke-dasharray:2.0,2.0;" x1="117" x2="632" y1="368.9102" y2="368.9102"/><text fill="#000000" font-family="sans-serif" font-size="13" font-weight="bold" lengthAdjust="spacing" textLength="7" x="129" y="363.6475">6</text><text fill="#000000" font-family="sans-serif" font-size="13" lengthAdjust="spacing" textLength="357" x="140" y="363.6475">shows the supplier's supply offer list and asks for confirmation</text><polygon fill="#181818" points="616,396.2012,626,400.2012,616,404.2012,620,400.2012" style="stroke:#181818;stroke-width:1.0;"/><line style="stroke:#181818;stroke-width:1.0;" x1="112" x2="622" y1="400.2012" y2="400.2012"/><text fill="#000000" font-family="sans-serif" font-size="13" font-weight="bold" lengthAdjust="spacing" textLength="7" x="119" y="394.9385">7</text><text fill="#000000" font-family="sans-serif" font-size="13" lengthAdjust="spacing" textLength="301" x="130" y="394.9385">confirms that he wants to register a new supply offer</text><polygon fill="#181818" points="123,427.4922,113,431.4922,123,435.4922,119,431.4922" style="stroke:#181818;stroke-width:1.0;"/><line style="stroke:#181818;stroke-width:1.0;stroke-dasharray:2.0,2.0;" x1="117" x2="632" y1="431.4922" y2="431.4922"/><text fill="#000000" font-family="sans-serif" font-size="13" font-weight="bold" lengthAdjust="spacing" textLength="7" x="129" y="426.2295">8</text><text fill="#000000" font-family="sans-serif" font-size="13" lengthAdjust="spacing" textLength="339" x="140" y="426.2295">requests data (i.e. Start Date, End Date, Delivery Address)</text><polygon fill="#181818" points="616,458.7832,626,462.7832,616,466.7832,620,462.7832" style="stroke:#181818;stroke-width:1.0;"/><line style="stroke:#181818;stroke-width:1.0;" x1="112" x2="622" y1="462.7832" y2="462.7832"/><text fill="#000000" font-family="sans-serif" font-size="13" font-weight="bold" lengthAdjust="spacing" textLength="7" x="119" y="457.5205">9</text><text fill="#000000" font-family="sans-serif" font-size="13" lengthAdjust="spacing" textLength="122" x="130" y="457.5205">types requested data</text><polygon fill="#181818" points="123,490.0742,113,494.0742,123,498.0742,119,494.0742" style="stroke:#181818;stroke-width:1.0;"/><line style="stroke:#181818;stroke-width:1.0;stroke-dasharray:2.0,2.0;" x1="117" x2="632" y1="494.0742" y2="494.0742"/><text fill="#000000" font-family="sans-serif" font-size="13" font-weight="bold" lengthAdjust="spacing" textLength="14" x="129" y="488.8115">10</text><text fill="#000000" font-family="sans-serif" font-size="13" lengthAdjust="spacing" textLength="474" x="147" y="488.8115">shows the list of raw materials and requests raw material ids, quantities and costs</text><polygon fill="#181818" points="616,521.3652,626,525.3652,616,529.3652,620,525.3652" style="stroke:#181818;stroke-width:1.0;"/><line style="stroke:#181818;stroke-width:1.0;" x1="112" x2="622" y1="525.3652" y2="525.3652"/><text fill="#000000" font-family="sans-serif" font-size="13" font-weight="bold" lengthAdjust="spacing" textLength="14" x="119" y="520.1025">11</text><text fill="#000000" font-family="sans-serif" font-size="13" lengthAdjust="spacing" textLength="267" x="137" y="520.1025">provides raw material ids, quantities and costs</text><line style="stroke:#181818;stroke-width:1.0;" x1="638" x2="680" y1="556.6563" y2="556.6563"/><line style="stroke:#181818;stroke-width:1.0;" x1="680" x2="680" y1="556.6563" y2="569.6563"/><line style="stroke:#181818;stroke-width:1.0;" x1="639" x2="680" y1="569.6563" y2="569.6563"/><polygon fill="#181818" points="649,565.6563,639,569.6563,649,573.6563,645,569.6563" style="stroke:#181818;stroke-width:1.0;"/><text fill="#000000" font-family="sans-serif" font-size="13" font-weight="bold" lengthAdjust="spacing" textLength="14" x="645" y="551.3936">12</text><text fill="#000000" font-family="sans-serif" font-size="13" lengthAdjust="spacing" textLength="101" x="663" y="551.3936">validates the data</text><path d="M20,584.6563 L81,584.6563 L81,593.9473 L71,603.9473 L20,603.9473 L20,584.6563 " fill="#EEEEEE" style="stroke:#000000;stroke-width:1.5;"/><rect fill="none" height="224.0078" style="stroke:#000000;stroke-width:1.5;" width="782" x="20" y="584.6563"/><text fill="#000000" font-family="sans-serif" font-size="13" font-weight="bold" lengthAdjust="spacing" textLength="16" x="35" y="599.6846">alt</text><text fill="#000000" font-family="sans-serif" font-size="11" font-weight="bold" lengthAdjust="spacing" textLength="69" x="96" y="598.5264">[invalid data]</text><polygon fill="#181818" points="123,623.2383,113,627.2383,123,631.2383,119,627.2383" style="stroke:#181818;stroke-width:1.0;"/><line style="stroke:#181818;stroke-width:1.0;stroke-dasharray:2.0,2.0;" x1="117" x2="632" y1="627.2383" y2="627.2383"/><text fill="#000000" font-family="sans-serif" font-size="13" font-weight="bold" lengthAdjust="spacing" textLength="14" x="129" y="621.9756">13</text><text fill="#000000" font-family="sans-serif" font-size="13" lengthAdjust="spacing" textLength="200" x="147" y="621.9756">shows error message (Invalid data)</text><line style="stroke:#000000;stroke-width:1.0;stroke-dasharray:2.0,2.0;" x1="20" x2="802" y1="636.2383" y2="636.2383"/><text fill="#000000" font-family="sans-serif" font-size="11" font-weight="bold" lengthAdjust="spacing" textLength="59" x="25" y="648.1084">[valid data]</text><line style="stroke:#181818;stroke-width:1.0;" x1="633" x2="675" y1="675.1602" y2="675.1602"/><line style="stroke:#181818;stroke-width:1.0;" x1="675" x2="675" y1="675.1602" y2="688.1602"/><line style="stroke:#181818;stroke-width:1.0;" x1="634" x2="675" y1="688.1602" y2="688.1602"/><polygon fill="#181818" points="644,684.1602,634,688.1602,644,692.1602,640,688.1602" style="stroke:#181818;stroke-width:1.0;"/><text fill="#000000" font-family="sans-serif" font-size="13" font-weight="bold" lengthAdjust="spacing" textLength="14" x="640" y="669.8975">14</text><text fill="#000000" font-family="sans-serif" font-size="13" lengthAdjust="spacing" textLength="132" x="658" y="669.8975">saves supply offer data</text><path d="M30,703.1602 L91,703.1602 L91,712.4512 L81,722.4512 L30,722.4512 L30,703.1602 " fill="#EEEEEE" style="stroke:#000000;stroke-width:1.5;"/><rect fill="none" height="98.5039" style="stroke:#000000;stroke-width:1.5;" width="645" x="30" y="703.1602"/><text fill="#000000" font-family="sans-serif" font-size="13" font-weight="bold" lengthAdjust="spacing" textLength="16" x="45" y="718.1885">alt</text><text fill="#000000" font-family="sans-serif" font-size="11" font-weight="bold" lengthAdjust="spacing" textLength="82" x="106" y="717.0303">[system error]</text><polygon fill="#181818" points="123,741.7422,113,745.7422,123,749.7422,119,745.7422" style="stroke:#181818;stroke-width:1.0;"/><line style="stroke:#181818;stroke-width:1.0;stroke-dasharray:2.0,2.0;" x1="117" x2="632" y1="745.7422" y2="745.7422"/><text fill="#000000" font-family="sans-serif" font-size="13" font-weight="bold" lengthAdjust="spacing" textLength="14" x="129" y="740.4795">15</text><text fill="#000000" font-family="sans-serif" font-size="13" lengthAdjust="spacing" textLength="221" x="147" y="740.4795">shows error message (Database error)</text><line style="stroke:#000000;stroke-width:1.0;stroke-dasharray:2.0,2.0;" x1="30" x2="675" y1="754.7422" y2="754.7422"/><text fill="#000000" font-family="sans-serif" font-size="11" font-weight="bold" lengthAdjust="spacing" textLength="55" x="35" y="766.6123">[success]</text><polygon fill="#181818" points="123,789.6641,113,793.6641,123,797.6641,119,793.6641" style="stroke:#181818;stroke-width:1.0;"/><line style="stroke:#181818;stroke-width:1.0;stroke-dasharray:2.0,2.0;" x1="117" x2="632" y1="793.6641" y2="793.6641"/><text fill="#000000" font-family="sans-serif" font-size="13" font-weight="bold" lengthAdjust="spacing" textLength="14" x="129" y="788.4014">16</text><text fill="#000000" font-family="sans-serif" font-size="13" lengthAdjust="spacing" textLength="270" x="147" y="788.4014">shows all data and displays operation success</text><!--SRC=[hLJBRkCm3BpxAuXSjW7QVa0E1HR87lOG882_W9NeX8WikHAThF- -j1qxZoPT1xi-AT9mE2I7IJls5KOieGm-c6qC9O74ch8qlbHeThYXN1f74Ca8-eqx1wGjsd1Wlu42NQ8i4nQ5vaqIAY6dZvgy8LWoRbhuKvulvrc6jGHVb-yKzMmaH9YjOx2r4GuULkWrPvm19bYlCaqaRBX2Bp1RzCpTMt_i67YFGYqu0_tMAtXv6pGi5BfB847rRrYl8Y1uEa2ggyer48f2PRHX8yz03CVloFIYf4gzqAB3GHct14u9bQ7dOee9q5jDf6KdIUCriEt8BDtCSQMtYc7FbjB0GtQ8lnazg3jZC5ioMZEVX06wI6WRe3ygEOsbePCJnWPDweFqe17pVHieHfrVIIdfq7J0jydc5snV-p2ya9he9EWeTi8WXf0VwMAk_O3QcNGcA5If2RxWM69hjGU6SWnhiw60PZoe7_-lhKRRM1I49twbLyX5tGzB3N-6Nrf6VrgIupt51dvQ6xNpymSAaQQwi5QRx5_j7_40sb6Ah7y2bojm_gGsJi_mKMldM9Xwf0c37n_TZkdCVotjZ7-FZhKdr5SuTcTO5lOTuF9XydRyFej-Q2Nk9BrJGy8zNIt2pT1k-_kWJkWNmEJ2r9VuZYgqkv_V9BfVujNs6wEq3sX1v_gTQQTkELKEcmIXejXj-RUC4qHvcztxhUTF]--></g></svg>