<?xml version="1.0" encoding="us-ascii" standalone="no"?><svg xmlns="http://www.w3.org/2000/svg" xmlns:xlink="http://www.w3.org/1999/xlink" contentStyleType="text/css" height="585px" preserveAspectRatio="none" style="width:750px;height:585px;background:#FFFFFF;" version="1.1" viewBox="0 0 750 585" width="750px" zoomAndPan="magnify"><defs/><g><text fill="#000000" font-family="sans-serif" font-size="14" font-weight="bold" lengthAdjust="spacing" textLength="228" x="260.5" y="30.1074">System Sequence Diagram (SSD)</text><rect fill="#FFFFFF" height="360.541" style="stroke:#181818;stroke-width:1.0;" width="10" x="82" y="133.2422"/><rect fill="#FFFFFF" height="31.291" style="stroke:#181818;stroke-width:1.0;" width="10" x="449" y="156.5332"/><rect fill="#FFFFFF" height="101.873" style="stroke:#181818;stroke-width:1.0;" width="10" x="449" y="219.1152"/><rect fill="none" height="50.582" style="stroke:#000000;stroke-width:1.5;" width="486" x="10" y="278.4063"/><rect fill="none" height="98.5039" style="stroke:#000000;stroke-width:1.5;" width="486" x="10" y="387.2793"/><line style="stroke:#181818;stroke-width:0.5;stroke-dasharray:5.0,5.0;" x1="87" x2="87" y1="123.2422" y2="502.7832"/><line style="stroke:#181818;stroke-width:0.5;stroke-dasharray:5.0,5.0;" x1="454" x2="454" y1="123.2422" y2="502.7832"/><text fill="#000000" font-family="sans-serif" font-size="14" lengthAdjust="spacing" textLength="128" x="20" y="119.7285">Production Manager</text><ellipse cx="87" cy="53.1211" fill="#E3E3E3" rx="8" ry="8" style="stroke:#181818;stroke-width:0.5;"/><path d="M87,61.1211 L87,88.1211 M74,69.1211 L100,69.1211 M87,88.1211 L74,103.1211 M87,88.1211 L100,103.1211 " fill="none" style="stroke:#181818;stroke-width:0.5;"/><text fill="#000000" font-family="sans-serif" font-size="14" lengthAdjust="spacing" textLength="128" x="20" y="516.8906">Production Manager</text><ellipse cx="87" cy="528.9043" fill="#E3E3E3" rx="8" ry="8" style="stroke:#181818;stroke-width:0.5;"/><path d="M87,536.9043 L87,563.9043 M74,544.9043 L100,544.9043 M87,563.9043 L74,578.9043 M87,563.9043 L100,578.9043 " fill="none" style="stroke:#181818;stroke-width:0.5;"/><rect fill="#E3E3E3" height="32.6211" rx="2.5" ry="2.5" style="stroke:#181818;stroke-width:0.5;" width="64" x="422" y="89.6211"/><text fill="#000000" font-family="sans-serif" font-size="14" lengthAdjust="spacing" textLength="50" x="429" y="111.7285">:System</text><rect fill="#E3E3E3" height="32.6211" rx="2.5" ry="2.5" style="stroke:#181818;stroke-width:0.5;" width="64" x="422" y="501.7832"/><text fill="#000000" font-family="sans-serif" font-size="14" lengthAdjust="spacing" textLength="50" x="429" y="523.8906">:System</text><rect fill="#FFFFFF" height="360.541" style="stroke:#181818;stroke-width:1.0;" width="10" x="82" y="133.2422"/><rect fill="#FFFFFF" height="31.291" style="stroke:#181818;stroke-width:1.0;" width="10" x="449" y="156.5332"/><rect fill="#FFFFFF" height="101.873" style="stroke:#181818;stroke-width:1.0;" width="10" x="449" y="219.1152"/><polygon fill="#181818" points="437,152.5332,447,156.5332,437,160.5332,441,156.5332" style="stroke:#181818;stroke-width:1.0;"/><line style="stroke:#181818;stroke-width:1.0;" x1="92" x2="443" y1="156.5332" y2="156.5332"/><text fill="#000000" font-family="sans-serif" font-size="13" font-weight="bold" lengthAdjust="spacing" textLength="7" x="99" y="151.2705">1</text><text fill="#000000" font-family="sans-serif" font-size="13" lengthAdjust="spacing" textLength="194" x="110" y="151.2705">asks to check stock for a product</text><polygon fill="#181818" points="103,183.8242,93,187.8242,103,191.8242,99,187.8242" style="stroke:#181818;stroke-width:1.0;"/><line style="stroke:#181818;stroke-width:1.0;stroke-dasharray:2.0,2.0;" x1="97" x2="453" y1="187.8242" y2="187.8242"/><text fill="#000000" font-family="sans-serif" font-size="13" font-weight="bold" lengthAdjust="spacing" textLength="7" x="109" y="182.5615">2</text><text fill="#000000" font-family="sans-serif" font-size="13" lengthAdjust="spacing" textLength="322" x="120" y="182.5615">show list of products and requests data (i.e. Product ID)</text><polygon fill="#181818" points="437,215.1152,447,219.1152,437,223.1152,441,219.1152" style="stroke:#181818;stroke-width:1.0;"/><line style="stroke:#181818;stroke-width:1.0;" x1="92" x2="443" y1="219.1152" y2="219.1152"/><text fill="#000000" font-family="sans-serif" font-size="13" font-weight="bold" lengthAdjust="spacing" textLength="7" x="99" y="213.8525">3</text><text fill="#000000" font-family="sans-serif" font-size="13" lengthAdjust="spacing" textLength="195" x="110" y="213.8525">types requested data (Product ID)</text><line style="stroke:#181818;stroke-width:1.0;" x1="459" x2="501" y1="250.4063" y2="250.4063"/><line style="stroke:#181818;stroke-width:1.0;" x1="501" x2="501" y1="250.4063" y2="263.4063"/><line style="stroke:#181818;stroke-width:1.0;" x1="460" x2="501" y1="263.4063" y2="263.4063"/><polygon fill="#181818" points="470,259.4063,460,263.4063,470,267.4063,466,263.4063" style="stroke:#181818;stroke-width:1.0;"/><text fill="#000000" font-family="sans-serif" font-size="13" font-weight="bold" lengthAdjust="spacing" textLength="7" x="466" y="245.1436">4</text><text fill="#000000" font-family="sans-serif" font-size="13" lengthAdjust="spacing" textLength="138" x="477" y="245.1436">checks if product exists</text><path d="M10,278.4063 L71,278.4063 L71,287.6973 L61,297.6973 L10,297.6973 L10,278.4063 " fill="#EEEEEE" style="stroke:#000000;stroke-width:1.5;"/><rect fill="none" height="50.582" style="stroke:#000000;stroke-width:1.5;" width="486" x="10" y="278.4063"/><text fill="#000000" font-family="sans-serif" font-size="13" font-weight="bold" lengthAdjust="spacing" textLength="16" x="25" y="293.4346">alt</text><text fill="#000000" font-family="sans-serif" font-size="11" font-weight="bold" lengthAdjust="spacing" textLength="133" x="86" y="292.2764">[product does not exist]</text><polygon fill="#181818" points="103,316.9883,93,320.9883,103,324.9883,99,320.9883" style="stroke:#181818;stroke-width:1.0;"/><line style="stroke:#181818;stroke-width:1.0;stroke-dasharray:2.0,2.0;" x1="97" x2="453" y1="320.9883" y2="320.9883"/><text fill="#000000" font-family="sans-serif" font-size="13" font-weight="bold" lengthAdjust="spacing" textLength="7" x="109" y="315.7256">5</text><text fill="#000000" font-family="sans-serif" font-size="13" lengthAdjust="spacing" textLength="267" x="120" y="315.7256">shows error message (Product does not exist)</text><line style="stroke:#181818;stroke-width:1.0;" x1="454" x2="496" y1="359.2793" y2="359.2793"/><line style="stroke:#181818;stroke-width:1.0;" x1="496" x2="496" y1="359.2793" y2="372.2793"/><line style="stroke:#181818;stroke-width:1.0;" x1="455" x2="496" y1="372.2793" y2="372.2793"/><polygon fill="#181818" points="465,368.2793,455,372.2793,465,376.2793,461,372.2793" style="stroke:#181818;stroke-width:1.0;"/><text fill="#000000" font-family="sans-serif" font-size="13" font-weight="bold" lengthAdjust="spacing" textLength="7" x="461" y="354.0166">6</text><text fill="#000000" font-family="sans-serif" font-size="13" lengthAdjust="spacing" textLength="271" x="472" y="354.0166">get production tree and check stock availability</text><path d="M10,387.2793 L71,387.2793 L71,396.5703 L61,406.5703 L10,406.5703 L10,387.2793 " fill="#EEEEEE" style="stroke:#000000;stroke-width:1.5;"/><rect fill="none" height="98.5039" style="stroke:#000000;stroke-width:1.5;" width="486" x="10" y="387.2793"/><text fill="#000000" font-family="sans-serif" font-size="13" font-weight="bold" lengthAdjust="spacing" textLength="16" x="25" y="402.3076">alt</text><text fill="#000000" font-family="sans-serif" font-size="11" font-weight="bold" lengthAdjust="spacing" textLength="104" x="86" y="401.1494">[insufficient stock]</text><polygon fill="#181818" points="103,425.8613,93,429.8613,103,433.8613,99,429.8613" style="stroke:#181818;stroke-width:1.0;"/><line style="stroke:#181818;stroke-width:1.0;stroke-dasharray:2.0,2.0;" x1="97" x2="453" y1="429.8613" y2="429.8613"/><text fill="#000000" font-family="sans-serif" font-size="13" font-weight="bold" lengthAdjust="spacing" textLength="7" x="109" y="424.5986">7</text><text fill="#000000" font-family="sans-serif" font-size="13" lengthAdjust="spacing" textLength="196" x="120" y="424.5986">insufficient stock for raw materials</text><line style="stroke:#000000;stroke-width:1.0;stroke-dasharray:2.0,2.0;" x1="10" x2="496" y1="438.8613" y2="438.8613"/><text fill="#000000" font-family="sans-serif" font-size="11" font-weight="bold" lengthAdjust="spacing" textLength="94" x="15" y="450.7314">[sufficient stock]</text><polygon fill="#181818" points="103,473.7832,93,477.7832,103,481.7832,99,477.7832" style="stroke:#181818;stroke-width:1.0;"/><line style="stroke:#181818;stroke-width:1.0;stroke-dasharray:2.0,2.0;" x1="97" x2="453" y1="477.7832" y2="477.7832"/><text fill="#000000" font-family="sans-serif" font-size="13" font-weight="bold" lengthAdjust="spacing" textLength="7" x="109" y="472.5205">8</text><text fill="#000000" font-family="sans-serif" font-size="13" lengthAdjust="spacing" textLength="140" x="120" y="472.5205">confirms sufficient stock</text><!--SRC=[bPFFReCm3CRlF8NLKtje7w27dNhPeL8bdi0DXbf0mcBJhcy_Gu7rppQq752GxP-_pqcaPDzWn1hgu8CxnL0JQ6mfaIdIe2kne5Il5K4af-YBwZv1JfY52_i2Sgo4aaHPBJMzYb8DANsqv1t1Zh7eqfTfkbib2ROQV5iVAThUQOYmECIGjKuvUDYZjvvn0IXms2VMIDbnWrvXiRsH-zXjsnFuZ4fTSWAs3djOluqQjfPQ2cW0To9NWcYmRsuz4PfRqxveeenO6DR0MHlIm5kp72vGiIY4V2G8eCziG6PNx2T3HLZoXZOm-89tyztHClgnqPDalJOa8u-o0VZCcfLyH-pD2_0a6UZJFCXKqmChdS9PC0K-37aFQRzDHO1YjC7M968d-2tuaRLwWBqEv3vAFllJLa6JukxgQ2JgZ-B-hF6CNE6HAzPhykANlRHvRXUCx7xr1RDUNqlw-nJn0hNvY6nFuGKouzCU3_nRY0i-vrZBVENybBy0]--></g></svg>