<?xml version="1.0" encoding="us-ascii" standalone="no"?><svg xmlns="http://www.w3.org/2000/svg" xmlns:xlink="http://www.w3.org/1999/xlink" contentStyleType="text/css" height="932px" preserveAspectRatio="none" style="width:758px;height:932px;background:#FFFFFF;" version="1.1" viewBox="0 0 758 932" width="758px" zoomAndPan="magnify"><defs/><g><text fill="#000000" font-family="sans-serif" font-size="14" font-weight="bold" lengthAdjust="spacing" textLength="228" x="266.25" y="30.1074">System Sequence Diagram (SSD)</text><rect fill="#FFFFFF" height="707.082" style="stroke:#181818;stroke-width:1.0;" width="10" x="92.5" y="133.2422"/><rect fill="#FFFFFF" height="31.291" style="stroke:#181818;stroke-width:1.0;" width="10" x="468.5" y="156.5332"/><rect fill="#FFFFFF" height="57.582" style="stroke:#181818;stroke-width:1.0;" width="10" x="468.5" y="219.1152"/><rect fill="#FFFFFF" height="101.873" style="stroke:#181818;stroke-width:1.0;" width="10" x="468.5" y="307.9883"/><rect fill="#FFFFFF" height="101.873" style="stroke:#181818;stroke-width:1.0;" width="10" x="468.5" y="496.0742"/><rect fill="#FFFFFF" height="101.873" style="stroke:#181818;stroke-width:1.0;" width="10" x="468.5" y="674.5293"/><rect fill="none" height="378.832" style="stroke:#000000;stroke-width:1.5;" width="741.5" x="10" y="234.1152"/><rect fill="none" height="50.582" style="stroke:#000000;stroke-width:1.5;" width="495.5" x="20" y="367.2793"/><rect fill="none" height="50.582" style="stroke:#000000;stroke-width:1.5;" width="495.5" x="20" y="555.3652"/><rect fill="none" height="98.5039" style="stroke:#000000;stroke-width:1.5;" width="495.5" x="20" y="733.8203"/><line style="stroke:#181818;stroke-width:0.5;stroke-dasharray:5.0,5.0;" x1="97" x2="97" y1="123.2422" y2="849.3242"/><line style="stroke:#181818;stroke-width:0.5;stroke-dasharray:5.0,5.0;" x1="473.5" x2="473.5" y1="123.2422" y2="849.3242"/><text fill="#000000" font-family="sans-serif" font-size="14" lengthAdjust="spacing" textLength="129" x="30" y="119.7285">Plant Floor Manager</text><ellipse cx="97.5" cy="53.1211" fill="#E3E3E3" rx="8" ry="8" style="stroke:#181818;stroke-width:0.5;"/><path d="M97.5,61.1211 L97.5,88.1211 M84.5,69.1211 L110.5,69.1211 M97.5,88.1211 L84.5,103.1211 M97.5,88.1211 L110.5,103.1211 " fill="none" style="stroke:#181818;stroke-width:0.5;"/><text fill="#000000" font-family="sans-serif" font-size="14" lengthAdjust="spacing" textLength="129" x="30" y="863.4316">Plant Floor Manager</text><ellipse cx="97.5" cy="875.4453" fill="#E3E3E3" rx="8" ry="8" style="stroke:#181818;stroke-width:0.5;"/><path d="M97.5,883.4453 L97.5,910.4453 M84.5,891.4453 L110.5,891.4453 M97.5,910.4453 L84.5,925.4453 M97.5,910.4453 L110.5,925.4453 " fill="none" style="stroke:#181818;stroke-width:0.5;"/><rect fill="#E3E3E3" height="32.6211" rx="2.5" ry="2.5" style="stroke:#181818;stroke-width:0.5;" width="64" x="441.5" y="89.6211"/><text fill="#000000" font-family="sans-serif" font-size="14" lengthAdjust="spacing" textLength="50" x="448.5" y="111.7285">:System</text><rect fill="#E3E3E3" height="32.6211" rx="2.5" ry="2.5" style="stroke:#181818;stroke-width:0.5;" width="64" x="441.5" y="848.3242"/><text fill="#000000" font-family="sans-serif" font-size="14" lengthAdjust="spacing" textLength="50" x="448.5" y="870.4316">:System</text><rect fill="#FFFFFF" height="707.082" style="stroke:#181818;stroke-width:1.0;" width="10" x="92.5" y="133.2422"/><rect fill="#FFFFFF" height="31.291" style="stroke:#181818;stroke-width:1.0;" width="10" x="468.5" y="156.5332"/><rect fill="#FFFFFF" height="57.582" style="stroke:#181818;stroke-width:1.0;" width="10" x="468.5" y="219.1152"/><rect fill="#FFFFFF" height="101.873" style="stroke:#181818;stroke-width:1.0;" width="10" x="468.5" y="307.9883"/><rect fill="#FFFFFF" height="101.873" style="stroke:#181818;stroke-width:1.0;" width="10" x="468.5" y="496.0742"/><rect fill="#FFFFFF" height="101.873" style="stroke:#181818;stroke-width:1.0;" width="10" x="468.5" y="674.5293"/><polygon fill="#181818" points="456.5,152.5332,466.5,156.5332,456.5,160.5332,460.5,156.5332" style="stroke:#181818;stroke-width:1.0;"/><line style="stroke:#181818;stroke-width:1.0;" x1="102.5" x2="462.5" y1="156.5332" y2="156.5332"/><text fill="#000000" font-family="sans-serif" font-size="13" font-weight="bold" lengthAdjust="spacing" textLength="7" x="109.5" y="151.2705">1</text><text fill="#000000" font-family="sans-serif" font-size="13" lengthAdjust="spacing" textLength="198" x="120.5" y="151.2705">asks to register a new workstation</text><polygon fill="#181818" points="113.5,183.8242,103.5,187.8242,113.5,191.8242,109.5,187.8242" style="stroke:#181818;stroke-width:1.0;"/><line style="stroke:#181818;stroke-width:1.0;stroke-dasharray:2.0,2.0;" x1="107.5" x2="472.5" y1="187.8242" y2="187.8242"/><text fill="#000000" font-family="sans-serif" font-size="13" font-weight="bold" lengthAdjust="spacing" textLength="7" x="119.5" y="182.5615">2</text><text fill="#000000" font-family="sans-serif" font-size="13" lengthAdjust="spacing" textLength="200" x="130.5" y="182.5615">shows the list of workstation types</text><polygon fill="#181818" points="456.5,215.1152,466.5,219.1152,456.5,223.1152,460.5,219.1152" style="stroke:#181818;stroke-width:1.0;"/><line style="stroke:#181818;stroke-width:1.0;" x1="102.5" x2="462.5" y1="219.1152" y2="219.1152"/><text fill="#000000" font-family="sans-serif" font-size="13" font-weight="bold" lengthAdjust="spacing" textLength="7" x="109.5" y="213.8525">3</text><text fill="#000000" font-family="sans-serif" font-size="13" lengthAdjust="spacing" textLength="282" x="120.5" y="213.8525">selects an option (new/existing workstation type)</text><path d="M10,234.1152 L71,234.1152 L71,243.4063 L61,253.4063 L10,253.4063 L10,234.1152 " fill="#EEEEEE" style="stroke:#000000;stroke-width:1.5;"/><rect fill="none" height="378.832" style="stroke:#000000;stroke-width:1.5;" width="741.5" x="10" y="234.1152"/><text fill="#000000" font-family="sans-serif" font-size="13" font-weight="bold" lengthAdjust="spacing" textLength="16" x="25" y="249.1436">alt</text><text fill="#000000" font-family="sans-serif" font-size="11" font-weight="bold" lengthAdjust="spacing" textLength="129" x="86" y="247.9854">[new workstation type]</text><polygon fill="#181818" points="113.5,272.6973,103.5,276.6973,113.5,280.6973,109.5,276.6973" style="stroke:#181818;stroke-width:1.0;"/><line style="stroke:#181818;stroke-width:1.0;stroke-dasharray:2.0,2.0;" x1="107.5" x2="472.5" y1="276.6973" y2="276.6973"/><text fill="#000000" font-family="sans-serif" font-size="13" font-weight="bold" lengthAdjust="spacing" textLength="7" x="119.5" y="271.4346">4</text><text fill="#000000" font-family="sans-serif" font-size="13" lengthAdjust="spacing" textLength="185" x="130.5" y="271.4346">requests workstation type name</text><polygon fill="#181818" points="456.5,303.9883,466.5,307.9883,456.5,311.9883,460.5,307.9883" style="stroke:#181818;stroke-width:1.0;"/><line style="stroke:#181818;stroke-width:1.0;" x1="102.5" x2="462.5" y1="307.9883" y2="307.9883"/><text fill="#000000" font-family="sans-serif" font-size="13" font-weight="bold" lengthAdjust="spacing" textLength="7" x="109.5" y="302.7256">5</text><text fill="#000000" font-family="sans-serif" font-size="13" lengthAdjust="spacing" textLength="129" x="120.5" y="302.7256">types requested name</text><line style="stroke:#181818;stroke-width:1.0;" x1="478.5" x2="520.5" y1="339.2793" y2="339.2793"/><line style="stroke:#181818;stroke-width:1.0;" x1="520.5" x2="520.5" y1="339.2793" y2="352.2793"/><line style="stroke:#181818;stroke-width:1.0;" x1="479.5" x2="520.5" y1="352.2793" y2="352.2793"/><polygon fill="#181818" points="489.5,348.2793,479.5,352.2793,489.5,356.2793,485.5,352.2793" style="stroke:#181818;stroke-width:1.0;"/><text fill="#000000" font-family="sans-serif" font-size="13" font-weight="bold" lengthAdjust="spacing" textLength="7" x="485.5" y="334.0166">6</text><text fill="#000000" font-family="sans-serif" font-size="13" lengthAdjust="spacing" textLength="132" x="496.5" y="334.0166">saves workstation type</text><path d="M20,367.2793 L81,367.2793 L81,376.5703 L71,386.5703 L20,386.5703 L20,367.2793 " fill="#EEEEEE" style="stroke:#000000;stroke-width:1.5;"/><rect fill="none" height="50.582" style="stroke:#000000;stroke-width:1.5;" width="495.5" x="20" y="367.2793"/><text fill="#000000" font-family="sans-serif" font-size="13" font-weight="bold" lengthAdjust="spacing" textLength="16" x="35" y="382.3076">alt</text><text fill="#000000" font-family="sans-serif" font-size="11" font-weight="bold" lengthAdjust="spacing" textLength="82" x="96" y="381.1494">[system error]</text><polygon fill="#181818" points="113.5,405.8613,103.5,409.8613,113.5,413.8613,109.5,409.8613" style="stroke:#181818;stroke-width:1.0;"/><line style="stroke:#181818;stroke-width:1.0;stroke-dasharray:2.0,2.0;" x1="107.5" x2="472.5" y1="409.8613" y2="409.8613"/><text fill="#000000" font-family="sans-serif" font-size="13" font-weight="bold" lengthAdjust="spacing" textLength="7" x="119.5" y="404.5986">7</text><text fill="#000000" font-family="sans-serif" font-size="13" lengthAdjust="spacing" textLength="221" x="130.5" y="404.5986">shows error message (Database error)</text><line style="stroke:#000000;stroke-width:1.0;stroke-dasharray:2.0,2.0;" x1="10" x2="751.5" y1="425.8613" y2="425.8613"/><text fill="#000000" font-family="sans-serif" font-size="11" font-weight="bold" lengthAdjust="spacing" textLength="149" x="15" y="437.7314">[existing workstation type]</text><polygon fill="#181818" points="113.5,460.7832,103.5,464.7832,113.5,468.7832,109.5,464.7832" style="stroke:#181818;stroke-width:1.0;"/><line style="stroke:#181818;stroke-width:1.0;stroke-dasharray:2.0,2.0;" x1="107.5" x2="472.5" y1="464.7832" y2="464.7832"/><text fill="#000000" font-family="sans-serif" font-size="13" font-weight="bold" lengthAdjust="spacing" textLength="7" x="119.5" y="459.5205">8</text><text fill="#000000" font-family="sans-serif" font-size="13" lengthAdjust="spacing" textLength="165" x="130.5" y="459.5205">requests workstation type ID</text><polygon fill="#181818" points="456.5,492.0742,466.5,496.0742,456.5,500.0742,460.5,496.0742" style="stroke:#181818;stroke-width:1.0;"/><line style="stroke:#181818;stroke-width:1.0;" x1="102.5" x2="462.5" y1="496.0742" y2="496.0742"/><text fill="#000000" font-family="sans-serif" font-size="13" font-weight="bold" lengthAdjust="spacing" textLength="7" x="109.5" y="490.8115">9</text><text fill="#000000" font-family="sans-serif" font-size="13" lengthAdjust="spacing" textLength="162" x="120.5" y="490.8115">provides workstation type ID</text><line style="stroke:#181818;stroke-width:1.0;" x1="478.5" x2="520.5" y1="527.3652" y2="527.3652"/><line style="stroke:#181818;stroke-width:1.0;" x1="520.5" x2="520.5" y1="527.3652" y2="540.3652"/><line style="stroke:#181818;stroke-width:1.0;" x1="479.5" x2="520.5" y1="540.3652" y2="540.3652"/><polygon fill="#181818" points="489.5,536.3652,479.5,540.3652,489.5,544.3652,485.5,540.3652" style="stroke:#181818;stroke-width:1.0;"/><text fill="#000000" font-family="sans-serif" font-size="13" font-weight="bold" lengthAdjust="spacing" textLength="14" x="485.5" y="522.1025">10</text><text fill="#000000" font-family="sans-serif" font-size="13" lengthAdjust="spacing" textLength="236" x="503.5" y="522.1025">checks if workstation type already exists</text><path d="M20,555.3652 L81,555.3652 L81,564.6563 L71,574.6563 L20,574.6563 L20,555.3652 " fill="#EEEEEE" style="stroke:#000000;stroke-width:1.5;"/><rect fill="none" height="50.582" style="stroke:#000000;stroke-width:1.5;" width="495.5" x="20" y="555.3652"/><text fill="#000000" font-family="sans-serif" font-size="13" font-weight="bold" lengthAdjust="spacing" textLength="16" x="35" y="570.3936">alt</text><text fill="#000000" font-family="sans-serif" font-size="11" font-weight="bold" lengthAdjust="spacing" textLength="184" x="96" y="569.2354">[workstation type does not exist]</text><polygon fill="#181818" points="113.5,593.9473,103.5,597.9473,113.5,601.9473,109.5,597.9473" style="stroke:#181818;stroke-width:1.0;"/><line style="stroke:#181818;stroke-width:1.0;stroke-dasharray:2.0,2.0;" x1="107.5" x2="472.5" y1="597.9473" y2="597.9473"/><text fill="#000000" font-family="sans-serif" font-size="13" font-weight="bold" lengthAdjust="spacing" textLength="14" x="119.5" y="592.6846">11</text><text fill="#000000" font-family="sans-serif" font-size="13" lengthAdjust="spacing" textLength="324" x="137.5" y="592.6846">shows error message (Workstation Type does not exist)</text><polygon fill="#181818" points="113.5,639.2383,103.5,643.2383,113.5,647.2383,109.5,643.2383" style="stroke:#181818;stroke-width:1.0;"/><line style="stroke:#181818;stroke-width:1.0;stroke-dasharray:2.0,2.0;" x1="107.5" x2="472.5" y1="643.2383" y2="643.2383"/><text fill="#000000" font-family="sans-serif" font-size="13" font-weight="bold" lengthAdjust="spacing" textLength="14" x="119.5" y="637.9756">12</text><text fill="#000000" font-family="sans-serif" font-size="13" lengthAdjust="spacing" textLength="156" x="137.5" y="637.9756">requests workstation name</text><polygon fill="#181818" points="456.5,670.5293,466.5,674.5293,456.5,678.5293,460.5,674.5293" style="stroke:#181818;stroke-width:1.0;"/><line style="stroke:#181818;stroke-width:1.0;" x1="102.5" x2="462.5" y1="674.5293" y2="674.5293"/><text fill="#000000" font-family="sans-serif" font-size="13" font-weight="bold" lengthAdjust="spacing" textLength="14" x="109.5" y="669.2666">13</text><text fill="#000000" font-family="sans-serif" font-size="13" lengthAdjust="spacing" textLength="129" x="127.5" y="669.2666">types requested name</text><line style="stroke:#181818;stroke-width:1.0;" x1="478.5" x2="520.5" y1="705.8203" y2="705.8203"/><line style="stroke:#181818;stroke-width:1.0;" x1="520.5" x2="520.5" y1="705.8203" y2="718.8203"/><line style="stroke:#181818;stroke-width:1.0;" x1="479.5" x2="520.5" y1="718.8203" y2="718.8203"/><polygon fill="#181818" points="489.5,714.8203,479.5,718.8203,489.5,722.8203,485.5,718.8203" style="stroke:#181818;stroke-width:1.0;"/><text fill="#000000" font-family="sans-serif" font-size="13" font-weight="bold" lengthAdjust="spacing" textLength="14" x="485.5" y="700.5576">14</text><text fill="#000000" font-family="sans-serif" font-size="13" lengthAdjust="spacing" textLength="132" x="503.5" y="700.5576">saves workstation data</text><path d="M20,733.8203 L81,733.8203 L81,743.1113 L71,753.1113 L20,753.1113 L20,733.8203 " fill="#EEEEEE" style="stroke:#000000;stroke-width:1.5;"/><rect fill="none" height="98.5039" style="stroke:#000000;stroke-width:1.5;" width="495.5" x="20" y="733.8203"/><text fill="#000000" font-family="sans-serif" font-size="13" font-weight="bold" lengthAdjust="spacing" textLength="16" x="35" y="748.8486">alt</text><text fill="#000000" font-family="sans-serif" font-size="11" font-weight="bold" lengthAdjust="spacing" textLength="82" x="96" y="747.6904">[system error]</text><polygon fill="#181818" points="113.5,772.4023,103.5,776.4023,113.5,780.4023,109.5,776.4023" style="stroke:#181818;stroke-width:1.0;"/><line style="stroke:#181818;stroke-width:1.0;stroke-dasharray:2.0,2.0;" x1="107.5" x2="472.5" y1="776.4023" y2="776.4023"/><text fill="#000000" font-family="sans-serif" font-size="13" font-weight="bold" lengthAdjust="spacing" textLength="14" x="119.5" y="771.1396">15</text><text fill="#000000" font-family="sans-serif" font-size="13" lengthAdjust="spacing" textLength="221" x="137.5" y="771.1396">shows error message (Database error)</text><line style="stroke:#000000;stroke-width:1.0;stroke-dasharray:2.0,2.0;" x1="20" x2="515.5" y1="785.4023" y2="785.4023"/><text fill="#000000" font-family="sans-serif" font-size="11" font-weight="bold" lengthAdjust="spacing" textLength="55" x="25" y="797.2725">[success]</text><polygon fill="#181818" points="113.5,820.3242,103.5,824.3242,113.5,828.3242,109.5,824.3242" style="stroke:#181818;stroke-width:1.0;"/><line style="stroke:#181818;stroke-width:1.0;stroke-dasharray:2.0,2.0;" x1="107.5" x2="472.5" y1="824.3242" y2="824.3242"/><text fill="#000000" font-family="sans-serif" font-size="13" font-weight="bold" lengthAdjust="spacing" textLength="14" x="119.5" y="819.0615">16</text><text fill="#000000" font-family="sans-serif" font-size="13" lengthAdjust="spacing" textLength="270" x="137.5" y="819.0615">shows all data and displays operation success</text><!--SRC=[pPGzZzim38Pt_GeYKp8SkcVe51Je42202tJcIJn7Y2ovefoS__tHzZbrxDXrErMJFyX7VFcAuelr9KOie0W-w7CC1K6A5Ic-_obHNp2dBDME899Ew7Ct3E0pcd2pFeStT4nA9PiaDAivKG4P_Qh8QuA3nRm9tsRPOQSKLYdugdYbACywXGYRaqEVu9iByd94Bvl63I33wQXafsIrBPk0pRv3j_-wnnPXhvYe2LOWwtI4bwzz4Ni9lJ2a809oAvyY87YwmIt42oTCDlWswuxfkV2vFa4lmXJoNaI7cm3F14vu4Dw6A4XrITpc6dgA75N7vAIn3EWXb2rXAzLzeNTXDuqTitVpnQ9BOsLjocyfp-J4nYMM2iPfuB6WXzGPHVqQAMixqUF9J76BiBxCOQlmIjCo7xBwDd2NGp66E0cODxMDXuAOvGJ2ze09Nv6f-xvx2fhsP1n1tdJIo3MeEMFd3zoyGzyFQeKt8r_A6AxMq3BkZzCm0EepQHanEnq4yI8IchfJpMfiqoJU1AdBXzGb_BjpFmVW7rFmrCfb6niB7wnSRTFzqA-x3MPdPd5MLi-BaGFz_yzBCoPSQItOlwW5dMlroKrgm5Wk7TOiToh5JliISTKGVm00]--></g></svg>