<?xml version="1.0" encoding="us-ascii" standalone="no"?><svg xmlns="http://www.w3.org/2000/svg" xmlns:xlink="http://www.w3.org/1999/xlink" contentStyleType="text/css" height="706.2px" preserveAspectRatio="none" style="width:989px;height:706px;background:#FFFFFF;" version="1.1" viewBox="0 0 989 706" width="989.4px" zoomAndPan="magnify"><defs/><g><text fill="#000000" font-family="sans-serif" font-size="8.4" font-weight="bold" lengthAdjust="spacing" textLength="99" x="446.25" y="18.0645">Sequence Diagram (SD)</text><rect fill="#FFFFFF" height="566.0578" style="stroke:#181818;stroke-width:0.6;" width="6" x="40.2" y="79.9453"/><rect fill="#FFFFFF" height="552.0832" style="stroke:#181818;stroke-width:0.6;" width="6" x="211.8" y="93.9199"/><rect fill="#FFFFFF" height="488.3613" style="stroke:#181818;stroke-width:0.6;" width="6" x="371.4" y="138.8672"/><rect fill="#FFFFFF" height="450.8121" style="stroke:#181818;stroke-width:0.6;" width="6" x="531" y="157.6418"/><rect fill="#FFFFFF" height="214.3207" style="stroke:#181818;stroke-width:0.6;" width="6" x="534" y="181.2164"/><rect fill="#FFFFFF" height="18.7746" style="stroke:#181818;stroke-width:0.6;" width="6" x="614.4" y="202.991"/><rect fill="#FFFFFF" height="18.7746" style="stroke:#181818;stroke-width:0.6;" width="6" x="677.4" y="240.5402"/><rect fill="#FFFFFF" height="95.073" style="stroke:#181818;stroke-width:0.6;" width="6" x="760.2" y="278.0895"/><rect fill="#FFFFFF" height="18.7746" style="stroke:#181818;stroke-width:0.6;" width="6" x="841.2" y="471.6316"/><rect fill="#FFFFFF" height="18.7746" style="stroke:#181818;stroke-width:0.6;" width="6" x="841.2" y="509.1809"/><rect fill="#FFFFFF" height="18.7746" style="stroke:#181818;stroke-width:0.6;" width="6" x="922.8" y="562.5047"/><rect fill="none" height="67.8984" style="stroke:#000000;stroke-width:0.8999999999999999;" width="675.9" x="141" y="287.0895"/><rect fill="none" height="144.1969" style="stroke:#000000;stroke-width:0.8999999999999999;" width="506.7" x="479.4" y="446.0824"/><rect fill="none" height="49.1238" style="stroke:#000000;stroke-width:0.8999999999999999;" width="494.7" x="485.4" y="536.9555"/><line style="stroke:#181818;stroke-width:0.3;stroke-dasharray:5.0,5.0;" x1="43.2" x2="43.2" y1="73.9453" y2="656.8031"/><line style="stroke:#181818;stroke-width:0.3;stroke-dasharray:5.0,5.0;" x1="214.8" x2="214.8" y1="73.9453" y2="656.8031"/><line style="stroke:#181818;stroke-width:0.3;stroke-dasharray:5.0,5.0;" x1="374.1" x2="374.1" y1="117.8062" y2="656.8031"/><line style="stroke:#181818;stroke-width:0.3;stroke-dasharray:5.0,5.0;" x1="534" x2="534" y1="73.9453" y2="656.8031"/><line style="stroke:#181818;stroke-width:0.3;stroke-dasharray:5.0,5.0;" x1="617.1" x2="617.1" y1="73.9453" y2="656.8031"/><line style="stroke:#181818;stroke-width:0.3;stroke-dasharray:5.0,5.0;" x1="680.1" x2="680.1" y1="73.9453" y2="656.8031"/><line style="stroke:#181818;stroke-width:0.3;stroke-dasharray:5.0,5.0;" x1="762.9" x2="762.9" y1="73.9453" y2="656.8031"/><line style="stroke:#181818;stroke-width:0.3;stroke-dasharray:5.0,5.0;" x1="843.9" x2="843.9" y1="73.9453" y2="656.8031"/><line style="stroke:#181818;stroke-width:0.3;stroke-dasharray:5.0,5.0;" x1="925.5" x2="925.5" y1="429.2098" y2="656.8031"/><text fill="#000000" font-family="sans-serif" font-size="8.4" lengthAdjust="spacing" textLength="76.8" x="3" y="71.8371">Production Manager</text><ellipse cx="43.2" cy="31.8727" fill="#E3E3E3" rx="4.8" ry="4.8" style="stroke:#181818;stroke-width:0.3;"/><path d="M43.2,36.6727 L43.2,52.8727 M35.4,41.4727 L51,41.4727 M43.2,52.8727 L35.4,61.8727 M43.2,52.8727 L51,61.8727 " fill="none" style="stroke:#181818;stroke-width:0.3;"/><text fill="#000000" font-family="sans-serif" font-size="8.4" lengthAdjust="spacing" textLength="76.8" x="3" y="665.2676">Production Manager</text><ellipse cx="43.2" cy="672.4758" fill="#E3E3E3" rx="4.8" ry="4.8" style="stroke:#181818;stroke-width:0.3;"/><path d="M43.2,677.2758 L43.2,693.4758 M35.4,682.0758 L51,682.0758 M43.2,693.4758 L35.4,702.4758 M43.2,693.4758 L51,702.4758 " fill="none" style="stroke:#181818;stroke-width:0.3;"/><rect fill="#E3E3E3" height="19.5727" rx="1.5" ry="1.5" style="stroke:#181818;stroke-width:0.3;" width="135.6" x="147" y="53.7727"/><text fill="#000000" font-family="sans-serif" font-size="8.4" lengthAdjust="spacing" textLength="127.2" x="151.2" y="67.0371">:ConsultRawMaterialsStockAlertUI</text><rect fill="#E3E3E3" height="19.5727" rx="1.5" ry="1.5" style="stroke:#181818;stroke-width:0.3;" width="135.6" x="147" y="656.2031"/><text fill="#000000" font-family="sans-serif" font-size="8.4" lengthAdjust="spacing" textLength="127.2" x="151.2" y="669.4676">:ConsultRawMaterialsStockAlertUI</text><rect fill="#E3E3E3" height="19.5727" rx="1.5" ry="1.5" style="stroke:#181818;stroke-width:0.3;" width="94.2" x="327.3" y="656.2031"/><text fill="#000000" font-family="sans-serif" font-size="8.4" lengthAdjust="spacing" textLength="85.8" x="331.5" y="669.4676">:RawMaterialController</text><rect fill="#E3E3E3" height="19.5727" rx="1.5" ry="1.5" style="stroke:#181818;stroke-width:0.3;" width="85.2" x="491.4" y="53.7727"/><text fill="#000000" font-family="sans-serif" font-size="8.4" lengthAdjust="spacing" textLength="76.8" x="495.6" y="67.0371">:RawMaterialService</text><rect fill="#E3E3E3" height="19.5727" rx="1.5" ry="1.5" style="stroke:#181818;stroke-width:0.3;" width="85.2" x="491.4" y="656.2031"/><text fill="#000000" font-family="sans-serif" font-size="8.4" lengthAdjust="spacing" textLength="76.8" x="495.6" y="669.4676">:RawMaterialService</text><rect fill="#E3E3E3" height="19.5727" rx="1.5" ry="1.5" style="stroke:#181818;stroke-width:0.3;" width="55.8" x="589.5" y="53.7727"/><text fill="#000000" font-family="sans-serif" font-size="8.4" lengthAdjust="spacing" textLength="47.4" x="593.7" y="67.0371">Repositories</text><rect fill="#E3E3E3" height="19.5727" rx="1.5" ry="1.5" style="stroke:#181818;stroke-width:0.3;" width="55.8" x="589.5" y="656.2031"/><text fill="#000000" font-family="sans-serif" font-size="8.4" lengthAdjust="spacing" textLength="47.4" x="593.7" y="669.4676">Repositories</text><rect fill="#E3E3E3" height="30.7453" rx="1.5" ry="1.5" style="stroke:#181818;stroke-width:0.3;" width="58.2" x="651.3" y="42.6"/><text fill="#000000" font-family="sans-serif" font-size="8.4" lengthAdjust="spacing" textLength="44.4" x="658.2" y="55.8645">repositories</text><text fill="#000000" font-family="sans-serif" font-size="8.4" lengthAdjust="spacing" textLength="49.8" x="655.5" y="67.0371">:Repositories</text><rect fill="#E3E3E3" height="30.7453" rx="1.5" ry="1.5" style="stroke:#181818;stroke-width:0.3;" width="58.2" x="651.3" y="656.2031"/><text fill="#000000" font-family="sans-serif" font-size="8.4" lengthAdjust="spacing" textLength="44.4" x="658.2" y="669.4676">repositories</text><text fill="#000000" font-family="sans-serif" font-size="8.4" lengthAdjust="spacing" textLength="49.8" x="655.5" y="680.6402">:Repositories</text><rect fill="#E3E3E3" height="30.7453" rx="1.5" ry="1.5" style="stroke:#181818;stroke-width:0.3;" width="95.4" x="715.5" y="42.6"/><text fill="#000000" font-family="sans-serif" font-size="8.4" lengthAdjust="spacing" textLength="86.4" x="720" y="55.8645">rawMaterialRepository:</text><text fill="#000000" font-family="sans-serif" font-size="8.4" lengthAdjust="spacing" textLength="87" x="719.7" y="67.0371">RawMaterialRepository</text><rect fill="#E3E3E3" height="30.7453" rx="1.5" ry="1.5" style="stroke:#181818;stroke-width:0.3;" width="95.4" x="715.5" y="656.2031"/><text fill="#000000" font-family="sans-serif" font-size="8.4" lengthAdjust="spacing" textLength="86.4" x="720" y="669.4676">rawMaterialRepository:</text><text fill="#000000" font-family="sans-serif" font-size="8.4" lengthAdjust="spacing" textLength="87" x="719.7" y="680.6402">RawMaterialRepository</text><rect fill="#E3E3E3" height="30.7453" rx="1.5" ry="1.5" style="stroke:#181818;stroke-width:0.3;" width="54.6" x="816.9" y="42.6"/><text fill="#000000" font-family="sans-serif" font-size="8.4" lengthAdjust="spacing" textLength="45.6" x="821.4" y="55.8645">rawMaterial:</text><text fill="#000000" font-family="sans-serif" font-size="8.4" lengthAdjust="spacing" textLength="46.2" x="821.1" y="67.0371">RawMaterial</text><rect fill="#E3E3E3" height="30.7453" rx="1.5" ry="1.5" style="stroke:#181818;stroke-width:0.3;" width="54.6" x="816.9" y="656.2031"/><text fill="#000000" font-family="sans-serif" font-size="8.4" lengthAdjust="spacing" textLength="45.6" x="821.4" y="669.4676">rawMaterial:</text><text fill="#000000" font-family="sans-serif" font-size="8.4" lengthAdjust="spacing" textLength="46.2" x="821.1" y="680.6402">RawMaterial</text><rect fill="#E3E3E3" height="30.7453" rx="1.5" ry="1.5" style="stroke:#181818;stroke-width:0.3;" width="96.6" x="877.5" y="656.2031"/><text fill="#000000" font-family="sans-serif" font-size="8.4" lengthAdjust="spacing" textLength="88.2" x="881.7" y="669.4676">rawMaterialsStockAlert:</text><text fill="#000000" font-family="sans-serif" font-size="8.4" lengthAdjust="spacing" textLength="69" x="891.3" y="680.6402">List&lt;RawMaterial&gt;</text><rect fill="#FFFFFF" height="566.0578" style="stroke:#181818;stroke-width:0.6;" width="6" x="40.2" y="79.9453"/><rect fill="#FFFFFF" height="552.0832" style="stroke:#181818;stroke-width:0.6;" width="6" x="211.8" y="93.9199"/><rect fill="#FFFFFF" height="488.3613" style="stroke:#181818;stroke-width:0.6;" width="6" x="371.4" y="138.8672"/><rect fill="#FFFFFF" height="450.8121" style="stroke:#181818;stroke-width:0.6;" width="6" x="531" y="157.6418"/><rect fill="#FFFFFF" height="214.3207" style="stroke:#181818;stroke-width:0.6;" width="6" x="534" y="181.2164"/><rect fill="#FFFFFF" height="18.7746" style="stroke:#181818;stroke-width:0.6;" width="6" x="614.4" y="202.991"/><rect fill="#FFFFFF" height="18.7746" style="stroke:#181818;stroke-width:0.6;" width="6" x="677.4" y="240.5402"/><rect fill="#FFFFFF" height="95.073" style="stroke:#181818;stroke-width:0.6;" width="6" x="760.2" y="278.0895"/><rect fill="#FFFFFF" height="18.7746" style="stroke:#181818;stroke-width:0.6;" width="6" x="841.2" y="471.6316"/><rect fill="#FFFFFF" height="18.7746" style="stroke:#181818;stroke-width:0.6;" width="6" x="841.2" y="509.1809"/><rect fill="#FFFFFF" height="18.7746" style="stroke:#181818;stroke-width:0.6;" width="6" x="922.8" y="562.5047"/><polygon fill="#181818" points="204.6,91.5199,210.6,93.9199,204.6,96.3199,207,93.9199" style="stroke:#181818;stroke-width:0.6;"/><line style="stroke:#181818;stroke-width:0.6;" x1="46.2" x2="208.2" y1="93.9199" y2="93.9199"/><text fill="#000000" font-family="sans-serif" font-size="7.8" font-weight="bold" lengthAdjust="spacing" textLength="4.2" x="50.4" y="90.7623">1</text><text fill="#000000" font-family="sans-serif" font-size="7.8" lengthAdjust="spacing" textLength="122.4" x="57" y="90.7623">requests raw materials low in stock</text><polygon fill="#181818" points="320.1,110.2945,326.1,112.6945,320.1,115.0945,322.5,112.6945" style="stroke:#181818;stroke-width:0.6;"/><line style="stroke:#181818;stroke-width:0.6;" x1="217.8" x2="323.7" y1="112.6945" y2="112.6945"/><text fill="#000000" font-family="sans-serif" font-size="7.8" font-weight="bold" lengthAdjust="spacing" textLength="4.2" x="222" y="109.5369">2</text><text fill="#000000" font-family="sans-serif" font-size="7.8" lengthAdjust="spacing" textLength="21.6" x="228.6" y="109.5369">create</text><rect fill="#E3E3E3" height="19.5727" rx="1.5" ry="1.5" style="stroke:#181818;stroke-width:0.3;" width="94.2" x="327.3" y="98.7199"/><text fill="#000000" font-family="sans-serif" font-size="8.4" lengthAdjust="spacing" textLength="85.8" x="331.5" y="111.9844">:RawMaterialController</text><polygon fill="#181818" points="364.2,136.4672,370.2,138.8672,364.2,141.2672,366.6,138.8672" style="stroke:#181818;stroke-width:0.6;"/><line style="stroke:#181818;stroke-width:0.6;" x1="217.8" x2="367.8" y1="138.8672" y2="138.8672"/><text fill="#000000" font-family="sans-serif" font-size="7.8" font-weight="bold" lengthAdjust="spacing" textLength="4.2" x="222" y="135.7096">3</text><text fill="#000000" font-family="sans-serif" font-size="7.8" lengthAdjust="spacing" textLength="113.4" x="228.6" y="135.7096">consultRawMaterialsStockAlert()</text><polygon fill="#181818" points="523.8,155.2418,529.8,157.6418,523.8,160.0418,526.2,157.6418" style="stroke:#181818;stroke-width:0.6;"/><line style="stroke:#181818;stroke-width:0.6;" x1="377.4" x2="527.4" y1="157.6418" y2="157.6418"/><text fill="#000000" font-family="sans-serif" font-size="7.8" font-weight="bold" lengthAdjust="spacing" textLength="4.2" x="381.6" y="154.4842">4</text><text fill="#000000" font-family="sans-serif" font-size="7.8" lengthAdjust="spacing" textLength="113.4" x="388.2" y="154.4842">consultRawMaterialsStockAlert()</text><line style="stroke:#181818;stroke-width:0.6;" x1="537" x2="565.2" y1="173.4164" y2="173.4164"/><line style="stroke:#181818;stroke-width:0.6;" x1="565.2" x2="565.2" y1="173.4164" y2="181.2164"/><line style="stroke:#181818;stroke-width:0.6;" x1="540.6" x2="565.2" y1="181.2164" y2="181.2164"/><polygon fill="#181818" points="546.6,178.8164,540.6,181.2164,546.6,183.6164,544.2,181.2164" style="stroke:#181818;stroke-width:0.6;"/><text fill="#000000" font-family="sans-serif" font-size="7.8" font-weight="bold" lengthAdjust="spacing" textLength="4.2" x="544.2" y="170.2588">5</text><text fill="#000000" font-family="sans-serif" font-size="7.8" lengthAdjust="spacing" textLength="62.4" x="550.8" y="170.2588">getRawMaterials()</text><polygon fill="#181818" points="607.2,200.591,613.2,202.991,607.2,205.391,609.6,202.991" style="stroke:#181818;stroke-width:0.6;"/><line style="stroke:#181818;stroke-width:0.6;" x1="540" x2="610.8" y1="202.991" y2="202.991"/><text fill="#000000" font-family="sans-serif" font-size="7.8" font-weight="bold" lengthAdjust="spacing" textLength="4.2" x="544.2" y="199.8334">6</text><text fill="#000000" font-family="sans-serif" font-size="7.8" lengthAdjust="spacing" textLength="45" x="550.8" y="199.8334">getInstance()</text><polygon fill="#181818" points="546.6,219.3656,540.6,221.7656,546.6,224.1656,544.2,221.7656" style="stroke:#181818;stroke-width:0.6;"/><line style="stroke:#181818;stroke-width:0.6;stroke-dasharray:2.0,2.0;" x1="543" x2="616.8" y1="221.7656" y2="221.7656"/><text fill="#000000" font-family="sans-serif" font-size="7.8" font-weight="bold" lengthAdjust="spacing" textLength="4.2" x="550.2" y="218.608">7</text><text fill="#000000" font-family="sans-serif" font-size="7.8" lengthAdjust="spacing" textLength="40.2" x="556.8" y="218.608">repositories</text><polygon fill="#181818" points="670.2,238.1402,676.2,240.5402,670.2,242.9402,672.6,240.5402" style="stroke:#181818;stroke-width:0.6;"/><line style="stroke:#181818;stroke-width:0.6;" x1="540" x2="673.8" y1="240.5402" y2="240.5402"/><text fill="#000000" font-family="sans-serif" font-size="7.8" font-weight="bold" lengthAdjust="spacing" textLength="4.2" x="544.2" y="237.3826">8</text><text fill="#000000" font-family="sans-serif" font-size="7.8" lengthAdjust="spacing" textLength="95.4" x="550.8" y="237.3826">getRawMaterialRepository()</text><polygon fill="#181818" points="546.6,256.9148,540.6,259.3148,546.6,261.7148,544.2,259.3148" style="stroke:#181818;stroke-width:0.6;"/><line style="stroke:#181818;stroke-width:0.6;stroke-dasharray:2.0,2.0;" x1="543" x2="679.8" y1="259.3148" y2="259.3148"/><text fill="#000000" font-family="sans-serif" font-size="7.8" font-weight="bold" lengthAdjust="spacing" textLength="4.2" x="550.2" y="256.1572">9</text><text fill="#000000" font-family="sans-serif" font-size="7.8" lengthAdjust="spacing" textLength="76.8" x="556.8" y="256.1572">rawMaterialRepository</text><polygon fill="#181818" points="753,275.6895,759,278.0895,753,280.4895,755.4,278.0895" style="stroke:#181818;stroke-width:0.6;"/><line style="stroke:#181818;stroke-width:0.6;" x1="540" x2="756.6" y1="278.0895" y2="278.0895"/><text fill="#000000" font-family="sans-serif" font-size="7.8" font-weight="bold" lengthAdjust="spacing" textLength="8.4" x="544.2" y="274.9318">10</text><text fill="#000000" font-family="sans-serif" font-size="7.8" lengthAdjust="spacing" textLength="71.4" x="555" y="274.9318">getAllRawMaterials()</text><path d="M141,287.0895 L177.6,287.0895 L177.6,292.6641 L171.6,298.6641 L141,298.6641 L141,287.0895 " fill="#EEEEEE" style="stroke:#000000;stroke-width:0.8999999999999999;"/><rect fill="none" height="67.8984" style="stroke:#000000;stroke-width:0.8999999999999999;" width="675.9" x="141" y="287.0895"/><text fill="#000000" font-family="sans-serif" font-size="7.8" font-weight="bold" lengthAdjust="spacing" textLength="9.6" x="150" y="296.1064">alt</text><text fill="#000000" font-family="sans-serif" font-size="6.6" font-weight="bold" lengthAdjust="spacing" textLength="49.2" x="186.6" y="295.4115">[system error]</text><polygon fill="#181818" points="546.6,310.2387,540.6,312.6387,546.6,315.0387,544.2,312.6387" style="stroke:#181818;stroke-width:0.6;"/><line style="stroke:#181818;stroke-width:0.6;stroke-dasharray:2.0,2.0;" x1="543" x2="759.6" y1="312.6387" y2="312.6387"/><text fill="#000000" font-family="sans-serif" font-size="7.8" font-weight="bold" lengthAdjust="spacing" textLength="8.4" x="550.2" y="309.4811">11</text><text fill="#000000" font-family="sans-serif" font-size="7.8" lengthAdjust="spacing" textLength="51" x="561" y="309.4811">Database error</text><polygon fill="#181818" points="384,329.0133,378,331.4133,384,333.8133,381.6,331.4133" style="stroke:#181818;stroke-width:0.6;"/><line style="stroke:#181818;stroke-width:0.6;stroke-dasharray:2.0,2.0;" x1="380.4" x2="533.4" y1="331.4133" y2="331.4133"/><text fill="#000000" font-family="sans-serif" font-size="7.8" font-weight="bold" lengthAdjust="spacing" textLength="8.4" x="387.6" y="328.2557">12</text><text fill="#000000" font-family="sans-serif" font-size="7.8" lengthAdjust="spacing" textLength="128.4" x="398.4" y="328.2557">show error message (Database error)</text><polygon fill="#181818" points="224.4,347.7879,218.4,350.1879,224.4,352.5879,222,350.1879" style="stroke:#181818;stroke-width:0.6;"/><line style="stroke:#181818;stroke-width:0.6;stroke-dasharray:2.0,2.0;" x1="220.8" x2="370.8" y1="350.1879" y2="350.1879"/><text fill="#000000" font-family="sans-serif" font-size="7.8" font-weight="bold" lengthAdjust="spacing" textLength="8.4" x="228" y="347.0303">13</text><text fill="#000000" font-family="sans-serif" font-size="7.8" lengthAdjust="spacing" textLength="128.4" x="238.8" y="347.0303">show error message (Database error)</text><polygon fill="#181818" points="546.6,370.7625,540.6,373.1625,546.6,375.5625,544.2,373.1625" style="stroke:#181818;stroke-width:0.6;"/><line style="stroke:#181818;stroke-width:0.6;stroke-dasharray:2.0,2.0;" x1="543" x2="762.6" y1="373.1625" y2="373.1625"/><text fill="#000000" font-family="sans-serif" font-size="7.8" font-weight="bold" lengthAdjust="spacing" textLength="8.4" x="550.2" y="370.0049">14</text><text fill="#000000" font-family="sans-serif" font-size="7.8" lengthAdjust="spacing" textLength="43.8" x="561" y="370.0049">rawMaterials</text><line style="stroke:#181818;stroke-width:0.6;stroke-dasharray:2.0,2.0;" x1="540" x2="565.2" y1="394.9371" y2="394.9371"/><line style="stroke:#181818;stroke-width:0.6;stroke-dasharray:2.0,2.0;" x1="565.2" x2="565.2" y1="394.9371" y2="402.7371"/><line style="stroke:#181818;stroke-width:0.6;stroke-dasharray:2.0,2.0;" x1="537" x2="565.2" y1="402.7371" y2="402.7371"/><polygon fill="#181818" points="543,400.3371,537,402.7371,543,405.1371,540.6,402.7371" style="stroke:#181818;stroke-width:0.6;"/><text fill="#000000" font-family="sans-serif" font-size="7.8" font-weight="bold" lengthAdjust="spacing" textLength="8.4" x="544.2" y="391.7795">15</text><text fill="#000000" font-family="sans-serif" font-size="7.8" lengthAdjust="spacing" textLength="43.8" x="555" y="391.7795">rawMaterials</text><polygon fill="#181818" points="870.3,416.1117,876.3,418.5117,870.3,420.9117,872.7,418.5117" style="stroke:#181818;stroke-width:0.6;"/><line style="stroke:#181818;stroke-width:0.6;" x1="537" x2="873.9" y1="418.5117" y2="418.5117"/><text fill="#000000" font-family="sans-serif" font-size="7.8" font-weight="bold" lengthAdjust="spacing" textLength="8.4" x="541.2" y="415.3541">16</text><text fill="#000000" font-family="sans-serif" font-size="7.8" lengthAdjust="spacing" textLength="21.6" x="552" y="415.3541">create</text><rect fill="#E3E3E3" height="30.7453" rx="1.5" ry="1.5" style="stroke:#181818;stroke-width:0.3;" width="96.6" x="877.5" y="404.5371"/><text fill="#000000" font-family="sans-serif" font-size="8.4" lengthAdjust="spacing" textLength="88.2" x="881.7" y="417.8016">rawMaterialsStockAlert:</text><text fill="#000000" font-family="sans-serif" font-size="8.4" lengthAdjust="spacing" textLength="69" x="891.3" y="428.9742">List&lt;RawMaterial&gt;</text><path d="M479.4,446.0824 L523.2,446.0824 L523.2,451.657 L517.2,457.657 L479.4,457.657 L479.4,446.0824 " fill="#EEEEEE" style="stroke:#000000;stroke-width:0.8999999999999999;"/><rect fill="none" height="144.1969" style="stroke:#000000;stroke-width:0.8999999999999999;" width="506.7" x="479.4" y="446.0824"/><text fill="#000000" font-family="sans-serif" font-size="7.8" font-weight="bold" lengthAdjust="spacing" textLength="16.8" x="488.4" y="455.0994">loop</text><text fill="#000000" font-family="sans-serif" font-size="6.6" font-weight="bold" lengthAdjust="spacing" textLength="126.6" x="532.2" y="454.4045">[For each rawMaterial in rawMaterials]</text><polygon fill="#181818" points="834,469.2316,840,471.6316,834,474.0316,836.4,471.6316" style="stroke:#181818;stroke-width:0.6;"/><line style="stroke:#181818;stroke-width:0.6;" x1="537" x2="837.6" y1="471.6316" y2="471.6316"/><text fill="#000000" font-family="sans-serif" font-size="7.8" font-weight="bold" lengthAdjust="spacing" textLength="8.4" x="541.2" y="468.474">17</text><text fill="#000000" font-family="sans-serif" font-size="7.8" lengthAdjust="spacing" textLength="67.8" x="552" y="468.474">getMinimumStock()</text><polygon fill="#181818" points="543.6,488.0062,537.6,490.4063,543.6,492.8063,541.2,490.4063" style="stroke:#181818;stroke-width:0.6;"/><line style="stroke:#181818;stroke-width:0.6;stroke-dasharray:2.0,2.0;" x1="540" x2="843.6" y1="490.4063" y2="490.4063"/><text fill="#000000" font-family="sans-serif" font-size="7.8" font-weight="bold" lengthAdjust="spacing" textLength="8.4" x="547.2" y="487.2486">18</text><text fill="#000000" font-family="sans-serif" font-size="7.8" lengthAdjust="spacing" textLength="52.2" x="558" y="487.2486">minimumStock</text><polygon fill="#181818" points="834,506.7809,840,509.1809,834,511.5809,836.4,509.1809" style="stroke:#181818;stroke-width:0.6;"/><line style="stroke:#181818;stroke-width:0.6;" x1="537" x2="837.6" y1="509.1809" y2="509.1809"/><text fill="#000000" font-family="sans-serif" font-size="7.8" font-weight="bold" lengthAdjust="spacing" textLength="8.4" x="541.2" y="506.0232">19</text><text fill="#000000" font-family="sans-serif" font-size="7.8" lengthAdjust="spacing" textLength="61.2" x="552" y="506.0232">getCurrentStock()</text><polygon fill="#181818" points="543.6,525.5555,537.6,527.9555,543.6,530.3555,541.2,527.9555" style="stroke:#181818;stroke-width:0.6;"/><line style="stroke:#181818;stroke-width:0.6;stroke-dasharray:2.0,2.0;" x1="540" x2="843.6" y1="527.9555" y2="527.9555"/><text fill="#000000" font-family="sans-serif" font-size="7.8" font-weight="bold" lengthAdjust="spacing" textLength="8.4" x="547.2" y="524.7979">20</text><text fill="#000000" font-family="sans-serif" font-size="7.8" lengthAdjust="spacing" textLength="44.4" x="558" y="524.7979">currentStock</text><path d="M485.4,536.9555 L522,536.9555 L522,542.5301 L516,548.5301 L485.4,548.5301 L485.4,536.9555 " fill="#EEEEEE" style="stroke:#000000;stroke-width:0.8999999999999999;"/><rect fill="none" height="49.1238" style="stroke:#000000;stroke-width:0.8999999999999999;" width="494.7" x="485.4" y="536.9555"/><text fill="#000000" font-family="sans-serif" font-size="7.8" font-weight="bold" lengthAdjust="spacing" textLength="9.6" x="494.4" y="545.9725">alt</text><text fill="#000000" font-family="sans-serif" font-size="6.6" font-weight="bold" lengthAdjust="spacing" textLength="105.6" x="531" y="545.2775">[minimumStock &gt; currentStock]</text><polygon fill="#181818" points="915.6,560.1047,921.6,562.5047,915.6,564.9047,918,562.5047" style="stroke:#181818;stroke-width:0.6;"/><line style="stroke:#181818;stroke-width:0.6;" x1="537" x2="919.2" y1="562.5047" y2="562.5047"/><text fill="#000000" font-family="sans-serif" font-size="7.8" font-weight="bold" lengthAdjust="spacing" textLength="8.4" x="541.2" y="559.3471">21</text><text fill="#000000" font-family="sans-serif" font-size="7.8" lengthAdjust="spacing" textLength="57" x="552" y="559.3471">add(rawMaterial)</text><polygon fill="#181818" points="543.6,578.8793,537.6,581.2793,543.6,583.6793,541.2,581.2793" style="stroke:#181818;stroke-width:0.6;"/><line style="stroke:#181818;stroke-width:0.6;stroke-dasharray:2.0,2.0;" x1="540" x2="925.2" y1="581.2793" y2="581.2793"/><text fill="#000000" font-family="sans-serif" font-size="7.8" font-weight="bold" lengthAdjust="spacing" textLength="8.4" x="547.2" y="578.1217">22</text><text fill="#000000" font-family="sans-serif" font-size="7.8" lengthAdjust="spacing" textLength="2.4" x="558" y="578.1217">&#160;</text><polygon fill="#181818" points="384,606.0539,378,608.4539,384,610.8539,381.6,608.4539" style="stroke:#181818;stroke-width:0.6;"/><line style="stroke:#181818;stroke-width:0.6;stroke-dasharray:2.0,2.0;" x1="380.4" x2="533.4" y1="608.4539" y2="608.4539"/><text fill="#000000" font-family="sans-serif" font-size="7.8" font-weight="bold" lengthAdjust="spacing" textLength="8.4" x="387.6" y="605.2963">23</text><text fill="#000000" font-family="sans-serif" font-size="7.8" lengthAdjust="spacing" textLength="80.4" x="398.4" y="605.2963">rawMaterialsStockAlert</text><polygon fill="#181818" points="224.4,624.8285,218.4,627.2285,224.4,629.6285,222,627.2285" style="stroke:#181818;stroke-width:0.6;"/><line style="stroke:#181818;stroke-width:0.6;stroke-dasharray:2.0,2.0;" x1="220.8" x2="373.8" y1="627.2285" y2="627.2285"/><text fill="#000000" font-family="sans-serif" font-size="7.8" font-weight="bold" lengthAdjust="spacing" textLength="8.4" x="228" y="624.0709">24</text><text fill="#000000" font-family="sans-serif" font-size="7.8" lengthAdjust="spacing" textLength="80.4" x="238.8" y="624.0709">rawMaterialsStockAlert</text><polygon fill="#181818" points="49.8,643.6031,43.8,646.0031,49.8,648.4031,47.4,646.0031" style="stroke:#181818;stroke-width:0.6;"/><line style="stroke:#181818;stroke-width:0.6;stroke-dasharray:2.0,2.0;" x1="46.2" x2="214.2" y1="646.0031" y2="646.0031"/><text fill="#000000" font-family="sans-serif" font-size="7.8" font-weight="bold" lengthAdjust="spacing" textLength="8.4" x="53.4" y="642.8455">25</text><text fill="#000000" font-family="sans-serif" font-size="7.8" lengthAdjust="spacing" textLength="140.4" x="64.2" y="642.8455">shows the list of low stock raw materials</text><!--SRC=[jPRDRk8m4CVlUOeH9wZK5q0h90HT2GcaAcbtBxsuOGeMZitQJX5llsC7WXES08VwqeB_yvknvmER7PTxfba1XP8gtsfL85XTOcBgdJtBTso3cJqA18svPN8ZGe7PihKwSBc1BoOC9edbbgGP_YjHvWXppZPEDypceoHXfLMoB3vHq_-vLHe6hrgjozno9M759FdI0s06flDLGXuip_cUIGk3yKn9KmgRiiEAMTISt6LMvRkfG6tV5zxgVT4o2jHaRxKIukHWzfOkkyKPwc-UerTcwP-cCCMzCfoYvsYy8drvpPeI7KW-v3XcqJAu-Ax5n_67J6FVUqJKeXFQH5KnJF-kfcylwMAwx3GBhfW8Isxihm0pQGSIo7s2-JTj-5m2BVeBpnDA4eofbgX0ZFNMK9pDGQW3S0d6ORnD3Q7K-Y_S8W9nN0QVdeYLQoH5RDjjzfNDS5GRrOvyOK2mF8Y0L0SFy1fCLqAD7RSShyPki85iWUw6kKgiQ0jfg5bpx2FvkctlUiHp5PZBqwLohwHhx4TTWhewuQLaRmGOY-ySdgkZQ1Vq1zfvUr5O5VfKY7lp4m_fIkzjX0LpD1OBGAsLZehSYaTMPsdEBFja1a-KJem_vwatnZIxgTky1HHe3CrU63P9esvKrHM-dUyZnI0erzSUUi_QJ7blITwPX_ETF0RlQyBuG8oEglCIIktXDrqVUTY603SD6p4bdNcTX1EzgjeLbxme2n_4C9w2IsC4FmSnOGY_t5SHU8YQXQrtmyD3HvkLMgEqFtYqFF3mmD6Y9-li_l3-O7BRvyqoey3PUZqCDaUTe5YhX3_XTqoZq7DzTPs6yUwyvT9DYSXtlccQDnlEjrOpT_XejNHakjtc18pwyU3U86JkdZpLU3HWjmY2Nb2Wllmxnpzock-Vf8LpZvxW8z7-0m00]--></g></svg>