<?xml version="1.0" encoding="us-ascii" standalone="no"?><svg xmlns="http://www.w3.org/2000/svg" xmlns:xlink="http://www.w3.org/1999/xlink" contentStyleType="text/css" height="946.4px" preserveAspectRatio="none" style="width:636px;height:946px;background:#FFFFFF;" version="1.1" viewBox="0 0 636 946" width="636px" zoomAndPan="magnify"><defs/><g><!--cluster UI--><g id="cluster_UI"><rect fill="none" height="80.8" rx="2" ry="2" style="stroke:#000000;stroke-width:1.2000000000000002;" width="217.6" x="310.4" y="5.6"/><text fill="#000000" font-family="sans-serif" font-size="11.2" font-weight="bold" lengthAdjust="spacing" textLength="11.2" x="413.6" y="19.2859">UI</text></g><!--cluster Controller--><g id="cluster_Controller"><rect fill="none" height="96" rx="2" ry="2" style="stroke:#000000;stroke-width:1.2000000000000002;" width="305.6" x="266.4" y="112.8"/><text fill="#000000" font-family="sans-serif" font-size="11.2" font-weight="bold" lengthAdjust="spacing" textLength="56.8" x="390.8" y="126.4859">Controller</text></g><!--cluster Service--><g id="cluster_Service"><rect fill="none" height="110.4" rx="2" ry="2" style="stroke:#000000;stroke-width:1.2000000000000002;" width="305.6" x="266.4" y="235.2"/><text fill="#000000" font-family="sans-serif" font-size="11.2" font-weight="bold" lengthAdjust="spacing" textLength="43.2" x="397.6" y="248.8859">Service</text></g><!--cluster Repository--><g id="cluster_Repository"><rect fill="none" height="242.4" rx="2" ry="2" style="stroke:#000000;stroke-width:1.2000000000000002;" width="370.4" x="5.6" y="386.4"/><text fill="#000000" font-family="sans-serif" font-size="11.2" font-weight="bold" lengthAdjust="spacing" textLength="60.8" x="160.4" y="400.0859">Repository</text></g><!--cluster Model--><g id="cluster_Model"><rect fill="none" height="272" rx="2" ry="2" style="stroke:#000000;stroke-width:1.2000000000000002;" width="216" x="415.2" y="669.6"/><text fill="#000000" font-family="sans-serif" font-size="11.2" font-weight="bold" lengthAdjust="spacing" textLength="35.2" x="505.6" y="683.2859">Model</text></g><!--class ConsultRawMaterialsStockAlertUI--><g id="elem_ConsultRawMaterialsStockAlertUI"><rect codeLine="7" fill="#F1F1F1" height="38.4" id="ConsultRawMaterialsStockAlertUI" rx="2" ry="2" style="stroke:#181818;stroke-width:0.4000000000000001;" width="192" x="323.2" y="35.2"/><ellipse cx="335.2" cy="48" fill="#ADD1B2" rx="8.8" ry="8.8" style="stroke:#181818;stroke-width:0.8000000000000002;"/><path d="M337.4125,44.7 Q337.5375,44.525 337.6875,44.4375 Q337.8375,44.35 338.0125,44.35 Q338.3125,44.35 338.5,44.5625 Q338.6875,44.7625 338.6875,45.25 L338.6875,46.4125 Q338.6875,46.9 338.5,47.1125 Q338.3125,47.325 338.0125,47.325 Q337.7375,47.325 337.575,47.1625 Q337.4125,47.0125 337.325,46.6 Q337.2875,46.3125 337.1375,46.1625 Q336.875,45.8625 336.3875,45.6875 Q335.9,45.5125 335.4,45.5125 Q334.7875,45.5125 334.275,45.775 Q333.775,46.0375 333.375,46.6375 Q332.9875,47.2375 332.9875,48.0625 L332.9875,48.9375 Q332.9875,49.925 333.7,50.5875 Q334.4125,51.2375 335.6875,51.2375 Q336.4375,51.2375 336.9625,51.0375 Q337.275,50.9125 337.6125,50.5625 Q337.825,50.35 337.9375,50.2875 Q338.0625,50.225 338.225,50.225 Q338.4875,50.225 338.6875,50.4375 Q338.9,50.6375 338.9,50.9125 Q338.9,51.1875 338.625,51.5125 Q338.225,51.975 337.5875,52.2375 Q336.725,52.6 335.6875,52.6 Q334.475,52.6 333.5125,52.1 Q332.725,51.7 332.175,50.85 Q331.625,49.9875 331.625,48.9625 L331.625,48.0375 Q331.625,46.975 332.1125,46.0625 Q332.6125,45.1375 333.4875,44.65 Q334.3625,44.15 335.35,44.15 Q335.9375,44.15 336.45,44.2875 Q336.975,44.4125 337.4125,44.7 Z " fill="#000000"/><text fill="#000000" font-family="sans-serif" font-size="11.2" lengthAdjust="spacing" textLength="166.4" x="346.4" y="52.6375">ConsultRawMaterialsStockAlertUI</text><line style="stroke:#181818;stroke-width:0.4000000000000001;" x1="324" x2="514.4" y1="60.8" y2="60.8"/><line style="stroke:#181818;stroke-width:0.4000000000000001;" x1="324" x2="514.4" y1="67.2" y2="67.2"/></g><!--class RawMaterialController--><g id="elem_RawMaterialController"><rect codeLine="12" fill="#F1F1F1" height="53.2969" id="RawMaterialController" rx="2" ry="2" style="stroke:#181818;stroke-width:0.4000000000000001;" width="280" x="279.2" y="142.4"/><ellipse cx="360.2" cy="155.2" fill="#ADD1B2" rx="8.8" ry="8.8" style="stroke:#181818;stroke-width:0.8000000000000002;"/><path d="M362.4125,151.9 Q362.5375,151.725 362.6875,151.6375 Q362.8375,151.55 363.0125,151.55 Q363.3125,151.55 363.5,151.7625 Q363.6875,151.9625 363.6875,152.45 L363.6875,153.6125 Q363.6875,154.1 363.5,154.3125 Q363.3125,154.525 363.0125,154.525 Q362.7375,154.525 362.575,154.3625 Q362.4125,154.2125 362.325,153.8 Q362.2875,153.5125 362.1375,153.3625 Q361.875,153.0625 361.3875,152.8875 Q360.9,152.7125 360.4,152.7125 Q359.7875,152.7125 359.275,152.975 Q358.775,153.2375 358.375,153.8375 Q357.9875,154.4375 357.9875,155.2625 L357.9875,156.1375 Q357.9875,157.125 358.7,157.7875 Q359.4125,158.4375 360.6875,158.4375 Q361.4375,158.4375 361.9625,158.2375 Q362.275,158.1125 362.6125,157.7625 Q362.825,157.55 362.9375,157.4875 Q363.0625,157.425 363.225,157.425 Q363.4875,157.425 363.6875,157.6375 Q363.9,157.8375 363.9,158.1125 Q363.9,158.3875 363.625,158.7125 Q363.225,159.175 362.5875,159.4375 Q361.725,159.8 360.6875,159.8 Q359.475,159.8 358.5125,159.3 Q357.725,158.9 357.175,158.05 Q356.625,157.1875 356.625,156.1625 L356.625,155.2375 Q356.625,154.175 357.1125,153.2625 Q357.6125,152.3375 358.4875,151.85 Q359.3625,151.35 360.35,151.35 Q360.9375,151.35 361.45,151.4875 Q361.975,151.6125 362.4125,151.9 Z " fill="#000000"/><text fill="#000000" font-family="sans-serif" font-size="11.2" lengthAdjust="spacing" textLength="111.2" x="376.6" y="159.8375">RawMaterialController</text><line style="stroke:#181818;stroke-width:0.4000000000000001;" x1="280" x2="558.4" y1="168" y2="168"/><line style="stroke:#181818;stroke-width:0.4000000000000001;" x1="280" x2="558.4" y1="174.4" y2="174.4"/><text fill="#000000" font-family="sans-serif" font-size="11.2" lengthAdjust="spacing" textLength="270.4" x="284" y="189.6859">+consultRawMaterialsStockAlert() : List&lt;RawMaterial&gt;</text></g><!--class RawMaterialService--><g id="elem_RawMaterialService"><rect codeLine="18" fill="#F1F1F1" height="68.1938" id="RawMaterialService" rx="2" ry="2" style="stroke:#181818;stroke-width:0.4000000000000001;" width="280" x="279.2" y="264.8"/><ellipse cx="366.2" cy="277.6" fill="#ADD1B2" rx="8.8" ry="8.8" style="stroke:#181818;stroke-width:0.8000000000000002;"/><path d="M368.4125,274.3 Q368.5375,274.125 368.6875,274.0375 Q368.8375,273.95 369.0125,273.95 Q369.3125,273.95 369.5,274.1625 Q369.6875,274.3625 369.6875,274.85 L369.6875,276.0125 Q369.6875,276.5 369.5,276.7125 Q369.3125,276.925 369.0125,276.925 Q368.7375,276.925 368.575,276.7625 Q368.4125,276.6125 368.325,276.2 Q368.2875,275.9125 368.1375,275.7625 Q367.875,275.4625 367.3875,275.2875 Q366.9,275.1125 366.4,275.1125 Q365.7875,275.1125 365.275,275.375 Q364.775,275.6375 364.375,276.2375 Q363.9875,276.8375 363.9875,277.6625 L363.9875,278.5375 Q363.9875,279.525 364.7,280.1875 Q365.4125,280.8375 366.6875,280.8375 Q367.4375,280.8375 367.9625,280.6375 Q368.275,280.5125 368.6125,280.1625 Q368.825,279.95 368.9375,279.8875 Q369.0625,279.825 369.225,279.825 Q369.4875,279.825 369.6875,280.0375 Q369.9,280.2375 369.9,280.5125 Q369.9,280.7875 369.625,281.1125 Q369.225,281.575 368.5875,281.8375 Q367.725,282.2 366.6875,282.2 Q365.475,282.2 364.5125,281.7 Q363.725,281.3 363.175,280.45 Q362.625,279.5875 362.625,278.5625 L362.625,277.6375 Q362.625,276.575 363.1125,275.6625 Q363.6125,274.7375 364.4875,274.25 Q365.3625,273.75 366.35,273.75 Q366.9375,273.75 367.45,273.8875 Q367.975,274.0125 368.4125,274.3 Z " fill="#000000"/><text fill="#000000" font-family="sans-serif" font-size="11.2" lengthAdjust="spacing" textLength="99.2" x="382.6" y="282.2375">RawMaterialService</text><line style="stroke:#181818;stroke-width:0.4000000000000001;" x1="280" x2="558.4" y1="290.4" y2="290.4"/><line style="stroke:#181818;stroke-width:0.4000000000000001;" x1="280" x2="558.4" y1="296.8" y2="296.8"/><text fill="#000000" font-family="sans-serif" font-size="11.2" lengthAdjust="spacing" textLength="270.4" x="284" y="312.0859">+consultRawMaterialsStockAlert() : List&lt;RawMaterial&gt;</text><text fill="#000000" font-family="sans-serif" font-size="11.2" lengthAdjust="spacing" textLength="196.8" x="284" y="326.9828">-getRawMaterials() : List&lt;RawMaterial&gt;</text></g><!--class Repositories--><g id="elem_Repositories"><rect codeLine="25" fill="#F1F1F1" height="83.0906" id="Repositories" rx="2" ry="2" style="stroke:#181818;stroke-width:0.4000000000000001;" width="281.6" x="18.4" y="416"/><ellipse cx="124.2" cy="428.8" fill="#ADD1B2" rx="8.8" ry="8.8" style="stroke:#181818;stroke-width:0.8000000000000002;"/><path d="M126.4125,425.5 Q126.5375,425.325 126.6875,425.2375 Q126.8375,425.15 127.0125,425.15 Q127.3125,425.15 127.5,425.3625 Q127.6875,425.5625 127.6875,426.05 L127.6875,427.2125 Q127.6875,427.7 127.5,427.9125 Q127.3125,428.125 127.0125,428.125 Q126.7375,428.125 126.575,427.9625 Q126.4125,427.8125 126.325,427.4 Q126.2875,427.1125 126.1375,426.9625 Q125.875,426.6625 125.3875,426.4875 Q124.9,426.3125 124.4,426.3125 Q123.7875,426.3125 123.275,426.575 Q122.775,426.8375 122.375,427.4375 Q121.9875,428.0375 121.9875,428.8625 L121.9875,429.7375 Q121.9875,430.725 122.7,431.3875 Q123.4125,432.0375 124.6875,432.0375 Q125.4375,432.0375 125.9625,431.8375 Q126.275,431.7125 126.6125,431.3625 Q126.825,431.15 126.9375,431.0875 Q127.0625,431.025 127.225,431.025 Q127.4875,431.025 127.6875,431.2375 Q127.9,431.4375 127.9,431.7125 Q127.9,431.9875 127.625,432.3125 Q127.225,432.775 126.5875,433.0375 Q125.725,433.4 124.6875,433.4 Q123.475,433.4 122.5125,432.9 Q121.725,432.5 121.175,431.65 Q120.625,430.7875 120.625,429.7625 L120.625,428.8375 Q120.625,427.775 121.1125,426.8625 Q121.6125,425.9375 122.4875,425.45 Q123.3625,424.95 124.35,424.95 Q124.9375,424.95 125.45,425.0875 Q125.975,425.2125 126.4125,425.5 Z " fill="#000000"/><text fill="#000000" font-family="sans-serif" font-size="11.2" lengthAdjust="spacing" textLength="63.2" x="140.6" y="433.4375">Repositories</text><line style="stroke:#181818;stroke-width:0.4000000000000001;" x1="19.2" x2="299.2" y1="441.6" y2="441.6"/><line style="stroke:#181818;stroke-width:0.4000000000000001;" x1="19.2" x2="299.2" y1="448" y2="448"/><text fill="#000000" font-family="sans-serif" font-size="11.2" lengthAdjust="spacing" textLength="75.2" x="23.2" y="463.2859">-Repositories()</text><text fill="#000000" font-family="sans-serif" font-size="11.2" lengthAdjust="spacing" textLength="145.6" x="23.2" y="478.1828">+getInstance() : Repositories</text><text fill="#000000" font-family="sans-serif" font-size="11.2" lengthAdjust="spacing" textLength="272" x="23.2" y="493.0797">+getRawMaterialRepository() : RawMaterialRepository</text></g><!--class RawMaterialRepository--><g id="elem_RawMaterialRepository"><rect codeLine="31" fill="#F1F1F1" height="53.2969" id="RawMaterialRepository" rx="2" ry="2" style="stroke:#181818;stroke-width:0.4000000000000001;" width="220.8" x="142.4" y="562.4"/><ellipse cx="191.4" cy="575.2" fill="#ADD1B2" rx="8.8" ry="8.8" style="stroke:#181818;stroke-width:0.8000000000000002;"/><path d="M193.6125,571.9 Q193.7375,571.725 193.8875,571.6375 Q194.0375,571.55 194.2125,571.55 Q194.5125,571.55 194.7,571.7625 Q194.8875,571.9625 194.8875,572.45 L194.8875,573.6125 Q194.8875,574.1 194.7,574.3125 Q194.5125,574.525 194.2125,574.525 Q193.9375,574.525 193.775,574.3625 Q193.6125,574.2125 193.525,573.8 Q193.4875,573.5125 193.3375,573.3625 Q193.075,573.0625 192.5875,572.8875 Q192.1,572.7125 191.6,572.7125 Q190.9875,572.7125 190.475,572.975 Q189.975,573.2375 189.575,573.8375 Q189.1875,574.4375 189.1875,575.2625 L189.1875,576.1375 Q189.1875,577.125 189.9,577.7875 Q190.6125,578.4375 191.8875,578.4375 Q192.6375,578.4375 193.1625,578.2375 Q193.475,578.1125 193.8125,577.7625 Q194.025,577.55 194.1375,577.4875 Q194.2625,577.425 194.425,577.425 Q194.6875,577.425 194.8875,577.6375 Q195.1,577.8375 195.1,578.1125 Q195.1,578.3875 194.825,578.7125 Q194.425,579.175 193.7875,579.4375 Q192.925,579.8 191.8875,579.8 Q190.675,579.8 189.7125,579.3 Q188.925,578.9 188.375,578.05 Q187.825,577.1875 187.825,576.1625 L187.825,575.2375 Q187.825,574.175 188.3125,573.2625 Q188.8125,572.3375 189.6875,571.85 Q190.5625,571.35 191.55,571.35 Q192.1375,571.35 192.65,571.4875 Q193.175,571.6125 193.6125,571.9 Z " fill="#000000"/><text fill="#000000" font-family="sans-serif" font-size="11.2" lengthAdjust="spacing" textLength="116" x="207.8" y="579.8375">RawMaterialRepository</text><line style="stroke:#181818;stroke-width:0.4000000000000001;" x1="143.2" x2="362.4" y1="588" y2="588"/><line style="stroke:#181818;stroke-width:0.4000000000000001;" x1="143.2" x2="362.4" y1="594.4" y2="594.4"/><text fill="#000000" font-family="sans-serif" font-size="11.2" lengthAdjust="spacing" textLength="211.2" x="147.2" y="609.6859">+getAllRawMaterials() : List&lt;RawMaterial&gt;</text></g><!--class Part--><g id="elem_Part"><rect codeLine="37" fill="#F1F1F1" height="97.9875" id="Part" rx="2" ry="2" style="stroke:#181818;stroke-width:0.4000000000000001;" width="149.6" x="448.4" y="831.2"/><ellipse cx="509.4" cy="844" fill="#ADD1B2" rx="8.8" ry="8.8" style="stroke:#181818;stroke-width:0.8000000000000002;"/><path d="M511.6125,840.7 Q511.7375,840.525 511.8875,840.4375 Q512.0375,840.35 512.2125,840.35 Q512.5125,840.35 512.7,840.5625 Q512.8875,840.7625 512.8875,841.25 L512.8875,842.4125 Q512.8875,842.9 512.7,843.1125 Q512.5125,843.325 512.2125,843.325 Q511.9375,843.325 511.775,843.1625 Q511.6125,843.0125 511.525,842.6 Q511.4875,842.3125 511.3375,842.1625 Q511.075,841.8625 510.5875,841.6875 Q510.1,841.5125 509.6,841.5125 Q508.9875,841.5125 508.475,841.775 Q507.975,842.0375 507.575,842.6375 Q507.1875,843.2375 507.1875,844.0625 L507.1875,844.9375 Q507.1875,845.925 507.9,846.5875 Q508.6125,847.2375 509.8875,847.2375 Q510.6375,847.2375 511.1625,847.0375 Q511.475,846.9125 511.8125,846.5625 Q512.025,846.35 512.1375,846.2875 Q512.2625,846.225 512.425,846.225 Q512.6875,846.225 512.8875,846.4375 Q513.1,846.6375 513.1,846.9125 Q513.1,847.1875 512.825,847.5125 Q512.425,847.975 511.7875,848.2375 Q510.925,848.6 509.8875,848.6 Q508.675,848.6 507.7125,848.1 Q506.925,847.7 506.375,846.85 Q505.825,845.9875 505.825,844.9625 L505.825,844.0375 Q505.825,842.975 506.3125,842.0625 Q506.8125,841.1375 507.6875,840.65 Q508.5625,840.15 509.55,840.15 Q510.1375,840.15 510.65,840.2875 Q511.175,840.4125 511.6125,840.7 Z " fill="#000000"/><text fill="#000000" font-family="sans-serif" font-size="11.2" lengthAdjust="spacing" textLength="20.8" x="525.8" y="848.6375">Part</text><line style="stroke:#181818;stroke-width:0.4000000000000001;" x1="449.2" x2="597.2" y1="856.8" y2="856.8"/><text fill="#000000" font-family="sans-serif" font-size="11.2" lengthAdjust="spacing" textLength="52" x="453.2" y="872.0859">-id : String</text><text fill="#000000" font-family="sans-serif" font-size="11.2" lengthAdjust="spacing" textLength="71.2" x="453.2" y="886.9828">-name : String</text><text fill="#000000" font-family="sans-serif" font-size="11.2" lengthAdjust="spacing" textLength="98.4" x="453.2" y="901.8797">-description : String</text><line style="stroke:#181818;stroke-width:0.4000000000000001;" x1="449.2" x2="597.2" y1="907.8906" y2="907.8906"/><text fill="#000000" font-family="sans-serif" font-size="11.2" lengthAdjust="spacing" textLength="140" x="453.2" y="923.1766">+Part(id, name, description)</text></g><!--class RawMaterial--><g id="elem_RawMaterial"><rect codeLine="44" fill="#F1F1F1" height="83.0906" id="RawMaterial" rx="2" ry="2" style="stroke:#181818;stroke-width:0.4000000000000001;" width="190.4" x="428" y="699.2"/><ellipse cx="489" cy="712" fill="#ADD1B2" rx="8.8" ry="8.8" style="stroke:#181818;stroke-width:0.8000000000000002;"/><path d="M491.2125,708.7 Q491.3375,708.525 491.4875,708.4375 Q491.6375,708.35 491.8125,708.35 Q492.1125,708.35 492.3,708.5625 Q492.4875,708.7625 492.4875,709.25 L492.4875,710.4125 Q492.4875,710.9 492.3,711.1125 Q492.1125,711.325 491.8125,711.325 Q491.5375,711.325 491.375,711.1625 Q491.2125,711.0125 491.125,710.6 Q491.0875,710.3125 490.9375,710.1625 Q490.675,709.8625 490.1875,709.6875 Q489.7,709.5125 489.2,709.5125 Q488.5875,709.5125 488.075,709.775 Q487.575,710.0375 487.175,710.6375 Q486.7875,711.2375 486.7875,712.0625 L486.7875,712.9375 Q486.7875,713.925 487.5,714.5875 Q488.2125,715.2375 489.4875,715.2375 Q490.2375,715.2375 490.7625,715.0375 Q491.075,714.9125 491.4125,714.5625 Q491.625,714.35 491.7375,714.2875 Q491.8625,714.225 492.025,714.225 Q492.2875,714.225 492.4875,714.4375 Q492.7,714.6375 492.7,714.9125 Q492.7,715.1875 492.425,715.5125 Q492.025,715.975 491.3875,716.2375 Q490.525,716.6 489.4875,716.6 Q488.275,716.6 487.3125,716.1 Q486.525,715.7 485.975,714.85 Q485.425,713.9875 485.425,712.9625 L485.425,712.0375 Q485.425,710.975 485.9125,710.0625 Q486.4125,709.1375 487.2875,708.65 Q488.1625,708.15 489.15,708.15 Q489.7375,708.15 490.25,708.2875 Q490.775,708.4125 491.2125,708.7 Z " fill="#000000"/><text fill="#000000" font-family="sans-serif" font-size="11.2" lengthAdjust="spacing" textLength="61.6" x="505.4" y="716.6375">RawMaterial</text><line style="stroke:#181818;stroke-width:0.4000000000000001;" x1="428.8" x2="617.6" y1="724.8" y2="724.8"/><text fill="#000000" font-family="sans-serif" font-size="11.2" lengthAdjust="spacing" textLength="89.6" x="432.8" y="740.0859">-currentStock : int</text><text fill="#000000" font-family="sans-serif" font-size="11.2" lengthAdjust="spacing" textLength="97.6" x="432.8" y="754.9828">-minimumStock : int</text><line style="stroke:#181818;stroke-width:0.4000000000000001;" x1="428.8" x2="617.6" y1="760.9938" y2="760.9938"/><text fill="#000000" font-family="sans-serif" font-size="11.2" lengthAdjust="spacing" textLength="180.8" x="432.8" y="776.2797">+RawMaterial(id, name, description)</text></g><!--link ConsultRawMaterialsStockAlertUI to RawMaterialController--><g id="link_ConsultRawMaterialsStockAlertUI_RawMaterialController"><path codeLine="51" d="M419.2,73.64 C419.2,92.312 419.2,116.544 419.2,137.56 " fill="none" id="ConsultRawMaterialsStockAlertUI-to-RawMaterialController" style="stroke:#181818;stroke-width:0.8000000000000002;stroke-dasharray:7.0,7.0;"/><polygon fill="#181818" points="419.2,142.36,422.4,135.16,419.2,138.36,416,135.16,419.2,142.36" style="stroke:#181818;stroke-width:0.8000000000000002;"/></g><!--link RawMaterialController to RawMaterialService--><g id="link_RawMaterialController_RawMaterialService"><path codeLine="52" d="M419.2,196.208 C419.2,216.032 419.2,238.584 419.2,259.952 " fill="none" id="RawMaterialController-to-RawMaterialService" style="stroke:#181818;stroke-width:0.8000000000000002;stroke-dasharray:7.0,7.0;"/><polygon fill="#181818" points="419.2,264.752,422.4,257.552,419.2,260.752,416,257.552,419.2,264.752" style="stroke:#181818;stroke-width:0.8000000000000002;"/></g><!--link RawMaterialService to Repositories--><g id="link_RawMaterialService_Repositories"><path codeLine="53" d="M364.064,332.936 C323.96,357.184 273.5556,387.6605 230.8436,413.4845 " fill="none" id="RawMaterialService-to-Repositories" style="stroke:#181818;stroke-width:0.8000000000000002;stroke-dasharray:7.0,7.0;"/><polygon fill="#181818" points="226.736,415.968,234.553,414.9812,230.159,413.8984,231.2417,409.5044,226.736,415.968" style="stroke:#181818;stroke-width:0.8000000000000002;"/><text fill="#000000" font-family="sans-serif" font-size="10.4" lengthAdjust="spacing" textLength="53.6" x="321.6" y="370.4227">repositories</text></g><!--link RawMaterialService to RawMaterialRepository--><g id="link_RawMaterialService_RawMaterialRepository"><path codeLine="54" d="M412.104,333.008 C400.032,389.832 376.8,499.2 376.8,499.2 C376.8,499.2 324.8,538.4 324.8,538.4 C324.8,538.4 311.7098,547.485 294.2218,559.637 " fill="none" id="RawMaterialService-to-RawMaterialRepository" style="stroke:#181818;stroke-width:0.8000000000000002;stroke-dasharray:7.0,7.0;"/><polygon fill="#181818" points="290.28,562.376,298.0187,560.8953,293.5648,560.0935,294.3666,555.6396,290.28,562.376" style="stroke:#181818;stroke-width:0.8000000000000002;"/><text fill="#000000" font-family="sans-serif" font-size="10.4" lengthAdjust="spacing" textLength="102.4" x="402.4" y="462.0227">rawMaterialRepository</text></g><!--link RawMaterialService to RawMaterial--><g id="link_RawMaterialService_RawMaterial"><path codeLine="55" d="M457.752,333 C483.248,355.088 512,380 512,380 C512,380 518.8427,599.8983 521.7787,694.2583 " fill="none" id="RawMaterialService-to-RawMaterial" style="stroke:#181818;stroke-width:0.8000000000000002;stroke-dasharray:7.0,7.0;"/><polygon fill="#181818" points="521.928,699.056,524.9025,691.76,521.8036,695.0579,518.5056,691.959,521.928,699.056" style="stroke:#181818;stroke-width:0.8000000000000002;"/><text fill="#000000" font-family="sans-serif" font-size="10.4" lengthAdjust="spacing" textLength="52.8" x="517.6" y="535.2227">rawMaterial</text></g><!--link Repositories to Repositories--><g id="link_Repositories_Repositories"><path codeLine="56" d="M300.184,446 C317.008,448.104 328,451.976 328,457.6 C328,463.224 321.7709,466.5004 304.9469,468.6044 " fill="none" id="Repositories-to-Repositories" style="stroke:#181818;stroke-width:0.8000000000000002;"/><polygon fill="#181818" points="300.184,469.2,307.7254,471.4818,304.1531,468.7036,306.9313,465.1313,300.184,469.2" style="stroke:#181818;stroke-width:0.8000000000000002;"/><text fill="#000000" font-family="sans-serif" font-size="10.4" lengthAdjust="spacing" textLength="39.2" x="332.8" y="462.0227">instance</text></g><!--link Repositories to RawMaterialRepository--><g id="link_Repositories_RawMaterialRepository"><path codeLine="57" d="M188.816,499.536 C203.6,520.064 218.2275,540.3845 231.1635,558.3525 " fill="none" id="Repositories-to-RawMaterialRepository" style="stroke:#181818;stroke-width:0.8000000000000002;"/><polygon fill="#181818" points="233.968,562.248,232.3582,554.5351,231.6309,559.0018,227.1642,558.2745,233.968,562.248" style="stroke:#181818;stroke-width:0.8000000000000002;"/><text fill="#000000" font-family="sans-serif" font-size="10.4" lengthAdjust="spacing" textLength="102.4" x="215.2" y="535.2227">rawMaterialRepository</text><text fill="#000000" font-family="sans-serif" font-size="10.4" lengthAdjust="spacing" textLength="5.6" x="186.4842" y="516.7192">1</text><text fill="#000000" font-family="sans-serif" font-size="10.4" lengthAdjust="spacing" textLength="5.6" x="224.2444" y="553.4878">1</text></g><!--link RawMaterialRepository to RawMaterial--><g id="link_RawMaterialRepository_RawMaterial"><path codeLine="58" d="M299.904,616.128 C341.136,639 397.5306,670.2876 445.1946,696.7276 " fill="none" id="RawMaterialRepository-to-RawMaterial" style="stroke:#181818;stroke-width:0.8000000000000002;"/><polygon fill="#181818" points="449.392,699.056,444.6481,692.7651,445.8941,697.1157,441.5436,698.3617,449.392,699.056" style="stroke:#181818;stroke-width:0.8000000000000002;"/><text fill="#000000" font-family="sans-serif" font-size="10.4" lengthAdjust="spacing" textLength="48" x="372.8" y="653.6227">categories</text><text fill="#000000" font-family="sans-serif" font-size="10.4" lengthAdjust="spacing" textLength="5.6" x="302.1957" y="633.4062">1</text><text fill="#000000" font-family="sans-serif" font-size="10.4" lengthAdjust="spacing" textLength="4" x="435.2053" y="690.1785">*</text></g><!--link RawMaterial to Part--><g id="link_RawMaterial_Part"><path codeLine="59" d="M523.2,782.512 C523.2,797.8 523.2,800.904 523.2,816.776 " fill="none" id="RawMaterial-to-Part" style="stroke:#181818;stroke-width:0.8000000000000002;"/><polygon fill="none" points="523.2,831.176,528,816.776,518.4,816.776,523.2,831.176" style="stroke:#181818;stroke-width:0.8000000000000002;"/></g><!--SRC=[hLJBJiCm4BpxAwoSMaehk29KgU9KYKg8Y0ympX9MTUp8teBAuzznGY2RrYq8uKjJp-pEP3MRi4PRAwygMIkzLYNaj3KWFMXIjZGWmZSXFAh2FQCjvOCoWIC6BT2s1baxist-C4mR5SA2oEFzXc2fdStn1UIP49sWpEwMcNmLCfwMBA-S3Hj3j-fvfGWyHhMSd5ul37YwMtRST_7EUiGQyiv4nh0NQz9JEaPp9lgOs6WiB-Gr1hfa-3mXduD_GWq7jJlyFuIRCorXKFXhdxTGku3a_7R7wjSzGc0cf_n-DExDH_sb3J4Y6bfjpXkmc9zU-xCaXNIMqqFiQNoEKMHXp9-ciN85cE4WRfGdFW0iOgyyfjUM_QLL5IIk2mZQOqtex3uwQJgFi3YLJVMfPEJnqRVcRlJ6Ux3KvYHAeAKUgz1YjQbIs8IrEsuXclXf-sQpUNghH7hNTlZT9eZ4ShHC7iIB-1rYkJfKaan8h4q6xEScmr8nS3ITxbd4RW-6nEmyQydDxvyDClPtlvDinwkEZ-NUW2BvRTwcMNm0]--></g></svg>