<?xml version="1.0" encoding="us-ascii" standalone="no"?><svg xmlns="http://www.w3.org/2000/svg" xmlns:xlink="http://www.w3.org/1999/xlink" contentStyleType="text/css" height="597.1px" preserveAspectRatio="none" style="width:739px;height:597px;background:#FFFFFF;" version="1.1" viewBox="0 0 739 597" width="739.2px" zoomAndPan="magnify"><defs/><g><text fill="#000000" font-family="sans-serif" font-size="9.8" font-weight="bold" lengthAdjust="spacing" textLength="159.6" x="291.375" y="21.0752">System Sequence Diagram (SSD)</text><rect fill="#FFFFFF" height="439.4879" style="stroke:#181818;stroke-width:0.6999999999999998;" width="7" x="55.65" y="93.2695"/><rect fill="#FFFFFF" height="21.9037" style="stroke:#181818;stroke-width:0.6999999999999998;" width="7" x="594.65" y="109.5732"/><rect fill="#FFFFFF" height="21.9037" style="stroke:#181818;stroke-width:0.6999999999999998;" width="7" x="594.65" y="153.3807"/><rect fill="#FFFFFF" height="71.3111" style="stroke:#181818;stroke-width:0.6999999999999998;" width="7" x="594.65" y="197.1881"/><rect fill="#FFFFFF" height="71.3111" style="stroke:#181818;stroke-width:0.6999999999999998;" width="7" x="594.65" y="323.9482"/><rect fill="none" height="288.4656" style="stroke:#000000;stroke-width:1.0499999999999998;" width="701.05" x="7" y="238.6918"/><rect fill="none" height="156.8055" style="stroke:#000000;stroke-width:1.0499999999999998;" width="687.05" x="14" y="365.452"/><rect fill="none" height="68.9527" style="stroke:#000000;stroke-width:1.0499999999999998;" width="606.55" x="21" y="448.4047"/><line style="stroke:#181818;stroke-width:0.3499999999999999;stroke-dasharray:5.0,5.0;" x1="58.8" x2="58.8" y1="86.2695" y2="539.0574"/><line style="stroke:#181818;stroke-width:0.3499999999999999;stroke-dasharray:5.0,5.0;" x1="598.15" x2="598.15" y1="86.2695" y2="539.0574"/><text fill="#000000" font-family="sans-serif" font-size="9.8" lengthAdjust="spacing" textLength="58.1" x="28" y="83.81">Administrator</text><ellipse cx="59.15" cy="37.1848" fill="#E3E3E3" rx="5.6" ry="5.6" style="stroke:#181818;stroke-width:0.3499999999999999;"/><path d="M59.15,42.7848 L59.15,61.6848 M50.05,48.3848 L68.25,48.3848 M59.15,61.6848 L50.05,72.1848 M59.15,61.6848 L68.25,72.1848 " fill="none" style="stroke:#181818;stroke-width:0.3499999999999999;"/><text fill="#000000" font-family="sans-serif" font-size="9.8" lengthAdjust="spacing" textLength="58.1" x="28" y="548.9326">Administrator</text><ellipse cx="59.15" cy="557.3422" fill="#E3E3E3" rx="5.6" ry="5.6" style="stroke:#181818;stroke-width:0.3499999999999999;"/><path d="M59.15,562.9422 L59.15,581.8422 M50.05,568.5422 L68.25,568.5422 M59.15,581.8422 L50.05,592.3422 M59.15,581.8422 L68.25,592.3422 " fill="none" style="stroke:#181818;stroke-width:0.3499999999999999;"/><rect fill="#E3E3E3" height="22.8348" rx="1.75" ry="1.75" style="stroke:#181818;stroke-width:0.3499999999999999;" width="44.8" x="575.75" y="62.7348"/><text fill="#000000" font-family="sans-serif" font-size="9.8" lengthAdjust="spacing" textLength="35" x="580.65" y="78.21">:System</text><rect fill="#E3E3E3" height="22.8348" rx="1.75" ry="1.75" style="stroke:#181818;stroke-width:0.3499999999999999;" width="44.8" x="575.75" y="538.3574"/><text fill="#000000" font-family="sans-serif" font-size="9.8" lengthAdjust="spacing" textLength="35" x="580.65" y="553.8326">:System</text><rect fill="#FFFFFF" height="439.4879" style="stroke:#181818;stroke-width:0.6999999999999998;" width="7" x="55.65" y="93.2695"/><rect fill="#FFFFFF" height="21.9037" style="stroke:#181818;stroke-width:0.6999999999999998;" width="7" x="594.65" y="109.5732"/><rect fill="#FFFFFF" height="21.9037" style="stroke:#181818;stroke-width:0.6999999999999998;" width="7" x="594.65" y="153.3807"/><rect fill="#FFFFFF" height="71.3111" style="stroke:#181818;stroke-width:0.6999999999999998;" width="7" x="594.65" y="197.1881"/><rect fill="#FFFFFF" height="71.3111" style="stroke:#181818;stroke-width:0.6999999999999998;" width="7" x="594.65" y="323.9482"/><polygon fill="#181818" points="586.25,106.7732,593.25,109.5732,586.25,112.3732,589.05,109.5732" style="stroke:#181818;stroke-width:0.6999999999999998;"/><line style="stroke:#181818;stroke-width:0.6999999999999998;" x1="62.65" x2="590.45" y1="109.5732" y2="109.5732"/><text fill="#000000" font-family="sans-serif" font-size="9.1" font-weight="bold" lengthAdjust="spacing" textLength="4.9" x="67.55" y="105.8894">1</text><text fill="#000000" font-family="sans-serif" font-size="9.1" lengthAdjust="spacing" textLength="92.4" x="75.25" y="105.8894">asks to update a client</text><polygon fill="#181818" points="70.35,128.677,63.35,131.477,70.35,134.277,67.55,131.477" style="stroke:#181818;stroke-width:0.6999999999999998;"/><line style="stroke:#181818;stroke-width:0.6999999999999998;stroke-dasharray:2.0,2.0;" x1="66.15" x2="597.45" y1="131.477" y2="131.477"/><text fill="#000000" font-family="sans-serif" font-size="9.1" font-weight="bold" lengthAdjust="spacing" textLength="4.9" x="74.55" y="127.7931">2</text><text fill="#000000" font-family="sans-serif" font-size="9.1" lengthAdjust="spacing" textLength="202.3" x="82.25" y="127.7931">shows the list of clients and requests confirmation</text><polygon fill="#181818" points="586.25,150.5807,593.25,153.3807,586.25,156.1807,589.05,153.3807" style="stroke:#181818;stroke-width:0.6999999999999998;"/><line style="stroke:#181818;stroke-width:0.6999999999999998;" x1="62.65" x2="590.45" y1="153.3807" y2="153.3807"/><text fill="#000000" font-family="sans-serif" font-size="9.1" font-weight="bold" lengthAdjust="spacing" textLength="4.9" x="67.55" y="149.6968">3</text><text fill="#000000" font-family="sans-serif" font-size="9.1" lengthAdjust="spacing" textLength="164.5" x="75.25" y="149.6968">confirms that he wants to update a client</text><polygon fill="#181818" points="70.35,172.4844,63.35,175.2844,70.35,178.0844,67.55,175.2844" style="stroke:#181818;stroke-width:0.6999999999999998;"/><line style="stroke:#181818;stroke-width:0.6999999999999998;stroke-dasharray:2.0,2.0;" x1="66.15" x2="597.45" y1="175.2844" y2="175.2844"/><text fill="#000000" font-family="sans-serif" font-size="9.1" font-weight="bold" lengthAdjust="spacing" textLength="4.9" x="74.55" y="171.6005">4</text><text fill="#000000" font-family="sans-serif" font-size="9.1" lengthAdjust="spacing" textLength="72.1" x="82.25" y="171.6005">requests Client ID</text><polygon fill="#181818" points="586.25,194.3881,593.25,197.1881,586.25,199.9881,589.05,197.1881" style="stroke:#181818;stroke-width:0.6999999999999998;"/><line style="stroke:#181818;stroke-width:0.6999999999999998;" x1="62.65" x2="590.45" y1="197.1881" y2="197.1881"/><text fill="#000000" font-family="sans-serif" font-size="9.1" font-weight="bold" lengthAdjust="spacing" textLength="4.9" x="67.55" y="193.5042">5</text><text fill="#000000" font-family="sans-serif" font-size="9.1" lengthAdjust="spacing" textLength="86.8" x="75.25" y="193.5042">provides requested ID</text><line style="stroke:#181818;stroke-width:0.6999999999999998;" x1="601.65" x2="631.05" y1="219.0918" y2="219.0918"/><line style="stroke:#181818;stroke-width:0.6999999999999998;" x1="631.05" x2="631.05" y1="219.0918" y2="228.1918"/><line style="stroke:#181818;stroke-width:0.6999999999999998;" x1="602.35" x2="631.05" y1="228.1918" y2="228.1918"/><polygon fill="#181818" points="609.35,225.3918,602.35,228.1918,609.35,230.9918,606.55,228.1918" style="stroke:#181818;stroke-width:0.6999999999999998;"/><text fill="#000000" font-family="sans-serif" font-size="9.1" font-weight="bold" lengthAdjust="spacing" textLength="4.9" x="606.55" y="215.4079">6</text><text fill="#000000" font-family="sans-serif" font-size="9.1" lengthAdjust="spacing" textLength="120.4" x="614.25" y="215.4079">checks if client already exists</text><path d="M7,238.6918 L49.7,238.6918 L49.7,245.1955 L42.7,252.1955 L7,252.1955 L7,238.6918 " fill="#EEEEEE" style="stroke:#000000;stroke-width:1.0499999999999998;"/><rect fill="none" height="288.4656" style="stroke:#000000;stroke-width:1.0499999999999998;" width="701.05" x="7" y="238.6918"/><text fill="#000000" font-family="sans-serif" font-size="9.1" font-weight="bold" lengthAdjust="spacing" textLength="11.2" x="17.5" y="249.2116">alt</text><text fill="#000000" font-family="sans-serif" font-size="7.7" font-weight="bold" lengthAdjust="spacing" textLength="84" x="60.2" y="248.4009">[client does not exist]</text><polygon fill="#181818" points="70.35,265.6992,63.35,268.4992,70.35,271.2992,67.55,268.4992" style="stroke:#181818;stroke-width:0.6999999999999998;"/><line style="stroke:#181818;stroke-width:0.6999999999999998;stroke-dasharray:2.0,2.0;" x1="66.15" x2="597.45" y1="268.4992" y2="268.4992"/><text fill="#000000" font-family="sans-serif" font-size="9.1" font-weight="bold" lengthAdjust="spacing" textLength="4.9" x="74.55" y="264.8153">7</text><text fill="#000000" font-family="sans-serif" font-size="9.1" lengthAdjust="spacing" textLength="178.5" x="82.25" y="264.8153">shows error message (Client does not exist)</text><line style="stroke:#000000;stroke-width:0.6999999999999998;stroke-dasharray:2.0,2.0;" x1="7" x2="708.05" y1="274.7992" y2="274.7992"/><text fill="#000000" font-family="sans-serif" font-size="7.7" font-weight="bold" lengthAdjust="spacing" textLength="52.5" x="10.5" y="283.1083">[client exists]</text><polygon fill="#181818" points="70.35,299.2445,63.35,302.0445,70.35,304.8445,67.55,302.0445" style="stroke:#181818;stroke-width:0.6999999999999998;"/><line style="stroke:#181818;stroke-width:0.6999999999999998;stroke-dasharray:2.0,2.0;" x1="66.15" x2="597.45" y1="302.0445" y2="302.0445"/><text fill="#000000" font-family="sans-serif" font-size="9.1" font-weight="bold" lengthAdjust="spacing" textLength="4.9" x="74.55" y="298.3606">8</text><text fill="#000000" font-family="sans-serif" font-size="9.1" lengthAdjust="spacing" textLength="511" x="82.25" y="298.3606">shows all data of client and requests data to be update (i.e. Name, Vatin, Address, Contact Info (Phone Number, Email), Type)</text><polygon fill="#181818" points="586.25,321.1482,593.25,323.9482,586.25,326.7482,589.05,323.9482" style="stroke:#181818;stroke-width:0.6999999999999998;"/><line style="stroke:#181818;stroke-width:0.6999999999999998;" x1="62.65" x2="590.45" y1="323.9482" y2="323.9482"/><text fill="#000000" font-family="sans-serif" font-size="9.1" font-weight="bold" lengthAdjust="spacing" textLength="4.9" x="67.55" y="320.2644">9</text><text fill="#000000" font-family="sans-serif" font-size="9.1" lengthAdjust="spacing" textLength="117.6" x="75.25" y="320.2644">types/selects requested data</text><line style="stroke:#181818;stroke-width:0.6999999999999998;" x1="601.65" x2="631.05" y1="345.852" y2="345.852"/><line style="stroke:#181818;stroke-width:0.6999999999999998;" x1="631.05" x2="631.05" y1="345.852" y2="354.952"/><line style="stroke:#181818;stroke-width:0.6999999999999998;" x1="602.35" x2="631.05" y1="354.952" y2="354.952"/><polygon fill="#181818" points="609.35,352.152,602.35,354.952,609.35,357.752,606.55,354.952" style="stroke:#181818;stroke-width:0.6999999999999998;"/><text fill="#000000" font-family="sans-serif" font-size="9.1" font-weight="bold" lengthAdjust="spacing" textLength="9.8" x="606.55" y="342.1681">10</text><text fill="#000000" font-family="sans-serif" font-size="9.1" lengthAdjust="spacing" textLength="70.7" x="619.15" y="342.1681">validates the data</text><path d="M14,365.452 L56.7,365.452 L56.7,371.9557 L49.7,378.9557 L14,378.9557 L14,365.452 " fill="#EEEEEE" style="stroke:#000000;stroke-width:1.0499999999999998;"/><rect fill="none" height="156.8055" style="stroke:#000000;stroke-width:1.0499999999999998;" width="687.05" x="14" y="365.452"/><text fill="#000000" font-family="sans-serif" font-size="9.1" font-weight="bold" lengthAdjust="spacing" textLength="11.2" x="24.5" y="375.9718">alt</text><text fill="#000000" font-family="sans-serif" font-size="7.7" font-weight="bold" lengthAdjust="spacing" textLength="48.3" x="67.2" y="375.161">[invalid data]</text><polygon fill="#181818" points="70.35,392.4594,63.35,395.2594,70.35,398.0594,67.55,395.2594" style="stroke:#181818;stroke-width:0.6999999999999998;"/><line style="stroke:#181818;stroke-width:0.6999999999999998;stroke-dasharray:2.0,2.0;" x1="66.15" x2="597.45" y1="395.2594" y2="395.2594"/><text fill="#000000" font-family="sans-serif" font-size="9.1" font-weight="bold" lengthAdjust="spacing" textLength="9.8" x="74.55" y="391.5755">11</text><text fill="#000000" font-family="sans-serif" font-size="9.1" lengthAdjust="spacing" textLength="140" x="87.15" y="391.5755">shows error message (Invalid data)</text><line style="stroke:#000000;stroke-width:0.6999999999999998;stroke-dasharray:2.0,2.0;" x1="14" x2="701.05" y1="401.5594" y2="401.5594"/><text fill="#000000" font-family="sans-serif" font-size="7.7" font-weight="bold" lengthAdjust="spacing" textLength="41.3" x="17.5" y="409.8685">[valid data]</text><line style="stroke:#181818;stroke-width:0.6999999999999998;" x1="598.15" x2="627.55" y1="428.8047" y2="428.8047"/><line style="stroke:#181818;stroke-width:0.6999999999999998;" x1="627.55" x2="627.55" y1="428.8047" y2="437.9047"/><line style="stroke:#181818;stroke-width:0.6999999999999998;" x1="598.85" x2="627.55" y1="437.9047" y2="437.9047"/><polygon fill="#181818" points="605.85,435.1047,598.85,437.9047,605.85,440.7047,603.05,437.9047" style="stroke:#181818;stroke-width:0.6999999999999998;"/><text fill="#000000" font-family="sans-serif" font-size="9.1" font-weight="bold" lengthAdjust="spacing" textLength="9.8" x="603.05" y="425.1208">12</text><text fill="#000000" font-family="sans-serif" font-size="9.1" lengthAdjust="spacing" textLength="77" x="615.65" y="425.1208">updates client data</text><path d="M21,448.4047 L63.7,448.4047 L63.7,454.9084 L56.7,461.9084 L21,461.9084 L21,448.4047 " fill="#EEEEEE" style="stroke:#000000;stroke-width:1.0499999999999998;"/><rect fill="none" height="68.9527" style="stroke:#000000;stroke-width:1.0499999999999998;" width="606.55" x="21" y="448.4047"/><text fill="#000000" font-family="sans-serif" font-size="9.1" font-weight="bold" lengthAdjust="spacing" textLength="11.2" x="31.5" y="458.9245">alt</text><text fill="#000000" font-family="sans-serif" font-size="7.7" font-weight="bold" lengthAdjust="spacing" textLength="57.4" x="74.2" y="458.1138">[system error]</text><polygon fill="#181818" points="70.35,475.4121,63.35,478.2121,70.35,481.0121,67.55,478.2121" style="stroke:#181818;stroke-width:0.6999999999999998;"/><line style="stroke:#181818;stroke-width:0.6999999999999998;stroke-dasharray:2.0,2.0;" x1="66.15" x2="597.45" y1="478.2121" y2="478.2121"/><text fill="#000000" font-family="sans-serif" font-size="9.1" font-weight="bold" lengthAdjust="spacing" textLength="9.8" x="74.55" y="474.5282">13</text><text fill="#000000" font-family="sans-serif" font-size="9.1" lengthAdjust="spacing" textLength="154.7" x="87.15" y="474.5282">shows error message (Database error)</text><line style="stroke:#000000;stroke-width:0.6999999999999998;stroke-dasharray:2.0,2.0;" x1="21" x2="627.55" y1="484.5121" y2="484.5121"/><text fill="#000000" font-family="sans-serif" font-size="7.7" font-weight="bold" lengthAdjust="spacing" textLength="38.5" x="24.5" y="492.8212">[success]</text><polygon fill="#181818" points="70.35,508.9574,63.35,511.7574,70.35,514.5574,67.55,511.7574" style="stroke:#181818;stroke-width:0.6999999999999998;"/><line style="stroke:#181818;stroke-width:0.6999999999999998;stroke-dasharray:2.0,2.0;" x1="66.15" x2="597.45" y1="511.7574" y2="511.7574"/><text fill="#000000" font-family="sans-serif" font-size="9.1" font-weight="bold" lengthAdjust="spacing" textLength="9.8" x="74.55" y="508.0735">14</text><text fill="#000000" font-family="sans-serif" font-size="9.1" lengthAdjust="spacing" textLength="189" x="87.15" y="508.0735">shows all data and displays operation success</text><!--SRC=[fLJ1Zjem4BtdAqQSYCHkxnmg8UY1GrULKlK-s0EnSEpKuq3pzvqu98KkBA3DoSRllNdZDuRtnjKOi8BAEw_Au2k261hAU3ofKUrnHqLiBK4W5T7jx3c0IzJ-QDmEjcYPiYoQAD2YvKWL5FIx8QS8LWPt7NnQ5Aiyox29tZNLXeAiLVG19WjT6MSu1fJj191XiVgUIP5ebAdHHPZCUzLqs2yJsnmmKa9d89yiuENhu60ku3r3zD3KkiCXA6l8nOGTsOCSdBuJ-qM4EhsvzEcF8bCIM349VdkIOK2dvMQaJvQDycvhGeNHU9V4D5sjyR_94w-hW16aoX4xxK_R7eqj4nlMgsTSrS4VZ2OUP4WF0dSTdFTMaf88p71bW3OGwXReZrmbZrIqSK1eBqMTZpraH7oG38KWKrGHiumhJ9VNTF9Hw7t_mmd940ykJlxk3GLQ2v8H_XkAovb8PvBaXeOmf-QLNk4DAvh1BvaLDuE5ra7Cps3fNHHpi7PR3zCVfNS4R-cfpE1RXSRcC_ZPrfG_4sGK0dzXilA2pzFih3sTvm6jwThedyCeCKHeN09S7ZoUtFgCdb_mxuHse-gD9leaU1ouQxIk6-u9oUGxmEDThKH_W-8o_PvVLRhTtqMVt2Wbii-O6IUqcqjjkBROClYQGlgZ-b3o0LTEPxVsiluB]--></g></svg>