<?xml version="1.0" encoding="us-ascii" standalone="no"?><svg xmlns="http://www.w3.org/2000/svg" xmlns:xlink="http://www.w3.org/1999/xlink" contentStyleType="text/css" height="686px" preserveAspectRatio="none" style="width:1001px;height:686px;background:#FFFFFF;" version="1.1" viewBox="0 0 1001 686" width="1001px" zoomAndPan="magnify"><defs/><g><text fill="#000000" font-family="sans-serif" font-size="7" font-weight="bold" lengthAdjust="spacing" textLength="82.5" x="459.75" y="15.0537">Sequence Diagram (SD)</text><rect fill="#FFFFFF" height="569.2334" style="stroke:#181818;stroke-width:0.5;" width="5" x="33.5" y="66.6211"/><rect fill="#FFFFFF" height="193.9111" style="stroke:#181818;stroke-width:0.5;" width="5" x="245.5" y="78.2666"/><rect fill="#FFFFFF" height="15.6455" style="stroke:#181818;stroke-width:0.5;" width="5" x="245.5" y="287.8232"/><rect fill="#FFFFFF" height="316.7402" style="stroke:#181818;stroke-width:0.5;" width="5" x="245.5" y="319.1143"/><rect fill="#FFFFFF" height="140.8096" style="stroke:#181818;stroke-width:0.5;" width="5" x="422.5" y="115.7227"/><rect fill="#FFFFFF" height="278.4492" style="stroke:#181818;stroke-width:0.5;" width="5" x="422.5" y="334.7598"/><rect fill="#FFFFFF" height="109.5186" style="stroke:#181818;stroke-width:0.5;" width="5" x="599.5" y="131.3682"/><rect fill="#FFFFFF" height="247.1582" style="stroke:#181818;stroke-width:0.5;" width="5" x="599.5" y="350.4053"/><rect fill="#FFFFFF" height="15.6455" style="stroke:#181818;stroke-width:0.5;" width="5" x="722" y="410.4873"/><rect fill="#FFFFFF" height="15.6455" style="stroke:#181818;stroke-width:0.5;" width="5" x="781.25" y="147.0137"/><rect fill="#FFFFFF" height="15.6455" style="stroke:#181818;stroke-width:0.5;" width="5" x="833.75" y="178.3047"/><rect fill="#FFFFFF" height="15.6455" style="stroke:#181818;stroke-width:0.5;" width="5" x="902" y="209.5957"/><rect fill="#FFFFFF" height="15.6455" style="stroke:#181818;stroke-width:0.5;" width="5" x="902" y="366.0508"/><rect fill="#FFFFFF" height="76.7275" style="stroke:#181818;stroke-width:0.5;" width="5" x="902" y="505.1904"/><rect fill="none" height="231.5127" style="stroke:#000000;stroke-width:0.75;" width="798.5" x="199" y="389.1963"/><rect fill="none" height="104.5186" style="stroke:#000000;stroke-width:0.75;" width="744.5" x="204" y="512.6904"/><line style="stroke:#181818;stroke-width:0.25;stroke-dasharray:5.0,5.0;" x1="36" x2="36" y1="61.6211" y2="644.8545"/><line style="stroke:#181818;stroke-width:0.25;stroke-dasharray:5.0,5.0;" x1="248" x2="248" y1="61.6211" y2="644.8545"/><line style="stroke:#181818;stroke-width:0.25;stroke-dasharray:5.0,5.0;" x1="424.75" x2="424.75" y1="98.1719" y2="644.8545"/><line style="stroke:#181818;stroke-width:0.25;stroke-dasharray:5.0,5.0;" x1="602" x2="602" y1="61.6211" y2="644.8545"/><line style="stroke:#181818;stroke-width:0.25;stroke-dasharray:5.0,5.0;" x1="724.5" x2="724.5" y1="61.6211" y2="644.8545"/><line style="stroke:#181818;stroke-width:0.25;stroke-dasharray:5.0,5.0;" x1="783.5" x2="783.5" y1="61.6211" y2="644.8545"/><line style="stroke:#181818;stroke-width:0.25;stroke-dasharray:5.0,5.0;" x1="836" x2="836" y1="61.6211" y2="644.8545"/><line style="stroke:#181818;stroke-width:0.25;stroke-dasharray:5.0,5.0;" x1="904.5" x2="904.5" y1="61.6211" y2="644.8545"/><line style="stroke:#181818;stroke-width:0.25;stroke-dasharray:5.0,5.0;" x1="970.5" x2="970.5" y1="482.9844" y2="644.8545"/><text fill="#000000" font-family="sans-serif" font-size="7" lengthAdjust="spacing" textLength="64" x="2.5" y="59.8643">Production Manager</text><ellipse cx="36" cy="26.5605" fill="#E3E3E3" rx="4" ry="4" style="stroke:#181818;stroke-width:0.25;"/><path d="M36,30.5605 L36,44.0605 M29.5,34.5605 L42.5,34.5605 M36,44.0605 L29.5,51.5605 M36,44.0605 L42.5,51.5605 " fill="none" style="stroke:#181818;stroke-width:0.25;"/><text fill="#000000" font-family="sans-serif" font-size="7" lengthAdjust="spacing" textLength="64" x="2.5" y="651.9082">Production Manager</text><ellipse cx="36" cy="657.915" fill="#E3E3E3" rx="4" ry="4" style="stroke:#181818;stroke-width:0.25;"/><path d="M36,661.915 L36,675.415 M29.5,665.915 L42.5,665.915 M36,675.415 L29.5,682.915 M36,675.415 L42.5,682.915 " fill="none" style="stroke:#181818;stroke-width:0.25;"/><rect fill="#E3E3E3" height="16.3105" rx="1.25" ry="1.25" style="stroke:#181818;stroke-width:0.25;" width="78" x="209" y="44.8105"/><text fill="#000000" font-family="sans-serif" font-size="7" lengthAdjust="spacing" textLength="71" x="212.5" y="55.8643">:RegisterComponentUI</text><rect fill="#E3E3E3" height="16.3105" rx="1.25" ry="1.25" style="stroke:#181818;stroke-width:0.25;" width="78" x="209" y="644.3545"/><text fill="#000000" font-family="sans-serif" font-size="7" lengthAdjust="spacing" textLength="71" x="212.5" y="655.4082">:RegisterComponentUI</text><rect fill="#E3E3E3" height="16.3105" rx="1.25" ry="1.25" style="stroke:#181818;stroke-width:0.25;" width="76.5" x="386.75" y="644.3545"/><text fill="#000000" font-family="sans-serif" font-size="7" lengthAdjust="spacing" textLength="69.5" x="390.25" y="655.4082">:ComponentController</text><rect fill="#E3E3E3" height="16.3105" rx="1.25" ry="1.25" style="stroke:#181818;stroke-width:0.25;" width="69" x="567.5" y="44.8105"/><text fill="#000000" font-family="sans-serif" font-size="7" lengthAdjust="spacing" textLength="62" x="571" y="55.8643">:ComponentService</text><rect fill="#E3E3E3" height="16.3105" rx="1.25" ry="1.25" style="stroke:#181818;stroke-width:0.25;" width="69" x="567.5" y="644.3545"/><text fill="#000000" font-family="sans-serif" font-size="7" lengthAdjust="spacing" textLength="62" x="571" y="655.4082">:ComponentService</text><rect fill="#E3E3E3" height="16.3105" rx="1.25" ry="1.25" style="stroke:#181818;stroke-width:0.25;" width="62" x="693.5" y="44.8105"/><text fill="#000000" font-family="sans-serif" font-size="7" lengthAdjust="spacing" textLength="55" x="697" y="55.8643">ProductException</text><rect fill="#E3E3E3" height="16.3105" rx="1.25" ry="1.25" style="stroke:#181818;stroke-width:0.25;" width="62" x="693.5" y="644.3545"/><text fill="#000000" font-family="sans-serif" font-size="7" lengthAdjust="spacing" textLength="55" x="697" y="655.4082">ProductException</text><rect fill="#E3E3E3" height="16.3105" rx="1.25" ry="1.25" style="stroke:#181818;stroke-width:0.25;" width="46.5" x="760.5" y="44.8105"/><text fill="#000000" font-family="sans-serif" font-size="7" lengthAdjust="spacing" textLength="39.5" x="764" y="55.8643">Repositories</text><rect fill="#E3E3E3" height="16.3105" rx="1.25" ry="1.25" style="stroke:#181818;stroke-width:0.25;" width="46.5" x="760.5" y="644.3545"/><text fill="#000000" font-family="sans-serif" font-size="7" lengthAdjust="spacing" textLength="39.5" x="764" y="655.4082">Repositories</text><rect fill="#E3E3E3" height="25.6211" rx="1.25" ry="1.25" style="stroke:#181818;stroke-width:0.25;" width="48.5" x="812" y="35.5"/><text fill="#000000" font-family="sans-serif" font-size="7" lengthAdjust="spacing" textLength="37" x="817.75" y="46.5537">repositories</text><text fill="#000000" font-family="sans-serif" font-size="7" lengthAdjust="spacing" textLength="41.5" x="815.5" y="55.8643">:Repositories</text><rect fill="#E3E3E3" height="25.6211" rx="1.25" ry="1.25" style="stroke:#181818;stroke-width:0.25;" width="48.5" x="812" y="644.3545"/><text fill="#000000" font-family="sans-serif" font-size="7" lengthAdjust="spacing" textLength="37" x="817.75" y="655.4082">repositories</text><text fill="#000000" font-family="sans-serif" font-size="7" lengthAdjust="spacing" textLength="41.5" x="815.5" y="664.7188">:Repositories</text><rect fill="#E3E3E3" height="25.6211" rx="1.25" ry="1.25" style="stroke:#181818;stroke-width:0.25;" width="78" x="865.5" y="35.5"/><text fill="#000000" font-family="sans-serif" font-size="7" lengthAdjust="spacing" textLength="71" x="869" y="46.5537">componentRepository:</text><text fill="#000000" font-family="sans-serif" font-size="7" lengthAdjust="spacing" textLength="70.5" x="869.25" y="55.8643">ComponentRepository</text><rect fill="#E3E3E3" height="25.6211" rx="1.25" ry="1.25" style="stroke:#181818;stroke-width:0.25;" width="78" x="865.5" y="644.3545"/><text fill="#000000" font-family="sans-serif" font-size="7" lengthAdjust="spacing" textLength="71" x="869" y="655.4082">componentRepository:</text><text fill="#000000" font-family="sans-serif" font-size="7" lengthAdjust="spacing" textLength="70.5" x="869.25" y="664.7188">ComponentRepository</text><rect fill="#E3E3E3" height="25.6211" rx="1.25" ry="1.25" style="stroke:#181818;stroke-width:0.25;" width="44" x="948.5" y="644.3545"/><text fill="#000000" font-family="sans-serif" font-size="7" lengthAdjust="spacing" textLength="37" x="952" y="655.4082">component:</text><text fill="#000000" font-family="sans-serif" font-size="7" lengthAdjust="spacing" textLength="36.5" x="952.25" y="664.7188">Component</text><rect fill="#FFFFFF" height="569.2334" style="stroke:#181818;stroke-width:0.5;" width="5" x="33.5" y="66.6211"/><rect fill="#FFFFFF" height="193.9111" style="stroke:#181818;stroke-width:0.5;" width="5" x="245.5" y="78.2666"/><rect fill="#FFFFFF" height="15.6455" style="stroke:#181818;stroke-width:0.5;" width="5" x="245.5" y="287.8232"/><rect fill="#FFFFFF" height="316.7402" style="stroke:#181818;stroke-width:0.5;" width="5" x="245.5" y="319.1143"/><rect fill="#FFFFFF" height="140.8096" style="stroke:#181818;stroke-width:0.5;" width="5" x="422.5" y="115.7227"/><rect fill="#FFFFFF" height="278.4492" style="stroke:#181818;stroke-width:0.5;" width="5" x="422.5" y="334.7598"/><rect fill="#FFFFFF" height="109.5186" style="stroke:#181818;stroke-width:0.5;" width="5" x="599.5" y="131.3682"/><rect fill="#FFFFFF" height="247.1582" style="stroke:#181818;stroke-width:0.5;" width="5" x="599.5" y="350.4053"/><rect fill="#FFFFFF" height="15.6455" style="stroke:#181818;stroke-width:0.5;" width="5" x="722" y="410.4873"/><rect fill="#FFFFFF" height="15.6455" style="stroke:#181818;stroke-width:0.5;" width="5" x="781.25" y="147.0137"/><rect fill="#FFFFFF" height="15.6455" style="stroke:#181818;stroke-width:0.5;" width="5" x="833.75" y="178.3047"/><rect fill="#FFFFFF" height="15.6455" style="stroke:#181818;stroke-width:0.5;" width="5" x="902" y="209.5957"/><rect fill="#FFFFFF" height="15.6455" style="stroke:#181818;stroke-width:0.5;" width="5" x="902" y="366.0508"/><rect fill="#FFFFFF" height="76.7275" style="stroke:#181818;stroke-width:0.5;" width="5" x="902" y="505.1904"/><polygon fill="#181818" points="239.5,76.2666,244.5,78.2666,239.5,80.2666,241.5,78.2666" style="stroke:#181818;stroke-width:0.5;"/><line style="stroke:#181818;stroke-width:0.5;" x1="38.5" x2="242.5" y1="78.2666" y2="78.2666"/><text fill="#000000" font-family="sans-serif" font-size="6.5" font-weight="bold" lengthAdjust="spacing" textLength="3.5" x="42" y="75.6353">1</text><text fill="#000000" font-family="sans-serif" font-size="6.5" lengthAdjust="spacing" textLength="98" x="47.5" y="75.6353">asks to register a new component</text><polygon fill="#181818" points="380.75,91.9121,385.75,93.9121,380.75,95.9121,382.75,93.9121" style="stroke:#181818;stroke-width:0.5;"/><line style="stroke:#181818;stroke-width:0.5;" x1="250.5" x2="383.75" y1="93.9121" y2="93.9121"/><text fill="#000000" font-family="sans-serif" font-size="6.5" font-weight="bold" lengthAdjust="spacing" textLength="3.5" x="254" y="91.2808">2</text><text fill="#000000" font-family="sans-serif" font-size="6.5" lengthAdjust="spacing" textLength="18" x="259.5" y="91.2808">create</text><rect fill="#E3E3E3" height="16.3105" rx="1.25" ry="1.25" style="stroke:#181818;stroke-width:0.25;" width="76.5" x="386.75" y="82.2666"/><text fill="#000000" font-family="sans-serif" font-size="7" lengthAdjust="spacing" textLength="69.5" x="390.25" y="93.3203">:ComponentController</text><polygon fill="#181818" points="416.5,113.7227,421.5,115.7227,416.5,117.7227,418.5,115.7227" style="stroke:#181818;stroke-width:0.5;"/><line style="stroke:#181818;stroke-width:0.5;" x1="250.5" x2="419.5" y1="115.7227" y2="115.7227"/><text fill="#000000" font-family="sans-serif" font-size="6.5" font-weight="bold" lengthAdjust="spacing" textLength="3.5" x="254" y="113.0913">3</text><text fill="#000000" font-family="sans-serif" font-size="6.5" lengthAdjust="spacing" textLength="49.5" x="259.5" y="113.0913">getComponents()</text><polygon fill="#181818" points="593.5,129.3682,598.5,131.3682,593.5,133.3682,595.5,131.3682" style="stroke:#181818;stroke-width:0.5;"/><line style="stroke:#181818;stroke-width:0.5;" x1="427.5" x2="596.5" y1="131.3682" y2="131.3682"/><text fill="#000000" font-family="sans-serif" font-size="6.5" font-weight="bold" lengthAdjust="spacing" textLength="3.5" x="431" y="128.7368">4</text><text fill="#000000" font-family="sans-serif" font-size="6.5" lengthAdjust="spacing" textLength="49.5" x="436.5" y="128.7368">getComponents()</text><polygon fill="#181818" points="775.25,145.0137,780.25,147.0137,775.25,149.0137,777.25,147.0137" style="stroke:#181818;stroke-width:0.5;"/><line style="stroke:#181818;stroke-width:0.5;" x1="604.5" x2="778.25" y1="147.0137" y2="147.0137"/><text fill="#000000" font-family="sans-serif" font-size="6.5" font-weight="bold" lengthAdjust="spacing" textLength="3.5" x="608" y="144.3823">5</text><text fill="#000000" font-family="sans-serif" font-size="6.5" lengthAdjust="spacing" textLength="37.5" x="613.5" y="144.3823">getInstance()</text><polygon fill="#181818" points="610,160.6592,605,162.6592,610,164.6592,608,162.6592" style="stroke:#181818;stroke-width:0.5;"/><line style="stroke:#181818;stroke-width:0.5;stroke-dasharray:2.0,2.0;" x1="607" x2="783.25" y1="162.6592" y2="162.6592"/><text fill="#000000" font-family="sans-serif" font-size="6.5" font-weight="bold" lengthAdjust="spacing" textLength="3.5" x="613" y="160.0278">6</text><text fill="#000000" font-family="sans-serif" font-size="6.5" lengthAdjust="spacing" textLength="33.5" x="618.5" y="160.0278">repositories</text><polygon fill="#181818" points="827.75,176.3047,832.75,178.3047,827.75,180.3047,829.75,178.3047" style="stroke:#181818;stroke-width:0.5;"/><line style="stroke:#181818;stroke-width:0.5;" x1="604.5" x2="830.75" y1="178.3047" y2="178.3047"/><text fill="#000000" font-family="sans-serif" font-size="6.5" font-weight="bold" lengthAdjust="spacing" textLength="3.5" x="608" y="175.6733">7</text><text fill="#000000" font-family="sans-serif" font-size="6.5" lengthAdjust="spacing" textLength="77" x="613.5" y="175.6733">getComponentRepository()</text><polygon fill="#181818" points="610,191.9502,605,193.9502,610,195.9502,608,193.9502" style="stroke:#181818;stroke-width:0.5;"/><line style="stroke:#181818;stroke-width:0.5;stroke-dasharray:2.0,2.0;" x1="607" x2="835.75" y1="193.9502" y2="193.9502"/><text fill="#000000" font-family="sans-serif" font-size="6.5" font-weight="bold" lengthAdjust="spacing" textLength="3.5" x="613" y="191.3188">8</text><text fill="#000000" font-family="sans-serif" font-size="6.5" lengthAdjust="spacing" textLength="63" x="618.5" y="191.3188">componentRepository</text><polygon fill="#181818" points="896,207.5957,901,209.5957,896,211.5957,898,209.5957" style="stroke:#181818;stroke-width:0.5;"/><line style="stroke:#181818;stroke-width:0.5;" x1="604.5" x2="899" y1="209.5957" y2="209.5957"/><text fill="#000000" font-family="sans-serif" font-size="6.5" font-weight="bold" lengthAdjust="spacing" textLength="3.5" x="608" y="206.9644">9</text><text fill="#000000" font-family="sans-serif" font-size="6.5" lengthAdjust="spacing" textLength="57" x="613.5" y="206.9644">getAllComponents()</text><polygon fill="#181818" points="610,223.2412,605,225.2412,610,227.2412,608,225.2412" style="stroke:#181818;stroke-width:0.5;"/><line style="stroke:#181818;stroke-width:0.5;stroke-dasharray:2.0,2.0;" x1="607" x2="904" y1="225.2412" y2="225.2412"/><text fill="#000000" font-family="sans-serif" font-size="6.5" font-weight="bold" lengthAdjust="spacing" textLength="7" x="613" y="222.6099">10</text><text fill="#000000" font-family="sans-serif" font-size="6.5" lengthAdjust="spacing" textLength="35.5" x="622" y="222.6099">components</text><polygon fill="#181818" points="433,238.8867,428,240.8867,433,242.8867,431,240.8867" style="stroke:#181818;stroke-width:0.5;"/><line style="stroke:#181818;stroke-width:0.5;stroke-dasharray:2.0,2.0;" x1="430" x2="601.5" y1="240.8867" y2="240.8867"/><text fill="#000000" font-family="sans-serif" font-size="6.5" font-weight="bold" lengthAdjust="spacing" textLength="7" x="436" y="238.2554">11</text><text fill="#000000" font-family="sans-serif" font-size="6.5" lengthAdjust="spacing" textLength="35.5" x="445" y="238.2554">components</text><polygon fill="#181818" points="256,254.5322,251,256.5322,256,258.5322,254,256.5322" style="stroke:#181818;stroke-width:0.5;"/><line style="stroke:#181818;stroke-width:0.5;stroke-dasharray:2.0,2.0;" x1="253" x2="424.5" y1="256.5322" y2="256.5322"/><text fill="#000000" font-family="sans-serif" font-size="6.5" font-weight="bold" lengthAdjust="spacing" textLength="7" x="259" y="253.9009">12</text><text fill="#000000" font-family="sans-serif" font-size="6.5" lengthAdjust="spacing" textLength="35.5" x="268" y="253.9009">components</text><polygon fill="#181818" points="44,270.1777,39,272.1777,44,274.1777,42,272.1777" style="stroke:#181818;stroke-width:0.5;"/><line style="stroke:#181818;stroke-width:0.5;stroke-dasharray:2.0,2.0;" x1="41" x2="247.5" y1="272.1777" y2="272.1777"/><text fill="#000000" font-family="sans-serif" font-size="6.5" font-weight="bold" lengthAdjust="spacing" textLength="7" x="47" y="269.5464">13</text><text fill="#000000" font-family="sans-serif" font-size="6.5" lengthAdjust="spacing" textLength="161" x="56" y="269.5464">shows the list of components and requests confirmation</text><polygon fill="#181818" points="239.5,285.8232,244.5,287.8232,239.5,289.8232,241.5,287.8232" style="stroke:#181818;stroke-width:0.5;"/><line style="stroke:#181818;stroke-width:0.5;" x1="38.5" x2="242.5" y1="287.8232" y2="287.8232"/><text fill="#000000" font-family="sans-serif" font-size="6.5" font-weight="bold" lengthAdjust="spacing" textLength="7" x="42" y="285.1919">14</text><text fill="#000000" font-family="sans-serif" font-size="6.5" lengthAdjust="spacing" textLength="149.5" x="51" y="285.1919">confirms that he wants to register a new component</text><polygon fill="#181818" points="44,301.4688,39,303.4688,44,305.4688,42,303.4688" style="stroke:#181818;stroke-width:0.5;"/><line style="stroke:#181818;stroke-width:0.5;stroke-dasharray:2.0,2.0;" x1="41" x2="247.5" y1="303.4688" y2="303.4688"/><text fill="#000000" font-family="sans-serif" font-size="6.5" font-weight="bold" lengthAdjust="spacing" textLength="7" x="47" y="300.8374">15</text><text fill="#000000" font-family="sans-serif" font-size="6.5" lengthAdjust="spacing" textLength="110" x="56" y="300.8374">requests data (i.e. Name, Description)</text><polygon fill="#181818" points="239.5,317.1143,244.5,319.1143,239.5,321.1143,241.5,319.1143" style="stroke:#181818;stroke-width:0.5;"/><line style="stroke:#181818;stroke-width:0.5;" x1="38.5" x2="242.5" y1="319.1143" y2="319.1143"/><text fill="#000000" font-family="sans-serif" font-size="6.5" font-weight="bold" lengthAdjust="spacing" textLength="7" x="42" y="316.4829">16</text><text fill="#000000" font-family="sans-serif" font-size="6.5" lengthAdjust="spacing" textLength="61" x="51" y="316.4829">types requested data</text><polygon fill="#181818" points="416.5,332.7598,421.5,334.7598,416.5,336.7598,418.5,334.7598" style="stroke:#181818;stroke-width:0.5;"/><line style="stroke:#181818;stroke-width:0.5;" x1="250.5" x2="419.5" y1="334.7598" y2="334.7598"/><text fill="#000000" font-family="sans-serif" font-size="6.5" font-weight="bold" lengthAdjust="spacing" textLength="7" x="254" y="332.1284">17</text><text fill="#000000" font-family="sans-serif" font-size="6.5" lengthAdjust="spacing" textLength="119" x="263" y="332.1284">registerComponent(id, name, description)</text><polygon fill="#181818" points="593.5,348.4053,598.5,350.4053,593.5,352.4053,595.5,350.4053" style="stroke:#181818;stroke-width:0.5;"/><line style="stroke:#181818;stroke-width:0.5;" x1="427.5" x2="596.5" y1="350.4053" y2="350.4053"/><text fill="#000000" font-family="sans-serif" font-size="6.5" font-weight="bold" lengthAdjust="spacing" textLength="7" x="431" y="347.7739">18</text><text fill="#000000" font-family="sans-serif" font-size="6.5" lengthAdjust="spacing" textLength="119" x="440" y="347.7739">registerComponent(id, name, description)</text><polygon fill="#181818" points="896,364.0508,901,366.0508,896,368.0508,898,366.0508" style="stroke:#181818;stroke-width:0.5;"/><line style="stroke:#181818;stroke-width:0.5;" x1="604.5" x2="899" y1="366.0508" y2="366.0508"/><text fill="#000000" font-family="sans-serif" font-size="6.5" font-weight="bold" lengthAdjust="spacing" textLength="7" x="608" y="363.4194">19</text><text fill="#000000" font-family="sans-serif" font-size="6.5" lengthAdjust="spacing" textLength="69.5" x="617" y="363.4194">getComponentExists(id)</text><polygon fill="#181818" points="610,379.6963,605,381.6963,610,383.6963,608,381.6963" style="stroke:#181818;stroke-width:0.5;"/><line style="stroke:#181818;stroke-width:0.5;stroke-dasharray:2.0,2.0;" x1="607" x2="904" y1="381.6963" y2="381.6963"/><text fill="#000000" font-family="sans-serif" font-size="6.5" font-weight="bold" lengthAdjust="spacing" textLength="7" x="613" y="379.0649">20</text><text fill="#000000" font-family="sans-serif" font-size="6.5" lengthAdjust="spacing" textLength="26.5" x="622" y="379.0649">true/false</text><path d="M199,389.1963 L229.5,389.1963 L229.5,393.8418 L224.5,398.8418 L199,398.8418 L199,389.1963 " fill="#EEEEEE" style="stroke:#000000;stroke-width:0.75;"/><rect fill="none" height="231.5127" style="stroke:#000000;stroke-width:0.75;" width="798.5" x="199" y="389.1963"/><text fill="#000000" font-family="sans-serif" font-size="6.5" font-weight="bold" lengthAdjust="spacing" textLength="8" x="206.5" y="396.7104">alt</text><text fill="#000000" font-family="sans-serif" font-size="5.5" font-weight="bold" lengthAdjust="spacing" textLength="15.5" x="237" y="396.1313">[true]</text><polygon fill="#181818" points="716,408.4873,721,410.4873,716,412.4873,718,410.4873" style="stroke:#181818;stroke-width:0.5;"/><line style="stroke:#181818;stroke-width:0.5;" x1="604.5" x2="719" y1="410.4873" y2="410.4873"/><text fill="#000000" font-family="sans-serif" font-size="6.5" font-weight="bold" lengthAdjust="spacing" textLength="7" x="608" y="407.856">21</text><text fill="#000000" font-family="sans-serif" font-size="6.5" lengthAdjust="spacing" textLength="99" x="617" y="407.856">throw componentAlreadyExists(id)</text><polygon fill="#181818" points="610,424.1328,605,426.1328,610,428.1328,608,426.1328" style="stroke:#181818;stroke-width:0.5;"/><line style="stroke:#181818;stroke-width:0.5;stroke-dasharray:2.0,2.0;" x1="607" x2="724" y1="426.1328" y2="426.1328"/><text fill="#000000" font-family="sans-serif" font-size="6.5" font-weight="bold" lengthAdjust="spacing" textLength="7" x="613" y="423.5015">22</text><text fill="#000000" font-family="sans-serif" font-size="6.5" lengthAdjust="spacing" textLength="51.5" x="622" y="423.5015">Exception Thrown</text><polygon fill="#181818" points="433,439.7783,428,441.7783,433,443.7783,431,441.7783" style="stroke:#181818;stroke-width:0.5;"/><line style="stroke:#181818;stroke-width:0.5;stroke-dasharray:2.0,2.0;" x1="430" x2="599" y1="441.7783" y2="441.7783"/><text fill="#000000" font-family="sans-serif" font-size="6.5" font-weight="bold" lengthAdjust="spacing" textLength="7" x="436" y="439.147">23</text><text fill="#000000" font-family="sans-serif" font-size="6.5" lengthAdjust="spacing" textLength="151" x="445" y="439.147">show error message (Component already registered)</text><polygon fill="#181818" points="256,455.4238,251,457.4238,256,459.4238,254,457.4238" style="stroke:#181818;stroke-width:0.5;"/><line style="stroke:#181818;stroke-width:0.5;stroke-dasharray:2.0,2.0;" x1="253" x2="422" y1="457.4238" y2="457.4238"/><text fill="#000000" font-family="sans-serif" font-size="6.5" font-weight="bold" lengthAdjust="spacing" textLength="7" x="259" y="454.7925">24</text><text fill="#000000" font-family="sans-serif" font-size="6.5" lengthAdjust="spacing" textLength="151" x="268" y="454.7925">show error message (Component already registered)</text><line style="stroke:#000000;stroke-width:0.5;stroke-dasharray:2.0,2.0;" x1="199" x2="997.5" y1="461.9238" y2="461.9238"/><polygon fill="#181818" points="942.5,472.0693,947.5,474.0693,942.5,476.0693,944.5,474.0693" style="stroke:#181818;stroke-width:0.5;"/><line style="stroke:#181818;stroke-width:0.5;" x1="604.5" x2="945.5" y1="474.0693" y2="474.0693"/><text fill="#000000" font-family="sans-serif" font-size="6.5" font-weight="bold" lengthAdjust="spacing" textLength="7" x="608" y="471.438">25</text><text fill="#000000" font-family="sans-serif" font-size="6.5" lengthAdjust="spacing" textLength="82.5" x="617" y="471.438">create(id, name, description)</text><rect fill="#E3E3E3" height="25.6211" rx="1.25" ry="1.25" style="stroke:#181818;stroke-width:0.25;" width="44" x="948.5" y="462.4238"/><text fill="#000000" font-family="sans-serif" font-size="7" lengthAdjust="spacing" textLength="37" x="952" y="473.4775">component:</text><text fill="#000000" font-family="sans-serif" font-size="7" lengthAdjust="spacing" textLength="36.5" x="952.25" y="482.7881">Component</text><polygon fill="#181818" points="896,503.1904,901,505.1904,896,507.1904,898,505.1904" style="stroke:#181818;stroke-width:0.5;"/><line style="stroke:#181818;stroke-width:0.5;" x1="604.5" x2="899" y1="505.1904" y2="505.1904"/><text fill="#000000" font-family="sans-serif" font-size="6.5" font-weight="bold" lengthAdjust="spacing" textLength="7" x="608" y="502.5591">26</text><text fill="#000000" font-family="sans-serif" font-size="6.5" lengthAdjust="spacing" textLength="49" x="617" y="502.5591">save(component)</text><path d="M204,512.6904 L234.5,512.6904 L234.5,517.3359 L229.5,522.3359 L204,522.3359 L204,512.6904 " fill="#EEEEEE" style="stroke:#000000;stroke-width:0.75;"/><rect fill="none" height="104.5186" style="stroke:#000000;stroke-width:0.75;" width="744.5" x="204" y="512.6904"/><text fill="#000000" font-family="sans-serif" font-size="6.5" font-weight="bold" lengthAdjust="spacing" textLength="8" x="211.5" y="520.2046">alt</text><text fill="#000000" font-family="sans-serif" font-size="5.5" font-weight="bold" lengthAdjust="spacing" textLength="41" x="242" y="519.6255">[system error]</text><polygon fill="#181818" points="610,531.9814,605,533.9814,610,535.9814,608,533.9814" style="stroke:#181818;stroke-width:0.5;"/><line style="stroke:#181818;stroke-width:0.5;stroke-dasharray:2.0,2.0;" x1="607" x2="901.5" y1="533.9814" y2="533.9814"/><text fill="#000000" font-family="sans-serif" font-size="6.5" font-weight="bold" lengthAdjust="spacing" textLength="7" x="613" y="531.3501">27</text><text fill="#000000" font-family="sans-serif" font-size="6.5" lengthAdjust="spacing" textLength="42.5" x="622" y="531.3501">Database error</text><polygon fill="#181818" points="433,547.627,428,549.627,433,551.627,431,549.627" style="stroke:#181818;stroke-width:0.5;"/><line style="stroke:#181818;stroke-width:0.5;stroke-dasharray:2.0,2.0;" x1="430" x2="599" y1="549.627" y2="549.627"/><text fill="#000000" font-family="sans-serif" font-size="6.5" font-weight="bold" lengthAdjust="spacing" textLength="7" x="436" y="546.9956">28</text><text fill="#000000" font-family="sans-serif" font-size="6.5" lengthAdjust="spacing" textLength="107" x="445" y="546.9956">show error message (Database error)</text><polygon fill="#181818" points="256,563.2725,251,565.2725,256,567.2725,254,565.2725" style="stroke:#181818;stroke-width:0.5;"/><line style="stroke:#181818;stroke-width:0.5;stroke-dasharray:2.0,2.0;" x1="253" x2="422" y1="565.2725" y2="565.2725"/><text fill="#000000" font-family="sans-serif" font-size="6.5" font-weight="bold" lengthAdjust="spacing" textLength="7" x="259" y="562.6411">29</text><text fill="#000000" font-family="sans-serif" font-size="6.5" lengthAdjust="spacing" textLength="107" x="268" y="562.6411">show error message (Database error)</text><line style="stroke:#000000;stroke-width:0.5;stroke-dasharray:2.0,2.0;" x1="204" x2="948.5" y1="569.7725" y2="569.7725"/><polygon fill="#181818" points="610,579.918,605,581.918,610,583.918,608,581.918" style="stroke:#181818;stroke-width:0.5;"/><line style="stroke:#181818;stroke-width:0.5;stroke-dasharray:2.0,2.0;" x1="607" x2="904" y1="581.918" y2="581.918"/><text fill="#000000" font-family="sans-serif" font-size="6.5" font-weight="bold" lengthAdjust="spacing" textLength="7" x="613" y="579.2866">30</text><text fill="#000000" font-family="sans-serif" font-size="6.5" lengthAdjust="spacing" textLength="32" x="622" y="579.2866">component</text><polygon fill="#181818" points="433,595.5635,428,597.5635,433,599.5635,431,597.5635" style="stroke:#181818;stroke-width:0.5;"/><line style="stroke:#181818;stroke-width:0.5;stroke-dasharray:2.0,2.0;" x1="430" x2="601.5" y1="597.5635" y2="597.5635"/><text fill="#000000" font-family="sans-serif" font-size="6.5" font-weight="bold" lengthAdjust="spacing" textLength="7" x="436" y="594.9321">31</text><text fill="#000000" font-family="sans-serif" font-size="6.5" lengthAdjust="spacing" textLength="32" x="445" y="594.9321">component</text><polygon fill="#181818" points="256,611.209,251,613.209,256,615.209,254,613.209" style="stroke:#181818;stroke-width:0.5;"/><line style="stroke:#181818;stroke-width:0.5;stroke-dasharray:2.0,2.0;" x1="253" x2="424.5" y1="613.209" y2="613.209"/><text fill="#000000" font-family="sans-serif" font-size="6.5" font-weight="bold" lengthAdjust="spacing" textLength="7" x="259" y="610.5776">32</text><text fill="#000000" font-family="sans-serif" font-size="6.5" lengthAdjust="spacing" textLength="32" x="268" y="610.5776">component</text><polygon fill="#181818" points="41.5,633.8545,36.5,635.8545,41.5,637.8545,39.5,635.8545" style="stroke:#181818;stroke-width:0.5;"/><line style="stroke:#181818;stroke-width:0.5;stroke-dasharray:2.0,2.0;" x1="38.5" x2="247.5" y1="635.8545" y2="635.8545"/><text fill="#000000" font-family="sans-serif" font-size="6.5" font-weight="bold" lengthAdjust="spacing" textLength="7" x="44.5" y="633.2231">33</text><text fill="#000000" font-family="sans-serif" font-size="6.5" lengthAdjust="spacing" textLength="186" x="53.5" y="633.2231">shows all data and displays operation success or error message</text><!--SRC=[jLPDJ-Cm4BtdLumujGZOUmuheRO7fEL3BQpsmCKuGx58xApjKlhlT-nGrqcTj4NQNA3ncpSpVlCHyovapJIhe59IyJUjAWIhLvYPS58p_iwMkB2R4a4ZjqmkonXWtbYXra8kuPML1hFC2alG1VvTeUG8Ky6M3ZTQJCTPnbPMoLNrWfh-vrPfE7lGgbXnAvI4MoR9bpu3Pk1wUfkH1okug9cqS9RFSIcCHJrHLQqaIljquv5FDnrW04oKj5gLvHVbv77-gm-wGFqXE7hSOlwx3ViASVR9iNQ1UjJipwIDccEjZA2S11gFcCyU5cs8ZY3FCazPj0tuDhu0tUJFShB_rfidq3rqCKbpD_Ut3_Ttixj7huluO1Qz140F_ONBdtJFa1FqtO1LL0gD6C10udhdsHi41fB6lt0FcHE9q-3yd8YuHaAaZkbmYJQ4PqRZ00h4Nag87cz81AJTW7sBmydSEd6FioSQ9rt3SoCDrJp73akBoGlTFVKKbqr8ESJAxq4B7ARQ1TN9RQVpWV1IqMs3Ss8a2cSuoDwRIr0rGL-NPQychN2F2IRb9P7Eu5KVykCJsjLa3sb4w0ggNO_RhadOHdQXc5qFa8dhjvm6grfJgxqXbDHfe5uZ5c2oe9AY4MkiQtlvAdJ5t6ZAEjpR3enx-0llo9a5Sh1cZlEKhewxDaGS0YgOPJ0ILtW5Twp22vYYuLhusJa-9aAxgT5i-R3mX8CnD2hb8O5GQIDHN83qGHJT88wUAD_WFNhIf2PygyTdd-JPaB__rpAvt_e_cWL-OiVi1rNQvYDYxoJAcfOdEQKlZgZ8hajQ2SLc8DzMpcx_fW3qVfTNMDdmw9p9f4MKOHzfF0kQrWJKcZvVAZI6lbbW5FIY2_1vX9f1oYH96is8xt1swT1_VWrSUjZnqGBkg-CXdcJ96lQ1et1oGBjZwdLRIsP32LVDrIH11ujxIjFZXHdyukWbEInocsdSJtLGsYvJYWHJxNXKnkt1VQ3cZnLZ_ufESXDlny7hEebrRso7ovD5bdhNMRJRFSlAibbRRhCMmjGbsnXGDMg_Li6iE2VjW3HiAPdQPj5Fyl0F]--></g></svg>