<?xml version="1.0" encoding="us-ascii" standalone="no"?><svg xmlns="http://www.w3.org/2000/svg" xmlns:xlink="http://www.w3.org/1999/xlink" contentStyleType="text/css" height="840.7px" preserveAspectRatio="none" style="width:795px;height:840px;background:#FFFFFF;" version="1.1" viewBox="0 0 795 840" width="795.2px" zoomAndPan="magnify"><defs/><g><!--cluster UI--><g id="cluster_UI"><rect fill="none" height="70.7" rx="1.75" ry="1.75" style="stroke:#000000;stroke-width:1.0499999999999998;" width="141.4" x="357" y="4.9"/><text fill="#000000" font-family="sans-serif" font-size="9.8" font-weight="bold" lengthAdjust="spacing" textLength="9.8" x="422.8" y="16.8752">UI</text></g><!--cluster Controller--><g id="cluster_Controller"><rect fill="none" height="96.6" rx="1.75" ry="1.75" style="stroke:#000000;stroke-width:1.0499999999999998;" width="280" x="287.7" y="98.7"/><text fill="#000000" font-family="sans-serif" font-size="9.8" font-weight="bold" lengthAdjust="spacing" textLength="49.7" x="402.85" y="110.6752">Controller</text></g><!--cluster Service--><g id="cluster_Service"><rect fill="none" height="96.6" rx="1.75" ry="1.75" style="stroke:#000000;stroke-width:1.0499999999999998;" width="280" x="287.7" y="218.4"/><text fill="#000000" font-family="sans-serif" font-size="9.8" font-weight="bold" lengthAdjust="spacing" textLength="37.8" x="408.8" y="230.3752">Service</text></g><!--cluster Repository--><g id="cluster_Repository"><rect fill="none" height="238" rx="1.75" ry="1.75" style="stroke:#000000;stroke-width:1.0499999999999998;" width="318.5" x="4.9" y="350.7"/><text fill="#000000" font-family="sans-serif" font-size="9.8" font-weight="bold" lengthAdjust="spacing" textLength="53.2" x="137.55" y="362.6752">Repository</text></g><!--cluster Model--><g id="cluster_Model"><rect fill="none" height="212.1" rx="1.75" ry="1.75" style="stroke:#000000;stroke-width:1.0499999999999998;" width="186.2" x="604.8" y="624.4"/><text fill="#000000" font-family="sans-serif" font-size="9.8" font-weight="bold" lengthAdjust="spacing" textLength="30.8" x="682.5" y="636.3752">Model</text></g><!--cluster Exception--><g id="cluster_Exception"><rect fill="none" height="205.45" rx="1.75" ry="1.75" style="stroke:#000000;stroke-width:1.0499999999999998;" width="245" x="464.1" y="363.65"/><text fill="#000000" font-family="sans-serif" font-size="9.8" font-weight="bold" lengthAdjust="spacing" textLength="49" x="562.1" y="375.6252">Exception</text></g><!--class RegisterComponentUI--><g id="elem_RegisterComponentUI"><rect codeLine="7" fill="#F1F1F1" height="33.6" id="RegisterComponentUI" rx="1.75" ry="1.75" style="stroke:#181818;stroke-width:0.3499999999999999;" width="119" x="368.2" y="30.8"/><ellipse cx="378.7" cy="42" fill="#ADD1B2" rx="7.7" ry="7.7" style="stroke:#181818;stroke-width:0.6999999999999998;"/><path d="M380.6359,39.1125 Q380.7453,38.9594 380.8766,38.8828 Q381.0078,38.8062 381.1609,38.8062 Q381.4234,38.8062 381.5875,38.9922 Q381.7516,39.1672 381.7516,39.5937 L381.7516,40.6109 Q381.7516,41.0375 381.5875,41.2234 Q381.4234,41.4094 381.1609,41.4094 Q380.9203,41.4094 380.7781,41.2672 Q380.6359,41.1359 380.5594,40.775 Q380.5266,40.5234 380.3953,40.3922 Q380.1656,40.1297 379.7391,39.9766 Q379.3125,39.8234 378.875,39.8234 Q378.3391,39.8234 377.8906,40.0531 Q377.4531,40.2828 377.1031,40.8078 Q376.7641,41.3328 376.7641,42.0547 L376.7641,42.8203 Q376.7641,43.6844 377.3875,44.2641 Q378.0109,44.8328 379.1266,44.8328 Q379.7828,44.8328 380.2422,44.6578 Q380.5156,44.5484 380.8109,44.2422 Q380.9969,44.0562 381.0953,44.0016 Q381.2047,43.9469 381.3469,43.9469 Q381.5766,43.9469 381.7516,44.1328 Q381.9375,44.3078 381.9375,44.5484 Q381.9375,44.7891 381.6969,45.0734 Q381.3469,45.4781 380.7891,45.7078 Q380.0344,46.025 379.1266,46.025 Q378.0656,46.025 377.2234,45.5875 Q376.5344,45.2375 376.0531,44.4937 Q375.5719,43.7391 375.5719,42.8422 L375.5719,42.0328 Q375.5719,41.1031 375.9984,40.3047 Q376.4359,39.4953 377.2016,39.0687 Q377.9672,38.6312 378.8312,38.6312 Q379.3453,38.6312 379.7937,38.7516 Q380.2531,38.8609 380.6359,39.1125 Z " fill="#000000"/><text fill="#000000" font-family="sans-serif" font-size="9.8" lengthAdjust="spacing" textLength="96.6" x="388.5" y="46.0578">RegisterComponentUI</text><line style="stroke:#181818;stroke-width:0.3499999999999999;" x1="368.9" x2="486.5" y1="53.2" y2="53.2"/><line style="stroke:#181818;stroke-width:0.3499999999999999;" x1="368.9" x2="486.5" y1="58.8" y2="58.8"/></g><!--class ComponentController--><g id="elem_ComponentController"><rect codeLine="12" fill="#F1F1F1" height="59.6695" id="ComponentController" rx="1.75" ry="1.75" style="stroke:#181818;stroke-width:0.3499999999999999;" width="256.9" x="299.25" y="124.6"/><ellipse cx="377.475" cy="135.8" fill="#ADD1B2" rx="7.7" ry="7.7" style="stroke:#181818;stroke-width:0.6999999999999998;"/><path d="M379.4109,132.9125 Q379.5203,132.7594 379.6516,132.6828 Q379.7828,132.6062 379.9359,132.6062 Q380.1984,132.6062 380.3625,132.7922 Q380.5266,132.9672 380.5266,133.3937 L380.5266,134.4109 Q380.5266,134.8375 380.3625,135.0234 Q380.1984,135.2094 379.9359,135.2094 Q379.6953,135.2094 379.5531,135.0672 Q379.4109,134.9359 379.3344,134.575 Q379.3016,134.3234 379.1703,134.1922 Q378.9406,133.9297 378.5141,133.7766 Q378.0875,133.6234 377.65,133.6234 Q377.1141,133.6234 376.6656,133.8531 Q376.2281,134.0828 375.8781,134.6078 Q375.5391,135.1328 375.5391,135.8547 L375.5391,136.6203 Q375.5391,137.4844 376.1625,138.0641 Q376.7859,138.6328 377.9016,138.6328 Q378.5578,138.6328 379.0172,138.4578 Q379.2906,138.3484 379.5859,138.0422 Q379.7719,137.8562 379.8703,137.8016 Q379.9797,137.7469 380.1219,137.7469 Q380.3516,137.7469 380.5266,137.9328 Q380.7125,138.1078 380.7125,138.3484 Q380.7125,138.5891 380.4719,138.8734 Q380.1219,139.2781 379.5641,139.5078 Q378.8094,139.825 377.9016,139.825 Q376.8406,139.825 375.9984,139.3875 Q375.3094,139.0375 374.8281,138.2937 Q374.3469,137.5391 374.3469,136.6422 L374.3469,135.8328 Q374.3469,134.9031 374.7734,134.1047 Q375.2109,133.2953 375.9766,132.8687 Q376.7422,132.4312 377.6062,132.4312 Q378.1203,132.4312 378.5687,132.5516 Q379.0281,132.6609 379.4109,132.9125 Z " fill="#000000"/><text fill="#000000" font-family="sans-serif" font-size="9.8" lengthAdjust="spacing" textLength="94.5" x="391.825" y="139.8578">ComponentController</text><line style="stroke:#181818;stroke-width:0.3499999999999999;" x1="299.95" x2="555.45" y1="147" y2="147"/><line style="stroke:#181818;stroke-width:0.3499999999999999;" x1="299.95" x2="555.45" y1="152.6" y2="152.6"/><text fill="#000000" font-family="sans-serif" font-size="9.8" lengthAdjust="spacing" textLength="168.7" x="303.45" y="165.9752">+getComponents() : List&lt;Component&gt;</text><text fill="#000000" font-family="sans-serif" font-size="9.8" lengthAdjust="spacing" textLength="248.5" x="303.45" y="179.01">+registerComponent(id, name, description) : Component</text></g><!--class ComponentService--><g id="elem_ComponentService"><rect codeLine="19" fill="#F1F1F1" height="59.6695" id="ComponentService" rx="1.75" ry="1.75" style="stroke:#181818;stroke-width:0.3499999999999999;" width="256.9" x="299.25" y="244.3"/><ellipse cx="382.725" cy="255.5" fill="#ADD1B2" rx="7.7" ry="7.7" style="stroke:#181818;stroke-width:0.6999999999999998;"/><path d="M384.6609,252.6125 Q384.7703,252.4594 384.9016,252.3828 Q385.0328,252.3062 385.1859,252.3062 Q385.4484,252.3062 385.6125,252.4922 Q385.7766,252.6672 385.7766,253.0937 L385.7766,254.1109 Q385.7766,254.5375 385.6125,254.7234 Q385.4484,254.9094 385.1859,254.9094 Q384.9453,254.9094 384.8031,254.7672 Q384.6609,254.6359 384.5844,254.275 Q384.5516,254.0234 384.4203,253.8922 Q384.1906,253.6297 383.7641,253.4766 Q383.3375,253.3234 382.9,253.3234 Q382.3641,253.3234 381.9156,253.5531 Q381.4781,253.7828 381.1281,254.3078 Q380.7891,254.8328 380.7891,255.5547 L380.7891,256.3203 Q380.7891,257.1844 381.4125,257.7641 Q382.0359,258.3328 383.1516,258.3328 Q383.8078,258.3328 384.2672,258.1578 Q384.5406,258.0484 384.8359,257.7422 Q385.0219,257.5562 385.1203,257.5016 Q385.2297,257.4469 385.3719,257.4469 Q385.6016,257.4469 385.7766,257.6328 Q385.9625,257.8078 385.9625,258.0484 Q385.9625,258.2891 385.7219,258.5734 Q385.3719,258.9781 384.8141,259.2078 Q384.0594,259.525 383.1516,259.525 Q382.0906,259.525 381.2484,259.0875 Q380.5594,258.7375 380.0781,257.9937 Q379.5969,257.2391 379.5969,256.3422 L379.5969,255.5328 Q379.5969,254.6031 380.0234,253.8047 Q380.4609,252.9953 381.2266,252.5687 Q381.9922,252.1312 382.8562,252.1312 Q383.3703,252.1312 383.8187,252.2516 Q384.2781,252.3609 384.6609,252.6125 Z " fill="#000000"/><text fill="#000000" font-family="sans-serif" font-size="9.8" lengthAdjust="spacing" textLength="84" x="397.075" y="259.5578">ComponentService</text><line style="stroke:#181818;stroke-width:0.3499999999999999;" x1="299.95" x2="555.45" y1="266.7" y2="266.7"/><line style="stroke:#181818;stroke-width:0.3499999999999999;" x1="299.95" x2="555.45" y1="272.3" y2="272.3"/><text fill="#000000" font-family="sans-serif" font-size="9.8" lengthAdjust="spacing" textLength="168.7" x="303.45" y="285.6752">+getComponents() : List&lt;Component&gt;</text><text fill="#000000" font-family="sans-serif" font-size="9.8" lengthAdjust="spacing" textLength="248.5" x="303.45" y="298.71">+registerComponent(id, name, description) : Component</text></g><!--class Repositories--><g id="elem_Repositories"><rect codeLine="26" fill="#F1F1F1" height="72.7043" id="Repositories" rx="1.75" ry="1.75" style="stroke:#181818;stroke-width:0.3499999999999999;" width="240.8" x="16.1" y="376.6"/><ellipse cx="105.875" cy="387.8" fill="#ADD1B2" rx="7.7" ry="7.7" style="stroke:#181818;stroke-width:0.6999999999999998;"/><path d="M107.8109,384.9125 Q107.9203,384.7594 108.0516,384.6828 Q108.1828,384.6062 108.3359,384.6062 Q108.5984,384.6062 108.7625,384.7922 Q108.9266,384.9672 108.9266,385.3937 L108.9266,386.4109 Q108.9266,386.8375 108.7625,387.0234 Q108.5984,387.2094 108.3359,387.2094 Q108.0953,387.2094 107.9531,387.0672 Q107.8109,386.9359 107.7344,386.575 Q107.7016,386.3234 107.5703,386.1922 Q107.3406,385.9297 106.9141,385.7766 Q106.4875,385.6234 106.05,385.6234 Q105.5141,385.6234 105.0656,385.8531 Q104.6281,386.0828 104.2781,386.6078 Q103.9391,387.1328 103.9391,387.8547 L103.9391,388.6203 Q103.9391,389.4844 104.5625,390.0641 Q105.1859,390.6328 106.3016,390.6328 Q106.9578,390.6328 107.4172,390.4578 Q107.6906,390.3484 107.9859,390.0422 Q108.1719,389.8562 108.2703,389.8016 Q108.3797,389.7469 108.5219,389.7469 Q108.7516,389.7469 108.9266,389.9328 Q109.1125,390.1078 109.1125,390.3484 Q109.1125,390.5891 108.8719,390.8734 Q108.5219,391.2781 107.9641,391.5078 Q107.2094,391.825 106.3016,391.825 Q105.2406,391.825 104.3984,391.3875 Q103.7094,391.0375 103.2281,390.2937 Q102.7469,389.5391 102.7469,388.6422 L102.7469,387.8328 Q102.7469,386.9031 103.1734,386.1047 Q103.6109,385.2953 104.3766,384.8687 Q105.1422,384.4312 106.0062,384.4312 Q106.5203,384.4312 106.9687,384.5516 Q107.4281,384.6609 107.8109,384.9125 Z " fill="#000000"/><text fill="#000000" font-family="sans-serif" font-size="9.8" lengthAdjust="spacing" textLength="55.3" x="120.225" y="391.8578">Repositories</text><line style="stroke:#181818;stroke-width:0.3499999999999999;" x1="16.8" x2="256.2" y1="399" y2="399"/><line style="stroke:#181818;stroke-width:0.3499999999999999;" x1="16.8" x2="256.2" y1="404.6" y2="404.6"/><text fill="#000000" font-family="sans-serif" font-size="9.8" lengthAdjust="spacing" textLength="65.8" x="20.3" y="417.9752">-Repositories()</text><text fill="#000000" font-family="sans-serif" font-size="9.8" lengthAdjust="spacing" textLength="127.4" x="20.3" y="431.01">+getInstance() : Repositories</text><text fill="#000000" font-family="sans-serif" font-size="9.8" lengthAdjust="spacing" textLength="232.4" x="20.3" y="444.0447">+getComponentRepository() : ComponentRepository</text></g><!--class ComponentRepository--><g id="elem_ComponentRepository"><rect codeLine="32" fill="#F1F1F1" height="72.7043" id="ComponentRepository" rx="1.75" ry="1.75" style="stroke:#181818;stroke-width:0.3499999999999999;" width="187.6" x="124.6" y="504.7"/><ellipse cx="166.075" cy="515.9" fill="#ADD1B2" rx="7.7" ry="7.7" style="stroke:#181818;stroke-width:0.6999999999999998;"/><path d="M168.0109,513.0125 Q168.1203,512.8594 168.2516,512.7828 Q168.3828,512.7062 168.5359,512.7062 Q168.7984,512.7062 168.9625,512.8922 Q169.1266,513.0672 169.1266,513.4937 L169.1266,514.5109 Q169.1266,514.9375 168.9625,515.1234 Q168.7984,515.3094 168.5359,515.3094 Q168.2953,515.3094 168.1531,515.1672 Q168.0109,515.0359 167.9344,514.675 Q167.9016,514.4234 167.7703,514.2922 Q167.5406,514.0297 167.1141,513.8766 Q166.6875,513.7234 166.25,513.7234 Q165.7141,513.7234 165.2656,513.9531 Q164.8281,514.1828 164.4781,514.7078 Q164.1391,515.2328 164.1391,515.9547 L164.1391,516.7203 Q164.1391,517.5844 164.7625,518.1641 Q165.3859,518.7328 166.5016,518.7328 Q167.1578,518.7328 167.6172,518.5578 Q167.8906,518.4484 168.1859,518.1422 Q168.3719,517.9562 168.4703,517.9016 Q168.5797,517.8469 168.7219,517.8469 Q168.9516,517.8469 169.1266,518.0328 Q169.3125,518.2078 169.3125,518.4484 Q169.3125,518.6891 169.0719,518.9734 Q168.7219,519.3781 168.1641,519.6078 Q167.4094,519.925 166.5016,519.925 Q165.4406,519.925 164.5984,519.4875 Q163.9094,519.1375 163.4281,518.3937 Q162.9469,517.6391 162.9469,516.7422 L162.9469,515.9328 Q162.9469,515.0031 163.3734,514.2047 Q163.8109,513.3953 164.5766,512.9687 Q165.3422,512.5312 166.2062,512.5312 Q166.7203,512.5312 167.1687,512.6516 Q167.6281,512.7609 168.0109,513.0125 Z " fill="#000000"/><text fill="#000000" font-family="sans-serif" font-size="9.8" lengthAdjust="spacing" textLength="98.7" x="180.425" y="519.9578">ComponentRepository</text><line style="stroke:#181818;stroke-width:0.3499999999999999;" x1="125.3" x2="311.5" y1="527.1" y2="527.1"/><line style="stroke:#181818;stroke-width:0.3499999999999999;" x1="125.3" x2="311.5" y1="532.7" y2="532.7"/><text fill="#000000" font-family="sans-serif" font-size="9.8" lengthAdjust="spacing" textLength="179.2" x="128.8" y="546.0752">+getAllComponents() : List&lt;Component&gt;</text><text fill="#000000" font-family="sans-serif" font-size="9.8" lengthAdjust="spacing" textLength="154.7" x="128.8" y="559.11">+getComponentExists(id) : boolean</text><text fill="#000000" font-family="sans-serif" font-size="9.8" lengthAdjust="spacing" textLength="177.8" x="128.8" y="572.1447">+saveComponent(component) : boolean</text></g><!--class Part--><g id="elem_Part"><rect codeLine="40" fill="#F1F1F1" height="85.7391" id="Part" rx="1.75" ry="1.75" style="stroke:#181818;stroke-width:0.3499999999999999;" width="130.9" x="632.45" y="739.9"/><ellipse cx="685.825" cy="751.1" fill="#ADD1B2" rx="7.7" ry="7.7" style="stroke:#181818;stroke-width:0.6999999999999998;"/><path d="M687.7609,748.2125 Q687.8703,748.0594 688.0016,747.9828 Q688.1328,747.9062 688.2859,747.9062 Q688.5484,747.9062 688.7125,748.0922 Q688.8766,748.2672 688.8766,748.6937 L688.8766,749.7109 Q688.8766,750.1375 688.7125,750.3234 Q688.5484,750.5094 688.2859,750.5094 Q688.0453,750.5094 687.9031,750.3672 Q687.7609,750.2359 687.6844,749.875 Q687.6516,749.6234 687.5203,749.4922 Q687.2906,749.2297 686.8641,749.0766 Q686.4375,748.9234 686,748.9234 Q685.4641,748.9234 685.0156,749.1531 Q684.5781,749.3828 684.2281,749.9078 Q683.8891,750.4328 683.8891,751.1547 L683.8891,751.9203 Q683.8891,752.7844 684.5125,753.3641 Q685.1359,753.9328 686.2516,753.9328 Q686.9078,753.9328 687.3672,753.7578 Q687.6406,753.6484 687.9359,753.3422 Q688.1219,753.1562 688.2203,753.1016 Q688.3297,753.0469 688.4719,753.0469 Q688.7016,753.0469 688.8766,753.2328 Q689.0625,753.4078 689.0625,753.6484 Q689.0625,753.8891 688.8219,754.1734 Q688.4719,754.5781 687.9141,754.8078 Q687.1594,755.125 686.2516,755.125 Q685.1906,755.125 684.3484,754.6875 Q683.6594,754.3375 683.1781,753.5937 Q682.6969,752.8391 682.6969,751.9422 L682.6969,751.1328 Q682.6969,750.2031 683.1234,749.4047 Q683.5609,748.5953 684.3266,748.1687 Q685.0922,747.7312 685.9562,747.7312 Q686.4703,747.7312 686.9187,747.8516 Q687.3781,747.9609 687.7609,748.2125 Z " fill="#000000"/><text fill="#000000" font-family="sans-serif" font-size="9.8" lengthAdjust="spacing" textLength="18.2" x="700.175" y="755.1578">Part</text><line style="stroke:#181818;stroke-width:0.3499999999999999;" x1="633.15" x2="762.65" y1="762.3" y2="762.3"/><text fill="#000000" font-family="sans-serif" font-size="9.8" lengthAdjust="spacing" textLength="45.5" x="636.65" y="775.6752">-id : String</text><text fill="#000000" font-family="sans-serif" font-size="9.8" lengthAdjust="spacing" textLength="62.3" x="636.65" y="788.71">-name : String</text><text fill="#000000" font-family="sans-serif" font-size="9.8" lengthAdjust="spacing" textLength="86.1" x="636.65" y="801.7447">-description : String</text><line style="stroke:#181818;stroke-width:0.3499999999999999;" x1="633.15" x2="762.65" y1="807.0043" y2="807.0043"/><text fill="#000000" font-family="sans-serif" font-size="9.8" lengthAdjust="spacing" textLength="122.5" x="636.65" y="820.3795">+Part(id, name, description)</text></g><!--class Component--><g id="elem_Component"><rect codeLine="47" fill="#F1F1F1" height="46.6348" id="Component" rx="1.75" ry="1.75" style="stroke:#181818;stroke-width:0.3499999999999999;" width="163.8" x="616" y="650.3"/><ellipse cx="669.375" cy="661.5" fill="#ADD1B2" rx="7.7" ry="7.7" style="stroke:#181818;stroke-width:0.6999999999999998;"/><path d="M671.3109,658.6125 Q671.4203,658.4594 671.5516,658.3828 Q671.6828,658.3062 671.8359,658.3062 Q672.0984,658.3062 672.2625,658.4922 Q672.4266,658.6672 672.4266,659.0937 L672.4266,660.1109 Q672.4266,660.5375 672.2625,660.7234 Q672.0984,660.9094 671.8359,660.9094 Q671.5953,660.9094 671.4531,660.7672 Q671.3109,660.6359 671.2344,660.275 Q671.2016,660.0234 671.0703,659.8922 Q670.8406,659.6297 670.4141,659.4766 Q669.9875,659.3234 669.55,659.3234 Q669.0141,659.3234 668.5656,659.5531 Q668.1281,659.7828 667.7781,660.3078 Q667.4391,660.8328 667.4391,661.5547 L667.4391,662.3203 Q667.4391,663.1844 668.0625,663.7641 Q668.6859,664.3328 669.8016,664.3328 Q670.4578,664.3328 670.9172,664.1578 Q671.1906,664.0484 671.4859,663.7422 Q671.6719,663.5562 671.7703,663.5016 Q671.8797,663.4469 672.0219,663.4469 Q672.2516,663.4469 672.4266,663.6328 Q672.6125,663.8078 672.6125,664.0484 Q672.6125,664.2891 672.3719,664.5734 Q672.0219,664.9781 671.4641,665.2078 Q670.7094,665.525 669.8016,665.525 Q668.7406,665.525 667.8984,665.0875 Q667.2094,664.7375 666.7281,663.9937 Q666.2469,663.2391 666.2469,662.3422 L666.2469,661.5328 Q666.2469,660.6031 666.6734,659.8047 Q667.1109,658.9953 667.8766,658.5687 Q668.6422,658.1312 669.5062,658.1312 Q670.0203,658.1312 670.4687,658.2516 Q670.9281,658.3609 671.3109,658.6125 Z " fill="#000000"/><text fill="#000000" font-family="sans-serif" font-size="9.8" lengthAdjust="spacing" textLength="51.1" x="683.725" y="665.5578">Component</text><line style="stroke:#181818;stroke-width:0.3499999999999999;" x1="616.7" x2="779.1" y1="672.7" y2="672.7"/><line style="stroke:#181818;stroke-width:0.3499999999999999;" x1="616.7" x2="779.1" y1="678.3" y2="678.3"/><text fill="#000000" font-family="sans-serif" font-size="9.8" lengthAdjust="spacing" textLength="155.4" x="620.2" y="691.6752">+Component(id, name, description)</text></g><!--class ProductException--><g id="elem_ProductException"><rect codeLine="53" fill="#F1F1F1" height="46.6348" id="ProductException" rx="1.75" ry="1.75" style="stroke:#181818;stroke-width:0.3499999999999999;" width="221.9" x="475.65" y="389.55"/><ellipse cx="545.125" cy="400.75" fill="#ADD1B2" rx="7.7" ry="7.7" style="stroke:#181818;stroke-width:0.6999999999999998;"/><path d="M547.0609,397.8625 Q547.1703,397.7094 547.3016,397.6328 Q547.4328,397.5562 547.5859,397.5562 Q547.8484,397.5562 548.0125,397.7422 Q548.1766,397.9172 548.1766,398.3437 L548.1766,399.3609 Q548.1766,399.7875 548.0125,399.9734 Q547.8484,400.1594 547.5859,400.1594 Q547.3453,400.1594 547.2031,400.0172 Q547.0609,399.8859 546.9844,399.525 Q546.9516,399.2734 546.8203,399.1422 Q546.5906,398.8797 546.1641,398.7266 Q545.7375,398.5734 545.3,398.5734 Q544.7641,398.5734 544.3156,398.8031 Q543.8781,399.0328 543.5281,399.5578 Q543.1891,400.0828 543.1891,400.8047 L543.1891,401.5703 Q543.1891,402.4344 543.8125,403.0141 Q544.4359,403.5828 545.5516,403.5828 Q546.2078,403.5828 546.6672,403.4078 Q546.9406,403.2984 547.2359,402.9922 Q547.4219,402.8062 547.5203,402.7516 Q547.6297,402.6969 547.7719,402.6969 Q548.0016,402.6969 548.1766,402.8828 Q548.3625,403.0578 548.3625,403.2984 Q548.3625,403.5391 548.1219,403.8234 Q547.7719,404.2281 547.2141,404.4578 Q546.4594,404.775 545.5516,404.775 Q544.4906,404.775 543.6484,404.3375 Q542.9594,403.9875 542.4781,403.2437 Q541.9969,402.4891 541.9969,401.5922 L541.9969,400.7828 Q541.9969,399.8531 542.4234,399.0547 Q542.8609,398.2453 543.6266,397.8187 Q544.3922,397.3812 545.2562,397.3812 Q545.7703,397.3812 546.2187,397.5016 Q546.6781,397.6109 547.0609,397.8625 Z " fill="#000000"/><text fill="#000000" font-family="sans-serif" font-size="9.8" lengthAdjust="spacing" textLength="77" x="559.475" y="404.8078">ProductException</text><line style="stroke:#181818;stroke-width:0.3499999999999999;" x1="476.35" x2="696.85" y1="411.95" y2="411.95"/><line style="stroke:#181818;stroke-width:0.3499999999999999;" x1="476.35" x2="696.85" y1="417.55" y2="417.55"/><text fill="#000000" font-family="sans-serif" font-size="9.8" lengthAdjust="spacing" textLength="213.5" x="479.85" y="430.9252">+componentAlreadyExists(id) : ProductException</text></g><!--class RuntimeException--><g id="elem_RuntimeException"><rect codeLine="57" fill="#F1F1F1" height="33.6" id="RuntimeException" rx="1.75" ry="1.75" style="stroke:#181818;stroke-width:0.3499999999999999;" width="101.5" x="535.85" y="524.3"/><ellipse cx="546.35" cy="535.5" fill="#ADD1B2" rx="7.7" ry="7.7" style="stroke:#181818;stroke-width:0.6999999999999998;"/><path d="M548.2859,532.6125 Q548.3953,532.4594 548.5266,532.3828 Q548.6578,532.3062 548.8109,532.3062 Q549.0734,532.3062 549.2375,532.4922 Q549.4016,532.6672 549.4016,533.0937 L549.4016,534.1109 Q549.4016,534.5375 549.2375,534.7234 Q549.0734,534.9094 548.8109,534.9094 Q548.5703,534.9094 548.4281,534.7672 Q548.2859,534.6359 548.2094,534.275 Q548.1766,534.0234 548.0453,533.8922 Q547.8156,533.6297 547.3891,533.4766 Q546.9625,533.3234 546.525,533.3234 Q545.9891,533.3234 545.5406,533.5531 Q545.1031,533.7828 544.7531,534.3078 Q544.4141,534.8328 544.4141,535.5547 L544.4141,536.3203 Q544.4141,537.1844 545.0375,537.7641 Q545.6609,538.3328 546.7766,538.3328 Q547.4328,538.3328 547.8922,538.1578 Q548.1656,538.0484 548.4609,537.7422 Q548.6469,537.5562 548.7453,537.5016 Q548.8547,537.4469 548.9969,537.4469 Q549.2266,537.4469 549.4016,537.6328 Q549.5875,537.8078 549.5875,538.0484 Q549.5875,538.2891 549.3469,538.5734 Q548.9969,538.9781 548.4391,539.2078 Q547.6844,539.525 546.7766,539.525 Q545.7156,539.525 544.8734,539.0875 Q544.1844,538.7375 543.7031,537.9937 Q543.2219,537.2391 543.2219,536.3422 L543.2219,535.5328 Q543.2219,534.6031 543.6484,533.8047 Q544.0859,532.9953 544.8516,532.5687 Q545.6172,532.1312 546.4812,532.1312 Q546.9953,532.1312 547.4437,532.2516 Q547.9031,532.3609 548.2859,532.6125 Z " fill="#000000"/><text fill="#000000" font-family="sans-serif" font-size="9.8" lengthAdjust="spacing" textLength="79.1" x="556.15" y="539.5578">RuntimeException</text><line style="stroke:#181818;stroke-width:0.3499999999999999;" x1="536.55" x2="636.65" y1="546.7" y2="546.7"/><line style="stroke:#181818;stroke-width:0.3499999999999999;" x1="536.55" x2="636.65" y1="552.3" y2="552.3"/></g><!--link RegisterComponentUI to ComponentController--><g id="link_RegisterComponentUI_ComponentController"><path codeLine="60" d="M427.7,64.533 C427.7,80.458 427.7,100.912 427.7,120.253 " fill="none" id="RegisterComponentUI-to-ComponentController" style="stroke:#181818;stroke-width:0.6999999999999998;stroke-dasharray:7.0,7.0;"/><polygon fill="#181818" points="427.7,124.453,430.5,118.153,427.7,120.953,424.9,118.153,427.7,124.453" style="stroke:#181818;stroke-width:0.6999999999999998;"/></g><!--link ComponentController to ComponentService--><g id="link_ComponentController_ComponentService"><path codeLine="61" d="M427.7,184.296 C427.7,202.559 427.7,221.795 427.7,240.037 " fill="none" id="ComponentController-to-ComponentService" style="stroke:#181818;stroke-width:0.6999999999999998;stroke-dasharray:7.0,7.0;"/><polygon fill="#181818" points="427.7,244.237,430.5,237.937,427.7,240.737,424.9,237.937,427.7,244.237" style="stroke:#181818;stroke-width:0.6999999999999998;"/></g><!--link ComponentService to Repositories--><g id="link_ComponentService_Repositories"><path codeLine="62" d="M352.457,303.856 C322.364,315.497 294.7,326.2 294.7,326.2 C294.7,326.2 249.3678,350.8689 205.9048,374.5289 " fill="none" id="ComponentService-to-Repositories" style="stroke:#181818;stroke-width:0.6999999999999998;stroke-dasharray:7.0,7.0;"/><polygon fill="#181818" points="202.216,376.537,209.088,375.9841,205.29,374.8636,206.4105,371.0656,202.216,376.537" style="stroke:#181818;stroke-width:0.6999999999999998;"/><text fill="#000000" font-family="sans-serif" font-size="9.1" lengthAdjust="spacing" textLength="46.9" x="295.4" y="336.7198">repositories</text></g><!--link ComponentService to ComponentRepository--><g id="link_ComponentService_ComponentRepository"><path codeLine="63" d="M405.601,303.975 C390.985,323.302 374.5,345.1 374.5,345.1 C374.5,345.1 324.8,449.4 324.8,449.4 C324.8,449.4 293.1457,476.469 263.3397,501.963 " fill="none" id="ComponentService-to-ComponentRepository" style="stroke:#181818;stroke-width:0.6999999999999998;stroke-dasharray:7.0,7.0;"/><polygon fill="#181818" points="260.148,504.693,266.7556,502.7258,262.8078,502.418,263.1156,498.4702,260.148,504.693" style="stroke:#181818;stroke-width:0.6999999999999998;"/><text fill="#000000" font-family="sans-serif" font-size="9.1" lengthAdjust="spacing" textLength="88.2" x="375.2" y="416.8698">componentRepository</text></g><!--link ComponentService to Component--><g id="link_ComponentService_Component"><path codeLine="64" d="M543.984,303.821 C621.446,323.19 709.1,345.1 709.1,345.1 C709.1,345.1 709.1,594.3 709.1,594.3 C709.1,594.3 705.0356,622.8527 701.7316,646.1137 " fill="none" id="ComponentService-to-Component" style="stroke:#181818;stroke-width:0.6999999999999998;stroke-dasharray:7.0,7.0;"/><polygon fill="#181818" points="701.141,650.272,704.7991,644.4284,701.6332,646.8068,699.2548,643.6408,701.141,650.272" style="stroke:#181818;stroke-width:0.6999999999999998;"/><text fill="#000000" font-family="sans-serif" font-size="9.1" lengthAdjust="spacing" textLength="44.8" x="709.8" y="480.9198">component</text></g><!--link Repositories to Repositories--><g id="link_Repositories_Repositories"><path codeLine="65" d="M256.977,402.78 C271.726,404.607 281.4,408.016 281.4,413 C281.4,417.984 275.8941,420.8767 261.1451,422.7037 " fill="none" id="Repositories-to-Repositories" style="stroke:#181818;stroke-width:0.6999999999999998;"/><polygon fill="#181818" points="256.977,423.22,263.5734,425.2243,260.4505,422.7897,262.885,419.6668,256.977,423.22" style="stroke:#181818;stroke-width:0.6999999999999998;"/><text fill="#000000" font-family="sans-serif" font-size="9.1" lengthAdjust="spacing" textLength="34.3" x="285.6" y="416.8698">instance</text></g><!--link Repositories to ComponentRepository--><g id="link_Repositories_ComponentRepository"><path codeLine="66" d="M159.747,449.666 C170.863,466.858 181.8472,483.8552 192.9562,501.0332 " fill="none" id="Repositories-to-ComponentRepository" style="stroke:#181818;stroke-width:0.6999999999999998;"/><polygon fill="#181818" points="195.237,504.56,194.167,497.7493,193.3364,501.621,189.4647,500.7903,195.237,504.56" style="stroke:#181818;stroke-width:0.6999999999999998;"/><text fill="#000000" font-family="sans-serif" font-size="9.1" lengthAdjust="spacing" textLength="88.2" x="181.3" y="480.9198">componentRepository</text><text fill="#000000" font-family="sans-serif" font-size="9.1" lengthAdjust="spacing" textLength="4.9" x="157.3816" y="464.6979">1</text><text fill="#000000" font-family="sans-serif" font-size="9.1" lengthAdjust="spacing" textLength="4.9" x="186.8953" y="496.7903">1</text></g><!--link ComponentRepository to Component--><g id="link_ComponentRepository_Component"><path codeLine="67" d="M312.277,567.497 C400.61,591.675 527.522,626.4131 611.781,649.4781 " fill="none" id="ComponentRepository-to-Component" style="stroke:#181818;stroke-width:0.6999999999999998;"/><polygon fill="#181818" points="615.832,650.587,610.4948,646.223,612.4562,649.6629,609.0163,651.6243,615.832,650.587" style="stroke:#181818;stroke-width:0.6999999999999998;"/><text fill="#000000" font-family="sans-serif" font-size="9.1" lengthAdjust="spacing" textLength="42" x="473.2" y="610.4198">categories</text><text fill="#000000" font-family="sans-serif" font-size="9.1" lengthAdjust="spacing" textLength="4.9" x="317.8459" y="566.6076">1</text><text fill="#000000" font-family="sans-serif" font-size="9.1" lengthAdjust="spacing" textLength="3.5" x="606.9624" y="646.6568">*</text></g><!--link Component to Part--><g id="link_Component_Part"><path codeLine="68" d="M697.9,697.235 C697.9,709.618 697.9,712.726 697.9,727.244 " fill="none" id="Component-to-Part" style="stroke:#181818;stroke-width:0.6999999999999998;"/><polygon fill="none" points="697.9,739.844,702.1,727.244,693.7,727.244,697.9,739.844" style="stroke:#181818;stroke-width:0.6999999999999998;"/></g><!--link ComponentService to ProductException--><g id="link_ComponentService_ProductException"><path codeLine="69" d="M461.398,303.919 C490.917,329.469 530.0354,363.3372 557.1184,386.7802 " fill="none" id="ComponentService-to-ProductException" style="stroke:#181818;stroke-width:0.6999999999999998;stroke-dasharray:7.0,7.0;"/><polygon fill="#181818" points="560.294,389.529,557.3632,383.2888,557.6477,387.2384,553.6981,387.5229,560.294,389.529" style="stroke:#181818;stroke-width:0.6999999999999998;"/><text fill="#000000" font-family="sans-serif" font-size="9.1" lengthAdjust="spacing" textLength="26.6" x="502.6" y="336.7198">throws</text></g><!--link ProductException to RuntimeException--><g id="link_ProductException_RuntimeException"><path codeLine="70" d="M586.6,436.646 C586.6,461.958 586.6,489.447 586.6,511.658 " fill="none" id="ProductException-to-RuntimeException" style="stroke:#181818;stroke-width:0.6999999999999998;"/><polygon fill="none" points="586.6,524.258,590.8,511.658,582.4,511.658,586.6,524.258" style="stroke:#181818;stroke-width:0.6999999999999998;"/></g><!--SRC=[nLJBJiCm4BpxAwoSMg08hXMgL5KSAe64Ml41nbc2XMj7zlOH7l-E4uNOJjo2k91BaftPzNYyQ_igLCaCsz2IyLTMm1eh2TG0HwOA2SHs1Fl2ShqNgg3FJDeGaK81LYNGKikg_WamBfcrSqGZdhO8IwxLMhm1lIAaNP1cZykClXFgdePCLr08Ys0MUbDg1GeVbot-IJw3l8LMQBIKOEByBiyJMhn-pWl0Zc57OpgbTswvcousyrJJLp8I-GLLR0CND0VBZIXHQ5NNw2W9eMimEy7XYCeM_L-9AoYr5QXDrJ-BDYx01WedONmqZfGlbNMzmw7H7VBI-_ChZoAHFjxAJNddIJtxvbB-ri5GpEt1iQopiCvuqbe2KvvfsGwyp_pxgy-DdRtNESZOr0TcC3HJvAx2ses8AdomFi94E3ZJ8NfULpxI02TS3BtxgOyIExmzS6Z0tYwDphSSEpHSfVDkBWsml8fyxoSEbQ-s2iK6FCEXgLlZydAMkWr8weQ8kErCai6Grgne9gRkhWnQF9cGQjSfvObEFvqU9f58nMGoa2NQCOo9sNNMaElt7sG5pAxIMHOhP0X5pmn7_9WrRP_UuQ1LfXHVZDvRCa2QIeFp_m80]--></g></svg>