<?xml version="1.0" encoding="us-ascii" standalone="no"?><svg xmlns="http://www.w3.org/2000/svg" xmlns:xlink="http://www.w3.org/1999/xlink" contentStyleType="text/css" height="1333.2px" preserveAspectRatio="none" style="width:777px;height:1333px;background:#FFFFFF;" version="1.1" viewBox="0 0 777 1333" width="777px" zoomAndPan="magnify"><defs/><g><text fill="#000000" font-family="sans-serif" font-size="8.4" font-weight="bold" lengthAdjust="spacing" textLength="60" x="354.3" y="15.0645">Domain Model</text><!--class Organization--><g id="elem_Organization"><rect codeLine="11" fill="#F1F1F1" height="21.9727" id="Organization" rx="1.5" ry="1.5" style="stroke:#181818;stroke-width:0.3;" width="51.6" x="521.4" y="27.9727"/><text fill="#000000" font-family="sans-serif" font-size="8.4" lengthAdjust="spacing" textLength="48" x="523.2" y="40.0371">Organization</text><line style="stroke:#181818;stroke-width:0.3;" x1="522" x2="572.4" y1="45.1453" y2="45.1453"/></g><!--class Administrator--><g id="elem_Administrator"><rect codeLine="14" fill="#F1F1F1" height="21.9727" id="Administrator" rx="1.5" ry="1.5" style="stroke:#181818;stroke-width:0.3;" width="53.4" x="282.9" y="97.5727"/><text fill="#000000" font-family="sans-serif" font-size="8.4" lengthAdjust="spacing" textLength="49.8" x="284.7" y="109.6371">Administrator</text><line style="stroke:#181818;stroke-width:0.3;" x1="283.5" x2="335.7" y1="114.7453" y2="114.7453"/></g><!--class ProductionManager--><g id="elem_ProductionManager"><rect codeLine="16" fill="#F1F1F1" height="21.9727" id="ProductionManager" rx="1.5" ry="1.5" style="stroke:#181818;stroke-width:0.3;" width="78" x="508.2" y="195.0727"/><text fill="#000000" font-family="sans-serif" font-size="8.4" lengthAdjust="spacing" textLength="74.4" x="510" y="207.1371">ProductionManager</text><line style="stroke:#181818;stroke-width:0.3;" x1="508.8" x2="585.6" y1="212.2453" y2="212.2453"/></g><!--class PlantFloorManager--><g id="elem_PlantFloorManager"><rect codeLine="18" fill="#F1F1F1" height="21.9727" id="PlantFloorManager" rx="1.5" ry="1.5" style="stroke:#181818;stroke-width:0.3;" width="76.2" x="636.3" y="645.6727"/><text fill="#000000" font-family="sans-serif" font-size="8.4" lengthAdjust="spacing" textLength="72.6" x="638.1" y="657.7371">PlantFloorManager</text><line style="stroke:#181818;stroke-width:0.3;" x1="636.9" x2="711.9" y1="662.8453" y2="662.8453"/></g><!--class Client--><g id="elem_Client"><rect codeLine="20" fill="#F1F1F1" height="77.8359" id="Client" rx="1.5" ry="1.5" style="stroke:#181818;stroke-width:0.3;" width="60.6" x="117.9" y="167.1727"/><text fill="#000000" font-family="sans-serif" font-size="8.4" lengthAdjust="spacing" textLength="21.6" x="137.4" y="179.2371">Client</text><line style="stroke:#181818;stroke-width:0.3;" x1="118.5" x2="177.9" y1="184.3453" y2="184.3453"/><text fill="#000000" font-family="sans-serif" font-size="8.4" lengthAdjust="spacing" textLength="6.6" x="121.5" y="195.8098">id</text><text fill="#000000" font-family="sans-serif" font-size="8.4" lengthAdjust="spacing" textLength="21" x="121.5" y="206.9824">name</text><text fill="#000000" font-family="sans-serif" font-size="8.4" lengthAdjust="spacing" textLength="18" x="121.5" y="218.1551">vatin</text><text fill="#000000" font-family="sans-serif" font-size="8.4" lengthAdjust="spacing" textLength="53.4" x="121.5" y="229.3277">phoneNumber</text><text fill="#000000" font-family="sans-serif" font-size="8.4" lengthAdjust="spacing" textLength="19.8" x="121.5" y="240.5004">email</text></g><!--class Address--><g id="elem_Address"><rect codeLine="28" fill="#F1F1F1" height="77.8359" id="Address" rx="1.5" ry="1.5" style="stroke:#181818;stroke-width:0.3;" width="37.8" x="171.9" y="1251.3727"/><text fill="#000000" font-family="sans-serif" font-size="8.4" lengthAdjust="spacing" textLength="31.2" x="175.2" y="1263.4371">Address</text><line style="stroke:#181818;stroke-width:0.3;" x1="172.5" x2="209.1" y1="1268.5453" y2="1268.5453"/><text fill="#000000" font-family="sans-serif" font-size="8.4" lengthAdjust="spacing" textLength="6.6" x="175.5" y="1280.0098">id</text><text fill="#000000" font-family="sans-serif" font-size="8.4" lengthAdjust="spacing" textLength="21.6" x="175.5" y="1291.1824">street</text><text fill="#000000" font-family="sans-serif" font-size="8.4" lengthAdjust="spacing" textLength="30.6" x="175.5" y="1302.3551">zipCode</text><text fill="#000000" font-family="sans-serif" font-size="8.4" lengthAdjust="spacing" textLength="17.4" x="175.5" y="1313.5277">town</text><text fill="#000000" font-family="sans-serif" font-size="8.4" lengthAdjust="spacing" textLength="28.2" x="175.5" y="1324.7004">country</text></g><!--class CompanyType--><g id="elem_CompanyType"><rect codeLine="36" fill="#F1F1F1" height="33.1453" id="CompanyType" rx="1.5" ry="1.5" style="stroke:#181818;stroke-width:0.3;" width="58.8" x="4.2" y="309.3727"/><text fill="#000000" font-family="sans-serif" font-size="8.4" lengthAdjust="spacing" textLength="55.2" x="6" y="321.4371">CompanyType</text><line style="stroke:#181818;stroke-width:0.3;" x1="4.8" x2="62.4" y1="326.5453" y2="326.5453"/><text fill="#000000" font-family="sans-serif" font-size="8.4" lengthAdjust="spacing" textLength="16.2" x="7.8" y="338.0098">type</text></g><!--class State--><g id="elem_State"><rect codeLine="40" fill="#F1F1F1" height="33.1453" id="State" rx="1.5" ry="1.5" style="stroke:#181818;stroke-width:0.3;" width="23.4" x="236.1" y="1159.8727"/><text fill="#000000" font-family="sans-serif" font-size="8.4" lengthAdjust="spacing" textLength="19.8" x="237.9" y="1171.9371">State</text><line style="stroke:#181818;stroke-width:0.3;" x1="236.7" x2="258.9" y1="1177.0453" y2="1177.0453"/><text fill="#000000" font-family="sans-serif" font-size="8.4" lengthAdjust="spacing" textLength="16.2" x="239.7" y="1188.5098">type</text></g><!--class Order--><g id="elem_Order"><rect codeLine="44" fill="#F1F1F1" height="66.6633" id="Order" rx="1.5" ry="1.5" style="stroke:#181818;stroke-width:0.3;" width="54.6" x="191.1" y="292.5727"/><text fill="#000000" font-family="sans-serif" font-size="8.4" lengthAdjust="spacing" textLength="22.2" x="207.3" y="304.6371">Order</text><line style="stroke:#181818;stroke-width:0.3;" x1="191.7" x2="245.1" y1="309.7453" y2="309.7453"/><text fill="#000000" font-family="sans-serif" font-size="8.4" lengthAdjust="spacing" textLength="6.6" x="194.7" y="321.2098">id</text><text fill="#000000" font-family="sans-serif" font-size="8.4" lengthAdjust="spacing" textLength="38.4" x="194.7" y="332.3824">orderDate</text><text fill="#000000" font-family="sans-serif" font-size="8.4" lengthAdjust="spacing" textLength="47.4" x="194.7" y="343.5551">deliveryDate</text><text fill="#000000" font-family="sans-serif" font-size="8.4" lengthAdjust="spacing" textLength="18.6" x="194.7" y="354.7277">price</text></g><!--class ProductOrder--><g id="elem_ProductOrder"><rect codeLine="51" fill="#F1F1F1" height="33.1453" id="ProductOrder" rx="1.5" ry="1.5" style="stroke:#181818;stroke-width:0.3;" width="55.2" x="222.6" y="406.5727"/><text fill="#000000" font-family="sans-serif" font-size="8.4" lengthAdjust="spacing" textLength="51.6" x="224.4" y="418.6371">ProductOrder</text><line style="stroke:#181818;stroke-width:0.3;" x1="223.2" x2="277.2" y1="423.7453" y2="423.7453"/><text fill="#000000" font-family="sans-serif" font-size="8.4" lengthAdjust="spacing" textLength="30" x="226.2" y="435.2098">quantity</text></g><!--class Product--><g id="elem_Product"><rect codeLine="55" fill="#F1F1F1" height="100.1812" id="Product" rx="1.5" ry="1.5" style="stroke:#181818;stroke-width:0.3;" width="48.6" x="344.1" y="486.9727"/><text fill="#000000" font-family="sans-serif" font-size="8.4" lengthAdjust="spacing" textLength="29.4" x="353.7" y="499.0371">Product</text><line style="stroke:#181818;stroke-width:0.3;" x1="344.7" x2="392.1" y1="504.1453" y2="504.1453"/><text fill="#000000" font-family="sans-serif" font-size="8.4" lengthAdjust="spacing" textLength="6.6" x="347.7" y="515.6098">id</text><text fill="#000000" font-family="sans-serif" font-size="8.4" lengthAdjust="spacing" textLength="21" x="347.7" y="526.7824">name</text><text fill="#000000" font-family="sans-serif" font-size="8.4" lengthAdjust="spacing" textLength="41.4" x="347.7" y="537.9551">description</text><text fill="#000000" font-family="sans-serif" font-size="8.4" lengthAdjust="spacing" textLength="31.2" x="347.7" y="549.1277">capacity</text><text fill="#000000" font-family="sans-serif" font-size="8.4" lengthAdjust="spacing" textLength="14.4" x="347.7" y="560.3004">size</text><text fill="#000000" font-family="sans-serif" font-size="8.4" lengthAdjust="spacing" textLength="18.6" x="347.7" y="571.473">color</text><text fill="#000000" font-family="sans-serif" font-size="8.4" lengthAdjust="spacing" textLength="18.6" x="347.7" y="582.6457">price</text></g><!--class ProductCategory--><g id="elem_ProductCategory"><rect codeLine="65" fill="#F1F1F1" height="44.318" id="ProductCategory" rx="1.5" ry="1.5" style="stroke:#181818;stroke-width:0.3;" width="67.8" x="284.7" y="634.5727"/><text fill="#000000" font-family="sans-serif" font-size="8.4" lengthAdjust="spacing" textLength="64.2" x="286.5" y="646.6371">ProductCategory</text><line style="stroke:#181818;stroke-width:0.3;" x1="285.3" x2="351.9" y1="651.7453" y2="651.7453"/><text fill="#000000" font-family="sans-serif" font-size="8.4" lengthAdjust="spacing" textLength="6.6" x="288.3" y="663.2098">id</text><text fill="#000000" font-family="sans-serif" font-size="8.4" lengthAdjust="spacing" textLength="21" x="288.3" y="674.3824">name</text></g><!--class Part--><g id="elem_Part"><rect codeLine="70" fill="#F1F1F1" height="55.4906" id="Part" rx="1.5" ry="1.5" style="stroke:#181818;stroke-width:0.3;" width="48.6" x="368.1" y="726.3727"/><text fill="#000000" font-family="sans-serif" font-size="8.4" lengthAdjust="spacing" textLength="15.6" x="384.6" y="738.4371">Part</text><line style="stroke:#181818;stroke-width:0.3;" x1="368.7" x2="416.1" y1="743.5453" y2="743.5453"/><text fill="#000000" font-family="sans-serif" font-size="8.4" lengthAdjust="spacing" textLength="6.6" x="371.7" y="755.0098">id</text><text fill="#000000" font-family="sans-serif" font-size="8.4" lengthAdjust="spacing" textLength="21" x="371.7" y="766.1824">name</text><text fill="#000000" font-family="sans-serif" font-size="8.4" lengthAdjust="spacing" textLength="41.4" x="371.7" y="777.3551">description</text></g><!--class Component--><g id="elem_Component"><rect codeLine="76" fill="#F1F1F1" height="55.4906" id="Component" rx="1.5" ry="1.5" style="stroke:#181818;stroke-width:0.3;" width="48.6" x="296.7" y="840.3727"/><text fill="#000000" font-family="sans-serif" font-size="8.4" lengthAdjust="spacing" textLength="43.8" x="299.1" y="852.4371">Component</text><line style="stroke:#181818;stroke-width:0.3;" x1="297.3" x2="344.7" y1="857.5453" y2="857.5453"/><text fill="#000000" font-family="sans-serif" font-size="8.4" lengthAdjust="spacing" textLength="6.6" x="300.3" y="869.0098">id</text><text fill="#000000" font-family="sans-serif" font-size="8.4" lengthAdjust="spacing" textLength="21" x="300.3" y="880.1824">name</text><text fill="#000000" font-family="sans-serif" font-size="8.4" lengthAdjust="spacing" textLength="41.4" x="300.3" y="891.3551">description</text></g><!--class RawMaterial--><g id="elem_RawMaterial"><rect codeLine="82" fill="#F1F1F1" height="77.8359" id="RawMaterial" rx="1.5" ry="1.5" style="stroke:#181818;stroke-width:0.3;" width="61.2" x="366.6" y="828.9727"/><text fill="#000000" font-family="sans-serif" font-size="8.4" lengthAdjust="spacing" textLength="46.2" x="374.1" y="841.0371">RawMaterial</text><line style="stroke:#181818;stroke-width:0.3;" x1="367.2" x2="427.2" y1="846.1453" y2="846.1453"/><text fill="#000000" font-family="sans-serif" font-size="8.4" lengthAdjust="spacing" textLength="6.6" x="370.2" y="857.6098">id</text><text fill="#000000" font-family="sans-serif" font-size="8.4" lengthAdjust="spacing" textLength="21" x="370.2" y="868.7824">name</text><text fill="#000000" font-family="sans-serif" font-size="8.4" lengthAdjust="spacing" textLength="41.4" x="370.2" y="879.9551">description</text><text fill="#000000" font-family="sans-serif" font-size="8.4" lengthAdjust="spacing" textLength="48" x="370.2" y="891.1277">currentStock</text><text fill="#000000" font-family="sans-serif" font-size="8.4" lengthAdjust="spacing" textLength="54" x="370.2" y="902.3004">minimumStock</text></g><!--class RawMaterialSupplier--><g id="elem_RawMaterialSupplier"><rect codeLine="90" fill="#F1F1F1" height="33.1453" id="RawMaterialSupplier" rx="1.5" ry="1.5" style="stroke:#181818;stroke-width:0.3;" width="81" x="284.7" y="954.3727"/><text fill="#000000" font-family="sans-serif" font-size="8.4" lengthAdjust="spacing" textLength="77.4" x="286.5" y="966.4371">RawMaterialSupplier</text><line style="stroke:#181818;stroke-width:0.3;" x1="285.3" x2="365.1" y1="971.5453" y2="971.5453"/><text fill="#000000" font-family="sans-serif" font-size="8.4" lengthAdjust="spacing" textLength="66" x="288.3" y="983.0098">expectedUnitCost</text></g><!--class Supplier--><g id="elem_Supplier"><rect codeLine="94" fill="#F1F1F1" height="66.6633" id="Supplier" rx="1.5" ry="1.5" style="stroke:#181818;stroke-width:0.3;" width="60.6" x="240.9" y="1034.7727"/><text fill="#000000" font-family="sans-serif" font-size="8.4" lengthAdjust="spacing" textLength="31.2" x="255.6" y="1046.8371">Supplier</text><line style="stroke:#181818;stroke-width:0.3;" x1="241.5" x2="300.9" y1="1051.9453" y2="1051.9453"/><text fill="#000000" font-family="sans-serif" font-size="8.4" lengthAdjust="spacing" textLength="6.6" x="244.5" y="1063.4098">id</text><text fill="#000000" font-family="sans-serif" font-size="8.4" lengthAdjust="spacing" textLength="21" x="244.5" y="1074.5824">name</text><text fill="#000000" font-family="sans-serif" font-size="8.4" lengthAdjust="spacing" textLength="53.4" x="244.5" y="1085.7551">phoneNumber</text><text fill="#000000" font-family="sans-serif" font-size="8.4" lengthAdjust="spacing" textLength="19.8" x="244.5" y="1096.9277">email</text></g><!--class SupplyOffer--><g id="elem_SupplyOffer"><rect codeLine="101" fill="#F1F1F1" height="55.4906" id="SupplyOffer" rx="1.5" ry="1.5" style="stroke:#181818;stroke-width:0.3;" width="48.6" x="429.9" y="1148.7727"/><text fill="#000000" font-family="sans-serif" font-size="8.4" lengthAdjust="spacing" textLength="45" x="431.7" y="1160.8371">SupplyOffer</text><line style="stroke:#181818;stroke-width:0.3;" x1="430.5" x2="477.9" y1="1165.9453" y2="1165.9453"/><text fill="#000000" font-family="sans-serif" font-size="8.4" lengthAdjust="spacing" textLength="6.6" x="433.5" y="1177.4098">id</text><text fill="#000000" font-family="sans-serif" font-size="8.4" lengthAdjust="spacing" textLength="34.8" x="433.5" y="1188.5824">startDate</text><text fill="#000000" font-family="sans-serif" font-size="8.4" lengthAdjust="spacing" textLength="32.4" x="433.5" y="1199.7551">endDate</text></g><!--class RawMaterialSupply--><g id="elem_RawMaterialSupply"><rect codeLine="107" fill="#F1F1F1" height="44.318" id="RawMaterialSupply" rx="1.5" ry="1.5" style="stroke:#181818;stroke-width:0.3;" width="75.6" x="382.8" y="1268.1727"/><text fill="#000000" font-family="sans-serif" font-size="8.4" lengthAdjust="spacing" textLength="72" x="384.6" y="1280.2371">RawMaterialSupply</text><line style="stroke:#181818;stroke-width:0.3;" x1="383.4" x2="457.8" y1="1285.3453" y2="1285.3453"/><text fill="#000000" font-family="sans-serif" font-size="8.4" lengthAdjust="spacing" textLength="30" x="386.4" y="1296.8098">quantity</text><text fill="#000000" font-family="sans-serif" font-size="8.4" lengthAdjust="spacing" textLength="31.2" x="386.4" y="1307.9824">unitCost</text></g><!--class ProductElement--><g id="elem_ProductElement"><rect codeLine="112" fill="#F1F1F1" height="33.1453" id="ProductElement" rx="1.5" ry="1.5" style="stroke:#181818;stroke-width:0.3;" width="63.6" x="448.2" y="640.2727"/><text fill="#000000" font-family="sans-serif" font-size="8.4" lengthAdjust="spacing" textLength="60" x="450" y="652.3371">ProductElement</text><line style="stroke:#181818;stroke-width:0.3;" x1="448.8" x2="511.2" y1="657.4453" y2="657.4453"/><text fill="#000000" font-family="sans-serif" font-size="8.4" lengthAdjust="spacing" textLength="30" x="451.8" y="668.9098">quantity</text></g><!--class Operation--><g id="elem_Operation"><rect codeLine="116" fill="#F1F1F1" height="55.4906" id="Operation" rx="1.5" ry="1.5" style="stroke:#181818;stroke-width:0.3;" width="61.8" x="636.3" y="726.3727"/><text fill="#000000" font-family="sans-serif" font-size="8.4" lengthAdjust="spacing" textLength="37.8" x="648.3" y="738.4371">Operation</text><line style="stroke:#181818;stroke-width:0.3;" x1="636.9" x2="697.5" y1="743.5453" y2="743.5453"/><text fill="#000000" font-family="sans-serif" font-size="8.4" lengthAdjust="spacing" textLength="6.6" x="639.9" y="755.0098">id</text><text fill="#000000" font-family="sans-serif" font-size="8.4" lengthAdjust="spacing" textLength="21" x="639.9" y="766.1824">name</text><text fill="#000000" font-family="sans-serif" font-size="8.4" lengthAdjust="spacing" textLength="54.6" x="639.9" y="777.3551">executionTime</text></g><!--class OperationType--><g id="elem_OperationType"><rect codeLine="122" fill="#F1F1F1" height="44.318" id="OperationType" rx="1.5" ry="1.5" style="stroke:#181818;stroke-width:0.3;" width="60.6" x="636.9" y="845.7727"/><text fill="#000000" font-family="sans-serif" font-size="8.4" lengthAdjust="spacing" textLength="57" x="638.7" y="857.8371">OperationType</text><line style="stroke:#181818;stroke-width:0.3;" x1="637.5" x2="696.9" y1="862.9453" y2="862.9453"/><text fill="#000000" font-family="sans-serif" font-size="8.4" lengthAdjust="spacing" textLength="6.6" x="640.5" y="874.4098">id</text><text fill="#000000" font-family="sans-serif" font-size="8.4" lengthAdjust="spacing" textLength="21" x="640.5" y="885.5824">name</text></g><!--class CanBeDoneAt--><g id="elem_CanBeDoneAt"><rect codeLine="127" fill="#F1F1F1" height="33.1453" id="CanBeDoneAt" rx="1.5" ry="1.5" style="stroke:#181818;stroke-width:0.3;" width="57.6" x="639" y="954.3727"/><text fill="#000000" font-family="sans-serif" font-size="8.4" lengthAdjust="spacing" textLength="54" x="640.8" y="966.4371">CanBeDoneAt</text><line style="stroke:#181818;stroke-width:0.3;" x1="639.6" x2="696" y1="971.5453" y2="971.5453"/><text fill="#000000" font-family="sans-serif" font-size="8.4" lengthAdjust="spacing" textLength="39.6" x="642.6" y="983.0098">setupTime</text></g><!--class WorkstationType--><g id="elem_WorkstationType"><rect codeLine="131" fill="#F1F1F1" height="44.318" id="WorkstationType" rx="1.5" ry="1.5" style="stroke:#181818;stroke-width:0.3;" width="67.8" x="638.7" y="1045.8727"/><text fill="#000000" font-family="sans-serif" font-size="8.4" lengthAdjust="spacing" textLength="64.2" x="640.5" y="1057.9371">WorkstationType</text><line style="stroke:#181818;stroke-width:0.3;" x1="639.3" x2="705.9" y1="1063.0453" y2="1063.0453"/><text fill="#000000" font-family="sans-serif" font-size="8.4" lengthAdjust="spacing" textLength="6.6" x="642.3" y="1074.5098">id</text><text fill="#000000" font-family="sans-serif" font-size="8.4" lengthAdjust="spacing" textLength="21" x="642.3" y="1085.6824">name</text></g><!--class Workstation--><g id="elem_Workstation"><rect codeLine="136" fill="#F1F1F1" height="55.4906" id="Workstation" rx="1.5" ry="1.5" style="stroke:#181818;stroke-width:0.3;" width="48.6" x="682.5" y="1148.7727"/><text fill="#000000" font-family="sans-serif" font-size="8.4" lengthAdjust="spacing" textLength="45" x="684.3" y="1160.8371">Workstation</text><line style="stroke:#181818;stroke-width:0.3;" x1="683.1" x2="730.5" y1="1165.9453" y2="1165.9453"/><text fill="#000000" font-family="sans-serif" font-size="8.4" lengthAdjust="spacing" textLength="6.6" x="686.1" y="1177.4098">id</text><text fill="#000000" font-family="sans-serif" font-size="8.4" lengthAdjust="spacing" textLength="21" x="686.1" y="1188.5824">name</text><text fill="#000000" font-family="sans-serif" font-size="8.4" lengthAdjust="spacing" textLength="33.6" x="686.1" y="1199.7551">available</text></g><!--link Organization to Administrator--><g id="link_Organization_Administrator"><path codeLine="142" d="M521.322,47.1247 C475.914,60.1927 382.368,87.1207 336.354,100.3687 " fill="none" id="Organization-Administrator" style="stroke:#181818;stroke-width:0.6;"/><text fill="#000000" font-family="sans-serif" font-size="7.8" lengthAdjust="spacing" textLength="12.6" x="442.8" y="77.1896">has</text><text fill="#000000" font-family="sans-serif" font-size="7.8" lengthAdjust="spacing" textLength="4.2" x="512.3133" y="45.8836">1</text><text fill="#000000" font-family="sans-serif" font-size="7.8" lengthAdjust="spacing" textLength="12" x="341.1647" y="96.6465">1..*</text></g><!--link Organization to PlantFloorManager--><g id="link_Organization_PlantFloorManager"><path codeLine="143" d="M573.138,43.0447 C607.932,49.1947 665.4,65.7547 665.4,108.0727 C665.4,108.0727 665.4,108.0727 665.4,537.6727 C665.4,577.5967 670.542,624.8707 673.05,645.5707 " fill="none" id="Organization-PlantFloorManager" style="stroke:#181818;stroke-width:0.6;"/><text fill="#000000" font-family="sans-serif" font-size="7.8" lengthAdjust="spacing" textLength="12.6" x="666" y="329.1896">has</text><text fill="#000000" font-family="sans-serif" font-size="7.8" lengthAdjust="spacing" textLength="4.2" x="577.7818" y="41.1081">1</text><text fill="#000000" font-family="sans-serif" font-size="7.8" lengthAdjust="spacing" textLength="12" x="658.7991" y="638.8567">1..*</text></g><!--link Organization to ProductionManager--><g id="link_Organization_ProductionManager"><path codeLine="144" d="M547.2,50.3047 C547.2,80.2687 547.2,165.1747 547.2,195.0307 " fill="none" id="Organization-ProductionManager" style="stroke:#181818;stroke-width:0.6;"/><text fill="#000000" font-family="sans-serif" font-size="7.8" lengthAdjust="spacing" textLength="12.6" x="547.8" y="111.9896">has</text><text fill="#000000" font-family="sans-serif" font-size="7.8" lengthAdjust="spacing" textLength="4.2" x="542.4356" y="63.1649">1</text><text fill="#000000" font-family="sans-serif" font-size="7.8" lengthAdjust="spacing" textLength="12" x="533.3625" y="188.3351">1..*</text></g><!--link Administrator to Client--><g id="link_Administrator_Client"><path codeLine="145" d="M291.57,119.7847 C282.402,125.1427 271.092,131.7787 261,137.7727 C233.004,154.3927 201.222,173.5207 178.548,187.2127 " fill="none" id="Administrator-Client" style="stroke:#181818;stroke-width:0.6;"/><text fill="#000000" font-family="sans-serif" font-size="7.8" lengthAdjust="spacing" textLength="31.8" x="261.6" y="146.7896">manages</text><text fill="#000000" font-family="sans-serif" font-size="7.8" lengthAdjust="spacing" textLength="12" x="272.8116" y="132.8178">1..*</text><text fill="#000000" font-family="sans-serif" font-size="7.8" lengthAdjust="spacing" textLength="3" x="183.2257" y="181.9207">*</text></g><!--link Administrator to Supplier--><g id="link_Administrator_Supplier"><path codeLine="146" d="M309.6,119.9587 C309.6,137.7307 309.6,174.4747 309.6,205.5727 C309.6,205.5727 309.6,205.5727 309.6,383.4727 C309.6,417.0727 300.78,424.5427 294.6,457.5727 C274.326,565.9507 252.6,591.8167 252.6,702.0727 C252.6,702.0727 252.6,702.0727 252.6,971.4727 C252.6,992.7787 257.07,1016.2687 261.63,1034.6767 " fill="none" id="Administrator-Supplier" style="stroke:#181818;stroke-width:0.6;"/><text fill="#000000" font-family="sans-serif" font-size="7.8" lengthAdjust="spacing" textLength="31.8" x="260.4" y="614.1896">manages</text><text fill="#000000" font-family="sans-serif" font-size="7.8" lengthAdjust="spacing" textLength="12" x="295.9875" y="132.8334">1..*</text><text fill="#000000" font-family="sans-serif" font-size="7.8" lengthAdjust="spacing" textLength="3" x="257.2117" y="1027.9685">*</text></g><!--link ProductionManager to Order--><g id="link_ProductionManager_Order"><path codeLine="147" d="M518.022,217.2907 C455.076,239.9767 307.272,293.2447 245.886,315.3667 " fill="none" id="ProductionManager-Order" style="stroke:#181818;stroke-width:0.6;"/><text fill="#000000" font-family="sans-serif" font-size="7.8" lengthAdjust="spacing" textLength="31.8" x="383.4" y="272.1896">manages</text><text fill="#000000" font-family="sans-serif" font-size="7.8" lengthAdjust="spacing" textLength="12" x="496.1282" y="230.3255">1..*</text><text fill="#000000" font-family="sans-serif" font-size="7.8" lengthAdjust="spacing" textLength="3" x="250.5056" y="311.1053">*</text></g><!--link ProductionManager to SupplyOffer--><g id="link_ProductionManager_SupplyOffer"><path codeLine="148" d="M547.2,217.3927 C547.2,238.1347 547.2,285.4627 547.2,325.2727 C547.2,325.2727 547.2,325.2727 547.2,1068.6727 C547.2,1110.5347 506.19,1144.0267 478.632,1161.8047 " fill="none" id="ProductionManager-SupplyOffer" style="stroke:#181818;stroke-width:0.6;"/><text fill="#000000" font-family="sans-serif" font-size="7.8" lengthAdjust="spacing" textLength="31.8" x="547.8" y="705.9896">manages</text><text fill="#000000" font-family="sans-serif" font-size="7.8" lengthAdjust="spacing" textLength="12" x="533.5875" y="230.2497">1..*</text><text fill="#000000" font-family="sans-serif" font-size="7.8" lengthAdjust="spacing" textLength="3" x="483.2511" y="1156.508">*</text></g><!--link ProductionManager to SupplyOffer--><g id="link_ProductionManager_SupplyOffer"><path codeLine="149" d="M556.356,217.3807 C572.472,237.1687 604.2,281.6707 604.2,325.2727 C604.2,325.2727 604.2,325.2727 604.2,1068.6727 C604.2,1129.6267 521.136,1159.1707 478.632,1170.3007 " fill="none" id="ProductionManager-SupplyOffer-1" style="stroke:#181818;stroke-width:0.6;"/><text fill="#000000" font-family="sans-serif" font-size="7.8" lengthAdjust="spacing" textLength="14.4" x="604.8" y="705.9896">Part</text><text fill="#000000" font-family="sans-serif" font-size="7.8" lengthAdjust="spacing" textLength="12" x="560.4292" y="230.2344">1..*</text><text fill="#000000" font-family="sans-serif" font-size="7.8" lengthAdjust="spacing" textLength="3" x="483.2511" y="1178.5342">*</text></g><!--link PlantFloorManager to Workstation--><g id="link_PlantFloorManager_Workstation"><path codeLine="150" d="M688.11,667.9987 C707.286,684.1747 739.8,716.9707 739.8,753.3727 C739.8,753.3727 739.8,753.3727 739.8,1068.6727 C739.8,1096.8847 729.216,1127.4967 720.03,1148.7427 " fill="none" id="PlantFloorManager-Workstation" style="stroke:#181818;stroke-width:0.6;"/><text fill="#000000" font-family="sans-serif" font-size="7.8" lengthAdjust="spacing" textLength="31.8" x="740.4" y="933.9896">manages</text><text fill="#000000" font-family="sans-serif" font-size="7.8" lengthAdjust="spacing" textLength="12" x="678.1821" y="680.8573">1..*</text><text fill="#000000" font-family="sans-serif" font-size="7.8" lengthAdjust="spacing" textLength="3" x="718.8262" y="1141.939">*</text></g><!--link PlantFloorManager to Operation--><g id="link_PlantFloorManager_Operation"><path codeLine="151" d="M673.602,668.0107 C672.552,681.9727 670.68,706.9747 669.228,726.3247 " fill="none" id="PlantFloorManager-Operation" style="stroke:#181818;stroke-width:0.6;"/><text fill="#000000" font-family="sans-serif" font-size="7.8" lengthAdjust="spacing" textLength="31.8" x="671.4" y="705.9896">manages</text><text fill="#000000" font-family="sans-serif" font-size="7.8" lengthAdjust="spacing" textLength="12" x="659.775" y="680.8725">1..*</text><text fill="#000000" font-family="sans-serif" font-size="7.8" lengthAdjust="spacing" textLength="3" x="666.3089" y="719.5182">*</text></g><!--link Client to Address--><g id="link_Client_Address"><path codeLine="152" d="M120.876,245.4127 C107.736,267.6907 94.8,296.8387 94.8,325.2727 C94.8,325.2727 94.8,325.2727 94.8,1176.9727 C94.8,1224.0307 143.856,1261.4527 171.834,1278.9667 " fill="none" id="Client-Address" style="stroke:#181818;stroke-width:0.6;"/><polygon fill="#000000" points="97.9477,757.0563,99.4417,751.549,95.9193,751.7227,97.9477,757.0563" style="stroke:#000000;stroke-width:0.6;"/><text fill="#000000" font-family="sans-serif" font-size="7.8" lengthAdjust="spacing" textLength="12.6" x="103.2" y="757.2896">has</text><text fill="#000000" font-family="sans-serif" font-size="7.8" lengthAdjust="spacing" textLength="3" x="115.0386" y="258.211">*</text><text fill="#000000" font-family="sans-serif" font-size="7.8" lengthAdjust="spacing" textLength="4.2" x="163.0258" y="1273.61">1</text></g><!--link Client to CompanyType--><g id="link_Client_CompanyType"><path codeLine="153" d="M117.732,219.5347 C98.232,229.0567 73.668,243.7627 57.6,263.1727 C46.47,276.6187 40.122,295.8067 36.786,309.2887 " fill="none" id="Client-CompanyType" style="stroke:#181818;stroke-width:0.6;"/><polygon fill="#000000" points="58.5908,271.1878,63.5349,268.3386,60.916,265.9766,58.5908,271.1878" style="stroke:#000000;stroke-width:0.6;"/><text fill="#000000" font-family="sans-serif" font-size="7.8" lengthAdjust="spacing" textLength="12.6" x="66" y="272.1896">has</text><text fill="#000000" font-family="sans-serif" font-size="7.8" lengthAdjust="spacing" textLength="3" x="110.0367" y="218.99">*</text><text fill="#000000" font-family="sans-serif" font-size="7.8" lengthAdjust="spacing" textLength="4.2" x="32.8371" y="302.4946">1</text></g><!--link Client to State--><g id="link_Client_State"><path codeLine="154" d="M148.2,245.1967 C148.2,268.3867 148.2,298.5307 148.2,325.2727 C148.2,325.2727 148.2,325.2727 148.2,1011.6727 C148.2,1078.6567 209.598,1141.6207 235.986,1165.5787 " fill="none" id="Client-State" style="stroke:#181818;stroke-width:0.6;"/><polygon fill="#000000" points="151.4848,705.7464,152.7249,700.1764,149.2142,700.5113,151.4848,705.7464" style="stroke:#000000;stroke-width:0.6;"/><text fill="#000000" font-family="sans-serif" font-size="7.8" lengthAdjust="spacing" textLength="12.6" x="156.6" y="705.9896">has</text><text fill="#000000" font-family="sans-serif" font-size="7.8" lengthAdjust="spacing" textLength="3" x="145.0453" y="258.1814">*</text><text fill="#000000" font-family="sans-serif" font-size="7.8" lengthAdjust="spacing" textLength="4.2" x="227.177" y="1158.5356">1</text></g><!--link Client to Order--><g id="link_Client_Order"><path codeLine="155" d="M170.994,245.2447 C180.042,260.5207 190.338,277.9027 199.02,292.5547 " fill="none" id="Client-Order" style="stroke:#181818;stroke-width:0.6;"/><polygon fill="#000000" points="191.729,271.5411,190.4801,265.9731,187.4459,267.7705,191.729,271.5411" style="stroke:#000000;stroke-width:0.6;"/><text fill="#000000" font-family="sans-serif" font-size="7.8" lengthAdjust="spacing" textLength="22.8" x="195.6" y="272.1896">places</text><text fill="#000000" font-family="sans-serif" font-size="7.8" lengthAdjust="spacing" textLength="4.2" x="168.9281" y="258.2343">1</text><text fill="#000000" font-family="sans-serif" font-size="7.8" lengthAdjust="spacing" textLength="3" x="193.3447" y="285.8565">*</text></g><!--link Order to Address--><g id="link_Order_Address"><path codeLine="156" d="M204.036,359.3527 C197.328,377.5867 190.8,400.8847 190.8,422.4727 C190.8,422.4727 190.8,422.4727 190.8,1176.9727 C190.8,1201.6447 190.8,1229.3587 190.8,1251.1387 " fill="none" id="Order-Address" style="stroke:#181818;stroke-width:0.6;"/><polygon fill="#000000" points="193.7555,808.3596,195.5992,802.9593,192.0729,802.907,193.7555,808.3596" style="stroke:#000000;stroke-width:0.6;"/><text fill="#000000" font-family="sans-serif" font-size="7.8" lengthAdjust="spacing" textLength="39" x="199.2" y="808.5896">delivered to</text><text fill="#000000" font-family="sans-serif" font-size="7.8" lengthAdjust="spacing" textLength="3" x="199.1026" y="372.4784">*</text><text fill="#000000" font-family="sans-serif" font-size="7.8" lengthAdjust="spacing" textLength="4.2" x="186.3703" y="1244.5251">1</text></g><!--link Order to ProductOrder--><g id="link_Order_ProductOrder"><path codeLine="157" d="M229.254,359.2447 C234.546,375.2107 240.666,393.6907 244.92,406.5307 " fill="none" id="Order-ProductOrder" style="stroke:#181818;stroke-width:0.6;"/><polygon fill="#000000" points="241.5435,385.8077,241.5106,380.1015,238.1628,381.2106,241.5435,385.8077" style="stroke:#000000;stroke-width:0.6;"/><text fill="#000000" font-family="sans-serif" font-size="7.8" lengthAdjust="spacing" textLength="29.4" x="246" y="386.1896">contains</text><text fill="#000000" font-family="sans-serif" font-size="7.8" lengthAdjust="spacing" textLength="4.2" x="226.1209" y="372.3572">1</text><text fill="#000000" font-family="sans-serif" font-size="7.8" lengthAdjust="spacing" textLength="12" x="230.3115" y="399.7463">1..*</text></g><!--link ProductOrder to Product--><g id="link_ProductOrder_Product"><path codeLine="158" d="M266.886,439.5967 C286.992,458.7847 320.952,491.1907 343.998,513.1867 " fill="none" id="ProductOrder-Product" style="stroke:#181818;stroke-width:0.6;"/><polygon fill="#000000" points="300.3703,465.4311,297.6616,460.4087,295.2268,462.96,300.3703,465.4311" style="stroke:#000000;stroke-width:0.6;"/><text fill="#000000" font-family="sans-serif" font-size="7.8" lengthAdjust="spacing" textLength="31.8" x="303.6" y="466.5896">produces</text><text fill="#000000" font-family="sans-serif" font-size="7.8" lengthAdjust="spacing" textLength="12" x="257.3571" y="453.0176">1..*</text><text fill="#000000" font-family="sans-serif" font-size="7.8" lengthAdjust="spacing" textLength="4.2" x="335.0773" y="506.2577">1</text></g><!--link Part to Product--><g id="link_Part_Product"><path codeLine="159" d="M391.404,726.2287 C390.078,696.4327 387.222,647.2327 381.6,605.1727 C380.826,599.3707 379.86,593.3227 378.816,587.3227 " fill="none" id="Part-Product" style="stroke:#181818;stroke-width:0.6;"/><polygon fill="#000000" points="390.9292,653.8722,389.6629,659.4363,393.1752,659.118,390.9292,653.8722" style="stroke:#000000;stroke-width:0.6;"/><text fill="#000000" font-family="sans-serif" font-size="7.8" lengthAdjust="spacing" textLength="23.4" x="396.6" y="660.0896">can be</text><text fill="#000000" font-family="sans-serif" font-size="7.8" lengthAdjust="spacing" textLength="4.2" x="386.7493" y="719.6132">1</text><text fill="#000000" font-family="sans-serif" font-size="7.8" lengthAdjust="spacing" textLength="13.2" x="365.932" y="600.3313">0..1</text></g><!--link Part to Component--><g id="link_Part_Component"><path codeLine="160" d="M369.882,781.6027 C365.418,787.3927 360.906,793.5787 357,799.5727 C348.564,812.5267 340.38,827.6647 333.954,840.3427 " fill="none" id="Part-Component" style="stroke:#181818;stroke-width:0.6;"/><polygon fill="#000000" points="358.4347,807.9192,362.7707,804.2096,359.7621,802.3694,358.4347,807.9192" style="stroke:#000000;stroke-width:0.6;"/><text fill="#000000" font-family="sans-serif" font-size="7.8" lengthAdjust="spacing" textLength="23.4" x="365.4" y="808.5896">can be</text><text fill="#000000" font-family="sans-serif" font-size="7.8" lengthAdjust="spacing" textLength="4.2" x="361.9124" y="795.0225">1</text><text fill="#000000" font-family="sans-serif" font-size="7.8" lengthAdjust="spacing" textLength="13.2" x="321.727" y="833.539">0..1</text></g><!--link Part to RawMaterial--><g id="link_Part_RawMaterial"><path codeLine="161" d="M393.552,781.5907 C394.152,795.7327 394.896,813.3007 395.562,828.8407 " fill="none" id="Part-RawMaterial" style="stroke:#181818;stroke-width:0.6;"/><polygon fill="#000000" points="397.9275,808.3573,399.4586,802.8602,395.9351,803.01,397.9275,808.3573" style="stroke:#000000;stroke-width:0.6;"/><text fill="#000000" font-family="sans-serif" font-size="7.8" lengthAdjust="spacing" textLength="23.4" x="403.2" y="808.5896">can be</text><text fill="#000000" font-family="sans-serif" font-size="7.8" lengthAdjust="spacing" textLength="4.2" x="389.2068" y="795.0087">1</text><text fill="#000000" font-family="sans-serif" font-size="7.8" lengthAdjust="spacing" textLength="13.2" x="381.461" y="822.2383">0..1</text></g><!--link Product to ProductCategory--><g id="link_Product_ProductCategory"><path codeLine="162" d="M344.046,583.1107 C340.53,590.3947 337.122,597.9247 334.2,605.1727 C330.396,614.6227 326.982,625.3627 324.324,634.5487 " fill="none" id="Product-ProductCategory" style="stroke:#181818;stroke-width:0.6;"/><polygon fill="#000000" points="336.126,613.7611,339.7154,609.3251,336.4224,608.0625,336.126,613.7611" style="stroke:#000000;stroke-width:0.6;"/><text fill="#000000" font-family="sans-serif" font-size="7.8" lengthAdjust="spacing" textLength="36" x="342.6" y="614.1896">belongs to</text><text fill="#000000" font-family="sans-serif" font-size="7.8" lengthAdjust="spacing" textLength="3" x="336.2792" y="588.8934">*</text><text fill="#000000" font-family="sans-serif" font-size="7.8" lengthAdjust="spacing" textLength="4.2" x="320.7922" y="627.7514">1</text></g><!--link RawMaterial to RawMaterialSupplier--><g id="link_RawMaterial_RawMaterialSupplier"><path codeLine="163" d="M366.594,897.3607 C358.71,905.7667 350.688,915.3007 344.4,924.9727 C338.484,934.0687 333.714,945.2887 330.408,954.2827 " fill="none" id="RawMaterial-RawMaterialSupplier" style="stroke:#181818;stroke-width:0.6;"/><polygon fill="#000000" points="345.7905,933.2917,350.1902,929.6578,347.214,927.7657,345.7905,933.2917" style="stroke:#000000;stroke-width:0.6;"/><text fill="#000000" font-family="sans-serif" font-size="7.8" lengthAdjust="spacing" textLength="28.8" x="352.8" y="933.9896">supplied</text><text fill="#000000" font-family="sans-serif" font-size="7.8" lengthAdjust="spacing" textLength="4.2" x="357.5903" y="899.1698">1</text><text fill="#000000" font-family="sans-serif" font-size="7.8" lengthAdjust="spacing" textLength="3" x="328.2655" y="947.4872">*</text></g><!--link RawMaterialSupplier to Supplier--><g id="link_RawMaterialSupplier_Supplier"><path codeLine="164" d="M316.164,987.5407 C308.958,1000.3507 298.626,1018.7167 289.686,1034.6107 " fill="none" id="RawMaterialSupplier-Supplier" style="stroke:#181818;stroke-width:0.6;"/><polygon fill="#000000" points="305.7292,1013.7747,309.9268,1009.9092,306.853,1008.1801,305.7292,1013.7747" style="stroke:#000000;stroke-width:0.6;"/><text fill="#000000" font-family="sans-serif" font-size="7.8" lengthAdjust="spacing" textLength="37.8" x="312.6" y="1014.3896">associates</text><text fill="#000000" font-family="sans-serif" font-size="7.8" lengthAdjust="spacing" textLength="3" x="310.8593" y="1000.7226">*</text><text fill="#000000" font-family="sans-serif" font-size="7.8" lengthAdjust="spacing" textLength="4.2" x="287.483" y="1028.1347">1</text></g><!--link Supplier to State--><g id="link_Supplier_State"><path codeLine="165" d="M264.054,1101.3907 C259.83,1120.7047 254.676,1144.3027 251.316,1159.6687 " fill="none" id="Supplier-State" style="stroke:#181818;stroke-width:0.6;"/><polygon fill="#000000" points="261.5594,1128.0908,264.4409,1123.1654,260.9956,1122.4124,261.5594,1128.0908" style="stroke:#000000;stroke-width:0.6;"/><text fill="#000000" font-family="sans-serif" font-size="7.8" lengthAdjust="spacing" textLength="12.6" x="267.6" y="1128.3896">has</text><text fill="#000000" font-family="sans-serif" font-size="7.8" lengthAdjust="spacing" textLength="3" x="259.9462" y="1114.7371">*</text><text fill="#000000" font-family="sans-serif" font-size="7.8" lengthAdjust="spacing" textLength="4.2" x="247.4258" y="1153.1192">1</text></g><!--link Supplier to SupplyOffer--><g id="link_Supplier_SupplyOffer"><path codeLine="166" d="M301.626,1086.4807 C337.602,1107.5347 396.768,1142.1607 429.858,1161.5287 " fill="none" id="Supplier-SupplyOffer" style="stroke:#181818;stroke-width:0.6;"/><polygon fill="#000000" points="378.7892,1126.6753,374.996,1122.4122,373.2146,1125.4559,378.7892,1126.6753" style="stroke:#000000;stroke-width:0.6;"/><text fill="#000000" font-family="sans-serif" font-size="7.8" lengthAdjust="spacing" textLength="22.8" x="381.6" y="1128.3896">places</text><text fill="#000000" font-family="sans-serif" font-size="7.8" lengthAdjust="spacing" textLength="4.2" x="306.2" y="1086.5769">1</text><text fill="#000000" font-family="sans-serif" font-size="7.8" lengthAdjust="spacing" textLength="3" x="422.0934" y="1156.0578">*</text></g><!--link SupplyOffer to Address--><g id="link_SupplyOffer_Address"><path codeLine="167" d="M429.894,1187.3827 C377.868,1209.6607 256.662,1261.5667 209.784,1281.6427 " fill="none" id="SupplyOffer-Address" style="stroke:#181818;stroke-width:0.6;"/><polygon fill="#000000" points="345.8422,1228.9409,351.5252,1228.4255,350.1369,1225.1835,345.8422,1228.9409" style="stroke:#000000;stroke-width:0.6;"/><text fill="#000000" font-family="sans-serif" font-size="7.8" lengthAdjust="spacing" textLength="12.6" x="354" y="1230.9896">has</text><text fill="#000000" font-family="sans-serif" font-size="7.8" lengthAdjust="spacing" textLength="3" x="422.136" y="1186.6786">*</text><text fill="#000000" font-family="sans-serif" font-size="7.8" lengthAdjust="spacing" textLength="4.2" x="214.3961" y="1276.8714">1</text></g><!--link SupplyOffer to RawMaterialSupply--><g id="link_SupplyOffer_RawMaterialSupply"><path codeLine="168" d="M446.154,1203.9907 C440.31,1223.6107 432.504,1249.8067 427.062,1268.0707 " fill="none" id="SupplyOffer-RawMaterialSupply" style="stroke:#181818;stroke-width:0.6;"/><polygon fill="#000000" points="442.5434,1230.6351,445.783,1225.9375,442.4031,1224.9305,442.5434,1230.6351" style="stroke:#000000;stroke-width:0.6;"/><text fill="#000000" font-family="sans-serif" font-size="7.8" lengthAdjust="spacing" textLength="29.4" x="448.8" y="1230.9896">contains</text><text fill="#000000" font-family="sans-serif" font-size="7.8" lengthAdjust="spacing" textLength="4.2" x="440.4004" y="1217.4087">1</text><text fill="#000000" font-family="sans-serif" font-size="7.8" lengthAdjust="spacing" textLength="12" x="415.1443" y="1261.4295">1..*</text></g><!--link RawMaterialSupply to RawMaterial--><g id="link_RawMaterialSupply_RawMaterial"><path codeLine="169" d="M413.508,1267.9867 C406.818,1245.4627 397.8,1209.1387 397.8,1176.9727 C397.8,970.2727 397.8,970.2727 397.8,970.2727 C397.8,949.4407 397.674,926.2027 397.536,907.2067 " fill="none" id="RawMaterialSupply-RawMaterial" style="stroke:#181818;stroke-width:0.6;"/><polygon fill="#000000" points="400.6673,1065.1629,399.1457,1070.6626,402.669,1070.5066,400.6673,1065.1629" style="stroke:#000000;stroke-width:0.6;"/><text fill="#000000" font-family="sans-serif" font-size="7.8" lengthAdjust="spacing" textLength="37.8" x="406.2" y="1071.3896">associates</text><text fill="#000000" font-family="sans-serif" font-size="7.8" lengthAdjust="spacing" textLength="12" x="399.176" y="1261.3306">1..*</text><text fill="#000000" font-family="sans-serif" font-size="7.8" lengthAdjust="spacing" textLength="4.2" x="393.1624" y="920.0044">1</text></g><!--link Product to ProductElement--><g id="link_Product_ProductElement"><path codeLine="170" d="M392.892,563.6767 C414.9,587.0467 446.514,620.6167 464.988,640.2307 " fill="none" id="Product-ProductElement" style="stroke:#181818;stroke-width:0.6;"/><polygon fill="#000000" points="445.4568,613.1439,443.0197,607.9842,440.4523,610.402,445.4568,613.1439" style="stroke:#000000;stroke-width:0.6;"/><text fill="#000000" font-family="sans-serif" font-size="7.8" lengthAdjust="spacing" textLength="44.4" x="448.8" y="614.1896">composed of</text><text fill="#000000" font-family="sans-serif" font-size="7.8" lengthAdjust="spacing" textLength="4.2" x="397.4625" y="565.6063">1</text><text fill="#000000" font-family="sans-serif" font-size="7.8" lengthAdjust="spacing" textLength="12" x="448.129" y="633.4463">1..*</text></g><!--link ProductElement to Operation--><g id="link_ProductElement_Operation"><path codeLine="171" d="M477.054,673.4887 C475.998,684.5707 476.67,698.9407 484.8,708.3727 C504.336,731.0407 589.584,744.3307 636.3,750.0427 " fill="none" id="ProductElement-Operation" style="stroke:#181818;stroke-width:0.6;"/><polygon fill="#000000" points="490.5038,704.0598,486.3766,700.1192,484.8486,703.2977,490.5038,704.0598" style="stroke:#000000;stroke-width:0.6;"/><text fill="#000000" font-family="sans-serif" font-size="7.8" lengthAdjust="spacing" textLength="27.6" x="493.2" y="705.9896">requires</text><text fill="#000000" font-family="sans-serif" font-size="7.8" lengthAdjust="spacing" textLength="3" x="473.0814" y="686.6811">*</text><text fill="#000000" font-family="sans-serif" font-size="7.8" lengthAdjust="spacing" textLength="4.2" x="627.2531" y="746.9248">1</text></g><!--link ProductElement to Part--><g id="link_ProductElement_Part"><path codeLine="172" d="M452.52,673.3507 C442.818,679.8547 432.312,687.9727 424.2,696.9727 C416.448,705.5707 409.788,716.3827 404.592,726.2347 " fill="none" id="ProductElement-Part" style="stroke:#181818;stroke-width:0.6;"/><polygon fill="#000000" points="425.1854,704.9829,430.1364,702.1457,427.5232,699.7774,425.1854,704.9829" style="stroke:#000000;stroke-width:0.6;"/><text fill="#000000" font-family="sans-serif" font-size="7.8" lengthAdjust="spacing" textLength="27.6" x="432.6" y="705.9896">requires</text><text fill="#000000" font-family="sans-serif" font-size="7.8" lengthAdjust="spacing" textLength="3" x="443.1806" y="686.5129">*</text><text fill="#000000" font-family="sans-serif" font-size="7.8" lengthAdjust="spacing" textLength="4.2" x="401.8743" y="719.62">1</text></g><!--link Operation to OperationType--><g id="link_Operation_OperationType"><path codeLine="173" d="M667.2,781.5907 C667.2,801.2107 667.2,827.4067 667.2,845.6707 " fill="none" id="Operation-OperationType" style="stroke:#181818;stroke-width:0.6;"/><polygon fill="#000000" points="670.2,808.36,671.9634,802.9329,668.4366,802.9329,670.2,808.36" style="stroke:#000000;stroke-width:0.6;"/><text fill="#000000" font-family="sans-serif" font-size="7.8" lengthAdjust="spacing" textLength="36" x="675.6" y="808.5896">belongs to</text><text fill="#000000" font-family="sans-serif" font-size="7.8" lengthAdjust="spacing" textLength="3" x="663.9703" y="795.0087">*</text><text fill="#000000" font-family="sans-serif" font-size="7.8" lengthAdjust="spacing" textLength="4.2" x="662.6259" y="839.0295">1</text></g><!--link OperationType to CanBeDoneAt--><g id="link_OperationType_CanBeDoneAt"><path codeLine="174" d="M664.782,890.2567 C663.612,903.5707 662.646,920.9587 663.6,936.3727 C663.96,942.2347 664.674,948.6307 665.406,954.2707 " fill="none" id="OperationType-CanBeDoneAt" style="stroke:#181818;stroke-width:0.6;"/><polygon fill="#000000" points="666.6292,933.7598,668.3396,928.3158,664.8131,928.3502,666.6292,933.7598" style="stroke:#000000;stroke-width:0.6;"/><text fill="#000000" font-family="sans-serif" font-size="7.8" lengthAdjust="spacing" textLength="41.4" x="672" y="933.9896">attributed to</text><text fill="#000000" font-family="sans-serif" font-size="7.8" lengthAdjust="spacing" textLength="4.2" x="659.8337" y="903.2304">1</text><text fill="#000000" font-family="sans-serif" font-size="7.8" lengthAdjust="spacing" textLength="3" x="661.5542" y="947.7435">*</text></g><!--link CanBeDoneAt to WorkstationType--><g id="link_CanBeDoneAt_WorkstationType"><path codeLine="175" d="M668.604,987.5407 C669.402,1003.5007 670.632,1028.0767 671.514,1045.7707 " fill="none" id="CanBeDoneAt-WorkstationType" style="stroke:#181818;stroke-width:0.6;"/><polygon fill="#000000" points="672.7497,1014.1562,674.24,1008.6479,670.7177,1008.8239,672.7497,1014.1562" style="stroke:#000000;stroke-width:0.6;"/><text fill="#000000" font-family="sans-serif" font-size="7.8" lengthAdjust="spacing" textLength="27.6" x="678" y="1014.3896">requires</text><text fill="#000000" font-family="sans-serif" font-size="7.8" lengthAdjust="spacing" textLength="3" x="665.4517" y="1000.7226">*</text><text fill="#000000" font-family="sans-serif" font-size="7.8" lengthAdjust="spacing" textLength="4.2" x="666.7465" y="1039.1295">1</text></g><!--link WorkstationType to Workstation--><g id="link_WorkstationType_Workstation"><path codeLine="176" d="M670.452,1090.4887 C669.984,1102.6507 670.632,1117.8967 675,1130.7727 C677.088,1136.9347 680.31,1142.9947 683.916,1148.5807 " fill="none" id="WorkstationType-Workstation" style="stroke:#181818;stroke-width:0.6;"/><polygon fill="#000000" points="678.6774,1128.0825,679.1698,1122.3974,675.7342,1123.1937,678.6774,1128.0825" style="stroke:#000000;stroke-width:0.6;"/><text fill="#000000" font-family="sans-serif" font-size="7.8" lengthAdjust="spacing" textLength="40.2" x="683.4" y="1128.3896">categorizes</text><text fill="#000000" font-family="sans-serif" font-size="7.8" lengthAdjust="spacing" textLength="4.2" x="665.5484" y="1103.4842">1</text><text fill="#000000" font-family="sans-serif" font-size="7.8" lengthAdjust="spacing" textLength="3" x="677.3346" y="1141.9581">*</text></g><!--SRC=[dLPDRzim3BtxLmWv3cYmN7COqAKRi4ENOUcmio8pYH1PSYMvhLlilu-IlwZOIRFbObbyZwGUQIhkA7N9BIzOORGH1siAODvMaBdUKd9nv7lO-5e1io0yrtj50Ux0S_CizPxjk7AG4PDGtBbRxwtSLXw-2QCtyXNOn-mWSs12Me6Uuhe0Vp2vop8lFSQvCmMNcjsR75IMHJTiRVTSorVkfT7iBVlJxT_cXTJIUSkziUojt_zXJLw9WBxd6a-Gs1JN_gionevjAoL1Uup0y2Vp-D2yWBXuml0whig3qV2zAhPWupjWnefcbLl0P-86amJmSVagonMUBgwzUMvy2bDfR-lW1NHLi9KfIgxhXxg4rf77vH1auxcVjgnj7Wv5WvkmTOU4-8R2oYUmTRzHMYc8WrOzwkUnGj6ahqUWCrhbu8ILPQX0SpgElHJuKGfiXFRCojWB6QmmmRsnzKIG0ShjDKaC9KPTiNhwdqW_-VCzvc8bLzSUkB8MWsoy4SUu4Hgrg8fcOyhnfYfBRBzESNWfyOE3_9UMVcMS9vLFWQUPlDESaLslTxjJ1ywZadrBWCxZ-coczMbdX9Tgb6nRoIyAYa7pSJUjIx3TrprrA7W1KGNxWwJ5xsdaCvdiaXNNd-4EXRdjSd3WgpBrzjlO8wfmZJy2FPCnVqBP-LP5KZA_PeiPkxd1ntp-ONOomfRimDqb-7XwlKyP3SE6aaPkmO66ZtOGBbaHAPV1VKCEy77CbDBCbklnj6l_bnKcHJRMBwNGmf90xx26zXquhOIp5hMOzVT2b9zzca3GeNyUrOp-K_jY96wfk800QJOcCsdl0iZn9XgGK_tJUSMRtEC57Vmc5gB8eYU5BE8gvX5dTUVyutoUu0JNR0lJg65eNyRHEKsHRP3PAB_-XbaYKXczTuqEr15HTcfSBvbhbddAwm6qSWC9fuWH4h51c4biKkK1iJZJtdsrwVQ5xajWIS77epwf-jYSbZujGdBElX1J3TRT4I4ObjkXe6Ota3epEHBzx2myLjBIA1E4s389Td0nvRVz49FMI8sa7FIEmNDtVttRBujQIQZJEoT9xjH8WgLpIZHjZF-h0kql]--></g></svg>