<?xml version="1.0" encoding="us-ascii" standalone="no"?><svg xmlns="http://www.w3.org/2000/svg" xmlns:xlink="http://www.w3.org/1999/xlink" contentStyleType="text/css" height="1205.4px" preserveAspectRatio="none" style="width:551px;height:1205px;background:#FFFFFF;" version="1.1" viewBox="0 0 551 1205" width="551.4px" zoomAndPan="magnify"><defs/><g><text fill="#000000" font-family="sans-serif" font-size="8.4" font-weight="bold" lengthAdjust="spacing" textLength="60" x="241.5669" y="15.0645">Domain Model</text><!--class Client--><g id="elem_Client"><rect codeLine="11" fill="#F1F1F1" height="77.8359" id="Client" rx="1.5" ry="1.5" style="stroke:#181818;stroke-width:0.3;" width="60.6" x="70.0337" y="27.9727"/><text fill="#000000" font-family="sans-serif" font-size="8.4" lengthAdjust="spacing" textLength="21.6" x="89.5337" y="40.0371">Client</text><line style="stroke:#181818;stroke-width:0.3;" x1="70.6337" x2="130.0337" y1="45.1453" y2="45.1453"/><text fill="#000000" font-family="sans-serif" font-size="8.4" lengthAdjust="spacing" textLength="6.6" x="73.6337" y="56.6098">id</text><text fill="#000000" font-family="sans-serif" font-size="8.4" lengthAdjust="spacing" textLength="21" x="73.6337" y="67.7824">name</text><text fill="#000000" font-family="sans-serif" font-size="8.4" lengthAdjust="spacing" textLength="18" x="73.6337" y="78.9551">vatin</text><text fill="#000000" font-family="sans-serif" font-size="8.4" lengthAdjust="spacing" textLength="53.4" x="73.6337" y="90.1277">phoneNumber</text><text fill="#000000" font-family="sans-serif" font-size="8.4" lengthAdjust="spacing" textLength="19.8" x="73.6337" y="101.3004">email</text></g><!--class Address--><g id="elem_Address"><rect codeLine="19" fill="#F1F1F1" height="77.8359" id="Address" rx="1.5" ry="1.5" style="stroke:#181818;stroke-width:0.3;" width="37.8" x="147.4337" y="1123.5727"/><text fill="#000000" font-family="sans-serif" font-size="8.4" lengthAdjust="spacing" textLength="31.2" x="150.7337" y="1135.6371">Address</text><line style="stroke:#181818;stroke-width:0.3;" x1="148.0337" x2="184.6337" y1="1140.7453" y2="1140.7453"/><text fill="#000000" font-family="sans-serif" font-size="8.4" lengthAdjust="spacing" textLength="6.6" x="151.0337" y="1152.2098">id</text><text fill="#000000" font-family="sans-serif" font-size="8.4" lengthAdjust="spacing" textLength="21.6" x="151.0337" y="1163.3824">street</text><text fill="#000000" font-family="sans-serif" font-size="8.4" lengthAdjust="spacing" textLength="30.6" x="151.0337" y="1174.5551">zipCode</text><text fill="#000000" font-family="sans-serif" font-size="8.4" lengthAdjust="spacing" textLength="17.4" x="151.0337" y="1185.7277">town</text><text fill="#000000" font-family="sans-serif" font-size="8.4" lengthAdjust="spacing" textLength="28.2" x="151.0337" y="1196.9004">country</text></g><!--class CompanyType--><g id="elem_CompanyType"><rect codeLine="27" fill="#F1F1F1" height="44.318" id="CompanyType" rx="1.5" ry="1.5" style="stroke:#181818;stroke-width:0.3;" width="58.8" x="40.3337" y="164.4727"/><text fill="#000000" font-family="sans-serif" font-size="8.4" lengthAdjust="spacing" textLength="55.2" x="42.1337" y="176.5371">CompanyType</text><line style="stroke:#181818;stroke-width:0.3;" x1="40.9337" x2="98.5337" y1="181.6453" y2="181.6453"/><text fill="#000000" font-family="sans-serif" font-size="8.4" lengthAdjust="spacing" textLength="35.4" x="43.9337" y="193.1098">individual</text><text fill="#000000" font-family="sans-serif" font-size="8.4" lengthAdjust="spacing" textLength="34.2" x="43.9337" y="204.2824">company</text></g><!--class State--><g id="elem_State"><rect codeLine="32" fill="#F1F1F1" height="44.318" id="State" rx="1.5" ry="1.5" style="stroke:#181818;stroke-width:0.3;" width="36" x="109.3337" y="1026.3727"/><text fill="#000000" font-family="sans-serif" font-size="8.4" lengthAdjust="spacing" textLength="19.8" x="117.4337" y="1038.4371">State</text><line style="stroke:#181818;stroke-width:0.3;" x1="109.9337" x2="144.7337" y1="1043.5453" y2="1043.5453"/><text fill="#000000" font-family="sans-serif" font-size="8.4" lengthAdjust="spacing" textLength="22.2" x="112.9337" y="1055.0098">active</text><text fill="#000000" font-family="sans-serif" font-size="8.4" lengthAdjust="spacing" textLength="28.8" x="112.9337" y="1066.1824">inactive</text></g><!--class Order--><g id="elem_Order"><rect codeLine="37" fill="#F1F1F1" height="66.6633" id="Order" rx="1.5" ry="1.5" style="stroke:#181818;stroke-width:0.3;" width="54.6" x="163.0337" y="153.3727"/><text fill="#000000" font-family="sans-serif" font-size="8.4" lengthAdjust="spacing" textLength="22.2" x="179.2337" y="165.4371">Order</text><line style="stroke:#181818;stroke-width:0.3;" x1="163.6337" x2="217.0337" y1="170.5453" y2="170.5453"/><text fill="#000000" font-family="sans-serif" font-size="8.4" lengthAdjust="spacing" textLength="6.6" x="166.6337" y="182.0098">id</text><text fill="#000000" font-family="sans-serif" font-size="8.4" lengthAdjust="spacing" textLength="38.4" x="166.6337" y="193.1824">orderDate</text><text fill="#000000" font-family="sans-serif" font-size="8.4" lengthAdjust="spacing" textLength="47.4" x="166.6337" y="204.3551">deliveryDate</text><text fill="#000000" font-family="sans-serif" font-size="8.4" lengthAdjust="spacing" textLength="18.6" x="166.6337" y="215.5277">price</text></g><!--class ProductOrder--><g id="elem_ProductOrder"><rect codeLine="44" fill="#F1F1F1" height="33.1453" id="ProductOrder" rx="1.5" ry="1.5" style="stroke:#181818;stroke-width:0.3;" width="55.2" x="235.3337" y="278.4727"/><text fill="#000000" font-family="sans-serif" font-size="8.4" lengthAdjust="spacing" textLength="51.6" x="237.1337" y="290.5371">ProductOrder</text><line style="stroke:#181818;stroke-width:0.3;" x1="235.9337" x2="289.9337" y1="295.6453" y2="295.6453"/><text fill="#000000" font-family="sans-serif" font-size="8.4" lengthAdjust="spacing" textLength="30" x="238.9337" y="307.1098">quantity</text></g><!--class Product--><g id="elem_Product"><rect codeLine="48" fill="#F1F1F1" height="100.1812" id="Product" rx="1.5" ry="1.5" style="stroke:#181818;stroke-width:0.3;" width="48.6" x="278.2337" y="369.9727"/><text fill="#000000" font-family="sans-serif" font-size="8.4" lengthAdjust="spacing" textLength="29.4" x="287.8337" y="382.0371">Product</text><line style="stroke:#181818;stroke-width:0.3;" x1="278.8337" x2="326.2337" y1="387.1453" y2="387.1453"/><text fill="#000000" font-family="sans-serif" font-size="8.4" lengthAdjust="spacing" textLength="6.6" x="281.8337" y="398.6098">id</text><text fill="#000000" font-family="sans-serif" font-size="8.4" lengthAdjust="spacing" textLength="21" x="281.8337" y="409.7824">name</text><text fill="#000000" font-family="sans-serif" font-size="8.4" lengthAdjust="spacing" textLength="41.4" x="281.8337" y="420.9551">description</text><text fill="#000000" font-family="sans-serif" font-size="8.4" lengthAdjust="spacing" textLength="31.2" x="281.8337" y="432.1277">capacity</text><text fill="#000000" font-family="sans-serif" font-size="8.4" lengthAdjust="spacing" textLength="14.4" x="281.8337" y="443.3004">size</text><text fill="#000000" font-family="sans-serif" font-size="8.4" lengthAdjust="spacing" textLength="18.6" x="281.8337" y="454.473">color</text><text fill="#000000" font-family="sans-serif" font-size="8.4" lengthAdjust="spacing" textLength="18.6" x="281.8337" y="465.6457">price</text></g><!--class ProductCategory--><g id="elem_ProductCategory"><rect codeLine="58" fill="#F1F1F1" height="44.318" id="ProductCategory" rx="1.5" ry="1.5" style="stroke:#181818;stroke-width:0.3;" width="67.8" x="302.8337" y="517.5727"/><text fill="#000000" font-family="sans-serif" font-size="8.4" lengthAdjust="spacing" textLength="64.2" x="304.6337" y="529.6371">ProductCategory</text><line style="stroke:#181818;stroke-width:0.3;" x1="303.4337" x2="370.0337" y1="534.7453" y2="534.7453"/><text fill="#000000" font-family="sans-serif" font-size="8.4" lengthAdjust="spacing" textLength="6.6" x="306.4337" y="546.2098">id</text><text fill="#000000" font-family="sans-serif" font-size="8.4" lengthAdjust="spacing" textLength="21" x="306.4337" y="557.3824">name</text></g><!--class Unit--><g id="elem_Unit"><rect codeLine="63" fill="#F1F1F1" height="55.4906" id="Unit" rx="1.5" ry="1.5" style="stroke:#181818;stroke-width:0.3;" width="33.6" x="483.7337" y="1134.9727"/><text fill="#000000" font-family="sans-serif" font-size="8.4" lengthAdjust="spacing" textLength="14.4" x="493.3337" y="1147.0371">Unit</text><line style="stroke:#181818;stroke-width:0.3;" x1="484.3337" x2="516.7337" y1="1152.1453" y2="1152.1453"/><text fill="#000000" font-family="sans-serif" font-size="8.4" lengthAdjust="spacing" textLength="6.6" x="487.3337" y="1163.6098">id</text><text fill="#000000" font-family="sans-serif" font-size="8.4" lengthAdjust="spacing" textLength="21" x="487.3337" y="1174.7824">name</text><text fill="#000000" font-family="sans-serif" font-size="8.4" lengthAdjust="spacing" textLength="26.4" x="487.3337" y="1185.9551">symbol</text></g><!--class Part--><g id="elem_Part"><rect codeLine="69" fill="#F1F1F1" height="55.4906" id="Part" rx="1.5" ry="1.5" style="stroke:#181818;stroke-width:0.3;" width="48.6" x="416.8337" y="267.3727"/><text fill="#000000" font-family="sans-serif" font-size="8.4" lengthAdjust="spacing" textLength="15.6" x="433.3337" y="279.4371">Part</text><line style="stroke:#181818;stroke-width:0.3;" x1="417.4337" x2="464.8337" y1="284.5453" y2="284.5453"/><text fill="#000000" font-family="sans-serif" font-size="8.4" lengthAdjust="spacing" textLength="6.6" x="420.4337" y="296.0098">id</text><text fill="#000000" font-family="sans-serif" font-size="8.4" lengthAdjust="spacing" textLength="21" x="420.4337" y="307.1824">name</text><text fill="#000000" font-family="sans-serif" font-size="8.4" lengthAdjust="spacing" textLength="41.4" x="420.4337" y="318.3551">description</text></g><!--class Component--><g id="elem_Component"><rect codeLine="75" fill="#F1F1F1" height="55.4906" id="Component" rx="1.5" ry="1.5" style="stroke:#181818;stroke-width:0.3;" width="48.6" x="445.0337" y="392.4727"/><text fill="#000000" font-family="sans-serif" font-size="8.4" lengthAdjust="spacing" textLength="43.8" x="447.4337" y="404.5371">Component</text><line style="stroke:#181818;stroke-width:0.3;" x1="445.6337" x2="493.0337" y1="409.6453" y2="409.6453"/><text fill="#000000" font-family="sans-serif" font-size="8.4" lengthAdjust="spacing" textLength="6.6" x="448.6337" y="421.1098">id</text><text fill="#000000" font-family="sans-serif" font-size="8.4" lengthAdjust="spacing" textLength="21" x="448.6337" y="432.2824">name</text><text fill="#000000" font-family="sans-serif" font-size="8.4" lengthAdjust="spacing" textLength="41.4" x="448.6337" y="443.4551">description</text></g><!--class RawMaterial--><g id="elem_RawMaterial"><rect codeLine="81" fill="#F1F1F1" height="77.8359" id="RawMaterial" rx="1.5" ry="1.5" style="stroke:#181818;stroke-width:0.3;" width="61.2" x="357.1337" y="689.7727"/><text fill="#000000" font-family="sans-serif" font-size="8.4" lengthAdjust="spacing" textLength="46.2" x="364.6337" y="701.8371">RawMaterial</text><line style="stroke:#181818;stroke-width:0.3;" x1="357.7337" x2="417.7337" y1="706.9453" y2="706.9453"/><text fill="#000000" font-family="sans-serif" font-size="8.4" lengthAdjust="spacing" textLength="6.6" x="360.7337" y="718.4098">id</text><text fill="#000000" font-family="sans-serif" font-size="8.4" lengthAdjust="spacing" textLength="21" x="360.7337" y="729.5824">name</text><text fill="#000000" font-family="sans-serif" font-size="8.4" lengthAdjust="spacing" textLength="41.4" x="360.7337" y="740.7551">description</text><text fill="#000000" font-family="sans-serif" font-size="8.4" lengthAdjust="spacing" textLength="48" x="360.7337" y="751.9277">currentStock</text><text fill="#000000" font-family="sans-serif" font-size="8.4" lengthAdjust="spacing" textLength="54" x="360.7337" y="763.1004">minimumStock</text></g><!--class RawMaterialSupplier--><g id="elem_RawMaterialSupplier"><rect codeLine="89" fill="#F1F1F1" height="33.1453" id="RawMaterialSupplier" rx="1.5" ry="1.5" style="stroke:#181818;stroke-width:0.3;" width="81" x="327.4337" y="820.8727"/><text fill="#000000" font-family="sans-serif" font-size="8.4" lengthAdjust="spacing" textLength="77.4" x="329.2337" y="832.9371">RawMaterialSupplier</text><line style="stroke:#181818;stroke-width:0.3;" x1="328.0337" x2="407.8337" y1="838.0453" y2="838.0453"/><text fill="#000000" font-family="sans-serif" font-size="8.4" lengthAdjust="spacing" textLength="66" x="331.0337" y="849.5098">expectedUnitCost</text></g><!--class Supplier--><g id="elem_Supplier"><rect codeLine="93" fill="#F1F1F1" height="66.6633" id="Supplier" rx="1.5" ry="1.5" style="stroke:#181818;stroke-width:0.3;" width="60.6" x="319.0337" y="906.9727"/><text fill="#000000" font-family="sans-serif" font-size="8.4" lengthAdjust="spacing" textLength="31.2" x="333.7337" y="919.0371">Supplier</text><line style="stroke:#181818;stroke-width:0.3;" x1="319.6337" x2="379.0337" y1="924.1453" y2="924.1453"/><text fill="#000000" font-family="sans-serif" font-size="8.4" lengthAdjust="spacing" textLength="6.6" x="322.6337" y="935.6098">id</text><text fill="#000000" font-family="sans-serif" font-size="8.4" lengthAdjust="spacing" textLength="21" x="322.6337" y="946.7824">name</text><text fill="#000000" font-family="sans-serif" font-size="8.4" lengthAdjust="spacing" textLength="53.4" x="322.6337" y="957.9551">phoneNumber</text><text fill="#000000" font-family="sans-serif" font-size="8.4" lengthAdjust="spacing" textLength="19.8" x="322.6337" y="969.1277">email</text></g><!--class SupplyOffer--><g id="elem_SupplyOffer"><rect codeLine="100" fill="#F1F1F1" height="55.4906" id="SupplyOffer" rx="1.5" ry="1.5" style="stroke:#181818;stroke-width:0.3;" width="48.6" x="325.0337" y="1020.9727"/><text fill="#000000" font-family="sans-serif" font-size="8.4" lengthAdjust="spacing" textLength="45" x="326.8337" y="1033.0371">SupplyOffer</text><line style="stroke:#181818;stroke-width:0.3;" x1="325.6337" x2="373.0337" y1="1038.1453" y2="1038.1453"/><text fill="#000000" font-family="sans-serif" font-size="8.4" lengthAdjust="spacing" textLength="6.6" x="328.6337" y="1049.6098">id</text><text fill="#000000" font-family="sans-serif" font-size="8.4" lengthAdjust="spacing" textLength="34.8" x="328.6337" y="1060.7824">startDate</text><text fill="#000000" font-family="sans-serif" font-size="8.4" lengthAdjust="spacing" textLength="32.4" x="328.6337" y="1071.9551">endDate</text></g><!--class RawMaterialSupply--><g id="elem_RawMaterialSupply"><rect codeLine="106" fill="#F1F1F1" height="44.318" id="RawMaterialSupply" rx="1.5" ry="1.5" style="stroke:#181818;stroke-width:0.3;" width="75.6" x="336.7337" y="1140.3727"/><text fill="#000000" font-family="sans-serif" font-size="8.4" lengthAdjust="spacing" textLength="72" x="338.5337" y="1152.4371">RawMaterialSupply</text><line style="stroke:#181818;stroke-width:0.3;" x1="337.3337" x2="411.7337" y1="1157.5453" y2="1157.5453"/><text fill="#000000" font-family="sans-serif" font-size="8.4" lengthAdjust="spacing" textLength="30" x="340.3337" y="1169.0098">quantity</text><text fill="#000000" font-family="sans-serif" font-size="8.4" lengthAdjust="spacing" textLength="31.2" x="340.3337" y="1180.1824">unitCost</text></g><!--class BOO--><g id="elem_BOO"><rect codeLine="111" fill="#F1F1F1" height="33.1453" id="BOO" rx="1.5" ry="1.5" style="stroke:#181818;stroke-width:0.3;" width="72.6" x="209.2337" y="523.2727"/><text fill="#000000" font-family="sans-serif" font-size="8.4" lengthAdjust="spacing" textLength="18.6" x="236.2337" y="535.3371">BOO</text><line style="stroke:#181818;stroke-width:0.3;" x1="209.8337" x2="281.2337" y1="540.4453" y2="540.4453"/><text fill="#000000" font-family="sans-serif" font-size="8.4" lengthAdjust="spacing" textLength="65.4" x="212.8337" y="551.9098">operationNumber</text></g><!--class BOOInput--><g id="elem_BOOInput"><rect codeLine="115" fill="#F1F1F1" height="33.1453" id="BOOInput" rx="1.5" ry="1.5" style="stroke:#181818;stroke-width:0.3;" width="40.8" x="228.7337" y="609.3727"/><text fill="#000000" font-family="sans-serif" font-size="8.4" lengthAdjust="spacing" textLength="37.2" x="230.5337" y="621.4371">BOOInput</text><line style="stroke:#181818;stroke-width:0.3;" x1="229.3337" x2="268.9337" y1="626.5453" y2="626.5453"/><text fill="#000000" font-family="sans-serif" font-size="8.4" lengthAdjust="spacing" textLength="30" x="232.3337" y="638.0098">quantity</text></g><!--class Operation--><g id="elem_Operation"><rect codeLine="119" fill="#F1F1F1" height="55.4906" id="Operation" rx="1.5" ry="1.5" style="stroke:#181818;stroke-width:0.3;" width="61.8" x="217.6337" y="701.1727"/><text fill="#000000" font-family="sans-serif" font-size="8.4" lengthAdjust="spacing" textLength="37.8" x="229.6337" y="713.2371">Operation</text><line style="stroke:#181818;stroke-width:0.3;" x1="218.2337" x2="278.8337" y1="718.3453" y2="718.3453"/><text fill="#000000" font-family="sans-serif" font-size="8.4" lengthAdjust="spacing" textLength="6.6" x="221.2337" y="729.8098">id</text><text fill="#000000" font-family="sans-serif" font-size="8.4" lengthAdjust="spacing" textLength="21" x="221.2337" y="740.9824">name</text><text fill="#000000" font-family="sans-serif" font-size="8.4" lengthAdjust="spacing" textLength="54.6" x="221.2337" y="752.1551">executionTime</text></g><!--class OperationType--><g id="elem_OperationType"><rect codeLine="125" fill="#F1F1F1" height="44.318" id="OperationType" rx="1.5" ry="1.5" style="stroke:#181818;stroke-width:0.3;" width="60.6" x="214.6337" y="815.1727"/><text fill="#000000" font-family="sans-serif" font-size="8.4" lengthAdjust="spacing" textLength="57" x="216.4337" y="827.2371">OperationType</text><line style="stroke:#181818;stroke-width:0.3;" x1="215.2337" x2="274.6337" y1="832.3453" y2="832.3453"/><text fill="#000000" font-family="sans-serif" font-size="8.4" lengthAdjust="spacing" textLength="6.6" x="218.2337" y="843.8098">id</text><text fill="#000000" font-family="sans-serif" font-size="8.4" lengthAdjust="spacing" textLength="21" x="218.2337" y="854.9824">name</text></g><!--class CanBeDoneAt--><g id="elem_CanBeDoneAt"><rect codeLine="130" fill="#F1F1F1" height="33.1453" id="CanBeDoneAt" rx="1.5" ry="1.5" style="stroke:#181818;stroke-width:0.3;" width="57.6" x="215.5337" y="923.7727"/><text fill="#000000" font-family="sans-serif" font-size="8.4" lengthAdjust="spacing" textLength="54" x="217.3337" y="935.8371">CanBeDoneAt</text><line style="stroke:#181818;stroke-width:0.3;" x1="216.1337" x2="272.5337" y1="940.9453" y2="940.9453"/><text fill="#000000" font-family="sans-serif" font-size="8.4" lengthAdjust="spacing" textLength="39.6" x="219.1337" y="952.4098">setupTime</text></g><!--class WorkstationType--><g id="elem_WorkstationType"><rect codeLine="134" fill="#F1F1F1" height="44.318" id="WorkstationType" rx="1.5" ry="1.5" style="stroke:#181818;stroke-width:0.3;" width="67.8" x="209.2337" y="1026.3727"/><text fill="#000000" font-family="sans-serif" font-size="8.4" lengthAdjust="spacing" textLength="64.2" x="211.0337" y="1038.4371">WorkstationType</text><line style="stroke:#181818;stroke-width:0.3;" x1="209.8337" x2="276.4337" y1="1043.5453" y2="1043.5453"/><text fill="#000000" font-family="sans-serif" font-size="8.4" lengthAdjust="spacing" textLength="6.6" x="212.8337" y="1055.0098">id</text><text fill="#000000" font-family="sans-serif" font-size="8.4" lengthAdjust="spacing" textLength="21" x="212.8337" y="1066.1824">name</text></g><!--class Workstation--><g id="elem_Workstation"><rect codeLine="139" fill="#F1F1F1" height="44.318" id="Workstation" rx="1.5" ry="1.5" style="stroke:#181818;stroke-width:0.3;" width="48.6" x="206.2337" y="1140.3727"/><text fill="#000000" font-family="sans-serif" font-size="8.4" lengthAdjust="spacing" textLength="45" x="208.0337" y="1152.4371">Workstation</text><line style="stroke:#181818;stroke-width:0.3;" x1="206.8337" x2="254.2337" y1="1157.5453" y2="1157.5453"/><text fill="#000000" font-family="sans-serif" font-size="8.4" lengthAdjust="spacing" textLength="6.6" x="209.8337" y="1169.0098">id</text><text fill="#000000" font-family="sans-serif" font-size="8.4" lengthAdjust="spacing" textLength="21" x="209.8337" y="1180.1824">name</text></g><!--link Client to Address--><g id="link_Client_Address"><path codeLine="144" d="M70.0217,88.5007 C43.2797,109.6747 8.5337,145.0867 8.5337,186.0727 C8.5337,186.0727 8.5337,186.0727 8.5337,1049.1727 C8.5337,1116.6907 105.3317,1147.6387 147.3017,1157.8867 " fill="none" id="Client-Address" style="stroke:#181818;stroke-width:0.6;"/><polygon fill="#000000" points="11.7499,628.9522,13.1175,623.4121,9.6,623.6663,11.7499,628.9522" style="stroke:#000000;stroke-width:0.6;"/><text fill="#000000" font-family="sans-serif" font-size="7.8" lengthAdjust="spacing" textLength="12.6" x="16.9337" y="629.1896">has</text><text fill="#000000" font-family="sans-serif" font-size="7.8" lengthAdjust="spacing" textLength="3" x="62.1505" y="89.2591">*</text><text fill="#000000" font-family="sans-serif" font-size="7.8" lengthAdjust="spacing" textLength="4.2" x="138.4791" y="1154">1</text></g><!--link Client to CompanyType--><g id="link_Client_CompanyType"><path codeLine="145" d="M90.3977,106.0447 C85.4057,125.3767 79.5437,148.0807 75.3437,164.3587 " fill="none" id="Client-CompanyType" style="stroke:#181818;stroke-width:0.6;"/><polygon fill="#000000" points="87.5838,132.6647,90.6478,127.8507,87.233,126.9692,87.5838,132.6647" style="stroke:#000000;stroke-width:0.6;"/><text fill="#000000" font-family="sans-serif" font-size="7.8" lengthAdjust="spacing" textLength="12.6" x="93.7337" y="132.9896">has</text><text fill="#000000" font-family="sans-serif" font-size="7.8" lengthAdjust="spacing" textLength="3" x="86.2184" y="119.0343">*</text><text fill="#000000" font-family="sans-serif" font-size="7.8" lengthAdjust="spacing" textLength="4.2" x="71.7689" y="157.7154">1</text></g><!--link Client to State--><g id="link_Client_State"><path codeLine="146" d="M115.5437,106.1587 C123.2237,129.0187 130.9337,158.7667 130.9337,186.0727 C130.9337,186.0727 130.9337,186.0727 130.9337,940.8727 C130.9337,970.4527 129.5477,1004.6047 128.4917,1026.2347 " fill="none" id="Client-State" style="stroke:#181818;stroke-width:0.6;"/><polygon fill="#000000" points="133.9759,588.7597,135.6627,583.3083,132.1364,583.358,133.9759,588.7597" style="stroke:#000000;stroke-width:0.6;"/><text fill="#000000" font-family="sans-serif" font-size="7.8" lengthAdjust="spacing" textLength="12.6" x="139.3337" y="588.9896">has</text><text fill="#000000" font-family="sans-serif" font-size="7.8" lengthAdjust="spacing" textLength="3" x="113.9575" y="119.1601">*</text><text fill="#000000" font-family="sans-serif" font-size="7.8" lengthAdjust="spacing" textLength="4.2" x="124.1239" y="1019.5871">1</text></g><!--link Client to Order--><g id="link_Client_Order"><path codeLine="147" d="M130.6697,103.8247 C136.0397,110.4607 141.5117,117.3727 146.5337,123.9727 C153.6797,133.3687 161.1857,143.7847 167.9237,153.3607 " fill="none" id="Client-Order" style="stroke:#181818;stroke-width:0.6;"/><polygon fill="#000000" points="158.5369,132.1576,156.6842,126.7604,153.8656,128.8801,158.5369,132.1576" style="stroke:#000000;stroke-width:0.6;"/><text fill="#000000" font-family="sans-serif" font-size="7.8" lengthAdjust="spacing" textLength="22.8" x="162.1337" y="132.9896">places</text><text fill="#000000" font-family="sans-serif" font-size="7.8" lengthAdjust="spacing" textLength="4.2" x="135.4337" y="106.7301">1</text><text fill="#000000" font-family="sans-serif" font-size="7.8" lengthAdjust="spacing" textLength="3" x="161.8602" y="146.6632">*</text></g><!--link Order to Address--><g id="link_Order_Address"><path codeLine="148" d="M184.1597,220.1947 C180.7217,241.3087 177.1337,269.3647 177.1337,294.3727 C177.1337,294.3727 177.1337,294.3727 177.1337,1049.1727 C177.1337,1073.9587 174.5177,1101.6727 171.8597,1123.4287 " fill="none" id="Order-Address" style="stroke:#181818;stroke-width:0.6;"/><polygon fill="#000000" points="180.0929,669.1597,181.9299,663.7571,178.4036,663.7091,180.0929,669.1597" style="stroke:#000000;stroke-width:0.6;"/><text fill="#000000" font-family="sans-serif" font-size="7.8" lengthAdjust="spacing" textLength="39" x="185.5337" y="669.3896">delivered to</text><text fill="#000000" font-family="sans-serif" font-size="7.8" lengthAdjust="spacing" textLength="3" x="180.2244" y="233.3255">*</text><text fill="#000000" font-family="sans-serif" font-size="7.8" lengthAdjust="spacing" textLength="4.2" x="168.0344" y="1116.825">1</text></g><!--link Order to ProductOrder--><g id="link_Order_ProductOrder"><path codeLine="149" d="M212.5097,219.9907 C225.6017,239.3047 241.6037,262.9027 252.0197,278.2687 " fill="none" id="Order-ProductOrder" style="stroke:#181818;stroke-width:0.6;"/><polygon fill="#000000" points="235.2172,246.2431,233.6313,240.7615,230.7122,242.7406,235.2172,246.2431" style="stroke:#000000;stroke-width:0.6;"/><text fill="#000000" font-family="sans-serif" font-size="7.8" lengthAdjust="spacing" textLength="29.4" x="238.9337" y="246.9896">contains</text><text fill="#000000" font-family="sans-serif" font-size="7.8" lengthAdjust="spacing" textLength="4.2" x="210.8819" y="233.3371">1</text><text fill="#000000" font-family="sans-serif" font-size="7.8" lengthAdjust="spacing" textLength="12" x="236.3198" y="271.7192">1..*</text></g><!--link ProductOrder to Product--><g id="link_ProductOrder_Product"><path codeLine="150" d="M268.0277,311.5147 C272.7497,326.2867 280.0277,349.0507 286.6817,369.8767 " fill="none" id="ProductOrder-Product" style="stroke:#181818;stroke-width:0.6;"/><polygon fill="#000000" points="284.2471,349.2175,284.2744,343.5113,280.9151,344.585,284.2471,349.2175" style="stroke:#000000;stroke-width:0.6;"/><text fill="#000000" font-family="sans-serif" font-size="7.8" lengthAdjust="spacing" textLength="31.8" x="288.7337" y="349.5896">produces</text><text fill="#000000" font-family="sans-serif" font-size="7.8" lengthAdjust="spacing" textLength="12" x="255.8182" y="324.9397">1..*</text><text fill="#000000" font-family="sans-serif" font-size="7.8" lengthAdjust="spacing" textLength="4.2" x="280.8829" y="363.1775">1</text></g><!--link Part to Product--><g id="link_Part_Product"><path codeLine="151" d="M416.8037,306.9967 C401.0477,315.0787 380.6177,326.8867 364.9337,340.5727 C350.7917,352.9147 337.5197,368.8087 326.8877,383.0887 " fill="none" id="Part-Product" style="stroke:#181818;stroke-width:0.6;"/><polygon fill="#000000" points="365.6437,348.2979,370.9255,346.1382,368.6473,343.4461,365.6437,348.2979" style="stroke:#000000;stroke-width:0.6;"/><text fill="#000000" font-family="sans-serif" font-size="7.8" lengthAdjust="spacing" textLength="23.4" x="373.3337" y="349.5896">can be</text><text fill="#000000" font-family="sans-serif" font-size="7.8" lengthAdjust="spacing" textLength="4.2" x="407.8959" y="306.4367">1</text><text fill="#000000" font-family="sans-serif" font-size="7.8" lengthAdjust="spacing" textLength="13.2" x="331.6275" y="374.8763">0..1</text></g><!--link Part to Component--><g id="link_Part_Component"><path codeLine="152" d="M447.2897,322.6087 C451.9877,343.2607 458.4377,371.5927 463.1417,392.2807 " fill="none" id="Part-Component" style="stroke:#181818;stroke-width:0.6;"/><polygon fill="#000000" points="456.7993,349.2852,457.3147,343.6022,453.8758,344.3846,456.7993,349.2852" style="stroke:#000000;stroke-width:0.6;"/><text fill="#000000" font-family="sans-serif" font-size="7.8" lengthAdjust="spacing" textLength="23.4" x="461.5337" y="349.5896">can be</text><text fill="#000000" font-family="sans-serif" font-size="7.8" lengthAdjust="spacing" textLength="4.2" x="443.7108" y="336.0295">1</text><text fill="#000000" font-family="sans-serif" font-size="7.8" lengthAdjust="spacing" textLength="13.2" x="448.0629" y="385.6581">0..1</text></g><!--link Part to RawMaterial--><g id="link_Part_RawMaterial"><path codeLine="153" d="M431.2697,322.7287 C423.1397,347.5627 412.9337,385.5007 412.9337,419.4727 C412.9337,419.4727 412.9337,419.4727 412.9337,626.4727 C412.9337,647.7547 407.6717,670.8247 401.9537,689.6047 " fill="none" id="Part-RawMaterial" style="stroke:#181818;stroke-width:0.6;"/><polygon fill="#000000" points="415.6947,542.8504,417.8848,537.5811,414.3693,537.3002,415.6947,542.8504" style="stroke:#000000;stroke-width:0.6;"/><text fill="#000000" font-family="sans-serif" font-size="7.8" lengthAdjust="spacing" textLength="23.4" x="421.3337" y="543.0896">can be</text><text fill="#000000" font-family="sans-serif" font-size="7.8" lengthAdjust="spacing" textLength="4.2" x="425.2377" y="336.1678">1</text><text fill="#000000" font-family="sans-serif" font-size="7.8" lengthAdjust="spacing" textLength="13.2" x="389.5871" y="682.9984">0..1</text></g><!--link Part to Unit--><g id="link_Part_Unit"><path codeLine="154" d="M465.6017,315.1207 C490.5917,337.4467 525.7337,376.4947 525.7337,419.4727 C525.7337,419.4727 525.7337,419.4727 525.7337,1049.1727 C525.7337,1078.9687 517.2557,1112.1547 510.1337,1134.7687 " fill="none" id="Part-Unit" style="stroke:#181818;stroke-width:0.6;"/><polygon fill="#000000" points="528.8965,731.8555,530.3628,726.3408,526.8413,726.5321,528.8965,731.8555" style="stroke:#000000;stroke-width:0.6;"/><text fill="#000000" font-family="sans-serif" font-size="7.8" lengthAdjust="spacing" textLength="12.6" x="534.1337" y="732.0896">has</text><text fill="#000000" font-family="sans-serif" font-size="7.8" lengthAdjust="spacing" textLength="3" x="470.2273" y="316.0077">*</text><text fill="#000000" font-family="sans-serif" font-size="7.8" lengthAdjust="spacing" textLength="4.2" x="507.0353" y="1128.1444">1</text></g><!--link Product to ProductCategory--><g id="link_Product_ProductCategory"><path codeLine="155" d="M316.8377,470.2387 C321.5957,486.7327 326.6537,504.2467 330.4757,517.5007 " fill="none" id="Product-ProductCategory" style="stroke:#181818;stroke-width:0.6;"/><polygon fill="#000000" points="327.9655,496.8424,328.155,491.1392,324.7666,492.1169,327.9655,496.8424" style="stroke:#000000;stroke-width:0.6;"/><text fill="#000000" font-family="sans-serif" font-size="7.8" lengthAdjust="spacing" textLength="36" x="332.5337" y="497.1896">belongs to</text><text fill="#000000" font-family="sans-serif" font-size="7.8" lengthAdjust="spacing" textLength="3" x="314.938" y="483.4134">*</text><text fill="#000000" font-family="sans-serif" font-size="7.8" lengthAdjust="spacing" textLength="4.2" x="324.7869" y="510.8649">1</text></g><!--link RawMaterial to RawMaterialSupplier--><g id="link_RawMaterial_RawMaterialSupplier"><path codeLine="156" d="M380.6417,767.8447 C377.2877,786.0187 373.4717,806.7367 370.9037,820.6687 " fill="none" id="RawMaterial-RawMaterialSupplier" style="stroke:#181818;stroke-width:0.6;"/><polygon fill="#000000" points="379.3898,794.5102,382.1078,789.4928,378.6396,788.8534,379.3898,794.5102" style="stroke:#000000;stroke-width:0.6;"/><text fill="#000000" font-family="sans-serif" font-size="7.8" lengthAdjust="spacing" textLength="28.8" x="385.3337" y="794.7896">supplied</text><text fill="#000000" font-family="sans-serif" font-size="7.8" lengthAdjust="spacing" textLength="4.2" x="375.4938" y="780.8343">1</text><text fill="#000000" font-family="sans-serif" font-size="7.8" lengthAdjust="spacing" textLength="3" x="368.2253" y="814.1192">*</text></g><!--link RawMaterialSupplier to Supplier--><g id="link_RawMaterialSupplier_Supplier"><path codeLine="157" d="M364.9877,854.0887 C362.4077,868.2007 358.5737,889.1527 355.3457,906.7987 " fill="none" id="RawMaterialSupplier-Supplier" style="stroke:#181818;stroke-width:0.6;"/><polygon fill="#000000" points="362.5939,886.311,365.305,881.2898,361.8359,880.6552,362.5939,886.311" style="stroke:#000000;stroke-width:0.6;"/><text fill="#000000" font-family="sans-serif" font-size="7.8" lengthAdjust="spacing" textLength="37.8" x="368.5337" y="886.5896">associates</text><text fill="#000000" font-family="sans-serif" font-size="7.8" lengthAdjust="spacing" textLength="3" x="361.0151" y="867.2811">*</text><text fill="#000000" font-family="sans-serif" font-size="7.8" lengthAdjust="spacing" textLength="4.2" x="351.6225" y="900.3212">1</text></g><!--link Supplier to State--><g id="link_Supplier_State"><path codeLine="158" d="M319.8317,973.5787 C308.4677,984.4027 294.7397,995.5687 280.3337,1002.9727 C247.3037,1019.9587 234.3257,1010.3767 198.7337,1020.9727 C180.3137,1026.4567 159.8537,1034.3887 145.5737,1040.2387 " fill="none" id="Supplier-State" style="stroke:#181818;stroke-width:0.6;"/><polygon fill="#000000" points="297.3317,998.4318,303.0306,998.1398,301.7705,994.8458,297.3317,998.4318" style="stroke:#000000;stroke-width:0.6;"/><text fill="#000000" font-family="sans-serif" font-size="7.8" lengthAdjust="spacing" textLength="12.6" x="305.5337" y="1000.5896">has</text><text fill="#000000" font-family="sans-serif" font-size="7.8" lengthAdjust="spacing" textLength="3" x="312.8596" y="986.9235">*</text><text fill="#000000" font-family="sans-serif" font-size="7.8" lengthAdjust="spacing" textLength="4.2" x="150.0231" y="1035.545">1</text></g><!--link Supplier to SupplyOffer--><g id="link_Supplier_SupplyOffer"><path codeLine="159" d="M349.3337,973.5907 C349.3337,988.7227 349.3337,1006.4827 349.3337,1020.8587 " fill="none" id="Supplier-SupplyOffer" style="stroke:#181818;stroke-width:0.6;"/><polygon fill="#000000" points="352.3337,1000.36,354.0971,994.9329,350.5704,994.9329,352.3337,1000.36" style="stroke:#000000;stroke-width:0.6;"/><text fill="#000000" font-family="sans-serif" font-size="7.8" lengthAdjust="spacing" textLength="22.8" x="357.7337" y="1000.5896">places</text><text fill="#000000" font-family="sans-serif" font-size="7.8" lengthAdjust="spacing" textLength="4.2" x="344.8646" y="986.9371">1</text><text fill="#000000" font-family="sans-serif" font-size="7.8" lengthAdjust="spacing" textLength="3" x="346.1134" y="1014.2476">*</text></g><!--link SupplyOffer to Address--><g id="link_SupplyOffer_Address"><path codeLine="160" d="M324.9917,1073.9287 C312.6017,1085.1787 296.7257,1097.7067 280.3337,1105.5727 C245.6777,1122.2047 228.2297,1103.0407 195.7337,1123.5727 C191.9717,1125.9487 188.5097,1128.9907 185.3777,1132.3147 " fill="none" id="SupplyOffer-Address" style="stroke:#181818;stroke-width:0.6;"/><polygon fill="#000000" points="299.166,1101.1174,304.8532,1100.6504,303.4925,1097.3967,299.166,1101.1174" style="stroke:#000000;stroke-width:0.6;"/><text fill="#000000" font-family="sans-serif" font-size="7.8" lengthAdjust="spacing" textLength="12.6" x="307.3337" y="1103.1896">has</text><text fill="#000000" font-family="sans-serif" font-size="7.8" lengthAdjust="spacing" textLength="3" x="317.2271" y="1075.8697">*</text><text fill="#000000" font-family="sans-serif" font-size="7.8" lengthAdjust="spacing" textLength="4.2" x="190.003" y="1122.8341">1</text></g><!--link SupplyOffer to Unit--><g id="link_SupplyOffer_Unit"><path codeLine="161" d="M373.7957,1067.4187 C404.6357,1090.4287 456.8537,1129.3867 483.6137,1149.3487 " fill="none" id="SupplyOffer-Unit" style="stroke:#181818;stroke-width:0.6;"/><polygon fill="#000000" points="430.3383,1101.7539,427.0428,1097.0953,424.9339,1099.922,430.3383,1101.7539" style="stroke:#000000;stroke-width:0.6;"/><text fill="#000000" font-family="sans-serif" font-size="7.8" lengthAdjust="spacing" textLength="12.6" x="433.3337" y="1103.1896">has</text><text fill="#000000" font-family="sans-serif" font-size="7.8" lengthAdjust="spacing" textLength="3" x="378.4202" y="1068.0738">*</text><text fill="#000000" font-family="sans-serif" font-size="7.8" lengthAdjust="spacing" textLength="4.2" x="474.7776" y="1143.085">1</text></g><!--link SupplyOffer to RawMaterialSupply--><g id="link_SupplyOffer_RawMaterialSupply"><path codeLine="162" d="M345.6917,1076.4067 C345.1757,1085.7487 345.4097,1096.2127 347.5337,1105.5727 C350.2757,1117.6387 355.9277,1130.1427 361.3577,1140.3067 " fill="none" id="SupplyOffer-RawMaterialSupply" style="stroke:#181818;stroke-width:0.6;"/><polygon fill="#000000" points="351.248,1102.8737,351.6684,1097.1828,348.2432,1098.0226,351.248,1102.8737" style="stroke:#000000;stroke-width:0.6;"/><text fill="#000000" font-family="sans-serif" font-size="7.8" lengthAdjust="spacing" textLength="29.4" x="355.9337" y="1103.1896">contains</text><text fill="#000000" font-family="sans-serif" font-size="7.8" lengthAdjust="spacing" textLength="4.2" x="340.6483" y="1089.6523">1</text><text fill="#000000" font-family="sans-serif" font-size="7.8" lengthAdjust="spacing" textLength="12" x="345.942" y="1133.6719">1..*</text></g><!--link RawMaterialSupply to RawMaterial--><g id="link_RawMaterialSupply_RawMaterial"><path codeLine="163" d="M403.7837,1140.3127 C414.7457,1130.7907 426.3677,1118.7727 433.9337,1105.5727 C446.7377,1083.2407 447.1337,1074.9187 447.1337,1049.1727 C447.1337,836.7727 447.1337,836.7727 447.1337,836.7727 C447.1337,810.1387 432.9737,783.9067 418.4777,764.0347 " fill="none" id="RawMaterialSupply-RawMaterial" style="stroke:#181818;stroke-width:0.6;"/><polygon fill="#000000" points="450.2508,937.3622,448.277,942.7164,451.801,942.854,450.2508,937.3622" style="stroke:#000000;stroke-width:0.6;"/><text fill="#000000" font-family="sans-serif" font-size="7.8" lengthAdjust="spacing" textLength="37.8" x="455.5337" y="943.5896">associates</text><text fill="#000000" font-family="sans-serif" font-size="7.8" lengthAdjust="spacing" textLength="12" x="395.9251" y="1133.679">1..*</text><text fill="#000000" font-family="sans-serif" font-size="7.8" lengthAdjust="spacing" textLength="4.2" x="423.0964" y="766.517">1</text></g><!--link Product to BOO--><g id="link_Product_BOO"><path codeLine="164" d="M278.6897,470.2387 C269.5997,489.1387 259.8617,509.3887 253.3037,523.0207 " fill="none" id="Product-BOO" style="stroke:#181818;stroke-width:0.6;"/><polygon fill="#000000" points="270.0334,496.6635,273.9748,492.537,270.7966,491.0084,270.0334,496.6635" style="stroke:#000000;stroke-width:0.6;"/><text fill="#000000" font-family="sans-serif" font-size="7.8" lengthAdjust="spacing" textLength="12.6" x="276.7337" y="497.1896">has</text><text fill="#000000" font-family="sans-serif" font-size="7.8" lengthAdjust="spacing" textLength="4.2" x="272.2601" y="483.4134">1</text><text fill="#000000" font-family="sans-serif" font-size="7.8" lengthAdjust="spacing" textLength="4.2" x="250.344" y="516.4607">1</text></g><!--link BOO to BOOInput--><g id="link_BOO_BOOInput"><path codeLine="165" d="M246.2117,556.3447 C246.8477,571.4227 247.8077,593.9347 248.4497,609.0847 " fill="none" id="BOO-BOOInput" style="stroke:#181818;stroke-width:0.6;"/><polygon fill="#000000" points="250.4609,588.7573,251.9926,583.2603,248.469,583.4099,250.4609,588.7573" style="stroke:#000000;stroke-width:0.6;"/><text fill="#000000" font-family="sans-serif" font-size="7.8" lengthAdjust="spacing" textLength="44.4" x="255.7337" y="588.9896">composed of</text><text fill="#000000" font-family="sans-serif" font-size="7.8" lengthAdjust="spacing" textLength="4.2" x="241.7006" y="569.5056">1</text><text fill="#000000" font-family="sans-serif" font-size="7.8" lengthAdjust="spacing" textLength="12" x="234.9876" y="602.5169">1..*</text></g><!--link BOOInput to Operation--><g id="link_BOOInput_Operation"><path codeLine="166" d="M249.0377,642.5887 C248.9477,658.2727 248.8037,682.3987 248.6957,701.0407 " fill="none" id="BOOInput-Operation" style="stroke:#181818;stroke-width:0.6;"/><polygon fill="#000000" points="251.5162,669.1599,253.3112,663.7433,249.7846,663.7226,251.5162,669.1599" style="stroke:#000000;stroke-width:0.6;"/><text fill="#000000" font-family="sans-serif" font-size="7.8" lengthAdjust="spacing" textLength="27.6" x="256.9337" y="669.3896">requires</text><text fill="#000000" font-family="sans-serif" font-size="7.8" lengthAdjust="spacing" textLength="3" x="245.6886" y="655.7811">*</text><text fill="#000000" font-family="sans-serif" font-size="7.8" lengthAdjust="spacing" textLength="4.2" x="244.2111" y="694.4269">1</text></g><!--link BOOInput to RawMaterial--><g id="link_BOOInput_RawMaterial"><path codeLine="167" d="M269.5817,641.4787 C292.6277,658.3867 330.3257,686.0527 356.9357,705.5767 " fill="none" id="BOOInput-RawMaterial" style="stroke:#181818;stroke-width:0.6;"/><polygon fill="#000000" points="315.1524,667.9347,311.8201,663.3025,309.7337,666.1458,315.1524,667.9347" style="stroke:#000000;stroke-width:0.6;"/><text fill="#000000" font-family="sans-serif" font-size="7.8" lengthAdjust="spacing" textLength="27.6" x="318.1337" y="669.3896">requires</text><text fill="#000000" font-family="sans-serif" font-size="7.8" lengthAdjust="spacing" textLength="3" x="274.3828" y="641.997">*</text><text fill="#000000" font-family="sans-serif" font-size="7.8" lengthAdjust="spacing" textLength="4.2" x="348.1094" y="699.8383">1</text></g><!--link Operation to OperationType--><g id="link_Operation_OperationType"><path codeLine="168" d="M247.6277,756.4747 C247.0157,774.6187 246.2297,798.1867 245.6597,815.0887 " fill="none" id="Operation-OperationType" style="stroke:#181818;stroke-width:0.6;"/><polygon fill="#000000" points="249.033,794.5583,250.9775,789.1934,247.4528,789.0751,249.033,794.5583" style="stroke:#000000;stroke-width:0.6;"/><text fill="#000000" font-family="sans-serif" font-size="7.8" lengthAdjust="spacing" textLength="36" x="254.5337" y="794.7896">belongs to</text><text fill="#000000" font-family="sans-serif" font-size="7.8" lengthAdjust="spacing" textLength="3" x="244.2593" y="769.9056">*</text><text fill="#000000" font-family="sans-serif" font-size="7.8" lengthAdjust="spacing" textLength="4.2" x="241.215" y="808.4507">1</text></g><!--link OperationType to CanBeDoneAt--><g id="link_OperationType_CanBeDoneAt"><path codeLine="169" d="M244.8077,859.7887 C244.6937,878.9947 244.5317,906.4987 244.4297,923.7127 " fill="none" id="OperationType-CanBeDoneAt" style="stroke:#181818;stroke-width:0.6;"/><polygon fill="#000000" points="247.316,886.3599,249.1114,880.9434,245.5847,880.9225,247.316,886.3599" style="stroke:#000000;stroke-width:0.6;"/><text fill="#000000" font-family="sans-serif" font-size="7.8" lengthAdjust="spacing" textLength="41.4" x="252.7337" y="886.5896">attributed to</text><text fill="#000000" font-family="sans-serif" font-size="7.8" lengthAdjust="spacing" textLength="4.2" x="240.239" y="872.7842">1</text><text fill="#000000" font-family="sans-serif" font-size="7.8" lengthAdjust="spacing" textLength="3" x="241.105" y="916.9242">*</text></g><!--link CanBeDoneAt to WorkstationType--><g id="link_CanBeDoneAt_WorkstationType"><path codeLine="170" d="M242.9537,956.9467 C242.0237,969.4807 241.0217,987.3247 241.3337,1002.9727 C241.4837,1010.5567 241.7777,1018.8547 242.0897,1026.2347 " fill="none" id="CanBeDoneAt-WorkstationType" style="stroke:#181818;stroke-width:0.6;"/><polygon fill="#000000" points="244.2963,1000.3597,246.1272,994.9551,242.6007,994.9111,244.2963,1000.3597" style="stroke:#000000;stroke-width:0.6;"/><text fill="#000000" font-family="sans-serif" font-size="7.8" lengthAdjust="spacing" textLength="27.6" x="249.7337" y="1000.5896">requires</text><text fill="#000000" font-family="sans-serif" font-size="7.8" lengthAdjust="spacing" textLength="3" x="239.3237" y="970.1299">*</text><text fill="#000000" font-family="sans-serif" font-size="7.8" lengthAdjust="spacing" textLength="4.2" x="237.3297" y="1019.5871">1</text></g><!--link WorkstationType to Workstation--><g id="link_WorkstationType_Workstation"><path codeLine="171" d="M234.7157,1070.8147 C232.2797,1078.1167 229.9457,1086.3907 228.7337,1094.1727 C226.3457,1109.4727 226.8857,1126.9447 227.9777,1140.3187 " fill="none" id="WorkstationType-Workstation" style="stroke:#181818;stroke-width:0.6;"/><polygon fill="#000000" points="231.4442,1102.946,233.723,1097.7144,230.2128,1097.3741,231.4442,1102.946" style="stroke:#000000;stroke-width:0.6;"/><text fill="#000000" font-family="sans-serif" font-size="7.8" lengthAdjust="spacing" textLength="40.2" x="237.1337" y="1103.1896">categorizes</text><text fill="#000000" font-family="sans-serif" font-size="7.8" lengthAdjust="spacing" textLength="4.2" x="228.7079" y="1083.9531">1</text><text fill="#000000" font-family="sans-serif" font-size="7.8" lengthAdjust="spacing" textLength="3" x="224.2552" y="1133.6861">*</text></g><!--SRC=[bLRBRjim4BphAmWV2yI8hpeKI9nB3gc3EaNFDBcs2KiamqSIfUY_TqczI5jAKbzCSMU7e-NislOafAQ6rgHMKh6ZKJKGPpmKTeXeoaxq05lNL40CC4VbeKe1zaYvUXNoGFQqib0a8LPHQs-SCsBd7Tmp9RVY7SXrSHGS21E68LDSr-2EYjkYSCBXENUgfaAI1yMXAef8GzQL0Ed8duBWH_3u9MaDSV52dP1nfOzAmWzVxy34Pq2cglZRiznmRW2_Cnhh382BotUXrtXgN3lrsd8ovQKpJM01wMkoLhMcidbgDFH4aeiNmJsjkeG868_TEkfwB6LEl42NrZqCm8tXO79rAcpTONvymefWWcc63Mq4ImWUZUAUkPJdsLE9TMqkG3F5v62P4Te9rRq-HHE4_5WhlC7k7IjbFb2mHe47PPg9GmReBodcHDYctgdauXwf-OhU0H_k29qW_olf9trzGDb6qEghjV76u25RfzWfRjH2YjhNxSOKyTPhZLRkBmVUD3OLy52AjR8kyKmEF5VoYT5ZThFPxyy9hCDA3ku1oUDwLcbpRgBmu2_4tcus7L1fC3JKfzEMGkwbzcxMbPi-S-QDuGsO3_4daPfeI4lxSSfjQofluGwhTjDhiE2ypjb-AtF24ds5Bu5EmxgHjVYs85TNPB5Q3EEd94TgoVS9H3fRvb7jF3cFhzeumjhsBuckA8C0QJScbNGJ1JWEl17PSQsMIyp9Xag9hIyTpkV0cqKwT7T2FsHGHLn57R6DU_BhvJB3CIh93gPHOpz_Z4jR-08vYekJfwzVhs1n8NuOOYNIL4eUR5kaz9Iax5DjNXBRBdcUDm3IQnsJq62A2SG6WPFOp08ZObIJZe342kds1zQSWMM5op2POox7I6QRot3kdVmMireCbxKQq67uz9B2EfSop9qo_YuhYpUXzYsq3IIlDywW4l_jF7jXmCv0Suq9UEIO8kuwExDJ7aokC1rPM8V-hrJNgcaqEUfyX6NYpeF9OUay2wqJhOy_zo7j7m00]--></g></svg>