<?xml version="1.0" encoding="us-ascii" standalone="no"?><svg xmlns="http://www.w3.org/2000/svg" xmlns:xlink="http://www.w3.org/1999/xlink" contentStyleType="text/css" height="2771px" preserveAspectRatio="none" style="width:502px;height:2771px;background:#FFFFFF;" version="1.1" viewBox="0 0 502 2771" width="502px" zoomAndPan="magnify"><defs/><g><text fill="#000000" font-family="sans-serif" font-size="14" font-weight="bold" lengthAdjust="spacing" textLength="127" x="180.5" y="25.1074">Use Case Diagram</text><!--cluster actors--><g id="cluster_actors"><rect fill="none" height="397" rx="2.5" ry="2.5" style="stroke:#FFFF00;stroke-width:1.0;" width="115" x="7" y="1195.6211"/><text fill="#000000" font-family="sans-serif" font-size="14" font-weight="bold" lengthAdjust="spacing" textLength="99" x="15" y="1212.7285">System Actors</text></g><!--cluster usecases--><g id="cluster_usecases"><rect fill="none" height="2719" rx="2.5" ry="2.5" style="stroke:#FFFF00;stroke-width:1.0;" width="346" x="150" y="46.6211"/><text fill="#000000" font-family="sans-serif" font-size="14" font-weight="bold" lengthAdjust="spacing" textLength="74" x="286" y="63.7285">Use Cases</text></g><!--entity Administrator--><g id="elem_Administrator"><ellipse cx="64.5" cy="1241.6211" fill="#F1F1F1" rx="8" ry="8" style="stroke:#181818;stroke-width:0.5;"/><path d="M64.5,1249.6211 L64.5,1276.6211 M51.5,1257.6211 L77.5,1257.6211 M64.5,1276.6211 L51.5,1291.6211 M64.5,1276.6211 L77.5,1291.6211 " fill="none" style="stroke:#181818;stroke-width:0.5;"/><text fill="#000000" font-family="sans-serif" font-size="14" lengthAdjust="spacing" textLength="83" x="23" y="1308.2285">Administrator</text></g><!--entity PM--><g id="elem_PM"><ellipse cx="64.5" cy="1355.6211" fill="#F1F1F1" rx="8" ry="8" style="stroke:#181818;stroke-width:0.5;"/><path d="M64.5,1363.6211 L64.5,1390.6211 M51.5,1371.6211 L77.5,1371.6211 M64.5,1390.6211 L51.5,1405.6211 M64.5,1390.6211 L77.5,1405.6211 " fill="none" style="stroke:#181818;stroke-width:0.5;"/><text fill="#000000" font-family="sans-serif" font-size="14" lengthAdjust="spacing" textLength="68" x="30.5" y="1422.2285">Production</text><text fill="#000000" font-family="sans-serif" font-size="14" lengthAdjust="spacing" textLength="56" x="30.5" y="1440.8496">Manager</text></g><!--entity PFM--><g id="elem_PFM"><ellipse cx="64.5" cy="1487.6211" fill="#F1F1F1" rx="8" ry="8" style="stroke:#181818;stroke-width:0.5;"/><path d="M64.5,1495.6211 L64.5,1522.6211 M51.5,1503.6211 L77.5,1503.6211 M64.5,1522.6211 L51.5,1537.6211 M64.5,1522.6211 L77.5,1537.6211 " fill="none" style="stroke:#181818;stroke-width:0.5;"/><text fill="#000000" font-family="sans-serif" font-size="14" lengthAdjust="spacing" textLength="78" x="25.5" y="1554.2285">Plant\NFloor</text><text fill="#000000" font-family="sans-serif" font-size="14" lengthAdjust="spacing" textLength="56" x="25.5" y="1572.8496">Manager</text></g><g id="elem_UC01"><ellipse cx="322.7968" cy="348.5804" fill="#F1F1F1" rx="92.7968" ry="20.9594" style="stroke:#181818;stroke-width:0.5;"/><text fill="#000000" font-family="sans-serif" font-size="14" lengthAdjust="spacing" textLength="141" x="249.2968" y="353.3842">UC01 - Register Client</text></g><g id="elem_UC02"><ellipse cx="322.9556" cy="424.6122" fill="#F1F1F1" rx="87.9556" ry="19.9911" style="stroke:#181818;stroke-width:0.5;"/><text fill="#000000" font-family="sans-serif" font-size="14" lengthAdjust="spacing" textLength="129" x="255.4556" y="429.4159">UC02 - Delete Client</text></g><g id="elem_UC03"><ellipse cx="322.8831" cy="502.7977" fill="#F1F1F1" rx="103.8831" ry="23.1766" style="stroke:#181818;stroke-width:0.5;"/><text fill="#000000" font-family="sans-serif" font-size="14" lengthAdjust="spacing" textLength="167" x="239.3675" y="506.6006">UC03 - Update Client Data</text></g><g id="elem_UC04"><ellipse cx="323.1919" cy="585.4595" fill="#F1F1F1" rx="109.6919" ry="24.3384" style="stroke:#181818;stroke-width:0.5;"/><text fill="#000000" font-family="sans-serif" font-size="14" lengthAdjust="spacing" textLength="180" x="233.1919" y="589.2563">UC04 - Consult Client Status</text></g><g id="elem_UC05"><ellipse cx="323.2065" cy="1318.6624" fill="#F1F1F1" rx="93.2065" ry="21.0413" style="stroke:#181818;stroke-width:0.5;"/><text fill="#000000" font-family="sans-serif" font-size="14" lengthAdjust="spacing" textLength="142" x="249.2065" y="1323.4661">UC05 - Register Order</text></g><g id="elem_UC06"><ellipse cx="323.0532" cy="1395.4317" fill="#F1F1F1" rx="89.5532" ry="20.3106" style="stroke:#181818;stroke-width:0.5;"/><text fill="#000000" font-family="sans-serif" font-size="14" lengthAdjust="spacing" textLength="133" x="253.5532" y="1400.2354">UC06 - Cancel Order</text></g><g id="elem_UC07"><ellipse cx="322.827" cy="1474.3865" fill="#F1F1F1" rx="104.327" ry="23.2654" style="stroke:#181818;stroke-width:0.5;"/><text fill="#000000" font-family="sans-serif" font-size="14" lengthAdjust="spacing" textLength="168" x="238.827" y="1478.1834">UC07 - Update Order Data</text></g><g id="elem_UC08"><ellipse cx="322.8991" cy="1558.5009" fill="#F1F1F1" rx="112.3991" ry="24.8798" style="stroke:#181818;stroke-width:0.5;"/><text fill="#000000" font-family="sans-serif" font-size="14" lengthAdjust="spacing" textLength="186" x="229.8991" y="1562.2978">UC08 - Consult Active Orders</text></g><g id="elem_UC09"><ellipse cx="322.828" cy="1645.7867" fill="#F1F1F1" rx="123.828" ry="27.1656" style="stroke:#181818;stroke-width:0.5;"/><text fill="#000000" font-family="sans-serif" font-size="14" lengthAdjust="spacing" textLength="211" x="217.328" y="1649.5836">UC09 - Mark Order as Completed</text></g><g id="elem_UC10"><ellipse cx="323.2232" cy="1729.6657" fill="#F1F1F1" rx="98.2232" ry="22.0446" style="stroke:#181818;stroke-width:0.5;"/><text fill="#000000" font-family="sans-serif" font-size="14" lengthAdjust="spacing" textLength="154" x="244.5784" y="1734.0491">UC10 - Register Product</text></g><g id="elem_UC11"><ellipse cx="322.7514" cy="1814.4714" fill="#F1F1F1" rx="124.7514" ry="27.3503" style="stroke:#181818;stroke-width:0.5;"/><text fill="#000000" font-family="sans-serif" font-size="14" lengthAdjust="spacing" textLength="213" x="216.2514" y="1818.2683">UC11 - Change Product Category</text></g><g id="elem_UC12"><ellipse cx="322.9188" cy="1906.7049" fill="#F1F1F1" rx="135.9188" ry="29.5838" style="stroke:#181818;stroke-width:0.5;"/><text fill="#000000" font-family="sans-serif" font-size="14" lengthAdjust="spacing" textLength="237" x="204.4188" y="1910.5017">UC12 - Consult Products by Category</text></g><g id="elem_UC13"><ellipse cx="322.793" cy="1995.7797" fill="#F1F1F1" rx="108.793" ry="24.1586" style="stroke:#181818;stroke-width:0.5;"/><text fill="#000000" font-family="sans-serif" font-size="14" lengthAdjust="spacing" textLength="178" x="233.793" y="1999.5766">UC13 - Register Component</text></g><g id="elem_UC14"><ellipse cx="322.8991" cy="2079.5009" fill="#F1F1F1" rx="112.3991" ry="24.8798" style="stroke:#181818;stroke-width:0.5;"/><text fill="#000000" font-family="sans-serif" font-size="14" lengthAdjust="spacing" textLength="186" x="229.8991" y="2083.2978">UC14 - Register Raw Material</text></g><g id="elem_UC15"><ellipse cx="322.9188" cy="2169.7049" fill="#F1F1F1" rx="135.9188" ry="29.5838" style="stroke:#181818;stroke-width:0.5;"/><text fill="#000000" font-family="sans-serif" font-size="14" lengthAdjust="spacing" textLength="237" x="204.4188" y="2173.5017">UC15 - View Low Stock Raw Materials</text></g><g id="elem_UC16"><ellipse cx="322.94" cy="2265.7091" fill="#F1F1F1" rx="143.44" ry="31.088" style="stroke:#181818;stroke-width:0.5;"/><text fill="#000000" font-family="sans-serif" font-size="14" lengthAdjust="spacing" textLength="253" x="196.44" y="2269.506">UC16 - Add Production Tree for Product</text></g><g id="elem_UC17"><ellipse cx="323.1883" cy="2358.4588" fill="#F1F1F1" rx="119.6883" ry="26.3377" style="stroke:#181818;stroke-width:0.5;"/><text fill="#000000" font-family="sans-serif" font-size="14" lengthAdjust="spacing" textLength="202" x="222.1883" y="2362.2556">UC17 - Consult Production Tree</text></g><g id="elem_UC18"><ellipse cx="322.9862" cy="2452.8183" fill="#F1F1F1" rx="151.4862" ry="32.6972" style="stroke:#181818;stroke-width:0.5;"/><text fill="#000000" font-family="sans-serif" font-size="14" lengthAdjust="spacing" textLength="270" x="187.9862" y="2456.6152">UC18 - Consult Available Stock for Product</text></g><g id="elem_UC19"><ellipse cx="322.8011" cy="676.6813" fill="#F1F1F1" rx="145.8011" ry="31.5602" style="stroke:#181818;stroke-width:0.5;"/><text fill="#000000" font-family="sans-serif" font-size="14" lengthAdjust="spacing" textLength="258" x="193.8011" y="680.4782">UC19 - Consult Available Stock for Order</text></g><g id="elem_UC20"><ellipse cx="323.0008" cy="767.4212" fill="#F1F1F1" rx="107.0008" ry="23.8002" style="stroke:#181818;stroke-width:0.5;"/><text fill="#000000" font-family="sans-serif" font-size="14" lengthAdjust="spacing" textLength="174" x="236.0008" y="771.2181">UC20 - Simulate Production</text></g><g id="elem_UC21"><ellipse cx="322.827" cy="2725.3865" fill="#F1F1F1" rx="104.327" ry="23.2654" style="stroke:#181818;stroke-width:0.5;"/><text fill="#000000" font-family="sans-serif" font-size="14" lengthAdjust="spacing" textLength="168" x="238.827" y="2729.1834">UC21 - Register Operation</text></g><g id="elem_UC22"><ellipse cx="323.1919" cy="2544.4595" fill="#F1F1F1" rx="109.6919" ry="24.3384" style="stroke:#181818;stroke-width:0.5;"/><text fill="#000000" font-family="sans-serif" font-size="14" lengthAdjust="spacing" textLength="180" x="233.1919" y="2548.2563">UC22 - Register Workstation</text></g><g id="elem_UC23"><ellipse cx="322.94" cy="2635.7091" fill="#F1F1F1" rx="143.44" ry="31.088" style="stroke:#181818;stroke-width:0.5;"/><text fill="#000000" font-family="sans-serif" font-size="14" lengthAdjust="spacing" textLength="253" x="196.44" y="2639.506">UC23 - Change Workstation Setup Time</text></g><g id="elem_UC24"><ellipse cx="323.0098" cy="106.4231" fill="#F1F1F1" rx="99.5098" ry="22.302" style="stroke:#181818;stroke-width:0.5;"/><text fill="#000000" font-family="sans-serif" font-size="14" lengthAdjust="spacing" textLength="157" x="243.2577" y="110.6745">UC24 - Register Supplier</text></g><g id="elem_UC25"><ellipse cx="322.9412" cy="185.4093" fill="#F1F1F1" rx="94.4412" ry="21.2882" style="stroke:#181818;stroke-width:0.5;"/><text fill="#000000" font-family="sans-serif" font-size="14" lengthAdjust="spacing" textLength="145" x="247.5517" y="190.1807">UC25 - Delete Supplier</text></g><g id="elem_UC26"><ellipse cx="322.8048" cy="267.6821" fill="#F1F1F1" rx="113.3048" ry="25.061" style="stroke:#181818;stroke-width:0.5;"/><text fill="#000000" font-family="sans-serif" font-size="14" lengthAdjust="spacing" textLength="188" x="228.8048" y="271.4789">UC26 - Check Supplier Status</text></g><g id="elem_UC27"><ellipse cx="323.1133" cy="1128.6437" fill="#F1F1F1" rx="140.6133" ry="30.5227" style="stroke:#181818;stroke-width:0.5;"/><text fill="#000000" font-family="sans-serif" font-size="14" lengthAdjust="spacing" textLength="247" x="199.6133" y="1132.4406">UC27 - Assign Supplier to Raw Material</text></g><g id="elem_UC28"><ellipse cx="323.1952" cy="1228.4601" fill="#F1F1F1" rx="157.1952" ry="33.839" style="stroke:#181818;stroke-width:0.5;"/><text fill="#000000" font-family="sans-serif" font-size="14" lengthAdjust="spacing" textLength="282" x="182.1952" y="1232.257">UC28 - View Supplier Prices for Raw Material</text></g><g id="elem_UC29"><ellipse cx="322.995" cy="851.8201" fill="#F1F1F1" rx="111.495" ry="24.699" style="stroke:#181818;stroke-width:0.5;"/><text fill="#000000" font-family="sans-serif" font-size="14" lengthAdjust="spacing" textLength="184" x="230.995" y="855.617">UC29 - Register Supply Offer</text></g><g id="elem_UC30"><ellipse cx="322.9058" cy="938.6023" fill="#F1F1F1" rx="122.9058" ry="26.9812" style="stroke:#181818;stroke-width:0.5;"/><text fill="#000000" font-family="sans-serif" font-size="14" lengthAdjust="spacing" textLength="209" x="218.4058" y="942.3991">UC30 - View Active Supply Offers</text></g><g id="elem_UC31"><ellipse cx="322.94" cy="1031.7091" fill="#F1F1F1" rx="143.44" ry="31.088" style="stroke:#181818;stroke-width:0.5;"/><text fill="#000000" font-family="sans-serif" font-size="14" lengthAdjust="spacing" textLength="253" x="196.44" y="1035.506">UC31 - Mark Supply Offer as Completed</text></g><!--link Administrator to UC01--><g id="link_Administrator_UC01"><path d="M66.19,1233.0111 C69.4,1069.2511 85.25,450.7511 142,386.6211 C164.01,361.7511 191.9002,351.5856 224.3202,347.3656 " fill="none" id="Administrator-to-UC01" style="stroke:#181818;stroke-width:1.0;"/><polygon fill="#181818" points="230.27,346.5911,220.829,343.7863,225.3118,347.2365,221.8616,351.7193,230.27,346.5911" style="stroke:#181818;stroke-width:1.0;"/></g><!--link Administrator to UC02--><g id="link_Administrator_UC02"><path d="M66.52,1232.9811 C70.85,1078.1211 90.01,519.5911 142,461.6211 C165.43,435.4911 195.9913,425.603 230.0313,422.113 " fill="none" id="Administrator-to-UC02" style="stroke:#181818;stroke-width:1.0;"/><polygon fill="#181818" points="236,421.5011,226.639,418.4399,231.0261,422.0111,227.4549,426.3982,236,421.5011" style="stroke:#181818;stroke-width:1.0;"/></g><!--link Administrator to UC03--><g id="link_Administrator_UC03"><path d="M67.01,1232.6311 C72.86,1087.6611 95.97,595.5011 142,543.6211 C161.57,521.5611 184.4333,511.2217 213.2433,505.5417 " fill="none" id="Administrator-to-UC03" style="stroke:#181818;stroke-width:1.0;"/><polygon fill="#181818" points="219.13,504.3811,209.5263,502.1975,214.2244,505.3482,211.0737,510.0464,219.13,504.3811" style="stroke:#181818;stroke-width:1.0;"/></g><!--link Administrator to UC04--><g id="link_Administrator_UC04"><path d="M67.6,1232.7011 C74.97,1099.0111 101.5,672.9011 142,627.6211 C160.61,606.8111 181.5072,596.6218 208.7172,590.4818 " fill="none" id="Administrator-to-UC04" style="stroke:#181818;stroke-width:1.0;"/><polygon fill="#181818" points="214.57,589.1611,204.9103,587.2403,209.6926,590.2617,206.6712,595.044,214.57,589.1611" style="stroke:#181818;stroke-width:1.0;"/></g><!--link PM to UC05--><g id="link_PM_UC05"><path d="M98.61,1376.9311 C111.8,1370.0911 127.31,1362.7711 142,1357.6211 C175.49,1345.8811 207.8891,1338.1303 240.5191,1331.8203 " fill="none" id="PM-to-UC05" style="stroke:#181818;stroke-width:1.0;"/><polygon fill="#181818" points="246.41,1330.6811,236.8143,1328.4626,241.5009,1331.6304,238.3332,1336.3171,246.41,1330.6811" style="stroke:#181818;stroke-width:1.0;"/></g><!--link PM to UC06--><g id="link_PM_UC06"><path d="M98.51,1395.6211 C132.47,1395.6211 180.84,1395.6211 227.46,1395.6211 " fill="none" id="PM-to-UC06" style="stroke:#181818;stroke-width:1.0;"/><polygon fill="#181818" points="233.46,1395.6211,224.46,1391.6211,228.46,1395.6211,224.46,1399.6211,233.46,1395.6211" style="stroke:#181818;stroke-width:1.0;"/></g><!--link PM to UC07--><g id="link_PM_UC07"><path d="M98.64,1414.2311 C111.83,1421.0611 127.33,1428.3911 142,1433.6211 C173.4,1444.8111 203.1191,1452.4429 234.3191,1459.0229 " fill="none" id="PM-to-UC07" style="stroke:#181818;stroke-width:1.0;"/><polygon fill="#181818" points="240.19,1460.2611,232.2091,1454.49,235.2976,1459.2293,230.5583,1462.3178,240.19,1460.2611" style="stroke:#181818;stroke-width:1.0;"/></g><!--link PM to UC08--><g id="link_PM_UC08"><path d="M98.66,1422.6211 C110.17,1433.5911 122.14,1447.1111 130,1461.6211 C141.71,1483.2411 124.75,1498.1011 142,1515.6211 C161.04,1534.9711 181.2989,1544.8175 207.6989,1551.2175 " fill="none" id="PM-to-UC08" style="stroke:#181818;stroke-width:1.0;"/><polygon fill="#181818" points="213.53,1552.6311,205.7257,1546.6233,208.6707,1551.4531,203.8409,1554.3981,213.53,1552.6311" style="stroke:#181818;stroke-width:1.0;"/></g><!--link PM to UC09--><g id="link_PM_UC09"><path d="M98.69,1421.1411 C110.65,1432.2111 122.92,1446.1811 130,1461.6211 C142.92,1489.8011 121.89,1577.0311 142,1600.6211 C157.88,1619.2511 174.4498,1629.068 197.9798,1636.078 " fill="none" id="PM-to-UC09" style="stroke:#181818;stroke-width:1.0;"/><polygon fill="#181818" points="203.73,1637.7911,196.2467,1631.388,198.9381,1636.3635,193.9626,1639.0549,203.73,1637.7911" style="stroke:#181818;stroke-width:1.0;"/></g><!--link PM to UC10--><g id="link_PM_UC10"><path d="M98.62,1420.7111 C110.72,1431.8111 123.12,1445.9211 130,1461.6211 C140.19,1484.8511 125.61,1670.2611 142,1689.6211 C162.37,1713.6911 187.7872,1724.2015 218.6472,1729.2015 " fill="none" id="PM-to-UC10" style="stroke:#181818;stroke-width:1.0;"/><polygon fill="#181818" points="224.57,1730.1611,216.3256,1724.7732,219.6344,1729.3614,215.0461,1732.6702,224.57,1730.1611" style="stroke:#181818;stroke-width:1.0;"/></g><!--link PM to UC11--><g id="link_PM_UC11"><path d="M98.73,1420.6711 C110.84,1431.7611 123.22,1445.8711 130,1461.6211 C143.5,1492.9811 120.54,1742.0711 142,1768.6211 C157.41,1787.6811 173.8014,1797.7295 197.2914,1804.8995 " fill="none" id="PM-to-UC11" style="stroke:#181818;stroke-width:1.0;"/><polygon fill="#181818" points="203.03,1806.6511,195.5898,1800.1979,198.2478,1805.1914,193.2543,1807.8494,203.03,1806.6511" style="stroke:#181818;stroke-width:1.0;"/></g><!--link PM to UC12--><g id="link_PM_UC12"><path d="M98.8,1420.6411 C110.92,1431.7311 123.29,1445.8411 130,1461.6211 C147.31,1502.3311 114.43,1825.0211 142,1859.6211 C155.79,1876.9211 169.4275,1886.3187 190.2975,1893.7487 " fill="none" id="PM-to-UC12" style="stroke:#181818;stroke-width:1.0;"/><polygon fill="#181818" points="195.95,1895.7611,188.8129,1888.9742,191.2396,1894.0841,186.1297,1896.5109,195.95,1895.7611" style="stroke:#181818;stroke-width:1.0;"/></g><!--link PM to UC13--><g id="link_PM_UC13"><path d="M98.5,1420.3111 C110.75,1431.4411 123.28,1445.6811 130,1461.6211 C140.63,1486.8111 124.74,1932.4111 142,1953.6211 C159.82,1975.5211 180.8005,1986.0401 208.3505,1992.1101 " fill="none" id="PM-to-UC13" style="stroke:#181818;stroke-width:1.0;"/><polygon fill="#181818" points="214.21,1993.4011,206.2815,1987.5583,209.3271,1992.3253,204.5601,1995.3709,214.21,1993.4011" style="stroke:#181818;stroke-width:1.0;"/></g><!--link PM to UC14--><g id="link_PM_UC14"><path d="M98.53,1420.2911 C110.78,1431.4311 123.3,1445.6711 130,1461.6211 C142.37,1491.0811 121.94,2011.7511 142,2036.6211 C159.14,2057.8811 178.9065,2068.3576 205.4665,2074.7476 " fill="none" id="PM-to-UC14" style="stroke:#181818;stroke-width:1.0;"/><polygon fill="#181818" points="211.3,2076.1511,203.4853,2070.1568,206.4387,2074.9815,201.614,2077.9349,211.3,2076.1511" style="stroke:#181818;stroke-width:1.0;"/></g><!--link PM to UC15--><g id="link_PM_UC15"><path d="M98.55,1420.2811 C110.8,1431.4211 123.32,1445.6611 130,1461.6211 C144.15,1495.4511 119.39,2092.7411 142,2121.6211 C155.86,2139.3211 169.7966,2148.9414 191.0066,2156.4814 " fill="none" id="PM-to-UC15" style="stroke:#181818;stroke-width:1.0;"/><polygon fill="#181818" points="196.66,2158.4911,189.5197,2151.7075,191.9488,2156.8163,186.8401,2159.2454,196.66,2158.4911" style="stroke:#181818;stroke-width:1.0;"/></g><!--link PM to UC16--><g id="link_PM_UC16"><path d="M98.57,1420.2811 C110.82,1431.4111 123.34,1445.6511 130,1461.6211 C146.14,1500.3411 116.26,2183.4911 142,2216.6211 C155.01,2233.3711 167.5555,2242.5928 187.3455,2250.2628 " fill="none" id="PM-to-UC16" style="stroke:#181818;stroke-width:1.0;"/><polygon fill="#181818" points="192.94,2252.4311,185.9937,2245.449,188.2779,2250.6242,183.1027,2252.9084,192.94,2252.4311" style="stroke:#181818;stroke-width:1.0;"/></g><!--link PM to UC17--><g id="link_PM_UC17"><path d="M98.59,1420.2711 C110.84,1431.4011 123.36,1445.6411 130,1461.6211 C139.09,1483.4811 127.3,2295.0711 142,2313.6211 C158,2333.8211 175.7992,2344.1843 200.6592,2351.0943 " fill="none" id="PM-to-UC17" style="stroke:#181818;stroke-width:1.0;"/><polygon fill="#181818" points="206.44,2352.7011,198.84,2346.437,201.6226,2351.3621,196.6975,2354.1448,206.44,2352.7011" style="stroke:#181818;stroke-width:1.0;"/></g><!--link PM to UC18--><g id="link_PM_UC18"><path d="M98.6,1420.2711 C110.85,1431.3911 123.37,1445.6411 130,1461.6211 C140.02,1485.7611 126.05,2381.9111 142,2402.6211 C154.17,2418.4211 165.3508,2427.1914 183.7208,2434.9314 " fill="none" id="PM-to-UC18" style="stroke:#181818;stroke-width:1.0;"/><polygon fill="#181818" points="189.25,2437.2611,182.5093,2430.0804,184.6423,2435.3197,179.403,2437.4527,189.25,2437.2611" style="stroke:#181818;stroke-width:1.0;"/></g><!--link PM to UC19--><g id="link_PM_UC19"><path d="M98.54,1370.9511 C110.79,1359.8211 123.31,1345.5811 130,1329.6211 C142.97,1298.6711 121.36,752.0811 142,725.6211 C154.75,709.2811 166.7944,700.2575 186.0644,692.5975 " fill="none" id="PM-to-UC19" style="stroke:#181818;stroke-width:1.0;"/><polygon fill="#181818" points="191.64,690.3811,181.799,689.9886,186.9936,692.2281,184.7541,697.4227,191.64,690.3811" style="stroke:#181818;stroke-width:1.0;"/></g><!--link PM to UC20--><g id="link_PM_UC20"><path d="M98.51,1370.9411 C110.76,1359.8111 123.29,1345.5711 130,1329.6211 C141.21,1302.9911 123.78,832.0511 142,809.6211 C160.21,787.2111 181.9988,776.5978 210.1988,770.6578 " fill="none" id="PM-to-UC20" style="stroke:#181818;stroke-width:1.0;"/><polygon fill="#181818" points="216.07,769.4211,206.4388,767.362,211.1774,770.4517,208.0877,775.1902,216.07,769.4211" style="stroke:#181818;stroke-width:1.0;"/></g><!--link PFM to UC21--><g id="link_PFM_UC21"><path d="M65.37,1576.3811 C65.25,1785.3111 69.48,2598.1811 142,2683.6211 C161.1,2706.1311 183.8487,2716.6934 212.6687,2722.5134 " fill="none" id="PFM-to-UC21" style="stroke:#181818;stroke-width:1.0;"/><polygon fill="#181818" points="218.55,2723.7011,210.5199,2717.9987,213.6489,2722.7114,208.9363,2725.8404,218.55,2723.7011" style="stroke:#181818;stroke-width:1.0;"/></g><!--link PFM to UC22--><g id="link_PFM_UC22"><path d="M66.01,1576.1611 C68.4,1763.4011 81.17,2431.8411 142,2502.6211 C160.2,2523.7911 180.9566,2534.1129 208.1766,2540.2429 " fill="none" id="PFM-to-UC22" style="stroke:#181818;stroke-width:1.0;"/><polygon fill="#181818" points="214.03,2541.5611,206.1287,2535.6815,209.1522,2540.4626,204.3711,2543.4861,214.03,2541.5611" style="stroke:#181818;stroke-width:1.0;"/></g><!--link PFM to UC23--><g id="link_PFM_UC23"><path d="M65.76,1576.1811 C67.26,1773.4111 77.18,2507.8511 142,2586.6211 C155.48,2603.0011 168.2463,2612.0667 188.1063,2619.6667 " fill="none" id="PFM-to-UC23" style="stroke:#181818;stroke-width:1.0;"/><polygon fill="#181818" points="193.71,2621.8111,186.7341,2614.8587,189.0402,2620.0241,183.8748,2622.3303,193.71,2621.8111" style="stroke:#181818;stroke-width:1.0;"/></g><!--link Administrator to UC24--><g id="link_Administrator_UC24"><path d="M65.43,1233.0011 C65.47,1042.9511 69.88,230.5311 142,146.6211 C162.24,123.0711 187.0637,112.6198 217.4537,107.4898 " fill="none" id="Administrator-to-UC24" style="stroke:#181818;stroke-width:1.0;"/><polygon fill="#181818" points="223.37,106.4911,213.8297,104.045,218.4398,107.3233,215.1614,111.9333,223.37,106.4911" style="stroke:#181818;stroke-width:1.0;"/></g><!--link Administrator to UC25--><g id="link_Administrator_UC25"><path d="M65.64,1233.0411 C66.63,1051.2711 74.79,302.0111 142,224.6211 C163.49,199.8811 190.6887,189.5282 222.6987,185.0182 " fill="none" id="Administrator-to-UC25" style="stroke:#181818;stroke-width:1.0;"/><polygon fill="#181818" points="228.64,184.1811,219.17,181.4759,223.6889,184.8787,220.2861,189.3976,228.64,184.1811" style="stroke:#181818;stroke-width:1.0;"/></g><!--link Administrator to UC26--><g id="link_Administrator_UC26"><path d="M65.94,1232.8611 C68.2,1060.1411 80.96,380.5811 142,309.6211 C159.47,289.3111 178.869,279.1952 204.929,272.8752 " fill="none" id="Administrator-to-UC26" style="stroke:#181818;stroke-width:1.0;"/><polygon fill="#181818" points="210.76,271.4611,201.0708,269.6949,205.9009,272.6395,202.9563,277.4696,210.76,271.4611" style="stroke:#181818;stroke-width:1.0;"/></g><!--link PM to UC27--><g id="link_PM_UC27"><path d="M98.75,1370.1211 C110.72,1359.0611 122.98,1345.0811 130,1329.6211 C144.1,1298.5611 120.18,1202.8311 142,1176.6211 C155.76,1160.0911 168.8942,1150.9968 189.1242,1143.4968 " fill="none" id="PM-to-UC27" style="stroke:#181818;stroke-width:1.0;"/><polygon fill="#181818" points="194.75,1141.4111,184.9208,1140.7891,190.0618,1143.1492,187.7017,1148.2902,194.75,1141.4111" style="stroke:#181818;stroke-width:1.0;"/></g><!--link PM to UC28--><g id="link_PM_UC28"><path d="M98.53,1368.5511 C110.02,1357.5711 122.02,1344.0611 130,1329.6211 C141.05,1309.6211 126.17,1296.1011 142,1279.6211 C155.72,1265.3311 167.5685,1257.2027 186.1185,1249.6927 " fill="none" id="PM-to-UC28" style="stroke:#181818;stroke-width:1.0;"/><polygon fill="#181818" points="191.68,1247.4411,181.8367,1247.1108,187.0454,1249.3174,184.8388,1254.5261,191.68,1247.4411" style="stroke:#181818;stroke-width:1.0;"/></g><!--link PM to UC29--><g id="link_PM_UC29"><path d="M98.82,1370.6111 C110.95,1359.5211 123.31,1345.4011 130,1329.6211 C139.45,1307.3111 126.68,912.3911 142,893.6211 C159.35,872.3611 179.3458,861.9794 206.0658,855.7694 " fill="none" id="PM-to-UC29" style="stroke:#181818;stroke-width:1.0;"/><polygon fill="#181818" points="211.91,854.4111,202.2381,852.5523,207.0398,855.543,204.0491,860.3446,211.91,854.4111" style="stroke:#181818;stroke-width:1.0;"/></g><!--link PM to UC30--><g id="link_PM_UC30"><path d="M98.76,1370.5911 C110.88,1359.5011 123.26,1345.3811 130,1329.6211 C145.17,1294.1511 117.66,1012.5511 142,982.6211 C157.43,963.6511 173.8039,953.7644 197.2939,946.8544 " fill="none" id="PM-to-UC30" style="stroke:#181818;stroke-width:1.0;"/><polygon fill="#181818" points="203.05,945.1611,193.287,943.8636,198.2532,946.5721,195.5447,951.5384,203.05,945.1611" style="stroke:#181818;stroke-width:1.0;"/></g><!--link PM to UC31--><g id="link_PM_UC31"><path d="M98.65,1370.5411 C110.76,1359.4411 123.15,1345.3411 130,1329.6211 C141.07,1304.2311 124.66,1102.2211 142,1080.6211 C155.28,1064.0811 167.9508,1054.9572 187.7908,1047.3172 " fill="none" id="PM-to-UC31" style="stroke:#181818;stroke-width:1.0;"/><polygon fill="#181818" points="193.39,1045.1611,183.5538,1044.6625,188.724,1046.9579,186.4286,1052.1281,193.39,1045.1611" style="stroke:#181818;stroke-width:1.0;"/></g><!--SRC=[XPPDRwCm48Rl_0ghzqgnoUTbfInLJvjjrBIxbrvSSAWL1oDZ6aMh_lSTipWOJwBD8MB0xyDu_7fCSv1LpGq_afhd1rwAdJqhGOp8BQzA9PBcCk1oZ_n92Fo-QrC8ascb3JaBfVGf-KeIAosCU6q4oJZyFKXUWZX9bDXROZKnilomf92E9dML90FsRdTkh3YITMwrQUu8RmZlBliNTW5P5qTPoSOQ3b5m_svhTD5sqBTgmokOY-aOsyrebEALVVlvgBGsqRZ7ZPj0a8-VnRzSsaRaBkYpwKCObKqekIVFeeIiX26PagAodSGzwWQFaYRtzz-6Ho670UT1A655H66tAGnHKg2yrWM_KCW3jzoZqjke5A6cWCfqrRJAUjRESjisdZQzJPic23SBw_JaxECvisxiTkF5CwITkrHubGirLiuZvHmf5qCzEkMe78j8la3oPL03iARyx36N6YmZn18XLe3OS7Fetm-oJ1zhjyw5XwmYo0fLZqx2wlLkx-LqCfRtSQXs7iq-mDd2Qw6SLfJQd3s4HX1aKCg2MlIKXhoV4Ob598Pdauxs39H3LuFXQHe1a3NfDDG_ynCK6AuaLnunZH1JX71s_2N5YVpG9_2rpWyZa5zW6faJOeHoxbmN1HcQ47anGf2zHaiL6POYmz85hh87UaXaMufiIqUs_UHIyNVeQVzcUIMhoCGKcPYk_WCCToMDxDp70OuvD-_aiLLkNmwpx04iCZJ4Y33gka-rWEuJ07epFru851DOIFYjpQ6n8mQB6QZPidJOLW60x8HjQ_8YZtx5M1gpKfpFoDExjgwXvVgIijkjbY5hizbmaiISsMqEwhgiwxeV0fROOyO709lVfitn19sprqqZoshWmKV1bUtB8eSpv72szDltWjeQcSC1xTnu3Hbv76B4NA4LE9Ed_NweNcHiXeoTJdnQ_M4HKdpPqiZUAUhNAVLdHgY_TdIaKTk6-2lv2m00]--></g></svg>