<?xml version="1.0" encoding="us-ascii" standalone="no"?><svg xmlns="http://www.w3.org/2000/svg" xmlns:xlink="http://www.w3.org/1999/xlink" contentStyleType="text/css" height="813px" preserveAspectRatio="none" style="width:372px;height:813px;background:#FFFFFF;" version="1.1" viewBox="0 0 372 813" width="372px" zoomAndPan="magnify"><defs/><g><text fill="#000000" font-family="sans-serif" font-size="14" font-weight="bold" lengthAdjust="spacing" textLength="156" x="101" y="25.1074">Domain Model - US032</text><!--class ProductionManager--><g id="elem_ProductionManager"><rect codeLine="12" fill="#F1F1F1" height="36.6211" id="ProductionManager" rx="2.5" ry="2.5" style="stroke:#181818;stroke-width:0.5;" width="130" x="125" y="46.6211"/><text fill="#000000" font-family="sans-serif" font-size="14" lengthAdjust="spacing" textLength="124" x="128" y="66.7285">ProductionManager</text><line style="stroke:#181818;stroke-width:0.5;" x1="126" x2="254" y1="75.2422" y2="75.2422"/></g><!--class Supplier--><g id="elem_Supplier"><rect codeLine="15" fill="#F1F1F1" height="111.1055" id="Supplier" rx="2.5" ry="2.5" style="stroke:#181818;stroke-width:0.5;" width="101" x="18.5" y="162.6211"/><text fill="#000000" font-family="sans-serif" font-size="14" lengthAdjust="spacing" textLength="52" x="43" y="182.7285">Supplier</text><line style="stroke:#181818;stroke-width:0.5;" x1="19.5" x2="118.5" y1="191.2422" y2="191.2422"/><text fill="#000000" font-family="sans-serif" font-size="14" lengthAdjust="spacing" textLength="11" x="24.5" y="210.3496">id</text><text fill="#000000" font-family="sans-serif" font-size="14" lengthAdjust="spacing" textLength="35" x="24.5" y="228.9707">name</text><text fill="#000000" font-family="sans-serif" font-size="14" lengthAdjust="spacing" textLength="89" x="24.5" y="247.5918">phoneNumber</text><text fill="#000000" font-family="sans-serif" font-size="14" lengthAdjust="spacing" textLength="33" x="24.5" y="266.2129">email</text></g><!--class SupplyOffer--><g id="elem_SupplyOffer"><rect codeLine="22" fill="#F1F1F1" height="92.4844" id="SupplyOffer" rx="2.5" ry="2.5" style="stroke:#181818;stroke-width:0.5;" width="81" x="108.5" y="352.6211"/><text fill="#000000" font-family="sans-serif" font-size="14" lengthAdjust="spacing" textLength="75" x="111.5" y="372.7285">SupplyOffer</text><line style="stroke:#181818;stroke-width:0.5;" x1="109.5" x2="188.5" y1="381.2422" y2="381.2422"/><text fill="#000000" font-family="sans-serif" font-size="14" lengthAdjust="spacing" textLength="11" x="114.5" y="400.3496">id</text><text fill="#000000" font-family="sans-serif" font-size="14" lengthAdjust="spacing" textLength="58" x="114.5" y="418.9707">startDate</text><text fill="#000000" font-family="sans-serif" font-size="14" lengthAdjust="spacing" textLength="54" x="114.5" y="437.5918">endDate</text></g><!--class RawMaterialSupply--><g id="elem_RawMaterialSupply"><rect codeLine="28" fill="#F1F1F1" height="73.8633" id="RawMaterialSupply" rx="2.5" ry="2.5" style="stroke:#181818;stroke-width:0.5;" width="126" x="7" y="523.6211"/><text fill="#000000" font-family="sans-serif" font-size="14" lengthAdjust="spacing" textLength="120" x="10" y="543.7285">RawMaterialSupply</text><line style="stroke:#181818;stroke-width:0.5;" x1="8" x2="132" y1="552.2422" y2="552.2422"/><text fill="#000000" font-family="sans-serif" font-size="14" lengthAdjust="spacing" textLength="50" x="13" y="571.3496">quantity</text><text fill="#000000" font-family="sans-serif" font-size="14" lengthAdjust="spacing" textLength="52" x="13" y="589.9707">unitCost</text></g><!--class ProcessState--><g id="elem_ProcessState"><rect codeLine="33" fill="#F1F1F1" height="55.2422" id="ProcessState" rx="2.5" ry="2.5" style="stroke:#181818;stroke-width:0.5;" width="90" x="168" y="533.1211"/><text fill="#000000" font-family="sans-serif" font-size="14" lengthAdjust="spacing" textLength="84" x="171" y="553.2285">ProcessState</text><line style="stroke:#181818;stroke-width:0.5;" x1="169" x2="257" y1="561.7422" y2="561.7422"/><text fill="#000000" font-family="sans-serif" font-size="14" lengthAdjust="spacing" textLength="31" x="174" y="580.8496">state</text></g><!--class RawMaterial--><g id="elem_RawMaterial"><rect codeLine="37" fill="#F1F1F1" height="129.7266" id="RawMaterial" rx="2.5" ry="2.5" style="stroke:#181818;stroke-width:0.5;" width="102" x="139" y="676.6211"/><text fill="#000000" font-family="sans-serif" font-size="14" lengthAdjust="spacing" textLength="77" x="151.5" y="696.7285">RawMaterial</text><line style="stroke:#181818;stroke-width:0.5;" x1="140" x2="240" y1="705.2422" y2="705.2422"/><text fill="#000000" font-family="sans-serif" font-size="14" lengthAdjust="spacing" textLength="11" x="145" y="724.3496">id</text><text fill="#000000" font-family="sans-serif" font-size="14" lengthAdjust="spacing" textLength="35" x="145" y="742.9707">name</text><text fill="#000000" font-family="sans-serif" font-size="14" lengthAdjust="spacing" textLength="69" x="145" y="761.5918">description</text><text fill="#000000" font-family="sans-serif" font-size="14" lengthAdjust="spacing" textLength="80" x="145" y="780.2129">currentStock</text><text fill="#000000" font-family="sans-serif" font-size="14" lengthAdjust="spacing" textLength="90" x="145" y="798.834">minimumStock</text></g><!--link ProductionManager to Supplier--><g id="link_ProductionManager_Supplier"><path codeLine="46" d="M146.61,83.6411 C132.42,91.1211 117.61,101.0611 107,113.6211 C95.2,127.5811 86.92,145.5311 81.17,162.5511 " fill="none" id="ProductionManager-Supplier" style="stroke:#181818;stroke-width:1.0;"/><polygon fill="#000000" points="108.8083,127.1153,116.8444,122.029,112.32,118.2768,108.8083,127.1153" style="stroke:#000000;stroke-width:1.0;"/><text fill="#000000" font-family="sans-serif" font-size="13" lengthAdjust="spacing" textLength="42" x="121" y="128.6494">consult</text><text fill="#000000" font-family="sans-serif" font-size="13" lengthAdjust="spacing" textLength="7" x="126.4222" y="105.363">1</text><text fill="#000000" font-family="sans-serif" font-size="13" lengthAdjust="spacing" textLength="20" x="61.448" y="151.3823">1..*</text></g><!--link ProductionManager to SupplyOffer--><g id="link_ProductionManager_SupplyOffer"><path codeLine="47" d="M189.48,83.6611 C188.02,125.3611 182.99,233.5911 168,322.6211 C166.37,332.2911 164.13,342.5411 161.75,352.2611 " fill="none" id="ProductionManager-SupplyOffer" style="stroke:#181818;stroke-width:1.0;"/><polygon fill="#000000" points="189.4865,223.2402,193.3388,214.5447,187.492,213.9411,189.4865,223.2402" style="stroke:#000000;stroke-width:1.0;"/><text fill="#000000" font-family="sans-serif" font-size="13" lengthAdjust="spacing" textLength="53" x="199" y="223.6494">complete</text><text fill="#000000" font-family="sans-serif" font-size="13" lengthAdjust="spacing" textLength="7" x="181.3494" y="105.3886">1</text><text fill="#000000" font-family="sans-serif" font-size="13" lengthAdjust="spacing" textLength="20" x="142.1539" y="341.2177">1..*</text></g><!--link ProductionManager to RawMaterial--><g id="link_ProductionManager_RawMaterial"><path codeLine="48" d="M218.06,83.8211 C253.81,108.8011 311,158.0011 311,217.1211 C311,217.1211 311,217.1211 311,561.6211 C311,614.5111 274.29,663.4411 241.31,696.7311 " fill="none" id="ProductionManager-RawMaterial" style="stroke:#181818;stroke-width:1.0;"/><polygon fill="#000000" points="316.1895,403.763,318.7835,394.613,312.9099,394.8358,316.1895,403.763" style="stroke:#000000;stroke-width:1.0;"/><text fill="#000000" font-family="sans-serif" font-size="13" lengthAdjust="spacing" textLength="39" x="325" y="404.1494">update</text><text fill="#000000" font-family="sans-serif" font-size="13" lengthAdjust="spacing" textLength="7" x="217.6605" y="105.2494">1</text><text fill="#000000" font-family="sans-serif" font-size="13" lengthAdjust="spacing" textLength="20" x="249.1653" y="686.955">1..*</text></g><!--link Supplier to SupplyOffer--><g id="link_Supplier_SupplyOffer"><path codeLine="49" d="M90.17,273.7411 C96.59,289.6211 103.85,306.9111 111,322.6211 C115.42,332.3211 120.4,342.5811 125.28,352.3011 " fill="none" id="Supplier-SupplyOffer" style="stroke:#181818;stroke-width:1.0;"/><polygon fill="#000000" points="118.0401,317.8315,117.0327,308.3744,111.6664,310.7727,118.0401,317.8315" style="stroke:#000000;stroke-width:1.0;"/><text fill="#000000" font-family="sans-serif" font-size="13" lengthAdjust="spacing" textLength="38" x="125" y="318.6494">places</text><text fill="#000000" font-family="sans-serif" font-size="13" lengthAdjust="spacing" textLength="7" x="85.3235" y="295.5953">1</text><text fill="#000000" font-family="sans-serif" font-size="13" lengthAdjust="spacing" textLength="5" x="116.4289" y="341.2635">*</text></g><!--link SupplyOffer to ProcessState--><g id="link_SupplyOffer_ProcessState"><path codeLine="50" d="M167.17,445.0411 C178.55,473.5011 192.82,509.1811 202.39,533.1011 " fill="none" id="SupplyOffer-ProcessState" style="stroke:#181818;stroke-width:1.0;"/><polygon fill="#000000" points="191.8568,488.9091,191.2266,479.4194,185.7691,481.6022,191.8568,488.9091" style="stroke:#000000;stroke-width:1.0;"/><text fill="#000000" font-family="sans-serif" font-size="13" lengthAdjust="spacing" textLength="21" x="199" y="489.6494">has</text><text fill="#000000" font-family="sans-serif" font-size="13" lengthAdjust="spacing" textLength="5" x="164.4715" y="467.1216">*</text><text fill="#000000" font-family="sans-serif" font-size="13" lengthAdjust="spacing" textLength="7" x="192.1271" y="521.8054">1</text></g><!--link SupplyOffer to RawMaterialSupply--><g id="link_SupplyOffer_RawMaterialSupply"><path codeLine="51" d="M123.48,444.9211 C118.21,454.6511 112.81,464.9111 108,474.6211 C100.17,490.4111 92.12,508.1611 85.46,523.3411 " fill="none" id="SupplyOffer-RawMaterialSupply" style="stroke:#181818;stroke-width:1.0;"/><polygon fill="#000000" points="110.8187,488.7657,117.4092,481.9089,112.1202,479.3446,110.8187,488.7657" style="stroke:#000000;stroke-width:1.0;"/><text fill="#000000" font-family="sans-serif" font-size="13" lengthAdjust="spacing" textLength="49" x="122" y="489.6494">contains</text><text fill="#000000" font-family="sans-serif" font-size="13" lengthAdjust="spacing" textLength="7" x="112.2177" y="466.984">1</text><text fill="#000000" font-family="sans-serif" font-size="13" lengthAdjust="spacing" textLength="20" x="66.4326" y="512.2529">1..*</text></g><!--link RawMaterialSupply to RawMaterial--><g id="link_RawMaterialSupply_RawMaterial"><path codeLine="52" d="M94.28,597.8411 C109.42,620.4211 129.32,650.1111 147.06,676.5611 " fill="none" id="RawMaterialSupply-RawMaterial" style="stroke:#181818;stroke-width:1.0;"/><polygon fill="#000000" points="134.7844,641.4195,132.1884,632.2702,127.3063,635.5435,134.7844,641.4195" style="stroke:#000000;stroke-width:1.0;"/><text fill="#000000" font-family="sans-serif" font-size="13" lengthAdjust="spacing" textLength="63" x="141" y="642.6494">associates</text><text fill="#000000" font-family="sans-serif" font-size="13" lengthAdjust="spacing" textLength="20" x="76.6451" y="619.4772">1..*</text><text fill="#000000" font-family="sans-serif" font-size="13" lengthAdjust="spacing" textLength="7" x="134.9806" y="665.5747">1</text></g><!--SRC=[ZLB9JWCn3BtdAwmUaOfORZqW8RXmA216V819t8xLR2IEK47yEvbqMWfL1NE9j_ViPqzUiO-Oq84BFkW-1KSWgP3Akqn4lS8bTRAs18cqe5_Q_OBSemblx9UmG9j9xQMqnPolHHA_5A4x7Np7xmHdIlLi23GdNQcQxKZwOB9Imb8RtGQ7x64U35cOmdDtTdcXLEE3nnHCqSB1pz7NqH9ygCzjiYinMcung1-RzdXqr8pO1q_tnRrGQZxLDlONUlsmMFmco899Rb4sBEHDitUu9toRrq1Yj1kA4VrQq5T1w-OKpt8JiWmmyiKDGZJbt4c5Ze0intYF23AKTU8uRAFvkgH4NZe9UjK2ZZsxuZQ1IgmErpSvdy1qMf_JqvF9zmPdK0-MYnMu-XzeNDo0Sz5I5VKtS5_X34eqs62x8RRL1psYnRgyRUaO7ieQz-JdScVGuq7jiJd62pRvKl_20NYO7d5Zjvyowkc2vkeFq2y0]--></g></svg>