<?xml version="1.0" encoding="us-ascii" standalone="no"?><svg xmlns="http://www.w3.org/2000/svg" xmlns:xlink="http://www.w3.org/1999/xlink" contentStyleType="text/css" height="548px" preserveAspectRatio="none" style="width:869px;height:548px;background:#FFFFFF;" version="1.1" viewBox="0 0 869 548" width="869px" zoomAndPan="magnify"><defs/><g><text fill="#000000" font-family="sans-serif" font-size="14" font-weight="bold" lengthAdjust="spacing" textLength="228" x="320" y="30.1074">System Sequence Diagram (SSD)</text><rect fill="#FFFFFF" height="323.6191" style="stroke:#181818;stroke-width:1.0;" width="10" x="82" y="133.2422"/><rect fill="#FFFFFF" height="31.291" style="stroke:#181818;stroke-width:1.0;" width="10" x="528" y="156.5332"/><rect fill="#FFFFFF" height="101.873" style="stroke:#181818;stroke-width:1.0;" width="10" x="528" y="219.1152"/><rect fill="none" height="50.582" style="stroke:#000000;stroke-width:1.5;" width="565" x="10" y="278.4063"/><line style="stroke:#181818;stroke-width:0.5;stroke-dasharray:5.0,5.0;" x1="87" x2="87" y1="123.2422" y2="465.8613"/><line style="stroke:#181818;stroke-width:0.5;stroke-dasharray:5.0,5.0;" x1="533" x2="533" y1="123.2422" y2="465.8613"/><text fill="#000000" font-family="sans-serif" font-size="14" lengthAdjust="spacing" textLength="128" x="20" y="119.7285">Production Manager</text><ellipse cx="87" cy="53.1211" fill="#E3E3E3" rx="8" ry="8" style="stroke:#181818;stroke-width:0.5;"/><path d="M87,61.1211 L87,88.1211 M74,69.1211 L100,69.1211 M87,88.1211 L74,103.1211 M87,88.1211 L100,103.1211 " fill="none" style="stroke:#181818;stroke-width:0.5;"/><text fill="#000000" font-family="sans-serif" font-size="14" lengthAdjust="spacing" textLength="128" x="20" y="479.9688">Production Manager</text><ellipse cx="87" cy="491.9824" fill="#E3E3E3" rx="8" ry="8" style="stroke:#181818;stroke-width:0.5;"/><path d="M87,499.9824 L87,526.9824 M74,507.9824 L100,507.9824 M87,526.9824 L74,541.9824 M87,526.9824 L100,541.9824 " fill="none" style="stroke:#181818;stroke-width:0.5;"/><rect fill="#E3E3E3" height="32.6211" rx="2.5" ry="2.5" style="stroke:#181818;stroke-width:0.5;" width="64" x="501" y="89.6211"/><text fill="#000000" font-family="sans-serif" font-size="14" lengthAdjust="spacing" textLength="50" x="508" y="111.7285">:System</text><rect fill="#E3E3E3" height="32.6211" rx="2.5" ry="2.5" style="stroke:#181818;stroke-width:0.5;" width="64" x="501" y="464.8613"/><text fill="#000000" font-family="sans-serif" font-size="14" lengthAdjust="spacing" textLength="50" x="508" y="486.9688">:System</text><rect fill="#FFFFFF" height="323.6191" style="stroke:#181818;stroke-width:1.0;" width="10" x="82" y="133.2422"/><rect fill="#FFFFFF" height="31.291" style="stroke:#181818;stroke-width:1.0;" width="10" x="528" y="156.5332"/><rect fill="#FFFFFF" height="101.873" style="stroke:#181818;stroke-width:1.0;" width="10" x="528" y="219.1152"/><polygon fill="#181818" points="516,152.5332,526,156.5332,516,160.5332,520,156.5332" style="stroke:#181818;stroke-width:1.0;"/><line style="stroke:#181818;stroke-width:1.0;" x1="92" x2="522" y1="156.5332" y2="156.5332"/><text fill="#000000" font-family="sans-serif" font-size="13" font-weight="bold" lengthAdjust="spacing" textLength="7" x="99" y="151.2705">1</text><text fill="#000000" font-family="sans-serif" font-size="13" lengthAdjust="spacing" textLength="236" x="110" y="151.2705">asks to simulate production for a product</text><polygon fill="#181818" points="103,183.8242,93,187.8242,103,191.8242,99,187.8242" style="stroke:#181818;stroke-width:1.0;"/><line style="stroke:#181818;stroke-width:1.0;stroke-dasharray:2.0,2.0;" x1="97" x2="532" y1="187.8242" y2="187.8242"/><text fill="#000000" font-family="sans-serif" font-size="13" font-weight="bold" lengthAdjust="spacing" textLength="7" x="109" y="182.5615">2</text><text fill="#000000" font-family="sans-serif" font-size="13" lengthAdjust="spacing" textLength="322" x="120" y="182.5615">show list of products and requests data (i.e. Product ID)</text><polygon fill="#181818" points="516,215.1152,526,219.1152,516,223.1152,520,219.1152" style="stroke:#181818;stroke-width:1.0;"/><line style="stroke:#181818;stroke-width:1.0;" x1="92" x2="522" y1="219.1152" y2="219.1152"/><text fill="#000000" font-family="sans-serif" font-size="13" font-weight="bold" lengthAdjust="spacing" textLength="7" x="99" y="213.8525">3</text><text fill="#000000" font-family="sans-serif" font-size="13" lengthAdjust="spacing" textLength="195" x="110" y="213.8525">types requested data (Product ID)</text><line style="stroke:#181818;stroke-width:1.0;" x1="538" x2="580" y1="250.4063" y2="250.4063"/><line style="stroke:#181818;stroke-width:1.0;" x1="580" x2="580" y1="250.4063" y2="263.4063"/><line style="stroke:#181818;stroke-width:1.0;" x1="539" x2="580" y1="263.4063" y2="263.4063"/><polygon fill="#181818" points="549,259.4063,539,263.4063,549,267.4063,545,263.4063" style="stroke:#181818;stroke-width:1.0;"/><text fill="#000000" font-family="sans-serif" font-size="13" font-weight="bold" lengthAdjust="spacing" textLength="7" x="545" y="245.1436">4</text><text fill="#000000" font-family="sans-serif" font-size="13" lengthAdjust="spacing" textLength="138" x="556" y="245.1436">checks if product exists</text><path d="M10,278.4063 L71,278.4063 L71,287.6973 L61,297.6973 L10,297.6973 L10,278.4063 " fill="#EEEEEE" style="stroke:#000000;stroke-width:1.5;"/><rect fill="none" height="50.582" style="stroke:#000000;stroke-width:1.5;" width="565" x="10" y="278.4063"/><text fill="#000000" font-family="sans-serif" font-size="13" font-weight="bold" lengthAdjust="spacing" textLength="16" x="25" y="293.4346">alt</text><text fill="#000000" font-family="sans-serif" font-size="11" font-weight="bold" lengthAdjust="spacing" textLength="133" x="86" y="292.2764">[product does not exist]</text><polygon fill="#181818" points="103,316.9883,93,320.9883,103,324.9883,99,320.9883" style="stroke:#181818;stroke-width:1.0;"/><line style="stroke:#181818;stroke-width:1.0;stroke-dasharray:2.0,2.0;" x1="97" x2="532" y1="320.9883" y2="320.9883"/><text fill="#000000" font-family="sans-serif" font-size="13" font-weight="bold" lengthAdjust="spacing" textLength="7" x="109" y="315.7256">5</text><text fill="#000000" font-family="sans-serif" font-size="13" lengthAdjust="spacing" textLength="267" x="120" y="315.7256">shows error message (Product does not exist)</text><line style="stroke:#181818;stroke-width:1.0;" x1="533" x2="575" y1="359.2793" y2="359.2793"/><line style="stroke:#181818;stroke-width:1.0;" x1="575" x2="575" y1="359.2793" y2="372.2793"/><line style="stroke:#181818;stroke-width:1.0;" x1="534" x2="575" y1="372.2793" y2="372.2793"/><polygon fill="#181818" points="544,368.2793,534,372.2793,544,376.2793,540,372.2793" style="stroke:#181818;stroke-width:1.0;"/><text fill="#000000" font-family="sans-serif" font-size="13" font-weight="bold" lengthAdjust="spacing" textLength="7" x="540" y="354.0166">6</text><text fill="#000000" font-family="sans-serif" font-size="13" lengthAdjust="spacing" textLength="311" x="551" y="354.0166">fetch production tree and validate production hierarchy</text><line style="stroke:#181818;stroke-width:1.0;" x1="533" x2="575" y1="403.5703" y2="403.5703"/><line style="stroke:#181818;stroke-width:1.0;" x1="575" x2="575" y1="403.5703" y2="416.5703"/><line style="stroke:#181818;stroke-width:1.0;" x1="534" x2="575" y1="416.5703" y2="416.5703"/><polygon fill="#181818" points="544,412.5703,534,416.5703,544,420.5703,540,416.5703" style="stroke:#181818;stroke-width:1.0;"/><text fill="#000000" font-family="sans-serif" font-size="13" font-weight="bold" lengthAdjust="spacing" textLength="7" x="540" y="398.3076">7</text><text fill="#000000" font-family="sans-serif" font-size="13" lengthAdjust="spacing" textLength="222" x="551" y="398.3076">create events for production simulation</text><polygon fill="#181818" points="103,443.8613,93,447.8613,103,451.8613,99,447.8613" style="stroke:#181818;stroke-width:1.0;"/><line style="stroke:#181818;stroke-width:1.0;stroke-dasharray:2.0,2.0;" x1="97" x2="532" y1="447.8613" y2="447.8613"/><text fill="#000000" font-family="sans-serif" font-size="13" font-weight="bold" lengthAdjust="spacing" textLength="7" x="109" y="442.5986">8</text><text fill="#000000" font-family="sans-serif" font-size="13" lengthAdjust="spacing" textLength="406" x="120" y="442.5986">show events details (item, operation, workstation, start time, end time)</text><!--SRC=[XPBDSe903CVlF4N6aywe3-2X9oyzEECCJv3k1jWHTkacQ7dx1WH4gtPFWVppooUVdAynOWLLyC4KCLG44XjAUFBKQ4wOKofjIH392Fgyd0kuG1ikpkUGOScK9E94fMdBGXMazDsGDmHxXtadNwRfVfKas4ZmJVL5KMqZ8SBY68DjZBZWuO1USyO58CFna6WYSSRLw0KMkokvzrtDdk3EADI94z1tFC3cOwnXfz8JWmHWLpLbfwjlkJBDZUEFFdYYZNWOti3RA5eJxBJrS87IiK38HW83Ugk3qhPPFomAmj9jQGj3V_2f_NSqIqyJFPGkRKqyyiWEm4VMloNFYAOWe-DmKyb0Fze3Jp4zi9J9RODMuCEWkvEzcWe3nQY3hOXPDtah-9wrkeFz7SZSIzw-RIiZCSLyiHA9-cMSiNJsOUk5euZH5EtRIKNgmkXCNbVP7SgCCDoIcjUodXx746f9q9MiXw2IDOHQatUHQxY4U68PFjI80k8gMdVjzjQhM_a5]--></g></svg>