<?xml version="1.0" encoding="us-ascii" standalone="no"?><svg xmlns="http://www.w3.org/2000/svg" xmlns:xlink="http://www.w3.org/1999/xlink" contentStyleType="text/css" height="940.8px" preserveAspectRatio="none" style="width:1342px;height:940px;background:#FFFFFF;" version="1.1" viewBox="0 0 1342 940" width="1342.2px" zoomAndPan="magnify"><defs/><g><!--cluster UI--><g id="cluster_UI"><rect fill="none" height="60.6" rx="1.5" ry="1.5" style="stroke:#000000;stroke-width:0.8999999999999999;" width="127.2" x="450.6" y="4.2"/><text fill="#000000" font-family="sans-serif" font-size="8.4" font-weight="bold" lengthAdjust="spacing" textLength="8.4" x="510" y="14.4645">UI</text></g><!--cluster Controller--><g id="cluster_Controller"><rect fill="none" height="82.8" rx="1.5" ry="1.5" style="stroke:#000000;stroke-width:0.8999999999999999;" width="396.6" x="306" y="84.6"/><text fill="#000000" font-family="sans-serif" font-size="8.4" font-weight="bold" lengthAdjust="spacing" textLength="42.6" x="483" y="94.8645">Controller</text></g><!--cluster Service--><g id="cluster_Service"><rect fill="none" height="82.8" rx="1.5" ry="1.5" style="stroke:#000000;stroke-width:0.8999999999999999;" width="396.6" x="306" y="187.2"/><text fill="#000000" font-family="sans-serif" font-size="8.4" font-weight="bold" lengthAdjust="spacing" textLength="32.4" x="488.1" y="197.4645">Service</text></g><!--cluster Repository--><g id="cluster_Repository"><rect fill="none" height="203.4" rx="1.5" ry="1.5" style="stroke:#000000;stroke-width:0.8999999999999999;" width="506.4" x="166.2" y="300.6"/><text fill="#000000" font-family="sans-serif" font-size="8.4" font-weight="bold" lengthAdjust="spacing" textLength="45.6" x="396.6" y="310.8645">Repository</text></g><!--cluster Model--><g id="cluster_Model"><rect fill="none" height="402.6" rx="1.5" ry="1.5" style="stroke:#000000;stroke-width:0.8999999999999999;" width="519" x="4.2" y="534.6"/><text fill="#000000" font-family="sans-serif" font-size="8.4" font-weight="bold" lengthAdjust="spacing" textLength="26.4" x="250.5" y="544.8645">Model</text></g><!--cluster Exception--><g id="cluster_Exception"><rect fill="none" height="175.8" rx="1.5" ry="1.5" style="stroke:#000000;stroke-width:0.8999999999999999;" width="478.2" x="860.4" y="317.1"/><text fill="#000000" font-family="sans-serif" font-size="8.4" font-weight="bold" lengthAdjust="spacing" textLength="42" x="1078.5" y="327.3645">Exception</text></g><!--class CompleteSupplyOfferUI--><g id="elem_CompleteSupplyOfferUI"><rect codeLine="7" fill="#F1F1F1" height="28.8" id="CompleteSupplyOfferUI" rx="1.5" ry="1.5" style="stroke:#181818;stroke-width:0.3;" width="107.4" x="460.5" y="26.4"/><ellipse cx="469.5" cy="36" fill="#ADD1B2" rx="6.6" ry="6.6" style="stroke:#181818;stroke-width:0.6;"/><path d="M471.1594,33.525 Q471.2531,33.3938 471.3656,33.3281 Q471.4781,33.2625 471.6094,33.2625 Q471.8344,33.2625 471.975,33.4219 Q472.1156,33.5719 472.1156,33.9375 L472.1156,34.8094 Q472.1156,35.175 471.975,35.3344 Q471.8344,35.4938 471.6094,35.4938 Q471.4031,35.4938 471.2813,35.3719 Q471.1594,35.2594 471.0938,34.95 Q471.0656,34.7344 470.9531,34.6219 Q470.7562,34.3969 470.3906,34.2656 Q470.025,34.1344 469.65,34.1344 Q469.1906,34.1344 468.8063,34.3313 Q468.4313,34.5281 468.1312,34.9781 Q467.8406,35.4281 467.8406,36.0469 L467.8406,36.7031 Q467.8406,37.4438 468.375,37.9406 Q468.9094,38.4281 469.8656,38.4281 Q470.4281,38.4281 470.8219,38.2781 Q471.0563,38.1844 471.3094,37.9219 Q471.4688,37.7625 471.5531,37.7156 Q471.6469,37.6687 471.7687,37.6687 Q471.9656,37.6687 472.1156,37.8281 Q472.275,37.9781 472.275,38.1844 Q472.275,38.3906 472.0687,38.6344 Q471.7687,38.9812 471.2906,39.1781 Q470.6437,39.45 469.8656,39.45 Q468.9562,39.45 468.2344,39.075 Q467.6437,38.775 467.2313,38.1375 Q466.8187,37.4906 466.8187,36.7219 L466.8187,36.0281 Q466.8187,35.2312 467.1844,34.5469 Q467.5594,33.8531 468.2156,33.4875 Q468.8719,33.1125 469.6125,33.1125 Q470.0531,33.1125 470.4375,33.2156 Q470.8312,33.3094 471.1594,33.525 Z " fill="#000000"/><text fill="#000000" font-family="sans-serif" font-size="8.4" lengthAdjust="spacing" textLength="88.2" x="477.9" y="39.4781">CompleteSupplyOfferUI</text><line style="stroke:#181818;stroke-width:0.3;" x1="461.1" x2="567.3" y1="45.6" y2="45.6"/><line style="stroke:#181818;stroke-width:0.3;" x1="461.1" x2="567.3" y1="50.4" y2="50.4"/></g><!--class SupplierController--><g id="elem_SupplierController"><rect codeLine="12" fill="#F1F1F1" height="51.1453" id="SupplierController" rx="1.5" ry="1.5" style="stroke:#181818;stroke-width:0.3;" width="154.8" x="315.6" y="106.8"/><ellipse cx="356.25" cy="116.4" fill="#ADD1B2" rx="6.6" ry="6.6" style="stroke:#181818;stroke-width:0.6;"/><path d="M357.9094,113.925 Q358.0031,113.7938 358.1156,113.7281 Q358.2281,113.6625 358.3594,113.6625 Q358.5844,113.6625 358.725,113.8219 Q358.8656,113.9719 358.8656,114.3375 L358.8656,115.2094 Q358.8656,115.575 358.725,115.7344 Q358.5844,115.8938 358.3594,115.8938 Q358.1531,115.8938 358.0313,115.7719 Q357.9094,115.6594 357.8438,115.35 Q357.8156,115.1344 357.7031,115.0219 Q357.5062,114.7969 357.1406,114.6656 Q356.775,114.5344 356.4,114.5344 Q355.9406,114.5344 355.5563,114.7313 Q355.1813,114.9281 354.8812,115.3781 Q354.5906,115.8281 354.5906,116.4469 L354.5906,117.1031 Q354.5906,117.8438 355.125,118.3406 Q355.6594,118.8281 356.6156,118.8281 Q357.1781,118.8281 357.5719,118.6781 Q357.8063,118.5844 358.0594,118.3219 Q358.2188,118.1625 358.3031,118.1156 Q358.3969,118.0688 358.5188,118.0688 Q358.7156,118.0688 358.8656,118.2281 Q359.025,118.3781 359.025,118.5844 Q359.025,118.7906 358.8187,119.0344 Q358.5188,119.3813 358.0406,119.5781 Q357.3938,119.85 356.6156,119.85 Q355.7063,119.85 354.9844,119.475 Q354.3938,119.175 353.9813,118.5375 Q353.5687,117.8906 353.5687,117.1219 L353.5687,116.4281 Q353.5687,115.6313 353.9344,114.9469 Q354.3094,114.2531 354.9656,113.8875 Q355.6219,113.5125 356.3625,113.5125 Q356.8031,113.5125 357.1875,113.6156 Q357.5813,113.7094 357.9094,113.925 Z " fill="#000000"/><text fill="#000000" font-family="sans-serif" font-size="8.4" lengthAdjust="spacing" textLength="68.4" x="368.55" y="119.8781">SupplierController</text><line style="stroke:#181818;stroke-width:0.3;" x1="316.2" x2="469.8" y1="126" y2="126"/><line style="stroke:#181818;stroke-width:0.3;" x1="316.2" x2="469.8" y1="130.8" y2="130.8"/><text fill="#000000" font-family="sans-serif" font-size="8.4" lengthAdjust="spacing" textLength="119.4" x="319.2" y="142.2645">+getSuppliers() : List&lt;Supplier&gt;</text><text fill="#000000" font-family="sans-serif" font-size="8.4" lengthAdjust="spacing" textLength="147.6" x="319.2" y="153.4371">+getSupplierByID(supplierID) : Supplier</text></g><!--class SupplyOfferController--><g id="elem_SupplyOfferController"><rect codeLine="17" fill="#F1F1F1" height="39.9727" id="SupplyOfferController" rx="1.5" ry="1.5" style="stroke:#181818;stroke-width:0.3;" width="201" x="491.7" y="112.2"/><ellipse cx="548.55" cy="121.8" fill="#ADD1B2" rx="6.6" ry="6.6" style="stroke:#181818;stroke-width:0.6;"/><path d="M550.2094,119.325 Q550.3031,119.1938 550.4156,119.1281 Q550.5281,119.0625 550.6594,119.0625 Q550.8844,119.0625 551.025,119.2219 Q551.1656,119.3719 551.1656,119.7375 L551.1656,120.6094 Q551.1656,120.975 551.025,121.1344 Q550.8844,121.2937 550.6594,121.2937 Q550.4531,121.2937 550.3313,121.1719 Q550.2094,121.0594 550.1438,120.75 Q550.1156,120.5344 550.0031,120.4219 Q549.8063,120.1969 549.4406,120.0656 Q549.075,119.9344 548.7,119.9344 Q548.2406,119.9344 547.8562,120.1313 Q547.4812,120.3281 547.1813,120.7781 Q546.8906,121.2281 546.8906,121.8469 L546.8906,122.5031 Q546.8906,123.2437 547.425,123.7406 Q547.9594,124.2281 548.9156,124.2281 Q549.4781,124.2281 549.8719,124.0781 Q550.1062,123.9844 550.3594,123.7219 Q550.5188,123.5625 550.6031,123.5156 Q550.6969,123.4688 550.8188,123.4688 Q551.0156,123.4688 551.1656,123.6281 Q551.325,123.7781 551.325,123.9844 Q551.325,124.1906 551.1188,124.4344 Q550.8188,124.7813 550.3406,124.9781 Q549.6938,125.25 548.9156,125.25 Q548.0063,125.25 547.2844,124.875 Q546.6938,124.575 546.2813,123.9375 Q545.8688,123.2906 545.8688,122.5219 L545.8688,121.8281 Q545.8688,121.0313 546.2344,120.3469 Q546.6094,119.6531 547.2656,119.2875 Q547.9219,118.9125 548.6625,118.9125 Q549.1031,118.9125 549.4875,119.0156 Q549.8813,119.1094 550.2094,119.325 Z " fill="#000000"/><text fill="#000000" font-family="sans-serif" font-size="8.4" lengthAdjust="spacing" textLength="82.2" x="560.85" y="125.2781">SupplyOfferController</text><line style="stroke:#181818;stroke-width:0.3;" x1="492.3" x2="692.1" y1="131.4" y2="131.4"/><line style="stroke:#181818;stroke-width:0.3;" x1="492.3" x2="692.1" y1="136.2" y2="136.2"/><text fill="#000000" font-family="sans-serif" font-size="8.4" lengthAdjust="spacing" textLength="193.8" x="495.3" y="147.6645">+completeSupplyOffer(supplyOfferID) : SupplyOffer</text></g><!--class SupplierService--><g id="elem_SupplierService"><rect codeLine="23" fill="#F1F1F1" height="51.1453" id="SupplierService" rx="1.5" ry="1.5" style="stroke:#181818;stroke-width:0.3;" width="154.8" x="315.6" y="209.4"/><ellipse cx="360.75" cy="219" fill="#ADD1B2" rx="6.6" ry="6.6" style="stroke:#181818;stroke-width:0.6;"/><path d="M362.4094,216.525 Q362.5031,216.3937 362.6156,216.3281 Q362.7281,216.2625 362.8594,216.2625 Q363.0844,216.2625 363.225,216.4219 Q363.3656,216.5719 363.3656,216.9375 L363.3656,217.8094 Q363.3656,218.175 363.225,218.3344 Q363.0844,218.4938 362.8594,218.4938 Q362.6531,218.4938 362.5313,218.3719 Q362.4094,218.2594 362.3438,217.95 Q362.3156,217.7344 362.2031,217.6219 Q362.0062,217.3969 361.6406,217.2656 Q361.275,217.1344 360.9,217.1344 Q360.4406,217.1344 360.0563,217.3312 Q359.6813,217.5281 359.3812,217.9781 Q359.0906,218.4281 359.0906,219.0469 L359.0906,219.7031 Q359.0906,220.4438 359.625,220.9406 Q360.1594,221.4281 361.1156,221.4281 Q361.6781,221.4281 362.0719,221.2781 Q362.3063,221.1844 362.5594,220.9219 Q362.7188,220.7625 362.8031,220.7156 Q362.8969,220.6688 363.0188,220.6688 Q363.2156,220.6688 363.3656,220.8281 Q363.525,220.9781 363.525,221.1844 Q363.525,221.3906 363.3187,221.6344 Q363.0188,221.9813 362.5406,222.1781 Q361.8938,222.45 361.1156,222.45 Q360.2063,222.45 359.4844,222.075 Q358.8938,221.775 358.4813,221.1375 Q358.0687,220.4906 358.0687,219.7219 L358.0687,219.0281 Q358.0687,218.2313 358.4344,217.5469 Q358.8094,216.8531 359.4656,216.4875 Q360.1219,216.1125 360.8625,216.1125 Q361.3031,216.1125 361.6875,216.2156 Q362.0813,216.3094 362.4094,216.525 Z " fill="#000000"/><text fill="#000000" font-family="sans-serif" font-size="8.4" lengthAdjust="spacing" textLength="59.4" x="373.05" y="222.4781">SupplierService</text><line style="stroke:#181818;stroke-width:0.3;" x1="316.2" x2="469.8" y1="228.6" y2="228.6"/><line style="stroke:#181818;stroke-width:0.3;" x1="316.2" x2="469.8" y1="233.4" y2="233.4"/><text fill="#000000" font-family="sans-serif" font-size="8.4" lengthAdjust="spacing" textLength="119.4" x="319.2" y="244.8645">+getSuppliers() : List&lt;Supplier&gt;</text><text fill="#000000" font-family="sans-serif" font-size="8.4" lengthAdjust="spacing" textLength="147.6" x="319.2" y="256.0371">+getSupplierByID(supplierID) : Supplier</text></g><!--class SupplyOfferService--><g id="elem_SupplyOfferService"><rect codeLine="28" fill="#F1F1F1" height="51.1453" id="SupplyOfferService" rx="1.5" ry="1.5" style="stroke:#181818;stroke-width:0.3;" width="201" x="491.7" y="209.4"/><ellipse cx="553.05" cy="219" fill="#ADD1B2" rx="6.6" ry="6.6" style="stroke:#181818;stroke-width:0.6;"/><path d="M554.7094,216.525 Q554.8031,216.3937 554.9156,216.3281 Q555.0281,216.2625 555.1594,216.2625 Q555.3844,216.2625 555.525,216.4219 Q555.6656,216.5719 555.6656,216.9375 L555.6656,217.8094 Q555.6656,218.175 555.525,218.3344 Q555.3844,218.4938 555.1594,218.4938 Q554.9531,218.4938 554.8313,218.3719 Q554.7094,218.2594 554.6438,217.95 Q554.6156,217.7344 554.5031,217.6219 Q554.3063,217.3969 553.9406,217.2656 Q553.575,217.1344 553.2,217.1344 Q552.7406,217.1344 552.3562,217.3312 Q551.9812,217.5281 551.6813,217.9781 Q551.3906,218.4281 551.3906,219.0469 L551.3906,219.7031 Q551.3906,220.4438 551.925,220.9406 Q552.4594,221.4281 553.4156,221.4281 Q553.9781,221.4281 554.3719,221.2781 Q554.6062,221.1844 554.8594,220.9219 Q555.0188,220.7625 555.1031,220.7156 Q555.1969,220.6688 555.3188,220.6688 Q555.5156,220.6688 555.6656,220.8281 Q555.825,220.9781 555.825,221.1844 Q555.825,221.3906 555.6188,221.6344 Q555.3188,221.9813 554.8406,222.1781 Q554.1938,222.45 553.4156,222.45 Q552.5063,222.45 551.7844,222.075 Q551.1938,221.775 550.7813,221.1375 Q550.3688,220.4906 550.3688,219.7219 L550.3688,219.0281 Q550.3688,218.2313 550.7344,217.5469 Q551.1094,216.8531 551.7656,216.4875 Q552.4219,216.1125 553.1625,216.1125 Q553.6031,216.1125 553.9875,216.2156 Q554.3813,216.3094 554.7094,216.525 Z " fill="#000000"/><text fill="#000000" font-family="sans-serif" font-size="8.4" lengthAdjust="spacing" textLength="73.2" x="565.35" y="222.4781">SupplyOfferService</text><line style="stroke:#181818;stroke-width:0.3;" x1="492.3" x2="692.1" y1="228.6" y2="228.6"/><line style="stroke:#181818;stroke-width:0.3;" x1="492.3" x2="692.1" y1="233.4" y2="233.4"/><text fill="#000000" font-family="sans-serif" font-size="8.4" lengthAdjust="spacing" textLength="193.8" x="495.3" y="244.8645">+completeSupplyOffer(supplyOfferID) : SupplyOffer</text><text fill="#000000" font-family="sans-serif" font-size="8.4" lengthAdjust="spacing" textLength="187.2" x="495.3" y="256.0371">-getSupplyOfferByID(supplyOfferID) : SupplyOffer</text></g><!--class Repositories--><g id="elem_Repositories"><rect codeLine="35" fill="#F1F1F1" height="73.4906" id="Repositories" rx="1.5" ry="1.5" style="stroke:#181818;stroke-width:0.3;" width="208.8" x="175.8" y="322.8"/><ellipse cx="253.95" cy="332.4" fill="#ADD1B2" rx="6.6" ry="6.6" style="stroke:#181818;stroke-width:0.6;"/><path d="M255.6094,329.925 Q255.7031,329.7938 255.8156,329.7281 Q255.9281,329.6625 256.0594,329.6625 Q256.2844,329.6625 256.425,329.8219 Q256.5656,329.9719 256.5656,330.3375 L256.5656,331.2094 Q256.5656,331.575 256.425,331.7344 Q256.2844,331.8938 256.0594,331.8938 Q255.8531,331.8938 255.7313,331.7719 Q255.6094,331.6594 255.5438,331.35 Q255.5156,331.1344 255.4031,331.0219 Q255.2062,330.7969 254.8406,330.6656 Q254.475,330.5344 254.1,330.5344 Q253.6406,330.5344 253.2563,330.7313 Q252.8813,330.9281 252.5812,331.3781 Q252.2906,331.8281 252.2906,332.4469 L252.2906,333.1031 Q252.2906,333.8438 252.825,334.3406 Q253.3594,334.8281 254.3156,334.8281 Q254.8781,334.8281 255.2719,334.6781 Q255.5063,334.5844 255.7594,334.3219 Q255.9188,334.1625 256.0031,334.1156 Q256.0969,334.0687 256.2188,334.0687 Q256.4156,334.0687 256.5656,334.2281 Q256.725,334.3781 256.725,334.5844 Q256.725,334.7906 256.5188,335.0344 Q256.2188,335.3812 255.7406,335.5781 Q255.0938,335.85 254.3156,335.85 Q253.4063,335.85 252.6844,335.475 Q252.0938,335.175 251.6812,334.5375 Q251.2687,333.8906 251.2687,333.1219 L251.2687,332.4281 Q251.2687,331.6312 251.6344,330.9469 Q252.0094,330.2531 252.6656,329.8875 Q253.3219,329.5125 254.0625,329.5125 Q254.5031,329.5125 254.8875,329.6156 Q255.2813,329.7094 255.6094,329.925 Z " fill="#000000"/><text fill="#000000" font-family="sans-serif" font-size="8.4" lengthAdjust="spacing" textLength="47.4" x="266.25" y="335.8781">Repositories</text><line style="stroke:#181818;stroke-width:0.3;" x1="176.4" x2="384" y1="342" y2="342"/><line style="stroke:#181818;stroke-width:0.3;" x1="176.4" x2="384" y1="346.8" y2="346.8"/><text fill="#000000" font-family="sans-serif" font-size="8.4" lengthAdjust="spacing" textLength="56.4" x="179.4" y="358.2645">-Repositories()</text><text fill="#000000" font-family="sans-serif" font-size="8.4" lengthAdjust="spacing" textLength="109.2" x="179.4" y="369.4371">+getInstance() : Repositories</text><text fill="#000000" font-family="sans-serif" font-size="8.4" lengthAdjust="spacing" textLength="174" x="179.4" y="380.6098">+getSupplierRepository() : SupplierRepository</text><text fill="#000000" font-family="sans-serif" font-size="8.4" lengthAdjust="spacing" textLength="201.6" x="179.4" y="391.7824">+getSupplyOfferRepository() : SupplyOfferRepository</text></g><!--class SupplierRepository--><g id="elem_SupplierRepository"><rect codeLine="42" fill="#F1F1F1" height="51.1453" id="SupplierRepository" rx="1.5" ry="1.5" style="stroke:#181818;stroke-width:0.3;" width="122.4" x="368.4" y="443.4"/><ellipse cx="391.44" cy="453" fill="#ADD1B2" rx="6.6" ry="6.6" style="stroke:#181818;stroke-width:0.6;"/><path d="M393.0994,450.525 Q393.1931,450.3938 393.3056,450.3281 Q393.4181,450.2625 393.5494,450.2625 Q393.7744,450.2625 393.915,450.4219 Q394.0556,450.5719 394.0556,450.9375 L394.0556,451.8094 Q394.0556,452.175 393.915,452.3344 Q393.7744,452.4938 393.5494,452.4938 Q393.3431,452.4938 393.2213,452.3719 Q393.0994,452.2594 393.0338,451.95 Q393.0056,451.7344 392.8931,451.6219 Q392.6962,451.3969 392.3306,451.2656 Q391.965,451.1344 391.59,451.1344 Q391.1306,451.1344 390.7463,451.3313 Q390.3713,451.5281 390.0712,451.9781 Q389.7806,452.4281 389.7806,453.0469 L389.7806,453.7031 Q389.7806,454.4437 390.315,454.9406 Q390.8494,455.4281 391.8056,455.4281 Q392.3681,455.4281 392.7619,455.2781 Q392.9963,455.1844 393.2494,454.9219 Q393.4088,454.7625 393.4931,454.7156 Q393.5869,454.6688 393.7087,454.6688 Q393.9056,454.6688 394.0556,454.8281 Q394.215,454.9781 394.215,455.1844 Q394.215,455.3906 394.0087,455.6344 Q393.7087,455.9813 393.2306,456.1781 Q392.5837,456.45 391.8056,456.45 Q390.8962,456.45 390.1744,456.075 Q389.5837,455.775 389.1713,455.1375 Q388.7587,454.4906 388.7587,453.7219 L388.7587,453.0281 Q388.7587,452.2313 389.1244,451.5469 Q389.4994,450.8531 390.1556,450.4875 Q390.8119,450.1125 391.5525,450.1125 Q391.9931,450.1125 392.3775,450.2156 Q392.7712,450.3094 393.0994,450.525 Z " fill="#000000"/><text fill="#000000" font-family="sans-serif" font-size="8.4" lengthAdjust="spacing" textLength="72" x="402.96" y="456.4781">SupplierRepository</text><line style="stroke:#181818;stroke-width:0.3;" x1="369" x2="490.2" y1="462.6" y2="462.6"/><line style="stroke:#181818;stroke-width:0.3;" x1="369" x2="490.2" y1="467.4" y2="467.4"/><text fill="#000000" font-family="sans-serif" font-size="8.4" lengthAdjust="spacing" textLength="93" x="372" y="478.8645">+getAll() : List&lt;Supplier&gt;</text><text fill="#000000" font-family="sans-serif" font-size="8.4" lengthAdjust="spacing" textLength="115.2" x="372" y="490.0371">+getById(supplierID) : Supplier</text></g><!--class SupplyOfferRepository--><g id="elem_SupplyOfferRepository"><rect codeLine="47" fill="#F1F1F1" height="51.1453" id="SupplyOfferRepository" rx="1.5" ry="1.5" style="stroke:#181818;stroke-width:0.3;" width="151.2" x="511.8" y="443.4"/><ellipse cx="541.95" cy="453" fill="#ADD1B2" rx="6.6" ry="6.6" style="stroke:#181818;stroke-width:0.6;"/><path d="M543.6094,450.525 Q543.7031,450.3938 543.8156,450.3281 Q543.9281,450.2625 544.0594,450.2625 Q544.2844,450.2625 544.425,450.4219 Q544.5656,450.5719 544.5656,450.9375 L544.5656,451.8094 Q544.5656,452.175 544.425,452.3344 Q544.2844,452.4938 544.0594,452.4938 Q543.8531,452.4938 543.7312,452.3719 Q543.6094,452.2594 543.5437,451.95 Q543.5156,451.7344 543.4031,451.6219 Q543.2063,451.3969 542.8406,451.2656 Q542.475,451.1344 542.1,451.1344 Q541.6406,451.1344 541.2563,451.3313 Q540.8813,451.5281 540.5813,451.9781 Q540.2906,452.4281 540.2906,453.0469 L540.2906,453.7031 Q540.2906,454.4437 540.825,454.9406 Q541.3594,455.4281 542.3156,455.4281 Q542.8781,455.4281 543.2719,455.2781 Q543.5063,455.1844 543.7594,454.9219 Q543.9187,454.7625 544.0031,454.7156 Q544.0969,454.6688 544.2188,454.6688 Q544.4156,454.6688 544.5656,454.8281 Q544.725,454.9781 544.725,455.1844 Q544.725,455.3906 544.5188,455.6344 Q544.2188,455.9813 543.7406,456.1781 Q543.0938,456.45 542.3156,456.45 Q541.4063,456.45 540.6844,456.075 Q540.0938,455.775 539.6813,455.1375 Q539.2688,454.4906 539.2688,453.7219 L539.2688,453.0281 Q539.2688,452.2313 539.6344,451.5469 Q540.0094,450.8531 540.6656,450.4875 Q541.3219,450.1125 542.0625,450.1125 Q542.5031,450.1125 542.8875,450.2156 Q543.2813,450.3094 543.6094,450.525 Z " fill="#000000"/><text fill="#000000" font-family="sans-serif" font-size="8.4" lengthAdjust="spacing" textLength="85.8" x="554.25" y="456.4781">SupplyOfferRepository</text><line style="stroke:#181818;stroke-width:0.3;" x1="512.4" x2="662.4" y1="462.6" y2="462.6"/><line style="stroke:#181818;stroke-width:0.3;" x1="512.4" x2="662.4" y1="467.4" y2="467.4"/><text fill="#000000" font-family="sans-serif" font-size="8.4" lengthAdjust="spacing" textLength="144" x="515.4" y="478.8645">+getByID(supplyOfferID) : SupplyOffer</text><text fill="#000000" font-family="sans-serif" font-size="8.4" lengthAdjust="spacing" textLength="138.6" x="515.4" y="490.0371">+updateState(supplyOffer) : boolean</text></g><!--class RawMaterialRepository--><g id="elem_RawMaterialRepository"><rect codeLine="52" fill="#F1F1F1" height="39.9727" id="RawMaterialRepository" rx="1.5" ry="1.5" style="stroke:#181818;stroke-width:0.3;" width="171.6" x="175.8" y="448.8"/><ellipse cx="215.55" cy="458.4" fill="#ADD1B2" rx="6.6" ry="6.6" style="stroke:#181818;stroke-width:0.6;"/><path d="M217.2094,455.925 Q217.3031,455.7938 217.4156,455.7281 Q217.5281,455.6625 217.6594,455.6625 Q217.8844,455.6625 218.025,455.8219 Q218.1656,455.9719 218.1656,456.3375 L218.1656,457.2094 Q218.1656,457.575 218.025,457.7344 Q217.8844,457.8938 217.6594,457.8938 Q217.4531,457.8938 217.3312,457.7719 Q217.2094,457.6594 217.1437,457.35 Q217.1156,457.1344 217.0031,457.0219 Q216.8063,456.7969 216.4406,456.6656 Q216.075,456.5344 215.7,456.5344 Q215.2406,456.5344 214.8563,456.7313 Q214.4813,456.9281 214.1813,457.3781 Q213.8906,457.8281 213.8906,458.4469 L213.8906,459.1031 Q213.8906,459.8438 214.425,460.3406 Q214.9594,460.8281 215.9156,460.8281 Q216.4781,460.8281 216.8719,460.6781 Q217.1063,460.5844 217.3594,460.3219 Q217.5187,460.1625 217.6031,460.1156 Q217.6969,460.0687 217.8188,460.0687 Q218.0156,460.0687 218.1656,460.2281 Q218.325,460.3781 218.325,460.5844 Q218.325,460.7906 218.1188,461.0344 Q217.8188,461.3812 217.3406,461.5781 Q216.6938,461.85 215.9156,461.85 Q215.0063,461.85 214.2844,461.475 Q213.6938,461.175 213.2813,460.5375 Q212.8688,459.8906 212.8688,459.1219 L212.8688,458.4281 Q212.8688,457.6312 213.2344,456.9469 Q213.6094,456.2531 214.2656,455.8875 Q214.9219,455.5125 215.6625,455.5125 Q216.1031,455.5125 216.4875,455.6156 Q216.8813,455.7094 217.2094,455.925 Z " fill="#000000"/><text fill="#000000" font-family="sans-serif" font-size="8.4" lengthAdjust="spacing" textLength="87" x="227.85" y="461.8781">RawMaterialRepository</text><line style="stroke:#181818;stroke-width:0.3;" x1="176.4" x2="346.8" y1="468" y2="468"/><line style="stroke:#181818;stroke-width:0.3;" x1="176.4" x2="346.8" y1="472.8" y2="472.8"/><text fill="#000000" font-family="sans-serif" font-size="8.4" lengthAdjust="spacing" textLength="164.4" x="179.4" y="484.2645">+updateRawMaterial(rawMaterial) : boolean</text></g><!--class Supplier--><g id="elem_Supplier"><rect codeLine="58" fill="#F1F1F1" height="118.1812" id="Supplier" rx="1.5" ry="1.5" style="stroke:#181818;stroke-width:0.3;" width="195.6" x="318" y="556.8"/><ellipse cx="397.65" cy="566.4" fill="#ADD1B2" rx="6.6" ry="6.6" style="stroke:#181818;stroke-width:0.6;"/><path d="M399.3094,563.925 Q399.4031,563.7937 399.5156,563.7281 Q399.6281,563.6625 399.7594,563.6625 Q399.9844,563.6625 400.125,563.8219 Q400.2656,563.9719 400.2656,564.3375 L400.2656,565.2094 Q400.2656,565.575 400.125,565.7344 Q399.9844,565.8938 399.7594,565.8938 Q399.5531,565.8938 399.4313,565.7719 Q399.3094,565.6594 399.2438,565.35 Q399.2156,565.1344 399.1031,565.0219 Q398.9063,564.7969 398.5406,564.6656 Q398.175,564.5344 397.8,564.5344 Q397.3406,564.5344 396.9563,564.7312 Q396.5813,564.9281 396.2813,565.3781 Q395.9906,565.8281 395.9906,566.4469 L395.9906,567.1031 Q395.9906,567.8438 396.525,568.3406 Q397.0594,568.8281 398.0156,568.8281 Q398.5781,568.8281 398.9719,568.6781 Q399.2063,568.5844 399.4594,568.3219 Q399.6188,568.1625 399.7031,568.1156 Q399.7969,568.0688 399.9188,568.0688 Q400.1156,568.0688 400.2656,568.2281 Q400.425,568.3781 400.425,568.5844 Q400.425,568.7906 400.2188,569.0344 Q399.9188,569.3813 399.4406,569.5781 Q398.7938,569.85 398.0156,569.85 Q397.1063,569.85 396.3844,569.475 Q395.7938,569.175 395.3812,568.5375 Q394.9688,567.8906 394.9688,567.1219 L394.9688,566.4281 Q394.9688,565.6313 395.3344,564.9469 Q395.7094,564.2531 396.3656,563.8875 Q397.0219,563.5125 397.7625,563.5125 Q398.2031,563.5125 398.5875,563.6156 Q398.9813,563.7094 399.3094,563.925 Z " fill="#000000"/><text fill="#000000" font-family="sans-serif" font-size="8.4" lengthAdjust="spacing" textLength="31.2" x="409.95" y="569.8781">Supplier</text><line style="stroke:#181818;stroke-width:0.3;" x1="318.6" x2="513" y1="576" y2="576"/><text fill="#000000" font-family="sans-serif" font-size="8.4" lengthAdjust="spacing" textLength="57" x="321.6" y="587.4645">-supplierID : int</text><text fill="#000000" font-family="sans-serif" font-size="8.4" lengthAdjust="spacing" textLength="53.4" x="321.6" y="598.6371">-name : String</text><text fill="#000000" font-family="sans-serif" font-size="8.4" lengthAdjust="spacing" textLength="72.6" x="321.6" y="609.8098">-phoneNumber : int</text><text fill="#000000" font-family="sans-serif" font-size="8.4" lengthAdjust="spacing" textLength="52.2" x="321.6" y="620.9824">-email : String</text><text fill="#000000" font-family="sans-serif" font-size="8.4" lengthAdjust="spacing" textLength="81.6" x="321.6" y="632.1551">-type : CompanyType</text><text fill="#000000" font-family="sans-serif" font-size="8.4" lengthAdjust="spacing" textLength="69.6" x="321.6" y="643.3277">-state : EntityState</text><text fill="#000000" font-family="sans-serif" font-size="8.4" lengthAdjust="spacing" textLength="126" x="321.6" y="654.5004">-supplyOffers : List&lt;SupplyOffer&gt;</text><line style="stroke:#181818;stroke-width:0.3;" x1="318.6" x2="513" y1="659.0086" y2="659.0086"/><text fill="#000000" font-family="sans-serif" font-size="8.4" lengthAdjust="spacing" textLength="188.4" x="321.6" y="670.473">+Supplier(supplierID, name, phoneNumber, email)</text></g><!--class SupplyOffer--><g id="elem_SupplyOffer"><rect codeLine="69" fill="#F1F1F1" height="107.0086" id="SupplyOffer" rx="1.5" ry="1.5" style="stroke:#181818;stroke-width:0.3;" width="358.2" x="155.1" y="722.4"/><ellipse cx="309.15" cy="732" fill="#ADD1B2" rx="6.6" ry="6.6" style="stroke:#181818;stroke-width:0.6;"/><path d="M310.8094,729.525 Q310.9031,729.3938 311.0156,729.3281 Q311.1281,729.2625 311.2594,729.2625 Q311.4844,729.2625 311.625,729.4219 Q311.7656,729.5719 311.7656,729.9375 L311.7656,730.8094 Q311.7656,731.175 311.625,731.3344 Q311.4844,731.4938 311.2594,731.4938 Q311.0531,731.4938 310.9313,731.3719 Q310.8094,731.2594 310.7438,730.95 Q310.7156,730.7344 310.6031,730.6219 Q310.4063,730.3969 310.0406,730.2656 Q309.675,730.1344 309.3,730.1344 Q308.8406,730.1344 308.4563,730.3313 Q308.0813,730.5281 307.7813,730.9781 Q307.4906,731.4281 307.4906,732.0469 L307.4906,732.7031 Q307.4906,733.4438 308.025,733.9406 Q308.5594,734.4281 309.5156,734.4281 Q310.0781,734.4281 310.4719,734.2781 Q310.7063,734.1844 310.9594,733.9219 Q311.1188,733.7625 311.2031,733.7156 Q311.2969,733.6687 311.4188,733.6687 Q311.6156,733.6687 311.7656,733.8281 Q311.925,733.9781 311.925,734.1844 Q311.925,734.3906 311.7188,734.6344 Q311.4188,734.9812 310.9406,735.1781 Q310.2938,735.45 309.5156,735.45 Q308.6063,735.45 307.8844,735.075 Q307.2938,734.775 306.8812,734.1375 Q306.4688,733.4906 306.4688,732.7219 L306.4688,732.0281 Q306.4688,731.2312 306.8344,730.5469 Q307.2094,729.8531 307.8656,729.4875 Q308.5219,729.1125 309.2625,729.1125 Q309.7031,729.1125 310.0875,729.2156 Q310.4813,729.3094 310.8094,729.525 Z " fill="#000000"/><text fill="#000000" font-family="sans-serif" font-size="8.4" lengthAdjust="spacing" textLength="45" x="321.45" y="735.4781">SupplyOffer</text><line style="stroke:#181818;stroke-width:0.3;" x1="155.7" x2="512.7" y1="741.6" y2="741.6"/><text fill="#000000" font-family="sans-serif" font-size="8.4" lengthAdjust="spacing" textLength="70.8" x="158.7" y="753.0645">-supplyOfferID : int</text><text fill="#000000" font-family="sans-serif" font-size="8.4" lengthAdjust="spacing" textLength="102" x="158.7" y="764.2371">-deliveryAddress : Address</text><text fill="#000000" font-family="sans-serif" font-size="8.4" lengthAdjust="spacing" textLength="63" x="158.7" y="775.4098">-startDate : Date</text><text fill="#000000" font-family="sans-serif" font-size="8.4" lengthAdjust="spacing" textLength="60.6" x="158.7" y="786.5824">-endDate : Date</text><text fill="#000000" font-family="sans-serif" font-size="8.4" lengthAdjust="spacing" textLength="79.2" x="158.7" y="797.7551">-state : ProcessState</text><text fill="#000000" font-family="sans-serif" font-size="8.4" lengthAdjust="spacing" textLength="267.6" x="158.7" y="808.9277">-rawMaterialsQuantityCost : Map&lt;RawMaterial, Map&lt;Integer, Double&gt;&gt;</text><line style="stroke:#181818;stroke-width:0.3;" x1="155.7" x2="512.7" y1="813.4359" y2="813.4359"/><text fill="#000000" font-family="sans-serif" font-size="8.4" lengthAdjust="spacing" textLength="351" x="158.7" y="824.9004">+SupplyOffer(supplyOfferID, deliveryAddress, startDate, endDate, rawMaterialsQuantityCost)</text></g><!--class ProcessState--><g id="elem_ProcessState"><rect codeLine="79" fill="#F1F1F1" height="51.1453" id="ProcessState" rx="1.5" ry="1.5" style="stroke:#181818;stroke-width:0.3;" width="69.6" x="299.4" y="876.6"/><ellipse cx="308.4" cy="886.2" fill="#EB937F" rx="6.6" ry="6.6" style="stroke:#181818;stroke-width:0.6;"/><path d="M307.7156,886.6781 L307.7156,888.1781 L310.3125,888.1781 L310.3125,887.625 Q310.3125,887.2594 310.4531,887.1 Q310.6031,886.9406 310.8281,886.9406 Q311.0531,886.9406 311.1937,887.1 Q311.3344,887.2594 311.3344,887.625 L311.3344,889.2 L306.5344,889.2 Q306.1594,889.2 306,889.0594 Q305.85,888.9187 305.85,888.6844 Q305.85,888.4594 306.0094,888.3188 Q306.1688,888.1781 306.5344,888.1781 L306.6937,888.1781 L306.6937,884.1844 L306.5344,884.1844 Q306.1594,884.1844 306,884.0437 Q305.85,883.9031 305.85,883.6687 Q305.85,883.4438 306,883.3031 Q306.1594,883.1625 306.5344,883.1625 L311.1094,883.1625 L311.1094,884.7188 Q311.1094,885.0844 310.9688,885.2438 Q310.8375,885.3938 310.6031,885.3938 Q310.3781,885.3938 310.2375,885.2438 Q310.0969,885.0844 310.0969,884.7188 L310.0969,884.1844 L307.7156,884.1844 L307.7156,885.6563 L308.6063,885.6563 Q308.6063,885.2625 308.6813,885.15 Q308.8406,884.9063 309.1219,884.9063 Q309.3469,884.9063 309.4875,885.0656 Q309.6281,885.2156 309.6281,885.5813 L309.6281,886.7625 Q309.6281,887.0906 309.5531,887.2031 Q309.3938,887.4375 309.1219,887.4375 Q308.8406,887.4375 308.6813,887.1938 Q308.6063,887.0813 308.6063,886.6781 L307.7156,886.6781 Z " fill="#000000"/><text fill="#000000" font-family="sans-serif" font-size="8.4" lengthAdjust="spacing" textLength="50.4" x="316.8" y="889.6781">ProcessState</text><line style="stroke:#181818;stroke-width:0.3;" x1="300" x2="368.4" y1="895.8" y2="895.8"/><text fill="#000000" font-family="sans-serif" font-size="8.4" lengthAdjust="spacing" textLength="36" x="303" y="907.2645">PENDING</text><text fill="#000000" font-family="sans-serif" font-size="8.4" lengthAdjust="spacing" textLength="49.2" x="303" y="918.4371">CONFIRMED</text><line style="stroke:#181818;stroke-width:0.3;" x1="300" x2="368.4" y1="922.9453" y2="922.9453"/></g><!--class Part--><g id="elem_Part"><rect codeLine="84" fill="#F1F1F1" height="73.4906" id="Part" rx="1.5" ry="1.5" style="stroke:#181818;stroke-width:0.3;" width="112.2" x="21.9" y="739.2"/><ellipse cx="67.65" cy="748.8" fill="#ADD1B2" rx="6.6" ry="6.6" style="stroke:#181818;stroke-width:0.6;"/><path d="M69.3094,746.325 Q69.4031,746.1938 69.5156,746.1281 Q69.6281,746.0625 69.7594,746.0625 Q69.9844,746.0625 70.125,746.2219 Q70.2656,746.3719 70.2656,746.7375 L70.2656,747.6094 Q70.2656,747.975 70.125,748.1344 Q69.9844,748.2937 69.7594,748.2937 Q69.5531,748.2937 69.4312,748.1719 Q69.3094,748.0594 69.2437,747.75 Q69.2156,747.5344 69.1031,747.4219 Q68.9063,747.1969 68.5406,747.0656 Q68.175,746.9344 67.8,746.9344 Q67.3406,746.9344 66.9563,747.1313 Q66.5813,747.3281 66.2813,747.7781 Q65.9906,748.2281 65.9906,748.8469 L65.9906,749.5031 Q65.9906,750.2438 66.525,750.7406 Q67.0594,751.2281 68.0156,751.2281 Q68.5781,751.2281 68.9719,751.0781 Q69.2063,750.9844 69.4594,750.7219 Q69.6187,750.5625 69.7031,750.5156 Q69.7969,750.4688 69.9188,750.4688 Q70.1156,750.4688 70.2656,750.6281 Q70.425,750.7781 70.425,750.9844 Q70.425,751.1906 70.2188,751.4344 Q69.9188,751.7813 69.4406,751.9781 Q68.7938,752.25 68.0156,752.25 Q67.1063,752.25 66.3844,751.875 Q65.7938,751.575 65.3813,750.9375 Q64.9688,750.2906 64.9688,749.5219 L64.9688,748.8281 Q64.9688,748.0313 65.3344,747.3469 Q65.7094,746.6531 66.3656,746.2875 Q67.0219,745.9125 67.7625,745.9125 Q68.2031,745.9125 68.5875,746.0156 Q68.9813,746.1094 69.3094,746.325 Z " fill="#000000"/><text fill="#000000" font-family="sans-serif" font-size="8.4" lengthAdjust="spacing" textLength="15.6" x="79.95" y="752.2781">Part</text><line style="stroke:#181818;stroke-width:0.3;" x1="22.5" x2="133.5" y1="758.4" y2="758.4"/><text fill="#000000" font-family="sans-serif" font-size="8.4" lengthAdjust="spacing" textLength="39" x="25.5" y="769.8645">-id : String</text><text fill="#000000" font-family="sans-serif" font-size="8.4" lengthAdjust="spacing" textLength="53.4" x="25.5" y="781.0371">-name : String</text><text fill="#000000" font-family="sans-serif" font-size="8.4" lengthAdjust="spacing" textLength="73.8" x="25.5" y="792.2098">-description : String</text><line style="stroke:#181818;stroke-width:0.3;" x1="22.5" x2="133.5" y1="796.718" y2="796.718"/><text fill="#000000" font-family="sans-serif" font-size="8.4" lengthAdjust="spacing" textLength="105" x="25.5" y="808.1824">+Part(id, name, description)</text></g><!--class RawMaterial--><g id="elem_RawMaterial"><rect codeLine="91" fill="#F1F1F1" height="95.8359" id="RawMaterial" rx="1.5" ry="1.5" style="stroke:#181818;stroke-width:0.3;" width="282.6" x="14.1" y="567.9"/><ellipse cx="129.75" cy="577.5" fill="#ADD1B2" rx="6.6" ry="6.6" style="stroke:#181818;stroke-width:0.6;"/><path d="M131.4094,575.025 Q131.5031,574.8938 131.6156,574.8281 Q131.7281,574.7625 131.8594,574.7625 Q132.0844,574.7625 132.225,574.9219 Q132.3656,575.0719 132.3656,575.4375 L132.3656,576.3094 Q132.3656,576.675 132.225,576.8344 Q132.0844,576.9938 131.8594,576.9938 Q131.6531,576.9938 131.5313,576.8719 Q131.4094,576.7594 131.3438,576.45 Q131.3156,576.2344 131.2031,576.1219 Q131.0063,575.8969 130.6406,575.7656 Q130.275,575.6344 129.9,575.6344 Q129.4406,575.6344 129.0563,575.8313 Q128.6813,576.0281 128.3813,576.4781 Q128.0906,576.9281 128.0906,577.5469 L128.0906,578.2031 Q128.0906,578.9438 128.625,579.4406 Q129.1594,579.9281 130.1156,579.9281 Q130.6781,579.9281 131.0719,579.7781 Q131.3063,579.6844 131.5594,579.4219 Q131.7188,579.2625 131.8031,579.2156 Q131.8969,579.1687 132.0187,579.1687 Q132.2156,579.1687 132.3656,579.3281 Q132.525,579.4781 132.525,579.6844 Q132.525,579.8906 132.3188,580.1344 Q132.0187,580.4812 131.5406,580.6781 Q130.8937,580.95 130.1156,580.95 Q129.2062,580.95 128.4844,580.575 Q127.8938,580.275 127.4812,579.6375 Q127.0688,578.9906 127.0688,578.2219 L127.0688,577.5281 Q127.0688,576.7312 127.4344,576.0469 Q127.8094,575.3531 128.4656,574.9875 Q129.1219,574.6125 129.8625,574.6125 Q130.3031,574.6125 130.6875,574.7156 Q131.0812,574.8094 131.4094,575.025 Z " fill="#000000"/><text fill="#000000" font-family="sans-serif" font-size="8.4" lengthAdjust="spacing" textLength="46.2" x="142.05" y="580.9781">RawMaterial</text><line style="stroke:#181818;stroke-width:0.3;" x1="14.7" x2="296.1" y1="587.1" y2="587.1"/><text fill="#000000" font-family="sans-serif" font-size="8.4" lengthAdjust="spacing" textLength="107.4" x="17.7" y="598.5645">-category : ProductCategory</text><text fill="#000000" font-family="sans-serif" font-size="8.4" lengthAdjust="spacing" textLength="50.4" x="17.7" y="609.7371">-capacity : int</text><text fill="#000000" font-family="sans-serif" font-size="8.4" lengthAdjust="spacing" textLength="33.6" x="17.7" y="620.9098">-size : int</text><text fill="#000000" font-family="sans-serif" font-size="8.4" lengthAdjust="spacing" textLength="51" x="17.7" y="632.0824">-color : String</text><text fill="#000000" font-family="sans-serif" font-size="8.4" lengthAdjust="spacing" textLength="54.6" x="17.7" y="643.2551">-price : double</text><line style="stroke:#181818;stroke-width:0.3;" x1="14.7" x2="296.1" y1="647.7633" y2="647.7633"/><text fill="#000000" font-family="sans-serif" font-size="8.4" lengthAdjust="spacing" textLength="275.4" x="17.7" y="659.2277">+RawMaterial(id, name, description, category, capacity, size, color, price)</text></g><!--class SupplierException--><g id="elem_SupplierException"><rect codeLine="102" fill="#F1F1F1" height="39.9727" id="SupplierException" rx="1.5" ry="1.5" style="stroke:#181818;stroke-width:0.3;" width="198" x="870" y="339.3"/><ellipse cx="932.55" cy="348.9" fill="#ADD1B2" rx="6.6" ry="6.6" style="stroke:#181818;stroke-width:0.6;"/><path d="M934.2094,346.425 Q934.3031,346.2938 934.4156,346.2281 Q934.5281,346.1625 934.6594,346.1625 Q934.8844,346.1625 935.025,346.3219 Q935.1656,346.4719 935.1656,346.8375 L935.1656,347.7094 Q935.1656,348.075 935.025,348.2344 Q934.8844,348.3938 934.6594,348.3938 Q934.4531,348.3938 934.3313,348.2719 Q934.2094,348.1594 934.1438,347.85 Q934.1156,347.6344 934.0031,347.5219 Q933.8063,347.2969 933.4406,347.1656 Q933.075,347.0344 932.7,347.0344 Q932.2406,347.0344 931.8562,347.2313 Q931.4812,347.4281 931.1813,347.8781 Q930.8906,348.3281 930.8906,348.9469 L930.8906,349.6031 Q930.8906,350.3438 931.425,350.8406 Q931.9594,351.3281 932.9156,351.3281 Q933.4781,351.3281 933.8719,351.1781 Q934.1062,351.0844 934.3594,350.8219 Q934.5188,350.6625 934.6031,350.6156 Q934.6969,350.5687 934.8187,350.5687 Q935.0156,350.5687 935.1656,350.7281 Q935.325,350.8781 935.325,351.0844 Q935.325,351.2906 935.1188,351.5344 Q934.8187,351.8812 934.3406,352.0781 Q933.6937,352.35 932.9156,352.35 Q932.0062,352.35 931.2844,351.975 Q930.6937,351.675 930.2813,351.0375 Q929.8688,350.3906 929.8688,349.6219 L929.8688,348.9281 Q929.8688,348.1312 930.2344,347.4469 Q930.6094,346.7531 931.2656,346.3875 Q931.9219,346.0125 932.6625,346.0125 Q933.1031,346.0125 933.4875,346.1156 Q933.8812,346.2094 934.2094,346.425 Z " fill="#000000"/><text fill="#000000" font-family="sans-serif" font-size="8.4" lengthAdjust="spacing" textLength="67.8" x="944.85" y="352.3781">SupplierException</text><line style="stroke:#181818;stroke-width:0.3;" x1="870.6" x2="1067.4" y1="358.5" y2="358.5"/><line style="stroke:#181818;stroke-width:0.3;" x1="870.6" x2="1067.4" y1="363.3" y2="363.3"/><text fill="#000000" font-family="sans-serif" font-size="8.4" lengthAdjust="spacing" textLength="190.8" x="873.6" y="374.7645">+supplierNotFound(supplierID) : SupplierException</text></g><!--class SupplyOfferException--><g id="elem_SupplyOfferException"><rect codeLine="106" fill="#F1F1F1" height="39.9727" id="SupplyOfferException" rx="1.5" ry="1.5" style="stroke:#181818;stroke-width:0.3;" width="239.4" x="1089.3" y="339.3"/><ellipse cx="1165.65" cy="348.9" fill="#ADD1B2" rx="6.6" ry="6.6" style="stroke:#181818;stroke-width:0.6;"/><path d="M1167.3094,346.425 Q1167.4031,346.2938 1167.5156,346.2281 Q1167.6281,346.1625 1167.7594,346.1625 Q1167.9844,346.1625 1168.125,346.3219 Q1168.2656,346.4719 1168.2656,346.8375 L1168.2656,347.7094 Q1168.2656,348.075 1168.125,348.2344 Q1167.9844,348.3938 1167.7594,348.3938 Q1167.5531,348.3938 1167.4312,348.2719 Q1167.3094,348.1594 1167.2437,347.85 Q1167.2156,347.6344 1167.1031,347.5219 Q1166.9063,347.2969 1166.5406,347.1656 Q1166.175,347.0344 1165.8,347.0344 Q1165.3406,347.0344 1164.9563,347.2313 Q1164.5813,347.4281 1164.2813,347.8781 Q1163.9906,348.3281 1163.9906,348.9469 L1163.9906,349.6031 Q1163.9906,350.3438 1164.525,350.8406 Q1165.0594,351.3281 1166.0156,351.3281 Q1166.5781,351.3281 1166.9719,351.1781 Q1167.2063,351.0844 1167.4594,350.8219 Q1167.6187,350.6625 1167.7031,350.6156 Q1167.7969,350.5687 1167.9188,350.5687 Q1168.1156,350.5687 1168.2656,350.7281 Q1168.425,350.8781 1168.425,351.0844 Q1168.425,351.2906 1168.2188,351.5344 Q1167.9188,351.8812 1167.4406,352.0781 Q1166.7938,352.35 1166.0156,352.35 Q1165.1063,352.35 1164.3844,351.975 Q1163.7938,351.675 1163.3813,351.0375 Q1162.9688,350.3906 1162.9688,349.6219 L1162.9688,348.9281 Q1162.9688,348.1312 1163.3344,347.4469 Q1163.7094,346.7531 1164.3656,346.3875 Q1165.0219,346.0125 1165.7625,346.0125 Q1166.2031,346.0125 1166.5875,346.1156 Q1166.9813,346.2094 1167.3094,346.425 Z " fill="#000000"/><text fill="#000000" font-family="sans-serif" font-size="8.4" lengthAdjust="spacing" textLength="81.6" x="1177.95" y="352.3781">SupplyOfferException</text><line style="stroke:#181818;stroke-width:0.3;" x1="1089.9" x2="1328.1" y1="358.5" y2="358.5"/><line style="stroke:#181818;stroke-width:0.3;" x1="1089.9" x2="1328.1" y1="363.3" y2="363.3"/><text fill="#000000" font-family="sans-serif" font-size="8.4" lengthAdjust="spacing" textLength="232.2" x="1092.9" y="374.7645">+supplyOfferNotFound(supplyOfferID) : SupplyOfferException</text></g><!--class RuntimeException--><g id="elem_RuntimeException"><rect codeLine="110" fill="#F1F1F1" height="28.8" id="RuntimeException" rx="1.5" ry="1.5" style="stroke:#181818;stroke-width:0.3;" width="87" x="1045.5" y="454.5"/><ellipse cx="1054.5" cy="464.1" fill="#ADD1B2" rx="6.6" ry="6.6" style="stroke:#181818;stroke-width:0.6;"/><path d="M1056.1594,461.625 Q1056.2531,461.4938 1056.3656,461.4281 Q1056.4781,461.3625 1056.6094,461.3625 Q1056.8344,461.3625 1056.975,461.5219 Q1057.1156,461.6719 1057.1156,462.0375 L1057.1156,462.9094 Q1057.1156,463.275 1056.975,463.4344 Q1056.8344,463.5938 1056.6094,463.5938 Q1056.4031,463.5938 1056.2813,463.4719 Q1056.1594,463.3594 1056.0938,463.05 Q1056.0656,462.8344 1055.9531,462.7219 Q1055.7563,462.4969 1055.3906,462.3656 Q1055.025,462.2344 1054.65,462.2344 Q1054.1906,462.2344 1053.8062,462.4313 Q1053.4312,462.6281 1053.1313,463.0781 Q1052.8406,463.5281 1052.8406,464.1469 L1052.8406,464.8031 Q1052.8406,465.5438 1053.375,466.0406 Q1053.9094,466.5281 1054.8656,466.5281 Q1055.4281,466.5281 1055.8219,466.3781 Q1056.0562,466.2844 1056.3094,466.0219 Q1056.4688,465.8625 1056.5531,465.8156 Q1056.6469,465.7687 1056.7688,465.7687 Q1056.9656,465.7687 1057.1156,465.9281 Q1057.275,466.0781 1057.275,466.2844 Q1057.275,466.4906 1057.0688,466.7344 Q1056.7688,467.0812 1056.2906,467.2781 Q1055.6438,467.55 1054.8656,467.55 Q1053.9563,467.55 1053.2344,467.175 Q1052.6438,466.875 1052.2313,466.2375 Q1051.8188,465.5906 1051.8188,464.8219 L1051.8188,464.1281 Q1051.8188,463.3312 1052.1844,462.6469 Q1052.5594,461.9531 1053.2156,461.5875 Q1053.8719,461.2125 1054.6125,461.2125 Q1055.0531,461.2125 1055.4375,461.3156 Q1055.8313,461.4094 1056.1594,461.625 Z " fill="#000000"/><text fill="#000000" font-family="sans-serif" font-size="8.4" lengthAdjust="spacing" textLength="67.8" x="1062.9" y="467.5781">RuntimeException</text><line style="stroke:#181818;stroke-width:0.3;" x1="1046.1" x2="1131.9" y1="473.7" y2="473.7"/><line style="stroke:#181818;stroke-width:0.3;" x1="1046.1" x2="1131.9" y1="478.5" y2="478.5"/></g><!--link CompleteSupplyOfferUI to SupplierController--><g id="link_CompleteSupplyOfferUI_SupplierController"><path codeLine="114" d="M495.528,55.314 C477.204,68.964 451.729,87.9454 429.475,104.5234 " fill="none" id="CompleteSupplyOfferUI-to-SupplierController" style="stroke:#181818;stroke-width:0.6;stroke-dasharray:7.0,7.0;"/><polygon fill="#181818" points="426.588,106.674,432.3523,105.3727,428.9938,104.8818,429.4847,101.5234,426.588,106.674" style="stroke:#181818;stroke-width:0.6;"/></g><!--link CompleteSupplyOfferUI to SupplyOfferController--><g id="link_CompleteSupplyOfferUI_SupplyOfferController"><path codeLine="115" d="M526.218,55.314 C539.334,70.5 558.0953,92.2132 572.8913,109.3492 " fill="none" id="CompleteSupplyOfferUI-to-SupplyOfferController" style="stroke:#181818;stroke-width:0.6;stroke-dasharray:7.0,7.0;"/><polygon fill="#181818" points="575.244,112.074,573.5314,106.4183,573.2834,109.8033,569.8984,109.5553,575.244,112.074" style="stroke:#181818;stroke-width:0.6;"/></g><!--link SupplierController to SupplierService--><g id="link_SupplierController_SupplierService"><path codeLine="116" d="M393,157.968 C393,173.622 393,190.11 393,205.746 " fill="none" id="SupplierController-to-SupplierService" style="stroke:#181818;stroke-width:0.6;stroke-dasharray:7.0,7.0;"/><polygon fill="#181818" points="393,209.346,395.4,203.946,393,206.346,390.6,203.946,393,209.346" style="stroke:#181818;stroke-width:0.6;"/></g><!--link SupplyOfferController to SupplyOfferService--><g id="link_SupplyOfferController_SupplyOfferService"><path codeLine="117" d="M592.2,152.448 C592.2,168.624 592.2,188.1 592.2,205.626 " fill="none" id="SupplyOfferController-to-SupplyOfferService" style="stroke:#181818;stroke-width:0.6;stroke-dasharray:7.0,7.0;"/><polygon fill="#181818" points="592.2,209.226,594.6,203.826,592.2,206.226,589.8,203.826,592.2,209.226" style="stroke:#181818;stroke-width:0.6;"/></g><!--link SupplierService to Repositories--><g id="link_SupplierService_Repositories"><path codeLine="118" d="M370.176,260.454 C353.82,278.328 333.9775,300.0134 315.6895,320.0114 " fill="none" id="SupplierService-to-Repositories" style="stroke:#181818;stroke-width:0.6;stroke-dasharray:7.0,7.0;"/><polygon fill="#181818" points="313.26,322.668,318.6753,320.3027,315.2846,320.4541,315.1331,317.0634,313.26,322.668" style="stroke:#181818;stroke-width:0.6;"/><text fill="#000000" font-family="sans-serif" font-size="7.8" lengthAdjust="spacing" textLength="40.2" x="351" y="288.617">repositories</text></g><!--link SupplyOfferService to Repositories--><g id="link_SupplyOfferService_Repositories"><path codeLine="119" d="M539.688,260.406 C508.584,275.166 475.2,291 475.2,291 C475.2,291 448.2,295.8 448.2,295.8 C448.2,295.8 417.2268,307.418 379.5948,321.53 " fill="none" id="SupplyOfferService-to-Repositories" style="stroke:#181818;stroke-width:0.6;stroke-dasharray:7.0,7.0;"/><polygon fill="#181818" points="376.224,322.794,382.1229,323.1451,379.033,321.7406,380.4375,318.6507,376.224,322.794" style="stroke:#181818;stroke-width:0.6;"/><text fill="#000000" font-family="sans-serif" font-size="7.8" lengthAdjust="spacing" textLength="40.2" x="498" y="288.617">repositories</text></g><!--link SupplierService to SupplierRepository--><g id="link_SupplierService_SupplierRepository"><path codeLine="120" d="M413.688,260.55 C427.368,277.116 442.8,295.8 442.8,295.8 C442.8,295.8 493.2,414 493.2,414 C493.2,414 493.2,425.4 493.2,425.4 C493.2,425.4 483.5725,431.8949 469.5805,441.3329 " fill="none" id="SupplierService-to-SupplierRepository" style="stroke:#181818;stroke-width:0.6;stroke-dasharray:7.0,7.0;"/><polygon fill="#181818" points="466.596,443.346,472.4149,442.316,469.0831,441.6684,469.7307,438.3366,466.596,443.346" style="stroke:#181818;stroke-width:0.6;"/><text fill="#000000" font-family="sans-serif" font-size="7.8" lengthAdjust="spacing" textLength="64.2" x="485.4" y="362.717">supplierRepository</text></g><!--link SupplyOfferService to SupplyOfferRepository--><g id="link_SupplyOfferService_SupplyOfferRepository"><path codeLine="121" d="M622.11,260.55 C641.892,277.116 664.2,295.8 664.2,295.8 C664.2,295.8 664.2,396 664.2,396 C664.2,396 638.8494,419.8665 616.6674,440.7465 " fill="none" id="SupplyOfferService-to-SupplyOfferRepository" style="stroke:#181818;stroke-width:0.6;stroke-dasharray:7.0,7.0;"/><polygon fill="#181818" points="614.046,443.214,619.623,441.2603,616.2305,441.1578,616.333,437.7652,614.046,443.214" style="stroke:#181818;stroke-width:0.6;"/><text fill="#000000" font-family="sans-serif" font-size="7.8" lengthAdjust="spacing" textLength="76.2" x="664.8" y="362.717">supplyOfferRepository</text></g><!--link SupplyOfferService to RawMaterialRepository--><g id="link_SupplyOfferService_RawMaterialRepository"><path codeLine="122" d="M586.428,260.4 C575.982,305.484 555,396 555,396 C555,396 468.6,425.4 468.6,425.4 C468.6,425.4 357.6,443.4 357.6,443.4 C357.6,443.4 352.5109,444.723 340.4929,447.837 " fill="none" id="SupplyOfferService-to-RawMaterialRepository" style="stroke:#181818;stroke-width:0.6;stroke-dasharray:7.0,7.0;"/><polygon fill="#181818" points="337.008,448.74,342.8374,449.7088,339.9121,447.9875,341.6334,445.0623,337.008,448.74" style="stroke:#181818;stroke-width:0.6;"/><text fill="#000000" font-family="sans-serif" font-size="7.8" lengthAdjust="spacing" textLength="76.8" x="578.4" y="362.717">rawMaterialRepository</text></g><!--link SupplierService to Supplier--><g id="link_SupplierService_Supplier"><path codeLine="123" d="M315.468,252.258 C232.908,270.102 114,295.8 114,295.8 C114,295.8 61.8,414 61.8,414 C61.8,414 61.8,425.4 61.8,425.4 C61.8,425.4 166.2,508.8 166.2,508.8 C166.2,508.8 307.2,529.8 307.2,529.8 C307.2,529.8 319.4857,539.4707 338.4337,554.3927 " fill="none" id="SupplierService-to-Supplier" style="stroke:#181818;stroke-width:0.6;stroke-dasharray:7.0,7.0;"/><polygon fill="#181818" points="341.262,556.62,338.5045,551.3935,338.9051,554.7639,335.5347,555.1645,341.262,556.62" style="stroke:#181818;stroke-width:0.6;"/><text fill="#000000" font-family="sans-serif" font-size="7.8" lengthAdjust="spacing" textLength="27" x="62.4" y="423.017">supplier</text></g><!--link SupplyOfferService to SupplyOffer--><g id="link_SupplyOfferService_SupplyOffer"><path codeLine="124" d="M636.396,260.454 C700.212,296.478 810.6,358.8 810.6,358.8 C810.6,358.8 810.6,358.8 810.6,616.5 C810.6,616.5 634.8375,675.0502 496.2495,721.2202 " fill="none" id="SupplyOfferService-to-SupplyOffer" style="stroke:#181818;stroke-width:0.6;stroke-dasharray:7.0,7.0;"/><polygon fill="#181818" points="492.834,722.358,498.7157,722.9282,495.6802,721.4098,497.1986,718.3743,492.834,722.358" style="stroke:#181818;stroke-width:0.6;"/><text fill="#000000" font-family="sans-serif" font-size="7.8" lengthAdjust="spacing" textLength="39" x="811.2" y="472.217">supplyOffer</text></g><!--link SupplyOfferService to RawMaterial--><g id="link_SupplyOfferService_RawMaterial"><path codeLine="125" d="M521.742,260.442 C499.782,268.218 481.2,274.8 481.2,274.8 C481.2,274.8 396.6,291 396.6,291 C396.6,291 166.2,295.8 166.2,295.8 C166.2,295.8 125.4,414 125.4,414 C125.4,414 125.4,425.4 125.4,425.4 C125.4,425.4 138.4582,508.0701 147.3442,564.3141 " fill="none" id="SupplyOfferService-to-RawMaterial" style="stroke:#181818;stroke-width:0.6;stroke-dasharray:7.0,7.0;"/><polygon fill="#181818" points="147.906,567.87,149.4339,562.1616,147.4378,564.9068,144.6927,562.9107,147.906,567.87" style="stroke:#181818;stroke-width:0.6;"/><text fill="#000000" font-family="sans-serif" font-size="7.8" lengthAdjust="spacing" textLength="39.6" x="126" y="423.017">rawMaterial</text></g><!--link Repositories to Repositories--><g id="link_Repositories_Repositories"><path codeLine="126" d="M384.702,349.698 C397.332,351.45 405.6,354.684 405.6,359.4 C405.6,364.116 400.8979,366.8554 388.2679,368.6074 " fill="none" id="Repositories-to-Repositories" style="stroke:#181818;stroke-width:0.6;"/><polygon fill="#181818" points="384.702,369.102,390.3805,370.7373,387.6735,368.6898,389.721,365.9828,384.702,369.102" style="stroke:#181818;stroke-width:0.6;"/><text fill="#000000" font-family="sans-serif" font-size="7.8" lengthAdjust="spacing" textLength="29.4" x="409.2" y="362.717">instance</text></g><!--link Repositories to SupplierRepository--><g id="link_Repositories_SupplierRepository"><path codeLine="127" d="M307.392,396.144 C318.768,411.27 329.4,425.4 329.4,425.4 C329.4,425.4 345.9626,432.4911 368.0066,441.9291 " fill="none" id="Repositories-to-SupplierRepository" style="stroke:#181818;stroke-width:0.6;"/><polygon fill="#181818" points="371.316,443.346,367.2965,439.0143,368.5581,442.1652,365.4072,443.4269,371.316,443.346" style="stroke:#181818;stroke-width:0.6;"/><text fill="#000000" font-family="sans-serif" font-size="7.8" lengthAdjust="spacing" textLength="55.8" x="330" y="423.017">clientRepository</text><text fill="#000000" font-family="sans-serif" font-size="7.8" lengthAdjust="spacing" textLength="4.2" x="306.0933" y="409.3925">1</text><text fill="#000000" font-family="sans-serif" font-size="7.8" lengthAdjust="spacing" textLength="4.2" x="359.3793" y="437.6373">1</text></g><!--link Repositories to SupplyOfferRepository--><g id="link_Repositories_SupplyOfferRepository"><path codeLine="128" d="M382.494,396.06 C426.48,411.57 473.4067,428.1153 513.1747,442.1313 " fill="none" id="Repositories-to-SupplyOfferRepository" style="stroke:#181818;stroke-width:0.6;"/><polygon fill="#181818" points="516.57,443.328,512.2748,439.2695,513.7406,442.3308,510.6793,443.7966,516.57,443.328" style="stroke:#181818;stroke-width:0.6;"/><text fill="#000000" font-family="sans-serif" font-size="7.8" lengthAdjust="spacing" textLength="54.6" x="461.4" y="423.017">orderRepository</text><text fill="#000000" font-family="sans-serif" font-size="7.8" lengthAdjust="spacing" textLength="4.2" x="389.2527" y="409.0381">1</text><text fill="#000000" font-family="sans-serif" font-size="7.8" lengthAdjust="spacing" textLength="4.2" x="503.0258" y="437.617">1</text></g><!--link Repositories to RawMaterialRepository--><g id="link_Repositories_RawMaterialRepository"><path codeLine="129" d="M244.98,396.018 C235.296,405.924 227.4,414 227.4,414 C227.4,414 227.4,425.4 227.4,425.4 C227.4,425.4 234.6657,434.5132 243.6597,445.7932 " fill="none" id="Repositories-to-RawMaterialRepository" style="stroke:#181818;stroke-width:0.6;"/><polygon fill="#181818" points="245.904,448.608,244.414,442.8896,244.0337,446.2624,240.661,445.8821,245.904,448.608" style="stroke:#181818;stroke-width:0.6;"/><text fill="#000000" font-family="sans-serif" font-size="7.8" lengthAdjust="spacing" textLength="76.8" x="228" y="423.017">rawMaterialRepository</text><text fill="#000000" font-family="sans-serif" font-size="7.8" lengthAdjust="spacing" textLength="4.2" x="236.2316" y="409.5123">1</text><text fill="#000000" font-family="sans-serif" font-size="7.8" lengthAdjust="spacing" textLength="4.2" x="238.3116" y="442.023">1</text></g><!--link SupplierRepository to Supplier--><g id="link_SupplierRepository_Supplier"><path codeLine="130" d="M427.23,494.562 C425.61,511.662 423.7349,531.46 421.6889,553.096 " fill="none" id="SupplierRepository-to-Supplier" style="stroke:#181818;stroke-width:0.6;"/><polygon fill="#181818" points="421.35,556.68,424.2477,551.5299,421.6324,553.6933,419.469,551.078,421.35,556.68" style="stroke:#181818;stroke-width:0.6;"/><text fill="#000000" font-family="sans-serif" font-size="7.8" lengthAdjust="spacing" textLength="36" x="426" y="522.617">categories</text><text fill="#000000" font-family="sans-serif" font-size="7.8" lengthAdjust="spacing" textLength="4.2" x="422.3455" y="507.6917">1</text><text fill="#000000" font-family="sans-serif" font-size="7.8" lengthAdjust="spacing" textLength="3" x="418.6601" y="549.9799">*</text></g><!--link SupplyOfferRepository to SupplyOffer--><g id="link_SupplyOfferRepository_SupplyOffer"><path codeLine="131" d="M579.738,494.49 C562.95,549.258 524.4,675 524.4,675 C524.4,675 483.4971,696.5482 437.7771,720.6322 " fill="none" id="SupplyOfferRepository-to-SupplyOffer" style="stroke:#181818;stroke-width:0.6;"/><polygon fill="#181818" points="434.592,722.31,440.4882,721.9167,437.2463,720.9118,438.2511,717.6699,434.592,722.31" style="stroke:#181818;stroke-width:0.6;"/><text fill="#000000" font-family="sans-serif" font-size="7.8" lengthAdjust="spacing" textLength="36" x="568.8" y="619.217">categories</text><text fill="#000000" font-family="sans-serif" font-size="7.8" lengthAdjust="spacing" textLength="4.2" x="573.9822" y="507.8005">1</text><text fill="#000000" font-family="sans-serif" font-size="7.8" lengthAdjust="spacing" textLength="3" x="439.7815" y="715.6736">*</text></g><!--link RawMaterialRepository to RawMaterial--><g id="link_RawMaterialRepository_RawMaterial"><path codeLine="132" d="M247.386,489.012 C232.776,509.07 211.5914,538.158 192.0974,564.924 " fill="none" id="RawMaterialRepository-to-RawMaterial" style="stroke:#181818;stroke-width:0.6;"/><polygon fill="#181818" points="189.978,567.834,195.0971,564.8819,191.7442,565.409,191.2171,562.0561,189.978,567.834" style="stroke:#181818;stroke-width:0.6;"/><text fill="#000000" font-family="sans-serif" font-size="7.8" lengthAdjust="spacing" textLength="36" x="228" y="522.617">categories</text><text fill="#000000" font-family="sans-serif" font-size="7.8" lengthAdjust="spacing" textLength="4.2" x="240.2801" y="501.9557">1</text><text fill="#000000" font-family="sans-serif" font-size="7.8" lengthAdjust="spacing" textLength="3" x="190.0274" y="561.1654">*</text></g><!--link RawMaterial to Part--><g id="link_RawMaterial_Part"><path codeLine="133" d="M132.282,663.9 C120.522,688.014 111.1925,707.1431 100.3265,729.4211 " fill="none" id="RawMaterial-to-Part" style="stroke:#181818;stroke-width:0.6;"/><polygon fill="none" points="95.592,739.128,103.5622,730.9992,97.0909,727.8429,95.592,739.128" style="stroke:#181818;stroke-width:0.6;"/></g><!--link Supplier to SupplyOffer--><g id="link_Supplier_SupplyOffer"><path codeLine="134" d="M385.65,675.144 C377.7,690.594 370.8264,703.9705 363.0444,719.1025 " fill="none" id="Supplier-to-SupplyOffer" style="stroke:#181818;stroke-width:0.6;"/><polygon fill="#181818" points="361.398,722.304,366.0019,718.5994,362.77,719.6361,361.7333,716.4042,361.398,722.304" style="stroke:#181818;stroke-width:0.6;"/><text fill="#000000" font-family="sans-serif" font-size="7.8" lengthAdjust="spacing" textLength="12.6" x="375.6" y="702.017">has</text><text fill="#000000" font-family="sans-serif" font-size="7.8" lengthAdjust="spacing" textLength="4.2" x="379.0816" y="688.2934">1</text><text fill="#000000" font-family="sans-serif" font-size="7.8" lengthAdjust="spacing" textLength="3" x="360.5261" y="715.6671">*</text></g><!--link SupplyOffer to ProcessState--><g id="link_SupplyOffer_ProcessState"><path codeLine="135" d="M334.2,829.272 C334.2,845.676 334.2,859.392 334.2,872.952 " fill="none" id="SupplyOffer-to-ProcessState" style="stroke:#181818;stroke-width:0.6;"/><polygon fill="#181818" points="334.2,876.552,336.6,871.152,334.2,873.552,331.8,871.152,334.2,876.552" style="stroke:#181818;stroke-width:0.6;"/><text fill="#000000" font-family="sans-serif" font-size="7.8" lengthAdjust="spacing" textLength="12.6" x="334.8" y="856.217">has</text><text fill="#000000" font-family="sans-serif" font-size="7.8" lengthAdjust="spacing" textLength="3" x="331.0758" y="842.5381">*</text><text fill="#000000" font-family="sans-serif" font-size="7.8" lengthAdjust="spacing" textLength="4.2" x="329.6653" y="869.8868">1</text></g><!--link SupplierService to SupplierException--><g id="link_SupplierService_SupplierException"><path codeLine="136" d="M449.106,260.502 C466.506,268.254 481.2,274.8 481.2,274.8 C481.2,274.8 783.6,295.8 783.6,295.8 C783.6,295.8 853.7514,319.6377 908.2014,338.1417 " fill="none" id="SupplierService-to-SupplierException" style="stroke:#181818;stroke-width:0.6;stroke-dasharray:7.0,7.0;"/><polygon fill="#181818" points="911.61,339.3,907.2694,335.2901,908.7695,338.3347,905.7249,339.8349,911.61,339.3" style="stroke:#181818;stroke-width:0.6;"/><text fill="#000000" font-family="sans-serif" font-size="7.8" lengthAdjust="spacing" textLength="22.8" x="711" y="288.617">throws</text></g><!--link SupplierException to RuntimeException--><g id="link_SupplierException_RuntimeException"><path codeLine="137" d="M990.732,379.614 C1014.642,401.19 1044.4488,428.0877 1065.5148,447.1017 " fill="none" id="SupplierException-to-RuntimeException" style="stroke:#181818;stroke-width:0.6;"/><polygon fill="none" points="1073.532,454.338,1067.9269,444.4293,1063.1027,449.7741,1073.532,454.338" style="stroke:#181818;stroke-width:0.6;"/></g><!--link SupplyOfferService to SupplyOfferException--><g id="link_SupplyOfferService_SupplyOfferException"><path codeLine="138" d="M692.73,247.956 C835.218,265.614 1078.8,295.8 1078.8,295.8 C1078.8,295.8 1127.2195,319.2279 1165.4575,337.7319 " fill="none" id="SupplyOfferService-to-SupplyOfferException" style="stroke:#181818;stroke-width:0.6;stroke-dasharray:7.0,7.0;"/><polygon fill="#181818" points="1168.698,339.3,1164.8827,334.7874,1165.9976,337.9932,1162.7918,339.1081,1168.698,339.3" style="stroke:#181818;stroke-width:0.6;"/><text fill="#000000" font-family="sans-serif" font-size="7.8" lengthAdjust="spacing" textLength="22.8" x="1037.4" y="288.617">throws</text></g><!--link SupplyOfferException to RuntimeException--><g id="link_SupplyOfferException_RuntimeException"><path codeLine="139" d="M1187.268,379.614 C1163.358,401.19 1133.5512,428.0877 1112.4852,447.1017 " fill="none" id="SupplyOfferException-to-RuntimeException" style="stroke:#181818;stroke-width:0.6;"/><polygon fill="none" points="1104.468,454.338,1114.8973,449.7741,1110.0731,444.4293,1104.468,454.338" style="stroke:#181818;stroke-width:0.6;"/></g><!--SRC=[nLPBRziu4BxhLn0-sQrJTAz64I1hfuM0niqcsn_0I1E7A4qA9DMi-lZlIrAl8KKvHYxLmPRcFTyCXwE_CL5HHO-aeiKtUe1xqt0W2Wf3nO53fWS1_KHB-Sp4WJnIhZ67Cm6cgO1KaZVk0_4AJhM-CaQnXzf0NaXnptu0UPzbdKEo-9eloC-CsCSBawqyLXmCtDTLnPilZu-WlkQTnE_iDzBSIc6Kv1nKQC5hCb0ZlsExv-q1J2-Wboko8P-PDXzwqcLIyEyctorrzv7ld5RFwkAAtRU1foCefXcsnjjtPByb95A_1_MT5P3EksF-gQGJxb-LiNik-dXQ-XZI-L3TGIKrCr8r8Le3dO56iLvW-d8L89CBRSz50Hv1B9V4RtIynDYDvAbMcqHACURCL22m7pN05USlbTxYMxwcvBC-pokObwwhajeECVO7QpZv1oavK34DuOu-trXvnIXFXz0QHM9BDRvFJUE-kP4byFG1m-qoecMjCM56Zg17SCdQuISE8xbwaWBszV71seaqu4WPJwZuwRhnav6Avb_xXVmxm2ppMXXc6WzV55oBemugtz9GyVlKKFNNn6Mm9YZWDV4XhausmmITllHnkXPVzXrKSrMM2hGBi7iBibDcrsQu2r83KIRfFHwtIXRML0G8ghx-fwOUiwtKnYhSqEe3QfIr9-J2mC7blPFr0uVB6B7KB5kJAB4r6TAm0BPnhybSA06u8EfZa0e2z_PwlyltduRlxPVzn_pkvdethSwjTO_Bmif4bytqQmcwKAmoJ8efzwspl6Hbtoj8U7NokE9e2aixk8FhgrRMXTbs52nZ3wP5AEuXxTQ9Y5P8BbNgv2btBMr8wMivve37GpALDUb3T6zj8BQerhNzTixi8N6sLuanSlrV0Tv8UfGCR3or-ZEub-QZhCNSI1vqJnx7UGyjFtGoCwPFkBghRUiUOPImt2oznBrxTvbOpbuIZbUfBB7VOSlT_f6bzx38R22CTYSd5cm86xiLemi_iU-SfHAvI5pQ6wAdcyACk_GLt5cOh0npCISlqGqUKB6HcInGx6T47CPvHdHXJ5c0zSN517pMRMkXuEAlXHTs_qdq2qiH1cLyMZs1lbHbWFkiWTSXZqG7OsyMk0ZTj8hwz9JUK16aceuEguQrIQjQuL-N_W8Q4ZZX_ea68Nk97gtW6aIYCyquphqDCKzAFe_Y8yi7DvbWB_VkdF6OcxR_Fm00]--></g></svg>