<?xml version="1.0" encoding="us-ascii" standalone="no"?><svg xmlns="http://www.w3.org/2000/svg" xmlns:xlink="http://www.w3.org/1999/xlink" contentStyleType="text/css" height="539px" preserveAspectRatio="none" style="width:705px;height:539px;background:#FFFFFF;" version="1.1" viewBox="0 0 705 539" width="705px" zoomAndPan="magnify"><defs/><g><text fill="#000000" font-family="sans-serif" font-size="14" font-weight="bold" lengthAdjust="spacing" textLength="228" x="240.5" y="30.1074">System Sequence Diagram (SSD)</text><rect fill="#FFFFFF" height="314.25" style="stroke:#181818;stroke-width:1.0;" width="10" x="82" y="133.2422"/><rect fill="#FFFFFF" height="31.291" style="stroke:#181818;stroke-width:1.0;" width="10" x="534" y="156.5332"/><rect fill="#FFFFFF" height="31.291" style="stroke:#181818;stroke-width:1.0;" width="10" x="534" y="219.1152"/><rect fill="#FFFFFF" height="101.873" style="stroke:#181818;stroke-width:1.0;" width="10" x="534" y="281.6973"/><rect fill="none" height="98.5039" style="stroke:#000000;stroke-width:1.5;" width="571" x="10" y="340.9883"/><line style="stroke:#181818;stroke-width:0.5;stroke-dasharray:5.0,5.0;" x1="87" x2="87" y1="123.2422" y2="456.4922"/><line style="stroke:#181818;stroke-width:0.5;stroke-dasharray:5.0,5.0;" x1="539" x2="539" y1="123.2422" y2="456.4922"/><text fill="#000000" font-family="sans-serif" font-size="14" lengthAdjust="spacing" textLength="128" x="20" y="119.7285">Production Manager</text><ellipse cx="87" cy="53.1211" fill="#E3E3E3" rx="8" ry="8" style="stroke:#181818;stroke-width:0.5;"/><path d="M87,61.1211 L87,88.1211 M74,69.1211 L100,69.1211 M87,88.1211 L74,103.1211 M87,88.1211 L100,103.1211 " fill="none" style="stroke:#181818;stroke-width:0.5;"/><text fill="#000000" font-family="sans-serif" font-size="14" lengthAdjust="spacing" textLength="128" x="20" y="470.5996">Production Manager</text><ellipse cx="87" cy="482.6133" fill="#E3E3E3" rx="8" ry="8" style="stroke:#181818;stroke-width:0.5;"/><path d="M87,490.6133 L87,517.6133 M74,498.6133 L100,498.6133 M87,517.6133 L74,532.6133 M87,517.6133 L100,532.6133 " fill="none" style="stroke:#181818;stroke-width:0.5;"/><rect fill="#E3E3E3" height="32.6211" rx="2.5" ry="2.5" style="stroke:#181818;stroke-width:0.5;" width="64" x="507" y="89.6211"/><text fill="#000000" font-family="sans-serif" font-size="14" lengthAdjust="spacing" textLength="50" x="514" y="111.7285">:System</text><rect fill="#E3E3E3" height="32.6211" rx="2.5" ry="2.5" style="stroke:#181818;stroke-width:0.5;" width="64" x="507" y="455.4922"/><text fill="#000000" font-family="sans-serif" font-size="14" lengthAdjust="spacing" textLength="50" x="514" y="477.5996">:System</text><rect fill="#FFFFFF" height="314.25" style="stroke:#181818;stroke-width:1.0;" width="10" x="82" y="133.2422"/><rect fill="#FFFFFF" height="31.291" style="stroke:#181818;stroke-width:1.0;" width="10" x="534" y="156.5332"/><rect fill="#FFFFFF" height="31.291" style="stroke:#181818;stroke-width:1.0;" width="10" x="534" y="219.1152"/><rect fill="#FFFFFF" height="101.873" style="stroke:#181818;stroke-width:1.0;" width="10" x="534" y="281.6973"/><polygon fill="#181818" points="522,152.5332,532,156.5332,522,160.5332,526,156.5332" style="stroke:#181818;stroke-width:1.0;"/><line style="stroke:#181818;stroke-width:1.0;" x1="92" x2="528" y1="156.5332" y2="156.5332"/><text fill="#000000" font-family="sans-serif" font-size="13" font-weight="bold" lengthAdjust="spacing" textLength="7" x="99" y="151.2705">1</text><text fill="#000000" font-family="sans-serif" font-size="13" lengthAdjust="spacing" textLength="202" x="110" y="151.2705">asks to register a new raw material</text><polygon fill="#181818" points="103,183.8242,93,187.8242,103,191.8242,99,187.8242" style="stroke:#181818;stroke-width:1.0;"/><line style="stroke:#181818;stroke-width:1.0;stroke-dasharray:2.0,2.0;" x1="97" x2="538" y1="187.8242" y2="187.8242"/><text fill="#000000" font-family="sans-serif" font-size="13" font-weight="bold" lengthAdjust="spacing" textLength="7" x="109" y="182.5615">2</text><text fill="#000000" font-family="sans-serif" font-size="13" lengthAdjust="spacing" textLength="328" x="120" y="182.5615">shows the list of raw materials and requests confirmation</text><polygon fill="#181818" points="522,215.1152,532,219.1152,522,223.1152,526,219.1152" style="stroke:#181818;stroke-width:1.0;"/><line style="stroke:#181818;stroke-width:1.0;" x1="92" x2="528" y1="219.1152" y2="219.1152"/><text fill="#000000" font-family="sans-serif" font-size="13" font-weight="bold" lengthAdjust="spacing" textLength="7" x="99" y="213.8525">3</text><text fill="#000000" font-family="sans-serif" font-size="13" lengthAdjust="spacing" textLength="305" x="110" y="213.8525">confirms that he wants to register a new raw material</text><polygon fill="#181818" points="103,246.4063,93,250.4063,103,254.4063,99,250.4063" style="stroke:#181818;stroke-width:1.0;"/><line style="stroke:#181818;stroke-width:1.0;stroke-dasharray:2.0,2.0;" x1="97" x2="538" y1="250.4063" y2="250.4063"/><text fill="#000000" font-family="sans-serif" font-size="13" font-weight="bold" lengthAdjust="spacing" textLength="7" x="109" y="245.1436">4</text><text fill="#000000" font-family="sans-serif" font-size="13" lengthAdjust="spacing" textLength="407" x="120" y="245.1436">requests data (i.e. Name, Description, Current Stock, Minimum Stock)</text><polygon fill="#181818" points="522,277.6973,532,281.6973,522,285.6973,526,281.6973" style="stroke:#181818;stroke-width:1.0;"/><line style="stroke:#181818;stroke-width:1.0;" x1="92" x2="528" y1="281.6973" y2="281.6973"/><text fill="#000000" font-family="sans-serif" font-size="13" font-weight="bold" lengthAdjust="spacing" textLength="7" x="99" y="276.4346">5</text><text fill="#000000" font-family="sans-serif" font-size="13" lengthAdjust="spacing" textLength="122" x="110" y="276.4346">types requested data</text><line style="stroke:#181818;stroke-width:1.0;" x1="544" x2="586" y1="312.9883" y2="312.9883"/><line style="stroke:#181818;stroke-width:1.0;" x1="586" x2="586" y1="312.9883" y2="325.9883"/><line style="stroke:#181818;stroke-width:1.0;" x1="545" x2="586" y1="325.9883" y2="325.9883"/><polygon fill="#181818" points="555,321.9883,545,325.9883,555,329.9883,551,325.9883" style="stroke:#181818;stroke-width:1.0;"/><text fill="#000000" font-family="sans-serif" font-size="13" font-weight="bold" lengthAdjust="spacing" textLength="7" x="551" y="307.7256">6</text><text fill="#000000" font-family="sans-serif" font-size="13" lengthAdjust="spacing" textLength="136" x="562" y="307.7256">saves raw material data</text><path d="M10,340.9883 L71,340.9883 L71,350.2793 L61,360.2793 L10,360.2793 L10,340.9883 " fill="#EEEEEE" style="stroke:#000000;stroke-width:1.5;"/><rect fill="none" height="98.5039" style="stroke:#000000;stroke-width:1.5;" width="571" x="10" y="340.9883"/><text fill="#000000" font-family="sans-serif" font-size="13" font-weight="bold" lengthAdjust="spacing" textLength="16" x="25" y="356.0166">alt</text><text fill="#000000" font-family="sans-serif" font-size="11" font-weight="bold" lengthAdjust="spacing" textLength="82" x="86" y="354.8584">[system error]</text><polygon fill="#181818" points="103,379.5703,93,383.5703,103,387.5703,99,383.5703" style="stroke:#181818;stroke-width:1.0;"/><line style="stroke:#181818;stroke-width:1.0;stroke-dasharray:2.0,2.0;" x1="97" x2="538" y1="383.5703" y2="383.5703"/><text fill="#000000" font-family="sans-serif" font-size="13" font-weight="bold" lengthAdjust="spacing" textLength="7" x="109" y="378.3076">7</text><text fill="#000000" font-family="sans-serif" font-size="13" lengthAdjust="spacing" textLength="221" x="120" y="378.3076">shows error message (Database error)</text><line style="stroke:#000000;stroke-width:1.0;stroke-dasharray:2.0,2.0;" x1="10" x2="581" y1="392.5703" y2="392.5703"/><text fill="#000000" font-family="sans-serif" font-size="11" font-weight="bold" lengthAdjust="spacing" textLength="55" x="15" y="404.4404">[success]</text><polygon fill="#181818" points="103,427.4922,93,431.4922,103,435.4922,99,431.4922" style="stroke:#181818;stroke-width:1.0;"/><line style="stroke:#181818;stroke-width:1.0;stroke-dasharray:2.0,2.0;" x1="97" x2="538" y1="431.4922" y2="431.4922"/><text fill="#000000" font-family="sans-serif" font-size="13" font-weight="bold" lengthAdjust="spacing" textLength="7" x="109" y="426.2295">8</text><text fill="#000000" font-family="sans-serif" font-size="13" lengthAdjust="spacing" textLength="270" x="120" y="426.2295">shows all data and displays operation success</text><!--SRC=[hP91Zjim34NtFiL7LWcGcGDaqKspJH709-38Z2F4aboI7YEtBsqdGThfO52WMiaI-Vx_ClKISqz22Qda4ivI4iDau4eVDps52xLSsxLZ20UZt7RF1NgcfemnjpXHfrnL5irBwwiQ9zJyS-0S6Fj8xLI-hklzfgfei9A7zCRY-s15i3fAQOPWiMGSABkch42Auw5o8OiXzfGDgzr2dk-MxKo8xsGy5LVmTJpWvTlTmyvBBmehxh-DVYGWP1uXD29vcqJgvhO7vmx6RTr8BmvrzCv3bz69PqRdG9JJRom5vSR5FBgQ8fHyYkAN7cqcDlnNeJzCtzec6JAurEZv_s-CXyM6ZB2Eh_oA7vHuYprhaDXFbhVuFeYmltrj9LosECGSqv2Mpyq_9B9hpteNvMPM_TpmtUmJGEbz0ZpbVM9q1bqAMQJ85_zkha5YLPyqhFUEUIFbvNppQFuOR3fb7tJe48AtVw53tU9n7eacQj_HLL5wbdaUFb0-4SnDzGi0]--></g></svg>