<?xml version="1.0" encoding="us-ascii" standalone="no"?><svg xmlns="http://www.w3.org/2000/svg" xmlns:xlink="http://www.w3.org/1999/xlink" contentStyleType="text/css" height="854.4px" preserveAspectRatio="none" style="width:487px;height:854px;background:#FFFFFF;" version="1.1" viewBox="0 0 487 854" width="487.2px" zoomAndPan="magnify"><defs/><g><!--cluster UI--><g id="cluster_UI"><rect fill="none" height="60.6" rx="1.5" ry="1.5" style="stroke:#000000;stroke-width:0.8999999999999999;" width="99.6" x="215.4" y="4.2"/><text fill="#000000" font-family="sans-serif" font-size="8.4" font-weight="bold" lengthAdjust="spacing" textLength="8.4" x="261" y="14.4645">UI</text></g><!--cluster Controller--><g id="cluster_Controller"><rect fill="none" height="72" rx="1.5" ry="1.5" style="stroke:#000000;stroke-width:0.8999999999999999;" width="160.8" x="184.8" y="84.6"/><text fill="#000000" font-family="sans-serif" font-size="8.4" font-weight="bold" lengthAdjust="spacing" textLength="42.6" x="243.9" y="94.8645">Controller</text></g><!--cluster Service--><g id="cluster_Service"><rect fill="none" height="82.8" rx="1.5" ry="1.5" style="stroke:#000000;stroke-width:0.8999999999999999;" width="160.8" x="184.8" y="176.4"/><text fill="#000000" font-family="sans-serif" font-size="8.4" font-weight="bold" lengthAdjust="spacing" textLength="32.4" x="249" y="186.6645">Service</text></g><!--cluster Repository--><g id="cluster_Repository"><rect fill="none" height="192.6" rx="1.5" ry="1.5" style="stroke:#000000;stroke-width:0.8999999999999999;" width="228.6" x="4.2" y="289.8"/><text fill="#000000" font-family="sans-serif" font-size="8.4" font-weight="bold" lengthAdjust="spacing" textLength="45.6" x="95.7" y="300.0645">Repository</text></g><!--cluster Model--><g id="cluster_Model"><rect fill="none" height="337.8" rx="1.5" ry="1.5" style="stroke:#000000;stroke-width:0.8999999999999999;" width="408.6" x="75" y="513"/><text fill="#000000" font-family="sans-serif" font-size="8.4" font-weight="bold" lengthAdjust="spacing" textLength="26.4" x="266.1" y="523.2645">Model</text></g><!--class RegisterClientUI--><g id="elem_RegisterClientUI"><rect codeLine="7" fill="#F1F1F1" height="28.8" id="RegisterClientUI" rx="1.5" ry="1.5" style="stroke:#181818;stroke-width:0.3;" width="79.8" x="225.3" y="26.4"/><ellipse cx="234.3" cy="36" fill="#ADD1B2" rx="6.6" ry="6.6" style="stroke:#181818;stroke-width:0.6;"/><path d="M235.9594,33.525 Q236.0531,33.3938 236.1656,33.3281 Q236.2781,33.2625 236.4094,33.2625 Q236.6344,33.2625 236.775,33.4219 Q236.9156,33.5719 236.9156,33.9375 L236.9156,34.8094 Q236.9156,35.175 236.775,35.3344 Q236.6344,35.4938 236.4094,35.4938 Q236.2031,35.4938 236.0812,35.3719 Q235.9594,35.2594 235.8937,34.95 Q235.8656,34.7344 235.7531,34.6219 Q235.5562,34.3969 235.1906,34.2656 Q234.825,34.1344 234.45,34.1344 Q233.9906,34.1344 233.6063,34.3313 Q233.2313,34.5281 232.9312,34.9781 Q232.6406,35.4281 232.6406,36.0469 L232.6406,36.7031 Q232.6406,37.4438 233.175,37.9406 Q233.7094,38.4281 234.6656,38.4281 Q235.2281,38.4281 235.6219,38.2781 Q235.8563,38.1844 236.1094,37.9219 Q236.2687,37.7625 236.3531,37.7156 Q236.4469,37.6687 236.5688,37.6687 Q236.7656,37.6687 236.9156,37.8281 Q237.075,37.9781 237.075,38.1844 Q237.075,38.3906 236.8687,38.6344 Q236.5688,38.9812 236.0906,39.1781 Q235.4438,39.45 234.6656,39.45 Q233.7563,39.45 233.0344,39.075 Q232.4438,38.775 232.0313,38.1375 Q231.6187,37.4906 231.6187,36.7219 L231.6187,36.0281 Q231.6187,35.2312 231.9844,34.5469 Q232.3594,33.8531 233.0156,33.4875 Q233.6719,33.1125 234.4125,33.1125 Q234.8531,33.1125 235.2375,33.2156 Q235.6313,33.3094 235.9594,33.525 Z " fill="#000000"/><text fill="#000000" font-family="sans-serif" font-size="8.4" lengthAdjust="spacing" textLength="60.6" x="242.7" y="39.4781">RegisterClientUI</text><line style="stroke:#181818;stroke-width:0.3;" x1="225.9" x2="304.5" y1="45.6" y2="45.6"/><line style="stroke:#181818;stroke-width:0.3;" x1="225.9" x2="304.5" y1="50.4" y2="50.4"/></g><!--class ClientController--><g id="elem_ClientController"><rect codeLine="12" fill="#F1F1F1" height="39.9727" id="ClientController" rx="1.5" ry="1.5" style="stroke:#181818;stroke-width:0.3;" width="141.6" x="194.4" y="106.8"/><ellipse cx="233.25" cy="116.4" fill="#ADD1B2" rx="6.6" ry="6.6" style="stroke:#181818;stroke-width:0.6;"/><path d="M234.9094,113.925 Q235.0031,113.7938 235.1156,113.7281 Q235.2281,113.6625 235.3594,113.6625 Q235.5844,113.6625 235.725,113.8219 Q235.8656,113.9719 235.8656,114.3375 L235.8656,115.2094 Q235.8656,115.575 235.725,115.7344 Q235.5844,115.8938 235.3594,115.8938 Q235.1531,115.8938 235.0313,115.7719 Q234.9094,115.6594 234.8438,115.35 Q234.8156,115.1344 234.7031,115.0219 Q234.5063,114.7969 234.1406,114.6656 Q233.775,114.5344 233.4,114.5344 Q232.9406,114.5344 232.5562,114.7313 Q232.1812,114.9281 231.8813,115.3781 Q231.5906,115.8281 231.5906,116.4469 L231.5906,117.1031 Q231.5906,117.8438 232.125,118.3406 Q232.6594,118.8281 233.6156,118.8281 Q234.1781,118.8281 234.5719,118.6781 Q234.8062,118.5844 235.0594,118.3219 Q235.2188,118.1625 235.3031,118.1156 Q235.3969,118.0688 235.5187,118.0688 Q235.7156,118.0688 235.8656,118.2281 Q236.025,118.3781 236.025,118.5844 Q236.025,118.7906 235.8188,119.0344 Q235.5187,119.3813 235.0406,119.5781 Q234.3937,119.85 233.6156,119.85 Q232.7062,119.85 231.9844,119.475 Q231.3937,119.175 230.9813,118.5375 Q230.5688,117.8906 230.5688,117.1219 L230.5688,116.4281 Q230.5688,115.6313 230.9344,114.9469 Q231.3094,114.2531 231.9656,113.8875 Q232.6219,113.5125 233.3625,113.5125 Q233.8031,113.5125 234.1875,113.6156 Q234.5812,113.7094 234.9094,113.925 Z " fill="#000000"/><text fill="#000000" font-family="sans-serif" font-size="8.4" lengthAdjust="spacing" textLength="58.8" x="245.55" y="119.8781">ClientController</text><line style="stroke:#181818;stroke-width:0.3;" x1="195" x2="335.4" y1="126" y2="126"/><line style="stroke:#181818;stroke-width:0.3;" x1="195" x2="335.4" y1="130.8" y2="130.8"/><text fill="#000000" font-family="sans-serif" font-size="8.4" lengthAdjust="spacing" textLength="134.4" x="198" y="142.2645">+updateClientStatus() : List&lt;Client&gt;</text></g><!--class ClientService--><g id="elem_ClientService"><rect codeLine="18" fill="#F1F1F1" height="51.1453" id="ClientService" rx="1.5" ry="1.5" style="stroke:#181818;stroke-width:0.3;" width="141.6" x="194.4" y="198.6"/><ellipse cx="237.75" cy="208.2" fill="#ADD1B2" rx="6.6" ry="6.6" style="stroke:#181818;stroke-width:0.6;"/><path d="M239.4094,205.725 Q239.5031,205.5938 239.6156,205.5281 Q239.7281,205.4625 239.8594,205.4625 Q240.0844,205.4625 240.225,205.6219 Q240.3656,205.7719 240.3656,206.1375 L240.3656,207.0094 Q240.3656,207.375 240.225,207.5344 Q240.0844,207.6938 239.8594,207.6938 Q239.6531,207.6938 239.5313,207.5719 Q239.4094,207.4594 239.3438,207.15 Q239.3156,206.9344 239.2031,206.8219 Q239.0063,206.5969 238.6406,206.4656 Q238.275,206.3344 237.9,206.3344 Q237.4406,206.3344 237.0562,206.5313 Q236.6812,206.7281 236.3813,207.1781 Q236.0906,207.6281 236.0906,208.2469 L236.0906,208.9031 Q236.0906,209.6437 236.625,210.1406 Q237.1594,210.6281 238.1156,210.6281 Q238.6781,210.6281 239.0719,210.4781 Q239.3062,210.3844 239.5594,210.1219 Q239.7188,209.9625 239.8031,209.9156 Q239.8969,209.8688 240.0187,209.8688 Q240.2156,209.8688 240.3656,210.0281 Q240.525,210.1781 240.525,210.3844 Q240.525,210.5906 240.3188,210.8344 Q240.0187,211.1813 239.5406,211.3781 Q238.8937,211.65 238.1156,211.65 Q237.2062,211.65 236.4844,211.275 Q235.8937,210.975 235.4813,210.3375 Q235.0688,209.6906 235.0688,208.9219 L235.0688,208.2281 Q235.0688,207.4313 235.4344,206.7469 Q235.8094,206.0531 236.4656,205.6875 Q237.1219,205.3125 237.8625,205.3125 Q238.3031,205.3125 238.6875,205.4156 Q239.0812,205.5094 239.4094,205.725 Z " fill="#000000"/><text fill="#000000" font-family="sans-serif" font-size="8.4" lengthAdjust="spacing" textLength="49.8" x="250.05" y="211.6781">ClientService</text><line style="stroke:#181818;stroke-width:0.3;" x1="195" x2="335.4" y1="217.8" y2="217.8"/><line style="stroke:#181818;stroke-width:0.3;" x1="195" x2="335.4" y1="222.6" y2="222.6"/><text fill="#000000" font-family="sans-serif" font-size="8.4" lengthAdjust="spacing" textLength="100.2" x="198" y="234.0645">+getClients() : List&lt;Client&gt;</text><text fill="#000000" font-family="sans-serif" font-size="8.4" lengthAdjust="spacing" textLength="134.4" x="198" y="245.2371">+updateClientStatus() : List&lt;Client&gt;</text></g><!--class Repositories--><g id="elem_Repositories"><rect codeLine="25" fill="#F1F1F1" height="62.318" id="Repositories" rx="1.5" ry="1.5" style="stroke:#181818;stroke-width:0.3;" width="162" x="13.8" y="312"/><ellipse cx="68.55" cy="321.6" fill="#ADD1B2" rx="6.6" ry="6.6" style="stroke:#181818;stroke-width:0.6;"/><path d="M70.2094,319.125 Q70.3031,318.9938 70.4156,318.9281 Q70.5281,318.8625 70.6594,318.8625 Q70.8844,318.8625 71.025,319.0219 Q71.1656,319.1719 71.1656,319.5375 L71.1656,320.4094 Q71.1656,320.775 71.025,320.9344 Q70.8844,321.0938 70.6594,321.0938 Q70.4531,321.0938 70.3313,320.9719 Q70.2094,320.8594 70.1438,320.55 Q70.1156,320.3344 70.0031,320.2219 Q69.8062,319.9969 69.4406,319.8656 Q69.075,319.7344 68.7,319.7344 Q68.2406,319.7344 67.8563,319.9313 Q67.4813,320.1281 67.1812,320.5781 Q66.8906,321.0281 66.8906,321.6469 L66.8906,322.3031 Q66.8906,323.0438 67.425,323.5406 Q67.9594,324.0281 68.9156,324.0281 Q69.4781,324.0281 69.8719,323.8781 Q70.1063,323.7844 70.3594,323.5219 Q70.5188,323.3625 70.6031,323.3156 Q70.6969,323.2688 70.8188,323.2688 Q71.0156,323.2688 71.1656,323.4281 Q71.325,323.5781 71.325,323.7844 Q71.325,323.9906 71.1187,324.2344 Q70.8188,324.5813 70.3406,324.7781 Q69.6938,325.05 68.9156,325.05 Q68.0063,325.05 67.2844,324.675 Q66.6938,324.375 66.2813,323.7375 Q65.8687,323.0906 65.8687,322.3219 L65.8687,321.6281 Q65.8687,320.8313 66.2344,320.1469 Q66.6094,319.4531 67.2656,319.0875 Q67.9219,318.7125 68.6625,318.7125 Q69.1031,318.7125 69.4875,318.8156 Q69.8813,318.9094 70.2094,319.125 Z " fill="#000000"/><text fill="#000000" font-family="sans-serif" font-size="8.4" lengthAdjust="spacing" textLength="47.4" x="80.85" y="325.0781">Repositories</text><line style="stroke:#181818;stroke-width:0.3;" x1="14.4" x2="175.2" y1="331.2" y2="331.2"/><line style="stroke:#181818;stroke-width:0.3;" x1="14.4" x2="175.2" y1="336" y2="336"/><text fill="#000000" font-family="sans-serif" font-size="8.4" lengthAdjust="spacing" textLength="56.4" x="17.4" y="347.4645">-Repositories()</text><text fill="#000000" font-family="sans-serif" font-size="8.4" lengthAdjust="spacing" textLength="109.2" x="17.4" y="358.6371">+getInstance() : Repositories</text><text fill="#000000" font-family="sans-serif" font-size="8.4" lengthAdjust="spacing" textLength="154.8" x="17.4" y="369.8098">+getClientRepository() : ClientRepository</text></g><!--class ClientRepository--><g id="elem_ClientRepository"><rect codeLine="31" fill="#F1F1F1" height="51.1453" id="ClientRepository" rx="1.5" ry="1.5" style="stroke:#181818;stroke-width:0.3;" width="126" x="97.2" y="421.8"/><ellipse cx="126.45" cy="431.4" fill="#ADD1B2" rx="6.6" ry="6.6" style="stroke:#181818;stroke-width:0.6;"/><path d="M128.1094,428.925 Q128.2031,428.7938 128.3156,428.7281 Q128.4281,428.6625 128.5594,428.6625 Q128.7844,428.6625 128.925,428.8219 Q129.0656,428.9719 129.0656,429.3375 L129.0656,430.2094 Q129.0656,430.575 128.925,430.7344 Q128.7844,430.8938 128.5594,430.8938 Q128.3531,430.8938 128.2313,430.7719 Q128.1094,430.6594 128.0438,430.35 Q128.0156,430.1344 127.9031,430.0219 Q127.7063,429.7969 127.3406,429.6656 Q126.975,429.5344 126.6,429.5344 Q126.1406,429.5344 125.7563,429.7313 Q125.3813,429.9281 125.0813,430.3781 Q124.7906,430.8281 124.7906,431.4469 L124.7906,432.1031 Q124.7906,432.8438 125.325,433.3406 Q125.8594,433.8281 126.8156,433.8281 Q127.3781,433.8281 127.7719,433.6781 Q128.0063,433.5844 128.2594,433.3219 Q128.4188,433.1625 128.5031,433.1156 Q128.5969,433.0687 128.7188,433.0687 Q128.9156,433.0687 129.0656,433.2281 Q129.225,433.3781 129.225,433.5844 Q129.225,433.7906 129.0187,434.0344 Q128.7188,434.3812 128.2406,434.5781 Q127.5938,434.85 126.8156,434.85 Q125.9063,434.85 125.1844,434.475 Q124.5938,434.175 124.1812,433.5375 Q123.7688,432.8906 123.7688,432.1219 L123.7688,431.4281 Q123.7688,430.6312 124.1344,429.9469 Q124.5094,429.2531 125.1656,428.8875 Q125.8219,428.5125 126.5625,428.5125 Q127.0031,428.5125 127.3875,428.6156 Q127.7813,428.7094 128.1094,428.925 Z " fill="#000000"/><text fill="#000000" font-family="sans-serif" font-size="8.4" lengthAdjust="spacing" textLength="62.4" x="138.75" y="434.8781">ClientRepository</text><line style="stroke:#181818;stroke-width:0.3;" x1="97.8" x2="222.6" y1="441" y2="441"/><line style="stroke:#181818;stroke-width:0.3;" x1="97.8" x2="222.6" y1="445.8" y2="445.8"/><text fill="#000000" font-family="sans-serif" font-size="8.4" lengthAdjust="spacing" textLength="83.4" x="100.8" y="457.2645">+getAll() : List&lt;Client&gt;</text><text fill="#000000" font-family="sans-serif" font-size="8.4" lengthAdjust="spacing" textLength="118.8" x="100.8" y="468.4371">+updateStatus(client) : boolean</text></g><!--class Client--><g id="elem_Client"><rect codeLine="39" fill="#F1F1F1" height="140.5266" id="Client" rx="1.5" ry="1.5" style="stroke:#181818;stroke-width:0.3;" width="255" x="165.3" y="535.2"/><ellipse cx="279.45" cy="544.8" fill="#ADD1B2" rx="6.6" ry="6.6" style="stroke:#181818;stroke-width:0.6;"/><path d="M281.1094,542.325 Q281.2031,542.1938 281.3156,542.1281 Q281.4281,542.0625 281.5594,542.0625 Q281.7844,542.0625 281.925,542.2219 Q282.0656,542.3719 282.0656,542.7375 L282.0656,543.6094 Q282.0656,543.975 281.925,544.1344 Q281.7844,544.2937 281.5594,544.2937 Q281.3531,544.2937 281.2313,544.1719 Q281.1094,544.0594 281.0438,543.75 Q281.0156,543.5344 280.9031,543.4219 Q280.7063,543.1969 280.3406,543.0656 Q279.975,542.9344 279.6,542.9344 Q279.1406,542.9344 278.7562,543.1313 Q278.3812,543.3281 278.0813,543.7781 Q277.7906,544.2281 277.7906,544.8469 L277.7906,545.5031 Q277.7906,546.2438 278.325,546.7406 Q278.8594,547.2281 279.8156,547.2281 Q280.3781,547.2281 280.7719,547.0781 Q281.0062,546.9844 281.2594,546.7219 Q281.4188,546.5625 281.5031,546.5156 Q281.5969,546.4688 281.7188,546.4688 Q281.9156,546.4688 282.0656,546.6281 Q282.225,546.7781 282.225,546.9844 Q282.225,547.1906 282.0188,547.4344 Q281.7188,547.7813 281.2406,547.9781 Q280.5938,548.25 279.8156,548.25 Q278.9063,548.25 278.1844,547.875 Q277.5938,547.575 277.1813,546.9375 Q276.7688,546.2906 276.7688,545.5219 L276.7688,544.8281 Q276.7688,544.0313 277.1344,543.3469 Q277.5094,542.6531 278.1656,542.2875 Q278.8219,541.9125 279.5625,541.9125 Q280.0031,541.9125 280.3875,542.0156 Q280.7813,542.1094 281.1094,542.325 Z " fill="#000000"/><text fill="#000000" font-family="sans-serif" font-size="8.4" lengthAdjust="spacing" textLength="21.6" x="291.75" y="548.2781">Client</text><line style="stroke:#181818;stroke-width:0.3;" x1="165.9" x2="419.7" y1="554.4" y2="554.4"/><text fill="#000000" font-family="sans-serif" font-size="8.4" lengthAdjust="spacing" textLength="46.8" x="168.9" y="565.8645">-clientID : int</text><text fill="#000000" font-family="sans-serif" font-size="8.4" lengthAdjust="spacing" textLength="72" x="168.9" y="577.0371">-address : Address</text><text fill="#000000" font-family="sans-serif" font-size="8.4" lengthAdjust="spacing" textLength="53.4" x="168.9" y="588.2098">-name : String</text><text fill="#000000" font-family="sans-serif" font-size="8.4" lengthAdjust="spacing" textLength="50.4" x="168.9" y="599.3824">-vatin : String</text><text fill="#000000" font-family="sans-serif" font-size="8.4" lengthAdjust="spacing" textLength="72.6" x="168.9" y="610.5551">-phoneNumber : int</text><text fill="#000000" font-family="sans-serif" font-size="8.4" lengthAdjust="spacing" textLength="52.2" x="168.9" y="621.7277">-email : String</text><text fill="#000000" font-family="sans-serif" font-size="8.4" lengthAdjust="spacing" textLength="81.6" x="168.9" y="632.9004">-type : CompanyType</text><text fill="#000000" font-family="sans-serif" font-size="8.4" lengthAdjust="spacing" textLength="69.6" x="168.9" y="644.073">-state : EntityState</text><text fill="#000000" font-family="sans-serif" font-size="8.4" lengthAdjust="spacing" textLength="79.8" x="168.9" y="655.2457">-orders : List&lt;Order&gt;</text><line style="stroke:#181818;stroke-width:0.3;" x1="165.9" x2="419.7" y1="659.7539" y2="659.7539"/><text fill="#000000" font-family="sans-serif" font-size="8.4" lengthAdjust="spacing" textLength="247.8" x="168.9" y="671.2184">+Client(clientID, name, address, vatin, phoneNumber, email, type)</text></g><!--class Order--><g id="elem_Order"><rect codeLine="52" fill="#F1F1F1" height="118.1812" id="Order" rx="1.5" ry="1.5" style="stroke:#181818;stroke-width:0.3;" width="307.8" x="84.9" y="723"/><ellipse cx="225.15" cy="732.6" fill="#ADD1B2" rx="6.6" ry="6.6" style="stroke:#181818;stroke-width:0.6;"/><path d="M226.8094,730.125 Q226.9031,729.9938 227.0156,729.9281 Q227.1281,729.8625 227.2594,729.8625 Q227.4844,729.8625 227.625,730.0219 Q227.7656,730.1719 227.7656,730.5375 L227.7656,731.4094 Q227.7656,731.775 227.625,731.9344 Q227.4844,732.0938 227.2594,732.0938 Q227.0531,732.0938 226.9313,731.9719 Q226.8094,731.8594 226.7438,731.55 Q226.7156,731.3344 226.6031,731.2219 Q226.4063,730.9969 226.0406,730.8656 Q225.675,730.7344 225.3,730.7344 Q224.8406,730.7344 224.4562,730.9313 Q224.0812,731.1281 223.7813,731.5781 Q223.4906,732.0281 223.4906,732.6469 L223.4906,733.3031 Q223.4906,734.0437 224.025,734.5406 Q224.5594,735.0281 225.5156,735.0281 Q226.0781,735.0281 226.4719,734.8781 Q226.7062,734.7844 226.9594,734.5219 Q227.1188,734.3625 227.2031,734.3156 Q227.2969,734.2688 227.4188,734.2688 Q227.6156,734.2688 227.7656,734.4281 Q227.925,734.5781 227.925,734.7844 Q227.925,734.9906 227.7188,735.2344 Q227.4188,735.5813 226.9406,735.7781 Q226.2938,736.05 225.5156,736.05 Q224.6063,736.05 223.8844,735.675 Q223.2938,735.375 222.8813,734.7375 Q222.4688,734.0906 222.4688,733.3219 L222.4688,732.6281 Q222.4688,731.8313 222.8344,731.1469 Q223.2094,730.4531 223.8656,730.0875 Q224.5219,729.7125 225.2625,729.7125 Q225.7031,729.7125 226.0875,729.8156 Q226.4813,729.9094 226.8094,730.125 Z " fill="#000000"/><text fill="#000000" font-family="sans-serif" font-size="8.4" lengthAdjust="spacing" textLength="22.2" x="237.45" y="736.0781">Order</text><line style="stroke:#181818;stroke-width:0.3;" x1="85.5" x2="392.1" y1="742.2" y2="742.2"/><text fill="#000000" font-family="sans-serif" font-size="8.4" lengthAdjust="spacing" textLength="47.4" x="88.5" y="753.6645">-orderID : int</text><text fill="#000000" font-family="sans-serif" font-size="8.4" lengthAdjust="spacing" textLength="102" x="88.5" y="764.8371">-deliveryAddress : Address</text><text fill="#000000" font-family="sans-serif" font-size="8.4" lengthAdjust="spacing" textLength="66.6" x="88.5" y="776.0098">-orderDate : Date</text><text fill="#000000" font-family="sans-serif" font-size="8.4" lengthAdjust="spacing" textLength="75.6" x="88.5" y="787.1824">-deliveryDate : Date</text><text fill="#000000" font-family="sans-serif" font-size="8.4" lengthAdjust="spacing" textLength="54.6" x="88.5" y="798.3551">-price : double</text><text fill="#000000" font-family="sans-serif" font-size="8.4" lengthAdjust="spacing" textLength="79.2" x="88.5" y="809.5277">-state : ProcessState</text><text fill="#000000" font-family="sans-serif" font-size="8.4" lengthAdjust="spacing" textLength="157.2" x="88.5" y="820.7004">-productQuantity : Map&lt;Product, Integer&gt;</text><line style="stroke:#181818;stroke-width:0.3;" x1="85.5" x2="392.1" y1="825.2086" y2="825.2086"/><text fill="#000000" font-family="sans-serif" font-size="8.4" lengthAdjust="spacing" textLength="300.6" x="88.5" y="836.673">+Order(orderID, deliveryAddress, orderID, deliveryDate, price, productQuantity)</text></g><!--class EntityState--><g id="elem_EntityState"><rect codeLine="63" fill="#F1F1F1" height="51.1453" id="EntityState" rx="1.5" ry="1.5" style="stroke:#181818;stroke-width:0.3;" width="60" x="414" y="756.6"/><ellipse cx="423" cy="766.2" fill="#EB937F" rx="6.6" ry="6.6" style="stroke:#181818;stroke-width:0.6;"/><path d="M422.3156,766.6781 L422.3156,768.1781 L424.9125,768.1781 L424.9125,767.625 Q424.9125,767.2594 425.0531,767.1 Q425.2031,766.9406 425.4281,766.9406 Q425.6531,766.9406 425.7938,767.1 Q425.9344,767.2594 425.9344,767.625 L425.9344,769.2 L421.1344,769.2 Q420.7594,769.2 420.6,769.0594 Q420.45,768.9187 420.45,768.6844 Q420.45,768.4594 420.6094,768.3188 Q420.7688,768.1781 421.1344,768.1781 L421.2938,768.1781 L421.2938,764.1844 L421.1344,764.1844 Q420.7594,764.1844 420.6,764.0437 Q420.45,763.9031 420.45,763.6687 Q420.45,763.4438 420.6,763.3031 Q420.7594,763.1625 421.1344,763.1625 L425.7094,763.1625 L425.7094,764.7188 Q425.7094,765.0844 425.5687,765.2438 Q425.4375,765.3938 425.2031,765.3938 Q424.9781,765.3938 424.8375,765.2438 Q424.6969,765.0844 424.6969,764.7188 L424.6969,764.1844 L422.3156,764.1844 L422.3156,765.6563 L423.2063,765.6563 Q423.2063,765.2625 423.2813,765.15 Q423.4406,764.9063 423.7219,764.9063 Q423.9469,764.9063 424.0875,765.0656 Q424.2281,765.2156 424.2281,765.5813 L424.2281,766.7625 Q424.2281,767.0906 424.1531,767.2031 Q423.9938,767.4375 423.7219,767.4375 Q423.4406,767.4375 423.2813,767.1938 Q423.2063,767.0813 423.2063,766.6781 L422.3156,766.6781 Z " fill="#000000"/><text fill="#000000" font-family="sans-serif" font-size="8.4" lengthAdjust="spacing" textLength="40.8" x="431.4" y="769.6781">EntityState</text><line style="stroke:#181818;stroke-width:0.3;" x1="414.6" x2="473.4" y1="775.8" y2="775.8"/><text fill="#000000" font-family="sans-serif" font-size="8.4" lengthAdjust="spacing" textLength="29.4" x="417.6" y="787.2645">ACTIVE</text><text fill="#000000" font-family="sans-serif" font-size="8.4" lengthAdjust="spacing" textLength="36.6" x="417.6" y="798.4371">INACTIVE</text><line style="stroke:#181818;stroke-width:0.3;" x1="414.6" x2="473.4" y1="802.9453" y2="802.9453"/></g><!--link RegisterClientUI to ClientController--><g id="link_RegisterClientUI_ClientController"><path codeLine="71" d="M265.2,55.23 C265.2,69.234 265.2,87.408 265.2,103.17 " fill="none" id="RegisterClientUI-to-ClientController" style="stroke:#181818;stroke-width:0.6;stroke-dasharray:7.0,7.0;"/><polygon fill="#181818" points="265.2,106.77,267.6,101.37,265.2,103.77,262.8,101.37,265.2,106.77" style="stroke:#181818;stroke-width:0.6;"/></g><!--link ClientController to ClientService--><g id="link_ClientController_ClientService"><path codeLine="72" d="M265.2,147.156 C265.2,162.024 265.2,178.938 265.2,194.964 " fill="none" id="ClientController-to-ClientService" style="stroke:#181818;stroke-width:0.6;stroke-dasharray:7.0,7.0;"/><polygon fill="#181818" points="265.2,198.564,267.6,193.164,265.2,195.564,262.8,193.164,265.2,198.564" style="stroke:#181818;stroke-width:0.6;"/></g><!--link ClientService to Repositories--><g id="link_ClientService_Repositories"><path codeLine="73" d="M229.062,249.702 C202.782,267.888 170.0186,290.5598 142.0226,309.9278 " fill="none" id="ClientService-to-Repositories" style="stroke:#181818;stroke-width:0.6;stroke-dasharray:7.0,7.0;"/><polygon fill="#181818" points="139.062,311.976,144.8683,310.8775,141.5291,310.2692,142.1374,306.93,139.062,311.976" style="stroke:#181818;stroke-width:0.6;"/><text fill="#000000" font-family="sans-serif" font-size="7.8" lengthAdjust="spacing" textLength="40.2" x="201" y="277.817">repositories</text></g><!--link ClientService to ClientRepository--><g id="link_ClientService_ClientRepository"><path codeLine="74" d="M259.98,249.756 C251.094,292.374 234,374.4 234,374.4 C234,374.4 209.6919,398.215 188.3739,419.095 " fill="none" id="ClientService-to-ClientRepository" style="stroke:#181818;stroke-width:0.6;stroke-dasharray:7.0,7.0;"/><polygon fill="#181818" points="185.802,421.614,191.3392,419.55,187.9452,419.5148,187.9805,416.1209,185.802,421.614" style="stroke:#181818;stroke-width:0.6;"/><text fill="#000000" font-family="sans-serif" font-size="7.8" lengthAdjust="spacing" textLength="55.8" x="252.6" y="346.517">clientRepository</text></g><!--link ClientService to Client--><g id="link_ClientService_Client"><path codeLine="75" d="M285.39,249.75 C298.74,266.316 313.8,285 313.8,285 C313.8,285 313.8,374.4 313.8,374.4 C313.8,374.4 305.6667,463.6469 299.4867,531.4649 " fill="none" id="ClientService-to-Client" style="stroke:#181818;stroke-width:0.6;stroke-dasharray:7.0,7.0;"/><polygon fill="#181818" points="299.16,535.05,302.0401,529.8901,299.4323,532.0624,297.26,529.4545,299.16,535.05" style="stroke:#181818;stroke-width:0.6;"/><text fill="#000000" font-family="sans-serif" font-size="7.8" lengthAdjust="spacing" textLength="18.6" x="312.6" y="401.417">client</text></g><!--link Repositories to Repositories--><g id="link_Repositories_Repositories"><path codeLine="76" d="M175.812,333.942 C188.304,335.34 196.8,338.43 196.8,343.2 C196.8,347.97 191.8817,350.6596 179.3897,352.0576 " fill="none" id="Repositories-to-Repositories" style="stroke:#181818;stroke-width:0.6;"/><polygon fill="#181818" points="175.812,352.458,181.4454,354.2425,178.7934,352.1243,180.9116,349.4723,175.812,352.458" style="stroke:#181818;stroke-width:0.6;"/><text fill="#000000" font-family="sans-serif" font-size="7.8" lengthAdjust="spacing" textLength="29.4" x="200.4" y="346.517">instance</text></g><!--link Repositories to ClientRepository--><g id="link_Repositories_ClientRepository"><path codeLine="77" d="M114.42,374.676 C123.978,389.712 133.386,404.5183 142.392,418.6783 " fill="none" id="Repositories-to-ClientRepository" style="stroke:#181818;stroke-width:0.6;"/><polygon fill="#181818" points="144.324,421.716,143.4511,415.8715,142.714,419.1846,139.4009,418.4475,144.324,421.716" style="stroke:#181818;stroke-width:0.6;"/><text fill="#000000" font-family="sans-serif" font-size="7.8" lengthAdjust="spacing" textLength="55.8" x="132.6" y="401.417">clientRepository</text><text fill="#000000" font-family="sans-serif" font-size="7.8" lengthAdjust="spacing" textLength="4.2" x="112.3553" y="387.5663">1</text><text fill="#000000" font-family="sans-serif" font-size="7.8" lengthAdjust="spacing" textLength="4.2" x="137.2591" y="415.0451">1</text></g><!--link ClientRepository to Client--><g id="link_ClientRepository_Client"><path codeLine="78" d="M181.356,472.932 C195.618,489.804 212.8547,510.2021 231.6107,532.4021 " fill="none" id="ClientRepository-to-Client" style="stroke:#181818;stroke-width:0.6;"/><polygon fill="#181818" points="233.934,535.152,232.2823,529.4782,231.9979,532.8604,228.6157,532.576,233.934,535.152" style="stroke:#181818;stroke-width:0.6;"/><text fill="#000000" font-family="sans-serif" font-size="7.8" lengthAdjust="spacing" textLength="36" x="207.6" y="501.017">categories</text><text fill="#000000" font-family="sans-serif" font-size="7.8" lengthAdjust="spacing" textLength="4.2" x="180.1931" y="486.2492">1</text><text fill="#000000" font-family="sans-serif" font-size="7.8" lengthAdjust="spacing" textLength="3" x="227.0668" y="528.5435">*</text></g><!--link Client to Order--><g id="link_Client_Order"><path codeLine="79" d="M271.38,675.612 C266.55,691.308 262.533,704.3733 257.859,719.5593 " fill="none" id="Client-to-Order" style="stroke:#181818;stroke-width:0.6;"/><polygon fill="#181818" points="256.8,723,260.6823,718.5449,257.6825,720.1327,256.0947,717.1329,256.8,723" style="stroke:#181818;stroke-width:0.6;"/><text fill="#000000" font-family="sans-serif" font-size="7.8" lengthAdjust="spacing" textLength="12.6" x="266.4" y="702.617">has</text><text fill="#000000" font-family="sans-serif" font-size="7.8" lengthAdjust="spacing" textLength="4.2" x="265.6733" y="688.8552">1</text><text fill="#000000" font-family="sans-serif" font-size="7.8" lengthAdjust="spacing" textLength="3" x="255.0633" y="716.3091">*</text></g><!--link Client to EntityState--><g id="link_Client_EntityState"><path codeLine="80" d="M358.614,675.75 C382.26,700.806 403.2,723 403.2,723 C403.2,723 413.4288,737.6691 424.5168,753.5691 " fill="none" id="Client-to-EntityState" style="stroke:#181818;stroke-width:0.6;"/><polygon fill="#181818" points="426.576,756.522,425.4558,750.7198,424.86,754.0613,421.5186,753.4655,426.576,756.522" style="stroke:#181818;stroke-width:0.6;"/><text fill="#000000" font-family="sans-serif" font-size="7.8" lengthAdjust="spacing" textLength="12.6" x="385.2" y="702.617">has</text><text fill="#000000" font-family="sans-serif" font-size="7.8" lengthAdjust="spacing" textLength="3" x="359.7341" y="689.002">*</text><text fill="#000000" font-family="sans-serif" font-size="7.8" lengthAdjust="spacing" textLength="4.2" x="419.2644" y="749.852">1</text></g><!--SRC=[fLJBRjim4BphAnO-sQaSj5SX260uEGXeqZHEUgUbhKo48WcISg4M-VVo8LlKmqY1-Y9pPvOxEokjVgDS4aLgaAHu8nNkJCiG51Q6y8fXeiy4VI2b-4Lv1Jy9qp72A4VJIWGfMEiE4LOmelN664NtZS6y47n7VoDyJfAk82nUymNyIS3-F1cUiQBQeDeoYjoyvXtudhn7ILl1ZHACeHecXwGUxK3t-zJ8aXWCZ9qXfj7B5MJmrLQx2T7RcKexL4TQu5oP3efhL6W2Tk7k_n3oZ59eQeHgntvrSOewahAEuylLG6BEjPrlWRvip9jff2_hsUDW9tJYJSyOsRDXx4DhEbCAZphoNWY6X9-AnROyY1BPt7HYBy9D-PszYdBJnqbPAhGP6Mp2lnxYf4ORtzbNbrTz-4WCvJDnUH0S7vjwRz-vKH6i2MKpAVwRiOwAMXBUljXJZzdv60VUSqDDw_o8GA5ALFhauJTtYYmCtIzFBQVWEacXQpK5tq4AaU0KlCGKdABLTAA-Gcod5p1rqmw27b6rcykk-ioxqDlTeAbJyYmebVlECYX5isSpDZqfKTWw8v-a4cLJcEyDyIvQtWEHDqyXcaBE3LO3wtoZowwx54Rzf311d4fhfLFd7eDo0oEHDtKypCZDpVOb_t5_FkQFKI2ywyba9LvVtqvMNJBPVJshsrJ9S6yvVB0zChlvesKmPK- -xGoAyKAub7Nc9eEQw_L41EtMqv2u-BBmPFVyTnqHvtp1rIAIP8THnUqEQE7Dp-10UlYgbn4FD93-0W00]--></g></svg>