<?xml version="1.0" encoding="us-ascii" standalone="no"?><svg xmlns="http://www.w3.org/2000/svg" xmlns:xlink="http://www.w3.org/1999/xlink" contentStyleType="text/css" height="629.5px" preserveAspectRatio="none" style="width:733px;height:629px;background:#FFFFFF;" version="1.1" viewBox="0 0 733 629" width="733.5px" zoomAndPan="magnify"><defs/><g><text fill="#000000" font-family="sans-serif" font-size="7" font-weight="bold" lengthAdjust="spacing" textLength="90" x="322.25" y="15.0537">Register Client Sequence</text><rect fill="#FFFFFF" height="512.4912" style="stroke:#181818;stroke-width:0.5;" width="5" x="22.25" y="66.6211"/><rect fill="#FFFFFF" height="500.8457" style="stroke:#181818;stroke-width:0.5;" width="5" x="214.75" y="78.2666"/><rect fill="#FFFFFF" height="444.2441" style="stroke:#181818;stroke-width:0.5;" width="5" x="347.75" y="115.7227"/><rect fill="#FFFFFF" height="412.9531" style="stroke:#181818;stroke-width:0.5;" width="5" x="480.75" y="131.3682"/><rect fill="#FFFFFF" height="176.1006" style="stroke:#181818;stroke-width:0.5;" width="5" x="483.25" y="151.0137"/><rect fill="#FFFFFF" height="15.6455" style="stroke:#181818;stroke-width:0.5;" width="5" x="540.75" y="169.1592"/><rect fill="#FFFFFF" height="15.6455" style="stroke:#181818;stroke-width:0.5;" width="5" x="593.25" y="200.4502"/><rect fill="#FFFFFF" height="76.7275" style="stroke:#181818;stroke-width:0.5;" width="5" x="652.25" y="231.7412"/><rect fill="#FFFFFF" height="15.6455" style="stroke:#181818;stroke-width:0.5;" width="5" x="652.25" y="435.1328"/><rect fill="#FFFFFF" height="15.6455" style="stroke:#181818;stroke-width:0.5;" width="5" x="652.25" y="506.0303"/><rect fill="#FFFFFF" height="15.6455" style="stroke:#181818;stroke-width:0.5;" width="5" x="699.75" y="359.4053"/><rect fill="#FFFFFF" height="15.6455" style="stroke:#181818;stroke-width:0.5;" width="5" x="699.75" y="403.8418"/><rect fill="#FFFFFF" height="15.6455" style="stroke:#181818;stroke-width:0.5;" width="5" x="699.75" y="474.7393"/><rect fill="none" height="324.7256" style="stroke:#000000;stroke-width:0.75;" width="547.5" x="182.5" y="239.2412"/><rect fill="none" height="191.0615" style="stroke:#000000;stroke-width:0.75;" width="277" x="448" y="338.1143"/><rect fill="none" height="143.125" style="stroke:#000000;stroke-width:0.75;" width="267" x="453" y="382.5508"/><line style="stroke:#181818;stroke-width:0.25;stroke-dasharray:5.0,5.0;" x1="24.5" x2="24.5" y1="61.6211" y2="588.1123"/><line style="stroke:#181818;stroke-width:0.25;stroke-dasharray:5.0,5.0;" x1="217" x2="217" y1="61.6211" y2="588.1123"/><line style="stroke:#181818;stroke-width:0.25;stroke-dasharray:5.0,5.0;" x1="350.25" x2="350.25" y1="98.1719" y2="588.1123"/><line style="stroke:#181818;stroke-width:0.25;stroke-dasharray:5.0,5.0;" x1="483" x2="483" y1="61.6211" y2="588.1123"/><line style="stroke:#181818;stroke-width:0.25;stroke-dasharray:5.0,5.0;" x1="543" x2="543" y1="61.6211" y2="588.1123"/><line style="stroke:#181818;stroke-width:0.25;stroke-dasharray:5.0,5.0;" x1="595.5" x2="595.5" y1="61.6211" y2="588.1123"/><line style="stroke:#181818;stroke-width:0.25;stroke-dasharray:5.0,5.0;" x1="654.5" x2="654.5" y1="61.6211" y2="588.1123"/><line style="stroke:#181818;stroke-width:0.25;stroke-dasharray:5.0,5.0;" x1="702" x2="702" y1="61.6211" y2="588.1123"/><text fill="#000000" font-family="sans-serif" font-size="7" lengthAdjust="spacing" textLength="41.5" x="2.5" y="59.8643">Administrator</text><ellipse cx="24.75" cy="26.5605" fill="#E3E3E3" rx="4" ry="4" style="stroke:#181818;stroke-width:0.25;"/><path d="M24.75,30.5605 L24.75,44.0605 M18.25,34.5605 L31.25,34.5605 M24.75,44.0605 L18.25,51.5605 M24.75,44.0605 L31.25,51.5605 " fill="none" style="stroke:#181818;stroke-width:0.25;"/><text fill="#000000" font-family="sans-serif" font-size="7" lengthAdjust="spacing" textLength="41.5" x="2.5" y="595.166">Administrator</text><ellipse cx="24.75" cy="601.1729" fill="#E3E3E3" rx="4" ry="4" style="stroke:#181818;stroke-width:0.25;"/><path d="M24.75,605.1729 L24.75,618.6729 M18.25,609.1729 L31.25,609.1729 M24.75,618.6729 L18.25,626.1729 M24.75,618.6729 L31.25,626.1729 " fill="none" style="stroke:#181818;stroke-width:0.25;"/><rect fill="#E3E3E3" height="16.3105" rx="1.25" ry="1.25" style="stroke:#181818;stroke-width:0.25;" width="59.5" x="187.5" y="44.8105"/><text fill="#000000" font-family="sans-serif" font-size="7" lengthAdjust="spacing" textLength="52.5" x="191" y="55.8643">:RegisterClientUI</text><rect fill="#E3E3E3" height="16.3105" rx="1.25" ry="1.25" style="stroke:#181818;stroke-width:0.25;" width="59.5" x="187.5" y="587.6123"/><text fill="#000000" font-family="sans-serif" font-size="7" lengthAdjust="spacing" textLength="52.5" x="191" y="598.666">:RegisterClientUI</text><rect fill="#E3E3E3" height="16.3105" rx="1.25" ry="1.25" style="stroke:#181818;stroke-width:0.25;" width="58" x="321.25" y="587.6123"/><text fill="#000000" font-family="sans-serif" font-size="7" lengthAdjust="spacing" textLength="51" x="324.75" y="598.666">:ClientController</text><rect fill="#E3E3E3" height="16.3105" rx="1.25" ry="1.25" style="stroke:#181818;stroke-width:0.25;" width="50.5" x="458" y="44.8105"/><text fill="#000000" font-family="sans-serif" font-size="7" lengthAdjust="spacing" textLength="43.5" x="461.5" y="55.8643">:ClientService</text><rect fill="#E3E3E3" height="16.3105" rx="1.25" ry="1.25" style="stroke:#181818;stroke-width:0.25;" width="50.5" x="458" y="587.6123"/><text fill="#000000" font-family="sans-serif" font-size="7" lengthAdjust="spacing" textLength="43.5" x="461.5" y="598.666">:ClientService</text><rect fill="#E3E3E3" height="16.3105" rx="1.25" ry="1.25" style="stroke:#181818;stroke-width:0.25;" width="46.5" x="520" y="44.8105"/><text fill="#000000" font-family="sans-serif" font-size="7" lengthAdjust="spacing" textLength="39.5" x="523.5" y="55.8643">Repositories</text><rect fill="#E3E3E3" height="16.3105" rx="1.25" ry="1.25" style="stroke:#181818;stroke-width:0.25;" width="46.5" x="520" y="587.6123"/><text fill="#000000" font-family="sans-serif" font-size="7" lengthAdjust="spacing" textLength="39.5" x="523.5" y="598.666">Repositories</text><rect fill="#E3E3E3" height="25.6211" rx="1.25" ry="1.25" style="stroke:#181818;stroke-width:0.25;" width="48.5" x="571.5" y="35.5"/><text fill="#000000" font-family="sans-serif" font-size="7" lengthAdjust="spacing" textLength="37" x="577.25" y="46.5537">repositories</text><text fill="#000000" font-family="sans-serif" font-size="7" lengthAdjust="spacing" textLength="41.5" x="575" y="55.8643">:Repositories</text><rect fill="#E3E3E3" height="25.6211" rx="1.25" ry="1.25" style="stroke:#181818;stroke-width:0.25;" width="48.5" x="571.5" y="587.6123"/><text fill="#000000" font-family="sans-serif" font-size="7" lengthAdjust="spacing" textLength="37" x="577.25" y="598.666">repositories</text><text fill="#000000" font-family="sans-serif" font-size="7" lengthAdjust="spacing" textLength="41.5" x="575" y="607.9766">:Repositories</text><rect fill="#E3E3E3" height="25.6211" rx="1.25" ry="1.25" style="stroke:#181818;stroke-width:0.25;" width="59.5" x="625" y="35.5"/><text fill="#000000" font-family="sans-serif" font-size="7" lengthAdjust="spacing" textLength="52.5" x="628.5" y="46.5537">clientRepository:</text><text fill="#000000" font-family="sans-serif" font-size="7" lengthAdjust="spacing" textLength="52" x="628.75" y="55.8643">ClientRepository</text><rect fill="#E3E3E3" height="25.6211" rx="1.25" ry="1.25" style="stroke:#181818;stroke-width:0.25;" width="59.5" x="625" y="587.6123"/><text fill="#000000" font-family="sans-serif" font-size="7" lengthAdjust="spacing" textLength="52.5" x="628.5" y="598.666">clientRepository:</text><text fill="#000000" font-family="sans-serif" font-size="7" lengthAdjust="spacing" textLength="52" x="628.75" y="607.9766">ClientRepository</text><rect fill="#E3E3E3" height="25.6211" rx="1.25" ry="1.25" style="stroke:#181818;stroke-width:0.25;" width="25.5" x="689.5" y="35.5"/><text fill="#000000" font-family="sans-serif" font-size="7" lengthAdjust="spacing" textLength="18.5" x="693" y="46.5537">client:</text><text fill="#000000" font-family="sans-serif" font-size="7" lengthAdjust="spacing" textLength="18" x="693.25" y="55.8643">Client</text><rect fill="#E3E3E3" height="25.6211" rx="1.25" ry="1.25" style="stroke:#181818;stroke-width:0.25;" width="25.5" x="689.5" y="587.6123"/><text fill="#000000" font-family="sans-serif" font-size="7" lengthAdjust="spacing" textLength="18.5" x="693" y="598.666">client:</text><text fill="#000000" font-family="sans-serif" font-size="7" lengthAdjust="spacing" textLength="18" x="693.25" y="607.9766">Client</text><rect fill="#FFFFFF" height="512.4912" style="stroke:#181818;stroke-width:0.5;" width="5" x="22.25" y="66.6211"/><rect fill="#FFFFFF" height="500.8457" style="stroke:#181818;stroke-width:0.5;" width="5" x="214.75" y="78.2666"/><rect fill="#FFFFFF" height="444.2441" style="stroke:#181818;stroke-width:0.5;" width="5" x="347.75" y="115.7227"/><rect fill="#FFFFFF" height="412.9531" style="stroke:#181818;stroke-width:0.5;" width="5" x="480.75" y="131.3682"/><rect fill="#FFFFFF" height="176.1006" style="stroke:#181818;stroke-width:0.5;" width="5" x="483.25" y="151.0137"/><rect fill="#FFFFFF" height="15.6455" style="stroke:#181818;stroke-width:0.5;" width="5" x="540.75" y="169.1592"/><rect fill="#FFFFFF" height="15.6455" style="stroke:#181818;stroke-width:0.5;" width="5" x="593.25" y="200.4502"/><rect fill="#FFFFFF" height="76.7275" style="stroke:#181818;stroke-width:0.5;" width="5" x="652.25" y="231.7412"/><rect fill="#FFFFFF" height="15.6455" style="stroke:#181818;stroke-width:0.5;" width="5" x="652.25" y="435.1328"/><rect fill="#FFFFFF" height="15.6455" style="stroke:#181818;stroke-width:0.5;" width="5" x="652.25" y="506.0303"/><rect fill="#FFFFFF" height="15.6455" style="stroke:#181818;stroke-width:0.5;" width="5" x="699.75" y="359.4053"/><rect fill="#FFFFFF" height="15.6455" style="stroke:#181818;stroke-width:0.5;" width="5" x="699.75" y="403.8418"/><rect fill="#FFFFFF" height="15.6455" style="stroke:#181818;stroke-width:0.5;" width="5" x="699.75" y="474.7393"/><polygon fill="#181818" points="208.75,76.2666,213.75,78.2666,208.75,80.2666,210.75,78.2666" style="stroke:#181818;stroke-width:0.5;"/><line style="stroke:#181818;stroke-width:0.5;" x1="27.25" x2="211.75" y1="78.2666" y2="78.2666"/><text fill="#000000" font-family="sans-serif" font-size="6.5" font-weight="bold" lengthAdjust="spacing" textLength="3.5" x="30.75" y="75.6353">1</text><text fill="#000000" font-family="sans-serif" font-size="6.5" lengthAdjust="spacing" textLength="66" x="36.25" y="75.6353">asks to update a client</text><polygon fill="#181818" points="315.25,91.9121,320.25,93.9121,315.25,95.9121,317.25,93.9121" style="stroke:#181818;stroke-width:0.5;"/><line style="stroke:#181818;stroke-width:0.5;" x1="219.75" x2="318.25" y1="93.9121" y2="93.9121"/><text fill="#000000" font-family="sans-serif" font-size="6.5" font-weight="bold" lengthAdjust="spacing" textLength="3.5" x="223.25" y="91.2808">2</text><text fill="#000000" font-family="sans-serif" font-size="6.5" lengthAdjust="spacing" textLength="18" x="228.75" y="91.2808">create</text><rect fill="#E3E3E3" height="16.3105" rx="1.25" ry="1.25" style="stroke:#181818;stroke-width:0.25;" width="58" x="321.25" y="82.2666"/><text fill="#000000" font-family="sans-serif" font-size="7" lengthAdjust="spacing" textLength="51" x="324.75" y="93.3203">:ClientController</text><polygon fill="#181818" points="341.75,113.7227,346.75,115.7227,341.75,117.7227,343.75,115.7227" style="stroke:#181818;stroke-width:0.5;"/><line style="stroke:#181818;stroke-width:0.5;" x1="219.75" x2="344.75" y1="115.7227" y2="115.7227"/><text fill="#000000" font-family="sans-serif" font-size="6.5" font-weight="bold" lengthAdjust="spacing" textLength="3.5" x="223.25" y="113.0913">3</text><text fill="#000000" font-family="sans-serif" font-size="6.5" lengthAdjust="spacing" textLength="59" x="228.75" y="113.0913">updateClientStatus()</text><polygon fill="#181818" points="474.75,129.3682,479.75,131.3682,474.75,133.3682,476.75,131.3682" style="stroke:#181818;stroke-width:0.5;"/><line style="stroke:#181818;stroke-width:0.5;" x1="352.75" x2="477.75" y1="131.3682" y2="131.3682"/><text fill="#000000" font-family="sans-serif" font-size="6.5" font-weight="bold" lengthAdjust="spacing" textLength="3.5" x="356.25" y="128.7368">4</text><text fill="#000000" font-family="sans-serif" font-size="6.5" lengthAdjust="spacing" textLength="59" x="361.75" y="128.7368">updateClientStatus()</text><line style="stroke:#181818;stroke-width:0.5;" x1="485.75" x2="509.25" y1="144.5137" y2="144.5137"/><line style="stroke:#181818;stroke-width:0.5;" x1="509.25" x2="509.25" y1="144.5137" y2="151.0137"/><line style="stroke:#181818;stroke-width:0.5;" x1="488.75" x2="509.25" y1="151.0137" y2="151.0137"/><polygon fill="#181818" points="493.75,149.0137,488.75,151.0137,493.75,153.0137,491.75,151.0137" style="stroke:#181818;stroke-width:0.5;"/><text fill="#000000" font-family="sans-serif" font-size="6.5" font-weight="bold" lengthAdjust="spacing" textLength="3.5" x="491.75" y="141.8823">5</text><text fill="#000000" font-family="sans-serif" font-size="6.5" lengthAdjust="spacing" textLength="35" x="497.25" y="141.8823">getClients())</text><polygon fill="#181818" points="534.75,167.1592,539.75,169.1592,534.75,171.1592,536.75,169.1592" style="stroke:#181818;stroke-width:0.5;"/><line style="stroke:#181818;stroke-width:0.5;" x1="488.25" x2="537.75" y1="169.1592" y2="169.1592"/><text fill="#000000" font-family="sans-serif" font-size="6.5" font-weight="bold" lengthAdjust="spacing" textLength="3.5" x="491.75" y="166.5278">6</text><text fill="#000000" font-family="sans-serif" font-size="6.5" lengthAdjust="spacing" textLength="37.5" x="497.25" y="166.5278">getInstance()</text><polygon fill="#181818" points="493.75,182.8047,488.75,184.8047,493.75,186.8047,491.75,184.8047" style="stroke:#181818;stroke-width:0.5;"/><line style="stroke:#181818;stroke-width:0.5;stroke-dasharray:2.0,2.0;" x1="490.75" x2="542.75" y1="184.8047" y2="184.8047"/><text fill="#000000" font-family="sans-serif" font-size="6.5" font-weight="bold" lengthAdjust="spacing" textLength="3.5" x="496.75" y="182.1733">7</text><text fill="#000000" font-family="sans-serif" font-size="6.5" lengthAdjust="spacing" textLength="33.5" x="502.25" y="182.1733">repositories</text><polygon fill="#181818" points="587.25,198.4502,592.25,200.4502,587.25,202.4502,589.25,200.4502" style="stroke:#181818;stroke-width:0.5;"/><line style="stroke:#181818;stroke-width:0.5;" x1="488.25" x2="590.25" y1="200.4502" y2="200.4502"/><text fill="#000000" font-family="sans-serif" font-size="6.5" font-weight="bold" lengthAdjust="spacing" textLength="3.5" x="491.75" y="197.8188">8</text><text fill="#000000" font-family="sans-serif" font-size="6.5" lengthAdjust="spacing" textLength="60.5" x="497.25" y="197.8188">getClientRepository()</text><polygon fill="#181818" points="493.75,214.0957,488.75,216.0957,493.75,218.0957,491.75,216.0957" style="stroke:#181818;stroke-width:0.5;"/><line style="stroke:#181818;stroke-width:0.5;stroke-dasharray:2.0,2.0;" x1="490.75" x2="595.25" y1="216.0957" y2="216.0957"/><text fill="#000000" font-family="sans-serif" font-size="6.5" font-weight="bold" lengthAdjust="spacing" textLength="3.5" x="496.75" y="213.4644">9</text><text fill="#000000" font-family="sans-serif" font-size="6.5" lengthAdjust="spacing" textLength="46.5" x="502.25" y="213.4644">clientRepository</text><polygon fill="#181818" points="646.25,229.7412,651.25,231.7412,646.25,233.7412,648.25,231.7412" style="stroke:#181818;stroke-width:0.5;"/><line style="stroke:#181818;stroke-width:0.5;" x1="488.25" x2="649.25" y1="231.7412" y2="231.7412"/><text fill="#000000" font-family="sans-serif" font-size="6.5" font-weight="bold" lengthAdjust="spacing" textLength="7" x="491.75" y="229.1099">10</text><text fill="#000000" font-family="sans-serif" font-size="6.5" lengthAdjust="spacing" textLength="20.5" x="500.75" y="229.1099">getAll()</text><path d="M182.5,239.2412 L213,239.2412 L213,243.8867 L208,248.8867 L182.5,248.8867 L182.5,239.2412 " fill="#EEEEEE" style="stroke:#000000;stroke-width:0.75;"/><rect fill="none" height="324.7256" style="stroke:#000000;stroke-width:0.75;" width="547.5" x="182.5" y="239.2412"/><text fill="#000000" font-family="sans-serif" font-size="6.5" font-weight="bold" lengthAdjust="spacing" textLength="8" x="190" y="246.7554">alt</text><text fill="#000000" font-family="sans-serif" font-size="5.5" font-weight="bold" lengthAdjust="spacing" textLength="41" x="220.5" y="246.1763">[system error]</text><polygon fill="#181818" points="493.75,258.5322,488.75,260.5322,493.75,262.5322,491.75,260.5322" style="stroke:#181818;stroke-width:0.5;"/><line style="stroke:#181818;stroke-width:0.5;stroke-dasharray:2.0,2.0;" x1="490.75" x2="651.75" y1="260.5322" y2="260.5322"/><text fill="#000000" font-family="sans-serif" font-size="6.5" font-weight="bold" lengthAdjust="spacing" textLength="7" x="496.75" y="257.9009">11</text><text fill="#000000" font-family="sans-serif" font-size="6.5" lengthAdjust="spacing" textLength="42.5" x="505.75" y="257.9009">Database error</text><polygon fill="#181818" points="358.25,274.1777,353.25,276.1777,358.25,278.1777,356.25,276.1777" style="stroke:#181818;stroke-width:0.5;"/><line style="stroke:#181818;stroke-width:0.5;stroke-dasharray:2.0,2.0;" x1="355.25" x2="482.75" y1="276.1777" y2="276.1777"/><text fill="#000000" font-family="sans-serif" font-size="6.5" font-weight="bold" lengthAdjust="spacing" textLength="7" x="361.25" y="273.5464">12</text><text fill="#000000" font-family="sans-serif" font-size="6.5" lengthAdjust="spacing" textLength="107" x="370.25" y="273.5464">show error message (Database error)</text><polygon fill="#181818" points="225.25,289.8232,220.25,291.8232,225.25,293.8232,223.25,291.8232" style="stroke:#181818;stroke-width:0.5;"/><line style="stroke:#181818;stroke-width:0.5;stroke-dasharray:2.0,2.0;" x1="222.25" x2="347.25" y1="291.8232" y2="291.8232"/><text fill="#000000" font-family="sans-serif" font-size="6.5" font-weight="bold" lengthAdjust="spacing" textLength="7" x="228.25" y="289.1919">13</text><text fill="#000000" font-family="sans-serif" font-size="6.5" lengthAdjust="spacing" textLength="107" x="237.25" y="289.1919">show error message (Database error)</text><line style="stroke:#000000;stroke-width:0.5;stroke-dasharray:2.0,2.0;" x1="182.5" x2="730" y1="296.3232" y2="296.3232"/><polygon fill="#181818" points="493.75,306.4688,488.75,308.4688,493.75,310.4688,491.75,308.4688" style="stroke:#181818;stroke-width:0.5;"/><line style="stroke:#181818;stroke-width:0.5;stroke-dasharray:2.0,2.0;" x1="490.75" x2="654.25" y1="308.4688" y2="308.4688"/><text fill="#000000" font-family="sans-serif" font-size="6.5" font-weight="bold" lengthAdjust="spacing" textLength="7" x="496.75" y="305.8374">14</text><text fill="#000000" font-family="sans-serif" font-size="6.5" lengthAdjust="spacing" textLength="19" x="505.75" y="305.8374">clients</text><line style="stroke:#181818;stroke-width:0.5;stroke-dasharray:2.0,2.0;" x1="488.25" x2="509.25" y1="326.6143" y2="326.6143"/><line style="stroke:#181818;stroke-width:0.5;stroke-dasharray:2.0,2.0;" x1="509.25" x2="509.25" y1="326.6143" y2="333.1143"/><line style="stroke:#181818;stroke-width:0.5;stroke-dasharray:2.0,2.0;" x1="485.75" x2="509.25" y1="333.1143" y2="333.1143"/><polygon fill="#181818" points="490.75,331.1143,485.75,333.1143,490.75,335.1143,488.75,333.1143" style="stroke:#181818;stroke-width:0.5;"/><text fill="#000000" font-family="sans-serif" font-size="6.5" font-weight="bold" lengthAdjust="spacing" textLength="7" x="491.75" y="323.9829">15</text><text fill="#000000" font-family="sans-serif" font-size="6.5" lengthAdjust="spacing" textLength="19" x="500.75" y="323.9829">clients</text><path d="M448,338.1143 L484.5,338.1143 L484.5,342.7598 L479.5,347.7598 L448,347.7598 L448,338.1143 " fill="#EEEEEE" style="stroke:#000000;stroke-width:0.75;"/><rect fill="none" height="191.0615" style="stroke:#000000;stroke-width:0.75;" width="277" x="448" y="338.1143"/><text fill="#000000" font-family="sans-serif" font-size="6.5" font-weight="bold" lengthAdjust="spacing" textLength="14" x="455.5" y="345.6284">loop</text><text fill="#000000" font-family="sans-serif" font-size="5.5" font-weight="bold" lengthAdjust="spacing" textLength="70.5" x="492" y="345.0493">[For each client in clients]</text><polygon fill="#181818" points="693.75,357.4053,698.75,359.4053,693.75,361.4053,695.75,359.4053" style="stroke:#181818;stroke-width:0.5;"/><line style="stroke:#181818;stroke-width:0.5;" x1="485.75" x2="696.75" y1="359.4053" y2="359.4053"/><text fill="#000000" font-family="sans-serif" font-size="6.5" font-weight="bold" lengthAdjust="spacing" textLength="7" x="489.25" y="356.7739">16</text><text fill="#000000" font-family="sans-serif" font-size="6.5" lengthAdjust="spacing" textLength="32.5" x="498.25" y="356.7739">getOrders()</text><polygon fill="#181818" points="491.25,373.0508,486.25,375.0508,491.25,377.0508,489.25,375.0508" style="stroke:#181818;stroke-width:0.5;"/><line style="stroke:#181818;stroke-width:0.5;stroke-dasharray:2.0,2.0;" x1="488.25" x2="701.75" y1="375.0508" y2="375.0508"/><text fill="#000000" font-family="sans-serif" font-size="6.5" font-weight="bold" lengthAdjust="spacing" textLength="7" x="494.25" y="372.4194">17</text><text fill="#000000" font-family="sans-serif" font-size="6.5" lengthAdjust="spacing" textLength="18" x="503.25" y="372.4194">orders</text><path d="M453,382.5508 L483.5,382.5508 L483.5,387.1963 L478.5,392.1963 L453,392.1963 L453,382.5508 " fill="#EEEEEE" style="stroke:#000000;stroke-width:0.75;"/><rect fill="none" height="143.125" style="stroke:#000000;stroke-width:0.75;" width="267" x="453" y="382.5508"/><text fill="#000000" font-family="sans-serif" font-size="6.5" font-weight="bold" lengthAdjust="spacing" textLength="8" x="460.5" y="390.0649">alt</text><text fill="#000000" font-family="sans-serif" font-size="5.5" font-weight="bold" lengthAdjust="spacing" textLength="93" x="491" y="389.4858">[client inactive with active orders]</text><polygon fill="#181818" points="693.75,401.8418,698.75,403.8418,693.75,405.8418,695.75,403.8418" style="stroke:#181818;stroke-width:0.5;"/><line style="stroke:#181818;stroke-width:0.5;" x1="485.75" x2="696.75" y1="403.8418" y2="403.8418"/><text fill="#000000" font-family="sans-serif" font-size="6.5" font-weight="bold" lengthAdjust="spacing" textLength="7" x="489.25" y="401.2104">18</text><text fill="#000000" font-family="sans-serif" font-size="6.5" lengthAdjust="spacing" textLength="51.5" x="498.25" y="401.2104">setState(ACTIVE)</text><polygon fill="#181818" points="491.25,417.4873,486.25,419.4873,491.25,421.4873,489.25,419.4873" style="stroke:#181818;stroke-width:0.5;"/><line style="stroke:#181818;stroke-width:0.5;stroke-dasharray:2.0,2.0;" x1="488.25" x2="701.75" y1="419.4873" y2="419.4873"/><text fill="#000000" font-family="sans-serif" font-size="6.5" font-weight="bold" lengthAdjust="spacing" textLength="7" x="494.25" y="416.856">19</text><text fill="#000000" font-family="sans-serif" font-size="6.5" lengthAdjust="spacing" textLength="2" x="503.25" y="416.856">&#160;</text><polygon fill="#181818" points="646.25,433.1328,651.25,435.1328,646.25,437.1328,648.25,435.1328" style="stroke:#181818;stroke-width:0.5;"/><line style="stroke:#181818;stroke-width:0.5;" x1="485.75" x2="649.25" y1="435.1328" y2="435.1328"/><text fill="#000000" font-family="sans-serif" font-size="6.5" font-weight="bold" lengthAdjust="spacing" textLength="7" x="489.25" y="432.5015">20</text><text fill="#000000" font-family="sans-serif" font-size="6.5" lengthAdjust="spacing" textLength="42.5" x="498.25" y="432.5015">updateStatus()</text><polygon fill="#181818" points="491.25,448.7783,486.25,450.7783,491.25,452.7783,489.25,450.7783" style="stroke:#181818;stroke-width:0.5;"/><line style="stroke:#181818;stroke-width:0.5;stroke-dasharray:2.0,2.0;" x1="488.25" x2="654.25" y1="450.7783" y2="450.7783"/><text fill="#000000" font-family="sans-serif" font-size="6.5" font-weight="bold" lengthAdjust="spacing" textLength="7" x="494.25" y="448.147">21</text><text fill="#000000" font-family="sans-serif" font-size="6.5" lengthAdjust="spacing" textLength="2" x="503.25" y="448.147">&#160;</text><line style="stroke:#000000;stroke-width:0.5;stroke-dasharray:2.0,2.0;" x1="453" x2="720" y1="455.2783" y2="455.2783"/><text fill="#000000" font-family="sans-serif" font-size="5.5" font-weight="bold" lengthAdjust="spacing" textLength="97" x="455.5" y="461.2134">[client active without active orders]</text><polygon fill="#181818" points="693.75,472.7393,698.75,474.7393,693.75,476.7393,695.75,474.7393" style="stroke:#181818;stroke-width:0.5;"/><line style="stroke:#181818;stroke-width:0.5;" x1="485.75" x2="696.75" y1="474.7393" y2="474.7393"/><text fill="#000000" font-family="sans-serif" font-size="6.5" font-weight="bold" lengthAdjust="spacing" textLength="7" x="489.25" y="472.1079">22</text><text fill="#000000" font-family="sans-serif" font-size="6.5" lengthAdjust="spacing" textLength="57.5" x="498.25" y="472.1079">setState(INACTIVE)</text><polygon fill="#181818" points="491.25,488.3848,486.25,490.3848,491.25,492.3848,489.25,490.3848" style="stroke:#181818;stroke-width:0.5;"/><line style="stroke:#181818;stroke-width:0.5;stroke-dasharray:2.0,2.0;" x1="488.25" x2="701.75" y1="490.3848" y2="490.3848"/><text fill="#000000" font-family="sans-serif" font-size="6.5" font-weight="bold" lengthAdjust="spacing" textLength="7" x="494.25" y="487.7534">23</text><text fill="#000000" font-family="sans-serif" font-size="6.5" lengthAdjust="spacing" textLength="2" x="503.25" y="487.7534">&#160;</text><polygon fill="#181818" points="646.25,504.0303,651.25,506.0303,646.25,508.0303,648.25,506.0303" style="stroke:#181818;stroke-width:0.5;"/><line style="stroke:#181818;stroke-width:0.5;" x1="485.75" x2="649.25" y1="506.0303" y2="506.0303"/><text fill="#000000" font-family="sans-serif" font-size="6.5" font-weight="bold" lengthAdjust="spacing" textLength="7" x="489.25" y="503.3989">24</text><text fill="#000000" font-family="sans-serif" font-size="6.5" lengthAdjust="spacing" textLength="42.5" x="498.25" y="503.3989">updateStatus()</text><polygon fill="#181818" points="491.25,519.6758,486.25,521.6758,491.25,523.6758,489.25,521.6758" style="stroke:#181818;stroke-width:0.5;"/><line style="stroke:#181818;stroke-width:0.5;stroke-dasharray:2.0,2.0;" x1="488.25" x2="654.25" y1="521.6758" y2="521.6758"/><text fill="#000000" font-family="sans-serif" font-size="6.5" font-weight="bold" lengthAdjust="spacing" textLength="7" x="494.25" y="519.0444">25</text><text fill="#000000" font-family="sans-serif" font-size="6.5" lengthAdjust="spacing" textLength="2" x="503.25" y="519.0444">&#160;</text><polygon fill="#181818" points="358.25,542.3213,353.25,544.3213,358.25,546.3213,356.25,544.3213" style="stroke:#181818;stroke-width:0.5;"/><line style="stroke:#181818;stroke-width:0.5;stroke-dasharray:2.0,2.0;" x1="355.25" x2="482.75" y1="544.3213" y2="544.3213"/><text fill="#000000" font-family="sans-serif" font-size="6.5" font-weight="bold" lengthAdjust="spacing" textLength="7" x="361.25" y="541.6899">26</text><text fill="#000000" font-family="sans-serif" font-size="6.5" lengthAdjust="spacing" textLength="19" x="370.25" y="541.6899">clients</text><polygon fill="#181818" points="225.25,557.9668,220.25,559.9668,225.25,561.9668,223.25,559.9668" style="stroke:#181818;stroke-width:0.5;"/><line style="stroke:#181818;stroke-width:0.5;stroke-dasharray:2.0,2.0;" x1="222.25" x2="349.75" y1="559.9668" y2="559.9668"/><text fill="#000000" font-family="sans-serif" font-size="6.5" font-weight="bold" lengthAdjust="spacing" textLength="7" x="228.25" y="557.3354">27</text><text fill="#000000" font-family="sans-serif" font-size="6.5" lengthAdjust="spacing" textLength="19" x="237.25" y="557.3354">clients</text><polygon fill="#181818" points="30.25,577.1123,25.25,579.1123,30.25,581.1123,28.25,579.1123" style="stroke:#181818;stroke-width:0.5;"/><line style="stroke:#181818;stroke-width:0.5;stroke-dasharray:2.0,2.0;" x1="27.25" x2="216.75" y1="579.1123" y2="579.1123"/><text fill="#000000" font-family="sans-serif" font-size="6.5" font-weight="bold" lengthAdjust="spacing" textLength="7" x="33.25" y="576.481">28</text><text fill="#000000" font-family="sans-serif" font-size="6.5" lengthAdjust="spacing" textLength="166.5" x="42.25" y="576.481">shows the list of clients including status or error message</text><!--SRC=[xPRDRk8m4CVlUOeH9wZK5-2m4W9MGkfsLuJsr8kRJC4YiLdRAUBjTsmdmVaizBo-GEB__3oPBraVkJWnnNB8fP39GSaSmQW28rtld5XoP7kCpIL3K9WO9lPPAD07biep5tluO9d6A3BSa3I-Q8CvnFYtG94Wh3ZRM_aqZbUpA6A5aQB8tr7H_yH81PD5cdF1jL6C7YV0D2nMlo8wnF24dvWmC9blSKyALCkCep0l6oTxsRHKVdSfXL4ooz33bhljKwykHlN94tIYUFlQr6pn93KdXpXgfzYk_yHDYGeaRsBUPz4qIDonjUuoVnFBrYjdsDRrKMfR_urFc_Nphaf15IpmYZeNBkByanbq4GPQz0kFFoYIC2VEKOEHK9nIAs6b7qvN6rBCtGkxo8fiRNmV7iW-KKYAlctQzD0oy8QPGazdjRAckrn1i9mrKIW_Nq4Q89lFnevT5k9PSzYZyHn2p3hAcpYs8i2HDa9JUoGu7I6v-cdlEiHZvLDOK1rfYkEegrCGVDsrYBxmhS-roZERstP9Zhit6BCsn_kwoB8nzmOFPva1xUSDAYLL1r6jph5rp5VCi7UciGGC4fp_PJdFQVR9ixU07BMcEGdJ9casZF8rxRhkDb9bY7RCtl-9VaSFMWQf6qrp5O91Q03gz4qcvGb-qbUIvb1Q0nSr9-ef5Z_LV8dyLYcgmNQlvbyZpDxwMiFI8OOyxaFO-gfTTKg4CpS7AF_t4FlSr-Yc5KuNoztcTJrIwQKJdOffVSfOzmqWXllF3zNUSNfR5tvLWUF-Zc9jnLSP2E8l2_FT56oU_oVXtYI8r7P2vvrjwIWQ6f9mtum8XcAFPHXQUqM80Z-Ywgv1nlOwusSgtMGE21dTWq1-L3pguYGhKdjdrIxKO0TIE7oZrcdskXCy4lyV]--></g></svg>