<?xml version="1.0" encoding="us-ascii" standalone="no"?><svg xmlns="http://www.w3.org/2000/svg" xmlns:xlink="http://www.w3.org/1999/xlink" contentStyleType="text/css" height="1259px" preserveAspectRatio="none" style="width:1467px;height:1259px;background:#FFFFFF;" version="1.1" viewBox="0 0 1467 1259" width="1467px" zoomAndPan="magnify"><defs/><g><text fill="#000000" font-family="sans-serif" font-size="14" font-weight="bold" lengthAdjust="spacing" textLength="164" x="652.5" y="30.1074">Client Status Sequence</text><rect fill="#FFFFFF" height="1024.9824" style="stroke:#181818;stroke-width:1.0;" width="10" x="44.5" y="133.2422"/><rect fill="#FFFFFF" height="1001.6914" style="stroke:#181818;stroke-width:1.0;" width="10" x="429.5" y="156.5332"/><rect fill="#FFFFFF" height="888.4883" style="stroke:#181818;stroke-width:1.0;" width="10" x="695.5" y="231.4453"/><rect fill="#FFFFFF" height="825.9063" style="stroke:#181818;stroke-width:1.0;" width="10" x="961.5" y="262.7363"/><rect fill="#FFFFFF" height="352.2012" style="stroke:#181818;stroke-width:1.0;" width="10" x="966.5" y="302.0273"/><rect fill="#FFFFFF" height="31.291" style="stroke:#181818;stroke-width:1.0;" width="10" x="1081.5" y="338.3184"/><rect fill="#FFFFFF" height="31.291" style="stroke:#181818;stroke-width:1.0;" width="10" x="1186.5" y="400.9004"/><rect fill="#FFFFFF" height="153.4551" style="stroke:#181818;stroke-width:1.0;" width="10" x="1304.5" y="463.4824"/><rect fill="#FFFFFF" height="31.291" style="stroke:#181818;stroke-width:1.0;" width="10" x="1304.5" y="870.2656"/><rect fill="#FFFFFF" height="31.291" style="stroke:#181818;stroke-width:1.0;" width="10" x="1304.5" y="1012.0605"/><rect fill="#FFFFFF" height="31.291" style="stroke:#181818;stroke-width:1.0;" width="10" x="1399.5" y="718.8105"/><rect fill="#FFFFFF" height="31.291" style="stroke:#181818;stroke-width:1.0;" width="10" x="1399.5" y="807.6836"/><rect fill="#FFFFFF" height="31.291" style="stroke:#181818;stroke-width:1.0;" width="10" x="1399.5" y="949.4785"/><rect fill="none" height="649.4512" style="stroke:#000000;stroke-width:1.5;" width="1095" x="365" y="478.4824"/><rect fill="none" height="382.123" style="stroke:#000000;stroke-width:1.5;" width="554" x="896" y="676.2285"/><rect fill="none" height="286.25" style="stroke:#000000;stroke-width:1.5;" width="534" x="906" y="765.1016"/><line style="stroke:#181818;stroke-width:0.5;stroke-dasharray:5.0,5.0;" x1="49" x2="49" y1="123.2422" y2="1176.2246"/><line style="stroke:#181818;stroke-width:0.5;stroke-dasharray:5.0,5.0;" x1="434" x2="434" y1="123.2422" y2="1176.2246"/><line style="stroke:#181818;stroke-width:0.5;stroke-dasharray:5.0,5.0;" x1="700.5" x2="700.5" y1="196.3438" y2="1176.2246"/><line style="stroke:#181818;stroke-width:0.5;stroke-dasharray:5.0,5.0;" x1="966" x2="966" y1="123.2422" y2="1176.2246"/><line style="stroke:#181818;stroke-width:0.5;stroke-dasharray:5.0,5.0;" x1="1086" x2="1086" y1="123.2422" y2="1176.2246"/><line style="stroke:#181818;stroke-width:0.5;stroke-dasharray:5.0,5.0;" x1="1191" x2="1191" y1="123.2422" y2="1176.2246"/><line style="stroke:#181818;stroke-width:0.5;stroke-dasharray:5.0,5.0;" x1="1309" x2="1309" y1="123.2422" y2="1176.2246"/><line style="stroke:#181818;stroke-width:0.5;stroke-dasharray:5.0,5.0;" x1="1404" x2="1404" y1="123.2422" y2="1176.2246"/><text fill="#000000" font-family="sans-serif" font-size="14" lengthAdjust="spacing" textLength="83" x="5" y="119.7285">Administrator</text><ellipse cx="49.5" cy="53.1211" fill="#E3E3E3" rx="8" ry="8" style="stroke:#181818;stroke-width:0.5;"/><path d="M49.5,61.1211 L49.5,88.1211 M36.5,69.1211 L62.5,69.1211 M49.5,88.1211 L36.5,103.1211 M49.5,88.1211 L62.5,103.1211 " fill="none" style="stroke:#181818;stroke-width:0.5;"/><text fill="#000000" font-family="sans-serif" font-size="14" lengthAdjust="spacing" textLength="83" x="5" y="1190.332">Administrator</text><ellipse cx="49.5" cy="1202.3457" fill="#E3E3E3" rx="8" ry="8" style="stroke:#181818;stroke-width:0.5;"/><path d="M49.5,1210.3457 L49.5,1237.3457 M36.5,1218.3457 L62.5,1218.3457 M49.5,1237.3457 L36.5,1252.3457 M49.5,1237.3457 L62.5,1252.3457 " fill="none" style="stroke:#181818;stroke-width:0.5;"/><rect fill="#E3E3E3" height="32.6211" rx="2.5" ry="2.5" style="stroke:#181818;stroke-width:0.5;" width="119" x="375" y="89.6211"/><text fill="#000000" font-family="sans-serif" font-size="14" lengthAdjust="spacing" textLength="105" x="382" y="111.7285">:RegisterClientUI</text><rect fill="#E3E3E3" height="32.6211" rx="2.5" ry="2.5" style="stroke:#181818;stroke-width:0.5;" width="119" x="375" y="1175.2246"/><text fill="#000000" font-family="sans-serif" font-size="14" lengthAdjust="spacing" textLength="105" x="382" y="1197.332">:RegisterClientUI</text><rect fill="#E3E3E3" height="32.6211" rx="2.5" ry="2.5" style="stroke:#181818;stroke-width:0.5;" width="116" x="642.5" y="1175.2246"/><text fill="#000000" font-family="sans-serif" font-size="14" lengthAdjust="spacing" textLength="102" x="649.5" y="1197.332">:ClientController</text><rect fill="#E3E3E3" height="32.6211" rx="2.5" ry="2.5" style="stroke:#181818;stroke-width:0.5;" width="101" x="916" y="89.6211"/><text fill="#000000" font-family="sans-serif" font-size="14" lengthAdjust="spacing" textLength="87" x="923" y="111.7285">:ClientService</text><rect fill="#E3E3E3" height="32.6211" rx="2.5" ry="2.5" style="stroke:#181818;stroke-width:0.5;" width="101" x="916" y="1175.2246"/><text fill="#000000" font-family="sans-serif" font-size="14" lengthAdjust="spacing" textLength="87" x="923" y="1197.332">:ClientService</text><rect fill="#E3E3E3" height="32.6211" rx="2.5" ry="2.5" style="stroke:#181818;stroke-width:0.5;" width="93" x="1040" y="89.6211"/><text fill="#000000" font-family="sans-serif" font-size="14" lengthAdjust="spacing" textLength="79" x="1047" y="111.7285">Repositories</text><rect fill="#E3E3E3" height="32.6211" rx="2.5" ry="2.5" style="stroke:#181818;stroke-width:0.5;" width="93" x="1040" y="1175.2246"/><text fill="#000000" font-family="sans-serif" font-size="14" lengthAdjust="spacing" textLength="79" x="1047" y="1197.332">Repositories</text><rect fill="#E3E3E3" height="51.2422" rx="2.5" ry="2.5" style="stroke:#181818;stroke-width:0.5;" width="97" x="1143" y="71"/><text fill="#000000" font-family="sans-serif" font-size="14" lengthAdjust="spacing" textLength="74" x="1154.5" y="93.1074">repositories</text><text fill="#000000" font-family="sans-serif" font-size="14" lengthAdjust="spacing" textLength="83" x="1150" y="111.7285">:Repositories</text><rect fill="#E3E3E3" height="51.2422" rx="2.5" ry="2.5" style="stroke:#181818;stroke-width:0.5;" width="97" x="1143" y="1175.2246"/><text fill="#000000" font-family="sans-serif" font-size="14" lengthAdjust="spacing" textLength="74" x="1154.5" y="1197.332">repositories</text><text fill="#000000" font-family="sans-serif" font-size="14" lengthAdjust="spacing" textLength="83" x="1150" y="1215.9531">:Repositories</text><rect fill="#E3E3E3" height="51.2422" rx="2.5" ry="2.5" style="stroke:#181818;stroke-width:0.5;" width="119" x="1250" y="71"/><text fill="#000000" font-family="sans-serif" font-size="14" lengthAdjust="spacing" textLength="105" x="1257" y="93.1074">clientRepository:</text><text fill="#000000" font-family="sans-serif" font-size="14" lengthAdjust="spacing" textLength="104" x="1257.5" y="111.7285">ClientRepository</text><rect fill="#E3E3E3" height="51.2422" rx="2.5" ry="2.5" style="stroke:#181818;stroke-width:0.5;" width="119" x="1250" y="1175.2246"/><text fill="#000000" font-family="sans-serif" font-size="14" lengthAdjust="spacing" textLength="105" x="1257" y="1197.332">clientRepository:</text><text fill="#000000" font-family="sans-serif" font-size="14" lengthAdjust="spacing" textLength="104" x="1257.5" y="1215.9531">ClientRepository</text><rect fill="#E3E3E3" height="51.2422" rx="2.5" ry="2.5" style="stroke:#181818;stroke-width:0.5;" width="51" x="1379" y="71"/><text fill="#000000" font-family="sans-serif" font-size="14" lengthAdjust="spacing" textLength="37" x="1386" y="93.1074">client:</text><text fill="#000000" font-family="sans-serif" font-size="14" lengthAdjust="spacing" textLength="36" x="1386.5" y="111.7285">Client</text><rect fill="#E3E3E3" height="51.2422" rx="2.5" ry="2.5" style="stroke:#181818;stroke-width:0.5;" width="51" x="1379" y="1175.2246"/><text fill="#000000" font-family="sans-serif" font-size="14" lengthAdjust="spacing" textLength="37" x="1386" y="1197.332">client:</text><text fill="#000000" font-family="sans-serif" font-size="14" lengthAdjust="spacing" textLength="36" x="1386.5" y="1215.9531">Client</text><rect fill="#FFFFFF" height="1024.9824" style="stroke:#181818;stroke-width:1.0;" width="10" x="44.5" y="133.2422"/><rect fill="#FFFFFF" height="1001.6914" style="stroke:#181818;stroke-width:1.0;" width="10" x="429.5" y="156.5332"/><rect fill="#FFFFFF" height="888.4883" style="stroke:#181818;stroke-width:1.0;" width="10" x="695.5" y="231.4453"/><rect fill="#FFFFFF" height="825.9063" style="stroke:#181818;stroke-width:1.0;" width="10" x="961.5" y="262.7363"/><rect fill="#FFFFFF" height="352.2012" style="stroke:#181818;stroke-width:1.0;" width="10" x="966.5" y="302.0273"/><rect fill="#FFFFFF" height="31.291" style="stroke:#181818;stroke-width:1.0;" width="10" x="1081.5" y="338.3184"/><rect fill="#FFFFFF" height="31.291" style="stroke:#181818;stroke-width:1.0;" width="10" x="1186.5" y="400.9004"/><rect fill="#FFFFFF" height="153.4551" style="stroke:#181818;stroke-width:1.0;" width="10" x="1304.5" y="463.4824"/><rect fill="#FFFFFF" height="31.291" style="stroke:#181818;stroke-width:1.0;" width="10" x="1304.5" y="870.2656"/><rect fill="#FFFFFF" height="31.291" style="stroke:#181818;stroke-width:1.0;" width="10" x="1304.5" y="1012.0605"/><rect fill="#FFFFFF" height="31.291" style="stroke:#181818;stroke-width:1.0;" width="10" x="1399.5" y="718.8105"/><rect fill="#FFFFFF" height="31.291" style="stroke:#181818;stroke-width:1.0;" width="10" x="1399.5" y="807.6836"/><rect fill="#FFFFFF" height="31.291" style="stroke:#181818;stroke-width:1.0;" width="10" x="1399.5" y="949.4785"/><polygon fill="#181818" points="417.5,152.5332,427.5,156.5332,417.5,160.5332,421.5,156.5332" style="stroke:#181818;stroke-width:1.0;"/><line style="stroke:#181818;stroke-width:1.0;" x1="54.5" x2="423.5" y1="156.5332" y2="156.5332"/><text fill="#000000" font-family="sans-serif" font-size="13" font-weight="bold" lengthAdjust="spacing" textLength="7" x="61.5" y="151.2705">1</text><text fill="#000000" font-family="sans-serif" font-size="13" lengthAdjust="spacing" textLength="132" x="72.5" y="151.2705">asks to update a client</text><polygon fill="#181818" points="630.5,183.8242,640.5,187.8242,630.5,191.8242,634.5,187.8242" style="stroke:#181818;stroke-width:1.0;"/><line style="stroke:#181818;stroke-width:1.0;" x1="439.5" x2="636.5" y1="187.8242" y2="187.8242"/><text fill="#000000" font-family="sans-serif" font-size="13" font-weight="bold" lengthAdjust="spacing" textLength="7" x="446.5" y="182.5615">2</text><text fill="#000000" font-family="sans-serif" font-size="13" lengthAdjust="spacing" textLength="36" x="457.5" y="182.5615">create</text><rect fill="#E3E3E3" height="32.6211" rx="2.5" ry="2.5" style="stroke:#181818;stroke-width:0.5;" width="116" x="642.5" y="164.5332"/><text fill="#000000" font-family="sans-serif" font-size="14" lengthAdjust="spacing" textLength="102" x="649.5" y="186.6406">:ClientController</text><polygon fill="#181818" points="683.5,227.4453,693.5,231.4453,683.5,235.4453,687.5,231.4453" style="stroke:#181818;stroke-width:1.0;"/><line style="stroke:#181818;stroke-width:1.0;" x1="439.5" x2="689.5" y1="231.4453" y2="231.4453"/><text fill="#000000" font-family="sans-serif" font-size="13" font-weight="bold" lengthAdjust="spacing" textLength="7" x="446.5" y="226.1826">3</text><text fill="#000000" font-family="sans-serif" font-size="13" lengthAdjust="spacing" textLength="118" x="457.5" y="226.1826">updateClientStatus()</text><polygon fill="#181818" points="949.5,258.7363,959.5,262.7363,949.5,266.7363,953.5,262.7363" style="stroke:#181818;stroke-width:1.0;"/><line style="stroke:#181818;stroke-width:1.0;" x1="705.5" x2="955.5" y1="262.7363" y2="262.7363"/><text fill="#000000" font-family="sans-serif" font-size="13" font-weight="bold" lengthAdjust="spacing" textLength="7" x="712.5" y="257.4736">4</text><text fill="#000000" font-family="sans-serif" font-size="13" lengthAdjust="spacing" textLength="118" x="723.5" y="257.4736">updateClientStatus()</text><line style="stroke:#181818;stroke-width:1.0;" x1="971.5" x2="1018.5" y1="289.0273" y2="289.0273"/><line style="stroke:#181818;stroke-width:1.0;" x1="1018.5" x2="1018.5" y1="289.0273" y2="302.0273"/><line style="stroke:#181818;stroke-width:1.0;" x1="977.5" x2="1018.5" y1="302.0273" y2="302.0273"/><polygon fill="#181818" points="987.5,298.0273,977.5,302.0273,987.5,306.0273,983.5,302.0273" style="stroke:#181818;stroke-width:1.0;"/><text fill="#000000" font-family="sans-serif" font-size="13" font-weight="bold" lengthAdjust="spacing" textLength="7" x="983.5" y="283.7646">5</text><text fill="#000000" font-family="sans-serif" font-size="13" lengthAdjust="spacing" textLength="70" x="994.5" y="283.7646">getClients())</text><polygon fill="#181818" points="1069.5,334.3184,1079.5,338.3184,1069.5,342.3184,1073.5,338.3184" style="stroke:#181818;stroke-width:1.0;"/><line style="stroke:#181818;stroke-width:1.0;" x1="976.5" x2="1075.5" y1="338.3184" y2="338.3184"/><text fill="#000000" font-family="sans-serif" font-size="13" font-weight="bold" lengthAdjust="spacing" textLength="7" x="983.5" y="333.0557">6</text><text fill="#000000" font-family="sans-serif" font-size="13" lengthAdjust="spacing" textLength="75" x="994.5" y="333.0557">getInstance()</text><polygon fill="#181818" points="987.5,365.6094,977.5,369.6094,987.5,373.6094,983.5,369.6094" style="stroke:#181818;stroke-width:1.0;"/><line style="stroke:#181818;stroke-width:1.0;stroke-dasharray:2.0,2.0;" x1="981.5" x2="1085.5" y1="369.6094" y2="369.6094"/><text fill="#000000" font-family="sans-serif" font-size="13" font-weight="bold" lengthAdjust="spacing" textLength="7" x="993.5" y="364.3467">7</text><text fill="#000000" font-family="sans-serif" font-size="13" lengthAdjust="spacing" textLength="67" x="1004.5" y="364.3467">repositories</text><polygon fill="#181818" points="1174.5,396.9004,1184.5,400.9004,1174.5,404.9004,1178.5,400.9004" style="stroke:#181818;stroke-width:1.0;"/><line style="stroke:#181818;stroke-width:1.0;" x1="976.5" x2="1180.5" y1="400.9004" y2="400.9004"/><text fill="#000000" font-family="sans-serif" font-size="13" font-weight="bold" lengthAdjust="spacing" textLength="7" x="983.5" y="395.6377">8</text><text fill="#000000" font-family="sans-serif" font-size="13" lengthAdjust="spacing" textLength="121" x="994.5" y="395.6377">getClientRepository()</text><polygon fill="#181818" points="987.5,428.1914,977.5,432.1914,987.5,436.1914,983.5,432.1914" style="stroke:#181818;stroke-width:1.0;"/><line style="stroke:#181818;stroke-width:1.0;stroke-dasharray:2.0,2.0;" x1="981.5" x2="1190.5" y1="432.1914" y2="432.1914"/><text fill="#000000" font-family="sans-serif" font-size="13" font-weight="bold" lengthAdjust="spacing" textLength="7" x="993.5" y="426.9287">9</text><text fill="#000000" font-family="sans-serif" font-size="13" lengthAdjust="spacing" textLength="93" x="1004.5" y="426.9287">clientRepository</text><polygon fill="#181818" points="1292.5,459.4824,1302.5,463.4824,1292.5,467.4824,1296.5,463.4824" style="stroke:#181818;stroke-width:1.0;"/><line style="stroke:#181818;stroke-width:1.0;" x1="976.5" x2="1298.5" y1="463.4824" y2="463.4824"/><text fill="#000000" font-family="sans-serif" font-size="13" font-weight="bold" lengthAdjust="spacing" textLength="14" x="983.5" y="458.2197">10</text><text fill="#000000" font-family="sans-serif" font-size="13" lengthAdjust="spacing" textLength="41" x="1001.5" y="458.2197">getAll()</text><path d="M365,478.4824 L426,478.4824 L426,487.7734 L416,497.7734 L365,497.7734 L365,478.4824 " fill="#EEEEEE" style="stroke:#000000;stroke-width:1.5;"/><rect fill="none" height="649.4512" style="stroke:#000000;stroke-width:1.5;" width="1095" x="365" y="478.4824"/><text fill="#000000" font-family="sans-serif" font-size="13" font-weight="bold" lengthAdjust="spacing" textLength="16" x="380" y="493.5107">alt</text><text fill="#000000" font-family="sans-serif" font-size="11" font-weight="bold" lengthAdjust="spacing" textLength="82" x="441" y="492.3525">[system error]</text><polygon fill="#181818" points="987.5,517.0645,977.5,521.0645,987.5,525.0645,983.5,521.0645" style="stroke:#181818;stroke-width:1.0;"/><line style="stroke:#181818;stroke-width:1.0;stroke-dasharray:2.0,2.0;" x1="981.5" x2="1303.5" y1="521.0645" y2="521.0645"/><text fill="#000000" font-family="sans-serif" font-size="13" font-weight="bold" lengthAdjust="spacing" textLength="14" x="993.5" y="515.8018">11</text><text fill="#000000" font-family="sans-serif" font-size="13" lengthAdjust="spacing" textLength="85" x="1011.5" y="515.8018">Database error</text><polygon fill="#181818" points="716.5,548.3555,706.5,552.3555,716.5,556.3555,712.5,552.3555" style="stroke:#181818;stroke-width:1.0;"/><line style="stroke:#181818;stroke-width:1.0;stroke-dasharray:2.0,2.0;" x1="710.5" x2="965.5" y1="552.3555" y2="552.3555"/><text fill="#000000" font-family="sans-serif" font-size="13" font-weight="bold" lengthAdjust="spacing" textLength="14" x="722.5" y="547.0928">12</text><text fill="#000000" font-family="sans-serif" font-size="13" lengthAdjust="spacing" textLength="214" x="740.5" y="547.0928">show error message (Database error)</text><polygon fill="#181818" points="450.5,579.6465,440.5,583.6465,450.5,587.6465,446.5,583.6465" style="stroke:#181818;stroke-width:1.0;"/><line style="stroke:#181818;stroke-width:1.0;stroke-dasharray:2.0,2.0;" x1="444.5" x2="694.5" y1="583.6465" y2="583.6465"/><text fill="#000000" font-family="sans-serif" font-size="13" font-weight="bold" lengthAdjust="spacing" textLength="14" x="456.5" y="578.3838">13</text><text fill="#000000" font-family="sans-serif" font-size="13" lengthAdjust="spacing" textLength="214" x="474.5" y="578.3838">show error message (Database error)</text><line style="stroke:#000000;stroke-width:1.0;stroke-dasharray:2.0,2.0;" x1="365" x2="1460" y1="592.6465" y2="592.6465"/><polygon fill="#181818" points="987.5,612.9375,977.5,616.9375,987.5,620.9375,983.5,616.9375" style="stroke:#181818;stroke-width:1.0;"/><line style="stroke:#181818;stroke-width:1.0;stroke-dasharray:2.0,2.0;" x1="981.5" x2="1308.5" y1="616.9375" y2="616.9375"/><text fill="#000000" font-family="sans-serif" font-size="13" font-weight="bold" lengthAdjust="spacing" textLength="14" x="993.5" y="611.6748">14</text><text fill="#000000" font-family="sans-serif" font-size="13" lengthAdjust="spacing" textLength="38" x="1011.5" y="611.6748">clients</text><line style="stroke:#181818;stroke-width:1.0;stroke-dasharray:2.0,2.0;" x1="976.5" x2="1018.5" y1="653.2285" y2="653.2285"/><line style="stroke:#181818;stroke-width:1.0;stroke-dasharray:2.0,2.0;" x1="1018.5" x2="1018.5" y1="653.2285" y2="666.2285"/><line style="stroke:#181818;stroke-width:1.0;stroke-dasharray:2.0,2.0;" x1="971.5" x2="1018.5" y1="666.2285" y2="666.2285"/><polygon fill="#181818" points="981.5,662.2285,971.5,666.2285,981.5,670.2285,977.5,666.2285" style="stroke:#181818;stroke-width:1.0;"/><text fill="#000000" font-family="sans-serif" font-size="13" font-weight="bold" lengthAdjust="spacing" textLength="14" x="983.5" y="647.9658">15</text><text fill="#000000" font-family="sans-serif" font-size="13" lengthAdjust="spacing" textLength="38" x="1001.5" y="647.9658">clients</text><path d="M896,676.2285 L969,676.2285 L969,685.5195 L959,695.5195 L896,695.5195 L896,676.2285 " fill="#EEEEEE" style="stroke:#000000;stroke-width:1.5;"/><rect fill="none" height="382.123" style="stroke:#000000;stroke-width:1.5;" width="554" x="896" y="676.2285"/><text fill="#000000" font-family="sans-serif" font-size="13" font-weight="bold" lengthAdjust="spacing" textLength="28" x="911" y="691.2568">loop</text><text fill="#000000" font-family="sans-serif" font-size="11" font-weight="bold" lengthAdjust="spacing" textLength="141" x="984" y="690.0986">[For each client in clients]</text><polygon fill="#181818" points="1387.5,714.8105,1397.5,718.8105,1387.5,722.8105,1391.5,718.8105" style="stroke:#181818;stroke-width:1.0;"/><line style="stroke:#181818;stroke-width:1.0;" x1="971.5" x2="1393.5" y1="718.8105" y2="718.8105"/><text fill="#000000" font-family="sans-serif" font-size="13" font-weight="bold" lengthAdjust="spacing" textLength="14" x="978.5" y="713.5479">16</text><text fill="#000000" font-family="sans-serif" font-size="13" lengthAdjust="spacing" textLength="65" x="996.5" y="713.5479">getOrders()</text><polygon fill="#181818" points="982.5,746.1016,972.5,750.1016,982.5,754.1016,978.5,750.1016" style="stroke:#181818;stroke-width:1.0;"/><line style="stroke:#181818;stroke-width:1.0;stroke-dasharray:2.0,2.0;" x1="976.5" x2="1403.5" y1="750.1016" y2="750.1016"/><text fill="#000000" font-family="sans-serif" font-size="13" font-weight="bold" lengthAdjust="spacing" textLength="14" x="988.5" y="744.8389">17</text><text fill="#000000" font-family="sans-serif" font-size="13" lengthAdjust="spacing" textLength="36" x="1006.5" y="744.8389">orders</text><path d="M906,765.1016 L967,765.1016 L967,774.3926 L957,784.3926 L906,784.3926 L906,765.1016 " fill="#EEEEEE" style="stroke:#000000;stroke-width:1.5;"/><rect fill="none" height="286.25" style="stroke:#000000;stroke-width:1.5;" width="534" x="906" y="765.1016"/><text fill="#000000" font-family="sans-serif" font-size="13" font-weight="bold" lengthAdjust="spacing" textLength="16" x="921" y="780.1299">alt</text><text fill="#000000" font-family="sans-serif" font-size="11" font-weight="bold" lengthAdjust="spacing" textLength="186" x="982" y="778.9717">[client inactive with active orders]</text><polygon fill="#181818" points="1387.5,803.6836,1397.5,807.6836,1387.5,811.6836,1391.5,807.6836" style="stroke:#181818;stroke-width:1.0;"/><line style="stroke:#181818;stroke-width:1.0;" x1="971.5" x2="1393.5" y1="807.6836" y2="807.6836"/><text fill="#000000" font-family="sans-serif" font-size="13" font-weight="bold" lengthAdjust="spacing" textLength="14" x="978.5" y="802.4209">18</text><text fill="#000000" font-family="sans-serif" font-size="13" lengthAdjust="spacing" textLength="103" x="996.5" y="802.4209">setState(ACTIVE)</text><polygon fill="#181818" points="982.5,834.9746,972.5,838.9746,982.5,842.9746,978.5,838.9746" style="stroke:#181818;stroke-width:1.0;"/><line style="stroke:#181818;stroke-width:1.0;stroke-dasharray:2.0,2.0;" x1="976.5" x2="1403.5" y1="838.9746" y2="838.9746"/><text fill="#000000" font-family="sans-serif" font-size="13" font-weight="bold" lengthAdjust="spacing" textLength="14" x="988.5" y="833.7119">19</text><text fill="#000000" font-family="sans-serif" font-size="13" lengthAdjust="spacing" textLength="4" x="1006.5" y="833.7119">&#160;</text><polygon fill="#181818" points="1292.5,866.2656,1302.5,870.2656,1292.5,874.2656,1296.5,870.2656" style="stroke:#181818;stroke-width:1.0;"/><line style="stroke:#181818;stroke-width:1.0;" x1="971.5" x2="1298.5" y1="870.2656" y2="870.2656"/><text fill="#000000" font-family="sans-serif" font-size="13" font-weight="bold" lengthAdjust="spacing" textLength="14" x="978.5" y="865.0029">20</text><text fill="#000000" font-family="sans-serif" font-size="13" lengthAdjust="spacing" textLength="85" x="996.5" y="865.0029">updateStatus()</text><polygon fill="#181818" points="982.5,897.5566,972.5,901.5566,982.5,905.5566,978.5,901.5566" style="stroke:#181818;stroke-width:1.0;"/><line style="stroke:#181818;stroke-width:1.0;stroke-dasharray:2.0,2.0;" x1="976.5" x2="1308.5" y1="901.5566" y2="901.5566"/><text fill="#000000" font-family="sans-serif" font-size="13" font-weight="bold" lengthAdjust="spacing" textLength="14" x="988.5" y="896.2939">21</text><text fill="#000000" font-family="sans-serif" font-size="13" lengthAdjust="spacing" textLength="4" x="1006.5" y="896.2939">&#160;</text><line style="stroke:#000000;stroke-width:1.0;stroke-dasharray:2.0,2.0;" x1="906" x2="1440" y1="910.5566" y2="910.5566"/><text fill="#000000" font-family="sans-serif" font-size="11" font-weight="bold" lengthAdjust="spacing" textLength="194" x="911" y="922.4268">[client active without active orders]</text><polygon fill="#181818" points="1387.5,945.4785,1397.5,949.4785,1387.5,953.4785,1391.5,949.4785" style="stroke:#181818;stroke-width:1.0;"/><line style="stroke:#181818;stroke-width:1.0;" x1="971.5" x2="1393.5" y1="949.4785" y2="949.4785"/><text fill="#000000" font-family="sans-serif" font-size="13" font-weight="bold" lengthAdjust="spacing" textLength="14" x="978.5" y="944.2158">22</text><text fill="#000000" font-family="sans-serif" font-size="13" lengthAdjust="spacing" textLength="115" x="996.5" y="944.2158">setState(INACTIVE)</text><polygon fill="#181818" points="982.5,976.7695,972.5,980.7695,982.5,984.7695,978.5,980.7695" style="stroke:#181818;stroke-width:1.0;"/><line style="stroke:#181818;stroke-width:1.0;stroke-dasharray:2.0,2.0;" x1="976.5" x2="1403.5" y1="980.7695" y2="980.7695"/><text fill="#000000" font-family="sans-serif" font-size="13" font-weight="bold" lengthAdjust="spacing" textLength="14" x="988.5" y="975.5068">23</text><text fill="#000000" font-family="sans-serif" font-size="13" lengthAdjust="spacing" textLength="4" x="1006.5" y="975.5068">&#160;</text><polygon fill="#181818" points="1292.5,1008.0605,1302.5,1012.0605,1292.5,1016.0605,1296.5,1012.0605" style="stroke:#181818;stroke-width:1.0;"/><line style="stroke:#181818;stroke-width:1.0;" x1="971.5" x2="1298.5" y1="1012.0605" y2="1012.0605"/><text fill="#000000" font-family="sans-serif" font-size="13" font-weight="bold" lengthAdjust="spacing" textLength="14" x="978.5" y="1006.7979">24</text><text fill="#000000" font-family="sans-serif" font-size="13" lengthAdjust="spacing" textLength="85" x="996.5" y="1006.7979">updateStatus()</text><polygon fill="#181818" points="982.5,1039.3516,972.5,1043.3516,982.5,1047.3516,978.5,1043.3516" style="stroke:#181818;stroke-width:1.0;"/><line style="stroke:#181818;stroke-width:1.0;stroke-dasharray:2.0,2.0;" x1="976.5" x2="1308.5" y1="1043.3516" y2="1043.3516"/><text fill="#000000" font-family="sans-serif" font-size="13" font-weight="bold" lengthAdjust="spacing" textLength="14" x="988.5" y="1038.0889">25</text><text fill="#000000" font-family="sans-serif" font-size="13" lengthAdjust="spacing" textLength="4" x="1006.5" y="1038.0889">&#160;</text><polygon fill="#181818" points="716.5,1084.6426,706.5,1088.6426,716.5,1092.6426,712.5,1088.6426" style="stroke:#181818;stroke-width:1.0;"/><line style="stroke:#181818;stroke-width:1.0;stroke-dasharray:2.0,2.0;" x1="710.5" x2="965.5" y1="1088.6426" y2="1088.6426"/><text fill="#000000" font-family="sans-serif" font-size="13" font-weight="bold" lengthAdjust="spacing" textLength="14" x="722.5" y="1083.3799">26</text><text fill="#000000" font-family="sans-serif" font-size="13" lengthAdjust="spacing" textLength="38" x="740.5" y="1083.3799">clients</text><polygon fill="#181818" points="450.5,1115.9336,440.5,1119.9336,450.5,1123.9336,446.5,1119.9336" style="stroke:#181818;stroke-width:1.0;"/><line style="stroke:#181818;stroke-width:1.0;stroke-dasharray:2.0,2.0;" x1="444.5" x2="699.5" y1="1119.9336" y2="1119.9336"/><text fill="#000000" font-family="sans-serif" font-size="13" font-weight="bold" lengthAdjust="spacing" textLength="14" x="456.5" y="1114.6709">27</text><text fill="#000000" font-family="sans-serif" font-size="13" lengthAdjust="spacing" textLength="38" x="474.5" y="1114.6709">clients</text><polygon fill="#181818" points="60.5,1154.2246,50.5,1158.2246,60.5,1162.2246,56.5,1158.2246" style="stroke:#181818;stroke-width:1.0;"/><line style="stroke:#181818;stroke-width:1.0;stroke-dasharray:2.0,2.0;" x1="54.5" x2="433.5" y1="1158.2246" y2="1158.2246"/><text fill="#000000" font-family="sans-serif" font-size="13" font-weight="bold" lengthAdjust="spacing" textLength="14" x="66.5" y="1152.9619">28</text><text fill="#000000" font-family="sans-serif" font-size="13" lengthAdjust="spacing" textLength="333" x="84.5" y="1152.9619">shows the list of clients including status or error message</text><!--SRC=[xLRBRk8m5DtdAwvOGQN-08kH430IKgSp8hIhRjpa5YmIcx6T8lv-hkqaECz2r-DD7Zxt-FY-TFMHYnDJB8TS2faSbCmHZ2emqlNEYIL7jiVON384XObXOf-507rWgJnpiOSFbccC8iCDGUEBDfX3Z7yB50d2YhEzXK_ZU3MB8bOOAOhy7HMz9qOgc2pId0kkZMBqEG6cOR7w5T4XXYVyn8I1oNoBUqAWMcOSXNdPEDZBfeNokqifZ99PXfvikTi-zU9YL9yyGGUAjwzDp1PFKdCIn54xn7Rz9sv2L01v4_C-YwP1uewjSPVvcrYsVZd3DgwFfRRrTtpQh9ztLGZy1iI6cKBNaN3-vf_CeFClqA8dFFuWFyASM8uQZ8JYb5e8ArKuN6r87dS_x28hihNUVNWW-qGX8VgsQTEJbcvtigQp6bcpkqX1i9mriL1qlY9f4DbeDdRiiYIUQmvxD9w7A6OTv4qyDX_0CMs4fk98S3h2vBAdlUie7YjDOJfre2cEKrr5GN2xQmfzeQrFMgNCnhQTaEFo1dtMvl5Q5ras9c_mS9OPqBxRe59ITIYgrJcszlcA6VRED9O4WmnEVvdES-fyykmj84UjgKl2jCaq6wRoEUsgxZQcoX1jaxt_Ydv73re6eHiDS-M2GTA0g5CtcPGd-4ct9CoXj0OkQfwe9rbyJ_Cfybkbg0RBlUf-3JTxwsiEIqSnfBYFmkPNBTKX4SxS7A1yxs7iaw_HTIkSBfQxpUjw9DDB4PsCQLrbhFe6A8RhppVLtdPwMnL-bO7ZUaTfRSPN4GZyBmlptH1idly7uTuWYDHMGkUVBUae6cgIS5-F29fYZsNeMZiYH86Eg9eroDYECxwdqYHpGCXeP0JvKV5H5ITPaTg9LVlHo3QaiFb6hTFik1Dy4ly_]--></g></svg>