<?xml version="1.0" encoding="us-ascii" standalone="no"?><svg xmlns="http://www.w3.org/2000/svg" xmlns:xlink="http://www.w3.org/1999/xlink" contentStyleType="text/css" height="790px" preserveAspectRatio="none" style="width:757px;height:790px;background:#FFFFFF;" version="1.1" viewBox="0 0 757 790" width="757px" zoomAndPan="magnify"><defs/><g><text fill="#000000" font-family="sans-serif" font-size="14" font-weight="bold" lengthAdjust="spacing" textLength="228" x="265.75" y="30.1074">System Sequence Diagram (SSD)</text><rect fill="#FFFFFF" height="565.2578" style="stroke:#181818;stroke-width:1.0;" width="10" x="79.5" y="133.2422"/><rect fill="#FFFFFF" height="31.291" style="stroke:#181818;stroke-width:1.0;" width="10" x="529.5" y="156.5332"/><rect fill="#FFFFFF" height="31.291" style="stroke:#181818;stroke-width:1.0;" width="10" x="529.5" y="219.1152"/><rect fill="#FFFFFF" height="101.873" style="stroke:#181818;stroke-width:1.0;" width="10" x="529.5" y="281.6973"/><rect fill="none" height="349.5117" style="stroke:#000000;stroke-width:1.5;" width="740.5" x="10" y="340.9883"/><rect fill="none" height="224.0078" style="stroke:#000000;stroke-width:1.5;" width="662.5" x="20" y="459.4922"/><rect fill="none" height="98.5039" style="stroke:#000000;stroke-width:1.5;" width="546.5" x="30" y="577.9961"/><line style="stroke:#181818;stroke-width:0.5;stroke-dasharray:5.0,5.0;" x1="84" x2="84" y1="123.2422" y2="707.5"/><line style="stroke:#181818;stroke-width:0.5;stroke-dasharray:5.0,5.0;" x1="534.5" x2="534.5" y1="123.2422" y2="707.5"/><text fill="#000000" font-family="sans-serif" font-size="14" lengthAdjust="spacing" textLength="83" x="40" y="119.7285">Administrator</text><ellipse cx="84.5" cy="53.1211" fill="#E3E3E3" rx="8" ry="8" style="stroke:#181818;stroke-width:0.5;"/><path d="M84.5,61.1211 L84.5,88.1211 M71.5,69.1211 L97.5,69.1211 M84.5,88.1211 L71.5,103.1211 M84.5,88.1211 L97.5,103.1211 " fill="none" style="stroke:#181818;stroke-width:0.5;"/><text fill="#000000" font-family="sans-serif" font-size="14" lengthAdjust="spacing" textLength="83" x="40" y="721.6074">Administrator</text><ellipse cx="84.5" cy="733.6211" fill="#E3E3E3" rx="8" ry="8" style="stroke:#181818;stroke-width:0.5;"/><path d="M84.5,741.6211 L84.5,768.6211 M71.5,749.6211 L97.5,749.6211 M84.5,768.6211 L71.5,783.6211 M84.5,768.6211 L97.5,783.6211 " fill="none" style="stroke:#181818;stroke-width:0.5;"/><rect fill="#E3E3E3" height="32.6211" rx="2.5" ry="2.5" style="stroke:#181818;stroke-width:0.5;" width="64" x="502.5" y="89.6211"/><text fill="#000000" font-family="sans-serif" font-size="14" lengthAdjust="spacing" textLength="50" x="509.5" y="111.7285">:System</text><rect fill="#E3E3E3" height="32.6211" rx="2.5" ry="2.5" style="stroke:#181818;stroke-width:0.5;" width="64" x="502.5" y="706.5"/><text fill="#000000" font-family="sans-serif" font-size="14" lengthAdjust="spacing" textLength="50" x="509.5" y="728.6074">:System</text><rect fill="#FFFFFF" height="565.2578" style="stroke:#181818;stroke-width:1.0;" width="10" x="79.5" y="133.2422"/><rect fill="#FFFFFF" height="31.291" style="stroke:#181818;stroke-width:1.0;" width="10" x="529.5" y="156.5332"/><rect fill="#FFFFFF" height="31.291" style="stroke:#181818;stroke-width:1.0;" width="10" x="529.5" y="219.1152"/><rect fill="#FFFFFF" height="101.873" style="stroke:#181818;stroke-width:1.0;" width="10" x="529.5" y="281.6973"/><polygon fill="#181818" points="517.5,152.5332,527.5,156.5332,517.5,160.5332,521.5,156.5332" style="stroke:#181818;stroke-width:1.0;"/><line style="stroke:#181818;stroke-width:1.0;" x1="89.5" x2="523.5" y1="156.5332" y2="156.5332"/><text fill="#000000" font-family="sans-serif" font-size="13" font-weight="bold" lengthAdjust="spacing" textLength="7" x="96.5" y="151.2705">1</text><text fill="#000000" font-family="sans-serif" font-size="13" lengthAdjust="spacing" textLength="177" x="107.5" y="151.2705">asks to register a new supplier</text><polygon fill="#181818" points="100.5,183.8242,90.5,187.8242,100.5,191.8242,96.5,187.8242" style="stroke:#181818;stroke-width:1.0;"/><line style="stroke:#181818;stroke-width:1.0;stroke-dasharray:2.0,2.0;" x1="94.5" x2="533.5" y1="187.8242" y2="187.8242"/><text fill="#000000" font-family="sans-serif" font-size="13" font-weight="bold" lengthAdjust="spacing" textLength="7" x="106.5" y="182.5615">2</text><text fill="#000000" font-family="sans-serif" font-size="13" lengthAdjust="spacing" textLength="296" x="117.5" y="182.5615">shows the list of supplier and requests confirmation</text><polygon fill="#181818" points="517.5,215.1152,527.5,219.1152,517.5,223.1152,521.5,219.1152" style="stroke:#181818;stroke-width:1.0;"/><line style="stroke:#181818;stroke-width:1.0;" x1="89.5" x2="523.5" y1="219.1152" y2="219.1152"/><text fill="#000000" font-family="sans-serif" font-size="13" font-weight="bold" lengthAdjust="spacing" textLength="7" x="96.5" y="213.8525">3</text><text fill="#000000" font-family="sans-serif" font-size="13" lengthAdjust="spacing" textLength="280" x="107.5" y="213.8525">confirms that he wants to register a new supplier</text><polygon fill="#181818" points="100.5,246.4063,90.5,250.4063,100.5,254.4063,96.5,250.4063" style="stroke:#181818;stroke-width:1.0;"/><line style="stroke:#181818;stroke-width:1.0;stroke-dasharray:2.0,2.0;" x1="94.5" x2="533.5" y1="250.4063" y2="250.4063"/><text fill="#000000" font-family="sans-serif" font-size="13" font-weight="bold" lengthAdjust="spacing" textLength="7" x="106.5" y="245.1436">4</text><text fill="#000000" font-family="sans-serif" font-size="13" lengthAdjust="spacing" textLength="405" x="117.5" y="245.1436">requests data (i.e. Name and Contact Info (Phone Number and Email))</text><polygon fill="#181818" points="517.5,277.6973,527.5,281.6973,517.5,285.6973,521.5,281.6973" style="stroke:#181818;stroke-width:1.0;"/><line style="stroke:#181818;stroke-width:1.0;" x1="89.5" x2="523.5" y1="281.6973" y2="281.6973"/><text fill="#000000" font-family="sans-serif" font-size="13" font-weight="bold" lengthAdjust="spacing" textLength="7" x="96.5" y="276.4346">5</text><text fill="#000000" font-family="sans-serif" font-size="13" lengthAdjust="spacing" textLength="122" x="107.5" y="276.4346">types requested data</text><line style="stroke:#181818;stroke-width:1.0;" x1="539.5" x2="581.5" y1="312.9883" y2="312.9883"/><line style="stroke:#181818;stroke-width:1.0;" x1="581.5" x2="581.5" y1="312.9883" y2="325.9883"/><line style="stroke:#181818;stroke-width:1.0;" x1="540.5" x2="581.5" y1="325.9883" y2="325.9883"/><polygon fill="#181818" points="550.5,321.9883,540.5,325.9883,550.5,329.9883,546.5,325.9883" style="stroke:#181818;stroke-width:1.0;"/><text fill="#000000" font-family="sans-serif" font-size="13" font-weight="bold" lengthAdjust="spacing" textLength="7" x="546.5" y="307.7256">6</text><text fill="#000000" font-family="sans-serif" font-size="13" lengthAdjust="spacing" textLength="101" x="557.5" y="307.7256">validates the data</text><path d="M10,340.9883 L71,340.9883 L71,350.2793 L61,360.2793 L10,360.2793 L10,340.9883 " fill="#EEEEEE" style="stroke:#000000;stroke-width:1.5;"/><rect fill="none" height="349.5117" style="stroke:#000000;stroke-width:1.5;" width="740.5" x="10" y="340.9883"/><text fill="#000000" font-family="sans-serif" font-size="13" font-weight="bold" lengthAdjust="spacing" textLength="16" x="25" y="356.0166">alt</text><text fill="#000000" font-family="sans-serif" font-size="11" font-weight="bold" lengthAdjust="spacing" textLength="69" x="86" y="354.8584">[invalid data]</text><polygon fill="#181818" points="100.5,379.5703,90.5,383.5703,100.5,387.5703,96.5,383.5703" style="stroke:#181818;stroke-width:1.0;"/><line style="stroke:#181818;stroke-width:1.0;stroke-dasharray:2.0,2.0;" x1="94.5" x2="533.5" y1="383.5703" y2="383.5703"/><text fill="#000000" font-family="sans-serif" font-size="13" font-weight="bold" lengthAdjust="spacing" textLength="7" x="106.5" y="378.3076">7</text><text fill="#000000" font-family="sans-serif" font-size="13" lengthAdjust="spacing" textLength="200" x="117.5" y="378.3076">shows error message (Invalid data)</text><line style="stroke:#000000;stroke-width:1.0;stroke-dasharray:2.0,2.0;" x1="10" x2="750.5" y1="392.5703" y2="392.5703"/><text fill="#000000" font-family="sans-serif" font-size="11" font-weight="bold" lengthAdjust="spacing" textLength="59" x="15" y="404.4404">[valid data]</text><line style="stroke:#181818;stroke-width:1.0;" x1="534.5" x2="576.5" y1="431.4922" y2="431.4922"/><line style="stroke:#181818;stroke-width:1.0;" x1="576.5" x2="576.5" y1="431.4922" y2="444.4922"/><line style="stroke:#181818;stroke-width:1.0;" x1="535.5" x2="576.5" y1="444.4922" y2="444.4922"/><polygon fill="#181818" points="545.5,440.4922,535.5,444.4922,545.5,448.4922,541.5,444.4922" style="stroke:#181818;stroke-width:1.0;"/><text fill="#000000" font-family="sans-serif" font-size="13" font-weight="bold" lengthAdjust="spacing" textLength="7" x="541.5" y="426.2295">8</text><text fill="#000000" font-family="sans-serif" font-size="13" lengthAdjust="spacing" textLength="186" x="552.5" y="426.2295">checks if supplier already exists</text><path d="M20,459.4922 L81,459.4922 L81,468.7832 L71,478.7832 L20,478.7832 L20,459.4922 " fill="#EEEEEE" style="stroke:#000000;stroke-width:1.5;"/><rect fill="none" height="224.0078" style="stroke:#000000;stroke-width:1.5;" width="662.5" x="20" y="459.4922"/><text fill="#000000" font-family="sans-serif" font-size="13" font-weight="bold" lengthAdjust="spacing" textLength="16" x="35" y="474.5205">alt</text><text fill="#000000" font-family="sans-serif" font-size="11" font-weight="bold" lengthAdjust="spacing" textLength="91" x="96" y="473.3623">[supplier exists]</text><polygon fill="#181818" points="100.5,498.0742,90.5,502.0742,100.5,506.0742,96.5,502.0742" style="stroke:#181818;stroke-width:1.0;"/><line style="stroke:#181818;stroke-width:1.0;stroke-dasharray:2.0,2.0;" x1="94.5" x2="533.5" y1="502.0742" y2="502.0742"/><text fill="#000000" font-family="sans-serif" font-size="13" font-weight="bold" lengthAdjust="spacing" textLength="7" x="106.5" y="496.8115">9</text><text fill="#000000" font-family="sans-serif" font-size="13" lengthAdjust="spacing" textLength="290" x="117.5" y="496.8115">shows error message (Supplier already registered)</text><line style="stroke:#000000;stroke-width:1.0;stroke-dasharray:2.0,2.0;" x1="20" x2="682.5" y1="511.0742" y2="511.0742"/><text fill="#000000" font-family="sans-serif" font-size="11" font-weight="bold" lengthAdjust="spacing" textLength="136" x="25" y="522.9443">[supplier does not exist]</text><line style="stroke:#181818;stroke-width:1.0;" x1="534.5" x2="576.5" y1="549.9961" y2="549.9961"/><line style="stroke:#181818;stroke-width:1.0;" x1="576.5" x2="576.5" y1="549.9961" y2="562.9961"/><line style="stroke:#181818;stroke-width:1.0;" x1="535.5" x2="576.5" y1="562.9961" y2="562.9961"/><polygon fill="#181818" points="545.5,558.9961,535.5,562.9961,545.5,566.9961,541.5,562.9961" style="stroke:#181818;stroke-width:1.0;"/><text fill="#000000" font-family="sans-serif" font-size="13" font-weight="bold" lengthAdjust="spacing" textLength="14" x="541.5" y="544.7334">10</text><text fill="#000000" font-family="sans-serif" font-size="13" lengthAdjust="spacing" textLength="111" x="559.5" y="544.7334">saves supplier data</text><path d="M30,577.9961 L91,577.9961 L91,587.2871 L81,597.2871 L30,597.2871 L30,577.9961 " fill="#EEEEEE" style="stroke:#000000;stroke-width:1.5;"/><rect fill="none" height="98.5039" style="stroke:#000000;stroke-width:1.5;" width="546.5" x="30" y="577.9961"/><text fill="#000000" font-family="sans-serif" font-size="13" font-weight="bold" lengthAdjust="spacing" textLength="16" x="45" y="593.0244">alt</text><text fill="#000000" font-family="sans-serif" font-size="11" font-weight="bold" lengthAdjust="spacing" textLength="82" x="106" y="591.8662">[system error]</text><polygon fill="#181818" points="100.5,616.5781,90.5,620.5781,100.5,624.5781,96.5,620.5781" style="stroke:#181818;stroke-width:1.0;"/><line style="stroke:#181818;stroke-width:1.0;stroke-dasharray:2.0,2.0;" x1="94.5" x2="533.5" y1="620.5781" y2="620.5781"/><text fill="#000000" font-family="sans-serif" font-size="13" font-weight="bold" lengthAdjust="spacing" textLength="14" x="106.5" y="615.3154">11</text><text fill="#000000" font-family="sans-serif" font-size="13" lengthAdjust="spacing" textLength="221" x="124.5" y="615.3154">shows error message (Database error)</text><line style="stroke:#000000;stroke-width:1.0;stroke-dasharray:2.0,2.0;" x1="30" x2="576.5" y1="629.5781" y2="629.5781"/><text fill="#000000" font-family="sans-serif" font-size="11" font-weight="bold" lengthAdjust="spacing" textLength="55" x="35" y="641.4482">[success]</text><polygon fill="#181818" points="100.5,664.5,90.5,668.5,100.5,672.5,96.5,668.5" style="stroke:#181818;stroke-width:1.0;"/><line style="stroke:#181818;stroke-width:1.0;stroke-dasharray:2.0,2.0;" x1="94.5" x2="533.5" y1="668.5" y2="668.5"/><text fill="#000000" font-family="sans-serif" font-size="13" font-weight="bold" lengthAdjust="spacing" textLength="14" x="106.5" y="663.2373">12</text><text fill="#000000" font-family="sans-serif" font-size="13" lengthAdjust="spacing" textLength="270" x="124.5" y="663.2373">shows all data and displays operation success</text><!--SRC=[hPHDRkCm38NtFWMHLRne3v15WQAPHHTJ5F09M8cnXSYIAz59VVlISkmwlvC2uvKSaX_V4-d4hN4D1goXziwhAlYQW4DBMPmY3QejbbHmPma2AKPNsdb2h53xlN4bRD16oZ8sBAb55vbgAEYp9QS8rWRBFdrP5Eiyox1bxzhwWuAS5Vi0YsTT6sSY1vJN1M24v_NVJ9gmKQP1nx1O3TGK78wfskoGAMLd88ySuE5fLB2Iv6q4zgA-53m5G72qXzWsZJKYeA-PA2CM3i-1yY30dhiIltulk8h02WtyPW81EYrDn73a2CgxZGaril4kqJHTR7Agzb3Njq06QRCNw_zH_oHG8oCipICzmXlAu7lrBzwneE3LRJmitoll2DxIc5BuJut6vlblx73NK1oRaavTxrCyW-pG6YcauTudHC9O1kDImd7Wnl0e15cuccAKpORbwwmyFwe_zpX6I5OT_j5rFjIAb2oXcI-B3OIw0_gIeSOZGEzfohiGlzzQSTfjt27I-Hdokjl9yQHAUnc6ypp8kwfkTWKHTrBo0pYzjSduK92Cd2NSxtmj_0yKoUdt_2Bfjk6PQQK4-ninQEtmVVLVZJQniTX5y0s5z7zm4tc7AgUpQ-zo_WO0]--></g></svg>