<?xml version="1.0" encoding="us-ascii" standalone="no"?><svg xmlns="http://www.w3.org/2000/svg" xmlns:xlink="http://www.w3.org/1999/xlink" contentStyleType="text/css" height="932px" preserveAspectRatio="none" style="width:773px;height:932px;background:#FFFFFF;" version="1.1" viewBox="0 0 773 932" width="773px" zoomAndPan="magnify"><defs/><g><text fill="#000000" font-family="sans-serif" font-size="14" font-weight="bold" lengthAdjust="spacing" textLength="228" x="273.5" y="30.1074">System Sequence Diagram (SSD)</text><rect fill="#FFFFFF" height="707.082" style="stroke:#181818;stroke-width:1.0;" width="10" x="92" y="133.2422"/><rect fill="#FFFFFF" height="31.291" style="stroke:#181818;stroke-width:1.0;" width="10" x="528" y="156.5332"/><rect fill="#FFFFFF" height="57.582" style="stroke:#181818;stroke-width:1.0;" width="10" x="528" y="219.1152"/><rect fill="#FFFFFF" height="101.873" style="stroke:#181818;stroke-width:1.0;" width="10" x="528" y="307.9883"/><rect fill="#FFFFFF" height="101.873" style="stroke:#181818;stroke-width:1.0;" width="10" x="528" y="496.0742"/><rect fill="#FFFFFF" height="101.873" style="stroke:#181818;stroke-width:1.0;" width="10" x="528" y="674.5293"/><rect fill="none" height="378.832" style="stroke:#000000;stroke-width:1.5;" width="756" x="10" y="234.1152"/><rect fill="none" height="50.582" style="stroke:#000000;stroke-width:1.5;" width="555" x="20" y="367.2793"/><rect fill="none" height="50.582" style="stroke:#000000;stroke-width:1.5;" width="555" x="20" y="555.3652"/><rect fill="none" height="98.5039" style="stroke:#000000;stroke-width:1.5;" width="555" x="20" y="733.8203"/><line style="stroke:#181818;stroke-width:0.5;stroke-dasharray:5.0,5.0;" x1="97" x2="97" y1="123.2422" y2="849.3242"/><line style="stroke:#181818;stroke-width:0.5;stroke-dasharray:5.0,5.0;" x1="533" x2="533" y1="123.2422" y2="849.3242"/><text fill="#000000" font-family="sans-serif" font-size="14" lengthAdjust="spacing" textLength="128" x="30" y="119.7285">Production Manager</text><ellipse cx="97" cy="53.1211" fill="#E3E3E3" rx="8" ry="8" style="stroke:#181818;stroke-width:0.5;"/><path d="M97,61.1211 L97,88.1211 M84,69.1211 L110,69.1211 M97,88.1211 L84,103.1211 M97,88.1211 L110,103.1211 " fill="none" style="stroke:#181818;stroke-width:0.5;"/><text fill="#000000" font-family="sans-serif" font-size="14" lengthAdjust="spacing" textLength="128" x="30" y="863.4316">Production Manager</text><ellipse cx="97" cy="875.4453" fill="#E3E3E3" rx="8" ry="8" style="stroke:#181818;stroke-width:0.5;"/><path d="M97,883.4453 L97,910.4453 M84,891.4453 L110,891.4453 M97,910.4453 L84,925.4453 M97,910.4453 L110,925.4453 " fill="none" style="stroke:#181818;stroke-width:0.5;"/><rect fill="#E3E3E3" height="32.6211" rx="2.5" ry="2.5" style="stroke:#181818;stroke-width:0.5;" width="64" x="501" y="89.6211"/><text fill="#000000" font-family="sans-serif" font-size="14" lengthAdjust="spacing" textLength="50" x="508" y="111.7285">:System</text><rect fill="#E3E3E3" height="32.6211" rx="2.5" ry="2.5" style="stroke:#181818;stroke-width:0.5;" width="64" x="501" y="848.3242"/><text fill="#000000" font-family="sans-serif" font-size="14" lengthAdjust="spacing" textLength="50" x="508" y="870.4316">:System</text><rect fill="#FFFFFF" height="707.082" style="stroke:#181818;stroke-width:1.0;" width="10" x="92" y="133.2422"/><rect fill="#FFFFFF" height="31.291" style="stroke:#181818;stroke-width:1.0;" width="10" x="528" y="156.5332"/><rect fill="#FFFFFF" height="57.582" style="stroke:#181818;stroke-width:1.0;" width="10" x="528" y="219.1152"/><rect fill="#FFFFFF" height="101.873" style="stroke:#181818;stroke-width:1.0;" width="10" x="528" y="307.9883"/><rect fill="#FFFFFF" height="101.873" style="stroke:#181818;stroke-width:1.0;" width="10" x="528" y="496.0742"/><rect fill="#FFFFFF" height="101.873" style="stroke:#181818;stroke-width:1.0;" width="10" x="528" y="674.5293"/><polygon fill="#181818" points="516,152.5332,526,156.5332,516,160.5332,520,156.5332" style="stroke:#181818;stroke-width:1.0;"/><line style="stroke:#181818;stroke-width:1.0;" x1="102" x2="522" y1="156.5332" y2="156.5332"/><text fill="#000000" font-family="sans-serif" font-size="13" font-weight="bold" lengthAdjust="spacing" textLength="7" x="109" y="151.2705">1</text><text fill="#000000" font-family="sans-serif" font-size="13" lengthAdjust="spacing" textLength="175" x="120" y="151.2705">asks to register a new product</text><polygon fill="#181818" points="113,183.8242,103,187.8242,113,191.8242,109,187.8242" style="stroke:#181818;stroke-width:1.0;"/><line style="stroke:#181818;stroke-width:1.0;stroke-dasharray:2.0,2.0;" x1="107" x2="532" y1="187.8242" y2="187.8242"/><text fill="#000000" font-family="sans-serif" font-size="13" font-weight="bold" lengthAdjust="spacing" textLength="7" x="119" y="182.5615">2</text><text fill="#000000" font-family="sans-serif" font-size="13" lengthAdjust="spacing" textLength="158" x="130" y="182.5615">shows the list of categories</text><polygon fill="#181818" points="516,215.1152,526,219.1152,516,223.1152,520,219.1152" style="stroke:#181818;stroke-width:1.0;"/><line style="stroke:#181818;stroke-width:1.0;" x1="102" x2="522" y1="219.1152" y2="219.1152"/><text fill="#000000" font-family="sans-serif" font-size="13" font-weight="bold" lengthAdjust="spacing" textLength="7" x="109" y="213.8525">3</text><text fill="#000000" font-family="sans-serif" font-size="13" lengthAdjust="spacing" textLength="237" x="120" y="213.8525">selects an option (new/existing category)</text><path d="M10,234.1152 L71,234.1152 L71,243.4063 L61,253.4063 L10,253.4063 L10,234.1152 " fill="#EEEEEE" style="stroke:#000000;stroke-width:1.5;"/><rect fill="none" height="378.832" style="stroke:#000000;stroke-width:1.5;" width="756" x="10" y="234.1152"/><text fill="#000000" font-family="sans-serif" font-size="13" font-weight="bold" lengthAdjust="spacing" textLength="16" x="25" y="249.1436">alt</text><text fill="#000000" font-family="sans-serif" font-size="11" font-weight="bold" lengthAdjust="spacing" textLength="83" x="86" y="247.9854">[new category]</text><polygon fill="#181818" points="113,272.6973,103,276.6973,113,280.6973,109,276.6973" style="stroke:#181818;stroke-width:1.0;"/><line style="stroke:#181818;stroke-width:1.0;stroke-dasharray:2.0,2.0;" x1="107" x2="532" y1="276.6973" y2="276.6973"/><text fill="#000000" font-family="sans-serif" font-size="13" font-weight="bold" lengthAdjust="spacing" textLength="7" x="119" y="271.4346">4</text><text fill="#000000" font-family="sans-serif" font-size="13" lengthAdjust="spacing" textLength="140" x="130" y="271.4346">requests category name</text><polygon fill="#181818" points="516,303.9883,526,307.9883,516,311.9883,520,307.9883" style="stroke:#181818;stroke-width:1.0;"/><line style="stroke:#181818;stroke-width:1.0;" x1="102" x2="522" y1="307.9883" y2="307.9883"/><text fill="#000000" font-family="sans-serif" font-size="13" font-weight="bold" lengthAdjust="spacing" textLength="7" x="109" y="302.7256">5</text><text fill="#000000" font-family="sans-serif" font-size="13" lengthAdjust="spacing" textLength="137" x="120" y="302.7256">provides category name</text><line style="stroke:#181818;stroke-width:1.0;" x1="538" x2="580" y1="339.2793" y2="339.2793"/><line style="stroke:#181818;stroke-width:1.0;" x1="580" x2="580" y1="339.2793" y2="352.2793"/><line style="stroke:#181818;stroke-width:1.0;" x1="539" x2="580" y1="352.2793" y2="352.2793"/><polygon fill="#181818" points="549,348.2793,539,352.2793,549,356.2793,545,352.2793" style="stroke:#181818;stroke-width:1.0;"/><text fill="#000000" font-family="sans-serif" font-size="13" font-weight="bold" lengthAdjust="spacing" textLength="7" x="545" y="334.0166">6</text><text fill="#000000" font-family="sans-serif" font-size="13" lengthAdjust="spacing" textLength="87" x="556" y="334.0166">saves category</text><path d="M20,367.2793 L81,367.2793 L81,376.5703 L71,386.5703 L20,386.5703 L20,367.2793 " fill="#EEEEEE" style="stroke:#000000;stroke-width:1.5;"/><rect fill="none" height="50.582" style="stroke:#000000;stroke-width:1.5;" width="555" x="20" y="367.2793"/><text fill="#000000" font-family="sans-serif" font-size="13" font-weight="bold" lengthAdjust="spacing" textLength="16" x="35" y="382.3076">alt</text><text fill="#000000" font-family="sans-serif" font-size="11" font-weight="bold" lengthAdjust="spacing" textLength="82" x="96" y="381.1494">[system error]</text><polygon fill="#181818" points="113,405.8613,103,409.8613,113,413.8613,109,409.8613" style="stroke:#181818;stroke-width:1.0;"/><line style="stroke:#181818;stroke-width:1.0;stroke-dasharray:2.0,2.0;" x1="107" x2="532" y1="409.8613" y2="409.8613"/><text fill="#000000" font-family="sans-serif" font-size="13" font-weight="bold" lengthAdjust="spacing" textLength="7" x="119" y="404.5986">7</text><text fill="#000000" font-family="sans-serif" font-size="13" lengthAdjust="spacing" textLength="221" x="130" y="404.5986">shows error message (Database error)</text><line style="stroke:#000000;stroke-width:1.0;stroke-dasharray:2.0,2.0;" x1="10" x2="766" y1="425.8613" y2="425.8613"/><text fill="#000000" font-family="sans-serif" font-size="11" font-weight="bold" lengthAdjust="spacing" textLength="103" x="15" y="437.7314">[existing category]</text><polygon fill="#181818" points="113,460.7832,103,464.7832,113,468.7832,109,464.7832" style="stroke:#181818;stroke-width:1.0;"/><line style="stroke:#181818;stroke-width:1.0;stroke-dasharray:2.0,2.0;" x1="107" x2="532" y1="464.7832" y2="464.7832"/><text fill="#000000" font-family="sans-serif" font-size="13" font-weight="bold" lengthAdjust="spacing" textLength="7" x="119" y="459.5205">8</text><text fill="#000000" font-family="sans-serif" font-size="13" lengthAdjust="spacing" textLength="120" x="130" y="459.5205">requests category ID</text><polygon fill="#181818" points="516,492.0742,526,496.0742,516,500.0742,520,496.0742" style="stroke:#181818;stroke-width:1.0;"/><line style="stroke:#181818;stroke-width:1.0;" x1="102" x2="522" y1="496.0742" y2="496.0742"/><text fill="#000000" font-family="sans-serif" font-size="13" font-weight="bold" lengthAdjust="spacing" textLength="7" x="109" y="490.8115">9</text><text fill="#000000" font-family="sans-serif" font-size="13" lengthAdjust="spacing" textLength="117" x="120" y="490.8115">provides category ID</text><line style="stroke:#181818;stroke-width:1.0;" x1="538" x2="580" y1="527.3652" y2="527.3652"/><line style="stroke:#181818;stroke-width:1.0;" x1="580" x2="580" y1="527.3652" y2="540.3652"/><line style="stroke:#181818;stroke-width:1.0;" x1="539" x2="580" y1="540.3652" y2="540.3652"/><polygon fill="#181818" points="549,536.3652,539,540.3652,549,544.3652,545,540.3652" style="stroke:#181818;stroke-width:1.0;"/><text fill="#000000" font-family="sans-serif" font-size="13" font-weight="bold" lengthAdjust="spacing" textLength="14" x="545" y="522.1025">10</text><text fill="#000000" font-family="sans-serif" font-size="13" lengthAdjust="spacing" textLength="191" x="563" y="522.1025">checks if category already exists</text><path d="M20,555.3652 L81,555.3652 L81,564.6563 L71,574.6563 L20,574.6563 L20,555.3652 " fill="#EEEEEE" style="stroke:#000000;stroke-width:1.5;"/><rect fill="none" height="50.582" style="stroke:#000000;stroke-width:1.5;" width="555" x="20" y="555.3652"/><text fill="#000000" font-family="sans-serif" font-size="13" font-weight="bold" lengthAdjust="spacing" textLength="16" x="35" y="570.3936">alt</text><text fill="#000000" font-family="sans-serif" font-size="11" font-weight="bold" lengthAdjust="spacing" textLength="138" x="96" y="569.2354">[category does not exist]</text><polygon fill="#181818" points="113,593.9473,103,597.9473,113,601.9473,109,597.9473" style="stroke:#181818;stroke-width:1.0;"/><line style="stroke:#181818;stroke-width:1.0;stroke-dasharray:2.0,2.0;" x1="107" x2="532" y1="597.9473" y2="597.9473"/><text fill="#000000" font-family="sans-serif" font-size="13" font-weight="bold" lengthAdjust="spacing" textLength="14" x="119" y="592.6846">11</text><text fill="#000000" font-family="sans-serif" font-size="13" lengthAdjust="spacing" textLength="274" x="137" y="592.6846">shows error message (Category does not exist)</text><polygon fill="#181818" points="113,639.2383,103,643.2383,113,647.2383,109,643.2383" style="stroke:#181818;stroke-width:1.0;"/><line style="stroke:#181818;stroke-width:1.0;stroke-dasharray:2.0,2.0;" x1="107" x2="532" y1="643.2383" y2="643.2383"/><text fill="#000000" font-family="sans-serif" font-size="13" font-weight="bold" lengthAdjust="spacing" textLength="14" x="119" y="637.9756">12</text><text fill="#000000" font-family="sans-serif" font-size="13" lengthAdjust="spacing" textLength="389" x="137" y="637.9756">requests data (i.e. Name, Description, Capacity, Size, Color, Price)</text><polygon fill="#181818" points="516,670.5293,526,674.5293,516,678.5293,520,674.5293" style="stroke:#181818;stroke-width:1.0;"/><line style="stroke:#181818;stroke-width:1.0;" x1="102" x2="522" y1="674.5293" y2="674.5293"/><text fill="#000000" font-family="sans-serif" font-size="13" font-weight="bold" lengthAdjust="spacing" textLength="14" x="109" y="669.2666">13</text><text fill="#000000" font-family="sans-serif" font-size="13" lengthAdjust="spacing" textLength="122" x="127" y="669.2666">types requested data</text><line style="stroke:#181818;stroke-width:1.0;" x1="538" x2="580" y1="705.8203" y2="705.8203"/><line style="stroke:#181818;stroke-width:1.0;" x1="580" x2="580" y1="705.8203" y2="718.8203"/><line style="stroke:#181818;stroke-width:1.0;" x1="539" x2="580" y1="718.8203" y2="718.8203"/><polygon fill="#181818" points="549,714.8203,539,718.8203,549,722.8203,545,718.8203" style="stroke:#181818;stroke-width:1.0;"/><text fill="#000000" font-family="sans-serif" font-size="13" font-weight="bold" lengthAdjust="spacing" textLength="14" x="545" y="700.5576">14</text><text fill="#000000" font-family="sans-serif" font-size="13" lengthAdjust="spacing" textLength="109" x="563" y="700.5576">saves product data</text><path d="M20,733.8203 L81,733.8203 L81,743.1113 L71,753.1113 L20,753.1113 L20,733.8203 " fill="#EEEEEE" style="stroke:#000000;stroke-width:1.5;"/><rect fill="none" height="98.5039" style="stroke:#000000;stroke-width:1.5;" width="555" x="20" y="733.8203"/><text fill="#000000" font-family="sans-serif" font-size="13" font-weight="bold" lengthAdjust="spacing" textLength="16" x="35" y="748.8486">alt</text><text fill="#000000" font-family="sans-serif" font-size="11" font-weight="bold" lengthAdjust="spacing" textLength="82" x="96" y="747.6904">[system error]</text><polygon fill="#181818" points="113,772.4023,103,776.4023,113,780.4023,109,776.4023" style="stroke:#181818;stroke-width:1.0;"/><line style="stroke:#181818;stroke-width:1.0;stroke-dasharray:2.0,2.0;" x1="107" x2="532" y1="776.4023" y2="776.4023"/><text fill="#000000" font-family="sans-serif" font-size="13" font-weight="bold" lengthAdjust="spacing" textLength="14" x="119" y="771.1396">15</text><text fill="#000000" font-family="sans-serif" font-size="13" lengthAdjust="spacing" textLength="221" x="137" y="771.1396">shows error message (Database error)</text><line style="stroke:#000000;stroke-width:1.0;stroke-dasharray:2.0,2.0;" x1="20" x2="575" y1="785.4023" y2="785.4023"/><text fill="#000000" font-family="sans-serif" font-size="11" font-weight="bold" lengthAdjust="spacing" textLength="55" x="25" y="797.2725">[success]</text><polygon fill="#181818" points="113,820.3242,103,824.3242,113,828.3242,109,824.3242" style="stroke:#181818;stroke-width:1.0;"/><line style="stroke:#181818;stroke-width:1.0;stroke-dasharray:2.0,2.0;" x1="107" x2="532" y1="824.3242" y2="824.3242"/><text fill="#000000" font-family="sans-serif" font-size="13" font-weight="bold" lengthAdjust="spacing" textLength="14" x="119" y="819.0615">16</text><text fill="#000000" font-family="sans-serif" font-size="13" lengthAdjust="spacing" textLength="270" x="137" y="819.0615">shows all data and displays operation success</text><!--SRC=[pPIxijem48PxFSKE5SnmJdgADD2a8CECds2Fl1WDikHePOZpz5dBc8i1XvFggF9Olxwz_5hnthWA0vPGUkVrBlYI88QQ59ztAjHxB2YBZIK8f2EwmbuBU8UvFnfNm1OjarBHH95c3KSg8QDVDJbDi39OjF9fbgrcIc4TlQlB3mhohQCFCDa4dzSw6kzWZKvYXWaWmsQj950qsbJe8amM7JdjTP-9O0uOgHKhaBLPmzltFeU5IFSCqKl-XP5V0H0S7Q7g8gOJPqJFXDCwGTw49zI5rEkF0jiHM661tuAMOuKFXZWTokaXQv0IavLcCg03NwMYfvBID_ejqBQP9sWpUvuTsfZAwAMNd1_b7LedM2BsSd1OqisH9vdtQr21TEzWSXe3ZkBw1A-RWeShteswBvWxBONWmvtWkLz93oKnoyM2wGeZVY1Jzt_s47JVZQ62NDwLHBP53QrBM-frFtwir7XizR8JLwXHq0CFz8wqJ8lPNcXe0s7UT1Mo6bforkLUSd0-TiB_TsVv67XlqxX5hJqtDetQaCkLWAbvftVuAVTu3YjY7KoQpJaiKHv24vivPEQFR2wzzM4Ecs0qpJunzh6ffAHJKCfJLFNFKHaTbzChTa5zwP5f9uLhhGNxYLpGsiuWTD8pmvN5XkNXf83fxHmZlZJ7Vm40]--></g></svg>