<?xml version="1.0" encoding="us-ascii" standalone="no"?><svg xmlns="http://www.w3.org/2000/svg" xmlns:xlink="http://www.w3.org/1999/xlink" contentStyleType="text/css" height="673.5px" preserveAspectRatio="none" style="width:1100px;height:673px;background:#FFFFFF;" version="1.1" viewBox="0 0 1100 673" width="1100px" zoomAndPan="magnify"><defs/><g><!--cluster UI--><g id="cluster_UI"><rect fill="none" height="50.5" rx="1.25" ry="1.25" style="stroke:#000000;stroke-width:0.75;" width="126" x="609.5" y="3.5"/><text fill="#000000" font-family="sans-serif" font-size="7" font-weight="bold" lengthAdjust="spacing" textLength="7" x="669" y="12.0537">UI</text></g><!--cluster Controller--><g id="cluster_Controller"><rect fill="none" height="60" rx="1.25" ry="1.25" style="stroke:#000000;stroke-width:0.75;" width="253.5" x="536" y="70.5"/><text fill="#000000" font-family="sans-serif" font-size="7" font-weight="bold" lengthAdjust="spacing" textLength="35.5" x="645" y="79.0537">Controller</text></g><!--cluster Service--><g id="cluster_Service"><rect fill="none" height="69" rx="1.25" ry="1.25" style="stroke:#000000;stroke-width:0.75;" width="342.5" x="431" y="147"/><text fill="#000000" font-family="sans-serif" font-size="7" font-weight="bold" lengthAdjust="spacing" textLength="27" x="588.75" y="155.5537">Service</text></g><!--cluster Repository--><g id="cluster_Repository"><rect fill="none" height="185.75" rx="1.25" ry="1.25" style="stroke:#000000;stroke-width:0.75;" width="364.5" x="3.5" y="241.5"/><text fill="#000000" font-family="sans-serif" font-size="7" font-weight="bold" lengthAdjust="spacing" textLength="38" x="166.75" y="250.0537">Repository</text></g><!--cluster Model--><g id="cluster_Model"><rect fill="none" height="317" rx="1.25" ry="1.25" style="stroke:#000000;stroke-width:0.75;" width="503" x="594" y="353.5"/><text fill="#000000" font-family="sans-serif" font-size="7" font-weight="bold" lengthAdjust="spacing" textLength="22" x="834.5" y="362.0537">Model</text></g><!--cluster Exception--><g id="cluster_Exception"><rect fill="none" height="171.75" rx="1.25" ry="1.25" style="stroke:#000000;stroke-width:0.75;" width="202" x="380" y="250.75"/><text fill="#000000" font-family="sans-serif" font-size="7" font-weight="bold" lengthAdjust="spacing" textLength="35" x="463.5" y="259.3037">Exception</text></g><!--class SimulatorProductionProductUI--><g id="elem_SimulatorProductionProductUI"><rect codeLine="7" fill="#F1F1F1" height="24" id="SimulatorProductionProductUI" rx="1.25" ry="1.25" style="stroke:#181818;stroke-width:0.25;" width="110" x="617.5" y="22"/><ellipse cx="625" cy="30" fill="#ADD1B2" rx="5.5" ry="5.5" style="stroke:#181818;stroke-width:0.5;"/><path d="M626.3828,27.9375 Q626.4609,27.8281 626.5547,27.7734 Q626.6484,27.7188 626.7578,27.7188 Q626.9453,27.7188 627.0625,27.8516 Q627.1797,27.9766 627.1797,28.2813 L627.1797,29.0078 Q627.1797,29.3125 627.0625,29.4453 Q626.9453,29.5781 626.7578,29.5781 Q626.5859,29.5781 626.4844,29.4766 Q626.3828,29.3828 626.3281,29.125 Q626.3047,28.9453 626.2109,28.8516 Q626.0469,28.6641 625.7422,28.5547 Q625.4375,28.4453 625.125,28.4453 Q624.7422,28.4453 624.4219,28.6094 Q624.1094,28.7734 623.8594,29.1484 Q623.6172,29.5234 623.6172,30.0391 L623.6172,30.5859 Q623.6172,31.2031 624.0625,31.6172 Q624.5078,32.0234 625.3047,32.0234 Q625.7734,32.0234 626.1016,31.8984 Q626.2969,31.8203 626.5078,31.6016 Q626.6406,31.4688 626.7109,31.4297 Q626.7891,31.3906 626.8906,31.3906 Q627.0547,31.3906 627.1797,31.5234 Q627.3125,31.6484 627.3125,31.8203 Q627.3125,31.9922 627.1406,32.1953 Q626.8906,32.4844 626.4922,32.6484 Q625.9531,32.875 625.3047,32.875 Q624.5469,32.875 623.9453,32.5625 Q623.4531,32.3125 623.1094,31.7813 Q622.7656,31.2422 622.7656,30.6016 L622.7656,30.0234 Q622.7656,29.3594 623.0703,28.7891 Q623.3828,28.2109 623.9297,27.9063 Q624.4766,27.5938 625.0938,27.5938 Q625.4609,27.5938 625.7813,27.6797 Q626.1094,27.7578 626.3828,27.9375 Z " fill="#000000"/><text fill="#000000" font-family="sans-serif" font-size="7" lengthAdjust="spacing" textLength="94" x="632" y="32.8984">SimulatorProductionProductUI</text><line style="stroke:#181818;stroke-width:0.25;" x1="618" x2="727" y1="38" y2="38"/><line style="stroke:#181818;stroke-width:0.25;" x1="618" x2="727" y1="42" y2="42"/></g><!--class ProductController--><g id="elem_ProductController"><rect codeLine="12" fill="#F1F1F1" height="33.3105" id="ProductController" rx="1.25" ry="1.25" style="stroke:#181818;stroke-width:0.25;" width="102.5" x="544.25" y="89"/><ellipse cx="565.7" cy="97" fill="#ADD1B2" rx="5.5" ry="5.5" style="stroke:#181818;stroke-width:0.5;"/><path d="M567.0828,94.9375 Q567.1609,94.8281 567.2547,94.7734 Q567.3484,94.7188 567.4578,94.7188 Q567.6453,94.7188 567.7625,94.8516 Q567.8797,94.9766 567.8797,95.2813 L567.8797,96.0078 Q567.8797,96.3125 567.7625,96.4453 Q567.6453,96.5781 567.4578,96.5781 Q567.2859,96.5781 567.1844,96.4766 Q567.0828,96.3828 567.0281,96.125 Q567.0047,95.9453 566.9109,95.8516 Q566.7469,95.6641 566.4422,95.5547 Q566.1375,95.4453 565.825,95.4453 Q565.4422,95.4453 565.1219,95.6094 Q564.8094,95.7734 564.5594,96.1484 Q564.3172,96.5234 564.3172,97.0391 L564.3172,97.5859 Q564.3172,98.2031 564.7625,98.6172 Q565.2078,99.0234 566.0047,99.0234 Q566.4734,99.0234 566.8016,98.8984 Q566.9969,98.8203 567.2078,98.6016 Q567.3406,98.4688 567.4109,98.4297 Q567.4891,98.3906 567.5906,98.3906 Q567.7547,98.3906 567.8797,98.5234 Q568.0125,98.6484 568.0125,98.8203 Q568.0125,98.9922 567.8406,99.1953 Q567.5906,99.4844 567.1922,99.6484 Q566.6531,99.875 566.0047,99.875 Q565.2469,99.875 564.6453,99.5625 Q564.1531,99.3125 563.8094,98.7813 Q563.4656,98.2422 563.4656,97.6016 L563.4656,97.0234 Q563.4656,96.3594 563.7703,95.7891 Q564.0828,95.2109 564.6297,94.9063 Q565.1766,94.5938 565.7938,94.5938 Q566.1609,94.5938 566.4813,94.6797 Q566.8094,94.7578 567.0828,94.9375 Z " fill="#000000"/><text fill="#000000" font-family="sans-serif" font-size="7" lengthAdjust="spacing" textLength="55.5" x="575.8" y="99.8984">ProductController</text><line style="stroke:#181818;stroke-width:0.25;" x1="544.75" x2="646.25" y1="105" y2="105"/><line style="stroke:#181818;stroke-width:0.25;" x1="544.75" x2="646.25" y1="109" y2="109"/><text fill="#000000" font-family="sans-serif" font-size="7" lengthAdjust="spacing" textLength="96.5" x="547.25" y="118.5537">+getProducts() : List&lt;Product&gt;</text></g><!--class ProductionController--><g id="elem_ProductionController"><rect codeLine="16" fill="#F1F1F1" height="33.3105" id="ProductionController" rx="1.25" ry="1.25" style="stroke:#181818;stroke-width:0.25;" width="117" x="664.5" y="89"/><ellipse cx="688.375" cy="97" fill="#ADD1B2" rx="5.5" ry="5.5" style="stroke:#181818;stroke-width:0.5;"/><path d="M689.7578,94.9375 Q689.8359,94.8281 689.9297,94.7734 Q690.0234,94.7188 690.1328,94.7188 Q690.3203,94.7188 690.4375,94.8516 Q690.5547,94.9766 690.5547,95.2813 L690.5547,96.0078 Q690.5547,96.3125 690.4375,96.4453 Q690.3203,96.5781 690.1328,96.5781 Q689.9609,96.5781 689.8594,96.4766 Q689.7578,96.3828 689.7031,96.125 Q689.6797,95.9453 689.5859,95.8516 Q689.4219,95.6641 689.1172,95.5547 Q688.8125,95.4453 688.5,95.4453 Q688.1172,95.4453 687.7969,95.6094 Q687.4844,95.7734 687.2344,96.1484 Q686.9922,96.5234 686.9922,97.0391 L686.9922,97.5859 Q686.9922,98.2031 687.4375,98.6172 Q687.8828,99.0234 688.6797,99.0234 Q689.1484,99.0234 689.4766,98.8984 Q689.6719,98.8203 689.8828,98.6016 Q690.0156,98.4688 690.0859,98.4297 Q690.1641,98.3906 690.2656,98.3906 Q690.4297,98.3906 690.5547,98.5234 Q690.6875,98.6484 690.6875,98.8203 Q690.6875,98.9922 690.5156,99.1953 Q690.2656,99.4844 689.8672,99.6484 Q689.3281,99.875 688.6797,99.875 Q687.9219,99.875 687.3203,99.5625 Q686.8281,99.3125 686.4844,98.7813 Q686.1406,98.2422 686.1406,97.6016 L686.1406,97.0234 Q686.1406,96.3594 686.4453,95.7891 Q686.7578,95.2109 687.3047,94.9063 Q687.8516,94.5938 688.4688,94.5938 Q688.8359,94.5938 689.1563,94.6797 Q689.4844,94.7578 689.7578,94.9375 Z " fill="#000000"/><text fill="#000000" font-family="sans-serif" font-size="7" lengthAdjust="spacing" textLength="65" x="698.625" y="99.8984">ProductionController</text><line style="stroke:#181818;stroke-width:0.25;" x1="665" x2="781" y1="105" y2="105"/><line style="stroke:#181818;stroke-width:0.25;" x1="665" x2="781" y1="109" y2="109"/><text fill="#000000" font-family="sans-serif" font-size="7" lengthAdjust="spacing" textLength="111" x="667.5" y="118.5537">+simulator(productID) : List&lt;Event&gt;</text></g><!--class ProductService--><g id="elem_ProductService"><rect codeLine="22" fill="#F1F1F1" height="33.3105" id="ProductService" rx="1.25" ry="1.25" style="stroke:#181818;stroke-width:0.25;" width="102.5" x="439.25" y="170"/><ellipse cx="464.375" cy="178" fill="#ADD1B2" rx="5.5" ry="5.5" style="stroke:#181818;stroke-width:0.5;"/><path d="M465.7578,175.9375 Q465.8359,175.8281 465.9297,175.7734 Q466.0234,175.7188 466.1328,175.7188 Q466.3203,175.7188 466.4375,175.8516 Q466.5547,175.9766 466.5547,176.2813 L466.5547,177.0078 Q466.5547,177.3125 466.4375,177.4453 Q466.3203,177.5781 466.1328,177.5781 Q465.9609,177.5781 465.8594,177.4766 Q465.7578,177.3828 465.7031,177.125 Q465.6797,176.9453 465.5859,176.8516 Q465.4219,176.6641 465.1172,176.5547 Q464.8125,176.4453 464.5,176.4453 Q464.1172,176.4453 463.7969,176.6094 Q463.4844,176.7734 463.2344,177.1484 Q462.9922,177.5234 462.9922,178.0391 L462.9922,178.5859 Q462.9922,179.2031 463.4375,179.6172 Q463.8828,180.0234 464.6797,180.0234 Q465.1484,180.0234 465.4766,179.8984 Q465.6719,179.8203 465.8828,179.6016 Q466.0156,179.4688 466.0859,179.4297 Q466.1641,179.3906 466.2656,179.3906 Q466.4297,179.3906 466.5547,179.5234 Q466.6875,179.6484 466.6875,179.8203 Q466.6875,179.9922 466.5156,180.1953 Q466.2656,180.4844 465.8672,180.6484 Q465.3281,180.875 464.6797,180.875 Q463.9219,180.875 463.3203,180.5625 Q462.8281,180.3125 462.4844,179.7813 Q462.1406,179.2422 462.1406,178.6016 L462.1406,178.0234 Q462.1406,177.3594 462.4453,176.7891 Q462.7578,176.2109 463.3047,175.9063 Q463.8516,175.5938 464.4688,175.5938 Q464.8359,175.5938 465.1563,175.6797 Q465.4844,175.7578 465.7578,175.9375 Z " fill="#000000"/><text fill="#000000" font-family="sans-serif" font-size="7" lengthAdjust="spacing" textLength="48" x="474.625" y="180.8984">ProductService</text><line style="stroke:#181818;stroke-width:0.25;" x1="439.75" x2="541.25" y1="186" y2="186"/><line style="stroke:#181818;stroke-width:0.25;" x1="439.75" x2="541.25" y1="190" y2="190"/><text fill="#000000" font-family="sans-serif" font-size="7" lengthAdjust="spacing" textLength="96.5" x="442.25" y="199.5537">+getProducts() : List&lt;Product&gt;</text></g><!--class ProductionService--><g id="elem_ProductionService"><rect codeLine="26" fill="#F1F1F1" height="42.6211" id="ProductionService" rx="1.25" ry="1.25" style="stroke:#181818;stroke-width:0.25;" width="206" x="559.5" y="165.5"/><ellipse cx="631.625" cy="173.5" fill="#ADD1B2" rx="5.5" ry="5.5" style="stroke:#181818;stroke-width:0.5;"/><path d="M633.0078,171.4375 Q633.0859,171.3281 633.1797,171.2734 Q633.2734,171.2188 633.3828,171.2188 Q633.5703,171.2188 633.6875,171.3516 Q633.8047,171.4766 633.8047,171.7813 L633.8047,172.5078 Q633.8047,172.8125 633.6875,172.9453 Q633.5703,173.0781 633.3828,173.0781 Q633.2109,173.0781 633.1094,172.9766 Q633.0078,172.8828 632.9531,172.625 Q632.9297,172.4453 632.8359,172.3516 Q632.6719,172.1641 632.3672,172.0547 Q632.0625,171.9453 631.75,171.9453 Q631.3672,171.9453 631.0469,172.1094 Q630.7344,172.2734 630.4844,172.6484 Q630.2422,173.0234 630.2422,173.5391 L630.2422,174.0859 Q630.2422,174.7031 630.6875,175.1172 Q631.1328,175.5234 631.9297,175.5234 Q632.3984,175.5234 632.7266,175.3984 Q632.9219,175.3203 633.1328,175.1016 Q633.2656,174.9688 633.3359,174.9297 Q633.4141,174.8906 633.5156,174.8906 Q633.6797,174.8906 633.8047,175.0234 Q633.9375,175.1484 633.9375,175.3203 Q633.9375,175.4922 633.7656,175.6953 Q633.5156,175.9844 633.1172,176.1484 Q632.5781,176.375 631.9297,176.375 Q631.1719,176.375 630.5703,176.0625 Q630.0781,175.8125 629.7344,175.2813 Q629.3906,174.7422 629.3906,174.1016 L629.3906,173.5234 Q629.3906,172.8594 629.6953,172.2891 Q630.0078,171.7109 630.5547,171.4063 Q631.1016,171.0938 631.7188,171.0938 Q632.0859,171.0938 632.4063,171.1797 Q632.7344,171.2578 633.0078,171.4375 Z " fill="#000000"/><text fill="#000000" font-family="sans-serif" font-size="7" lengthAdjust="spacing" textLength="57.5" x="641.875" y="176.3984">ProductionService</text><line style="stroke:#181818;stroke-width:0.25;" x1="560" x2="765" y1="181.5" y2="181.5"/><line style="stroke:#181818;stroke-width:0.25;" x1="560" x2="765" y1="185.5" y2="185.5"/><text fill="#000000" font-family="sans-serif" font-size="7" lengthAdjust="spacing" textLength="200" x="562.5" y="195.0537">-getProductionTree(productID) : NaryTree&lt;ProductionElement&gt;</text><text fill="#000000" font-family="sans-serif" font-size="7" lengthAdjust="spacing" textLength="93" x="562.5" y="204.3643">+simulator(tree) : List&lt;Event&gt;</text></g><!--class Repositories--><g id="elem_Repositories"><rect codeLine="33" fill="#F1F1F1" height="61.2422" id="Repositories" rx="1.25" ry="1.25" style="stroke:#181818;stroke-width:0.25;" width="163" x="157.5" y="260"/><ellipse cx="217.125" cy="268" fill="#ADD1B2" rx="5.5" ry="5.5" style="stroke:#181818;stroke-width:0.5;"/><path d="M218.5078,265.9375 Q218.5859,265.8281 218.6797,265.7734 Q218.7734,265.7188 218.8828,265.7188 Q219.0703,265.7188 219.1875,265.8516 Q219.3047,265.9766 219.3047,266.2813 L219.3047,267.0078 Q219.3047,267.3125 219.1875,267.4453 Q219.0703,267.5781 218.8828,267.5781 Q218.7109,267.5781 218.6094,267.4766 Q218.5078,267.3828 218.4531,267.125 Q218.4297,266.9453 218.3359,266.8516 Q218.1719,266.6641 217.8672,266.5547 Q217.5625,266.4453 217.25,266.4453 Q216.8672,266.4453 216.5469,266.6094 Q216.2344,266.7734 215.9844,267.1484 Q215.7422,267.5234 215.7422,268.0391 L215.7422,268.5859 Q215.7422,269.2031 216.1875,269.6172 Q216.6328,270.0234 217.4297,270.0234 Q217.8984,270.0234 218.2266,269.8984 Q218.4219,269.8203 218.6328,269.6016 Q218.7656,269.4688 218.8359,269.4297 Q218.9141,269.3906 219.0156,269.3906 Q219.1797,269.3906 219.3047,269.5234 Q219.4375,269.6484 219.4375,269.8203 Q219.4375,269.9922 219.2656,270.1953 Q219.0156,270.4844 218.6172,270.6484 Q218.0781,270.875 217.4297,270.875 Q216.6719,270.875 216.0703,270.5625 Q215.5781,270.3125 215.2344,269.7813 Q214.8906,269.2422 214.8906,268.6016 L214.8906,268.0234 Q214.8906,267.3594 215.1953,266.7891 Q215.5078,266.2109 216.0547,265.9063 Q216.6016,265.5938 217.2188,265.5938 Q217.5859,265.5938 217.9063,265.6797 Q218.2344,265.7578 218.5078,265.9375 Z " fill="#000000"/><text fill="#000000" font-family="sans-serif" font-size="7" lengthAdjust="spacing" textLength="39.5" x="227.375" y="270.8984">Repositories</text><line style="stroke:#181818;stroke-width:0.25;" x1="158" x2="320" y1="276" y2="276"/><line style="stroke:#181818;stroke-width:0.25;" x1="158" x2="320" y1="280" y2="280"/><text fill="#000000" font-family="sans-serif" font-size="7" lengthAdjust="spacing" textLength="47" x="160.5" y="289.5537">-Repositories()</text><text fill="#000000" font-family="sans-serif" font-size="7" lengthAdjust="spacing" textLength="91" x="160.5" y="298.8643">+getInstance() : Repositories</text><text fill="#000000" font-family="sans-serif" font-size="7" lengthAdjust="spacing" textLength="142" x="160.5" y="308.1748">+getProductRepository() : ProductRepository</text><text fill="#000000" font-family="sans-serif" font-size="7" lengthAdjust="spacing" textLength="157" x="160.5" y="317.4854">+getProductionTree() : ProductionTreeRepository</text></g><!--class ProductRepository--><g id="elem_ProductRepository"><rect codeLine="40" fill="#F1F1F1" height="33.3105" id="ProductRepository" rx="1.25" ry="1.25" style="stroke:#181818;stroke-width:0.25;" width="82" x="11.5" y="385.75"/><ellipse cx="22.375" cy="393.75" fill="#ADD1B2" rx="5.5" ry="5.5" style="stroke:#181818;stroke-width:0.5;"/><path d="M23.7578,391.6875 Q23.8359,391.5781 23.9297,391.5234 Q24.0234,391.4688 24.1328,391.4688 Q24.3203,391.4688 24.4375,391.6016 Q24.5547,391.7266 24.5547,392.0313 L24.5547,392.7578 Q24.5547,393.0625 24.4375,393.1953 Q24.3203,393.3281 24.1328,393.3281 Q23.9609,393.3281 23.8594,393.2266 Q23.7578,393.1328 23.7031,392.875 Q23.6797,392.6953 23.5859,392.6016 Q23.4219,392.4141 23.1172,392.3047 Q22.8125,392.1953 22.5,392.1953 Q22.1172,392.1953 21.7969,392.3594 Q21.4844,392.5234 21.2344,392.8984 Q20.9922,393.2734 20.9922,393.7891 L20.9922,394.3359 Q20.9922,394.9531 21.4375,395.3672 Q21.8828,395.7734 22.6797,395.7734 Q23.1484,395.7734 23.4766,395.6484 Q23.6719,395.5703 23.8828,395.3516 Q24.0156,395.2188 24.0859,395.1797 Q24.1641,395.1406 24.2656,395.1406 Q24.4297,395.1406 24.5547,395.2734 Q24.6875,395.3984 24.6875,395.5703 Q24.6875,395.7422 24.5156,395.9453 Q24.2656,396.2344 23.8672,396.3984 Q23.3281,396.625 22.6797,396.625 Q21.9219,396.625 21.3203,396.3125 Q20.8281,396.0625 20.4844,395.5313 Q20.1406,394.9922 20.1406,394.3516 L20.1406,393.7734 Q20.1406,393.1094 20.4453,392.5391 Q20.7578,391.9609 21.3047,391.6563 Q21.8516,391.3438 22.4688,391.3438 Q22.8359,391.3438 23.1563,391.4297 Q23.4844,391.5078 23.7578,391.6875 Z " fill="#000000"/><text fill="#000000" font-family="sans-serif" font-size="7" lengthAdjust="spacing" textLength="58.5" x="30.125" y="396.6484">ProductRepository</text><line style="stroke:#181818;stroke-width:0.25;" x1="12" x2="93" y1="401.75" y2="401.75"/><line style="stroke:#181818;stroke-width:0.25;" x1="12" x2="93" y1="405.75" y2="405.75"/><text fill="#000000" font-family="sans-serif" font-size="7" lengthAdjust="spacing" textLength="76" x="14.5" y="415.3037">+getAll() : List&lt;Product&gt;</text></g><!--class ProductionTreeRepository--><g id="elem_ProductionTreeRepository"><rect codeLine="44" fill="#F1F1F1" height="33.3105" id="ProductionTreeRepository" rx="1.25" ry="1.25" style="stroke:#181818;stroke-width:0.25;" width="248.5" x="111.25" y="385.75"/><ellipse cx="191.875" cy="393.75" fill="#ADD1B2" rx="5.5" ry="5.5" style="stroke:#181818;stroke-width:0.5;"/><path d="M193.2578,391.6875 Q193.3359,391.5781 193.4297,391.5234 Q193.5234,391.4688 193.6328,391.4688 Q193.8203,391.4688 193.9375,391.6016 Q194.0547,391.7266 194.0547,392.0313 L194.0547,392.7578 Q194.0547,393.0625 193.9375,393.1953 Q193.8203,393.3281 193.6328,393.3281 Q193.4609,393.3281 193.3594,393.2266 Q193.2578,393.1328 193.2031,392.875 Q193.1797,392.6953 193.0859,392.6016 Q192.9219,392.4141 192.6172,392.3047 Q192.3125,392.1953 192,392.1953 Q191.6172,392.1953 191.2969,392.3594 Q190.9844,392.5234 190.7344,392.8984 Q190.4922,393.2734 190.4922,393.7891 L190.4922,394.3359 Q190.4922,394.9531 190.9375,395.3672 Q191.3828,395.7734 192.1797,395.7734 Q192.6484,395.7734 192.9766,395.6484 Q193.1719,395.5703 193.3828,395.3516 Q193.5156,395.2188 193.5859,395.1797 Q193.6641,395.1406 193.7656,395.1406 Q193.9297,395.1406 194.0547,395.2734 Q194.1875,395.3984 194.1875,395.5703 Q194.1875,395.7422 194.0156,395.9453 Q193.7656,396.2344 193.3672,396.3984 Q192.8281,396.625 192.1797,396.625 Q191.4219,396.625 190.8203,396.3125 Q190.3281,396.0625 189.9844,395.5313 Q189.6406,394.9922 189.6406,394.3516 L189.6406,393.7734 Q189.6406,393.1094 189.9453,392.5391 Q190.2578,391.9609 190.8047,391.6563 Q191.3516,391.3438 191.9688,391.3438 Q192.3359,391.3438 192.6563,391.4297 Q192.9844,391.5078 193.2578,391.6875 Z " fill="#000000"/><text fill="#000000" font-family="sans-serif" font-size="7" lengthAdjust="spacing" textLength="83" x="202.125" y="396.6484">ProductionTreeRepository</text><line style="stroke:#181818;stroke-width:0.25;" x1="111.75" x2="359.25" y1="401.75" y2="401.75"/><line style="stroke:#181818;stroke-width:0.25;" x1="111.75" x2="359.25" y1="405.75" y2="405.75"/><text fill="#000000" font-family="sans-serif" font-size="7" lengthAdjust="spacing" textLength="242.5" x="114.25" y="415.3037">+getProductionHierarchy(productID) : HashMap&lt;ProductionElement, Integer&gt;</text></g><!--class Part--><g id="elem_Part"><rect codeLine="50" fill="#F1F1F1" height="61.2422" id="Part" rx="1.25" ry="1.25" style="stroke:#181818;stroke-width:0.25;" width="93.5" x="717.75" y="596.75"/><ellipse cx="755.875" cy="604.75" fill="#ADD1B2" rx="5.5" ry="5.5" style="stroke:#181818;stroke-width:0.5;"/><path d="M757.2578,602.6875 Q757.3359,602.5781 757.4297,602.5234 Q757.5234,602.4688 757.6328,602.4688 Q757.8203,602.4688 757.9375,602.6016 Q758.0547,602.7266 758.0547,603.0313 L758.0547,603.7578 Q758.0547,604.0625 757.9375,604.1953 Q757.8203,604.3281 757.6328,604.3281 Q757.4609,604.3281 757.3594,604.2266 Q757.2578,604.1328 757.2031,603.875 Q757.1797,603.6953 757.0859,603.6016 Q756.9219,603.4141 756.6172,603.3047 Q756.3125,603.1953 756,603.1953 Q755.6172,603.1953 755.2969,603.3594 Q754.9844,603.5234 754.7344,603.8984 Q754.4922,604.2734 754.4922,604.7891 L754.4922,605.3359 Q754.4922,605.9531 754.9375,606.3672 Q755.3828,606.7734 756.1797,606.7734 Q756.6484,606.7734 756.9766,606.6484 Q757.1719,606.5703 757.3828,606.3516 Q757.5156,606.2188 757.5859,606.1797 Q757.6641,606.1406 757.7656,606.1406 Q757.9297,606.1406 758.0547,606.2734 Q758.1875,606.3984 758.1875,606.5703 Q758.1875,606.7422 758.0156,606.9453 Q757.7656,607.2344 757.3672,607.3984 Q756.8281,607.625 756.1797,607.625 Q755.4219,607.625 754.8203,607.3125 Q754.3281,607.0625 753.9844,606.5313 Q753.6406,605.9922 753.6406,605.3516 L753.6406,604.7734 Q753.6406,604.1094 753.9453,603.5391 Q754.2578,602.9609 754.8047,602.6563 Q755.3516,602.3438 755.9688,602.3438 Q756.3359,602.3438 756.6563,602.4297 Q756.9844,602.5078 757.2578,602.6875 Z " fill="#000000"/><text fill="#000000" font-family="sans-serif" font-size="7" lengthAdjust="spacing" textLength="13" x="766.125" y="607.6484">Part</text><line style="stroke:#181818;stroke-width:0.25;" x1="718.25" x2="810.75" y1="612.75" y2="612.75"/><text fill="#000000" font-family="sans-serif" font-size="7" lengthAdjust="spacing" textLength="32.5" x="720.75" y="622.3037">-id : String</text><text fill="#000000" font-family="sans-serif" font-size="7" lengthAdjust="spacing" textLength="44.5" x="720.75" y="631.6143">-name : String</text><text fill="#000000" font-family="sans-serif" font-size="7" lengthAdjust="spacing" textLength="61.5" x="720.75" y="640.9248">-description : String</text><line style="stroke:#181818;stroke-width:0.25;" x1="718.25" x2="810.75" y1="644.6816" y2="644.6816"/><text fill="#000000" font-family="sans-serif" font-size="7" lengthAdjust="spacing" textLength="87.5" x="720.75" y="654.2354">+Part(id, name, description)</text></g><!--class Product--><g id="elem_Product"><rect codeLine="57" fill="#F1F1F1" height="79.8633" id="Product" rx="1.25" ry="1.25" style="stroke:#181818;stroke-width:0.25;" width="221.5" x="602.25" y="472.5"/><ellipse cx="698.625" cy="480.5" fill="#ADD1B2" rx="5.5" ry="5.5" style="stroke:#181818;stroke-width:0.5;"/><path d="M700.0078,478.4375 Q700.0859,478.3281 700.1797,478.2734 Q700.2734,478.2188 700.3828,478.2188 Q700.5703,478.2188 700.6875,478.3516 Q700.8047,478.4766 700.8047,478.7813 L700.8047,479.5078 Q700.8047,479.8125 700.6875,479.9453 Q700.5703,480.0781 700.3828,480.0781 Q700.2109,480.0781 700.1094,479.9766 Q700.0078,479.8828 699.9531,479.625 Q699.9297,479.4453 699.8359,479.3516 Q699.6719,479.1641 699.3672,479.0547 Q699.0625,478.9453 698.75,478.9453 Q698.3672,478.9453 698.0469,479.1094 Q697.7344,479.2734 697.4844,479.6484 Q697.2422,480.0234 697.2422,480.5391 L697.2422,481.0859 Q697.2422,481.7031 697.6875,482.1172 Q698.1328,482.5234 698.9297,482.5234 Q699.3984,482.5234 699.7266,482.3984 Q699.9219,482.3203 700.1328,482.1016 Q700.2656,481.9688 700.3359,481.9297 Q700.4141,481.8906 700.5156,481.8906 Q700.6797,481.8906 700.8047,482.0234 Q700.9375,482.1484 700.9375,482.3203 Q700.9375,482.4922 700.7656,482.6953 Q700.5156,482.9844 700.1172,483.1484 Q699.5781,483.375 698.9297,483.375 Q698.1719,483.375 697.5703,483.0625 Q697.0781,482.8125 696.7344,482.2813 Q696.3906,481.7422 696.3906,481.1016 L696.3906,480.5234 Q696.3906,479.8594 696.6953,479.2891 Q697.0078,478.7109 697.5547,478.4063 Q698.1016,478.0938 698.7188,478.0938 Q699.0859,478.0938 699.4063,478.1797 Q699.7344,478.2578 700.0078,478.4375 Z " fill="#000000"/><text fill="#000000" font-family="sans-serif" font-size="7" lengthAdjust="spacing" textLength="24.5" x="708.875" y="483.3984">Product</text><line style="stroke:#181818;stroke-width:0.25;" x1="602.75" x2="823.25" y1="488.5" y2="488.5"/><text fill="#000000" font-family="sans-serif" font-size="7" lengthAdjust="spacing" textLength="89.5" x="605.25" y="498.0537">-category : ProductCategory</text><text fill="#000000" font-family="sans-serif" font-size="7" lengthAdjust="spacing" textLength="42" x="605.25" y="507.3643">-capacity : int</text><text fill="#000000" font-family="sans-serif" font-size="7" lengthAdjust="spacing" textLength="28" x="605.25" y="516.6748">-size : int</text><text fill="#000000" font-family="sans-serif" font-size="7" lengthAdjust="spacing" textLength="42.5" x="605.25" y="525.9854">-color : String</text><text fill="#000000" font-family="sans-serif" font-size="7" lengthAdjust="spacing" textLength="45.5" x="605.25" y="535.2959">-price : double</text><line style="stroke:#181818;stroke-width:0.25;" x1="602.75" x2="823.25" y1="539.0527" y2="539.0527"/><text fill="#000000" font-family="sans-serif" font-size="7" lengthAdjust="spacing" textLength="215.5" x="605.25" y="548.6064">+Product(id, name, description, category, capacity, size, color, price)</text></g><!--class ProductionElement--><g id="elem_ProductionElement"><rect codeLine="66" fill="#F1F1F1" height="61.2422" id="ProductionElement" rx="1.25" ry="1.25" style="stroke:#181818;stroke-width:0.25;" width="150" x="841.5" y="482"/><ellipse cx="884.625" cy="490" fill="#ADD1B2" rx="5.5" ry="5.5" style="stroke:#181818;stroke-width:0.5;"/><path d="M886.0078,487.9375 Q886.0859,487.8281 886.1797,487.7734 Q886.2734,487.7188 886.3828,487.7188 Q886.5703,487.7188 886.6875,487.8516 Q886.8047,487.9766 886.8047,488.2813 L886.8047,489.0078 Q886.8047,489.3125 886.6875,489.4453 Q886.5703,489.5781 886.3828,489.5781 Q886.2109,489.5781 886.1094,489.4766 Q886.0078,489.3828 885.9531,489.125 Q885.9297,488.9453 885.8359,488.8516 Q885.6719,488.6641 885.3672,488.5547 Q885.0625,488.4453 884.75,488.4453 Q884.3672,488.4453 884.0469,488.6094 Q883.7344,488.7734 883.4844,489.1484 Q883.2422,489.5234 883.2422,490.0391 L883.2422,490.5859 Q883.2422,491.2031 883.6875,491.6172 Q884.1328,492.0234 884.9297,492.0234 Q885.3984,492.0234 885.7266,491.8984 Q885.9219,491.8203 886.1328,491.6016 Q886.2656,491.4688 886.3359,491.4297 Q886.4141,491.3906 886.5156,491.3906 Q886.6797,491.3906 886.8047,491.5234 Q886.9375,491.6484 886.9375,491.8203 Q886.9375,491.9922 886.7656,492.1953 Q886.5156,492.4844 886.1172,492.6484 Q885.5781,492.875 884.9297,492.875 Q884.1719,492.875 883.5703,492.5625 Q883.0781,492.3125 882.7344,491.7813 Q882.3906,491.2422 882.3906,490.6016 L882.3906,490.0234 Q882.3906,489.3594 882.6953,488.7891 Q883.0078,488.2109 883.5547,487.9063 Q884.1016,487.5938 884.7188,487.5938 Q885.0859,487.5938 885.4063,487.6797 Q885.7344,487.7578 886.0078,487.9375 Z " fill="#000000"/><text fill="#000000" font-family="sans-serif" font-size="7" lengthAdjust="spacing" textLength="59.5" x="894.875" y="492.8984">ProductionElement</text><line style="stroke:#181818;stroke-width:0.25;" x1="842" x2="991" y1="498" y2="498"/><text fill="#000000" font-family="sans-serif" font-size="7" lengthAdjust="spacing" textLength="34" x="844.5" y="507.5537">-part : Part</text><text fill="#000000" font-family="sans-serif" font-size="7" lengthAdjust="spacing" textLength="70" x="844.5" y="516.8643">-operation : Operation</text><text fill="#000000" font-family="sans-serif" font-size="7" lengthAdjust="spacing" textLength="56" x="844.5" y="526.1748">-quantity : Double</text><line style="stroke:#181818;stroke-width:0.25;" x1="842" x2="991" y1="529.9316" y2="529.9316"/><text fill="#000000" font-family="sans-serif" font-size="7" lengthAdjust="spacing" textLength="144" x="844.5" y="539.4854">+ProductionElement(part, operation, quantity)</text></g><!--class Operation--><g id="elem_Operation"><rect codeLine="73" fill="#F1F1F1" height="70.5527" id="Operation" rx="1.25" ry="1.25" style="stroke:#181818;stroke-width:0.25;" width="140.5" x="846.25" y="592"/><ellipse cx="898.625" cy="600" fill="#ADD1B2" rx="5.5" ry="5.5" style="stroke:#181818;stroke-width:0.5;"/><path d="M900.0078,597.9375 Q900.0859,597.8281 900.1797,597.7734 Q900.2734,597.7188 900.3828,597.7188 Q900.5703,597.7188 900.6875,597.8516 Q900.8047,597.9766 900.8047,598.2813 L900.8047,599.0078 Q900.8047,599.3125 900.6875,599.4453 Q900.5703,599.5781 900.3828,599.5781 Q900.2109,599.5781 900.1094,599.4766 Q900.0078,599.3828 899.9531,599.125 Q899.9297,598.9453 899.8359,598.8516 Q899.6719,598.6641 899.3672,598.5547 Q899.0625,598.4453 898.75,598.4453 Q898.3672,598.4453 898.0469,598.6094 Q897.7344,598.7734 897.4844,599.1484 Q897.2422,599.5234 897.2422,600.0391 L897.2422,600.5859 Q897.2422,601.2031 897.6875,601.6172 Q898.1328,602.0234 898.9297,602.0234 Q899.3984,602.0234 899.7266,601.8984 Q899.9219,601.8203 900.1328,601.6016 Q900.2656,601.4688 900.3359,601.4297 Q900.4141,601.3906 900.5156,601.3906 Q900.6797,601.3906 900.8047,601.5234 Q900.9375,601.6484 900.9375,601.8203 Q900.9375,601.9922 900.7656,602.1953 Q900.5156,602.4844 900.1172,602.6484 Q899.5781,602.875 898.9297,602.875 Q898.1719,602.875 897.5703,602.5625 Q897.0781,602.3125 896.7344,601.7813 Q896.3906,601.2422 896.3906,600.6016 L896.3906,600.0234 Q896.3906,599.3594 896.6953,598.7891 Q897.0078,598.2109 897.5547,597.9063 Q898.1016,597.5938 898.7188,597.5938 Q899.0859,597.5938 899.4063,597.6797 Q899.7344,597.7578 900.0078,597.9375 Z " fill="#000000"/><text fill="#000000" font-family="sans-serif" font-size="7" lengthAdjust="spacing" textLength="31.5" x="908.875" y="602.8984">Operation</text><line style="stroke:#181818;stroke-width:0.25;" x1="846.75" x2="986.25" y1="608" y2="608"/><text fill="#000000" font-family="sans-serif" font-size="7" lengthAdjust="spacing" textLength="21.5" x="849.25" y="617.5537">-id : int</text><text fill="#000000" font-family="sans-serif" font-size="7" lengthAdjust="spacing" textLength="69.5" x="849.25" y="626.8643">-type : OperationType</text><text fill="#000000" font-family="sans-serif" font-size="7" lengthAdjust="spacing" textLength="44.5" x="849.25" y="636.1748">-name : String</text><text fill="#000000" font-family="sans-serif" font-size="7" lengthAdjust="spacing" textLength="61.5" x="849.25" y="645.4854">-executionTime : int</text><line style="stroke:#181818;stroke-width:0.25;" x1="846.75" x2="986.25" y1="649.2422" y2="649.2422"/><text fill="#000000" font-family="sans-serif" font-size="7" lengthAdjust="spacing" textLength="134.5" x="849.25" y="658.7959">+Operation(id, type, name, executionTime)</text></g><!--class Workstation--><g id="elem_Workstation"><rect codeLine="81" fill="#F1F1F1" height="61.2422" id="Workstation" rx="1.25" ry="1.25" style="stroke:#181818;stroke-width:0.25;" width="79.5" x="1009.25" y="482"/><ellipse cx="1028.45" cy="490" fill="#ADD1B2" rx="5.5" ry="5.5" style="stroke:#181818;stroke-width:0.5;"/><path d="M1029.8328,487.9375 Q1029.9109,487.8281 1030.0047,487.7734 Q1030.0984,487.7188 1030.2078,487.7188 Q1030.3953,487.7188 1030.5125,487.8516 Q1030.6297,487.9766 1030.6297,488.2813 L1030.6297,489.0078 Q1030.6297,489.3125 1030.5125,489.4453 Q1030.3953,489.5781 1030.2078,489.5781 Q1030.0359,489.5781 1029.9344,489.4766 Q1029.8328,489.3828 1029.7781,489.125 Q1029.7547,488.9453 1029.6609,488.8516 Q1029.4969,488.6641 1029.1922,488.5547 Q1028.8875,488.4453 1028.575,488.4453 Q1028.1922,488.4453 1027.8719,488.6094 Q1027.5594,488.7734 1027.3094,489.1484 Q1027.0672,489.5234 1027.0672,490.0391 L1027.0672,490.5859 Q1027.0672,491.2031 1027.5125,491.6172 Q1027.9578,492.0234 1028.7547,492.0234 Q1029.2234,492.0234 1029.5516,491.8984 Q1029.7469,491.8203 1029.9578,491.6016 Q1030.0906,491.4688 1030.1609,491.4297 Q1030.2391,491.3906 1030.3406,491.3906 Q1030.5047,491.3906 1030.6297,491.5234 Q1030.7625,491.6484 1030.7625,491.8203 Q1030.7625,491.9922 1030.5906,492.1953 Q1030.3406,492.4844 1029.9422,492.6484 Q1029.4031,492.875 1028.7547,492.875 Q1027.9969,492.875 1027.3953,492.5625 Q1026.9031,492.3125 1026.5594,491.7813 Q1026.2156,491.2422 1026.2156,490.6016 L1026.2156,490.0234 Q1026.2156,489.3594 1026.5203,488.7891 Q1026.8328,488.2109 1027.3797,487.9063 Q1027.9266,487.5938 1028.5438,487.5938 Q1028.9109,487.5938 1029.2313,487.6797 Q1029.5594,487.7578 1029.8328,487.9375 Z " fill="#000000"/><text fill="#000000" font-family="sans-serif" font-size="7" lengthAdjust="spacing" textLength="37.5" x="1038.05" y="492.8984">Workstation</text><line style="stroke:#181818;stroke-width:0.25;" x1="1009.75" x2="1088.25" y1="498" y2="498"/><text fill="#000000" font-family="sans-serif" font-size="7" lengthAdjust="spacing" textLength="21.5" x="1012.25" y="507.5537">-id : int</text><text fill="#000000" font-family="sans-serif" font-size="7" lengthAdjust="spacing" textLength="44.5" x="1012.25" y="516.8643">-name : String</text><text fill="#000000" font-family="sans-serif" font-size="7" lengthAdjust="spacing" textLength="62" x="1012.25" y="526.1748">-available : boolean</text><line style="stroke:#181818;stroke-width:0.25;" x1="1009.75" x2="1088.25" y1="529.9316" y2="529.9316"/><text fill="#000000" font-family="sans-serif" font-size="7" lengthAdjust="spacing" textLength="73.5" x="1012.25" y="539.4854">+Workstation(id, name)</text></g><!--class Event--><g id="elem_Event"><rect codeLine="88" fill="#F1F1F1" height="61.2422" id="Event" rx="1.25" ry="1.25" style="stroke:#181818;stroke-width:0.25;" width="133" x="850" y="372"/><ellipse cx="905.375" cy="380" fill="#ADD1B2" rx="5.5" ry="5.5" style="stroke:#181818;stroke-width:0.5;"/><path d="M906.7578,377.9375 Q906.8359,377.8281 906.9297,377.7734 Q907.0234,377.7188 907.1328,377.7188 Q907.3203,377.7188 907.4375,377.8516 Q907.5547,377.9766 907.5547,378.2813 L907.5547,379.0078 Q907.5547,379.3125 907.4375,379.4453 Q907.3203,379.5781 907.1328,379.5781 Q906.9609,379.5781 906.8594,379.4766 Q906.7578,379.3828 906.7031,379.125 Q906.6797,378.9453 906.5859,378.8516 Q906.4219,378.6641 906.1172,378.5547 Q905.8125,378.4453 905.5,378.4453 Q905.1172,378.4453 904.7969,378.6094 Q904.4844,378.7734 904.2344,379.1484 Q903.9922,379.5234 903.9922,380.0391 L903.9922,380.5859 Q903.9922,381.2031 904.4375,381.6172 Q904.8828,382.0234 905.6797,382.0234 Q906.1484,382.0234 906.4766,381.8984 Q906.6719,381.8203 906.8828,381.6016 Q907.0156,381.4688 907.0859,381.4297 Q907.1641,381.3906 907.2656,381.3906 Q907.4297,381.3906 907.5547,381.5234 Q907.6875,381.6484 907.6875,381.8203 Q907.6875,381.9922 907.5156,382.1953 Q907.2656,382.4844 906.8672,382.6484 Q906.3281,382.875 905.6797,382.875 Q904.9219,382.875 904.3203,382.5625 Q903.8281,382.3125 903.4844,381.7813 Q903.1406,381.2422 903.1406,380.6016 L903.1406,380.0234 Q903.1406,379.3594 903.4453,378.7891 Q903.7578,378.2109 904.3047,377.9063 Q904.8516,377.5938 905.4688,377.5938 Q905.8359,377.5938 906.1563,377.6797 Q906.4844,377.7578 906.7578,377.9375 Z " fill="#000000"/><text fill="#000000" font-family="sans-serif" font-size="7" lengthAdjust="spacing" textLength="18" x="915.625" y="382.8984">Event</text><line style="stroke:#181818;stroke-width:0.25;" x1="850.5" x2="982.5" y1="388" y2="388"/><text fill="#000000" font-family="sans-serif" font-size="7" lengthAdjust="spacing" textLength="81.5" x="853" y="397.5537">-workstation : Workstation</text><text fill="#000000" font-family="sans-serif" font-size="7" lengthAdjust="spacing" textLength="127" x="853" y="406.8643">-productionElement : ProductionElement</text><text fill="#000000" font-family="sans-serif" font-size="7" lengthAdjust="spacing" textLength="45.5" x="853" y="416.1748">-startTime : int</text><text fill="#000000" font-family="sans-serif" font-size="7" lengthAdjust="spacing" textLength="43.5" x="853" y="425.4854">-endTime : int</text><line style="stroke:#181818;stroke-width:0.25;" x1="850.5" x2="982.5" y1="429.2422" y2="429.2422"/></g><!--class ProductException--><g id="elem_ProductException"><rect codeLine="97" fill="#F1F1F1" height="42.6211" id="ProductException" rx="1.25" ry="1.25" style="stroke:#181818;stroke-width:0.25;" width="186" x="388" y="269.25"/><ellipse cx="451.375" cy="277.25" fill="#ADD1B2" rx="5.5" ry="5.5" style="stroke:#181818;stroke-width:0.5;"/><path d="M452.7578,275.1875 Q452.8359,275.0781 452.9297,275.0234 Q453.0234,274.9688 453.1328,274.9688 Q453.3203,274.9688 453.4375,275.1016 Q453.5547,275.2266 453.5547,275.5313 L453.5547,276.2578 Q453.5547,276.5625 453.4375,276.6953 Q453.3203,276.8281 453.1328,276.8281 Q452.9609,276.8281 452.8594,276.7266 Q452.7578,276.6328 452.7031,276.375 Q452.6797,276.1953 452.5859,276.1016 Q452.4219,275.9141 452.1172,275.8047 Q451.8125,275.6953 451.5,275.6953 Q451.1172,275.6953 450.7969,275.8594 Q450.4844,276.0234 450.2344,276.3984 Q449.9922,276.7734 449.9922,277.2891 L449.9922,277.8359 Q449.9922,278.4531 450.4375,278.8672 Q450.8828,279.2734 451.6797,279.2734 Q452.1484,279.2734 452.4766,279.1484 Q452.6719,279.0703 452.8828,278.8516 Q453.0156,278.7188 453.0859,278.6797 Q453.1641,278.6406 453.2656,278.6406 Q453.4297,278.6406 453.5547,278.7734 Q453.6875,278.8984 453.6875,279.0703 Q453.6875,279.2422 453.5156,279.4453 Q453.2656,279.7344 452.8672,279.8984 Q452.3281,280.125 451.6797,280.125 Q450.9219,280.125 450.3203,279.8125 Q449.8281,279.5625 449.4844,279.0313 Q449.1406,278.4922 449.1406,277.8516 L449.1406,277.2734 Q449.1406,276.6094 449.4453,276.0391 Q449.7578,275.4609 450.3047,275.1563 Q450.8516,274.8438 451.4688,274.8438 Q451.8359,274.8438 452.1563,274.9297 Q452.4844,275.0078 452.7578,275.1875 Z " fill="#000000"/><text fill="#000000" font-family="sans-serif" font-size="7" lengthAdjust="spacing" textLength="55" x="461.625" y="280.1484">ProductException</text><line style="stroke:#181818;stroke-width:0.25;" x1="388.5" x2="573.5" y1="285.25" y2="285.25"/><line style="stroke:#181818;stroke-width:0.25;" x1="388.5" x2="573.5" y1="289.25" y2="289.25"/><text fill="#000000" font-family="sans-serif" font-size="7" lengthAdjust="spacing" textLength="180" x="391" y="298.8037">+productionTreeNotFound(productID) : ProductException</text><text fill="#000000" font-family="sans-serif" font-size="7" lengthAdjust="spacing" textLength="155.5" x="391" y="308.1143">+productNotFound(productID) : ProductException</text></g><!--class RuntimeException--><g id="elem_RuntimeException"><rect codeLine="102" fill="#F1F1F1" height="24" id="RuntimeException" rx="1.25" ry="1.25" style="stroke:#181818;stroke-width:0.25;" width="72.5" x="444.75" y="390.5"/><ellipse cx="452.25" cy="398.5" fill="#ADD1B2" rx="5.5" ry="5.5" style="stroke:#181818;stroke-width:0.5;"/><path d="M453.6328,396.4375 Q453.7109,396.3281 453.8047,396.2734 Q453.8984,396.2188 454.0078,396.2188 Q454.1953,396.2188 454.3125,396.3516 Q454.4297,396.4766 454.4297,396.7813 L454.4297,397.5078 Q454.4297,397.8125 454.3125,397.9453 Q454.1953,398.0781 454.0078,398.0781 Q453.8359,398.0781 453.7344,397.9766 Q453.6328,397.8828 453.5781,397.625 Q453.5547,397.4453 453.4609,397.3516 Q453.2969,397.1641 452.9922,397.0547 Q452.6875,396.9453 452.375,396.9453 Q451.9922,396.9453 451.6719,397.1094 Q451.3594,397.2734 451.1094,397.6484 Q450.8672,398.0234 450.8672,398.5391 L450.8672,399.0859 Q450.8672,399.7031 451.3125,400.1172 Q451.7578,400.5234 452.5547,400.5234 Q453.0234,400.5234 453.3516,400.3984 Q453.5469,400.3203 453.7578,400.1016 Q453.8906,399.9688 453.9609,399.9297 Q454.0391,399.8906 454.1406,399.8906 Q454.3047,399.8906 454.4297,400.0234 Q454.5625,400.1484 454.5625,400.3203 Q454.5625,400.4922 454.3906,400.6953 Q454.1406,400.9844 453.7422,401.1484 Q453.2031,401.375 452.5547,401.375 Q451.7969,401.375 451.1953,401.0625 Q450.7031,400.8125 450.3594,400.2813 Q450.0156,399.7422 450.0156,399.1016 L450.0156,398.5234 Q450.0156,397.8594 450.3203,397.2891 Q450.6328,396.7109 451.1797,396.4063 Q451.7266,396.0938 452.3438,396.0938 Q452.7109,396.0938 453.0313,396.1797 Q453.3594,396.2578 453.6328,396.4375 Z " fill="#000000"/><text fill="#000000" font-family="sans-serif" font-size="7" lengthAdjust="spacing" textLength="56.5" x="459.25" y="401.3984">RuntimeException</text><line style="stroke:#181818;stroke-width:0.25;" x1="445.25" x2="516.75" y1="406.5" y2="406.5"/><line style="stroke:#181818;stroke-width:0.25;" x1="445.25" x2="516.75" y1="410.5" y2="410.5"/></g><!--link SimulatorProductionProductUI to ProductController--><g id="link_SimulatorProductionProductUI_ProductController"><path codeLine="105" d="M659.955,46.025 C647.26,57.695 629.7137,73.8098 615.4237,86.9448 " fill="none" id="SimulatorProductionProductUI-to-ProductController" style="stroke:#181818;stroke-width:0.5;stroke-dasharray:7.0,7.0;"/><polygon fill="#181818" points="613.215,88.975,617.8815,87.4022,615.0556,87.2832,615.1746,84.4573,613.215,88.975" style="stroke:#181818;stroke-width:0.5;"/></g><!--link SimulatorProductionProductUI to ProductionController--><g id="link_SimulatorProductionProductUI_ProductionController"><path codeLine="106" d="M680.725,46.025 C689.055,57.695 700.2672,73.3982 709.6422,86.5332 " fill="none" id="SimulatorProductionProductUI-to-ProductionController" style="stroke:#181818;stroke-width:0.5;stroke-dasharray:7.0,7.0;"/><polygon fill="#181818" points="711.385,88.975,710.3986,84.1504,709.9326,86.9401,707.1429,86.4741,711.385,88.975" style="stroke:#181818;stroke-width:0.5;"/></g><!--link ProductController to ProductService--><g id="link_ProductController_ProductService"><path codeLine="107" d="M574.125,122.535 C555.955,136.38 532.3914,154.332 514.2314,168.167 " fill="none" id="ProductController-to-ProductService" style="stroke:#181818;stroke-width:0.5;stroke-dasharray:7.0,7.0;"/><polygon fill="#181818" points="511.845,169.985,516.6366,168.8489,513.8336,168.47,514.2125,165.667,511.845,169.985" style="stroke:#181818;stroke-width:0.5;"/></g><!--link ProductController to ProductionService--><g id="link_ProductController_ProductionService"><path codeLine="108" d="M609.22,122.63 C619.595,135.02 631.9893,149.8146 643.1693,163.1696 " fill="none" id="ProductController-to-ProductionService" style="stroke:#181818;stroke-width:0.5;stroke-dasharray:7.0,7.0;"/><polygon fill="#181818" points="645.095,165.47,643.74,160.7357,643.4902,163.553,640.6729,163.3033,645.095,165.47" style="stroke:#181818;stroke-width:0.5;"/></g><!--link ProductService to Repositories--><g id="link_ProductService_Repositories"><path codeLine="109" d="M439.23,200.155 C397.165,210.745 344.5,224 344.5,224 C344.5,224 317.3783,240.9689 289.5083,258.4039 " fill="none" id="ProductService-to-Repositories" style="stroke:#181818;stroke-width:0.5;stroke-dasharray:7.0,7.0;"/><polygon fill="#181818" points="286.965,259.995,291.8407,259.304,289.0844,258.6691,289.7193,255.9129,286.965,259.995" style="stroke:#181818;stroke-width:0.5;"/><text fill="#000000" font-family="sans-serif" font-size="6.5" lengthAdjust="spacing" textLength="33.5" x="345" y="231.5142">repositories</text></g><!--link ProductService to ProductRepository--><g id="link_ProductService_ProductRepository"><path codeLine="110" d="M439.1,192.7 C316.39,205.71 16.5,237.5 16.5,237.5 C16.5,237.5 16.5,321 16.5,321 C16.5,321 33.4766,359.1986 43.9966,382.8686 " fill="none" id="ProductService-to-ProductRepository" style="stroke:#181818;stroke-width:0.5;stroke-dasharray:7.0,7.0;"/><polygon fill="#181818" points="45.215,385.61,45.215,380.6856,44.1997,383.3255,41.5598,382.3101,45.215,385.61" style="stroke:#181818;stroke-width:0.5;"/><text fill="#000000" font-family="sans-serif" font-size="6.5" lengthAdjust="spacing" textLength="52.5" x="17" y="293.2642">productRepository</text></g><!--link ProductService to Product--><g id="link_ProductService_Product"><path codeLine="111" d="M520.205,203.565 C546.925,218.235 582,237.5 582,237.5 C582,237.5 619.5,457.5 619.5,457.5 C619.5,457.5 627.958,462.4295 642.458,470.8795 " fill="none" id="ProductService-to-Product" style="stroke:#181818;stroke-width:0.5;stroke-dasharray:7.0,7.0;"/><polygon fill="#181818" points="645.05,472.39,642.169,468.3963,642.89,471.1312,640.155,471.8522,645.05,472.39" style="stroke:#181818;stroke-width:0.5;"/><text fill="#000000" font-family="sans-serif" font-size="6.5" lengthAdjust="spacing" textLength="21.5" x="600.5" y="343.5142">product</text></g><!--link ProductionService to Repositories--><g id="link_ProductionService_Repositories"><path codeLine="112" d="M591.41,208.035 C569.25,214.515 550.5,220 550.5,220 C550.5,220 380,237.5 380,237.5 C380,237.5 353.9864,247.1882 322.4014,258.9482 " fill="none" id="ProductionService-to-Repositories" style="stroke:#181818;stroke-width:0.5;stroke-dasharray:7.0,7.0;"/><polygon fill="#181818" points="319.59,259.995,324.505,260.2991,321.9329,259.1227,323.1093,256.5505,319.59,259.995" style="stroke:#181818;stroke-width:0.5;"/><text fill="#000000" font-family="sans-serif" font-size="6.5" lengthAdjust="spacing" textLength="33.5" x="509.5" y="231.5142">repositories</text></g><!--link ProductionService to ProductionTreeRepository--><g id="link_ProductionService_ProductionTreeRepository"><path codeLine="113" d="M591.41,208.035 C569.25,214.515 550.5,220 550.5,220 C550.5,220 417,224 417,224 C417,224 74,237.5 74,237.5 C74,237.5 74,321 74,321 C74,321 108,345.5 108,345.5 C108,345.5 158.3823,367.8245 196.0523,384.5195 " fill="none" id="ProductionService-to-ProductionTreeRepository" style="stroke:#181818;stroke-width:0.5;stroke-dasharray:7.0,7.0;"/><polygon fill="#181818" points="198.795,385.735,195.4913,382.0832,196.5094,384.722,193.8706,385.7402,198.795,385.735" style="stroke:#181818;stroke-width:0.5;"/><text fill="#000000" font-family="sans-serif" font-size="6.5" lengthAdjust="spacing" textLength="73.5" x="74.5" y="293.2642">productionTreeRepository</text></g><!--link ProductionService to Product--><g id="link_ProductionService_Product"><path codeLine="114" d="M665.735,208.06 C674.01,261.255 695.574,399.9456 706.384,469.4556 " fill="none" id="ProductionService-to-Product" style="stroke:#181818;stroke-width:0.5;stroke-dasharray:7.0,7.0;"/><polygon fill="#181818" points="706.845,472.42,708.1297,467.6661,706.4608,469.9497,704.1772,468.2808,706.845,472.42" style="stroke:#181818;stroke-width:0.5;"/><text fill="#000000" font-family="sans-serif" font-size="6.5" lengthAdjust="spacing" textLength="21.5" x="687" y="343.5142">product</text></g><!--link ProductionService to ProductionElement--><g id="link_ProductionService_ProductionElement"><path codeLine="115" d="M673.715,208.125 C681.135,221.93 689.5,237.5 689.5,237.5 C689.5,237.5 743.5,345.5 743.5,345.5 C743.5,345.5 807,457.5 807,457.5 C807,457.5 828.0743,467.9882 853.4593,480.6232 " fill="none" id="ProductionService-to-ProductionElement" style="stroke:#181818;stroke-width:0.5;stroke-dasharray:7.0,7.0;"/><polygon fill="#181818" points="856.145,481.96,853.0076,478.1644,853.9069,480.846,851.2253,481.7453,856.145,481.96" style="stroke:#181818;stroke-width:0.5;"/><text fill="#000000" font-family="sans-serif" font-size="6.5" lengthAdjust="spacing" textLength="54" x="744" y="343.5142">productionElement</text></g><!--link ProductionService to Workstation--><g id="link_ProductionService_Workstation"><path codeLine="116" d="M687.63,208.125 C704.255,221.93 723,237.5 723,237.5 C723,237.5 800.5,336 800.5,336 C800.5,336 841.5,433 841.5,433 C841.5,433 912.5,457.5 912.5,457.5 C912.5,457.5 1000.5,472.5 1000.5,472.5 C1000.5,472.5 1003.0284,474.5611 1009.6684,479.9661 " fill="none" id="ProductionService-to-Workstation" style="stroke:#181818;stroke-width:0.5;stroke-dasharray:7.0,7.0;"/><polygon fill="#181818" points="1011.995,481.86,1009.7677,477.4681,1010.0561,480.2818,1007.2425,480.5703,1011.995,481.86" style="stroke:#181818;stroke-width:0.5;"/><text fill="#000000" font-family="sans-serif" font-size="6.5" lengthAdjust="spacing" textLength="33" x="804.5" y="343.5142">workstation</text></g><!--link ProductionService to Event--><g id="link_ProductionService_Event"><path codeLine="117" d="M758.96,208.04 C797.54,216.355 833,224 833,224 C833,224 877.2358,318.304 901.0608,369.089 " fill="none" id="ProductionService-to-Event" style="stroke:#181818;stroke-width:0.5;stroke-dasharray:7.0,7.0;"/><polygon fill="#181818" points="902.335,371.805,902.2344,366.8816,901.2732,369.5417,898.6131,368.5805,902.335,371.805" style="stroke:#181818;stroke-width:0.5;"/><text fill="#000000" font-family="sans-serif" font-size="6.5" lengthAdjust="spacing" textLength="15" x="878" y="293.2642">event</text></g><!--link Repositories to Repositories--><g id="link_Repositories_Repositories"><path codeLine="118" d="M320.56,282.285 C331.06,283.71 338,286.445 338,290.5 C338,294.555 334.0327,296.8866 323.5327,298.3116 " fill="none" id="Repositories-to-Repositories" style="stroke:#181818;stroke-width:0.5;"/><polygon fill="#181818" points="320.56,298.715,325.2881,300.0917,323.0373,298.3788,324.7502,296.128,320.56,298.715" style="stroke:#181818;stroke-width:0.5;"/><text fill="#000000" font-family="sans-serif" font-size="6.5" lengthAdjust="spacing" textLength="24.5" x="341" y="293.2642">instance</text></g><!--link Repositories to ProductRepository--><g id="link_Repositories_ProductRepository"><path codeLine="119" d="M168.95,321.02 C135.435,335.385 102.5,349.5 102.5,349.5 C102.5,349.5 84.7942,368.0929 70.1142,383.5029 " fill="none" id="Repositories-to-ProductRepository" style="stroke:#181818;stroke-width:0.5;"/><polygon fill="#181818" points="68.045,385.675,72.597,383.7963,69.7694,383.8649,69.7008,381.0373,68.045,385.675" style="stroke:#181818;stroke-width:0.5;"/><text fill="#000000" font-family="sans-serif" font-size="6.5" lengthAdjust="spacing" textLength="52.5" x="132.5" y="343.5142">productRepository</text><text fill="#000000" font-family="sans-serif" font-size="6.5" lengthAdjust="spacing" textLength="3.5" x="156.6994" y="332.2659">1</text><text fill="#000000" font-family="sans-serif" font-size="6.5" lengthAdjust="spacing" textLength="3.5" x="67.2609" y="380.073">1</text></g><!--link Repositories to ProductionTreeRepository--><g id="link_Repositories_ProductionTreeRepository"><path codeLine="120" d="M238.055,321.04 C237.395,341.84 236.6446,365.7365 236.1096,382.6865 " fill="none" id="Repositories-to-ProductionTreeRepository" style="stroke:#181818;stroke-width:0.5;"/><polygon fill="#181818" points="236.015,385.685,238.156,381.2503,236.0939,383.1862,234.158,381.1241,236.015,385.685" style="stroke:#181818;stroke-width:0.5;"/><text fill="#000000" font-family="sans-serif" font-size="6.5" lengthAdjust="spacing" textLength="73.5" x="238" y="343.5142">productionTreeRepository</text><text fill="#000000" font-family="sans-serif" font-size="6.5" lengthAdjust="spacing" textLength="3.5" x="234.2265" y="332.2883">1</text><text fill="#000000" font-family="sans-serif" font-size="6.5" lengthAdjust="spacing" textLength="3.5" x="232.2719" y="380.085">1</text></g><!--link ProductRepository to Product--><g id="link_ProductRepository_Product"><path codeLine="121" d="M79.695,419.315 C91.42,426.355 102.5,433 102.5,433 C102.5,433 423.1048,474.4849 599.1148,497.2649 " fill="none" id="ProductRepository-to-Product" style="stroke:#181818;stroke-width:0.5;"/><polygon fill="#181818" points="602.09,497.65,597.8839,495.089,599.6107,497.3291,597.3705,499.0559,602.09,497.65" style="stroke:#181818;stroke-width:0.5;"/><text fill="#000000" font-family="sans-serif" font-size="6.5" lengthAdjust="spacing" textLength="30" x="283" y="455.5142">categories</text><text fill="#000000" font-family="sans-serif" font-size="6.5" lengthAdjust="spacing" textLength="3.5" x="80.7274" y="430.1112">1</text><text fill="#000000" font-family="sans-serif" font-size="6.5" lengthAdjust="spacing" textLength="2.5" x="595.9098" y="495.5421">*</text></g><!--link ProductionTreeRepository to ProductionElement--><g id="link_ProductionTreeRepository_ProductionElement"><path codeLine="122" d="M313.88,419.275 C347.85,426.325 380,433 380,433 C380,433 832.5,472.5 832.5,472.5 C832.5,472.5 838.3,475.2288 849.905,480.6838 " fill="none" id="ProductionTreeRepository-to-ProductionElement" style="stroke:#181818;stroke-width:0.5;"/><polygon fill="#181818" points="852.62,481.96,849.3983,478.2357,850.3575,480.8965,847.6967,481.8557,852.62,481.96" style="stroke:#181818;stroke-width:0.5;"/><text fill="#000000" font-family="sans-serif" font-size="6.5" lengthAdjust="spacing" textLength="30" x="660.5" y="455.5142">categories</text><text fill="#000000" font-family="sans-serif" font-size="6.5" lengthAdjust="spacing" textLength="3.5" x="324.0297" y="430.0641">1</text><text fill="#000000" font-family="sans-serif" font-size="6.5" lengthAdjust="spacing" textLength="2.5" x="842.5893" y="476.446">*</text></g><!--link Product to Part--><g id="link_Product_Part"><path codeLine="123" d="M730.94,552.625 C737.47,567.05 741.0322,574.9165 747.1322,588.3865 " fill="none" id="Product-to-Part" style="stroke:#181818;stroke-width:0.5;"/><polygon fill="none" points="750.845,596.585,749.8651,587.1489,744.3994,589.6241,750.845,596.585" style="stroke:#181818;stroke-width:0.5;"/></g><!--link Event to ProductionElement--><g id="link_Event_ProductionElement"><path codeLine="124" d="M916.5,433.075 C916.5,448.26 916.5,463.635 916.5,478.835 " fill="none" id="Event-to-ProductionElement" style="stroke:#181818;stroke-width:0.5;"/><polygon fill="#181818" points="916.5,481.835,918.5,477.335,916.5,479.335,914.5,477.335,916.5,481.835" style="stroke:#181818;stroke-width:0.5;"/><text fill="#000000" font-family="sans-serif" font-size="6.5" lengthAdjust="spacing" textLength="10.5" x="917" y="455.5142">has</text></g><!--link Event to Workstation--><g id="link_Event_Workstation"><path codeLine="125" d="M953.055,433.075 C971.52,448.26 991.5381,464.7293 1010.0181,479.9293 " fill="none" id="Event-to-Workstation" style="stroke:#181818;stroke-width:0.5;"/><polygon fill="#181818" points="1012.335,481.835,1010.1301,477.4318,1010.4042,480.2469,1007.5891,480.5211,1012.335,481.835" style="stroke:#181818;stroke-width:0.5;"/><text fill="#000000" font-family="sans-serif" font-size="6.5" lengthAdjust="spacing" textLength="10.5" x="983" y="455.5142">has</text></g><!--link ProductionElement to Part--><g id="link_ProductionElement_Part"><path codeLine="126" d="M876.365,543.035 C854.2,559.62 829.1568,578.3624 806.9968,594.9474 " fill="none" id="ProductionElement-to-Part" style="stroke:#181818;stroke-width:0.5;"/><polygon fill="#181818" points="804.595,596.745,809.3961,595.6499,806.5965,595.247,806.9993,592.4474,804.595,596.745" style="stroke:#181818;stroke-width:0.5;"/><text fill="#000000" font-family="sans-serif" font-size="6.5" lengthAdjust="spacing" textLength="10.5" x="841" y="575.0142">has</text></g><!--link ProductionElement to Operation--><g id="link_ProductionElement_Operation"><path codeLine="127" d="M916.5,543.035 C916.5,558.045 916.5,573.285 916.5,588.905 " fill="none" id="ProductionElement-to-Operation" style="stroke:#181818;stroke-width:0.5;"/><polygon fill="#181818" points="916.5,591.905,918.5,587.405,916.5,589.405,914.5,587.405,916.5,591.905" style="stroke:#181818;stroke-width:0.5;"/><text fill="#000000" font-family="sans-serif" font-size="6.5" lengthAdjust="spacing" textLength="10.5" x="917" y="575.0142">has</text></g><!--link ProductionService to ProductException--><g id="link_ProductionService_ProductException"><path codeLine="128" d="M625.77,208.045 C594.28,225.87 551.7606,249.942 520.2856,267.762 " fill="none" id="ProductionService-to-ProductException" style="stroke:#181818;stroke-width:0.5;stroke-dasharray:7.0,7.0;"/><polygon fill="#181818" points="517.675,269.24,522.5763,268.7634,519.8505,268.0083,520.6056,265.2825,517.675,269.24" style="stroke:#181818;stroke-width:0.5;"/><text fill="#000000" font-family="sans-serif" font-size="6.5" lengthAdjust="spacing" textLength="19" x="593.5" y="231.5142">throws</text></g><!--link ProductException to RuntimeException--><g id="link_ProductException_RuntimeException"><path codeLine="129" d="M481,311.88 C481,335.115 481,362.83 481,381.41 " fill="none" id="ProductException-to-RuntimeException" style="stroke:#181818;stroke-width:0.5;"/><polygon fill="none" points="481,390.41,484,381.41,478,381.41,481,390.41" style="stroke:#181818;stroke-width:0.5;"/></g><!--SRC=[hLPBJnin4Bxlhx1oIfeDQgyhX8I0YaZb8KB5sUnE4ml7tjfU86tvxxLtdRMzTXAecakIcMzclddOO_b4M8q5NgCQbqzu2GkreO04b0gp9OLCzW2vmXL_8Mo9Vc0gVGqb3DIc1bHpkZ5_F5r9iPIdIWdos2YObvmjo2z0dxFC1aIZx_CH-fqX_Md1Q47M3SMAYrl1gwPKX3Fxw_lS0j-oDy_16MTAS4f1X8wibLDRhVbCbw2iNeudg43VY5J7Ld9YWyI-D9UqExabFQuxvFoyzthn3AptwHDVW7Wc9IHPMzr_eHpxcZbVMdyl04BUrrXiZFJOWIuehFiy1Zah3JsSxXtKN1ADtuGPzt82qkVeoyUJe0vp9lM0bj3MmSUbgkNYjl18chBPLiKpiAA1NQha3Z9etocb7-jS630z31fsIK1WKQusOHSliLnTuJfkOexcJC4IHAfDLxm2EfX9B9JV6L9fxmjzgDdI2HbUGq9SWIm5gKtqM3irdiUaof6npf47dkoiYy-an3eFKvg-JMTMucDqRaGP367AoQMvYGQoabCk4bdKmXoW0bMyUTJNekFV1KsdaACjFVEh8v4Z4rR_Du5orFgTx1i1sp8_wTgqesYxueIyrZDWgtop_UtKFnlCL5U4ytGEBjRO1CXHxp57M-i4qpvMD211OTi5uJ6xr_yFpWwyGjcqQB8UjchQksgBR_nlMn2O9IW_SF6axu_3f7VGmi-OKAnhg7MFd5F0hj1Jpta_5GaExItfHt_nI1K-HNy8XqDHn8FYpRVIRKnKRWQi6eZ36-3YjOHsW9ERgTVwrr4TN5dNN7tb3Ql2wsXe7rb_m2oevLsZXtCD3g6rUryHHqSdyUlWtIR18o2BNnaUr6xU_I2teRF1yZUWO3iM-cdcBRi4F5v11QgZZRVRqC6p-07nJZu3Yvthh0yLhzQzdWvol4qSbEZmxB1z2CwXToftuBk3N20mtrbGdTaiAXUn3vSGEFeoQi7c-tqDF6J-ByNsmBt7JoElw7QRXPqUX4bO1cs8VMZudvDkcNMrDEOfqnMM7YBiaz75DgsdRbdk1jnuYpD49KRANNu5KYl1NtgyqxJvH7VINm00]--></g></svg>