<?xml version="1.0" encoding="us-ascii" standalone="no"?><svg xmlns="http://www.w3.org/2000/svg" xmlns:xlink="http://www.w3.org/1999/xlink" contentStyleType="text/css" height="1010.1px" preserveAspectRatio="none" style="width:1154px;height:1010px;background:#FFFFFF;" version="1.1" viewBox="0 0 1154 1010" width="1154.3px" zoomAndPan="magnify"><defs/><g><!--cluster UI--><g id="cluster_UI"><rect fill="none" height="70.7" rx="1.75" ry="1.75" style="stroke:#000000;stroke-width:1.0499999999999998;" width="116.2" x="623.7" y="4.9"/><text fill="#000000" font-family="sans-serif" font-size="9.8" font-weight="bold" lengthAdjust="spacing" textLength="9.8" x="676.9" y="16.8752">UI</text></g><!--cluster Controller--><g id="cluster_Controller"><rect fill="none" height="109.9" rx="1.75" ry="1.75" style="stroke:#000000;stroke-width:1.0499999999999998;" width="470.4" x="446.6" y="98.7"/><text fill="#000000" font-family="sans-serif" font-size="9.8" font-weight="bold" lengthAdjust="spacing" textLength="49.7" x="656.95" y="110.6752">Controller</text></g><!--cluster Service--><g id="cluster_Service"><rect fill="none" height="109.9" rx="1.75" ry="1.75" style="stroke:#000000;stroke-width:1.0499999999999998;" width="470.4" x="446.6" y="231.7"/><text fill="#000000" font-family="sans-serif" font-size="9.8" font-weight="bold" lengthAdjust="spacing" textLength="37.8" x="662.9" y="243.6752">Service</text></g><!--cluster Repository--><g id="cluster_Repository"><rect fill="none" height="250.6" rx="1.75" ry="1.75" style="stroke:#000000;stroke-width:1.0499999999999998;" width="550.9" x="4.9" y="377.3"/><text fill="#000000" font-family="sans-serif" font-size="9.8" font-weight="bold" lengthAdjust="spacing" textLength="53.2" x="253.75" y="389.2752">Repository</text></g><!--cluster Model--><g id="cluster_Model"><rect fill="none" height="342.3" rx="1.75" ry="1.75" style="stroke:#000000;stroke-width:1.0499999999999998;" width="335.3" x="450.1" y="663.6"/><text fill="#000000" font-family="sans-serif" font-size="9.8" font-weight="bold" lengthAdjust="spacing" textLength="30.8" x="602.35" y="675.5752">Model</text></g><!--cluster Exception--><g id="cluster_Exception"><rect fill="none" height="231" rx="1.75" ry="1.75" style="stroke:#000000;stroke-width:1.0499999999999998;" width="218.4" x="572.6" y="377.3"/><text fill="#000000" font-family="sans-serif" font-size="9.8" font-weight="bold" lengthAdjust="spacing" textLength="49" x="657.3" y="389.2752">Exception</text></g><!--cluster Commom--><g id="cluster_Commom"><rect fill="none" height="109.9" rx="1.75" ry="1.75" style="stroke:#000000;stroke-width:1.0499999999999998;" width="242.2" x="907.9" y="383.6"/><text fill="#000000" font-family="sans-serif" font-size="9.8" font-weight="bold" lengthAdjust="spacing" textLength="44.8" x="1006.6" y="395.5752">Commom</text></g><!--class RegisterClientUI--><g id="elem_RegisterClientUI"><rect codeLine="7" fill="#F1F1F1" height="33.6" id="RegisterClientUI" rx="1.75" ry="1.75" style="stroke:#181818;stroke-width:0.3499999999999999;" width="93.1" x="635.25" y="30.8"/><ellipse cx="645.75" cy="42" fill="#ADD1B2" rx="7.7" ry="7.7" style="stroke:#181818;stroke-width:0.6999999999999998;"/><path d="M647.6859,39.1125 Q647.7953,38.9594 647.9266,38.8828 Q648.0578,38.8062 648.2109,38.8062 Q648.4734,38.8062 648.6375,38.9922 Q648.8016,39.1672 648.8016,39.5937 L648.8016,40.6109 Q648.8016,41.0375 648.6375,41.2234 Q648.4734,41.4094 648.2109,41.4094 Q647.9703,41.4094 647.8281,41.2672 Q647.6859,41.1359 647.6094,40.775 Q647.5766,40.5234 647.4453,40.3922 Q647.2156,40.1297 646.7891,39.9766 Q646.3625,39.8234 645.925,39.8234 Q645.3891,39.8234 644.9406,40.0531 Q644.5031,40.2828 644.1531,40.8078 Q643.8141,41.3328 643.8141,42.0547 L643.8141,42.8203 Q643.8141,43.6844 644.4375,44.2641 Q645.0609,44.8328 646.1766,44.8328 Q646.8328,44.8328 647.2922,44.6578 Q647.5656,44.5484 647.8609,44.2422 Q648.0469,44.0562 648.1453,44.0016 Q648.2547,43.9469 648.3969,43.9469 Q648.6266,43.9469 648.8016,44.1328 Q648.9875,44.3078 648.9875,44.5484 Q648.9875,44.7891 648.7469,45.0734 Q648.3969,45.4781 647.8391,45.7078 Q647.0844,46.025 646.1766,46.025 Q645.1156,46.025 644.2734,45.5875 Q643.5844,45.2375 643.1031,44.4937 Q642.6219,43.7391 642.6219,42.8422 L642.6219,42.0328 Q642.6219,41.1031 643.0484,40.3047 Q643.4859,39.4953 644.2516,39.0687 Q645.0172,38.6312 645.8812,38.6312 Q646.3953,38.6312 646.8437,38.7516 Q647.3031,38.8609 647.6859,39.1125 Z " fill="#000000"/><text fill="#000000" font-family="sans-serif" font-size="9.8" lengthAdjust="spacing" textLength="70.7" x="655.55" y="46.0578">RegisterClientUI</text><line style="stroke:#181818;stroke-width:0.3499999999999999;" x1="635.95" x2="727.65" y1="53.2" y2="53.2"/><line style="stroke:#181818;stroke-width:0.3499999999999999;" x1="635.95" x2="727.65" y1="58.8" y2="58.8"/></g><!--class ClientController--><g id="elem_ClientController"><rect codeLine="12" fill="#F1F1F1" height="72.7043" id="ClientController" rx="1.75" ry="1.75" style="stroke:#181818;stroke-width:0.3499999999999999;" width="448" x="457.8" y="124.6"/><ellipse cx="644.525" cy="135.8" fill="#ADD1B2" rx="7.7" ry="7.7" style="stroke:#181818;stroke-width:0.6999999999999998;"/><path d="M646.4609,132.9125 Q646.5703,132.7594 646.7016,132.6828 Q646.8328,132.6062 646.9859,132.6062 Q647.2484,132.6062 647.4125,132.7922 Q647.5766,132.9672 647.5766,133.3937 L647.5766,134.4109 Q647.5766,134.8375 647.4125,135.0234 Q647.2484,135.2094 646.9859,135.2094 Q646.7453,135.2094 646.6031,135.0672 Q646.4609,134.9359 646.3844,134.575 Q646.3516,134.3234 646.2203,134.1922 Q645.9906,133.9297 645.5641,133.7766 Q645.1375,133.6234 644.7,133.6234 Q644.1641,133.6234 643.7156,133.8531 Q643.2781,134.0828 642.9281,134.6078 Q642.5891,135.1328 642.5891,135.8547 L642.5891,136.6203 Q642.5891,137.4844 643.2125,138.0641 Q643.8359,138.6328 644.9516,138.6328 Q645.6078,138.6328 646.0672,138.4578 Q646.3406,138.3484 646.6359,138.0422 Q646.8219,137.8562 646.9203,137.8016 Q647.0297,137.7469 647.1719,137.7469 Q647.4016,137.7469 647.5766,137.9328 Q647.7625,138.1078 647.7625,138.3484 Q647.7625,138.5891 647.5219,138.8734 Q647.1719,139.2781 646.6141,139.5078 Q645.8594,139.825 644.9516,139.825 Q643.8906,139.825 643.0484,139.3875 Q642.3594,139.0375 641.8781,138.2937 Q641.3969,137.5391 641.3969,136.6422 L641.3969,135.8328 Q641.3969,134.9031 641.8234,134.1047 Q642.2609,133.2953 643.0266,132.8687 Q643.7922,132.4312 644.6562,132.4312 Q645.1703,132.4312 645.6187,132.5516 Q646.0781,132.6609 646.4609,132.9125 Z " fill="#000000"/><text fill="#000000" font-family="sans-serif" font-size="9.8" lengthAdjust="spacing" textLength="68.6" x="658.875" y="139.8578">ClientController</text><line style="stroke:#181818;stroke-width:0.3499999999999999;" x1="458.5" x2="905.1" y1="147" y2="147"/><line style="stroke:#181818;stroke-width:0.3499999999999999;" x1="458.5" x2="905.1" y1="152.6" y2="152.6"/><text fill="#000000" font-family="sans-serif" font-size="9.8" lengthAdjust="spacing" textLength="127.4" x="462" y="165.9752">+getAllClients() : List&lt;Client&gt;</text><text fill="#000000" font-family="sans-serif" font-size="9.8" lengthAdjust="spacing" textLength="136.5" x="462" y="179.01">+getClientById(clientID) : Client</text><text fill="#000000" font-family="sans-serif" font-size="9.8" lengthAdjust="spacing" textLength="439.6" x="462" y="192.0447">+updateClient(client, name, vatin, street, zipCode, town, country, phoneNumber, email, type) : Client</text></g><!--class ClientService--><g id="elem_ClientService"><rect codeLine="20" fill="#F1F1F1" height="72.7043" id="ClientService" rx="1.75" ry="1.75" style="stroke:#181818;stroke-width:0.3499999999999999;" width="448" x="457.8" y="257.6"/><ellipse cx="649.775" cy="268.8" fill="#ADD1B2" rx="7.7" ry="7.7" style="stroke:#181818;stroke-width:0.6999999999999998;"/><path d="M651.7109,265.9125 Q651.8203,265.7594 651.9516,265.6828 Q652.0828,265.6062 652.2359,265.6062 Q652.4984,265.6062 652.6625,265.7922 Q652.8266,265.9672 652.8266,266.3937 L652.8266,267.4109 Q652.8266,267.8375 652.6625,268.0234 Q652.4984,268.2094 652.2359,268.2094 Q651.9953,268.2094 651.8531,268.0672 Q651.7109,267.9359 651.6344,267.575 Q651.6016,267.3234 651.4703,267.1922 Q651.2406,266.9297 650.8141,266.7766 Q650.3875,266.6234 649.95,266.6234 Q649.4141,266.6234 648.9656,266.8531 Q648.5281,267.0828 648.1781,267.6078 Q647.8391,268.1328 647.8391,268.8547 L647.8391,269.6203 Q647.8391,270.4844 648.4625,271.0641 Q649.0859,271.6328 650.2016,271.6328 Q650.8578,271.6328 651.3172,271.4578 Q651.5906,271.3484 651.8859,271.0422 Q652.0719,270.8562 652.1703,270.8016 Q652.2797,270.7469 652.4219,270.7469 Q652.6516,270.7469 652.8266,270.9328 Q653.0125,271.1078 653.0125,271.3484 Q653.0125,271.5891 652.7719,271.8734 Q652.4219,272.2781 651.8641,272.5078 Q651.1094,272.825 650.2016,272.825 Q649.1406,272.825 648.2984,272.3875 Q647.6094,272.0375 647.1281,271.2937 Q646.6469,270.5391 646.6469,269.6422 L646.6469,268.8328 Q646.6469,267.9031 647.0734,267.1047 Q647.5109,266.2953 648.2766,265.8687 Q649.0422,265.4312 649.9062,265.4312 Q650.4203,265.4312 650.8687,265.5516 Q651.3281,265.6609 651.7109,265.9125 Z " fill="#000000"/><text fill="#000000" font-family="sans-serif" font-size="9.8" lengthAdjust="spacing" textLength="58.1" x="664.125" y="272.8578">ClientService</text><line style="stroke:#181818;stroke-width:0.3499999999999999;" x1="458.5" x2="905.1" y1="280" y2="280"/><line style="stroke:#181818;stroke-width:0.3499999999999999;" x1="458.5" x2="905.1" y1="285.6" y2="285.6"/><text fill="#000000" font-family="sans-serif" font-size="9.8" lengthAdjust="spacing" textLength="116.9" x="462" y="298.9752">+getClients() : List&lt;Client&gt;</text><text fill="#000000" font-family="sans-serif" font-size="9.8" lengthAdjust="spacing" textLength="137.9" x="462" y="312.01">+getClientByID(clientID) : Client</text><text fill="#000000" font-family="sans-serif" font-size="9.8" lengthAdjust="spacing" textLength="439.6" x="462" y="325.0447">+updateClient(client, name, vatin, street, zipCode, town, country, phoneNumber, email, type) : Client</text></g><!--class Repositories--><g id="elem_Repositories"><rect codeLine="28" fill="#F1F1F1" height="85.7391" id="Repositories" rx="1.75" ry="1.75" style="stroke:#181818;stroke-width:0.3499999999999999;" width="211.4" x="51.1" y="403.2"/><ellipse cx="126.175" cy="414.4" fill="#ADD1B2" rx="7.7" ry="7.7" style="stroke:#181818;stroke-width:0.6999999999999998;"/><path d="M128.1109,411.5125 Q128.2203,411.3594 128.3516,411.2828 Q128.4828,411.2062 128.6359,411.2062 Q128.8984,411.2062 129.0625,411.3922 Q129.2266,411.5672 129.2266,411.9937 L129.2266,413.0109 Q129.2266,413.4375 129.0625,413.6234 Q128.8984,413.8094 128.6359,413.8094 Q128.3953,413.8094 128.2531,413.6672 Q128.1109,413.5359 128.0344,413.175 Q128.0016,412.9234 127.8703,412.7922 Q127.6406,412.5297 127.2141,412.3766 Q126.7875,412.2234 126.35,412.2234 Q125.8141,412.2234 125.3656,412.4531 Q124.9281,412.6828 124.5781,413.2078 Q124.2391,413.7328 124.2391,414.4547 L124.2391,415.2203 Q124.2391,416.0844 124.8625,416.6641 Q125.4859,417.2328 126.6016,417.2328 Q127.2578,417.2328 127.7172,417.0578 Q127.9906,416.9484 128.2859,416.6422 Q128.4719,416.4562 128.5703,416.4016 Q128.6797,416.3469 128.8219,416.3469 Q129.0516,416.3469 129.2266,416.5328 Q129.4125,416.7078 129.4125,416.9484 Q129.4125,417.1891 129.1719,417.4734 Q128.8219,417.8781 128.2641,418.1078 Q127.5094,418.425 126.6016,418.425 Q125.5406,418.425 124.6984,417.9875 Q124.0094,417.6375 123.5281,416.8937 Q123.0469,416.1391 123.0469,415.2422 L123.0469,414.4328 Q123.0469,413.5031 123.4734,412.7047 Q123.9109,411.8953 124.6766,411.4687 Q125.4422,411.0312 126.3062,411.0312 Q126.8203,411.0312 127.2687,411.1516 Q127.7281,411.2609 128.1109,411.5125 Z " fill="#000000"/><text fill="#000000" font-family="sans-serif" font-size="9.8" lengthAdjust="spacing" textLength="55.3" x="140.525" y="418.4578">Repositories</text><line style="stroke:#181818;stroke-width:0.3499999999999999;" x1="51.8" x2="261.8" y1="425.6" y2="425.6"/><line style="stroke:#181818;stroke-width:0.3499999999999999;" x1="51.8" x2="261.8" y1="431.2" y2="431.2"/><text fill="#000000" font-family="sans-serif" font-size="9.8" lengthAdjust="spacing" textLength="65.8" x="55.3" y="444.5752">-Repositories()</text><text fill="#000000" font-family="sans-serif" font-size="9.8" lengthAdjust="spacing" textLength="127.4" x="55.3" y="457.61">+getInstance() : Repositories</text><text fill="#000000" font-family="sans-serif" font-size="9.8" lengthAdjust="spacing" textLength="180.6" x="55.3" y="470.6447">+getClientRepository() : ClientRepository</text><text fill="#000000" font-family="sans-serif" font-size="9.8" lengthAdjust="spacing" textLength="203" x="55.3" y="483.6795">+getAddressRepository() : AddressRepository</text></g><!--class ClientRepository--><g id="elem_ClientRepository"><rect codeLine="35" fill="#F1F1F1" height="72.7043" id="ClientRepository" rx="1.75" ry="1.75" style="stroke:#181818;stroke-width:0.3499999999999999;" width="200.2" x="344.4" y="543.9"/><ellipse cx="405.125" cy="555.1" fill="#ADD1B2" rx="7.7" ry="7.7" style="stroke:#181818;stroke-width:0.6999999999999998;"/><path d="M407.0609,552.2125 Q407.1703,552.0594 407.3016,551.9828 Q407.4328,551.9062 407.5859,551.9062 Q407.8484,551.9062 408.0125,552.0922 Q408.1766,552.2672 408.1766,552.6937 L408.1766,553.7109 Q408.1766,554.1375 408.0125,554.3234 Q407.8484,554.5094 407.5859,554.5094 Q407.3453,554.5094 407.2031,554.3672 Q407.0609,554.2359 406.9844,553.875 Q406.9516,553.6234 406.8203,553.4922 Q406.5906,553.2297 406.1641,553.0766 Q405.7375,552.9234 405.3,552.9234 Q404.7641,552.9234 404.3156,553.1531 Q403.8781,553.3828 403.5281,553.9078 Q403.1891,554.4328 403.1891,555.1547 L403.1891,555.9203 Q403.1891,556.7844 403.8125,557.3641 Q404.4359,557.9328 405.5516,557.9328 Q406.2078,557.9328 406.6672,557.7578 Q406.9406,557.6484 407.2359,557.3422 Q407.4219,557.1562 407.5203,557.1016 Q407.6297,557.0469 407.7719,557.0469 Q408.0016,557.0469 408.1766,557.2328 Q408.3625,557.4078 408.3625,557.6484 Q408.3625,557.8891 408.1219,558.1734 Q407.7719,558.5781 407.2141,558.8078 Q406.4594,559.125 405.5516,559.125 Q404.4906,559.125 403.6484,558.6875 Q402.9594,558.3375 402.4781,557.5937 Q401.9969,556.8391 401.9969,555.9422 L401.9969,555.1328 Q401.9969,554.2031 402.4234,553.4047 Q402.8609,552.5953 403.6266,552.1687 Q404.3922,551.7312 405.2562,551.7312 Q405.7703,551.7312 406.2187,551.8516 Q406.6781,551.9609 407.0609,552.2125 Z " fill="#000000"/><text fill="#000000" font-family="sans-serif" font-size="9.8" lengthAdjust="spacing" textLength="72.8" x="419.475" y="559.1578">ClientRepository</text><line style="stroke:#181818;stroke-width:0.3499999999999999;" x1="345.1" x2="543.9" y1="566.3" y2="566.3"/><line style="stroke:#181818;stroke-width:0.3499999999999999;" x1="345.1" x2="543.9" y1="571.9" y2="571.9"/><text fill="#000000" font-family="sans-serif" font-size="9.8" lengthAdjust="spacing" textLength="145.6" x="348.6" y="585.2752">+getAll(connection) : List&lt;Client&gt;</text><text fill="#000000" font-family="sans-serif" font-size="9.8" lengthAdjust="spacing" textLength="191.8" x="348.6" y="598.31">+getClientByID(connection, clientID) : Client</text><text fill="#000000" font-family="sans-serif" font-size="9.8" lengthAdjust="spacing" textLength="164.5" x="348.6" y="611.3447">+update(connection, client) : boolean</text></g><!--class AddressRepository--><g id="elem_AddressRepository"><rect codeLine="41" fill="#F1F1F1" height="72.7043" id="AddressRepository" rx="1.75" ry="1.75" style="stroke:#181818;stroke-width:0.3499999999999999;" width="303.1" x="16.45" y="543.9"/><ellipse cx="123.025" cy="555.1" fill="#ADD1B2" rx="7.7" ry="7.7" style="stroke:#181818;stroke-width:0.6999999999999998;"/><path d="M124.9609,552.2125 Q125.0703,552.0594 125.2016,551.9828 Q125.3328,551.9062 125.4859,551.9062 Q125.7484,551.9062 125.9125,552.0922 Q126.0766,552.2672 126.0766,552.6937 L126.0766,553.7109 Q126.0766,554.1375 125.9125,554.3234 Q125.7484,554.5094 125.4859,554.5094 Q125.2453,554.5094 125.1031,554.3672 Q124.9609,554.2359 124.8844,553.875 Q124.8516,553.6234 124.7203,553.4922 Q124.4906,553.2297 124.0641,553.0766 Q123.6375,552.9234 123.2,552.9234 Q122.6641,552.9234 122.2156,553.1531 Q121.7781,553.3828 121.4281,553.9078 Q121.0891,554.4328 121.0891,555.1547 L121.0891,555.9203 Q121.0891,556.7844 121.7125,557.3641 Q122.3359,557.9328 123.4516,557.9328 Q124.1078,557.9328 124.5672,557.7578 Q124.8406,557.6484 125.1359,557.3422 Q125.3219,557.1562 125.4203,557.1016 Q125.5297,557.0469 125.6719,557.0469 Q125.9016,557.0469 126.0766,557.2328 Q126.2625,557.4078 126.2625,557.6484 Q126.2625,557.8891 126.0219,558.1734 Q125.6719,558.5781 125.1141,558.8078 Q124.3594,559.125 123.4516,559.125 Q122.3906,559.125 121.5484,558.6875 Q120.8594,558.3375 120.3781,557.5937 Q119.8969,556.8391 119.8969,555.9422 L119.8969,555.1328 Q119.8969,554.2031 120.3234,553.4047 Q120.7609,552.5953 121.5266,552.1687 Q122.2922,551.7312 123.1562,551.7312 Q123.6703,551.7312 124.1187,551.8516 Q124.5781,551.9609 124.9609,552.2125 Z " fill="#000000"/><text fill="#000000" font-family="sans-serif" font-size="9.8" lengthAdjust="spacing" textLength="84" x="137.375" y="559.1578">AddressRepository</text><line style="stroke:#181818;stroke-width:0.3499999999999999;" x1="17.15" x2="318.85" y1="566.3" y2="566.3"/><line style="stroke:#181818;stroke-width:0.3499999999999999;" x1="17.15" x2="318.85" y1="571.9" y2="571.9"/><text fill="#000000" font-family="sans-serif" font-size="9.8" lengthAdjust="spacing" textLength="294.7" x="20.65" y="585.2752">+findAddress(connection, street, zipCode, town, country) : Address</text><text fill="#000000" font-family="sans-serif" font-size="9.8" lengthAdjust="spacing" textLength="156.8" x="20.65" y="598.31">+getAddressCount(connection) : int</text><text fill="#000000" font-family="sans-serif" font-size="9.8" lengthAdjust="spacing" textLength="167.3" x="20.65" y="611.3447">+save(connection, address) : boolean</text></g><!--class Client--><g id="elem_Client"><rect codeLine="49" fill="#F1F1F1" height="137.8781" id="Client" rx="1.75" ry="1.75" style="stroke:#181818;stroke-width:0.3499999999999999;" width="297.5" x="469.35" y="689.5"/><ellipse cx="602.525" cy="700.7" fill="#ADD1B2" rx="7.7" ry="7.7" style="stroke:#181818;stroke-width:0.6999999999999998;"/><path d="M604.4609,697.8125 Q604.5703,697.6594 604.7016,697.5828 Q604.8328,697.5062 604.9859,697.5062 Q605.2484,697.5062 605.4125,697.6922 Q605.5766,697.8672 605.5766,698.2937 L605.5766,699.3109 Q605.5766,699.7375 605.4125,699.9234 Q605.2484,700.1094 604.9859,700.1094 Q604.7453,700.1094 604.6031,699.9672 Q604.4609,699.8359 604.3844,699.475 Q604.3516,699.2234 604.2203,699.0922 Q603.9906,698.8297 603.5641,698.6766 Q603.1375,698.5234 602.7,698.5234 Q602.1641,698.5234 601.7156,698.7531 Q601.2781,698.9828 600.9281,699.5078 Q600.5891,700.0328 600.5891,700.7547 L600.5891,701.5203 Q600.5891,702.3844 601.2125,702.9641 Q601.8359,703.5328 602.9516,703.5328 Q603.6078,703.5328 604.0672,703.3578 Q604.3406,703.2484 604.6359,702.9422 Q604.8219,702.7562 604.9203,702.7016 Q605.0297,702.6469 605.1719,702.6469 Q605.4016,702.6469 605.5766,702.8328 Q605.7625,703.0078 605.7625,703.2484 Q605.7625,703.4891 605.5219,703.7734 Q605.1719,704.1781 604.6141,704.4078 Q603.8594,704.725 602.9516,704.725 Q601.8906,704.725 601.0484,704.2875 Q600.3594,703.9375 599.8781,703.1937 Q599.3969,702.4391 599.3969,701.5422 L599.3969,700.7328 Q599.3969,699.8031 599.8234,699.0047 Q600.2609,698.1953 601.0266,697.7687 Q601.7922,697.3312 602.6562,697.3312 Q603.1703,697.3312 603.6187,697.4516 Q604.0781,697.5609 604.4609,697.8125 Z " fill="#000000"/><text fill="#000000" font-family="sans-serif" font-size="9.8" lengthAdjust="spacing" textLength="25.2" x="616.875" y="704.7578">Client</text><line style="stroke:#181818;stroke-width:0.3499999999999999;" x1="470.05" x2="766.15" y1="711.9" y2="711.9"/><text fill="#000000" font-family="sans-serif" font-size="9.8" lengthAdjust="spacing" textLength="54.6" x="473.55" y="725.2752">-clientID : int</text><text fill="#000000" font-family="sans-serif" font-size="9.8" lengthAdjust="spacing" textLength="84" x="473.55" y="738.31">-address : Address</text><text fill="#000000" font-family="sans-serif" font-size="9.8" lengthAdjust="spacing" textLength="62.3" x="473.55" y="751.3447">-name : String</text><text fill="#000000" font-family="sans-serif" font-size="9.8" lengthAdjust="spacing" textLength="58.8" x="473.55" y="764.3795">-vatin : String</text><text fill="#000000" font-family="sans-serif" font-size="9.8" lengthAdjust="spacing" textLength="84.7" x="473.55" y="777.4143">-phoneNumber : int</text><text fill="#000000" font-family="sans-serif" font-size="9.8" lengthAdjust="spacing" textLength="60.9" x="473.55" y="790.449">-email : String</text><text fill="#000000" font-family="sans-serif" font-size="9.8" lengthAdjust="spacing" textLength="95.2" x="473.55" y="803.4838">-type : CompanyType</text><line style="stroke:#181818;stroke-width:0.3499999999999999;" x1="470.05" x2="766.15" y1="808.7434" y2="808.7434"/><text fill="#000000" font-family="sans-serif" font-size="9.8" lengthAdjust="spacing" textLength="289.1" x="473.55" y="822.1186">+Client(clientID, name, address, vatin, phoneNumber, email, type)</text></g><!--class Address--><g id="elem_Address"><rect codeLine="60" fill="#F1F1F1" height="111.8086" id="Address" rx="1.75" ry="1.75" style="stroke:#181818;stroke-width:0.3499999999999999;" width="201.6" x="461.3" y="882.7"/><ellipse cx="540.925" cy="893.9" fill="#ADD1B2" rx="7.7" ry="7.7" style="stroke:#181818;stroke-width:0.6999999999999998;"/><path d="M542.8609,891.0125 Q542.9703,890.8594 543.1016,890.7828 Q543.2328,890.7062 543.3859,890.7062 Q543.6484,890.7062 543.8125,890.8922 Q543.9766,891.0672 543.9766,891.4937 L543.9766,892.5109 Q543.9766,892.9375 543.8125,893.1234 Q543.6484,893.3094 543.3859,893.3094 Q543.1453,893.3094 543.0031,893.1672 Q542.8609,893.0359 542.7844,892.675 Q542.7516,892.4234 542.6203,892.2922 Q542.3906,892.0297 541.9641,891.8766 Q541.5375,891.7234 541.1,891.7234 Q540.5641,891.7234 540.1156,891.9531 Q539.6781,892.1828 539.3281,892.7078 Q538.9891,893.2328 538.9891,893.9547 L538.9891,894.7203 Q538.9891,895.5844 539.6125,896.1641 Q540.2359,896.7328 541.3516,896.7328 Q542.0078,896.7328 542.4672,896.5578 Q542.7406,896.4484 543.0359,896.1422 Q543.2219,895.9562 543.3203,895.9016 Q543.4297,895.8469 543.5719,895.8469 Q543.8016,895.8469 543.9766,896.0328 Q544.1625,896.2078 544.1625,896.4484 Q544.1625,896.6891 543.9219,896.9734 Q543.5719,897.3781 543.0141,897.6078 Q542.2594,897.925 541.3516,897.925 Q540.2906,897.925 539.4484,897.4875 Q538.7594,897.1375 538.2781,896.3937 Q537.7969,895.6391 537.7969,894.7422 L537.7969,893.9328 Q537.7969,893.0031 538.2234,892.2047 Q538.6609,891.3953 539.4266,890.9687 Q540.1922,890.5312 541.0562,890.5312 Q541.5703,890.5312 542.0187,890.6516 Q542.4781,890.7609 542.8609,891.0125 Z " fill="#000000"/><text fill="#000000" font-family="sans-serif" font-size="9.8" lengthAdjust="spacing" textLength="36.4" x="555.275" y="897.9578">Address</text><line style="stroke:#181818;stroke-width:0.3499999999999999;" x1="462" x2="662.2" y1="905.1" y2="905.1"/><text fill="#000000" font-family="sans-serif" font-size="9.8" lengthAdjust="spacing" textLength="30.1" x="465.5" y="918.4752">-id : int</text><text fill="#000000" font-family="sans-serif" font-size="9.8" lengthAdjust="spacing" textLength="63" x="465.5" y="931.51">-street : String</text><text fill="#000000" font-family="sans-serif" font-size="9.8" lengthAdjust="spacing" textLength="73.5" x="465.5" y="944.5447">-zipCode : String</text><text fill="#000000" font-family="sans-serif" font-size="9.8" lengthAdjust="spacing" textLength="58.1" x="465.5" y="957.5795">-town : String</text><text fill="#000000" font-family="sans-serif" font-size="9.8" lengthAdjust="spacing" textLength="70.7" x="465.5" y="970.6143">-country : String</text><line style="stroke:#181818;stroke-width:0.3499999999999999;" x1="462" x2="662.2" y1="975.8738" y2="975.8738"/><text fill="#000000" font-family="sans-serif" font-size="9.8" lengthAdjust="spacing" textLength="193.2" x="465.5" y="989.249">+Address(id, street, zipCode, town, country)</text></g><!--class CompanyType--><g id="elem_CompanyType"><rect codeLine="69" fill="#F1F1F1" height="59.6695" id="CompanyType" rx="1.75" ry="1.75" style="stroke:#181818;stroke-width:0.3499999999999999;" width="86.8" x="687.4" y="908.95"/><ellipse cx="697.9" cy="920.15" fill="#EB937F" rx="7.7" ry="7.7" style="stroke:#181818;stroke-width:0.6999999999999998;"/><path d="M697.1016,920.7078 L697.1016,922.4578 L700.1312,922.4578 L700.1312,921.8125 Q700.1312,921.3859 700.2953,921.2 Q700.4703,921.0141 700.7328,921.0141 Q700.9953,921.0141 701.1594,921.2 Q701.3234,921.3859 701.3234,921.8125 L701.3234,923.65 L695.7234,923.65 Q695.2859,923.65 695.1,923.4859 Q694.925,923.3219 694.925,923.0484 Q694.925,922.7859 695.1109,922.6219 Q695.2969,922.4578 695.7234,922.4578 L695.9094,922.4578 L695.9094,917.7984 L695.7234,917.7984 Q695.2859,917.7984 695.1,917.6344 Q694.925,917.4703 694.925,917.1969 Q694.925,916.9344 695.1,916.7703 Q695.2859,916.6062 695.7234,916.6062 L701.0609,916.6062 L701.0609,918.4219 Q701.0609,918.8484 700.8969,919.0344 Q700.7437,919.2094 700.4703,919.2094 Q700.2078,919.2094 700.0437,919.0344 Q699.8797,918.8484 699.8797,918.4219 L699.8797,917.7984 L697.1016,917.7984 L697.1016,919.5156 L698.1406,919.5156 Q698.1406,919.0562 698.2281,918.925 Q698.4141,918.6406 698.7422,918.6406 Q699.0047,918.6406 699.1687,918.8266 Q699.3328,919.0016 699.3328,919.4281 L699.3328,920.8062 Q699.3328,921.1891 699.2453,921.3203 Q699.0594,921.5937 698.7422,921.5937 Q698.4141,921.5937 698.2281,921.3094 Q698.1406,921.1781 698.1406,920.7078 L697.1016,920.7078 Z " fill="#000000"/><text fill="#000000" font-family="sans-serif" font-size="9.8" lengthAdjust="spacing" textLength="64.4" x="707.7" y="924.2078">CompanyType</text><line style="stroke:#181818;stroke-width:0.3499999999999999;" x1="688.1" x2="773.5" y1="931.35" y2="931.35"/><text fill="#000000" font-family="sans-serif" font-size="9.8" lengthAdjust="spacing" textLength="51.1" x="691.6" y="944.7252">INDIVIDUAL</text><text fill="#000000" font-family="sans-serif" font-size="9.8" lengthAdjust="spacing" textLength="47.6" x="691.6" y="957.76">COMPANY</text><line style="stroke:#181818;stroke-width:0.3499999999999999;" x1="688.1" x2="773.5" y1="963.0195" y2="963.0195"/></g><!--class ClientException--><g id="elem_ClientException"><rect codeLine="76" fill="#F1F1F1" height="85.7391" id="ClientException" rx="1.75" ry="1.75" style="stroke:#181818;stroke-width:0.3499999999999999;" width="196" x="583.8" y="403.2"/><ellipse cx="644.875" cy="414.4" fill="#ADD1B2" rx="7.7" ry="7.7" style="stroke:#181818;stroke-width:0.6999999999999998;"/><path d="M646.8109,411.5125 Q646.9203,411.3594 647.0516,411.2828 Q647.1828,411.2062 647.3359,411.2062 Q647.5984,411.2062 647.7625,411.3922 Q647.9266,411.5672 647.9266,411.9937 L647.9266,413.0109 Q647.9266,413.4375 647.7625,413.6234 Q647.5984,413.8094 647.3359,413.8094 Q647.0953,413.8094 646.9531,413.6672 Q646.8109,413.5359 646.7344,413.175 Q646.7016,412.9234 646.5703,412.7922 Q646.3406,412.5297 645.9141,412.3766 Q645.4875,412.2234 645.05,412.2234 Q644.5141,412.2234 644.0656,412.4531 Q643.6281,412.6828 643.2781,413.2078 Q642.9391,413.7328 642.9391,414.4547 L642.9391,415.2203 Q642.9391,416.0844 643.5625,416.6641 Q644.1859,417.2328 645.3016,417.2328 Q645.9578,417.2328 646.4172,417.0578 Q646.6906,416.9484 646.9859,416.6422 Q647.1719,416.4562 647.2703,416.4016 Q647.3797,416.3469 647.5219,416.3469 Q647.7516,416.3469 647.9266,416.5328 Q648.1125,416.7078 648.1125,416.9484 Q648.1125,417.1891 647.8719,417.4734 Q647.5219,417.8781 646.9641,418.1078 Q646.2094,418.425 645.3016,418.425 Q644.2406,418.425 643.3984,417.9875 Q642.7094,417.6375 642.2281,416.8937 Q641.7469,416.1391 641.7469,415.2422 L641.7469,414.4328 Q641.7469,413.5031 642.1734,412.7047 Q642.6109,411.8953 643.3766,411.4687 Q644.1422,411.0312 645.0062,411.0312 Q645.5203,411.0312 645.9687,411.1516 Q646.4281,411.2609 646.8109,411.5125 Z " fill="#000000"/><text fill="#000000" font-family="sans-serif" font-size="9.8" lengthAdjust="spacing" textLength="67.9" x="659.225" y="418.4578">ClientException</text><line style="stroke:#181818;stroke-width:0.3499999999999999;" x1="584.5" x2="779.1" y1="425.6" y2="425.6"/><line style="stroke:#181818;stroke-width:0.3499999999999999;" x1="584.5" x2="779.1" y1="431.2" y2="431.2"/><text fill="#000000" font-family="sans-serif" font-size="9.8" lengthAdjust="spacing" textLength="187.6" x="588" y="444.5752">+clientNotFound(clientID) : ClientException</text><text fill="#000000" font-family="sans-serif" font-size="9.8" lengthAdjust="spacing" textLength="179.9" x="588" y="457.61">+invalidPhoneNumber() : ClientException</text><text fill="#000000" font-family="sans-serif" font-size="9.8" lengthAdjust="spacing" textLength="154" x="588" y="470.6447">+invalidZipCode() : ClientException</text><text fill="#000000" font-family="sans-serif" font-size="9.8" lengthAdjust="spacing" textLength="172.2" x="588" y="483.6795">+invalidEmailFormat() : ClientException</text></g><!--class RuntimeException--><g id="elem_RuntimeException"><rect codeLine="83" fill="#F1F1F1" height="33.6" id="RuntimeException" rx="1.75" ry="1.75" style="stroke:#181818;stroke-width:0.3499999999999999;" width="101.5" x="631.05" y="563.5"/><ellipse cx="641.55" cy="574.7" fill="#ADD1B2" rx="7.7" ry="7.7" style="stroke:#181818;stroke-width:0.6999999999999998;"/><path d="M643.4859,571.8125 Q643.5953,571.6594 643.7266,571.5828 Q643.8578,571.5062 644.0109,571.5062 Q644.2734,571.5062 644.4375,571.6922 Q644.6016,571.8672 644.6016,572.2937 L644.6016,573.3109 Q644.6016,573.7375 644.4375,573.9234 Q644.2734,574.1094 644.0109,574.1094 Q643.7703,574.1094 643.6281,573.9672 Q643.4859,573.8359 643.4094,573.475 Q643.3766,573.2234 643.2453,573.0922 Q643.0156,572.8297 642.5891,572.6766 Q642.1625,572.5234 641.725,572.5234 Q641.1891,572.5234 640.7406,572.7531 Q640.3031,572.9828 639.9531,573.5078 Q639.6141,574.0328 639.6141,574.7547 L639.6141,575.5203 Q639.6141,576.3844 640.2375,576.9641 Q640.8609,577.5328 641.9766,577.5328 Q642.6328,577.5328 643.0922,577.3578 Q643.3656,577.2484 643.6609,576.9422 Q643.8469,576.7562 643.9453,576.7016 Q644.0547,576.6469 644.1969,576.6469 Q644.4266,576.6469 644.6016,576.8328 Q644.7875,577.0078 644.7875,577.2484 Q644.7875,577.4891 644.5469,577.7734 Q644.1969,578.1781 643.6391,578.4078 Q642.8844,578.725 641.9766,578.725 Q640.9156,578.725 640.0734,578.2875 Q639.3844,577.9375 638.9031,577.1937 Q638.4219,576.4391 638.4219,575.5422 L638.4219,574.7328 Q638.4219,573.8031 638.8484,573.0047 Q639.2859,572.1953 640.0516,571.7687 Q640.8172,571.3312 641.6812,571.3312 Q642.1953,571.3312 642.6437,571.4516 Q643.1031,571.5609 643.4859,571.8125 Z " fill="#000000"/><text fill="#000000" font-family="sans-serif" font-size="9.8" lengthAdjust="spacing" textLength="79.1" x="651.35" y="578.7578">RuntimeException</text><line style="stroke:#181818;stroke-width:0.3499999999999999;" x1="631.75" x2="731.85" y1="585.9" y2="585.9"/><line style="stroke:#181818;stroke-width:0.3499999999999999;" x1="631.75" x2="731.85" y1="591.5" y2="591.5"/></g><!--class Validator--><g id="elem_Validator"><rect codeLine="87" fill="#F1F1F1" height="72.7043" id="Validator" rx="1.75" ry="1.75" style="stroke:#181818;stroke-width:0.3499999999999999;" width="219.1" x="919.45" y="409.5"/><ellipse cx="1006.425" cy="420.7" fill="#ADD1B2" rx="7.7" ry="7.7" style="stroke:#181818;stroke-width:0.6999999999999998;"/><path d="M1008.3609,417.8125 Q1008.4703,417.6594 1008.6016,417.5828 Q1008.7328,417.5062 1008.8859,417.5062 Q1009.1484,417.5062 1009.3125,417.6922 Q1009.4766,417.8672 1009.4766,418.2937 L1009.4766,419.3109 Q1009.4766,419.7375 1009.3125,419.9234 Q1009.1484,420.1094 1008.8859,420.1094 Q1008.6453,420.1094 1008.5031,419.9672 Q1008.3609,419.8359 1008.2844,419.475 Q1008.2516,419.2234 1008.1203,419.0922 Q1007.8906,418.8297 1007.4641,418.6766 Q1007.0375,418.5234 1006.6,418.5234 Q1006.0641,418.5234 1005.6156,418.7531 Q1005.1781,418.9828 1004.8281,419.5078 Q1004.4891,420.0328 1004.4891,420.7547 L1004.4891,421.5203 Q1004.4891,422.3844 1005.1125,422.9641 Q1005.7359,423.5328 1006.8516,423.5328 Q1007.5078,423.5328 1007.9672,423.3578 Q1008.2406,423.2484 1008.5359,422.9422 Q1008.7219,422.7562 1008.8203,422.7016 Q1008.9297,422.6469 1009.0719,422.6469 Q1009.3016,422.6469 1009.4766,422.8328 Q1009.6625,423.0078 1009.6625,423.2484 Q1009.6625,423.4891 1009.4219,423.7734 Q1009.0719,424.1781 1008.5141,424.4078 Q1007.7594,424.725 1006.8516,424.725 Q1005.7906,424.725 1004.9484,424.2875 Q1004.2594,423.9375 1003.7781,423.1937 Q1003.2969,422.4391 1003.2969,421.5422 L1003.2969,420.7328 Q1003.2969,419.8031 1003.7234,419.0047 Q1004.1609,418.1953 1004.9266,417.7687 Q1005.6922,417.3312 1006.5562,417.3312 Q1007.0703,417.3312 1007.5187,417.4516 Q1007.9781,417.5609 1008.3609,417.8125 Z " fill="#000000"/><text fill="#000000" font-family="sans-serif" font-size="9.8" lengthAdjust="spacing" textLength="39.2" x="1020.775" y="424.7578">Validator</text><line style="stroke:#181818;stroke-width:0.3499999999999999;" x1="920.15" x2="1137.85" y1="431.9" y2="431.9"/><line style="stroke:#181818;stroke-width:0.3499999999999999;" x1="920.15" x2="1137.85" y1="437.5" y2="437.5"/><text fill="#000000" font-family="sans-serif" font-size="9.8" lengthAdjust="spacing" textLength="210.7" x="923.65" y="450.8752">+isValidPhoneNumber(phoneNumber) : boolean</text><text fill="#000000" font-family="sans-serif" font-size="9.8" lengthAdjust="spacing" textLength="158.2" x="923.65" y="463.91">+isValidZipCode(zipCode) : boolean</text><text fill="#000000" font-family="sans-serif" font-size="9.8" lengthAdjust="spacing" textLength="132.3" x="923.65" y="476.9447">+isValidEmail(email) : boolean</text></g><!--link RegisterClientUI to ClientController--><g id="link_RegisterClientUI_ClientController"><path codeLine="95" d="M681.8,64.589 C681.8,80.241 681.8,100.219 681.8,120.358 " fill="none" id="RegisterClientUI-to-ClientController" style="stroke:#181818;stroke-width:0.6999999999999998;stroke-dasharray:7.0,7.0;"/><polygon fill="#181818" points="681.8,124.558,684.6,118.258,681.8,121.058,679,118.258,681.8,124.558" style="stroke:#181818;stroke-width:0.6999999999999998;"/></g><!--link ClientController to ClientService--><g id="link_ClientController_ClientService"><path codeLine="96" d="M681.8,197.659 C681.8,216.23 681.8,234.619 681.8,253.183 " fill="none" id="ClientController-to-ClientService" style="stroke:#181818;stroke-width:0.6999999999999998;stroke-dasharray:7.0,7.0;"/><polygon fill="#181818" points="681.8,257.383,684.6,251.083,681.8,253.883,679,251.083,681.8,257.383" style="stroke:#181818;stroke-width:0.6999999999999998;"/></g><!--link ClientService to Repositories--><g id="link_ClientService_Repositories"><path codeLine="97" d="M457.674,328.832 C374.633,341.481 300.3,352.8 300.3,352.8 C300.3,352.8 263.4834,376.5104 225.5714,400.9194 " fill="none" id="ClientService-to-Repositories" style="stroke:#181818;stroke-width:0.6999999999999998;stroke-dasharray:7.0,7.0;"/><polygon fill="#181818" points="222.04,403.193,228.8528,402.1368,224.9828,401.2983,225.8213,397.4283,222.04,403.193" style="stroke:#181818;stroke-width:0.6999999999999998;"/><text fill="#000000" font-family="sans-serif" font-size="9.1" lengthAdjust="spacing" textLength="46.9" x="301" y="363.3198">repositories</text></g><!--link ClientService to ClientRepository--><g id="link_ClientService_ClientRepository"><path codeLine="98" d="M600.124,330.498 C554.239,350.602 506.1,371.7 506.1,371.7 C506.1,371.7 473.8962,480.3941 456.2842,539.8311 " fill="none" id="ClientService-to-ClientRepository" style="stroke:#181818;stroke-width:0.6999999999999998;stroke-dasharray:7.0,7.0;"/><polygon fill="#181818" points="455.091,543.858,459.5655,538.6131,456.0854,540.5022,454.1962,537.0221,455.091,543.858" style="stroke:#181818;stroke-width:0.6999999999999998;"/><text fill="#000000" font-family="sans-serif" font-size="9.1" lengthAdjust="spacing" textLength="65.1" x="506.8" y="449.7698">clientRepository</text></g><!--link ClientService to AddressRepository--><g id="link_ClientService_AddressRepository"><path codeLine="99" d="M544.691,330.442 C467.488,350.567 386.4,371.7 386.4,371.7 C386.4,371.7 351.4,522.9 351.4,522.9 C351.4,522.9 324.2627,531.2916 287.6457,542.6106 " fill="none" id="ClientService-to-AddressRepository" style="stroke:#181818;stroke-width:0.6999999999999998;stroke-dasharray:7.0,7.0;"/><polygon fill="#181818" points="283.633,543.851,290.4789,544.6655,286.9769,542.8173,288.8251,539.3153,283.633,543.851" style="stroke:#181818;stroke-width:0.6999999999999998;"/><text fill="#000000" font-family="sans-serif" font-size="9.1" lengthAdjust="spacing" textLength="75.6" x="387.1" y="449.7698">addressRepository</text></g><!--link ClientService to Client--><g id="link_ClientService_Client"><path codeLine="100" d="M732.564,330.498 C761.082,350.602 791,371.7 791,371.7 C791,371.7 791,633.5 791,633.5 C791,633.5 756.7369,658.1254 716.5569,686.9934 " fill="none" id="ClientService-to-Client" style="stroke:#181818;stroke-width:0.6999999999999998;stroke-dasharray:7.0,7.0;"/><polygon fill="#181818" points="713.146,689.444,719.8961,688.042,715.9884,687.4018,716.6286,683.4941,713.146,689.444" style="stroke:#181818;stroke-width:0.6999999999999998;"/><text fill="#000000" font-family="sans-serif" font-size="9.1" lengthAdjust="spacing" textLength="21.7" x="791.7" y="520.1198">client</text></g><!--link ClientService to Address--><g id="link_ClientService_Address"><path codeLine="101" d="M749.525,330.505 C772.142,342.461 791.7,352.8 791.7,352.8 C791.7,352.8 882,445.2 882,445.2 C882,445.2 882,445.2 882,759.15 C882,759.15 779.1,827.4 779.1,827.4 C779.1,827.4 723.384,855.7957 666.719,884.6777 " fill="none" id="ClientService-to-Address" style="stroke:#181818;stroke-width:0.6999999999999998;stroke-dasharray:7.0,7.0;"/><polygon fill="#181818" points="662.977,886.585,669.8615,886.2187,666.0953,884.9956,667.3184,881.2294,662.977,886.585" style="stroke:#181818;stroke-width:0.6999999999999998;"/><text fill="#000000" font-family="sans-serif" font-size="9.1" lengthAdjust="spacing" textLength="32.2" x="882.7" y="584.1698">address</text></g><!--link Repositories to Repositories--><g id="link_Repositories_Repositories"><path codeLine="102" d="M262.549,434.189 C277.207,436.114 287,440.02 287,445.9 C287,451.78 281.3712,455.1391 266.7132,457.0641 " fill="none" id="Repositories-to-Repositories" style="stroke:#181818;stroke-width:0.6999999999999998;"/><polygon fill="#181818" points="262.549,457.611,269.16,459.5668,266.0192,457.1553,268.4308,454.0145,262.549,457.611" style="stroke:#181818;stroke-width:0.6999999999999998;"/><text fill="#000000" font-family="sans-serif" font-size="9.1" lengthAdjust="spacing" textLength="34.3" x="291.2" y="449.7698">instance</text></g><!--link Repositories to ClientRepository--><g id="link_Repositories_ClientRepository"><path codeLine="103" d="M247.828,488.684 C286.188,506.415 326.5529,525.071 363.3029,542.067 " fill="none" id="Repositories-to-ClientRepository" style="stroke:#181818;stroke-width:0.6999999999999998;"/><polygon fill="#181818" points="367.115,543.83,362.5722,538.6441,363.9383,542.3608,360.2216,543.7269,367.115,543.83" style="stroke:#181818;stroke-width:0.6999999999999998;"/><text fill="#000000" font-family="sans-serif" font-size="9.1" lengthAdjust="spacing" textLength="65.1" x="318.5" y="520.1198">clientRepository</text><text fill="#000000" font-family="sans-serif" font-size="9.1" lengthAdjust="spacing" textLength="4.9" x="253.7234" y="504.435">1</text><text fill="#000000" font-family="sans-serif" font-size="9.1" lengthAdjust="spacing" textLength="4.9" x="351.4872" y="536.0698">1</text></g><!--link Repositories to AddressRepository--><g id="link_Repositories_AddressRepository"><path codeLine="104" d="M160.342,488.684 C161.84,506.415 163.2016,522.6489 164.6366,539.6449 " fill="none" id="Repositories-to-AddressRepository" style="stroke:#181818;stroke-width:0.6999999999999998;"/><polygon fill="#181818" points="164.99,543.83,167.25,537.3168,164.6955,540.3424,161.6699,537.7879,164.99,543.83" style="stroke:#181818;stroke-width:0.6999999999999998;"/><text fill="#000000" font-family="sans-serif" font-size="9.1" lengthAdjust="spacing" textLength="75.6" x="163.1" y="520.1198">addressRepository</text><text fill="#000000" font-family="sans-serif" font-size="9.1" lengthAdjust="spacing" textLength="4.9" x="155.5751" y="504.435">1</text><text fill="#000000" font-family="sans-serif" font-size="9.1" lengthAdjust="spacing" textLength="4.9" x="159.3563" y="536.0698">1</text></g><!--link ClientRepository to Client--><g id="link_ClientRepository_Client"><path codeLine="105" d="M479.633,616.77 C500.136,637.651 523.7583,661.6952 548.1183,686.5032 " fill="none" id="ClientRepository-to-Client" style="stroke:#181818;stroke-width:0.6999999999999998;"/><polygon fill="#181818" points="551.061,689.5,548.6449,683.043,548.6088,687.0027,544.6491,686.9666,551.061,689.5" style="stroke:#181818;stroke-width:0.6999999999999998;"/><text fill="#000000" font-family="sans-serif" font-size="9.1" lengthAdjust="spacing" textLength="42" x="511" y="649.6198">categories</text><text fill="#000000" font-family="sans-serif" font-size="9.1" lengthAdjust="spacing" textLength="4.9" x="478.9205" y="632.0441">1</text><text fill="#000000" font-family="sans-serif" font-size="9.1" lengthAdjust="spacing" textLength="3.5" x="542.2943" y="681.6939">*</text></g><!--link AddressRepository to Address--><g id="link_AddressRepository_Address"><path codeLine="106" d="M203.728,616.826 C271.873,685.167 413.7,827.4 413.7,827.4 C413.7,827.4 447.2852,852.4354 484.3152,880.0294 " fill="none" id="AddressRepository-to-Address" style="stroke:#181818;stroke-width:0.6999999999999998;"/><polygon fill="#181818" points="487.683,882.539,484.3044,876.5294,484.8765,880.4477,480.9583,881.0198,487.683,882.539" style="stroke:#181818;stroke-width:0.6999999999999998;"/><text fill="#000000" font-family="sans-serif" font-size="9.1" lengthAdjust="spacing" textLength="42" x="414.4" y="762.3198">categories</text><text fill="#000000" font-family="sans-serif" font-size="9.1" lengthAdjust="spacing" textLength="4.9" x="203.0917" y="632.1072">1</text><text fill="#000000" font-family="sans-serif" font-size="9.1" lengthAdjust="spacing" textLength="3.5" x="477.1614" y="874.7512">*</text></g><!--link Client to Address--><g id="link_Client_Address"><path codeLine="107" d="M596.687,827.533 C591.01,845.677 586.1958,861.0378 580.7568,878.4118 " fill="none" id="Client-to-Address" style="stroke:#181818;stroke-width:0.6999999999999998;"/><polygon fill="#181818" points="579.502,882.42,584.0563,877.2442,580.5476,879.0798,578.712,875.5712,579.502,882.42" style="stroke:#181818;stroke-width:0.6999999999999998;"/><text fill="#000000" font-family="sans-serif" font-size="9.1" lengthAdjust="spacing" textLength="14.7" x="590.8" y="858.9198">has</text><text fill="#000000" font-family="sans-serif" font-size="9.1" lengthAdjust="spacing" textLength="3.5" x="591.486" y="842.8713">*</text><text fill="#000000" font-family="sans-serif" font-size="9.1" lengthAdjust="spacing" textLength="4.9" x="575.9337" y="874.8151">1</text></g><!--link Client to CompanyType--><g id="link_Client_CompanyType"><path codeLine="108" d="M661.192,827.533 C678.958,855.736 696.3607,883.3467 710.2347,905.3617 " fill="none" id="Client-to-CompanyType" style="stroke:#181818;stroke-width:0.6999999999999998;"/><polygon fill="#181818" points="712.474,908.915,711.4839,902.0923,710.6079,905.954,706.7462,905.078,712.474,908.915" style="stroke:#181818;stroke-width:0.6999999999999998;"/><text fill="#000000" font-family="sans-serif" font-size="9.1" lengthAdjust="spacing" textLength="14.7" x="681.8" y="858.9198">has</text><text fill="#000000" font-family="sans-serif" font-size="9.1" lengthAdjust="spacing" textLength="3.5" x="660.7281" y="842.8713">*</text><text fill="#000000" font-family="sans-serif" font-size="9.1" lengthAdjust="spacing" textLength="4.9" x="704.2628" y="901.1423">1</text></g><!--link ClientService to ClientException--><g id="link_ClientService_ClientException"><path codeLine="109" d="M681.8,330.554 C681.8,352.296 681.8,375.935 681.8,398.741 " fill="none" id="ClientService-to-ClientException" style="stroke:#181818;stroke-width:0.6999999999999998;stroke-dasharray:7.0,7.0;"/><polygon fill="#181818" points="681.8,402.941,684.6,396.641,681.8,399.441,679,396.641,681.8,402.941" style="stroke:#181818;stroke-width:0.6999999999999998;"/><text fill="#000000" font-family="sans-serif" font-size="9.1" lengthAdjust="spacing" textLength="26.6" x="682.5" y="363.3198">throws</text></g><!--link ClientException to RuntimeException--><g id="link_ClientException_RuntimeException"><path codeLine="110" d="M681.8,488.684 C681.8,514.101 681.8,532.448 681.8,550.893 " fill="none" id="ClientException-to-RuntimeException" style="stroke:#181818;stroke-width:0.6999999999999998;"/><polygon fill="none" points="681.8,563.493,686,550.893,677.6,550.893,681.8,563.493" style="stroke:#181818;stroke-width:0.6999999999999998;"/></g><!--link ClientService to Validator--><g id="link_ClientService_Validator"><path codeLine="111" d="M816.074,330.421 C861.147,342.412 900.2,352.8 900.2,352.8 C900.2,352.8 939.5434,381.0256 975.7894,407.0306 " fill="none" id="ClientService-to-Validator" style="stroke:#181818;stroke-width:0.6999999999999998;stroke-dasharray:7.0,7.0;"/><polygon fill="#181818" points="979.202,409.479,975.7154,403.5314,976.3582,407.4387,972.4509,408.0815,979.202,409.479" style="stroke:#181818;stroke-width:0.6999999999999998;"/><text fill="#000000" font-family="sans-serif" font-size="9.1" lengthAdjust="spacing" textLength="19.6" x="916.3" y="363.3198">uses</text></g><!--SRC=[pLRFJzim5Bxdhx1w2gD1sxMQaBeMf4ZG8JgGjfj97gc5OqUnMrOs_lSvYHFRiGlbjbpQlFSz-ttlPyGJOHMkSOagd3tX0jPoJm7La4dC2WgH601YWtF-J5Y17Z4LjeOI1d9V0QeutJSlbYwZM8Yvb3Lvs4f8CyxMv0NGvoZI5wB9NJf1VoAadXQCRg4WGaAze0IOl4kryZLwjOmMdCcQKmgrQzmP6QrMDizf0N9EQOSGyGcQeIjrqTTESExWEjctVPh7MVitNJRuJcoGsoh74Zgf1auHmoLCqGvBmgP8o1f02Lz8jU2vaal-hCGPtoeFzrDKRJY3rRPyW7gAeCI4AeYAvUWsb_mQwXt98CHSgqQqFyPv-JzoleMA2o9vlHzNYvOJ41Rhn9R79mxHb0bLtHcquR1nWN2OQsFZdX6wnPNdDGWnCl6acfoNEeFmYpPMZSDKKnBEZixXOA52_su-0_06_C0v1SnybprMji-FXEKQu9pxTc5OmGg5TT6WHd4WDX61TouDt1dwFEowkbQEq50dsSNKnszqPQ9l23YUD1sXv6ir-LXXn6sB1EHMJumlQJiaODAEN9LFNbQOxN-eDnCBfptJPT-Wsj-XKmzsui64sr4X-TZLBi41NtN6GonK2GJ4kYPypMbVM2H_jw1i5i2sfHqhYqYwMgRtwV9kVZM85j-lR-Qhdu5wkVYTGTNKLwXc1gNT3LqILbnUAhT2-sImCZQ4xJ0b-Ot9JtmC_bSNXwEm5qswBtbTOdaGxrJ0hGegAS4Wt7rSbhnqOtBVN8FLSB2ZGSJzc9bLXUDUjKrwSZhPRq5RRd5RqC7kZxnlZBEpS-_R8V8-9WnAxzd8tRgDtbb8C_KfPUqN7-sD_fcUljQ-yAtywJlhU_jDEptP-ZiEdspEYnm-IU8H97gRki39bqaBRdwFuNZG-2DKBT1mnAU9nLejkgBBX7-iRM6YO9deOnhzo3c5s-0Wm1uuDiXFYXaTCoGtDN_keKQH97_F_Ixq3pHzDqDReJp_1m00]--></g></svg>