<?xml version="1.0" encoding="us-ascii" standalone="no"?><svg xmlns="http://www.w3.org/2000/svg" xmlns:xlink="http://www.w3.org/1999/xlink" contentStyleType="text/css" height="1164.6px" preserveAspectRatio="none" style="width:1672px;height:1164px;background:#FFFFFF;" version="1.1" viewBox="0 0 1672 1164" width="1672.2px" zoomAndPan="magnify"><defs/><g><text fill="#000000" font-family="sans-serif" font-size="8.4" font-weight="bold" lengthAdjust="spacing" textLength="108" x="781.5" y="18.0645">Register Client Sequence</text><rect fill="#FFFFFF" height="1024.4191" style="stroke:#181818;stroke-width:0.6;" width="6" x="26.7" y="79.9453"/><rect fill="#FFFFFF" height="232.6934" style="stroke:#181818;stroke-width:0.6;" width="6" x="353.7" y="93.9199"/><rect fill="#FFFFFF" height="18.7746" style="stroke:#181818;stroke-width:0.6;" width="6" x="353.7" y="345.3879"/><rect fill="#FFFFFF" height="721.4273" style="stroke:#181818;stroke-width:0.6;" width="6" x="353.7" y="382.9371"/><rect fill="#FFFFFF" height="168.9715" style="stroke:#181818;stroke-width:0.6;" width="6" x="707.7" y="138.8672"/><rect fill="#FFFFFF" height="671.2781" style="stroke:#181818;stroke-width:0.6;" width="6" x="707.7" y="401.7117"/><rect fill="#FFFFFF" height="131.4223" style="stroke:#181818;stroke-width:0.6;" width="6" x="1061.7" y="157.6418"/><rect fill="#FFFFFF" height="633.7289" style="stroke:#181818;stroke-width:0.6;" width="6" x="1061.7" y="420.4863"/><rect fill="#FFFFFF" height="18.7746" style="stroke:#181818;stroke-width:0.6;" width="6" x="1208.7" y="492.5848"/><rect fill="#FFFFFF" height="18.7746" style="stroke:#181818;stroke-width:0.6;" width="6" x="1208.7" y="659.7563"/><rect fill="#FFFFFF" height="18.7746" style="stroke:#181818;stroke-width:0.6;" width="6" x="1275.9" y="176.4164"/><rect fill="#FFFFFF" height="18.7746" style="stroke:#181818;stroke-width:0.6;" width="6" x="1338.9" y="213.9656"/><rect fill="#FFFFFF" height="18.7746" style="stroke:#181818;stroke-width:0.6;" width="6" x="1338.9" y="568.8832"/><rect fill="#FFFFFF" height="18.7746" style="stroke:#181818;stroke-width:0.6;" width="6" x="1338.9" y="736.0547"/><rect fill="#FFFFFF" height="18.7746" style="stroke:#181818;stroke-width:0.6;" width="6" x="1409.7" y="251.5148"/><rect fill="#FFFFFF" height="18.7746" style="stroke:#181818;stroke-width:0.6;" width="6" x="1409.7" y="606.4324"/><rect fill="#FFFFFF" height="92.073" style="stroke:#181818;stroke-width:0.6;" width="6" x="1409.7" y="943.3676"/><rect fill="#FFFFFF" height="18.7746" style="stroke:#181818;stroke-width:0.6;" width="6" x="1492.5" y="773.6039"/><rect fill="#FFFFFF" height="18.7746" style="stroke:#181818;stroke-width:0.6;" width="6" x="1492.5" y="864.273"/><rect fill="#FFFFFF" height="18.7746" style="stroke:#181818;stroke-width:0.6;" width="6" x="1644.6" y="439.2609"/><rect fill="none" height="619.1543" style="stroke:#000000;stroke-width:0.8999999999999999;" width="1335.6" x="303" y="467.0355"/><rect fill="none" height="447.7828" style="stroke:#000000;stroke-width:0.8999999999999999;" width="1323.6" x="309" y="634.207"/><rect fill="none" height="86.4691" style="stroke:#000000;stroke-width:0.8999999999999999;" width="598.2" x="1028.4" y="801.3785"/><rect fill="none" height="125.4223" style="stroke:#000000;stroke-width:0.8999999999999999;" width="1139.4" x="315" y="952.3676"/><line style="stroke:#181818;stroke-width:0.3;stroke-dasharray:5.0,5.0;" x1="29.4" x2="29.4" y1="73.9453" y2="1115.1645"/><line style="stroke:#181818;stroke-width:0.3;stroke-dasharray:5.0,5.0;" x1="356.4" x2="356.4" y1="73.9453" y2="1115.1645"/><line style="stroke:#181818;stroke-width:0.3;stroke-dasharray:5.0,5.0;" x1="710.7" x2="710.7" y1="117.8062" y2="1115.1645"/><line style="stroke:#181818;stroke-width:0.3;stroke-dasharray:5.0,5.0;" x1="1064.4" x2="1064.4" y1="73.9453" y2="1115.1645"/><line style="stroke:#181818;stroke-width:0.3;stroke-dasharray:5.0,5.0;" x1="1211.4" x2="1211.4" y1="73.9453" y2="1115.1645"/><line style="stroke:#181818;stroke-width:0.3;stroke-dasharray:5.0,5.0;" x1="1278.6" x2="1278.6" y1="73.9453" y2="1115.1645"/><line style="stroke:#181818;stroke-width:0.3;stroke-dasharray:5.0,5.0;" x1="1341.6" x2="1341.6" y1="73.9453" y2="1115.1645"/><line style="stroke:#181818;stroke-width:0.3;stroke-dasharray:5.0,5.0;" x1="1412.4" x2="1412.4" y1="73.9453" y2="1115.1645"/><line style="stroke:#181818;stroke-width:0.3;stroke-dasharray:5.0,5.0;" x1="1495.2" x2="1495.2" y1="73.9453" y2="1115.1645"/><line style="stroke:#181818;stroke-width:0.3;stroke-dasharray:5.0,5.0;" x1="1557.6" x2="1557.6" y1="916.7203" y2="1115.1645"/><line style="stroke:#181818;stroke-width:0.3;stroke-dasharray:5.0,5.0;" x1="1599.6" x2="1599.6" y1="837.6258" y2="1115.1645"/><line style="stroke:#181818;stroke-width:0.3;stroke-dasharray:5.0,5.0;" x1="1647.6" x2="1647.6" y1="73.9453" y2="1115.1645"/><text fill="#000000" font-family="sans-serif" font-size="8.4" lengthAdjust="spacing" textLength="49.8" x="3" y="71.8371">Administrator</text><ellipse cx="29.7" cy="31.8727" fill="#E3E3E3" rx="4.8" ry="4.8" style="stroke:#181818;stroke-width:0.3;"/><path d="M29.7,36.6727 L29.7,52.8727 M21.9,41.4727 L37.5,41.4727 M29.7,52.8727 L21.9,61.8727 M29.7,52.8727 L37.5,61.8727 " fill="none" style="stroke:#181818;stroke-width:0.3;"/><text fill="#000000" font-family="sans-serif" font-size="8.4" lengthAdjust="spacing" textLength="49.8" x="3" y="1123.6289">Administrator</text><ellipse cx="29.7" cy="1130.8371" fill="#E3E3E3" rx="4.8" ry="4.8" style="stroke:#181818;stroke-width:0.3;"/><path d="M29.7,1135.6371 L29.7,1151.8371 M21.9,1140.4371 L37.5,1140.4371 M29.7,1151.8371 L21.9,1160.8371 M29.7,1151.8371 L37.5,1160.8371 " fill="none" style="stroke:#181818;stroke-width:0.3;"/><rect fill="#E3E3E3" height="19.5727" rx="1.5" ry="1.5" style="stroke:#181818;stroke-width:0.3;" width="71.4" x="321" y="53.7727"/><text fill="#000000" font-family="sans-serif" font-size="8.4" lengthAdjust="spacing" textLength="63" x="325.2" y="67.0371">:RegisterClientUI</text><rect fill="#E3E3E3" height="19.5727" rx="1.5" ry="1.5" style="stroke:#181818;stroke-width:0.3;" width="71.4" x="321" y="1114.5645"/><text fill="#000000" font-family="sans-serif" font-size="8.4" lengthAdjust="spacing" textLength="63" x="325.2" y="1127.8289">:RegisterClientUI</text><rect fill="#E3E3E3" height="19.5727" rx="1.5" ry="1.5" style="stroke:#181818;stroke-width:0.3;" width="69.6" x="675.9" y="1114.5645"/><text fill="#000000" font-family="sans-serif" font-size="8.4" lengthAdjust="spacing" textLength="61.2" x="680.1" y="1127.8289">:ClientController</text><rect fill="#E3E3E3" height="19.5727" rx="1.5" ry="1.5" style="stroke:#181818;stroke-width:0.3;" width="60.6" x="1034.4" y="53.7727"/><text fill="#000000" font-family="sans-serif" font-size="8.4" lengthAdjust="spacing" textLength="52.2" x="1038.6" y="67.0371">:ClientService</text><rect fill="#E3E3E3" height="19.5727" rx="1.5" ry="1.5" style="stroke:#181818;stroke-width:0.3;" width="60.6" x="1034.4" y="1114.5645"/><text fill="#000000" font-family="sans-serif" font-size="8.4" lengthAdjust="spacing" textLength="52.2" x="1038.6" y="1127.8289">:ClientService</text><rect fill="#E3E3E3" height="19.5727" rx="1.5" ry="1.5" style="stroke:#181818;stroke-width:0.3;" width="66.6" x="1178.4" y="53.7727"/><text fill="#000000" font-family="sans-serif" font-size="8.4" lengthAdjust="spacing" textLength="58.2" x="1182.6" y="67.0371">ClientException</text><rect fill="#E3E3E3" height="19.5727" rx="1.5" ry="1.5" style="stroke:#181818;stroke-width:0.3;" width="66.6" x="1178.4" y="1114.5645"/><text fill="#000000" font-family="sans-serif" font-size="8.4" lengthAdjust="spacing" textLength="58.2" x="1182.6" y="1127.8289">ClientException</text><rect fill="#E3E3E3" height="19.5727" rx="1.5" ry="1.5" style="stroke:#181818;stroke-width:0.3;" width="55.8" x="1251" y="53.7727"/><text fill="#000000" font-family="sans-serif" font-size="8.4" lengthAdjust="spacing" textLength="47.4" x="1255.2" y="67.0371">Repositories</text><rect fill="#E3E3E3" height="19.5727" rx="1.5" ry="1.5" style="stroke:#181818;stroke-width:0.3;" width="55.8" x="1251" y="1114.5645"/><text fill="#000000" font-family="sans-serif" font-size="8.4" lengthAdjust="spacing" textLength="47.4" x="1255.2" y="1127.8289">Repositories</text><rect fill="#E3E3E3" height="30.7453" rx="1.5" ry="1.5" style="stroke:#181818;stroke-width:0.3;" width="58.2" x="1312.8" y="42.6"/><text fill="#000000" font-family="sans-serif" font-size="8.4" lengthAdjust="spacing" textLength="44.4" x="1319.7" y="55.8645">repositories</text><text fill="#000000" font-family="sans-serif" font-size="8.4" lengthAdjust="spacing" textLength="49.8" x="1317" y="67.0371">:Repositories</text><rect fill="#E3E3E3" height="30.7453" rx="1.5" ry="1.5" style="stroke:#181818;stroke-width:0.3;" width="58.2" x="1312.8" y="1114.5645"/><text fill="#000000" font-family="sans-serif" font-size="8.4" lengthAdjust="spacing" textLength="44.4" x="1319.7" y="1127.8289">repositories</text><text fill="#000000" font-family="sans-serif" font-size="8.4" lengthAdjust="spacing" textLength="49.8" x="1317" y="1139.0016">:Repositories</text><rect fill="#E3E3E3" height="30.7453" rx="1.5" ry="1.5" style="stroke:#181818;stroke-width:0.3;" width="71.4" x="1377" y="42.6"/><text fill="#000000" font-family="sans-serif" font-size="8.4" lengthAdjust="spacing" textLength="63" x="1381.2" y="55.8645">clientRepository:</text><text fill="#000000" font-family="sans-serif" font-size="8.4" lengthAdjust="spacing" textLength="62.4" x="1381.5" y="67.0371">ClientRepository</text><rect fill="#E3E3E3" height="30.7453" rx="1.5" ry="1.5" style="stroke:#181818;stroke-width:0.3;" width="71.4" x="1377" y="1114.5645"/><text fill="#000000" font-family="sans-serif" font-size="8.4" lengthAdjust="spacing" textLength="63" x="1381.2" y="1127.8289">clientRepository:</text><text fill="#000000" font-family="sans-serif" font-size="8.4" lengthAdjust="spacing" textLength="62.4" x="1381.5" y="1139.0016">ClientRepository</text><rect fill="#E3E3E3" height="30.7453" rx="1.5" ry="1.5" style="stroke:#181818;stroke-width:0.3;" width="82.2" x="1454.4" y="42.6"/><text fill="#000000" font-family="sans-serif" font-size="8.4" lengthAdjust="spacing" textLength="73.8" x="1458.6" y="55.8645">addressRepository:</text><text fill="#000000" font-family="sans-serif" font-size="8.4" lengthAdjust="spacing" textLength="72" x="1459.5" y="67.0371">AddressRepository</text><rect fill="#E3E3E3" height="30.7453" rx="1.5" ry="1.5" style="stroke:#181818;stroke-width:0.3;" width="82.2" x="1454.4" y="1114.5645"/><text fill="#000000" font-family="sans-serif" font-size="8.4" lengthAdjust="spacing" textLength="73.8" x="1458.6" y="1127.8289">addressRepository:</text><text fill="#000000" font-family="sans-serif" font-size="8.4" lengthAdjust="spacing" textLength="72" x="1459.5" y="1139.0016">AddressRepository</text><rect fill="#E3E3E3" height="30.7453" rx="1.5" ry="1.5" style="stroke:#181818;stroke-width:0.3;" width="30.6" x="1542.6" y="1114.5645"/><text fill="#000000" font-family="sans-serif" font-size="8.4" lengthAdjust="spacing" textLength="22.2" x="1546.8" y="1127.8289">client:</text><text fill="#000000" font-family="sans-serif" font-size="8.4" lengthAdjust="spacing" textLength="21.6" x="1547.1" y="1139.0016">Client</text><rect fill="#E3E3E3" height="30.7453" rx="1.5" ry="1.5" style="stroke:#181818;stroke-width:0.3;" width="41.4" x="1579.2" y="1114.5645"/><text fill="#000000" font-family="sans-serif" font-size="8.4" lengthAdjust="spacing" textLength="33" x="1583.4" y="1127.8289">address:</text><text fill="#000000" font-family="sans-serif" font-size="8.4" lengthAdjust="spacing" textLength="31.2" x="1584.3" y="1139.0016">Address</text><rect fill="#E3E3E3" height="19.5727" rx="1.5" ry="1.5" style="stroke:#181818;stroke-width:0.3;" width="42" x="1626.6" y="53.7727"/><text fill="#000000" font-family="sans-serif" font-size="8.4" lengthAdjust="spacing" textLength="33.6" x="1630.8" y="67.0371">Validator</text><rect fill="#E3E3E3" height="19.5727" rx="1.5" ry="1.5" style="stroke:#181818;stroke-width:0.3;" width="42" x="1626.6" y="1114.5645"/><text fill="#000000" font-family="sans-serif" font-size="8.4" lengthAdjust="spacing" textLength="33.6" x="1630.8" y="1127.8289">Validator</text><rect fill="#FFFFFF" height="1024.4191" style="stroke:#181818;stroke-width:0.6;" width="6" x="26.7" y="79.9453"/><rect fill="#FFFFFF" height="232.6934" style="stroke:#181818;stroke-width:0.6;" width="6" x="353.7" y="93.9199"/><rect fill="#FFFFFF" height="18.7746" style="stroke:#181818;stroke-width:0.6;" width="6" x="353.7" y="345.3879"/><rect fill="#FFFFFF" height="721.4273" style="stroke:#181818;stroke-width:0.6;" width="6" x="353.7" y="382.9371"/><rect fill="#FFFFFF" height="168.9715" style="stroke:#181818;stroke-width:0.6;" width="6" x="707.7" y="138.8672"/><rect fill="#FFFFFF" height="671.2781" style="stroke:#181818;stroke-width:0.6;" width="6" x="707.7" y="401.7117"/><rect fill="#FFFFFF" height="131.4223" style="stroke:#181818;stroke-width:0.6;" width="6" x="1061.7" y="157.6418"/><rect fill="#FFFFFF" height="633.7289" style="stroke:#181818;stroke-width:0.6;" width="6" x="1061.7" y="420.4863"/><rect fill="#FFFFFF" height="18.7746" style="stroke:#181818;stroke-width:0.6;" width="6" x="1208.7" y="492.5848"/><rect fill="#FFFFFF" height="18.7746" style="stroke:#181818;stroke-width:0.6;" width="6" x="1208.7" y="659.7563"/><rect fill="#FFFFFF" height="18.7746" style="stroke:#181818;stroke-width:0.6;" width="6" x="1275.9" y="176.4164"/><rect fill="#FFFFFF" height="18.7746" style="stroke:#181818;stroke-width:0.6;" width="6" x="1338.9" y="213.9656"/><rect fill="#FFFFFF" height="18.7746" style="stroke:#181818;stroke-width:0.6;" width="6" x="1338.9" y="568.8832"/><rect fill="#FFFFFF" height="18.7746" style="stroke:#181818;stroke-width:0.6;" width="6" x="1338.9" y="736.0547"/><rect fill="#FFFFFF" height="18.7746" style="stroke:#181818;stroke-width:0.6;" width="6" x="1409.7" y="251.5148"/><rect fill="#FFFFFF" height="18.7746" style="stroke:#181818;stroke-width:0.6;" width="6" x="1409.7" y="606.4324"/><rect fill="#FFFFFF" height="92.073" style="stroke:#181818;stroke-width:0.6;" width="6" x="1409.7" y="943.3676"/><rect fill="#FFFFFF" height="18.7746" style="stroke:#181818;stroke-width:0.6;" width="6" x="1492.5" y="773.6039"/><rect fill="#FFFFFF" height="18.7746" style="stroke:#181818;stroke-width:0.6;" width="6" x="1492.5" y="864.273"/><rect fill="#FFFFFF" height="18.7746" style="stroke:#181818;stroke-width:0.6;" width="6" x="1644.6" y="439.2609"/><polygon fill="#181818" points="346.5,91.5199,352.5,93.9199,346.5,96.3199,348.9,93.9199" style="stroke:#181818;stroke-width:0.6;"/><line style="stroke:#181818;stroke-width:0.6;" x1="32.7" x2="350.1" y1="93.9199" y2="93.9199"/><text fill="#000000" font-family="sans-serif" font-size="7.8" font-weight="bold" lengthAdjust="spacing" textLength="4.2" x="36.9" y="90.7623">1</text><text fill="#000000" font-family="sans-serif" font-size="7.8" lengthAdjust="spacing" textLength="97.8" x="43.5" y="90.7623">asks to register a new client</text><polygon fill="#181818" points="668.7,110.2945,674.7,112.6945,668.7,115.0945,671.1,112.6945" style="stroke:#181818;stroke-width:0.6;"/><line style="stroke:#181818;stroke-width:0.6;" x1="359.7" x2="672.3" y1="112.6945" y2="112.6945"/><text fill="#000000" font-family="sans-serif" font-size="7.8" font-weight="bold" lengthAdjust="spacing" textLength="4.2" x="363.9" y="109.5369">2</text><text fill="#000000" font-family="sans-serif" font-size="7.8" lengthAdjust="spacing" textLength="21.6" x="370.5" y="109.5369">create</text><rect fill="#E3E3E3" height="19.5727" rx="1.5" ry="1.5" style="stroke:#181818;stroke-width:0.3;" width="69.6" x="675.9" y="98.7199"/><text fill="#000000" font-family="sans-serif" font-size="8.4" lengthAdjust="spacing" textLength="61.2" x="680.1" y="111.9844">:ClientController</text><polygon fill="#181818" points="700.5,136.4672,706.5,138.8672,700.5,141.2672,702.9,138.8672" style="stroke:#181818;stroke-width:0.6;"/><line style="stroke:#181818;stroke-width:0.6;" x1="359.7" x2="704.1" y1="138.8672" y2="138.8672"/><text fill="#000000" font-family="sans-serif" font-size="7.8" font-weight="bold" lengthAdjust="spacing" textLength="4.2" x="363.9" y="135.7096">3</text><text fill="#000000" font-family="sans-serif" font-size="7.8" lengthAdjust="spacing" textLength="48.6" x="370.5" y="135.7096">getAllClients()</text><polygon fill="#181818" points="1054.5,155.2418,1060.5,157.6418,1054.5,160.0418,1056.9,157.6418" style="stroke:#181818;stroke-width:0.6;"/><line style="stroke:#181818;stroke-width:0.6;" x1="713.7" x2="1058.1" y1="157.6418" y2="157.6418"/><text fill="#000000" font-family="sans-serif" font-size="7.8" font-weight="bold" lengthAdjust="spacing" textLength="4.2" x="717.9" y="154.4842">4</text><text fill="#000000" font-family="sans-serif" font-size="7.8" lengthAdjust="spacing" textLength="39.6" x="724.5" y="154.4842">getClients()</text><polygon fill="#181818" points="1268.7,174.0164,1274.7,176.4164,1268.7,178.8164,1271.1,176.4164" style="stroke:#181818;stroke-width:0.6;"/><line style="stroke:#181818;stroke-width:0.6;" x1="1067.7" x2="1272.3" y1="176.4164" y2="176.4164"/><text fill="#000000" font-family="sans-serif" font-size="7.8" font-weight="bold" lengthAdjust="spacing" textLength="4.2" x="1071.9" y="173.2588">5</text><text fill="#000000" font-family="sans-serif" font-size="7.8" lengthAdjust="spacing" textLength="45" x="1078.5" y="173.2588">getInstance()</text><polygon fill="#181818" points="1074.3,192.791,1068.3,195.191,1074.3,197.591,1071.9,195.191" style="stroke:#181818;stroke-width:0.6;"/><line style="stroke:#181818;stroke-width:0.6;stroke-dasharray:2.0,2.0;" x1="1070.7" x2="1278.3" y1="195.191" y2="195.191"/><text fill="#000000" font-family="sans-serif" font-size="7.8" font-weight="bold" lengthAdjust="spacing" textLength="4.2" x="1077.9" y="192.0334">6</text><text fill="#000000" font-family="sans-serif" font-size="7.8" lengthAdjust="spacing" textLength="40.2" x="1084.5" y="192.0334">repositories</text><polygon fill="#181818" points="1331.7,211.5656,1337.7,213.9656,1331.7,216.3656,1334.1,213.9656" style="stroke:#181818;stroke-width:0.6;"/><line style="stroke:#181818;stroke-width:0.6;" x1="1067.7" x2="1335.3" y1="213.9656" y2="213.9656"/><text fill="#000000" font-family="sans-serif" font-size="7.8" font-weight="bold" lengthAdjust="spacing" textLength="4.2" x="1071.9" y="210.808">7</text><text fill="#000000" font-family="sans-serif" font-size="7.8" lengthAdjust="spacing" textLength="72.6" x="1078.5" y="210.808">getClientRepository()</text><polygon fill="#181818" points="1074.3,230.3402,1068.3,232.7402,1074.3,235.1402,1071.9,232.7402" style="stroke:#181818;stroke-width:0.6;"/><line style="stroke:#181818;stroke-width:0.6;stroke-dasharray:2.0,2.0;" x1="1070.7" x2="1341.3" y1="232.7402" y2="232.7402"/><text fill="#000000" font-family="sans-serif" font-size="7.8" font-weight="bold" lengthAdjust="spacing" textLength="4.2" x="1077.9" y="229.5826">8</text><text fill="#000000" font-family="sans-serif" font-size="7.8" lengthAdjust="spacing" textLength="55.8" x="1084.5" y="229.5826">clientRepository</text><polygon fill="#181818" points="1402.5,249.1148,1408.5,251.5148,1402.5,253.9148,1404.9,251.5148" style="stroke:#181818;stroke-width:0.6;"/><line style="stroke:#181818;stroke-width:0.6;" x1="1067.7" x2="1406.1" y1="251.5148" y2="251.5148"/><text fill="#000000" font-family="sans-serif" font-size="7.8" font-weight="bold" lengthAdjust="spacing" textLength="4.2" x="1071.9" y="248.3572">9</text><text fill="#000000" font-family="sans-serif" font-size="7.8" lengthAdjust="spacing" textLength="24.6" x="1078.5" y="248.3572">getAll()</text><polygon fill="#181818" points="1074.3,267.8895,1068.3,270.2895,1074.3,272.6895,1071.9,270.2895" style="stroke:#181818;stroke-width:0.6;"/><line style="stroke:#181818;stroke-width:0.6;stroke-dasharray:2.0,2.0;" x1="1070.7" x2="1412.1" y1="270.2895" y2="270.2895"/><text fill="#000000" font-family="sans-serif" font-size="7.8" font-weight="bold" lengthAdjust="spacing" textLength="8.4" x="1077.9" y="267.1318">10</text><text fill="#000000" font-family="sans-serif" font-size="7.8" lengthAdjust="spacing" textLength="22.8" x="1088.7" y="267.1318">clients</text><polygon fill="#181818" points="720.3,286.6641,714.3,289.0641,720.3,291.4641,717.9,289.0641" style="stroke:#181818;stroke-width:0.6;"/><line style="stroke:#181818;stroke-width:0.6;stroke-dasharray:2.0,2.0;" x1="716.7" x2="1064.1" y1="289.0641" y2="289.0641"/><text fill="#000000" font-family="sans-serif" font-size="7.8" font-weight="bold" lengthAdjust="spacing" textLength="8.4" x="723.9" y="285.9064">11</text><text fill="#000000" font-family="sans-serif" font-size="7.8" lengthAdjust="spacing" textLength="22.8" x="734.7" y="285.9064">clients</text><polygon fill="#181818" points="366.3,305.4387,360.3,307.8387,366.3,310.2387,363.9,307.8387" style="stroke:#181818;stroke-width:0.6;"/><line style="stroke:#181818;stroke-width:0.6;stroke-dasharray:2.0,2.0;" x1="362.7" x2="710.1" y1="307.8387" y2="307.8387"/><text fill="#000000" font-family="sans-serif" font-size="7.8" font-weight="bold" lengthAdjust="spacing" textLength="8.4" x="369.9" y="304.6811">12</text><text fill="#000000" font-family="sans-serif" font-size="7.8" lengthAdjust="spacing" textLength="22.8" x="380.7" y="304.6811">clients</text><polygon fill="#181818" points="39.3,324.2133,33.3,326.6133,39.3,329.0133,36.9,326.6133" style="stroke:#181818;stroke-width:0.6;"/><line style="stroke:#181818;stroke-width:0.6;stroke-dasharray:2.0,2.0;" x1="35.7" x2="356.1" y1="326.6133" y2="326.6133"/><text fill="#000000" font-family="sans-serif" font-size="7.8" font-weight="bold" lengthAdjust="spacing" textLength="8.4" x="42.9" y="323.4557">13</text><text fill="#000000" font-family="sans-serif" font-size="7.8" lengthAdjust="spacing" textLength="173.4" x="53.7" y="323.4557">shows the list of clients and requests confirmation</text><polygon fill="#181818" points="346.5,342.9879,352.5,345.3879,346.5,347.7879,348.9,345.3879" style="stroke:#181818;stroke-width:0.6;"/><line style="stroke:#181818;stroke-width:0.6;" x1="32.7" x2="350.1" y1="345.3879" y2="345.3879"/><text fill="#000000" font-family="sans-serif" font-size="7.8" font-weight="bold" lengthAdjust="spacing" textLength="8.4" x="36.9" y="342.2303">14</text><text fill="#000000" font-family="sans-serif" font-size="7.8" lengthAdjust="spacing" textLength="159.6" x="47.7" y="342.2303">confirms that he wants to register a new client</text><polygon fill="#181818" points="39.3,361.7625,33.3,364.1625,39.3,366.5625,36.9,364.1625" style="stroke:#181818;stroke-width:0.6;"/><line style="stroke:#181818;stroke-width:0.6;stroke-dasharray:2.0,2.0;" x1="35.7" x2="356.1" y1="364.1625" y2="364.1625"/><text fill="#000000" font-family="sans-serif" font-size="7.8" font-weight="bold" lengthAdjust="spacing" textLength="8.4" x="42.9" y="361.0049">15</text><text fill="#000000" font-family="sans-serif" font-size="7.8" lengthAdjust="spacing" textLength="295.8" x="53.7" y="361.0049">requests data (i.e. Name, Vatin, Address, Contact Info (Phone Number, Email), Type)</text><polygon fill="#181818" points="346.5,380.5371,352.5,382.9371,346.5,385.3371,348.9,382.9371" style="stroke:#181818;stroke-width:0.6;"/><line style="stroke:#181818;stroke-width:0.6;" x1="32.7" x2="350.1" y1="382.9371" y2="382.9371"/><text fill="#000000" font-family="sans-serif" font-size="7.8" font-weight="bold" lengthAdjust="spacing" textLength="8.4" x="36.9" y="379.7795">16</text><text fill="#000000" font-family="sans-serif" font-size="7.8" lengthAdjust="spacing" textLength="100.8" x="47.7" y="379.7795">types/selects requested data</text><polygon fill="#181818" points="700.5,399.3117,706.5,401.7117,700.5,404.1117,702.9,401.7117" style="stroke:#181818;stroke-width:0.6;"/><line style="stroke:#181818;stroke-width:0.6;" x1="359.7" x2="704.1" y1="401.7117" y2="401.7117"/><text fill="#000000" font-family="sans-serif" font-size="7.8" font-weight="bold" lengthAdjust="spacing" textLength="8.4" x="363.9" y="398.5541">17</text><text fill="#000000" font-family="sans-serif" font-size="7.8" lengthAdjust="spacing" textLength="325.8" x="374.7" y="398.5541">registerClient(clientID, name, vatin, street, zipCode, town, country, phoneNumber, email, type)</text><polygon fill="#181818" points="1054.5,418.0863,1060.5,420.4863,1054.5,422.8863,1056.9,420.4863" style="stroke:#181818;stroke-width:0.6;"/><line style="stroke:#181818;stroke-width:0.6;" x1="713.7" x2="1058.1" y1="420.4863" y2="420.4863"/><text fill="#000000" font-family="sans-serif" font-size="7.8" font-weight="bold" lengthAdjust="spacing" textLength="8.4" x="717.9" y="417.3287">18</text><text fill="#000000" font-family="sans-serif" font-size="7.8" lengthAdjust="spacing" textLength="325.8" x="728.7" y="417.3287">registerClient(clientID, name, vatin, street, zipCode, town, country, phoneNumber, email, type)</text><polygon fill="#181818" points="1637.4,436.8609,1643.4,439.2609,1637.4,441.6609,1639.8,439.2609" style="stroke:#181818;stroke-width:0.6;"/><line style="stroke:#181818;stroke-width:0.6;" x1="1067.7" x2="1641" y1="439.2609" y2="439.2609"/><text fill="#000000" font-family="sans-serif" font-size="7.8" font-weight="bold" lengthAdjust="spacing" textLength="8.4" x="1071.9" y="436.1033">19</text><text fill="#000000" font-family="sans-serif" font-size="7.8" lengthAdjust="spacing" textLength="148.8" x="1082.7" y="436.1033">isValidData(phoneNumber, email, zipCode)</text><polygon fill="#181818" points="1074.3,455.6355,1068.3,458.0355,1074.3,460.4355,1071.9,458.0355" style="stroke:#181818;stroke-width:0.6;"/><line style="stroke:#181818;stroke-width:0.6;stroke-dasharray:2.0,2.0;" x1="1070.7" x2="1647" y1="458.0355" y2="458.0355"/><text fill="#000000" font-family="sans-serif" font-size="7.8" font-weight="bold" lengthAdjust="spacing" textLength="8.4" x="1077.9" y="454.8779">20</text><text fill="#000000" font-family="sans-serif" font-size="7.8" lengthAdjust="spacing" textLength="31.8" x="1088.7" y="454.8779">true/false</text><path d="M303,467.0355 L339.6,467.0355 L339.6,472.6102 L333.6,478.6102 L303,478.6102 L303,467.0355 " fill="#EEEEEE" style="stroke:#000000;stroke-width:0.8999999999999999;"/><rect fill="none" height="619.1543" style="stroke:#000000;stroke-width:0.8999999999999999;" width="1335.6" x="303" y="467.0355"/><text fill="#000000" font-family="sans-serif" font-size="7.8" font-weight="bold" lengthAdjust="spacing" textLength="9.6" x="312" y="476.0525">alt</text><text fill="#000000" font-family="sans-serif" font-size="6.6" font-weight="bold" lengthAdjust="spacing" textLength="21" x="348.6" y="475.3576">[false]</text><polygon fill="#181818" points="1201.5,490.1848,1207.5,492.5848,1201.5,494.9848,1203.9,492.5848" style="stroke:#181818;stroke-width:0.6;"/><line style="stroke:#181818;stroke-width:0.6;" x1="1067.7" x2="1205.1" y1="492.5848" y2="492.5848"/><text fill="#000000" font-family="sans-serif" font-size="7.8" font-weight="bold" lengthAdjust="spacing" textLength="8.4" x="1071.9" y="489.4271">21</text><text fill="#000000" font-family="sans-serif" font-size="7.8" lengthAdjust="spacing" textLength="63" x="1082.7" y="489.4271">throw invalidData()</text><polygon fill="#181818" points="1074.3,508.9594,1068.3,511.3594,1074.3,513.7594,1071.9,511.3594" style="stroke:#181818;stroke-width:0.6;"/><line style="stroke:#181818;stroke-width:0.6;stroke-dasharray:2.0,2.0;" x1="1070.7" x2="1211.1" y1="511.3594" y2="511.3594"/><text fill="#000000" font-family="sans-serif" font-size="7.8" font-weight="bold" lengthAdjust="spacing" textLength="8.4" x="1077.9" y="508.2018">22</text><text fill="#000000" font-family="sans-serif" font-size="7.8" lengthAdjust="spacing" textLength="61.8" x="1088.7" y="508.2018">Exception Thrown</text><polygon fill="#181818" points="720.3,527.734,714.3,530.134,720.3,532.534,717.9,530.134" style="stroke:#181818;stroke-width:0.6;"/><line style="stroke:#181818;stroke-width:0.6;stroke-dasharray:2.0,2.0;" x1="716.7" x2="1061.1" y1="530.134" y2="530.134"/><text fill="#000000" font-family="sans-serif" font-size="7.8" font-weight="bold" lengthAdjust="spacing" textLength="8.4" x="723.9" y="526.9764">23</text><text fill="#000000" font-family="sans-serif" font-size="7.8" lengthAdjust="spacing" textLength="115.8" x="734.7" y="526.9764">show error message (Invalid data)</text><polygon fill="#181818" points="366.3,546.5086,360.3,548.9086,366.3,551.3086,363.9,548.9086" style="stroke:#181818;stroke-width:0.6;"/><line style="stroke:#181818;stroke-width:0.6;stroke-dasharray:2.0,2.0;" x1="362.7" x2="707.1" y1="548.9086" y2="548.9086"/><text fill="#000000" font-family="sans-serif" font-size="7.8" font-weight="bold" lengthAdjust="spacing" textLength="8.4" x="369.9" y="545.751">24</text><text fill="#000000" font-family="sans-serif" font-size="7.8" lengthAdjust="spacing" textLength="115.8" x="380.7" y="545.751">show error message (Invalid data)</text><line style="stroke:#000000;stroke-width:0.6;stroke-dasharray:2.0,2.0;" x1="303" x2="1638.6" y1="554.3086" y2="554.3086"/><polygon fill="#181818" points="1331.7,566.4832,1337.7,568.8832,1331.7,571.2832,1334.1,568.8832" style="stroke:#181818;stroke-width:0.6;"/><line style="stroke:#181818;stroke-width:0.6;" x1="1067.7" x2="1335.3" y1="568.8832" y2="568.8832"/><text fill="#000000" font-family="sans-serif" font-size="7.8" font-weight="bold" lengthAdjust="spacing" textLength="8.4" x="1071.9" y="565.7256">25</text><text fill="#000000" font-family="sans-serif" font-size="7.8" lengthAdjust="spacing" textLength="72.6" x="1082.7" y="565.7256">getClientRepository()</text><polygon fill="#181818" points="1074.3,585.2578,1068.3,587.6578,1074.3,590.0578,1071.9,587.6578" style="stroke:#181818;stroke-width:0.6;"/><line style="stroke:#181818;stroke-width:0.6;stroke-dasharray:2.0,2.0;" x1="1070.7" x2="1341.3" y1="587.6578" y2="587.6578"/><text fill="#000000" font-family="sans-serif" font-size="7.8" font-weight="bold" lengthAdjust="spacing" textLength="8.4" x="1077.9" y="584.5002">26</text><text fill="#000000" font-family="sans-serif" font-size="7.8" lengthAdjust="spacing" textLength="55.8" x="1088.7" y="584.5002">clientRepository</text><polygon fill="#181818" points="1402.5,604.0324,1408.5,606.4324,1402.5,608.8324,1404.9,606.4324" style="stroke:#181818;stroke-width:0.6;"/><line style="stroke:#181818;stroke-width:0.6;" x1="1067.7" x2="1406.1" y1="606.4324" y2="606.4324"/><text fill="#000000" font-family="sans-serif" font-size="7.8" font-weight="bold" lengthAdjust="spacing" textLength="8.4" x="1071.9" y="603.2748">27</text><text fill="#000000" font-family="sans-serif" font-size="7.8" lengthAdjust="spacing" textLength="83.4" x="1082.7" y="603.2748">getClientExists(clientID)</text><polygon fill="#181818" points="1074.3,622.807,1068.3,625.207,1074.3,627.607,1071.9,625.207" style="stroke:#181818;stroke-width:0.6;"/><line style="stroke:#181818;stroke-width:0.6;stroke-dasharray:2.0,2.0;" x1="1070.7" x2="1412.1" y1="625.207" y2="625.207"/><text fill="#000000" font-family="sans-serif" font-size="7.8" font-weight="bold" lengthAdjust="spacing" textLength="8.4" x="1077.9" y="622.0494">28</text><text fill="#000000" font-family="sans-serif" font-size="7.8" lengthAdjust="spacing" textLength="31.8" x="1088.7" y="622.0494">true/false</text><path d="M309,634.207 L345.6,634.207 L345.6,639.7816 L339.6,645.7816 L309,645.7816 L309,634.207 " fill="#EEEEEE" style="stroke:#000000;stroke-width:0.8999999999999999;"/><rect fill="none" height="447.7828" style="stroke:#000000;stroke-width:0.8999999999999999;" width="1323.6" x="309" y="634.207"/><text fill="#000000" font-family="sans-serif" font-size="7.8" font-weight="bold" lengthAdjust="spacing" textLength="9.6" x="318" y="643.224">alt</text><text fill="#000000" font-family="sans-serif" font-size="6.6" font-weight="bold" lengthAdjust="spacing" textLength="18.6" x="354.6" y="642.5291">[true]</text><polygon fill="#181818" points="1201.5,657.3562,1207.5,659.7563,1201.5,662.1563,1203.9,659.7563" style="stroke:#181818;stroke-width:0.6;"/><line style="stroke:#181818;stroke-width:0.6;" x1="1067.7" x2="1205.1" y1="659.7563" y2="659.7563"/><text fill="#000000" font-family="sans-serif" font-size="7.8" font-weight="bold" lengthAdjust="spacing" textLength="8.4" x="1071.9" y="656.5986">29</text><text fill="#000000" font-family="sans-serif" font-size="7.8" lengthAdjust="spacing" textLength="118.8" x="1082.7" y="656.5986">throw clientAlreadyExists(clientID)</text><polygon fill="#181818" points="1074.3,676.1309,1068.3,678.5309,1074.3,680.9309,1071.9,678.5309" style="stroke:#181818;stroke-width:0.6;"/><line style="stroke:#181818;stroke-width:0.6;stroke-dasharray:2.0,2.0;" x1="1070.7" x2="1211.1" y1="678.5309" y2="678.5309"/><text fill="#000000" font-family="sans-serif" font-size="7.8" font-weight="bold" lengthAdjust="spacing" textLength="8.4" x="1077.9" y="675.3732">30</text><text fill="#000000" font-family="sans-serif" font-size="7.8" lengthAdjust="spacing" textLength="61.8" x="1088.7" y="675.3732">Exception Thrown</text><polygon fill="#181818" points="720.3,694.9055,714.3,697.3055,720.3,699.7055,717.9,697.3055" style="stroke:#181818;stroke-width:0.6;"/><line style="stroke:#181818;stroke-width:0.6;stroke-dasharray:2.0,2.0;" x1="716.7" x2="1061.1" y1="697.3055" y2="697.3055"/><text fill="#000000" font-family="sans-serif" font-size="7.8" font-weight="bold" lengthAdjust="spacing" textLength="8.4" x="723.9" y="694.1479">31</text><text fill="#000000" font-family="sans-serif" font-size="7.8" lengthAdjust="spacing" textLength="161.4" x="734.7" y="694.1479">show error message (Client already registered)</text><polygon fill="#181818" points="366.3,713.6801,360.3,716.0801,366.3,718.4801,363.9,716.0801" style="stroke:#181818;stroke-width:0.6;"/><line style="stroke:#181818;stroke-width:0.6;stroke-dasharray:2.0,2.0;" x1="362.7" x2="707.1" y1="716.0801" y2="716.0801"/><text fill="#000000" font-family="sans-serif" font-size="7.8" font-weight="bold" lengthAdjust="spacing" textLength="8.4" x="369.9" y="712.9225">32</text><text fill="#000000" font-family="sans-serif" font-size="7.8" lengthAdjust="spacing" textLength="161.4" x="380.7" y="712.9225">show error message (Client already registered)</text><line style="stroke:#000000;stroke-width:0.6;stroke-dasharray:2.0,2.0;" x1="309" x2="1632.6" y1="721.4801" y2="721.4801"/><polygon fill="#181818" points="1331.7,733.6547,1337.7,736.0547,1331.7,738.4547,1334.1,736.0547" style="stroke:#181818;stroke-width:0.6;"/><line style="stroke:#181818;stroke-width:0.6;" x1="1067.7" x2="1335.3" y1="736.0547" y2="736.0547"/><text fill="#000000" font-family="sans-serif" font-size="7.8" font-weight="bold" lengthAdjust="spacing" textLength="8.4" x="1071.9" y="732.8971">33</text><text fill="#000000" font-family="sans-serif" font-size="7.8" lengthAdjust="spacing" textLength="81.6" x="1082.7" y="732.8971">getAddressRepository()</text><polygon fill="#181818" points="1074.3,752.4293,1068.3,754.8293,1074.3,757.2293,1071.9,754.8293" style="stroke:#181818;stroke-width:0.6;"/><line style="stroke:#181818;stroke-width:0.6;stroke-dasharray:2.0,2.0;" x1="1070.7" x2="1341.3" y1="754.8293" y2="754.8293"/><text fill="#000000" font-family="sans-serif" font-size="7.8" font-weight="bold" lengthAdjust="spacing" textLength="8.4" x="1077.9" y="751.6717">34</text><text fill="#000000" font-family="sans-serif" font-size="7.8" lengthAdjust="spacing" textLength="64.8" x="1088.7" y="751.6717">addressRepository</text><polygon fill="#181818" points="1485.3,771.2039,1491.3,773.6039,1485.3,776.0039,1487.7,773.6039" style="stroke:#181818;stroke-width:0.6;"/><line style="stroke:#181818;stroke-width:0.6;" x1="1067.7" x2="1488.9" y1="773.6039" y2="773.6039"/><text fill="#000000" font-family="sans-serif" font-size="7.8" font-weight="bold" lengthAdjust="spacing" textLength="8.4" x="1071.9" y="770.4463">35</text><text fill="#000000" font-family="sans-serif" font-size="7.8" lengthAdjust="spacing" textLength="73.2" x="1082.7" y="770.4463">findAddress(address)</text><polygon fill="#181818" points="1074.3,789.9785,1068.3,792.3785,1074.3,794.7785,1071.9,792.3785" style="stroke:#181818;stroke-width:0.6;"/><line style="stroke:#181818;stroke-width:0.6;stroke-dasharray:2.0,2.0;" x1="1070.7" x2="1494.9" y1="792.3785" y2="792.3785"/><text fill="#000000" font-family="sans-serif" font-size="7.8" font-weight="bold" lengthAdjust="spacing" textLength="8.4" x="1077.9" y="789.2209">36</text><text fill="#000000" font-family="sans-serif" font-size="7.8" lengthAdjust="spacing" textLength="27.6" x="1088.7" y="789.2209">address</text><path d="M1028.4,801.3785 L1065,801.3785 L1065,806.9531 L1059,812.9531 L1028.4,812.9531 L1028.4,801.3785 " fill="#EEEEEE" style="stroke:#000000;stroke-width:0.8999999999999999;"/><rect fill="none" height="86.4691" style="stroke:#000000;stroke-width:0.8999999999999999;" width="598.2" x="1028.4" y="801.3785"/><text fill="#000000" font-family="sans-serif" font-size="7.8" font-weight="bold" lengthAdjust="spacing" textLength="9.6" x="1037.4" y="810.3955">alt</text><text fill="#000000" font-family="sans-serif" font-size="6.6" font-weight="bold" lengthAdjust="spacing" textLength="55.2" x="1074" y="809.7006">[address == null]</text><polygon fill="#181818" points="1572,824.5277,1578,826.9277,1572,829.3277,1574.4,826.9277" style="stroke:#181818;stroke-width:0.6;"/><line style="stroke:#181818;stroke-width:0.6;" x1="1067.7" x2="1575.6" y1="826.9277" y2="826.9277"/><text fill="#000000" font-family="sans-serif" font-size="7.8" font-weight="bold" lengthAdjust="spacing" textLength="8.4" x="1071.9" y="823.7701">37</text><text fill="#000000" font-family="sans-serif" font-size="7.8" lengthAdjust="spacing" textLength="54" x="1082.7" y="823.7701">create(address)</text><rect fill="#E3E3E3" height="30.7453" rx="1.5" ry="1.5" style="stroke:#181818;stroke-width:0.3;" width="41.4" x="1579.2" y="812.9531"/><text fill="#000000" font-family="sans-serif" font-size="8.4" lengthAdjust="spacing" textLength="33" x="1583.4" y="826.2176">address:</text><text fill="#000000" font-family="sans-serif" font-size="8.4" lengthAdjust="spacing" textLength="31.2" x="1584.3" y="837.3902">Address</text><polygon fill="#181818" points="1485.3,861.873,1491.3,864.273,1485.3,866.673,1487.7,864.273" style="stroke:#181818;stroke-width:0.6;"/><line style="stroke:#181818;stroke-width:0.6;" x1="1067.7" x2="1488.9" y1="864.273" y2="864.273"/><text fill="#000000" font-family="sans-serif" font-size="7.8" font-weight="bold" lengthAdjust="spacing" textLength="8.4" x="1071.9" y="861.1154">38</text><text fill="#000000" font-family="sans-serif" font-size="7.8" lengthAdjust="spacing" textLength="48" x="1082.7" y="861.1154">save(address)</text><polygon fill="#181818" points="1074.3,880.6477,1068.3,883.0477,1074.3,885.4477,1071.9,883.0477" style="stroke:#181818;stroke-width:0.6;"/><line style="stroke:#181818;stroke-width:0.6;stroke-dasharray:2.0,2.0;" x1="1070.7" x2="1494.9" y1="883.0477" y2="883.0477"/><text fill="#000000" font-family="sans-serif" font-size="7.8" font-weight="bold" lengthAdjust="spacing" textLength="8.4" x="1077.9" y="879.89">39</text><text fill="#000000" font-family="sans-serif" font-size="7.8" lengthAdjust="spacing" textLength="27.6" x="1088.7" y="879.89">address</text><polygon fill="#181818" points="1535.4,903.6223,1541.4,906.0223,1535.4,908.4223,1537.8,906.0223" style="stroke:#181818;stroke-width:0.6;"/><line style="stroke:#181818;stroke-width:0.6;" x1="1067.7" x2="1539" y1="906.0223" y2="906.0223"/><text fill="#000000" font-family="sans-serif" font-size="7.8" font-weight="bold" lengthAdjust="spacing" textLength="8.4" x="1071.9" y="902.8646">40</text><text fill="#000000" font-family="sans-serif" font-size="7.8" lengthAdjust="spacing" textLength="225" x="1082.7" y="902.8646">create(clientID, name, vatin, address, phoneNumber, email, type)</text><rect fill="#E3E3E3" height="30.7453" rx="1.5" ry="1.5" style="stroke:#181818;stroke-width:0.3;" width="30.6" x="1542.6" y="892.0477"/><text fill="#000000" font-family="sans-serif" font-size="8.4" lengthAdjust="spacing" textLength="22.2" x="1546.8" y="905.3121">client:</text><text fill="#000000" font-family="sans-serif" font-size="8.4" lengthAdjust="spacing" textLength="21.6" x="1547.1" y="916.4848">Client</text><polygon fill="#181818" points="1402.5,940.9676,1408.5,943.3676,1402.5,945.7676,1404.9,943.3676" style="stroke:#181818;stroke-width:0.6;"/><line style="stroke:#181818;stroke-width:0.6;" x1="1067.7" x2="1406.1" y1="943.3676" y2="943.3676"/><text fill="#000000" font-family="sans-serif" font-size="7.8" font-weight="bold" lengthAdjust="spacing" textLength="8.4" x="1071.9" y="940.21">41</text><text fill="#000000" font-family="sans-serif" font-size="7.8" lengthAdjust="spacing" textLength="39" x="1082.7" y="940.21">save(client)</text><path d="M315,952.3676 L351.6,952.3676 L351.6,957.9422 L345.6,963.9422 L315,963.9422 L315,952.3676 " fill="#EEEEEE" style="stroke:#000000;stroke-width:0.8999999999999999;"/><rect fill="none" height="125.4223" style="stroke:#000000;stroke-width:0.8999999999999999;" width="1139.4" x="315" y="952.3676"/><text fill="#000000" font-family="sans-serif" font-size="7.8" font-weight="bold" lengthAdjust="spacing" textLength="9.6" x="324" y="961.3846">alt</text><text fill="#000000" font-family="sans-serif" font-size="6.6" font-weight="bold" lengthAdjust="spacing" textLength="49.2" x="360.6" y="960.6896">[system error]</text><polygon fill="#181818" points="1074.3,975.5168,1068.3,977.9168,1074.3,980.3168,1071.9,977.9168" style="stroke:#181818;stroke-width:0.6;"/><line style="stroke:#181818;stroke-width:0.6;stroke-dasharray:2.0,2.0;" x1="1070.7" x2="1409.1" y1="977.9168" y2="977.9168"/><text fill="#000000" font-family="sans-serif" font-size="7.8" font-weight="bold" lengthAdjust="spacing" textLength="8.4" x="1077.9" y="974.7592">42</text><text fill="#000000" font-family="sans-serif" font-size="7.8" lengthAdjust="spacing" textLength="51" x="1088.7" y="974.7592">Database error</text><polygon fill="#181818" points="720.3,994.2914,714.3,996.6914,720.3,999.0914,717.9,996.6914" style="stroke:#181818;stroke-width:0.6;"/><line style="stroke:#181818;stroke-width:0.6;stroke-dasharray:2.0,2.0;" x1="716.7" x2="1061.1" y1="996.6914" y2="996.6914"/><text fill="#000000" font-family="sans-serif" font-size="7.8" font-weight="bold" lengthAdjust="spacing" textLength="8.4" x="723.9" y="993.5338">43</text><text fill="#000000" font-family="sans-serif" font-size="7.8" lengthAdjust="spacing" textLength="128.4" x="734.7" y="993.5338">show error message (Database error)</text><polygon fill="#181818" points="366.3,1013.066,360.3,1015.466,366.3,1017.866,363.9,1015.466" style="stroke:#181818;stroke-width:0.6;"/><line style="stroke:#181818;stroke-width:0.6;stroke-dasharray:2.0,2.0;" x1="362.7" x2="707.1" y1="1015.466" y2="1015.466"/><text fill="#000000" font-family="sans-serif" font-size="7.8" font-weight="bold" lengthAdjust="spacing" textLength="8.4" x="369.9" y="1012.3084">44</text><text fill="#000000" font-family="sans-serif" font-size="7.8" lengthAdjust="spacing" textLength="128.4" x="380.7" y="1012.3084">show error message (Database error)</text><line style="stroke:#000000;stroke-width:0.6;stroke-dasharray:2.0,2.0;" x1="315" x2="1454.4" y1="1020.866" y2="1020.866"/><polygon fill="#181818" points="1074.3,1033.0406,1068.3,1035.4406,1074.3,1037.8406,1071.9,1035.4406" style="stroke:#181818;stroke-width:0.6;"/><line style="stroke:#181818;stroke-width:0.6;stroke-dasharray:2.0,2.0;" x1="1070.7" x2="1412.1" y1="1035.4406" y2="1035.4406"/><text fill="#000000" font-family="sans-serif" font-size="7.8" font-weight="bold" lengthAdjust="spacing" textLength="8.4" x="1077.9" y="1032.283">45</text><text fill="#000000" font-family="sans-serif" font-size="7.8" lengthAdjust="spacing" textLength="18.6" x="1088.7" y="1032.283">client</text><polygon fill="#181818" points="720.3,1051.8152,714.3,1054.2152,720.3,1056.6152,717.9,1054.2152" style="stroke:#181818;stroke-width:0.6;"/><line style="stroke:#181818;stroke-width:0.6;stroke-dasharray:2.0,2.0;" x1="716.7" x2="1064.1" y1="1054.2152" y2="1054.2152"/><text fill="#000000" font-family="sans-serif" font-size="7.8" font-weight="bold" lengthAdjust="spacing" textLength="8.4" x="723.9" y="1051.0576">46</text><text fill="#000000" font-family="sans-serif" font-size="7.8" lengthAdjust="spacing" textLength="18.6" x="734.7" y="1051.0576">client</text><polygon fill="#181818" points="366.3,1070.5898,360.3,1072.9898,366.3,1075.3898,363.9,1072.9898" style="stroke:#181818;stroke-width:0.6;"/><line style="stroke:#181818;stroke-width:0.6;stroke-dasharray:2.0,2.0;" x1="362.7" x2="710.1" y1="1072.9898" y2="1072.9898"/><text fill="#000000" font-family="sans-serif" font-size="7.8" font-weight="bold" lengthAdjust="spacing" textLength="8.4" x="369.9" y="1069.8322">47</text><text fill="#000000" font-family="sans-serif" font-size="7.8" lengthAdjust="spacing" textLength="18.6" x="380.7" y="1069.8322">client</text><polygon fill="#181818" points="36.3,1101.9645,30.3,1104.3645,36.3,1106.7645,33.9,1104.3645" style="stroke:#181818;stroke-width:0.6;"/><line style="stroke:#181818;stroke-width:0.6;stroke-dasharray:2.0,2.0;" x1="32.7" x2="356.1" y1="1104.3645" y2="1104.3645"/><text fill="#000000" font-family="sans-serif" font-size="7.8" font-weight="bold" lengthAdjust="spacing" textLength="8.4" x="39.9" y="1101.2068">48</text><text fill="#000000" font-family="sans-serif" font-size="7.8" lengthAdjust="spacing" textLength="223.2" x="50.7" y="1101.2068">shows all data and displays operation success or error message</text><!--SRC=[pLZ1Zjis4BtxAmPxiWCdkHj80SFsmS1s4TYRHG-vCDBOIon5gY9jn_tw3ab9fYHQKjAcg2w9oU7Zc-6RuN3r6vSvArW6cP8gUIrKXc2A4qvqFPEpv8qTSM-k0g70n31v5A61VcMfkd1vX0CJ6YSJmmsPxg_QO0Px_FE4Ca5OStQqvjFzVZsRJDZ9A7dAlc51_q-CAk1XcMPSScqAHZyVW6bOhd-Vq2Q69pndqi33OeT7ii1Y9JXAysNhpBviMrP-TgMaAPGGwC5Mpxl7gDqUYpDFq1djTozD6s-o-PvWRhYIpcZpnwffjCDSQKwiEMfdiTjytZTDYi3agrp4LZGN96xZskww-2fNhI6ti6tNH65fMg3M3PXbUypXT2nZT6eIFgAFsytJStJ3spRbGQvtctqh92zCyBG-wvVbOoMTwf31xrLho2c5dvb1fmoWZ_w5zx-H0c1186yQZ2AHbiiPIBoK0NBMzN9IZ1km7wqb1AkET-y89IcGB6BJD7b4inJ2qzBJMMrK0pkHGV2vXGH0mlBhkuiR05Q0ZHdxsSM4OLNbGRPIKnucs49f83aDjcSTn7lFPm6XA3kcAVP3tKY5ZjtqCy0jHgrYPe-XBUj-UdTZriQf3x6Ftk3c7TGsyTvmzi8xtZV5nU02A2kNfjIgR6Wl31RL8hNQ9dkRH0kgu-f2-VEA82XzG1qg260o9QbG3chwaIXvu4N6R3MSj82hj0gpihItoCm0eL-OnHoTfs4UrbnhDbG_64pv1_m0Jop3ERmGCJc7ilZCmLu210TRUL0m_Vog9CAJktVciCaO5xCvF5zpd8tnnP2X_gXHq3MeAnAOEXQznFrnBcgNVQvClSlRzHoa8t_svEaAH3Hp-8ldAvNIk54N6axKYIwqwnnowqNb15edvexQ3zQZ_uxEw0f7by02k7Otmvg2EerXbpnwyjVU9Ur96hiLFjlZVFJjIa-UkYkfiuamLQC3aQzqX5e4seKQgWjmUQxTcKNNr1lQnY9cGECtxdKl0iyMNqPN15xS0mqBZSz-mAAWHYoZnA6E3wPRpzp9UnPtDwWvOp06gCRE3QEXlbq-__RTy-kkde3fvZlbdQuJxbTSHMD5tjaWgdZtA1WfU8-u5DH8fTT1J__F2L3sdyoxKfTBJ7ys6te0n-a-elrEEpzKPM89q4c2xdDW8ChHJ0ZeTbyYSE0oBTbFo-a1wkDOTQmwRWqvCt8VIepI4Zvz0daI8ceNHA5y20KlZNxF-mEesNd4-X_qwXz4yAUYY3Bj5Ov_POOHkzEdiAhdkz-GzEtJBTSkl7vuG9U3LRgIY_P_5N5buMu8xvTqsqHyOnfBW7x9z9Qs9jBiFjHWJMiZHSyuTWaDkniy2GQaDke0kf4Plq7uqEeDqNZ8JcyUPiJGMFNxzYogNd1C2Fyiii-sbEjSiAi6bMFXtcoWJqbYAnQTOUCaOm-Wu2Vjy3S0]--></g></svg>