<?xml version="1.0" encoding="us-ascii" standalone="no"?><svg xmlns="http://www.w3.org/2000/svg" xmlns:xlink="http://www.w3.org/1999/xlink" contentStyleType="text/css" height="1443px" preserveAspectRatio="none" style="width:1599px;height:1443px;background:#FFFFFF;" version="1.1" viewBox="0 0 1599 1443" width="1599px" zoomAndPan="magnify"><defs/><g><!--cluster UI--><g id="cluster_UI"><rect fill="none" height="101" rx="2.5" ry="2.5" style="stroke:#000000;stroke-width:1.5;" width="166" x="841" y="7"/><text fill="#000000" font-family="sans-serif" font-size="14" font-weight="bold" lengthAdjust="spacing" textLength="14" x="917" y="24.1074">UI</text></g><!--cluster Controller--><g id="cluster_Controller"><rect fill="none" height="157" rx="2.5" ry="2.5" style="stroke:#000000;stroke-width:1.5;" width="672" x="588" y="141"/><text fill="#000000" font-family="sans-serif" font-size="14" font-weight="bold" lengthAdjust="spacing" textLength="71" x="888.5" y="158.1074">Controller</text></g><!--cluster Service--><g id="cluster_Service"><rect fill="none" height="157" rx="2.5" ry="2.5" style="stroke:#000000;stroke-width:1.5;" width="672" x="588" y="331"/><text fill="#000000" font-family="sans-serif" font-size="14" font-weight="bold" lengthAdjust="spacing" textLength="54" x="897" y="348.1074">Service</text></g><!--cluster Repository--><g id="cluster_Repository"><rect fill="none" height="358" rx="2.5" ry="2.5" style="stroke:#000000;stroke-width:1.5;" width="633" x="7" y="539"/><text fill="#000000" font-family="sans-serif" font-size="14" font-weight="bold" lengthAdjust="spacing" textLength="76" x="285.5" y="556.1074">Repository</text></g><!--cluster Model--><g id="cluster_Model"><rect fill="none" height="489" rx="2.5" ry="2.5" style="stroke:#000000;stroke-width:1.5;" width="479" x="596" y="948"/><text fill="#000000" font-family="sans-serif" font-size="14" font-weight="bold" lengthAdjust="spacing" textLength="44" x="813.5" y="965.1074">Model</text></g><!--cluster Exception--><g id="cluster_Exception"><rect fill="none" height="330" rx="2.5" ry="2.5" style="stroke:#000000;stroke-width:1.5;" width="312" x="768" y="539"/><text fill="#000000" font-family="sans-serif" font-size="14" font-weight="bold" lengthAdjust="spacing" textLength="70" x="889" y="556.1074">Exception</text></g><!--cluster Commom--><g id="cluster_Commom"><rect fill="none" height="157" rx="2.5" ry="2.5" style="stroke:#000000;stroke-width:1.5;" width="346" x="1247" y="548"/><text fill="#000000" font-family="sans-serif" font-size="14" font-weight="bold" lengthAdjust="spacing" textLength="64" x="1388" y="565.1074">Commom</text></g><!--class RegisterClientUI--><g id="elem_RegisterClientUI"><rect codeLine="7" fill="#F1F1F1" height="48" id="RegisterClientUI" rx="2.5" ry="2.5" style="stroke:#181818;stroke-width:0.5;" width="133" x="857.5" y="44"/><ellipse cx="872.5" cy="60" fill="#ADD1B2" rx="11" ry="11" style="stroke:#181818;stroke-width:1.0;"/><path d="M875.2656,55.875 Q875.4219,55.6563 875.6094,55.5469 Q875.7969,55.4375 876.0156,55.4375 Q876.3906,55.4375 876.625,55.7031 Q876.8594,55.9531 876.8594,56.5625 L876.8594,58.0156 Q876.8594,58.625 876.625,58.8906 Q876.3906,59.1563 876.0156,59.1563 Q875.6719,59.1563 875.4688,58.9531 Q875.2656,58.7656 875.1563,58.25 Q875.1094,57.8906 874.9219,57.7031 Q874.5938,57.3281 873.9844,57.1094 Q873.375,56.8906 872.75,56.8906 Q871.9844,56.8906 871.3438,57.2188 Q870.7188,57.5469 870.2188,58.2969 Q869.7344,59.0469 869.7344,60.0781 L869.7344,61.1719 Q869.7344,62.4063 870.625,63.2344 Q871.5156,64.0469 873.1094,64.0469 Q874.0469,64.0469 874.7031,63.7969 Q875.0938,63.6406 875.5156,63.2031 Q875.7813,62.9375 875.9219,62.8594 Q876.0781,62.7813 876.2813,62.7813 Q876.6094,62.7813 876.8594,63.0469 Q877.125,63.2969 877.125,63.6406 Q877.125,63.9844 876.7813,64.3906 Q876.2813,64.9688 875.4844,65.2969 Q874.4063,65.75 873.1094,65.75 Q871.5938,65.75 870.3906,65.125 Q869.4063,64.625 868.7188,63.5625 Q868.0313,62.4844 868.0313,61.2031 L868.0313,60.0469 Q868.0313,58.7188 868.6406,57.5781 Q869.2656,56.4219 870.3594,55.8125 Q871.4531,55.1875 872.6875,55.1875 Q873.4219,55.1875 874.0625,55.3594 Q874.7188,55.5156 875.2656,55.875 Z " fill="#000000"/><text fill="#000000" font-family="sans-serif" font-size="14" lengthAdjust="spacing" textLength="101" x="886.5" y="65.7969">RegisterClientUI</text><line style="stroke:#181818;stroke-width:0.5;" x1="858.5" x2="989.5" y1="76" y2="76"/><line style="stroke:#181818;stroke-width:0.5;" x1="858.5" x2="989.5" y1="84" y2="84"/></g><!--class ClientController--><g id="elem_ClientController"><rect codeLine="12" fill="#F1F1F1" height="103.8633" id="ClientController" rx="2.5" ry="2.5" style="stroke:#181818;stroke-width:0.5;" width="640" x="604" y="178"/><ellipse cx="870.75" cy="194" fill="#ADD1B2" rx="11" ry="11" style="stroke:#181818;stroke-width:1.0;"/><path d="M873.5156,189.875 Q873.6719,189.6563 873.8594,189.5469 Q874.0469,189.4375 874.2656,189.4375 Q874.6406,189.4375 874.875,189.7031 Q875.1094,189.9531 875.1094,190.5625 L875.1094,192.0156 Q875.1094,192.625 874.875,192.8906 Q874.6406,193.1563 874.2656,193.1563 Q873.9219,193.1563 873.7188,192.9531 Q873.5156,192.7656 873.4063,192.25 Q873.3594,191.8906 873.1719,191.7031 Q872.8438,191.3281 872.2344,191.1094 Q871.625,190.8906 871,190.8906 Q870.2344,190.8906 869.5938,191.2188 Q868.9688,191.5469 868.4688,192.2969 Q867.9844,193.0469 867.9844,194.0781 L867.9844,195.1719 Q867.9844,196.4063 868.875,197.2344 Q869.7656,198.0469 871.3594,198.0469 Q872.2969,198.0469 872.9531,197.7969 Q873.3438,197.6406 873.7656,197.2031 Q874.0313,196.9375 874.1719,196.8594 Q874.3281,196.7813 874.5313,196.7813 Q874.8594,196.7813 875.1094,197.0469 Q875.375,197.2969 875.375,197.6406 Q875.375,197.9844 875.0313,198.3906 Q874.5313,198.9688 873.7344,199.2969 Q872.6563,199.75 871.3594,199.75 Q869.8438,199.75 868.6406,199.125 Q867.6563,198.625 866.9688,197.5625 Q866.2813,196.4844 866.2813,195.2031 L866.2813,194.0469 Q866.2813,192.7188 866.8906,191.5781 Q867.5156,190.4219 868.6094,189.8125 Q869.7031,189.1875 870.9375,189.1875 Q871.6719,189.1875 872.3125,189.3594 Q872.9688,189.5156 873.5156,189.875 Z " fill="#000000"/><text fill="#000000" font-family="sans-serif" font-size="14" lengthAdjust="spacing" textLength="98" x="891.25" y="199.7969">ClientController</text><line style="stroke:#181818;stroke-width:0.5;" x1="605" x2="1243" y1="210" y2="210"/><line style="stroke:#181818;stroke-width:0.5;" x1="605" x2="1243" y1="218" y2="218"/><text fill="#000000" font-family="sans-serif" font-size="14" lengthAdjust="spacing" textLength="182" x="610" y="237.1074">+getAllClients() : List&lt;Client&gt;</text><text fill="#000000" font-family="sans-serif" font-size="14" lengthAdjust="spacing" textLength="195" x="610" y="255.7285">+getClientById(clientID) : Client</text><text fill="#000000" font-family="sans-serif" font-size="14" lengthAdjust="spacing" textLength="628" x="610" y="274.3496">+updateClient(client, name, vatin, street, zipCode, town, country, phoneNumber, email, type) : Client</text></g><!--class ClientService--><g id="elem_ClientService"><rect codeLine="20" fill="#F1F1F1" height="103.8633" id="ClientService" rx="2.5" ry="2.5" style="stroke:#181818;stroke-width:0.5;" width="640" x="604" y="368"/><ellipse cx="878.25" cy="384" fill="#ADD1B2" rx="11" ry="11" style="stroke:#181818;stroke-width:1.0;"/><path d="M881.0156,379.875 Q881.1719,379.6563 881.3594,379.5469 Q881.5469,379.4375 881.7656,379.4375 Q882.1406,379.4375 882.375,379.7031 Q882.6094,379.9531 882.6094,380.5625 L882.6094,382.0156 Q882.6094,382.625 882.375,382.8906 Q882.1406,383.1563 881.7656,383.1563 Q881.4219,383.1563 881.2188,382.9531 Q881.0156,382.7656 880.9063,382.25 Q880.8594,381.8906 880.6719,381.7031 Q880.3438,381.3281 879.7344,381.1094 Q879.125,380.8906 878.5,380.8906 Q877.7344,380.8906 877.0938,381.2188 Q876.4688,381.5469 875.9688,382.2969 Q875.4844,383.0469 875.4844,384.0781 L875.4844,385.1719 Q875.4844,386.4063 876.375,387.2344 Q877.2656,388.0469 878.8594,388.0469 Q879.7969,388.0469 880.4531,387.7969 Q880.8438,387.6406 881.2656,387.2031 Q881.5313,386.9375 881.6719,386.8594 Q881.8281,386.7813 882.0313,386.7813 Q882.3594,386.7813 882.6094,387.0469 Q882.875,387.2969 882.875,387.6406 Q882.875,387.9844 882.5313,388.3906 Q882.0313,388.9688 881.2344,389.2969 Q880.1563,389.75 878.8594,389.75 Q877.3438,389.75 876.1406,389.125 Q875.1563,388.625 874.4688,387.5625 Q873.7813,386.4844 873.7813,385.2031 L873.7813,384.0469 Q873.7813,382.7188 874.3906,381.5781 Q875.0156,380.4219 876.1094,379.8125 Q877.2031,379.1875 878.4375,379.1875 Q879.1719,379.1875 879.8125,379.3594 Q880.4688,379.5156 881.0156,379.875 Z " fill="#000000"/><text fill="#000000" font-family="sans-serif" font-size="14" lengthAdjust="spacing" textLength="83" x="898.75" y="389.7969">ClientService</text><line style="stroke:#181818;stroke-width:0.5;" x1="605" x2="1243" y1="400" y2="400"/><line style="stroke:#181818;stroke-width:0.5;" x1="605" x2="1243" y1="408" y2="408"/><text fill="#000000" font-family="sans-serif" font-size="14" lengthAdjust="spacing" textLength="167" x="610" y="427.1074">+getClients() : List&lt;Client&gt;</text><text fill="#000000" font-family="sans-serif" font-size="14" lengthAdjust="spacing" textLength="197" x="610" y="445.7285">+getClientByID(clientID) : Client</text><text fill="#000000" font-family="sans-serif" font-size="14" lengthAdjust="spacing" textLength="628" x="610" y="464.3496">+updateClient(client, name, vatin, street, zipCode, town, country, phoneNumber, email, type) : Client</text></g><!--class Repositories--><g id="elem_Repositories"><rect codeLine="28" fill="#F1F1F1" height="122.4844" id="Repositories" rx="2.5" ry="2.5" style="stroke:#181818;stroke-width:0.5;" width="302" x="23" y="576"/><ellipse cx="130.25" cy="592" fill="#ADD1B2" rx="11" ry="11" style="stroke:#181818;stroke-width:1.0;"/><path d="M133.0156,587.875 Q133.1719,587.6563 133.3594,587.5469 Q133.5469,587.4375 133.7656,587.4375 Q134.1406,587.4375 134.375,587.7031 Q134.6094,587.9531 134.6094,588.5625 L134.6094,590.0156 Q134.6094,590.625 134.375,590.8906 Q134.1406,591.1563 133.7656,591.1563 Q133.4219,591.1563 133.2188,590.9531 Q133.0156,590.7656 132.9063,590.25 Q132.8594,589.8906 132.6719,589.7031 Q132.3438,589.3281 131.7344,589.1094 Q131.125,588.8906 130.5,588.8906 Q129.7344,588.8906 129.0938,589.2188 Q128.4688,589.5469 127.9688,590.2969 Q127.4844,591.0469 127.4844,592.0781 L127.4844,593.1719 Q127.4844,594.4063 128.375,595.2344 Q129.2656,596.0469 130.8594,596.0469 Q131.7969,596.0469 132.4531,595.7969 Q132.8438,595.6406 133.2656,595.2031 Q133.5313,594.9375 133.6719,594.8594 Q133.8281,594.7813 134.0313,594.7813 Q134.3594,594.7813 134.6094,595.0469 Q134.875,595.2969 134.875,595.6406 Q134.875,595.9844 134.5313,596.3906 Q134.0313,596.9688 133.2344,597.2969 Q132.1563,597.75 130.8594,597.75 Q129.3438,597.75 128.1406,597.125 Q127.1563,596.625 126.4688,595.5625 Q125.7813,594.4844 125.7813,593.2031 L125.7813,592.0469 Q125.7813,590.7188 126.3906,589.5781 Q127.0156,588.4219 128.1094,587.8125 Q129.2031,587.1875 130.4375,587.1875 Q131.1719,587.1875 131.8125,587.3594 Q132.4688,587.5156 133.0156,587.875 Z " fill="#000000"/><text fill="#000000" font-family="sans-serif" font-size="14" lengthAdjust="spacing" textLength="79" x="150.75" y="597.7969">Repositories</text><line style="stroke:#181818;stroke-width:0.5;" x1="24" x2="324" y1="608" y2="608"/><line style="stroke:#181818;stroke-width:0.5;" x1="24" x2="324" y1="616" y2="616"/><text fill="#000000" font-family="sans-serif" font-size="14" lengthAdjust="spacing" textLength="94" x="29" y="635.1074">-Repositories()</text><text fill="#000000" font-family="sans-serif" font-size="14" lengthAdjust="spacing" textLength="182" x="29" y="653.7285">+getInstance() : Repositories</text><text fill="#000000" font-family="sans-serif" font-size="14" lengthAdjust="spacing" textLength="258" x="29" y="672.3496">+getClientRepository() : ClientRepository</text><text fill="#000000" font-family="sans-serif" font-size="14" lengthAdjust="spacing" textLength="290" x="29" y="690.9707">+getAddressRepository() : AddressRepository</text></g><!--class ClientRepository--><g id="elem_ClientRepository"><rect codeLine="35" fill="#F1F1F1" height="103.8633" id="ClientRepository" rx="2.5" ry="2.5" style="stroke:#181818;stroke-width:0.5;" width="209" x="414.5" y="777"/><ellipse cx="462.75" cy="793" fill="#ADD1B2" rx="11" ry="11" style="stroke:#181818;stroke-width:1.0;"/><path d="M465.5156,788.875 Q465.6719,788.6563 465.8594,788.5469 Q466.0469,788.4375 466.2656,788.4375 Q466.6406,788.4375 466.875,788.7031 Q467.1094,788.9531 467.1094,789.5625 L467.1094,791.0156 Q467.1094,791.625 466.875,791.8906 Q466.6406,792.1563 466.2656,792.1563 Q465.9219,792.1563 465.7188,791.9531 Q465.5156,791.7656 465.4063,791.25 Q465.3594,790.8906 465.1719,790.7031 Q464.8438,790.3281 464.2344,790.1094 Q463.625,789.8906 463,789.8906 Q462.2344,789.8906 461.5938,790.2188 Q460.9688,790.5469 460.4688,791.2969 Q459.9844,792.0469 459.9844,793.0781 L459.9844,794.1719 Q459.9844,795.4063 460.875,796.2344 Q461.7656,797.0469 463.3594,797.0469 Q464.2969,797.0469 464.9531,796.7969 Q465.3438,796.6406 465.7656,796.2031 Q466.0313,795.9375 466.1719,795.8594 Q466.3281,795.7813 466.5313,795.7813 Q466.8594,795.7813 467.1094,796.0469 Q467.375,796.2969 467.375,796.6406 Q467.375,796.9844 467.0313,797.3906 Q466.5313,797.9688 465.7344,798.2969 Q464.6563,798.75 463.3594,798.75 Q461.8438,798.75 460.6406,798.125 Q459.6563,797.625 458.9688,796.5625 Q458.2813,795.4844 458.2813,794.2031 L458.2813,793.0469 Q458.2813,791.7188 458.8906,790.5781 Q459.5156,789.4219 460.6094,788.8125 Q461.7031,788.1875 462.9375,788.1875 Q463.6719,788.1875 464.3125,788.3594 Q464.9688,788.5156 465.5156,788.875 Z " fill="#000000"/><text fill="#000000" font-family="sans-serif" font-size="14" lengthAdjust="spacing" textLength="104" x="483.25" y="798.7969">ClientRepository</text><line style="stroke:#181818;stroke-width:0.5;" x1="415.5" x2="622.5" y1="809" y2="809"/><line style="stroke:#181818;stroke-width:0.5;" x1="415.5" x2="622.5" y1="817" y2="817"/><text fill="#000000" font-family="sans-serif" font-size="14" lengthAdjust="spacing" textLength="139" x="420.5" y="836.1074">+getAll() : List&lt;Client&gt;</text><text fill="#000000" font-family="sans-serif" font-size="14" lengthAdjust="spacing" textLength="197" x="420.5" y="854.7285">+getClientByID(clientID) : Client</text><text fill="#000000" font-family="sans-serif" font-size="14" lengthAdjust="spacing" textLength="158" x="420.5" y="873.3496">+update(client) : boolean</text></g><!--class AddressRepository--><g id="elem_AddressRepository"><rect codeLine="41" fill="#F1F1F1" height="103.8633" id="AddressRepository" rx="2.5" ry="2.5" style="stroke:#181818;stroke-width:0.5;" width="356" x="23" y="777"/><ellipse cx="136.75" cy="793" fill="#ADD1B2" rx="11" ry="11" style="stroke:#181818;stroke-width:1.0;"/><path d="M139.5156,788.875 Q139.6719,788.6563 139.8594,788.5469 Q140.0469,788.4375 140.2656,788.4375 Q140.6406,788.4375 140.875,788.7031 Q141.1094,788.9531 141.1094,789.5625 L141.1094,791.0156 Q141.1094,791.625 140.875,791.8906 Q140.6406,792.1563 140.2656,792.1563 Q139.9219,792.1563 139.7188,791.9531 Q139.5156,791.7656 139.4063,791.25 Q139.3594,790.8906 139.1719,790.7031 Q138.8438,790.3281 138.2344,790.1094 Q137.625,789.8906 137,789.8906 Q136.2344,789.8906 135.5938,790.2188 Q134.9688,790.5469 134.4688,791.2969 Q133.9844,792.0469 133.9844,793.0781 L133.9844,794.1719 Q133.9844,795.4063 134.875,796.2344 Q135.7656,797.0469 137.3594,797.0469 Q138.2969,797.0469 138.9531,796.7969 Q139.3438,796.6406 139.7656,796.2031 Q140.0313,795.9375 140.1719,795.8594 Q140.3281,795.7813 140.5313,795.7813 Q140.8594,795.7813 141.1094,796.0469 Q141.375,796.2969 141.375,796.6406 Q141.375,796.9844 141.0313,797.3906 Q140.5313,797.9688 139.7344,798.2969 Q138.6563,798.75 137.3594,798.75 Q135.8438,798.75 134.6406,798.125 Q133.6563,797.625 132.9688,796.5625 Q132.2813,795.4844 132.2813,794.2031 L132.2813,793.0469 Q132.2813,791.7188 132.8906,790.5781 Q133.5156,789.4219 134.6094,788.8125 Q135.7031,788.1875 136.9375,788.1875 Q137.6719,788.1875 138.3125,788.3594 Q138.9688,788.5156 139.5156,788.875 Z " fill="#000000"/><text fill="#000000" font-family="sans-serif" font-size="14" lengthAdjust="spacing" textLength="120" x="157.25" y="798.7969">AddressRepository</text><line style="stroke:#181818;stroke-width:0.5;" x1="24" x2="378" y1="809" y2="809"/><line style="stroke:#181818;stroke-width:0.5;" x1="24" x2="378" y1="817" y2="817"/><text fill="#000000" font-family="sans-serif" font-size="14" lengthAdjust="spacing" textLength="344" x="29" y="836.1074">+findAddress(street, zipCode, town, country) : Address</text><text fill="#000000" font-family="sans-serif" font-size="14" lengthAdjust="spacing" textLength="155" x="29" y="854.7285">+getAddressCount() : int</text><text fill="#000000" font-family="sans-serif" font-size="14" lengthAdjust="spacing" textLength="162" x="29" y="873.3496">+save(address) : boolean</text></g><!--class Client--><g id="elem_Client"><rect codeLine="49" fill="#F1F1F1" height="196.9688" id="Client" rx="2.5" ry="2.5" style="stroke:#181818;stroke-width:0.5;" width="425" x="623.5" y="985"/><ellipse cx="813.75" cy="1001" fill="#ADD1B2" rx="11" ry="11" style="stroke:#181818;stroke-width:1.0;"/><path d="M816.5156,996.875 Q816.6719,996.6563 816.8594,996.5469 Q817.0469,996.4375 817.2656,996.4375 Q817.6406,996.4375 817.875,996.7031 Q818.1094,996.9531 818.1094,997.5625 L818.1094,999.0156 Q818.1094,999.625 817.875,999.8906 Q817.6406,1000.1563 817.2656,1000.1563 Q816.9219,1000.1563 816.7188,999.9531 Q816.5156,999.7656 816.4063,999.25 Q816.3594,998.8906 816.1719,998.7031 Q815.8438,998.3281 815.2344,998.1094 Q814.625,997.8906 814,997.8906 Q813.2344,997.8906 812.5938,998.2188 Q811.9688,998.5469 811.4688,999.2969 Q810.9844,1000.0469 810.9844,1001.0781 L810.9844,1002.1719 Q810.9844,1003.4063 811.875,1004.2344 Q812.7656,1005.0469 814.3594,1005.0469 Q815.2969,1005.0469 815.9531,1004.7969 Q816.3438,1004.6406 816.7656,1004.2031 Q817.0313,1003.9375 817.1719,1003.8594 Q817.3281,1003.7813 817.5313,1003.7813 Q817.8594,1003.7813 818.1094,1004.0469 Q818.375,1004.2969 818.375,1004.6406 Q818.375,1004.9844 818.0313,1005.3906 Q817.5313,1005.9688 816.7344,1006.2969 Q815.6563,1006.75 814.3594,1006.75 Q812.8438,1006.75 811.6406,1006.125 Q810.6563,1005.625 809.9688,1004.5625 Q809.2813,1003.4844 809.2813,1002.2031 L809.2813,1001.0469 Q809.2813,999.7188 809.8906,998.5781 Q810.5156,997.4219 811.6094,996.8125 Q812.7031,996.1875 813.9375,996.1875 Q814.6719,996.1875 815.3125,996.3594 Q815.9688,996.5156 816.5156,996.875 Z " fill="#000000"/><text fill="#000000" font-family="sans-serif" font-size="14" lengthAdjust="spacing" textLength="36" x="834.25" y="1006.7969">Client</text><line style="stroke:#181818;stroke-width:0.5;" x1="624.5" x2="1047.5" y1="1017" y2="1017"/><text fill="#000000" font-family="sans-serif" font-size="14" lengthAdjust="spacing" textLength="78" x="629.5" y="1036.1074">-clientID : int</text><text fill="#000000" font-family="sans-serif" font-size="14" lengthAdjust="spacing" textLength="120" x="629.5" y="1054.7285">-address : Address</text><text fill="#000000" font-family="sans-serif" font-size="14" lengthAdjust="spacing" textLength="89" x="629.5" y="1073.3496">-name : String</text><text fill="#000000" font-family="sans-serif" font-size="14" lengthAdjust="spacing" textLength="84" x="629.5" y="1091.9707">-vatin : String</text><text fill="#000000" font-family="sans-serif" font-size="14" lengthAdjust="spacing" textLength="121" x="629.5" y="1110.5918">-phoneNumber : int</text><text fill="#000000" font-family="sans-serif" font-size="14" lengthAdjust="spacing" textLength="87" x="629.5" y="1129.2129">-email : String</text><text fill="#000000" font-family="sans-serif" font-size="14" lengthAdjust="spacing" textLength="136" x="629.5" y="1147.834">-type : CompanyType</text><line style="stroke:#181818;stroke-width:0.5;" x1="624.5" x2="1047.5" y1="1155.3477" y2="1155.3477"/><text fill="#000000" font-family="sans-serif" font-size="14" lengthAdjust="spacing" textLength="413" x="629.5" y="1174.4551">+Client(clientID, name, address, vatin, phoneNumber, email, type)</text></g><!--class Address--><g id="elem_Address"><rect codeLine="60" fill="#F1F1F1" height="159.7266" id="Address" rx="2.5" ry="2.5" style="stroke:#181818;stroke-width:0.5;" width="288" x="612" y="1261"/><ellipse cx="725.75" cy="1277" fill="#ADD1B2" rx="11" ry="11" style="stroke:#181818;stroke-width:1.0;"/><path d="M728.5156,1272.875 Q728.6719,1272.6563 728.8594,1272.5469 Q729.0469,1272.4375 729.2656,1272.4375 Q729.6406,1272.4375 729.875,1272.7031 Q730.1094,1272.9531 730.1094,1273.5625 L730.1094,1275.0156 Q730.1094,1275.625 729.875,1275.8906 Q729.6406,1276.1563 729.2656,1276.1563 Q728.9219,1276.1563 728.7188,1275.9531 Q728.5156,1275.7656 728.4063,1275.25 Q728.3594,1274.8906 728.1719,1274.7031 Q727.8438,1274.3281 727.2344,1274.1094 Q726.625,1273.8906 726,1273.8906 Q725.2344,1273.8906 724.5938,1274.2188 Q723.9688,1274.5469 723.4688,1275.2969 Q722.9844,1276.0469 722.9844,1277.0781 L722.9844,1278.1719 Q722.9844,1279.4063 723.875,1280.2344 Q724.7656,1281.0469 726.3594,1281.0469 Q727.2969,1281.0469 727.9531,1280.7969 Q728.3438,1280.6406 728.7656,1280.2031 Q729.0313,1279.9375 729.1719,1279.8594 Q729.3281,1279.7813 729.5313,1279.7813 Q729.8594,1279.7813 730.1094,1280.0469 Q730.375,1280.2969 730.375,1280.6406 Q730.375,1280.9844 730.0313,1281.3906 Q729.5313,1281.9688 728.7344,1282.2969 Q727.6563,1282.75 726.3594,1282.75 Q724.8438,1282.75 723.6406,1282.125 Q722.6563,1281.625 721.9688,1280.5625 Q721.2813,1279.4844 721.2813,1278.2031 L721.2813,1277.0469 Q721.2813,1275.7188 721.8906,1274.5781 Q722.5156,1273.4219 723.6094,1272.8125 Q724.7031,1272.1875 725.9375,1272.1875 Q726.6719,1272.1875 727.3125,1272.3594 Q727.9688,1272.5156 728.5156,1272.875 Z " fill="#000000"/><text fill="#000000" font-family="sans-serif" font-size="14" lengthAdjust="spacing" textLength="52" x="746.25" y="1282.7969">Address</text><line style="stroke:#181818;stroke-width:0.5;" x1="613" x2="899" y1="1293" y2="1293"/><text fill="#000000" font-family="sans-serif" font-size="14" lengthAdjust="spacing" textLength="43" x="618" y="1312.1074">-id : int</text><text fill="#000000" font-family="sans-serif" font-size="14" lengthAdjust="spacing" textLength="90" x="618" y="1330.7285">-street : String</text><text fill="#000000" font-family="sans-serif" font-size="14" lengthAdjust="spacing" textLength="105" x="618" y="1349.3496">-zipCode : String</text><text fill="#000000" font-family="sans-serif" font-size="14" lengthAdjust="spacing" textLength="83" x="618" y="1367.9707">-town : String</text><text fill="#000000" font-family="sans-serif" font-size="14" lengthAdjust="spacing" textLength="101" x="618" y="1386.5918">-country : String</text><line style="stroke:#181818;stroke-width:0.5;" x1="613" x2="899" y1="1394.1055" y2="1394.1055"/><text fill="#000000" font-family="sans-serif" font-size="14" lengthAdjust="spacing" textLength="276" x="618" y="1413.2129">+Address(id, street, zipCode, town, country)</text></g><!--class CompanyType--><g id="elem_CompanyType"><rect codeLine="69" fill="#F1F1F1" height="85.2422" id="CompanyType" rx="2.5" ry="2.5" style="stroke:#181818;stroke-width:0.5;" width="124" x="935" y="1298.5"/><ellipse cx="950" cy="1314.5" fill="#EB937F" rx="11" ry="11" style="stroke:#181818;stroke-width:1.0;"/><path d="M948.8594,1315.2969 L948.8594,1317.7969 L953.1875,1317.7969 L953.1875,1316.875 Q953.1875,1316.2656 953.4219,1316 Q953.6719,1315.7344 954.0469,1315.7344 Q954.4219,1315.7344 954.6563,1316 Q954.8906,1316.2656 954.8906,1316.875 L954.8906,1319.5 L946.8906,1319.5 Q946.2656,1319.5 946,1319.2656 Q945.75,1319.0313 945.75,1318.6406 Q945.75,1318.2656 946.0156,1318.0313 Q946.2813,1317.7969 946.8906,1317.7969 L947.1563,1317.7969 L947.1563,1311.1406 L946.8906,1311.1406 Q946.2656,1311.1406 946,1310.9063 Q945.75,1310.6719 945.75,1310.2813 Q945.75,1309.9063 946,1309.6719 Q946.2656,1309.4375 946.8906,1309.4375 L954.5156,1309.4375 L954.5156,1312.0313 Q954.5156,1312.6406 954.2813,1312.9063 Q954.0625,1313.1563 953.6719,1313.1563 Q953.2969,1313.1563 953.0625,1312.9063 Q952.8281,1312.6406 952.8281,1312.0313 L952.8281,1311.1406 L948.8594,1311.1406 L948.8594,1313.5938 L950.3438,1313.5938 Q950.3438,1312.9375 950.4688,1312.75 Q950.7344,1312.3438 951.2031,1312.3438 Q951.5781,1312.3438 951.8125,1312.6094 Q952.0469,1312.8594 952.0469,1313.4688 L952.0469,1315.4375 Q952.0469,1315.9844 951.9219,1316.1719 Q951.6563,1316.5625 951.2031,1316.5625 Q950.7344,1316.5625 950.4688,1316.1563 Q950.3438,1315.9688 950.3438,1315.2969 L948.8594,1315.2969 Z " fill="#000000"/><text fill="#000000" font-family="sans-serif" font-size="14" lengthAdjust="spacing" textLength="92" x="964" y="1320.2969">CompanyType</text><line style="stroke:#181818;stroke-width:0.5;" x1="936" x2="1058" y1="1330.5" y2="1330.5"/><text fill="#000000" font-family="sans-serif" font-size="14" lengthAdjust="spacing" textLength="73" x="941" y="1349.6074">INDIVIDUAL</text><text fill="#000000" font-family="sans-serif" font-size="14" lengthAdjust="spacing" textLength="68" x="941" y="1368.2285">COMPANY</text><line style="stroke:#181818;stroke-width:0.5;" x1="936" x2="1058" y1="1375.7422" y2="1375.7422"/></g><!--class ClientException--><g id="elem_ClientException"><rect codeLine="76" fill="#F1F1F1" height="122.4844" id="ClientException" rx="2.5" ry="2.5" style="stroke:#181818;stroke-width:0.5;" width="280" x="784" y="576"/><ellipse cx="871.25" cy="592" fill="#ADD1B2" rx="11" ry="11" style="stroke:#181818;stroke-width:1.0;"/><path d="M874.0156,587.875 Q874.1719,587.6563 874.3594,587.5469 Q874.5469,587.4375 874.7656,587.4375 Q875.1406,587.4375 875.375,587.7031 Q875.6094,587.9531 875.6094,588.5625 L875.6094,590.0156 Q875.6094,590.625 875.375,590.8906 Q875.1406,591.1563 874.7656,591.1563 Q874.4219,591.1563 874.2188,590.9531 Q874.0156,590.7656 873.9063,590.25 Q873.8594,589.8906 873.6719,589.7031 Q873.3438,589.3281 872.7344,589.1094 Q872.125,588.8906 871.5,588.8906 Q870.7344,588.8906 870.0938,589.2188 Q869.4688,589.5469 868.9688,590.2969 Q868.4844,591.0469 868.4844,592.0781 L868.4844,593.1719 Q868.4844,594.4063 869.375,595.2344 Q870.2656,596.0469 871.8594,596.0469 Q872.7969,596.0469 873.4531,595.7969 Q873.8438,595.6406 874.2656,595.2031 Q874.5313,594.9375 874.6719,594.8594 Q874.8281,594.7813 875.0313,594.7813 Q875.3594,594.7813 875.6094,595.0469 Q875.875,595.2969 875.875,595.6406 Q875.875,595.9844 875.5313,596.3906 Q875.0313,596.9688 874.2344,597.2969 Q873.1563,597.75 871.8594,597.75 Q870.3438,597.75 869.1406,597.125 Q868.1563,596.625 867.4688,595.5625 Q866.7813,594.4844 866.7813,593.2031 L866.7813,592.0469 Q866.7813,590.7188 867.3906,589.5781 Q868.0156,588.4219 869.1094,587.8125 Q870.2031,587.1875 871.4375,587.1875 Q872.1719,587.1875 872.8125,587.3594 Q873.4688,587.5156 874.0156,587.875 Z " fill="#000000"/><text fill="#000000" font-family="sans-serif" font-size="14" lengthAdjust="spacing" textLength="97" x="891.75" y="597.7969">ClientException</text><line style="stroke:#181818;stroke-width:0.5;" x1="785" x2="1063" y1="608" y2="608"/><line style="stroke:#181818;stroke-width:0.5;" x1="785" x2="1063" y1="616" y2="616"/><text fill="#000000" font-family="sans-serif" font-size="14" lengthAdjust="spacing" textLength="268" x="790" y="635.1074">+clientNotFound(clientID) : ClientException</text><text fill="#000000" font-family="sans-serif" font-size="14" lengthAdjust="spacing" textLength="257" x="790" y="653.7285">+invalidPhoneNumber() : ClientException</text><text fill="#000000" font-family="sans-serif" font-size="14" lengthAdjust="spacing" textLength="220" x="790" y="672.3496">+invalidZipCode() : ClientException</text><text fill="#000000" font-family="sans-serif" font-size="14" lengthAdjust="spacing" textLength="246" x="790" y="690.9707">+invalidEmailFormat() : ClientException</text></g><!--class RuntimeException--><g id="elem_RuntimeException"><rect codeLine="83" fill="#F1F1F1" height="48" id="RuntimeException" rx="2.5" ry="2.5" style="stroke:#181818;stroke-width:0.5;" width="145" x="851.5" y="805"/><ellipse cx="866.5" cy="821" fill="#ADD1B2" rx="11" ry="11" style="stroke:#181818;stroke-width:1.0;"/><path d="M869.2656,816.875 Q869.4219,816.6563 869.6094,816.5469 Q869.7969,816.4375 870.0156,816.4375 Q870.3906,816.4375 870.625,816.7031 Q870.8594,816.9531 870.8594,817.5625 L870.8594,819.0156 Q870.8594,819.625 870.625,819.8906 Q870.3906,820.1563 870.0156,820.1563 Q869.6719,820.1563 869.4688,819.9531 Q869.2656,819.7656 869.1563,819.25 Q869.1094,818.8906 868.9219,818.7031 Q868.5938,818.3281 867.9844,818.1094 Q867.375,817.8906 866.75,817.8906 Q865.9844,817.8906 865.3438,818.2188 Q864.7188,818.5469 864.2188,819.2969 Q863.7344,820.0469 863.7344,821.0781 L863.7344,822.1719 Q863.7344,823.4063 864.625,824.2344 Q865.5156,825.0469 867.1094,825.0469 Q868.0469,825.0469 868.7031,824.7969 Q869.0938,824.6406 869.5156,824.2031 Q869.7813,823.9375 869.9219,823.8594 Q870.0781,823.7813 870.2813,823.7813 Q870.6094,823.7813 870.8594,824.0469 Q871.125,824.2969 871.125,824.6406 Q871.125,824.9844 870.7813,825.3906 Q870.2813,825.9688 869.4844,826.2969 Q868.4063,826.75 867.1094,826.75 Q865.5938,826.75 864.3906,826.125 Q863.4063,825.625 862.7188,824.5625 Q862.0313,823.4844 862.0313,822.2031 L862.0313,821.0469 Q862.0313,819.7188 862.6406,818.5781 Q863.2656,817.4219 864.3594,816.8125 Q865.4531,816.1875 866.6875,816.1875 Q867.4219,816.1875 868.0625,816.3594 Q868.7188,816.5156 869.2656,816.875 Z " fill="#000000"/><text fill="#000000" font-family="sans-serif" font-size="14" lengthAdjust="spacing" textLength="113" x="880.5" y="826.7969">RuntimeException</text><line style="stroke:#181818;stroke-width:0.5;" x1="852.5" x2="995.5" y1="837" y2="837"/><line style="stroke:#181818;stroke-width:0.5;" x1="852.5" x2="995.5" y1="845" y2="845"/></g><!--class Validator--><g id="elem_Validator"><rect codeLine="87" fill="#F1F1F1" height="103.8633" id="Validator" rx="2.5" ry="2.5" style="stroke:#181818;stroke-width:0.5;" width="313" x="1263.5" y="585"/><ellipse cx="1387.75" cy="601" fill="#ADD1B2" rx="11" ry="11" style="stroke:#181818;stroke-width:1.0;"/><path d="M1390.5156,596.875 Q1390.6719,596.6563 1390.8594,596.5469 Q1391.0469,596.4375 1391.2656,596.4375 Q1391.6406,596.4375 1391.875,596.7031 Q1392.1094,596.9531 1392.1094,597.5625 L1392.1094,599.0156 Q1392.1094,599.625 1391.875,599.8906 Q1391.6406,600.1563 1391.2656,600.1563 Q1390.9219,600.1563 1390.7188,599.9531 Q1390.5156,599.7656 1390.4063,599.25 Q1390.3594,598.8906 1390.1719,598.7031 Q1389.8438,598.3281 1389.2344,598.1094 Q1388.625,597.8906 1388,597.8906 Q1387.2344,597.8906 1386.5938,598.2188 Q1385.9688,598.5469 1385.4688,599.2969 Q1384.9844,600.0469 1384.9844,601.0781 L1384.9844,602.1719 Q1384.9844,603.4063 1385.875,604.2344 Q1386.7656,605.0469 1388.3594,605.0469 Q1389.2969,605.0469 1389.9531,604.7969 Q1390.3438,604.6406 1390.7656,604.2031 Q1391.0313,603.9375 1391.1719,603.8594 Q1391.3281,603.7813 1391.5313,603.7813 Q1391.8594,603.7813 1392.1094,604.0469 Q1392.375,604.2969 1392.375,604.6406 Q1392.375,604.9844 1392.0313,605.3906 Q1391.5313,605.9688 1390.7344,606.2969 Q1389.6563,606.75 1388.3594,606.75 Q1386.8438,606.75 1385.6406,606.125 Q1384.6563,605.625 1383.9688,604.5625 Q1383.2813,603.4844 1383.2813,602.2031 L1383.2813,601.0469 Q1383.2813,599.7188 1383.8906,598.5781 Q1384.5156,597.4219 1385.6094,596.8125 Q1386.7031,596.1875 1387.9375,596.1875 Q1388.6719,596.1875 1389.3125,596.3594 Q1389.9688,596.5156 1390.5156,596.875 Z " fill="#000000"/><text fill="#000000" font-family="sans-serif" font-size="14" lengthAdjust="spacing" textLength="56" x="1408.25" y="606.7969">Validator</text><line style="stroke:#181818;stroke-width:0.5;" x1="1264.5" x2="1575.5" y1="617" y2="617"/><line style="stroke:#181818;stroke-width:0.5;" x1="1264.5" x2="1575.5" y1="625" y2="625"/><text fill="#000000" font-family="sans-serif" font-size="14" lengthAdjust="spacing" textLength="301" x="1269.5" y="644.1074">+isValidPhoneNumber(phoneNumber) : boolean</text><text fill="#000000" font-family="sans-serif" font-size="14" lengthAdjust="spacing" textLength="226" x="1269.5" y="662.7285">+isValidZipCode(zipCode) : boolean</text><text fill="#000000" font-family="sans-serif" font-size="14" lengthAdjust="spacing" textLength="189" x="1269.5" y="681.3496">+isValidEmail(email) : boolean</text></g><!--link RegisterClientUI to ClientController--><g id="link_RegisterClientUI_ClientController"><path codeLine="95" d="M924,92.27 C924,114.63 924,143.17 924,171.94 " fill="none" id="RegisterClientUI-to-ClientController" style="stroke:#181818;stroke-width:1.0;stroke-dasharray:7.0,7.0;"/><polygon fill="#181818" points="924,177.94,928,168.94,924,172.94,920,168.94,924,177.94" style="stroke:#181818;stroke-width:1.0;"/></g><!--link ClientController to ClientService--><g id="link_ClientController_ClientService"><path codeLine="96" d="M924,282.37 C924,308.9 924,335.17 924,361.69 " fill="none" id="ClientController-to-ClientService" style="stroke:#181818;stroke-width:1.0;stroke-dasharray:7.0,7.0;"/><polygon fill="#181818" points="924,367.69,928,358.69,924,362.69,920,358.69,924,367.69" style="stroke:#181818;stroke-width:1.0;"/></g><!--link ClientService to Repositories--><g id="link_ClientService_Repositories"><path codeLine="97" d="M603.82,469.76 C485.19,487.83 379,504 379,504 C379,504 326.4048,537.872 272.2448,572.742 " fill="none" id="ClientService-to-Repositories" style="stroke:#181818;stroke-width:1.0;stroke-dasharray:7.0,7.0;"/><polygon fill="#181818" points="267.2,575.99,276.9326,574.4812,271.404,573.2833,272.6019,567.7547,267.2,575.99" style="stroke:#181818;stroke-width:1.0;"/><text fill="#000000" font-family="sans-serif" font-size="13" lengthAdjust="spacing" textLength="67" x="380" y="519.0283">repositories</text></g><!--link ClientService to ClientRepository--><g id="link_ClientService_ClientRepository"><path codeLine="98" d="M807.32,472.14 C741.77,500.86 673,531 673,531 C673,531 592,713 592,713 C592,713 574.1562,741.1148 554.6562,771.8248 " fill="none" id="ClientService-to-ClientRepository" style="stroke:#181818;stroke-width:1.0;stroke-dasharray:7.0,7.0;"/><polygon fill="#181818" points="551.44,776.89,559.6411,771.4364,554.1202,772.669,552.8876,767.1481,551.44,776.89" style="stroke:#181818;stroke-width:1.0;"/><text fill="#000000" font-family="sans-serif" font-size="13" lengthAdjust="spacing" textLength="93" x="674" y="642.5283">clientRepository</text></g><!--link ClientService to AddressRepository--><g id="link_ClientService_AddressRepository"><path codeLine="99" d="M715.14,472.06 C597.52,500.81 474,531 474,531 C474,531 452,747 452,747 C452,747 415.0802,758.9178 364.9602,775.0878 " fill="none" id="ClientService-to-AddressRepository" style="stroke:#181818;stroke-width:1.0;stroke-dasharray:7.0,7.0;"/><polygon fill="#181818" points="359.25,776.93,369.0434,777.9734,364.0085,775.3948,366.5871,770.3598,359.25,776.93" style="stroke:#181818;stroke-width:1.0;"/><text fill="#000000" font-family="sans-serif" font-size="13" lengthAdjust="spacing" textLength="108" x="475" y="642.5283">addressRepository</text></g><!--link ClientService to Client--><g id="link_ClientService_Client"><path codeLine="100" d="M996.52,472.14 C1037.26,500.86 1080,531 1080,531 C1080,531 1080,905 1080,905 C1080,905 1031.6823,940.1508 974.9823,981.3908 " fill="none" id="ClientService-to-Client" style="stroke:#181818;stroke-width:1.0;stroke-dasharray:7.0,7.0;"/><polygon fill="#181818" points="970.13,984.92,979.7612,982.861,974.1736,981.979,975.0556,976.3913,970.13,984.92" style="stroke:#181818;stroke-width:1.0;"/><text fill="#000000" font-family="sans-serif" font-size="13" lengthAdjust="spacing" textLength="31" x="1081" y="743.0283">client</text></g><!--link ClientService to Address--><g id="link_ClientService_Address"><path codeLine="101" d="M1020.75,472.15 C1053.06,489.23 1081,504 1081,504 C1081,504 1210,636 1210,636 C1210,636 1210,636 1210,1084.5 C1210,1084.5 1066,1182 1066,1182 C1066,1182 986.4057,1222.5653 905.4557,1263.8253 " fill="none" id="ClientService-to-Address" style="stroke:#181818;stroke-width:1.0;stroke-dasharray:7.0,7.0;"/><polygon fill="#181818" points="900.11,1266.55,909.9449,1266.0268,904.5647,1264.2794,906.3121,1258.8992,900.11,1266.55" style="stroke:#181818;stroke-width:1.0;"/><text fill="#000000" font-family="sans-serif" font-size="13" lengthAdjust="spacing" textLength="46" x="1211" y="834.5283">address</text></g><!--link Repositories to Repositories--><g id="link_Repositories_Repositories"><path codeLine="102" d="M325.07,620.27 C346.01,623.02 360,628.6 360,637 C360,645.4 351.9589,650.1987 331.0189,652.9487 " fill="none" id="Repositories-to-Repositories" style="stroke:#181818;stroke-width:1.0;"/><polygon fill="#181818" points="325.07,653.73,334.5142,656.5241,330.0274,653.079,333.4725,648.5922,325.07,653.73" style="stroke:#181818;stroke-width:1.0;"/><text fill="#000000" font-family="sans-serif" font-size="13" lengthAdjust="spacing" textLength="49" x="366" y="642.5283">instance</text></g><!--link Repositories to ClientRepository--><g id="link_Repositories_ClientRepository"><path codeLine="103" d="M283.16,698.12 C329.16,723.45 376.8745,749.7252 420.9545,774.0052 " fill="none" id="Repositories-to-ClientRepository" style="stroke:#181818;stroke-width:1.0;"/><polygon fill="#181818" points="426.21,776.9,420.2566,769.0541,421.8304,774.4877,416.3969,776.0614,426.21,776.9" style="stroke:#181818;stroke-width:1.0;"/><text fill="#000000" font-family="sans-serif" font-size="13" lengthAdjust="spacing" textLength="93" x="368" y="743.0283">clientRepository</text><text fill="#000000" font-family="sans-serif" font-size="13" lengthAdjust="spacing" textLength="7" x="289.0373" y="720.6215">1</text><text fill="#000000" font-family="sans-serif" font-size="13" lengthAdjust="spacing" textLength="7" x="406.271" y="765.8139">1</text></g><!--link Repositories to AddressRepository--><g id="link_Repositories_AddressRepository"><path codeLine="104" d="M181.18,698.24 C184.19,723.45 187,747 187,747 C187,747 188.3408,754.7172 191.1108,770.7872 " fill="none" id="Repositories-to-AddressRepository" style="stroke:#181818;stroke-width:1.0;"/><polygon fill="#181818" points="192.13,776.7,194.5431,767.1513,191.2807,771.7727,186.6593,768.5103,192.13,776.7" style="stroke:#181818;stroke-width:1.0;"/><text fill="#000000" font-family="sans-serif" font-size="13" lengthAdjust="spacing" textLength="108" x="188" y="743.0283">addressRepository</text><text fill="#000000" font-family="sans-serif" font-size="13" lengthAdjust="spacing" textLength="7" x="174.6055" y="720.3208">1</text><text fill="#000000" font-family="sans-serif" font-size="13" lengthAdjust="spacing" textLength="7" x="183.4678" y="765.5871">1</text></g><!--link ClientRepository to Client--><g id="link_ClientRepository_Client"><path codeLine="105" d="M583.15,881.1 C620.6,910.93 664.407,945.8216 708.897,981.2616 " fill="none" id="ClientRepository-to-Client" style="stroke:#181818;stroke-width:1.0;"/><polygon fill="#181818" points="713.59,985,709.0427,976.2637,709.6791,981.8847,704.0582,982.5211,713.59,985" style="stroke:#181818;stroke-width:1.0;"/><text fill="#000000" font-family="sans-serif" font-size="13" lengthAdjust="spacing" textLength="60" x="640" y="928.0283">categories</text><text fill="#000000" font-family="sans-serif" font-size="13" lengthAdjust="spacing" textLength="7" x="583.9208" y="902.9201">1</text><text fill="#000000" font-family="sans-serif" font-size="13" lengthAdjust="spacing" textLength="5" x="699.0266" y="973.8485">*</text></g><!--link AddressRepository to Address--><g id="link_AddressRepository_Address"><path codeLine="106" d="M250.88,881.18 C346.01,978.81 544,1182 544,1182 C544,1182 591.9789,1217.7649 644.8789,1257.1849 " fill="none" id="AddressRepository-to-Address" style="stroke:#181818;stroke-width:1.0;"/><polygon fill="#181818" points="649.69,1260.77,644.8634,1252.1849,645.6807,1257.7824,640.0832,1258.5997,649.69,1260.77" style="stroke:#181818;stroke-width:1.0;"/><text fill="#000000" font-family="sans-serif" font-size="13" lengthAdjust="spacing" textLength="60" x="545" y="1089.0283">categories</text><text fill="#000000" font-family="sans-serif" font-size="13" lengthAdjust="spacing" textLength="7" x="249.8224" y="903.0103">1</text><text fill="#000000" font-family="sans-serif" font-size="13" lengthAdjust="spacing" textLength="5" x="634.6591" y="1249.6445">*</text></g><!--link Client to Address--><g id="link_Client_Address"><path codeLine="107" d="M805.41,1182.19 C797.3,1208.11 790.4225,1230.054 782.6525,1254.874 " fill="none" id="Client-to-Address" style="stroke:#181818;stroke-width:1.0;"/><polygon fill="#181818" points="780.86,1260.6,787.3661,1253.2061,782.3538,1255.8284,779.7315,1250.816,780.86,1260.6" style="stroke:#181818;stroke-width:1.0;"/><text fill="#000000" font-family="sans-serif" font-size="13" lengthAdjust="spacing" textLength="21" x="797" y="1227.0283">has</text><text fill="#000000" font-family="sans-serif" font-size="13" lengthAdjust="spacing" textLength="5" x="797.98" y="1204.1019">*</text><text fill="#000000" font-family="sans-serif" font-size="13" lengthAdjust="spacing" textLength="7" x="775.7624" y="1249.7358">1</text></g><!--link Client to CompanyType--><g id="link_Client_CompanyType"><path codeLine="108" d="M897.56,1182.19 C922.94,1222.48 947.801,1261.9239 967.621,1293.3739 " fill="none" id="Client-to-CompanyType" style="stroke:#181818;stroke-width:1.0;"/><polygon fill="#181818" points="970.82,1298.45,969.4056,1288.7032,968.1542,1294.2199,962.6375,1292.9685,970.82,1298.45" style="stroke:#181818;stroke-width:1.0;"/><text fill="#000000" font-family="sans-serif" font-size="13" lengthAdjust="spacing" textLength="21" x="927" y="1227.0283">has</text><text fill="#000000" font-family="sans-serif" font-size="13" lengthAdjust="spacing" textLength="5" x="896.8972" y="1204.1019">*</text><text fill="#000000" font-family="sans-serif" font-size="13" lengthAdjust="spacing" textLength="7" x="959.0898" y="1287.3461">1</text></g><!--link ClientService to ClientException--><g id="link_ClientService_ClientException"><path codeLine="109" d="M924,472.22 C924,503.28 924,537.05 924,569.63 " fill="none" id="ClientService-to-ClientException" style="stroke:#181818;stroke-width:1.0;stroke-dasharray:7.0,7.0;"/><polygon fill="#181818" points="924,575.63,928,566.63,924,570.63,920,566.63,924,575.63" style="stroke:#181818;stroke-width:1.0;"/><text fill="#000000" font-family="sans-serif" font-size="13" lengthAdjust="spacing" textLength="38" x="925" y="519.0283">throws</text></g><!--link ClientException to RuntimeException--><g id="link_ClientException_RuntimeException"><path codeLine="110" d="M924,698.12 C924,734.43 924,760.64 924,786.99 " fill="none" id="ClientException-to-RuntimeException" style="stroke:#181818;stroke-width:1.0;"/><polygon fill="none" points="924,804.99,930,786.99,918,786.99,924,804.99" style="stroke:#181818;stroke-width:1.0;"/></g><!--link ClientService to Validator--><g id="link_ClientService_Validator"><path codeLine="111" d="M1115.82,472.03 C1180.21,489.16 1236,504 1236,504 C1236,504 1292.2049,544.3223 1343.9849,581.4723 " fill="none" id="ClientService-to-Validator" style="stroke:#181818;stroke-width:1.0;stroke-dasharray:7.0,7.0;"/><polygon fill="#181818" points="1348.86,584.97,1343.8792,576.4735,1344.7974,582.0553,1339.2156,582.9736,1348.86,584.97" style="stroke:#181818;stroke-width:1.0;"/><text fill="#000000" font-family="sans-serif" font-size="13" lengthAdjust="spacing" textLength="28" x="1259" y="519.0283">uses</text></g><!--SRC=[pLRVJzim47xFNs7rAOm6RQ_LXDIr84M23j5HQNipoP5QE7OKksLXut-VapYr7RiCf3qiBstkllFTTpzy4O-4LRZ69QfmzeWBMCk60geXavWL529n08WjplaJOGLwm5JO6aeOoAO2L77Qj2-MBgDOYBcKDRdVIKWppjRa6T37AD8EqUGkdQ1V4L9F1qQtK10XeLvG0apUfLhv4hrOHWlEPCqfXTerxesCLYlRvxG0EQUqHuZu1CtGbNBqkHUSExXUzgL9ypZh_gRB5j-B3N9NvLX2BzN0AMAuX2dQOqdO50bP0oZXCwaMF5TooP-KEECx5M4pHTMMCrZjodkefmXAJAY2g5oElBdarr3lIGOXvberelq-pil_aVCjL5mGoUjct2rQJa1Oh1DR7fyuH5CcL7TdqAN3nWNIOTp69ZmZT9ihpsiGOcJYIJKvhtG6uJVjFwoSXhI0UyufOEO7vCLiH_H0MAu1yUkbjkY74hLeKHqpOeSfy1vYt4FyAEsUk5OkQMWAx4OOCZ9oasWFWH2JjfkLVArkBLOOSTVU0RdLpsCdNNS7JBhhKbM8bnLcpJVrPlWxevKkX-7IyHwcxEWK7IsddHMIZqFjInc8LTSsn48LEo3MrVSrfqFRaFnljuJ30jYkj7Db4KbNotIJBk_cLmVHuklrpNprFT0l5pypg2JXBDGp1wNTwtqHLbnUgh12k-1WPMm8ssDAyXjJd_Wj-1zz7jw4lMZBVSdh4ikZUAS3RbLIIGa6uUxIikIbcvDDwmQhqRUpGSHcpCpgml6isYO3ELtirw0TjxXhwE3qHzxtmTdPkRVt8-z3mA3qZepSZTdgdMKoKvz1rcxmqTwrFKFPU3_uLlxTEXjc-rKxVRCDFewVRCwB73v9uX4aUXEwmCcdIGTkVz_2yQZnUwXQeCCH7oOMQxMwYhuI_h6sXSc2PQAFQVMZu1HkYuC0-yAnGNvHpDKnGt9RywS1QXH9yllSdqB_G3DtCxGJAl8_]--></g></svg>