<?xml version="1.0" encoding="us-ascii" standalone="no"?><svg xmlns="http://www.w3.org/2000/svg" xmlns:xlink="http://www.w3.org/1999/xlink" contentStyleType="text/css" height="757px" preserveAspectRatio="none" style="width:736px;height:757px;background:#FFFFFF;" version="1.1" viewBox="0 0 736 757" width="736px" zoomAndPan="magnify"><defs/><g><text fill="#000000" font-family="sans-serif" font-size="14" font-weight="bold" lengthAdjust="spacing" textLength="228" x="256" y="30.1074">System Sequence Diagram (SSD)</text><rect fill="#FFFFFF" height="531.9961" style="stroke:#181818;stroke-width:1.0;" width="10" x="82" y="133.2422"/><rect fill="#FFFFFF" height="31.291" style="stroke:#181818;stroke-width:1.0;" width="10" x="536" y="156.5332"/><rect fill="#FFFFFF" height="31.291" style="stroke:#181818;stroke-width:1.0;" width="10" x="536" y="219.1152"/><rect fill="#FFFFFF" height="101.873" style="stroke:#181818;stroke-width:1.0;" width="10" x="536" y="281.6973"/><rect fill="none" height="50.582" style="stroke:#000000;stroke-width:1.5;" width="573" x="10" y="340.9883"/><rect fill="none" height="50.582" style="stroke:#000000;stroke-width:1.5;" width="573" x="10" y="449.8613"/><rect fill="none" height="98.5039" style="stroke:#000000;stroke-width:1.5;" width="573" x="10" y="558.7344"/><line style="stroke:#181818;stroke-width:0.5;stroke-dasharray:5.0,5.0;" x1="87" x2="87" y1="123.2422" y2="674.2383"/><line style="stroke:#181818;stroke-width:0.5;stroke-dasharray:5.0,5.0;" x1="541" x2="541" y1="123.2422" y2="674.2383"/><text fill="#000000" font-family="sans-serif" font-size="14" lengthAdjust="spacing" textLength="128" x="20" y="119.7285">Production Manager</text><ellipse cx="87" cy="53.1211" fill="#E3E3E3" rx="8" ry="8" style="stroke:#181818;stroke-width:0.5;"/><path d="M87,61.1211 L87,88.1211 M74,69.1211 L100,69.1211 M87,88.1211 L74,103.1211 M87,88.1211 L100,103.1211 " fill="none" style="stroke:#181818;stroke-width:0.5;"/><text fill="#000000" font-family="sans-serif" font-size="14" lengthAdjust="spacing" textLength="128" x="20" y="688.3457">Production Manager</text><ellipse cx="87" cy="700.3594" fill="#E3E3E3" rx="8" ry="8" style="stroke:#181818;stroke-width:0.5;"/><path d="M87,708.3594 L87,735.3594 M74,716.3594 L100,716.3594 M87,735.3594 L74,750.3594 M87,735.3594 L100,750.3594 " fill="none" style="stroke:#181818;stroke-width:0.5;"/><rect fill="#E3E3E3" height="32.6211" rx="2.5" ry="2.5" style="stroke:#181818;stroke-width:0.5;" width="64" x="509" y="89.6211"/><text fill="#000000" font-family="sans-serif" font-size="14" lengthAdjust="spacing" textLength="50" x="516" y="111.7285">:System</text><rect fill="#E3E3E3" height="32.6211" rx="2.5" ry="2.5" style="stroke:#181818;stroke-width:0.5;" width="64" x="509" y="673.2383"/><text fill="#000000" font-family="sans-serif" font-size="14" lengthAdjust="spacing" textLength="50" x="516" y="695.3457">:System</text><rect fill="#FFFFFF" height="531.9961" style="stroke:#181818;stroke-width:1.0;" width="10" x="82" y="133.2422"/><rect fill="#FFFFFF" height="31.291" style="stroke:#181818;stroke-width:1.0;" width="10" x="536" y="156.5332"/><rect fill="#FFFFFF" height="31.291" style="stroke:#181818;stroke-width:1.0;" width="10" x="536" y="219.1152"/><rect fill="#FFFFFF" height="101.873" style="stroke:#181818;stroke-width:1.0;" width="10" x="536" y="281.6973"/><polygon fill="#181818" points="524,152.5332,534,156.5332,524,160.5332,528,156.5332" style="stroke:#181818;stroke-width:1.0;"/><line style="stroke:#181818;stroke-width:1.0;" x1="92" x2="530" y1="156.5332" y2="156.5332"/><text fill="#000000" font-family="sans-serif" font-size="13" font-weight="bold" lengthAdjust="spacing" textLength="7" x="99" y="151.2705">1</text><text fill="#000000" font-family="sans-serif" font-size="13" lengthAdjust="spacing" textLength="245" x="110" y="151.2705">asks to assign a supplier to a raw material</text><polygon fill="#181818" points="103,183.8242,93,187.8242,103,191.8242,99,187.8242" style="stroke:#181818;stroke-width:1.0;"/><line style="stroke:#181818;stroke-width:1.0;stroke-dasharray:2.0,2.0;" x1="97" x2="540" y1="187.8242" y2="187.8242"/><text fill="#000000" font-family="sans-serif" font-size="13" font-weight="bold" lengthAdjust="spacing" textLength="7" x="109" y="182.5615">2</text><text fill="#000000" font-family="sans-serif" font-size="13" lengthAdjust="spacing" textLength="409" x="120" y="182.5615">shows the list of suppliers and raw materials and requests confirmation</text><polygon fill="#181818" points="524,215.1152,534,219.1152,524,223.1152,528,219.1152" style="stroke:#181818;stroke-width:1.0;"/><line style="stroke:#181818;stroke-width:1.0;" x1="92" x2="530" y1="219.1152" y2="219.1152"/><text fill="#000000" font-family="sans-serif" font-size="13" font-weight="bold" lengthAdjust="spacing" textLength="7" x="99" y="213.8525">3</text><text fill="#000000" font-family="sans-serif" font-size="13" lengthAdjust="spacing" textLength="348" x="110" y="213.8525">confirms that he wants to assign a supplier to a raw material</text><polygon fill="#181818" points="103,246.4063,93,250.4063,103,254.4063,99,250.4063" style="stroke:#181818;stroke-width:1.0;"/><line style="stroke:#181818;stroke-width:1.0;stroke-dasharray:2.0,2.0;" x1="97" x2="540" y1="250.4063" y2="250.4063"/><text fill="#000000" font-family="sans-serif" font-size="13" font-weight="bold" lengthAdjust="spacing" textLength="7" x="109" y="245.1436">4</text><text fill="#000000" font-family="sans-serif" font-size="13" lengthAdjust="spacing" textLength="358" x="120" y="245.1436">requests data (i.e. Supplier ID, Raw Material ID and Unit Cost)</text><polygon fill="#181818" points="524,277.6973,534,281.6973,524,285.6973,528,281.6973" style="stroke:#181818;stroke-width:1.0;"/><line style="stroke:#181818;stroke-width:1.0;" x1="92" x2="530" y1="281.6973" y2="281.6973"/><text fill="#000000" font-family="sans-serif" font-size="13" font-weight="bold" lengthAdjust="spacing" textLength="7" x="99" y="276.4346">5</text><text fill="#000000" font-family="sans-serif" font-size="13" lengthAdjust="spacing" textLength="122" x="110" y="276.4346">types requested data</text><line style="stroke:#181818;stroke-width:1.0;" x1="546" x2="588" y1="312.9883" y2="312.9883"/><line style="stroke:#181818;stroke-width:1.0;" x1="588" x2="588" y1="312.9883" y2="325.9883"/><line style="stroke:#181818;stroke-width:1.0;" x1="547" x2="588" y1="325.9883" y2="325.9883"/><polygon fill="#181818" points="557,321.9883,547,325.9883,557,329.9883,553,325.9883" style="stroke:#181818;stroke-width:1.0;"/><text fill="#000000" font-family="sans-serif" font-size="13" font-weight="bold" lengthAdjust="spacing" textLength="7" x="553" y="307.7256">6</text><text fill="#000000" font-family="sans-serif" font-size="13" lengthAdjust="spacing" textLength="165" x="564" y="307.7256">checks if raw material exists</text><path d="M10,340.9883 L71,340.9883 L71,350.2793 L61,360.2793 L10,360.2793 L10,340.9883 " fill="#EEEEEE" style="stroke:#000000;stroke-width:1.5;"/><rect fill="none" height="50.582" style="stroke:#000000;stroke-width:1.5;" width="573" x="10" y="340.9883"/><text fill="#000000" font-family="sans-serif" font-size="13" font-weight="bold" lengthAdjust="spacing" textLength="16" x="25" y="356.0166">alt</text><text fill="#000000" font-family="sans-serif" font-size="11" font-weight="bold" lengthAdjust="spacing" textLength="166" x="86" y="354.8584">[raw material does not exists]</text><polygon fill="#181818" points="103,379.5703,93,383.5703,103,387.5703,99,383.5703" style="stroke:#181818;stroke-width:1.0;"/><line style="stroke:#181818;stroke-width:1.0;stroke-dasharray:2.0,2.0;" x1="97" x2="540" y1="383.5703" y2="383.5703"/><text fill="#000000" font-family="sans-serif" font-size="13" font-weight="bold" lengthAdjust="spacing" textLength="7" x="109" y="378.3076">7</text><text fill="#000000" font-family="sans-serif" font-size="13" lengthAdjust="spacing" textLength="297" x="120" y="378.3076">shows error message (Raw Material does not exist)</text><line style="stroke:#181818;stroke-width:1.0;" x1="541" x2="583" y1="421.8613" y2="421.8613"/><line style="stroke:#181818;stroke-width:1.0;" x1="583" x2="583" y1="421.8613" y2="434.8613"/><line style="stroke:#181818;stroke-width:1.0;" x1="542" x2="583" y1="434.8613" y2="434.8613"/><polygon fill="#181818" points="552,430.8613,542,434.8613,552,438.8613,548,434.8613" style="stroke:#181818;stroke-width:1.0;"/><text fill="#000000" font-family="sans-serif" font-size="13" font-weight="bold" lengthAdjust="spacing" textLength="7" x="548" y="416.5986">8</text><text fill="#000000" font-family="sans-serif" font-size="13" lengthAdjust="spacing" textLength="140" x="559" y="416.5986">checks if supplier exists</text><path d="M10,449.8613 L71,449.8613 L71,459.1523 L61,469.1523 L10,469.1523 L10,449.8613 " fill="#EEEEEE" style="stroke:#000000;stroke-width:1.5;"/><rect fill="none" height="50.582" style="stroke:#000000;stroke-width:1.5;" width="573" x="10" y="449.8613"/><text fill="#000000" font-family="sans-serif" font-size="13" font-weight="bold" lengthAdjust="spacing" textLength="16" x="25" y="464.8896">alt</text><text fill="#000000" font-family="sans-serif" font-size="11" font-weight="bold" lengthAdjust="spacing" textLength="143" x="86" y="463.7314">[supplier does not exists]</text><polygon fill="#181818" points="103,488.4434,93,492.4434,103,496.4434,99,492.4434" style="stroke:#181818;stroke-width:1.0;"/><line style="stroke:#181818;stroke-width:1.0;stroke-dasharray:2.0,2.0;" x1="97" x2="540" y1="492.4434" y2="492.4434"/><text fill="#000000" font-family="sans-serif" font-size="13" font-weight="bold" lengthAdjust="spacing" textLength="7" x="109" y="487.1807">9</text><text fill="#000000" font-family="sans-serif" font-size="13" lengthAdjust="spacing" textLength="269" x="120" y="487.1807">shows error message (Supplier does not exist)</text><line style="stroke:#181818;stroke-width:1.0;" x1="541" x2="583" y1="530.7344" y2="530.7344"/><line style="stroke:#181818;stroke-width:1.0;" x1="583" x2="583" y1="530.7344" y2="543.7344"/><line style="stroke:#181818;stroke-width:1.0;" x1="542" x2="583" y1="543.7344" y2="543.7344"/><polygon fill="#181818" points="552,539.7344,542,543.7344,552,547.7344,548,543.7344" style="stroke:#181818;stroke-width:1.0;"/><text fill="#000000" font-family="sans-serif" font-size="13" font-weight="bold" lengthAdjust="spacing" textLength="14" x="548" y="525.4717">10</text><text fill="#000000" font-family="sans-serif" font-size="13" lengthAdjust="spacing" textLength="153" x="566" y="525.4717">saves supplier assignment</text><path d="M10,558.7344 L71,558.7344 L71,568.0254 L61,578.0254 L10,578.0254 L10,558.7344 " fill="#EEEEEE" style="stroke:#000000;stroke-width:1.5;"/><rect fill="none" height="98.5039" style="stroke:#000000;stroke-width:1.5;" width="573" x="10" y="558.7344"/><text fill="#000000" font-family="sans-serif" font-size="13" font-weight="bold" lengthAdjust="spacing" textLength="16" x="25" y="573.7627">alt</text><text fill="#000000" font-family="sans-serif" font-size="11" font-weight="bold" lengthAdjust="spacing" textLength="82" x="86" y="572.6045">[system error]</text><polygon fill="#181818" points="103,597.3164,93,601.3164,103,605.3164,99,601.3164" style="stroke:#181818;stroke-width:1.0;"/><line style="stroke:#181818;stroke-width:1.0;stroke-dasharray:2.0,2.0;" x1="97" x2="540" y1="601.3164" y2="601.3164"/><text fill="#000000" font-family="sans-serif" font-size="13" font-weight="bold" lengthAdjust="spacing" textLength="14" x="109" y="596.0537">11</text><text fill="#000000" font-family="sans-serif" font-size="13" lengthAdjust="spacing" textLength="221" x="127" y="596.0537">shows error message (Database error)</text><line style="stroke:#000000;stroke-width:1.0;stroke-dasharray:2.0,2.0;" x1="10" x2="583" y1="610.3164" y2="610.3164"/><text fill="#000000" font-family="sans-serif" font-size="11" font-weight="bold" lengthAdjust="spacing" textLength="55" x="15" y="622.1865">[success]</text><polygon fill="#181818" points="103,645.2383,93,649.2383,103,653.2383,99,649.2383" style="stroke:#181818;stroke-width:1.0;"/><line style="stroke:#181818;stroke-width:1.0;stroke-dasharray:2.0,2.0;" x1="97" x2="540" y1="649.2383" y2="649.2383"/><text fill="#000000" font-family="sans-serif" font-size="13" font-weight="bold" lengthAdjust="spacing" textLength="14" x="109" y="643.9756">12</text><text fill="#000000" font-family="sans-serif" font-size="13" lengthAdjust="spacing" textLength="270" x="127" y="643.9756">shows all data and displays operation success</text><!--SRC=[jPJ1Rjim38RlVWeYfmHO-m0vzD9SUWWGrDW3i1BZ294bJwIRvkrBouuHDycs3AilDaJo-_bJidZlGeC9QwXZY6QNOaqWgQM2nqY3PeyLbNBq18cCOAZyUGBlqCQ32nLiqJCLXJZHrFB8GZMKzAkbO0XM3gikVLwMgqLHO2injFKR9Vqs4XFCDYdQreYB0TOOL3FD01aswqA5n1dNO12OBNjoZlMVcU3UKQXBBa2VpHeUdauzB3Lrpo1Ht-og00ZSDertbF8Y93n0hUN9eS_b8-ya0CCp41yKhX9BDHyFIjuHUCS2SJkI6J3O2NbOwGR2mc1YsBgaGJMS-PQkodwnCfHreYYWmWUTolUO6rkrA0XpzqYFK9xOBwiVyAhezO3MXUplPt02pv5bSOSfEJR49psoMV3tlPxtUpwT7HdTQhUTs0RwqDtXIJ5wcUROg2s4ADUIRsyzfQHdjoPcFR0mdqnaIbnS42zdSnwbOE-mE-xv3QjZ_B_OBA_JliCYuxjAZEttXxoc89SM-vBSwh_PMkcnUqEcVlrkDthxQQF6AEulzT7x_kVg_XphkF5uP8WDfNmjtAJzUQoV]--></g></svg>