<?xml version="1.0" encoding="us-ascii" standalone="no"?><svg xmlns="http://www.w3.org/2000/svg" xmlns:xlink="http://www.w3.org/1999/xlink" contentStyleType="text/css" height="414px" preserveAspectRatio="none" style="width:560px;height:414px;background:#FFFFFF;" version="1.1" viewBox="0 0 560 414" width="560px" zoomAndPan="magnify"><defs/><g><text fill="#000000" font-family="sans-serif" font-size="14" font-weight="bold" lengthAdjust="spacing" textLength="228" x="168.25" y="30.1074">System Sequence Diagram (SSD)</text><rect fill="#FFFFFF" height="189.0859" style="stroke:#181818;stroke-width:1.0;" width="10" x="59.5" y="133.2422"/><rect fill="#FFFFFF" height="101.873" style="stroke:#181818;stroke-width:1.0;" width="10" x="330.5" y="156.5332"/><rect fill="none" height="98.5039" style="stroke:#000000;stroke-width:1.5;" width="367.5" x="10" y="215.8242"/><line style="stroke:#181818;stroke-width:0.5;stroke-dasharray:5.0,5.0;" x1="64" x2="64" y1="123.2422" y2="331.3281"/><line style="stroke:#181818;stroke-width:0.5;stroke-dasharray:5.0,5.0;" x1="335.5" x2="335.5" y1="123.2422" y2="331.3281"/><text fill="#000000" font-family="sans-serif" font-size="14" lengthAdjust="spacing" textLength="83" x="20" y="119.7285">Administrator</text><ellipse cx="64.5" cy="53.1211" fill="#E3E3E3" rx="8" ry="8" style="stroke:#181818;stroke-width:0.5;"/><path d="M64.5,61.1211 L64.5,88.1211 M51.5,69.1211 L77.5,69.1211 M64.5,88.1211 L51.5,103.1211 M64.5,88.1211 L77.5,103.1211 " fill="none" style="stroke:#181818;stroke-width:0.5;"/><text fill="#000000" font-family="sans-serif" font-size="14" lengthAdjust="spacing" textLength="83" x="20" y="345.4355">Administrator</text><ellipse cx="64.5" cy="357.4492" fill="#E3E3E3" rx="8" ry="8" style="stroke:#181818;stroke-width:0.5;"/><path d="M64.5,365.4492 L64.5,392.4492 M51.5,373.4492 L77.5,373.4492 M64.5,392.4492 L51.5,407.4492 M64.5,392.4492 L77.5,407.4492 " fill="none" style="stroke:#181818;stroke-width:0.5;"/><rect fill="#E3E3E3" height="32.6211" rx="2.5" ry="2.5" style="stroke:#181818;stroke-width:0.5;" width="64" x="303.5" y="89.6211"/><text fill="#000000" font-family="sans-serif" font-size="14" lengthAdjust="spacing" textLength="50" x="310.5" y="111.7285">:System</text><rect fill="#E3E3E3" height="32.6211" rx="2.5" ry="2.5" style="stroke:#181818;stroke-width:0.5;" width="64" x="303.5" y="330.3281"/><text fill="#000000" font-family="sans-serif" font-size="14" lengthAdjust="spacing" textLength="50" x="310.5" y="352.4355">:System</text><rect fill="#FFFFFF" height="189.0859" style="stroke:#181818;stroke-width:1.0;" width="10" x="59.5" y="133.2422"/><rect fill="#FFFFFF" height="101.873" style="stroke:#181818;stroke-width:1.0;" width="10" x="330.5" y="156.5332"/><polygon fill="#181818" points="318.5,152.5332,328.5,156.5332,318.5,160.5332,322.5,156.5332" style="stroke:#181818;stroke-width:1.0;"/><line style="stroke:#181818;stroke-width:1.0;" x1="69.5" x2="324.5" y1="156.5332" y2="156.5332"/><text fill="#000000" font-family="sans-serif" font-size="13" font-weight="bold" lengthAdjust="spacing" textLength="7" x="76.5" y="151.2705">1</text><text fill="#000000" font-family="sans-serif" font-size="13" lengthAdjust="spacing" textLength="125" x="87.5" y="151.2705">requests client status</text><line style="stroke:#181818;stroke-width:1.0;" x1="340.5" x2="382.5" y1="187.8242" y2="187.8242"/><line style="stroke:#181818;stroke-width:1.0;" x1="382.5" x2="382.5" y1="187.8242" y2="200.8242"/><line style="stroke:#181818;stroke-width:1.0;" x1="341.5" x2="382.5" y1="200.8242" y2="200.8242"/><polygon fill="#181818" points="351.5,196.8242,341.5,200.8242,351.5,204.8242,347.5,200.8242" style="stroke:#181818;stroke-width:1.0;"/><text fill="#000000" font-family="sans-serif" font-size="13" font-weight="bold" lengthAdjust="spacing" textLength="7" x="347.5" y="182.5615">2</text><text fill="#000000" font-family="sans-serif" font-size="13" lengthAdjust="spacing" textLength="195" x="358.5" y="182.5615">updates client status if necessary</text><path d="M10,215.8242 L71,215.8242 L71,225.1152 L61,235.1152 L10,235.1152 L10,215.8242 " fill="#EEEEEE" style="stroke:#000000;stroke-width:1.5;"/><rect fill="none" height="98.5039" style="stroke:#000000;stroke-width:1.5;" width="367.5" x="10" y="215.8242"/><text fill="#000000" font-family="sans-serif" font-size="13" font-weight="bold" lengthAdjust="spacing" textLength="16" x="25" y="230.8525">alt</text><text fill="#000000" font-family="sans-serif" font-size="11" font-weight="bold" lengthAdjust="spacing" textLength="82" x="86" y="229.6943">[system error]</text><polygon fill="#181818" points="80.5,254.4063,70.5,258.4063,80.5,262.4063,76.5,258.4063" style="stroke:#181818;stroke-width:1.0;"/><line style="stroke:#181818;stroke-width:1.0;stroke-dasharray:2.0,2.0;" x1="74.5" x2="334.5" y1="258.4063" y2="258.4063"/><text fill="#000000" font-family="sans-serif" font-size="13" font-weight="bold" lengthAdjust="spacing" textLength="7" x="86.5" y="253.1436">3</text><text fill="#000000" font-family="sans-serif" font-size="13" lengthAdjust="spacing" textLength="221" x="97.5" y="253.1436">shows error message (Database error)</text><line style="stroke:#000000;stroke-width:1.0;stroke-dasharray:2.0,2.0;" x1="10" x2="377.5" y1="267.4063" y2="267.4063"/><text fill="#000000" font-family="sans-serif" font-size="11" font-weight="bold" lengthAdjust="spacing" textLength="55" x="15" y="279.2764">[success]</text><polygon fill="#181818" points="80.5,302.3281,70.5,306.3281,80.5,310.3281,76.5,306.3281" style="stroke:#181818;stroke-width:1.0;"/><line style="stroke:#181818;stroke-width:1.0;stroke-dasharray:2.0,2.0;" x1="74.5" x2="334.5" y1="306.3281" y2="306.3281"/><text fill="#000000" font-family="sans-serif" font-size="13" font-weight="bold" lengthAdjust="spacing" textLength="7" x="86.5" y="301.0654">4</text><text fill="#000000" font-family="sans-serif" font-size="13" lengthAdjust="spacing" textLength="231" x="97.5" y="301.0654">shows the list of clients including status</text><!--SRC=[XL6xRiCm3Dpr5KIcPEWFU2WGm6idVm4ZqxOGFLoHQk2_BsKdXf6XrKGTxuudYkykpfWnG4WnsIcdG22vaE6zCwEzuqYTB9uWanMCepyIUC8-FLmSOK3FP8muKMgti520ZhuBHKlGEXmh_TnrxSKOB99Y2JVAMbj96KxNFhZeM3BgzGJ8S6s_Z0uHPzsCKU3KRAvhSojNjVj1ePLjG8yMyF7vIj1eQit0mc2z8xLXGIcyKdVnows2J-7HeiozijuSm0qGoH8pvcMJejVc9gASKrx1ewUQrdYDhYqzU2D1g1OZmRb5mHioRVXbL_Vq7hIYfEi6BhOc-6-GJ0HUbmjfU3v2uqVhIrz_xh2HFyR5tlm2]--></g></svg>