<?xml version="1.0" encoding="us-ascii" standalone="no"?><svg xmlns="http://www.w3.org/2000/svg" xmlns:xlink="http://www.w3.org/1999/xlink" contentStyleType="text/css" height="985.8px" preserveAspectRatio="none" style="width:1327px;height:985px;background:#FFFFFF;" version="1.1" viewBox="0 0 1327 985" width="1327.2px" zoomAndPan="magnify"><defs/><g><!--cluster UI--><g id="cluster_UI"><rect fill="none" height="60.6" rx="1.5" ry="1.5" style="stroke:#000000;stroke-width:0.8999999999999999;" width="104.4" x="426.6" y="4.2"/><text fill="#000000" font-family="sans-serif" font-size="8.4" font-weight="bold" lengthAdjust="spacing" textLength="8.4" x="474.6" y="14.4645">UI</text></g><!--cluster Controller--><g id="cluster_Controller"><rect fill="none" height="82.8" rx="1.5" ry="1.5" style="stroke:#000000;stroke-width:0.8999999999999999;" width="297" x="316.2" y="84.6"/><text fill="#000000" font-family="sans-serif" font-size="8.4" font-weight="bold" lengthAdjust="spacing" textLength="42.6" x="443.4" y="94.8645">Controller</text></g><!--cluster Service--><g id="cluster_Service"><rect fill="none" height="82.8" rx="1.5" ry="1.5" style="stroke:#000000;stroke-width:0.8999999999999999;" width="471.6" x="302.4" y="187.2"/><text fill="#000000" font-family="sans-serif" font-size="8.4" font-weight="bold" lengthAdjust="spacing" textLength="32.4" x="522" y="197.4645">Service</text></g><!--cluster Repository--><g id="cluster_Repository"><rect fill="none" height="214.8" rx="1.5" ry="1.5" style="stroke:#000000;stroke-width:0.8999999999999999;" width="458.4" x="128.4" y="300.6"/><text fill="#000000" font-family="sans-serif" font-size="8.4" font-weight="bold" lengthAdjust="spacing" textLength="45.6" x="334.8" y="310.8645">Repository</text></g><!--cluster Model--><g id="cluster_Model"><rect fill="none" height="436.2" rx="1.5" ry="1.5" style="stroke:#000000;stroke-width:0.8999999999999999;" width="471" x="4.2" y="546"/><text fill="#000000" font-family="sans-serif" font-size="8.4" font-weight="bold" lengthAdjust="spacing" textLength="26.4" x="226.5" y="556.2645">Model</text></g><!--cluster Exception--><g id="cluster_Exception"><rect fill="none" height="181.5" rx="1.5" ry="1.5" style="stroke:#000000;stroke-width:0.8999999999999999;" width="553.2" x="770.4" y="322.8"/><text fill="#000000" font-family="sans-serif" font-size="8.4" font-weight="bold" lengthAdjust="spacing" textLength="42" x="1026" y="333.0645">Exception</text></g><!--class CompleteOrderUI--><g id="elem_CompleteOrderUI"><rect codeLine="7" fill="#F1F1F1" height="28.8" id="CompleteOrderUI" rx="1.5" ry="1.5" style="stroke:#181818;stroke-width:0.3;" width="84.6" x="436.5" y="26.4"/><ellipse cx="445.5" cy="36" fill="#ADD1B2" rx="6.6" ry="6.6" style="stroke:#181818;stroke-width:0.6;"/><path d="M447.1594,33.525 Q447.2531,33.3938 447.3656,33.3281 Q447.4781,33.2625 447.6094,33.2625 Q447.8344,33.2625 447.975,33.4219 Q448.1156,33.5719 448.1156,33.9375 L448.1156,34.8094 Q448.1156,35.175 447.975,35.3344 Q447.8344,35.4938 447.6094,35.4938 Q447.4031,35.4938 447.2813,35.3719 Q447.1594,35.2594 447.0938,34.95 Q447.0656,34.7344 446.9531,34.6219 Q446.7562,34.3969 446.3906,34.2656 Q446.025,34.1344 445.65,34.1344 Q445.1906,34.1344 444.8063,34.3313 Q444.4313,34.5281 444.1312,34.9781 Q443.8406,35.4281 443.8406,36.0469 L443.8406,36.7031 Q443.8406,37.4438 444.375,37.9406 Q444.9094,38.4281 445.8656,38.4281 Q446.4281,38.4281 446.8219,38.2781 Q447.0563,38.1844 447.3094,37.9219 Q447.4688,37.7625 447.5531,37.7156 Q447.6469,37.6687 447.7688,37.6687 Q447.9656,37.6687 448.1156,37.8281 Q448.275,37.9781 448.275,38.1844 Q448.275,38.3906 448.0687,38.6344 Q447.7688,38.9812 447.2906,39.1781 Q446.6438,39.45 445.8656,39.45 Q444.9563,39.45 444.2344,39.075 Q443.6438,38.775 443.2313,38.1375 Q442.8187,37.4906 442.8187,36.7219 L442.8187,36.0281 Q442.8187,35.2312 443.1844,34.5469 Q443.5594,33.8531 444.2156,33.4875 Q444.8719,33.1125 445.6125,33.1125 Q446.0531,33.1125 446.4375,33.2156 Q446.8313,33.3094 447.1594,33.525 Z " fill="#000000"/><text fill="#000000" font-family="sans-serif" font-size="8.4" lengthAdjust="spacing" textLength="65.4" x="453.9" y="39.4781">CompleteOrderUI</text><line style="stroke:#181818;stroke-width:0.3;" x1="437.1" x2="520.5" y1="45.6" y2="45.6"/><line style="stroke:#181818;stroke-width:0.3;" x1="437.1" x2="520.5" y1="50.4" y2="50.4"/></g><!--class ClientController--><g id="elem_ClientController"><rect codeLine="12" fill="#F1F1F1" height="51.1453" id="ClientController" rx="1.5" ry="1.5" style="stroke:#181818;stroke-width:0.3;" width="124.2" x="326.1" y="106.8"/><ellipse cx="356.25" cy="116.4" fill="#ADD1B2" rx="6.6" ry="6.6" style="stroke:#181818;stroke-width:0.6;"/><path d="M357.9094,113.925 Q358.0031,113.7938 358.1156,113.7281 Q358.2281,113.6625 358.3594,113.6625 Q358.5844,113.6625 358.725,113.8219 Q358.8656,113.9719 358.8656,114.3375 L358.8656,115.2094 Q358.8656,115.575 358.725,115.7344 Q358.5844,115.8938 358.3594,115.8938 Q358.1531,115.8938 358.0313,115.7719 Q357.9094,115.6594 357.8438,115.35 Q357.8156,115.1344 357.7031,115.0219 Q357.5062,114.7969 357.1406,114.6656 Q356.775,114.5344 356.4,114.5344 Q355.9406,114.5344 355.5563,114.7313 Q355.1813,114.9281 354.8812,115.3781 Q354.5906,115.8281 354.5906,116.4469 L354.5906,117.1031 Q354.5906,117.8438 355.125,118.3406 Q355.6594,118.8281 356.6156,118.8281 Q357.1781,118.8281 357.5719,118.6781 Q357.8063,118.5844 358.0594,118.3219 Q358.2188,118.1625 358.3031,118.1156 Q358.3969,118.0688 358.5188,118.0688 Q358.7156,118.0688 358.8656,118.2281 Q359.025,118.3781 359.025,118.5844 Q359.025,118.7906 358.8187,119.0344 Q358.5188,119.3813 358.0406,119.5781 Q357.3938,119.85 356.6156,119.85 Q355.7063,119.85 354.9844,119.475 Q354.3938,119.175 353.9813,118.5375 Q353.5687,117.8906 353.5687,117.1219 L353.5687,116.4281 Q353.5687,115.6313 353.9344,114.9469 Q354.3094,114.2531 354.9656,113.8875 Q355.6219,113.5125 356.3625,113.5125 Q356.8031,113.5125 357.1875,113.6156 Q357.5813,113.7094 357.9094,113.925 Z " fill="#000000"/><text fill="#000000" font-family="sans-serif" font-size="8.4" lengthAdjust="spacing" textLength="58.8" x="368.55" y="119.8781">ClientController</text><line style="stroke:#181818;stroke-width:0.3;" x1="326.7" x2="449.7" y1="126" y2="126"/><line style="stroke:#181818;stroke-width:0.3;" x1="326.7" x2="449.7" y1="130.8" y2="130.8"/><text fill="#000000" font-family="sans-serif" font-size="8.4" lengthAdjust="spacing" textLength="109.2" x="329.7" y="142.2645">+getAllClients() : List&lt;Client&gt;</text><text fill="#000000" font-family="sans-serif" font-size="8.4" lengthAdjust="spacing" textLength="117" x="329.7" y="153.4371">+getClientById(clientID) : Client</text></g><!--class OrderController--><g id="elem_OrderController"><rect codeLine="17" fill="#F1F1F1" height="39.9727" id="OrderController" rx="1.5" ry="1.5" style="stroke:#181818;stroke-width:0.3;" width="132" x="471.6" y="112.2"/><ellipse cx="505.35" cy="121.8" fill="#ADD1B2" rx="6.6" ry="6.6" style="stroke:#181818;stroke-width:0.6;"/><path d="M507.0094,119.325 Q507.1031,119.1938 507.2156,119.1281 Q507.3281,119.0625 507.4594,119.0625 Q507.6844,119.0625 507.825,119.2219 Q507.9656,119.3719 507.9656,119.7375 L507.9656,120.6094 Q507.9656,120.975 507.825,121.1344 Q507.6844,121.2937 507.4594,121.2937 Q507.2531,121.2937 507.1312,121.1719 Q507.0094,121.0594 506.9437,120.75 Q506.9156,120.5344 506.8031,120.4219 Q506.6063,120.1969 506.2406,120.0656 Q505.875,119.9344 505.5,119.9344 Q505.0406,119.9344 504.6563,120.1313 Q504.2813,120.3281 503.9813,120.7781 Q503.6906,121.2281 503.6906,121.8469 L503.6906,122.5031 Q503.6906,123.2437 504.225,123.7406 Q504.7594,124.2281 505.7156,124.2281 Q506.2781,124.2281 506.6719,124.0781 Q506.9063,123.9844 507.1594,123.7219 Q507.3187,123.5625 507.4031,123.5156 Q507.4969,123.4688 507.6188,123.4688 Q507.8156,123.4688 507.9656,123.6281 Q508.125,123.7781 508.125,123.9844 Q508.125,124.1906 507.9188,124.4344 Q507.6188,124.7813 507.1406,124.9781 Q506.4938,125.25 505.7156,125.25 Q504.8063,125.25 504.0844,124.875 Q503.4938,124.575 503.0812,123.9375 Q502.6688,123.2906 502.6688,122.5219 L502.6688,121.8281 Q502.6688,121.0313 503.0344,120.3469 Q503.4094,119.6531 504.0656,119.2875 Q504.7219,118.9125 505.4625,118.9125 Q505.9031,118.9125 506.2875,119.0156 Q506.6813,119.1094 507.0094,119.325 Z " fill="#000000"/><text fill="#000000" font-family="sans-serif" font-size="8.4" lengthAdjust="spacing" textLength="59.4" x="517.65" y="125.2781">OrderController</text><line style="stroke:#181818;stroke-width:0.3;" x1="472.2" x2="603" y1="131.4" y2="131.4"/><line style="stroke:#181818;stroke-width:0.3;" x1="472.2" x2="603" y1="136.2" y2="136.2"/><text fill="#000000" font-family="sans-serif" font-size="8.4" lengthAdjust="spacing" textLength="124.8" x="475.2" y="147.6645">+completeOrder(orderID) : Order</text></g><!--class ClientService--><g id="elem_ClientService"><rect codeLine="23" fill="#F1F1F1" height="51.1453" id="ClientService" rx="1.5" ry="1.5" style="stroke:#181818;stroke-width:0.3;" width="124.2" x="312.3" y="209.4"/><ellipse cx="346.95" cy="219" fill="#ADD1B2" rx="6.6" ry="6.6" style="stroke:#181818;stroke-width:0.6;"/><path d="M348.6094,216.525 Q348.7031,216.3937 348.8156,216.3281 Q348.9281,216.2625 349.0594,216.2625 Q349.2844,216.2625 349.425,216.4219 Q349.5656,216.5719 349.5656,216.9375 L349.5656,217.8094 Q349.5656,218.175 349.425,218.3344 Q349.2844,218.4938 349.0594,218.4938 Q348.8531,218.4938 348.7313,218.3719 Q348.6094,218.2594 348.5438,217.95 Q348.5156,217.7344 348.4031,217.6219 Q348.2063,217.3969 347.8406,217.2656 Q347.475,217.1344 347.1,217.1344 Q346.6406,217.1344 346.2562,217.3312 Q345.8812,217.5281 345.5813,217.9781 Q345.2906,218.4281 345.2906,219.0469 L345.2906,219.7031 Q345.2906,220.4438 345.825,220.9406 Q346.3594,221.4281 347.3156,221.4281 Q347.8781,221.4281 348.2719,221.2781 Q348.5062,221.1844 348.7594,220.9219 Q348.9188,220.7625 349.0031,220.7156 Q349.0969,220.6688 349.2188,220.6688 Q349.4156,220.6688 349.5656,220.8281 Q349.725,220.9781 349.725,221.1844 Q349.725,221.3906 349.5188,221.6344 Q349.2188,221.9813 348.7406,222.1781 Q348.0938,222.45 347.3156,222.45 Q346.4063,222.45 345.6844,222.075 Q345.0938,221.775 344.6813,221.1375 Q344.2688,220.4906 344.2688,219.7219 L344.2688,219.0281 Q344.2688,218.2313 344.6344,217.5469 Q345.0094,216.8531 345.6656,216.4875 Q346.3219,216.1125 347.0625,216.1125 Q347.5031,216.1125 347.8875,216.2156 Q348.2813,216.3094 348.6094,216.525 Z " fill="#000000"/><text fill="#000000" font-family="sans-serif" font-size="8.4" lengthAdjust="spacing" textLength="49.8" x="359.25" y="222.4781">ClientService</text><line style="stroke:#181818;stroke-width:0.3;" x1="312.9" x2="435.9" y1="228.6" y2="228.6"/><line style="stroke:#181818;stroke-width:0.3;" x1="312.9" x2="435.9" y1="233.4" y2="233.4"/><text fill="#000000" font-family="sans-serif" font-size="8.4" lengthAdjust="spacing" textLength="100.2" x="315.9" y="244.8645">+getClients() : List&lt;Client&gt;</text><text fill="#000000" font-family="sans-serif" font-size="8.4" lengthAdjust="spacing" textLength="117" x="315.9" y="256.0371">+getClientById(clientID) : Client</text></g><!--class OrderService--><g id="elem_OrderService"><rect codeLine="28" fill="#F1F1F1" height="51.1453" id="OrderService" rx="1.5" ry="1.5" style="stroke:#181818;stroke-width:0.3;" width="125.4" x="638.7" y="209.4"/><ellipse cx="673.65" cy="219" fill="#ADD1B2" rx="6.6" ry="6.6" style="stroke:#181818;stroke-width:0.6;"/><path d="M675.3094,216.525 Q675.4031,216.3937 675.5156,216.3281 Q675.6281,216.2625 675.7594,216.2625 Q675.9844,216.2625 676.125,216.4219 Q676.2656,216.5719 676.2656,216.9375 L676.2656,217.8094 Q676.2656,218.175 676.125,218.3344 Q675.9844,218.4938 675.7594,218.4938 Q675.5531,218.4938 675.4313,218.3719 Q675.3094,218.2594 675.2438,217.95 Q675.2156,217.7344 675.1031,217.6219 Q674.9063,217.3969 674.5406,217.2656 Q674.175,217.1344 673.8,217.1344 Q673.3406,217.1344 672.9563,217.3312 Q672.5813,217.5281 672.2813,217.9781 Q671.9906,218.4281 671.9906,219.0469 L671.9906,219.7031 Q671.9906,220.4438 672.525,220.9406 Q673.0594,221.4281 674.0156,221.4281 Q674.5781,221.4281 674.9719,221.2781 Q675.2063,221.1844 675.4594,220.9219 Q675.6188,220.7625 675.7031,220.7156 Q675.7969,220.6688 675.9187,220.6688 Q676.1156,220.6688 676.2656,220.8281 Q676.425,220.9781 676.425,221.1844 Q676.425,221.3906 676.2188,221.6344 Q675.9187,221.9813 675.4406,222.1781 Q674.7937,222.45 674.0156,222.45 Q673.1062,222.45 672.3844,222.075 Q671.7937,221.775 671.3813,221.1375 Q670.9688,220.4906 670.9688,219.7219 L670.9688,219.0281 Q670.9688,218.2313 671.3344,217.5469 Q671.7094,216.8531 672.3656,216.4875 Q673.0219,216.1125 673.7625,216.1125 Q674.2031,216.1125 674.5875,216.2156 Q674.9812,216.3094 675.3094,216.525 Z " fill="#000000"/><text fill="#000000" font-family="sans-serif" font-size="8.4" lengthAdjust="spacing" textLength="50.4" x="685.95" y="222.4781">OrderService</text><line style="stroke:#181818;stroke-width:0.3;" x1="639.3" x2="763.5" y1="228.6" y2="228.6"/><line style="stroke:#181818;stroke-width:0.3;" x1="639.3" x2="763.5" y1="233.4" y2="233.4"/><text fill="#000000" font-family="sans-serif" font-size="8.4" lengthAdjust="spacing" textLength="95.4" x="642.3" y="244.8645">+completeOrder(orderID)</text><text fill="#000000" font-family="sans-serif" font-size="8.4" lengthAdjust="spacing" textLength="118.2" x="642.3" y="256.0371">-getOrderByID(orderID) : Order</text></g><!--class ProductionTreeService--><g id="elem_ProductionTreeService"><rect codeLine="33" fill="#F1F1F1" height="39.9727" id="ProductionTreeService" rx="1.5" ry="1.5" style="stroke:#181818;stroke-width:0.3;" width="160.2" x="457.5" y="214.8"/><ellipse cx="491.55" cy="224.4" fill="#ADD1B2" rx="6.6" ry="6.6" style="stroke:#181818;stroke-width:0.6;"/><path d="M493.2094,221.925 Q493.3031,221.7938 493.4156,221.7281 Q493.5281,221.6625 493.6594,221.6625 Q493.8844,221.6625 494.025,221.8219 Q494.1656,221.9719 494.1656,222.3375 L494.1656,223.2094 Q494.1656,223.575 494.025,223.7344 Q493.8844,223.8937 493.6594,223.8937 Q493.4531,223.8937 493.3312,223.7719 Q493.2094,223.6594 493.1437,223.35 Q493.1156,223.1344 493.0031,223.0219 Q492.8063,222.7969 492.4406,222.6656 Q492.075,222.5344 491.7,222.5344 Q491.2406,222.5344 490.8563,222.7313 Q490.4813,222.9281 490.1813,223.3781 Q489.8906,223.8281 489.8906,224.4469 L489.8906,225.1031 Q489.8906,225.8438 490.425,226.3406 Q490.9594,226.8281 491.9156,226.8281 Q492.4781,226.8281 492.8719,226.6781 Q493.1063,226.5844 493.3594,226.3219 Q493.5187,226.1625 493.6031,226.1156 Q493.6969,226.0688 493.8187,226.0688 Q494.0156,226.0688 494.1656,226.2281 Q494.325,226.3781 494.325,226.5844 Q494.325,226.7906 494.1188,227.0344 Q493.8187,227.3813 493.3406,227.5781 Q492.6937,227.85 491.9156,227.85 Q491.0062,227.85 490.2844,227.475 Q489.6937,227.175 489.2813,226.5375 Q488.8688,225.8906 488.8688,225.1219 L488.8688,224.4281 Q488.8688,223.6313 489.2344,222.9469 Q489.6094,222.2531 490.2656,221.8875 Q490.9219,221.5125 491.6625,221.5125 Q492.1031,221.5125 492.4875,221.6156 Q492.8812,221.7094 493.2094,221.925 Z " fill="#000000"/><text fill="#000000" font-family="sans-serif" font-size="8.4" lengthAdjust="spacing" textLength="87" x="503.85" y="227.8781">ProductionTreeService</text><line style="stroke:#181818;stroke-width:0.3;" x1="458.1" x2="617.1" y1="234" y2="234"/><line style="stroke:#181818;stroke-width:0.3;" x1="458.1" x2="617.1" y1="238.8" y2="238.8"/><text fill="#000000" font-family="sans-serif" font-size="8.4" lengthAdjust="spacing" textLength="153" x="461.1" y="250.2645">+discountRawMaterialStock(order) : void</text></g><!--class Repositories--><g id="elem_Repositories"><rect codeLine="39" fill="#F1F1F1" height="84.6633" id="Repositories" rx="1.5" ry="1.5" style="stroke:#181818;stroke-width:0.3;" width="211.2" x="138" y="322.8"/><ellipse cx="217.35" cy="332.4" fill="#ADD1B2" rx="6.6" ry="6.6" style="stroke:#181818;stroke-width:0.6;"/><path d="M219.0094,329.925 Q219.1031,329.7938 219.2156,329.7281 Q219.3281,329.6625 219.4594,329.6625 Q219.6844,329.6625 219.825,329.8219 Q219.9656,329.9719 219.9656,330.3375 L219.9656,331.2094 Q219.9656,331.575 219.825,331.7344 Q219.6844,331.8938 219.4594,331.8938 Q219.2531,331.8938 219.1313,331.7719 Q219.0094,331.6594 218.9438,331.35 Q218.9156,331.1344 218.8031,331.0219 Q218.6063,330.7969 218.2406,330.6656 Q217.875,330.5344 217.5,330.5344 Q217.0406,330.5344 216.6563,330.7313 Q216.2813,330.9281 215.9813,331.3781 Q215.6906,331.8281 215.6906,332.4469 L215.6906,333.1031 Q215.6906,333.8438 216.225,334.3406 Q216.7594,334.8281 217.7156,334.8281 Q218.2781,334.8281 218.6719,334.6781 Q218.9063,334.5844 219.1594,334.3219 Q219.3188,334.1625 219.4031,334.1156 Q219.4969,334.0687 219.6188,334.0687 Q219.8156,334.0687 219.9656,334.2281 Q220.125,334.3781 220.125,334.5844 Q220.125,334.7906 219.9188,335.0344 Q219.6188,335.3812 219.1406,335.5781 Q218.4938,335.85 217.7156,335.85 Q216.8063,335.85 216.0844,335.475 Q215.4938,335.175 215.0812,334.5375 Q214.6688,333.8906 214.6688,333.1219 L214.6688,332.4281 Q214.6688,331.6312 215.0344,330.9469 Q215.4094,330.2531 216.0656,329.8875 Q216.7219,329.5125 217.4625,329.5125 Q217.9031,329.5125 218.2875,329.6156 Q218.6813,329.7094 219.0094,329.925 Z " fill="#000000"/><text fill="#000000" font-family="sans-serif" font-size="8.4" lengthAdjust="spacing" textLength="47.4" x="229.65" y="335.8781">Repositories</text><line style="stroke:#181818;stroke-width:0.3;" x1="138.6" x2="348.6" y1="342" y2="342"/><line style="stroke:#181818;stroke-width:0.3;" x1="138.6" x2="348.6" y1="346.8" y2="346.8"/><text fill="#000000" font-family="sans-serif" font-size="8.4" lengthAdjust="spacing" textLength="56.4" x="141.6" y="358.2645">-Repositories()</text><text fill="#000000" font-family="sans-serif" font-size="8.4" lengthAdjust="spacing" textLength="109.2" x="141.6" y="369.4371">+getInstance() : Repositories</text><text fill="#000000" font-family="sans-serif" font-size="8.4" lengthAdjust="spacing" textLength="154.8" x="141.6" y="380.6098">+getClientRepository() : ClientRepository</text><text fill="#000000" font-family="sans-serif" font-size="8.4" lengthAdjust="spacing" textLength="156" x="141.6" y="391.7824">+getOrderRepository() : OrderRepository</text><text fill="#000000" font-family="sans-serif" font-size="8.4" lengthAdjust="spacing" textLength="204" x="141.6" y="402.9551">+getRawMaterialRepository() : RawMaterialRepository</text></g><!--class ClientRepository--><g id="elem_ClientRepository"><rect codeLine="47" fill="#F1F1F1" height="51.1453" id="ClientRepository" rx="1.5" ry="1.5" style="stroke:#181818;stroke-width:0.3;" width="102.6" x="138.3" y="454.8"/><ellipse cx="156.75" cy="464.4" fill="#ADD1B2" rx="6.6" ry="6.6" style="stroke:#181818;stroke-width:0.6;"/><path d="M158.4094,461.925 Q158.5031,461.7938 158.6156,461.7281 Q158.7281,461.6625 158.8594,461.6625 Q159.0844,461.6625 159.225,461.8219 Q159.3656,461.9719 159.3656,462.3375 L159.3656,463.2094 Q159.3656,463.575 159.225,463.7344 Q159.0844,463.8937 158.8594,463.8937 Q158.6531,463.8937 158.5313,463.7719 Q158.4094,463.6594 158.3438,463.35 Q158.3156,463.1344 158.2031,463.0219 Q158.0063,462.7969 157.6406,462.6656 Q157.275,462.5344 156.9,462.5344 Q156.4406,462.5344 156.0563,462.7313 Q155.6813,462.9281 155.3813,463.3781 Q155.0906,463.8281 155.0906,464.4469 L155.0906,465.1031 Q155.0906,465.8438 155.625,466.3406 Q156.1594,466.8281 157.1156,466.8281 Q157.6781,466.8281 158.0719,466.6781 Q158.3063,466.5844 158.5594,466.3219 Q158.7188,466.1625 158.8031,466.1156 Q158.8969,466.0687 159.0187,466.0687 Q159.2156,466.0687 159.3656,466.2281 Q159.525,466.3781 159.525,466.5844 Q159.525,466.7906 159.3188,467.0344 Q159.0187,467.3812 158.5406,467.5781 Q157.8937,467.85 157.1156,467.85 Q156.2062,467.85 155.4844,467.475 Q154.8937,467.175 154.4813,466.5375 Q154.0688,465.8906 154.0688,465.1219 L154.0688,464.4281 Q154.0688,463.6312 154.4344,462.9469 Q154.8094,462.2531 155.4656,461.8875 Q156.1219,461.5125 156.8625,461.5125 Q157.3031,461.5125 157.6875,461.6156 Q158.0812,461.7094 158.4094,461.925 Z " fill="#000000"/><text fill="#000000" font-family="sans-serif" font-size="8.4" lengthAdjust="spacing" textLength="62.4" x="167.25" y="467.8781">ClientRepository</text><line style="stroke:#181818;stroke-width:0.3;" x1="138.9" x2="240.3" y1="474" y2="474"/><line style="stroke:#181818;stroke-width:0.3;" x1="138.9" x2="240.3" y1="478.8" y2="478.8"/><text fill="#000000" font-family="sans-serif" font-size="8.4" lengthAdjust="spacing" textLength="83.4" x="141.9" y="490.2645">+getAll() : List&lt;Client&gt;</text><text fill="#000000" font-family="sans-serif" font-size="8.4" lengthAdjust="spacing" textLength="95.4" x="141.9" y="501.4371">+getById(clientID) : Client</text></g><!--class OrderRepository--><g id="elem_OrderRepository"><rect codeLine="52" fill="#F1F1F1" height="51.1453" id="OrderRepository" rx="1.5" ry="1.5" style="stroke:#181818;stroke-width:0.3;" width="122.4" x="454.8" y="454.8"/><ellipse cx="481.95" cy="464.4" fill="#ADD1B2" rx="6.6" ry="6.6" style="stroke:#181818;stroke-width:0.6;"/><path d="M483.6094,461.925 Q483.7031,461.7938 483.8156,461.7281 Q483.9281,461.6625 484.0594,461.6625 Q484.2844,461.6625 484.425,461.8219 Q484.5656,461.9719 484.5656,462.3375 L484.5656,463.2094 Q484.5656,463.575 484.425,463.7344 Q484.2844,463.8937 484.0594,463.8937 Q483.8531,463.8937 483.7313,463.7719 Q483.6094,463.6594 483.5438,463.35 Q483.5156,463.1344 483.4031,463.0219 Q483.2062,462.7969 482.8406,462.6656 Q482.475,462.5344 482.1,462.5344 Q481.6406,462.5344 481.2562,462.7313 Q480.8812,462.9281 480.5812,463.3781 Q480.2906,463.8281 480.2906,464.4469 L480.2906,465.1031 Q480.2906,465.8438 480.825,466.3406 Q481.3594,466.8281 482.3156,466.8281 Q482.8781,466.8281 483.2719,466.6781 Q483.5062,466.5844 483.7594,466.3219 Q483.9188,466.1625 484.0031,466.1156 Q484.0969,466.0687 484.2188,466.0687 Q484.4156,466.0687 484.5656,466.2281 Q484.725,466.3781 484.725,466.5844 Q484.725,466.7906 484.5187,467.0344 Q484.2188,467.3812 483.7406,467.5781 Q483.0938,467.85 482.3156,467.85 Q481.4063,467.85 480.6844,467.475 Q480.0938,467.175 479.6813,466.5375 Q479.2687,465.8906 479.2687,465.1219 L479.2687,464.4281 Q479.2687,463.6312 479.6344,462.9469 Q480.0094,462.2531 480.6656,461.8875 Q481.3219,461.5125 482.0625,461.5125 Q482.5031,461.5125 482.8875,461.6156 Q483.2813,461.7094 483.6094,461.925 Z " fill="#000000"/><text fill="#000000" font-family="sans-serif" font-size="8.4" lengthAdjust="spacing" textLength="63" x="494.25" y="467.8781">OrderRepository</text><line style="stroke:#181818;stroke-width:0.3;" x1="455.4" x2="576.6" y1="474" y2="474"/><line style="stroke:#181818;stroke-width:0.3;" x1="455.4" x2="576.6" y1="478.8" y2="478.8"/><text fill="#000000" font-family="sans-serif" font-size="8.4" lengthAdjust="spacing" textLength="97.8" x="458.4" y="490.2645">+getByID(orderID) : Order</text><text fill="#000000" font-family="sans-serif" font-size="8.4" lengthAdjust="spacing" textLength="115.2" x="458.4" y="501.4371">+updateState(order) : boolean</text></g><!--class RawMaterialRepository--><g id="elem_RawMaterialRepository"><rect codeLine="57" fill="#F1F1F1" height="39.9727" id="RawMaterialRepository" rx="1.5" ry="1.5" style="stroke:#181818;stroke-width:0.3;" width="171.6" x="262.2" y="460.2"/><ellipse cx="301.95" cy="469.8" fill="#ADD1B2" rx="6.6" ry="6.6" style="stroke:#181818;stroke-width:0.6;"/><path d="M303.6094,467.325 Q303.7031,467.1937 303.8156,467.1281 Q303.9281,467.0625 304.0594,467.0625 Q304.2844,467.0625 304.425,467.2219 Q304.5656,467.3719 304.5656,467.7375 L304.5656,468.6094 Q304.5656,468.975 304.425,469.1344 Q304.2844,469.2938 304.0594,469.2938 Q303.8531,469.2938 303.7313,469.1719 Q303.6094,469.0594 303.5438,468.75 Q303.5156,468.5344 303.4031,468.4219 Q303.2063,468.1969 302.8406,468.0656 Q302.475,467.9344 302.1,467.9344 Q301.6406,467.9344 301.2562,468.1312 Q300.8812,468.3281 300.5813,468.7781 Q300.2906,469.2281 300.2906,469.8469 L300.2906,470.5031 Q300.2906,471.2438 300.825,471.7406 Q301.3594,472.2281 302.3156,472.2281 Q302.8781,472.2281 303.2719,472.0781 Q303.5062,471.9844 303.7594,471.7219 Q303.9188,471.5625 304.0031,471.5156 Q304.0969,471.4688 304.2188,471.4688 Q304.4156,471.4688 304.5656,471.6281 Q304.725,471.7781 304.725,471.9844 Q304.725,472.1906 304.5188,472.4344 Q304.2188,472.7813 303.7406,472.9781 Q303.0938,473.25 302.3156,473.25 Q301.4063,473.25 300.6844,472.875 Q300.0938,472.575 299.6813,471.9375 Q299.2688,471.2906 299.2688,470.5219 L299.2688,469.8281 Q299.2688,469.0313 299.6344,468.3469 Q300.0094,467.6531 300.6656,467.2875 Q301.3219,466.9125 302.0625,466.9125 Q302.5031,466.9125 302.8875,467.0156 Q303.2813,467.1094 303.6094,467.325 Z " fill="#000000"/><text fill="#000000" font-family="sans-serif" font-size="8.4" lengthAdjust="spacing" textLength="87" x="314.25" y="473.2781">RawMaterialRepository</text><line style="stroke:#181818;stroke-width:0.3;" x1="262.8" x2="433.2" y1="479.4" y2="479.4"/><line style="stroke:#181818;stroke-width:0.3;" x1="262.8" x2="433.2" y1="484.2" y2="484.2"/><text fill="#000000" font-family="sans-serif" font-size="8.4" lengthAdjust="spacing" textLength="164.4" x="265.8" y="495.6645">+updateRawMaterial(rawMaterial) : boolean</text></g><!--class Client--><g id="elem_Client"><rect codeLine="63" fill="#F1F1F1" height="140.5266" id="Client" rx="1.5" ry="1.5" style="stroke:#181818;stroke-width:0.3;" width="255" x="14.1" y="568.2"/><ellipse cx="128.25" cy="577.8" fill="#ADD1B2" rx="6.6" ry="6.6" style="stroke:#181818;stroke-width:0.6;"/><path d="M129.9094,575.325 Q130.0031,575.1938 130.1156,575.1281 Q130.2281,575.0625 130.3594,575.0625 Q130.5844,575.0625 130.725,575.2219 Q130.8656,575.3719 130.8656,575.7375 L130.8656,576.6094 Q130.8656,576.975 130.725,577.1344 Q130.5844,577.2937 130.3594,577.2937 Q130.1531,577.2937 130.0313,577.1719 Q129.9094,577.0594 129.8438,576.75 Q129.8156,576.5344 129.7031,576.4219 Q129.5063,576.1969 129.1406,576.0656 Q128.775,575.9344 128.4,575.9344 Q127.9406,575.9344 127.5562,576.1313 Q127.1812,576.3281 126.8813,576.7781 Q126.5906,577.2281 126.5906,577.8469 L126.5906,578.5031 Q126.5906,579.2438 127.125,579.7406 Q127.6594,580.2281 128.6156,580.2281 Q129.1781,580.2281 129.5719,580.0781 Q129.8063,579.9844 130.0594,579.7219 Q130.2188,579.5625 130.3031,579.5156 Q130.3969,579.4688 130.5187,579.4688 Q130.7156,579.4688 130.8656,579.6281 Q131.025,579.7781 131.025,579.9844 Q131.025,580.1906 130.8188,580.4344 Q130.5187,580.7813 130.0406,580.9781 Q129.3937,581.25 128.6156,581.25 Q127.7063,581.25 126.9844,580.875 Q126.3938,580.575 125.9812,579.9375 Q125.5688,579.2906 125.5688,578.5219 L125.5688,577.8281 Q125.5688,577.0313 125.9344,576.3469 Q126.3094,575.6531 126.9656,575.2875 Q127.6219,574.9125 128.3625,574.9125 Q128.8031,574.9125 129.1875,575.0156 Q129.5812,575.1094 129.9094,575.325 Z " fill="#000000"/><text fill="#000000" font-family="sans-serif" font-size="8.4" lengthAdjust="spacing" textLength="21.6" x="140.55" y="581.2781">Client</text><line style="stroke:#181818;stroke-width:0.3;" x1="14.7" x2="268.5" y1="587.4" y2="587.4"/><text fill="#000000" font-family="sans-serif" font-size="8.4" lengthAdjust="spacing" textLength="46.8" x="17.7" y="598.8645">-clientID : int</text><text fill="#000000" font-family="sans-serif" font-size="8.4" lengthAdjust="spacing" textLength="72" x="17.7" y="610.0371">-address : Address</text><text fill="#000000" font-family="sans-serif" font-size="8.4" lengthAdjust="spacing" textLength="53.4" x="17.7" y="621.2098">-name : String</text><text fill="#000000" font-family="sans-serif" font-size="8.4" lengthAdjust="spacing" textLength="50.4" x="17.7" y="632.3824">-vatin : String</text><text fill="#000000" font-family="sans-serif" font-size="8.4" lengthAdjust="spacing" textLength="72.6" x="17.7" y="643.5551">-phoneNumber : int</text><text fill="#000000" font-family="sans-serif" font-size="8.4" lengthAdjust="spacing" textLength="52.2" x="17.7" y="654.7277">-email : String</text><text fill="#000000" font-family="sans-serif" font-size="8.4" lengthAdjust="spacing" textLength="81.6" x="17.7" y="665.9004">-type : CompanyType</text><text fill="#000000" font-family="sans-serif" font-size="8.4" lengthAdjust="spacing" textLength="69.6" x="17.7" y="677.073">-state : EntityState</text><text fill="#000000" font-family="sans-serif" font-size="8.4" lengthAdjust="spacing" textLength="79.8" x="17.7" y="688.2457">-orders : List&lt;Order&gt;</text><line style="stroke:#181818;stroke-width:0.3;" x1="14.7" x2="268.5" y1="692.7539" y2="692.7539"/><text fill="#000000" font-family="sans-serif" font-size="8.4" lengthAdjust="spacing" textLength="247.8" x="17.7" y="704.2184">+Client(clientID, name, address, vatin, phoneNumber, email, type)</text></g><!--class Order--><g id="elem_Order"><rect codeLine="76" fill="#F1F1F1" height="118.1812" id="Order" rx="1.5" ry="1.5" style="stroke:#181818;stroke-width:0.3;" width="318" x="147.6" y="756"/><ellipse cx="292.95" cy="765.6" fill="#ADD1B2" rx="6.6" ry="6.6" style="stroke:#181818;stroke-width:0.6;"/><path d="M294.6094,763.125 Q294.7031,762.9938 294.8156,762.9281 Q294.9281,762.8625 295.0594,762.8625 Q295.2844,762.8625 295.425,763.0219 Q295.5656,763.1719 295.5656,763.5375 L295.5656,764.4094 Q295.5656,764.775 295.425,764.9344 Q295.2844,765.0938 295.0594,765.0938 Q294.8531,765.0938 294.7313,764.9719 Q294.6094,764.8594 294.5438,764.55 Q294.5156,764.3344 294.4031,764.2219 Q294.2063,763.9969 293.8406,763.8656 Q293.475,763.7344 293.1,763.7344 Q292.6406,763.7344 292.2562,763.9313 Q291.8812,764.1281 291.5813,764.5781 Q291.2906,765.0281 291.2906,765.6469 L291.2906,766.3031 Q291.2906,767.0437 291.825,767.5406 Q292.3594,768.0281 293.3156,768.0281 Q293.8781,768.0281 294.2719,767.8781 Q294.5062,767.7844 294.7594,767.5219 Q294.9188,767.3625 295.0031,767.3156 Q295.0969,767.2688 295.2188,767.2688 Q295.4156,767.2688 295.5656,767.4281 Q295.725,767.5781 295.725,767.7844 Q295.725,767.9906 295.5188,768.2344 Q295.2188,768.5813 294.7406,768.7781 Q294.0938,769.05 293.3156,769.05 Q292.4063,769.05 291.6844,768.675 Q291.0938,768.375 290.6813,767.7375 Q290.2688,767.0906 290.2688,766.3219 L290.2688,765.6281 Q290.2688,764.8313 290.6344,764.1469 Q291.0094,763.4531 291.6656,763.0875 Q292.3219,762.7125 293.0625,762.7125 Q293.5031,762.7125 293.8875,762.8156 Q294.2813,762.9094 294.6094,763.125 Z " fill="#000000"/><text fill="#000000" font-family="sans-serif" font-size="8.4" lengthAdjust="spacing" textLength="22.2" x="305.25" y="769.0781">Order</text><line style="stroke:#181818;stroke-width:0.3;" x1="148.2" x2="465" y1="775.2" y2="775.2"/><text fill="#000000" font-family="sans-serif" font-size="8.4" lengthAdjust="spacing" textLength="47.4" x="151.2" y="786.6645">-orderID : int</text><text fill="#000000" font-family="sans-serif" font-size="8.4" lengthAdjust="spacing" textLength="102" x="151.2" y="797.8371">-deliveryAddress : Address</text><text fill="#000000" font-family="sans-serif" font-size="8.4" lengthAdjust="spacing" textLength="66.6" x="151.2" y="809.0098">-orderDate : Date</text><text fill="#000000" font-family="sans-serif" font-size="8.4" lengthAdjust="spacing" textLength="75.6" x="151.2" y="820.1824">-deliveryDate : Date</text><text fill="#000000" font-family="sans-serif" font-size="8.4" lengthAdjust="spacing" textLength="54.6" x="151.2" y="831.3551">-price : double</text><text fill="#000000" font-family="sans-serif" font-size="8.4" lengthAdjust="spacing" textLength="79.2" x="151.2" y="842.5277">-state : ProcessState</text><text fill="#000000" font-family="sans-serif" font-size="8.4" lengthAdjust="spacing" textLength="157.2" x="151.2" y="853.7004">-productQuantity : Map&lt;Product, Integer&gt;</text><line style="stroke:#181818;stroke-width:0.3;" x1="148.2" x2="465" y1="858.2086" y2="858.2086"/><text fill="#000000" font-family="sans-serif" font-size="8.4" lengthAdjust="spacing" textLength="310.8" x="151.2" y="869.673">+Order(orderID, deliveryAddress, orderDate, deliveryDate, price, productQuantity)</text></g><!--class ProcessState--><g id="elem_ProcessState"><rect codeLine="87" fill="#F1F1F1" height="51.1453" id="ProcessState" rx="1.5" ry="1.5" style="stroke:#181818;stroke-width:0.3;" width="69.6" x="271.8" y="921.6"/><ellipse cx="280.8" cy="931.2" fill="#EB937F" rx="6.6" ry="6.6" style="stroke:#181818;stroke-width:0.6;"/><path d="M280.1156,931.6781 L280.1156,933.1781 L282.7125,933.1781 L282.7125,932.625 Q282.7125,932.2594 282.8531,932.1 Q283.0031,931.9406 283.2281,931.9406 Q283.4531,931.9406 283.5938,932.1 Q283.7344,932.2594 283.7344,932.625 L283.7344,934.2 L278.9344,934.2 Q278.5594,934.2 278.4,934.0594 Q278.25,933.9187 278.25,933.6844 Q278.25,933.4594 278.4094,933.3187 Q278.5687,933.1781 278.9344,933.1781 L279.0938,933.1781 L279.0938,929.1844 L278.9344,929.1844 Q278.5594,929.1844 278.4,929.0437 Q278.25,928.9031 278.25,928.6687 Q278.25,928.4437 278.4,928.3031 Q278.5594,928.1625 278.9344,928.1625 L283.5094,928.1625 L283.5094,929.7188 Q283.5094,930.0844 283.3688,930.2438 Q283.2375,930.3938 283.0031,930.3938 Q282.7781,930.3938 282.6375,930.2438 Q282.4969,930.0844 282.4969,929.7188 L282.4969,929.1844 L280.1156,929.1844 L280.1156,930.6563 L281.0062,930.6563 Q281.0062,930.2625 281.0813,930.15 Q281.2406,929.9063 281.5219,929.9063 Q281.7469,929.9063 281.8875,930.0656 Q282.0281,930.2156 282.0281,930.5813 L282.0281,931.7625 Q282.0281,932.0906 281.9531,932.2031 Q281.7938,932.4375 281.5219,932.4375 Q281.2406,932.4375 281.0813,932.1937 Q281.0062,932.0813 281.0062,931.6781 L280.1156,931.6781 Z " fill="#000000"/><text fill="#000000" font-family="sans-serif" font-size="8.4" lengthAdjust="spacing" textLength="50.4" x="289.2" y="934.6781">ProcessState</text><line style="stroke:#181818;stroke-width:0.3;" x1="272.4" x2="340.8" y1="940.8" y2="940.8"/><text fill="#000000" font-family="sans-serif" font-size="8.4" lengthAdjust="spacing" textLength="36" x="275.4" y="952.2645">PENDING</text><text fill="#000000" font-family="sans-serif" font-size="8.4" lengthAdjust="spacing" textLength="49.2" x="275.4" y="963.4371">CONFIRMED</text><line style="stroke:#181818;stroke-width:0.3;" x1="272.4" x2="340.8" y1="967.9453" y2="967.9453"/></g><!--class Part--><g id="elem_Part"><rect codeLine="92" fill="#F1F1F1" height="73.4906" id="Part" rx="1.5" ry="1.5" style="stroke:#181818;stroke-width:0.3;" width="112.2" x="14.1" y="778.5"/><ellipse cx="59.85" cy="788.1" fill="#ADD1B2" rx="6.6" ry="6.6" style="stroke:#181818;stroke-width:0.6;"/><path d="M61.5094,785.625 Q61.6031,785.4938 61.7156,785.4281 Q61.8281,785.3625 61.9594,785.3625 Q62.1844,785.3625 62.325,785.5219 Q62.4656,785.6719 62.4656,786.0375 L62.4656,786.9094 Q62.4656,787.275 62.325,787.4344 Q62.1844,787.5938 61.9594,787.5938 Q61.7531,787.5938 61.6312,787.4719 Q61.5094,787.3594 61.4437,787.05 Q61.4156,786.8344 61.3031,786.7219 Q61.1062,786.4969 60.7406,786.3656 Q60.375,786.2344 60,786.2344 Q59.5406,786.2344 59.1563,786.4313 Q58.7813,786.6281 58.4812,787.0781 Q58.1906,787.5281 58.1906,788.1469 L58.1906,788.8031 Q58.1906,789.5437 58.725,790.0406 Q59.2594,790.5281 60.2156,790.5281 Q60.7781,790.5281 61.1719,790.3781 Q61.4063,790.2844 61.6594,790.0219 Q61.8187,789.8625 61.9031,789.8156 Q61.9969,789.7688 62.1188,789.7688 Q62.3156,789.7688 62.4656,789.9281 Q62.625,790.0781 62.625,790.2844 Q62.625,790.4906 62.4187,790.7344 Q62.1188,791.0813 61.6406,791.2781 Q60.9938,791.55 60.2156,791.55 Q59.3063,791.55 58.5844,791.175 Q57.9938,790.875 57.5813,790.2375 Q57.1687,789.5906 57.1687,788.8219 L57.1687,788.1281 Q57.1687,787.3313 57.5344,786.6469 Q57.9094,785.9531 58.5656,785.5875 Q59.2219,785.2125 59.9625,785.2125 Q60.4031,785.2125 60.7875,785.3156 Q61.1813,785.4094 61.5094,785.625 Z " fill="#000000"/><text fill="#000000" font-family="sans-serif" font-size="8.4" lengthAdjust="spacing" textLength="15.6" x="72.15" y="791.5781">Part</text><line style="stroke:#181818;stroke-width:0.3;" x1="14.7" x2="125.7" y1="797.7" y2="797.7"/><text fill="#000000" font-family="sans-serif" font-size="8.4" lengthAdjust="spacing" textLength="39" x="17.7" y="809.1645">-id : String</text><text fill="#000000" font-family="sans-serif" font-size="8.4" lengthAdjust="spacing" textLength="53.4" x="17.7" y="820.3371">-name : String</text><text fill="#000000" font-family="sans-serif" font-size="8.4" lengthAdjust="spacing" textLength="73.8" x="17.7" y="831.5098">-description : String</text><line style="stroke:#181818;stroke-width:0.3;" x1="14.7" x2="125.7" y1="836.018" y2="836.018"/><text fill="#000000" font-family="sans-serif" font-size="8.4" lengthAdjust="spacing" textLength="105" x="17.7" y="847.4824">+Part(id, name, description)</text></g><!--class RawMaterial--><g id="elem_RawMaterial"><rect codeLine="99" fill="#F1F1F1" height="62.318" id="RawMaterial" rx="1.5" ry="1.5" style="stroke:#181818;stroke-width:0.3;" width="142.8" x="290.4" y="607.2"/><ellipse cx="336.15" cy="616.8" fill="#ADD1B2" rx="6.6" ry="6.6" style="stroke:#181818;stroke-width:0.6;"/><path d="M337.8094,614.325 Q337.9031,614.1938 338.0156,614.1281 Q338.1281,614.0625 338.2594,614.0625 Q338.4844,614.0625 338.625,614.2219 Q338.7656,614.3719 338.7656,614.7375 L338.7656,615.6094 Q338.7656,615.975 338.625,616.1344 Q338.4844,616.2937 338.2594,616.2937 Q338.0531,616.2937 337.9313,616.1719 Q337.8094,616.0594 337.7438,615.75 Q337.7156,615.5344 337.6031,615.4219 Q337.4063,615.1969 337.0406,615.0656 Q336.675,614.9344 336.3,614.9344 Q335.8406,614.9344 335.4563,615.1313 Q335.0813,615.3281 334.7813,615.7781 Q334.4906,616.2281 334.4906,616.8469 L334.4906,617.5031 Q334.4906,618.2438 335.025,618.7406 Q335.5594,619.2281 336.5156,619.2281 Q337.0781,619.2281 337.4719,619.0781 Q337.7063,618.9844 337.9594,618.7219 Q338.1188,618.5625 338.2031,618.5156 Q338.2969,618.4688 338.4188,618.4688 Q338.6156,618.4688 338.7656,618.6281 Q338.925,618.7781 338.925,618.9844 Q338.925,619.1906 338.7188,619.4344 Q338.4188,619.7813 337.9406,619.9781 Q337.2938,620.25 336.5156,620.25 Q335.6063,620.25 334.8844,619.875 Q334.2938,619.575 333.8812,618.9375 Q333.4688,618.2906 333.4688,617.5219 L333.4688,616.8281 Q333.4688,616.0313 333.8344,615.3469 Q334.2094,614.6531 334.8656,614.2875 Q335.5219,613.9125 336.2625,613.9125 Q336.7031,613.9125 337.0875,614.0156 Q337.4813,614.1094 337.8094,614.325 Z " fill="#000000"/><text fill="#000000" font-family="sans-serif" font-size="8.4" lengthAdjust="spacing" textLength="46.2" x="348.45" y="620.2781">RawMaterial</text><line style="stroke:#181818;stroke-width:0.3;" x1="291" x2="432.6" y1="626.4" y2="626.4"/><text fill="#000000" font-family="sans-serif" font-size="8.4" lengthAdjust="spacing" textLength="67.2" x="294" y="637.8645">-currentStock : int</text><text fill="#000000" font-family="sans-serif" font-size="8.4" lengthAdjust="spacing" textLength="73.2" x="294" y="649.0371">-minimumStock : int</text><line style="stroke:#181818;stroke-width:0.3;" x1="291" x2="432.6" y1="653.5453" y2="653.5453"/><text fill="#000000" font-family="sans-serif" font-size="8.4" lengthAdjust="spacing" textLength="135.6" x="294" y="665.0098">+RawMaterial(id, name, description)</text></g><!--class ClientException--><g id="elem_ClientException"><rect codeLine="108" fill="#F1F1F1" height="39.9727" id="ClientException" rx="1.5" ry="1.5" style="stroke:#181818;stroke-width:0.3;" width="168" x="780" y="345"/><ellipse cx="832.35" cy="354.6" fill="#ADD1B2" rx="6.6" ry="6.6" style="stroke:#181818;stroke-width:0.6;"/><path d="M834.0094,352.125 Q834.1031,351.9938 834.2156,351.9281 Q834.3281,351.8625 834.4594,351.8625 Q834.6844,351.8625 834.825,352.0219 Q834.9656,352.1719 834.9656,352.5375 L834.9656,353.4094 Q834.9656,353.775 834.825,353.9344 Q834.6844,354.0938 834.4594,354.0938 Q834.2531,354.0938 834.1313,353.9719 Q834.0094,353.8594 833.9438,353.55 Q833.9156,353.3344 833.8031,353.2219 Q833.6062,352.9969 833.2406,352.8656 Q832.875,352.7344 832.5,352.7344 Q832.0406,352.7344 831.6563,352.9313 Q831.2813,353.1281 830.9812,353.5781 Q830.6906,354.0281 830.6906,354.6469 L830.6906,355.3031 Q830.6906,356.0438 831.225,356.5406 Q831.7594,357.0281 832.7156,357.0281 Q833.2781,357.0281 833.6719,356.8781 Q833.9063,356.7844 834.1594,356.5219 Q834.3188,356.3625 834.4031,356.3156 Q834.4969,356.2688 834.6188,356.2688 Q834.8156,356.2688 834.9656,356.4281 Q835.125,356.5781 835.125,356.7844 Q835.125,356.9906 834.9187,357.2344 Q834.6188,357.5813 834.1406,357.7781 Q833.4938,358.05 832.7156,358.05 Q831.8063,358.05 831.0844,357.675 Q830.4938,357.375 830.0813,356.7375 Q829.6687,356.0906 829.6687,355.3219 L829.6687,354.6281 Q829.6687,353.8313 830.0344,353.1469 Q830.4094,352.4531 831.0656,352.0875 Q831.7219,351.7125 832.4625,351.7125 Q832.9031,351.7125 833.2875,351.8156 Q833.6813,351.9094 834.0094,352.125 Z " fill="#000000"/><text fill="#000000" font-family="sans-serif" font-size="8.4" lengthAdjust="spacing" textLength="58.2" x="844.65" y="358.0781">ClientException</text><line style="stroke:#181818;stroke-width:0.3;" x1="780.6" x2="947.4" y1="364.2" y2="364.2"/><line style="stroke:#181818;stroke-width:0.3;" x1="780.6" x2="947.4" y1="369" y2="369"/><text fill="#000000" font-family="sans-serif" font-size="8.4" lengthAdjust="spacing" textLength="160.8" x="783.6" y="380.4645">+clientNotFound(clientID) : ClientException</text></g><!--class OrderException--><g id="elem_OrderException"><rect codeLine="112" fill="#F1F1F1" height="39.9727" id="OrderException" rx="1.5" ry="1.5" style="stroke:#181818;stroke-width:0.3;" width="169.8" x="1143.9" y="345"/><ellipse cx="1196.85" cy="354.6" fill="#ADD1B2" rx="6.6" ry="6.6" style="stroke:#181818;stroke-width:0.6;"/><path d="M1198.5094,352.125 Q1198.6031,351.9938 1198.7156,351.9281 Q1198.8281,351.8625 1198.9594,351.8625 Q1199.1844,351.8625 1199.325,352.0219 Q1199.4656,352.1719 1199.4656,352.5375 L1199.4656,353.4094 Q1199.4656,353.775 1199.325,353.9344 Q1199.1844,354.0938 1198.9594,354.0938 Q1198.7531,354.0938 1198.6313,353.9719 Q1198.5094,353.8594 1198.4438,353.55 Q1198.4156,353.3344 1198.3031,353.2219 Q1198.1063,352.9969 1197.7406,352.8656 Q1197.375,352.7344 1197,352.7344 Q1196.5406,352.7344 1196.1563,352.9313 Q1195.7813,353.1281 1195.4813,353.5781 Q1195.1906,354.0281 1195.1906,354.6469 L1195.1906,355.3031 Q1195.1906,356.0438 1195.725,356.5406 Q1196.2594,357.0281 1197.2156,357.0281 Q1197.7781,357.0281 1198.1719,356.8781 Q1198.4063,356.7844 1198.6594,356.5219 Q1198.8188,356.3625 1198.9031,356.3156 Q1198.9969,356.2688 1199.1187,356.2688 Q1199.3156,356.2688 1199.4656,356.4281 Q1199.625,356.5781 1199.625,356.7844 Q1199.625,356.9906 1199.4188,357.2344 Q1199.1187,357.5813 1198.6406,357.7781 Q1197.9937,358.05 1197.2156,358.05 Q1196.3062,358.05 1195.5844,357.675 Q1194.9937,357.375 1194.5813,356.7375 Q1194.1688,356.0906 1194.1688,355.3219 L1194.1688,354.6281 Q1194.1688,353.8313 1194.5344,353.1469 Q1194.9094,352.4531 1195.5656,352.0875 Q1196.2219,351.7125 1196.9625,351.7125 Q1197.4031,351.7125 1197.7875,351.8156 Q1198.1812,351.9094 1198.5094,352.125 Z " fill="#000000"/><text fill="#000000" font-family="sans-serif" font-size="8.4" lengthAdjust="spacing" textLength="58.8" x="1209.15" y="358.0781">OrderException</text><line style="stroke:#181818;stroke-width:0.3;" x1="1144.5" x2="1313.1" y1="364.2" y2="364.2"/><line style="stroke:#181818;stroke-width:0.3;" x1="1144.5" x2="1313.1" y1="369" y2="369"/><text fill="#000000" font-family="sans-serif" font-size="8.4" lengthAdjust="spacing" textLength="162.6" x="1147.5" y="380.4645">+orderNotFound(orderID) : OrderException</text></g><!--class ProductException--><g id="elem_ProductException"><rect codeLine="116" fill="#F1F1F1" height="39.9727" id="ProductException" rx="1.5" ry="1.5" style="stroke:#181818;stroke-width:0.3;" width="153.6" x="969" y="345"/><ellipse cx="1010.25" cy="354.6" fill="#ADD1B2" rx="6.6" ry="6.6" style="stroke:#181818;stroke-width:0.6;"/><path d="M1011.9094,352.125 Q1012.0031,351.9938 1012.1156,351.9281 Q1012.2281,351.8625 1012.3594,351.8625 Q1012.5844,351.8625 1012.725,352.0219 Q1012.8656,352.1719 1012.8656,352.5375 L1012.8656,353.4094 Q1012.8656,353.775 1012.725,353.9344 Q1012.5844,354.0938 1012.3594,354.0938 Q1012.1531,354.0938 1012.0313,353.9719 Q1011.9094,353.8594 1011.8438,353.55 Q1011.8156,353.3344 1011.7031,353.2219 Q1011.5062,352.9969 1011.1406,352.8656 Q1010.775,352.7344 1010.4,352.7344 Q1009.9406,352.7344 1009.5563,352.9313 Q1009.1813,353.1281 1008.8812,353.5781 Q1008.5906,354.0281 1008.5906,354.6469 L1008.5906,355.3031 Q1008.5906,356.0438 1009.125,356.5406 Q1009.6594,357.0281 1010.6156,357.0281 Q1011.1781,357.0281 1011.5719,356.8781 Q1011.8063,356.7844 1012.0594,356.5219 Q1012.2188,356.3625 1012.3031,356.3156 Q1012.3969,356.2688 1012.5188,356.2688 Q1012.7156,356.2688 1012.8656,356.4281 Q1013.025,356.5781 1013.025,356.7844 Q1013.025,356.9906 1012.8187,357.2344 Q1012.5188,357.5813 1012.0406,357.7781 Q1011.3938,358.05 1010.6156,358.05 Q1009.7063,358.05 1008.9844,357.675 Q1008.3938,357.375 1007.9812,356.7375 Q1007.5687,356.0906 1007.5687,355.3219 L1007.5687,354.6281 Q1007.5687,353.8313 1007.9344,353.1469 Q1008.3094,352.4531 1008.9656,352.0875 Q1009.6219,351.7125 1010.3625,351.7125 Q1010.8031,351.7125 1011.1875,351.8156 Q1011.5813,351.9094 1011.9094,352.125 Z " fill="#000000"/><text fill="#000000" font-family="sans-serif" font-size="8.4" lengthAdjust="spacing" textLength="66" x="1022.55" y="358.0781">ProductException</text><line style="stroke:#181818;stroke-width:0.3;" x1="969.6" x2="1122" y1="364.2" y2="364.2"/><line style="stroke:#181818;stroke-width:0.3;" x1="969.6" x2="1122" y1="369" y2="369"/><text fill="#000000" font-family="sans-serif" font-size="8.4" lengthAdjust="spacing" textLength="146.4" x="972.6" y="380.4645">+notEnoughStock() : ProductException</text></g><!--class RuntimeException--><g id="elem_RuntimeException"><rect codeLine="120" fill="#F1F1F1" height="28.8" id="RuntimeException" rx="1.5" ry="1.5" style="stroke:#181818;stroke-width:0.3;" width="87" x="1002.3" y="465.9"/><ellipse cx="1011.3" cy="475.5" fill="#ADD1B2" rx="6.6" ry="6.6" style="stroke:#181818;stroke-width:0.6;"/><path d="M1012.9594,473.025 Q1013.0531,472.8937 1013.1656,472.8281 Q1013.2781,472.7625 1013.4094,472.7625 Q1013.6344,472.7625 1013.775,472.9219 Q1013.9156,473.0719 1013.9156,473.4375 L1013.9156,474.3094 Q1013.9156,474.675 1013.775,474.8344 Q1013.6344,474.9938 1013.4094,474.9938 Q1013.2031,474.9938 1013.0813,474.8719 Q1012.9594,474.7594 1012.8938,474.45 Q1012.8656,474.2344 1012.7531,474.1219 Q1012.5563,473.8969 1012.1906,473.7656 Q1011.825,473.6344 1011.45,473.6344 Q1010.9906,473.6344 1010.6062,473.8312 Q1010.2312,474.0281 1009.9313,474.4781 Q1009.6406,474.9281 1009.6406,475.5469 L1009.6406,476.2031 Q1009.6406,476.9437 1010.175,477.4406 Q1010.7094,477.9281 1011.6656,477.9281 Q1012.2281,477.9281 1012.6219,477.7781 Q1012.8562,477.6844 1013.1094,477.4219 Q1013.2688,477.2625 1013.3531,477.2156 Q1013.4469,477.1688 1013.5687,477.1688 Q1013.7656,477.1688 1013.9156,477.3281 Q1014.075,477.4781 1014.075,477.6844 Q1014.075,477.8906 1013.8688,478.1344 Q1013.5687,478.4813 1013.0906,478.6781 Q1012.4437,478.95 1011.6656,478.95 Q1010.7562,478.95 1010.0344,478.575 Q1009.4437,478.275 1009.0313,477.6375 Q1008.6188,476.9906 1008.6188,476.2219 L1008.6188,475.5281 Q1008.6188,474.7313 1008.9844,474.0469 Q1009.3594,473.3531 1010.0156,472.9875 Q1010.6719,472.6125 1011.4125,472.6125 Q1011.8531,472.6125 1012.2375,472.7156 Q1012.6312,472.8094 1012.9594,473.025 Z " fill="#000000"/><text fill="#000000" font-family="sans-serif" font-size="8.4" lengthAdjust="spacing" textLength="67.8" x="1019.7" y="478.9781">RuntimeException</text><line style="stroke:#181818;stroke-width:0.3;" x1="1002.9" x2="1088.7" y1="485.1" y2="485.1"/><line style="stroke:#181818;stroke-width:0.3;" x1="1002.9" x2="1088.7" y1="489.9" y2="489.9"/></g><!--link CompleteOrderUI to ClientController--><g id="link_CompleteOrderUI_ClientController"><path codeLine="124" d="M464.844,55.314 C451.14,68.964 432.4917,87.5546 415.8597,104.1326 " fill="none" id="CompleteOrderUI-to-ClientController" style="stroke:#181818;stroke-width:0.6;stroke-dasharray:7.0,7.0;"/><polygon fill="#181818" points="413.31,106.674,418.8289,104.5617,415.4348,104.5561,415.4403,101.162,413.31,106.674" style="stroke:#181818;stroke-width:0.6;"/></g><!--link CompleteOrderUI to OrderController--><g id="link_CompleteOrderUI_OrderController"><path codeLine="125" d="M487.86,55.314 C497.748,70.5 511.6954,91.9213 522.8554,109.0573 " fill="none" id="CompleteOrderUI-to-OrderController" style="stroke:#181818;stroke-width:0.6;stroke-dasharray:7.0,7.0;"/><polygon fill="#181818" points="524.82,112.074,523.8842,106.2393,523.1828,109.5601,519.8619,108.8588,524.82,112.074" style="stroke:#181818;stroke-width:0.6;"/></g><!--link ClientController to ClientService--><g id="link_ClientController_ClientService"><path codeLine="126" d="M384.786,157.968 C382.656,173.622 380.4119,190.1429 378.2819,205.7789 " fill="none" id="ClientController-to-ClientService" style="stroke:#181818;stroke-width:0.6;stroke-dasharray:7.0,7.0;"/><polygon fill="#181818" points="377.796,209.346,380.9029,204.3194,378.2009,206.3735,376.1468,203.6715,377.796,209.346" style="stroke:#181818;stroke-width:0.6;"/></g><!--link OrderController to OrderService--><g id="link_OrderController_OrderService"><path codeLine="127" d="M573.408,152.466 C598.734,166.302 628.2,182.4 628.2,182.4 C628.2,182.4 644.4335,193.9074 663.1475,207.1794 " fill="none" id="OrderController-to-OrderService" style="stroke:#181818;stroke-width:0.6;stroke-dasharray:7.0,7.0;"/><polygon fill="#181818" points="666.084,209.262,663.0676,204.1805,663.6369,207.5265,660.2909,208.0958,666.084,209.262" style="stroke:#181818;stroke-width:0.6;"/></g><!--link OrderController to ProductionTreeService--><g id="link_OrderController_ProductionTreeService"><path codeLine="128" d="M537.6,152.448 C537.6,170.352 537.6,193.104 537.6,211.038 " fill="none" id="OrderController-to-ProductionTreeService" style="stroke:#181818;stroke-width:0.6;stroke-dasharray:7.0,7.0;"/><polygon fill="#181818" points="537.6,214.638,540,209.238,537.6,211.638,535.2,209.238,537.6,214.638" style="stroke:#181818;stroke-width:0.6;"/></g><!--link ClientService to Repositories--><g id="link_ClientService_Repositories"><path codeLine="129" d="M349.026,260.526 C331.122,278.184 309.2773,299.7282 288.4573,320.2602 " fill="none" id="ClientService-to-Repositories" style="stroke:#181818;stroke-width:0.6;stroke-dasharray:7.0,7.0;"/><polygon fill="#181818" points="285.894,322.788,291.4241,320.7051,288.03,320.6815,288.0537,317.2875,285.894,322.788" style="stroke:#181818;stroke-width:0.6;"/><text fill="#000000" font-family="sans-serif" font-size="7.8" lengthAdjust="spacing" textLength="40.2" x="328.8" y="288.617">repositories</text></g><!--link OrderService to Repositories--><g id="link_OrderService_Repositories"><path codeLine="130" d="M654.834,260.502 C640.398,268.254 628.2,274.8 628.2,274.8 C628.2,274.8 618.6,279.6 618.6,279.6 C618.6,279.6 597,291 597,291 C597,291 412.8,295.8 412.8,295.8 C412.8,295.8 385.1817,307.016 349.7517,321.398 " fill="none" id="OrderService-to-Repositories" style="stroke:#181818;stroke-width:0.6;stroke-dasharray:7.0,7.0;"/><polygon fill="#181818" points="346.416,322.752,352.3222,322.9447,349.1957,321.6236,350.5168,318.4972,346.416,322.752" style="stroke:#181818;stroke-width:0.6;"/><text fill="#000000" font-family="sans-serif" font-size="7.8" lengthAdjust="spacing" textLength="40.2" x="619.2" y="288.617">repositories</text></g><!--link ClientService to ClientRepository--><g id="link_ClientService_ClientRepository"><path codeLine="131" d="M388.11,260.55 C397.176,277.116 407.4,295.8 407.4,295.8 C407.4,295.8 425.4,425.4 425.4,425.4 C425.4,425.4 425.4,436.8 425.4,436.8 C425.4,436.8 252,454.8 252,454.8 C252,454.8 250.9398,455.2242 244.4718,457.8042 " fill="none" id="ClientService-to-ClientRepository" style="stroke:#181818;stroke-width:0.6;stroke-dasharray:7.0,7.0;"/><polygon fill="#181818" points="241.128,459.138,247.0329,459.3665,243.9145,458.0265,245.2545,454.9081,241.128,459.138" style="stroke:#181818;stroke-width:0.6;"/><text fill="#000000" font-family="sans-serif" font-size="7.8" lengthAdjust="spacing" textLength="55.8" x="423" y="368.417">clientRepository</text></g><!--link OrderService to OrderRepository--><g id="link_OrderService_OrderRepository"><path codeLine="132" d="M689.622,260.496 C667.158,308.172 620.4,407.4 620.4,407.4 C620.4,407.4 585.3316,431.6844 555.1816,452.5644 " fill="none" id="OrderService-to-OrderRepository" style="stroke:#181818;stroke-width:0.6;stroke-dasharray:7.0,7.0;"/><polygon fill="#181818" points="552.222,454.614,558.0278,453.5126,554.6883,452.906,555.295,449.5665,552.222,454.614" style="stroke:#181818;stroke-width:0.6;"/><text fill="#000000" font-family="sans-serif" font-size="7.8" lengthAdjust="spacing" textLength="54.6" x="673.2" y="368.417">orderRepository</text></g><!--link ProductionTreeService to RawMaterialRepository--><g id="link_ProductionTreeService_RawMaterialRepository"><path codeLine="133" d="M531.528,255.054 C517.53,300.108 484.2,407.4 484.2,407.4 C484.2,407.4 441,436.8 441,436.8 C441,436.8 418.2169,447.3099 393.6889,458.6259 " fill="none" id="ProductionTreeService-to-RawMaterialRepository" style="stroke:#181818;stroke-width:0.6;stroke-dasharray:7.0,7.0;"/><polygon fill="#181818" points="390.42,460.134,396.3287,460.0511,393.1441,458.8772,394.3179,455.6926,390.42,460.134" style="stroke:#181818;stroke-width:0.6;"/><text fill="#000000" font-family="sans-serif" font-size="7.8" lengthAdjust="spacing" textLength="76.8" x="519" y="368.417">rawMaterialRepository</text></g><!--link ClientService to Client--><g id="link_ClientService_Client"><path codeLine="134" d="M312.252,248.622 C228.234,266.358 88.8,295.8 88.8,295.8 C88.8,295.8 63,425.4 63,425.4 C63,425.4 63,436.8 63,436.8 C63,436.8 91.8,520.2 91.8,520.2 C91.8,520.2 99.9302,539.397 110.6522,564.717 " fill="none" id="ClientService-to-Client" style="stroke:#181818;stroke-width:0.6;stroke-dasharray:7.0,7.0;"/><polygon fill="#181818" points="112.056,568.032,112.1603,562.1236,110.8862,565.2695,107.7403,563.9953,112.056,568.032" style="stroke:#181818;stroke-width:0.6;"/><text fill="#000000" font-family="sans-serif" font-size="7.8" lengthAdjust="spacing" textLength="18.6" x="63.6" y="434.417">client</text></g><!--link OrderService to Order--><g id="link_OrderService_Order"><path codeLine="135" d="M714.114,260.55 C722.52,277.116 732,295.8 732,295.8 C732,295.8 732,407.4 732,407.4 C732,407.4 538.2,708.6 538.2,708.6 C538.2,708.6 491.428,729.9869 437.866,754.4789 " fill="none" id="OrderService-to-Order" style="stroke:#181818;stroke-width:0.6;stroke-dasharray:7.0,7.0;"/><polygon fill="#181818" points="434.592,755.976,440.501,755.913,437.3203,754.7284,438.5049,751.5478,434.592,755.976" style="stroke:#181818;stroke-width:0.6;"/><text fill="#000000" font-family="sans-serif" font-size="7.8" lengthAdjust="spacing" textLength="17.4" x="701.4" y="483.617">order</text></g><!--link ProductionTreeService to RawMaterial--><g id="link_ProductionTreeService_RawMaterial"><path codeLine="136" d="M512.214,255.066 C491.484,271.044 465.6,291 465.6,291 C465.6,291 128.4,295.8 128.4,295.8 C128.4,295.8 87.6,425.4 87.6,425.4 C87.6,425.4 87.6,436.8 87.6,436.8 C87.6,436.8 128.4,520.2 128.4,520.2 C128.4,520.2 168,536.4 168,536.4 C168,536.4 279.6,541.2 279.6,541.2 C279.6,541.2 309.1748,575.9584 333.2348,604.2304 " fill="none" id="ProductionTreeService-to-RawMaterial" style="stroke:#181818;stroke-width:0.6;stroke-dasharray:7.0,7.0;"/><polygon fill="#181818" points="335.568,606.972,333.896,601.3042,333.6237,604.6873,330.2405,604.415,335.568,606.972" style="stroke:#181818;stroke-width:0.6;"/><text fill="#000000" font-family="sans-serif" font-size="7.8" lengthAdjust="spacing" textLength="39.6" x="88.2" y="434.417">rawMaterial</text></g><!--link Repositories to Repositories--><g id="link_Repositories_Repositories"><path codeLine="137" d="M349.338,354.468 C361.956,356.4 370.2,359.946 370.2,365.1 C370.2,370.254 365.5145,373.2551 352.8965,375.1871 " fill="none" id="Repositories-to-Repositories" style="stroke:#181818;stroke-width:0.6;"/><polygon fill="#181818" points="349.338,375.732,355.039,377.2871,352.3034,375.2779,354.3126,372.5424,349.338,375.732" style="stroke:#181818;stroke-width:0.6;"/><text fill="#000000" font-family="sans-serif" font-size="7.8" lengthAdjust="spacing" textLength="29.4" x="373.8" y="368.417">instance</text></g><!--link Repositories to ClientRepository--><g id="link_Repositories_ClientRepository"><path codeLine="138" d="M202.02,407.49 C192.042,417.522 184.2,425.4 184.2,425.4 C184.2,425.4 184.2,436.8 184.2,436.8 C184.2,436.8 184.8184,441.7362 186.0064,451.1742 " fill="none" id="Repositories-to-ClientRepository" style="stroke:#181818;stroke-width:0.6;"/><polygon fill="#181818" points="186.456,454.746,188.1628,449.0885,186.0813,451.7695,183.4004,449.688,186.456,454.746" style="stroke:#181818;stroke-width:0.6;"/><text fill="#000000" font-family="sans-serif" font-size="7.8" lengthAdjust="spacing" textLength="55.8" x="184.8" y="434.417">clientRepository</text><text fill="#000000" font-family="sans-serif" font-size="7.8" lengthAdjust="spacing" textLength="4.2" x="193.3155" y="420.8101">1</text><text fill="#000000" font-family="sans-serif" font-size="7.8" lengthAdjust="spacing" textLength="4.2" x="181.4202" y="448.0798">1</text></g><!--link Repositories to OrderRepository--><g id="link_Repositories_OrderRepository"><path codeLine="139" d="M343.29,407.424 C381.27,423.318 420.015,439.5323 453.123,453.3863 " fill="none" id="Repositories-to-OrderRepository" style="stroke:#181818;stroke-width:0.6;"/><polygon fill="#181818" points="456.444,454.776,452.389,450.4775,453.6765,453.618,450.5361,454.9055,456.444,454.776" style="stroke:#181818;stroke-width:0.6;"/><text fill="#000000" font-family="sans-serif" font-size="7.8" lengthAdjust="spacing" textLength="54.6" x="412.8" y="434.417">orderRepository</text><text fill="#000000" font-family="sans-serif" font-size="7.8" lengthAdjust="spacing" textLength="4.2" x="349.154" y="420.7373">1</text><text fill="#000000" font-family="sans-serif" font-size="7.8" lengthAdjust="spacing" textLength="4.2" x="445.8857" y="449.8364">1</text></g><!--link Repositories to RawMaterialRepository--><g id="link_Repositories_RawMaterialRepository"><path codeLine="140" d="M256.29,407.472 C260.994,422.946 265.2,436.8 265.2,436.8 C265.2,436.8 285.1996,447.1618 307.0396,458.4778 " fill="none" id="Repositories-to-RawMaterialRepository" style="stroke:#181818;stroke-width:0.6;"/><polygon fill="#181818" points="310.236,460.134,306.5455,455.5188,307.5723,458.7539,304.3373,459.7807,310.236,460.134" style="stroke:#181818;stroke-width:0.6;"/><text fill="#000000" font-family="sans-serif" font-size="7.8" lengthAdjust="spacing" textLength="76.8" x="265.8" y="434.417">rawMaterialRepository</text><text fill="#000000" font-family="sans-serif" font-size="7.8" lengthAdjust="spacing" textLength="4.2" x="253.1821" y="420.7903">1</text><text fill="#000000" font-family="sans-serif" font-size="7.8" lengthAdjust="spacing" textLength="4.2" x="298.1878" y="453.4163">1</text></g><!--link ClientRepository to Client--><g id="link_ClientRepository_Client"><path codeLine="141" d="M181.944,505.932 C176.778,522.804 170.7512,542.5095 163.9592,564.7095 " fill="none" id="ClientRepository-to-Client" style="stroke:#181818;stroke-width:0.6;"/><polygon fill="#181818" points="162.906,568.152,166.7808,563.6904,163.7837,565.2833,162.1908,562.2861,162.906,568.152" style="stroke:#181818;stroke-width:0.6;"/><text fill="#000000" font-family="sans-serif" font-size="7.8" lengthAdjust="spacing" textLength="36" x="176.4" y="534.017">categories</text><text fill="#000000" font-family="sans-serif" font-size="7.8" lengthAdjust="spacing" textLength="4.2" x="176.1891" y="519.2492">1</text><text fill="#000000" font-family="sans-serif" font-size="7.8" lengthAdjust="spacing" textLength="3" x="161.1748" y="561.5435">*</text></g><!--link OrderRepository to Order--><g id="link_OrderRepository_Order"><path codeLine="142" d="M508.086,505.92 C489.384,565.068 444,708.6 444,708.6 C444,708.6 417.1633,729.2863 385.3873,753.7783 " fill="none" id="OrderRepository-to-Order" style="stroke:#181818;stroke-width:0.6;"/><polygon fill="#181818" points="382.536,755.976,388.2781,754.5803,384.9121,754.1446,385.3478,750.7785,382.536,755.976" style="stroke:#181818;stroke-width:0.6;"/><text fill="#000000" font-family="sans-serif" font-size="7.8" lengthAdjust="spacing" textLength="36" x="496.8" y="641.717">categories</text><text fill="#000000" font-family="sans-serif" font-size="7.8" lengthAdjust="spacing" textLength="4.2" x="502.29" y="519.2353">1</text><text fill="#000000" font-family="sans-serif" font-size="7.8" lengthAdjust="spacing" textLength="3" x="385.235" y="749.2832">*</text></g><!--link RawMaterialRepository to RawMaterial--><g id="link_RawMaterialRepository_RawMaterial"><path codeLine="143" d="M349.722,500.454 C352.074,527.232 356.0128,572.0058 358.7908,603.6078 " fill="none" id="RawMaterialRepository-to-RawMaterial" style="stroke:#181818;stroke-width:0.6;"/><polygon fill="#181818" points="359.106,607.194,361.0239,601.6046,358.8433,604.2055,356.2424,602.0249,359.106,607.194" style="stroke:#181818;stroke-width:0.6;"/><text fill="#000000" font-family="sans-serif" font-size="7.8" lengthAdjust="spacing" textLength="36" x="353.4" y="534.017">categories</text><text fill="#000000" font-family="sans-serif" font-size="7.8" lengthAdjust="spacing" textLength="4.2" x="345.4547" y="513.4052">1</text><text fill="#000000" font-family="sans-serif" font-size="7.8" lengthAdjust="spacing" textLength="3" x="355.5424" y="600.5496">*</text></g><!--link RawMaterial to Part--><g id="link_RawMaterial_Part"><path codeLine="144" d="M327.66,669.78 C295.428,698.844 252,738 252,738 C252,738 136.8,756 136.8,756 C136.8,756 133.0568,759.2811 119.3528,771.3231 " fill="none" id="RawMaterial-to-Part" style="stroke:#181818;stroke-width:0.6;"/><polygon fill="none" points="111.24,778.452,121.7292,774.0273,116.9765,768.6188,111.24,778.452" style="stroke:#181818;stroke-width:0.6;"/></g><!--link Client to Order--><g id="link_Client_Order"><path codeLine="145" d="M207.048,708.612 C221.808,724.308 234.8584,738.1909 249.1324,753.3769 " fill="none" id="Client-to-Order" style="stroke:#181818;stroke-width:0.6;"/><polygon fill="#181818" points="251.598,756,249.6484,750.4216,249.5433,753.8141,246.1508,753.709,251.598,756" style="stroke:#181818;stroke-width:0.6;"/><text fill="#000000" font-family="sans-serif" font-size="7.8" lengthAdjust="spacing" textLength="12.6" x="234" y="735.617">has</text><text fill="#000000" font-family="sans-serif" font-size="7.8" lengthAdjust="spacing" textLength="4.2" x="206.9062" y="721.8552">1</text><text fill="#000000" font-family="sans-serif" font-size="7.8" lengthAdjust="spacing" textLength="3" x="244.2721" y="749.3091">*</text></g><!--link Order to ProcessState--><g id="link_Order_ProcessState"><path codeLine="146" d="M306.6,874.212 C306.6,890.808 306.6,904.404 306.6,917.862 " fill="none" id="Order-to-ProcessState" style="stroke:#181818;stroke-width:0.6;"/><polygon fill="#181818" points="306.6,921.462,309,916.062,306.6,918.462,304.2,916.062,306.6,921.462" style="stroke:#181818;stroke-width:0.6;"/><text fill="#000000" font-family="sans-serif" font-size="7.8" lengthAdjust="spacing" textLength="12.6" x="307.2" y="901.217">has</text><text fill="#000000" font-family="sans-serif" font-size="7.8" lengthAdjust="spacing" textLength="3" x="303.4898" y="887.3517">*</text><text fill="#000000" font-family="sans-serif" font-size="7.8" lengthAdjust="spacing" textLength="4.2" x="302.0653" y="914.7825">1</text></g><!--link ClientService to ClientException--><g id="link_ClientService_ClientException"><path codeLine="147" d="M420.582,260.502 C434.904,268.254 447,274.8 447,274.8 C447,274.8 522.6,291 522.6,291 C522.6,291 718.2,295.8 718.2,295.8 C718.2,295.8 776.2455,323.1493 819.3555,343.4653 " fill="none" id="ClientService-to-ClientException" style="stroke:#181818;stroke-width:0.6;stroke-dasharray:7.0,7.0;"/><polygon fill="#181818" points="822.612,345,818.7503,340.527,819.8982,343.7211,816.7041,344.869,822.612,345" style="stroke:#181818;stroke-width:0.6;"/><text fill="#000000" font-family="sans-serif" font-size="7.8" lengthAdjust="spacing" textLength="22.8" x="523.2" y="288.617">throws</text></g><!--link ClientException to RuntimeException--><g id="link_ClientException_RuntimeException"><path codeLine="148" d="M895.254,385.296 C931.8,408.216 982.2298,439.841 1014.3838,460.001 " fill="none" id="ClientException-to-RuntimeException" style="stroke:#181818;stroke-width:0.6;"/><polygon fill="none" points="1023.534,465.738,1016.2961,456.9509,1012.4714,463.051,1023.534,465.738" style="stroke:#181818;stroke-width:0.6;"/></g><!--link OrderService to OrderException--><g id="link_OrderService_OrderException"><path codeLine="149" d="M764.214,244.266 C884.028,260.994 1133.4,295.8 1133.4,295.8 C1133.4,295.8 1170.5889,322.58 1198.7949,342.896 " fill="none" id="OrderService-to-OrderException" style="stroke:#181818;stroke-width:0.6;stroke-dasharray:7.0,7.0;"/><polygon fill="#181818" points="1201.716,345,1198.737,339.8965,1199.2817,343.2466,1195.9316,343.7914,1201.716,345" style="stroke:#181818;stroke-width:0.6;"/><text fill="#000000" font-family="sans-serif" font-size="7.8" lengthAdjust="spacing" textLength="22.8" x="1096.8" y="288.617">throws</text></g><!--link OrderException to RuntimeException--><g id="link_OrderException_RuntimeException"><path codeLine="150" d="M1197.342,385.296 C1160.55,408.216 1109.7474,439.8685 1077.3774,460.0285 " fill="none" id="OrderException-to-RuntimeException" style="stroke:#181818;stroke-width:0.6;"/><polygon fill="none" points="1068.21,465.738,1079.2806,463.0843,1075.4743,456.9727,1068.21,465.738" style="stroke:#181818;stroke-width:0.6;"/></g><!--link ProductionTreeService to ProductException--><g id="link_ProductionTreeService_ProductException"><path codeLine="151" d="M548.388,255.066 C557.196,271.044 568.2,291 568.2,291 C568.2,291 958.8,295.8 958.8,295.8 C958.8,295.8 992.5569,322.4527 1018.2789,342.7687 " fill="none" id="ProductionTreeService-to-ProductException" style="stroke:#181818;stroke-width:0.6;stroke-dasharray:7.0,7.0;"/><polygon fill="#181818" points="1021.104,345,1018.3539,339.7696,1018.7498,343.1406,1015.3788,343.5364,1021.104,345" style="stroke:#181818;stroke-width:0.6;"/><text fill="#000000" font-family="sans-serif" font-size="7.8" lengthAdjust="spacing" textLength="22.8" x="568.8" y="288.617">throws</text></g><!--link ProductException to RuntimeException--><g id="link_ProductException_RuntimeException"><path codeLine="152" d="M1045.8,385.296 C1045.8,408.216 1045.8,434.778 1045.8,454.938 " fill="none" id="ProductException-to-RuntimeException" style="stroke:#181818;stroke-width:0.6;"/><polygon fill="none" points="1045.8,465.738,1049.4,454.938,1042.2,454.938,1045.8,465.738" style="stroke:#181818;stroke-width:0.6;"/></g><!--SRC=[jLPVJzim47_Ffx3wr8w0jjSA8NMqJ956OHG-W4bkhOLZHuu3wpQ- -nmdJMpdKjYazQ5jxdxtxvVp-Sed9WggQ4uAcZxHBMpqdWDHa6egjXoYiWEKEvh95oQsv3lbfQlXJ83U5q0AoVVrWwDBEItBXTQAFLOQabIA3Vi9v6CKjG79v26Pa5yHCHyB9fSoBpXek54Pg8UarRr6huxDfHHQISv11RQSWT2zjbNMdvCjw0Nd3QASpiYSV6MbFcy45nwkaNtU9zaqjN-JPOrln6qwJbIRAHuqTOkPolgxyMK5I6KRKCyi1QoiLXNKzDyAGiBXrNJwKnF9gaoWvLYnJfXR9RCgrKoAUmM0nCjOcSfAw3lwSaqrA4RvHilqgV5TUtwMB4DOl8D2banBjVU9xEGCIYVGgIkVpZpg4b6Qiv229TZ58GJtOQSzlRtGix2S10Q1pCCx70HMg6R8TfZDy6mSxw6_wvxHEEEzOH5LaPbQDjfyzM_vKKeEL0n3eQMx0Hjt3cog-lz3rsuFNSiCE7OEtSOvy64yiPOBAwTPfi1OpCcY-TUh1Ct1o3Tc9efjBtwccWb4NkoaW7MLFvh14WI1d3AEcDXXFBU3b8hzlNdgTMNDh56kX6PwRtdkbPRmyj04ziquFT1KtxL0JEfAOjAM6XDRGKoSX6DYKun9dT5if5DSEjk-20irBu8zWzelnbcrbikcjgLNrC4OLHQg7ZbpaidgaICqcH6LcZW1JqKpkBvLrB9eSDUqE6_7MKmIeM7hKUSDp9W4zSIaoxxNDKysl_h72-XH2QBAlJmTGczNwsMo_j8zNzwihvAxwzKI6SPKUPtDCgIpHdetWp9LhAWd-L1xKdkUikpGBmvuTlH4U-UiKgg-0klf7tP7pWJBgnpJdRWd_tWAxj5V_KZ1Qh7Ztoczcz6grb9VcViA6vETrSWfGBtQjkYSXaFpYCks5L6dGkgLaDLsrrobiwRBFJZoMimjp7Be4KORXPlQsTd5O0D3GS7250tMjjvJknL4uOxLkJa6G1UCoD-cQfot5ipD-klSyjukz1Puw7fmwyv96gu5Wn3X3Jfl1eHZWgzEDZtqIZHvebl2MC9TcYF97L9wNo9- -CXZyFHqG2bhLouVEFaqiU3wzpsiZXg_pUwewR-Gwm0xLnyc3i_6SElqsWZ-GBi3nxDnZVntW9iQyEyBE_xRXD6mEzgcPwK7Fhnhfm6DTLG_Y-P4xvHyEK1xXKraC6dm1aJS1NBSstY_3cPcvtYWmLt_0G00]--></g></svg>